<?xml version="1.0" encoding="iso-8859-1"?>
<!-- Generator: Adobe Illustrator 19.0.0, SVG Export Plug-In . SVG Version: 6.00 Build 0)  -->
<svg xmlns="http://www.w3.org/2000/svg" xmlns:xlink="http://www.w3.org/1999/xlink" version="1.1" id="Layer_1" x="0px" y="0px" viewBox="0 0 511.999 511.999" style="enable-background:new 0 0 511.999 511.999;" xml:space="preserve">
<path style="fill:#333333;" d="M266.562,189.824l11.802,7.868c2.135,1.422,3.417,3.818,3.417,6.385c0,2.565-1.282,4.962-3.417,6.385  l-11.802,7.867h230.091v-28.507H266.562V189.824z"/>
<g>
	<path style="fill:#ED1F34;" d="M243.54,233.678l-42.76,28.508h211.458c4.239,0,7.674,3.435,7.674,7.674h15.349   c0-4.239,3.435-7.674,7.674-7.674h53.719v-28.508H243.54z"/>
	<polygon style="fill:#ED1F34;" points="200.781,145.97 243.54,174.478 496.652,174.478 496.652,145.97  "/>
</g>
<g>
	<path style="fill:#FFE000;" d="M419.912,269.859c0,4.24-3.435,7.674-7.674,7.674h-234.48l-42.743,28.496h361.638v-28.496h-53.719   c-4.239,0-7.674-3.434-7.674-7.674l0,0H419.912L419.912,269.859z"/>
	<path style="fill:#FFE000;" d="M450.608,94.453c0,4.239-3.435,7.674-7.674,7.674H135.015l42.743,28.496h318.894v-28.496H473.63   c-4.239,0-7.674-3.435-7.674-7.674l0,0L450.608,94.453L450.608,94.453z"/>
</g>
<g>
	<polygon style="fill:#259245;" points="111.993,321.377 69.234,349.884 496.652,349.884 496.652,321.377  "/>
	<path style="fill:#259245;" d="M111.993,86.779h330.941c4.239,0,7.674,3.435,7.674,7.674h15.349c0-4.239,3.435-7.674,7.674-7.674   h23.022V58.272H69.234L111.993,86.779z"/>
</g>
<path style="fill:#FFFFFF;" d="M260.273,204.079L51.562,64.938v278.281L260.273,204.079z M87.698,213.832  c-0.005-0.02-0.011-0.038-0.017-0.058l-0.022-0.073c-0.007-0.024-0.009-0.049-0.016-0.072c-0.081-0.283-0.144-0.576-0.191-0.873  c-0.013-0.079-0.026-0.155-0.036-0.235c-0.042-0.325-0.071-0.655-0.071-0.992v-7.446l-21.458-17.35l21.458-1.109v-4.814h-1.094  c-4.238,0-7.674-3.435-7.674-7.675c0-4.239,3.436-7.674,7.674-7.674h2.64c3.008-7.151,10.085-12.187,18.316-12.187  c4.393,0,8.442,1.451,11.735,3.873l4.756-12.416l15.245,39.803l42.565,2.199l-23.429,18.943l9.89,8.349  c3.239,2.735,3.647,7.576,0.913,10.814c-1.518,1.798-3.685,2.723-5.868,2.723c-1.748,0-3.505-0.594-4.946-1.81l-0.917-0.775  l-2.988,10.13l5.263,19.585l-15.919-10.355h-39.621l-15.919,10.355l5.616-20.902L87.698,213.832z"/>
<g>
	<path style="fill:#ED1F34;" d="M145.704,244.339h-2.196l15.919,10.355l-5.263-19.585l-1.1,3.728   C152.101,242.099,149.105,244.339,145.704,244.339z"/>
	<path style="fill:#ED1F34;" d="M95.074,238.836l-1.487-5.044l-5.616,20.902l15.919-10.355h-1.453   C99.032,244.339,96.036,242.099,95.074,238.836z"/>
	<path style="fill:#ED1F34;" d="M127.069,173.135v6.36l30.999,26.172l0,0c0.001,0.001,0.001,0.001,0.001,0.001l0.009,0.008   l23.429-18.943l-42.565-2.199l-15.245-39.803l-4.756,12.416C123.858,160.766,127.069,166.575,127.069,173.135z"/>
	<polygon style="fill:#ED1F34;" points="87.345,185.624 65.887,186.733 87.345,204.084  "/>
</g>
<path d="M504.326,42.925H43.888c-0.003,0-0.006,0-0.009,0c-0.258,0.001-0.515,0.013-0.771,0.039  c-0.097,0.009-0.192,0.029-0.289,0.043c-0.149,0.022-0.299,0.038-0.446,0.067c-0.167,0.033-0.328,0.08-0.49,0.123  c-0.077,0.021-0.155,0.036-0.232,0.059c-0.151,0.048-0.299,0.103-0.447,0.159c-0.086,0.031-0.174,0.059-0.259,0.095  c-0.124,0.051-0.242,0.11-0.363,0.169c-0.108,0.051-0.215,0.098-0.32,0.153c-0.09,0.05-0.176,0.106-0.265,0.157  c-0.129,0.074-0.259,0.149-0.383,0.233c-0.061,0.04-0.118,0.087-0.177,0.129c-0.144,0.102-0.287,0.204-0.424,0.318  c-0.044,0.036-0.085,0.077-0.128,0.115c-0.144,0.124-0.287,0.247-0.422,0.384c-0.074,0.073-0.142,0.155-0.213,0.233  c-0.096,0.104-0.194,0.204-0.285,0.315c-0.163,0.198-0.317,0.405-0.459,0.62c-0.001,0.002-0.003,0.004-0.004,0.006  c-0.017,0.025-0.029,0.052-0.046,0.076c-0.121,0.187-0.237,0.376-0.342,0.575c-0.037,0.069-0.067,0.143-0.102,0.212  c-0.077,0.154-0.152,0.309-0.218,0.468c-0.042,0.102-0.076,0.206-0.113,0.308c-0.048,0.131-0.097,0.262-0.138,0.395  c-0.04,0.131-0.069,0.264-0.102,0.396c-0.027,0.11-0.057,0.218-0.08,0.328c-0.032,0.164-0.054,0.329-0.076,0.493  c-0.011,0.085-0.027,0.168-0.035,0.252c-0.021,0.211-0.029,0.422-0.032,0.633c0,0.04-0.006,0.08-0.006,0.12v0.024  c0,0.01,0,0.02,0,0.029v306.853c0,0.01,0,0.02,0,0.029v0.023c0,0.041,0.005,0.08,0.006,0.12c0.003,0.212,0.011,0.422,0.032,0.633  c0.008,0.085,0.024,0.168,0.035,0.252c0.022,0.164,0.043,0.329,0.076,0.492c0.022,0.112,0.053,0.22,0.08,0.33  c0.032,0.131,0.062,0.265,0.101,0.395c0.04,0.134,0.09,0.263,0.138,0.394c0.037,0.103,0.07,0.208,0.113,0.31  c0.065,0.159,0.142,0.312,0.217,0.466c0.035,0.07,0.065,0.143,0.102,0.212c0.106,0.198,0.221,0.388,0.342,0.575  c0.017,0.025,0.029,0.052,0.046,0.076c0.001,0.002,0.003,0.005,0.004,0.007c0.165,0.246,0.348,0.481,0.54,0.707  c0.06,0.07,0.123,0.136,0.185,0.204c0.133,0.146,0.271,0.285,0.416,0.421c0.08,0.074,0.159,0.149,0.241,0.22  c0.152,0.13,0.31,0.253,0.474,0.372c0.068,0.05,0.133,0.104,0.203,0.151c0.231,0.158,0.471,0.302,0.719,0.433  c0.06,0.032,0.122,0.059,0.183,0.089c0.198,0.099,0.4,0.191,0.608,0.273c0.08,0.031,0.158,0.06,0.239,0.087  c0.197,0.07,0.396,0.132,0.6,0.187c0.082,0.022,0.162,0.043,0.245,0.063c0.209,0.048,0.421,0.086,0.635,0.116  c0.077,0.01,0.153,0.026,0.231,0.034c0.265,0.03,0.533,0.048,0.805,0.05c0.022,0,0.043,0.004,0.065,0.004  c0.004,0,0.009-0.001,0.014-0.001h460.417c4.239,0,7.674-3.435,7.674-7.675V50.599C512,46.36,508.565,42.925,504.326,42.925z   M496.652,86.779H473.63c-4.239,0-7.674,3.435-7.674,7.674l0,0c0,4.239,3.435,7.674,7.674,7.674h23.022v28.496H177.758  l-42.743-28.496h307.919c4.239,0,7.674-3.435,7.674-7.674l0,0c0-4.239-3.435-7.674-7.674-7.674H111.993l-42.76-28.508h427.42V86.779  z M442.935,262.185c-4.239,0-7.674,3.435-7.674,7.674l0,0c0,4.24,3.435,7.674,7.674,7.674h53.719v28.496H135.016l42.743-28.496  h234.479c4.239,0,7.674-3.434,7.674-7.674l0,0c0-4.239-3.435-7.674-7.674-7.674H200.781l42.76-28.508h253.112v28.508H442.935  L442.935,262.185z M51.562,64.938l208.711,139.141L51.562,343.218V64.938z M266.562,218.331l11.802-7.867  c2.135-1.423,3.417-3.819,3.417-6.385c0-2.566-1.282-4.963-3.417-6.385l-11.802-7.868h230.091v28.507H266.562V218.331z   M243.54,174.478l-42.76-28.508h295.872v28.508H243.54z M69.234,349.884l42.76-28.507h384.66v28.507H69.234z"/>
<g>
	<path style="fill:#FFE000;" d="M102.694,203.857h29.438l-17.688-14.934c-1.727-1.457-2.723-3.603-2.723-5.864v-9.925   c0-2.489-2.025-4.513-4.514-4.513c-2.489,0-4.514,2.024-4.514,4.513v30.722H102.694z"/>
	<polygon style="fill:#FFE000;" points="108.171,228.991 139.966,228.991 142.853,219.205 105.284,219.205  "/>
</g>
<path d="M95.074,238.836c0.962,3.262,3.958,5.503,7.36,5.503h1.453h39.621h2.196c3.402,0,6.398-2.24,7.36-5.503l1.1-3.728  l2.988-10.13l0.917,0.775c1.441,1.216,3.198,1.81,4.946,1.81c2.182,0,4.349-0.926,5.868-2.723c2.734-3.239,2.325-8.08-0.913-10.814  l-9.89-8.349l-0.008-0.007c0,0-0.001-0.001-0.002-0.002l0,0l-30.999-26.172v-6.36c0-6.56-3.211-12.369-8.128-15.988  c-3.292-2.421-7.342-3.873-11.735-3.873c-8.232,0-15.308,5.035-18.316,12.187h-2.64c-4.238,0-7.674,3.435-7.674,7.674  c0,4.24,3.436,7.675,7.674,7.675h1.094v4.814v18.46v7.446c0,0.337,0.029,0.667,0.071,0.992c0.01,0.079,0.023,0.155,0.036,0.235  c0.048,0.297,0.11,0.589,0.191,0.873c0.006,0.024,0.008,0.049,0.016,0.072l0.022,0.073c0.005,0.02,0.011,0.038,0.017,0.058  l5.887,19.959L95.074,238.836z M102.694,173.135c0-2.489,2.025-4.513,4.514-4.513c2.49,0,4.514,2.024,4.514,4.513v9.925  c0,2.261,0.996,4.406,2.723,5.864l17.688,14.934h-29.439V173.135z M142.853,219.205l-2.887,9.786h-31.796l-2.887-9.786H142.853z"/>
<path style="fill:#2E3033;" d="M20.97,482.004c-6.429,0-11.661-5.232-11.661-11.661V41.549c0-6.371,5.183-11.554,11.554-11.554  h1.524c6.431,0,11.661,5.232,11.661,11.661v428.685c0,6.431-5.232,11.661-11.661,11.661H20.97V482.004z"/>
<path d="M22.386,20.686h-1.524C9.359,20.686,0,30.045,0,41.549v428.793c0,11.563,9.407,20.97,20.97,20.97h1.415  c11.564,0,20.97-9.407,20.97-20.97V41.657C43.357,30.094,33.949,20.686,22.386,20.686z M27.841,470.342  c0,3.008-2.447,5.455-5.455,5.455h-1.415c-3.008,0-5.455-2.447-5.455-5.455V41.549c0-2.949,2.399-5.348,5.348-5.348h1.524  c3.008,0,5.455,2.447,5.455,5.455v428.686H27.841z"/>
<g>
</g>
<g>
</g>
<g>
</g>
<g>
</g>
<g>
</g>
<g>
</g>
<g>
</g>
<g>
</g>
<g>
</g>
<g>
</g>
<g>
</g>
<g>
</g>
<g>
</g>
<g>
</g>
<g>
</g>
</svg>
