<?xml version="1.0" encoding="iso-8859-1"?>
<!-- Generator: Adobe Illustrator 19.0.0, SVG Export Plug-In . SVG Version: 6.00 Build 0)  -->
<svg xmlns="http://www.w3.org/2000/svg" xmlns:xlink="http://www.w3.org/1999/xlink" version="1.1" id="Layer_1" x="0px" y="0px" viewBox="0 0 512 512" style="enable-background:new 0 0 512 512;" xml:space="preserve">
<path style="fill:#259245;" d="M343.172,326.862c0-4.239,3.435-7.674,7.674-7.674l0,0V303.84l0,0c-4.239,0-7.674-3.435-7.674-7.675  V152.919c0-4.24,3.435-7.675,7.674-7.675h145.806V58.273H51.562v291.611h291.611v-23.022H343.172z M378.16,87.434h32.548  c1.855,0,3.644,0.671,5.042,1.89l11.836,10.32l11.837-10.32c1.398-1.218,3.189-1.89,5.042-1.89h32.547  c4.239,0,7.675,3.435,7.675,7.674s-3.436,7.674-7.675,7.674h-29.671l-14.712,12.827c-1.444,1.26-3.245,1.89-5.043,1.89  c-1.798,0-3.598-0.63-5.042-1.89l-14.714-12.827h-29.671c-4.239,0-7.674-3.435-7.674-7.674S373.921,87.434,378.16,87.434z"/>
<path d="M378.16,102.782h29.671l14.714,12.827c1.444,1.26,3.245,1.89,5.042,1.89c1.799,0,3.598-0.63,5.043-1.89l14.712-12.827  h29.671c4.239,0,7.675-3.435,7.675-7.674s-3.436-7.674-7.675-7.674h-32.547c-1.854,0-3.644,0.671-5.042,1.89l-11.837,10.32  l-11.836-10.32c-1.398-1.218-3.188-1.89-5.042-1.89h-32.548c-4.239,0-7.674,3.435-7.674,7.674S373.921,102.782,378.16,102.782z"/>
<rect x="453.167" y="160.592" style="fill:#FF7900;" width="43.484" height="189.295"/>
<path style="fill:#ED1F34;" d="M358.52,326.862v23.022h43.486V160.593H358.52v135.572c0,4.24-3.435,7.675-7.674,7.675v15.348  C355.085,319.188,358.52,322.623,358.52,326.862z"/>
<rect x="402.008" y="160.592" style="fill:#333333;" width="51.159" height="189.295"/>
<path d="M504.326,42.925H43.888c-4.239,0-7.674,3.435-7.674,7.674v306.959c0,4.24,3.435,7.675,7.674,7.675h460.438  c4.239,0,7.674-3.435,7.674-7.675V50.599C512,46.36,508.565,42.925,504.326,42.925z M51.562,58.273h445.091v86.972H350.846  c-4.239,0-7.674,3.435-7.674,7.675v143.246c0,4.24,3.435,7.675,7.674,7.675l0,0c4.239,0,7.674-3.435,7.674-7.675V160.593h43.486  h51.16h43.487v189.291h-43.487h-51.16H358.52v-23.022c0-4.239-3.435-7.674-7.674-7.674l0,0c-4.239,0-7.674,3.435-7.674,7.674v23.022  H51.562V58.273z"/>
<path style="fill:#2E3033;" d="M20.97,482.004c-6.429,0-11.661-5.232-11.661-11.661V41.55c0-6.371,5.183-11.554,11.554-11.554h1.524  c6.431,0,11.661,5.232,11.661,11.661v428.685c0,6.431-5.232,11.661-11.661,11.661H20.97V482.004z"/>
<path d="M22.386,20.687h-1.524C9.359,20.687,0,30.046,0,41.55v428.793c0,11.563,9.407,20.97,20.97,20.97h1.415  c11.564,0,20.97-9.407,20.97-20.97V41.657C43.357,30.094,33.949,20.687,22.386,20.687z M27.841,470.343  c0,3.008-2.447,5.455-5.455,5.455h-1.415c-3.008,0-5.455-2.447-5.455-5.455V41.55c0-2.949,2.399-5.348,5.348-5.348h1.524  c3.008,0,5.455,2.447,5.455,5.455v428.686H27.841z"/>
<g>
</g>
<g>
</g>
<g>
</g>
<g>
</g>
<g>
</g>
<g>
</g>
<g>
</g>
<g>
</g>
<g>
</g>
<g>
</g>
<g>
</g>
<g>
</g>
<g>
</g>
<g>
</g>
<g>
</g>
</svg>
