<?xml version="1.0" encoding="iso-8859-1"?>
<!-- Generator: Adobe Illustrator 19.0.0, SVG Export Plug-In . SVG Version: 6.00 Build 0)  -->
<svg xmlns="http://www.w3.org/2000/svg" xmlns:xlink="http://www.w3.org/1999/xlink" version="1.1" id="Layer_1" x="0px" y="0px" viewBox="0 0 512 512" style="enable-background:new 0 0 512 512;" xml:space="preserve">
<path style="fill:#259245;" d="M373.659,210.564c0.048,0.8,0.081,1.603,0.081,2.413v32.638v40.243h2.627  c4.354,0,7.882,3.528,7.882,7.882c0,4.353-3.528,7.881-7.882,7.881h-35.83c-4.354,0-7.882-3.528-7.882-7.881  c0-4.354,3.528-7.882,7.882-7.882h17.442v-32.362H306.26v32.362h2.627c4.354,0,7.882,3.528,7.882,7.882  c0,4.353-3.528,7.881-7.882,7.881h-35.831c-4.353,0-7.882-3.528-7.882-7.881c0-4.354,3.529-7.882,7.882-7.882h17.443v-32.362  H179.585v32.362h2.627c4.353,0,7.881,3.528,7.881,7.882c0,4.353-3.529,7.881-7.881,7.881H146.38c-4.353,0-7.881-3.528-7.881-7.881  c0-4.354,3.529-7.882,7.881-7.882h17.443v-40.243v-35.052H94.299c-4.353,0-7.881-3.528-7.881-7.881H70.656  c0,4.353-3.529,7.881-7.881,7.881H39.132v141.861h457.106V210.564H373.659z"/>
<path style="fill:#FFFFFF;" d="M94.299,194.801h69.523v-43.77H142.28c-4.353,0-7.881-3.528-7.881-7.881  c0-4.354,3.529-7.882,7.881-7.882h21.542v-15.763H142.28c-4.353,0-7.881-3.528-7.881-7.881c0-4.354,3.529-7.882,7.881-7.882h29.423  c0.007,0,0.014,0.001,0.02,0.001h36.237c3.899,0,7.213,2.853,7.794,6.708l9.497,63.114h12.566v-24.758  c0-21.731,17.68-39.411,39.411-39.411h115.86c3.703,0,6.909,2.579,7.699,6.197c0.791,3.618-1.043,7.3-4.408,8.846l-90.253,41.46  v7.664h28.204c15.176,0,28.368,8.629,34.95,21.233h126.958V52.941H39.132v141.86h23.643c4.353,0,7.881,3.528,7.881,7.882h15.763  C86.419,198.329,89.947,194.801,94.299,194.801z"/>
<path d="M504.118,37.178H31.25c-4.352,0-7.881,3.528-7.881,7.882v315.244c0,4.353,3.529,7.882,7.881,7.882h472.868  c4.354,0,7.882-3.529,7.882-7.882V45.06C512,40.706,508.472,37.178,504.118,37.178z M39.132,352.424v-141.86h23.643  c4.353,0,7.881-3.528,7.881-7.881c0-4.354-3.529-7.882-7.881-7.882H39.132V52.941h457.106v141.86H369.281  c-6.582-12.605-19.774-21.233-34.95-21.233h-28.204v-7.664l90.253-41.46c3.365-1.547,5.201-5.228,4.408-8.846  c-0.79-3.618-3.996-6.197-7.699-6.197H277.229c-21.731,0-39.411,17.68-39.411,39.411v24.758h-12.566l-9.497-63.114  c-0.581-3.856-3.894-6.708-7.794-6.708h-36.237c-0.006,0-0.013-0.001-0.02-0.001H142.28c-4.353,0-7.881,3.528-7.881,7.882  c0,4.353,3.529,7.881,7.881,7.881h21.542v15.763H142.28c-4.353,0-7.881,3.528-7.881,7.882c0,4.353,3.529,7.881,7.881,7.881h21.542  v43.77H94.299c-4.353,0-7.881,3.528-7.881,7.882c0,4.353,3.529,7.881,7.881,7.881h69.523v35.052v40.243h-17.443  c-4.353,0-7.881,3.528-7.881,7.882c0,4.353,3.529,7.881,7.881,7.881h35.831c4.353,0,7.881-3.528,7.881-7.881  c0-4.354-3.529-7.882-7.881-7.882h-2.627v-32.362h110.913v32.362h-17.443c-4.353,0-7.882,3.528-7.882,7.882  c0,4.353,3.529,7.881,7.882,7.881h35.831c4.354,0,7.882-3.528,7.882-7.881c0-4.354-3.528-7.882-7.882-7.882h-2.627v-32.362h51.718  v32.362h-17.442c-4.354,0-7.882,3.528-7.882,7.882c0,4.353,3.528,7.881,7.882,7.881h35.83c4.354,0,7.882-3.528,7.882-7.881  c0-4.354-3.528-7.882-7.882-7.882h-2.627v-40.243v-32.638c0-0.812-0.033-1.615-0.081-2.413h122.578v141.861H39.132V352.424z   M357.977,212.977v24.758H179.585V119.507h21.593l9.499,63.114c0.58,3.857,3.894,6.708,7.794,6.708h27.231  c4.353,0,7.881-3.528,7.881-7.882v-32.638c0-13.039,10.609-23.649,23.649-23.649h79.825l-62.1,28.526  c-2.798,1.286-4.59,4.083-4.59,7.162v20.598v22.677c0,4.353,3.527,7.881,7.881,7.881c4.353,0,7.881-3.528,7.881-7.881v-14.795  h28.204C347.369,189.33,357.977,199.939,357.977,212.977z"/>
<path style="fill:#ED1F34;" d="M306.126,189.33v14.795c0,4.353-3.528,7.881-7.881,7.881c-4.354,0-7.881-3.528-7.881-7.881v-22.677  V160.85c0-3.078,1.793-5.875,4.59-7.162l62.1-28.526h-79.825c-13.04,0-23.649,10.609-23.649,23.649v32.638  c0,4.354-3.529,7.882-7.881,7.882h-27.231c-3.899,0-7.214-2.852-7.794-6.708l-9.499-63.114h-21.593v118.227h178.393v-24.758  c0-13.038-10.609-23.648-23.648-23.648h-28.202V189.33z"/>
<path style="fill:#2E3033;" d="M21.536,488.1c-6.603,0-11.976-5.373-11.976-11.976V35.766c0-6.542,5.323-11.865,11.865-11.865h1.565  c6.604,0,11.976,5.373,11.976,11.976v440.247c0,6.604-5.373,11.976-11.976,11.976h-1.454V488.1z"/>
<path d="M22.99,14.34h-1.565C9.611,14.34,0,23.951,0,35.766v440.358C0,488,9.661,497.66,21.536,497.66h1.453  c11.876,0,21.536-9.661,21.536-21.536V35.876C44.526,24.001,34.865,14.34,22.99,14.34z M28.592,476.124  c0,3.089-2.513,5.602-5.602,5.602h-1.453c-3.089,0-5.602-2.513-5.602-5.602V35.766c0-3.028,2.463-5.492,5.492-5.492h1.565  c3.089,0,5.602,2.513,5.602,5.602v440.248H28.592z"/>
<g>
</g>
<g>
</g>
<g>
</g>
<g>
</g>
<g>
</g>
<g>
</g>
<g>
</g>
<g>
</g>
<g>
</g>
<g>
</g>
<g>
</g>
<g>
</g>
<g>
</g>
<g>
</g>
<g>
</g>
</svg>
