<?xml version="1.0" encoding="iso-8859-1"?>
<!-- Generator: Adobe Illustrator 19.0.0, SVG Export Plug-In . SVG Version: 6.00 Build 0)  -->
<svg xmlns="http://www.w3.org/2000/svg" xmlns:xlink="http://www.w3.org/1999/xlink" version="1.1" id="Layer_1" x="0px" y="0px" viewBox="0 0 512 512" style="enable-background:new 0 0 512 512;" xml:space="preserve">
<path style="fill:#ED1F34;" d="M45.901,296.666v54.379h450.562V55.848H45.901v209.744c0,4.292-3.477,7.769-7.768,7.769v15.536  C42.424,288.897,45.901,292.374,45.901,296.666z M182.114,182.707c0.994-3.06,3.774-5.192,6.988-5.358l55.094-2.846l19.732-51.519  c1.152-3.005,4.035-4.99,7.255-4.99s6.103,1.985,7.255,4.99l19.732,51.519l55.095,2.846c3.213,0.165,5.993,2.297,6.987,5.358  c0.995,3.062-0.001,6.418-2.505,8.442l-42.899,34.686l14.319,53.278c0.836,3.108-0.333,6.409-2.937,8.301  c-1.359,0.987-2.961,1.484-4.566,1.484c-1.471,0-2.945-0.416-4.236-1.255l-46.246-30.082l-46.245,30.08  c-2.7,1.754-6.198,1.664-8.802-0.228c-2.603-1.892-3.772-5.193-2.937-8.301l14.319-53.278l-42.9-34.686  C182.115,189.125,181.118,185.768,182.114,182.707z"/>
<path d="M504.231,40.311H38.133c-4.292,0-7.769,3.477-7.769,7.768v217.513c0,4.292,3.477,7.769,7.769,7.769  c4.291,0,7.768-3.477,7.768-7.769V55.848h450.562v295.197H45.901v-54.379c0-4.292-3.477-7.769-7.768-7.769  c-4.292,0-7.769,3.477-7.769,7.769v62.146c0,4.292,3.477,7.769,7.769,7.769h466.098c4.292,0,7.769-3.477,7.769-7.769V48.079  C512,43.788,508.523,40.311,504.231,40.311z"/>
<path style="fill:#FFE000;" d="M241.215,216.93c2.388,1.933,3.414,5.09,2.618,8.057l-10.366,38.572l33.48-21.778  c1.287-0.838,2.762-1.255,4.236-1.255c1.473,0,2.948,0.418,4.236,1.255l33.48,21.778l-10.366-38.572  c-0.798-2.967,0.229-6.125,2.618-8.057l31.057-25.111l-39.886-2.061c-3.069-0.158-5.756-2.111-6.854-4.98l-14.287-37.297  l-14.286,37.296c-1.099,2.869-3.785,4.821-6.854,4.98l-39.886,2.061L241.215,216.93z"/>
<path d="M184.616,191.149l42.9,34.686l-14.319,53.278c-0.836,3.108,0.333,6.409,2.937,8.301c2.604,1.892,6.102,1.982,8.802,0.228  l46.245-30.082l46.245,30.08c1.291,0.84,2.765,1.255,4.236,1.255c1.605,0,3.207-0.496,4.566-1.484  c2.603-1.892,3.772-5.193,2.937-8.301l-14.319-53.278l42.899-34.686c2.503-2.024,3.499-5.381,2.504-8.442  c-0.994-3.06-3.773-5.192-6.987-5.358l-55.095-2.846l-19.732-51.519c-1.152-3.005-4.035-4.99-7.255-4.99  c-3.22,0-6.103,1.985-7.255,4.99l-19.732,51.519l-55.094,2.846c-3.214,0.165-5.994,2.297-6.988,5.358  C181.118,185.768,182.115,189.125,184.616,191.149z M256.896,184.779l14.286-37.297l14.286,37.296  c1.098,2.869,3.785,4.821,6.854,4.98l39.886,2.061l-31.057,25.111c-2.388,1.933-3.415,5.09-2.618,8.057l10.366,38.572l-33.48-21.778  c-1.287-0.838-2.763-1.255-4.236-1.255c-1.474,0-2.948,0.418-4.236,1.255l-33.48,21.778l10.366-38.572  c0.797-2.967-0.229-6.125-2.618-8.057l-31.057-25.111l39.886-2.061C253.111,189.599,255.798,187.647,256.896,184.779z"/>
<path style="fill:#2E3033;" d="M21.228,484.777c-6.508,0-11.804-5.296-11.804-11.804V38.918c0-6.449,5.247-11.695,11.695-11.695  h1.542c6.509,0,11.804,5.296,11.804,11.804v433.945c0,6.509-5.296,11.804-11.804,11.804h-1.433V484.777z"/>
<path d="M22.661,17.8h-1.542C9.474,17.8,0,27.273,0,38.918v434.055C0,484.678,9.523,494.2,21.228,494.2h1.432  c11.706,0,21.228-9.523,21.228-21.228V39.027C43.889,27.322,34.366,17.8,22.661,17.8z M28.183,472.973  c0,3.045-2.477,5.522-5.522,5.522h-1.432c-3.045,0-5.522-2.477-5.522-5.522V38.918c0-2.985,2.428-5.413,5.413-5.413h1.542  c3.045,0,5.522,2.477,5.522,5.522v433.946H28.183z"/>
<g>
</g>
<g>
</g>
<g>
</g>
<g>
</g>
<g>
</g>
<g>
</g>
<g>
</g>
<g>
</g>
<g>
</g>
<g>
</g>
<g>
</g>
<g>
</g>
<g>
</g>
<g>
</g>
<g>
</g>
</svg>
