<?xml version="1.0" encoding="iso-8859-1"?>
<!-- Generator: Adobe Illustrator 19.0.0, SVG Export Plug-In . SVG Version: 6.00 Build 0)  -->
<svg xmlns="http://www.w3.org/2000/svg" xmlns:xlink="http://www.w3.org/1999/xlink" version="1.1" id="Layer_1" x="0px" y="0px" viewBox="0 0 511.999 511.999" style="enable-background:new 0 0 511.999 511.999;" xml:space="preserve">
<path style="fill:#103B9B;" d="M473.551,247.553h23.069v-87.15H50.619v87.15h392.174c4.247,0,7.689,3.442,7.689,7.69h15.38  C465.862,250.995,469.305,247.553,473.551,247.553z M212.692,229.447c-4.247,0-7.689-3.443-7.689-7.689  c0-4.247,3.443-7.689,7.689-7.689c4.246,0,7.689,3.442,7.689,7.689C220.383,226.004,216.94,229.447,212.692,229.447z   M224.542,211.668c-4.247,0-7.689-3.443-7.689-7.69s3.443-7.689,7.689-7.689c4.246,0,7.689,3.442,7.689,7.689  S228.789,211.668,224.542,211.668z M242.231,199.59c-4.247,0-7.689-3.443-7.689-7.69s3.443-7.69,7.689-7.69  c4.246,0,7.689,3.443,7.689,7.69S246.478,199.59,242.231,199.59z M262.901,193.886c-4.247,0-7.689-3.443-7.689-7.69  c0-4.246,3.443-7.688,7.689-7.688s7.689,3.442,7.689,7.688C270.59,190.443,267.147,193.886,262.901,193.886z M284.338,193.886  c-4.246,0-7.689-3.443-7.689-7.69c0-4.246,3.443-7.688,7.689-7.688c4.247,0,7.689,3.442,7.689,7.688  C292.029,190.443,288.586,193.886,284.338,193.886z M305.008,199.59c-4.247,0-7.689-3.443-7.689-7.69s3.443-7.69,7.689-7.69  c4.246,0,7.689,3.443,7.689,7.69S309.255,199.59,305.008,199.59z M315.006,203.978c0-4.247,3.443-7.689,7.689-7.689  s7.689,3.442,7.689,7.689s-3.443,7.69-7.689,7.69S315.006,208.224,315.006,203.978z M334.546,229.447  c-4.247,0-7.689-3.443-7.689-7.689c0-4.247,3.443-7.689,7.689-7.689c4.246,0,7.689,3.442,7.689,7.689  C342.236,226.004,338.793,229.447,334.546,229.447z"/>
<path style="fill:#ED1F34;" d="M473.551,262.931c-4.247,0-7.689-3.441-7.689-7.688h-15.38c0,4.247-3.443,7.688-7.689,7.688H50.619  v87.151H496.62v-87.151H473.551L473.551,262.931z"/>
<rect x="50.619" y="57.873" style="fill:#FFE000;" width="446" height="87.154"/>
<path d="M504.311,42.493H42.928c-4.246,0-7.689,3.442-7.689,7.69V357.77c0,4.247,3.443,7.69,7.689,7.69H504.31  c4.247,0,7.689-3.443,7.689-7.69V50.184C512,45.935,508.557,42.493,504.311,42.493z M496.62,57.873v87.15H50.619v-87.15H496.62z   M50.619,350.081V262.93h392.174c4.247,0,7.689-3.441,7.689-7.688c0-4.248-3.443-7.69-7.689-7.69H50.619v-87.15H496.62v87.15  h-23.069c-4.247,0-7.689,3.442-7.689,7.69c0,4.247,3.443,7.688,7.689,7.688h23.069v87.151H50.619z"/>
<g>
	<circle style="fill:#FFFFFF;" cx="212.698" cy="221.756" r="7.689"/>
	<circle style="fill:#FFFFFF;" cx="242.236" cy="191.896" r="7.69"/>
	<circle style="fill:#FFFFFF;" cx="262.903" cy="186.195" r="7.689"/>
	<circle style="fill:#FFFFFF;" cx="224.544" cy="203.981" r="7.689"/>
	<circle style="fill:#FFFFFF;" cx="334.552" cy="221.756" r="7.689"/>
	<circle style="fill:#FFFFFF;" cx="305.013" cy="191.896" r="7.69"/>
	<circle style="fill:#FFFFFF;" cx="284.336" cy="186.195" r="7.689"/>
	<circle style="fill:#FFFFFF;" cx="322.695" cy="203.981" r="7.689"/>
</g>
<path style="fill:#2E3033;" d="M21.013,482.461c-6.442,0-11.685-5.242-11.685-11.685V41.115c0-6.383,5.194-11.577,11.577-11.577  h1.527c6.444,0,11.685,5.242,11.685,11.685v429.552c0,6.444-5.242,11.685-11.685,11.685h-1.419V482.461z"/>
<path d="M22.432,20.21h-1.527C9.378,20.21,0,29.588,0,41.115v429.661c0,11.587,9.426,21.013,21.013,21.013h1.418  c11.587,0,21.013-9.426,21.013-21.013V41.223C43.444,29.636,34.018,20.21,22.432,20.21z M27.898,470.776  c0,3.014-2.452,5.466-5.466,5.466h-1.418c-3.014,0-5.466-2.452-5.466-5.466V41.115c0-2.955,2.403-5.358,5.358-5.358h1.527  c3.014,0,5.466,2.452,5.466,5.466v429.554H27.898z"/>
<g>
</g>
<g>
</g>
<g>
</g>
<g>
</g>
<g>
</g>
<g>
</g>
<g>
</g>
<g>
</g>
<g>
</g>
<g>
</g>
<g>
</g>
<g>
</g>
<g>
</g>
<g>
</g>
<g>
</g>
</svg>
