<?xml version="1.0" encoding="iso-8859-1"?>
<!-- Generator: Adobe Illustrator 19.0.0, SVG Export Plug-In . SVG Version: 6.00 Build 0)  -->
<svg xmlns="http://www.w3.org/2000/svg" xmlns:xlink="http://www.w3.org/1999/xlink" version="1.1" id="Layer_1" x="0px" y="0px" viewBox="0 0 512 512" style="enable-background:new 0 0 512 512;" xml:space="preserve">
<path style="fill:#FFE000;" d="M265.929,80.943V57.874H50.619v292.209h215.31V111.702c0-4.247,3.443-7.689,7.69-7.689V88.632  C269.372,88.632,265.929,85.189,265.929,80.943z"/>
<g>
	<path style="fill:#FFFFFF;" d="M417.627,238.109c0,2.111,0.822,4.097,2.315,5.59c1.494,1.493,3.477,2.316,5.59,2.316   c2.112,0,4.097-0.822,5.59-2.315c1.494-1.493,2.316-3.478,2.316-5.591c0-2.112-0.823-4.096-2.314-5.59   c-1.494-1.493-3.478-2.315-5.592-2.315c-2.111,0-4.095,0.822-5.588,2.315C418.449,234.013,417.627,235.998,417.627,238.109z"/>
	<path style="fill:#FFFFFF;" d="M357.985,232.52c-0.001-0.001-0.001-0.001-0.002-0.002c-1.493-1.491-3.476-2.313-5.587-2.313   s-4.096,0.822-5.59,2.315c-1.493,1.493-2.315,3.478-2.315,5.59c0,2.111,0.822,4.097,2.314,5.59   c1.494,1.493,3.478,2.316,5.591,2.316c2.112,0,4.096-0.822,5.59-2.315c1.494-1.493,2.315-3.478,2.315-5.591   c0-2.11-0.822-4.095-2.312-5.587C357.988,232.522,357.986,232.521,357.985,232.52z"/>
	<path style="fill:#FFFFFF;" d="M281.31,80.943c0,4.247-3.443,7.689-7.69,7.689v15.38c4.247,0,7.69,3.443,7.69,7.689v238.381H496.62   V57.874H281.31V80.943z M336.237,159.688c-3.003-3.003-3.003-7.872,0-10.874s7.872-3.003,10.874,0l41.853,41.852l41.853-41.852   c3.004-3.004,7.872-3.003,10.875,0c3.003,3.003,3.003,7.872,0,10.874l-0.717,0.717l5.591,5.591   c3.003,3.004,3.003,7.873-0.001,10.875c-1.501,1.502-3.47,2.252-5.437,2.252c-1.968,0-3.936-0.75-5.437-2.252l-5.591-5.59   l-3.28,3.28l5.59,5.591c3.004,3.003,3.004,7.872,0,10.874c-1.501,1.502-3.47,2.252-5.437,2.252c-1.968,0-3.935-0.75-5.437-2.252   l-5.591-5.59l-16.104,16.104l15.602,15.601c3.111-1.501,6.535-2.317,10.091-2.317c6.221,0,12.068,2.422,16.466,6.82   c4.397,4.398,6.82,10.245,6.82,16.465s-2.423,12.067-6.821,16.465c-4.397,4.398-10.244,6.82-16.465,6.82   c-6.22,0-12.067-2.422-16.465-6.82c-4.397-4.398-6.819-10.245-6.819-16.465c0-3.557,0.816-6.98,2.316-10.092l-15.602-15.601   l-15.602,15.601c1.501,3.111,2.317,6.536,2.317,10.092c0,6.22-2.422,12.067-6.821,16.465c-4.397,4.398-10.244,6.82-16.464,6.82   s-12.067-2.422-16.465-6.82c-4.398-4.398-6.82-10.245-6.82-16.465s2.422-12.067,6.821-16.465c4.397-4.398,10.244-6.82,16.464-6.82   c3.557,0,6.979,0.817,10.091,2.317l15.602-15.601l-16.104-16.104l-5.59,5.59c-1.502,1.502-3.471,2.252-5.438,2.252   s-3.935-0.75-5.436-2.252c-3.004-3.003-3.004-7.872-0.001-10.874l5.59-5.591l-3.28-3.28l-5.59,5.59   c-1.502,1.502-3.471,2.252-5.438,2.252c-1.966,0-3.935-0.75-5.436-2.252c-3.004-3.003-3.004-7.872-0.001-10.875l5.59-5.591   L336.237,159.688z"/>
</g>
<path d="M504.31,42.494H42.929c-4.248,0-7.69,3.443-7.69,7.689v307.588c0,4.247,3.442,7.689,7.69,7.689h461.38  c4.248,0,7.69-3.443,7.69-7.689V50.183C512,45.937,508.558,42.494,504.31,42.494z M496.62,350.082H281.31V111.701  c0-4.247-3.443-7.689-7.69-7.689s-7.69,3.443-7.69,7.689v238.381H50.619V57.874h215.31v23.069c0,4.247,3.443,7.689,7.69,7.689  s7.69-3.443,7.69-7.689V57.874H496.62V350.082z"/>
<path style="fill:#999999;" d="M331.366,176.87c1.501,1.502,3.47,2.252,5.436,2.252c1.967,0,3.936-0.75,5.438-2.252l5.59-5.59  l3.28,3.28l-5.59,5.591c-3.003,3.003-3.003,7.872,0.001,10.874c1.501,1.502,3.469,2.252,5.436,2.252s3.936-0.75,5.438-2.252  l5.59-5.59l16.104,16.104l-15.602,15.601c-3.111-1.501-6.535-2.317-10.091-2.317c-6.22,0-12.067,2.422-16.464,6.82  c-4.399,4.399-6.821,10.245-6.821,16.465c0,6.22,2.422,12.067,6.82,16.465c4.398,4.398,10.245,6.82,16.465,6.82  s12.067-2.422,16.464-6.82c4.399-4.398,6.821-10.245,6.821-16.465c0-3.557-0.817-6.98-2.317-10.092l15.602-15.601l15.602,15.601  c-1.501,3.111-2.316,6.536-2.316,10.092c0,6.22,2.422,12.067,6.819,16.465c4.398,4.398,10.245,6.82,16.465,6.82  c6.221,0,12.068-2.422,16.465-6.82c4.398-4.398,6.821-10.245,6.821-16.465c0-6.22-2.423-12.067-6.82-16.465  c-4.398-4.398-10.245-6.82-16.466-6.82c-3.557,0-6.979,0.817-10.091,2.317l-15.602-15.601l16.104-16.104l5.591,5.59  c1.502,1.502,3.469,2.252,5.437,2.252c1.967,0,3.936-0.75,5.437-2.252c3.004-3.003,3.004-7.872,0-10.874l-5.59-5.591l3.28-3.28  l5.591,5.59c1.501,1.502,3.469,2.252,5.437,2.252c1.967,0,3.936-0.75,5.437-2.252c3.004-3.003,3.004-7.872,0.001-10.875  l-5.591-5.591l0.717-0.717c3.003-3.003,3.003-7.872,0-10.874c-3.004-3.003-7.872-3.004-10.875,0l-41.853,41.852l-41.853-41.852  c-3.003-3.003-7.872-3.003-10.874,0s-3.003,7.872,0,10.874l0.716,0.717l-5.59,5.591C328.361,168.999,328.361,173.868,331.366,176.87  z M357.985,243.7c-1.492,1.492-3.477,2.315-5.59,2.315c-2.112,0-4.096-0.822-5.591-2.316c-1.492-1.492-2.314-3.477-2.314-5.59  c0-2.112,0.822-4.096,2.315-5.59c1.492-1.492,3.477-2.315,5.59-2.315c2.11,0,4.093,0.821,5.587,2.313  c0.001,0,0.001,0.001,0.002,0.002c0.001,0.001,0.002,0.001,0.003,0.002c1.49,1.492,2.312,3.476,2.312,5.587  C360.302,240.22,359.48,242.206,357.985,243.7z M431.124,232.521c1.491,1.492,2.314,3.477,2.314,5.59s-0.823,4.097-2.316,5.591  c-1.491,1.492-3.476,2.315-5.59,2.315c-2.111,0-4.095-0.822-5.59-2.316c-1.493-1.492-2.315-3.477-2.315-5.59s0.822-4.096,2.316-5.59  c1.492-1.492,3.476-2.315,5.588-2.315C427.644,230.204,429.629,231.027,431.124,232.521z"/>
<path style="fill:#2E3033;" d="M21.013,482.462c-6.442,0-11.685-5.242-11.685-11.685V41.115c0-6.383,5.194-11.577,11.577-11.577  h1.527c6.444,0,11.685,5.242,11.685,11.685v429.552c0,6.444-5.242,11.685-11.685,11.685h-1.419V482.462z"/>
<path d="M22.432,20.211h-1.527C9.378,20.211,0,29.588,0,41.115v429.661c0,11.587,9.426,21.013,21.013,21.013h1.418  c11.587,0,21.013-9.426,21.013-21.013V41.223C43.444,29.637,34.018,20.211,22.432,20.211z M27.898,470.777  c0,3.014-2.452,5.466-5.466,5.466h-1.418c-3.014,0-5.466-2.452-5.466-5.466V41.115c0-2.955,2.403-5.358,5.358-5.358h1.527  c3.014,0,5.466,2.452,5.466,5.466v429.554H27.898z"/>
<g>
</g>
<g>
</g>
<g>
</g>
<g>
</g>
<g>
</g>
<g>
</g>
<g>
</g>
<g>
</g>
<g>
</g>
<g>
</g>
<g>
</g>
<g>
</g>
<g>
</g>
<g>
</g>
<g>
</g>
</svg>
