<?xml version="1.0" encoding="iso-8859-1"?>
<!-- Generator: Adobe Illustrator 19.0.0, SVG Export Plug-In . SVG Version: 6.00 Build 0)  -->
<svg xmlns="http://www.w3.org/2000/svg" xmlns:xlink="http://www.w3.org/1999/xlink" version="1.1" id="Layer_1" x="0px" y="0px" viewBox="0 0 512.001 512.001" style="enable-background:new 0 0 512.001 512.001;" xml:space="preserve">
<path style="fill:#259245;" d="M473.63,242.449c-4.239,0-7.674-3.436-7.674-7.674h-15.348c0,4.239-3.436,7.674-7.674,7.674h-166.91  L74.583,349.885h422.068V242.449H473.63z"/>
<polygon style="fill:#ED1F34;" points="276.025,165.71 496.652,165.71 496.652,58.273 74.583,58.273 "/>
<g>
	<path style="fill:#333333;" d="M473.63,227.101h23.021v-15.348H275.939L51.562,325.382v19.387l218.934-116.765   c1.111-0.593,2.351-0.903,3.611-0.903h168.828c4.238,0,7.674,3.436,7.674,7.674h15.348   C465.956,230.537,469.392,227.101,473.63,227.101z"/>
	<path style="fill:#333333;" d="M496.652,196.405v-15.348H274.107c-1.26,0-2.5-0.31-3.611-0.903L51.562,63.389v19.387   l224.377,113.629H496.652z"/>
	<path style="fill:#333333;" d="M51.562,99.98v208.199L257.121,204.08L51.562,99.98z M117.341,237.845   c-4.239,0-7.674-3.436-7.674-7.674c0-4.239,3.436-7.674,7.674-7.674c10.155,0,18.418-8.262,18.418-18.418   c0-10.155-8.261-18.418-18.418-18.418s-18.418,8.262-18.418,18.418c0,4.238-3.436,7.674-7.674,7.674   c-4.239,0-7.674-3.436-7.674-7.674c0-18.618,15.147-33.766,33.766-33.766c18.618,0,33.765,15.147,33.765,33.766   C151.106,222.698,135.959,237.845,117.341,237.845z"/>
</g>
<g>
	<path style="fill:#FFE000;" d="M117.341,170.313c-18.618,0-33.766,15.147-33.766,33.766c0,4.238,3.436,7.674,7.674,7.674   c4.238,0,7.674-3.436,7.674-7.674c0-10.155,8.262-18.418,18.418-18.418s18.418,8.262,18.418,18.418   c0,10.155-8.261,18.418-18.418,18.418c-4.239,0-7.674,3.436-7.674,7.674c0,4.238,3.436,7.674,7.674,7.674   c18.618,0,33.765-15.147,33.765-33.765C151.106,185.46,135.959,170.313,117.341,170.313z"/>
	<polygon style="fill:#FFE000;" points="496.652,211.753 496.652,196.405 275.939,196.405 51.562,82.776 51.562,99.98    257.121,204.08 51.562,308.178 51.562,325.382 275.939,211.753  "/>
</g>
<path d="M504.326,42.926H43.888h-0.001c-0.515,0-1.026,0.051-1.528,0.153c-0.156,0.032-0.308,0.076-0.461,0.117  c-0.085,0.023-0.172,0.04-0.255,0.065c-0.161,0.05-0.318,0.11-0.474,0.17c-0.076,0.029-0.152,0.053-0.228,0.084  c-0.133,0.056-0.261,0.121-0.391,0.183c-0.096,0.047-0.194,0.089-0.289,0.139c-0.096,0.052-0.188,0.112-0.281,0.168  c-0.123,0.072-0.246,0.142-0.365,0.221c-0.059,0.04-0.114,0.085-0.171,0.125c-0.147,0.104-0.294,0.209-0.433,0.324  c-0.025,0.022-0.048,0.044-0.073,0.066c-0.396,0.334-0.759,0.713-1.087,1.132c-0.114,0.145-0.228,0.29-0.33,0.443  c-0.007,0.011-0.014,0.024-0.022,0.036c-0.136,0.204-0.262,0.414-0.379,0.631c-0.001,0.003-0.003,0.005-0.004,0.007  c-0.013,0.026-0.024,0.054-0.037,0.081c-0.102,0.197-0.199,0.397-0.284,0.604c-0.031,0.074-0.054,0.151-0.083,0.225  c-0.06,0.158-0.12,0.318-0.17,0.48c-0.037,0.121-0.063,0.243-0.094,0.365c-0.029,0.119-0.063,0.237-0.087,0.359  c-0.033,0.168-0.055,0.335-0.077,0.503c-0.01,0.081-0.026,0.159-0.034,0.241c-0.022,0.219-0.031,0.44-0.033,0.66  c0,0.032-0.004,0.063-0.004,0.095v0.022c0,0.018,0,0.035,0,0.053v306.81c0,0.018,0,0.035,0,0.053v0.022  c0,0.032,0.004,0.063,0.004,0.095c0.002,0.219,0.011,0.44,0.033,0.659c0.008,0.082,0.023,0.16,0.034,0.241  c0.022,0.169,0.043,0.335,0.077,0.503c0.024,0.121,0.058,0.239,0.087,0.359c0.031,0.121,0.057,0.243,0.094,0.364  c0.05,0.163,0.109,0.322,0.17,0.48c0.028,0.076,0.052,0.151,0.083,0.225c0.086,0.207,0.182,0.408,0.284,0.604  c0.013,0.026,0.024,0.054,0.037,0.08c0.001,0.002,0.003,0.004,0.004,0.006c0.153,0.285,0.327,0.558,0.514,0.82  c0.051,0.071,0.104,0.141,0.157,0.21c0.146,0.192,0.301,0.375,0.464,0.552c0.057,0.062,0.11,0.127,0.169,0.185  c0.207,0.21,0.425,0.405,0.654,0.59c0.072,0.058,0.148,0.11,0.221,0.165c0.182,0.137,0.37,0.265,0.565,0.385  c0.073,0.046,0.147,0.092,0.221,0.134c0.532,0.304,1.103,0.545,1.705,0.716c0.07,0.02,0.143,0.037,0.214,0.055  c0.232,0.059,0.468,0.107,0.707,0.144c0.085,0.014,0.169,0.029,0.254,0.039c0.281,0.034,0.567,0.055,0.857,0.058  c0.024,0,0.048,0.004,0.071,0.004c0.008,0,0.017-0.001,0.025-0.001h460.407c4.239,0,7.674-3.436,7.674-7.674V50.6  C512,46.362,508.564,42.926,504.326,42.926z M496.652,165.71H276.025L74.583,58.273h422.068V165.71H496.652z M74.583,349.885  l201.441-107.436h166.909c4.238,0,7.674-3.436,7.674-7.674c0-4.238-3.436-7.674-7.674-7.674H274.107c-1.26,0-2.5,0.31-3.611,0.903  L51.562,344.769v-19.387v-17.203V99.98V82.776V63.389l218.934,116.765c1.111,0.593,2.351,0.903,3.611,0.903h222.545v15.348v15.348  V227.1h-23.021c-4.239,0-7.674,3.436-7.674,7.674c0,4.239,3.436,7.674,7.674,7.674h23.021v107.435H74.583V349.885z"/>
<path style="fill:#2E3033;" d="M20.97,482.005c-6.429,0-11.661-5.232-11.661-11.661V41.55c0-6.371,5.183-11.554,11.554-11.554h1.524  c6.431,0,11.661,5.232,11.661,11.661v428.685c0,6.431-5.232,11.661-11.661,11.661H20.97V482.005z"/>
<path d="M22.386,20.687h-1.524C9.359,20.687,0,30.046,0,41.55v428.793c0,11.563,9.407,20.97,20.97,20.97h1.415  c11.564,0,20.97-9.407,20.97-20.97V41.658C43.357,30.095,33.949,20.687,22.386,20.687z M27.841,470.343  c0,3.008-2.447,5.455-5.455,5.455h-1.415c-3.008,0-5.455-2.447-5.455-5.455V41.55c0-2.949,2.399-5.348,5.348-5.348h1.524  c3.008,0,5.455,2.447,5.455,5.455v428.686H27.841z"/>
<g>
</g>
<g>
</g>
<g>
</g>
<g>
</g>
<g>
</g>
<g>
</g>
<g>
</g>
<g>
</g>
<g>
</g>
<g>
</g>
<g>
</g>
<g>
</g>
<g>
</g>
<g>
</g>
<g>
</g>
</svg>
