<?xml version="1.0" encoding="iso-8859-1"?>
<!-- Generator: Adobe Illustrator 19.0.0, SVG Export Plug-In . SVG Version: 6.00 Build 0)  -->
<svg xmlns="http://www.w3.org/2000/svg" xmlns:xlink="http://www.w3.org/1999/xlink" version="1.1" id="Layer_1" x="0px" y="0px" viewBox="0 0 512.001 512.001" style="enable-background:new 0 0 512.001 512.001;" xml:space="preserve">
<rect x="51.562" y="163.665" style="fill:#FFFFFF;" width="445.088" height="80.834"/>
<path style="fill:#3DB4EA;" d="M496.652,58.273H51.562v90.041h445.091V58.273H496.652z M274.107,70.808  c4.513,0,8.186,3.672,8.186,8.186c0,4.513-3.673,8.186-8.186,8.186s-8.186-3.673-8.186-8.186  C265.921,74.479,269.594,70.808,274.107,70.808z M125.66,120.178c4.239,0,7.674,3.435,7.674,7.674s-3.435,7.674-7.674,7.674  c-17.772,0-32.23-14.459-32.23-32.23c0-17.772,14.459-32.231,32.23-32.231c4.239,0,7.674,3.436,7.674,7.674  c0,4.238-3.435,7.674-7.674,7.674c-9.309,0-16.883,7.573-16.883,16.883S116.351,120.178,125.66,120.178z M154.941,135.781  c-4.513,0-8.185-3.672-8.185-8.186s3.672-8.186,8.185-8.186c4.514,0,8.186,3.672,8.186,8.186S159.454,135.781,154.941,135.781z   M184.733,135.781c-4.513,0-8.186-3.672-8.186-8.186s3.673-8.186,8.186-8.186s8.186,3.672,8.186,8.186  S189.246,135.781,184.733,135.781z M184.733,111.223c-4.513,0-8.186-3.672-8.186-8.186c0-4.514,3.673-8.186,8.186-8.186  s8.186,3.672,8.186,8.186C192.919,107.552,189.246,111.223,184.733,111.223z M214.524,135.781c-4.514,0-8.186-3.672-8.186-8.186  s3.672-8.186,8.186-8.186c4.513,0,8.185,3.672,8.185,8.186S219.038,135.781,214.524,135.781z M214.524,111.223  c-4.514,0-8.186-3.672-8.186-8.186c0-4.514,3.672-8.186,8.186-8.186c4.513,0,8.185,3.672,8.185,8.186  C222.709,107.552,219.038,111.223,214.524,111.223z M214.524,87.179c-4.514,0-8.186-3.673-8.186-8.186  c0-4.514,3.672-8.186,8.186-8.186c4.513,0,8.185,3.672,8.185,8.186C222.709,83.506,219.038,87.179,214.524,87.179z M244.315,135.781  c-4.513,0-8.186-3.672-8.186-8.186s3.673-8.186,8.186-8.186c4.514,0,8.186,3.672,8.186,8.186S248.829,135.781,244.315,135.781z   M244.315,111.223c-4.513,0-8.186-3.672-8.186-8.186c0-4.514,3.673-8.186,8.186-8.186c4.514,0,8.186,3.672,8.186,8.186  C252.501,107.552,248.829,111.223,244.315,111.223z M244.315,87.179c-4.513,0-8.186-3.673-8.186-8.186  c0-4.514,3.673-8.186,8.186-8.186c4.514,0,8.186,3.672,8.186,8.186C252.501,83.506,248.829,87.179,244.315,87.179z M274.107,135.781  c-4.513,0-8.186-3.672-8.186-8.186s3.673-8.186,8.186-8.186s8.186,3.672,8.186,8.186S278.62,135.781,274.107,135.781z   M274.107,111.223c-4.513,0-8.186-3.672-8.186-8.186c0-4.514,3.673-8.186,8.186-8.186s8.186,3.672,8.186,8.186  C282.293,107.552,278.62,111.223,274.107,111.223z"/>
<path style="fill:#259245;" d="M473.63,349.885h23.022v-90.042H51.562v90.042h391.373c4.239,0,7.674,3.436,7.674,7.674h15.349  C465.956,353.32,469.392,349.885,473.63,349.885z"/>
<g>
	<rect x="51.562" y="244.499" style="fill:#B21727;" width="445.088" height="15.348"/>
	<rect x="51.562" y="148.315" style="fill:#B21727;" width="445.088" height="15.349"/>
</g>
<path d="M504.326,42.926H43.888c-4.239,0-7.674,3.436-7.674,7.674v306.959c0,4.239,3.435,7.674,7.674,7.674h399.047  c4.239,0,7.674-3.436,7.674-7.674c0-4.238-3.435-7.674-7.674-7.674H51.562v-90.042v-15.348v-80.832v-15.349V58.273h445.091v90.041  v15.349v80.832v15.348v90.042h-23.022c-4.239,0-7.674,3.436-7.674,7.674c0,4.239,3.435,7.674,7.674,7.674h30.696  c4.239,0,7.674-3.436,7.674-7.674V50.6C512,46.362,508.565,42.926,504.326,42.926z"/>
<g>
	<path style="fill:#FFFFFF;" d="M214.524,119.409c-4.514,0-8.186,3.672-8.186,8.186c0,4.513,3.672,8.186,8.186,8.186   c4.513,0,8.185-3.672,8.185-8.186C222.709,123.082,219.038,119.409,214.524,119.409z"/>
	<path style="fill:#FFFFFF;" d="M274.107,119.409c-4.513,0-8.186,3.672-8.186,8.186c0,4.513,3.673,8.186,8.186,8.186   s8.186-3.672,8.186-8.186C282.293,123.082,278.62,119.409,274.107,119.409z"/>
	<path style="fill:#FFFFFF;" d="M244.315,119.409c-4.513,0-8.186,3.672-8.186,8.186c0,4.513,3.673,8.186,8.186,8.186   c4.514,0,8.186-3.672,8.186-8.186C252.501,123.082,248.829,119.409,244.315,119.409z"/>
	<path style="fill:#FFFFFF;" d="M274.107,87.179c4.513,0,8.186-3.673,8.186-8.186c0-4.514-3.673-8.186-8.186-8.186   s-8.186,3.672-8.186,8.186C265.921,83.506,269.594,87.179,274.107,87.179z"/>
	<path style="fill:#FFFFFF;" d="M184.733,119.409c-4.513,0-8.186,3.672-8.186,8.186c0,4.513,3.673,8.186,8.186,8.186   s8.186-3.672,8.186-8.186C192.919,123.082,189.246,119.409,184.733,119.409z"/>
	<path style="fill:#FFFFFF;" d="M214.524,94.853c-4.514,0-8.186,3.672-8.186,8.186c0,4.514,3.672,8.186,8.186,8.186   c4.513,0,8.185-3.672,8.185-8.186C222.709,98.525,219.038,94.853,214.524,94.853z"/>
	<path style="fill:#FFFFFF;" d="M244.315,94.853c-4.513,0-8.186,3.672-8.186,8.186c0,4.514,3.673,8.186,8.186,8.186   c4.514,0,8.186-3.672,8.186-8.186C252.501,98.525,248.829,94.853,244.315,94.853z"/>
	<path style="fill:#FFFFFF;" d="M214.524,70.808c-4.514,0-8.186,3.672-8.186,8.186c0,4.513,3.672,8.186,8.186,8.186   c4.513,0,8.185-3.673,8.185-8.186C222.709,74.479,219.038,70.808,214.524,70.808z"/>
	<path style="fill:#FFFFFF;" d="M244.315,70.808c-4.513,0-8.186,3.672-8.186,8.186c0,4.513,3.673,8.186,8.186,8.186   c4.514,0,8.186-3.673,8.186-8.186C252.501,74.479,248.829,70.808,244.315,70.808z"/>
	<path style="fill:#FFFFFF;" d="M184.733,94.853c-4.513,0-8.186,3.672-8.186,8.186c0,4.514,3.673,8.186,8.186,8.186   s8.186-3.672,8.186-8.186C192.919,98.525,189.246,94.853,184.733,94.853z"/>
	<path style="fill:#FFFFFF;" d="M154.941,119.409c-4.513,0-8.185,3.672-8.185,8.186c0,4.513,3.672,8.186,8.185,8.186   c4.514,0,8.186-3.672,8.186-8.186C163.126,123.082,159.454,119.409,154.941,119.409z"/>
	<path style="fill:#FFFFFF;" d="M274.107,94.853c-4.513,0-8.186,3.672-8.186,8.186c0,4.514,3.673,8.186,8.186,8.186   s8.186-3.672,8.186-8.186C282.293,98.525,278.62,94.853,274.107,94.853z"/>
	<path style="fill:#FFFFFF;" d="M125.66,86.412c4.239,0,7.674-3.436,7.674-7.674c0-4.239-3.435-7.674-7.674-7.674   c-17.772,0-32.23,14.459-32.23,32.231s14.459,32.23,32.23,32.23c4.239,0,7.674-3.435,7.674-7.674s-3.435-7.674-7.674-7.674   c-9.309,0-16.883-7.573-16.883-16.883S116.351,86.412,125.66,86.412z"/>
</g>
<path style="fill:#2E3033;" d="M20.97,482.005c-6.429,0-11.661-5.232-11.661-11.661V41.55c0-6.371,5.183-11.554,11.554-11.554h1.524  c6.431,0,11.661,5.232,11.661,11.661v428.685c0,6.431-5.232,11.661-11.661,11.661H20.97V482.005z"/>
<path d="M22.386,20.687h-1.524C9.359,20.687,0,30.046,0,41.55v428.793c0,11.563,9.407,20.97,20.97,20.97h1.415  c11.564,0,20.97-9.407,20.97-20.97V41.658C43.357,30.095,33.949,20.687,22.386,20.687z M27.841,470.343  c0,3.008-2.447,5.455-5.455,5.455h-1.415c-3.008,0-5.455-2.447-5.455-5.455V41.55c0-2.949,2.399-5.348,5.348-5.348h1.524  c3.008,0,5.455,2.447,5.455,5.455v428.686H27.841z"/>
<g>
</g>
<g>
</g>
<g>
</g>
<g>
</g>
<g>
</g>
<g>
</g>
<g>
</g>
<g>
</g>
<g>
</g>
<g>
</g>
<g>
</g>
<g>
</g>
<g>
</g>
<g>
</g>
<g>
</g>
</svg>
