<?xml version="1.0" encoding="iso-8859-1"?>
<!-- Generator: Adobe Illustrator 19.0.0, SVG Export Plug-In . SVG Version: 6.00 Build 0)  -->
<svg xmlns="http://www.w3.org/2000/svg" xmlns:xlink="http://www.w3.org/1999/xlink" version="1.1" id="Layer_1" x="0px" y="0px" viewBox="0 0 511.999 511.999" style="enable-background:new 0 0 511.999 511.999;" xml:space="preserve">
<g>
	<rect x="221.507" y="160.399" style="fill:#3DB4EA;" width="275.112" height="18.791"/>
	<path style="fill:#3DB4EA;" d="M221.503,92.047v18.804h221.289c4.247,0,7.689,3.442,7.689,7.689h15.38   c0-4.247,3.443-7.689,7.689-7.689h23.069V92.047H221.503z"/>
	<path style="fill:#3DB4EA;" d="M112.135,289.414c0,4.248-3.443,7.69-7.689,7.69H50.619v18.804H496.62v-18.804H135.205   c-4.247,0-7.689-3.442-7.689-7.69l0,0H112.135L112.135,289.414z"/>
	<rect x="50.619" y="228.762" style="fill:#3DB4EA;" width="446" height="18.791"/>
</g>
<g>
	<rect x="50.619" y="331.286" style="fill:#FFFFFF;" width="446" height="18.791"/>
	<path style="fill:#FFFFFF;" d="M50.619,262.931v18.794h53.828c4.246,0,7.689,3.442,7.689,7.689h15.38   c0-4.247,3.443-7.689,7.689-7.689H496.62v-18.794L50.619,262.931L50.619,262.931z"/>
	<path style="fill:#FFFFFF;" d="M496.62,213.379v-18.804H213.814c-4.247,0-7.689-3.442-7.689-7.69V84.357   c0-4.248,3.443-7.69,7.689-7.69H496.62V57.873H50.619v155.506H496.62z M127.81,92.051c24.066,0,43.575,19.509,43.575,43.575   c0,24.065-19.509,43.575-43.575,43.575s-43.575-19.51-43.575-43.575C84.235,111.561,103.745,92.051,127.81,92.051z"/>
	<path style="fill:#FFFFFF;" d="M442.793,126.229h-221.29v18.794H496.62v-18.794h-23.069c-4.247,0-7.689-3.442-7.689-7.69h-15.38   C450.482,122.787,447.039,126.229,442.793,126.229z"/>
</g>
<path d="M504.311,42.493H42.928c-4.246,0-7.689,3.442-7.689,7.689V357.77c0,4.248,3.443,7.69,7.689,7.69H504.31  c4.247,0,7.689-3.442,7.689-7.69V50.183C512,45.935,508.557,42.493,504.311,42.493z M496.62,57.873v18.794H213.814  c-4.247,0-7.689,3.442-7.689,7.69v102.529c0,4.248,3.443,7.69,7.689,7.69H496.62v18.804H50.619V57.873H496.62z M473.551,110.85  c-4.247,0-7.689,3.442-7.689,7.689c0,4.248,3.443,7.69,7.689,7.69h23.069v18.794H221.503v-18.794h221.289  c4.247,0,7.689-3.442,7.689-7.69c0-4.247-3.443-7.689-7.689-7.689H221.503V92.047H496.62v18.804h-23.069V110.85z M221.503,179.195  v-18.794H496.62v18.794H221.503z M135.205,281.725c-4.247,0-7.689,3.442-7.689,7.689l0,0c0,4.248,3.443,7.69,7.689,7.69H496.62  v18.804H50.619v-18.804h53.828c4.246,0,7.689-3.442,7.689-7.69l0,0c0-4.247-3.443-7.689-7.689-7.689H50.619v-18.794H496.62v18.794  L135.205,281.725L135.205,281.725z M50.619,247.553v-18.794H496.62v18.794H50.619z M50.619,350.081v-18.794H496.62v18.794H50.619z"/>
<circle style="fill:#F2A643;" cx="127.813" cy="135.628" r="43.572"/>
<path style="fill:#2E3033;" d="M21.013,482.461c-6.442,0-11.685-5.242-11.685-11.685V41.115c0-6.383,5.194-11.577,11.577-11.577  h1.527c6.444,0,11.685,5.242,11.685,11.685v429.552c0,6.444-5.242,11.685-11.685,11.685h-1.419V482.461z"/>
<path d="M22.432,20.21h-1.527C9.378,20.21,0,29.588,0,41.115v429.661c0,11.587,9.426,21.013,21.013,21.013h1.418  c11.587,0,21.013-9.426,21.013-21.013V41.223C43.444,29.636,34.018,20.21,22.432,20.21z M27.898,470.776  c0,3.014-2.452,5.466-5.466,5.466h-1.418c-3.014,0-5.466-2.452-5.466-5.466V41.115c0-2.955,2.403-5.358,5.358-5.358h1.527  c3.014,0,5.466,2.452,5.466,5.466v429.554H27.898z"/>
<g>
</g>
<g>
</g>
<g>
</g>
<g>
</g>
<g>
</g>
<g>
</g>
<g>
</g>
<g>
</g>
<g>
</g>
<g>
</g>
<g>
</g>
<g>
</g>
<g>
</g>
<g>
</g>
<g>
</g>
</svg>
