<?xml version="1.0" encoding="iso-8859-1"?>
<!-- Generator: Adobe Illustrator 19.0.0, SVG Export Plug-In . SVG Version: 6.00 Build 0)  -->
<svg xmlns="http://www.w3.org/2000/svg" xmlns:xlink="http://www.w3.org/1999/xlink" version="1.1" id="Layer_1" x="0px" y="0px" viewBox="0 0 511.999 511.999" style="enable-background:new 0 0 511.999 511.999;" xml:space="preserve">
<g>
	<path style="fill:#FFFFFF;" d="M280.992,160.403h-27.703v18.794h243.333v-18.794H311.75c-4.247,0-7.689-3.443-7.689-7.69h-15.379   C288.681,156.959,285.238,160.403,280.992,160.403z"/>
	<path style="fill:#FFFFFF;" d="M419.724,289.414c0,4.247-3.443,7.69-7.689,7.69H50.619v18.804H496.62v-18.804h-53.828   c-4.246,0-7.689-3.443-7.689-7.69l0,0H419.724L419.724,289.414z"/>
	<rect x="50.619" y="228.762" style="fill:#FFFFFF;" width="446" height="18.791"/>
	<rect x="253.285" y="92.045" style="fill:#FFFFFF;" width="243.335" height="18.801"/>
</g>
<g>
	<rect x="50.619" y="331.286" style="fill:#ED1F34;" width="446" height="18.791"/>
	<path style="fill:#ED1F34;" d="M50.619,262.931v18.795h361.415c4.247,0,7.689,3.442,7.689,7.689h15.38   c0-4.247,3.443-7.689,7.689-7.689h53.828v-18.795H50.619L50.619,262.931z"/>
	<rect x="253.285" y="194.57" style="fill:#ED1F34;" width="243.335" height="18.801"/>
	<path style="fill:#ED1F34;" d="M253.288,126.228v18.795h27.703c4.246,0,7.689,3.442,7.689,7.689h15.379   c0-4.247,3.443-7.689,7.689-7.689h184.87v-18.795H253.288z"/>
	<rect x="253.285" y="57.873" style="fill:#ED1F34;" width="243.335" height="18.791"/>
</g>
<path style="fill:#164FCE;" d="M50.619,213.379h187.29V57.873H50.619V213.379z M220.483,71.032c3.057,0,5.537,2.48,5.537,5.537  c0,3.059-2.479,5.537-5.537,5.537s-5.537-2.478-5.537-5.537C214.947,73.512,217.426,71.032,220.483,71.032z M220.483,100.56  c3.057,0,5.537,2.48,5.537,5.537c0,3.059-2.479,5.537-5.537,5.537s-5.537-2.478-5.537-5.537  C214.947,103.04,217.426,100.56,220.483,100.56z M220.483,130.09c3.057,0,5.537,2.479,5.537,5.537s-2.479,5.537-5.537,5.537  s-5.537-2.479-5.537-5.537S217.426,130.09,220.483,130.09z M220.483,159.619c3.057,0,5.537,2.478,5.537,5.536  c0,3.057-2.479,5.537-5.537,5.537s-5.537-2.479-5.537-5.537C214.947,162.097,217.426,159.619,220.483,159.619z M220.483,189.146  c3.057,0,5.537,2.479,5.537,5.538c0,3.056-2.479,5.536-5.537,5.536s-5.537-2.479-5.537-5.536  C214.947,191.625,217.426,189.146,220.483,189.146z M205.239,85.797c3.057,0,5.537,2.478,5.537,5.537  c0,3.056-2.479,5.537-5.537,5.537s-5.537-2.48-5.537-5.537C199.703,88.275,202.182,85.797,205.239,85.797z M205.239,115.325  c3.057,0,5.537,2.478,5.537,5.537c0,3.057-2.479,5.537-5.537,5.537s-5.537-2.479-5.537-5.537  C199.703,117.803,202.182,115.325,205.239,115.325z M205.239,144.854c3.057,0,5.537,2.479,5.537,5.537  c0,3.057-2.479,5.537-5.537,5.537s-5.537-2.479-5.537-5.537C199.703,147.333,202.182,144.854,205.239,144.854z M205.239,174.382  c3.057,0,5.537,2.479,5.537,5.537c0,3.059-2.479,5.537-5.537,5.537s-5.537-2.478-5.537-5.537  C199.703,176.861,202.182,174.382,205.239,174.382z M189.996,71.032c3.057,0,5.537,2.48,5.537,5.537  c0,3.059-2.479,5.537-5.537,5.537s-5.537-2.478-5.537-5.537C184.459,73.512,186.938,71.032,189.996,71.032z M189.996,100.56  c3.057,0,5.537,2.48,5.537,5.537c0,3.059-2.479,5.537-5.537,5.537s-5.537-2.478-5.537-5.537  C184.459,103.04,186.938,100.56,189.996,100.56z M189.996,130.09c3.057,0,5.537,2.479,5.537,5.537s-2.479,5.537-5.537,5.537  s-5.537-2.479-5.537-5.537S186.938,130.09,189.996,130.09z M189.996,159.619c3.057,0,5.537,2.478,5.537,5.536  c0,3.057-2.479,5.537-5.537,5.537s-5.537-2.479-5.537-5.537C184.459,162.097,186.938,159.619,189.996,159.619z M189.996,189.146  c3.057,0,5.537,2.479,5.537,5.538c0,3.056-2.479,5.536-5.537,5.536s-5.537-2.479-5.537-5.536  C184.459,191.625,186.938,189.146,189.996,189.146z M174.752,85.797c3.057,0,5.537,2.478,5.537,5.537  c0,3.056-2.479,5.537-5.537,5.537s-5.537-2.48-5.537-5.537C169.215,88.275,171.694,85.797,174.752,85.797z M174.752,115.325  c3.057,0,5.537,2.478,5.537,5.537c0,3.057-2.479,5.537-5.537,5.537s-5.537-2.479-5.537-5.537  C169.215,117.803,171.694,115.325,174.752,115.325z M174.752,144.854c3.057,0,5.537,2.479,5.537,5.537  c0,3.057-2.479,5.537-5.537,5.537s-5.537-2.479-5.537-5.537C169.215,147.333,171.694,144.854,174.752,144.854z M174.752,174.382  c3.057,0,5.537,2.479,5.537,5.537c0,3.059-2.479,5.537-5.537,5.537s-5.537-2.478-5.537-5.537  C169.215,176.861,171.694,174.382,174.752,174.382z M159.508,71.032c3.057,0,5.537,2.48,5.537,5.537  c0,3.059-2.479,5.537-5.537,5.537s-5.537-2.478-5.537-5.537C153.971,73.512,156.45,71.032,159.508,71.032z M159.508,100.56  c3.057,0,5.537,2.48,5.537,5.537c0,3.059-2.479,5.537-5.537,5.537s-5.537-2.478-5.537-5.537  C153.971,103.04,156.45,100.56,159.508,100.56z M159.508,130.09c3.057,0,5.537,2.479,5.537,5.537s-2.479,5.537-5.537,5.537  s-5.537-2.479-5.537-5.537S156.45,130.09,159.508,130.09z M159.508,159.619c3.057,0,5.537,2.478,5.537,5.536  c0,3.057-2.479,5.537-5.537,5.537s-5.537-2.479-5.537-5.537C153.971,162.097,156.45,159.619,159.508,159.619z M159.508,189.146  c3.057,0,5.537,2.479,5.537,5.538c0,3.056-2.479,5.536-5.537,5.536s-5.537-2.479-5.537-5.536  C153.971,191.625,156.45,189.146,159.508,189.146z M144.263,85.797c3.057,0,5.537,2.478,5.537,5.537  c0,3.056-2.479,5.537-5.537,5.537c-3.057,0-5.537-2.48-5.537-5.537C138.727,88.275,141.205,85.797,144.263,85.797z M144.263,115.325  c3.057,0,5.537,2.478,5.537,5.537c0,3.057-2.479,5.537-5.537,5.537c-3.057,0-5.537-2.479-5.537-5.537  C138.727,117.803,141.205,115.325,144.263,115.325z M144.263,144.854c3.057,0,5.537,2.479,5.537,5.537  c0,3.057-2.479,5.537-5.537,5.537c-3.057,0-5.537-2.479-5.537-5.537C138.726,147.333,141.205,144.854,144.263,144.854z   M144.263,174.382c3.057,0,5.537,2.479,5.537,5.537c0,3.059-2.479,5.537-5.537,5.537c-3.057,0-5.537-2.478-5.537-5.537  C138.727,176.861,141.205,174.382,144.263,174.382z M129.019,71.032c3.057,0,5.537,2.48,5.537,5.537  c0,3.059-2.479,5.537-5.537,5.537s-5.537-2.478-5.537-5.537C123.483,73.512,125.961,71.032,129.019,71.032z M129.019,100.56  c3.057,0,5.537,2.48,5.537,5.537c0,3.059-2.479,5.537-5.537,5.537s-5.537-2.478-5.537-5.537  C123.483,103.04,125.961,100.56,129.019,100.56z M129.019,130.09c3.057,0,5.537,2.479,5.537,5.537s-2.479,5.537-5.537,5.537  s-5.537-2.479-5.537-5.537S125.961,130.09,129.019,130.09z M129.019,159.619c3.057,0,5.537,2.478,5.537,5.536  c0,3.057-2.479,5.537-5.537,5.537s-5.537-2.479-5.537-5.537C123.482,162.097,125.961,159.619,129.019,159.619z M129.019,189.146  c3.057,0,5.537,2.479,5.537,5.538c0,3.056-2.479,5.536-5.537,5.536s-5.537-2.479-5.537-5.536  C123.483,191.625,125.961,189.146,129.019,189.146z M113.775,85.797c3.057,0,5.537,2.478,5.537,5.537  c0,3.056-2.479,5.537-5.537,5.537s-5.537-2.48-5.537-5.537C108.239,88.275,110.717,85.797,113.775,85.797z M113.775,115.325  c3.057,0,5.537,2.478,5.537,5.537c0,3.057-2.479,5.537-5.537,5.537s-5.537-2.479-5.537-5.537  C108.239,117.803,110.717,115.325,113.775,115.325z M113.775,144.854c3.057,0,5.537,2.479,5.537,5.537  c0,3.057-2.479,5.537-5.537,5.537s-5.537-2.479-5.537-5.537C108.238,147.333,110.717,144.854,113.775,144.854z M113.775,174.382  c3.057,0,5.537,2.479,5.537,5.537c0,3.059-2.479,5.537-5.537,5.537s-5.537-2.478-5.537-5.537  C108.239,176.861,110.717,174.382,113.775,174.382z M98.531,71.032c3.057,0,5.537,2.48,5.537,5.537c0,3.059-2.479,5.537-5.537,5.537  s-5.537-2.478-5.537-5.537C92.995,73.512,95.473,71.032,98.531,71.032z M98.531,100.56c3.057,0,5.537,2.48,5.537,5.537  c0,3.059-2.479,5.537-5.537,5.537s-5.537-2.478-5.537-5.537C92.995,103.04,95.473,100.56,98.531,100.56z M98.531,130.09  c3.057,0,5.537,2.479,5.537,5.537s-2.479,5.537-5.537,5.537s-5.537-2.479-5.537-5.537S95.473,130.09,98.531,130.09z M98.531,159.619  c3.057,0,5.537,2.478,5.537,5.536c0,3.057-2.479,5.537-5.537,5.537s-5.537-2.479-5.537-5.537  C92.994,162.097,95.473,159.619,98.531,159.619z M98.531,189.146c3.057,0,5.537,2.479,5.537,5.538c0,3.056-2.479,5.536-5.537,5.536  s-5.537-2.479-5.537-5.536C92.995,191.625,95.473,189.146,98.531,189.146z M83.287,85.797c3.057,0,5.537,2.478,5.537,5.537  c0,3.056-2.479,5.537-5.537,5.537s-5.537-2.48-5.537-5.537C77.751,88.275,80.23,85.797,83.287,85.797z M83.287,115.325  c3.057,0,5.537,2.478,5.537,5.537c0,3.057-2.479,5.537-5.537,5.537s-5.537-2.479-5.537-5.537  C77.751,117.803,80.23,115.325,83.287,115.325z M83.287,144.854c3.057,0,5.537,2.479,5.537,5.537c0,3.057-2.479,5.537-5.537,5.537  s-5.537-2.479-5.537-5.537C77.75,147.333,80.23,144.854,83.287,144.854z M83.287,174.382c3.057,0,5.537,2.479,5.537,5.537  c0,3.059-2.479,5.537-5.537,5.537s-5.537-2.478-5.537-5.537C77.751,176.861,80.23,174.382,83.287,174.382z M68.043,71.032  c3.057,0,5.537,2.48,5.537,5.537c0,3.059-2.479,5.537-5.537,5.537s-5.537-2.478-5.537-5.537  C62.508,73.512,64.986,71.032,68.043,71.032z M68.043,100.56c3.057,0,5.537,2.48,5.537,5.537c0,3.059-2.479,5.537-5.537,5.537  s-5.537-2.478-5.537-5.537C62.508,103.04,64.986,100.56,68.043,100.56z M68.043,130.09c3.057,0,5.537,2.479,5.537,5.537  s-2.479,5.537-5.537,5.537s-5.537-2.479-5.537-5.537S64.986,130.09,68.043,130.09z M68.043,159.619c3.057,0,5.537,2.478,5.537,5.536  c0,3.057-2.479,5.537-5.537,5.537s-5.537-2.479-5.537-5.537C62.506,162.097,64.986,159.619,68.043,159.619z M68.043,189.146  c3.057,0,5.537,2.479,5.537,5.538c0,3.056-2.479,5.536-5.537,5.536s-5.537-2.479-5.537-5.536  C62.508,191.625,64.986,189.146,68.043,189.146z"/>
<path d="M504.311,42.493H42.928c-4.246,0-7.689,3.442-7.689,7.69V357.77c0,4.247,3.443,7.69,7.689,7.69H504.31  c4.247,0,7.689-3.443,7.689-7.69V50.184C512,45.935,508.557,42.493,504.311,42.493z M311.75,145.023  c-4.247,0-7.689,3.442-7.689,7.689c0,4.247,3.443,7.69,7.689,7.69h184.87v18.794H253.288v-18.794h27.703  c4.246,0,7.689-3.443,7.689-7.69c0-4.247-3.443-7.689-7.689-7.689h-27.703v-18.795H496.62v18.795H311.75z M442.793,281.725  c-4.246,0-7.689,3.442-7.689,7.689l0,0c0,4.247,3.443,7.69,7.689,7.69h53.828v18.804H50.619v-18.804h361.415  c4.247,0,7.689-3.443,7.689-7.69l0,0c0-4.247-3.443-7.689-7.689-7.689H50.619V262.93H496.62v18.795L442.793,281.725L442.793,281.725  z M50.619,247.553v-18.794H496.62v18.794H50.619z M253.288,213.379v-18.805H496.62v18.805H253.288z M253.288,110.85V92.047H496.62  v18.804H253.288V110.85z M496.62,76.667H253.288V57.873H496.62V76.667z M237.908,213.379H50.619V57.873h187.29v155.506H237.908z   M50.619,350.081v-18.795H496.62v18.795H50.619z"/>
<g>
	<circle style="fill:#FFFFFF;" cx="83.288" cy="179.915" r="5.537"/>
	<circle style="fill:#FFFFFF;" cx="113.78" cy="179.915" r="5.537"/>
	<circle style="fill:#FFFFFF;" cx="144.262" cy="179.915" r="5.537"/>
	<circle style="fill:#FFFFFF;" cx="174.754" cy="179.915" r="5.537"/>
	<circle style="fill:#FFFFFF;" cx="205.235" cy="179.915" r="5.537"/>
	<circle style="fill:#FFFFFF;" cx="68.042" cy="194.684" r="5.537"/>
	<circle style="fill:#FFFFFF;" cx="98.534" cy="194.684" r="5.537"/>
	<circle style="fill:#FFFFFF;" cx="129.016" cy="194.684" r="5.537"/>
	<circle style="fill:#FFFFFF;" cx="159.508" cy="194.684" r="5.537"/>
	<circle style="fill:#FFFFFF;" cx="190" cy="194.684" r="5.537"/>
	<circle style="fill:#FFFFFF;" cx="220.481" cy="194.684" r="5.537"/>
	<circle style="fill:#FFFFFF;" cx="68.042" cy="165.156" r="5.536"/>
	<circle style="fill:#FFFFFF;" cx="98.534" cy="165.156" r="5.536"/>
	<circle style="fill:#FFFFFF;" cx="129.016" cy="165.156" r="5.536"/>
	<circle style="fill:#FFFFFF;" cx="159.508" cy="165.156" r="5.536"/>
	<circle style="fill:#FFFFFF;" cx="190" cy="165.156" r="5.536"/>
	<circle style="fill:#FFFFFF;" cx="220.481" cy="165.156" r="5.536"/>
	<circle style="fill:#FFFFFF;" cx="83.288" cy="150.387" r="5.537"/>
	<circle style="fill:#FFFFFF;" cx="113.78" cy="150.387" r="5.537"/>
	<circle style="fill:#FFFFFF;" cx="144.262" cy="150.387" r="5.537"/>
	<circle style="fill:#FFFFFF;" cx="174.754" cy="150.387" r="5.537"/>
	<circle style="fill:#FFFFFF;" cx="205.235" cy="150.387" r="5.537"/>
	<circle style="fill:#FFFFFF;" cx="68.042" cy="135.628" r="5.537"/>
	<circle style="fill:#FFFFFF;" cx="98.534" cy="135.628" r="5.537"/>
	<circle style="fill:#FFFFFF;" cx="129.016" cy="135.628" r="5.537"/>
	<circle style="fill:#FFFFFF;" cx="159.508" cy="135.628" r="5.537"/>
	<circle style="fill:#FFFFFF;" cx="190" cy="135.628" r="5.537"/>
	<circle style="fill:#FFFFFF;" cx="220.481" cy="135.628" r="5.537"/>
	<circle style="fill:#FFFFFF;" cx="83.288" cy="120.858" r="5.537"/>
	<circle style="fill:#FFFFFF;" cx="113.78" cy="120.858" r="5.537"/>
	<circle style="fill:#FFFFFF;" cx="144.262" cy="120.858" r="5.537"/>
	<circle style="fill:#FFFFFF;" cx="174.754" cy="120.858" r="5.537"/>
	<circle style="fill:#FFFFFF;" cx="205.235" cy="120.858" r="5.537"/>
	<circle style="fill:#FFFFFF;" cx="68.042" cy="106.1" r="5.537"/>
	<circle style="fill:#FFFFFF;" cx="98.534" cy="106.1" r="5.537"/>
	<circle style="fill:#FFFFFF;" cx="129.016" cy="106.1" r="5.537"/>
	<circle style="fill:#FFFFFF;" cx="159.508" cy="106.1" r="5.537"/>
	<circle style="fill:#FFFFFF;" cx="190" cy="106.1" r="5.537"/>
	<circle style="fill:#FFFFFF;" cx="220.481" cy="106.1" r="5.537"/>
	<circle style="fill:#FFFFFF;" cx="83.288" cy="91.33" r="5.537"/>
	<circle style="fill:#FFFFFF;" cx="113.78" cy="91.33" r="5.537"/>
	<circle style="fill:#FFFFFF;" cx="144.262" cy="91.33" r="5.537"/>
	<circle style="fill:#FFFFFF;" cx="174.754" cy="91.33" r="5.537"/>
	<circle style="fill:#FFFFFF;" cx="205.235" cy="91.33" r="5.537"/>
	<circle style="fill:#FFFFFF;" cx="68.042" cy="76.568" r="5.537"/>
	<circle style="fill:#FFFFFF;" cx="98.534" cy="76.568" r="5.537"/>
	<circle style="fill:#FFFFFF;" cx="129.016" cy="76.568" r="5.537"/>
	<circle style="fill:#FFFFFF;" cx="159.508" cy="76.568" r="5.537"/>
	<circle style="fill:#FFFFFF;" cx="190" cy="76.568" r="5.537"/>
	<circle style="fill:#FFFFFF;" cx="220.481" cy="76.568" r="5.537"/>
</g>
<path style="fill:#2E3033;" d="M21.013,482.461c-6.442,0-11.685-5.242-11.685-11.685V41.115c0-6.383,5.194-11.577,11.577-11.577  h1.527c6.444,0,11.685,5.242,11.685,11.685v429.552c0,6.444-5.242,11.685-11.685,11.685h-1.419V482.461z"/>
<path d="M22.432,20.21h-1.527C9.378,20.21,0,29.588,0,41.115v429.661c0,11.587,9.426,21.013,21.013,21.013h1.418  c11.587,0,21.013-9.426,21.013-21.013V41.223C43.444,29.636,34.018,20.21,22.432,20.21z M27.898,470.776  c0,3.014-2.452,5.466-5.466,5.466h-1.418c-3.014,0-5.466-2.452-5.466-5.466V41.115c0-2.955,2.403-5.358,5.358-5.358h1.527  c3.014,0,5.466,2.452,5.466,5.466v429.554H27.898z"/>
<g>
</g>
<g>
</g>
<g>
</g>
<g>
</g>
<g>
</g>
<g>
</g>
<g>
</g>
<g>
</g>
<g>
</g>
<g>
</g>
<g>
</g>
<g>
</g>
<g>
</g>
<g>
</g>
<g>
</g>
</svg>
