<?xml version="1.0" encoding="iso-8859-1"?>
<!-- Generator: Adobe Illustrator 19.0.0, SVG Export Plug-In . SVG Version: 6.00 Build 0)  -->
<svg xmlns="http://www.w3.org/2000/svg" xmlns:xlink="http://www.w3.org/1999/xlink" version="1.1" id="Layer_1" x="0px" y="0px" viewBox="0 0 512 512" style="enable-background:new 0 0 512 512;" xml:space="preserve">
<g>
	<path style="fill:#3DB4EA;" d="M266.433,204.11v-18.632l-17.702,5.753C252.769,197.49,259.049,202.168,266.433,204.11z"/>
	<path style="fill:#3DB4EA;" d="M299.483,191.231l-17.702-5.753v18.632C289.164,202.168,295.446,197.49,299.483,191.231z"/>
	<path style="fill:#3DB4EA;" d="M250.75,155.823c-4.264,5.206-6.828,11.856-6.828,19.094c0,0.579,0.021,1.151,0.053,1.722   l17.716-5.756L250.75,155.823z"/>
	<path style="fill:#3DB4EA;" d="M263.161,146.797l10.946,15.065l10.945-15.065c-3.396-1.327-7.085-2.064-10.945-2.064   S266.558,145.47,263.161,146.797z"/>
	<path style="fill:#3DB4EA;" d="M304.239,176.639c0.032-0.571,0.053-1.143,0.053-1.722c0-7.238-2.563-13.888-6.827-19.094   l-10.941,15.06L304.239,176.639z"/>
	<path style="fill:#3DB4EA;" d="M229.054,181.487c-0.311-2.145-0.48-4.338-0.48-6.57c0-12.35,4.95-23.561,12.962-31.773   l-13.355-18.382c-13.584,12.448-22.117,30.322-22.117,50.155c0,4.655,0.472,9.202,1.366,13.596L229.054,181.487z"/>
	<path style="fill:#3DB4EA;" d="M320.032,124.761l-13.355,18.382c8.012,8.211,12.962,19.422,12.962,31.773   c0,2.231-0.169,4.424-0.481,6.57l21.624,7.026c0.894-4.395,1.366-8.942,1.366-13.596   C342.149,155.084,333.616,137.21,320.032,124.761z"/>
	<path style="fill:#3DB4EA;" d="M74.583,58.273H51.562v291.611h445.091V58.273H105.28c-4.239,0-7.674-3.434-7.674-7.674H82.257   C82.257,54.839,78.822,58.273,74.583,58.273z M225.092,107.454c0.246-0.18,0.502-0.337,0.762-0.484   c13.631-9.708,30.279-15.443,48.252-15.443c17.974,0,34.623,5.734,48.253,15.444c0.26,0.147,0.515,0.304,0.761,0.483   c0.216,0.156,0.421,0.324,0.616,0.498c20.469,15.21,33.759,39.563,33.759,66.965c0,8.927-1.425,17.524-4.034,25.595   c-0.018,0.059-0.028,0.116-0.047,0.174c-0.019,0.055-0.047,0.101-0.065,0.154c-10.929,33.326-42.312,57.468-79.244,57.468   s-68.315-24.143-79.244-57.468c-0.019-0.054-0.047-0.1-0.065-0.154c-0.019-0.058-0.029-0.115-0.047-0.174   c-2.609-8.071-4.035-16.667-4.035-25.595c0-27.403,13.291-51.755,33.76-66.965C224.671,107.777,224.875,107.61,225.092,107.454z    M177.785,105.236c2.488-3.433,7.288-4.196,10.717-1.707c3.431,2.488,4.195,7.288,1.707,10.718   c-12.878,17.755-19.685,38.734-19.685,60.669c0,57.114,46.464,103.581,103.577,103.584c57.126-0.003,103.588-46.47,103.588-103.584   c0-21.935-6.807-42.915-19.685-60.669c-2.488-3.43-1.724-8.23,1.707-10.718c3.431-2.489,8.228-1.725,10.717,1.707   c14.791,20.392,22.608,44.487,22.608,69.681c0,58.447-42.377,107.179-98.017,117.089l14.664,10.763   c3.417,2.508,4.154,7.31,1.646,10.727c-1.503,2.048-3.831,3.134-6.192,3.134c-1.576,0-3.167-0.485-4.535-1.488l-26.496-19.448   l-26.496,19.448c-3.415,2.509-8.218,1.775-10.726-1.646c-2.509-3.417-1.772-8.219,1.646-10.727l14.664-10.763   c-55.64-9.91-98.017-58.642-98.017-117.089C155.176,149.723,162.994,125.628,177.785,105.236z"/>
	<path style="fill:#3DB4EA;" d="M266.433,219.79c-14.176-2.418-26.135-11.403-32.623-23.71l-21.611,7.021   c9.722,21.269,30.077,36.69,54.234,39.414L266.433,219.79L266.433,219.79z"/>
	<path style="fill:#3DB4EA;" d="M253.943,134.109c6.083-3.018,12.926-4.724,20.165-4.724c7.237,0,14.082,1.706,20.163,4.724   l13.348-18.373c-9.9-5.629-21.332-8.861-33.512-8.861s-23.612,3.232-33.512,8.861L253.943,134.109z"/>
	<path style="fill:#3DB4EA;" d="M314.404,196.079c-6.489,12.307-18.448,21.292-32.623,23.71v22.726   c24.156-2.724,44.51-18.145,54.233-39.414L314.404,196.079z"/>
</g>
<path d="M504.326,42.925H105.28c-4.239,0-7.674,3.435-7.674,7.674c0,4.24,3.435,7.674,7.674,7.674h391.373v291.611H51.562V58.273  h23.022c4.239,0,7.674-3.434,7.674-7.674c0-4.239-3.435-7.674-7.674-7.674H43.888c-4.239,0-7.674,3.435-7.674,7.674v306.959  c0,4.24,3.435,7.675,7.674,7.675h460.438c4.239,0,7.674-3.435,7.674-7.675V50.599C512,46.36,508.565,42.925,504.326,42.925z"/>
<g>
	<path style="fill:#FFFFFF;" d="M190.716,174.917c0,8.927,1.426,17.524,4.035,25.595c0.018,0.059,0.028,0.116,0.047,0.174   c0.019,0.055,0.047,0.101,0.065,0.154c10.929,33.326,42.312,57.468,79.244,57.468s68.315-24.143,79.244-57.468   c0.019-0.054,0.047-0.1,0.065-0.154c0.019-0.058,0.029-0.115,0.047-0.174c2.609-8.071,4.034-16.667,4.034-25.595   c0-27.403-13.29-51.755-33.759-66.965c-0.194-0.175-0.4-0.341-0.616-0.498c-0.246-0.179-0.502-0.336-0.761-0.483   c-13.632-9.709-30.279-15.444-48.253-15.444c-17.973,0-34.623,5.734-48.252,15.443c-0.261,0.147-0.516,0.304-0.762,0.484   c-0.217,0.156-0.421,0.324-0.616,0.498C204.007,123.161,190.716,147.514,190.716,174.917z M228.181,124.761l13.355,18.382   c-8.012,8.211-12.962,19.422-12.962,31.773c0,2.231,0.169,4.424,0.48,6.57l-21.623,7.026c-0.895-4.395-1.366-8.942-1.366-13.596   C206.065,155.084,214.598,137.21,228.181,124.761z M304.291,174.917c0,0.579-0.021,1.151-0.053,1.722l-17.715-5.756l10.941-15.06   C301.728,161.03,304.291,167.678,304.291,174.917z M243.922,174.917c0-7.238,2.564-13.888,6.828-19.094l10.941,15.06l-17.716,5.756   C243.943,176.069,243.922,175.496,243.922,174.917z M266.433,185.478v18.632c-7.384-1.943-13.665-6.62-17.702-12.879   L266.433,185.478z M281.781,185.478l17.702,5.753c-4.037,6.259-10.319,10.936-17.702,12.879V185.478z M274.107,161.862   l-10.946-15.065c3.397-1.327,7.086-2.064,10.946-2.064s7.55,0.736,10.945,2.064L274.107,161.862z M212.2,203.101l21.611-7.021   c6.488,12.307,18.448,21.292,32.623,23.71v22.726C242.276,239.791,221.923,224.37,212.2,203.101z M281.781,242.515V219.79   c14.176-2.418,26.134-11.403,32.623-23.71l21.609,7.021C326.291,224.37,305.937,239.791,281.781,242.515z M342.149,174.917   c0,4.655-0.473,9.202-1.366,13.596l-21.624-7.026c0.312-2.145,0.481-4.338,0.481-6.57c0-12.35-4.95-23.561-12.962-31.773   l13.355-18.382C333.616,137.21,342.149,155.084,342.149,174.917z M307.619,115.737l-13.348,18.372   c-6.082-3.018-12.926-4.724-20.163-4.724c-7.238,0-14.082,1.706-20.165,4.724l-13.347-18.373c9.9-5.629,21.332-8.861,33.512-8.861   S297.719,110.107,307.619,115.737z"/>
	<path style="fill:#FFFFFF;" d="M253.194,292.007L238.53,302.77c-3.417,2.508-4.155,7.31-1.646,10.727   c2.508,3.421,7.311,4.155,10.726,1.646l26.496-19.448l26.496,19.448c1.367,1.004,2.957,1.488,4.535,1.488   c2.36,0,4.689-1.086,6.192-3.134c2.508-3.417,1.772-8.219-1.646-10.727l-14.664-10.763c55.64-9.91,98.017-58.642,98.017-117.089   c0-25.193-7.818-49.289-22.608-69.681c-2.489-3.432-7.286-4.196-10.717-1.707c-3.431,2.488-4.195,7.288-1.707,10.718   c12.878,17.755,19.685,38.734,19.685,60.669c0,57.114-46.464,103.581-103.578,103.584c-57.125-0.003-103.587-46.47-103.587-103.584   c0-21.935,6.807-42.915,19.685-60.669c2.488-3.43,1.724-8.23-1.707-10.718c-3.429-2.489-8.229-1.726-10.717,1.707   c-14.791,20.392-22.608,44.487-22.608,69.681C155.176,233.363,197.553,282.095,253.194,292.007z"/>
</g>
<path style="fill:#2E3033;" d="M20.97,482.004c-6.429,0-11.661-5.232-11.661-11.661V41.55c0-6.371,5.183-11.554,11.554-11.554h1.524  c6.431,0,11.661,5.232,11.661,11.661v428.685c0,6.431-5.232,11.661-11.661,11.661H20.97V482.004z"/>
<path d="M22.386,20.687h-1.524C9.359,20.687,0,30.046,0,41.55v428.793c0,11.563,9.407,20.97,20.97,20.97h1.415  c11.564,0,20.97-9.407,20.97-20.97V41.657C43.357,30.094,33.949,20.687,22.386,20.687z M27.841,470.343  c0,3.008-2.447,5.455-5.455,5.455h-1.415c-3.008,0-5.455-2.447-5.455-5.455V41.55c0-2.949,2.399-5.348,5.348-5.348h1.524  c3.008,0,5.455,2.447,5.455,5.455v428.686H27.841z"/>
<g>
</g>
<g>
</g>
<g>
</g>
<g>
</g>
<g>
</g>
<g>
</g>
<g>
</g>
<g>
</g>
<g>
</g>
<g>
</g>
<g>
</g>
<g>
</g>
<g>
</g>
<g>
</g>
<g>
</g>
</svg>
