<?xml version="1.0" encoding="iso-8859-1"?>
<!-- Generator: Adobe Illustrator 19.0.0, SVG Export Plug-In . SVG Version: 6.00 Build 0)  -->
<svg xmlns="http://www.w3.org/2000/svg" xmlns:xlink="http://www.w3.org/1999/xlink" version="1.1" id="Layer_1" x="0px" y="0px" viewBox="0 0 512 512" style="enable-background:new 0 0 512 512;" xml:space="preserve">
<g>
	<polygon style="fill:#103B9B;" points="50.619,105.216 50.619,162.453 136.474,162.453  "/>
	<polygon style="fill:#103B9B;" points="232.096,57.874 129.321,57.874 232.096,126.388  "/>
	<polygon style="fill:#103B9B;" points="50.619,245.502 50.619,302.739 136.474,245.502  "/>
	<polygon style="fill:#103B9B;" points="417.917,57.874 315.143,57.874 315.143,126.388  "/>
	<polygon style="fill:#103B9B;" points="496.62,162.453 496.62,105.216 410.765,162.453  "/>
	<polygon style="fill:#103B9B;" points="129.321,350.082 232.096,350.082 232.096,281.566  "/>
	<polygon style="fill:#103B9B;" points="496.62,302.739 496.62,245.502 410.765,245.502  "/>
	<polygon style="fill:#103B9B;" points="315.143,350.082 417.917,350.082 315.143,281.566  "/>
</g>
<g>
	<polygon style="fill:#FFFFFF;" points="417.917,57.874 315.143,126.388 315.143,57.874 303.61,57.874 303.61,173.988    496.62,173.988 496.62,162.453 410.765,162.453 496.62,105.216 496.62,64.552 349.769,162.453 322.043,162.453 315.143,162.453    315.143,152.275 315.143,133.792 429.01,57.874  "/>
	<polygon style="fill:#FFFFFF;" points="129.321,350.082 232.096,281.566 232.096,350.082 243.629,350.082 243.629,233.967    50.619,233.967 50.619,245.502 136.474,245.502 50.619,302.739 50.619,343.404 197.469,245.502 225.196,245.502 232.096,245.502    232.096,255.689 232.096,274.173 118.232,350.082  "/>
</g>
<g>
	<polygon style="fill:#ED1F34;" points="225.196,245.502 68.326,350.082 90.506,350.082 232.096,255.689 232.096,245.502  "/>
	<polygon style="fill:#ED1F34;" points="50.619,64.552 50.619,79.368 174.947,162.453 197.469,162.453  "/>
	<polygon style="fill:#ED1F34;" points="496.62,343.403 496.62,329.321 371.191,245.502 349.769,245.502  "/>
	<polygon style="fill:#ED1F34;" points="322.043,162.453 478.913,57.874 456.733,57.874 315.143,152.275 315.143,162.453  "/>
</g>
<path d="M512,357.721V325.2c0-0.012,0-0.025,0-0.037V50.234c0-0.007,0-0.016,0-0.024v-0.027c0-0.045-0.006-0.089-0.007-0.134  c-0.003-0.206-0.011-0.414-0.031-0.62c-0.008-0.087-0.024-0.173-0.036-0.259c-0.022-0.163-0.041-0.324-0.074-0.487  c-0.022-0.113-0.054-0.223-0.081-0.334c-0.032-0.132-0.062-0.262-0.101-0.393c-0.041-0.135-0.091-0.265-0.14-0.397  c-0.036-0.104-0.069-0.206-0.112-0.308c-0.065-0.161-0.143-0.315-0.22-0.471c-0.034-0.07-0.065-0.142-0.102-0.211  c-0.106-0.197-0.221-0.388-0.342-0.574c-0.018-0.025-0.03-0.052-0.047-0.078c-0.002-0.002-0.004-0.004-0.005-0.006  c-0.144-0.215-0.296-0.423-0.46-0.622c-0.075-0.091-0.158-0.173-0.237-0.259c-0.087-0.097-0.171-0.197-0.263-0.289  c-0.13-0.13-0.266-0.249-0.404-0.367c-0.051-0.044-0.097-0.09-0.149-0.133c-0.131-0.108-0.267-0.205-0.405-0.303  c-0.065-0.048-0.13-0.099-0.197-0.145c-0.119-0.08-0.243-0.15-0.366-0.222c-0.095-0.056-0.187-0.115-0.283-0.168  c-0.098-0.052-0.199-0.096-0.3-0.144c-0.127-0.062-0.253-0.125-0.386-0.179c-0.075-0.031-0.151-0.055-0.228-0.084  c-0.158-0.06-0.316-0.12-0.48-0.17c-0.059-0.019-0.12-0.03-0.18-0.047c-0.179-0.05-0.359-0.099-0.542-0.136  c-0.082-0.017-0.165-0.024-0.247-0.037c-0.178-0.03-0.355-0.059-0.537-0.077c-0.237-0.023-0.478-0.035-0.716-0.036  c-0.005,0-0.009-0.001-0.015-0.001h-49.854c-0.009,0-0.018,0-0.026,0h-411.5c-0.004,0-0.008,0-0.012,0  c-0.24,0-0.481,0.013-0.718,0.036c-0.209,0.02-0.414,0.052-0.618,0.088c-0.055,0.009-0.109,0.015-0.163,0.025  c-0.2,0.04-0.396,0.092-0.591,0.148c-0.044,0.012-0.088,0.021-0.131,0.034c-0.176,0.053-0.347,0.118-0.518,0.183  c-0.063,0.024-0.127,0.044-0.19,0.069c-0.144,0.059-0.281,0.129-0.42,0.196c-0.088,0.042-0.178,0.081-0.264,0.126  c-0.11,0.059-0.214,0.125-0.321,0.19c-0.109,0.065-0.221,0.129-0.328,0.2c-0.081,0.054-0.155,0.115-0.235,0.172  c-0.124,0.09-0.251,0.178-0.37,0.277c-0.064,0.053-0.122,0.112-0.186,0.167c-0.124,0.109-0.25,0.216-0.367,0.334  c-0.112,0.112-0.215,0.233-0.321,0.351c-0.059,0.067-0.122,0.13-0.18,0.199c-0.164,0.199-0.317,0.406-0.46,0.621  c-0.002,0.002-0.004,0.005-0.006,0.007c-0.021,0.029-0.034,0.061-0.055,0.091c-0.117,0.182-0.231,0.367-0.333,0.56  c-0.038,0.073-0.069,0.147-0.107,0.22c-0.075,0.151-0.15,0.304-0.216,0.462c-0.042,0.104-0.076,0.209-0.114,0.313  c-0.048,0.131-0.097,0.259-0.138,0.392c-0.039,0.131-0.068,0.262-0.102,0.395c-0.026,0.11-0.058,0.22-0.08,0.332  c-0.032,0.162-0.054,0.324-0.075,0.488c-0.011,0.086-0.027,0.171-0.035,0.258c-0.021,0.207-0.028,0.414-0.032,0.621  c0,0.046-0.006,0.089-0.006,0.134v0.027c0,0.008,0,0.016,0,0.024v33.261c0,0.008,0,0.018,0,0.026v274.2c0,0.008,0,0.017,0,0.024  v0.026c0,0.046,0.006,0.089,0.006,0.135c0.004,0.206,0.012,0.413,0.032,0.62c0.008,0.087,0.024,0.173,0.035,0.259  c0.022,0.163,0.042,0.325,0.075,0.487c0.022,0.113,0.054,0.223,0.081,0.335c0.031,0.131,0.061,0.262,0.101,0.393  c0.04,0.134,0.091,0.263,0.139,0.395c0.037,0.104,0.07,0.208,0.113,0.311c0.065,0.16,0.143,0.314,0.219,0.467  c0.035,0.07,0.065,0.143,0.103,0.214c0.106,0.197,0.221,0.388,0.342,0.574c0.018,0.026,0.029,0.052,0.047,0.078  c0.001,0.002,0.003,0.003,0.004,0.005c0.166,0.248,0.348,0.483,0.541,0.71c0.06,0.07,0.122,0.136,0.186,0.203  c0.134,0.147,0.273,0.287,0.417,0.423c0.079,0.075,0.159,0.149,0.24,0.22c0.153,0.131,0.312,0.255,0.476,0.374  c0.067,0.05,0.133,0.104,0.202,0.151c0.231,0.159,0.472,0.303,0.72,0.435c0.06,0.031,0.121,0.057,0.182,0.087  c0.198,0.101,0.403,0.193,0.611,0.275c0.079,0.031,0.158,0.058,0.237,0.086c0.197,0.07,0.398,0.133,0.603,0.188  c0.081,0.022,0.161,0.044,0.244,0.063c0.21,0.049,0.425,0.086,0.642,0.117c0.075,0.01,0.149,0.026,0.224,0.034  c0.275,0.031,0.551,0.05,0.833,0.051c0.015,0,0.027,0.002,0.04,0.002c0.004,0,0.007-0.001,0.011-0.001h49.837  c0.01,0,0.021,0,0.031,0h411.48c0.004,0,0.007,0.001,0.011,0.001c0.013,0,0.026-0.002,0.039-0.002  c0.282-0.001,0.56-0.02,0.834-0.051c0.074-0.008,0.147-0.023,0.221-0.033c0.219-0.031,0.434-0.068,0.647-0.118  c0.081-0.019,0.16-0.04,0.239-0.062c0.206-0.055,0.41-0.118,0.609-0.189c0.078-0.027,0.154-0.055,0.231-0.085  c0.211-0.083,0.418-0.176,0.621-0.278c0.059-0.029,0.117-0.054,0.174-0.084c0.25-0.133,0.492-0.279,0.724-0.437  c0.066-0.046,0.13-0.098,0.196-0.147c0.165-0.12,0.325-0.246,0.48-0.378c0.082-0.069,0.161-0.144,0.239-0.218  c0.146-0.136,0.284-0.278,0.419-0.425c0.062-0.067,0.124-0.132,0.183-0.202c0.195-0.226,0.376-0.462,0.542-0.71  c0.001-0.002,0.002-0.003,0.004-0.005c0.017-0.026,0.029-0.052,0.047-0.078c0.121-0.187,0.237-0.377,0.342-0.574  c0.036-0.069,0.066-0.141,0.102-0.211c0.077-0.154,0.153-0.31,0.22-0.471c0.042-0.102,0.076-0.205,0.112-0.308  c0.049-0.132,0.098-0.262,0.14-0.397c0.038-0.13,0.067-0.261,0.101-0.393c0.027-0.111,0.059-0.221,0.081-0.335  c0.032-0.161,0.053-0.323,0.074-0.486c0.012-0.087,0.028-0.172,0.036-0.26c0.021-0.206,0.028-0.413,0.031-0.62  c0.001-0.045,0.007-0.089,0.007-0.135v-0.027C512,357.737,512,357.728,512,357.721z M315.143,152.275l141.589-94.402h22.18  l-156.869,104.58h27.726L496.62,64.552v40.664v57.237v11.535H303.61V57.874h11.534h102.773h11.093l-113.866,75.918v18.484H315.143z   M243.629,173.988H50.619v-11.535v-57.237v-7.35l96.649,64.588h27.68L50.619,79.368V64.552l146.851,97.901h27.726L68.326,57.874  h60.996h102.773h11.535v116.114H243.629z M232.096,255.689l-141.59,94.392h-22.18l156.87-104.58h-27.727L50.619,343.404v-40.665  v-57.237v-11.535H243.63v116.114h-11.535H129.322h-11.09l113.863-75.91V255.689z M303.61,233.967h139.183  c4.248,0,7.689-3.443,7.689-7.689l0,0c0-4.247-3.441-7.689-7.689-7.689H295.919c-4.247,0-7.689,3.443-7.689,7.689v123.804h-29.22  V226.278c0-4.247-3.442-7.689-7.689-7.689H50.619v-29.221H251.32c4.247,0,7.689-3.443,7.689-7.69V57.874h29.22v123.803  c0,4.247,3.442,7.69,7.689,7.69h200.702v29.22h-23.069c-4.248,0-7.689,3.443-7.689,7.689l0,0c0,4.246,3.441,7.689,7.689,7.689  h23.069v11.535v57.237v8.084l-97.75-65.32h-27.68l125.431,83.819v14.082l-146.852-97.901h-27.726l156.87,104.58h-60.996H315.145  h-11.535V233.967H303.61z"/>
<g>
	<polygon style="fill:#FFFFFF;" points="232.096,126.388 129.321,57.874 68.326,57.874 225.195,162.453 197.469,162.453    174.947,162.453 147.267,162.453 50.619,97.866 50.619,105.216 136.474,162.453 50.619,162.453 50.619,173.988 243.629,173.988    243.629,57.874 232.096,57.874  "/>
	<path style="fill:#FFFFFF;" d="M315.143,281.566l102.773,68.516h60.996l-156.87-104.58h27.726h21.422h27.68l97.749,65.32v-8.084   l-85.855-57.237h85.855v-11.535h-23.069c-4.248,0-7.689-3.443-7.689-7.689h-15.381c0,4.246-3.441,7.689-7.689,7.689H303.609   v116.114h11.534V281.566z"/>
</g>
<path style="fill:#ED1F34;" d="M465.862,226.278c0-4.247,3.441-7.689,7.689-7.689h23.069v-29.221H295.919  c-4.247,0-7.689-3.443-7.689-7.69V57.874h-29.22v123.803c0,4.247-3.442,7.69-7.689,7.69H50.619v29.22H251.32  c4.247,0,7.689,3.443,7.689,7.689v123.804h29.22V226.278c0-4.247,3.442-7.689,7.689-7.689h146.874c4.248,0,7.689,3.443,7.689,7.689  l0,0H465.862L465.862,226.278z"/>
<path style="fill:#2E3033;" d="M21.013,482.462c-6.442,0-11.685-5.242-11.685-11.685V41.115c0-6.383,5.194-11.577,11.577-11.577  h1.527c6.444,0,11.685,5.242,11.685,11.685v429.552c0,6.444-5.242,11.685-11.685,11.685h-1.419V482.462z"/>
<path d="M22.432,20.211h-1.527C9.378,20.211,0,29.588,0,41.115v429.661c0,11.587,9.426,21.013,21.013,21.013h1.418  c11.587,0,21.013-9.426,21.013-21.013V41.223C43.444,29.637,34.018,20.211,22.432,20.211z M27.898,470.777  c0,3.014-2.452,5.466-5.466,5.466h-1.418c-3.014,0-5.466-2.452-5.466-5.466V41.115c0-2.955,2.403-5.358,5.358-5.358h1.527  c3.014,0,5.466,2.452,5.466,5.466v429.553H27.898z"/>
<g>
</g>
<g>
</g>
<g>
</g>
<g>
</g>
<g>
</g>
<g>
</g>
<g>
</g>
<g>
</g>
<g>
</g>
<g>
</g>
<g>
</g>
<g>
</g>
<g>
</g>
<g>
</g>
<g>
</g>
</svg>
