<?xml version="1.0" encoding="iso-8859-1"?>
<!-- Generator: Adobe Illustrator 19.0.0, SVG Export Plug-In . SVG Version: 6.00 Build 0)  -->
<svg xmlns="http://www.w3.org/2000/svg" xmlns:xlink="http://www.w3.org/1999/xlink" version="1.1" id="Layer_1" x="0px" y="0px" viewBox="0 0 512 512" style="enable-background:new 0 0 512 512;" xml:space="preserve">
<path style="fill:#FFE000;" d="M104.456,350.074h392.165V211.663h-53.827c-4.247,0-7.689-3.442-7.689-7.689h-15.379  c0,4.247-3.442,7.689-7.689,7.689H50.63v138.411h23.069c4.247,0,7.689,3.443,7.689,7.689h15.38  C96.767,353.516,100.21,350.074,104.456,350.074z"/>
<path style="fill:#164FCE;" d="M442.795,196.284h53.827V57.873H50.63v138.411h361.407c4.247,0,7.689,3.443,7.689,7.689h15.38  C435.106,199.727,438.548,196.284,442.795,196.284z"/>
<path d="M504.311,42.494H42.941c-4.247,0-7.689,3.443-7.689,7.689v307.58c0,4.247,3.442,7.689,7.689,7.689h30.758  c4.247,0,7.689-3.443,7.689-7.689s-3.442-7.689-7.689-7.689H50.63V211.663h361.407c4.247,0,7.689-3.442,7.689-7.689  s-3.442-7.689-7.689-7.689H50.63V57.873h445.992v138.411h-53.827c-4.247,0-7.689,3.443-7.689,7.689s3.442,7.689,7.689,7.689h53.827  v138.411H104.456c-4.247,0-7.689,3.443-7.689,7.689c0,4.247,3.442,7.689,7.689,7.689h399.854c4.247,0,7.689-3.443,7.689-7.689  V50.183C512,45.937,508.558,42.494,504.311,42.494z"/>
<path style="fill:#2E3033;" d="M21.013,482.462c-6.442,0-11.685-5.242-11.685-11.685V41.115c0-6.383,5.194-11.577,11.577-11.577  h1.527c6.444,0,11.685,5.242,11.685,11.685v429.552c0,6.444-5.242,11.685-11.685,11.685h-1.419V482.462z"/>
<path d="M22.432,20.211h-1.527C9.378,20.211,0,29.588,0,41.115v429.661c0,11.587,9.426,21.013,21.013,21.013h1.418  c11.587,0,21.013-9.426,21.013-21.013V41.223C43.444,29.637,34.018,20.211,22.432,20.211z M27.898,470.777  c0,3.014-2.452,5.466-5.466,5.466h-1.418c-3.014,0-5.466-2.452-5.466-5.466V41.115c0-2.955,2.403-5.358,5.358-5.358h1.527  c3.014,0,5.466,2.452,5.466,5.466v429.553H27.898z"/>
<g>
</g>
<g>
</g>
<g>
</g>
<g>
</g>
<g>
</g>
<g>
</g>
<g>
</g>
<g>
</g>
<g>
</g>
<g>
</g>
<g>
</g>
<g>
</g>
<g>
</g>
<g>
</g>
<g>
</g>
</svg>
