<?xml version="1.0" encoding="iso-8859-1"?>
<!-- Generator: Adobe Illustrator 19.0.0, SVG Export Plug-In . SVG Version: 6.00 Build 0)  -->
<svg xmlns="http://www.w3.org/2000/svg" xmlns:xlink="http://www.w3.org/1999/xlink" version="1.1" id="Layer_1" x="0px" y="0px" viewBox="0 0 512 512" style="enable-background:new 0 0 512 512;" xml:space="preserve">
<g>
	<path style="fill:#ED1F34;" d="M313.693,160.593c10.032,9.139,16.884,21.699,18.731,35.811h164.228v-35.811L313.693,160.593   L313.693,160.593z"/>
	<path style="fill:#ED1F34;" d="M215.79,196.404c1.848-14.113,8.7-26.672,18.731-35.811H51.562v35.811H215.79z"/>
</g>
<path style="fill:#FFE000;" d="M496.652,298.725v-35.812H105.28c-4.239,0-7.674-3.435-7.674-7.674H82.257  c0,4.239-3.435,7.674-7.674,7.674H51.562v35.812H496.652z"/>
<rect x="51.562" y="58.275" style="fill:#333333;" width="445.088" height="35.812"/>
<rect x="51.562" y="109.434" style="fill:#FFE000;" width="445.088" height="35.812"/>
<g>
	<path style="fill:#333333;" d="M105.28,247.565h129.241c-10.031-9.141-16.883-21.699-18.731-35.812H51.562v35.812h23.021   c4.239,0,7.674,3.435,7.674,7.674h15.349C97.606,251,101.042,247.565,105.28,247.565z"/>
	<path style="fill:#333333;" d="M332.425,211.753c-1.847,14.113-8.699,26.672-18.731,35.812h182.96v-35.812H332.425z"/>
</g>
<rect x="51.562" y="314.068" style="fill:#ED1F34;" width="445.088" height="35.811"/>
<path d="M504.326,42.925H43.888c-4.238,0-7.674,3.435-7.674,7.675v306.958c0,4.239,3.436,7.675,7.674,7.675h460.438  c4.239,0,7.674-3.436,7.674-7.675V50.6C512,46.36,508.565,42.925,504.326,42.925z M496.652,58.273v35.812H51.562V58.273H496.652z   M74.583,262.913c4.239,0,7.674-3.435,7.674-7.674c0-4.239-3.435-7.674-7.674-7.674H51.562v-35.812H215.79  c1.848,14.113,8.7,26.672,18.731,35.812H105.28c-4.239,0-7.674,3.435-7.674,7.674c0,4.239,3.435,7.674,7.674,7.674h391.373v35.812  H51.562v-35.812H74.583z M317.593,204.079c0,23.978-19.508,43.486-43.486,43.486c-23.978,0-43.486-19.508-43.486-43.486  s19.508-43.486,43.486-43.486C298.085,160.593,317.593,180.101,317.593,204.079z M234.521,160.593  c-10.031,9.139-16.883,21.699-18.731,35.811H51.562v-35.811L234.521,160.593L234.521,160.593z M313.693,247.565  c10.032-9.141,16.884-21.699,18.731-35.812h164.228v35.812H313.693z M332.425,196.404c-1.847-14.113-8.699-26.672-18.731-35.811  h182.96v35.811H332.425z M51.562,145.245v-35.812h445.09v35.812H51.562z M51.562,349.884v-35.811h445.09v35.811H51.562z"/>
<path style="fill:#FFFFFF;" d="M274.107,160.593c-23.978,0-43.486,19.508-43.486,43.486s19.508,43.486,43.486,43.486  s43.486-19.508,43.486-43.486S298.085,160.593,274.107,160.593z M302.573,199.408c3.802,1.874,5.365,6.475,3.491,10.277  c-1.873,3.8-6.473,5.366-10.276,3.491l-5.93-2.923c-1.999,2.932-4.799,5.273-8.078,6.722v14.73c0,4.239-3.435,7.674-7.674,7.674  s-7.674-3.435-7.674-7.674V216.97c-6.693-2.958-11.381-9.65-11.381-17.427c0-1.176,0.27-2.338,0.79-3.392l6.414-13.014  c-2.331-1.316-3.905-3.816-3.905-6.685c0-4.239,3.435-7.675,7.674-7.675h8.081c2.651,0,5.116,1.369,6.516,3.622  c1.4,2.251,1.539,5.066,0.367,7.444l-10.353,21.004c0.53,1.402,1.885,2.4,3.469,2.4c2.044,0,3.706-1.662,3.706-3.705  c0-2.652,1.368-5.116,3.621-6.516c2.252-1.403,5.068-1.54,7.445-0.367L302.573,199.408z"/>
<path d="M281.435,193.027c-2.253,1.4-3.621,3.863-3.621,6.516c0,2.043-1.662,3.705-3.706,3.705c-1.584,0-2.94-0.998-3.469-2.4  l10.353-21.004c1.172-2.378,1.033-5.193-0.367-7.444c-1.401-2.253-3.864-3.622-6.516-3.622h-8.081c-4.239,0-7.674,3.436-7.674,7.675  c0,2.868,1.573,5.368,3.905,6.685l-6.414,13.014c-0.52,1.055-0.79,2.217-0.79,3.392c0,7.776,4.688,14.467,11.381,17.427v14.735  c0,4.239,3.435,7.674,7.674,7.674s7.674-3.435,7.674-7.674v-14.73c3.279-1.449,6.079-3.79,8.078-6.722l5.93,2.923  c3.803,1.875,8.403,0.309,10.276-3.491c1.874-3.802,0.311-8.403-3.491-10.277l-13.694-6.748  C286.503,191.487,283.686,191.625,281.435,193.027z"/>
<path style="fill:#2E3033;" d="M20.97,482.004c-6.429,0-11.661-5.232-11.661-11.661V41.55c0-6.371,5.183-11.554,11.554-11.554h1.524  c6.431,0,11.661,5.232,11.661,11.661v428.685c0,6.431-5.232,11.661-11.661,11.661H20.97V482.004z"/>
<path d="M22.386,20.687h-1.524C9.359,20.687,0,30.046,0,41.55v428.793c0,11.563,9.407,20.97,20.97,20.97h1.415  c11.564,0,20.97-9.407,20.97-20.97V41.657C43.357,30.094,33.949,20.687,22.386,20.687z M27.841,470.343  c0,3.008-2.447,5.455-5.455,5.455h-1.415c-3.008,0-5.455-2.447-5.455-5.455V41.55c0-2.949,2.399-5.348,5.348-5.348h1.524  c3.008,0,5.455,2.447,5.455,5.455v428.686H27.841z"/>
<g>
</g>
<g>
</g>
<g>
</g>
<g>
</g>
<g>
</g>
<g>
</g>
<g>
</g>
<g>
</g>
<g>
</g>
<g>
</g>
<g>
</g>
<g>
</g>
<g>
</g>
<g>
</g>
<g>
</g>
</svg>
