<?xml version="1.0" encoding="iso-8859-1"?>
<!-- Generator: Adobe Illustrator 19.0.0, SVG Export Plug-In . SVG Version: 6.00 Build 0)  -->
<svg xmlns="http://www.w3.org/2000/svg" xmlns:xlink="http://www.w3.org/1999/xlink" version="1.1" id="Layer_1" x="0px" y="0px" viewBox="0 0 511.999 511.999" style="enable-background:new 0 0 511.999 511.999;" xml:space="preserve">
<path style="fill:#FFFFFF;" d="M441.07,352.423h55.169V52.94H39.132v299.484h370.414c4.353,0,7.881,3.528,7.881,7.881h15.763  C433.189,355.952,436.717,352.423,441.07,352.423z M440.035,196.404c0-4.352,3.528-7.881,7.882-7.881  c4.353,0,7.881,3.529,7.881,7.881v46.433c0,4.353-3.528,7.881-7.881,7.881c-4.354,0-7.882-3.528-7.882-7.881V196.404z   M122.398,198.633l-13.692,46.432c-0.989,3.351-4.065,5.652-7.559,5.652c-3.494,0-6.571-2.301-7.559-5.652l-13.693-46.432  c-1.232-4.175,1.154-8.557,5.33-9.789c4.171-1.231,8.557,1.155,9.787,5.33l6.134,20.799l6.133-20.799  c1.23-4.175,5.611-6.561,9.787-5.33C121.243,190.076,123.629,194.459,122.398,198.633z M423.276,152.099h-41.223  c-0.313,3.505-0.824,6.954-1.538,10.331h20.344c4.354,0,7.882,3.529,7.882,7.881c0,4.352-3.528,7.881-7.882,7.881h-25.272  c-1.504,3.572-3.252,7.016-5.195,10.331h8.05c4.354,0,7.882,3.529,7.882,7.881c0,4.353-3.528,7.881-7.882,7.881h-19.834  c-15.551,16.577-37.431,27.126-61.749,27.762c-1.898,2.23-3.826,4.28-5.73,6.151l6.426,44.265c0.329,2.264-0.342,4.559-1.839,6.29  c-1.497,1.729-3.672,2.724-5.959,2.724h-44.144c-2.287,0-4.462-0.995-5.959-2.724c-1.497-1.73-2.169-4.026-1.839-6.29l6.425-44.265  c-1.904-1.872-3.83-3.922-5.73-6.151c-24.318-0.635-46.198-11.184-61.749-27.762h-19.834c-4.354,0-7.882-3.528-7.882-7.881  c0-4.352,3.528-7.881,7.882-7.881h8.05c-1.944-3.315-3.691-6.758-5.195-10.331h-25.273c-4.353,0-7.881-3.529-7.881-7.881  c0-4.352,3.528-7.881,7.881-7.881h20.345c-0.715-3.376-1.225-6.825-1.538-10.331h-41.224c-4.353,0-7.881-3.529-7.881-7.881  c0-4.352,3.528-7.881,7.881-7.881h48.735h45.292c4.353,0,7.881,3.529,7.881,7.881c0,6.99,2.733,13.479,7.373,18.294  c1.125-4.904,2.669-9.641,4.66-14.075c1.187-2.642,3.725-4.421,6.615-4.632c0.02-0.002,0.038,0,0.058,0c0.002,0,0.003,0,0.004,0  c0.057-0.004,0.113,0.001,0.17-0.001c0.29-0.013,0.58-0.021,0.866-0.003c2.504,0.148,4.797,1.48,6.164,3.62  c2.614,4.086,6.461,6.432,10.557,6.44c3.504-0.006,6.816-1.733,9.338-4.785v-19.423h-13.561c-4.354,0-7.882-3.528-7.882-7.881  c0-4.352,3.528-7.881,7.882-7.881h21.442c4.353,0,7.881,3.529,7.881,7.881v27.304c2.523,3.053,5.835,4.779,9.338,4.785  c4.096-0.007,7.943-2.353,10.557-6.44c1.368-2.141,3.679-3.469,6.171-3.619c0.239-0.016,0.481-0.004,0.723,0.001  c0.103,0.003,0.203-0.005,0.307,0.001c0.001,0,0.003,0,0.005,0c0.019,0.001,0.037-0.001,0.057,0  c2.889,0.211,5.427,1.991,6.615,4.632c1.991,4.435,3.535,9.17,4.66,14.075c4.639-4.815,7.372-11.304,7.372-18.294  c0-4.353,3.528-7.881,7.882-7.881h45.292h48.733c4.354,0,7.882,3.529,7.882,7.881C431.159,148.569,427.629,152.099,423.276,152.099z  "/>
<path d="M504.118,37.178H31.25c-4.353,0-7.881,3.529-7.881,7.881v315.245c0,4.353,3.528,7.882,7.881,7.882h378.296  c4.353,0,7.881-3.529,7.881-7.882s-3.528-7.881-7.881-7.881H39.132V52.94h457.106v299.484h-55.169c-4.353,0-7.881,3.528-7.881,7.881  s3.528,7.882,7.881,7.882h63.048c4.354,0,7.882-3.529,7.882-7.882V45.059C512,40.707,508.472,37.178,504.118,37.178z"/>
<g>
	<path style="fill:#FFE000;" d="M267.685,254.087c-1.257,0-2.513-0.301-3.657-0.901c-0.374-0.195-2.461-1.313-5.547-3.376   l-3.759,25.902h25.927l-3.759-25.902c-3.085,2.063-5.173,3.18-5.546,3.376C270.198,253.787,268.941,254.087,267.685,254.087z"/>
	<path style="fill:#FFE000;" d="M219.261,181.123c0-0.141,0.011-0.283,0.012-0.423c-10.66-6.152-18.037-16.589-20.302-28.601   h-29.836c3.445,31.55,27.321,57.051,58.076,62.954C222.491,205.578,219.261,194.292,219.261,181.123z"/>
</g>
<path d="M423.276,136.336h-48.733h-45.292c-4.354,0-7.882,3.529-7.882,7.881c0,6.99-2.733,13.479-7.372,18.294  c-1.125-4.904-2.669-9.641-4.66-14.075c-1.187-2.642-3.725-4.421-6.615-4.632c-0.02-0.002-0.038,0-0.057,0c-0.002,0-0.004,0-0.005,0  c-0.104-0.007-0.204,0.002-0.307-0.001c-0.242-0.005-0.484-0.017-0.723-0.001c-2.492,0.15-4.802,1.478-6.171,3.619  c-2.614,4.086-6.461,6.432-10.557,6.44c-3.503-0.006-6.815-1.733-9.338-4.785v-27.304c0-4.352-3.528-7.881-7.881-7.881h-21.442  c-4.354,0-7.882,3.529-7.882,7.881c0,4.353,3.528,7.881,7.882,7.881h13.561v19.423c-2.522,3.053-5.834,4.779-9.338,4.785  c-4.095-0.007-7.942-2.353-10.557-6.44c-1.367-2.14-3.659-3.472-6.164-3.62c-0.287-0.018-0.576-0.01-0.866,0.003  c-0.057,0.002-0.113-0.003-0.17,0.001c-0.001,0-0.002,0-0.004,0c-0.02,0.001-0.038-0.001-0.058,0  c-2.889,0.211-5.427,1.991-6.615,4.632c-1.991,4.435-3.535,9.17-4.66,14.075c-4.64-4.815-7.373-11.304-7.373-18.294  c0-4.353-3.528-7.881-7.881-7.881h-45.292H112.09c-4.353,0-7.881,3.529-7.881,7.881c0,4.352,3.528,7.881,7.881,7.881h41.224  c0.313,3.505,0.823,6.954,1.538,10.331h-20.345c-4.353,0-7.881,3.529-7.881,7.881c0,4.352,3.528,7.881,7.881,7.881h25.273  c1.504,3.572,3.252,7.016,5.195,10.331h-8.05c-4.354,0-7.882,3.529-7.882,7.881c0,4.353,3.528,7.881,7.882,7.881h19.834  c15.551,16.577,37.431,27.126,61.749,27.762c1.898,2.23,3.826,4.28,5.73,6.151l-6.425,44.265c-0.33,2.264,0.342,4.559,1.839,6.29  c1.497,1.729,3.672,2.724,5.959,2.724h44.144c2.287,0,4.462-0.995,5.959-2.724c1.497-1.73,2.168-4.026,1.839-6.29l-6.426-44.265  c1.904-1.872,3.83-3.922,5.73-6.151c24.318-0.635,46.198-11.184,61.749-27.762h19.834c4.354,0,7.882-3.528,7.882-7.881  c0-4.352-3.528-7.881-7.882-7.881h-8.05c1.944-3.315,3.691-6.758,5.195-10.331h25.272c4.354,0,7.882-3.529,7.882-7.881  c0-4.352-3.528-7.881-7.882-7.881h-20.344c0.714-3.376,1.225-6.825,1.538-10.331h41.223c4.354,0,7.882-3.529,7.882-7.881  C431.157,139.866,427.629,136.336,423.276,136.336z M349.78,190.528c-0.502,0.448-0.951,0.954-1.325,1.517  C338.106,203.7,324.058,212,308.158,215.052c4.72-9.473,7.949-20.76,7.949-33.929c0-0.141-0.011-0.283-0.012-0.423  c10.66-6.152,18.037-16.588,20.302-28.601h29.835C364.647,166.636,358.717,179.885,349.78,190.528z M280.648,275.714h-25.927  l3.759-25.902c3.085,2.063,5.173,3.18,5.547,3.376c1.144,0.6,2.402,0.901,3.657,0.901s2.513-0.301,3.658-0.901  c0.373-0.195,2.46-1.313,5.546-3.376L280.648,275.714z M169.135,152.099h29.836c2.265,12.013,9.642,22.448,20.302,28.601  c-0.001,0.141-0.012,0.281-0.012,0.423c0,13.169,3.229,24.455,7.949,33.929C196.455,209.149,172.58,183.648,169.135,152.099z   M273.318,232.957c-2.141,1.687-4.072,3.039-5.611,4.046c-1.542-1.019-3.489-2.397-5.654-4.118  c-4.805-3.821-10.699-9.369-15.763-16.655c-5.311-7.643-9.689-17.196-10.912-28.667c-0.222-2.085-0.353-4.228-0.353-6.44  c0-5.23,0.588-10.387,1.729-15.294c4.165,2.456,8.858,3.793,13.692,3.793c6.251,0,12.271-2.243,17.219-6.249  c4.949,4.006,10.97,6.249,17.22,6.249c4.843,0,9.545-1.347,13.719-3.814c1.149,4.901,1.743,10.065,1.743,15.315  c0,2.214-0.127,4.356-0.346,6.44c-1.216,11.581-5.599,21.176-10.919,28.822C284.02,223.658,278.129,229.169,273.318,232.957z"/>
<path style="fill:#FFE000;" d="M336.399,152.099c-2.265,12.013-9.642,22.448-20.302,28.601c0.001,0.141,0.012,0.281,0.012,0.423  c0,13.169-3.229,24.455-7.949,33.929c15.9-3.052,29.947-11.352,40.297-23.007c0.375-0.562,0.822-1.069,1.325-1.517  c8.937-10.644,14.867-23.892,16.453-38.43h-29.836V152.099z"/>
<g>
	<path style="fill:#FFFFFF;" d="M235.377,187.564c1.224,11.47,5.601,21.024,10.912,28.667v-28.667H235.377z"/>
	<path style="fill:#FFFFFF;" d="M289.08,216.386c5.321-7.647,9.704-17.241,10.919-28.822H289.08V216.386z"/>
	<path style="fill:#FFFFFF;" d="M262.052,187.564v45.322c2.165,1.721,4.112,3.1,5.654,4.118c1.539-1.007,3.47-2.359,5.611-4.046   v-45.394H262.052z"/>
</g>
<g>
	<path style="fill:#ED1F34;" d="M246.289,187.564v28.667c5.064,7.286,10.957,12.834,15.763,16.655v-45.322H246.289z"/>
	<path style="fill:#ED1F34;" d="M289.08,216.386v-28.822h-15.763v45.394C278.129,229.169,284.02,223.658,289.08,216.386z"/>
</g>
<path style="fill:#164FCE;" d="M262.052,187.564h11.265h15.763h10.919c0.219-2.084,0.346-4.227,0.346-6.44  c0-5.252-0.594-10.414-1.743-15.315c-4.174,2.469-8.876,3.814-13.719,3.814c-6.25,0-12.271-2.243-17.22-6.249  c-4.948,4.006-10.968,6.249-17.219,6.249c-4.834,0-9.527-1.337-13.692-3.793c-1.141,4.908-1.729,10.064-1.729,15.294  c0,2.213,0.131,4.355,0.353,6.44h10.912H262.052z"/>
<g>
	<path style="fill:#3DB4EA;" d="M117.067,188.845c-4.177-1.231-8.557,1.155-9.787,5.33l-6.133,20.799l-6.134-20.799   c-1.23-4.175-5.616-6.56-9.787-5.33c-4.177,1.231-6.563,5.614-5.33,9.789l13.693,46.432c0.989,3.351,4.065,5.652,7.559,5.652   c3.494,0,6.571-2.301,7.559-5.652l13.692-46.432C123.629,194.459,121.243,190.076,117.067,188.845z"/>
	<path style="fill:#3DB4EA;" d="M447.917,250.718c4.353,0,7.881-3.528,7.881-7.881v-46.433c0-4.352-3.528-7.881-7.881-7.881   c-4.354,0-7.882,3.529-7.882,7.881v46.433C440.035,247.19,443.563,250.718,447.917,250.718z"/>
</g>
<path style="fill:#2E3033;" d="M21.536,488.099c-6.603,0-11.976-5.373-11.976-11.976V35.765c0-6.542,5.323-11.865,11.865-11.865  h1.565c6.604,0,11.976,5.373,11.976,11.976v440.247c0,6.604-5.373,11.976-11.976,11.976h-1.454V488.099z"/>
<path d="M22.99,14.34h-1.565C9.611,14.34,0,23.951,0,35.765v440.358c0,11.876,9.661,21.536,21.536,21.536h1.453  c11.876,0,21.536-9.661,21.536-21.536V35.876C44.526,24.001,34.865,14.34,22.99,14.34z M28.592,476.123  c0,3.089-2.513,5.602-5.602,5.602h-1.453c-3.089,0-5.602-2.513-5.602-5.602V35.765c0-3.028,2.463-5.492,5.492-5.492h1.565  c3.089,0,5.602,2.513,5.602,5.602v440.248H28.592z"/>
<g>
</g>
<g>
</g>
<g>
</g>
<g>
</g>
<g>
</g>
<g>
</g>
<g>
</g>
<g>
</g>
<g>
</g>
<g>
</g>
<g>
</g>
<g>
</g>
<g>
</g>
<g>
</g>
<g>
</g>
</svg>
