<?xml version="1.0" encoding="iso-8859-1"?>
<!-- Generator: Adobe Illustrator 19.0.0, SVG Export Plug-In . SVG Version: 6.00 Build 0)  -->
<svg xmlns="http://www.w3.org/2000/svg" xmlns:xlink="http://www.w3.org/1999/xlink" version="1.1" id="Layer_1" x="0px" y="0px" viewBox="0 0 512 512" style="enable-background:new 0 0 512 512;" xml:space="preserve">
<path style="fill:#3DB4EA;" d="M496.652,265.481V58.283H281.781v145.805c0,2.036-0.808,3.987-2.248,5.426  c-1.439,1.44-3.391,2.248-5.426,2.248l-222.544-0.005v138.137h445.089v-53.718c0-4.239,3.436-7.674,7.674-7.674v-15.349  C500.087,273.154,496.652,269.719,496.652,265.481z M266.032,319.983c-7.064,0-12.79-5.726-12.79-12.791  c0-7.064,5.726-12.79,12.79-12.79s12.79,5.727,12.79,12.79C278.822,314.257,273.096,319.983,266.032,319.983z M324.853,307.468  c-7.064,0-12.79-5.726-12.79-12.79c0-7.064,5.726-12.79,12.79-12.79c7.065,0,12.791,5.727,12.791,12.79  C337.644,301.742,331.917,307.468,324.853,307.468z M324.853,256.156c-7.064,0-12.79-5.726-12.79-12.79  c0-7.064,5.726-12.79,12.79-12.79c7.065,0,12.791,5.726,12.791,12.79C337.644,250.431,331.917,256.156,324.853,256.156z   M378.668,294.952c-7.064,0-12.79-5.726-12.79-12.79c0-7.064,5.726-12.79,12.79-12.79s12.79,5.727,12.79,12.79  C391.458,289.226,385.732,294.952,378.668,294.952z M378.668,183.439c-7.064,0-12.79-5.726-12.79-12.79s5.726-12.79,12.79-12.79  s12.79,5.726,12.79,12.79S385.732,183.439,378.668,183.439z M416.422,255.883c-6.913,0-12.516-5.603-12.516-12.517  c0-6.913,5.603-12.516,12.516-12.516s12.516,5.603,12.516,12.516C428.936,250.279,423.333,255.883,416.422,255.883z   M416.422,170.923c-7.064,0-12.791-5.726-12.791-12.79s5.727-12.79,12.791-12.79s12.79,5.726,12.79,12.79  S423.485,170.923,416.422,170.923z M454.174,233.501c-7.065,0-12.791-5.726-12.791-12.79c0-7.064,5.726-12.79,12.791-12.79  c7.064,0,12.79,5.726,12.79,12.79C466.964,227.775,461.238,233.501,454.174,233.501z M454.174,125.027  c-7.065,0-12.791-5.726-12.791-12.79c0-7.064,5.726-12.79,12.791-12.79c7.064,0,12.79,5.726,12.79,12.79  C466.964,119.301,461.238,125.027,454.174,125.027z"/>
<g>
	<polygon style="fill:#103B9B;" points="179.717,196.413 225.243,196.414 179.717,166.064  "/>
	<polygon style="fill:#103B9B;" points="266.432,106.629 266.432,80.627 227.429,106.629  "/>
	<polygon style="fill:#103B9B;" points="92.758,196.41 138.278,196.411 138.278,166.064  "/>
	<polygon style="fill:#103B9B;" points="266.432,174.071 266.432,148.068 227.43,148.068  "/>
	<polygon style="fill:#103B9B;" points="51.563,148.068 51.563,174.071 90.565,148.068  "/>
	<polygon style="fill:#103B9B;" points="138.278,58.283 92.752,58.283 138.278,88.633  "/>
	<polygon style="fill:#103B9B;" points="225.243,58.283 179.717,58.283 179.717,88.633  "/>
	<polygon style="fill:#103B9B;" points="51.563,80.627 51.563,106.629 90.565,106.629  "/>
</g>
<g>
	<polygon style="fill:#ED1F34;" points="179.717,106.629 190.077,106.629 262.595,58.283 237.695,58.283 179.717,96.94  "/>
	<polygon style="fill:#ED1F34;" points="138.278,148.068 127.918,148.068 55.406,196.409 80.307,196.41 138.278,157.763  "/>
	<polygon style="fill:#ED1F34;" points="102.856,106.629 127.918,106.629 55.399,58.283 51.563,58.283 51.563,72.35  "/>
	<polygon style="fill:#ED1F34;" points="190.077,148.068 262.596,196.415 266.432,196.415 266.432,182.713 214.589,148.068  "/>
</g>
<g>
	<polygon style="fill:#FFFFFF;" points="170.125,138.476 170.125,196.413 179.717,196.413 179.717,166.064 225.243,196.414    262.596,196.415 190.077,148.068 214.589,148.068 266.432,182.713 266.432,174.071 227.43,148.068 266.432,148.068    266.432,138.476  "/>
	<polygon style="fill:#FFFFFF;" points="147.87,138.476 51.563,138.476 51.563,148.068 90.565,148.068 51.563,174.071    51.563,196.409 55.406,196.409 127.918,148.068 138.278,148.068 138.278,157.763 80.307,196.41 92.758,196.41 138.278,166.064    138.278,196.411 147.87,196.413  "/>
	<polygon style="fill:#FFFFFF;" points="170.125,116.222 266.432,116.222 266.432,106.629 227.429,106.629 266.432,80.627    266.432,58.283 262.595,58.283 190.077,106.629 179.717,106.629 179.717,96.94 237.695,58.283 225.243,58.283 179.717,88.633    179.717,58.283 170.125,58.283  "/>
	<polygon style="fill:#FFFFFF;" points="102.856,106.629 51.563,72.35 51.563,80.627 90.565,106.629 51.563,106.629 51.563,116.222    147.87,116.222 147.87,58.283 138.278,58.283 138.278,88.633 92.752,58.283 55.399,58.283 127.918,106.629  "/>
</g>
<polygon style="fill:#ED1F34;" points="147.87,116.222 51.563,116.222 51.563,138.476 147.87,138.476 147.87,196.413   170.125,196.413 170.125,138.476 266.432,138.476 266.432,116.222 170.125,116.222 170.125,58.283 147.87,58.283 "/>
<path d="M496.652,296.176v53.718H51.563V211.757l222.544,0.005c2.036,0,3.987-0.809,5.426-2.248c1.44-1.439,2.248-3.391,2.248-5.426  V58.283h214.871V265.48c0,4.239,3.436,7.674,7.674,7.674c4.239,0,7.674-3.435,7.674-7.674V50.609c0-4.238-3.436-7.674-7.674-7.674  H274.305c-0.066-0.001-0.131-0.01-0.198-0.01s-0.131,0.008-0.198,0.01H43.888c-4.238,0-7.674,3.436-7.674,7.674v306.959  c0,4.239,3.436,7.674,7.674,7.674h460.437c4.239,0,7.674-3.435,7.674-7.674v-61.391c0-4.239-3.436-7.674-7.674-7.674  C500.087,288.502,496.652,291.938,496.652,296.176z M55.399,58.283h37.352h45.526h9.592h22.255h9.592h45.526h12.452h24.901h3.837  v22.344v26.002v9.593v22.255v9.592v26.001v8.642v13.702h-3.836l-37.354-0.001l-45.526-0.001h-9.592H147.87h-9.592l-45.52-0.001  H80.307l-24.901-0.001h-3.844v-22.34v-26.001v-9.592v-22.255v-9.592V80.627V72.35V58.283H55.399z"/>
<g>
	<circle style="fill:#FFE000;" cx="266.033" cy="307.19" r="12.79"/>
	<circle style="fill:#FFE000;" cx="324.856" cy="243.371" r="12.79"/>
	<circle style="fill:#FFE000;" cx="324.856" cy="294.674" r="12.79"/>
	<circle style="fill:#FFE000;" cx="378.673" cy="170.646" r="12.79"/>
	<circle style="fill:#FFE000;" cx="416.427" cy="158.13" r="12.79"/>
	<circle style="fill:#FFE000;" cx="454.17" cy="112.237" r="12.79"/>
	<circle style="fill:#FFE000;" cx="378.673" cy="282.159" r="12.79"/>
	<circle style="fill:#FFE000;" cx="416.427" cy="243.371" r="12.516"/>
	<circle style="fill:#FFE000;" cx="454.17" cy="220.708" r="12.79"/>
</g>
<path style="fill:#2E3033;" d="M20.97,482.004c-6.429,0-11.661-5.232-11.661-11.661V41.55c0-6.371,5.183-11.554,11.554-11.554h1.524  c6.431,0,11.661,5.232,11.661,11.661v428.685c0,6.431-5.232,11.661-11.661,11.661H20.97V482.004z"/>
<path d="M22.386,20.687h-1.524C9.359,20.687,0,30.046,0,41.55v428.793c0,11.563,9.407,20.97,20.97,20.97h1.415  c11.564,0,20.97-9.407,20.97-20.97V41.657C43.357,30.094,33.949,20.687,22.386,20.687z M27.841,470.343  c0,3.008-2.447,5.455-5.455,5.455h-1.415c-3.008,0-5.455-2.447-5.455-5.455V41.55c0-2.949,2.399-5.348,5.348-5.348h1.524  c3.008,0,5.455,2.447,5.455,5.455v428.686H27.841z"/>
<g>
</g>
<g>
</g>
<g>
</g>
<g>
</g>
<g>
</g>
<g>
</g>
<g>
</g>
<g>
</g>
<g>
</g>
<g>
</g>
<g>
</g>
<g>
</g>
<g>
</g>
<g>
</g>
<g>
</g>
</svg>
