<?xml version="1.0" encoding="iso-8859-1"?>
<!-- Generator: Adobe Illustrator 19.0.0, SVG Export Plug-In . SVG Version: 6.00 Build 0)  -->
<svg xmlns="http://www.w3.org/2000/svg" xmlns:xlink="http://www.w3.org/1999/xlink" version="1.1" id="Layer_1" x="0px" y="0px" viewBox="0 0 511.999 511.999" style="enable-background:new 0 0 511.999 511.999;" xml:space="preserve">
<g>
	<polygon style="fill:#103B9B;" points="128.189,52.94 81.434,52.94 128.189,84.11  "/>
	<polygon style="fill:#103B9B;" points="39.132,75.887 39.132,102.592 79.188,102.592  "/>
	<polygon style="fill:#103B9B;" points="39.132,145.149 39.132,171.854 79.188,145.149  "/>
	<polygon style="fill:#103B9B;" points="217.501,52.94 170.747,52.94 170.747,84.11  "/>
	<path style="fill:#103B9B;" d="M496.237,297.256V52.94H267.685v17.693l-47.937,31.958h47.937v9.851v22.855v9.851h-47.937   l47.937,31.959v8.889v16.686h-38.361l-58.577-39.051v39.051h-9.851H138.04h-9.851V163.63l-58.577,39.051H56.825H39.132v149.741   h457.106v-23.643c0-4.353,3.529-7.881,7.881-7.881v-15.763C499.766,305.137,496.237,301.609,496.237,297.256z M446.324,196.863   c0,32.507-15.92,51.871-29.274,62.392c-14.306,11.27-28.653,14.905-29.256,15.055c-0.621,0.153-1.257,0.231-1.892,0.231   c-0.635,0-1.269-0.078-1.891-0.231c-0.603-0.15-14.95-3.785-29.256-15.055c-13.354-10.52-29.274-29.885-29.274-62.392v-58.159   c0-4.353,3.529-7.881,7.881-7.881h105.082c4.352,0,7.881,3.529,7.881,7.881L446.324,196.863L446.324,196.863z"/>
</g>
<polygon style="fill:#FFFFFF;" points="181.386,102.592 170.747,102.592 170.747,92.64 230.29,52.94 217.501,52.94 170.747,84.11   170.747,52.94 160.895,52.94 160.895,112.443 267.685,112.443 267.685,102.592 219.748,102.592 267.685,70.633 267.685,52.94   255.863,52.94 "/>
<g>
	<polygon style="fill:#ED1F34;" points="128.189,145.149 117.549,145.149 39.132,197.428 39.132,202.682 56.825,202.682    128.189,155.107  "/>
	<polygon style="fill:#ED1F34;" points="170.747,102.592 181.386,102.592 255.863,52.94 230.29,52.94 170.747,92.64  "/>
	<polygon style="fill:#ED1F34;" points="181.386,145.149 267.685,202.682 267.685,185.996 206.56,145.149  "/>
	<polygon style="fill:#ED1F34;" points="117.549,102.592 43.072,52.94 39.132,52.94 39.132,67.387 91.811,102.592  "/>
</g>
<g>
	<polygon style="fill:#FFFFFF;" points="160.895,135.298 160.895,202.682 170.747,202.682 170.747,163.63 229.324,202.682    267.685,202.682 181.386,145.149 206.56,145.149 267.685,185.996 267.685,177.107 219.748,145.149 267.685,145.149    267.685,135.298  "/>
	<polygon style="fill:#FFFFFF;" points="138.04,135.298 39.132,135.298 39.132,145.149 79.188,145.149 39.132,171.854    39.132,197.428 117.549,145.149 128.189,145.149 128.189,155.107 56.825,202.682 69.612,202.682 128.189,163.63 128.189,202.682    138.04,202.682  "/>
	<polygon style="fill:#FFFFFF;" points="138.04,112.443 138.04,52.94 128.189,52.94 128.189,84.11 81.434,52.94 43.072,52.94    117.549,102.592 91.811,102.592 39.132,67.387 39.132,75.887 79.188,102.592 39.132,102.592 39.132,112.443  "/>
</g>
<polygon style="fill:#ED1F34;" points="160.895,112.443 160.895,52.94 138.04,52.94 138.04,112.443 39.132,112.443 39.132,135.298   138.04,135.298 138.04,202.682 160.895,202.682 160.895,135.298 267.685,135.298 267.685,112.443 "/>
<path style="fill:#FFE000;" d="M341.242,196.863c0,44.236,35.987,58.729,44.681,61.582c8.92-2.863,44.639-17.106,44.639-61.582  v-50.278h-89.32V196.863z M405.341,164.459c8.561,0,15.499,6.939,15.499,15.499c0,8.56-6.94,15.499-15.499,15.499  c-8.56,0-15.499-6.94-15.499-15.499C389.842,171.397,396.782,164.459,405.341,164.459z M401.402,212.796  c0,8.56-6.94,15.499-15.499,15.499c-8.56,0-15.499-6.94-15.499-15.499c0-8.561,6.94-15.5,15.499-15.5  C394.462,197.296,401.402,204.235,401.402,212.796z M366.461,164.459c8.561,0,15.499,6.939,15.499,15.499  c0,8.56-6.94,15.499-15.499,15.499c-8.56,0-15.499-6.94-15.499-15.499C350.962,171.397,357.902,164.459,366.461,164.459z"/>
<path d="M438.443,130.823H333.361c-4.353,0-7.881,3.529-7.881,7.881v58.159c0,32.507,15.92,51.871,29.274,62.392  c14.306,11.27,28.653,14.905,29.256,15.055c0.621,0.153,1.257,0.231,1.891,0.231c0.635,0,1.27-0.078,1.892-0.231  c0.603-0.15,14.95-3.785,29.256-15.055c13.354-10.52,29.274-29.885,29.274-62.392v-58.159  C446.324,134.352,442.795,130.823,438.443,130.823z M430.561,196.863c0,44.476-35.719,58.72-44.639,61.582  c-8.694-2.853-44.681-17.346-44.681-61.582v-50.278h89.32V196.863z"/>
<circle style="fill:#F2A643;" cx="366.462" cy="179.954" r="15.499"/>
<circle style="fill:#FF7900;" cx="405.34" cy="179.954" r="15.499"/>
<circle style="fill:#259245;" cx="385.901" cy="212.798" r="15.499"/>
<path d="M496.237,328.78v23.643H39.132V202.682v-5.254v-25.575v-26.705v-9.851v-22.855v-9.851V75.887v-8.5V52.94h3.94h38.362h46.756  h9.851h22.855h9.851h46.755h12.788h25.573h11.822h228.553v244.315c0,4.353,3.529,7.881,7.881,7.881s7.881-3.528,7.881-7.881V45.059  c0-4.353-3.529-7.881-7.881-7.881H31.25c-4.352,0-7.881,3.529-7.881,7.881v315.245c0,4.353,3.529,7.882,7.881,7.882h472.868  c4.353,0,7.881-3.529,7.881-7.882v-31.525c0-4.353-3.529-7.881-7.881-7.881S496.237,324.427,496.237,328.78z"/>
<path style="fill:#2E3033;" d="M21.536,488.099c-6.603,0-11.976-5.373-11.976-11.976V35.765c0-6.542,5.323-11.865,11.865-11.865  h1.565c6.604,0,11.976,5.373,11.976,11.976v440.247c0,6.604-5.373,11.976-11.976,11.976h-1.454V488.099z"/>
<path d="M22.99,14.34h-1.565C9.611,14.34,0,23.951,0,35.765v440.358c0,11.876,9.661,21.536,21.536,21.536h1.453  c11.876,0,21.536-9.661,21.536-21.536V35.876C44.526,24.001,34.865,14.34,22.99,14.34z M28.592,476.123  c0,3.089-2.513,5.602-5.602,5.602h-1.453c-3.089,0-5.602-2.513-5.602-5.602V35.765c0-3.028,2.463-5.492,5.492-5.492h1.565  c3.089,0,5.602,2.513,5.602,5.602v440.248H28.592z"/>
<g>
</g>
<g>
</g>
<g>
</g>
<g>
</g>
<g>
</g>
<g>
</g>
<g>
</g>
<g>
</g>
<g>
</g>
<g>
</g>
<g>
</g>
<g>
</g>
<g>
</g>
<g>
</g>
<g>
</g>
</svg>
