<?xml version="1.0" encoding="iso-8859-1"?>
<!-- Generator: Adobe Illustrator 19.0.0, SVG Export Plug-In . SVG Version: 6.00 Build 0)  -->
<svg xmlns="http://www.w3.org/2000/svg" xmlns:xlink="http://www.w3.org/1999/xlink" version="1.1" id="Layer_1" x="0px" y="0px" viewBox="0 0 512 512" style="enable-background:new 0 0 512 512;" xml:space="preserve">
<g>
	<path style="fill:#259245;" d="M442.935,58.273H194.809v291.61h301.843V58.273H473.63c-4.239,0-7.674-3.436-7.674-7.674h-15.349   C450.608,54.838,447.173,58.273,442.935,58.273z M272.097,104.419c2.997-2.996,7.856-2.996,10.852,0   c2.996,2.996,2.996,7.856,0,10.853c-2.996,2.996-7.856,2.996-10.852,0C269.101,112.275,269.101,107.417,272.097,104.419z    M250.393,82.714c2.996-2.996,7.856-2.996,10.852,0c2.996,2.996,2.996,7.856,0,10.852c-2.997,2.996-7.856,2.996-10.852,0   C247.396,90.57,247.396,85.711,250.393,82.714z M246.794,108.019c2.995-2.996,7.856-2.996,10.852,0   c2.995,2.996,2.995,7.856,0,10.853c-2.996,2.996-7.857,2.996-10.852,0C243.797,115.874,243.797,111.016,246.794,108.019z    M230.761,120.89c-2.997,2.996-7.856,2.996-10.852,0c-2.997-2.996-2.997-7.856,0-10.853c2.996-2.996,7.856-2.996,10.852,0   C233.757,113.034,233.757,117.893,230.761,120.89z M241.613,131.742c2.997-2.997,7.856-2.997,10.852,0   c2.996,2.996,2.996,7.856,0,10.852c-2.996,2.997-7.856,2.997-10.852,0C238.617,139.598,238.616,134.74,241.613,131.742z    M330.025,191.676c-10.147,10.146-23.637,15.733-37.986,15.733c-14.348,0-27.837-5.586-37.984-15.733   c-6.504-6.504-11.251-14.613-13.727-23.452c-0.96-3.427,0.563-7.066,3.679-8.787c3.116-1.721,7.005-1.075,9.396,1.563   c0.36,0.396,0.729,0.788,1.112,1.17c6.145,6.145,14.314,9.528,23.003,9.528c8.687,0,16.858-3.383,23.002-9.527   c12.682-12.683,12.682-33.319-0.001-46.002c-0.385-0.386-0.781-0.758-1.18-1.122c-2.632-2.392-3.274-6.282-1.55-9.394   c1.722-3.112,5.36-4.632,8.784-3.673c8.836,2.476,16.947,7.223,23.452,13.728C350.969,136.652,350.968,170.732,330.025,191.676z"/>
	<rect x="51.562" y="58.275" style="fill:#259245;" width="35.812" height="291.612"/>
</g>
<path style="fill:#ED1F34;" d="M179.462,58.273h-76.74v291.61h76.74L179.462,58.273L179.462,58.273z M125.743,86.777h30.696  c4.239,0,7.674,3.435,7.674,7.674s-3.435,7.674-7.674,7.674h-30.696c-4.239,0-7.674-3.435-7.674-7.674  S121.505,86.777,125.743,86.777z M156.439,321.381h-30.696c-4.239,0-7.674-3.436-7.674-7.674c0-4.238,3.435-7.674,7.674-7.674  h30.696c4.239,0,7.674,3.436,7.674,7.674C164.113,317.945,160.678,321.381,156.439,321.381z M156.439,277.529h-30.696  c-4.239,0-7.674-3.436-7.674-7.674c0-4.239,3.435-7.674,7.674-7.674h30.696c4.239,0,7.674,3.436,7.674,7.674  C164.113,274.094,160.678,277.529,156.439,277.529z M156.439,233.678h-30.696c-4.239,0-7.674-3.435-7.674-7.674  c0-4.239,3.435-7.674,7.674-7.674h30.696c4.239,0,7.674,3.435,7.674,7.674C164.113,230.243,160.678,233.678,156.439,233.678z   M156.439,189.827h-30.696c-4.239,0-7.674-3.436-7.674-7.674c0-4.238,3.435-7.674,7.674-7.674h30.696  c4.239,0,7.674,3.436,7.674,7.674C164.113,186.391,160.678,189.827,156.439,189.827z M156.439,145.976h-30.696  c-4.239,0-7.674-3.436-7.674-7.674c0-4.239,3.435-7.674,7.674-7.674h30.696c4.239,0,7.674,3.436,7.674,7.674  S160.678,145.976,156.439,145.976z"/>
<path style="fill:#FFFFFF;" d="M325.121,134.243c1.42,13.846-3.163,28.195-13.747,38.781c-9.044,9.043-21.066,14.023-33.854,14.023  c-1.649,0-3.285-0.083-4.902-0.246c5.825,3.431,12.484,5.261,19.422,5.261c10.249,0,19.886-3.992,27.132-11.238  C331.78,168.216,333.764,148.947,325.121,134.243z"/>
<path d="M306.574,101.98c-3.425-0.959-7.061,0.561-8.784,3.673c-1.723,3.112-1.082,7,1.55,9.394c0.399,0.364,0.795,0.737,1.18,1.122  c12.683,12.683,12.683,33.319,0.001,46.002c-6.144,6.143-14.314,9.527-23.002,9.527c-8.688,0-16.858-3.383-23.003-9.528  c-0.383-0.383-0.753-0.774-1.112-1.17c-2.391-2.638-6.279-3.284-9.396-1.563c-3.116,1.721-4.638,5.36-3.679,8.787  c2.476,8.837,7.222,16.948,13.727,23.452c10.147,10.147,23.636,15.733,37.984,15.733c14.349,0,27.839-5.588,37.986-15.733  c20.943-20.944,20.944-55.023,0-75.967C323.52,109.204,315.411,104.456,306.574,101.98z M272.617,186.801  c1.617,0.163,3.254,0.246,4.902,0.246c12.788,0,24.81-4.979,33.854-14.023c10.584-10.585,15.168-24.935,13.747-38.781  c8.642,14.703,6.659,33.973-5.95,46.58c-7.247,7.247-16.883,11.238-27.132,11.238C285.101,192.062,278.442,190.232,272.617,186.801z  "/>
<path d="M504.326,42.925H473.63c-4.239,0-7.674,3.436-7.674,7.674c0,4.239,3.435,7.674,7.674,7.674h23.022v291.61H194.809V58.273  h248.126c4.239,0,7.674-3.436,7.674-7.674s-3.435-7.674-7.674-7.674H43.888c-4.239,0-7.674,3.436-7.674,7.674v306.959  c0,4.239,3.435,7.674,7.674,7.674h460.438c4.239,0,7.674-3.436,7.674-7.674V50.599C512,46.361,508.565,42.925,504.326,42.925z   M51.562,58.273h35.812v291.61H51.562V58.273z M102.722,58.273h76.74v291.61h-76.74V58.273z"/>
<path style="fill:#F2A643;" d="M156.439,306.032h-30.696c-4.239,0-7.674,3.436-7.674,7.674c0,4.239,3.435,7.674,7.674,7.674h30.696  c4.239,0,7.674-3.436,7.674-7.674C164.113,309.468,160.678,306.032,156.439,306.032z"/>
<g>
	<path style="fill:#259245;" d="M156.439,262.181h-30.696c-4.239,0-7.674,3.436-7.674,7.674s3.435,7.674,7.674,7.674h30.696   c4.239,0,7.674-3.436,7.674-7.674S160.678,262.181,156.439,262.181z"/>
	<path style="fill:#259245;" d="M156.439,218.33h-30.696c-4.239,0-7.674,3.435-7.674,7.674c0,4.239,3.435,7.674,7.674,7.674h30.696   c4.239,0,7.674-3.435,7.674-7.674C164.113,221.765,160.678,218.33,156.439,218.33z"/>
	<path style="fill:#259245;" d="M156.439,174.479h-30.696c-4.239,0-7.674,3.436-7.674,7.674c0,4.238,3.435,7.674,7.674,7.674h30.696   c4.239,0,7.674-3.436,7.674-7.674C164.113,177.915,160.678,174.479,156.439,174.479z"/>
	<path style="fill:#259245;" d="M156.439,130.628h-30.696c-4.239,0-7.674,3.436-7.674,7.674c0,4.238,3.435,7.674,7.674,7.674h30.696   c4.239,0,7.674-3.436,7.674-7.674C164.113,134.063,160.678,130.628,156.439,130.628z"/>
	<path style="fill:#259245;" d="M125.743,102.124h30.696c4.239,0,7.674-3.435,7.674-7.674s-3.435-7.674-7.674-7.674h-30.696   c-4.239,0-7.674,3.435-7.674,7.674S121.505,102.124,125.743,102.124z"/>
</g>
<g>
	<circle style="fill:#FFFFFF;" cx="277.525" cy="109.847" r="7.674"/>
	<circle style="fill:#FFFFFF;" cx="247.043" cy="137.164" r="7.674"/>
	<circle style="fill:#FFFFFF;" cx="255.814" cy="88.136" r="7.674"/>
	<circle style="fill:#FFFFFF;" cx="225.332" cy="115.464" r="7.674"/>
	<circle style="fill:#FFFFFF;" cx="252.225" cy="113.447" r="7.674"/>
</g>
<path style="fill:#2E3033;" d="M20.97,482.004c-6.429,0-11.661-5.232-11.661-11.661V41.55c0-6.371,5.183-11.554,11.554-11.554h1.524  c6.431,0,11.661,5.232,11.661,11.661v428.685c0,6.431-5.232,11.661-11.661,11.661H20.97V482.004z"/>
<path d="M22.386,20.687h-1.524C9.359,20.687,0,30.046,0,41.55v428.793c0,11.563,9.407,20.97,20.97,20.97h1.415  c11.564,0,20.97-9.407,20.97-20.97V41.657C43.357,30.094,33.949,20.687,22.386,20.687z M27.841,470.343  c0,3.008-2.447,5.455-5.455,5.455h-1.415c-3.008,0-5.455-2.447-5.455-5.455V41.55c0-2.949,2.399-5.348,5.348-5.348h1.524  c3.008,0,5.455,2.447,5.455,5.455v428.686H27.841z"/>
<g>
</g>
<g>
</g>
<g>
</g>
<g>
</g>
<g>
</g>
<g>
</g>
<g>
</g>
<g>
</g>
<g>
</g>
<g>
</g>
<g>
</g>
<g>
</g>
<g>
</g>
<g>
</g>
<g>
</g>
</svg>
