<?xml version="1.0" encoding="iso-8859-1"?>
<!-- Generator: Adobe Illustrator 19.0.0, SVG Export Plug-In . SVG Version: 6.00 Build 0)  -->
<svg xmlns="http://www.w3.org/2000/svg" xmlns:xlink="http://www.w3.org/1999/xlink" version="1.1" id="Layer_1" x="0px" y="0px" viewBox="0 0 511.999 511.999" style="enable-background:new 0 0 511.999 511.999;" xml:space="preserve">
<path style="fill:#ED1F34;" d="M442.793,57.873H50.619v292.209H496.62V57.873h-23.069c-4.247,0-7.689-3.443-7.689-7.689h-15.38  C450.482,54.43,447.039,57.873,442.793,57.873z M290.799,262.368c-20.383,32.774-55.552,52.34-94.077,52.34  c-61.058,0-110.732-49.674-110.732-110.731c0-61.058,49.674-110.732,110.732-110.732c38.525,0,73.695,19.566,94.077,52.34  c2.055,3.304,1.317,7.624-1.717,10.06c-3.036,2.435-7.412,2.218-10.192-0.504c-12.859-12.594-29.842-19.529-47.82-19.529  c-32.313,0-60.476,22.934-66.965,54.533c-0.828,4.032-4.675,6.661-8.695,6.044c-0.26,2.56-0.394,5.158-0.394,7.788  c0,2.629,0.134,5.227,0.394,7.788c4.024-0.617,7.868,2.013,8.695,6.045c6.489,31.598,34.652,54.532,66.965,54.532  c17.978,0,34.96-6.936,47.82-19.529c2.78-2.724,7.156-2.939,10.192-0.505C292.118,254.744,292.856,259.064,290.799,262.368z   M383.09,226.715c1.736,2.671,1.647,6.136-0.225,8.712c-1.873,2.578-5.143,3.733-8.217,2.907l-26.196-7.039l-17.055,21.093  c-1.486,1.838-3.7,2.855-5.981,2.855c-0.793,0-1.594-0.123-2.376-0.377c-3.028-0.985-5.139-3.735-5.303-6.916l-1.399-27.089  l-25.329-9.701c-2.976-1.14-4.94-3.995-4.94-7.181c0-3.186,1.964-6.042,4.94-7.181l25.329-9.702l1.399-27.089  c0.165-3.181,2.274-5.932,5.303-6.916c3.032-0.986,6.353,0.001,8.357,2.478l17.055,21.093l26.196-7.039  c3.075-0.827,6.344,0.329,8.217,2.906c1.872,2.578,1.961,6.042,0.225,8.712l-14.791,22.738L383.09,226.715z"/>
<path d="M504.311,42.493h-30.758c-4.247,0-7.689,3.443-7.689,7.689s3.443,7.689,7.689,7.689h23.069v292.209H50.619V57.873h392.174  c4.247,0,7.689-3.443,7.689-7.689s-3.443-7.69-7.689-7.69H42.928c-4.246,0-7.689,3.443-7.689,7.689V357.77  c0,4.247,3.443,7.689,7.689,7.689H504.31c4.247,0,7.689-3.443,7.689-7.689V50.183C512,45.936,508.557,42.493,504.311,42.493z"/>
<g>
	<path style="fill:#FFFFFF;" d="M149.04,187.051c7.951-38.717,42.45-66.818,82.03-66.818c4.473,0,8.897,0.35,13.237,1.037   c-14.202-8.182-30.512-12.646-47.585-12.646c-52.577,0-95.352,42.775-95.352,95.352s42.775,95.352,95.352,95.352   c17.073,0,33.383-4.465,47.585-12.647c-4.341,0.688-8.764,1.039-13.237,1.039c-39.581,0-74.079-28.101-82.03-66.818   c-0.855-4.16,1.825-8.225,5.985-9.079c0.129-0.026,0.257-0.039,0.385-0.059c-0.26-2.561-0.394-5.159-0.394-7.788   c0-2.629,0.134-5.228,0.394-7.788c-0.129-0.021-0.256-0.032-0.385-0.059C150.865,195.276,148.185,191.211,149.04,187.051z"/>
	<path style="fill:#FFFFFF;" d="M339.637,190.219l-7.576-9.37l-0.622,12.034c-0.156,3.038-2.088,5.697-4.928,6.785l-11.253,4.31   l11.253,4.31c2.84,1.088,4.772,3.747,4.928,6.785l0.622,12.034l7.576-9.37c1.912-2.364,5.04-3.379,7.975-2.591l11.638,3.127   l-6.571-10.101c-1.658-2.549-1.658-5.836,0-8.385l6.571-10.101l-11.638,3.127C344.68,193.597,341.55,192.583,339.637,190.219z"/>
</g>
<path d="M382.865,172.526c-1.873-2.578-5.142-3.733-8.217-2.906l-26.196,7.039l-17.055-21.093c-2.002-2.477-5.324-3.463-8.357-2.478  c-3.028,0.985-5.139,3.735-5.303,6.916l-1.399,27.089l-25.329,9.702c-2.976,1.139-4.94,3.995-4.94,7.181  c0,3.185,1.964,6.041,4.94,7.181l25.329,9.701l1.399,27.089c0.165,3.181,2.274,5.933,5.303,6.916  c0.781,0.254,1.583,0.377,2.376,0.377c2.281,0,4.494-1.018,5.981-2.855l17.055-21.093l26.196,7.039  c3.074,0.826,6.345-0.33,8.217-2.907c1.872-2.577,1.961-6.042,0.225-8.712l-14.791-22.737l14.791-22.738  C384.826,178.568,384.737,175.104,382.865,172.526z M352.68,199.784c-1.658,2.549-1.658,5.836,0,8.385l6.571,10.101l-11.638-3.127  c-2.935-0.788-6.063,0.227-7.975,2.591l-7.576,9.37l-0.622-12.034c-0.156-3.038-2.088-5.696-4.928-6.785l-11.253-4.31l11.253-4.31  c2.84-1.088,4.772-3.748,4.928-6.785l0.622-12.034l7.576,9.37c1.912,2.364,5.042,3.378,7.975,2.591l11.638-3.127L352.68,199.784z"/>
<path d="M289.082,252.309c-3.037-2.436-7.413-2.22-10.192,0.505c-12.859,12.593-29.842,19.529-47.82,19.529  c-32.313,0-60.476-22.934-66.965-54.532c-0.827-4.032-4.67-6.661-8.695-6.044c-0.129,0.02-0.256,0.033-0.385,0.059  c-4.16,0.855-6.84,4.919-5.985,9.079c7.951,38.717,42.45,66.818,82.03,66.818c4.473,0,8.896-0.35,13.237-1.039  c-14.202,8.182-30.512,12.647-47.585,12.647c-52.577,0-95.352-42.775-95.352-95.352s42.775-95.352,95.352-95.352  c17.073,0,33.383,4.465,47.585,12.646c-4.341-0.688-8.764-1.037-13.237-1.037c-39.581,0-74.079,28.101-82.03,66.818  c-0.855,4.16,1.825,8.225,5.985,9.079c0.129,0.027,0.257,0.039,0.385,0.059c4.019,0.617,7.867-2.013,8.695-6.045  c6.489-31.599,34.652-54.533,66.965-54.533c17.978,0,34.96,6.935,47.82,19.529c2.781,2.722,7.157,2.938,10.192,0.504  c3.036-2.436,3.774-6.754,1.717-10.06c-20.383-32.774-55.552-52.34-94.077-52.34c-61.058,0-110.732,49.674-110.732,110.732  s49.674,110.731,110.732,110.731c38.525,0,73.695-19.566,94.077-52.34C292.856,259.064,292.118,254.744,289.082,252.309z"/>
<path style="fill:#2E3033;" d="M21.013,482.461c-6.442,0-11.685-5.242-11.685-11.685V41.115c0-6.383,5.194-11.577,11.577-11.577  h1.527c6.444,0,11.685,5.242,11.685,11.685v429.552c0,6.444-5.242,11.685-11.685,11.685h-1.419V482.461z"/>
<path d="M22.432,20.21h-1.527C9.378,20.21,0,29.588,0,41.115v429.661c0,11.587,9.426,21.013,21.013,21.013h1.418  c11.587,0,21.013-9.426,21.013-21.013V41.223C43.444,29.636,34.018,20.21,22.432,20.21z M27.898,470.776  c0,3.014-2.452,5.466-5.466,5.466h-1.418c-3.014,0-5.466-2.452-5.466-5.466V41.115c0-2.955,2.403-5.358,5.358-5.358h1.527  c3.014,0,5.466,2.452,5.466,5.466v429.554H27.898z"/>
<g>
</g>
<g>
</g>
<g>
</g>
<g>
</g>
<g>
</g>
<g>
</g>
<g>
</g>
<g>
</g>
<g>
</g>
<g>
</g>
<g>
</g>
<g>
</g>
<g>
</g>
<g>
</g>
<g>
</g>
</svg>
