<?xml version="1.0" encoding="iso-8859-1"?>
<!-- Generator: Adobe Illustrator 19.0.0, SVG Export Plug-In . SVG Version: 6.00 Build 0)  -->
<svg xmlns="http://www.w3.org/2000/svg" xmlns:xlink="http://www.w3.org/1999/xlink" version="1.1" id="Layer_1" x="0px" y="0px" viewBox="0 0 512 512" style="enable-background:new 0 0 512 512;" xml:space="preserve">
<path style="fill:#ED1F34;" d="M51.562,326.862v23.021h445.091V58.273H51.562v237.893c0,4.238-3.434,7.674-7.674,7.674v15.348  C48.127,319.188,51.562,322.624,51.562,326.862z M274.107,97.155c59.053,0,106.924,47.871,106.924,106.924  S333.16,311.003,274.107,311.003s-106.924-47.871-106.924-106.924S215.054,97.155,274.107,97.155z"/>
<path d="M504.326,42.925H43.888c-4.239,0-7.674,3.436-7.674,7.674v245.567c0,4.238,3.435,7.674,7.674,7.674  c4.24,0,7.674-3.436,7.674-7.674V58.273h445.091v291.61H51.562v-23.021c0-4.239-3.434-7.674-7.674-7.674  c-4.239,0-7.674,3.436-7.674,7.674v30.696c0,4.238,3.435,7.674,7.674,7.674h460.438c4.239,0,7.674-3.436,7.674-7.674V50.599  C512,46.361,508.565,42.925,504.326,42.925z"/>
<path style="fill:#FFFFFF;" d="M274.107,311.002c59.053,0,106.924-47.871,106.924-106.924S333.16,97.155,274.107,97.155  s-106.924,47.871-106.924,106.924S215.054,311.002,274.107,311.002z M351.412,177.064c3.073-0.823,6.332,0.328,8.2,2.9  c1.87,2.571,1.96,6.03,0.225,8.695l-10.028,15.42l9.752,14.994c0.967,1.284,1.538,2.88,1.538,4.61c0,4.191-3.361,7.598-7.534,7.673  c-0.726,0.014-1.44-0.069-2.152-0.262l-17.76-4.775l-11.564,14.303c-1.483,1.835-3.692,2.85-5.968,2.85  c-0.792,0-1.59-0.123-2.371-0.376c-3.023-0.983-5.128-3.728-5.293-6.902l-0.947-18.37l-17.174-6.578  c-2.969-1.138-4.93-3.987-4.93-7.166c0-3.18,1.961-6.029,4.93-7.167l17.174-6.578l0.947-18.37c0.164-3.174,2.269-5.921,5.293-6.902  c3.023-0.98,6.341,0.002,8.339,2.474l11.564,14.303L351.412,177.064z M274.107,117.107c23.97,0,47.076,10.03,63.478,27.538  c1.476,1.398,2.396,3.377,2.396,5.571c0,4.186-3.35,7.589-7.516,7.673c-1.26,0.038-2.564-0.255-3.757-0.883  c-7.693-4.054-16.019-6.11-24.748-6.11c-29.326,0-53.184,23.857-53.184,53.183c0,29.325,23.858,53.183,53.184,53.183  c8.728,0,17.054-2.055,24.748-6.11c3.308-1.743,7.39-0.849,9.667,2.119c2.276,2.967,2.082,7.141-0.458,9.885  c-16.421,17.728-39.678,27.895-63.81,27.895c-47.956,0-86.972-39.015-86.972-86.971  C187.135,156.122,226.151,117.107,274.107,117.107z"/>
<path style="fill:#ED1F34;" d="M274.107,275.702c7.568,0,15.033-1.214,22.123-3.527c-34.161-3.852-60.799-32.922-60.799-68.097  s26.637-64.245,60.799-68.097c-7.089-2.312-14.553-3.526-22.123-3.526c-39.493,0-71.624,32.13-71.624,71.624  S234.614,275.702,274.107,275.702z"/>
<path d="M274.107,291.05c24.131,0,47.388-10.168,63.81-27.895c2.54-2.743,2.735-6.919,0.458-9.885  c-2.277-2.969-6.358-3.861-9.667-2.119c-7.693,4.055-16.019,6.11-24.748,6.11c-29.326,0-53.184-23.857-53.184-53.183  s23.858-53.183,53.184-53.183c8.728,0,17.054,2.056,24.748,6.11c1.193,0.628,2.497,0.922,3.757,0.883  c4.164-0.084,7.516-3.487,7.516-7.673c0-2.194-0.921-4.173-2.396-5.571c-16.402-17.508-39.508-27.538-63.478-27.538  c-47.956,0-86.972,39.015-86.972,86.972C187.135,252.035,226.151,291.05,274.107,291.05z M274.107,132.455  c7.568,0,15.033,1.214,22.123,3.526c-34.161,3.853-60.799,32.922-60.799,68.097s26.637,64.245,60.799,68.097  c-7.089,2.312-14.553,3.527-22.123,3.527c-39.493,0-71.624-32.13-71.624-71.624S234.614,132.455,274.107,132.455z"/>
<path style="fill:#ED1F34;" d="M336.05,211.071l-1.828-2.808c-1.655-2.543-1.655-5.823,0-8.367l1.828-2.808l-3.233,0.869  c-2.931,0.786-6.052-0.225-7.959-2.586l-2.104-2.601l-0.173,3.342c-0.156,3.031-2.085,5.685-4.919,6.77l-3.127,1.199l3.127,1.198  c2.834,1.085,4.762,3.739,4.919,6.771l0.173,3.342l2.104-2.602c1.907-2.36,5.028-3.375,7.959-2.586L336.05,211.071z"/>
<path d="M322.089,167.535c-1.998-2.472-5.316-3.454-8.339-2.474c-3.023,0.983-5.128,3.728-5.293,6.902l-0.947,18.37l-17.174,6.578  c-2.969,1.138-4.93,3.987-4.93,7.167c0,3.179,1.961,6.028,4.93,7.166l17.174,6.578l0.947,18.37c0.164,3.174,2.269,5.921,5.293,6.902  c0.781,0.253,1.578,0.377,2.371,0.377c2.276,0,4.485-1.015,5.968-2.85l11.564-14.303l17.76,4.775  c0.713,0.192,1.426,0.276,2.152,0.262c4.174-0.074,7.534-3.482,7.534-7.673c0-1.73-0.572-3.326-1.538-4.61l-9.752-14.994  l10.028-15.42c1.735-2.664,1.645-6.123-0.225-8.695c-1.868-2.572-5.127-3.724-8.2-2.9l-17.76,4.775L322.089,167.535z   M324.856,212.788l-2.104,2.602l-0.173-3.342c-0.156-3.032-2.085-5.686-4.919-6.771l-3.127-1.198l3.127-1.199  c2.834-1.085,4.762-3.739,4.919-6.77l0.173-3.342l2.104,2.601c1.908,2.361,5.028,3.372,7.959,2.586l3.233-0.869l-1.828,2.808  c-1.655,2.543-1.655,5.823,0,8.367l1.828,2.808l-3.233-0.869C329.885,209.413,326.764,210.427,324.856,212.788z"/>
<path style="fill:#2E3033;" d="M20.97,482.004c-6.429,0-11.661-5.232-11.661-11.661V41.55c0-6.371,5.183-11.554,11.554-11.554h1.524  c6.431,0,11.661,5.232,11.661,11.661v428.685c0,6.431-5.232,11.661-11.661,11.661H20.97V482.004z"/>
<path d="M22.386,20.687h-1.524C9.359,20.687,0,30.046,0,41.55v428.793c0,11.563,9.407,20.97,20.97,20.97h1.415  c11.564,0,20.97-9.407,20.97-20.97V41.657C43.357,30.094,33.949,20.687,22.386,20.687z M27.841,470.343  c0,3.008-2.447,5.455-5.455,5.455h-1.415c-3.008,0-5.455-2.447-5.455-5.455V41.55c0-2.949,2.399-5.348,5.348-5.348h1.524  c3.008,0,5.455,2.447,5.455,5.455v428.686H27.841z"/>
<g>
</g>
<g>
</g>
<g>
</g>
<g>
</g>
<g>
</g>
<g>
</g>
<g>
</g>
<g>
</g>
<g>
</g>
<g>
</g>
<g>
</g>
<g>
</g>
<g>
</g>
<g>
</g>
<g>
</g>
</svg>
