<?xml version="1.0" encoding="iso-8859-1"?>
<!-- Generator: Adobe Illustrator 19.0.0, SVG Export Plug-In . SVG Version: 6.00 Build 0)  -->
<svg xmlns="http://www.w3.org/2000/svg" xmlns:xlink="http://www.w3.org/1999/xlink" version="1.1" id="Layer_1" x="0px" y="0px" viewBox="0 0 512 512" style="enable-background:new 0 0 512 512;" xml:space="preserve">
<g>
	<path style="fill:#ED1F34;" d="M105.269,349.891h235.683L51.551,58.331v291.562h23.022c4.239,0,7.674,3.435,7.674,7.674h15.349   C97.595,353.328,101.032,349.891,105.269,349.891z"/>
	<polygon style="fill:#ED1F34;" points="496.651,349.835 496.651,58.274 207.248,58.274  "/>
</g>
<g>
	<polygon style="fill:#FFFFFF;" points="364.932,349.891 75.471,58.274 51.551,58.274 51.551,58.331 340.954,349.891  "/>
	<polygon style="fill:#FFFFFF;" points="183.269,58.274 472.731,349.891 496.651,349.891 496.651,349.835 207.248,58.274  "/>
</g>
<polygon style="fill:#333333;" points="451.106,349.891 161.644,58.274 97.096,58.274 386.559,349.891 "/>
<path d="M504.325,42.925H43.876c-4.238,0-7.674,3.435-7.674,7.674v306.966c0,4.239,3.436,7.675,7.674,7.675h30.696  c4.239,0,7.674-3.436,7.674-7.675c0-4.239-3.436-7.674-7.674-7.674H51.551V58.331v-0.057h23.92l289.462,291.619h-23.979H105.269  c-4.239,0-7.674,3.435-7.674,7.674c0,4.239,3.436,7.675,7.674,7.675h399.056c4.24,0,7.675-3.436,7.675-7.675V50.599  C512,46.36,508.565,42.925,504.325,42.925z M496.651,349.835v0.058h-23.92L183.269,58.274h23.98h289.403v291.561H496.651z   M161.644,58.274l289.462,291.619h-64.547L97.096,58.274H161.644z"/>
<path style="fill:#2E3033;" d="M20.97,482.004c-6.429,0-11.661-5.232-11.661-11.661V41.55c0-6.371,5.183-11.554,11.554-11.554h1.524  c6.431,0,11.661,5.232,11.661,11.661v428.685c0,6.431-5.232,11.661-11.661,11.661H20.97V482.004z"/>
<path d="M22.386,20.687h-1.524C9.359,20.687,0,30.046,0,41.55v428.793c0,11.563,9.407,20.97,20.97,20.97h1.415  c11.564,0,20.97-9.407,20.97-20.97V41.657C43.357,30.094,33.949,20.687,22.386,20.687z M27.841,470.343  c0,3.008-2.447,5.455-5.455,5.455h-1.415c-3.008,0-5.455-2.447-5.455-5.455V41.55c0-2.949,2.399-5.348,5.348-5.348h1.524  c3.008,0,5.455,2.447,5.455,5.455v428.686H27.841z"/>
<g>
</g>
<g>
</g>
<g>
</g>
<g>
</g>
<g>
</g>
<g>
</g>
<g>
</g>
<g>
</g>
<g>
</g>
<g>
</g>
<g>
</g>
<g>
</g>
<g>
</g>
<g>
</g>
<g>
</g>
</svg>
