<?xml version="1.0" encoding="iso-8859-1"?>
<!-- Generator: Adobe Illustrator 19.0.0, SVG Export Plug-In . SVG Version: 6.00 Build 0)  -->
<svg xmlns="http://www.w3.org/2000/svg" xmlns:xlink="http://www.w3.org/1999/xlink" version="1.1" id="Layer_1" x="0px" y="0px" viewBox="0 0 512.001 512.001" style="enable-background:new 0 0 512.001 512.001;" xml:space="preserve">
<path style="fill:#ED1F34;" d="M496.652,289.671V58.273H251.341v145.805c0,4.239-3.435,7.674-7.674,7.674H51.562v138.131h445.091  v-23.021c0-4.238,3.434-7.674,7.674-7.674v-21.844C500.086,297.344,496.652,293.908,496.652,289.671z"/>
<path style="fill:#FFFFFF;" d="M235.994,196.405V58.273H51.562v138.131H235.994z M107.966,119.665h28.137V91.528  c0-4.239,3.435-7.674,7.675-7.674c4.239,0,7.674,3.436,7.674,7.674v28.137h28.137c4.24,0,7.675,3.436,7.675,7.674  c0,4.238-3.435,7.674-7.675,7.674h-28.137v28.137c0,4.239-3.435,7.674-7.674,7.674c-4.24,0-7.675-3.436-7.675-7.674v-28.136h-28.137  c-4.239,0-7.675-3.436-7.675-7.674C100.291,123.102,103.727,119.665,107.966,119.665z"/>
<path style="fill:#ED1F34;" d="M107.966,135.013h28.137v28.137c0,4.239,3.435,7.674,7.675,7.674c4.239,0,7.674-3.436,7.674-7.674  v-28.137h28.137c4.24,0,7.675-3.436,7.675-7.674c0-4.238-3.435-7.674-7.675-7.674h-28.137V91.528c0-4.239-3.435-7.674-7.674-7.674  c-4.24,0-7.675,3.436-7.675,7.674v28.137h-28.137c-4.239,0-7.675,3.436-7.675,7.674  C100.291,131.576,103.727,135.013,107.966,135.013z"/>
<path d="M496.652,326.862v23.021H51.562v-138.13h192.107c4.239,0,7.674-3.435,7.674-7.674V58.273h245.311v231.396  c0,4.239,3.434,7.674,7.674,7.674c4.239,0,7.674-3.436,7.674-7.674V50.6c0-4.238-3.435-7.674-7.674-7.674H43.888  c-4.239,0-7.674,3.436-7.674,7.674v306.959c0,4.239,3.435,7.674,7.674,7.674h460.438c4.239,0,7.674-3.436,7.674-7.674v-30.695  c0-4.238-3.435-7.674-7.674-7.674C500.086,319.189,496.652,322.625,496.652,326.862z M235.994,58.273v138.131H51.562V58.273H235.994  z"/>
<path style="fill:#2E3033;" d="M20.97,482.005c-6.429,0-11.661-5.232-11.661-11.661V41.55c0-6.371,5.183-11.554,11.554-11.554h1.524  c6.431,0,11.661,5.232,11.661,11.661v428.685c0,6.431-5.232,11.661-11.661,11.661H20.97V482.005z"/>
<path d="M22.386,20.687h-1.524C9.359,20.687,0,30.046,0,41.55v428.793c0,11.563,9.407,20.97,20.97,20.97h1.415  c11.564,0,20.97-9.407,20.97-20.97V41.658C43.357,30.095,33.949,20.687,22.386,20.687z M27.841,470.343  c0,3.008-2.447,5.455-5.455,5.455h-1.415c-3.008,0-5.455-2.447-5.455-5.455V41.55c0-2.949,2.399-5.348,5.348-5.348h1.524  c3.008,0,5.455,2.447,5.455,5.455v428.686H27.841z"/>
<g>
</g>
<g>
</g>
<g>
</g>
<g>
</g>
<g>
</g>
<g>
</g>
<g>
</g>
<g>
</g>
<g>
</g>
<g>
</g>
<g>
</g>
<g>
</g>
<g>
</g>
<g>
</g>
<g>
</g>
</svg>
