<?xml version="1.0" encoding="iso-8859-1"?>
<!-- Generator: Adobe Illustrator 19.0.0, SVG Export Plug-In . SVG Version: 6.00 Build 0)  -->
<svg xmlns="http://www.w3.org/2000/svg" xmlns:xlink="http://www.w3.org/1999/xlink" version="1.1" id="Layer_1" x="0px" y="0px" viewBox="0 0 512 512" style="enable-background:new 0 0 512 512;" xml:space="preserve">
<path style="fill:#103B9B;" d="M496.237,108.108V52.941H39.132v299.484h457.106V139.633c0-4.353,3.528-7.881,7.881-7.881v-15.763  C499.765,115.989,496.237,112.462,496.237,108.108z M190.259,258.025L446.636,75.222c2.798-1.994,6.56-1.948,9.308,0.116  c2.747,2.062,3.841,5.665,2.706,8.907c-11.5,32.833-17.33,67.244-17.33,102.277c0,35.549,5.998,70.436,17.83,103.69  c0.858,2.412,0.491,5.093-0.987,7.187c-1.477,2.092-3.877,3.336-6.439,3.336H203.939c-12.983,0-23.546-10.562-23.546-23.545  C180.393,269.624,184.081,262.461,190.259,258.025z M93.905,177.396c-6.71,0-12.15-5.44-12.15-12.15s5.44-12.15,12.15-12.15  s12.15,5.44,12.15,12.15S100.615,177.396,93.905,177.396z M130.355,262.445c-6.71,0-12.15-5.44-12.15-12.15  c0-6.709,5.44-12.15,12.15-12.15c6.71,0,12.15,5.44,12.15,12.15C142.505,257.005,137.065,262.445,130.355,262.445z M130.355,116.647  c-6.71,0-12.15-5.439-12.15-12.15c0-6.709,5.44-12.15,12.15-12.15c6.71,0,12.15,5.44,12.15,12.15  C142.505,111.207,137.065,116.647,130.355,116.647z M166.805,147.02c-6.71,0-12.15-5.44-12.15-12.15c0-6.71,5.44-12.15,12.15-12.15  s12.15,5.44,12.15,12.15C178.955,141.581,173.515,147.02,166.805,147.02z M451.723,331.607H188.275  c-4.353,0-7.881-3.528-7.881-7.881c0-4.354,3.529-7.882,7.881-7.882h263.448c4.353,0,7.881,3.528,7.881,7.882  C459.604,328.078,456.076,331.607,451.723,331.607z"/>
<g>
	<circle style="fill:#FFFFFF;" cx="130.358" cy="104.493" r="12.15"/>
	<circle style="fill:#FFFFFF;" cx="130.358" cy="250.296" r="12.15"/>
	<circle style="fill:#FFFFFF;" cx="166.804" cy="134.873" r="12.15"/>
	<circle style="fill:#FFFFFF;" cx="93.902" cy="165.242" r="12.15"/>
</g>
<path style="fill:#FFE000;" d="M203.939,284.973h236.816c-10.091-31.763-15.2-64.825-15.2-98.452  c0-28.864,3.768-57.328,11.221-84.912L199.43,270.845c-2.073,1.488-3.275,3.807-3.275,6.346  C196.156,281.481,199.647,284.973,203.939,284.973z"/>
<path d="M203.939,300.734h247.785c2.561,0,4.963-1.245,6.439-3.336c1.478-2.094,1.844-4.774,0.987-7.187  c-11.831-33.255-17.83-68.141-17.83-103.69c0-35.033,5.831-69.444,17.33-102.277c1.136-3.242,0.041-6.844-2.706-8.907  c-2.748-2.064-6.51-2.11-9.308-0.116L190.259,258.025c-6.177,4.436-9.866,11.6-9.866,19.165  C180.393,290.172,190.956,300.734,203.939,300.734z M199.43,270.845L436.779,101.61c-7.455,27.584-11.221,56.048-11.221,84.912  c0,33.625,5.108,66.687,15.2,98.452H203.941c-4.291,0-7.783-3.492-7.783-7.783C196.156,274.652,197.357,272.333,199.43,270.845z"/>
<path style="fill:#FFE000;" d="M451.723,315.845H188.275c-4.353,0-7.881,3.528-7.881,7.882c0,4.353,3.529,7.881,7.881,7.881h263.448  c4.353,0,7.881-3.528,7.881-7.881C459.604,319.372,456.076,315.845,451.723,315.845z"/>
<path d="M496.237,139.633v212.791H39.132V52.941h457.106v55.169c0,4.353,3.528,7.881,7.881,7.881c4.354,0,7.882-3.528,7.882-7.881  V45.06c0-4.354-3.528-7.882-7.882-7.882H31.25c-4.352,0-7.881,3.528-7.881,7.882v315.244c0,4.353,3.529,7.882,7.881,7.882h472.868  c4.354,0,7.882-3.529,7.882-7.882V139.633c0-4.353-3.528-7.881-7.882-7.881C499.765,131.752,496.237,135.281,496.237,139.633z"/>
<path style="fill:#2E3033;" d="M21.536,488.1c-6.603,0-11.976-5.373-11.976-11.976V35.766c0-6.542,5.323-11.865,11.865-11.865h1.565  c6.604,0,11.976,5.373,11.976,11.976v440.247c0,6.604-5.373,11.976-11.976,11.976h-1.454V488.1z"/>
<path d="M22.99,14.34h-1.565C9.611,14.34,0,23.951,0,35.766v440.358C0,488,9.661,497.66,21.536,497.66h1.453  c11.876,0,21.536-9.661,21.536-21.536V35.876C44.526,24.001,34.865,14.34,22.99,14.34z M28.592,476.124  c0,3.089-2.513,5.602-5.602,5.602h-1.453c-3.089,0-5.602-2.513-5.602-5.602V35.766c0-3.028,2.463-5.492,5.492-5.492h1.565  c3.089,0,5.602,2.513,5.602,5.602v440.248H28.592z"/>
<g>
</g>
<g>
</g>
<g>
</g>
<g>
</g>
<g>
</g>
<g>
</g>
<g>
</g>
<g>
</g>
<g>
</g>
<g>
</g>
<g>
</g>
<g>
</g>
<g>
</g>
<g>
</g>
<g>
</g>
</svg>
