<?xml version="1.0" encoding="iso-8859-1"?>
<!-- Generator: Adobe Illustrator 19.0.0, SVG Export Plug-In . SVG Version: 6.00 Build 0)  -->
<svg xmlns="http://www.w3.org/2000/svg" xmlns:xlink="http://www.w3.org/1999/xlink" version="1.1" id="Layer_1" x="0px" y="0px" viewBox="0 0 511.999 511.999" style="enable-background:new 0 0 511.999 511.999;" xml:space="preserve">
<g>
	<path style="fill:#FFE000;" d="M105.269,288.498h391.382v-46.045H51.551v46.045h23.022c4.239,0,7.674,3.435,7.674,7.674h15.349   C97.595,291.933,101.032,288.498,105.269,288.498z"/>
	<path style="fill:#FFE000;" d="M442.933,119.666H235.73v46.045h260.921v-46.045h-23.022c-4.239,0-7.674-3.435-7.674-7.675h-15.349   C450.607,116.231,447.17,119.666,442.933,119.666z"/>
</g>
<g>
	<path style="fill:#259245;" d="M105.269,303.846c-4.238,0-7.674-3.435-7.674-7.675H82.248c0,4.24-3.436,7.675-7.674,7.675H51.551   v46.045h445.101v-46.045H105.269z"/>
	<rect x="235.727" y="181.061" style="fill:#259245;" width="260.923" height="46.045"/>
	<path style="fill:#259245;" d="M235.73,104.318h207.203c4.238,0,7.674,3.434,7.674,7.673h15.349c0-4.239,3.436-7.673,7.674-7.673   h23.022V58.273H235.73V104.318z"/>
</g>
<path style="fill:#ED1F34;" d="M51.551,227.104h168.832V58.273H51.551V227.104z M85.181,130.554  c0.983-3.023,3.728-5.129,6.902-5.293l27.034-1.396l9.682-25.279c1.138-2.969,3.987-4.93,7.167-4.93c3.179,0,6.029,1.961,7.167,4.93  l9.681,25.279l27.034,1.396c3.175,0.163,5.921,2.269,6.903,5.293c0.983,3.024-0.001,6.341-2.473,8.339l-21.05,17.02l7.025,26.143  c0.824,3.069-0.329,6.331-2.901,8.2c-1.342,0.974-2.925,1.465-4.511,1.465c-1.454,0-2.91-0.411-4.184-1.24l-22.691-14.76  l-22.692,14.76c-2.666,1.734-6.123,1.645-8.695-0.224c-2.572-1.869-3.726-5.131-2.9-8.2l7.025-26.143l-21.05-17.02  C85.182,136.895,84.199,133.579,85.181,130.554z"/>
<path style="fill:#FFFFFF;" d="M122.237,147.116c2.359,1.908,3.374,5.028,2.586,7.958l-3.122,11.615l10.081-6.557  c1.271-0.829,2.729-1.241,4.184-1.241c1.455,0,2.912,0.413,4.184,1.241l10.081,6.557l-3.122-11.615  c-0.787-2.93,0.227-6.051,2.586-7.958l9.352-7.561l-12.009-0.621c-3.031-0.156-5.685-2.086-6.771-4.92l-4.301-11.23l-4.302,11.23  c-1.085,2.834-3.739,4.763-6.771,4.92l-12.009,0.621L122.237,147.116z"/>
<path d="M87.654,138.892l21.05,17.02l-7.025,26.143c-0.825,3.069,0.328,6.331,2.9,8.2c2.571,1.869,6.03,1.958,8.695,0.224  l22.692-14.76l22.691,14.76c1.274,0.83,2.73,1.24,4.184,1.24c1.586,0,3.169-0.49,4.511-1.465c2.572-1.869,3.726-5.131,2.901-8.2  l-7.025-26.143l21.05-17.02c2.472-1.998,3.456-5.314,2.473-8.339c-0.983-3.023-3.728-5.129-6.903-5.293l-27.034-1.396l-9.681-25.279  c-1.138-2.969-3.987-4.93-7.167-4.93c-3.18,0-6.029,1.961-7.167,4.93l-9.682,25.279l-27.034,1.396  c-3.174,0.163-5.921,2.269-6.902,5.293C84.199,133.579,85.182,136.895,87.654,138.892z M131.665,134.015l4.302-11.23l4.301,11.23  c1.086,2.834,3.74,4.763,6.771,4.92l12.009,0.621l-9.351,7.561c-2.359,1.908-3.373,5.028-2.586,7.958l3.122,11.615l-10.081-6.557  c-1.272-0.829-2.729-1.241-4.184-1.241c-1.456,0-2.913,0.413-4.184,1.241l-10.081,6.557l3.122-11.615  c0.787-2.93-0.227-6.051-2.586-7.958l-9.352-7.561l12.009-0.621C127.926,138.779,130.58,136.85,131.665,134.015z"/>
<path d="M504.326,42.925H43.877c-4.239,0-7.675,3.435-7.675,7.675v306.965c0,4.239,3.436,7.675,7.674,7.675h460.449  c4.239,0,7.674-3.436,7.674-7.675V50.6C512,46.36,508.564,42.925,504.326,42.925z M496.651,104.318h-23.022  c-4.239,0-7.674,3.434-7.674,7.673c0,4.24,3.436,7.675,7.674,7.675h23.022v46.045H235.73v-46.045h207.203  c4.238,0,7.674-3.435,7.674-7.675c0-4.239-3.436-7.673-7.674-7.673H235.73V58.273h260.921V104.318z M235.73,227.104v-46.045h260.921  v46.045H235.73z M220.382,227.104H51.551V58.273h168.832V227.104z M51.551,349.89v-46.045h23.022c4.239,0,7.674-3.435,7.674-7.675  c0-4.239-3.436-7.674-7.674-7.674H51.551v-46.045h445.101v46.045H105.269c-4.238,0-7.674,3.435-7.674,7.674  c0,4.24,3.436,7.675,7.674,7.675h391.382v46.045H51.551z"/>
<path style="fill:#2E3033;" d="M20.97,482.004c-6.429,0-11.661-5.232-11.661-11.661V41.549c0-6.371,5.183-11.554,11.554-11.554  h1.524c6.431,0,11.661,5.232,11.661,11.661v428.685c0,6.431-5.232,11.661-11.661,11.661H20.97V482.004z"/>
<path d="M22.386,20.686h-1.524C9.359,20.686,0,30.045,0,41.549v428.793c0,11.563,9.407,20.97,20.97,20.97h1.415  c11.564,0,20.97-9.407,20.97-20.97V41.657C43.357,30.094,33.949,20.686,22.386,20.686z M27.841,470.342  c0,3.008-2.447,5.455-5.455,5.455h-1.415c-3.008,0-5.455-2.447-5.455-5.455V41.549c0-2.949,2.399-5.348,5.348-5.348h1.524  c3.008,0,5.455,2.447,5.455,5.455v428.686H27.841z"/>
<g>
</g>
<g>
</g>
<g>
</g>
<g>
</g>
<g>
</g>
<g>
</g>
<g>
</g>
<g>
</g>
<g>
</g>
<g>
</g>
<g>
</g>
<g>
</g>
<g>
</g>
<g>
</g>
<g>
</g>
</svg>
