<?xml version="1.0" encoding="iso-8859-1"?>
<!-- Generator: Adobe Illustrator 19.0.0, SVG Export Plug-In . SVG Version: 6.00 Build 0)  -->
<svg xmlns="http://www.w3.org/2000/svg" xmlns:xlink="http://www.w3.org/1999/xlink" version="1.1" id="Layer_1" x="0px" y="0px" viewBox="0 0 511.999 511.999" style="enable-background:new 0 0 511.999 511.999;" xml:space="preserve">
<path style="fill:#FFE000;" d="M496.237,297.256V52.94H39.132v299.484h457.106V328.78c0-4.353,3.529-7.881,7.881-7.881v-15.762  C499.766,305.138,496.237,301.609,496.237,297.256z M480.497,328.785c0,0.061-0.007,0.118-0.008,0.177  c-0.003,0.158-0.011,0.317-0.023,0.475c-0.008,0.106-0.02,0.212-0.033,0.319c-0.018,0.149-0.04,0.294-0.067,0.443  c-0.021,0.114-0.045,0.229-0.07,0.342c-0.03,0.133-0.064,0.262-0.101,0.394c-0.036,0.126-0.074,0.25-0.116,0.374  c-0.039,0.115-0.081,0.229-0.125,0.342c-0.053,0.136-0.109,0.27-0.17,0.4c-0.046,0.1-0.094,0.2-0.143,0.297  c-0.07,0.139-0.146,0.275-0.223,0.408c-0.031,0.053-0.055,0.109-0.088,0.16c-0.025,0.041-0.056,0.078-0.083,0.119  c-0.079,0.123-0.161,0.242-0.248,0.361c-0.072,0.1-0.144,0.2-0.221,0.295c-0.076,0.096-0.156,0.187-0.237,0.278  c-0.093,0.108-0.188,0.215-0.287,0.317c-0.072,0.073-0.148,0.142-0.222,0.214c-0.113,0.106-0.225,0.211-0.343,0.311  c-0.075,0.064-0.154,0.122-0.231,0.183c-0.122,0.095-0.243,0.189-0.37,0.275c-0.09,0.064-0.184,0.119-0.277,0.178  c-0.118,0.073-0.235,0.149-0.355,0.216c-0.114,0.065-0.232,0.12-0.349,0.178c-0.106,0.053-0.21,0.107-0.318,0.154  c-0.133,0.058-0.27,0.11-0.406,0.16c-0.1,0.037-0.199,0.075-0.298,0.11c-0.139,0.046-0.282,0.084-0.424,0.122  c-0.106,0.028-0.212,0.058-0.32,0.082c-0.132,0.03-0.266,0.053-0.399,0.074c-0.126,0.022-0.253,0.044-0.381,0.058  c-0.116,0.014-0.233,0.022-0.351,0.032c-0.152,0.012-0.303,0.021-0.455,0.022c-0.046,0.001-0.091,0.007-0.138,0.007H62.82  c-0.005,0-0.01,0.001-0.015,0.001c-0.018,0-0.035-0.003-0.052-0.003c-0.293-0.002-0.581-0.022-0.866-0.055  c-0.081-0.01-0.159-0.023-0.239-0.036c-0.231-0.034-0.458-0.075-0.682-0.13c-0.081-0.02-0.161-0.039-0.242-0.062  c-0.233-0.064-0.46-0.138-0.683-0.22c-0.064-0.024-0.129-0.046-0.192-0.071c-0.285-0.114-0.561-0.242-0.827-0.387  c-0.028-0.016-0.054-0.034-0.082-0.05c-0.231-0.129-0.453-0.271-0.667-0.421c-0.088-0.063-0.173-0.129-0.259-0.194  c-0.159-0.121-0.312-0.25-0.462-0.382c-0.081-0.071-0.163-0.143-0.241-0.218c-0.212-0.207-0.416-0.422-0.605-0.651  c-0.023-0.03-0.045-0.063-0.068-0.092c-0.176-0.22-0.338-0.45-0.49-0.689c-0.02-0.031-0.045-0.058-0.064-0.09  c-0.031-0.05-0.055-0.104-0.085-0.154c-0.081-0.137-0.156-0.275-0.228-0.417c-0.049-0.097-0.096-0.194-0.14-0.291  c-0.062-0.133-0.118-0.269-0.172-0.407c-0.044-0.111-0.085-0.223-0.123-0.336c-0.042-0.125-0.081-0.25-0.117-0.377  c-0.037-0.131-0.07-0.26-0.101-0.391c-0.025-0.115-0.049-0.229-0.069-0.344c-0.027-0.149-0.05-0.294-0.068-0.443  c-0.013-0.105-0.023-0.21-0.033-0.317c-0.013-0.159-0.021-0.319-0.023-0.477c-0.001-0.06-0.008-0.116-0.008-0.175V76.584  c0-4.353,3.529-7.881,7.881-7.881h409.819c4.353,0,7.881,3.528,7.881,7.881v252.201H480.497z"/>
<g>
	<path style="fill:#ED1F34;" d="M328.363,127.872l35.191-43.407h-95.869v21.863C290.66,106.328,311.779,114.409,328.363,127.872z"/>
	<path style="fill:#ED1F34;" d="M348.35,202.755c0-0.014-0.001-0.028-0.001-0.041h-15.763c0,0.014,0.001,0.028,0.001,0.041   c0,6.626-1.004,13.023-2.857,19.05l15.066,4.636C347.102,218.946,348.35,210.994,348.35,202.755z"/>
	<path style="fill:#ED1F34;" d="M359.84,174.349l104.894-32.279V84.465h-4.923l-110.05,67.733   C354.004,159.06,357.413,166.491,359.84,174.349z"/>
	<path style="fill:#ED1F34;" d="M336.335,160.461l-13.418,8.259c2.856,4.618,5.155,9.615,6.79,14.903l15.066-4.637   C342.742,172.414,339.885,166.202,336.335,160.461z"/>
	<path style="fill:#ED1F34;" d="M364.112,202.755c0,9.852-1.488,19.364-4.247,28.323l104.87,32.273v-60.637H364.112   C364.112,202.727,364.112,202.741,364.112,202.755z"/>
	<path style="fill:#ED1F34;" d="M267.685,122.09v15.763c15.461,0,29.669,5.442,40.83,14.5l9.92-12.237   C304.564,128.857,286.903,122.09,267.685,122.09z"/>
</g>
<g>
	<path style="fill:#103B9B;" d="M349.761,152.197l110.05-67.734h-96.257l-35.191,43.407   C336.784,134.709,344.034,142.935,349.761,152.197z"/>
	<path style="fill:#103B9B;" d="M318.435,140.115l-9.92,12.237c5.668,4.601,10.547,10.134,14.403,16.367l13.418-8.259   C331.544,152.714,325.48,145.835,318.435,140.115z"/>
	<path style="fill:#103B9B;" d="M216.934,140.115l9.92,12.237c11.161-9.058,25.369-14.5,40.83-14.5V122.09   C248.467,122.09,230.806,128.857,216.934,140.115z"/>
	<path style="fill:#103B9B;" d="M171.258,202.755c0-0.014,0-0.028,0-0.041H70.678v60.636l104.828-32.267   C172.747,222.121,171.258,212.609,171.258,202.755z"/>
	<path style="fill:#103B9B;" d="M190.599,178.981l15.066,4.638c1.636-5.289,3.935-10.287,6.792-14.904l-13.417-8.259   C195.487,166.196,192.63,172.408,190.599,178.981z"/>
	<path style="fill:#103B9B;" d="M187.02,202.755c0,8.242,1.248,16.195,3.555,23.69l15.065-4.638   c-1.855-6.027-2.858-12.423-2.858-19.052c0-0.014,0.001-0.028,0.001-0.041h-15.762C187.021,202.727,187.02,202.741,187.02,202.755z   "/>
	<path style="fill:#103B9B;" d="M175.531,174.344c2.428-7.86,5.838-15.291,10.083-22.153L75.599,84.465h-4.92v57.606   L175.531,174.344z"/>
	<path style="fill:#103B9B;" d="M267.685,106.328V84.465h-95.869l35.192,43.407C223.59,114.409,244.711,106.328,267.685,106.328z"/>
</g>
<g>
	<path style="fill:#ED1F34;" d="M175.531,174.344L70.678,142.071v60.642h100.58C171.262,192.844,172.759,183.317,175.531,174.344z"/>
	<path style="fill:#ED1F34;" d="M187.021,202.713h15.762c0.004-6.643,1.014-13.056,2.881-19.095l-15.066-4.638   C188.279,186.489,187.024,194.456,187.021,202.713z"/>
	<path style="fill:#ED1F34;" d="M195.191,238.095l13.511-8.311c-1.185-2.575-2.217-5.234-3.061-7.977l-15.065,4.638   C191.815,230.472,193.364,234.363,195.191,238.095z"/>
	<path style="fill:#ED1F34;" d="M70.678,263.349v51.335l111.031-68.297c-2.486-4.878-4.568-9.994-6.202-15.305L70.678,263.349z"/>
	<path style="fill:#ED1F34;" d="M199.037,160.455l13.417,8.259c3.855-6.231,8.733-11.762,14.4-16.362l-9.92-12.237   C209.891,145.832,203.828,152.708,199.037,160.455z"/>
	<path style="fill:#ED1F34;" d="M207.007,127.872l-35.192-43.407H75.599l110.014,67.726   C191.339,142.93,198.588,134.706,207.007,127.872z"/>
</g>
<g>
	<path style="fill:#103B9B;" d="M344.771,178.986l-15.066,4.637c1.866,6.038,2.877,12.448,2.88,19.091h15.763   C348.345,194.458,347.09,186.49,344.771,178.986z"/>
	<path style="fill:#103B9B;" d="M364.112,202.713h100.623V142.07L359.84,174.349C362.612,183.32,364.107,192.846,364.112,202.713z"/>
	<path style="fill:#103B9B;" d="M329.73,221.805c-0.835,2.712-1.854,5.341-3.022,7.891l13.512,8.318   c1.81-3.709,3.345-7.575,4.576-11.574L329.73,221.805z"/>
	<path style="fill:#103B9B;" d="M353.699,246.313l111.036,68.364V263.35l-104.87-32.273   C358.239,236.363,356.168,241.455,353.699,246.313z"/>
</g>
<path d="M496.237,328.78v23.644H39.132V52.94h457.106v244.315c0,4.353,3.529,7.882,7.881,7.882s7.881-3.529,7.881-7.882V45.059  c0-4.353-3.529-7.881-7.881-7.881H31.25c-4.352,0-7.881,3.528-7.881,7.881v315.245c0,4.353,3.529,7.882,7.881,7.882h472.868  c4.353,0,7.881-3.529,7.881-7.882v-31.525c0-4.353-3.529-7.881-7.881-7.881S496.237,324.427,496.237,328.78z"/>
<g>
	<path style="fill:#FFE000;" d="M364.112,202.755c0-0.014,0-0.028,0-0.041c-0.004-9.867-1.5-19.393-4.271-28.364   c-2.427-7.857-5.836-15.289-10.08-22.152c-5.727-9.264-12.976-17.489-21.399-24.325c-16.583-13.463-37.703-21.544-60.678-21.544   c-22.974,0-44.095,8.082-60.677,21.544c-8.419,6.836-15.668,15.058-21.395,24.319c-4.245,6.863-7.655,14.294-10.083,22.153   c-2.771,8.973-4.269,18.5-4.272,28.369c0,0.014,0,0.028,0,0.041c0,9.854,1.489,19.367,4.249,28.328   c1.636,5.311,3.718,10.427,6.202,15.305l13.482-8.293c-1.827-3.733-3.376-7.624-4.615-11.651   c-2.307-7.495-3.555-15.448-3.555-23.69c0-0.014,0.001-0.028,0.001-0.041c0.004-8.256,1.259-16.225,3.578-23.733   c2.032-6.573,4.888-12.785,8.44-18.525c4.791-7.747,10.853-14.623,17.897-20.339c13.872-11.26,31.533-18.026,50.751-18.026   s36.879,6.766,50.751,18.026c7.045,5.719,13.109,12.597,17.901,20.344c3.55,5.741,6.405,11.953,8.436,18.525   c2.319,7.504,3.573,15.472,3.578,23.727c0,0.014,0.001,0.028,0.001,0.041c0,8.24-1.248,16.192-3.554,23.686   c-1.231,3.999-2.766,7.864-4.576,11.574l13.478,8.299c2.47-4.858,4.54-9.95,6.167-15.236   C362.624,222.118,364.112,212.607,364.112,202.755z"/>
	<path style="fill:#FFE000;" d="M263.674,195.969c2.533-1.559,5.729-1.559,8.261,0.001l41.224,25.382   c2.357-5.74,3.666-12.017,3.666-18.598c0-27.096-22.045-49.14-49.14-49.14c-27.096,0-49.14,22.045-49.14,49.14   c0,6.617,1.322,12.93,3.704,18.696L263.674,195.969z"/>
</g>
<path style="fill:#FFFFFF;" d="M444.784,320.905L267.8,211.937L90.652,320.905H444.784z M267.803,247.868  c13.348,0,24.169,10.82,24.169,24.168c0,13.348-10.821,24.169-24.169,24.169s-24.168-10.821-24.168-24.169  S254.454,247.868,267.803,247.868z"/>
<path style="fill:#FF7900;" d="M243.634,272.036h48.337c0-13.348-10.821-24.168-24.169-24.168S243.634,258.687,243.634,272.036z"/>
<path style="fill:#103B9B;" d="M243.634,272.036c0,13.348,10.821,24.169,24.168,24.169c13.347,0,24.169-10.821,24.169-24.169  H243.634z"/>
<path d="M472.615,68.703H62.796c-4.353,0-7.881,3.528-7.881,7.881v252.201c0,0.059,0.007,0.116,0.008,0.175  c0.003,0.158,0.011,0.318,0.023,0.477c0.008,0.106,0.02,0.211,0.033,0.317c0.018,0.149,0.041,0.294,0.068,0.443  c0.021,0.115,0.044,0.229,0.069,0.344c0.03,0.131,0.064,0.26,0.101,0.391c0.036,0.127,0.074,0.252,0.117,0.377  c0.038,0.113,0.08,0.225,0.123,0.336c0.054,0.138,0.11,0.274,0.172,0.407c0.045,0.098,0.091,0.195,0.14,0.291  c0.072,0.142,0.148,0.28,0.228,0.417c0.03,0.05,0.053,0.104,0.085,0.154c0.019,0.032,0.044,0.059,0.064,0.09  c0.152,0.24,0.313,0.47,0.49,0.689c0.023,0.03,0.045,0.063,0.068,0.092c0.189,0.229,0.393,0.444,0.605,0.651  c0.079,0.074,0.159,0.147,0.241,0.218c0.15,0.133,0.303,0.261,0.462,0.382c0.086,0.066,0.171,0.132,0.259,0.194  c0.215,0.151,0.437,0.292,0.667,0.421c0.028,0.016,0.054,0.034,0.082,0.05c0.267,0.146,0.544,0.273,0.827,0.387  c0.064,0.025,0.129,0.047,0.192,0.071c0.223,0.082,0.45,0.156,0.683,0.22c0.081,0.022,0.16,0.041,0.242,0.062  c0.224,0.054,0.451,0.096,0.682,0.13c0.08,0.013,0.158,0.027,0.239,0.036c0.285,0.033,0.574,0.053,0.866,0.055  c0.017,0,0.034,0.003,0.052,0.003c0.005,0,0.01-0.001,0.015-0.001h409.797c0.047,0,0.091-0.006,0.138-0.007  c0.153-0.002,0.304-0.012,0.455-0.022c0.117-0.01,0.235-0.019,0.351-0.032c0.129-0.015,0.255-0.036,0.381-0.058  c0.134-0.022,0.268-0.045,0.399-0.074c0.107-0.023,0.214-0.054,0.32-0.082c0.142-0.038,0.285-0.076,0.424-0.122  c0.101-0.034,0.2-0.072,0.298-0.111c0.136-0.051,0.273-0.103,0.406-0.16c0.108-0.047,0.212-0.101,0.318-0.154  c0.118-0.058,0.236-0.114,0.349-0.178c0.121-0.067,0.238-0.142,0.355-0.216c0.092-0.059,0.187-0.115,0.277-0.178  c0.126-0.086,0.247-0.181,0.37-0.275c0.078-0.061,0.155-0.119,0.231-0.183c0.118-0.1,0.23-0.205,0.343-0.311  c0.074-0.071,0.15-0.14,0.222-0.214c0.099-0.102,0.192-0.208,0.287-0.317c0.081-0.091,0.16-0.183,0.237-0.278  c0.076-0.097,0.149-0.197,0.221-0.295c0.086-0.119,0.169-0.238,0.247-0.361c0.027-0.041,0.056-0.078,0.083-0.119  c0.032-0.052,0.057-0.108,0.088-0.16c0.079-0.133,0.153-0.269,0.223-0.408c0.05-0.099,0.098-0.199,0.143-0.297  c0.061-0.131,0.116-0.264,0.17-0.4c0.045-0.113,0.086-0.227,0.125-0.342c0.041-0.123,0.08-0.246,0.116-0.374  c0.037-0.132,0.071-0.261,0.101-0.394c0.025-0.113,0.049-0.228,0.07-0.342c0.027-0.149,0.049-0.294,0.067-0.443  c0.013-0.106,0.024-0.212,0.033-0.319c0.013-0.158,0.02-0.317,0.023-0.475c0.001-0.059,0.008-0.117,0.008-0.177v-252.2  C480.497,72.231,476.968,68.703,472.615,68.703z M75.599,84.465h96.217h95.869h95.869h96.257h4.923v57.605v60.643v60.637v51.326  l-111.036-68.364l-13.478-8.299l-13.512-8.318c1.168-2.549,2.187-5.179,3.022-7.891c1.854-6.027,2.857-12.423,2.857-19.05  c0-0.014-0.001-0.028-0.001-0.041c-0.004-6.642-1.013-13.053-2.88-19.091c-1.635-5.289-3.934-10.287-6.79-14.903  c-3.855-6.233-8.735-11.766-14.403-16.367c-11.161-9.058-25.37-14.5-40.83-14.5c-15.461,0-29.669,5.442-40.83,14.5  c-5.666,4.6-10.545,10.131-14.4,16.362c-2.856,4.619-5.156,9.616-6.792,14.904c-1.867,6.039-2.877,12.452-2.881,19.095  c0,0.014-0.001,0.028-0.001,0.041c0,6.628,1.004,13.025,2.858,19.052c0.844,2.744,1.876,5.403,3.061,7.977l-13.511,8.311  l-13.482,8.293l-111.03,68.297v-51.335v-60.636v-60.642V84.465H75.599z M222.248,221.451c-2.382-5.767-3.704-12.079-3.704-18.696  c0-27.096,22.045-49.14,49.14-49.14s49.14,22.045,49.14,49.14c0,6.58-1.309,12.857-3.666,18.598l-41.224-25.382  c-2.533-1.56-5.729-1.56-8.261-0.001L222.248,221.451z M267.8,211.937l176.982,108.968H90.652L267.8,211.937z"/>
<path style="fill:#2E3033;" d="M21.536,488.099c-6.603,0-11.976-5.373-11.976-11.976V35.765c0-6.542,5.323-11.865,11.865-11.865  h1.565c6.604,0,11.976,5.373,11.976,11.976v440.247c0,6.604-5.373,11.976-11.976,11.976h-1.454V488.099z"/>
<path d="M22.99,14.34h-1.565C9.611,14.34,0,23.951,0,35.765v440.358c0,11.876,9.661,21.536,21.536,21.536h1.453  c11.876,0,21.536-9.661,21.536-21.536V35.876C44.526,24.001,34.865,14.34,22.99,14.34z M28.592,476.123  c0,3.089-2.513,5.602-5.602,5.602h-1.453c-3.089,0-5.602-2.513-5.602-5.602V35.765c0-3.028,2.463-5.492,5.492-5.492h1.565  c3.089,0,5.602,2.513,5.602,5.602v440.248H28.592z"/>
<g>
</g>
<g>
</g>
<g>
</g>
<g>
</g>
<g>
</g>
<g>
</g>
<g>
</g>
<g>
</g>
<g>
</g>
<g>
</g>
<g>
</g>
<g>
</g>
<g>
</g>
<g>
</g>
<g>
</g>
</svg>
