<?xml version="1.0" encoding="iso-8859-1"?>
<!-- Generator: Adobe Illustrator 19.0.0, SVG Export Plug-In . SVG Version: 6.00 Build 0)  -->
<svg xmlns="http://www.w3.org/2000/svg" xmlns:xlink="http://www.w3.org/1999/xlink" version="1.1" id="Layer_1" x="0px" y="0px" viewBox="0 0 511.999 511.999" style="enable-background:new 0 0 511.999 511.999;" xml:space="preserve">
<path style="fill:#FFE000;" d="M496.621,160.4H222.126l55.764,37.175c2.139,1.427,3.424,3.828,3.424,6.399  c0,2.571-1.284,4.972-3.424,6.398l-55.764,37.176h274.495V160.4z"/>
<g>
	<polygon style="fill:#3DB4EA;" points="199.059,262.926 68.337,350.074 496.621,350.074 496.621,262.926  "/>
	<path style="fill:#3DB4EA;" d="M412.037,57.872H68.337l130.722,87.148h297.563V57.872h-53.827c-4.247,0-7.689-3.441-7.689-7.688   h-15.38C419.726,54.431,416.283,57.872,412.037,57.872z"/>
</g>
<polygon style="fill:#333333;" points="50.63,343.395 259.763,203.973 50.63,64.55 "/>
<path d="M504.311,42.493h-61.517c-4.247,0-7.689,3.442-7.689,7.69c0,4.247,3.442,7.688,7.689,7.688h53.827v87.148H199.059  L68.337,57.872h343.699c4.247,0,7.689-3.441,7.689-7.688c0-4.248-3.442-7.69-7.689-7.69H42.941c-0.004,0-0.008,0-0.012,0  c-0.246,0.002-0.491,0.015-0.735,0.037c-0.199,0.02-0.396,0.052-0.592,0.086c-0.057,0.01-0.114,0.016-0.171,0.026  c-0.201,0.04-0.397,0.093-0.592,0.149c-0.042,0.011-0.087,0.02-0.13,0.033c-0.178,0.054-0.35,0.118-0.522,0.184  c-0.061,0.024-0.123,0.042-0.184,0.067c-0.147,0.061-0.287,0.131-0.429,0.199c-0.085,0.042-0.171,0.079-0.255,0.123  c-0.112,0.061-0.221,0.13-0.329,0.195c-0.108,0.065-0.217,0.125-0.32,0.195c-0.085,0.058-0.165,0.121-0.247,0.181  c-0.12,0.088-0.241,0.173-0.358,0.267c-0.073,0.06-0.139,0.124-0.207,0.187c-0.116,0.105-0.235,0.203-0.346,0.315  c-0.143,0.142-0.276,0.291-0.406,0.446c-0.03,0.035-0.065,0.066-0.095,0.104c-0.165,0.2-0.319,0.409-0.463,0.626  c-0.001,0.002-0.003,0.003-0.004,0.005c-0.015,0.022-0.024,0.044-0.038,0.065c-0.125,0.191-0.243,0.385-0.35,0.587  c-0.036,0.066-0.065,0.137-0.099,0.205c-0.078,0.155-0.154,0.313-0.223,0.476c-0.041,0.101-0.074,0.203-0.111,0.305  c-0.049,0.133-0.098,0.263-0.14,0.4c-0.039,0.13-0.067,0.26-0.101,0.391c-0.027,0.112-0.059,0.222-0.081,0.337  c-0.032,0.16-0.054,0.323-0.075,0.485c-0.011,0.087-0.027,0.173-0.035,0.26c-0.021,0.206-0.028,0.413-0.032,0.62  c0,0.046-0.006,0.089-0.006,0.136v0.026c0,0.008,0,0.016,0,0.024v307.478c0,0.008,0,0.017,0,0.024v0.026  c0,0.046,0.006,0.089,0.006,0.135c0.004,0.206,0.012,0.414,0.032,0.62c0.008,0.088,0.024,0.174,0.036,0.262  c0.022,0.161,0.041,0.323,0.073,0.484c0.023,0.114,0.055,0.225,0.082,0.338c0.032,0.13,0.061,0.259,0.101,0.389  c0.041,0.136,0.091,0.267,0.14,0.399c0.037,0.104,0.069,0.206,0.112,0.308c0.066,0.162,0.144,0.318,0.222,0.474  c0.033,0.068,0.063,0.138,0.099,0.206c0.108,0.202,0.225,0.397,0.35,0.587c0.015,0.022,0.024,0.045,0.038,0.065  c0.001,0.002,0.002,0.004,0.003,0.006c0.167,0.247,0.349,0.484,0.543,0.711c0.059,0.069,0.12,0.134,0.181,0.2  c0.136,0.148,0.276,0.29,0.421,0.427c0.079,0.073,0.157,0.147,0.238,0.217c0.154,0.133,0.315,0.257,0.48,0.378  c0.066,0.049,0.131,0.102,0.198,0.148c0.232,0.158,0.473,0.304,0.721,0.437c0.059,0.03,0.12,0.056,0.18,0.086  c0.2,0.101,0.404,0.193,0.614,0.275c0.079,0.031,0.158,0.059,0.237,0.087c0.198,0.07,0.399,0.133,0.603,0.188  c0.082,0.022,0.162,0.044,0.244,0.062c0.209,0.049,0.422,0.087,0.637,0.117c0.078,0.011,0.152,0.026,0.231,0.034  c0.265,0.03,0.534,0.047,0.805,0.049c0.022,0,0.044,0.005,0.065,0.005c0.005,0,0.009-0.001,0.015-0.001H504.31  c4.247,0,7.689-3.443,7.689-7.69V50.184C512,45.935,508.558,42.493,504.311,42.493z M277.891,210.371  c2.139-1.426,3.424-3.827,3.424-6.398c0-2.571-1.284-4.972-3.424-6.399L222.126,160.4h274.495v87.148H222.126L277.891,210.371z   M259.763,203.973L50.63,343.395V64.55L259.763,203.973z M68.337,350.074l130.722-87.148h297.563v87.148H68.337z"/>
<path style="fill:#2E3033;" d="M21.013,482.461c-6.442,0-11.685-5.242-11.685-11.685V41.115c0-6.383,5.194-11.577,11.577-11.577  h1.527c6.444,0,11.685,5.242,11.685,11.685v429.552c0,6.444-5.242,11.685-11.685,11.685h-1.419V482.461z"/>
<path d="M22.432,20.21h-1.527C9.378,20.21,0,29.588,0,41.115v429.661c0,11.587,9.426,21.013,21.013,21.013h1.418  c11.587,0,21.013-9.426,21.013-21.013V41.223C43.444,29.636,34.018,20.21,22.432,20.21z M27.898,470.776  c0,3.014-2.452,5.466-5.466,5.466h-1.418c-3.014,0-5.466-2.452-5.466-5.466V41.115c0-2.955,2.403-5.358,5.358-5.358h1.527  c3.014,0,5.466,2.452,5.466,5.466v429.554H27.898z"/>
<g>
</g>
<g>
</g>
<g>
</g>
<g>
</g>
<g>
</g>
<g>
</g>
<g>
</g>
<g>
</g>
<g>
</g>
<g>
</g>
<g>
</g>
<g>
</g>
<g>
</g>
<g>
</g>
<g>
</g>
</svg>
