<?xml version="1.0" encoding="iso-8859-1"?>
<!-- Generator: Adobe Illustrator 19.0.0, SVG Export Plug-In . SVG Version: 6.00 Build 0)  -->
<svg xmlns="http://www.w3.org/2000/svg" xmlns:xlink="http://www.w3.org/1999/xlink" version="1.1" id="Layer_1" x="0px" y="0px" viewBox="0 0 512 512" style="enable-background:new 0 0 512 512;" xml:space="preserve">
<path style="fill:#FFFFFF;" d="M472.594,352.401h23.643V52.94H188.874v64.195c3.538,0,6.406,2.867,6.406,6.406  c0,3.537-2.868,6.406-6.406,6.406v53.846c10.469,0,18.988,8.517,18.988,18.986v0.363c2.037-3.377,3.174-7.315,3.174-11.469  c0-4.354,3.527-7.881,7.881-7.881h39.7h8.544c4.353,0,7.881,3.527,7.881,7.881c0,4.353-3.528,7.881-7.881,7.881h-1.075  c-3.169,31.357-25.03,57.695-55.212,66.558l4.996,20.2c0.582,2.353,0.05,4.843-1.445,6.749c-1.492,1.909-3.783,3.023-6.206,3.023  h-19.346v56.315h252.196c4.354,0,7.881,3.527,7.881,7.88h15.764C464.713,355.927,468.241,352.401,472.594,352.401z M217.139,128.526  c-0.996,3.395-4.558,5.339-7.952,4.342c-3.396-0.996-5.34-4.557-4.344-7.953c0.996-3.394,4.558-5.338,7.953-4.341  C216.191,121.57,218.135,125.131,217.139,128.526z M236.708,139.467c-1.913,2.976-5.877,3.838-8.855,1.926  c-2.976-1.913-3.838-5.875-1.926-8.853s5.876-3.839,8.854-1.926C237.758,132.527,238.621,136.489,236.708,139.467z M252.401,155.477  c-2.676,2.318-6.721,2.027-9.039-0.647c-2.318-2.674-2.029-6.72,0.645-9.038c2.676-2.318,6.722-2.027,9.04,0.647  C255.365,149.113,255.076,153.16,252.401,155.477z M262.948,175.259c-3.22,1.471-7.02,0.052-8.49-3.165  c-1.47-3.219-0.052-7.019,3.167-8.489c3.218-1.47,7.019-0.052,8.489,3.165C267.584,169.988,266.166,173.79,262.948,175.259z"/>
<path style="fill:#103B9B;" d="M169.527,296.086c-2.422,0-4.712-1.114-6.206-3.023c-1.494-1.908-2.027-4.398-1.444-6.749l4.996-20.2  c-30.183-8.863-52.043-35.202-55.212-66.558h-1.075c-4.353,0-7.881-3.528-7.881-7.881c0-4.354,3.528-7.881,7.881-7.881h8.544h39.7  c4.353,0,7.881,3.527,7.881,7.881c0,4.154,1.136,8.092,3.174,11.469v-0.363c0-10.469,8.517-18.986,18.988-18.986v-53.846  c-3.539,0-6.407-2.869-6.407-6.406c0-3.539,2.868-6.406,6.407-6.406V52.94H39.132v299.461h149.742v-56.315H169.527z M164.95,120.574  c3.395-0.996,6.957,0.948,7.952,4.341c0.997,3.396-0.948,6.957-4.342,7.953c-3.395,0.996-6.957-0.948-7.952-4.342  C159.61,125.131,161.555,121.57,164.95,120.574z M142.965,130.613c2.977-1.913,6.942-1.051,8.855,1.926  c1.913,2.976,1.051,6.94-1.926,8.853c-2.976,1.913-6.941,1.051-8.855-1.926C139.126,136.489,139.987,132.526,142.965,130.613z   M124.7,146.439c2.318-2.675,6.364-2.965,9.039-0.647c2.675,2.318,2.964,6.364,0.646,9.038c-2.318,2.675-6.364,2.965-9.039,0.647  C122.671,153.159,122.382,149.114,124.7,146.439z M111.632,166.77c1.47-3.218,5.272-4.636,8.49-3.165  c3.219,1.47,4.637,5.271,3.167,8.489c-1.47,3.218-5.272,4.637-8.49,3.165C111.58,173.79,110.162,169.988,111.632,166.77z   M84.218,129.381c-12.613,0-22.874-10.261-22.874-22.872V87.614c0-4.353,3.528-7.881,7.881-7.881h29.987  c4.354,0,7.882,3.528,7.882,7.881v18.894C107.093,119.12,96.831,129.381,84.218,129.381z"/>
<path d="M504.118,37.178H31.251c-4.354,0-7.882,3.528-7.882,7.881V360.28c0,4.353,3.528,7.882,7.882,7.882H441.07  c4.354,0,7.881-3.529,7.881-7.882s-3.527-7.88-7.881-7.88H188.874H39.132V52.94h149.742h307.364v299.461h-23.643  c-4.354,0-7.881,3.527-7.881,7.88s3.527,7.882,7.881,7.882h31.524c4.354,0,7.882-3.529,7.882-7.882V45.059  C512,40.706,508.472,37.178,504.118,37.178z"/>
<path style="fill:#FFE000;" d="M174.85,226.908c-12.018-4.786-20.516-15.087-23.087-27.353h-24.254  c3.37,26.467,23.495,48.139,50.32,52.973c2.145,0.386,4.031,1.641,5.217,3.469c1.183,1.828,1.559,4.063,1.037,6.178l-4.488,18.149  h18.556l-4.488-18.149c-0.524-2.115-0.149-4.351,1.037-6.178c1.185-1.827,3.072-3.083,5.216-3.469  c26.827-4.834,46.951-26.506,50.322-52.973h-24.254c-2.571,12.266-11.069,22.566-23.087,27.353  c-2.427,0.968-5.177,0.668-7.339-0.799c-2.163-1.467-3.459-3.911-3.459-6.523v-16.806c0-1.779-1.447-3.225-3.225-3.225  s-3.226,1.446-3.226,3.225v16.806c0,2.612-1.295,5.056-3.458,6.523C180.027,227.574,177.278,227.874,174.85,226.908z"/>
<path d="M169.886,202.781v0.363c-2.038-3.377-3.174-7.315-3.174-11.469c0-4.354-3.528-7.881-7.881-7.881H119.13h-8.544  c-4.353,0-7.881,3.527-7.881,7.881c0,4.353,3.528,7.881,7.881,7.881h1.075c3.168,31.357,25.03,57.695,55.212,66.558l-4.996,20.2  c-0.583,2.353-0.05,4.843,1.444,6.749c1.494,1.909,3.784,3.023,6.206,3.023h19.347h19.346c2.423,0,4.713-1.114,6.206-3.023  c1.495-1.908,2.027-4.398,1.445-6.749l-4.996-20.2c30.183-8.863,52.042-35.202,55.212-66.558h1.075c4.353,0,7.881-3.528,7.881-7.881  c0-4.354-3.528-7.881-7.881-7.881h-8.544h-39.7c-4.354,0-7.881,3.527-7.881,7.881c0,4.154-1.137,8.092-3.174,11.469v-0.363  c0-10.469-8.518-18.987-18.988-18.987C178.402,183.794,169.886,192.311,169.886,202.781z M185.648,219.587v-16.806  c0-1.779,1.448-3.225,3.226-3.225s3.225,1.446,3.225,3.225v16.806c0,2.612,1.296,5.056,3.459,6.523  c2.162,1.467,4.912,1.766,7.339,0.799c12.018-4.786,20.516-15.087,23.087-27.353h24.254c-3.37,26.467-23.495,48.139-50.322,52.973  c-2.145,0.386-4.031,1.641-5.216,3.469c-1.184,1.828-1.56,4.063-1.037,6.178l4.488,18.149h-18.556l4.488-18.149  c0.523-2.115,0.148-4.351-1.037-6.178c-1.185-1.828-3.073-3.083-5.217-3.469c-26.826-4.834-46.95-26.506-50.32-52.973h24.254  c2.571,12.266,11.069,22.566,23.087,27.353c2.427,0.966,5.176,0.666,7.339-0.799C184.353,224.643,185.648,222.2,185.648,219.587z"/>
<g>
	<circle style="fill:#FFE000;" cx="188.877" cy="123.539" r="6.405"/>
	<circle style="fill:#FFE000;" cx="166.751" cy="126.725" r="6.405"/>
	<circle style="fill:#FFE000;" cx="146.43" cy="135.999" r="6.405"/>
	<circle style="fill:#FFE000;" cx="129.54" cy="150.636" r="6.405"/>
	<circle style="fill:#FFE000;" cx="117.463" cy="169.427" r="6.405"/>
	<circle style="fill:#FFE000;" cx="210.993" cy="126.725" r="6.405"/>
	<circle style="fill:#FFE000;" cx="231.314" cy="135.999" r="6.405"/>
	<circle style="fill:#FFE000;" cx="248.203" cy="150.636" r="6.405"/>
	<circle style="fill:#FFE000;" cx="260.281" cy="169.427" r="6.405"/>
</g>
<path style="fill:#ED1F34;" d="M77.106,106.509c0,3.921,3.19,7.112,7.112,7.112s7.113-3.191,7.113-7.112V95.493H77.106V106.509z"/>
<path d="M107.093,87.614c0-4.353-3.528-7.881-7.882-7.881H69.224c-4.353,0-7.881,3.528-7.881,7.881v18.894  c0,12.611,10.261,22.872,22.874,22.872s22.875-10.261,22.875-22.872C107.093,106.508,107.093,87.614,107.093,87.614z M91.33,106.509  c0,3.921-3.191,7.112-7.113,7.112s-7.112-3.191-7.112-7.112V95.493h14.226v11.015H91.33z"/>
<path style="fill:#2E3033;" d="M21.536,488.1c-6.603,0-11.976-5.373-11.976-11.976V35.766c0-6.542,5.323-11.865,11.865-11.865h1.565  c6.604,0,11.976,5.373,11.976,11.976v440.247c0,6.604-5.373,11.976-11.976,11.976h-1.454V488.1z"/>
<path d="M22.99,14.34h-1.565C9.611,14.34,0,23.951,0,35.766v440.358C0,488,9.661,497.66,21.536,497.66h1.453  c11.876,0,21.536-9.661,21.536-21.536V35.876C44.526,24.001,34.865,14.34,22.99,14.34z M28.592,476.124  c0,3.089-2.513,5.602-5.602,5.602h-1.453c-3.089,0-5.602-2.513-5.602-5.602V35.766c0-3.028,2.463-5.492,5.492-5.492h1.565  c3.089,0,5.602,2.513,5.602,5.602v440.248H28.592z"/>
<g>
</g>
<g>
</g>
<g>
</g>
<g>
</g>
<g>
</g>
<g>
</g>
<g>
</g>
<g>
</g>
<g>
</g>
<g>
</g>
<g>
</g>
<g>
</g>
<g>
</g>
<g>
</g>
<g>
</g>
</svg>
