<?xml version="1.0" encoding="iso-8859-1"?>
<!-- Generator: Adobe Illustrator 19.0.0, SVG Export Plug-In . SVG Version: 6.00 Build 0)  -->
<svg xmlns="http://www.w3.org/2000/svg" xmlns:xlink="http://www.w3.org/1999/xlink" version="1.1" id="Layer_1" x="0px" y="0px" viewBox="0 0 512 512" style="enable-background:new 0 0 512 512;" xml:space="preserve">
<g>
	<rect x="54.654" y="58.275" style="fill:#ED1F34;" width="445.099" height="35.812"/>
	<rect x="51.551" y="314.078" style="fill:#ED1F34;" width="445.099" height="35.813"/>
</g>
<rect x="51.551" y="262.92" style="fill:#FFFFFF;" width="445.099" height="35.812"/>
<path style="fill:#103B9B;" d="M74.573,160.596H51.551v86.974h445.101v-86.974H105.269c-4.239,0-7.674-3.435-7.674-7.675H82.247  C82.247,157.16,78.811,160.596,74.573,160.596z"/>
<path style="fill:#FFFFFF;" d="M51.551,145.248h23.022c4.239,0,7.674,3.435,7.674,7.674h15.349c0-4.239,3.436-7.674,7.674-7.674  h391.382v-35.813H51.551V145.248z"/>
<path d="M504.325,42.925H43.876c-4.238,0-7.674,3.435-7.674,7.674v306.966c0,4.239,3.436,7.675,7.674,7.675h460.449  c4.24,0,7.675-3.436,7.675-7.675V50.599C512,46.36,508.565,42.925,504.325,42.925z M496.651,349.891H51.551v-35.813h445.101  L496.651,349.891L496.651,349.891z M496.651,298.731H51.551v-35.812h445.101L496.651,298.731L496.651,298.731z M496.651,145.248  H105.269c-4.239,0-7.674,3.435-7.674,7.674c0,4.24,3.436,7.675,7.674,7.675h391.382v86.974H51.551v-86.974h23.022  c4.239,0,7.674-3.435,7.674-7.675c0-4.239-3.436-7.674-7.674-7.674H51.551v-35.813h445.101L496.651,145.248L496.651,145.248z   M499.754,94.086H54.654V58.274h445.101L499.754,94.086L499.754,94.086z"/>
<path style="fill:#2E3033;" d="M20.97,482.004c-6.429,0-11.661-5.232-11.661-11.661V41.55c0-6.371,5.183-11.554,11.554-11.554h1.524  c6.431,0,11.661,5.232,11.661,11.661v428.685c0,6.431-5.232,11.661-11.661,11.661H20.97V482.004z"/>
<path d="M22.386,20.687h-1.524C9.359,20.687,0,30.046,0,41.55v428.793c0,11.563,9.407,20.97,20.97,20.97h1.415  c11.564,0,20.97-9.407,20.97-20.97V41.657C43.357,30.094,33.949,20.687,22.386,20.687z M27.841,470.343  c0,3.008-2.447,5.455-5.455,5.455h-1.415c-3.008,0-5.455-2.447-5.455-5.455V41.55c0-2.949,2.399-5.348,5.348-5.348h1.524  c3.008,0,5.455,2.447,5.455,5.455v428.686H27.841z"/>
<g>
</g>
<g>
</g>
<g>
</g>
<g>
</g>
<g>
</g>
<g>
</g>
<g>
</g>
<g>
</g>
<g>
</g>
<g>
</g>
<g>
</g>
<g>
</g>
<g>
</g>
<g>
</g>
<g>
</g>
</svg>
