<?xml version="1.0" encoding="iso-8859-1"?>
<!-- Generator: Adobe Illustrator 19.0.0, SVG Export Plug-In . SVG Version: 6.00 Build 0)  -->
<svg xmlns="http://www.w3.org/2000/svg" xmlns:xlink="http://www.w3.org/1999/xlink" version="1.1" id="Layer_1" x="0px" y="0px" viewBox="0 0 512 512" style="enable-background:new 0 0 512 512;" xml:space="preserve">
<polygon style="fill:#259245;" points="51.55,58.273 51.55,260.222 354.459,58.273 "/>
<path style="fill:#3DB4EA;" d="M496.652,173.488v-25.535l-302.921,201.94h302.921v-145.71c0-4.239,3.434-7.675,7.674-7.675v-15.348  C500.086,181.161,496.652,177.726,496.652,173.488z"/>
<g>
	<polygon style="fill:#FFE000;" points="161.452,349.894 193.731,349.894 496.652,147.954 496.652,126.434  "/>
	<polygon style="fill:#FFE000;" points="354.459,58.273 51.55,260.222 51.55,281.743 386.74,58.273  "/>
</g>
<polygon style="fill:#333333;" points="496.652,58.273 414.408,58.273 51.55,300.188 51.55,349.894 133.782,349.894   496.652,107.989 "/>
<path d="M496.652,204.184v145.71H193.731h-32.28l335.201-223.46v21.52v25.535c0,4.239,3.434,7.674,7.674,7.674l0,0  c4.239,0,7.674-3.435,7.674-7.674v-61.342c0,0,0-0.017,0-0.023V50.599c0-4.239-3.435-7.674-7.674-7.674h-92.191  c-0.008,0-0.017,0-0.024,0H43.876c-4.238,0-7.674,3.435-7.674,7.674v245.429c0,0.01,0,0.02,0,0.029v61.51  c0,4.239,3.436,7.674,7.674,7.674h92.22c0.005,0,0.011,0.001,0.017,0.001c0.004,0,0.009-0.001,0.013-0.001h368.2  c4.239,0,7.674-3.435,7.674-7.674V204.184c0-4.239-3.435-7.675-7.674-7.675l0,0C500.086,196.509,496.652,199.946,496.652,204.184z   M51.55,349.894v-49.706L414.408,58.272h82.245v49.716l-362.87,241.906H51.55z M51.55,281.743v-21.521V58.273h302.91h32.281  L51.55,281.743z"/>
<path style="fill:#2E3033;" d="M20.97,482.004c-6.429,0-11.661-5.232-11.661-11.661V41.55c0-6.371,5.183-11.554,11.554-11.554h1.524  c6.431,0,11.661,5.232,11.661,11.661v428.685c0,6.431-5.232,11.661-11.661,11.661H20.97V482.004z"/>
<path d="M22.386,20.687h-1.524C9.359,20.687,0,30.046,0,41.55v428.793c0,11.563,9.407,20.97,20.97,20.97h1.415  c11.564,0,20.97-9.407,20.97-20.97V41.657C43.357,30.094,33.949,20.687,22.386,20.687z M27.841,470.343  c0,3.008-2.447,5.455-5.455,5.455h-1.415c-3.008,0-5.455-2.447-5.455-5.455V41.55c0-2.949,2.399-5.348,5.348-5.348h1.524  c3.008,0,5.455,2.447,5.455,5.455v428.686H27.841z"/>
<g>
</g>
<g>
</g>
<g>
</g>
<g>
</g>
<g>
</g>
<g>
</g>
<g>
</g>
<g>
</g>
<g>
</g>
<g>
</g>
<g>
</g>
<g>
</g>
<g>
</g>
<g>
</g>
<g>
</g>
</svg>
