<?xml version="1.0" encoding="iso-8859-1"?>
<!-- Generator: Adobe Illustrator 19.0.0, SVG Export Plug-In . SVG Version: 6.00 Build 0)  -->
<svg xmlns="http://www.w3.org/2000/svg" xmlns:xlink="http://www.w3.org/1999/xlink" version="1.1" id="Layer_1" x="0px" y="0px" viewBox="0 0 511.999 511.999" style="enable-background:new 0 0 511.999 511.999;" xml:space="preserve">
<path style="fill:#FFFFFF;" d="M51.551,160.595v86.974h391.382c4.238,0,7.674,3.436,7.674,7.674h15.349  c0-4.239,3.436-7.674,7.674-7.674h23.022v-86.974H51.551z M289.341,175.536c1.358-2.821,4.253-4.639,7.379-4.639  c1.219,0,2.445,0.279,3.545,0.807c1.976,0.951,3.458,2.609,4.181,4.673c0.724,2.067,0.598,4.289-0.353,6.262  c-1.353,2.81-4.248,4.63-7.373,4.63l0,0c-1.219,0-2.445-0.279-3.545-0.807C289.105,184.502,287.388,179.602,289.341,175.536z   M274.101,165.967c4.514,0,8.186,3.672,8.186,8.186c0,4.513-3.672,8.186-8.186,8.186c-4.513,0-8.186-3.672-8.186-8.186  C265.915,169.639,269.588,165.967,274.101,165.967z M243.758,176.377c0.722-2.064,2.205-3.723,4.176-4.67  c1.104-0.531,2.329-0.81,3.55-0.81c3.126,0,6.021,1.819,7.376,4.635c1.956,4.07,0.238,8.97-3.825,10.926  c-1.105,0.532-2.33,0.81-3.551,0.81c-3.125,0-6.02-1.819-7.376-4.635C243.159,180.666,243.033,178.442,243.758,176.377z   M230.974,215.918c-0.855,3.744-4.136,6.361-7.979,6.361c-0.613,0-1.228-0.069-1.826-0.206c-2.129-0.486-3.943-1.773-5.106-3.623  c-1.165-1.853-1.538-4.048-1.051-6.181c0.855-3.744,4.137-6.361,7.979-6.361c0.613,0,1.228,0.069,1.826,0.206  c2.129,0.486,3.943,1.773,5.106,3.623C231.089,211.589,231.461,213.785,230.974,215.918z M228.135,199.733  c-1.704-1.357-2.781-3.306-3.026-5.48c-0.245-2.175,0.372-4.314,1.739-6.024c1.562-1.956,3.893-3.078,6.397-3.078  c1.848,0,3.663,0.635,5.108,1.789c3.527,2.818,4.105,7.978,1.289,11.505c-1.555,1.953-3.889,3.078-6.396,3.078  C231.393,201.523,229.58,200.887,228.135,199.733z M308.038,238.048c-2.023,3.724-6.682,5.106-10.407,3.08  c-7.339-3.986-15.666-6.094-24.081-6.094c-8.5,0-16.902,2.149-24.299,6.213c-1.172,0.644-2.439,0.951-3.688,0.951  c-2.71,0-5.335-1.438-6.733-3.98c-2.042-3.713-0.686-8.38,3.029-10.421c7.415-4.075,15.601-6.669,24.017-7.655v-16.316  c0-4.239,3.436-7.674,7.674-7.674c4.239,0,7.674,3.436,7.674,7.674v16.315c8.31,0.974,16.396,3.515,23.732,7.5  C308.682,229.665,310.061,234.324,308.038,238.048z M308.557,198.436c-2.81-3.519-2.232-8.679,1.295-11.497  c1.445-1.154,3.258-1.789,5.108-1.789c2.503,0,4.836,1.122,6.397,3.078c1.366,1.71,1.983,3.85,1.739,6.024  c-0.245,2.174-1.323,4.123-3.035,5.486c-1.437,1.147-3.251,1.783-5.099,1.783C312.452,201.522,310.119,200.397,308.557,198.436z   M332.138,218.451c-1.164,1.85-2.977,3.137-5.108,3.623c-0.596,0.135-1.209,0.205-1.823,0.205l0,0c-3.843,0-7.124-2.617-7.979-6.364  c-0.487-2.131-0.114-4.326,1.051-6.178c1.164-1.85,2.978-3.137,5.108-3.624c0.596-0.135,1.209-0.205,1.823-0.205  c3.843,0,7.125,2.617,7.98,6.364C333.676,214.402,333.304,216.598,332.138,218.451z"/>
<g>
	<path style="fill:#FFE000;" d="M274.101,182.339c4.514,0,8.186-3.672,8.186-8.186c0-4.514-3.672-8.186-8.186-8.186   c-4.513,0-8.186,3.672-8.186,8.186C265.915,178.666,269.588,182.339,274.101,182.339z"/>
	<path style="fill:#FFE000;" d="M251.483,187.267c1.219,0,2.445-0.279,3.551-0.81c4.064-1.956,5.781-6.855,3.825-10.926   c-1.355-2.817-4.25-4.635-7.376-4.635c-1.219,0-2.445,0.279-3.55,0.81c-1.97,0.949-3.454,2.607-4.176,4.67   c-0.724,2.067-0.599,4.289,0.35,6.256C245.463,185.448,248.357,187.267,251.483,187.267z"/>
	<path style="fill:#FFE000;" d="M239.639,198.445c2.818-3.527,2.239-8.687-1.289-11.505c-1.445-1.154-3.258-1.789-5.108-1.789   c-2.503,0-4.836,1.122-6.397,3.078c-1.366,1.71-1.983,3.85-1.739,6.024c0.245,2.174,1.323,4.123,3.026,5.48   c1.445,1.154,3.258,1.789,5.108,1.789C235.75,201.523,238.084,200.397,239.639,198.445z"/>
	<path style="fill:#FFE000;" d="M224.819,206.114c-0.598-0.137-1.212-0.206-1.826-0.206c-3.843,0-7.124,2.617-7.979,6.361   c-0.487,2.134-0.115,4.329,1.051,6.181c1.164,1.85,2.977,3.137,5.106,3.623c0.598,0.137,1.212,0.206,1.826,0.206   c3.843,0,7.125-2.617,7.979-6.361c0.487-2.134,0.115-4.329-1.051-6.181C228.761,207.886,226.946,206.599,224.819,206.114z"/>
	<path style="fill:#FFE000;" d="M293.174,186.461c1.099,0.528,2.325,0.807,3.545,0.807l0,0c3.125,0,6.02-1.819,7.373-4.63   c0.951-1.971,1.077-4.195,0.353-6.262c-0.722-2.064-2.205-3.723-4.181-4.673c-1.099-0.528-2.326-0.807-3.545-0.807   c-3.126,0-6.021,1.819-7.379,4.639C287.388,179.602,289.105,184.502,293.174,186.461z"/>
	<path style="fill:#FFE000;" d="M323.095,194.253c0.245-2.175-0.372-4.314-1.739-6.024c-1.562-1.956-3.893-3.078-6.397-3.078   c-1.848,0-3.663,0.635-5.108,1.789c-3.527,2.818-4.105,7.978-1.295,11.497c1.562,1.961,3.895,3.085,6.403,3.085   c1.849,0,3.663-0.635,5.099-1.783C321.771,198.376,322.849,196.428,323.095,194.253z"/>
	<path style="fill:#FFE000;" d="M325.209,205.907c-0.612,0-1.227,0.069-1.823,0.205c-2.131,0.487-3.945,1.774-5.108,3.624   c-1.165,1.853-1.538,4.047-1.051,6.178c0.855,3.747,4.136,6.364,7.979,6.364l0,0c0.613,0,1.228-0.069,1.822-0.205   c2.131-0.487,3.945-1.774,5.108-3.623c1.165-1.853,1.538-4.048,1.051-6.179C332.334,208.525,329.052,205.907,325.209,205.907z"/>
	<path style="fill:#FFE000;" d="M304.958,227.641c-7.336-3.985-15.423-6.526-23.732-7.5v-16.315c0-4.239-3.436-7.674-7.674-7.674   s-7.674,3.436-7.674,7.674v16.316c-8.416,0.987-16.602,3.58-24.017,7.655c-3.714,2.042-5.07,6.708-3.029,10.421   c1.397,2.542,4.023,3.98,6.733,3.98c1.249,0,2.518-0.306,3.688-0.951c7.397-4.065,15.799-6.213,24.299-6.213   c8.414,0,16.742,2.108,24.081,6.094c3.725,2.025,8.383,0.643,10.407-3.08C310.061,234.324,308.682,229.665,304.958,227.641z"/>
</g>
<rect x="51.551" y="58.274" style="fill:#ED1F34;" width="445.099" height="86.978"/>
<path style="fill:#259245;" d="M473.629,262.917c-4.239,0-7.674-3.436-7.674-7.674h-15.349c0,4.239-3.436,7.674-7.674,7.674H51.551  v86.974h445.101v-86.974L473.629,262.917L473.629,262.917z"/>
<path d="M504.326,42.925H43.877c-4.239,0-7.675,3.436-7.675,7.674v306.966c0,4.239,3.436,7.674,7.674,7.674h460.449  c4.239,0,7.674-3.435,7.674-7.674V50.599C512,46.361,508.564,42.925,504.326,42.925z M496.651,58.273v86.974H51.551V58.273H496.651z   M51.551,349.891v-86.974h391.382c4.238,0,7.674-3.436,7.674-7.674s-3.436-7.674-7.674-7.674H51.551v-86.974h445.101v86.974h-23.022  c-4.239,0-7.674,3.436-7.674,7.674s3.436,7.674,7.674,7.674h23.022v86.974H51.551z"/>
<path style="fill:#2E3033;" d="M20.97,482.004c-6.429,0-11.661-5.232-11.661-11.661V41.549c0-6.371,5.183-11.554,11.554-11.554  h1.524c6.431,0,11.661,5.232,11.661,11.661v428.685c0,6.431-5.232,11.661-11.661,11.661H20.97V482.004z"/>
<path d="M22.386,20.686h-1.524C9.359,20.686,0,30.045,0,41.549v428.793c0,11.563,9.407,20.97,20.97,20.97h1.415  c11.564,0,20.97-9.407,20.97-20.97V41.657C43.357,30.094,33.949,20.686,22.386,20.686z M27.841,470.342  c0,3.008-2.447,5.455-5.455,5.455h-1.415c-3.008,0-5.455-2.447-5.455-5.455V41.549c0-2.949,2.399-5.348,5.348-5.348h1.524  c3.008,0,5.455,2.447,5.455,5.455v428.686H27.841z"/>
<g>
</g>
<g>
</g>
<g>
</g>
<g>
</g>
<g>
</g>
<g>
</g>
<g>
</g>
<g>
</g>
<g>
</g>
<g>
</g>
<g>
</g>
<g>
</g>
<g>
</g>
<g>
</g>
<g>
</g>
</svg>
