<?xml version="1.0" encoding="iso-8859-1"?>
<!-- Generator: Adobe Illustrator 19.0.0, SVG Export Plug-In . SVG Version: 6.00 Build 0)  -->
<svg xmlns="http://www.w3.org/2000/svg" xmlns:xlink="http://www.w3.org/1999/xlink" version="1.1" id="Layer_1" x="0px" y="0px" viewBox="0 0 511.999 511.999" style="enable-background:new 0 0 511.999 511.999;" xml:space="preserve">
<path style="fill:#ED1F34;" d="M496.237,297.266V52.951H275.565v149.742c0,2.09-0.831,4.094-2.308,5.573s-3.482,2.308-5.573,2.308  l-228.553-0.006v141.865h457.106V328.79c0-4.352,3.529-7.881,7.881-7.881v-15.763C499.766,305.147,496.237,301.618,496.237,297.266z  "/>
<g>
	<path style="fill:#103B9B;" d="M122.512,123.881c0,14.863,12.093,26.954,26.954,26.954c14.863,0,26.955-12.091,26.955-26.954   s-12.093-26.954-26.955-26.954C134.605,96.926,122.512,109.018,122.512,123.881z M149.467,105.492c10.14,0,18.39,8.249,18.39,18.39   s-8.249,18.39-18.39,18.39c-10.139,0-18.39-8.249-18.39-18.39S139.328,105.492,149.467,105.492z"/>
	<path style="fill:#103B9B;" d="M259.804,194.81V52.951H39.132v141.855L259.804,194.81z M102.361,115.999h5.131   c1.11-5.925,3.441-11.423,6.73-16.219l-3.637-3.637c-3.077-3.077-3.077-8.068,0-11.145s8.068-3.078,11.146,0l3.636,3.637   c4.796-3.29,10.294-5.62,16.219-6.731v-5.131c0-4.353,3.529-7.881,7.881-7.881c4.353,0,7.881,3.528,7.881,7.881v5.131   c5.925,1.111,11.423,3.442,16.219,6.731l3.636-3.637c3.078-3.077,8.069-3.078,11.146,0c3.077,3.077,3.077,8.068,0,11.145   l-3.637,3.637c3.29,4.796,5.62,10.294,6.73,16.219h5.131c4.353,0,7.881,3.529,7.881,7.881c0,4.353-3.529,7.881-7.881,7.881h-5.131   c-1.11,5.924-3.441,11.423-6.73,16.219l3.637,3.636c3.077,3.077,3.077,8.068,0,11.146c-1.539,1.539-3.556,2.308-5.574,2.308   c-2.016,0-4.033-0.769-5.573-2.308l-3.636-3.636c-4.796,3.29-10.294,5.62-16.219,6.73v5.131c0,4.353-3.529,7.882-7.881,7.882   s-7.881-3.529-7.881-7.882v-5.131c-5.925-1.11-11.423-3.441-16.219-6.73l-3.636,3.636c-1.539,1.539-3.556,2.308-5.573,2.308   c-2.017,0-4.034-0.769-5.574-2.308c-3.077-3.078-3.077-8.068,0-11.146l3.637-3.636c-3.29-4.796-5.62-10.294-6.73-16.219h-5.131   c-4.353,0-7.881-3.529-7.881-7.881S98.009,115.999,102.361,115.999z"/>
</g>
<path d="M496.237,328.79v23.643H39.132V210.567l228.553,0.005c2.09,0,4.095-0.83,5.573-2.308c1.479-1.479,2.308-3.482,2.308-5.573  V52.951h220.672v244.315c0,4.352,3.529,7.881,7.881,7.881s7.881-3.529,7.881-7.881V45.069c0-4.353-3.529-7.881-7.881-7.881H267.888  c-0.068-0.002-0.135-0.011-0.203-0.011s-0.135,0.008-0.203,0.011H31.25c-4.353,0-7.881,3.529-7.881,7.881v315.245  c0,4.353,3.529,7.881,7.881,7.881h472.868c4.353,0,7.881-3.529,7.881-7.881v-31.525c0-4.352-3.529-7.881-7.881-7.881  S496.237,324.438,496.237,328.79z M259.804,52.951v141.86l-220.672-0.004V52.951H259.804z"/>
<g>
	<path style="fill:#FFFFFF;" d="M149.467,142.27c10.14,0,18.39-8.249,18.39-18.39s-8.249-18.39-18.39-18.39   c-10.139,0-18.39,8.249-18.39,18.39S139.328,142.27,149.467,142.27z"/>
	<path style="fill:#FFFFFF;" d="M102.361,131.762h5.131c1.11,5.924,3.441,11.423,6.73,16.219l-3.637,3.636   c-3.077,3.077-3.077,8.068,0,11.146c1.539,1.539,3.556,2.308,5.574,2.308c2.016,0,4.033-0.77,5.573-2.308l3.636-3.636   c4.796,3.29,10.294,5.62,16.219,6.73v5.131c0,4.353,3.529,7.882,7.881,7.882c4.353,0,7.881-3.529,7.881-7.882v-5.131   c5.925-1.11,11.423-3.441,16.219-6.73l3.636,3.636c1.539,1.539,3.556,2.308,5.573,2.308c2.017,0,4.034-0.77,5.574-2.308   c3.077-3.078,3.077-8.068,0-11.146l-3.637-3.636c3.29-4.796,5.62-10.294,6.73-16.219h5.131c4.353,0,7.881-3.529,7.881-7.881   S200.925,116,196.573,116h-5.131c-1.11-5.925-3.441-11.423-6.73-16.219l3.637-3.637c3.077-3.077,3.077-8.068,0-11.145   c-3.077-3.078-8.068-3.077-11.146,0l-3.636,3.637c-4.796-3.29-10.294-5.62-16.219-6.731v-5.131c0-4.353-3.529-7.881-7.881-7.881   s-7.881,3.528-7.881,7.881v5.131c-5.925,1.111-11.423,3.442-16.219,6.731l-3.636-3.637c-3.077-3.078-8.068-3.077-11.146,0   c-3.078,3.077-3.077,8.068,0,11.145l3.637,3.637c-3.29,4.796-5.62,10.294-6.73,16.219h-5.131c-4.353,0-7.881,3.529-7.881,7.881   S98.009,131.762,102.361,131.762z M149.467,96.926c14.863,0,26.955,12.093,26.955,26.954s-12.093,26.954-26.955,26.954   c-14.863,0-26.954-12.091-26.954-26.954S134.605,96.926,149.467,96.926z"/>
</g>
<path style="fill:#2E3033;" d="M21.536,488.099c-6.603,0-11.976-5.373-11.976-11.976V35.765c0-6.542,5.323-11.865,11.865-11.865  h1.565c6.604,0,11.976,5.373,11.976,11.976v440.247c0,6.604-5.373,11.976-11.976,11.976h-1.454V488.099z"/>
<path d="M22.99,14.34h-1.565C9.611,14.34,0,23.951,0,35.765v440.358c0,11.876,9.661,21.536,21.536,21.536h1.453  c11.876,0,21.536-9.661,21.536-21.536V35.876C44.526,24.001,34.865,14.34,22.99,14.34z M28.592,476.123  c0,3.089-2.513,5.602-5.602,5.602h-1.453c-3.089,0-5.602-2.513-5.602-5.602V35.765c0-3.028,2.463-5.492,5.492-5.492h1.565  c3.089,0,5.602,2.513,5.602,5.602v440.248H28.592z"/>
<g>
</g>
<g>
</g>
<g>
</g>
<g>
</g>
<g>
</g>
<g>
</g>
<g>
</g>
<g>
</g>
<g>
</g>
<g>
</g>
<g>
</g>
<g>
</g>
<g>
</g>
<g>
</g>
<g>
</g>
</svg>
