<?xml version="1.0" encoding="iso-8859-1"?>
<!-- Generator: Adobe Illustrator 19.0.0, SVG Export Plug-In . SVG Version: 6.00 Build 0)  -->
<svg xmlns="http://www.w3.org/2000/svg" xmlns:xlink="http://www.w3.org/1999/xlink" version="1.1" id="Layer_1" x="0px" y="0px" viewBox="0 0 512 512" style="enable-background:new 0 0 512 512;" xml:space="preserve">
<path style="fill:#FFFFFF;" d="M442.935,160.593H51.562v86.972h445.091v-86.972h-23.022c-4.239,0-7.674-3.436-7.674-7.674h-15.349  C450.608,157.157,447.173,160.593,442.935,160.593z M229.799,202.317l-15.856,12.822l5.292,19.692  c0.825,3.071-0.329,6.331-2.901,8.2c-1.342,0.974-2.925,1.466-4.51,1.466c-1.454,0-2.91-0.412-4.185-1.241l-17.093-11.118  l-17.093,11.118c-2.667,1.734-6.123,1.645-8.695-0.224s-3.726-5.129-2.9-8.2l5.292-19.693l-15.856-12.821  c-2.472-1.998-3.455-5.315-2.473-8.339c0.983-3.023,3.728-5.128,6.903-5.293l20.363-1.052l7.294-19.042  c1.137-2.97,3.986-4.929,7.166-4.929c3.18,0,6.029,1.96,7.167,4.929l7.293,19.042l20.364,1.052c3.174,0.164,5.92,2.269,6.902,5.293  S232.271,200.318,229.799,202.317z M396.92,202.317l-15.856,12.821l5.293,19.693c0.825,3.07-0.328,6.331-2.901,8.2  c-2.573,1.869-6.029,1.958-8.695,0.224l-17.091-11.118l-17.093,11.118c-1.274,0.83-2.732,1.241-4.185,1.241  c-1.586,0-3.168-0.491-4.51-1.466c-2.572-1.869-3.727-5.129-2.901-8.2l5.292-19.692l-15.856-12.822  c-2.472-1.998-3.456-5.315-2.473-8.339c0.982-3.023,3.727-5.128,6.902-5.293l20.364-1.052l7.293-19.042  c1.138-2.97,3.986-4.929,7.167-4.929c3.179,0,6.028,1.96,7.166,4.929l7.293,19.042l20.364,1.052  c3.175,0.164,5.921,2.269,6.903,5.293C400.376,197.001,399.392,200.318,396.92,202.317z"/>
<path style="fill:#259245;" d="M199.214,219.464l-1.388-5.164c-0.788-2.93,0.225-6.051,2.586-7.959l4.158-3.362l-5.34-0.276  c-3.032-0.156-5.684-2.084-6.77-4.918l-1.914-4.994l-1.913,4.994c-1.086,2.834-3.739,4.762-6.771,4.918l-5.339,0.276l4.159,3.362  c2.359,1.908,3.373,5.028,2.586,7.959l-1.389,5.163l4.482-2.916c1.272-0.827,2.73-1.241,4.185-1.241s2.913,0.414,4.185,1.241  L199.214,219.464z"/>
<path d="M225.37,188.685l-20.364-1.052l-7.293-19.042c-1.138-2.97-3.986-4.929-7.167-4.929s-6.029,1.96-7.166,4.929l-7.294,19.042  l-20.363,1.052c-3.175,0.164-5.921,2.269-6.903,5.293c-0.982,3.023,0.001,6.339,2.473,8.339l15.856,12.821l-5.292,19.693  c-0.825,3.07,0.328,6.331,2.9,8.2c2.572,1.869,6.028,1.958,8.695,0.224l17.093-11.118l17.093,11.118  c1.274,0.83,2.731,1.241,4.185,1.241c1.585,0,3.168-0.491,4.51-1.466c2.571-1.869,3.727-5.129,2.901-8.2l-5.292-19.692  l15.856-12.822c2.472-1.998,3.456-5.315,2.473-8.339S228.544,188.849,225.37,188.685z M186.361,216.548l-4.482,2.916l1.389-5.163  c0.787-2.931-0.227-6.051-2.586-7.959l-4.159-3.362l5.339-0.276c3.032-0.156,5.685-2.084,6.771-4.918l1.913-4.994l1.914,4.994  c1.086,2.834,3.738,4.762,6.77,4.918l5.34,0.276l-4.158,3.362c-2.36,1.908-3.374,5.028-2.586,7.959l1.388,5.164l-4.483-2.916  c-1.271-0.827-2.73-1.241-4.185-1.241S187.633,215.721,186.361,216.548z"/>
<path style="fill:#259245;" d="M361.853,216.548l4.482,2.916l-1.388-5.163c-0.787-2.931,0.227-6.051,2.586-7.959l4.159-3.362  l-5.339-0.276c-3.033-0.156-5.685-2.084-6.771-4.918l-1.913-4.994l-1.914,4.994c-1.086,2.834-3.739,4.762-6.771,4.918l-5.339,0.276  l4.158,3.362c2.36,1.908,3.374,5.028,2.586,7.959l-1.388,5.164l4.483-2.916C356.027,214.893,359.309,214.893,361.853,216.548z"/>
<path d="M392.491,188.685l-20.364-1.052l-7.293-19.042c-1.138-2.97-3.986-4.929-7.166-4.929s-6.029,1.96-7.167,4.929l-7.293,19.042  l-20.364,1.052c-3.175,0.164-5.921,2.269-6.902,5.293c-0.983,3.023,0.001,6.339,2.473,8.339l15.856,12.822l-5.292,19.692  c-0.825,3.071,0.328,6.331,2.901,8.2c1.342,0.974,2.924,1.466,4.51,1.466c1.453,0,2.91-0.412,4.185-1.241l17.093-11.118  l17.091,11.118c2.665,1.734,6.122,1.645,8.695-0.224c2.572-1.869,3.727-5.129,2.901-8.2l-5.293-19.693l15.856-12.821  c2.472-1.998,3.456-5.315,2.474-8.339C398.412,190.954,395.666,188.849,392.491,188.685z M349.001,219.464l1.388-5.164  c0.788-2.93-0.225-6.051-2.586-7.959l-4.158-3.362l5.339-0.276c3.032-0.156,5.685-2.084,6.771-4.918l1.914-4.994l1.913,4.994  c1.086,2.834,3.738,4.762,6.771,4.918l5.339,0.276l-4.159,3.362c-2.359,1.908-3.373,5.028-2.586,7.959l1.388,5.163l-4.482-2.916  c-2.543-1.655-5.825-1.655-8.369,0L349.001,219.464z"/>
<path style="fill:#ED1F34;" d="M442.935,145.245c4.239,0,7.674,3.436,7.674,7.674h15.349c0-4.238,3.435-7.674,7.674-7.674h23.022  V58.273H51.562v86.971h391.373V145.245z"/>
<rect x="51.562" y="262.909" style="fill:#333333;" width="445.088" height="86.968"/>
<path d="M504.326,42.925H43.888c-4.239,0-7.674,3.436-7.674,7.674v306.959c0,4.239,3.435,7.674,7.674,7.674h460.438  c4.239,0,7.674-3.436,7.674-7.674V50.599C512,46.361,508.565,42.925,504.326,42.925z M496.652,58.273v86.971H473.63  c-4.239,0-7.674,3.436-7.674,7.674c0,4.239,3.435,7.674,7.674,7.674h23.022v86.972H51.562v-86.972h391.373  c4.239,0,7.674-3.436,7.674-7.674c0-4.238-3.435-7.674-7.674-7.674H51.562V58.273H496.652z M51.562,349.884v-86.972h445.091v86.972  H51.562z"/>
<path style="fill:#2E3033;" d="M20.97,482.004c-6.429,0-11.661-5.232-11.661-11.661V41.55c0-6.371,5.183-11.554,11.554-11.554h1.524  c6.431,0,11.661,5.232,11.661,11.661v428.685c0,6.431-5.232,11.661-11.661,11.661H20.97V482.004z"/>
<path d="M22.386,20.687h-1.524C9.359,20.687,0,30.046,0,41.55v428.793c0,11.563,9.407,20.97,20.97,20.97h1.415  c11.564,0,20.97-9.407,20.97-20.97V41.657C43.357,30.094,33.949,20.687,22.386,20.687z M27.841,470.343  c0,3.008-2.447,5.455-5.455,5.455h-1.415c-3.008,0-5.455-2.447-5.455-5.455V41.55c0-2.949,2.399-5.348,5.348-5.348h1.524  c3.008,0,5.455,2.447,5.455,5.455v428.686H27.841z"/>
<g>
</g>
<g>
</g>
<g>
</g>
<g>
</g>
<g>
</g>
<g>
</g>
<g>
</g>
<g>
</g>
<g>
</g>
<g>
</g>
<g>
</g>
<g>
</g>
<g>
</g>
<g>
</g>
<g>
</g>
</svg>
