<?xml version="1.0" encoding="iso-8859-1"?>
<!-- Generator: Adobe Illustrator 19.0.0, SVG Export Plug-In . SVG Version: 6.00 Build 0)  -->
<svg xmlns="http://www.w3.org/2000/svg" xmlns:xlink="http://www.w3.org/1999/xlink" version="1.1" id="Layer_1" x="0px" y="0px" viewBox="0 0 512 512" style="enable-background:new 0 0 512 512;" xml:space="preserve">
<path style="fill:#ED1F34;" d="M134.44,350.272h362.149V57.472H49.683v292.802h53.938c4.256,0,7.705,3.449,7.705,7.705h15.411  C126.735,353.722,130.185,350.272,134.44,350.272z M167.83,169.712c0-4.256,3.45-7.705,7.706-7.705h55.735v-55.735  c0-4.256,3.449-7.705,7.705-7.705h68.32c4.256,0,7.705,3.45,7.705,7.705v55.735h55.735c4.256,0,7.705,3.45,7.705,7.705v68.32  c0,4.255-3.449,7.705-7.705,7.705h-55.735v55.735c0,4.256-3.449,7.705-7.705,7.705h-68.32c-4.256,0-7.705-3.449-7.705-7.705v-55.735  h-55.735c-4.256,0-7.706-3.45-7.706-7.705V169.712z"/>
<path style="fill:#FFFFFF;" d="M246.681,238.032v55.735h52.908v-55.735c0-4.256,3.45-7.706,7.706-7.706h55.734v-52.909h-55.734  c-4.256,0-7.706-3.449-7.706-7.705v-55.735h-52.908v55.735c0,4.256-3.45,7.705-7.706,7.705H183.24v52.909h55.735  C243.231,230.326,246.681,233.777,246.681,238.032z"/>
<path d="M175.535,245.737h55.735v55.735c0,4.256,3.449,7.705,7.705,7.705h68.32c4.256,0,7.705-3.449,7.705-7.705v-55.735h55.735  c4.256,0,7.705-3.45,7.705-7.705v-68.32c0-4.256-3.449-7.705-7.705-7.705H315v-55.735c0-4.256-3.449-7.705-7.705-7.705h-68.32  c-4.256,0-7.705,3.45-7.705,7.705v55.735h-55.735c-4.256,0-7.706,3.45-7.706,7.705v68.32  C167.83,242.287,171.28,245.737,175.535,245.737z M183.24,177.417h55.735c4.256,0,7.706-3.449,7.706-7.705v-55.735h52.908v55.735  c0,4.256,3.45,7.705,7.706,7.705h55.734v52.909h-55.734c-4.256,0-7.706,3.45-7.706,7.706v55.735h-52.908v-55.735  c0-4.256-3.45-7.706-7.706-7.706H183.24V177.417z"/>
<path d="M504.294,42.061H41.978c-4.257,0-7.706,3.45-7.706,7.705v308.212c0,4.256,3.449,7.705,7.706,7.705h61.641  c4.256,0,7.705-3.45,7.705-7.705s-3.449-7.705-7.705-7.705H49.683V57.472h446.906v292.802H134.44c-4.256,0-7.705,3.449-7.705,7.705  c0,4.256,3.449,7.705,7.705,7.705h369.854c4.257,0,7.706-3.45,7.706-7.705V49.766C512,45.511,508.551,42.061,504.294,42.061z"/>
<path style="fill:#2E3033;" d="M21.055,482.921c-6.456,0-11.708-5.253-11.708-11.708V40.68c0-6.396,5.204-11.6,11.6-11.6h1.53  c6.457,0,11.708,5.253,11.708,11.708v430.424c0,6.457-5.253,11.708-11.708,11.708h-1.422V482.921z"/>
<path d="M22.477,19.732h-1.53C9.397,19.732,0,29.129,0,40.68v430.533c0,11.61,9.446,21.055,21.055,21.055h1.421  c11.611,0,21.055-9.446,21.055-21.055V40.788C43.532,29.178,34.087,19.732,22.477,19.732z M27.954,471.212  c0,3.02-2.457,5.477-5.477,5.477h-1.421c-3.02,0-5.477-2.457-5.477-5.477V40.68c0-2.961,2.408-5.369,5.369-5.369h1.53  c3.02,0,5.477,2.457,5.477,5.477v430.425H27.954z"/>
<g>
</g>
<g>
</g>
<g>
</g>
<g>
</g>
<g>
</g>
<g>
</g>
<g>
</g>
<g>
</g>
<g>
</g>
<g>
</g>
<g>
</g>
<g>
</g>
<g>
</g>
<g>
</g>
<g>
</g>
</svg>
