<?xml version="1.0" encoding="iso-8859-1"?>
<!-- Generator: Adobe Illustrator 19.0.0, SVG Export Plug-In . SVG Version: 6.00 Build 0)  -->
<svg xmlns="http://www.w3.org/2000/svg" xmlns:xlink="http://www.w3.org/1999/xlink" version="1.1" id="Layer_1" x="0px" y="0px" viewBox="0 0 512 512" style="enable-background:new 0 0 512 512;" xml:space="preserve">
<g>
	<rect x="50.63" y="57.873" style="fill:#164FCE;" width="136.768" height="116.112"/>
	<rect x="50.63" y="233.965" style="fill:#164FCE;" width="136.768" height="116.112"/>
	<rect x="247.366" y="57.873" style="fill:#164FCE;" width="249.253" height="116.112"/>
	<path style="fill:#164FCE;" d="M442.795,233.962c-4.247,0-7.689-3.443-7.689-7.689h-15.38c0,4.246-3.442,7.689-7.689,7.689H247.371   v116.111h249.251V233.962H442.795z"/>
</g>
<path style="fill:#FFE000;" d="M442.795,218.584h53.827v-29.22H239.681c-4.247,0-7.689-3.442-7.689-7.689V57.873h-29.219v123.801  c0,4.247-3.442,7.689-7.689,7.689H50.63v29.22h144.453c4.247,0,7.689,3.443,7.689,7.689v123.8h29.219v-123.8  c0-4.247,3.442-7.689,7.689-7.689h172.355c4.247,0,7.689,3.443,7.689,7.689h15.38C435.106,222.027,438.548,218.584,442.795,218.584z  "/>
<path d="M504.311,42.494H42.941c-4.247,0-7.689,3.443-7.689,7.689v307.58c0,4.247,3.442,7.689,7.689,7.689h461.37  c4.247,0,7.689-3.443,7.689-7.689V50.183C512,45.937,508.558,42.494,504.311,42.494z M187.393,173.985H50.63V57.873h136.763V173.985  z M50.63,233.962h136.763v116.111H50.63V233.962z M247.371,350.074V233.962h164.666c4.247,0,7.689-3.443,7.689-7.689  c0-4.247-3.442-7.689-7.689-7.689H239.681c-4.247,0-7.689,3.443-7.689,7.689v123.8h-29.219v-123.8c0-4.247-3.442-7.689-7.689-7.689  H50.63v-29.22h144.453c4.247,0,7.689-3.442,7.689-7.689V57.873h29.219v123.801c0,4.247,3.442,7.689,7.689,7.689h256.94v29.22  h-53.827c-4.247,0-7.689,3.443-7.689,7.689c0,4.246,3.442,7.689,7.689,7.689h53.827v116.111H247.371V350.074z M496.621,173.985  H247.371V57.873h249.251V173.985z"/>
<path style="fill:#2E3033;" d="M21.013,482.462c-6.442,0-11.685-5.242-11.685-11.685V41.115c0-6.383,5.194-11.577,11.577-11.577  h1.527c6.444,0,11.685,5.242,11.685,11.685v429.552c0,6.444-5.242,11.685-11.685,11.685h-1.419V482.462z"/>
<path d="M22.432,20.211h-1.527C9.378,20.211,0,29.588,0,41.115v429.661c0,11.587,9.426,21.013,21.013,21.013h1.418  c11.587,0,21.013-9.426,21.013-21.013V41.223C43.444,29.637,34.018,20.211,22.432,20.211z M27.898,470.777  c0,3.014-2.452,5.466-5.466,5.466h-1.418c-3.014,0-5.466-2.452-5.466-5.466V41.115c0-2.955,2.403-5.358,5.358-5.358h1.527  c3.014,0,5.466,2.452,5.466,5.466v429.553H27.898z"/>
<g>
</g>
<g>
</g>
<g>
</g>
<g>
</g>
<g>
</g>
<g>
</g>
<g>
</g>
<g>
</g>
<g>
</g>
<g>
</g>
<g>
</g>
<g>
</g>
<g>
</g>
<g>
</g>
<g>
</g>
</svg>
