<?xml version="1.0" encoding="iso-8859-1"?>
<!-- Generator: Adobe Illustrator 19.0.0, SVG Export Plug-In . SVG Version: 6.00 Build 0)  -->
<svg xmlns="http://www.w3.org/2000/svg" xmlns:xlink="http://www.w3.org/1999/xlink" version="1.1" id="Layer_1" x="0px" y="0px" viewBox="0 0 511.999 511.999" style="enable-background:new 0 0 511.999 511.999;" xml:space="preserve">
<g>
	<rect x="51.551" y="58.274" style="fill:#164FCE;" width="445.099" height="36.838"/>
	<rect x="51.551" y="313.054" style="fill:#164FCE;" width="445.099" height="36.838"/>
</g>
<path style="fill:#FFE000;" d="M496.651,295.66H105.269c-4.238,0-7.674-3.435-7.674-7.674H82.248c0,4.239-3.436,7.674-7.674,7.674  H51.551v17.391h445.101L496.651,295.66L496.651,295.66z"/>
<path style="fill:#B21727;" d="M105.269,280.312h391.382v-152.46H51.551v152.459h23.022c4.239,0,7.674,3.435,7.674,7.675h15.349  C97.595,283.747,101.032,280.312,105.269,280.312z M111.891,196.408h74.236c2.474-3.481,6.769-9.093,12.736-15.349h-56.274  c-4.238,0-7.674-3.435-7.674-7.674c0-4.239,3.436-7.674,7.674-7.674h73.545c14.844-11.039,34.414-20.464,57.969-20.464  s43.126,9.426,57.969,20.464h73.545c4.239,0,7.674,3.435,7.674,7.674c0,4.239-3.435,7.674-7.674,7.674h-56.275  c5.966,6.256,10.261,11.868,12.736,15.349h74.236c4.239,0,7.674,3.435,7.674,7.675c0,4.239-3.436,7.674-7.674,7.674h-74.236  c-8.74,12.299-40.147,51.161-87.975,51.161c-47.827,0-79.235-38.861-87.975-51.161h-74.236c-4.239,0-7.674-3.435-7.674-7.674  C104.216,199.843,107.652,196.408,111.891,196.408z"/>
<g>
	<path style="fill:#FFE000;" d="M111.891,211.757h74.236c-1.422-2-2.245-3.299-2.44-3.612c-1.55-2.486-1.55-5.637,0-8.124   c0.195-0.312,1.018-1.612,2.44-3.612h-74.236c-4.239,0-7.674,3.435-7.674,7.675C104.216,208.32,107.652,211.757,111.891,211.757z"/>
	<path style="fill:#FFE000;" d="M364.516,208.144c-0.194,0.313-1.018,1.613-2.44,3.612h74.236c4.239,0,7.674-3.435,7.674-7.674   c0-4.24-3.436-7.675-7.674-7.675h-74.236c1.422,2.001,2.245,3.3,2.44,3.612C366.068,202.506,366.068,205.658,364.516,208.144z"/>
	<path style="fill:#FFE000;" d="M216.132,165.712h-73.545c-4.238,0-7.674,3.435-7.674,7.674c0,4.239,3.436,7.674,7.674,7.674h56.275   C203.591,176.102,209.369,170.74,216.132,165.712z"/>
	<path style="fill:#FFE000;" d="M349.341,181.059h56.275c4.239,0,7.674-3.435,7.674-7.674c0-4.239-3.435-7.674-7.674-7.674h-73.545   C338.833,170.74,344.612,176.102,349.341,181.059z"/>
	<rect x="51.551" y="95.107" style="fill:#FFE000;" width="445.099" height="17.391"/>
</g>
<path d="M504.326,42.925H43.877c-4.239,0-7.675,3.435-7.675,7.674v306.966c0,4.239,3.436,7.674,7.674,7.674h460.449  c4.239,0,7.674-3.435,7.674-7.674V50.599C512,46.36,508.564,42.925,504.326,42.925z M496.651,58.273v36.838v17.391H51.551V95.112  V58.273H496.651z M51.551,349.89v-36.838V295.66h23.022c4.239,0,7.674-3.435,7.674-7.674c0-4.24-3.436-7.675-7.674-7.675H51.551  v-152.46h445.101v152.459H105.269c-4.238,0-7.674,3.435-7.674,7.675c0,4.239,3.436,7.674,7.674,7.674h391.382v17.391v36.838H51.551  V349.89z"/>
<path style="fill:#FFFFFF;" d="M274.101,247.57c38.727,0,65.983-31.969,74.542-43.487c-8.555-11.511-35.813-43.487-74.542-43.487  V247.57z"/>
<path style="fill:#333333;" d="M274.101,247.57v-86.974c-38.726,0-65.982,31.969-74.542,43.487  C208.114,215.593,235.372,247.57,274.101,247.57z"/>
<path d="M183.686,208.144c0.195,0.313,1.018,1.613,2.44,3.612c8.74,12.299,40.147,51.161,87.975,51.161s79.235-38.861,87.975-51.161  c1.422-2,2.245-3.299,2.44-3.612c1.552-2.486,1.552-5.637,0-8.124c-0.194-0.312-1.018-1.612-2.44-3.612  c-2.474-3.481-6.769-9.093-12.736-15.349c-4.729-4.958-10.508-10.32-17.27-15.348c-14.844-11.039-34.414-20.464-57.969-20.464  c-23.554,0-43.125,9.426-57.969,20.464c-6.764,5.028-12.541,10.39-17.27,15.348c-5.966,6.256-10.261,11.868-12.736,15.349  c-1.422,2.001-2.245,3.3-2.44,3.612C182.135,202.506,182.135,205.658,183.686,208.144z M199.559,204.083  c8.56-11.517,35.815-43.487,74.542-43.487c38.73,0,65.988,31.976,74.542,43.487c-8.56,11.517-35.815,43.487-74.542,43.487  C235.372,247.57,208.114,215.593,199.559,204.083z"/>
<path style="fill:#2E3033;" d="M20.97,482.004c-6.429,0-11.661-5.232-11.661-11.661V41.549c0-6.371,5.183-11.554,11.554-11.554  h1.524c6.431,0,11.661,5.232,11.661,11.661v428.685c0,6.431-5.232,11.661-11.661,11.661H20.97V482.004z"/>
<path d="M22.386,20.686h-1.524C9.359,20.686,0,30.045,0,41.549v428.793c0,11.563,9.407,20.97,20.97,20.97h1.415  c11.564,0,20.97-9.407,20.97-20.97V41.657C43.357,30.094,33.949,20.686,22.386,20.686z M27.841,470.342  c0,3.008-2.447,5.455-5.455,5.455h-1.415c-3.008,0-5.455-2.447-5.455-5.455V41.549c0-2.949,2.399-5.348,5.348-5.348h1.524  c3.008,0,5.455,2.447,5.455,5.455v428.686H27.841z"/>
<g>
</g>
<g>
</g>
<g>
</g>
<g>
</g>
<g>
</g>
<g>
</g>
<g>
</g>
<g>
</g>
<g>
</g>
<g>
</g>
<g>
</g>
<g>
</g>
<g>
</g>
<g>
</g>
<g>
</g>
</svg>
