<?xml version="1.0" encoding="iso-8859-1"?>
<!-- Generator: Adobe Illustrator 19.0.0, SVG Export Plug-In . SVG Version: 6.00 Build 0)  -->
<svg xmlns="http://www.w3.org/2000/svg" xmlns:xlink="http://www.w3.org/1999/xlink" version="1.1" id="Layer_1" x="0px" y="0px" viewBox="0 0 511.999 511.999" style="enable-background:new 0 0 511.999 511.999;" xml:space="preserve">
<g>
	<path style="fill:#259245;" d="M412.034,97.86c4.247,0,7.689,3.441,7.689,7.689h15.38c0-4.248,3.443-7.689,7.689-7.689h53.828   V57.873H50.619V97.86H412.034z"/>
	<rect x="50.619" y="310.091" style="fill:#259245;" width="446" height="39.987"/>
</g>
<rect x="50.619" y="275.236" style="fill:#FFFFFF;" width="446" height="19.482"/>
<path style="fill:#ED1F34;" d="M50.619,148.099v111.757H496.62V148.099H50.619z M312.952,202.213l-15.889,12.847l5.303,19.733  c0.826,3.076-0.33,6.344-2.907,8.217c-1.344,0.976-2.931,1.469-4.52,1.469c-1.457,0-2.915-0.411-4.192-1.244l-17.128-11.142  l-17.128,11.141c-2.671,1.739-6.136,1.649-8.712-0.225c-2.578-1.873-3.733-5.141-2.907-8.217l5.303-19.733l-15.889-12.847  c-2.478-2.003-3.464-5.326-2.479-8.357c0.985-3.03,3.735-5.14,6.916-5.303l20.405-1.054l7.308-19.082  c1.14-2.974,3.995-4.94,7.181-4.94c3.186,0,6.041,1.965,7.181,4.94l7.308,19.082l20.405,1.054c3.182,0.164,5.933,2.274,6.916,5.303  C316.416,196.886,315.429,200.209,312.952,202.213z"/>
<path style="fill:#FFE000;" d="M277.812,216.471l4.491,2.922l-1.391-5.174c-0.789-2.936,0.227-6.063,2.592-7.974l4.165-3.368  l-5.35-0.278c-3.037-0.155-5.696-2.089-6.783-4.929l-1.916-5.001l-1.916,5.002c-1.087,2.84-3.747,4.773-6.783,4.929l-5.35,0.278  l4.165,3.368c2.365,1.912,3.381,5.038,2.592,7.974l-1.391,5.174l4.491-2.922c1.275-0.828,2.733-1.243,4.192-1.243  S276.537,215.644,277.812,216.471z"/>
<path d="M315.43,193.856c-0.985-3.03-3.735-5.14-6.916-5.303l-20.405-1.054l-7.308-19.082c-1.14-2.974-3.995-4.94-7.181-4.94  s-6.041,1.965-7.181,4.94l-7.308,19.082l-20.405,1.054c-3.182,0.164-5.933,2.274-6.916,5.303c-0.985,3.031,0.001,6.353,2.479,8.357  l15.889,12.847l-5.303,19.733c-0.826,3.076,0.33,6.344,2.907,8.217c2.577,1.874,6.042,1.964,8.712,0.225l17.127-11.142  l17.128,11.141c1.277,0.832,2.735,1.244,4.192,1.244c1.589,0,3.176-0.492,4.52-1.469c2.578-1.873,3.733-5.141,2.907-8.217  l-5.303-19.733l15.889-12.847C315.429,200.209,316.416,196.886,315.43,193.856z M264.936,219.394l1.391-5.174  c0.789-2.936-0.227-6.063-2.592-7.974l-4.165-3.368l5.35-0.278c3.037-0.155,5.696-2.089,6.783-4.929l1.916-5.002l1.916,5.002  c1.088,2.84,3.747,4.773,6.784,4.929l5.35,0.278l-4.165,3.368c-2.365,1.912-3.381,5.038-2.592,7.974l1.391,5.174l-4.491-2.922  c-1.275-0.828-2.733-1.243-4.192-1.243s-2.918,0.415-4.192,1.243L264.936,219.394z"/>
<path style="fill:#FFFFFF;" d="M412.034,113.239H50.619v19.481H496.62v-19.481h-53.828c-4.246,0-7.689-3.442-7.689-7.689h-15.38  C419.724,109.797,416.281,113.239,412.034,113.239z"/>
<path d="M504.311,42.493H42.928c-4.246,0-7.689,3.442-7.689,7.69V357.77c0,4.247,3.443,7.69,7.689,7.69H504.31  c4.247,0,7.689-3.443,7.689-7.69V50.184C512,45.935,508.557,42.493,504.311,42.493z M496.62,57.873V97.86h-53.828  c-4.246,0-7.689,3.441-7.689,7.689c0,4.247,3.443,7.689,7.689,7.689h53.828v19.481H50.619v-19.481h361.415  c4.247,0,7.689-3.442,7.689-7.689c0-4.248-3.443-7.689-7.689-7.689H50.619V57.873H496.62z M496.62,275.235v19.482H50.619v-19.482  H496.62z M50.619,259.856V148.099H496.62v111.757H50.619L50.619,259.856z M50.619,350.081v-39.987H496.62v39.987H50.619z"/>
<path style="fill:#2E3033;" d="M21.013,482.461c-6.442,0-11.685-5.242-11.685-11.685V41.115c0-6.383,5.194-11.577,11.577-11.577  h1.527c6.444,0,11.685,5.242,11.685,11.685v429.552c0,6.444-5.242,11.685-11.685,11.685h-1.419V482.461z"/>
<path d="M22.432,20.21h-1.527C9.378,20.21,0,29.588,0,41.115v429.661c0,11.587,9.426,21.013,21.013,21.013h1.418  c11.587,0,21.013-9.426,21.013-21.013V41.223C43.444,29.636,34.018,20.21,22.432,20.21z M27.898,470.776  c0,3.014-2.452,5.466-5.466,5.466h-1.418c-3.014,0-5.466-2.452-5.466-5.466V41.115c0-2.955,2.403-5.358,5.358-5.358h1.527  c3.014,0,5.466,2.452,5.466,5.466v429.554H27.898z"/>
<g>
</g>
<g>
</g>
<g>
</g>
<g>
</g>
<g>
</g>
<g>
</g>
<g>
</g>
<g>
</g>
<g>
</g>
<g>
</g>
<g>
</g>
<g>
</g>
<g>
</g>
<g>
</g>
<g>
</g>
</svg>
