<?xml version="1.0" encoding="iso-8859-1"?>
<!-- Generator: Adobe Illustrator 19.0.0, SVG Export Plug-In . SVG Version: 6.00 Build 0)  -->
<svg xmlns="http://www.w3.org/2000/svg" xmlns:xlink="http://www.w3.org/1999/xlink" version="1.1" id="Layer_1" x="0px" y="0px" viewBox="0 0 511.996 511.996" style="enable-background:new 0 0 511.996 511.996;" xml:space="preserve">
<path style="fill:#FFFFFF;" d="M496.651,160.594H187.86l45.11,37.591c1.749,1.457,2.761,3.618,2.761,5.896  c0,2.277-1.012,4.437-2.761,5.895l-45.11,37.592h308.792V160.594z"/>
<polygon style="fill:#333333;" points="169.441,262.916 65.074,349.888 496.651,349.888 496.651,262.916 "/>
<path style="fill:#ED1F34;" d="M371.308,58.272H65.074l104.368,86.974h327.21V58.272h-94.648c-4.239,0-7.674-3.435-7.674-7.674  h-15.349C378.981,54.837,375.545,58.272,371.308,58.272z"/>
<polygon style="fill:#259245;" points="51.551,341.179 216.069,204.081 51.551,66.982 "/>
<path d="M504.326,42.923H402.005c-4.239,0-7.674,3.435-7.674,7.675c0,4.239,3.436,7.674,7.674,7.674h94.648v86.974H169.441  L65.074,58.272h306.234c4.239,0,7.674-3.435,7.674-7.674c0-4.24-3.436-7.675-7.674-7.675H43.926c-0.006,0-0.012,0-0.019,0h-0.031  c-0.061,0-0.12,0.008-0.18,0.009c-0.186,0.005-0.372,0.011-0.558,0.027c-0.123,0.012-0.242,0.034-0.363,0.053  c-0.125,0.018-0.25,0.031-0.374,0.057c-0.137,0.026-0.27,0.063-0.403,0.095c-0.108,0.027-0.215,0.052-0.322,0.084  c-0.131,0.039-0.259,0.086-0.388,0.132c-0.108,0.038-0.215,0.074-0.322,0.117c-0.117,0.049-0.23,0.103-0.343,0.156  c-0.114,0.054-0.229,0.106-0.34,0.164c-0.101,0.053-0.198,0.113-0.295,0.17c-0.119,0.07-0.237,0.139-0.353,0.215  c-0.09,0.06-0.175,0.125-0.263,0.189c-0.114,0.083-0.23,0.163-0.34,0.254c-0.093,0.074-0.179,0.157-0.269,0.237  c-0.096,0.086-0.194,0.169-0.287,0.26c-0.117,0.117-0.225,0.24-0.335,0.364c-0.054,0.061-0.111,0.115-0.163,0.178  c-0.004,0.004-0.007,0.01-0.012,0.016c-0.162,0.194-0.315,0.399-0.458,0.61c-0.02,0.029-0.034,0.059-0.053,0.087  c-0.119,0.181-0.234,0.366-0.337,0.559c-0.054,0.099-0.097,0.2-0.146,0.301c-0.061,0.125-0.125,0.248-0.179,0.378  c-0.05,0.119-0.089,0.24-0.132,0.362c-0.041,0.114-0.087,0.228-0.123,0.344c-0.044,0.143-0.077,0.288-0.112,0.433  c-0.024,0.099-0.054,0.194-0.074,0.295c-0.047,0.231-0.081,0.462-0.107,0.695c-0.002,0.017-0.005,0.033-0.007,0.051  c-0.026,0.254-0.038,0.511-0.038,0.765c0,0.006-0.001,0.012-0.001,0.019v306.965c0,0.006,0.001,0.011,0.001,0.017  c0,0.257,0.012,0.511,0.038,0.767c0.002,0.017,0.006,0.033,0.007,0.051c0.025,0.233,0.06,0.464,0.107,0.695  c0.021,0.101,0.051,0.198,0.074,0.296c0.035,0.145,0.067,0.289,0.111,0.431c0.036,0.117,0.082,0.231,0.123,0.345  c0.043,0.121,0.083,0.242,0.132,0.362c0.054,0.128,0.118,0.252,0.179,0.377c0.049,0.1,0.092,0.203,0.146,0.302  c0.106,0.194,0.221,0.384,0.343,0.568c0.017,0.025,0.03,0.052,0.047,0.077c0.143,0.212,0.297,0.415,0.458,0.61  c0.004,0.006,0.007,0.011,0.012,0.017c0.029,0.034,0.062,0.065,0.092,0.099c0.143,0.164,0.291,0.325,0.447,0.478  c0.078,0.076,0.158,0.145,0.238,0.215c0.118,0.108,0.237,0.21,0.362,0.309c0.094,0.074,0.189,0.146,0.285,0.214  c0.12,0.087,0.242,0.17,0.367,0.248c0.099,0.063,0.199,0.125,0.3,0.182c0.134,0.079,0.274,0.15,0.414,0.218  c0.094,0.047,0.188,0.095,0.284,0.138c0.16,0.07,0.325,0.133,0.491,0.194c0.081,0.028,0.159,0.061,0.241,0.088  c0.193,0.063,0.392,0.114,0.592,0.161c0.059,0.014,0.116,0.032,0.175,0.046c0.229,0.049,0.461,0.085,0.697,0.113  c0.033,0.004,0.065,0.011,0.098,0.014c0.267,0.028,0.537,0.044,0.811,0.044h460.449c4.239,0,7.674-3.436,7.674-7.675V50.598  C512,46.358,508.564,42.923,504.326,42.923z M232.969,209.976c1.749-1.457,2.761-3.618,2.761-5.895c0-2.278-1.012-4.438-2.761-5.896  l-45.11-37.591h308.792v86.974H187.86L232.969,209.976z M216.069,204.081L51.551,341.179V66.982L216.069,204.081z M65.074,349.888  l104.368-86.974h327.21v86.974H65.074z"/>
<path style="fill:#2E3033;" d="M20.97,482.002c-6.429,0-11.661-5.232-11.661-11.661V41.548c0-6.371,5.183-11.554,11.554-11.554  h1.524c6.431,0,11.661,5.232,11.661,11.661V470.34c0,6.431-5.232,11.661-11.661,11.661H20.97V482.002z"/>
<path d="M22.386,20.685h-1.524C9.359,20.685,0,30.044,0,41.548v428.793c0,11.563,9.407,20.97,20.97,20.97h1.415  c11.564,0,20.97-9.407,20.97-20.97V41.655C43.357,30.092,33.949,20.685,22.386,20.685z M27.841,470.341  c0,3.008-2.447,5.455-5.455,5.455h-1.415c-3.008,0-5.455-2.447-5.455-5.455V41.548c0-2.949,2.399-5.348,5.348-5.348h1.524  c3.008,0,5.455,2.447,5.455,5.455v428.686H27.841z"/>
<g>
</g>
<g>
</g>
<g>
</g>
<g>
</g>
<g>
</g>
<g>
</g>
<g>
</g>
<g>
</g>
<g>
</g>
<g>
</g>
<g>
</g>
<g>
</g>
<g>
</g>
<g>
</g>
<g>
</g>
</svg>
