<?xml version="1.0" encoding="iso-8859-1"?>
<!-- Generator: Adobe Illustrator 19.0.0, SVG Export Plug-In . SVG Version: 6.00 Build 0)  -->
<svg xmlns="http://www.w3.org/2000/svg" xmlns:xlink="http://www.w3.org/1999/xlink" version="1.1" id="Layer_1" x="0px" y="0px" viewBox="0 0 511.999 511.999" style="enable-background:new 0 0 511.999 511.999;" xml:space="preserve">
<path style="fill:#FFE000;" d="M377.687,80.942V57.873H169.552v292.209h208.134V111.702c0-4.248,3.443-7.69,7.689-7.69v-15.38  C381.129,88.631,377.687,85.188,377.687,80.942z M210.639,197.642l28.728-50.708l28.728,50.708l-28.728,50.706L210.639,197.642z   M273.619,308.991l-28.728-50.706l28.728-50.708l28.728,50.708L273.619,308.991z M307.871,248.347l-28.728-50.706l28.728-50.708  l28.728,50.708L307.871,248.347z"/>
<rect x="50.619" y="57.873" style="fill:#3DB4EA;" width="103.55" height="292.213"/>
<path style="fill:#259245;" d="M393.066,80.942c0,4.247-3.443,7.689-7.689,7.689v15.38c4.246,0,7.689,3.442,7.689,7.69v238.381  H496.62V57.873H393.066V80.942z"/>
<path d="M504.311,42.493H42.928c-4.246,0-7.689,3.442-7.689,7.689V357.77c0,4.248,3.443,7.69,7.689,7.69H504.31  c4.247,0,7.689-3.442,7.689-7.69V50.183C512,45.935,508.557,42.493,504.311,42.493z M496.62,350.081H393.066V111.7  c0-4.248-3.443-7.69-7.689-7.69c-4.247,0-7.689,3.442-7.689,7.69v238.381H169.552V57.873h208.134v23.069  c0,4.247,3.443,7.689,7.689,7.689c4.246,0,7.689-3.442,7.689-7.689V57.873h103.555v292.208H496.62z M50.619,57.873h103.555v292.209  H50.619V57.873z"/>
<g>
	<polygon style="fill:#259245;" points="244.891,258.286 273.619,308.991 302.347,258.286 273.619,207.578  "/>
	<polygon style="fill:#259245;" points="239.368,146.935 210.639,197.642 239.368,248.347 268.096,197.642  "/>
	<polygon style="fill:#259245;" points="279.143,197.642 307.871,248.347 336.6,197.642 307.871,146.935  "/>
</g>
<path style="fill:#2E3033;" d="M21.013,482.461c-6.442,0-11.685-5.242-11.685-11.685V41.115c0-6.383,5.194-11.577,11.577-11.577  h1.527c6.444,0,11.685,5.242,11.685,11.685v429.552c0,6.444-5.242,11.685-11.685,11.685h-1.419V482.461z"/>
<path d="M22.432,20.21h-1.527C9.378,20.21,0,29.588,0,41.115v429.661c0,11.587,9.426,21.013,21.013,21.013h1.418  c11.587,0,21.013-9.426,21.013-21.013V41.223C43.444,29.636,34.018,20.21,22.432,20.21z M27.898,470.776  c0,3.014-2.452,5.466-5.466,5.466h-1.418c-3.014,0-5.466-2.452-5.466-5.466V41.115c0-2.955,2.403-5.358,5.358-5.358h1.527  c3.014,0,5.466,2.452,5.466,5.466v429.554H27.898z"/>
<g>
</g>
<g>
</g>
<g>
</g>
<g>
</g>
<g>
</g>
<g>
</g>
<g>
</g>
<g>
</g>
<g>
</g>
<g>
</g>
<g>
</g>
<g>
</g>
<g>
</g>
<g>
</g>
<g>
</g>
</svg>
