<?xml version="1.0" encoding="iso-8859-1"?>
<!-- Generator: Adobe Illustrator 19.0.0, SVG Export Plug-In . SVG Version: 6.00 Build 0)  -->
<svg xmlns="http://www.w3.org/2000/svg" xmlns:xlink="http://www.w3.org/1999/xlink" version="1.1" id="Layer_1" x="0px" y="0px" viewBox="0 0 512 512" style="enable-background:new 0 0 512 512;" xml:space="preserve">
<path style="fill:#3DB4EA;" d="M73.688,57.874H50.619v292.209H496.62V57.874H104.446c-4.248,0-7.69-3.442-7.69-7.69H81.377  C81.377,54.432,77.935,57.874,73.688,57.874z M173.186,310.77l93.357-219.602c1.206-2.837,3.993-4.681,7.077-4.681  s5.87,1.843,7.077,4.681l20.229,47.583c1.661,3.908-0.161,8.424-4.069,10.086l0,0l6.018,14.154h0.001  c3.913-1.661,8.424,0.16,10.085,4.068l61.094,143.711c1.009,2.374,0.76,5.098-0.663,7.251c-1.424,2.153-3.832,3.447-6.413,3.447  H180.261c-2.581,0-4.988-1.294-6.413-3.447C172.425,315.868,172.175,313.144,173.186,310.77z"/>
<path d="M504.31,42.494H104.446c-4.248,0-7.69,3.442-7.69,7.689c0,4.248,3.442,7.69,7.69,7.69H496.62v292.209H50.619V57.874h23.069  c4.248,0,7.689-3.442,7.689-7.69c0-4.247-3.441-7.689-7.689-7.689H42.929c-4.248,0-7.69,3.442-7.69,7.689v307.588  c0,4.248,3.442,7.69,7.69,7.69h461.38c4.248,0,7.69-3.442,7.69-7.69V50.183C512,45.936,508.558,42.494,504.31,42.494z"/>
<path style="fill:#FFFFFF;" d="M286.771,144.769l-13.151-30.938l-78.978,185.777l26.715-26.327l52.262-122.934l52.262,122.934  l26.715,26.327l-53.791-126.532c-1.661-3.908,0.16-8.423,4.068-10.086l-6.018-14.154  C292.948,150.497,288.433,148.677,286.771,144.769z"/>
<polygon style="fill:#333333;" points="325.882,273.282 273.619,150.348 221.357,273.282 273.619,221.779 "/>
<polygon style="fill:#FFE000;" points="273.619,221.779 221.357,273.282 194.642,299.608 191.887,306.088 355.352,306.088   352.597,299.608 325.882,273.282 "/>
<path d="M180.261,321.468h186.715c2.582,0,4.989-1.294,6.413-3.447c1.423-2.153,1.672-4.876,0.663-7.251L312.96,167.058  c-1.661-3.908-6.172-5.728-10.085-4.068h-0.001c-3.908,1.662-5.728,6.177-4.068,10.086l53.791,126.532l2.755,6.48H191.887  l2.755-6.48l78.978-185.777l13.151,30.938c1.662,3.908,6.177,5.728,10.085,4.068l0,0c3.908-1.662,5.729-6.177,4.069-10.086  l-20.229-47.583c-1.206-2.837-3.993-4.681-7.077-4.681s-5.87,1.843-7.077,4.681l-93.357,219.602  c-1.011,2.374-0.76,5.098,0.663,7.251C175.272,320.173,177.681,321.468,180.261,321.468z"/>
<path style="fill:#2E3033;" d="M21.013,482.462c-6.442,0-11.685-5.242-11.685-11.685V41.115c0-6.383,5.194-11.577,11.577-11.577  h1.527c6.444,0,11.685,5.242,11.685,11.685v429.552c0,6.444-5.242,11.685-11.685,11.685h-1.419V482.462z"/>
<path d="M22.432,20.211h-1.527C9.378,20.211,0,29.588,0,41.115v429.661c0,11.587,9.426,21.013,21.013,21.013h1.418  c11.587,0,21.013-9.426,21.013-21.013V41.223C43.444,29.637,34.018,20.211,22.432,20.211z M27.898,470.777  c0,3.014-2.452,5.466-5.466,5.466h-1.418c-3.014,0-5.466-2.452-5.466-5.466V41.115c0-2.955,2.403-5.358,5.358-5.358h1.527  c3.014,0,5.466,2.452,5.466,5.466v429.554H27.898z"/>
<g>
</g>
<g>
</g>
<g>
</g>
<g>
</g>
<g>
</g>
<g>
</g>
<g>
</g>
<g>
</g>
<g>
</g>
<g>
</g>
<g>
</g>
<g>
</g>
<g>
</g>
<g>
</g>
<g>
</g>
</svg>
