<?xml version="1.0" encoding="iso-8859-1"?>
<!-- Generator: Adobe Illustrator 19.0.0, SVG Export Plug-In . SVG Version: 6.00 Build 0)  -->
<svg xmlns="http://www.w3.org/2000/svg" xmlns:xlink="http://www.w3.org/1999/xlink" version="1.1" id="Layer_1" x="0px" y="0px" viewBox="0 0 512 512" style="enable-background:new 0 0 512 512;" xml:space="preserve">
<path style="fill:#FFFFFF;" d="M62.775,52.94H39.132v299.466h457.106V52.94H94.299c-4.354,0-7.882-3.529-7.882-7.881H70.656  C70.656,49.411,67.128,52.94,62.775,52.94z M347.382,303.652c-3.879,1.975-8.624,0.427-10.598-3.452l-7.7-15.142  c-15.55,17.291-37.698,27.308-61.401,27.308s-45.851-10.018-61.401-27.308l-7.7,15.142c-1.973,3.88-6.719,5.427-10.598,3.452  c-3.879-1.973-5.425-6.717-3.453-10.597l13.361-26.271c1.278-2.511,3.798-4.15,6.612-4.298c2.827-0.148,5.494,1.218,7.025,3.582  c12.403,19.121,33.395,30.537,56.153,30.537s43.752-11.416,56.153-30.537c1.533-2.363,4.209-3.726,7.025-3.582  c2.813,0.148,5.334,1.787,6.612,4.298l13.361,26.271C352.808,296.936,351.263,301.68,347.382,303.652z M371.741,132.057  c3.001-1.666,6.734-1.2,9.231,1.151c2.498,2.351,3.188,6.048,1.704,9.143l-18.622,38.86c0.189-0.008,0.375-0.023,0.563-0.029  c0.069-0.001,0.14-0.002,0.209-0.002c13.012,0,23.599-10.589,23.599-23.604c0-4.353,3.528-7.881,7.881-7.881h41.598  c0.003,0,0.006,0,0.01,0h17.894c4.353,0,7.881,3.528,7.881,7.881c0,4.352-3.528,7.881-7.881,7.881h-10.412  c-2.816,29.343-21.218,54.641-48.224,66.34l14.454,35.031c0.533,1.062,0.833,2.262,0.833,3.532c0,4.352-3.528,7.881-7.882,7.881  c-0.004,0-0.013,0-0.02,0h-39.73c-4.353,0-7.881-3.529-7.881-7.881v-30.47c-12.512-3.622-21.484-15.068-21.484-28.757  c0-5.451,1.429-10.544,3.93-14.932l18.379-38.352l-10.6,5.889c-3.803,2.113-8.604,0.744-10.718-3.062  c-2.113-3.805-0.742-8.602,3.062-10.716L371.741,132.057z M201.616,104.432c1.962-0.704,3.933-1.365,5.912-2.004  c0.087-0.03,0.17-0.066,0.257-0.092c0.041-0.013,0.083-0.019,0.123-0.031c19.259-6.183,39.334-9.325,59.774-9.325  s40.515,3.142,59.773,9.324c0.041,0.012,0.083,0.019,0.123,0.031c0.088,0.027,0.171,0.063,0.258,0.092  c1.979,0.639,3.952,1.3,5.912,2.004c4.096,1.471,6.224,5.985,4.754,10.081c-1.156,3.215-4.185,5.219-7.417,5.219  c-0.176,0-0.353-0.011-0.53-0.022l-7.107,23.496v59.493c0,9.291-1.416,17.413-3.735,24.491c-0.01,0.027-0.018,0.053-0.025,0.08  c-5.151,15.657-14.727,26.176-23.187,32.839c-13.156,10.363-26.372,13.711-26.929,13.849c-0.62,0.154-1.257,0.23-1.891,0.23  c-0.634,0-1.269-0.076-1.891-0.23c-0.556-0.137-13.773-3.486-26.929-13.849c-8.46-6.663-18.036-17.182-23.187-32.839  c-0.008-0.027-0.018-0.053-0.024-0.08c-2.32-7.078-3.736-15.2-3.736-24.491v-59.493l-7.109-23.498  c-3.425,0.232-6.728-1.803-7.946-5.194C195.391,110.417,197.519,105.903,201.616,104.432z M79.562,149.695h17.892  c0.004,0,0.007,0,0.011,0h41.598c4.353,0,7.881,3.528,7.881,7.881c0,13.015,10.586,23.604,23.599,23.604  c0.069,0,0.14,0.001,0.209,0.002c0.188,0.005,0.375,0.021,0.563,0.029l-18.622-38.86c-1.483-3.094-0.793-6.792,1.704-9.143  c2.499-2.351,6.232-2.817,9.23-1.151l32.225,17.902c3.806,2.114,5.176,6.911,3.062,10.716s-6.912,5.175-10.717,3.062l-10.6-5.889  l18.379,38.352c2.502,4.388,3.93,9.48,3.93,14.932c0,13.69-8.971,25.136-21.484,28.757v30.47c0,4.352-3.528,7.881-7.881,7.881  h-39.73c-2.63,0-5.087-1.312-6.55-3.498c-1.463-2.186-1.739-4.957-0.735-7.388l14.672-35.556  c-27.006-11.7-45.408-36.997-48.224-66.34H79.562c-4.353,0-7.881-3.529-7.881-7.881C71.681,153.224,75.21,149.695,79.562,149.695z"/>
<path d="M504.118,37.178H94.299c-4.354,0-7.882,3.529-7.882,7.881s3.528,7.881,7.882,7.881h401.938v299.466H39.132V52.94h23.643  c4.354,0,7.881-3.529,7.881-7.881s-3.528-7.881-7.881-7.881H31.251c-4.354,0-7.882,3.529-7.882,7.881v315.227  c0,4.352,3.528,7.881,7.882,7.881h472.867c4.354,0,7.882-3.529,7.882-7.881V45.059C512,40.707,508.472,37.178,504.118,37.178z"/>
<path d="M79.562,165.457h10.412c2.816,29.343,21.218,54.641,48.224,66.34l-14.672,35.556c-1.003,2.431-0.728,5.202,0.735,7.388  c1.463,2.186,3.92,3.498,6.55,3.498h39.73c4.353,0,7.881-3.529,7.881-7.881v-30.47c12.512-3.622,21.484-15.068,21.484-28.757  c0-5.451-1.429-10.544-3.93-14.932l-18.379-38.352l10.6,5.889c3.805,2.113,8.603,0.743,10.717-3.062s0.744-8.602-3.062-10.716  l-32.225-17.902c-2.998-1.666-6.731-1.199-9.23,1.151c-2.498,2.351-3.188,6.048-1.704,9.143l18.622,38.86  c-0.189-0.008-0.376-0.023-0.563-0.029c-0.069-0.001-0.14-0.002-0.209-0.002c-13.012,0-23.599-10.589-23.599-23.604  c0-4.353-3.528-7.881-7.881-7.881H97.465c-0.003,0-0.006,0-0.011,0H79.562c-4.353,0-7.881,3.528-7.881,7.881  C71.681,161.928,75.21,165.457,79.562,165.457z M184.144,211.132c0,7.749-6.066,13.981-13.811,14.186  c-4.27,0.114-7.672,3.607-7.672,7.879v29.282h-20.072l13.285-32.203c0.843-2.042,0.79-4.342-0.146-6.344s-2.668-3.517-4.775-4.18  c-24.743-7.782-42.122-29.06-45.141-54.296h26.16c3.652,17.903,19.496,31.426,38.446,31.486  C178.125,197.192,184.144,203.408,184.144,211.132z"/>
<path style="fill:#FFFFFF;" d="M131.974,165.457h-26.16c3.019,25.237,20.398,46.516,45.141,54.296  c2.106,0.663,3.839,2.179,4.775,4.18s0.989,4.302,0.146,6.344L142.59,262.48h20.072v-29.282c0-4.271,3.401-7.764,7.672-7.879  c7.745-0.205,13.811-6.437,13.811-14.186c0-7.724-6.02-13.941-13.724-14.19C151.471,196.883,135.627,183.36,131.974,165.457z"/>
<path d="M336.453,160.675c2.114,3.806,6.915,5.175,10.718,3.062l10.6-5.889L339.392,196.2c-2.502,4.388-3.93,9.48-3.93,14.932  c0,13.69,8.971,25.136,21.484,28.757v30.47c0,4.352,3.528,7.881,7.881,7.881h39.73c0.007,0,0.016,0,0.02,0  c4.354,0,7.882-3.529,7.882-7.881c0-1.27-0.3-2.47-0.833-3.532l-14.454-35.031c27.006-11.7,45.408-36.997,48.224-66.34h10.412  c4.353,0,7.881-3.529,7.881-7.881c0-4.353-3.528-7.881-7.881-7.881h-17.893c-0.003,0-0.006,0-0.01,0h-41.598  c-4.353,0-7.881,3.528-7.881,7.881c0,13.015-10.586,23.604-23.599,23.604c-0.069,0-0.14,0.001-0.209,0.002  c-0.189,0.005-0.375,0.021-0.563,0.029l18.622-38.86c1.483-3.094,0.793-6.792-1.704-9.143c-2.498-2.352-6.23-2.817-9.231-1.151  l-32.225,17.902C335.711,152.074,334.34,156.871,336.453,160.675z M429.555,165.457c-3.02,25.237-20.399,46.516-45.141,54.296  c-2.106,0.663-3.839,2.179-4.775,4.18c-0.936,2.001-0.989,4.302-0.147,6.344l13.286,32.203h-20.072v-29.282  c0-4.271-3.401-7.764-7.672-7.879c-7.745-0.205-13.812-6.437-13.812-14.186c0-7.724,6.022-13.941,13.725-14.19  c18.949-0.059,34.794-13.583,38.446-31.486L429.555,165.457L429.555,165.457z"/>
<path style="fill:#FFFFFF;" d="M364.949,196.942c-7.703,0.25-13.725,6.467-13.725,14.19c0,7.749,6.068,13.981,13.812,14.186  c4.27,0.114,7.672,3.607,7.672,7.879v29.282h20.072l-13.286-32.203c-0.842-2.042-0.789-4.342,0.147-6.344  c0.936-2.001,2.668-3.517,4.775-4.18c24.742-7.782,42.121-29.06,45.141-54.296h-26.16  C399.742,183.36,383.898,196.883,364.949,196.942z"/>
<path style="fill:#ED1F34;" d="M227.681,202.699c0,5.223,0.559,9.971,1.529,14.306h76.95c0.97-4.335,1.529-9.083,1.529-14.306  v-11.361H227.68v11.361H227.681z"/>
<g>
	<path style="fill:#164FCE;" d="M235.381,232.766c9.933,16.804,26.609,23.47,32.304,25.327c5.695-1.857,22.372-8.523,32.303-25.327   H235.381z"/>
	<path style="fill:#164FCE;" d="M283.873,149.917c-0.024,0-0.05,0.003-0.075,0.003c-0.023,0-0.048-0.003-0.07-0.003h-32.119   c-0.022,0-0.048,0.003-0.071,0.003c-0.025,0-0.051-0.003-0.075-0.003h-23.781v25.659h80.008v-25.659H283.873z"/>
</g>
<g>
	<path style="fill:#FFE000;" d="M219.905,115.172l5.744,18.983h17.182l-2.357-23.369   C233.532,111.841,226.669,113.309,219.905,115.172z"/>
	<path style="fill:#FFE000;" d="M256.146,109.106l2.527,25.05h17.991l2.527-25.051c-3.819-0.241-7.655-0.363-11.505-0.363   C263.822,108.741,259.975,108.864,256.146,109.106z"/>
	<path style="fill:#FFE000;" d="M292.504,134.156h17.217l5.744-18.983c-6.776-1.865-13.649-3.337-20.603-4.391L292.504,134.156z"/>
</g>
<path d="M204.81,119.707l7.109,23.498v59.493c0,9.291,1.416,17.413,3.736,24.491c0.007,0.027,0.017,0.053,0.024,0.08  c5.151,15.657,14.727,26.176,23.187,32.839c13.156,10.363,26.372,13.711,26.929,13.849c0.621,0.154,1.257,0.23,1.891,0.23  s1.27-0.076,1.891-0.23c0.556-0.137,13.773-3.486,26.929-13.849c8.46-6.663,18.036-17.182,23.187-32.839  c0.008-0.027,0.017-0.053,0.025-0.08c2.319-7.078,3.735-15.2,3.735-24.491v-59.493l7.107-23.496c0.177,0.012,0.354,0.022,0.53,0.022  c3.231,0,6.262-2.003,7.417-5.219c1.471-4.096-0.656-8.609-4.754-10.081c-1.962-0.704-3.933-1.365-5.912-2.004  c-0.087-0.03-0.17-0.066-0.258-0.092c-0.04-0.013-0.082-0.019-0.123-0.031c-19.259-6.183-39.333-9.324-59.773-9.324  s-40.516,3.142-59.774,9.325c-0.04,0.012-0.082,0.018-0.123,0.031c-0.087,0.027-0.17,0.063-0.257,0.092  c-1.979,0.639-3.952,1.3-5.912,2.004c-4.096,1.471-6.225,5.985-4.754,10.081C198.081,117.906,201.385,119.94,204.81,119.707z   M267.685,258.093c-5.695-1.857-22.372-8.523-32.304-25.327h64.607C290.057,249.569,273.379,256.236,267.685,258.093z   M307.689,202.699c0,5.223-0.559,9.971-1.529,14.306h-76.95c-0.97-4.335-1.529-9.083-1.529-14.306v-11.361h80.008v11.361H307.689z   M227.681,175.577v-25.659h23.78c0.024,0,0.05,0.003,0.075,0.003c0.023,0,0.049-0.003,0.071-0.003h32.119  c0.022,0,0.047,0.003,0.07,0.003c0.025,0,0.051-0.003,0.075-0.003h23.815v25.659H227.681z M309.721,134.156h-17.217l2.358-23.375  c6.954,1.055,13.827,2.525,20.603,4.391L309.721,134.156z M225.649,134.156l-5.744-18.983c6.764-1.862,13.626-3.331,20.568-4.386  l2.357,23.369H225.649z M276.663,134.156h-17.991l-2.527-25.05c3.829-0.242,7.678-0.365,11.539-0.365  c3.851,0,7.686,0.123,11.505,0.363L276.663,134.156z"/>
<path style="fill:#FFE000;" d="M337.475,266.784c-1.278-2.511-3.799-4.15-6.612-4.298c-2.816-0.144-5.492,1.218-7.025,3.582  c-12.403,19.121-33.395,30.537-56.153,30.537c-22.76,0-43.752-11.416-56.153-30.537c-1.531-2.363-4.198-3.73-7.025-3.582  c-2.814,0.148-5.334,1.787-6.612,4.298l-13.361,26.271c-1.972,3.88-0.426,8.624,3.453,10.597c3.878,1.975,8.624,0.428,10.598-3.452  l7.7-15.142c15.55,17.291,37.698,27.308,61.401,27.308s45.851-10.018,61.401-27.308l7.7,15.142  c1.973,3.879,6.718,5.427,10.598,3.452c3.879-1.973,5.425-6.717,3.453-10.597L337.475,266.784z"/>
<path style="fill:#2E3033;" d="M21.536,488.1c-6.603,0-11.976-5.373-11.976-11.976V35.766c0-6.542,5.323-11.865,11.865-11.865h1.565  c6.604,0,11.976,5.373,11.976,11.976v440.247c0,6.604-5.373,11.976-11.976,11.976h-1.454V488.1z"/>
<path d="M22.99,14.34h-1.565C9.611,14.34,0,23.951,0,35.766v440.358C0,488,9.661,497.66,21.536,497.66h1.453  c11.876,0,21.536-9.661,21.536-21.536V35.876C44.526,24.001,34.865,14.34,22.99,14.34z M28.592,476.124  c0,3.089-2.513,5.602-5.602,5.602h-1.453c-3.089,0-5.602-2.513-5.602-5.602V35.766c0-3.028,2.463-5.492,5.492-5.492h1.565  c3.089,0,5.602,2.513,5.602,5.602v440.248H28.592z"/>
<g>
</g>
<g>
</g>
<g>
</g>
<g>
</g>
<g>
</g>
<g>
</g>
<g>
</g>
<g>
</g>
<g>
</g>
<g>
</g>
<g>
</g>
<g>
</g>
<g>
</g>
<g>
</g>
<g>
</g>
</svg>
