<?xml version="1.0" encoding="iso-8859-1"?>
<!-- Generator: Adobe Illustrator 19.0.0, SVG Export Plug-In . SVG Version: 6.00 Build 0)  -->
<svg xmlns="http://www.w3.org/2000/svg" xmlns:xlink="http://www.w3.org/1999/xlink" version="1.1" id="Layer_1" x="0px" y="0px" viewBox="0 0 512 512" style="enable-background:new 0 0 512 512;" xml:space="preserve">
<path style="fill:#BF2300;" d="M473.63,81.295H289.455v245.568h184.176V81.295H473.63z M332.43,229.147  c0,4.238-3.435,7.674-7.674,7.674c-4.24,0-7.675-3.436-7.675-7.674v-56.276c0-4.239,3.435-7.674,7.675-7.674  c4.239,0,7.674,3.436,7.674,7.674V229.147z M446.004,229.147v29.672c0,4.239-3.435,7.674-7.674,7.674  c-4.24,0-7.675-3.436-7.675-7.674v-21.998h-13.301v21.998c0,4.239-3.435,7.674-7.674,7.674c-4.24,0-7.675-3.436-7.675-7.674v-21.998  h-45.02v21.998c0,4.239-3.435,7.674-7.674,7.674c-4.24,0-7.675-3.436-7.675-7.674v-29.672v-62.153  c0-13.968,11.363-25.331,25.331-25.331c13.969,0,25.331,11.363,25.331,25.331v8.434h26.589c14.951,0,27.115,12.164,27.115,27.114  L446.004,229.147L446.004,229.147z"/>
<path style="fill:#FFE000;" d="M74.583,58.273H51.562v291.61h445.091V58.273H105.28c-4.239,0-7.674-3.436-7.674-7.674H82.257  C82.257,54.838,78.822,58.273,74.583,58.273z M289.455,81.295h184.176v245.568H289.455V81.295z M166.672,81.295h92.088v245.568  h-92.088H74.584V81.295H166.672z"/>
<path d="M504.326,42.925H105.28c-4.239,0-7.674,3.436-7.674,7.674c0,4.239,3.435,7.674,7.674,7.674h391.373v291.61H51.562V58.273  h23.022c4.239,0,7.674-3.436,7.674-7.674s-3.435-7.674-7.674-7.674H43.888c-4.239,0-7.674,3.436-7.674,7.674v306.959  c0,4.238,3.435,7.674,7.674,7.674h460.438c4.239,0,7.674-3.436,7.674-7.674V50.599C512,46.361,508.565,42.925,504.326,42.925z"/>
<rect x="74.587" y="81.299" style="fill:#134923;" width="92.088" height="245.563"/>
<rect x="166.674" y="81.299" style="fill:#FF7900;" width="92.088" height="245.563"/>
<path d="M324.756,165.197c-4.24,0-7.675,3.436-7.675,7.674v56.276c0,4.238,3.435,7.674,7.675,7.674c4.239,0,7.674-3.436,7.674-7.674  v-56.276C332.43,168.633,328.994,165.197,324.756,165.197z"/>
<path style="fill:#FFE000;" d="M430.655,202.544c0-6.488-5.279-11.767-11.767-11.767h-34.263c-4.239,0-7.675-3.435-7.675-7.674  v-16.109c0-5.505-4.478-9.983-9.982-9.983c-5.504,0-9.982,4.479-9.982,9.983v54.478h73.67v-18.928H430.655z"/>
<path d="M418.888,175.429H392.3v-8.434c0-13.968-11.362-25.331-25.331-25.331c-13.968,0-25.331,11.363-25.331,25.331v62.152v29.672  c0,4.239,3.435,7.674,7.675,7.674c4.239,0,7.674-3.436,7.674-7.674V236.82h45.02v21.998c0,4.239,3.435,7.674,7.675,7.674  c4.239,0,7.674-3.436,7.674-7.674V236.82h13.301v21.998c0,4.239,3.435,7.674,7.675,7.674c4.239,0,7.674-3.436,7.674-7.674v-29.672  v-26.603C446.004,187.593,433.841,175.429,418.888,175.429z M356.986,221.473v-54.478c0-5.505,4.479-9.983,9.982-9.983  c5.505,0,9.982,4.479,9.982,9.983v16.108c0,4.239,3.436,7.674,7.675,7.674h34.263c6.487,0,11.767,5.279,11.767,11.767v18.928  h-73.669V221.473z"/>
<path style="fill:#2E3033;" d="M20.97,482.004c-6.429,0-11.661-5.232-11.661-11.661V41.55c0-6.371,5.183-11.554,11.554-11.554h1.524  c6.431,0,11.661,5.232,11.661,11.661v428.685c0,6.431-5.232,11.661-11.661,11.661H20.97V482.004z"/>
<path d="M22.386,20.687h-1.524C9.359,20.687,0,30.046,0,41.55v428.793c0,11.563,9.407,20.97,20.97,20.97h1.415  c11.564,0,20.97-9.407,20.97-20.97V41.657C43.357,30.094,33.949,20.687,22.386,20.687z M27.841,470.343  c0,3.008-2.447,5.455-5.455,5.455h-1.415c-3.008,0-5.455-2.447-5.455-5.455V41.55c0-2.949,2.399-5.348,5.348-5.348h1.524  c3.008,0,5.455,2.447,5.455,5.455v428.686H27.841z"/>
<g>
</g>
<g>
</g>
<g>
</g>
<g>
</g>
<g>
</g>
<g>
</g>
<g>
</g>
<g>
</g>
<g>
</g>
<g>
</g>
<g>
</g>
<g>
</g>
<g>
</g>
<g>
</g>
<g>
</g>
</svg>
