<?xml version="1.0" encoding="iso-8859-1"?>
<!-- Generator: Adobe Illustrator 19.0.0, SVG Export Plug-In . SVG Version: 6.00 Build 0)  -->
<svg xmlns="http://www.w3.org/2000/svg" xmlns:xlink="http://www.w3.org/1999/xlink" version="1.1" id="Layer_1" x="0px" y="0px" viewBox="0 0 511.999 511.999" style="enable-background:new 0 0 511.999 511.999;" xml:space="preserve">
<path style="fill:#FFE000;" d="M442.653,273.22h53.938V134.524H49.683v138.695h362.148c4.256,0,7.705,3.45,7.705,7.705h15.411  C434.948,276.669,438.397,273.22,442.653,273.22z"/>
<g>
	<rect x="49.683" y="57.472" style="fill:#ED1F34;" width="446.904" height="61.637"/>
	<path style="fill:#ED1F34;" d="M442.653,288.629c-4.255,0-7.705-3.45-7.705-7.705h-15.411c0,4.256-3.45,7.705-7.705,7.705H49.683   v61.643h446.906v-61.643H442.653z"/>
</g>
<path d="M504.295,42.06H41.977c-4.255,0-7.705,3.45-7.705,7.705v308.212c0,4.256,3.45,7.705,7.705,7.705h462.317  c4.256,0,7.705-3.45,7.705-7.705V49.765C512,45.51,508.55,42.06,504.295,42.06z M496.589,57.471v61.641H49.683V57.471H496.589z   M49.683,350.272v-61.643h362.148c4.256,0,7.705-3.45,7.705-7.705s-3.45-7.705-7.705-7.705H49.683V134.524h446.906v138.695h-53.938  c-4.255,0-7.705,3.45-7.705,7.705s3.45,7.705,7.705,7.705h53.938v61.643L49.683,350.272L49.683,350.272z"/>
<path style="fill:#2E3033;" d="M21.055,482.92c-6.456,0-11.708-5.253-11.708-11.708V40.679c0-6.396,5.204-11.6,11.6-11.6h1.53  c6.457,0,11.708,5.253,11.708,11.708v430.424c0,6.457-5.253,11.708-11.708,11.708h-1.422V482.92z"/>
<path d="M22.477,19.732h-1.53C9.397,19.732,0,29.128,0,40.679v430.533c0,11.61,9.446,21.055,21.055,21.055h1.421  c11.611,0,21.055-9.446,21.055-21.055V40.787C43.532,29.177,34.087,19.732,22.477,19.732z M27.954,471.212  c0,3.02-2.457,5.477-5.477,5.477h-1.421c-3.02,0-5.477-2.457-5.477-5.477V40.679c0-2.961,2.408-5.369,5.369-5.369h1.53  c3.02,0,5.477,2.457,5.477,5.477v430.425H27.954z"/>
<g>
</g>
<g>
</g>
<g>
</g>
<g>
</g>
<g>
</g>
<g>
</g>
<g>
</g>
<g>
</g>
<g>
</g>
<g>
</g>
<g>
</g>
<g>
</g>
<g>
</g>
<g>
</g>
<g>
</g>
</svg>
