<?xml version="1.0" encoding="iso-8859-1"?>
<!-- Generator: Adobe Illustrator 19.0.0, SVG Export Plug-In . SVG Version: 6.00 Build 0)  -->
<svg xmlns="http://www.w3.org/2000/svg" xmlns:xlink="http://www.w3.org/1999/xlink" version="1.1" id="Layer_1" x="0px" y="0px" viewBox="0 0 511.998 511.998" style="enable-background:new 0 0 511.998 511.998;" xml:space="preserve">
<path style="fill:#ED1F34;" d="M232.976,198.183c1.749,1.456,2.762,3.618,2.762,5.895c0,2.277-1.013,4.437-2.762,5.895  l-23.629,19.691h287.305v-51.172H209.347L232.976,198.183z"/>
<polygon style="fill:#259245;" points="169.45,262.911 65.084,349.883 496.652,349.883 496.652,262.911 "/>
<path style="fill:#333333;" d="M371.31,58.272H65.084l104.366,86.972h327.202V58.272h-94.647c-4.239,0-7.674-3.434-7.674-7.673  h-15.348C378.984,54.838,375.549,58.272,371.31,58.272z"/>
<g>
	<polygon style="fill:#FFFFFF;" points="209.347,178.491 496.652,178.491 496.652,160.592 187.867,160.592  "/>
	<polygon style="fill:#FFFFFF;" points="187.867,247.564 496.652,247.564 496.652,229.664 209.347,229.664  "/>
</g>
<path style="fill:#164FCE;" d="M51.562,341.173l164.514-137.095L51.562,66.983V341.173z M147.744,179.33  c1.869,2.572,1.959,6.03,0.224,8.695l-10.441,16.053l10.441,16.053c1.734,2.664,1.644,6.121-0.224,8.694  c-1.868,2.572-5.132,3.725-8.199,2.9l-18.492-4.97l-12.04,14.89c-1.483,1.834-3.692,2.849-5.968,2.849  c-0.791,0-1.591-0.122-2.371-0.375c-3.023-0.982-5.128-3.728-5.292-6.903l-0.988-19.123l-17.882-6.848  c-2.97-1.137-4.93-3.986-4.93-7.166c0-3.18,1.96-6.029,4.93-7.167l17.882-6.848l0.988-19.123c0.164-3.174,2.268-5.921,5.292-6.902  c3.024-0.984,6.341,0,8.339,2.473l12.04,14.89l18.492-4.971C142.613,175.608,145.874,176.759,147.744,179.33z"/>
<path style="fill:#FFE000;" d="M109.675,216.415l2.582-3.192c1.908-2.359,5.028-3.372,7.958-2.586l3.965,1.064l-2.238-3.44  c-1.655-2.544-1.655-5.824,0-8.368l2.238-3.441l-3.965,1.065c-2.929,0.786-6.052-0.228-7.958-2.586l-2.582-3.192l-0.212,4.099  c-0.156,3.032-2.085,5.685-4.918,6.77l-3.833,1.469l3.833,1.468c2.834,1.085,4.762,3.738,4.918,6.771L109.675,216.415z"/>
<path d="M139.544,176.43l-18.492,4.971l-12.04-14.89c-1.998-2.473-5.314-3.457-8.339-2.473c-3.023,0.982-5.128,3.728-5.292,6.902  l-0.988,19.123l-17.882,6.848c-2.97,1.138-4.93,3.986-4.93,7.167s1.96,6.029,4.93,7.166l17.882,6.848l0.988,19.123  c0.164,3.175,2.268,5.922,5.292,6.903c0.78,0.253,1.579,0.375,2.371,0.375c2.277,0,4.485-1.014,5.968-2.849l12.04-14.89l18.492,4.97  c3.067,0.824,6.331-0.327,8.199-2.9c1.869-2.572,1.959-6.029,0.224-8.694l-10.441-16.053l10.441-16.053  c1.734-2.664,1.644-6.122-0.224-8.695C145.874,176.759,142.613,175.608,139.544,176.43z M104.544,205.546l-3.833-1.468l3.833-1.469  c2.834-1.085,4.762-3.738,4.918-6.77l0.212-4.099l2.582,3.192c1.907,2.358,5.029,3.372,7.958,2.586l3.965-1.065l-2.238,3.441  c-1.655,2.543-1.655,5.823,0,8.368l2.238,3.44l-3.965-1.064c-2.93-0.786-6.051,0.227-7.958,2.586l-2.582,3.192l-0.212-4.099  C109.306,209.284,107.378,206.631,104.544,205.546z"/>
<path d="M504.326,42.924h-102.32c-4.239,0-7.674,3.435-7.674,7.675c0,4.239,3.435,7.673,7.674,7.673h94.647v86.972H169.45  L65.084,58.272h306.227c4.24,0,7.675-3.434,7.675-7.673c0-4.24-3.435-7.675-7.675-7.675H43.938c-0.006,0-0.012,0-0.019,0h-0.031  c-0.061,0-0.12,0.008-0.18,0.009c-0.186,0.005-0.372,0.011-0.558,0.027c-0.122,0.012-0.241,0.034-0.362,0.053  c-0.125,0.018-0.25,0.031-0.374,0.057c-0.137,0.026-0.27,0.063-0.404,0.095c-0.108,0.027-0.215,0.052-0.322,0.084  c-0.131,0.039-0.259,0.087-0.388,0.132c-0.108,0.038-0.215,0.074-0.322,0.117c-0.117,0.049-0.23,0.103-0.344,0.156  c-0.114,0.054-0.229,0.106-0.34,0.164c-0.1,0.053-0.197,0.113-0.295,0.17c-0.118,0.07-0.237,0.139-0.353,0.215  c-0.09,0.06-0.175,0.125-0.262,0.189c-0.115,0.083-0.23,0.163-0.34,0.254c-0.093,0.074-0.18,0.157-0.269,0.237  c-0.096,0.086-0.194,0.169-0.287,0.261c-0.117,0.116-0.225,0.239-0.335,0.363c-0.054,0.061-0.112,0.115-0.163,0.178  c-0.004,0.004-0.008,0.01-0.012,0.016c-0.162,0.194-0.317,0.399-0.458,0.61c-0.02,0.028-0.034,0.059-0.053,0.086  c-0.119,0.182-0.234,0.367-0.337,0.56c-0.053,0.099-0.096,0.2-0.145,0.301c-0.061,0.125-0.125,0.248-0.179,0.376  c-0.05,0.12-0.089,0.241-0.132,0.363c-0.041,0.114-0.087,0.228-0.123,0.343c-0.043,0.144-0.076,0.289-0.111,0.434  c-0.024,0.098-0.054,0.194-0.074,0.294c-0.047,0.231-0.081,0.462-0.107,0.696c-0.001,0.017-0.005,0.033-0.007,0.051  c-0.026,0.254-0.038,0.511-0.038,0.765c0,0.006-0.001,0.012-0.001,0.019v306.958c0,0.006,0.001,0.011,0.001,0.018  c0,0.255,0.012,0.511,0.038,0.766c0.002,0.017,0.006,0.033,0.007,0.051c0.025,0.233,0.06,0.464,0.107,0.695  c0.021,0.101,0.05,0.198,0.074,0.297c0.035,0.144,0.067,0.289,0.111,0.431c0.036,0.116,0.082,0.23,0.124,0.344  c0.043,0.121,0.083,0.242,0.132,0.362c0.054,0.129,0.118,0.252,0.178,0.378c0.049,0.099,0.092,0.202,0.146,0.301  c0.106,0.194,0.221,0.384,0.343,0.568c0.017,0.025,0.03,0.053,0.047,0.077c0.143,0.212,0.296,0.415,0.458,0.61  c0.004,0.006,0.007,0.012,0.012,0.017c0.029,0.035,0.062,0.065,0.092,0.099c0.143,0.165,0.29,0.325,0.447,0.478  c0.077,0.076,0.158,0.145,0.237,0.215c0.118,0.108,0.237,0.211,0.362,0.309c0.094,0.074,0.19,0.146,0.287,0.214  c0.12,0.087,0.242,0.17,0.367,0.248c0.099,0.064,0.199,0.125,0.3,0.184c0.135,0.077,0.274,0.148,0.414,0.216  c0.095,0.047,0.188,0.095,0.284,0.138c0.16,0.07,0.325,0.133,0.491,0.194c0.081,0.029,0.16,0.062,0.242,0.088  c0.193,0.064,0.391,0.114,0.592,0.162c0.059,0.013,0.116,0.032,0.175,0.044c0.229,0.049,0.461,0.085,0.697,0.113  c0.033,0.004,0.065,0.011,0.098,0.016c0.266,0.027,0.537,0.043,0.81,0.043h460.438c4.239,0,7.674-3.436,7.674-7.675V50.599  C512,46.359,508.565,42.924,504.326,42.924z M496.652,178.491v51.172v17.9H187.867l21.48-17.9l23.629-19.691  c1.749-1.457,2.762-3.618,2.762-5.895c0-2.277-1.013-4.438-2.762-5.895l-23.629-19.691l-21.48-17.9h308.786V178.491z   M216.076,204.078L51.562,341.173V66.983L216.076,204.078z M65.084,349.883l104.366-86.972h327.202v86.972H65.084z"/>
<path style="fill:#2E3033;" d="M20.97,482.003c-6.429,0-11.661-5.232-11.661-11.661V41.549c0-6.371,5.183-11.554,11.554-11.554  h1.524c6.431,0,11.661,5.232,11.661,11.661v428.685c0,6.431-5.232,11.661-11.661,11.661H20.97V482.003z"/>
<path d="M22.386,20.686h-1.524C9.359,20.686,0,30.045,0,41.549v428.793c0,11.563,9.407,20.97,20.97,20.97h1.415  c11.564,0,20.97-9.407,20.97-20.97V41.656C43.357,30.093,33.949,20.686,22.386,20.686z M27.841,470.342  c0,3.008-2.447,5.455-5.455,5.455h-1.415c-3.008,0-5.455-2.447-5.455-5.455V41.549c0-2.949,2.399-5.348,5.348-5.348h1.524  c3.008,0,5.455,2.447,5.455,5.455v428.686H27.841z"/>
<g>
</g>
<g>
</g>
<g>
</g>
<g>
</g>
<g>
</g>
<g>
</g>
<g>
</g>
<g>
</g>
<g>
</g>
<g>
</g>
<g>
</g>
<g>
</g>
<g>
</g>
<g>
</g>
<g>
</g>
</svg>
