<?xml version="1.0" encoding="iso-8859-1"?>
<!-- Generator: Adobe Illustrator 19.0.0, SVG Export Plug-In . SVG Version: 6.00 Build 0)  -->
<svg xmlns="http://www.w3.org/2000/svg" xmlns:xlink="http://www.w3.org/1999/xlink" version="1.1" id="Layer_1" x="0px" y="0px" viewBox="0 0 512 512" style="enable-background:new 0 0 512 512;" xml:space="preserve">
<path style="fill:#FFFFFF;" d="M104.446,350.082H496.62V57.874H50.619v292.209h23.069c4.248,0,7.689,3.442,7.689,7.689h15.38  C96.756,353.525,100.199,350.082,104.446,350.082z M171.82,304.483c-1.211,0.7-2.532,1.031-3.838,1.031  c-2.656,0-5.242-1.378-6.666-3.845l-9.099-15.761c-2.124-3.677-0.863-8.381,2.814-10.504c3.676-2.122,8.383-0.864,10.505,2.815  l9.099,15.76C176.758,297.658,175.498,302.36,171.82,304.483z M148.629,271.996c-2.656,0-5.242-1.378-6.666-3.845l-9.099-15.761  c-2.124-3.678-0.863-8.381,2.814-10.504c3.676-2.123,8.383-0.864,10.504,2.815l9.1,15.76c2.124,3.678,0.863,8.381-2.815,10.504  C151.257,271.664,149.934,271.996,148.629,271.996z M189.579,294.232c-1.211,0.699-2.533,1.03-3.838,1.03  c-2.657,0-5.243-1.377-6.667-3.845l-28.451-49.281c-2.124-3.677-0.863-8.381,2.815-10.504c3.676-2.124,8.382-0.864,10.504,2.815  l28.451,49.279C194.516,287.405,193.256,292.107,189.579,294.232z M361.498,295.262c-1.305,0-2.626-0.332-3.838-1.03  c-3.677-2.125-4.938-6.827-2.814-10.505l9.099-15.76c2.123-3.679,6.825-4.939,10.504-2.815c3.678,2.124,4.939,6.826,2.815,10.504  l-9.099,15.761C366.741,293.885,364.156,295.262,361.498,295.262z M374.198,250.207l9.099-15.76c2.123-3.68,6.825-4.94,10.504-2.815  c3.678,2.124,4.94,6.827,2.815,10.504l-9.099,15.761c-1.424,2.467-4.009,3.845-6.667,3.845c-1.304,0-2.625-0.332-3.838-1.03  C373.335,258.588,372.075,253.886,374.198,250.207z M377.012,147.242c3.677-2.122,8.383-0.863,10.505,2.815l9.099,15.761  c2.125,3.677,0.863,8.381-2.815,10.504c-1.211,0.699-2.532,1.031-3.838,1.031c-2.656,0-5.242-1.378-6.666-3.846l-9.099-15.761  C372.075,154.07,373.335,149.366,377.012,147.242z M401.056,244.701c2.123-3.679,6.824-4.94,10.505-2.815  c3.677,2.124,4.938,6.826,2.814,10.504l-9.099,15.761c-1.424,2.467-4.009,3.845-6.666,3.845c-1.305,0-2.626-0.332-3.838-1.031  c-3.678-2.124-4.939-6.826-2.815-10.504L401.056,244.701z M379.257,305.515c-1.306,0-2.626-0.332-3.838-1.031  c-3.678-2.124-4.939-6.826-2.815-10.504l9.099-15.76c2.123-3.679,6.824-4.938,10.505-2.815c3.677,2.124,4.938,6.827,2.814,10.504  l-9.099,15.761C384.499,304.136,381.914,305.515,379.257,305.515z M412.782,296.162l-9.099,15.761  c-1.423,2.468-4.009,3.845-6.666,3.845c-1.305,0-2.626-0.332-3.838-1.031c-3.678-2.124-4.939-6.826-2.815-10.504l9.1-15.761  c2.123-3.679,6.823-4.938,10.504-2.814C413.645,287.781,414.906,292.484,412.782,296.162z M432.133,262.643l-9.099,15.761  c-1.423,2.467-4.008,3.845-6.666,3.845c-1.305,0-2.626-0.332-3.838-1.031c-3.677-2.124-4.939-6.826-2.814-10.504l9.099-15.761  c2.123-3.678,6.823-4.938,10.504-2.814C432.997,254.262,434.258,258.964,432.133,262.643z M423.034,129.552l9.099,15.761  c2.125,3.677,0.863,8.381-2.814,10.504c-1.211,0.7-2.533,1.031-3.838,1.031c-2.657,0-5.243-1.378-6.666-3.846l-9.099-15.761  c-2.125-3.677-0.863-8.38,2.814-10.504C416.206,124.615,420.912,125.874,423.034,129.552z M393.178,93.217  c3.676-2.124,8.381-0.863,10.504,2.815l9.099,15.761c2.125,3.677,0.863,8.381-2.814,10.504c-1.211,0.699-2.533,1.031-3.838,1.031  c-2.657,0-5.243-1.378-6.666-3.846l-9.1-15.761C388.24,100.044,389.5,95.341,393.178,93.217z M375.419,103.471  c3.675-2.123,8.382-0.864,10.504,2.815l28.451,49.281c2.124,3.677,0.863,8.381-2.814,10.504c-1.211,0.699-2.533,1.031-3.838,1.031  c-2.657,0-5.243-1.378-6.667-3.846l-28.451-49.281C370.481,110.298,371.741,105.594,375.419,103.471z M357.66,113.724  c3.677-2.123,8.382-0.864,10.505,2.815l9.099,15.761c2.124,3.677,0.863,8.381-2.815,10.504c-1.211,0.699-2.533,1.031-3.838,1.031  c-2.656,0-5.243-1.38-6.666-3.846l-9.099-15.761C352.722,120.551,353.983,115.847,357.66,113.724z M273.619,119.39  c46.641,0,84.587,37.946,84.587,84.587s-37.946,84.587-84.587,84.587s-84.587-37.945-84.587-84.586S226.979,119.39,273.619,119.39z   M189.579,113.724c3.677,2.124,4.938,6.827,2.814,10.504l-28.451,49.281c-1.424,2.468-4.009,3.846-6.666,3.846  c-1.306,0-2.627-0.333-3.838-1.031c-3.678-2.124-4.939-6.827-2.815-10.504l28.451-49.281  C181.196,112.86,185.898,111.6,189.579,113.724z M171.82,103.471c3.678,2.124,4.939,6.827,2.815,10.504l-28.452,49.281  c-1.423,2.468-4.008,3.846-6.666,3.846c-1.305,0-2.625-0.333-3.838-1.031c-3.677-2.124-4.938-6.827-2.814-10.504l28.451-49.281  C163.437,102.606,168.14,101.347,171.82,103.471z M115.105,145.313l28.452-49.281c2.123-3.678,6.824-4.94,10.504-2.815  c3.677,2.124,4.939,6.827,2.814,10.504l-28.451,49.281c-1.423,2.468-4.009,3.846-6.666,3.846c-1.305,0-2.626-0.332-3.838-1.031  C114.241,153.693,112.981,148.99,115.105,145.313z M117.919,252.138c3.676-2.123,8.382-0.864,10.504,2.814l28.451,49.281  c2.125,3.678,0.863,8.381-2.814,10.504c-1.211,0.7-2.533,1.031-3.838,1.031c-2.657,0-5.243-1.377-6.666-3.845l-28.452-49.281  C112.981,258.964,114.241,254.262,117.919,252.138z"/>
<path d="M504.31,42.494H42.929c-4.248,0-7.69,3.442-7.69,7.689v307.588c0,4.248,3.442,7.69,7.69,7.69h30.758  c4.248,0,7.689-3.442,7.689-7.69c0-4.247-3.441-7.689-7.689-7.689H50.619V57.874H496.62v292.209H104.446  c-4.248,0-7.69,3.442-7.69,7.689c0,4.248,3.442,7.69,7.69,7.69H504.31c4.248,0,7.69-3.442,7.69-7.69V50.183  C512,45.936,508.558,42.494,504.31,42.494z"/>
<path style="fill:#103B9B;" d="M273.619,273.185c38.161,0,69.207-31.045,69.207-69.207H204.412  C204.412,242.14,235.459,273.185,273.619,273.185z"/>
<path style="fill:#ED1F34;" d="M342.826,203.978c0-38.161-31.046-69.207-69.207-69.207s-69.207,31.046-69.207,69.207H342.826z"/>
<path d="M273.619,288.564c46.641,0,84.587-37.945,84.587-84.586s-37.946-84.588-84.587-84.588s-84.587,37.946-84.587,84.587  S226.979,288.564,273.619,288.564z M273.619,134.77c38.161,0,69.207,31.046,69.207,69.207c0,38.162-31.046,69.207-69.207,69.207  s-69.207-31.045-69.207-69.207C204.412,165.816,235.459,134.77,273.619,134.77z"/>
<path d="M117.919,155.817c1.212,0.7,2.533,1.031,3.838,1.031c2.656,0,5.243-1.378,6.666-3.846l28.451-49.281  c2.125-3.677,0.863-8.381-2.814-10.504c-3.68-2.125-8.382-0.863-10.504,2.815l-28.452,49.281  C112.981,148.99,114.241,153.693,117.919,155.817z"/>
<path d="M153.437,176.323c1.211,0.699,2.532,1.031,3.838,1.031c2.656,0,5.242-1.378,6.666-3.846l28.451-49.281  c2.124-3.677,0.863-8.381-2.814-10.504c-3.68-2.124-8.383-0.864-10.505,2.815l-28.451,49.281  C148.499,169.496,149.759,174.199,153.437,176.323z"/>
<path d="M135.678,166.069c1.213,0.699,2.533,1.031,3.838,1.031c2.657,0,5.243-1.378,6.666-3.846l28.452-49.281  c2.124-3.677,0.863-8.381-2.815-10.504c-3.68-2.124-8.383-0.864-10.504,2.815l-28.451,49.281  C130.741,159.243,132.001,163.947,135.678,166.069z"/>
<path d="M409.968,285.658c-3.681-2.124-8.382-0.865-10.504,2.814l-9.1,15.761c-2.124,3.678-0.863,8.381,2.815,10.504  c1.212,0.7,2.533,1.031,3.838,1.031c2.656,0,5.243-1.377,6.666-3.845l9.099-15.761C414.906,292.484,413.645,287.781,409.968,285.658  z"/>
<path d="M429.32,252.138c-3.681-2.124-8.382-0.864-10.504,2.814l-9.099,15.761c-2.125,3.678-0.863,8.381,2.814,10.504  c1.212,0.7,2.533,1.031,3.838,1.031c2.657,0,5.243-1.378,6.666-3.845l9.099-15.761C434.258,258.964,432.997,254.262,429.32,252.138z  "/>
<path d="M374.449,265.152c-3.679-2.124-8.382-0.864-10.504,2.815l-9.099,15.76c-2.124,3.678-0.863,8.381,2.814,10.505  c1.212,0.699,2.533,1.03,3.838,1.03c2.657,0,5.243-1.377,6.667-3.845l9.099-15.761C379.388,271.978,378.128,267.275,374.449,265.152  z"/>
<path d="M377.012,260.713c1.213,0.699,2.534,1.03,3.838,1.03c2.657,0,5.243-1.378,6.667-3.845l9.099-15.761  c2.125-3.677,0.863-8.381-2.815-10.504c-3.679-2.125-8.382-0.865-10.504,2.815l-9.099,15.76  C372.075,253.886,373.335,258.588,377.012,260.713z"/>
<path d="M392.209,275.405c-3.681-2.123-8.383-0.864-10.505,2.815l-9.099,15.76c-2.124,3.678-0.863,8.381,2.815,10.504  c1.212,0.7,2.532,1.031,3.838,1.031c2.656,0,5.242-1.378,6.666-3.845l9.099-15.761C397.146,282.232,395.886,277.528,392.209,275.405  z"/>
<path d="M394.772,270.964c1.212,0.7,2.533,1.031,3.838,1.031c2.656,0,5.242-1.378,6.666-3.845l9.099-15.761  c2.124-3.678,0.863-8.381-2.814-10.504c-3.681-2.125-8.383-0.864-10.505,2.815l-9.099,15.76  C389.833,264.139,391.093,268.841,394.772,270.964z"/>
<path d="M399.464,119.483c1.423,2.468,4.008,3.846,6.666,3.846c1.305,0,2.627-0.333,3.838-1.031  c3.677-2.124,4.939-6.827,2.814-10.504l-9.099-15.761c-2.124-3.678-6.828-4.939-10.504-2.815c-3.678,2.124-4.939,6.827-2.815,10.504  L399.464,119.483z"/>
<path d="M409.717,137.241l9.099,15.761c1.423,2.468,4.008,3.846,6.666,3.846c1.305,0,2.627-0.332,3.838-1.031  c3.677-2.124,4.939-6.827,2.814-10.504l-9.099-15.761c-2.123-3.677-6.828-4.937-10.504-2.815  C408.853,128.861,407.592,133.564,409.717,137.241z"/>
<path d="M363.945,139.988c1.423,2.467,4.009,3.846,6.666,3.846c1.305,0,2.627-0.333,3.838-1.031  c3.678-2.124,4.939-6.827,2.815-10.504l-9.099-15.761c-2.124-3.679-6.828-4.938-10.505-2.815c-3.677,2.124-4.938,6.827-2.814,10.504  L363.945,139.988z"/>
<path d="M383.297,173.508c1.424,2.468,4.009,3.846,6.666,3.846c1.306,0,2.627-0.333,3.838-1.031  c3.678-2.124,4.94-6.827,2.815-10.504l-9.099-15.761c-2.123-3.678-6.828-4.937-10.505-2.815c-3.677,2.124-4.938,6.827-2.814,10.504  L383.297,173.508z"/>
<path d="M401.056,163.255c1.424,2.468,4.009,3.846,6.667,3.846c1.305,0,2.627-0.333,3.838-1.031  c3.677-2.124,4.938-6.827,2.814-10.504l-28.451-49.281c-2.123-3.679-6.829-4.938-10.504-2.815  c-3.678,2.124-4.939,6.827-2.815,10.504L401.056,163.255z"/>
<path d="M143.557,311.923c1.423,2.468,4.008,3.845,6.666,3.845c1.305,0,2.627-0.332,3.838-1.031  c3.677-2.124,4.939-6.826,2.814-10.504l-28.451-49.281c-2.123-3.678-6.828-4.937-10.504-2.814  c-3.678,2.124-4.939,6.826-2.815,10.504L143.557,311.923z"/>
<path d="M163.942,234.447c-2.123-3.679-6.828-4.939-10.504-2.815c-3.678,2.124-4.939,6.827-2.815,10.504l28.451,49.281  c1.424,2.468,4.009,3.845,6.667,3.845c1.305,0,2.627-0.332,3.838-1.03c3.677-2.125,4.938-6.827,2.814-10.505L163.942,234.447z"/>
<path d="M165.536,278.219c-2.123-3.679-6.829-4.937-10.505-2.815c-3.677,2.124-4.938,6.827-2.814,10.504l9.099,15.761  c1.424,2.467,4.009,3.845,6.666,3.845c1.306,0,2.627-0.332,3.838-1.031c3.678-2.124,4.939-6.826,2.815-10.504L165.536,278.219z"/>
<path d="M155.282,260.461l-9.1-15.76c-2.122-3.679-6.828-4.938-10.504-2.815c-3.677,2.124-4.938,6.826-2.814,10.504l9.099,15.761  c1.424,2.467,4.009,3.845,6.666,3.845c1.305,0,2.627-0.332,3.838-1.031C156.145,268.841,157.406,264.139,155.282,260.461z"/>
<path style="fill:#2E3033;" d="M21.013,482.462c-6.442,0-11.685-5.242-11.685-11.685V41.115c0-6.383,5.194-11.577,11.577-11.577  h1.527c6.444,0,11.685,5.242,11.685,11.685v429.552c0,6.444-5.242,11.685-11.685,11.685h-1.419V482.462z"/>
<path d="M22.432,20.211h-1.527C9.378,20.211,0,29.588,0,41.115v429.661c0,11.587,9.426,21.013,21.013,21.013h1.418  c11.587,0,21.013-9.426,21.013-21.013V41.223C43.444,29.637,34.018,20.211,22.432,20.211z M27.898,470.777  c0,3.014-2.452,5.466-5.466,5.466h-1.418c-3.014,0-5.466-2.452-5.466-5.466V41.115c0-2.955,2.403-5.358,5.358-5.358h1.527  c3.014,0,5.466,2.452,5.466,5.466v429.553H27.898z"/>
<g>
</g>
<g>
</g>
<g>
</g>
<g>
</g>
<g>
</g>
<g>
</g>
<g>
</g>
<g>
</g>
<g>
</g>
<g>
</g>
<g>
</g>
<g>
</g>
<g>
</g>
<g>
</g>
<g>
</g>
</svg>
