<?xml version="1.0" encoding="iso-8859-1"?>
<!-- Generator: Adobe Illustrator 19.0.0, SVG Export Plug-In . SVG Version: 6.00 Build 0)  -->
<svg xmlns="http://www.w3.org/2000/svg" xmlns:xlink="http://www.w3.org/1999/xlink" version="1.1" id="Layer_1" x="0px" y="0px" viewBox="0 0 512 512" style="enable-background:new 0 0 512 512;" xml:space="preserve">
<polygon style="fill:#164FCE;" points="74.271,349.884 496.652,349.884 496.652,240.982 276.102,240.982 "/>
<path style="fill:#ED1F34;" d="M412.239,58.273H74.271l201.823,108.898h220.558V58.273h-53.718c-4.239,0-7.674-3.434-7.674-7.674  h-15.349C419.912,54.839,416.476,58.273,412.239,58.273z"/>
<path style="fill:#048B7D;" d="M270.512,181.598L51.562,63.461v52.819l150.204,81.045c2.482,1.339,4.03,3.933,4.03,6.753  c0,2.821-1.547,5.413-4.03,6.753L51.562,291.878v52.82l218.957-118.144c1.12-0.603,2.372-0.921,3.644-0.921h222.488v-43.117H274.156  C272.884,182.518,271.631,182.202,270.512,181.598z"/>
<polygon style="fill:#333333;" points="51.562,133.719 51.562,274.437 181.962,204.079 "/>
<path style="fill:#FFE000;" d="M205.796,204.079c0-2.822-1.547-5.414-4.03-6.753L51.562,116.28v17.439l130.4,70.359l-130.4,70.359  v17.44l150.204-81.045C204.249,209.492,205.796,206.899,205.796,204.079z"/>
<g>
	<path style="fill:#FFFFFF;" d="M74.271,58.273H51.562v5.188l218.95,118.138c1.12,0.604,2.372,0.921,3.644,0.921h222.496v-15.349   H276.094L74.271,58.273z"/>
	<path style="fill:#FFFFFF;" d="M270.519,226.554L51.562,344.698v5.186h22.709l201.83-108.901h220.55v-15.349H274.164   C272.892,225.635,271.639,225.951,270.519,226.554z"/>
</g>
<path d="M504.326,42.925h-61.391c-4.239,0-7.674,3.435-7.674,7.674c0,4.24,3.436,7.674,7.674,7.674h53.718v108.898v15.348v43.117  v15.349v108.901H74.271H51.562v-5.186v-52.82v-17.44V133.719V116.28V63.461v-5.188h22.709h337.968c4.239,0,7.674-3.434,7.674-7.674  c0-4.239-3.436-7.674-7.674-7.674H43.888c-4.238,0-7.674,3.435-7.674,7.674v306.959c0,4.24,3.436,7.675,7.674,7.675h460.438  c4.239,0,7.674-3.435,7.674-7.675V50.599C512,46.36,508.564,42.925,504.326,42.925z"/>
<path style="fill:#2E3033;" d="M20.97,482.004c-6.429,0-11.661-5.232-11.661-11.661V41.55c0-6.371,5.183-11.554,11.554-11.554h1.524  c6.431,0,11.661,5.232,11.661,11.661v428.685c0,6.431-5.232,11.661-11.661,11.661H20.97V482.004z"/>
<path d="M22.386,20.687h-1.524C9.359,20.687,0,30.046,0,41.55v428.793c0,11.563,9.407,20.97,20.97,20.97h1.415  c11.564,0,20.97-9.407,20.97-20.97V41.657C43.357,30.094,33.949,20.687,22.386,20.687z M27.841,470.343  c0,3.008-2.447,5.455-5.455,5.455h-1.415c-3.008,0-5.455-2.447-5.455-5.455V41.55c0-2.949,2.399-5.348,5.348-5.348h1.524  c3.008,0,5.455,2.447,5.455,5.455v428.686H27.841z"/>
<g>
</g>
<g>
</g>
<g>
</g>
<g>
</g>
<g>
</g>
<g>
</g>
<g>
</g>
<g>
</g>
<g>
</g>
<g>
</g>
<g>
</g>
<g>
</g>
<g>
</g>
<g>
</g>
<g>
</g>
</svg>
