<?xml version="1.0" encoding="iso-8859-1"?>
<!-- Generator: Adobe Illustrator 19.0.0, SVG Export Plug-In . SVG Version: 6.00 Build 0)  -->
<svg xmlns="http://www.w3.org/2000/svg" xmlns:xlink="http://www.w3.org/1999/xlink" version="1.1" id="Layer_1" x="0px" y="0px" viewBox="0 0 511.999 511.999" style="enable-background:new 0 0 511.999 511.999;" xml:space="preserve">
<path style="fill:#FFFFFF;" d="M62.775,158.023H39.132v89.32h457.106v-89.32H94.299c-4.353,0-7.881-3.529-7.881-7.882H70.656  C70.656,154.493,67.127,158.023,62.775,158.023z M230.771,193.641c1.009-3.105,3.828-5.267,7.088-5.436l16.541-0.854l5.924-15.467  c1.168-3.05,4.095-5.063,7.36-5.063s6.192,2.014,7.36,5.063l5.924,15.467l16.541,0.854c3.261,0.169,6.08,2.329,7.088,5.436  c1.009,3.105-0.001,6.51-2.54,8.564l-12.88,10.415l4.299,15.996c0.847,3.154-0.338,6.502-2.98,8.421  c-1.378,1.001-3.004,1.505-4.632,1.505c-1.492,0-2.988-0.423-4.297-1.275l-13.885-9.032l-13.885,9.031  c-2.736,1.781-6.287,1.689-8.929-0.231c-2.641-1.919-3.826-5.268-2.979-8.421l4.299-15.996l-12.88-10.415  C230.772,200.152,229.762,196.747,230.771,193.641z"/>
<path style="fill:#333333;" d="M260.088,203.585c2.424,1.96,3.465,5.164,2.656,8.174l-0.289,1.076l0.934-0.608  c1.307-0.85,2.802-1.274,4.297-1.274s2.99,0.424,4.297,1.274l0.934,0.608l-0.289-1.076c-0.808-3.01,0.233-6.215,2.656-8.174  l0.866-0.699l-1.112-0.058c-3.113-0.16-5.839-2.141-6.953-5.052l-0.397-1.039l-0.398,1.04c-1.114,2.911-3.84,4.891-6.953,5.052  l-1.112,0.058L260.088,203.585z"/>
<path d="M233.311,202.204l12.88,10.415l-4.299,15.996c-0.848,3.154,0.338,6.502,2.979,8.421c2.642,1.919,6.193,2.012,8.929,0.231  l13.886-9.032l13.885,9.031c1.309,0.852,2.804,1.275,4.297,1.275c1.628,0,3.255-0.505,4.632-1.505  c2.642-1.919,3.826-5.268,2.98-8.421l-4.299-15.996l12.88-10.415c2.539-2.053,3.549-5.459,2.54-8.564  c-1.008-3.105-3.828-5.267-7.088-5.436l-16.541-0.854l-5.924-15.467c-1.168-3.05-4.095-5.063-7.36-5.063  c-3.265,0-6.192,2.014-7.36,5.063L254.4,187.35l-16.541,0.854c-3.26,0.169-6.08,2.329-7.088,5.436  C229.762,196.747,230.772,200.152,233.311,202.204z M267.286,197.776l0.398-1.039l0.398,1.04c1.114,2.911,3.84,4.891,6.953,5.052  l1.112,0.058l-0.866,0.699c-2.423,1.96-3.464,5.164-2.656,8.174l0.289,1.076l-0.934-0.608c-1.307-0.85-2.802-1.274-4.297-1.274  c-1.495,0-2.99,0.424-4.297,1.274l-0.934,0.608l0.289-1.076c0.808-3.01-0.233-6.215-2.656-8.174l-0.866-0.699l1.112-0.058  C263.446,202.668,266.172,200.688,267.286,197.776z"/>
<path style="fill:#259245;" d="M62.775,142.26c4.353,0,7.881,3.529,7.881,7.881h15.763c0-4.352,3.529-7.881,7.881-7.881h401.938  V52.94H39.132v89.32H62.775z M318.898,72.109c0-4.353,3.529-7.881,7.881-7.881c4.352,0,7.881,3.529,7.881,7.881v11.486  c0,4.353-3.529,7.881-7.881,7.881c-4.353,0-7.881-3.529-7.881-7.881V72.109z M326.78,117.698h7.497  c0.332-0.045,0.668-0.068,1.003-0.068c4.403,0,7.984-3.582,7.984-7.983V69.621c0-4.353,3.529-7.881,7.881-7.881  s7.881,3.528,7.881,7.881v40.026c0,12.721-10.057,23.139-22.638,23.72c-0.39,0.063-0.783,0.093-1.177,0.093h-8.432  c-4.353,0-7.881-3.529-7.881-7.881C318.898,121.227,322.427,117.698,326.78,117.698z M294.533,72.109  c0-4.353,3.529-7.881,7.881-7.881c4.352,0,7.881,3.529,7.881,7.881v53.471c0,4.352-3.529,7.881-7.881,7.881  c-4.352,0-7.881-3.529-7.881-7.881V72.109z M253.49,65.41c3.668-2.345,8.541-1.271,10.885,2.395  c0.443,0.695,1.674,2.308,3.516,2.308s3.076-1.618,3.521-2.314c2.348-3.666,7.222-4.733,10.887-2.388  c3.666,2.346,4.736,7.221,2.388,10.887c-3.839,5.997-10.118,9.577-16.797,9.577c-6.683,0-12.961-3.582-16.796-9.581  C248.749,72.628,249.822,67.755,253.49,65.41z M250.874,109.647v-7.811c0-4.352,3.529-7.881,7.881-7.881h15.865  c4.353,0,7.881,3.529,7.881,7.881c0,4.353-3.529,7.881-7.881,7.881h-7.98c0.039,4.369,3.602,7.913,7.98,7.913  c2.08,0,4.075,0.822,5.551,2.287c3.09,3.066,3.143,8.091,0.076,11.18c-1.549,1.56-3.581,2.346-5.611,2.346  c-0.361,0-0.723-0.025-1.081-0.075c-5.677-0.252-10.831-2.518-14.793-6.083c-4.08,3.674-9.432,5.962-15.309,6.1  c-0.204,0.016-0.409,0.023-0.614,0.023c-2.025,0-4.045-0.768-5.577-2.311c-3.067-3.089-3.082-8.045,0.007-11.112l0.069-0.068  c1.477-1.465,3.471-2.287,5.552-2.287C247.293,117.63,250.874,114.048,250.874,109.647z M225.488,69.621  c0-4.353,3.529-7.881,7.881-7.881c4.352,0,7.881,3.528,7.881,7.881v10.805c0,4.353-3.529,7.881-7.881,7.881  c-4.352,0-7.881-3.528-7.881-7.881V69.621z M176.758,69.621c0-4.353,3.529-7.881,7.881-7.881s7.881,3.528,7.881,7.881v21.707  c0,4.353-3.529,7.881-7.881,7.881c-4.353,0-7.881-3.529-7.881-7.881V69.621z M177.732,118.325c2.468-3.586,7.375-4.492,10.96-2.023  c1.117,0.769,2.403,1.234,3.752,1.361c0.23-0.022,0.463-0.033,0.695-0.033c4.402,0,7.984-3.582,7.984-7.983V69.621  c0-4.353,3.529-7.881,7.881-7.881c4.352,0,7.881,3.528,7.881,7.881v30.72h10.36c4.353,0,7.881,3.529,7.881,7.881  c0,4.352-3.529,7.881-7.881,7.881h-11.27c-2.725,9.623-11.364,16.787-21.733,17.262c-0.389,0.062-0.782,0.093-1.177,0.093  c-0.021,0-0.041,0-0.063,0c-4.758-0.041-9.338-1.484-13.247-4.176C176.171,126.817,175.264,121.91,177.732,118.325z"/>
<rect x="39.132" y="263.106" style="fill:#ED1F34;" width="457.103" height="89.324"/>
<path d="M504.119,37.178H31.25c-4.352,0-7.881,3.529-7.881,7.881v315.245c0,4.353,3.529,7.881,7.881,7.881h472.868  c4.353,0,7.881-3.529,7.881-7.881V45.059C512,40.707,508.471,37.178,504.119,37.178z M496.237,52.94v89.32H94.299  c-4.353,0-7.881,3.529-7.881,7.881c0,4.353,3.529,7.882,7.881,7.882h401.938v89.32H39.132v-89.32h23.643  c4.353,0,7.881-3.529,7.881-7.882c0-4.352-3.529-7.881-7.881-7.881H39.132V52.94H496.237z M39.132,352.423v-89.32h457.106v89.32  H39.132z"/>
<g>
	<path style="fill:#FFFFFF;" d="M237.27,119.985c-3.089,3.067-3.074,8.023-0.007,11.112c1.532,1.543,3.553,2.311,5.577,2.311   c0.205,0,0.41-0.007,0.614-0.023c5.877-0.138,11.229-2.426,15.309-6.1c3.962,3.566,9.116,5.832,14.793,6.083   c0.358,0.05,0.72,0.075,1.081,0.075c2.03,0,4.061-0.786,5.611-2.346c3.067-3.089,3.013-8.114-0.076-11.18   c-1.477-1.465-3.471-2.287-5.551-2.287c-4.379,0-7.941-3.543-7.98-7.913h7.98c4.353,0,7.881-3.529,7.881-7.881   s-3.529-7.881-7.881-7.881h-15.865c-4.353,0-7.881,3.529-7.881,7.881v7.811c0,4.402-3.581,7.983-7.983,7.983   c-2.08,0-4.076,0.822-5.552,2.287L237.27,119.985z"/>
	<path style="fill:#FFFFFF;" d="M179.756,129.285c3.909,2.691,8.489,4.134,13.247,4.176c0.021,0,0.041,0,0.063,0   c0.395,0,0.788-0.032,1.177-0.093c10.37-0.476,19.009-7.64,21.733-17.262h11.27c4.353,0,7.881-3.529,7.881-7.881   c0-4.352-3.529-7.881-7.881-7.881h-10.36v-30.72c0-4.353-3.529-7.881-7.881-7.881c-4.352,0-7.881,3.528-7.881,7.881v40.026   c0,4.402-3.582,7.983-7.984,7.983c-0.233,0-0.464,0.011-0.695,0.033c-1.349-0.127-2.634-0.593-3.752-1.361   c-3.585-2.469-8.493-1.564-10.96,2.023C175.264,121.91,176.171,126.817,179.756,129.285z"/>
	<path style="fill:#FFFFFF;" d="M326.78,133.46h8.432c0.394,0,0.787-0.032,1.177-0.093c12.581-0.58,22.638-10.998,22.638-23.72   V69.621c0-4.353-3.529-7.881-7.881-7.881s-7.881,3.528-7.881,7.881v40.026c0,4.402-3.582,7.983-7.984,7.983   c-0.335,0-0.67,0.023-1.003,0.068h-7.497c-4.353,0-7.881,3.529-7.881,7.881C318.898,129.932,322.427,133.46,326.78,133.46z"/>
	<path style="fill:#FFFFFF;" d="M267.89,85.877c6.678,0,12.957-3.58,16.797-9.577c2.347-3.666,1.278-8.54-2.388-10.887   c-3.665-2.345-8.539-1.278-10.887,2.388c-0.445,0.695-1.68,2.314-3.521,2.314c-1.841,0-3.072-1.615-3.516-2.308   c-2.343-3.667-7.217-4.741-10.885-2.395c-3.668,2.344-4.74,7.218-2.395,10.886C254.928,82.296,261.208,85.877,267.89,85.877z"/>
	<path style="fill:#FFFFFF;" d="M302.415,133.46c4.353,0,7.881-3.529,7.881-7.881V72.109c0-4.353-3.529-7.881-7.881-7.881   c-4.352,0-7.881,3.529-7.881,7.881v53.471C294.533,129.932,298.062,133.46,302.415,133.46z"/>
	<path style="fill:#FFFFFF;" d="M326.78,91.475c4.352,0,7.881-3.529,7.881-7.881V72.109c0-4.353-3.529-7.881-7.881-7.881   c-4.353,0-7.881,3.529-7.881,7.881v11.486C318.898,87.947,322.427,91.475,326.78,91.475z"/>
	<path style="fill:#FFFFFF;" d="M184.639,99.209c4.352,0,7.881-3.529,7.881-7.881V69.621c0-4.353-3.529-7.881-7.881-7.881   c-4.353,0-7.881,3.528-7.881,7.881v21.707C176.758,95.681,180.287,99.209,184.639,99.209z"/>
	<path style="fill:#FFFFFF;" d="M233.369,88.307c4.353,0,7.881-3.528,7.881-7.881V69.621c0-4.353-3.529-7.881-7.881-7.881   c-4.352,0-7.881,3.528-7.881,7.881v10.805C225.488,84.779,229.017,88.307,233.369,88.307z"/>
</g>
<path style="fill:#2E3033;" d="M21.536,488.099c-6.603,0-11.976-5.373-11.976-11.976V35.765c0-6.542,5.323-11.865,11.865-11.865  h1.565c6.604,0,11.976,5.373,11.976,11.976v440.247c0,6.604-5.373,11.976-11.976,11.976h-1.454V488.099z"/>
<path d="M22.99,14.34h-1.565C9.611,14.34,0,23.951,0,35.765v440.358c0,11.876,9.661,21.536,21.536,21.536h1.453  c11.876,0,21.536-9.661,21.536-21.536V35.876C44.526,24.001,34.865,14.34,22.99,14.34z M28.592,476.123  c0,3.089-2.513,5.602-5.602,5.602h-1.453c-3.089,0-5.602-2.513-5.602-5.602V35.765c0-3.028,2.463-5.492,5.492-5.492h1.565  c3.089,0,5.602,2.513,5.602,5.602v440.248H28.592z"/>
<g>
</g>
<g>
</g>
<g>
</g>
<g>
</g>
<g>
</g>
<g>
</g>
<g>
</g>
<g>
</g>
<g>
</g>
<g>
</g>
<g>
</g>
<g>
</g>
<g>
</g>
<g>
</g>
<g>
</g>
</svg>
