<?xml version="1.0" encoding="iso-8859-1"?>
<!-- Generator: Adobe Illustrator 19.0.0, SVG Export Plug-In . SVG Version: 6.00 Build 0)  -->
<svg xmlns="http://www.w3.org/2000/svg" xmlns:xlink="http://www.w3.org/1999/xlink" version="1.1" id="Layer_1" x="0px" y="0px" viewBox="0 0 512 512" style="enable-background:new 0 0 512 512;" xml:space="preserve">
<path style="fill:#3DB4EA;" d="M496.652,111.99V58.273H51.562v291.611h445.09V142.687c0-4.239,3.436-7.675,7.674-7.675v-15.348  C500.087,119.664,496.652,116.23,496.652,111.99z M359.621,191.931l-42.378,34.265l14.144,52.632c0.824,3.071-0.329,6.331-2.9,8.2  c-1.342,0.975-2.925,1.467-4.511,1.467c-1.453,0-2.91-0.412-4.184-1.242l-45.684-29.716l-45.684,29.716  c-2.664,1.737-6.123,1.646-8.695-0.224c-2.572-1.869-3.726-5.129-2.9-8.2l14.144-52.632l-42.378-34.265  c-2.472-1.999-3.456-5.315-2.473-8.339c0.983-3.024,3.728-5.129,6.902-5.293l54.426-2.812l19.493-50.893  c1.137-2.968,3.986-4.93,7.166-4.93c3.179,0,6.029,1.961,7.166,4.93l19.493,50.893l54.426,2.812c3.174,0.163,5.92,2.268,6.902,5.293  C363.077,186.615,362.094,189.931,359.621,191.931z"/>
<path d="M496.652,142.687v207.197H51.562V58.273h445.09v53.719c0,4.24,3.436,7.674,7.674,7.674c4.239,0,7.674-3.434,7.674-7.674  V50.6c0-4.24-3.436-7.675-7.674-7.675H43.888c-4.238,0-7.674,3.435-7.674,7.675v306.958c0,4.239,3.436,7.675,7.674,7.675h460.438  c4.239,0,7.674-3.436,7.674-7.675V142.687c0-4.239-3.436-7.675-7.674-7.675C500.087,135.012,496.652,138.449,496.652,142.687z"/>
<path style="fill:#FFFFFF;" d="M288.219,185.639l-14.112-36.844l-14.113,36.844c-1.085,2.834-3.739,4.762-6.77,4.919l-39.402,2.035  l30.68,24.807c2.36,1.908,3.374,5.028,2.587,7.958l-10.24,38.103l33.073-21.513c1.272-0.827,2.728-1.24,4.184-1.24  c1.456,0,2.912,0.413,4.184,1.24l33.073,21.513l-10.24-38.103c-0.787-2.93,0.227-6.051,2.586-7.958l30.68-24.807l-39.402-2.035  C291.959,190.4,289.305,188.473,288.219,185.639z"/>
<path d="M355.193,178.299l-54.426-2.812l-19.493-50.893c-1.137-2.968-3.987-4.93-7.166-4.93c-3.18,0-6.029,1.961-7.166,4.93  l-19.493,50.893l-54.426,2.812c-3.174,0.163-5.92,2.268-6.902,5.293c-0.983,3.023,0.001,6.339,2.473,8.339l42.378,34.265  l-14.144,52.632c-0.825,3.071,0.328,6.331,2.9,8.2c2.571,1.87,6.03,1.961,8.695,0.224l45.684-29.716l45.684,29.716  c1.274,0.831,2.731,1.242,4.184,1.242c1.586,0,3.169-0.491,4.511-1.467c2.571-1.869,3.726-5.129,2.9-8.2l-14.144-52.632  l42.378-34.265c2.473-1.999,3.457-5.315,2.474-8.339C361.112,180.567,358.367,178.463,355.193,178.299z M303.711,217.399  c-2.36,1.908-3.374,5.028-2.586,7.958l10.24,38.103l-33.073-21.513c-1.272-0.827-2.729-1.24-4.184-1.24  c-1.456,0-2.912,0.413-4.184,1.24l-33.073,21.513l10.24-38.103c0.787-2.93-0.227-6.051-2.587-7.958l-30.68-24.807l39.402-2.035  c3.031-0.157,5.685-2.085,6.77-4.919l14.113-36.844l14.112,36.844c1.086,2.834,3.74,4.762,6.77,4.919l39.402,2.035L303.711,217.399z  "/>
<path style="fill:#2E3033;" d="M20.97,482.004c-6.429,0-11.661-5.232-11.661-11.661V41.55c0-6.371,5.183-11.554,11.554-11.554h1.524  c6.431,0,11.661,5.232,11.661,11.661v428.685c0,6.431-5.232,11.661-11.661,11.661H20.97V482.004z"/>
<path d="M22.386,20.687h-1.524C9.359,20.687,0,30.046,0,41.55v428.793c0,11.563,9.407,20.97,20.97,20.97h1.415  c11.564,0,20.97-9.407,20.97-20.97V41.657C43.357,30.094,33.949,20.687,22.386,20.687z M27.841,470.343  c0,3.008-2.447,5.455-5.455,5.455h-1.415c-3.008,0-5.455-2.447-5.455-5.455V41.55c0-2.949,2.399-5.348,5.348-5.348h1.524  c3.008,0,5.455,2.447,5.455,5.455v428.686H27.841z"/>
<g>
</g>
<g>
</g>
<g>
</g>
<g>
</g>
<g>
</g>
<g>
</g>
<g>
</g>
<g>
</g>
<g>
</g>
<g>
</g>
<g>
</g>
<g>
</g>
<g>
</g>
<g>
</g>
<g>
</g>
</svg>
