<?xml version="1.0" encoding="iso-8859-1"?>
<!-- Generator: Adobe Illustrator 19.0.0, SVG Export Plug-In . SVG Version: 6.00 Build 0)  -->
<svg xmlns="http://www.w3.org/2000/svg" xmlns:xlink="http://www.w3.org/1999/xlink" version="1.1" id="Layer_1" x="0px" y="0px" viewBox="0 0 512 512" style="enable-background:new 0 0 512 512;" xml:space="preserve">
<path style="fill:#164FCE;" d="M451.646,56.959H54.086v254.568L451.646,56.959z M175.686,89.709c8.43,0,15.263,6.564,15.263,14.66  s-6.833,14.66-15.263,14.66s-15.264-6.564-15.264-14.66S167.256,89.709,175.686,89.709z M175.686,154.214  c8.43,0,15.263,6.564,15.263,14.66c0,8.097-6.833,14.659-15.263,14.659s-15.264-6.564-15.264-14.659  C160.421,160.777,167.256,154.214,175.686,154.214z M140.07,121.961c8.43,0,15.263,6.564,15.263,14.66  c0,8.097-6.833,14.66-15.263,14.66s-15.264-6.565-15.264-14.66S131.64,121.961,140.07,121.961z M104.454,89.709  c8.43,0,15.264,6.564,15.264,14.66s-6.834,14.66-15.264,14.66c-8.429,0-15.263-6.564-15.263-14.66S96.026,89.709,104.454,89.709z   M104.454,154.214c8.43,0,15.264,6.564,15.264,14.66c0,8.097-6.834,14.659-15.264,14.659c-8.429,0-15.263-6.564-15.263-14.659  C89.192,160.777,96.026,154.214,104.454,154.214z"/>
<g>
	<ellipse style="fill:#FFFFFF;" cx="104.454" cy="104.371" rx="15.264" ry="14.658"/>
	<ellipse style="fill:#FFFFFF;" cx="140.068" cy="136.624" rx="15.263" ry="14.658"/>
	<ellipse style="fill:#FFFFFF;" cx="175.681" cy="104.371" rx="15.263" ry="14.658"/>
	<ellipse style="fill:#FFFFFF;" cx="104.454" cy="168.876" rx="15.264" ry="14.658"/>
	<ellipse style="fill:#FFFFFF;" cx="175.681" cy="168.876" rx="15.263" ry="14.658"/>
</g>
<path style="fill:#259245;" d="M466.25,100.465c-1.301,0.833-2.772,1.232-4.226,1.232c-2.466,0-4.886-1.145-6.356-3.264l-12.7,8.131  c2.338,3.369,1.39,7.919-2.117,10.164L99.177,335.513h397.559V80.944L466.25,100.465z"/>
<path style="fill:#FFE000;" d="M455.667,98.431c-2.338-3.368-1.39-7.919,2.116-10.164l38.953-24.941v-6.367h-17.573L54.086,329.146  v6.366h17.574l360.724-230.981c3.507-2.246,8.245-1.335,10.583,2.032l0,0L455.667,98.431L455.667,98.431z"/>
<path d="M512,67.275V49.629c0-4.048-3.417-7.33-7.631-7.33H46.454c-4.215,0-7.631,3.282-7.631,7.33v275.546c0,0.008,0,0.016,0,0.023  v17.645c0,4.048,3.416,7.33,7.631,7.33h27.508c0.005,0,0.01,0.001,0.017,0.001c0.004,0,0.009-0.001,0.013-0.001h430.376  c4.215,0,7.631-3.282,7.631-7.33V67.297C512,67.289,512,67.282,512,67.275z M99.177,335.513l341.674-218.784  c3.507-2.245,4.456-6.796,2.117-10.164l0,0c-2.338-3.368-7.076-4.278-10.583-2.032L71.661,335.513H54.086v-6.366L479.163,56.959  h17.573v6.367l-38.953,24.941c-3.506,2.246-4.455,6.797-2.116,10.164l0.001,0.001c1.47,2.118,3.89,3.264,6.356,3.264  c1.454,0,2.925-0.398,4.226-1.232l30.486-19.521v254.568H99.177V335.513z M451.646,56.959L54.086,311.526V56.959H451.646z"/>
<path style="fill:#2E3033;" d="M21.032,482.669c-6.448,0-11.695-5.247-11.695-11.695V40.919c0-6.389,5.198-11.588,11.588-11.588  h1.528c6.449,0,11.695,5.247,11.695,11.695v429.947c0,6.449-5.247,11.695-11.695,11.695H21.032z"/>
<path d="M22.452,19.995h-1.528C9.386,19.995,0,29.381,0,40.919v430.055c0,11.598,9.435,21.032,21.032,21.032h1.419  c11.598,0,21.032-9.435,21.032-21.032V41.027C43.484,29.43,34.049,19.995,22.452,19.995z M27.923,470.973  c0,3.017-2.454,5.471-5.471,5.471h-1.419c-3.017,0-5.471-2.454-5.471-5.471V40.919c0-2.958,2.406-5.363,5.363-5.363h1.528  c3.017,0,5.471,2.454,5.471,5.471v429.947H27.923z"/>
<g>
</g>
<g>
</g>
<g>
</g>
<g>
</g>
<g>
</g>
<g>
</g>
<g>
</g>
<g>
</g>
<g>
</g>
<g>
</g>
<g>
</g>
<g>
</g>
<g>
</g>
<g>
</g>
<g>
</g>
</svg>
