<?xml version="1.0" encoding="iso-8859-1"?>
<!-- Generator: Adobe Illustrator 19.0.0, SVG Export Plug-In . SVG Version: 6.00 Build 0)  -->
<svg xmlns="http://www.w3.org/2000/svg" xmlns:xlink="http://www.w3.org/1999/xlink" version="1.1" id="Layer_1" x="0px" y="0px" viewBox="0 0 512 512" style="enable-background:new 0 0 512 512;" xml:space="preserve">
<path style="fill:#164FCE;" d="M442.793,247.553h53.828v-87.15h-281.77c-0.238,23.466-19.349,37.715-37.247,43.233  c-0.738,0.227-1.502,0.342-2.267,0.342s-1.528-0.114-2.266-0.342c-17.899-5.519-37.009-19.767-37.247-43.233H50.619v87.15h361.416  c4.247,0,7.689,3.443,7.689,7.689h15.38C435.104,250.995,438.546,247.553,442.793,247.553z"/>
<path style="fill:#ED1F34;" d="M442.793,262.932c-4.247,0-7.689-3.443-7.689-7.69h-15.38c0,4.247-3.442,7.69-7.689,7.69H50.619  v87.15H496.62v-87.15L442.793,262.932L442.793,262.932z"/>
<path style="fill:#FFFFFF;" d="M135.813,145.023v-35.886c0-4.246,3.442-7.689,7.689-7.689h63.67c4.248,0,7.69,3.443,7.69,7.689  v35.886h281.759v-87.15H50.619v87.15H135.813z"/>
<path d="M504.31,42.494H42.929c-4.248,0-7.69,3.443-7.69,7.689v307.588c0,4.247,3.442,7.689,7.69,7.689h461.38  c4.248,0,7.69-3.443,7.69-7.689V50.183C512,45.937,508.558,42.494,504.31,42.494z M496.62,57.874v87.15H214.863v-35.886  c0-4.246-3.442-7.689-7.69-7.689h-63.67c-4.247,0-7.689,3.443-7.689,7.689v35.886H50.619v-87.15H496.62z M199.483,152.713v7.249  c0,17.384-16.346,25.391-24.146,28.217c-7.799-2.826-24.145-10.832-24.145-28.217v-7.249v-35.885h48.291V152.713z M50.619,350.082  v-87.15h361.416c4.247,0,7.689-3.443,7.689-7.69c0-4.246-3.442-7.689-7.689-7.689H50.619v-87.15h85.206  c0.238,23.466,19.349,37.715,37.247,43.233c0.738,0.227,1.501,0.342,2.266,0.342c0.765,0,1.529-0.114,2.267-0.342  c17.899-5.519,37.009-19.767,37.247-43.233H496.62v87.15h-53.828c-4.247,0-7.689,3.443-7.689,7.689c0,4.247,3.442,7.69,7.689,7.69  h53.828v87.15H50.619z"/>
<rect x="151.195" y="116.827" style="fill:#164FCE;" width="48.291" height="35.885"/>
<path style="fill:#FFFFFF;" d="M151.192,159.962c0,17.384,16.346,25.391,24.145,28.217c7.8-2.826,24.146-10.832,24.146-28.217  v-7.249h-48.291V159.962z"/>
<path style="fill:#2E3033;" d="M21.013,482.462c-6.442,0-11.685-5.242-11.685-11.685V41.115c0-6.383,5.194-11.577,11.577-11.577  h1.527c6.444,0,11.685,5.242,11.685,11.685v429.552c0,6.444-5.242,11.685-11.685,11.685h-1.419V482.462z"/>
<path d="M22.432,20.211h-1.527C9.378,20.211,0,29.588,0,41.115v429.661c0,11.587,9.426,21.013,21.013,21.013h1.418  c11.587,0,21.013-9.426,21.013-21.013V41.223C43.444,29.637,34.018,20.211,22.432,20.211z M27.898,470.777  c0,3.014-2.452,5.466-5.466,5.466h-1.418c-3.014,0-5.466-2.452-5.466-5.466V41.115c0-2.955,2.403-5.358,5.358-5.358h1.527  c3.014,0,5.466,2.452,5.466,5.466v429.554H27.898z"/>
<g>
</g>
<g>
</g>
<g>
</g>
<g>
</g>
<g>
</g>
<g>
</g>
<g>
</g>
<g>
</g>
<g>
</g>
<g>
</g>
<g>
</g>
<g>
</g>
<g>
</g>
<g>
</g>
<g>
</g>
</svg>
