<?xml version="1.0" encoding="iso-8859-1"?>
<!-- Generator: Adobe Illustrator 19.0.0, SVG Export Plug-In . SVG Version: 6.00 Build 0)  -->
<svg xmlns="http://www.w3.org/2000/svg" xmlns:xlink="http://www.w3.org/1999/xlink" version="1.1" id="Layer_1" x="0px" y="0px" viewBox="0 0 512 512" style="enable-background:new 0 0 512 512;" xml:space="preserve">
<g>
	<path style="fill:#164FCE;" d="M50.619,160.403v87.15h79.853c-3.952-9.081-5.99-18.859-5.99-29.078v-58.072H50.619z"/>
	<path style="fill:#164FCE;" d="M442.793,247.553h53.828v-87.15H267.205v58.072c0,10.219-2.04,19.997-5.99,29.078h150.82   c4.247,0,7.689,3.443,7.689,7.689h15.38C435.104,250.995,438.546,247.553,442.793,247.553z"/>
</g>
<path style="fill:#ED1F34;" d="M442.793,262.932c-4.247,0-7.689-3.443-7.689-7.69h-15.38c0,4.247-3.442,7.69-7.689,7.69h-159.86  c-2.354,3.102-4.969,6.085-7.852,8.926c-11.781,11.609-28.192,21.061-46.213,26.618c-0.738,0.228-1.502,0.341-2.267,0.341  s-1.528-0.113-2.267-0.341c-18.02-5.555-34.431-15.009-46.212-26.618c-2.883-2.842-5.499-5.824-7.853-8.926H50.619v87.15H496.62  v-87.15H442.793L442.793,262.932z"/>
<path style="fill:#FFFFFF;" d="M124.481,145.023v-28.195c0-4.247,3.441-7.689,7.689-7.689h127.343c4.248,0,7.69,3.443,7.69,7.689  v28.195H496.62v-87.15H50.619v87.15H124.481z"/>
<path d="M504.31,42.494H42.929c-4.248,0-7.69,3.443-7.69,7.689v307.588c0,4.247,3.442,7.689,7.69,7.689h461.38  c4.248,0,7.69-3.443,7.69-7.689V50.183C512,45.937,508.558,42.494,504.31,42.494z M496.62,57.874v87.15H267.205v-28.195  c0-4.247-3.442-7.689-7.69-7.689H132.171c-4.248,0-7.689,3.443-7.689,7.689v28.195H50.619v-87.15H496.62z M251.825,218.474  c0,8.483-1.662,15.968-4.444,22.555c-10.903,25.821-39.001,37.829-51.538,42.021c-12.537-4.192-40.635-16.201-51.539-42.021  c-2.782-6.587-4.444-14.072-4.444-22.555v-93.956h111.964v93.956H251.825z M130.472,247.553H50.619v-87.15h73.864v58.072  C124.481,228.694,126.52,238.471,130.472,247.553z M50.619,350.082v-87.15h88.894c2.354,3.102,4.97,6.085,7.853,8.926  c11.78,11.609,28.192,21.061,46.212,26.618c0.739,0.228,1.502,0.341,2.267,0.341c0.765,0,1.529-0.113,2.267-0.341  c18.021-5.555,34.431-15.009,46.213-26.618c2.883-2.842,5.498-5.824,7.852-8.926h159.86c4.247,0,7.689-3.443,7.689-7.69  c0-4.246-3.442-7.689-7.689-7.689H261.214c3.951-9.081,5.99-18.859,5.99-29.078v-58.072H496.62v87.15h-53.828  c-4.247,0-7.689,3.443-7.689,7.689c0,4.247,3.442,7.69,7.689,7.69h53.828v87.15H50.619z"/>
<path style="fill:#ED1F34;" d="M251.825,124.518H139.86v93.957c0,8.483,1.662,15.968,4.444,22.555c0.033,0,0.065-0.003,0.098-0.003  c4.79,0,9.367,0.899,13.586,2.521c6.63-10.489,17.5-18.016,30.199-20.208c-0.02-0.223-0.033-0.448-0.033-0.676v-23.17h-15.581  c-4.247,0-7.689-3.443-7.689-7.689s3.442-7.689,7.689-7.689h15.581v-13.517h-6.635c-4.247,0-7.69-3.443-7.69-7.69  c0-4.246,3.443-7.689,7.69-7.689h6.635v-10.742c0-4.247,3.442-7.689,7.689-7.689c4.248,0,7.689,3.443,7.689,7.689v10.742h6.635  c4.247,0,7.69,3.443,7.69,7.689c0,4.247-3.443,7.69-7.69,7.69h-6.635v13.517h15.581c4.247,0,7.69,3.443,7.69,7.689  s-3.443,7.689-7.69,7.689h-15.581v23.169c0,0.228-0.015,0.453-0.033,0.676c12.699,2.192,23.568,9.719,30.199,20.208  c4.218-1.622,8.796-2.521,13.586-2.521c0.032,0,0.065,0.003,0.097,0.003c2.782-6.587,4.444-14.072,4.444-22.555L251.825,124.518  L251.825,124.518z"/>
<path style="fill:#FFFFFF;" d="M203.499,223.338c0.02-0.223,0.033-0.448,0.033-0.676v-23.169h15.581c4.247,0,7.69-3.443,7.69-7.689  s-3.443-7.689-7.69-7.689h-15.581v-13.517h6.635c4.247,0,7.69-3.443,7.69-7.69c0-4.246-3.443-7.689-7.69-7.689h-6.635v-10.742  c0-4.247-3.441-7.689-7.689-7.689c-4.247,0-7.689,3.443-7.689,7.689v10.742h-6.635c-4.247,0-7.69,3.443-7.69,7.689  c0,4.247,3.443,7.69,7.69,7.69h6.635v13.517h-15.581c-4.247,0-7.689,3.443-7.689,7.689s3.442,7.689,7.689,7.689h15.581v23.169  c0,0.228,0.015,0.453,0.033,0.676c2.49-0.43,5.043-0.676,7.656-0.676C198.456,222.662,201.009,222.908,203.499,223.338z"/>
<path style="fill:#164FCE;" d="M233.697,243.546c-6.63-10.49-17.499-18.016-30.199-20.208c-2.49-0.43-5.042-0.676-7.656-0.676  c-2.613,0-5.166,0.246-7.656,0.676c-12.698,2.192-23.568,9.72-30.199,20.208c-4.218-1.622-8.795-2.521-13.586-2.521  c-0.032,0-0.065,0.003-0.098,0.003c10.904,25.821,39.002,37.829,51.539,42.021c12.537-4.192,40.635-16.201,51.538-42.021  c-0.032,0-0.065-0.003-0.097-0.003C242.494,241.027,237.916,241.924,233.697,243.546z"/>
<path style="fill:#2E3033;" d="M21.013,482.462c-6.442,0-11.685-5.242-11.685-11.685V41.115c0-6.383,5.194-11.577,11.577-11.577  h1.527c6.444,0,11.685,5.242,11.685,11.685v429.552c0,6.444-5.242,11.685-11.685,11.685h-1.419V482.462z"/>
<path d="M22.432,20.211h-1.527C9.378,20.211,0,29.588,0,41.115v429.661c0,11.587,9.426,21.013,21.013,21.013h1.418  c11.587,0,21.013-9.426,21.013-21.013V41.223C43.444,29.637,34.018,20.211,22.432,20.211z M27.898,470.777  c0,3.014-2.452,5.466-5.466,5.466h-1.418c-3.014,0-5.466-2.452-5.466-5.466V41.115c0-2.955,2.403-5.358,5.358-5.358h1.527  c3.014,0,5.466,2.452,5.466,5.466v429.554H27.898z"/>
<g>
</g>
<g>
</g>
<g>
</g>
<g>
</g>
<g>
</g>
<g>
</g>
<g>
</g>
<g>
</g>
<g>
</g>
<g>
</g>
<g>
</g>
<g>
</g>
<g>
</g>
<g>
</g>
<g>
</g>
</svg>
