<?xml version="1.0" encoding="iso-8859-1"?>
<!-- Generator: Adobe Illustrator 19.0.0, SVG Export Plug-In . SVG Version: 6.00 Build 0)  -->
<svg xmlns="http://www.w3.org/2000/svg" xmlns:xlink="http://www.w3.org/1999/xlink" version="1.1" id="Layer_1" x="0px" y="0px" viewBox="0 0 512 512" style="enable-background:new 0 0 512 512;" xml:space="preserve">
<path style="fill:#ED1F34;" d="M441.07,194.801h55.169V52.941H57.28l212.79,141.86h139.475c4.353,0,7.881,3.529,7.881,7.881h15.763  C433.189,198.33,436.717,194.801,441.07,194.801z"/>
<path style="fill:#103B9B;" d="M441.07,210.564c-4.353,0-7.881-3.528-7.881-7.881h-15.763c0,4.353-3.528,7.881-7.881,7.881H270.07  L57.28,352.424h438.957v-141.86H441.07z"/>
<path style="fill:#FFFFFF;" d="M39.132,59.785v285.794l214.345-142.896L39.132,59.785z M99.11,150.517h31.966  c4.353,0,7.881,3.529,7.881,7.881v52.143c0,2.682-1.365,5.181-3.622,6.632l-15.984,10.268c-1.297,0.833-2.779,1.25-4.26,1.25  c-1.482,0-2.963-0.417-4.26-1.25L94.85,217.173c-2.257-1.45-3.621-3.948-3.621-6.632v-52.143  C91.229,154.046,94.758,150.517,99.11,150.517z M115.094,255.224c-28.972,0-52.541-23.57-52.541-52.541  c0-4.353,3.529-7.881,7.881-7.881s7.881,3.529,7.881,7.881c0,20.279,16.5,36.779,36.779,36.779s36.779-16.5,36.779-36.779  c0-4.353,3.529-7.881,7.881-7.881c4.352,0,7.881,3.529,7.881,7.881C167.634,231.653,144.065,255.224,115.094,255.224z"/>
<polygon style="fill:#3DB4EA;" points="106.992,206.237 115.094,211.442 123.195,206.237 123.195,166.28 106.992,166.28 "/>
<path style="fill:#ED1F34;" d="M91.229,210.542c0,2.682,1.364,5.181,3.621,6.632l15.982,10.268c1.298,0.833,2.779,1.25,4.26,1.25  c1.481,0,2.963-0.417,4.26-1.25l15.984-10.268c2.257-1.45,3.622-3.948,3.622-6.632v-52.143c0-4.353-3.529-7.881-7.881-7.881H99.11  c-4.353,0-7.881,3.529-7.881,7.881V210.542z M123.195,166.28v39.957l-8.102,5.205l-8.102-5.205V166.28H123.195z"/>
<path style="fill:#FFE000;" d="M159.754,194.801c-4.353,0-7.881,3.529-7.881,7.881c0,20.279-16.499,36.779-36.779,36.779  s-36.779-16.5-36.779-36.779c0-4.353-3.528-7.881-7.881-7.881c-4.353,0-7.881,3.529-7.881,7.881  c0,28.97,23.569,52.541,52.541,52.541s52.541-23.57,52.541-52.541C167.634,198.33,164.106,194.801,159.754,194.801z"/>
<path d="M504.118,37.178H31.25c-0.004,0-0.007,0-0.012,0c-0.263,0.001-0.526,0.013-0.786,0.039  c-0.131,0.014-0.257,0.039-0.386,0.058c-0.123,0.018-0.246,0.032-0.369,0.056c-0.177,0.035-0.351,0.083-0.523,0.131  c-0.072,0.02-0.147,0.034-0.219,0.056c-0.158,0.048-0.311,0.107-0.465,0.165c-0.087,0.033-0.175,0.061-0.261,0.096  c-0.126,0.052-0.248,0.114-0.371,0.173c-0.11,0.053-0.223,0.102-0.331,0.159c-0.091,0.05-0.177,0.106-0.267,0.158  c-0.134,0.079-0.268,0.155-0.398,0.242c-0.061,0.041-0.116,0.087-0.175,0.127c-0.15,0.107-0.3,0.215-0.443,0.331  c-0.039,0.033-0.075,0.069-0.114,0.103c-0.154,0.132-0.307,0.266-0.451,0.41c-0.056,0.056-0.106,0.118-0.16,0.176  c-0.119,0.126-0.24,0.251-0.351,0.386c-0.168,0.203-0.324,0.414-0.471,0.634c-0.001,0.002-0.003,0.004-0.005,0.007  c-0.02,0.03-0.035,0.062-0.054,0.091c-0.121,0.187-0.238,0.377-0.343,0.576c-0.04,0.074-0.072,0.151-0.109,0.225  c-0.076,0.155-0.154,0.31-0.221,0.473c-0.045,0.106-0.079,0.215-0.118,0.323c-0.048,0.133-0.099,0.264-0.139,0.4  c-0.041,0.135-0.071,0.272-0.105,0.408c-0.028,0.112-0.058,0.222-0.082,0.336c-0.033,0.168-0.055,0.337-0.078,0.507  c-0.012,0.087-0.028,0.172-0.036,0.259c-0.021,0.217-0.03,0.433-0.033,0.65c0,0.041-0.006,0.082-0.006,0.124v0.024  c0,0.01,0,0.02,0,0.03v315.137c0,0.011,0,0.02,0,0.029v0.024c0,0.041,0.005,0.083,0.006,0.124c0.003,0.216,0.012,0.433,0.033,0.649  c0.008,0.087,0.024,0.172,0.037,0.259c0.022,0.169,0.044,0.338,0.076,0.507c0.022,0.114,0.054,0.224,0.082,0.338  c0.033,0.135,0.064,0.272,0.105,0.407c0.041,0.137,0.092,0.27,0.141,0.404c0.038,0.107,0.072,0.212,0.116,0.319  c0.067,0.164,0.146,0.322,0.224,0.479c0.036,0.072,0.067,0.147,0.105,0.219c0.108,0.202,0.226,0.397,0.352,0.59  c0.017,0.025,0.03,0.053,0.046,0.078c0.001,0.002,0.003,0.004,0.004,0.006c0.17,0.253,0.357,0.495,0.554,0.728  c0.062,0.072,0.126,0.139,0.19,0.208c0.137,0.151,0.279,0.294,0.427,0.433c0.082,0.076,0.163,0.154,0.248,0.225  c0.156,0.134,0.32,0.26,0.487,0.382c0.07,0.052,0.137,0.108,0.209,0.156c0.237,0.16,0.483,0.31,0.738,0.445  c0.062,0.033,0.125,0.061,0.188,0.091c0.204,0.102,0.412,0.197,0.625,0.28c0.082,0.031,0.163,0.061,0.244,0.089  c0.202,0.072,0.407,0.136,0.616,0.191c0.084,0.022,0.168,0.046,0.252,0.066c0.214,0.049,0.432,0.088,0.652,0.119  c0.08,0.012,0.157,0.027,0.237,0.035c0.271,0.031,0.547,0.049,0.826,0.05c0.022,0,0.045,0.004,0.067,0.004c0.004,0,0.01,0,0.014,0  h472.848c4.354,0,7.882-3.529,7.882-7.882V45.059C512,40.707,508.472,37.178,504.118,37.178z M39.132,59.785l214.345,142.897  L39.132,345.579V59.785z M57.28,352.424l212.79-141.861h139.475c4.353,0,7.881-3.528,7.881-7.881s-3.528-7.881-7.881-7.881H270.07  L57.28,52.941h438.957v141.86h-55.169c-4.353,0-7.881,3.529-7.881,7.881c0,4.352,3.528,7.881,7.881,7.881h55.169v141.861  L57.28,352.424L57.28,352.424z"/>
<path style="fill:#2E3033;" d="M21.536,488.1c-6.603,0-11.976-5.373-11.976-11.976V35.766c0-6.542,5.323-11.865,11.865-11.865h1.565  c6.604,0,11.976,5.373,11.976,11.976v440.247c0,6.604-5.373,11.976-11.976,11.976h-1.454V488.1z"/>
<path d="M22.99,14.34h-1.565C9.611,14.34,0,23.951,0,35.766v440.358C0,488,9.661,497.66,21.536,497.66h1.453  c11.876,0,21.536-9.661,21.536-21.536V35.876C44.526,24.001,34.865,14.34,22.99,14.34z M28.592,476.124  c0,3.089-2.513,5.602-5.602,5.602h-1.453c-3.089,0-5.602-2.513-5.602-5.602V35.766c0-3.028,2.463-5.492,5.492-5.492h1.565  c3.089,0,5.602,2.513,5.602,5.602v440.248H28.592z"/>
<g>
</g>
<g>
</g>
<g>
</g>
<g>
</g>
<g>
</g>
<g>
</g>
<g>
</g>
<g>
</g>
<g>
</g>
<g>
</g>
<g>
</g>
<g>
</g>
<g>
</g>
<g>
</g>
<g>
</g>
</svg>
