<?xml version="1.0" encoding="iso-8859-1"?>
<!-- Generator: Adobe Illustrator 19.0.0, SVG Export Plug-In . SVG Version: 6.00 Build 0)  -->
<svg xmlns="http://www.w3.org/2000/svg" xmlns:xlink="http://www.w3.org/1999/xlink" version="1.1" id="Layer_1" x="0px" y="0px" viewBox="0 0 511.999 511.999" style="enable-background:new 0 0 511.999 511.999;" xml:space="preserve">
<path style="fill:#ED1F34;" d="M62.775,52.94H39.132v299.483h457.106V52.94H94.299c-4.353,0-7.881-3.529-7.881-7.881H70.656  C70.656,49.412,67.127,52.94,62.775,52.94z M54.369,337.187V210.563h53.307l152.128,101.418v25.206H54.369V337.187z   M267.685,107.071l143.415,95.61l-22.78,15.186l-63.125,42.084l-57.511,38.341l-57.511-38.341l-61.751-41.168l-24.152-16.101  L267.685,107.071z M481.001,337.187H275.565v-25.206l152.128-101.418h53.307V337.187z M481.001,68.177v126.624h-53.307  L275.565,93.382V68.177H481.001z M259.804,68.177v25.206L107.676,194.802H54.369V68.177H259.804z"/>
<g>
	<polygon style="fill:#103B9B;" points="427.693,194.801 481.001,194.801 481.001,68.177 275.565,68.177 275.565,93.382  "/>
	<polygon style="fill:#103B9B;" points="107.676,210.563 54.369,210.563 54.369,337.187 259.804,337.187 259.804,311.981  "/>
	<polygon style="fill:#103B9B;" points="54.369,194.801 107.676,194.801 259.804,93.382 259.804,68.177 54.369,68.177  "/>
	<polygon style="fill:#103B9B;" points="275.565,311.981 275.565,337.187 481.001,337.187 481.001,210.563 427.693,210.563  "/>
</g>
<g>
	<polygon style="fill:#FFFFFF;" points="267.685,298.292 325.195,259.952 210.174,259.952  "/>
	<path style="fill:#FFFFFF;" d="M148.423,218.784c5.749-13.187,18.883-22.407,34.188-22.407c11.661,0,22.069,5.353,28.909,13.733   c0.513-0.025,1.028-0.039,1.548-0.039c12.111,0,22.569,7.069,27.478,17.305h30.367c1.376-31.57,27.396-56.744,59.305-56.744   c28.628,0,52.503,20.27,58.103,47.236l22.78-15.186l-143.416-95.61l-143.414,95.61L148.423,218.784z M267.729,130.744   c13.045,0,23.621,10.577,23.621,23.621c0,13.046-10.576,23.621-23.621,23.621c-13.045,0-23.621-10.576-23.621-23.621   C244.108,141.321,254.684,130.744,267.729,130.744z"/>
</g>
<path style="fill:#259245;" d="M330.217,170.631c-31.909,0-57.929,25.175-59.305,56.744h-30.367  c-4.909-10.236-15.367-17.305-27.478-17.305c-0.519,0-1.035,0.013-1.548,0.039c-6.84-8.38-17.249-13.733-28.909-13.733  c-15.304,0-28.439,9.22-34.188,22.407l61.751,41.168h115.022l63.125-42.084C382.72,190.901,358.845,170.631,330.217,170.631z"/>
<path d="M504.119,37.178H94.299c-4.353,0-7.881,3.529-7.881,7.881s3.529,7.881,7.881,7.881h401.938v299.483H39.132V52.94h23.643  c4.353,0,7.881-3.529,7.881-7.881s-3.529-7.882-7.881-7.882H31.25c-4.352,0-7.881,3.529-7.881,7.881v315.245  c0,4.353,3.529,7.882,7.881,7.882h472.868c4.353,0,7.881-3.529,7.881-7.882V45.059C512,40.707,508.471,37.178,504.119,37.178z"/>
<circle style="fill:#FFE000;" cx="267.727" cy="154.364" r="23.624"/>
<path style="fill:#2E3033;" d="M21.536,488.099c-6.603,0-11.976-5.373-11.976-11.976V35.765c0-6.542,5.323-11.865,11.865-11.865  h1.565c6.604,0,11.976,5.373,11.976,11.976v440.247c0,6.604-5.373,11.976-11.976,11.976h-1.454V488.099z"/>
<path d="M22.99,14.34h-1.565C9.611,14.34,0,23.951,0,35.765v440.358c0,11.876,9.661,21.536,21.536,21.536h1.453  c11.876,0,21.536-9.661,21.536-21.536V35.876C44.526,24.001,34.865,14.34,22.99,14.34z M28.592,476.123  c0,3.089-2.513,5.602-5.602,5.602h-1.453c-3.089,0-5.602-2.513-5.602-5.602V35.765c0-3.028,2.463-5.492,5.492-5.492h1.565  c3.089,0,5.602,2.513,5.602,5.602v440.248H28.592z"/>
<g>
</g>
<g>
</g>
<g>
</g>
<g>
</g>
<g>
</g>
<g>
</g>
<g>
</g>
<g>
</g>
<g>
</g>
<g>
</g>
<g>
</g>
<g>
</g>
<g>
</g>
<g>
</g>
<g>
</g>
</svg>
