<?xml version="1.0" encoding="iso-8859-1"?>
<!-- Generator: Adobe Illustrator 19.0.0, SVG Export Plug-In . SVG Version: 6.00 Build 0)  -->
<svg xmlns="http://www.w3.org/2000/svg" xmlns:xlink="http://www.w3.org/1999/xlink" version="1.1" id="Layer_1" x="0px" y="0px" viewBox="0 0 512 512" style="enable-background:new 0 0 512 512;" xml:space="preserve">
<path style="fill:#ED1F34;" d="M51.562,58.273v138.131h391.373c4.239,0,7.674,3.436,7.674,7.674h15.349  c0-4.239,3.435-7.674,7.674-7.674h23.022V58.273H51.562z M170.302,174.18c-8,4.498-17.09,6.876-26.29,6.876  c-29.62,0-53.718-24.097-53.718-53.718s24.097-53.719,53.718-53.719c9.053,0,18,2.302,25.907,6.662  c2.555,1.245,4.315,3.868,4.315,6.902c0,4.23-3.423,7.661-7.65,7.674c-0.125-0.003-0.277-0.003-0.415-0.009  c-0.537-0.026-1.078-0.041-1.619-0.041c-17.938,0-32.529,14.593-32.529,32.529c0,17.936,14.591,32.528,32.529,32.528  c0.541,0,1.083-0.014,1.619-0.041c3.583-0.175,6.763,2.122,7.746,5.542C174.9,168.788,173.404,172.435,170.302,174.18z   M174.58,125.708c-1.097,3.389-4.226,5.666-7.788,5.666c-0.861,0-1.713-0.135-2.531-0.401c-4.286-1.394-6.645-6.017-5.258-10.304  c1.112-3.399,4.24-5.666,7.789-5.666c0.855,0,1.703,0.133,2.519,0.397C173.608,116.797,175.966,121.421,174.58,125.708z   M180.476,149.735c-1.531,2.111-4.008,3.375-6.623,3.375c-1.738,0-3.398-0.539-4.806-1.559c-1.779-1.293-2.941-3.193-3.281-5.356  c-0.34-2.162,0.182-4.327,1.473-6.094c1.527-2.102,4.002-3.363,6.614-3.363c1.741,0,3.405,0.541,4.814,1.566  c1.761,1.277,2.927,3.174,3.27,5.334C182.281,145.799,181.763,147.964,180.476,149.735z M177.095,109.754  c0-4.513,3.673-8.186,8.186-8.186s8.186,3.672,8.186,8.186c0,4.514-3.673,8.186-8.186,8.186S177.095,114.268,177.095,109.754z   M201.521,151.544c-1.415,1.026-3.076,1.565-4.814,1.565c-2.614,0-5.091-1.264-6.626-3.381c-1.275-1.746-1.8-3.913-1.459-6.078  c0.341-2.165,1.507-4.067,3.282-5.354c1.401-1.017,3.065-1.559,4.805-1.559c2.612,0,5.088,1.262,6.622,3.375  C205.981,143.768,205.167,148.894,201.521,151.544z M206.302,130.973c-0.819,0.266-1.671,0.401-2.532,0.401  c-3.561,0-6.691-2.278-7.788-5.666c-0.671-2.056-0.501-4.276,0.49-6.228s2.684-3.4,4.765-4.076c0.829-0.268,1.676-0.402,2.532-0.402  c3.55,0,6.677,2.267,7.779,5.641C212.945,124.956,210.587,129.577,206.302,130.973z"/>
<g>
	<path style="fill:#FFFFFF;" d="M193.467,109.754c0-4.513-3.673-8.186-8.186-8.186s-8.186,3.672-8.186,8.186   c0,4.514,3.673,8.186,8.186,8.186S193.467,114.268,193.467,109.754z"/>
	<path style="fill:#FFFFFF;" d="M169.31,115.4c-0.815-0.264-1.662-0.397-2.519-0.397c-3.55,0-6.677,2.267-7.789,5.666   c-1.387,4.287,0.971,8.91,5.258,10.304c0.818,0.266,1.67,0.401,2.531,0.401c3.561,0,6.691-2.278,7.788-5.666   C175.966,121.421,173.608,116.797,169.31,115.4z"/>
	<path style="fill:#FFFFFF;" d="M178.667,138.303c-1.409-1.024-3.074-1.566-4.814-1.566c-2.611,0-5.087,1.262-6.614,3.363   c-1.291,1.768-1.813,3.933-1.473,6.094c0.34,2.163,1.502,4.062,3.281,5.356c1.407,1.02,3.068,1.559,4.806,1.559   c2.615,0,5.092-1.264,6.623-3.375c1.286-1.771,1.804-3.936,1.46-6.097C181.595,141.477,180.429,139.581,178.667,138.303z"/>
	<path style="fill:#FFFFFF;" d="M196.707,136.737c-1.74,0-3.404,0.541-4.805,1.559c-1.775,1.287-2.941,3.189-3.282,5.354   c-0.34,2.166,0.184,4.333,1.459,6.078c1.535,2.117,4.012,3.381,6.626,3.381c1.739,0,3.399-0.539,4.814-1.565   c3.646-2.651,4.46-7.776,1.808-11.432C201.795,137.999,199.319,136.737,196.707,136.737z"/>
	<path style="fill:#FFFFFF;" d="M203.77,115.002c-0.856,0-1.704,0.133-2.532,0.402c-2.082,0.676-3.774,2.125-4.765,4.076   c-0.991,1.951-1.162,4.172-0.49,6.228c1.097,3.389,4.226,5.666,7.788,5.666c0.861,0,1.713-0.135,2.532-0.401   c4.285-1.394,6.644-6.017,5.247-10.329C210.446,117.269,207.32,115.002,203.77,115.002z"/>
	<path style="fill:#FFFFFF;" d="M473.63,211.753c-4.239,0-7.674-3.436-7.674-7.674h-15.349c0,4.238-3.435,7.674-7.674,7.674H51.562   v138.131h445.091V211.753H473.63z"/>
</g>
<path d="M504.326,42.925H43.888c-4.239,0-7.674,3.436-7.674,7.674v306.959c0,4.238,3.435,7.674,7.674,7.674h460.438  c4.239,0,7.674-3.436,7.674-7.674V50.599C512,46.361,508.565,42.925,504.326,42.925z M51.562,349.884V211.753h391.373  c4.239,0,7.674-3.436,7.674-7.674c0-4.239-3.435-7.674-7.674-7.674H51.562V58.273h445.091v138.131h-23.022  c-4.239,0-7.674,3.436-7.674,7.674c0,4.238,3.435,7.674,7.674,7.674h23.022v138.131H51.562V349.884z"/>
<path style="fill:#FFFFFF;" d="M134.373,164.482c-10.795-8.786-17.701-22.173-17.701-37.143c0-14.971,6.907-28.359,17.701-37.144  c-16.507,4.286-28.73,19.315-28.73,37.144C105.643,145.168,117.866,160.196,134.373,164.482z"/>
<path d="M166.168,159.827c-0.537,0.026-1.078,0.041-1.619,0.041c-17.938,0-32.529-14.591-32.529-32.528s14.591-32.529,32.529-32.529  c0.541,0,1.083,0.016,1.619,0.041c0.139,0.006,0.29,0.006,0.415,0.009c4.228-0.013,7.65-3.444,7.65-7.674  c0-3.034-1.76-5.657-4.315-6.902c-7.908-4.36-16.855-6.662-25.907-6.662c-29.621,0-53.718,24.098-53.718,53.719  c0,29.619,24.097,53.718,53.718,53.718c9.199,0,18.29-2.378,26.29-6.876c3.102-1.745,4.598-5.392,3.613-8.813  C172.931,161.948,169.751,159.651,166.168,159.827z M134.373,90.195c-10.794,8.786-17.701,22.174-17.701,37.144  s6.906,28.358,17.701,37.143c-16.507-4.286-28.73-19.314-28.73-37.143C105.643,109.51,117.866,94.481,134.373,90.195z"/>
<path style="fill:#2E3033;" d="M20.97,482.004c-6.429,0-11.661-5.232-11.661-11.661V41.55c0-6.371,5.183-11.554,11.554-11.554h1.524  c6.431,0,11.661,5.232,11.661,11.661v428.685c0,6.431-5.232,11.661-11.661,11.661H20.97V482.004z"/>
<path d="M22.386,20.687h-1.524C9.359,20.687,0,30.046,0,41.55v428.793c0,11.563,9.407,20.97,20.97,20.97h1.415  c11.564,0,20.97-9.407,20.97-20.97V41.657C43.357,30.094,33.949,20.687,22.386,20.687z M27.841,470.343  c0,3.008-2.447,5.455-5.455,5.455h-1.415c-3.008,0-5.455-2.447-5.455-5.455V41.55c0-2.949,2.399-5.348,5.348-5.348h1.524  c3.008,0,5.455,2.447,5.455,5.455v428.686H27.841z"/>
<g>
</g>
<g>
</g>
<g>
</g>
<g>
</g>
<g>
</g>
<g>
</g>
<g>
</g>
<g>
</g>
<g>
</g>
<g>
</g>
<g>
</g>
<g>
</g>
<g>
</g>
<g>
</g>
<g>
</g>
</svg>
