<?xml version="1.0" encoding="iso-8859-1"?>
<!-- Generator: Adobe Illustrator 19.0.0, SVG Export Plug-In . SVG Version: 6.00 Build 0)  -->
<svg xmlns="http://www.w3.org/2000/svg" xmlns:xlink="http://www.w3.org/1999/xlink" version="1.1" id="Layer_1" x="0px" y="0px" viewBox="0 0 511.999 511.999" style="enable-background:new 0 0 511.999 511.999;" xml:space="preserve">
<path style="fill:#FFE000;" d="M348.514,263.325c-2.135,1.088-4.475,1.629-6.872,1.629c-2.621,0-5.309-0.648-7.866-1.942  l-54.435-27.696c-3.646,1.305-7.568,2.023-11.657,2.023c-5.015,0-9.779-1.08-14.086-3.004l-23.761,11.901  c10.055,11.001,19.785,26.766,24.173,40.449c0.444,0.132,0.885,0.298,1.313,0.516c3.882,1.968,5.435,6.709,3.468,10.593  l-12.256,24.193c-1.388,2.741-4.161,4.32-7.036,4.32c-1.198,0-2.413-0.274-3.556-0.852c-3.882-1.968-5.435-6.709-3.468-10.594  l6.179-12.197l-57.626-46.969c-4.253-3.467-6.54-8.329-6.277-13.339c0.263-5.01,3.049-9.604,7.64-12.605l51.207-33.297  c0.863-4.732,2.682-9.135,5.261-12.99L43.072,52.94h-3.94v299.484h453.166l-139.169-92.78  C351.842,261.158,350.295,262.417,348.514,263.325z"/>
<path style="fill:#ED1F34;" d="M409.545,52.94H43.072L238.86,183.467c2.28-3.408,5.147-6.386,8.454-8.799l1.574-26.54  c-14.555,3.209-33.075,3.752-47.117,0.711c-0.338,0.319-0.702,0.616-1.105,0.878c-1.329,0.868-2.822,1.282-4.3,1.282  c-2.574,0-5.096-1.258-6.607-3.573l-14.824-22.711c-2.378-3.646-1.352-8.529,2.292-10.908c3.643-2.38,8.528-1.354,10.907,2.291  l7.474,11.45l69.489-26.42c5.127-1.949,10.481-1.5,14.689,1.232c4.208,2.733,6.794,7.443,7.098,12.921l3.232,61.017  c6.606,5.625,11.084,13.674,12.032,22.764l22.175,14.619c4.5-14.207,13.288-30.517,22.942-41.157  c-0.107-0.453-0.181-0.918-0.207-1.397c-0.238-4.348,3.093-8.063,7.439-8.301l27.079-1.482c4.345-0.219,8.062,3.093,8.299,7.439  c0.238,4.347-3.092,8.063-7.439,8.3l-13.654,0.747l-11.863,73.39c-0.526,3.256-1.858,6.138-3.796,8.424l139.169,92.78h3.94V52.94  h-55.169c-4.352,0-7.881-3.528-7.881-7.882h-15.763C417.427,49.413,413.898,52.94,409.545,52.94z"/>
<path d="M504.119,37.178H441.07c-4.352,0-7.881,3.528-7.881,7.881c0,4.354,3.529,7.882,7.881,7.882h55.169v299.484h-3.94H39.132  V52.94h3.94h366.473c4.353,0,7.881-3.528,7.881-7.882c0-4.353-3.529-7.881-7.881-7.881H31.25c-4.352,0-7.881,3.528-7.881,7.881  v315.245c0,4.353,3.529,7.882,7.881,7.882h472.868c4.353,0,7.881-3.529,7.881-7.882V45.059  C512,40.706,508.471,37.178,504.119,37.178z"/>
<path style="fill:#E7D3CD;" d="M271.101,115.738c-0.11,0.025-0.244,0.066-0.398,0.123l-50.554,19.221  c12.036,0.269,25.461-1.426,34.311-5.016c2.505-1.019,5.359-0.679,7.558,0.898c2.198,1.577,3.433,4.172,3.274,6.872l-1.807,30.453  c1.379-0.167,2.779-0.263,4.201-0.263c2.132,0,4.216,0.204,6.243,0.575l-2.781-52.467  C271.138,115.978,271.121,115.846,271.101,115.738z"/>
<path d="M263.483,168.289l1.807-30.453c0.16-2.699-1.075-5.293-3.274-6.872c-2.199-1.575-5.053-1.916-7.558-0.898  c-8.851,3.59-22.275,5.285-34.311,5.016l50.554-19.221c0.154-0.058,0.288-0.098,0.398-0.123c0.02,0.108,0.038,0.24,0.046,0.395  l2.781,52.467c6.103,1.114,11.65,3.829,16.192,7.699l-3.232-61.017c-0.304-5.478-2.89-10.188-7.098-12.921  c-4.206-2.732-9.56-3.181-14.689-1.232l-69.489,26.42l-7.474-11.45c-2.379-3.647-7.264-4.672-10.907-2.291  c-3.646,2.378-4.671,7.263-2.292,10.908l14.824,22.711c1.512,2.317,4.033,3.573,6.607,3.573c1.478,0,2.971-0.414,4.3-1.282  c0.403-0.262,0.767-0.56,1.105-0.878c14.043,3.041,32.562,2.498,47.117-0.711l-1.574,26.54  C251.968,171.276,257.491,169.017,263.483,168.289z"/>
<path style="fill:#E7D3CD;" d="M190.681,243.195c0.078,0.083,0.178,0.18,0.307,0.285l41.922,34.169  c-5.79-10.55-13.964-21.338-21.5-27.205c-2.134-1.661-3.267-4.303-3.001-6.994c0.267-2.692,1.895-5.059,4.314-6.271l27.284-13.666  c-2.09-2.77-3.773-5.865-4.963-9.193L191,242.96C190.87,243.044,190.765,243.125,190.681,243.195z"/>
<path d="M240.007,223.512l-27.284,13.666c-2.419,1.213-4.047,3.58-4.314,6.271c-0.267,2.691,0.866,5.332,3.001,6.994  c7.536,5.867,15.711,16.656,21.5,27.205l-41.922-34.169c-0.129-0.105-0.229-0.201-0.307-0.285c0.084-0.07,0.189-0.152,0.319-0.237  l44.044-28.64c-1.301-3.639-2.016-7.556-2.016-11.637c0-2.127,0.203-4.204,0.571-6.225l-51.207,33.297  c-4.591,3.001-7.376,7.595-7.64,12.605c-0.264,5.01,2.024,9.871,6.277,13.339l57.625,46.969l-6.179,12.197  c-1.967,3.884-0.414,8.625,3.468,10.594c1.142,0.578,2.358,0.852,3.556,0.852c2.877,0,5.648-1.58,7.036-4.32l12.256-24.193  c1.967-3.883,0.414-8.624-3.468-10.593c-0.428-0.218-0.869-0.385-1.313-0.516c-4.387-13.683-14.118-29.448-24.173-40.449  l23.761-11.901C248.202,231.923,243.528,228.179,240.007,223.512z"/>
<path style="fill:#E7D3CD;" d="M340.907,248.955c0.139,0.069,0.261,0.121,0.365,0.156c0.032-0.109,0.065-0.243,0.091-0.407  l8.631-53.39c-6.242,10.289-11.497,22.762-12.811,32.221c-0.373,2.679-2.093,4.98-4.557,6.095s-5.329,0.888-7.588-0.599  l-25.465-16.789c-1.385,3.244-3.255,6.229-5.511,8.878L340.907,248.955z"/>
<path d="M299.575,216.243l25.465,16.789c2.258,1.487,5.123,1.714,7.588,0.599c2.464-1.115,4.184-3.416,4.557-6.095  c1.314-9.459,6.569-21.932,12.811-32.221l-8.631,53.39c-0.027,0.163-0.059,0.297-0.091,0.407c-0.104-0.035-0.226-0.087-0.365-0.156  l-46.843-23.833c-3.897,4.575-8.957,8.128-14.723,10.194l54.435,27.696c2.557,1.294,5.245,1.942,7.866,1.942  c2.395,0,4.737-0.542,6.872-1.629c1.781-0.907,3.328-2.166,4.614-3.681c1.94-2.285,3.271-5.167,3.796-8.424l11.863-73.39  l13.654-0.747c4.347-0.238,7.677-3.955,7.439-8.3c-0.238-4.346-3.955-7.658-8.299-7.439l-27.079,1.482  c-4.347,0.239-7.677,3.955-7.439,8.301c0.027,0.479,0.1,0.945,0.207,1.397c-9.655,10.639-18.443,26.949-22.942,41.157  l-22.175-14.619c0.124,1.19,0.19,2.397,0.19,3.619C302.341,207.492,301.354,212.075,299.575,216.243z"/>
<path style="fill:#E7D3CD;" d="M267.685,221.577c10.418,0,18.894-8.476,18.894-18.894s-8.476-18.894-18.894-18.894  s-18.894,8.476-18.894,18.894S257.266,221.577,267.685,221.577z"/>
<path style="fill:#F2A643;" d="M233.028,202.682c0,4.081,0.715,7.998,2.016,11.637c1.19,3.328,2.872,6.422,4.963,9.193  c3.52,4.667,8.194,8.411,13.59,10.822c4.307,1.925,9.073,3.004,14.086,3.004c4.089,0,8.011-0.717,11.657-2.023  c5.766-2.065,10.825-5.619,14.723-10.194c2.256-2.649,4.126-5.635,5.511-8.878c1.779-4.168,2.766-8.751,2.766-13.562  c0-1.222-0.066-2.429-0.19-3.619c-0.948-9.09-5.426-17.139-12.032-22.764c-4.542-3.87-10.089-6.585-16.192-7.699  c-2.027-0.371-4.111-0.575-6.243-0.575c-1.422,0-2.822,0.097-4.201,0.263c-5.992,0.729-11.516,2.988-16.168,6.379  c-3.308,2.412-6.176,5.391-8.454,8.799c-2.579,3.856-4.399,8.258-5.261,12.99C233.231,198.478,233.028,200.556,233.028,202.682z   M267.685,183.788c10.418,0,18.894,8.476,18.894,18.894s-8.476,18.894-18.894,18.894c-10.418,0-18.894-8.476-18.894-18.894  S257.266,183.788,267.685,183.788z"/>
<path style="fill:#2E3033;" d="M21.536,488.099c-6.603,0-11.976-5.373-11.976-11.976V35.765c0-6.542,5.323-11.865,11.865-11.865  h1.565c6.604,0,11.976,5.373,11.976,11.976v440.247c0,6.604-5.373,11.976-11.976,11.976h-1.454V488.099z"/>
<path d="M22.99,14.34h-1.565C9.611,14.34,0,23.951,0,35.765v440.358c0,11.876,9.661,21.536,21.536,21.536h1.453  c11.876,0,21.536-9.661,21.536-21.536V35.876C44.526,24.001,34.865,14.34,22.99,14.34z M28.592,476.123  c0,3.089-2.513,5.602-5.602,5.602h-1.453c-3.089,0-5.602-2.513-5.602-5.602V35.765c0-3.028,2.463-5.492,5.492-5.492h1.565  c3.089,0,5.602,2.513,5.602,5.602v440.248H28.592z"/>
<g>
</g>
<g>
</g>
<g>
</g>
<g>
</g>
<g>
</g>
<g>
</g>
<g>
</g>
<g>
</g>
<g>
</g>
<g>
</g>
<g>
</g>
<g>
</g>
<g>
</g>
<g>
</g>
<g>
</g>
</svg>
