<?xml version="1.0" encoding="iso-8859-1"?>
<!-- Generator: Adobe Illustrator 19.0.0, SVG Export Plug-In . SVG Version: 6.00 Build 0)  -->
<svg xmlns="http://www.w3.org/2000/svg" xmlns:xlink="http://www.w3.org/1999/xlink" version="1.1" id="Layer_1" x="0px" y="0px" viewBox="0 0 512.001 512.001" style="enable-background:new 0 0 512.001 512.001;" xml:space="preserve">
<path style="fill:#259245;" d="M473.63,349.885h23.022v-85.079l-382.857,85.079h331.867c4.24,0,7.675,3.435,7.675,7.674h12.618  C465.955,353.32,469.391,349.885,473.63,349.885z"/>
<polygon style="fill:#FFFFFF;" points="496.652,164.728 117.051,333.439 496.652,249.083 "/>
<polygon style="fill:#ED1F34;" points="496.652,147.932 496.652,58.273 353.348,58.273 78.423,333.812 "/>
<path style="fill:#FFE000;" d="M173.056,117.467L72.166,318.352L331.665,58.273H202.783l-15.952,31.764  c-1.347,2.682-4.054,4.231-6.864,4.231c-1.157,0-2.331-0.263-3.436-0.817l-6.888,13.715  C173.429,109.069,174.957,113.679,173.056,117.467z"/>
<path style="fill:#103B9B;" d="M159.341,110.578c1.902-3.787,6.516-5.315,10.302-3.413c0,0,0,0,0.001,0.001l6.888-13.715  l-0.001-0.001c-3.788-1.902-5.317-6.514-3.414-10.302l12.492-24.875H51.562V325.18L159.341,110.578z"/>
<path d="M512,255.111V152.802c0-0.012,0-0.023,0-0.035V50.6c0-4.239-3.435-7.674-7.674-7.674h-154.15c-0.014,0-0.028,0-0.042,0  H43.888c-4.239,0-7.674,3.435-7.674,7.674v306.959c0,4.24,3.435,7.675,7.674,7.675h401.775c4.24,0,7.675-3.435,7.675-7.675  c0-4.239-3.435-7.674-7.675-7.674H113.796l382.857-85.079v85.079h-23.022c-4.24,0-7.675,3.435-7.675,7.674  c0,4.24,3.435,7.675,7.675,7.675h30.696c4.239,0,7.674-3.435,7.674-7.675V255.132v-0.021H512z M496.652,58.273v89.659  l-418.23,185.88L353.348,58.273L496.652,58.273L496.652,58.273z M185.608,58.273l-12.492,24.875  c-1.902,3.788-0.373,8.4,3.413,10.302l0.002,0.001c1.105,0.554,2.279,0.817,3.436,0.817c2.81,0,5.517-1.549,6.864-4.231  l15.952-31.764h128.883l-259.5,260.078l100.89-200.885c1.902-3.788,0.373-8.398-3.412-10.301c-0.001-0.001-0.001-0.001-0.001-0.001  c-3.786-1.902-8.4-0.373-10.302,3.413L51.562,325.181V58.273H185.608z M496.652,164.728v84.355L117.051,333.44L496.652,164.728z"/>
<path style="fill:#2E3033;" d="M20.97,482.005c-6.429,0-11.661-5.232-11.661-11.661V41.55c0-6.371,5.183-11.554,11.554-11.554h1.524  c6.431,0,11.661,5.232,11.661,11.661v428.685c0,6.431-5.232,11.661-11.661,11.661H20.97V482.005z"/>
<path d="M22.386,20.687h-1.524C9.359,20.687,0,30.046,0,41.55v428.793c0,11.563,9.407,20.97,20.97,20.97h1.415  c11.564,0,20.97-9.407,20.97-20.97V41.658C43.357,30.095,33.949,20.687,22.386,20.687z M27.841,470.343  c0,3.008-2.447,5.455-5.455,5.455h-1.415c-3.008,0-5.455-2.447-5.455-5.455V41.55c0-2.949,2.399-5.348,5.348-5.348h1.524  c3.008,0,5.455,2.447,5.455,5.455v428.686H27.841z"/>
<g>
</g>
<g>
</g>
<g>
</g>
<g>
</g>
<g>
</g>
<g>
</g>
<g>
</g>
<g>
</g>
<g>
</g>
<g>
</g>
<g>
</g>
<g>
</g>
<g>
</g>
<g>
</g>
<g>
</g>
</svg>
