<?xml version="1.0" encoding="iso-8859-1"?>
<!-- Generator: Adobe Illustrator 19.0.0, SVG Export Plug-In . SVG Version: 6.00 Build 0)  -->
<svg xmlns="http://www.w3.org/2000/svg" xmlns:xlink="http://www.w3.org/1999/xlink" version="1.1" id="Layer_1" x="0px" y="0px" viewBox="0 0 512 512" style="enable-background:new 0 0 512 512;" xml:space="preserve">
<g>
	<rect x="51.24" y="161.167" style="fill:#103B9B;" width="70.684" height="86.454"/>
	<path style="fill:#103B9B;" d="M409.753,161.171H280.587v86.45h213.072v-86.45h-53.396c-4.213,0-7.628-3.415-7.628-7.628H417.38   C417.381,157.755,413.965,161.171,409.753,161.171z"/>
</g>
<g>
	<path style="fill:#ED1F34;" d="M208.882,102.282l-0.001,10.369l18.936,11.437l8.696-5.252   C229.668,110.072,219.817,104.173,208.882,102.282z"/>
	<path style="fill:#ED1F34;" d="M165.998,118.835l8.694,5.252l18.933-11.437l0.001-10.369   C182.693,104.176,172.843,110.073,165.998,118.835z"/>
	<path style="fill:#ED1F34;" d="M129.551,145.915h18.713l-7.483-26.917c-0.837-3.011,0.248-6.229,2.738-8.118   c2.489-1.89,5.881-2.07,8.555-0.453l0.776,0.469c9.723-13.266,24.471-21.969,40.777-24.056V83.46c0-4.212,3.415-7.627,7.628-7.627   c0,0,0,0,0.001,0c4.212,0,7.628,3.416,7.627,7.629v3.377c16.306,2.087,31.055,10.79,40.777,24.056l0.776-0.469   c2.677-1.615,6.068-1.435,8.556,0.453c2.489,1.89,3.574,5.108,2.737,8.118l-7.482,26.917h18.712h136.793   c4.213,0,7.628,3.415,7.628,7.628h15.256c0-4.213,3.414-7.628,7.628-7.628h53.396v-86.45H51.24v86.45H129.551z"/>
</g>
<path style="fill:#FFFFFF;" d="M280.03,262.876c-4.599,39.399-38.16,70.082-78.774,70.082s-74.176-30.683-78.775-70.082H51.24v86.45  h442.419v-86.45H280.03L280.03,262.876z"/>
<path d="M504.371,44.209H46.696c-4.212,0-7.628,3.415-7.628,7.628v305.117c0,4.213,3.415,7.628,7.628,7.628h457.676  c4.214,0,7.629-3.415,7.629-7.628V51.836C512,47.624,508.586,44.209,504.371,44.209z M493.659,59.465v86.45h-53.396  c-4.213,0-7.628,3.415-7.628,7.628c0,4.212,3.414,7.628,7.628,7.628h53.396v86.45H280.587v-86.45h129.166  c4.213,0,7.628-3.415,7.628-7.628c0-4.213-3.414-7.628-7.628-7.628H272.96h-18.712l7.482-26.917  c0.836-3.011-0.248-6.229-2.737-8.118c-2.488-1.89-5.88-2.07-8.556-0.453l-0.776,0.469l-13.149,7.941l-8.696,5.252l-18.936-11.437  l-3.685-2.226c-2.425-1.465-5.462-1.464-7.887,0l-3.684,2.226l-18.933,11.437l-8.694-5.252l-13.147-7.941l-0.776-0.469  c-2.675-1.616-6.066-1.436-8.555,0.453c-2.489,1.89-3.575,5.108-2.738,8.118l7.483,26.917h-18.713H51.241v-86.45H493.659z   M201.256,317.702c-35.332,0-64.076-28.744-64.076-64.076V161.17h21.122h85.908h21.122v92.456  C265.331,288.958,236.587,317.702,201.256,317.702z M160.622,133.412l10.126,6.116c2.424,1.465,5.462,1.465,7.888,0l22.617-13.662  l22.62,13.662c2.425,1.465,5.461,1.465,7.887,0l10.13-6.117l-3.476,12.504h-74.315L160.622,133.412z M121.924,247.621H51.24v-86.45  h70.684V247.621z M51.24,349.326v-86.45h71.241c4.599,39.399,38.161,70.082,78.775,70.082s74.175-30.683,78.774-70.082h213.629  v86.45H51.24z"/>
<path style="fill:#FFE000;" d="M208.884,86.838v-3.377c0.001-4.213-3.414-7.629-7.627-7.629c-0.001,0-0.001,0-0.001,0  c-4.212,0-7.628,3.414-7.628,7.627v3.379c-16.306,2.087-31.054,10.79-40.777,24.056l13.147,7.941  c6.844-8.763,16.694-14.66,27.627-16.554l-0.001,10.369l3.684-2.226c2.424-1.464,5.462-1.465,7.887,0l3.685,2.226l0.001-10.369  c10.935,1.892,20.786,7.789,27.631,16.554l13.149-7.941C239.938,97.629,225.19,88.926,208.884,86.838z"/>
<path style="fill:#ED1F34;" d="M265.331,161.171H244.21h-85.908H137.18v92.456c0,35.331,28.744,64.076,64.076,64.076  c35.331,0,64.075-28.744,64.075-64.076V161.171z M250.074,260.522c0,2.692-1.418,5.184-3.732,6.558  c-1.199,0.712-2.547,1.07-3.896,1.07c-1.255,0-2.511-0.308-3.65-0.929l-21.485-11.705c-2.241,1.853-5.075,3.585-8.428,4.692v34.611  c0,4.212-3.415,7.628-7.628,7.628c-4.213,0-7.628-3.415-7.628-7.628v-34.611c-3.354-1.107-6.187-2.84-8.428-4.692l-21.484,11.705  c-1.139,0.621-2.396,0.929-3.65,0.929c-1.349,0-2.696-0.358-3.896-1.07c-2.314-1.375-3.732-3.867-3.732-6.558v-43.532  c0-11.556,9.401-20.957,20.957-20.957c5.641,0,10.759,2.251,14.53,5.889l-3.569-10.238h-2.964c-4.213,0-7.628-3.415-7.628-7.628  c0-4.212,3.415-7.628,7.628-7.628h8.382c3.245,0,6.135,2.053,7.203,5.117l4.278,12.272l4.278-12.272  c1.068-3.064,3.958-5.117,7.203-5.117h8.383c4.212,0,7.628,3.415,7.628,7.628c0,4.212-3.415,7.628-7.628,7.628h-2.964l-3.569,10.238  c3.771-3.638,8.889-5.889,14.53-5.889c11.556,0,20.957,9.401,20.957,20.957L250.074,260.522L250.074,260.522z"/>
<g>
	<path style="fill:#FFFFFF;" d="M179.096,241.468V216.99c0-3.144-2.557-5.702-5.701-5.702s-5.702,2.558-5.702,5.702v30.69   L179.096,241.468z"/>
	<path style="fill:#FFFFFF;" d="M234.819,216.99c0-3.144-2.558-5.702-5.702-5.702s-5.701,2.558-5.701,5.702v24.477l11.403,6.212   V216.99z"/>
</g>
<path d="M250.074,216.99c0-11.556-9.401-20.957-20.957-20.957c-5.641,0-10.759,2.251-14.53,5.889l3.569-10.238h2.964  c4.212,0,7.628-3.415,7.628-7.628c0-4.212-3.415-7.628-7.628-7.628h-8.383c-3.245,0-6.135,2.053-7.203,5.117l-4.278,12.272  l-4.278-12.272c-1.068-3.064-3.958-5.117-7.203-5.117h-8.382c-4.213,0-7.628,3.415-7.628,7.628c0,4.212,3.415,7.628,7.628,7.628  h2.964l3.569,10.238c-3.771-3.638-8.889-5.889-14.53-5.889c-11.556,0-20.957,9.401-20.957,20.957v43.532  c0,2.692,1.418,5.184,3.732,6.558c1.2,0.712,2.547,1.07,3.896,1.07c1.254,0,2.511-0.309,3.65-0.929l21.484-11.705  c2.241,1.853,5.075,3.585,8.428,4.692v34.611c0,4.212,3.415,7.628,7.628,7.628c4.212,0,7.628-3.415,7.628-7.628v-34.611  c3.354-1.107,6.187-2.84,8.428-4.692l21.485,11.705c1.139,0.621,2.394,0.929,3.65,0.929c1.349,0,2.697-0.358,3.896-1.07  c2.314-1.375,3.732-3.867,3.732-6.558L250.074,216.99L250.074,216.99z M167.692,216.99c0-3.144,2.558-5.702,5.702-5.702  s5.701,2.558,5.701,5.702v24.477l-11.403,6.212V216.99z M208.16,243.251c-1.319,1.269-3.662,2.927-6.904,2.927  s-5.586-1.657-6.904-2.927v-18.633h13.808L208.16,243.251L208.16,243.251z M223.416,241.468V216.99c0-3.144,2.557-5.702,5.701-5.702  s5.702,2.558,5.702,5.702v30.69L223.416,241.468z"/>
<path style="fill:#ED1F34;" d="M194.352,224.618v18.634c1.319,1.269,3.662,2.927,6.904,2.927s5.585-1.657,6.904-2.927v-18.633  L194.352,224.618L194.352,224.618z"/>
<path style="fill:#FFE000;" d="M241.889,133.411l-10.13,6.117c-2.425,1.465-5.462,1.465-7.887,0l-22.619-13.662l-22.617,13.662  c-2.425,1.465-5.463,1.465-7.888,0l-10.126-6.116l3.476,12.503h74.315L241.889,133.411z"/>
<path style="fill:#2E3033;" d="M20.844,480.643c-6.391,0-11.591-5.2-11.591-11.591V42.841c0-6.332,5.152-11.484,11.484-11.484h1.514  c6.392,0,11.591,5.2,11.591,11.591v426.102c0,6.392-5.2,11.591-11.591,11.591h-1.407V480.643z"/>
<path d="M22.251,22.104h-1.514C9.302,22.104,0,31.407,0,42.841v426.21c0,11.494,9.351,20.844,20.844,20.844h1.406  c11.494,0,20.844-9.351,20.844-20.844V42.948C43.095,31.455,33.745,22.104,22.251,22.104z M27.674,469.052  c0,2.99-2.433,5.422-5.422,5.422h-1.406c-2.99,0-5.422-2.432-5.422-5.422V42.841c0-2.931,2.384-5.315,5.315-5.315h1.514  c2.99,0,5.422,2.433,5.422,5.422v426.103H27.674z"/>
<g>
</g>
<g>
</g>
<g>
</g>
<g>
</g>
<g>
</g>
<g>
</g>
<g>
</g>
<g>
</g>
<g>
</g>
<g>
</g>
<g>
</g>
<g>
</g>
<g>
</g>
<g>
</g>
<g>
</g>
</svg>
