<?xml version="1.0" encoding="iso-8859-1"?>
<!-- Generator: Adobe Illustrator 19.0.0, SVG Export Plug-In . SVG Version: 6.00 Build 0)  -->
<svg xmlns="http://www.w3.org/2000/svg" xmlns:xlink="http://www.w3.org/1999/xlink" version="1.1" id="Layer_1" x="0px" y="0px" viewBox="0 0 512 512" style="enable-background:new 0 0 512 512;" xml:space="preserve">
<path style="fill:#FFE000;" d="M343.172,58.273H205.041v291.611h138.131V58.273z M313.36,202.318l-15.856,12.821l5.293,19.692  c0.824,3.07-0.329,6.331-2.9,8.199c-1.343,0.975-2.925,1.467-4.511,1.467c-1.454,0-2.91-0.412-4.184-1.24l-17.093-11.119  l-17.092,11.119c-2.666,1.735-6.123,1.643-8.695-0.227c-2.571-1.868-3.726-5.129-2.9-8.199l5.293-19.692l-15.856-12.821  c-2.473-1.998-3.457-5.316-2.474-8.34c0.983-3.022,3.727-5.128,6.902-5.292l20.364-1.053l7.293-19.041  c1.137-2.97,3.986-4.93,7.166-4.93c3.179,0,6.029,1.96,7.166,4.93l7.293,19.041l20.364,1.053c3.174,0.163,5.92,2.269,6.902,5.292  C316.815,197.002,315.832,200.319,313.36,202.318z"/>
<path style="fill:#259245;" d="M278.291,216.547l4.482,2.916l-1.388-5.164c-0.787-2.93,0.227-6.05,2.586-7.957l4.157-3.362  l-5.339-0.277c-3.031-0.155-5.685-2.085-6.77-4.919l-1.913-4.992l-1.913,4.992c-1.085,2.834-3.739,4.763-6.77,4.919l-5.339,0.277  l4.158,3.362c2.36,1.908,3.374,5.027,2.586,7.957l-1.388,5.164l4.482-2.916c1.272-0.827,2.728-1.24,4.184-1.24  C275.564,215.307,277.019,215.721,278.291,216.547z"/>
<path d="M315.833,193.978c-0.983-3.022-3.728-5.128-6.902-5.292l-20.364-1.053l-7.293-19.041c-1.137-2.97-3.987-4.93-7.166-4.93  c-3.18,0-6.029,1.96-7.166,4.93l-7.293,19.041l-20.364,1.053c-3.175,0.163-5.92,2.269-6.902,5.292  c-0.983,3.024,0.001,6.342,2.474,8.34l15.856,12.821l-5.293,19.692c-0.825,3.07,0.329,6.331,2.9,8.199  c2.571,1.869,6.03,1.961,8.695,0.227l17.093-11.119l17.093,11.119c1.274,0.829,2.73,1.24,4.184,1.24  c1.586,0,3.168-0.491,4.511-1.467c2.571-1.868,3.726-5.129,2.9-8.199l-5.293-19.692l15.856-12.821  C315.832,200.319,316.815,197.002,315.833,193.978z M265.44,219.464l1.388-5.164c0.787-2.93-0.227-6.05-2.586-7.957l-4.158-3.362  l5.339-0.277c3.031-0.155,5.685-2.085,6.77-4.919l1.913-4.992l1.913,4.992c1.085,2.834,3.739,4.763,6.77,4.919l5.339,0.277  l-4.157,3.362c-2.36,1.908-3.374,5.027-2.586,7.957l1.388,5.164l-4.482-2.916c-1.272-0.827-2.729-1.24-4.184-1.24  c-1.456,0-2.912,0.413-4.184,1.24L265.44,219.464z"/>
<rect x="51.562" y="58.275" style="fill:#259245;" width="138.126" height="291.612"/>
<path style="fill:#ED1F34;" d="M442.935,58.273h-84.414v291.611h138.131V58.273h-23.021c-4.239,0-7.674-3.434-7.674-7.673H450.61  C450.608,54.839,447.173,58.273,442.935,58.273z"/>
<path d="M504.326,42.925h-30.695c-4.239,0-7.674,3.435-7.674,7.675c0,4.239,3.436,7.673,7.674,7.673h23.021v291.611H358.521V58.273  h84.414c4.238,0,7.674-3.434,7.674-7.673c0-4.24-3.436-7.675-7.674-7.675H43.888c-4.238,0-7.674,3.435-7.674,7.675v306.958  c0,4.239,3.436,7.675,7.674,7.675h460.438c4.239,0,7.674-3.436,7.674-7.675V50.6C512,46.36,508.564,42.925,504.326,42.925z   M51.562,58.273h138.131v291.611H51.562V58.273z M205.041,58.273h138.131v291.611H205.041V58.273z"/>
<path style="fill:#2E3033;" d="M20.97,482.004c-6.429,0-11.661-5.232-11.661-11.661V41.55c0-6.371,5.183-11.554,11.554-11.554h1.524  c6.431,0,11.661,5.232,11.661,11.661v428.685c0,6.431-5.232,11.661-11.661,11.661H20.97V482.004z"/>
<path d="M22.386,20.687h-1.524C9.359,20.687,0,30.046,0,41.55v428.793c0,11.563,9.407,20.97,20.97,20.97h1.415  c11.564,0,20.97-9.407,20.97-20.97V41.657C43.357,30.094,33.949,20.687,22.386,20.687z M27.841,470.343  c0,3.008-2.447,5.455-5.455,5.455h-1.415c-3.008,0-5.455-2.447-5.455-5.455V41.55c0-2.949,2.399-5.348,5.348-5.348h1.524  c3.008,0,5.455,2.447,5.455,5.455v428.686H27.841z"/>
<g>
</g>
<g>
</g>
<g>
</g>
<g>
</g>
<g>
</g>
<g>
</g>
<g>
</g>
<g>
</g>
<g>
</g>
<g>
</g>
<g>
</g>
<g>
</g>
<g>
</g>
<g>
</g>
<g>
</g>
</svg>
