<?xml version="1.0" encoding="iso-8859-1"?>
<!-- Generator: Adobe Illustrator 19.0.0, SVG Export Plug-In . SVG Version: 6.00 Build 0)  -->
<svg xmlns="http://www.w3.org/2000/svg" xmlns:xlink="http://www.w3.org/1999/xlink" version="1.1" id="Layer_1" x="0px" y="0px" viewBox="0 0 512 512" style="enable-background:new 0 0 512 512;" xml:space="preserve">
<g>
	<polygon style="fill:#164FCE;" points="267.685,155.657 421.176,52.941 114.193,52.941  "/>
	<polygon style="fill:#164FCE;" points="267.685,249.707 114.193,352.424 421.176,352.424  "/>
	<path style="fill:#164FCE;" d="M446.527,120.545c2.421,3.618,1.451,8.513-2.167,10.934l-106.403,71.203l158.28,105.92V96.763   l-25.679,17.185c-1.347,0.9-2.869,1.332-4.376,1.332c-2.542,0-5.037-1.228-6.556-3.5l0,0L446.527,120.545L446.527,120.545z"/>
	<polygon style="fill:#164FCE;" points="197.412,202.683 39.132,96.763 39.132,308.603  "/>
</g>
<path style="fill:#FFFFFF;" d="M496.237,327.57L319.403,209.233c-2.186-1.464-3.497-3.92-3.497-6.55  c0-2.631,1.312-5.087,3.498-6.551l116.19-77.753c3.617-2.419,8.513-1.451,10.933,2.167l13.101-8.767  c-2.421-3.617-1.451-8.513,2.166-10.933l34.445-23.052V52.941h-46.719l-177.452,118.75c-1.327,0.888-2.855,1.331-4.383,1.331  s-3.057-0.443-4.383-1.331L85.85,52.941H39.132v24.853l176.834,118.338c2.186,1.464,3.498,3.92,3.498,6.551  c0,2.63-1.312,5.086-3.498,6.55L39.132,327.57v24.854H85.85l177.45-118.75c2.652-1.775,6.114-1.775,8.767,0l177.452,118.75h46.718  L496.237,327.57L496.237,327.57z"/>
<path d="M512,323.32V82.045c0-0.01,0-0.02,0-0.03V45.06c0-4.354-3.529-7.882-7.881-7.882h-56.945c-0.017,0-0.033,0-0.049,0H31.25  c-4.352,0-7.881,3.528-7.881,7.882v36.955c0,0.011,0,0.021,0,0.03V323.32c0,0.01,0,0.02,0,0.029v36.956  c0,4.353,3.529,7.882,7.881,7.882h56.923c0.032,0,0.065,0,0.097,0h358.832c0.004,0,0.01,0.001,0.015,0.001s0.011-0.001,0.017-0.001  h56.985c4.353,0,7.881-3.529,7.881-7.882v-36.956C512,323.34,512,323.329,512,323.32z M449.519,352.424l-177.452-118.75  c-2.652-1.775-6.114-1.775-8.767,0L85.85,352.424H39.132V327.57l176.834-118.337c2.186-1.464,3.498-3.92,3.498-6.55  c0-2.631-1.312-5.087-3.498-6.551L39.132,77.794V52.941H85.85l177.45,118.75c1.327,0.888,2.855,1.331,4.383,1.331  s3.057-0.443,4.383-1.331l177.453-118.75h46.718v24.853l-34.445,23.052c-3.617,2.42-4.587,7.316-2.166,10.933l0,0  c1.52,2.272,4.014,3.5,6.556,3.5c1.506,0,3.03-0.432,4.376-1.332l25.679-17.185v211.841l-158.28-105.92l106.403-71.203  c3.617-2.421,4.587-7.316,2.167-10.934l0,0c-2.42-3.618-7.316-4.586-10.933-2.167l-116.191,77.754  c-2.186,1.464-3.498,3.92-3.498,6.551c0,2.63,1.312,5.086,3.497,6.55L496.236,327.57v24.854L449.519,352.424L449.519,352.424z   M267.685,249.707l153.492,102.717H114.193L267.685,249.707z M197.412,202.683l-158.28,105.92V96.763L197.412,202.683z   M267.685,155.657L114.193,52.941h306.982L267.685,155.657z"/>
<path style="fill:#2E3033;" d="M21.536,488.1c-6.603,0-11.976-5.373-11.976-11.976V35.766c0-6.542,5.323-11.865,11.865-11.865h1.565  c6.604,0,11.976,5.373,11.976,11.976v440.247c0,6.604-5.373,11.976-11.976,11.976h-1.454V488.1z"/>
<path d="M22.99,14.34h-1.565C9.611,14.34,0,23.951,0,35.766v440.358C0,488,9.661,497.66,21.536,497.66h1.453  c11.876,0,21.536-9.661,21.536-21.536V35.876C44.526,24.001,34.865,14.34,22.99,14.34z M28.592,476.124  c0,3.089-2.513,5.602-5.602,5.602h-1.453c-3.089,0-5.602-2.513-5.602-5.602V35.766c0-3.028,2.463-5.492,5.492-5.492h1.565  c3.089,0,5.602,2.513,5.602,5.602v440.248H28.592z"/>
<g>
</g>
<g>
</g>
<g>
</g>
<g>
</g>
<g>
</g>
<g>
</g>
<g>
</g>
<g>
</g>
<g>
</g>
<g>
</g>
<g>
</g>
<g>
</g>
<g>
</g>
<g>
</g>
<g>
</g>
</svg>
