<?xml version="1.0" encoding="iso-8859-1"?>
<!-- Generator: Adobe Illustrator 19.0.0, SVG Export Plug-In . SVG Version: 6.00 Build 0)  -->
<svg xmlns="http://www.w3.org/2000/svg" xmlns:xlink="http://www.w3.org/1999/xlink" version="1.1" id="Layer_1" x="0px" y="0px" viewBox="0 0 512 512" style="enable-background:new 0 0 512 512;" xml:space="preserve">
<path style="fill:#259245;" d="M51.562,326.862v23.021h445.09V58.273H51.562v237.893c0,4.238-3.436,7.674-7.674,7.674v15.348  C48.126,319.188,51.562,322.624,51.562,326.862z M371.823,178.294v-53.858c0-4.239,3.436-7.674,7.674-7.674  c4.239,0,7.674,3.436,7.674,7.674v53.858c0,15.583-12.345,28.338-27.769,28.995c-0.445,0.079-0.895,0.118-1.345,0.118  c-1.985,0-3.969-0.765-5.471-2.292c-2.973-3.021-2.933-7.88,0.088-10.851l0.092-0.092c1.436-1.412,3.369-2.203,5.383-2.203  C365.688,191.967,371.823,185.833,371.823,178.294z M348.151,127.782c0-4.238,3.435-7.674,7.674-7.674  c4.239,0,7.674,3.436,7.674,7.674v15.455c0,4.239-3.435,7.674-7.674,7.674c-4.239,0-7.674-3.435-7.674-7.674V127.782z   M325.836,127.782c0-4.238,3.436-7.674,7.674-7.674c4.239,0,7.674,3.436,7.674,7.674v71.951c0,4.239-3.436,7.674-7.674,7.674  s-7.674-3.436-7.674-7.674V127.782z M330.661,242.262c4.238,0,7.674,3.436,7.674,7.674v7.616h14.332  c4.239,0,7.674,3.436,7.674,7.674v8.264c0,4.239-3.436,7.674-7.674,7.674c-4.238,0-7.674-3.436-7.674-7.674v-0.591h-6.658v7.616  c0,4.238-3.436,7.674-7.674,7.674c-4.239,0-7.674-3.436-7.674-7.674v-7.616H195.559c-4.238,0-7.674-3.436-7.674-7.674  c0-4.238,3.436-7.674,7.674-7.674h127.427v-7.615C322.986,245.698,326.422,242.262,330.661,242.262z M293.491,191.967  c2.021,0,3.959,0.797,5.396,2.219l0.092,0.091c3.013,2.981,3.04,7.839,0.059,10.852c-1.501,1.517-3.479,2.278-5.456,2.278  c-0.451,0-0.901-0.039-1.345-0.118c-7.935-0.339-15.051-3.885-20.094-9.366c-5.044,5.482-12.162,9.029-20.1,9.366  c-0.44,0.079-0.887,0.118-1.339,0.118c-0.011,0-0.022,0-0.034,0l-20.958-0.091c-4.239-0.019-7.659-3.469-7.641-7.708  c0.019-4.226,3.452-7.641,7.674-7.641c0.011,0,0.022,0,0.034,0l19.868,0.087c0.378-0.058,0.762-0.087,1.15-0.087  c7.539,0,13.673-6.135,13.673-13.674v-10.51c0-4.238,3.436-7.674,7.674-7.674h36.821c4.238,0,7.674,3.436,7.674,7.674  c0,4.239-3.436,7.674-7.674,7.674h-29.146v2.835C279.817,185.833,285.952,191.967,293.491,191.967z M254.291,135.564  c2.771,0,5.395-1.623,7.202-4.454c1.41-2.208,3.847-3.544,6.466-3.545h0.001c2.619,0,5.056,1.335,6.467,3.541  c1.811,2.833,4.435,4.458,7.199,4.458s5.391-1.627,7.207-4.462c1.411-2.203,3.847-3.536,6.464-3.536c0,0,0.001,0,0.002,0  c2.617,0.001,5.054,1.335,6.463,3.541c1.811,2.833,4.436,4.459,7.2,4.459c4.238,0,7.674,3.435,7.674,7.674  c0,4.239-3.436,7.674-7.674,7.674c-4.921,0-9.668-1.637-13.668-4.587c-4.001,2.949-8.748,4.587-13.668,4.587  c-4.92,0-9.666-1.637-13.665-4.584c-3.999,2.947-8.746,4.584-13.672,4.584c-4.238,0-7.674-3.435-7.674-7.674  C246.615,139,250.053,135.564,254.291,135.564z M222.07,124.435c0-4.239,3.436-7.674,7.674-7.674s7.674,3.436,7.674,7.674v28.679  c0,4.238-3.436,7.674-7.674,7.674c-4.239,0-7.674-3.436-7.674-7.674V124.435z M172.977,124.435c0-4.239,3.436-7.674,7.674-7.674  c4.238,0,7.674,3.436,7.674,7.674v43.349c0,4.239-3.436,7.674-7.674,7.674c-4.239,0-7.674-3.436-7.674-7.674V124.435z   M163.338,187.877c3.023-2.971,7.883-2.928,10.852,0.094c2.35,2.391,5.425,3.811,8.739,4.052c0.304-0.037,0.611-0.056,0.921-0.056  c7.539,0,13.673-6.135,13.673-13.674v-53.858c0-4.239,3.436-7.674,7.674-7.674c4.239,0,7.674,3.436,7.674,7.674v44.269h16.873  c4.238,0,7.674,3.436,7.674,7.674c0,4.239-3.436,7.674-7.674,7.674h-17.448c-2.599,12.859-13.725,22.665-27.199,23.237  c-0.44,0.079-0.887,0.118-1.339,0.118c-0.022,0-0.043,0-0.066,0c-7.752-0.067-15.013-3.149-20.447-8.677  C160.274,195.706,160.316,190.848,163.338,187.877z"/>
<path d="M504.326,42.925H43.888c-4.238,0-7.674,3.436-7.674,7.674v245.568c0,4.238,3.436,7.674,7.674,7.674  c4.239,0,7.674-3.436,7.674-7.674V58.273h445.09v291.61H51.562v-23.021c0-4.239-3.436-7.674-7.674-7.674s-7.674,3.436-7.674,7.674  v30.696c0,4.238,3.436,7.674,7.674,7.674h460.438c4.239,0,7.674-3.436,7.674-7.674V50.599C512,46.361,508.564,42.925,504.326,42.925  z"/>
<g>
	<path style="fill:#FFFFFF;" d="M195.559,257.552c-4.238,0-7.674,3.436-7.674,7.674c0,4.239,3.436,7.674,7.674,7.674h127.427v7.616   c0,4.238,3.436,7.674,7.674,7.674c4.238,0,7.674-3.436,7.674-7.674v-7.616h6.658v0.591c0,4.239,3.436,7.674,7.674,7.674   c4.239,0,7.674-3.436,7.674-7.674v-8.264c0-4.238-3.436-7.674-7.674-7.674h-14.332v-7.615c0-4.239-3.436-7.674-7.674-7.674   c-4.239,0-7.674,3.436-7.674,7.674v7.615H195.559z"/>
	<path style="fill:#FFFFFF;" d="M229.745,160.788c4.238,0,7.674-3.436,7.674-7.674v-28.679c0-4.239-3.436-7.674-7.674-7.674   c-4.239,0-7.674,3.436-7.674,7.674v28.679C222.07,157.352,225.507,160.788,229.745,160.788z"/>
	<path style="fill:#FFFFFF;" d="M183.691,207.407c0.023,0,0.044,0,0.066,0c0.452,0,0.901-0.04,1.339-0.118   c13.474-0.572,24.6-10.379,27.199-23.237h17.448c4.238,0,7.674-3.436,7.674-7.674c0-4.238-3.436-7.674-7.674-7.674h-16.873v-44.269   c0-4.239-3.436-7.674-7.674-7.674c-4.238,0-7.674,3.436-7.674,7.674v53.858c0,7.539-6.134,13.674-13.673,13.674   c-0.309,0-0.616,0.019-0.921,0.056c-3.314-0.241-6.389-1.661-8.739-4.052c-2.971-3.022-7.829-3.065-10.852-0.094   c-3.022,2.971-3.065,7.829-0.094,10.852C168.679,204.258,175.94,207.339,183.691,207.407z"/>
	<path style="fill:#FFFFFF;" d="M352.767,194.171l-0.092,0.092c-3.021,2.972-3.061,7.83-0.088,10.851   c1.502,1.527,3.486,2.292,5.471,2.292c0.45,0,0.9-0.039,1.345-0.118c15.424-0.657,27.769-13.411,27.769-28.995v-53.858   c0-4.239-3.436-7.674-7.674-7.674s-7.674,3.436-7.674,7.674v53.858c0,7.539-6.134,13.674-13.673,13.674   C356.136,191.967,354.203,192.758,352.767,194.171z"/>
	<path style="fill:#FFFFFF;" d="M254.291,150.911c4.926,0,9.673-1.637,13.672-4.584c3.999,2.947,8.744,4.584,13.665,4.584   c4.92,0,9.667-1.637,13.668-4.587c4,2.949,8.746,4.587,13.668,4.587c4.238,0,7.674-3.435,7.674-7.674   c0-4.239-3.436-7.674-7.674-7.674c-2.764,0-5.389-1.625-7.2-4.459c-1.409-2.205-3.846-3.54-6.463-3.541c-0.001,0-0.001,0-0.001,0   c-2.617,0-5.053,1.333-6.465,3.536c-1.815,2.836-4.443,4.462-7.207,4.462s-5.388-1.625-7.199-4.458   c-1.411-2.206-3.848-3.541-6.466-3.541c0,0-0.001,0-0.002,0c-2.619,0.001-5.057,1.336-6.466,3.545   c-1.807,2.831-4.432,4.454-7.202,4.454c-4.238,0-7.674,3.435-7.674,7.674C246.62,147.475,250.053,150.911,254.291,150.911z"/>
	<path style="fill:#FFFFFF;" d="M333.51,207.407c4.239,0,7.674-3.436,7.674-7.674v-71.951c0-4.238-3.436-7.674-7.674-7.674   s-7.674,3.436-7.674,7.674v71.951C325.836,203.97,329.272,207.407,333.51,207.407z"/>
	<path style="fill:#FFFFFF;" d="M308.964,175.458c4.238,0,7.674-3.436,7.674-7.674c0-4.238-3.436-7.674-7.674-7.674h-36.821   c-4.238,0-7.674,3.436-7.674,7.674v10.51c0,7.539-6.134,13.674-13.673,13.674c-0.388,0-0.773,0.029-1.15,0.087l-19.868-0.087   c-0.011,0-0.022,0-0.034,0c-4.222,0-7.655,3.413-7.674,7.641c-0.019,4.238,3.403,7.689,7.641,7.708l20.958,0.091   c0.011,0,0.023,0,0.034,0c0.452,0,0.901-0.04,1.339-0.118c7.938-0.337,15.055-3.884,20.1-9.366   c5.043,5.481,12.159,9.028,20.094,9.366c0.445,0.079,0.895,0.118,1.345,0.118c1.978,0,3.955-0.76,5.456-2.278   c2.981-3.013,2.954-7.871-0.059-10.852l-0.092-0.091c-1.437-1.421-3.376-2.219-5.396-2.219c-7.54,0-13.674-6.135-13.674-13.674   v-2.835h29.147V175.458z"/>
	<path style="fill:#FFFFFF;" d="M355.825,150.911c4.239,0,7.674-3.435,7.674-7.674v-15.455c0-4.238-3.435-7.674-7.674-7.674   c-4.239,0-7.674,3.436-7.674,7.674v15.455C348.151,147.476,351.587,150.911,355.825,150.911z"/>
	<path style="fill:#FFFFFF;" d="M180.651,175.458c4.238,0,7.674-3.436,7.674-7.674v-43.349c0-4.239-3.436-7.674-7.674-7.674   c-4.239,0-7.674,3.436-7.674,7.674v43.349C172.977,172.023,176.413,175.458,180.651,175.458z"/>
</g>
<path style="fill:#2E3033;" d="M20.97,482.004c-6.429,0-11.661-5.232-11.661-11.661V41.55c0-6.371,5.183-11.554,11.554-11.554h1.524  c6.431,0,11.661,5.232,11.661,11.661v428.685c0,6.431-5.232,11.661-11.661,11.661H20.97V482.004z"/>
<path d="M22.386,20.687h-1.524C9.359,20.687,0,30.046,0,41.55v428.793c0,11.563,9.407,20.97,20.97,20.97h1.415  c11.564,0,20.97-9.407,20.97-20.97V41.657C43.357,30.094,33.949,20.687,22.386,20.687z M27.841,470.343  c0,3.008-2.447,5.455-5.455,5.455h-1.415c-3.008,0-5.455-2.447-5.455-5.455V41.55c0-2.949,2.399-5.348,5.348-5.348h1.524  c3.008,0,5.455,2.447,5.455,5.455v428.686H27.841z"/>
<g>
</g>
<g>
</g>
<g>
</g>
<g>
</g>
<g>
</g>
<g>
</g>
<g>
</g>
<g>
</g>
<g>
</g>
<g>
</g>
<g>
</g>
<g>
</g>
<g>
</g>
<g>
</g>
<g>
</g>
</svg>
