<?xml version="1.0" encoding="iso-8859-1"?>
<!-- Generator: Adobe Illustrator 19.0.0, SVG Export Plug-In . SVG Version: 6.00 Build 0)  -->
<svg xmlns="http://www.w3.org/2000/svg" xmlns:xlink="http://www.w3.org/1999/xlink" version="1.1" id="Layer_1" x="0px" y="0px" viewBox="0 0 512 512" style="enable-background:new 0 0 512 512;" xml:space="preserve">
<g>
	<path style="fill:#FFFFFF;" d="M298.422,171.939h197.817V52.94H298.422V171.939z M339.769,86.01   c2.274-3.713,7.126-4.878,10.836-2.609l12.563,7.688C368.775,78.109,381.698,69,396.714,69c14.455,0,26.976,8.441,32.891,20.651   l1.031-0.098c4.337-0.402,8.18,2.77,8.589,7.103c0.336,3.548-1.736,6.764-4.875,8.041l5.91,8.606   c2.463,3.587,1.553,8.494-2.036,10.957c-1.363,0.936-2.917,1.385-4.454,1.385c-0.177,0-0.355-0.02-0.532-0.031v14.263   c0,8.822-7.178,16.001-16.001,16.001c-0.01,0-0.019,0-0.028,0l-12.698-0.046h-18.578c-14.196,0-25.744-11.548-25.744-25.743V117.5   l-9.584,5.865c-1.284,0.785-2.703,1.16-4.107,1.16c-2.652,0-5.243-1.339-6.729-3.768c-2.272-3.713-1.105-8.564,2.608-10.836   l10.684-6.537l-10.684-6.538C338.665,94.571,337.498,89.722,339.769,86.01z"/>
	<path style="fill:#FFFFFF;" d="M236.948,233.407H39.132v118.999h197.817V233.407H236.948z M178.937,304.73   c-1.363,0.936-2.917,1.385-4.453,1.385c-0.178,0-0.356-0.02-0.533-0.032v14.263c0,8.823-7.179,16.001-16.001,16.001   c-0.01,0-0.019,0-0.028,0l-12.698-0.046h-18.578c-14.197,0-25.744-11.548-25.744-25.743v-12.591l-9.584,5.865   c-1.284,0.785-2.704,1.16-4.107,1.16c-2.652,0-5.243-1.339-6.73-3.768c-2.272-3.713-1.104-8.564,2.609-10.836l10.684-6.537   l-10.684-6.537c-3.713-2.274-4.881-7.123-2.609-10.836c2.275-3.713,7.127-4.877,10.837-2.609l12.563,7.689   c5.608-12.98,18.531-22.088,33.546-22.088c14.454,0,26.975,8.441,32.891,20.65l1.033-0.098c4.332-0.4,8.178,2.77,8.589,7.103   c0.334,3.548-1.738,6.764-4.876,8.041l5.91,8.607C183.436,297.361,182.525,302.267,178.937,304.73z"/>
	<path style="fill:#FFFFFF;" d="M298.422,233.407v118.999h197.817V233.407H298.422z M438.226,304.73   c-1.363,0.936-2.917,1.385-4.454,1.385c-0.177,0-0.355-0.02-0.532-0.032v14.263c0,8.823-7.178,16.001-16.001,16.001   c-0.01,0-0.019,0-0.028,0l-12.698-0.046h-18.578c-14.196,0-25.744-11.548-25.744-25.743v-12.591l-9.584,5.865   c-1.284,0.785-2.703,1.16-4.107,1.16c-2.652,0-5.243-1.339-6.729-3.768c-2.272-3.713-1.105-8.564,2.608-10.836l10.684-6.537   l-10.684-6.537c-3.713-2.274-4.88-7.123-2.608-10.836c2.274-3.713,7.126-4.877,10.836-2.609l12.563,7.689   c5.608-12.98,18.531-22.088,33.546-22.088c14.455,0,26.975,8.441,32.891,20.65l1.031-0.098c4.337-0.4,8.18,2.77,8.589,7.103   c0.336,3.548-1.737,6.764-4.875,8.041l5.91,8.607C442.726,297.361,441.816,302.267,438.226,304.73z"/>
	<path style="fill:#FFFFFF;" d="M39.132,171.939h23.643c4.354,0,7.881,3.527,7.881,7.88h15.763c0-4.353,3.528-7.88,7.882-7.88   h142.648V52.94H39.132V171.939z M83.088,96.844c-3.713-2.273-4.881-7.122-2.609-10.835c2.275-3.713,7.127-4.878,10.837-2.609   l12.563,7.688C109.486,78.109,122.41,69,137.425,69c14.455,0,26.976,8.441,32.892,20.651l1.031-0.098   c4.332-0.402,8.178,2.77,8.589,7.103c0.334,3.548-1.737,6.764-4.876,8.041l5.91,8.606c2.463,3.587,1.552,8.494-2.036,10.957   c-1.363,0.936-2.917,1.385-4.453,1.385c-0.178,0-0.356-0.02-0.533-0.031v14.263c0,8.822-7.179,16.001-16.001,16.001   c-0.01,0-0.019,0-0.028,0l-12.698-0.046h-18.578c-14.197,0-25.744-11.548-25.744-25.743V117.5l-9.584,5.865   c-1.284,0.785-2.704,1.16-4.107,1.16c-2.652,0-5.243-1.339-6.73-3.768c-2.272-3.713-1.104-8.564,2.609-10.836l10.684-6.537   L83.088,96.844z"/>
</g>
<path style="fill:#ED1F34;" d="M70.656,179.818c0,4.354-3.527,7.881-7.881,7.881H39.132v29.947h205.699  c4.353,0,7.881,3.528,7.881,7.881v126.879h29.948V225.528c0-4.353,3.528-7.881,7.881-7.881h205.699V187.7H290.54  c-4.353,0-7.881-3.527-7.881-7.881V52.94h-29.948v126.878c0,4.354-3.528,7.881-7.881,7.881H94.299c-4.354,0-7.882-3.527-7.882-7.881  l0,0H70.656L70.656,179.818z"/>
<g>
	<path style="fill:#333333;" d="M137.425,84.762c-7.366,0-13.829,3.864-17.515,9.66l32.632-3.087   C148.751,87.299,143.384,84.762,137.425,84.762z"/>
	<path style="fill:#333333;" d="M126.646,140.07l31.308,0.046c0.13-0.002,0.235-0.108,0.235-0.239v-33.246l-41.526,3.929v19.527   C116.662,135.592,121.14,140.07,126.646,140.07z"/>
</g>
<path d="M172.834,105.246l-14.646,1.386v33.246c0,0.131-0.105,0.237-0.235,0.239l-31.308-0.046c-5.506,0-9.983-4.478-9.983-9.982  v-19.527l-5.234,0.496L100.9,117.5v12.59c0,14.196,11.548,25.743,25.744,25.743h18.578l12.698,0.046c0.01,0,0.019,0,0.028,0  c8.823,0,16.001-7.179,16.001-16.001v-14.263c0.177,0.012,0.355,0.031,0.533,0.031c1.536,0,3.09-0.449,4.453-1.385  c3.588-2.463,4.5-7.37,2.036-10.957l-5.91-8.606C174.367,104.981,173.62,105.171,172.834,105.246z"/>
<path d="M110.743,95.289l9.167-0.868c3.687-5.796,10.151-9.66,17.515-9.66c5.959,0,11.326,2.538,15.116,6.573l17.776-1.683  c-5.917-12.21-18.436-20.651-32.892-20.651c-15.015,0-27.939,9.109-33.546,22.089L110.743,95.289z"/>
<path style="fill:#CCCCCC;" d="M80.48,120.757c1.487,2.428,4.078,3.768,6.73,3.768c1.402,0,2.822-0.375,4.107-1.16l9.584-5.865  l10.528-6.441l5.234-0.496l41.526-3.929l14.646-1.386c0.786-0.074,1.533-0.264,2.229-0.548c3.139-1.277,5.209-4.493,4.876-8.041  c-0.411-4.332-4.257-7.504-8.589-7.103l-1.031,0.098l-17.776,1.683l-32.632,3.087l-9.167,0.868l-6.863-4.2l-12.563-7.688  c-3.71-2.269-8.563-1.104-10.837,2.609c-2.272,3.713-1.104,8.563,2.609,10.835l10.684,6.538l-10.684,6.537  C79.376,112.193,78.207,117.044,80.48,120.757z"/>
<g>
	<path style="fill:#333333;" d="M396.715,84.762c-7.365,0-13.829,3.864-17.515,9.66l32.631-3.087   C408.041,87.299,402.674,84.762,396.715,84.762z"/>
	<path style="fill:#333333;" d="M385.934,140.07l31.308,0.046c0.129-0.002,0.235-0.108,0.235-0.239v-33.246l-41.525,3.929v19.527   C375.952,135.592,380.43,140.07,385.934,140.07z"/>
</g>
<path d="M432.124,105.246l-14.646,1.386v33.246c0,0.131-0.106,0.237-0.235,0.239l-31.308-0.046c-5.506,0-9.982-4.478-9.982-9.982  v-19.527l-5.235,0.496L360.19,117.5v12.59c0,14.196,11.549,25.743,25.744,25.743h18.578l12.698,0.046c0.01,0,0.019,0,0.028,0  c8.824,0,16.001-7.179,16.001-16.001v-14.263c0.177,0.012,0.355,0.031,0.532,0.031c1.537,0,3.091-0.449,4.454-1.385  c3.589-2.463,4.5-7.37,2.036-10.957l-5.91-8.606C433.657,104.981,432.909,105.171,432.124,105.246z"/>
<path d="M370.033,95.289l9.167-0.868c3.687-5.796,10.152-9.66,17.515-9.66c5.959,0,11.326,2.538,15.115,6.573l17.776-1.683  c-5.916-12.21-18.435-20.651-32.891-20.651c-15.016,0-27.939,9.109-33.546,22.089L370.033,95.289z"/>
<path style="fill:#CCCCCC;" d="M342.377,96.844l10.684,6.538l-10.684,6.537c-3.713,2.273-4.88,7.123-2.608,10.836  c1.486,2.428,4.077,3.768,6.729,3.768c1.403,0,2.822-0.375,4.107-1.16l9.584-5.865l10.528-6.441l5.235-0.496l41.525-3.929  l14.646-1.386c0.785-0.074,1.533-0.264,2.229-0.548c3.139-1.277,5.21-4.493,4.875-8.041c-0.409-4.332-4.252-7.504-8.589-7.103  l-1.031,0.098l-17.776,1.683l-32.631,3.087l-9.167,0.868l-6.863-4.2L350.605,83.4c-3.71-2.269-8.563-1.104-10.836,2.609  C337.498,89.722,338.665,94.571,342.377,96.844z"/>
<path d="M180.973,293.773l-5.91-8.607c-0.696,0.284-1.441,0.473-2.229,0.548l-14.646,1.386v33.246c0,0.131-0.105,0.238-0.235,0.24  l-31.308-0.045c-5.506,0-9.983-4.479-9.983-9.983v-19.528l-5.234,0.496l-10.528,6.441v12.591c0,14.196,11.548,25.743,25.744,25.743  h18.578l12.698,0.046c0.01,0,0.019,0,0.028,0c8.823,0,16.001-7.179,16.001-16.001v-14.263c0.177,0.013,0.355,0.032,0.533,0.032  c1.536,0,3.09-0.449,4.453-1.385C182.525,302.267,183.436,297.361,180.973,293.773z"/>
<g>
	<path style="fill:#333333;" d="M137.425,265.23c-7.365,0-13.828,3.864-17.515,9.659l32.631-3.087   C148.75,267.768,143.384,265.23,137.425,265.23z"/>
	<path style="fill:#333333;" d="M116.662,310.557c0,5.505,4.478,9.983,9.983,9.983l31.308,0.045c0.13-0.002,0.235-0.109,0.235-0.24   v-33.246l-41.526,3.929C116.662,291.027,116.662,310.557,116.662,310.557z"/>
</g>
<path d="M110.743,275.758l9.167-0.868c3.688-5.795,10.152-9.659,17.515-9.659c5.959,0,11.325,2.538,15.115,6.572l17.776-1.683  c-5.917-12.209-18.436-20.65-32.891-20.65c-15.015,0-27.938,9.109-33.546,22.088L110.743,275.758z"/>
<path style="fill:#CCCCCC;" d="M111.428,291.525l5.234-0.496l41.526-3.929l14.646-1.386c0.786-0.074,1.532-0.264,2.229-0.548  c3.138-1.277,5.209-4.493,4.876-8.041c-0.411-4.332-4.257-7.503-8.589-7.103l-1.033,0.098l-17.776,1.683l-32.631,3.087l-9.167,0.868  l-6.863-4.2l-12.563-7.689c-3.71-2.268-8.563-1.104-10.837,2.609c-2.272,3.713-1.104,8.563,2.609,10.836l10.684,6.537l-10.684,6.537  c-3.713,2.273-4.881,7.123-2.609,10.836c1.487,2.428,4.078,3.768,6.73,3.768c1.402,0,2.822-0.375,4.107-1.16l9.584-5.865  L111.428,291.525z"/>
<path d="M434.351,285.166c-0.696,0.284-1.443,0.473-2.229,0.548l-14.646,1.386v33.246c0,0.131-0.106,0.238-0.235,0.24l-31.308-0.045  c-5.506,0-9.982-4.479-9.982-9.983v-19.528l-5.235,0.496l-10.528,6.441v12.591c0,14.196,11.549,25.743,25.744,25.743h18.578  l12.698,0.046c0.01,0,0.019,0,0.028,0c8.824,0,16.001-7.179,16.001-16.001v-14.263c0.177,0.013,0.355,0.032,0.532,0.032  c1.537,0,3.091-0.449,4.454-1.385c3.589-2.463,4.5-7.37,2.036-10.957L434.351,285.166z"/>
<g>
	<path style="fill:#333333;" d="M375.952,310.557c0,5.505,4.477,9.983,9.982,9.983l31.308,0.045c0.129-0.002,0.235-0.109,0.235-0.24   v-33.246l-41.525,3.929V310.557z"/>
	<path style="fill:#333333;" d="M396.715,265.23c-7.365,0-13.828,3.864-17.514,9.659l32.63-3.087   C408.04,267.768,402.674,265.23,396.715,265.23z"/>
</g>
<path d="M370.033,275.758l9.168-0.868c3.687-5.795,10.151-9.659,17.514-9.659c5.959,0,11.325,2.538,15.115,6.572l17.776-1.683  c-5.917-12.209-18.435-20.65-32.891-20.65c-15.015,0-27.938,9.109-33.546,22.088L370.033,275.758z"/>
<path style="fill:#CCCCCC;" d="M370.718,291.525l5.235-0.496l41.525-3.929l14.646-1.386c0.785-0.074,1.532-0.264,2.229-0.548  c3.138-1.277,5.21-4.493,4.875-8.041c-0.409-4.332-4.252-7.503-8.589-7.103l-1.031,0.098l-17.776,1.683l-32.63,3.087l-9.168,0.868  l-6.863-4.2l-12.563-7.689c-3.71-2.268-8.563-1.104-10.836,2.609c-2.272,3.713-1.105,8.563,2.608,10.836l10.684,6.537l-10.684,6.537  c-3.713,2.273-4.88,7.123-2.608,10.836c1.486,2.428,4.077,3.768,6.729,3.768c1.403,0,2.822-0.375,4.107-1.16l9.584-5.865  L370.718,291.525z"/>
<path d="M504.118,37.178H31.251c-4.354,0-7.882,3.528-7.882,7.881v315.228c0,4.353,3.528,7.88,7.882,7.88h472.867  c4.354,0,7.882-3.527,7.882-7.88V45.059C512,40.706,508.472,37.178,504.118,37.178z M236.948,171.939H94.299  c-4.354,0-7.882,3.527-7.882,7.88l0,0c0,4.354,3.528,7.881,7.882,7.881h150.53c4.353,0,7.881-3.527,7.881-7.881V52.94h29.948  v126.878c0,4.354,3.528,7.881,7.881,7.881h205.699v29.947H290.54c-4.353,0-7.881,3.528-7.881,7.881v126.879h-29.948V225.528  c0-4.353-3.528-7.881-7.881-7.881H39.132V187.7h23.643c4.354,0,7.881-3.527,7.881-7.881l0,0c0-4.353-3.527-7.88-7.881-7.88H39.132  v-119h197.817v118.999H236.948z M496.237,171.939H298.422V52.94h197.817v118.999H496.237z M39.132,233.407h197.817v118.999H39.132  V233.407z M298.422,352.407v-119h197.817v118.999H298.422V352.407z"/>
<path style="fill:#2E3033;" d="M21.536,488.1c-6.603,0-11.976-5.373-11.976-11.976V35.766c0-6.542,5.323-11.865,11.865-11.865h1.565  c6.604,0,11.976,5.373,11.976,11.976v440.247c0,6.604-5.373,11.976-11.976,11.976h-1.454V488.1z"/>
<path d="M22.99,14.34h-1.565C9.611,14.34,0,23.951,0,35.766v440.358C0,488,9.661,497.66,21.536,497.66h1.453  c11.876,0,21.536-9.661,21.536-21.536V35.876C44.526,24.001,34.865,14.34,22.99,14.34z M28.592,476.124  c0,3.089-2.513,5.602-5.602,5.602h-1.453c-3.089,0-5.602-2.513-5.602-5.602V35.766c0-3.028,2.463-5.492,5.492-5.492h1.565  c3.089,0,5.602,2.513,5.602,5.602v440.248H28.592z"/>
<g>
</g>
<g>
</g>
<g>
</g>
<g>
</g>
<g>
</g>
<g>
</g>
<g>
</g>
<g>
</g>
<g>
</g>
<g>
</g>
<g>
</g>
<g>
</g>
<g>
</g>
<g>
</g>
<g>
</g>
</svg>
