<?xml version="1.0" encoding="iso-8859-1"?>
<!-- Generator: Adobe Illustrator 19.0.0, SVG Export Plug-In . SVG Version: 6.00 Build 0)  -->
<svg xmlns="http://www.w3.org/2000/svg" xmlns:xlink="http://www.w3.org/1999/xlink" version="1.1" id="Layer_1" x="0px" y="0px" viewBox="0 0 511.998 511.998" style="enable-background:new 0 0 511.998 511.998;" xml:space="preserve">
<path style="fill:#FFE000;" d="M473.63,247.564h23.022v-86.972H164.736l38.059,38.059c2.997,2.998,2.997,7.857,0,10.853  l-38.059,38.06h278.199c4.239,0,7.674,3.435,7.674,7.674h15.349C465.956,250.999,469.392,247.564,473.63,247.564z M326.092,202.799  l-14.622,11.823l4.88,18.161c0.825,3.071-0.328,6.331-2.901,8.2c-1.342,0.974-2.924,1.466-4.51,1.466  c-1.453,0-2.91-0.412-4.185-1.241l-15.761-10.252l-15.763,10.252c-2.665,1.735-6.123,1.645-8.695-0.224  c-2.571-1.869-3.727-5.13-2.901-8.2l4.882-18.161l-14.625-11.823c-2.472-1.999-3.455-5.315-2.473-8.339  c0.983-3.024,3.728-5.129,6.903-5.293l18.779-0.97l6.726-17.561c1.137-2.968,3.986-4.929,7.167-4.929  c3.179,0,6.028,1.961,7.166,4.929l6.726,17.561l18.779,0.97c3.175,0.163,5.921,2.268,6.903,5.293  C329.547,197.484,328.563,200.8,326.092,202.799z M441.713,202.799l-14.623,11.823l4.88,18.161c0.825,3.071-0.328,6.331-2.901,8.2  c-1.342,0.974-2.924,1.466-4.51,1.466c-1.453,0-2.91-0.412-4.185-1.241l-15.762-10.252l-15.762,10.252  c-2.665,1.735-6.123,1.645-8.695-0.224c-2.571-1.869-3.727-5.13-2.9-8.2l4.881-18.161l-14.625-11.823  c-2.472-1.999-3.455-5.315-2.473-8.339c0.982-3.024,3.728-5.129,6.903-5.293l18.779-0.97l6.726-17.561  c1.137-2.968,3.986-4.929,7.166-4.929s6.029,1.961,7.167,4.929l6.725,17.561l18.78,0.97c3.174,0.163,5.921,2.268,6.902,5.293  C445.169,197.484,444.186,200.8,441.713,202.799z"/>
<path style="fill:#333333;" d="M296.328,217.417l-0.975-3.634c-0.788-2.93,0.225-6.051,2.586-7.958l2.923-2.365l-3.755-0.193  c-3.032-0.157-5.686-2.086-6.771-4.919l-1.345-3.513l-1.346,3.513c-1.085,2.833-3.739,4.762-6.771,4.919l-3.756,0.193l2.925,2.365  c2.36,1.908,3.373,5.028,2.586,7.958l-0.976,3.633l3.152-2.05c1.272-0.827,2.73-1.241,4.186-1.241c1.455,0,2.912,0.414,4.184,1.241  L296.328,217.417z"/>
<path d="M321.662,189.168l-18.779-0.97l-6.726-17.561c-1.138-2.968-3.986-4.929-7.166-4.929s-6.03,1.961-7.167,4.929l-6.726,17.561  l-18.779,0.97c-3.175,0.163-5.921,2.268-6.903,5.293c-0.982,3.023,0.001,6.339,2.473,8.339l14.625,11.823l-4.882,18.161  c-0.825,3.07,0.329,6.331,2.901,8.2c2.572,1.869,6.029,1.959,8.695,0.224l15.763-10.252l15.761,10.252  c1.275,0.83,2.732,1.241,4.185,1.241c1.586,0,3.168-0.491,4.51-1.466c2.572-1.869,3.727-5.129,2.901-8.2l-4.88-18.161l14.623-11.823  c2.472-1.999,3.456-5.315,2.474-8.339C327.583,191.436,324.839,189.331,321.662,189.168z M284.806,215.366l-3.152,2.05l0.976-3.633  c0.787-2.93-0.225-6.051-2.586-7.958l-2.925-2.365l3.756-0.193c3.032-0.157,5.686-2.086,6.771-4.919l1.346-3.513l1.345,3.513  c1.085,2.833,3.739,4.762,6.771,4.919l3.755,0.193l-2.923,2.365c-2.36,1.908-3.374,5.028-2.586,7.958l0.975,3.634l-3.153-2.051  c-1.271-0.827-2.729-1.241-4.184-1.241C287.535,214.125,286.079,214.538,284.806,215.366z"/>
<path style="fill:#333333;" d="M411.949,217.417l-0.975-3.634c-0.788-2.93,0.225-6.051,2.586-7.958l2.923-2.365l-3.755-0.193  c-3.032-0.157-5.686-2.086-6.771-4.919l-1.346-3.513l-1.346,3.513c-1.085,2.833-3.738,4.762-6.77,4.919l-3.756,0.193l2.925,2.365  c2.359,1.908,3.373,5.028,2.586,7.958l-0.975,3.633l3.152-2.05c1.271-0.827,2.729-1.241,4.184-1.241  c1.456,0,2.913,0.414,4.185,1.241L411.949,217.417z"/>
<path d="M437.284,189.168l-18.78-0.97l-6.725-17.561c-1.138-2.968-3.986-4.929-7.167-4.929c-3.181,0-6.029,1.961-7.166,4.929  l-6.726,17.561l-18.779,0.97c-3.175,0.163-5.922,2.268-6.903,5.293c-0.982,3.023,0.001,6.339,2.473,8.339l14.625,11.823  l-4.881,18.161c-0.826,3.07,0.328,6.331,2.9,8.2c2.572,1.869,6.029,1.959,8.695,0.224l15.762-10.252l15.762,10.252  c1.275,0.83,2.732,1.241,4.185,1.241c1.586,0,3.168-0.491,4.51-1.466c2.572-1.869,3.727-5.129,2.901-8.2l-4.88-18.161l14.623-11.823  c2.473-1.999,3.456-5.315,2.473-8.339C443.204,191.436,440.459,189.331,437.284,189.168z M400.428,215.366l-3.152,2.05l0.975-3.633  c0.787-2.93-0.227-6.051-2.586-7.958l-2.925-2.365l3.756-0.193c3.032-0.157,5.685-2.086,6.77-4.919l1.346-3.513l1.346,3.513  c1.085,2.833,3.739,4.762,6.771,4.919l3.755,0.193l-2.923,2.365c-2.36,1.908-3.374,5.028-2.586,7.958l0.975,3.634l-3.153-2.051  c-1.271-0.827-2.729-1.241-4.185-1.241C403.157,214.125,401.7,214.538,400.428,215.366z"/>
<g>
	<path style="fill:#259245;" d="M473.63,262.911c-4.239,0-7.674-3.435-7.674-7.674h-15.349c0,4.239-3.435,7.674-7.674,7.674H149.387   l-86.972,86.972h434.237v-86.972H473.63z"/>
	<polygon style="fill:#259245;" points="149.387,145.244 496.652,145.244 496.652,58.272 62.415,58.272  "/>
</g>
<polygon style="fill:#ED1F34;" points="186.515,204.078 51.562,69.125 51.562,339.029 "/>
<path d="M504.326,42.924H43.888c-0.062,0-0.121,0.008-0.182,0.009c-0.191,0.005-0.381,0.01-0.57,0.029  C43,42.975,42.868,43,42.735,43.02c-0.114,0.018-0.229,0.03-0.341,0.052c-0.143,0.028-0.28,0.067-0.419,0.102  c-0.104,0.027-0.207,0.05-0.31,0.08c-0.133,0.041-0.264,0.09-0.394,0.139c-0.106,0.038-0.211,0.072-0.315,0.116  c-0.121,0.05-0.237,0.108-0.356,0.163c-0.109,0.052-0.22,0.101-0.327,0.157c-0.11,0.06-0.215,0.126-0.322,0.19  c-0.109,0.065-0.218,0.126-0.324,0.197c-0.113,0.076-0.219,0.159-0.328,0.241c-0.092,0.069-0.187,0.133-0.276,0.206  c-0.165,0.137-0.324,0.281-0.478,0.431c-0.027,0.026-0.058,0.05-0.084,0.077c-0.029,0.028-0.054,0.061-0.082,0.09  c-0.148,0.151-0.291,0.306-0.425,0.471c-0.079,0.096-0.148,0.197-0.221,0.296c-0.076,0.101-0.154,0.201-0.227,0.307  c-0.076,0.113-0.142,0.232-0.211,0.348c-0.059,0.099-0.12,0.194-0.175,0.296c-0.064,0.119-0.117,0.24-0.174,0.361  c-0.05,0.107-0.103,0.211-0.149,0.321c-0.049,0.118-0.088,0.238-0.131,0.359c-0.041,0.116-0.086,0.232-0.122,0.35  c-0.036,0.122-0.064,0.245-0.094,0.366c-0.03,0.121-0.064,0.239-0.088,0.362c-0.029,0.145-0.047,0.29-0.066,0.435  c-0.014,0.103-0.034,0.204-0.044,0.307c-0.025,0.254-0.038,0.51-0.038,0.764v306.949c0,0.255,0.013,0.511,0.038,0.764  c0.01,0.104,0.03,0.205,0.044,0.308c0.021,0.145,0.037,0.291,0.066,0.434c0.024,0.123,0.058,0.241,0.088,0.362  c0.03,0.122,0.058,0.245,0.094,0.366c0.036,0.118,0.081,0.234,0.122,0.351c0.042,0.119,0.083,0.24,0.131,0.359  c0.046,0.108,0.098,0.212,0.149,0.319c0.057,0.121,0.11,0.243,0.174,0.362c0.055,0.101,0.116,0.197,0.175,0.296  c0.069,0.117,0.135,0.236,0.211,0.348c0.071,0.107,0.151,0.206,0.227,0.308c0.073,0.099,0.143,0.2,0.221,0.296  c0.134,0.163,0.278,0.319,0.425,0.471c0.028,0.028,0.053,0.061,0.082,0.09c0.026,0.027,0.057,0.05,0.084,0.077  c0.154,0.149,0.312,0.295,0.478,0.43c0.09,0.074,0.184,0.138,0.276,0.207c0.109,0.081,0.215,0.164,0.328,0.241  c0.107,0.07,0.217,0.132,0.326,0.197c0.107,0.065,0.21,0.13,0.32,0.189c0.11,0.06,0.223,0.109,0.336,0.162  c0.114,0.054,0.227,0.11,0.343,0.159c0.11,0.044,0.221,0.081,0.332,0.121c0.125,0.046,0.249,0.093,0.378,0.131  c0.11,0.034,0.222,0.058,0.333,0.086c0.131,0.033,0.261,0.069,0.394,0.096c0.13,0.026,0.263,0.042,0.394,0.061  c0.115,0.017,0.231,0.038,0.348,0.051c0.251,0.025,0.504,0.038,0.756,0.038h460.438c4.239,0,7.674-3.435,7.674-7.675V50.598  C512,46.359,508.565,42.924,504.326,42.924z M51.562,69.125l134.954,134.953L51.562,339.029V69.125z M496.652,145.244H149.387  L62.415,58.272h434.237V145.244z M62.415,349.883l86.972-86.972h293.548c4.239,0,7.674-3.435,7.674-7.674s-3.435-7.674-7.674-7.674  H164.736l38.059-38.06c2.997-2.997,2.997-7.856,0-10.853l-38.059-38.059h331.917v86.972H473.63c-4.239,0-7.674,3.435-7.674,7.674  s3.435,7.674,7.674,7.674h23.022v86.972H62.415z"/>
<path style="fill:#2E3033;" d="M20.97,482.003c-6.429,0-11.661-5.232-11.661-11.661V41.549c0-6.371,5.183-11.554,11.554-11.554  h1.524c6.431,0,11.661,5.232,11.661,11.661v428.685c0,6.431-5.232,11.661-11.661,11.661H20.97V482.003z"/>
<path d="M22.386,20.686h-1.524C9.359,20.686,0,30.045,0,41.549v428.793c0,11.563,9.407,20.97,20.97,20.97h1.415  c11.564,0,20.97-9.407,20.97-20.97V41.656C43.357,30.093,33.949,20.686,22.386,20.686z M27.841,470.342  c0,3.008-2.447,5.455-5.455,5.455h-1.415c-3.008,0-5.455-2.447-5.455-5.455V41.549c0-2.949,2.399-5.348,5.348-5.348h1.524  c3.008,0,5.455,2.447,5.455,5.455v428.686H27.841z"/>
<g>
</g>
<g>
</g>
<g>
</g>
<g>
</g>
<g>
</g>
<g>
</g>
<g>
</g>
<g>
</g>
<g>
</g>
<g>
</g>
<g>
</g>
<g>
</g>
<g>
</g>
<g>
</g>
<g>
</g>
</svg>
