<?xml version="1.0" encoding="iso-8859-1"?>
<!-- Generator: Adobe Illustrator 19.0.0, SVG Export Plug-In . SVG Version: 6.00 Build 0)  -->
<svg xmlns="http://www.w3.org/2000/svg" xmlns:xlink="http://www.w3.org/1999/xlink" version="1.1" id="Layer_1" x="0px" y="0px" viewBox="0 0 512.001 512.001" style="enable-background:new 0 0 512.001 512.001;" xml:space="preserve">
<path style="fill:#FFFFFF;" d="M496.621,80.942V57.873H50.63v138.411h136.451c-0.155-2.118-0.262-4.25-0.262-6.408  c0-9.696,1.59-19.222,4.725-28.311c1.386-4.014,5.762-6.148,9.777-4.762c4.015,1.385,6.147,5.762,4.762,9.777  c-2.577,7.473-3.884,15.311-3.884,23.297c0,2.161,0.113,4.296,0.302,6.408h18.452c0.065-12.497,2.634-24.72,7.449-35.377  c1.244-2.754,3.986-4.524,7.007-4.524h30.529v-28.536c0-4.247,3.442-7.689,7.689-7.689s7.689,3.443,7.689,7.689v28.536h30.529  c3.021,0,5.763,1.77,7.007,4.524c4.815,10.657,7.384,22.879,7.449,35.377h18.452c0.189-2.112,0.302-4.246,0.302-6.408  c0-7.987-1.307-15.825-3.884-23.298c-1.385-4.015,0.747-8.392,4.762-9.777c4.015-1.384,8.391,0.748,9.776,4.762  c3.135,9.09,4.726,18.615,4.726,28.312c0,2.158-0.107,4.29-0.262,6.408h136.451v-84.585c0-4.246,3.441-7.689,7.689-7.689V88.631  C500.062,88.631,496.621,85.188,496.621,80.942z"/>
<g>
	<path style="fill:#3DB4EA;" d="M318.679,264.049c0.464,0.553,0.858,1.175,1.157,1.858c0.929,2.117,0.841,4.497-0.154,6.502h17.854   c4.247,0,7.689,3.443,7.689,7.689c0,4.246-3.442,7.689-7.689,7.689H302.54c-3.053,0-5.82-1.808-7.044-4.605   c-0.928-2.116-0.841-4.497,0.154-6.502H251.6c0.995,2.005,1.082,4.385,0.154,6.502c-1.225,2.797-3.99,4.605-7.044,4.605h-34.994   c-4.247,0-7.689-3.443-7.689-7.689c0-4.247,3.442-7.689,7.689-7.689h17.854c-0.996-2.005-1.083-4.384-0.155-6.502   c0.3-0.683,0.693-1.305,1.158-1.858c-19.02-11.595-33.251-30.296-38.982-52.386H50.63v138.411h445.992V211.664H357.66   C351.93,233.753,337.696,252.455,318.679,264.049z"/>
	<path style="fill:#3DB4EA;" d="M205.608,211.664c6.169,19.212,20.265,34.892,38.421,43.195   c-9.385-10.39-18.47-24.726-21.772-43.195H205.608z"/>
	<path style="fill:#3DB4EA;" d="M341.643,211.664h-16.648c-3.302,18.468-12.387,32.803-21.772,43.195   C321.377,246.554,335.474,230.875,341.643,211.664z"/>
</g>
<path d="M496.621,111.699v84.585H360.17c-0.387,5.268-1.221,10.412-2.51,15.379h138.961v138.411H50.63v-138.41h138.96  c-1.288-4.967-2.123-10.111-2.509-15.379H50.63V57.873h445.992v23.068c0,4.247,3.441,7.689,7.689,7.689  c4.247,0,7.689-3.443,7.689-7.689V50.184c0-4.247-3.442-7.689-7.689-7.689H42.941c-4.247,0-7.689,3.443-7.689,7.689v307.58  c0,4.246,3.442,7.689,7.689,7.689h461.37c4.247,0,7.689-3.443,7.689-7.689V111.699c0-4.246-3.442-7.689-7.689-7.689  C500.062,104.011,496.621,107.453,496.621,111.699z"/>
<path d="M205.608,211.664h16.648c3.302,18.468,12.387,32.803,21.772,43.195c2.121,2.348,4.256,4.498,6.344,6.446H234.46  c-2.309,0-4.448,1.035-5.887,2.747c-0.464,0.553-0.858,1.175-1.158,1.858c-0.928,2.117-0.841,4.497,0.155,6.502h-17.854  c-4.247,0-7.689,3.443-7.689,7.689c0,4.246,3.442,7.689,7.689,7.689h34.994c3.053,0,5.819-1.808,7.044-4.605  c0.928-2.116,0.841-4.497-0.154-6.502h44.051c-0.995,2.005-1.082,4.385-0.154,6.502c1.224,2.797,3.99,4.605,7.044,4.605h34.994  c4.247,0,7.689-3.443,7.689-7.689c0-4.247-3.442-7.689-7.689-7.689h-17.854c0.995-2.006,1.083-4.384,0.154-6.502  c-0.298-0.683-0.692-1.305-1.157-1.858c-1.439-1.711-3.579-2.747-5.887-2.747h-15.914c2.087-1.947,4.222-4.098,6.344-6.446  c9.385-10.39,18.47-24.726,21.772-43.195h16.648c1.578-4.918,2.633-10.065,3.108-15.379h-18.452  c-0.065-12.497-2.634-24.72-7.449-35.377c-1.245-2.754-3.986-4.524-7.007-4.524h-30.529v-28.536c0-4.247-3.442-7.689-7.689-7.689  c-4.247,0-7.689,3.443-7.689,7.689v28.536h-30.529c-3.021,0-5.764,1.77-7.007,4.524c-4.815,10.657-7.384,22.879-7.449,35.377  h-18.452C202.975,201.598,204.029,206.746,205.608,211.664z M236.324,196.766c0-8.746,1.462-17.294,4.255-25.003h66.094  c2.792,7.709,4.255,16.257,4.255,25.003c0,10.659-2.393,19.972-6.007,27.986c-8.608,19.086-24.197,30.75-31.27,35.287  c-6.989-4.539-22.593-16.299-31.248-35.312C238.747,216.7,236.324,207.387,236.324,196.766z"/>
<g>
	<path style="fill:#259245;" d="M341.643,211.664c-6.169,19.212-20.265,34.892-38.421,43.195c-2.122,2.348-4.257,4.498-6.344,6.446   h15.913c2.308,0,4.448,1.035,5.887,2.747c19.019-11.595,33.251-30.296,38.981-52.386c1.289-4.967,2.124-10.111,2.51-15.379   c0.155-2.118,0.262-4.25,0.262-6.408c0-9.697-1.59-19.223-4.726-28.312c-1.385-4.014-5.761-6.147-9.776-4.762   c-4.015,1.385-6.147,5.762-4.762,9.777c2.577,7.473,3.884,15.311,3.884,23.298c0,2.161-0.113,4.296-0.302,6.408   C344.275,201.598,343.221,206.746,341.643,211.664z"/>
	<path style="fill:#259245;" d="M189.59,211.664c5.732,22.09,19.964,40.791,38.982,52.386c1.439-1.711,3.578-2.747,5.887-2.747   h15.913c-2.088-1.947-4.223-4.098-6.344-6.446c-18.156-8.303-32.252-23.982-38.421-43.195c-1.578-4.918-2.634-10.065-3.108-15.379   c-0.189-2.112-0.302-4.246-0.302-6.408c0-7.986,1.307-15.824,3.884-23.297c1.385-4.015-0.747-8.392-4.762-9.777   c-4.015-1.385-8.391,0.748-9.777,4.762c-3.134,9.09-4.725,18.614-4.725,28.311c0,2.158,0.107,4.29,0.262,6.408   C187.468,201.552,188.302,206.696,189.59,211.664z"/>
</g>
<path style="fill:#FFE000;" d="M242.402,224.727c9.747-3.528,20.259-5.46,31.224-5.46c10.991,0,21.528,1.939,31.294,5.485  c3.614-8.014,6.007-17.327,6.007-27.986c0-8.746-1.462-17.294-4.255-25.003h-66.094c-2.792,7.709-4.255,16.257-4.255,25.003  C236.324,207.387,238.747,216.7,242.402,224.727z"/>
<path style="fill:#259245;" d="M242.402,224.727c8.655,19.013,24.259,30.774,31.248,35.312c7.074-4.536,22.663-16.201,31.27-35.287  c-9.766-3.546-20.303-5.485-31.294-5.485C262.661,219.268,252.149,221.199,242.402,224.727z"/>
<path style="fill:#2E3033;" d="M21.013,482.462c-6.442,0-11.685-5.242-11.685-11.685V41.116c0-6.383,5.194-11.577,11.577-11.577  h1.527c6.444,0,11.685,5.242,11.685,11.685v429.552c0,6.444-5.242,11.685-11.685,11.685h-1.419V482.462z"/>
<path d="M22.432,20.211h-1.527C9.378,20.211,0,29.589,0,41.116v429.661c0,11.587,9.426,21.013,21.013,21.013h1.418  c11.587,0,21.013-9.426,21.013-21.013V41.224C43.444,29.637,34.018,20.211,22.432,20.211z M27.898,470.777  c0,3.014-2.452,5.466-5.466,5.466h-1.418c-3.014,0-5.466-2.452-5.466-5.466V41.116c0-2.955,2.403-5.358,5.358-5.358h1.527  c3.014,0,5.466,2.452,5.466,5.466v429.553H27.898z"/>
<g>
</g>
<g>
</g>
<g>
</g>
<g>
</g>
<g>
</g>
<g>
</g>
<g>
</g>
<g>
</g>
<g>
</g>
<g>
</g>
<g>
</g>
<g>
</g>
<g>
</g>
<g>
</g>
<g>
</g>
</svg>
