<?xml version="1.0" encoding="iso-8859-1"?>
<!-- Generator: Adobe Illustrator 19.0.0, SVG Export Plug-In . SVG Version: 6.00 Build 0)  -->
<svg xmlns="http://www.w3.org/2000/svg" xmlns:xlink="http://www.w3.org/1999/xlink" version="1.1" id="Layer_1" x="0px" y="0px" viewBox="0 0 512 512" style="enable-background:new 0 0 512 512;" xml:space="preserve">
<path style="fill:#ED1F34;" d="M281.781,81.295c0,4.239-3.435,7.674-7.674,7.674v15.348c4.239,0,7.674,3.435,7.674,7.674v92.088  c0,4.239-3.435,7.674-7.674,7.674H51.562v138.131h445.091V58.273H281.781V81.295z"/>
<path style="fill:#103B9B;" d="M266.433,81.295V58.273H51.562v138.131h214.871V111.99c0-4.239,3.435-7.674,7.674-7.674V88.969  C269.868,88.969,266.433,85.533,266.433,81.295z M161.715,73.424c5.652,0,10.233,4.581,10.233,10.233  c0,5.651-4.581,10.232-10.233,10.232c-5.651,0-10.232-4.58-10.232-10.232S156.065,73.424,161.715,73.424z M131.61,127.536  c-5.651,0-10.233-4.581-10.233-10.232c0-5.652,4.582-10.233,10.233-10.233s10.233,4.581,10.233,10.233  C141.843,122.954,137.26,127.536,131.61,127.536z M161.715,181.253c-5.651,0-10.232-4.581-10.232-10.233  c0-5.651,4.581-10.232,10.232-10.232c5.652,0,10.233,4.581,10.233,10.232C171.947,176.673,167.367,181.253,161.715,181.253z   M176.768,139.292c-4.239,0-7.674-3.436-7.674-7.674c0-4.238,3.435-7.674,7.674-7.674c4.239,0,7.674,3.436,7.674,7.674  C184.442,135.857,181.007,139.292,176.768,139.292z M191.821,110.712c-5.652,0-10.233-4.581-10.233-10.233  c0-5.651,4.581-10.232,10.233-10.232s10.233,4.581,10.233,10.232C202.054,106.131,197.473,110.712,191.821,110.712z"/>
<g>
	<circle style="fill:#FFFFFF;" cx="161.72" cy="83.658" r="10.232"/>
	<circle style="fill:#FFFFFF;" cx="161.72" cy="171.018" r="10.232"/>
	<circle style="fill:#FFFFFF;" cx="191.819" cy="100.476" r="10.232"/>
	<circle style="fill:#FFFFFF;" cx="131.61" cy="117.305" r="10.232"/>
	<circle style="fill:#FFFFFF;" cx="176.769" cy="131.62" r="7.674"/>
</g>
<path d="M504.326,42.925H43.888c-4.239,0-7.674,3.436-7.674,7.674v306.959c0,4.239,3.435,7.674,7.674,7.674h460.438  c4.239,0,7.674-3.436,7.674-7.674V50.599C512,46.361,508.565,42.925,504.326,42.925z M496.652,349.884H51.562V211.753h222.545  c4.239,0,7.674-3.435,7.674-7.674v-92.088c0-4.239-3.435-7.674-7.674-7.674s-7.674,3.435-7.674,7.674v84.414H51.562V58.273h214.871  v23.021c0,4.239,3.435,7.674,7.674,7.674s7.674-3.436,7.674-7.674V58.273h214.871L496.652,349.884L496.652,349.884z"/>
<path style="fill:#2E3033;" d="M20.97,482.004c-6.429,0-11.661-5.232-11.661-11.661V41.55c0-6.371,5.183-11.554,11.554-11.554h1.524  c6.431,0,11.661,5.232,11.661,11.661v428.685c0,6.431-5.232,11.661-11.661,11.661H20.97V482.004z"/>
<path d="M22.386,20.687h-1.524C9.359,20.687,0,30.046,0,41.55v428.793c0,11.563,9.407,20.97,20.97,20.97h1.415  c11.564,0,20.97-9.407,20.97-20.97V41.657C43.357,30.094,33.949,20.687,22.386,20.687z M27.841,470.343  c0,3.008-2.447,5.455-5.455,5.455h-1.415c-3.008,0-5.455-2.447-5.455-5.455V41.55c0-2.949,2.399-5.348,5.348-5.348h1.524  c3.008,0,5.455,2.447,5.455,5.455v428.686H27.841z"/>
<g>
</g>
<g>
</g>
<g>
</g>
<g>
</g>
<g>
</g>
<g>
</g>
<g>
</g>
<g>
</g>
<g>
</g>
<g>
</g>
<g>
</g>
<g>
</g>
<g>
</g>
<g>
</g>
<g>
</g>
</svg>
