<?xml version="1.0" encoding="iso-8859-1"?>
<!-- Generator: Adobe Illustrator 19.0.0, SVG Export Plug-In . SVG Version: 6.00 Build 0)  -->
<svg xmlns="http://www.w3.org/2000/svg" xmlns:xlink="http://www.w3.org/1999/xlink" version="1.1" id="Layer_1" x="0px" y="0px" viewBox="0 0 512 512" style="enable-background:new 0 0 512 512;" xml:space="preserve">
<polygon style="fill:#259245;" points="50.618,57.873 50.618,260.231 354.14,57.873 "/>
<path style="fill:#ED1F34;" d="M496.621,296.257V147.735L193.087,350.084h303.534v-23.069c0-4.247,3.441-7.689,7.689-7.689v-15.379  C500.062,303.948,496.621,300.505,496.621,296.257z"/>
<g>
	<polygon style="fill:#FFE000;" points="354.14,57.873 50.618,260.231 50.618,291.037 400.349,57.873  "/>
	<polygon style="fill:#FFE000;" points="146.879,350.084 193.087,350.084 496.621,147.735 496.621,116.931  "/>
</g>
<path style="fill:#333333;" d="M496.621,57.873h-96.273L50.618,291.037v59.048h96.261l349.743-233.154V57.873z M241.358,278.653  c-1.105,2.988-3.939,4.984-7.123,5.021l-24.468,0.276l-9.666,22.479c-1.217,2.829-4.001,4.652-7.061,4.652  c-0.104,0-0.206-0.002-0.311-0.006c-3.184-0.129-5.957-2.207-6.976-5.225l-7.824-23.184l-24.367-2.247  c-3.173-0.293-5.835-2.511-6.697-5.578c-0.86-3.067,0.258-6.347,2.814-8.249l19.632-14.605l-5.394-23.867  c-0.702-3.108,0.585-6.326,3.235-8.094c2.651-1.767,6.114-1.717,8.714,0.126l19.957,14.158l21.033-12.504  c2.738-1.629,6.196-1.401,8.697,0.576c2.499,1.973,3.523,5.286,2.573,8.326l-7.299,23.356l18.393,16.14  C241.613,272.305,242.464,275.666,241.358,278.653z M396.595,175.433l-24.466,0.277l-9.667,22.479  c-1.217,2.831-4.001,4.652-7.061,4.652c-0.105,0-0.207-0.002-0.313-0.006c-3.183-0.13-5.957-2.207-6.975-5.225l-7.824-23.184  l-24.366-2.247c-3.173-0.292-5.835-2.511-6.697-5.578c-0.861-3.067,0.257-6.348,2.813-8.249l19.632-14.605l-5.393-23.867  c-0.702-3.108,0.585-6.326,3.235-8.094s6.114-1.716,8.714,0.126l19.958,14.159l21.032-12.505c2.739-1.628,6.197-1.399,8.697,0.576  c2.501,1.974,3.523,5.287,2.572,8.327l-7.298,23.355l18.393,16.138c2.394,2.101,3.245,5.462,2.139,8.449  C402.613,173.4,399.781,175.395,396.595,175.433z"/>
<path d="M496.621,327.016v23.069H193.087h-46.209H50.618v-59.048v-30.806V57.873H354.14h46.208h96.273v59.058v30.804v148.522  c0,4.248,3.441,7.69,7.689,7.69l0,0c4.247,0,7.689-3.442,7.689-7.69V50.183c0-4.247-3.442-7.689-7.689-7.689H42.928  c-4.247,0-7.689,3.442-7.689,7.689v307.59c0,4.248,3.442,7.689,7.689,7.689h461.382c4.247,0,7.689-3.441,7.689-7.689v-30.758  c0-4.247-3.442-7.689-7.689-7.689l0,0C500.062,319.326,496.621,322.768,496.621,327.016z"/>
<path style="fill:#FFFFFF;" d="M206.924,262.325c-2.285-2.007-3.175-5.17-2.268-8.072l2.803-8.968l-8.076,4.801  c-2.616,1.558-5.898,1.422-8.38-0.337l-7.661-5.435l2.071,9.163c0.67,2.966-0.472,6.05-2.911,7.864l-7.538,5.608l9.355,0.862  c3.03,0.28,5.608,2.316,6.58,5.199l3.004,8.901l3.711-8.63c1.2-2.793,3.936-4.617,6.976-4.652l9.394-0.106L206.924,262.325z"/>
<path d="M220.826,254.065l7.299-23.356c0.949-3.041-0.075-6.352-2.573-8.326c-2.501-1.976-5.958-2.206-8.697-0.576l-21.033,12.504  l-19.957-14.158c-2.6-1.844-6.064-1.894-8.714-0.126c-2.65,1.767-3.936,4.985-3.235,8.094l5.394,23.867l-19.632,14.605  c-2.556,1.902-3.674,5.182-2.814,8.249c0.862,3.067,3.525,5.285,6.697,5.578l24.367,2.247l7.824,23.184  c1.019,3.018,3.792,5.096,6.976,5.225c0.105,0.004,0.207,0.006,0.311,0.006c3.061,0,5.846-1.822,7.061-4.652l9.666-22.479  l24.469-0.277c3.184-0.036,6.019-2.032,7.123-5.021c1.106-2.988,0.255-6.348-2.138-8.448L220.826,254.065z M197.614,273.279  l-3.711,8.63l-3.004-8.901c-0.972-2.881-3.551-4.919-6.58-5.199l-9.355-0.862l7.538-5.608c2.44-1.815,3.581-4.898,2.911-7.864  l-2.071-9.163l7.661,5.435c2.481,1.759,5.764,1.895,8.38,0.337l8.076-4.801l-2.803,8.968c-0.906,2.902-0.018,6.066,2.268,8.072  l7.061,6.197l-9.394,0.106C201.551,268.662,198.815,270.486,197.614,273.279z"/>
<path style="fill:#FFFFFF;" d="M369.285,154.085c-2.285-2.008-3.175-5.17-2.267-8.074l2.8-8.967l-8.075,4.802  c-2.614,1.556-5.897,1.421-8.379-0.338l-7.663-5.435l2.071,9.164c0.671,2.965-0.471,6.049-2.911,7.863l-7.538,5.609l9.357,0.861  c3.028,0.28,5.607,2.317,6.58,5.199l3.003,8.902l3.711-8.631c1.201-2.793,3.936-4.616,6.976-4.652l9.393-0.107L369.285,154.085z"/>
<path d="M401.581,161.963l-18.393-16.138l7.298-23.355c0.95-3.041-0.072-6.352-2.572-8.327c-2.5-1.974-5.957-2.205-8.697-0.576  l-21.032,12.505l-19.958-14.159c-2.6-1.843-6.065-1.894-8.714-0.126c-2.649,1.767-3.936,4.985-3.235,8.094l5.393,23.867  l-19.632,14.605c-2.556,1.901-3.674,5.182-2.813,8.249c0.862,3.067,3.525,5.286,6.697,5.578l24.366,2.247l7.824,23.184  c1.018,3.018,3.792,5.095,6.975,5.225c0.106,0.004,0.208,0.006,0.313,0.006c3.061,0,5.846-1.821,7.061-4.652l9.667-22.479  l24.466-0.277c3.185-0.037,6.019-2.032,7.125-5.02C404.826,167.424,403.974,164.064,401.581,161.963z M359.975,165.038l-3.711,8.631  l-3.003-8.902c-0.972-2.88-3.552-4.919-6.58-5.199l-9.357-0.861l7.538-5.609c2.44-1.815,3.582-4.898,2.911-7.863l-2.071-9.164  l7.663,5.435c2.481,1.759,5.765,1.894,8.379,0.338l8.075-4.802l-2.8,8.967c-0.908,2.904-0.02,6.067,2.267,8.074l7.061,6.196  l-9.393,0.107C363.912,160.422,361.177,162.245,359.975,165.038z"/>
<path style="fill:#2E3033;" d="M21.013,482.462c-6.442,0-11.685-5.242-11.685-11.685V41.115c0-6.383,5.194-11.577,11.577-11.577  h1.527c6.444,0,11.685,5.242,11.685,11.685v429.552c0,6.444-5.242,11.685-11.685,11.685h-1.419V482.462z"/>
<path d="M22.432,20.211h-1.527C9.378,20.211,0,29.588,0,41.115v429.661c0,11.587,9.426,21.013,21.013,21.013h1.418  c11.587,0,21.013-9.426,21.013-21.013V41.223C43.444,29.637,34.018,20.211,22.432,20.211z M27.898,470.777  c0,3.014-2.452,5.466-5.466,5.466h-1.418c-3.014,0-5.466-2.452-5.466-5.466V41.115c0-2.955,2.403-5.358,5.358-5.358h1.527  c3.014,0,5.466,2.452,5.466,5.466v429.553H27.898z"/>
<g>
</g>
<g>
</g>
<g>
</g>
<g>
</g>
<g>
</g>
<g>
</g>
<g>
</g>
<g>
</g>
<g>
</g>
<g>
</g>
<g>
</g>
<g>
</g>
<g>
</g>
<g>
</g>
<g>
</g>
</svg>
