<?xml version="1.0" encoding="iso-8859-1"?>
<!-- Generator: Adobe Illustrator 19.0.0, SVG Export Plug-In . SVG Version: 6.00 Build 0)  -->
<svg xmlns="http://www.w3.org/2000/svg" xmlns:xlink="http://www.w3.org/1999/xlink" version="1.1" id="Layer_1" x="0px" y="0px" viewBox="0 0 511.998 511.998" style="enable-background:new 0 0 511.998 511.998;" xml:space="preserve">
<path style="fill:#FFFFFF;" d="M472.594,247.329h23.643v-89.314h-317.12l46.326,38.603c1.796,1.498,2.835,3.716,2.835,6.055  c0,2.339-1.039,4.557-2.835,6.054l-46.326,38.603H441.07c4.354,0,7.881,3.529,7.881,7.881h15.764  C464.713,250.858,468.241,247.329,472.594,247.329z M343.365,228.592c-5.503,4.009-12.02,6.128-18.845,6.128  c-17.671,0-32.05-14.376-32.05-32.048s14.378-32.049,32.05-32.049c6.825,0,13.341,2.119,18.844,6.127  c3.519,2.562,4.294,7.491,1.731,11.009c-2.561,3.519-7.491,4.294-11.01,1.733c-2.79-2.033-6.097-3.107-9.565-3.107  c-8.98,0-16.287,7.306-16.287,16.287c0,8.98,7.307,16.286,16.287,16.286c3.468,0,6.775-1.074,9.568-3.106  c3.517-2.562,8.447-1.787,11.009,1.73C347.659,221.1,346.884,226.03,343.365,228.592z M360.519,211.675  c-4.973,0-9.005-4.03-9.005-9.004c0-4.973,4.031-9.005,9.005-9.005s9.005,4.031,9.005,9.005  C369.523,207.645,365.492,211.675,360.519,211.675z"/>
<g>
	<path style="fill:#ED1F34;" d="M334.087,215.853c-2.793,2.032-6.099,3.106-9.568,3.106c-8.98,0-16.287-7.306-16.287-16.286   c0-8.981,7.307-16.287,16.287-16.287c3.468,0,6.775,1.074,9.565,3.107c3.519,2.561,8.449,1.787,11.01-1.733   c2.562-3.518,1.788-8.447-1.731-11.009c-5.505-4.008-12.019-6.127-18.844-6.127c-17.671,0-32.05,14.377-32.05,32.049   s14.378,32.048,32.05,32.048c6.825,0,13.343-2.119,18.845-6.128c3.519-2.562,4.294-7.492,1.731-11.009   C342.534,214.066,337.603,213.291,334.087,215.853z"/>
	<circle style="fill:#ED1F34;" cx="360.514" cy="202.674" r="9.004"/>
</g>
<path style="fill:#259245;" d="M472.594,263.09c-4.354,0-7.881-3.528-7.881-7.881H448.95c0,4.353-3.527,7.881-7.881,7.881H160.202  L53.019,352.405h443.219v-89.315h-23.643V263.09z"/>
<polygon style="fill:#333333;" points="160.202,142.253 496.237,142.253 496.237,52.939 53.019,52.939 "/>
<polygon style="fill:#ED1F34;" points="208.088,202.672 39.132,61.884 39.132,343.46 "/>
<path d="M504.118,37.177H31.251c-0.087,0-0.17,0.011-0.255,0.013c-0.166,0.005-0.332,0.008-0.497,0.024  c-0.14,0.014-0.277,0.037-0.414,0.057c-0.114,0.017-0.229,0.03-0.343,0.052c-0.15,0.029-0.293,0.068-0.441,0.105  c-0.102,0.025-0.204,0.048-0.305,0.079c-0.141,0.042-0.279,0.092-0.417,0.142c-0.104,0.038-0.208,0.072-0.311,0.114  c-0.125,0.051-0.245,0.11-0.369,0.168c-0.113,0.053-0.225,0.103-0.335,0.161c-0.108,0.056-0.211,0.121-0.317,0.183  c-0.117,0.069-0.235,0.136-0.348,0.212c-0.098,0.065-0.19,0.136-0.285,0.204c-0.112,0.082-0.226,0.163-0.335,0.251  c-0.101,0.082-0.195,0.17-0.29,0.257c-0.093,0.084-0.19,0.165-0.28,0.254c-0.131,0.13-0.253,0.268-0.375,0.406  c-0.046,0.051-0.095,0.098-0.139,0.151c-0.004,0.004-0.006,0.008-0.01,0.013c-0.169,0.203-0.328,0.413-0.475,0.632l-0.001,0.001  c-0.144,0.214-0.277,0.434-0.399,0.663c-0.047,0.085-0.083,0.174-0.125,0.26c-0.071,0.144-0.144,0.287-0.206,0.436  c-0.047,0.11-0.083,0.225-0.124,0.338c-0.047,0.129-0.098,0.256-0.139,0.388c-0.039,0.132-0.068,0.266-0.102,0.399  c-0.029,0.116-0.065,0.231-0.088,0.348c-0.042,0.211-0.071,0.425-0.098,0.639c-0.005,0.042-0.015,0.083-0.019,0.125  c-0.025,0.261-0.039,0.522-0.039,0.783c0,0.006-0.001,0.013-0.001,0.019v315.227c0,0.006,0.001,0.013,0.001,0.019  c0,0.261,0.014,0.523,0.039,0.783c0.004,0.043,0.014,0.083,0.019,0.125c0.025,0.214,0.055,0.427,0.098,0.639  c0.023,0.118,0.059,0.232,0.088,0.348c0.033,0.134,0.063,0.268,0.102,0.4c0.041,0.132,0.092,0.258,0.139,0.387  c0.041,0.113,0.078,0.227,0.124,0.338c0.063,0.149,0.135,0.291,0.206,0.434c0.042,0.087,0.079,0.175,0.125,0.261  c0.122,0.227,0.255,0.448,0.399,0.662c0.001,0,0.001,0.001,0.001,0.001c0.148,0.219,0.306,0.429,0.475,0.632  c0.003,0.004,0.005,0.01,0.01,0.014c0.023,0.03,0.053,0.054,0.078,0.084c0.152,0.177,0.309,0.347,0.476,0.51  c0.078,0.076,0.16,0.147,0.241,0.219c0.122,0.11,0.245,0.218,0.375,0.32c0.096,0.075,0.193,0.148,0.292,0.219  c0.123,0.089,0.249,0.174,0.378,0.256c0.102,0.065,0.203,0.127,0.307,0.187c0.139,0.08,0.281,0.153,0.425,0.223  c0.098,0.048,0.194,0.098,0.292,0.141c0.165,0.073,0.334,0.137,0.504,0.199c0.083,0.03,0.166,0.065,0.25,0.091  c0.199,0.065,0.402,0.117,0.605,0.166c0.062,0.015,0.12,0.034,0.182,0.047c0.236,0.05,0.476,0.088,0.718,0.116  c0.033,0.003,0.066,0.012,0.099,0.015c0.273,0.029,0.551,0.045,0.833,0.045h472.867c4.354,0,7.882-3.529,7.882-7.881V45.058  C512,40.706,508.472,37.177,504.118,37.177z M39.132,61.884l168.956,140.788L39.132,343.46V61.884z M496.237,142.253H160.202  L53.019,52.939h443.219L496.237,142.253L496.237,142.253z M53.019,352.405l107.183-89.315h280.867c4.354,0,7.881-3.528,7.881-7.881  c0-4.352-3.527-7.881-7.881-7.881H179.117l46.326-38.603c1.796-1.497,2.835-3.716,2.835-6.054c0-2.339-1.039-4.557-2.835-6.055  l-46.326-38.603h317.12v89.314h-23.643c-4.354,0-7.881,3.529-7.881,7.881c0,4.353,3.527,7.881,7.881,7.881h23.643v89.315H53.019z"/>
<path style="fill:#2E3033;" d="M21.536,488.099c-6.603,0-11.976-5.373-11.976-11.976V35.765c0-6.542,5.323-11.865,11.865-11.865  h1.565c6.604,0,11.976,5.373,11.976,11.976v440.247c0,6.604-5.373,11.976-11.976,11.976h-1.454V488.099z"/>
<path d="M22.99,14.339h-1.565C9.611,14.339,0,23.95,0,35.765v440.358c0,11.876,9.661,21.536,21.536,21.536h1.453  c11.876,0,21.536-9.661,21.536-21.536V35.875C44.526,24,34.865,14.339,22.99,14.339z M28.592,476.123  c0,3.089-2.513,5.602-5.602,5.602h-1.453c-3.089,0-5.602-2.513-5.602-5.602V35.765c0-3.028,2.463-5.492,5.492-5.492h1.565  c3.089,0,5.602,2.513,5.602,5.602v440.248H28.592z"/>
<g>
</g>
<g>
</g>
<g>
</g>
<g>
</g>
<g>
</g>
<g>
</g>
<g>
</g>
<g>
</g>
<g>
</g>
<g>
</g>
<g>
</g>
<g>
</g>
<g>
</g>
<g>
</g>
<g>
</g>
</svg>
