<?xml version="1.0" encoding="iso-8859-1"?>
<!-- Generator: Adobe Illustrator 19.0.0, SVG Export Plug-In . SVG Version: 6.00 Build 0)  -->
<svg xmlns="http://www.w3.org/2000/svg" xmlns:xlink="http://www.w3.org/1999/xlink" version="1.1" id="Layer_1" x="0px" y="0px" viewBox="0 0 512 512" style="enable-background:new 0 0 512 512;" xml:space="preserve">
<path style="fill:#FFFFFF;" d="M452.845,227.394l37.067-24.712L267.685,54.531L45.458,202.683l222.227,148.151l158.93-105.953  c3.621-2.414,8.515-1.436,10.928,2.186l13.116-8.743C448.243,234.701,449.223,229.808,452.845,227.394z M355.508,181.885  l-43.523,35.191l14.527,54.051c0.848,3.154-0.338,6.503-2.98,8.421c-1.379,1.002-3.004,1.505-4.632,1.505  c-1.492,0-2.988-0.423-4.298-1.275l-46.917-30.517l-46.917,30.518c-2.738,1.779-6.29,1.688-8.93-0.231  c-2.641-1.918-3.827-5.268-2.98-8.421l14.527-54.051l-43.523-35.191c-2.539-2.053-3.549-5.459-2.54-8.564  c1.008-3.105,3.828-5.267,7.089-5.435l55.894-2.888l20.019-52.266c1.168-3.05,4.094-5.063,7.36-5.063s6.192,2.013,7.36,5.063  l20.019,52.266l55.895,2.888c3.26,0.169,6.08,2.331,7.088,5.435C359.056,176.426,358.045,179.832,355.508,181.885z"/>
<path style="fill:#FFE000;" d="M282.178,175.424l-14.493-37.839l-14.493,37.839c-1.115,2.911-3.84,4.891-6.953,5.052l-40.465,2.09  l31.507,25.477c2.424,1.96,3.465,5.164,2.657,8.174l-10.516,39.131l33.966-22.094c1.306-0.85,2.803-1.275,4.298-1.275  c1.495,0,2.991,0.425,4.298,1.275l33.966,22.094l-10.516-39.131c-0.808-3.01,0.233-6.215,2.656-8.174l31.508-25.477l-40.465-2.09  C286.018,180.314,283.291,178.334,282.178,175.424z"/>
<path d="M350.959,167.886l-55.895-2.888l-20.019-52.266c-1.168-3.05-4.094-5.063-7.36-5.063s-6.192,2.013-7.36,5.063l-20.019,52.266  l-55.894,2.888c-3.261,0.169-6.081,2.331-7.089,5.435c-1.009,3.105,0.001,6.51,2.54,8.564l43.523,35.191l-14.527,54.051  c-0.848,3.154,0.338,6.503,2.98,8.421c2.642,1.918,6.192,2.011,8.93,0.231l46.917-30.517l46.917,30.518  c1.31,0.851,2.805,1.275,4.298,1.275c1.628,0,3.254-0.503,4.632-1.505c2.641-1.919,3.827-5.268,2.98-8.421l-14.527-54.051  l43.523-35.191c2.539-2.053,3.549-5.459,2.54-8.564C357.038,170.217,354.219,168.055,350.959,167.886z M298.087,208.043  c-2.423,1.96-3.464,5.164-2.656,8.174l10.516,39.131l-33.966-22.094c-1.306-0.85-2.803-1.275-4.298-1.275s-2.991,0.425-4.298,1.275  l-33.966,22.094l10.516-39.131c0.808-3.01-0.233-6.215-2.657-8.174l-31.507-25.477l40.465-2.09c3.113-0.161,5.838-2.141,6.953-5.052  l14.494-37.839l14.493,37.839c1.114,2.911,3.84,4.891,6.953,5.052l40.465,2.09L298.087,208.043z"/>
<g>
	<polygon style="fill:#ED1F34;" points="241.656,52.941 39.132,52.941 39.132,187.956  "/>
	<polygon style="fill:#ED1F34;" points="496.237,187.956 496.237,52.941 293.714,52.941  "/>
</g>
<g>
	<polygon style="fill:#164FCE;" points="39.132,217.408 39.132,352.424 241.656,352.424  "/>
	<path style="fill:#164FCE;" d="M461.587,240.509c-3.619,2.414-8.515,1.436-10.928-2.186l0,0l-13.115,8.743l0,0   c2.414,3.621,1.436,8.515-2.186,10.929l-141.645,94.429h202.524V217.408L461.587,240.509z"/>
</g>
<path d="M504.118,37.178H31.25c-4.353,0-7.881,3.529-7.881,7.881v315.245c0,4.353,3.528,7.881,7.881,7.881h472.868  c4.354,0,7.882-3.529,7.882-7.881V45.059C512,40.707,508.472,37.178,504.118,37.178z M496.237,187.956L293.714,52.941h202.524  V187.956z M241.656,52.941L39.132,187.956V52.941H241.656z M39.132,217.408l202.524,135.016H39.132V217.408z M293.714,352.424  l141.645-94.429c3.621-2.414,4.601-7.307,2.186-10.929l0,0c-2.413-3.622-7.307-4.601-10.928-2.186L267.685,350.834L45.458,202.683  L267.685,54.531l222.226,148.152l-37.067,24.712c-3.621,2.413-4.601,7.307-2.186,10.929l0,0c2.413,3.622,7.309,4.601,10.928,2.186  l34.65-23.101v135.016H293.714V352.424z"/>
<path style="fill:#2E3033;" d="M21.536,488.1c-6.603,0-11.976-5.373-11.976-11.976V35.766c0-6.542,5.323-11.865,11.865-11.865h1.565  c6.604,0,11.976,5.373,11.976,11.976v440.247c0,6.604-5.373,11.976-11.976,11.976h-1.454V488.1z"/>
<path d="M22.99,14.34h-1.565C9.611,14.34,0,23.951,0,35.766v440.358C0,488,9.661,497.66,21.536,497.66h1.453  c11.876,0,21.536-9.661,21.536-21.536V35.876C44.526,24.001,34.865,14.34,22.99,14.34z M28.592,476.124  c0,3.089-2.513,5.602-5.602,5.602h-1.453c-3.089,0-5.602-2.513-5.602-5.602V35.766c0-3.028,2.463-5.492,5.492-5.492h1.565  c3.089,0,5.602,2.513,5.602,5.602v440.248H28.592z"/>
<g>
</g>
<g>
</g>
<g>
</g>
<g>
</g>
<g>
</g>
<g>
</g>
<g>
</g>
<g>
</g>
<g>
</g>
<g>
</g>
<g>
</g>
<g>
</g>
<g>
</g>
<g>
</g>
<g>
</g>
</svg>
