<?xml version="1.0" encoding="iso-8859-1"?>
<!-- Generator: Adobe Illustrator 19.0.0, SVG Export Plug-In . SVG Version: 6.00 Build 0)  -->
<svg xmlns="http://www.w3.org/2000/svg" xmlns:xlink="http://www.w3.org/1999/xlink" version="1.1" id="Layer_1" x="0px" y="0px" viewBox="0 0 512 512" style="enable-background:new 0 0 512 512;" xml:space="preserve">
<path style="fill:#FFE000;" d="M74.583,211.753H51.562v61.392h445.091v-61.392H105.28c-4.24,0-7.674-3.435-7.674-7.674H82.257  C82.257,208.317,78.822,211.753,74.583,211.753z"/>
<rect x="51.562" y="288.489" style="fill:#134923;" width="445.088" height="61.388"/>
<path style="fill:#3DB4EA;" d="M74.583,196.405c4.239,0,7.674,3.435,7.674,7.674h15.349c0-4.239,3.434-7.674,7.674-7.674h391.373  V58.273H51.562v138.132H74.583z M385.635,119.664h21.377l-15.116-15.116c-2.995-2.996-2.995-7.856,0-10.853  c2.998-2.995,7.857-2.995,10.853,0l15.116,15.116V87.434c0-4.239,3.435-7.674,7.674-7.674c4.24,0,7.675,3.435,7.675,7.674v21.377  l15.115-15.116c2.998-2.995,7.857-2.995,10.854,0c2.995,2.998,2.995,7.857,0,10.853l-15.116,15.116h21.377  c4.239,0,7.674,3.435,7.674,7.674c0,4.24-3.435,7.674-7.674,7.674h-21.377l15.116,15.117c2.995,2.996,2.995,7.856,0,10.853  c-1.499,1.497-3.464,2.247-5.427,2.247s-3.928-0.75-5.427-2.247l-15.115-15.116v21.377c0,4.239-3.435,7.674-7.675,7.674  c-4.239,0-7.674-3.435-7.674-7.674v-21.377l-15.116,15.116c-1.499,1.497-3.463,2.247-5.426,2.247s-3.928-0.75-5.427-2.247  c-2.995-2.998-2.995-7.857,0-10.853l15.116-15.117h-21.377c-4.239,0-7.674-3.434-7.674-7.674  C377.962,123.1,381.397,119.664,385.635,119.664z"/>
<path d="M504.326,42.925H43.888c-4.239,0-7.674,3.435-7.674,7.674v306.959c0,4.24,3.435,7.675,7.674,7.675h460.438  c4.239,0,7.674-3.435,7.674-7.675V50.599C512,46.36,508.565,42.925,504.326,42.925z M496.652,58.273v138.132H105.28  c-4.24,0-7.674,3.435-7.674,7.674c0,4.239,3.434,7.674,7.674,7.674h391.373v61.392H51.562v-61.392h23.022  c4.239,0,7.674-3.435,7.674-7.674c0-4.239-3.435-7.674-7.674-7.674H51.562V58.273H496.652z M51.562,349.884v-61.392h445.091v61.392  H51.562z"/>
<path style="fill:#FFE610;" d="M385.635,135.012h21.377l-15.116,15.117c-2.995,2.996-2.995,7.856,0,10.853  c1.499,1.497,3.464,2.247,5.427,2.247s3.927-0.75,5.426-2.247l15.116-15.116v21.377c0,4.239,3.435,7.674,7.674,7.674  c4.24,0,7.675-3.435,7.675-7.674v-21.377l15.115,15.116c1.499,1.497,3.464,2.247,5.427,2.247s3.928-0.75,5.427-2.247  c2.995-2.998,2.995-7.857,0-10.853l-15.116-15.117h21.377c4.239,0,7.674-3.434,7.674-7.674c0-4.239-3.435-7.674-7.674-7.674h-21.377  l15.116-15.116c2.995-2.996,2.995-7.856,0-10.853c-2.998-2.995-7.857-2.995-10.854,0l-15.115,15.116V87.434  c0-4.239-3.435-7.674-7.675-7.674c-4.239,0-7.674,3.435-7.674,7.674v21.377L402.75,93.695c-2.996-2.995-7.856-2.995-10.853,0  c-2.995,2.998-2.995,7.857,0,10.853l15.116,15.116h-21.377c-4.239,0-7.674,3.435-7.674,7.674  C377.962,131.578,381.397,135.012,385.635,135.012z"/>
<path style="fill:#2E3033;" d="M20.97,482.004c-6.429,0-11.661-5.232-11.661-11.661V41.55c0-6.371,5.183-11.554,11.554-11.554h1.524  c6.431,0,11.661,5.232,11.661,11.661v428.685c0,6.431-5.232,11.661-11.661,11.661H20.97V482.004z"/>
<path d="M22.386,20.687h-1.524C9.359,20.687,0,30.046,0,41.55v428.793c0,11.563,9.407,20.97,20.97,20.97h1.415  c11.564,0,20.97-9.407,20.97-20.97V41.657C43.357,30.094,33.949,20.687,22.386,20.687z M27.841,470.343  c0,3.008-2.447,5.455-5.455,5.455h-1.415c-3.008,0-5.455-2.447-5.455-5.455V41.55c0-2.949,2.399-5.348,5.348-5.348h1.524  c3.008,0,5.455,2.447,5.455,5.455v428.686H27.841z"/>
<g>
</g>
<g>
</g>
<g>
</g>
<g>
</g>
<g>
</g>
<g>
</g>
<g>
</g>
<g>
</g>
<g>
</g>
<g>
</g>
<g>
</g>
<g>
</g>
<g>
</g>
<g>
</g>
<g>
</g>
</svg>
