<?xml version="1.0" encoding="iso-8859-1"?>
<!-- Generator: Adobe Illustrator 19.0.0, SVG Export Plug-In . SVG Version: 6.00 Build 0)  -->
<svg xmlns="http://www.w3.org/2000/svg" xmlns:xlink="http://www.w3.org/1999/xlink" version="1.1" id="Layer_1" x="0px" y="0px" viewBox="0 0 512 512" style="enable-background:new 0 0 512 512;" xml:space="preserve">
<path style="fill:#103B9B;" d="M442.793,247.553h53.828v-87.15H50.619v87.15h361.416c4.247,0,7.689,3.443,7.689,7.689h15.38  C435.104,250.995,438.546,247.553,442.793,247.553z"/>
<rect x="50.619" y="57.874" style="fill:#FFFFFF;" width="446" height="87.154"/>
<path style="fill:#ED1F34;" d="M442.793,262.932c-4.247,0-7.689-3.443-7.689-7.69h-15.38c0,4.247-3.442,7.69-7.689,7.69H50.619  v87.15H496.62v-87.15L442.793,262.932L442.793,262.932z"/>
<path d="M504.31,42.494H42.929c-4.248,0-7.69,3.443-7.69,7.689v307.588c0,4.247,3.442,7.689,7.69,7.689h461.38  c4.248,0,7.69-3.443,7.69-7.689V50.183C512,45.937,508.558,42.494,504.31,42.494z M496.62,57.874v87.15H50.619v-87.15H496.62z   M50.619,350.082v-87.15h361.416c4.247,0,7.689-3.443,7.689-7.69c0-4.246-3.442-7.689-7.689-7.689H50.619v-87.15H496.62v87.15  h-53.828c-4.247,0-7.689,3.443-7.689,7.689c0,4.247,3.442,7.69,7.689,7.69h53.828v87.15H50.619z"/>
<path style="fill:#2E3033;" d="M21.013,482.462c-6.442,0-11.685-5.242-11.685-11.685V41.115c0-6.383,5.194-11.577,11.577-11.577  h1.527c6.444,0,11.685,5.242,11.685,11.685v429.552c0,6.444-5.242,11.685-11.685,11.685h-1.419V482.462z"/>
<path d="M22.432,20.211h-1.527C9.378,20.211,0,29.588,0,41.115v429.661c0,11.587,9.426,21.013,21.013,21.013h1.418  c11.587,0,21.013-9.426,21.013-21.013V41.223C43.444,29.637,34.018,20.211,22.432,20.211z M27.898,470.777  c0,3.014-2.452,5.466-5.466,5.466h-1.418c-3.014,0-5.466-2.452-5.466-5.466V41.115c0-2.955,2.403-5.358,5.358-5.358h1.527  c3.014,0,5.466,2.452,5.466,5.466v429.554H27.898z"/>
<g>
</g>
<g>
</g>
<g>
</g>
<g>
</g>
<g>
</g>
<g>
</g>
<g>
</g>
<g>
</g>
<g>
</g>
<g>
</g>
<g>
</g>
<g>
</g>
<g>
</g>
<g>
</g>
<g>
</g>
</svg>
