<?xml version="1.0" encoding="iso-8859-1"?>
<!-- Generator: Adobe Illustrator 19.0.0, SVG Export Plug-In . SVG Version: 6.00 Build 0)  -->
<svg xmlns="http://www.w3.org/2000/svg" xmlns:xlink="http://www.w3.org/1999/xlink" version="1.1" id="Layer_1" x="0px" y="0px" viewBox="0 0 512 512" style="enable-background:new 0 0 512 512;" xml:space="preserve">
<polygon style="fill:#259245;" points="51.562,58.273 51.562,339.453 342.113,58.273 "/>
<path style="fill:#ED1F34;" d="M496.652,296.166V68.705L206.1,349.884h290.551v-23.022c0-4.239,3.436-7.674,7.674-7.674V303.84  C500.087,303.84,496.652,300.405,496.652,296.166z"/>
<polygon style="fill:#FFE000;" points="364.184,58.273 62.853,349.884 184.029,349.884 485.362,58.273 "/>
<path d="M496.652,326.862v23.022H206.1L496.652,68.705v227.46c0,4.24,3.436,7.675,7.674,7.675c4.239,0,7.674-3.435,7.674-7.675  V50.599c0-0.086-0.01-0.169-0.012-0.254c-0.005-0.148-0.009-0.296-0.023-0.444c-0.01-0.119-0.029-0.236-0.044-0.352  c-0.018-0.131-0.035-0.262-0.06-0.391c-0.023-0.123-0.054-0.244-0.083-0.366c-0.029-0.122-0.058-0.243-0.093-0.363  c-0.035-0.121-0.077-0.237-0.118-0.357c-0.041-0.118-0.082-0.237-0.129-0.353c-0.046-0.114-0.098-0.225-0.15-0.337  c-0.054-0.116-0.107-0.233-0.167-0.344c-0.057-0.109-0.12-0.214-0.181-0.321c-0.065-0.109-0.128-0.219-0.199-0.325  c-0.071-0.109-0.148-0.212-0.224-0.318c-0.071-0.097-0.141-0.194-0.216-0.29c-0.091-0.112-0.188-0.218-0.285-0.325  c-0.059-0.065-0.112-0.135-0.174-0.199c-0.014-0.016-0.031-0.028-0.046-0.042c-0.103-0.107-0.214-0.204-0.324-0.302  c-0.08-0.073-0.157-0.151-0.24-0.218c-0.094-0.079-0.194-0.151-0.294-0.224c-0.104-0.078-0.206-0.16-0.312-0.234  c-0.067-0.047-0.14-0.085-0.209-0.128c-0.142-0.09-0.282-0.182-0.429-0.261c-0.043-0.024-0.089-0.042-0.133-0.065  c-0.176-0.091-0.354-0.181-0.536-0.259c-0.082-0.034-0.168-0.061-0.251-0.093c-0.148-0.056-0.295-0.115-0.446-0.162  c-0.109-0.033-0.222-0.058-0.333-0.087c-0.13-0.033-0.259-0.072-0.39-0.101c-0.103-0.022-0.21-0.032-0.314-0.05  c-0.145-0.024-0.289-0.052-0.433-0.066c-0.095-0.01-0.192-0.011-0.289-0.019c-0.159-0.011-0.319-0.023-0.477-0.024  c-0.02,0-0.038-0.003-0.058-0.003H43.888c-4.238,0-7.674,3.435-7.674,7.674v306.959c0,0.087,0.01,0.169,0.012,0.255  c0.005,0.148,0.009,0.295,0.023,0.444c0.01,0.119,0.029,0.235,0.044,0.352c0.019,0.131,0.035,0.261,0.06,0.391  c0.024,0.122,0.054,0.243,0.083,0.366c0.03,0.121,0.059,0.242,0.094,0.363c0.035,0.121,0.077,0.239,0.118,0.357  c0.041,0.118,0.082,0.237,0.129,0.354c0.047,0.113,0.098,0.224,0.15,0.336c0.054,0.115,0.108,0.231,0.167,0.344  c0.057,0.109,0.119,0.214,0.181,0.321c0.065,0.108,0.128,0.218,0.199,0.325c0.07,0.109,0.148,0.212,0.224,0.318  c0.071,0.097,0.141,0.194,0.216,0.289c0.091,0.112,0.188,0.219,0.284,0.326c0.06,0.065,0.112,0.136,0.174,0.199  c0.014,0.014,0.03,0.027,0.044,0.041c0.114,0.116,0.236,0.224,0.357,0.332c0.071,0.065,0.141,0.133,0.214,0.194  c0.119,0.099,0.245,0.188,0.369,0.28c0.178,0.129,0.36,0.251,0.546,0.365c0.11,0.066,0.216,0.139,0.33,0.2  c0.108,0.059,0.22,0.105,0.33,0.158c0.119,0.058,0.235,0.118,0.357,0.17c0.099,0.042,0.202,0.072,0.302,0.111  c0.138,0.051,0.274,0.105,0.415,0.148c0.095,0.029,0.191,0.05,0.287,0.074c0.149,0.038,0.297,0.082,0.45,0.111  c0.113,0.023,0.228,0.035,0.341,0.053c0.136,0.021,0.27,0.047,0.409,0.06c0.245,0.025,0.49,0.037,0.735,0.038  c0.009,0,0.019,0.001,0.028,0.001h460.438c4.239,0,7.674-3.435,7.674-7.675V326.86c0-4.239-3.436-7.674-7.674-7.674  C500.087,319.188,496.652,322.623,496.652,326.862z M51.562,58.273h290.551L51.562,339.453V58.273z M62.853,349.884L364.184,58.273  h121.176L184.029,349.884H62.853z"/>
<path style="fill:#2E3033;" d="M20.97,482.004c-6.429,0-11.661-5.232-11.661-11.661V41.55c0-6.371,5.183-11.554,11.554-11.554h1.524  c6.431,0,11.661,5.232,11.661,11.661v428.685c0,6.431-5.232,11.661-11.661,11.661H20.97V482.004z"/>
<path d="M22.386,20.687h-1.524C9.359,20.687,0,30.046,0,41.55v428.793c0,11.563,9.407,20.97,20.97,20.97h1.415  c11.564,0,20.97-9.407,20.97-20.97V41.657C43.357,30.094,33.949,20.687,22.386,20.687z M27.841,470.343  c0,3.008-2.447,5.455-5.455,5.455h-1.415c-3.008,0-5.455-2.447-5.455-5.455V41.55c0-2.949,2.399-5.348,5.348-5.348h1.524  c3.008,0,5.455,2.447,5.455,5.455v428.686H27.841z"/>
<g>
</g>
<g>
</g>
<g>
</g>
<g>
</g>
<g>
</g>
<g>
</g>
<g>
</g>
<g>
</g>
<g>
</g>
<g>
</g>
<g>
</g>
<g>
</g>
<g>
</g>
<g>
</g>
<g>
</g>
</svg>
