<?xml version="1.0" encoding="iso-8859-1"?>
<!-- Generator: Adobe Illustrator 19.0.0, SVG Export Plug-In . SVG Version: 6.00 Build 0)  -->
<svg xmlns="http://www.w3.org/2000/svg" xmlns:xlink="http://www.w3.org/1999/xlink" version="1.1" id="Layer_1" x="0px" y="0px" viewBox="0 0 511.999 511.999" style="enable-background:new 0 0 511.999 511.999;" xml:space="preserve">
<path style="fill:#ED1F34;" d="M135.205,211.667c-4.247,0-7.689-3.442-7.689-7.689h-15.38c0,4.247-3.443,7.689-7.689,7.689H50.619  v138.415H496.62V211.667H135.205z"/>
<path style="fill:#FFFFFF;" d="M135.205,196.287H496.62V57.873H50.619v138.414h53.828c4.246,0,7.689,3.443,7.689,7.689h15.38  C127.515,199.73,130.958,196.287,135.205,196.287z"/>
<path d="M504.311,42.493H42.928c-4.246,0-7.689,3.443-7.689,7.689V357.77c0,4.247,3.443,7.689,7.689,7.689H504.31  c4.247,0,7.689-3.443,7.689-7.689V50.183C512,45.936,508.557,42.493,504.311,42.493z M50.619,350.081V211.667h53.828  c4.246,0,7.689-3.442,7.689-7.689s-3.443-7.689-7.689-7.689H50.619V57.873H496.62v138.414H135.205c-4.247,0-7.689,3.443-7.689,7.689  c0,4.246,3.443,7.689,7.689,7.689H496.62v138.415L50.619,350.081L50.619,350.081z"/>
<path style="fill:#2E3033;" d="M21.013,482.461c-6.442,0-11.685-5.242-11.685-11.685V41.115c0-6.383,5.194-11.577,11.577-11.577  h1.527c6.444,0,11.685,5.242,11.685,11.685v429.552c0,6.444-5.242,11.685-11.685,11.685h-1.419V482.461z"/>
<path d="M22.432,20.21h-1.527C9.378,20.21,0,29.588,0,41.115v429.661c0,11.587,9.426,21.013,21.013,21.013h1.418  c11.587,0,21.013-9.426,21.013-21.013V41.223C43.444,29.636,34.018,20.21,22.432,20.21z M27.898,470.776  c0,3.014-2.452,5.466-5.466,5.466h-1.418c-3.014,0-5.466-2.452-5.466-5.466V41.115c0-2.955,2.403-5.358,5.358-5.358h1.527  c3.014,0,5.466,2.452,5.466,5.466v429.554H27.898z"/>
<g>
</g>
<g>
</g>
<g>
</g>
<g>
</g>
<g>
</g>
<g>
</g>
<g>
</g>
<g>
</g>
<g>
</g>
<g>
</g>
<g>
</g>
<g>
</g>
<g>
</g>
<g>
</g>
<g>
</g>
</svg>
