<?xml version="1.0" encoding="iso-8859-1"?>
<!-- Generator: Adobe Illustrator 19.0.0, SVG Export Plug-In . SVG Version: 6.00 Build 0)  -->
<svg xmlns="http://www.w3.org/2000/svg" xmlns:xlink="http://www.w3.org/1999/xlink" version="1.1" id="Layer_1" x="0px" y="0px" viewBox="0 0 512.002 512.002" style="enable-background:new 0 0 512.002 512.002;" xml:space="preserve">
<path style="fill:#ED1F34;" d="M51.551,65.374v104.109l153.828,14.226c2.144,0.199,4.106,1.289,5.409,3.005  c1.301,1.716,1.821,3.899,1.434,6.018c-0.694,3.798-1.047,7.618-1.047,11.352s0.353,7.553,1.047,11.352  c0.388,2.118-0.132,4.302-1.434,6.018c-1.301,1.716-3.264,2.806-5.409,3.004L51.551,238.683v104.109l156.758-110.167  c1.769-1.243,3.98-1.683,6.089-1.21c2.11,0.473,3.922,1.812,4.993,3.691c3.799,6.67,8.706,12.527,14.586,17.408  c1.657,1.376,2.659,3.383,2.764,5.534c0.104,2.15-0.7,4.246-2.216,5.775l-85.342,86.07h93.654l10.935-77.452  c0.292-2.069,1.415-3.929,3.11-5.151c1.694-1.222,3.814-1.7,5.87-1.324c7.591,1.389,15.111,1.389,22.702,0  c2.055-0.375,4.176,0.102,5.87,1.324c1.695,1.223,2.819,3.082,3.11,5.151l10.934,77.452h93.654l-85.342-86.07  c-1.515-1.529-2.32-3.624-2.216-5.775c0.104-2.15,1.107-4.158,2.763-5.534c5.88-4.881,10.788-10.738,14.587-17.408  c1.069-1.878,2.882-3.219,4.992-3.691c2.11-0.473,4.32-0.032,6.089,1.21l156.758,110.167V238.684l-153.828-14.226  c-2.144-0.198-4.107-1.289-5.409-3.005c-1.301-1.716-1.821-3.9-1.434-6.019c0.694-3.795,1.047-7.614,1.047-11.351  s-0.353-7.556-1.047-11.351c-0.388-2.118,0.132-4.303,1.434-6.019c1.301-1.716,3.263-2.806,5.409-3.005l153.828-14.226V65.374  l-156.76,110.167c-1.303,0.915-2.847,1.395-4.413,1.395c-0.56,0-1.121-0.061-1.677-0.185c-2.11-0.473-3.922-1.812-4.992-3.691  c-3.799-6.67-8.707-12.527-14.587-17.408c-1.656-1.376-2.658-3.383-2.763-5.534c-0.104-2.15,0.7-4.246,2.216-5.775l85.342-86.069  h-93.654l-10.934,77.452c-0.292,2.069-1.415,3.929-3.11,5.151c-1.316,0.95-2.889,1.45-4.489,1.45c-0.459,0-0.922-0.042-1.38-0.126  c-7.597-1.389-15.107-1.389-22.704,0c-2.055,0.376-4.175-0.102-5.869-1.324c-1.694-1.222-2.819-3.082-3.109-5.151l-10.935-77.452  h-93.654l85.342,86.069c1.515,1.529,2.32,3.624,2.216,5.775c-0.104,2.151-1.107,4.158-2.764,5.534  c-5.88,4.881-10.787,10.738-14.586,17.407c-1.07,1.878-2.883,3.219-4.992,3.692c-0.555,0.124-1.117,0.185-1.677,0.185  c-1.566,0-3.109-0.48-4.413-1.395L51.551,65.374z M274.101,156.504c19.265,0,36.507,11.492,43.925,29.277  c1.631,3.912-0.217,8.406-4.128,10.037c-0.231,0.096-0.463,0.178-0.697,0.25c0.529,2.589,0.806,5.27,0.806,8.016  s-0.278,5.426-0.806,8.015c0.234,0.072,0.466,0.154,0.697,0.25c3.911,1.631,5.759,6.124,4.128,10.037  c-7.418,17.785-24.66,29.277-43.925,29.277c-26.235,0-47.58-21.345-47.58-47.58S247.866,156.504,274.101,156.504z"/>
<g>
	<path style="fill:#FFE000;" d="M210.594,249.779L68.143,349.893h59.425l90.467-91.238   C215.339,255.885,212.854,252.921,210.594,249.779z"/>
	<path style="fill:#FFE000;" d="M51.551,184.897v38.373l144.498-13.364c-0.149-1.951-0.223-3.894-0.223-5.822   c0-1.929,0.074-3.873,0.223-5.823L51.551,184.897z"/>
	<path style="fill:#FFE000;" d="M105.269,58.275H68.143l142.452,100.113c2.26-3.142,4.745-6.105,7.44-8.875l-92.719-93.509   c-1.484-1.497-2.223-3.451-2.223-5.403h-10.15C112.943,54.839,109.508,58.275,105.269,58.275z"/>
	<path style="fill:#FFE000;" d="M280.297,126.061l9.57-67.786h-31.53l9.57,67.786C272.056,125.723,276.146,125.723,280.297,126.061z   "/>
	<path style="fill:#FFE000;" d="M496.651,223.27v-38.373l-144.498,13.364c0.149,1.95,0.223,3.894,0.223,5.823   s-0.074,3.873-0.223,5.822L496.651,223.27z"/>
	<path style="fill:#FFE000;" d="M337.608,158.387L480.059,58.275h-59.425l-90.467,91.237   C332.863,152.283,335.348,155.246,337.608,158.387z"/>
	<path style="fill:#FFE000;" d="M280.297,282.107c-4.15,0.337-8.241,0.337-12.39,0l-9.57,67.786h31.53L280.297,282.107z"/>
	<path style="fill:#FFE000;" d="M337.608,249.779c-2.261,3.141-4.745,6.105-7.441,8.875l90.467,91.238h59.425L337.608,249.779z"/>
</g>
<path d="M512,231.604v-55.041c0-0.004,0-0.009,0-0.013V50.6c0-0.022-0.003-0.041-0.003-0.063c-0.001-0.17-0.013-0.339-0.026-0.509  c-0.006-0.085-0.008-0.171-0.018-0.253c-0.018-0.164-0.047-0.328-0.074-0.492c-0.016-0.087-0.025-0.175-0.043-0.261  c-0.029-0.142-0.07-0.28-0.108-0.421c-0.028-0.106-0.052-0.212-0.085-0.314c-0.034-0.11-0.079-0.216-0.119-0.325  c-0.048-0.129-0.092-0.261-0.147-0.388c-0.036-0.085-0.082-0.167-0.121-0.25c-0.069-0.147-0.138-0.293-0.215-0.434  c-0.042-0.076-0.091-0.148-0.136-0.222c-0.086-0.144-0.173-0.288-0.268-0.425c-0.012-0.018-0.022-0.036-0.034-0.054  c-0.048-0.068-0.102-0.128-0.151-0.194c-0.088-0.117-0.175-0.235-0.27-0.345c-0.085-0.1-0.173-0.193-0.262-0.288  c-0.08-0.085-0.157-0.171-0.24-0.251c-0.104-0.102-0.213-0.198-0.322-0.293c-0.077-0.066-0.152-0.134-0.232-0.198  c-0.115-0.092-0.234-0.179-0.353-0.264c-0.084-0.06-0.168-0.12-0.253-0.177c-0.116-0.076-0.234-0.146-0.353-0.214  c-0.1-0.058-0.2-0.116-0.302-0.17c-0.11-0.057-0.22-0.109-0.332-0.159c-0.119-0.055-0.237-0.108-0.359-0.157  c-0.102-0.04-0.206-0.077-0.31-0.113c-0.132-0.047-0.265-0.092-0.4-0.131c-0.103-0.03-0.208-0.055-0.312-0.08  c-0.135-0.033-0.272-0.066-0.41-0.092c-0.116-0.022-0.234-0.037-0.351-0.054c-0.127-0.018-0.253-0.036-0.383-0.048  c-0.144-0.012-0.287-0.018-0.431-0.022c-0.085-0.002-0.168-0.012-0.252-0.012h-368.36c-0.914,0-1.787,0.169-2.6,0.461  c-2.699-0.97-5.832-0.39-8.004,1.764c-1.513,1.501-2.269,3.474-2.269,5.45c0,1.953,0.74,3.907,2.223,5.403l92.719,93.509  c-2.696,2.77-5.18,5.732-7.44,8.875L68.143,58.275h37.128c4.238,0,7.674-3.436,7.674-7.674c0-4.239-3.436-7.674-7.674-7.674H43.876  c-0.082,0-0.161,0.009-0.242,0.012c-0.148,0.005-0.296,0.009-0.443,0.022c-0.128,0.011-0.252,0.03-0.379,0.048  c-0.118,0.017-0.236,0.032-0.353,0.054c-0.14,0.026-0.277,0.059-0.414,0.093c-0.102,0.025-0.205,0.05-0.306,0.079  c-0.139,0.04-0.273,0.086-0.409,0.133c-0.101,0.035-0.202,0.07-0.302,0.111c-0.125,0.05-0.247,0.106-0.369,0.161  c-0.108,0.05-0.214,0.099-0.32,0.154c-0.108,0.056-0.212,0.116-0.317,0.177c-0.114,0.066-0.228,0.133-0.338,0.206  c-0.091,0.06-0.18,0.123-0.269,0.187c-0.115,0.082-0.229,0.164-0.339,0.253c-0.084,0.067-0.163,0.138-0.244,0.209  c-0.106,0.092-0.21,0.184-0.31,0.282c-0.086,0.085-0.168,0.173-0.249,0.261c-0.086,0.092-0.173,0.182-0.254,0.279  c-0.095,0.113-0.184,0.232-0.273,0.35c-0.049,0.065-0.103,0.125-0.15,0.192c-0.012,0.018-0.022,0.036-0.034,0.054  c-0.095,0.138-0.181,0.281-0.268,0.425c-0.044,0.074-0.093,0.148-0.135,0.222c-0.079,0.142-0.147,0.288-0.215,0.434  c-0.04,0.084-0.085,0.165-0.121,0.25c-0.055,0.127-0.099,0.259-0.147,0.388c-0.04,0.109-0.085,0.215-0.119,0.325  c-0.033,0.103-0.056,0.21-0.085,0.314c-0.038,0.14-0.079,0.279-0.108,0.421c-0.019,0.086-0.028,0.174-0.043,0.261  c-0.028,0.163-0.057,0.327-0.074,0.492c-0.009,0.084-0.01,0.169-0.018,0.253c-0.012,0.17-0.024,0.339-0.026,0.509  c0,0.022-0.003,0.041-0.003,0.063v125.95c0,0.004,0,0.008,0,0.013v55.041c0,0.004,0,0.008,0,0.012v125.95  c0,0.022,0.003,0.041,0.003,0.063c0.001,0.17,0.013,0.339,0.026,0.509c0.006,0.085,0.008,0.17,0.018,0.253  c0.018,0.164,0.047,0.328,0.074,0.491c0.016,0.087,0.025,0.175,0.043,0.261c0.029,0.142,0.07,0.28,0.108,0.421  c0.028,0.105,0.052,0.212,0.085,0.314c0.034,0.11,0.079,0.216,0.119,0.324c0.048,0.13,0.092,0.262,0.147,0.388  c0.036,0.085,0.081,0.168,0.121,0.251c0.069,0.146,0.138,0.293,0.215,0.433c0.042,0.076,0.091,0.148,0.135,0.222  c0.086,0.144,0.173,0.288,0.268,0.425c0.012,0.018,0.022,0.036,0.034,0.054c0.031,0.043,0.067,0.082,0.099,0.124  c0.128,0.175,0.263,0.344,0.404,0.507c0.069,0.08,0.14,0.156,0.211,0.232c0.127,0.133,0.26,0.262,0.396,0.386  c0.079,0.071,0.153,0.146,0.234,0.213c0.205,0.173,0.416,0.335,0.638,0.485c0.056,0.037,0.115,0.068,0.172,0.105  c0.184,0.118,0.371,0.23,0.566,0.331c0.083,0.043,0.168,0.081,0.252,0.121c0.175,0.084,0.352,0.161,0.534,0.233  c0.086,0.033,0.172,0.064,0.259,0.094c0.188,0.065,0.38,0.122,0.573,0.173c0.083,0.022,0.163,0.044,0.246,0.064  c0.207,0.047,0.418,0.083,0.631,0.112c0.071,0.01,0.143,0.025,0.214,0.032c0.275,0.03,0.553,0.049,0.837,0.05  c0.007,0,0.014,0.001,0.022,0.001c0.002,0,0.004,0,0.006,0H298.67c0.007,0,0.014,0.001,0.022,0.001c0.004,0,0.009-0.001,0.014-0.001  h205.608c0.002,0,0.004,0,0.006,0c0.007,0,0.013-0.001,0.021-0.001c0.283,0,0.563-0.02,0.839-0.05  c0.068-0.007,0.134-0.022,0.203-0.031c0.217-0.03,0.433-0.066,0.645-0.115c0.079-0.019,0.155-0.039,0.234-0.06  c0.199-0.052,0.395-0.11,0.587-0.177c0.083-0.028,0.164-0.059,0.246-0.09c0.187-0.072,0.368-0.152,0.548-0.239  c0.08-0.038,0.159-0.073,0.238-0.115c0.203-0.107,0.399-0.222,0.591-0.345c0.047-0.031,0.096-0.056,0.143-0.087  c0.225-0.152,0.441-0.32,0.648-0.493c0.078-0.065,0.151-0.137,0.227-0.206c0.139-0.127,0.274-0.258,0.403-0.393  c0.07-0.074,0.14-0.151,0.208-0.229c0.143-0.163,0.278-0.334,0.406-0.509c0.032-0.043,0.068-0.08,0.099-0.124  c0.012-0.018,0.022-0.036,0.034-0.054c0.095-0.138,0.181-0.281,0.268-0.425c0.044-0.074,0.093-0.148,0.136-0.222  c0.079-0.141,0.147-0.288,0.215-0.433c0.039-0.084,0.085-0.167,0.121-0.251c0.055-0.127,0.099-0.259,0.147-0.388  c0.04-0.108,0.085-0.215,0.119-0.324c0.033-0.103,0.056-0.21,0.085-0.314c0.038-0.14,0.079-0.279,0.108-0.421  c0.019-0.086,0.028-0.174,0.043-0.261c0.028-0.163,0.057-0.327,0.074-0.491c0.009-0.084,0.01-0.17,0.018-0.253  c0.012-0.17,0.024-0.339,0.026-0.509c0-0.022,0.003-0.041,0.003-0.063V231.616C512,231.612,512,231.608,512,231.604z   M480.059,58.275L337.608,158.388c-2.261-3.141-4.745-6.105-7.441-8.875l90.467-91.237h59.426V58.275z M352.154,198.261  l144.498-13.364v38.373l-144.498-13.364c0.149-1.95,0.223-3.894,0.223-5.822C352.377,202.154,352.303,200.211,352.154,198.261z   M258.336,58.275h31.53l-9.57,67.786c-4.151-0.337-8.24-0.337-12.39,0L258.336,58.275z M214.398,176.751  c2.109-0.473,3.922-1.812,4.992-3.692c3.799-6.669,8.706-12.526,14.586-17.407c1.657-1.376,2.659-3.383,2.764-5.534  c0.104-2.15-0.7-4.246-2.216-5.775l-85.342-86.069h93.654l10.935,77.452c0.292,2.069,1.415,3.929,3.109,5.151  c1.694,1.222,3.815,1.702,5.869,1.324c7.597-1.389,15.107-1.389,22.704,0c0.458,0.084,0.921,0.126,1.38,0.126  c1.6,0,3.172-0.501,4.489-1.45c1.695-1.223,2.819-3.082,3.11-5.151l10.934-77.452h93.654l-85.342,86.069  c-1.515,1.529-2.32,3.624-2.216,5.775c0.104,2.151,1.107,4.158,2.763,5.534c5.88,4.881,10.788,10.738,14.587,17.408  c1.069,1.878,2.882,3.219,4.992,3.691c0.555,0.124,1.117,0.185,1.677,0.185c1.566,0,3.109-0.48,4.413-1.395L496.651,65.374v104.109  l-153.828,14.226c-2.144,0.199-4.107,1.289-5.409,3.005c-1.301,1.716-1.821,3.901-1.434,6.019c0.694,3.795,1.047,7.614,1.047,11.351  c0,3.736-0.353,7.556-1.047,11.351c-0.388,2.118,0.132,4.303,1.434,6.019c1.301,1.716,3.263,2.806,5.409,3.005l153.828,14.226  v104.109L339.894,232.626c-1.768-1.242-3.979-1.683-6.089-1.21c-2.11,0.473-3.922,1.812-4.992,3.691  c-3.799,6.67-8.707,12.527-14.587,17.408c-1.656,1.376-2.658,3.383-2.763,5.534c-0.104,2.15,0.7,4.246,2.216,5.775l85.342,86.07  h-93.654l-10.934-77.452c-0.292-2.069-1.416-3.93-3.11-5.151c-1.694-1.222-3.815-1.7-5.87-1.324c-7.591,1.389-15.111,1.389-22.702,0  c-2.056-0.375-4.176,0.102-5.87,1.324c-1.695,1.223-2.819,3.082-3.11,5.151l-10.935,77.452h-93.654l85.342-86.07  c1.515-1.529,2.32-3.624,2.216-5.775c-0.104-2.15-1.107-4.158-2.764-5.534c-5.88-4.881-10.787-10.738-14.586-17.408  c-1.071-1.878-2.883-3.219-4.993-3.691c-2.109-0.473-4.319-0.033-6.089,1.21L51.551,342.794v-104.11l153.828-14.226  c2.144-0.198,4.106-1.289,5.409-3.004c1.301-1.716,1.821-3.901,1.434-6.018c-0.694-3.798-1.047-7.618-1.047-11.352  s0.353-7.554,1.047-11.352c0.388-2.118-0.132-4.302-1.434-6.018c-1.301-1.716-3.264-2.806-5.409-3.005L51.551,169.483V65.374  l156.758,110.167c1.303,0.915,2.847,1.395,4.413,1.395C213.281,176.937,213.843,176.875,214.398,176.751z M420.634,349.893  l-90.467-91.238c2.695-2.77,5.18-5.733,7.441-8.875l142.452,100.113H420.634z M267.905,282.107c4.15,0.337,8.241,0.337,12.39,0  l9.57,67.786h-31.53L267.905,282.107z M68.143,349.893l142.452-100.113c2.261,3.141,4.745,6.105,7.441,8.875l-90.467,91.238H68.143z   M196.048,209.907L51.551,223.27v-38.373l144.498,13.364c-0.149,1.951-0.223,3.894-0.223,5.823  C195.825,206.012,195.899,207.956,196.048,209.907z"/>
<path style="fill:#FFE000;" d="M303.86,191.69c-5.026-12.05-16.708-19.838-29.759-19.838c-17.773,0-32.231,14.459-32.231,32.232  c0,17.772,14.459,32.231,32.231,32.231c13.052,0,24.734-7.787,29.759-19.838c1.535-3.682,5.604-5.534,9.34-4.378  c0.529-2.589,0.806-5.27,0.806-8.015s-0.278-5.426-0.806-8.016C309.467,197.221,305.396,195.371,303.86,191.69z"/>
<path d="M274.101,251.664c19.265,0,36.507-11.493,43.925-29.277c1.631-3.912-0.217-8.405-4.128-10.037  c-0.231-0.096-0.463-0.178-0.697-0.25c-3.735-1.154-7.804,0.697-9.34,4.378c-5.026,12.05-16.708,19.838-29.759,19.838  c-17.773,0-32.231-14.459-32.231-32.231c0-17.773,14.459-32.232,32.231-32.232c13.052,0,24.734,7.787,29.759,19.838  c1.535,3.681,5.606,5.532,9.34,4.378c0.234-0.072,0.466-0.154,0.697-0.25c3.911-1.631,5.759-6.125,4.128-10.037  c-7.418-17.785-24.66-29.277-43.925-29.277c-26.235,0-47.58,21.345-47.58,47.58S247.866,251.664,274.101,251.664z"/>
<path style="fill:#2E3033;" d="M20.97,482.005c-6.429,0-11.661-5.232-11.661-11.661V41.551c0-6.371,5.183-11.554,11.554-11.554  h1.524c6.431,0,11.661,5.232,11.661,11.661v428.685c0,6.431-5.232,11.661-11.661,11.661H20.97V482.005z"/>
<path d="M22.386,20.688h-1.524C9.359,20.688,0,30.047,0,41.551v428.793c0,11.563,9.407,20.97,20.97,20.97h1.415  c11.564,0,20.97-9.407,20.97-20.97V41.658C43.357,30.095,33.949,20.688,22.386,20.688z M27.841,470.344  c0,3.008-2.447,5.455-5.455,5.455h-1.415c-3.008,0-5.455-2.447-5.455-5.455V41.551c0-2.949,2.399-5.348,5.348-5.348h1.524  c3.008,0,5.455,2.447,5.455,5.455v428.686H27.841z"/>
<g>
</g>
<g>
</g>
<g>
</g>
<g>
</g>
<g>
</g>
<g>
</g>
<g>
</g>
<g>
</g>
<g>
</g>
<g>
</g>
<g>
</g>
<g>
</g>
<g>
</g>
<g>
</g>
<g>
</g>
</svg>
