<?xml version="1.0" encoding="iso-8859-1"?>
<!-- Generator: Adobe Illustrator 19.0.0, SVG Export Plug-In . SVG Version: 6.00 Build 0)  -->
<svg xmlns="http://www.w3.org/2000/svg" xmlns:xlink="http://www.w3.org/1999/xlink" version="1.1" id="Layer_1" x="0px" y="0px" viewBox="0 0 511.999 511.999" style="enable-background:new 0 0 511.999 511.999;" xml:space="preserve">
<path style="fill:#FFFFFF;" d="M39.132,352.422h457.106V52.94H39.132V352.422z M96.786,139.79h25.628c0.014,0,0.027,0,0.04,0h45.898  c0.003,0,0.005,0,0.008,0h12.909c4.353,0,7.881,3.528,7.881,7.882c0,3.281-2.007,6.091-4.859,7.278  c7.606,8.352,16.441,15.555,26.167,21.303c4.646-5.322,11.454-8.565,18.762-8.565c13.21,0,24.05,10.339,24.855,23.349  c9.018,1.086,18.193,1.086,27.211,0c0.805-13.01,11.646-23.349,24.855-23.349c7.308,0,14.116,3.243,18.762,8.565  c9.727-5.748,18.563-12.95,26.167-21.303c-2.852-1.187-4.859-3.997-4.859-7.278c0-4.354,3.529-7.882,7.881-7.882h58.795  c0.027,0,0.054,0,0.081,0h25.608c4.352,0,7.881,3.528,7.881,7.882c0,4.353-3.529,7.88-7.881,7.88h-18.697  c-4.829,32.235-19.97,62.434-43.103,85.685c-24.81,24.936-57.659,40.728-92.497,44.467c-0.286,0.03-0.569,0.047-0.851,0.047  c-3.976,0-7.392-3-7.827-7.042c-0.007-0.072-0.006-0.146-0.013-0.218c-2.621,0.139-5.258,0.218-7.915,0.218  s-5.293-0.079-7.915-0.218c-0.005,0.072-0.004,0.146-0.013,0.218c-0.433,4.042-3.851,7.042-7.827,7.042  c-0.281,0-0.565-0.017-0.851-0.047c-34.837-3.74-67.686-19.532-92.497-44.468c-23.131-23.25-38.273-53.45-43.103-85.685H96.786  c-4.353,0-7.881-3.527-7.881-7.88C88.905,143.318,92.434,139.79,96.786,139.79z"/>
<path d="M504.119,37.178H31.25c-4.352,0-7.881,3.528-7.881,7.882v315.244c0,4.353,3.529,7.882,7.881,7.882h472.868  c4.353,0,7.881-3.529,7.881-7.882V45.06C512,40.706,508.471,37.178,504.119,37.178z M496.237,352.422H39.132V52.94h457.106  L496.237,352.422L496.237,352.422z"/>
<path style="fill:#ED1F34;" d="M282.606,270.032c61.493-6.601,111.229-54.108,121.326-114.48h-32.969  c-11.893,16.043-27.47,29.215-45.278,38.243c-2.01,1.02-4.361,1.129-6.456,0.302c-2.097-0.826-3.739-2.512-4.511-4.629  c-1.313-3.598-4.758-6.014-8.572-6.014c-5.04,0-9.141,4.099-9.141,9.141c0,0.934,0.14,1.855,0.417,2.741  c0.673,2.15,0.394,4.487-0.768,6.417c-1.162,1.931-3.095,3.274-5.311,3.686c-7.768,1.447-15.729,2.181-23.659,2.181  c-7.931,0-15.891-0.733-23.659-2.181c-2.216-0.412-4.149-1.754-5.311-3.686c-1.161-1.93-1.441-4.267-0.768-6.417  c0.277-0.886,0.417-1.807,0.417-2.741c0-5.041-4.1-9.141-9.141-9.141c-3.814,0-7.259,2.417-8.572,6.014  c-0.773,2.117-2.414,3.803-4.511,4.629c-2.095,0.826-4.444,0.718-6.455-0.302c-17.808-9.028-33.385-22.2-45.278-38.243h-32.969  c10.096,60.372,59.833,107.88,121.326,114.48c4.254,0.458,7.345,4.219,7.008,8.46c2.622,0.139,5.258,0.218,7.915,0.218  s5.293-0.079,7.915-0.218C275.262,274.251,278.352,270.49,282.606,270.032z"/>
<path d="M96.786,155.552h18.696c4.829,32.235,19.97,62.434,43.103,85.685c24.81,24.936,57.66,40.728,92.497,44.467  c0.286,0.03,0.569,0.047,0.851,0.047c3.975,0,7.392-3,7.827-7.042c0.007-0.072,0.006-0.146,0.013-0.218  c0.338-4.24-2.752-8.002-7.008-8.46c-61.493-6.601-111.229-54.108-121.326-114.48h32.969c11.893,16.043,27.47,29.215,45.278,38.243  c2.011,1.02,4.36,1.129,6.455,0.302c2.097-0.826,3.739-2.512,4.511-4.629c1.313-3.598,4.758-6.014,8.572-6.014  c5.04,0,9.141,4.099,9.141,9.141c0,0.934-0.14,1.855-0.417,2.741c-0.673,2.15-0.394,4.487,0.768,6.417  c1.162,1.931,3.095,3.274,5.311,3.686c7.768,1.447,15.729,2.181,23.659,2.181c7.931,0,15.891-0.733,23.659-2.181  c2.216-0.412,4.149-1.754,5.311-3.686c1.162-1.93,1.441-4.267,0.768-6.417c-0.277-0.886-0.417-1.807-0.417-2.741  c0-5.041,4.1-9.141,9.141-9.141c3.815,0,7.259,2.417,8.572,6.014c0.773,2.117,2.414,3.803,4.511,4.629  c2.096,0.826,4.447,0.718,6.456-0.302c17.807-9.028,33.384-22.2,45.278-38.243h32.969c-10.096,60.372-59.833,107.88-121.326,114.48  c-4.254,0.458-7.345,4.219-7.008,8.46c0.005,0.072,0.004,0.146,0.013,0.218c0.433,4.042,3.851,7.042,7.827,7.042  c0.281,0,0.565-0.017,0.851-0.047c34.837-3.74,67.687-19.532,92.497-44.468c23.131-23.25,38.273-53.45,43.103-85.685h18.697  c4.352,0,7.881-3.527,7.881-7.88c0-4.354-3.529-7.882-7.881-7.882h-25.609c-0.027,0-0.054,0-0.081,0h-58.795  c-4.353,0-7.881,3.528-7.881,7.882c0,3.281,2.007,6.091,4.859,7.278c-7.606,8.352-16.441,15.555-26.167,21.303  c-4.646-5.322-11.454-8.565-18.762-8.565c-13.21,0-24.05,10.339-24.855,23.349c-9.018,1.086-18.193,1.086-27.211,0  c-0.805-13.01-11.646-23.349-24.855-23.349c-7.308,0-14.116,3.243-18.762,8.565c-9.727-5.748-18.562-12.95-26.167-21.303  c2.852-1.187,4.859-3.997,4.859-7.278c0-4.354-3.529-7.882-7.881-7.882h-12.909c-0.002,0-0.005,0-0.008,0H122.46  c-0.014,0-0.027,0-0.04,0H96.786c-4.353,0-7.881,3.528-7.881,7.882C88.905,152.024,92.434,155.552,96.786,155.552z"/>
<path style="fill:#2E3033;" d="M21.536,488.099c-6.603,0-11.976-5.373-11.976-11.976V35.765c0-6.542,5.323-11.865,11.865-11.865  h1.565c6.604,0,11.976,5.373,11.976,11.976v440.247c0,6.604-5.373,11.976-11.976,11.976h-1.454V488.099z"/>
<path d="M22.99,14.34h-1.565C9.611,14.34,0,23.951,0,35.765v440.358c0,11.876,9.661,21.536,21.536,21.536h1.453  c11.876,0,21.536-9.661,21.536-21.536V35.876C44.526,24.001,34.865,14.34,22.99,14.34z M28.592,476.123  c0,3.089-2.513,5.602-5.602,5.602h-1.453c-3.089,0-5.602-2.513-5.602-5.602V35.765c0-3.028,2.463-5.492,5.492-5.492h1.565  c3.089,0,5.602,2.513,5.602,5.602v440.248H28.592z"/>
<g>
</g>
<g>
</g>
<g>
</g>
<g>
</g>
<g>
</g>
<g>
</g>
<g>
</g>
<g>
</g>
<g>
</g>
<g>
</g>
<g>
</g>
<g>
</g>
<g>
</g>
<g>
</g>
<g>
</g>
</svg>
