<?xml version="1.0" encoding="iso-8859-1"?>
<!-- Generator: Adobe Illustrator 19.0.0, SVG Export Plug-In . SVG Version: 6.00 Build 0)  -->
<svg xmlns="http://www.w3.org/2000/svg" xmlns:xlink="http://www.w3.org/1999/xlink" version="1.1" id="Layer_1" x="0px" y="0px" viewBox="0 0 511.999 511.999" style="enable-background:new 0 0 511.999 511.999;" xml:space="preserve">
<path style="fill:#A10D50;" d="M496.651,111.992V58.273H206.012l30.701,10.663c3.088,1.072,5.156,3.981,5.156,7.249  s-2.069,6.177-5.156,7.25l-52.797,18.336l52.796,18.335c3.088,1.073,5.156,3.981,5.156,7.25c0,3.267-2.07,6.178-5.157,7.25  l-52.794,18.332l52.794,18.333c3.088,1.073,5.156,3.982,5.156,7.25c0,3.269-2.07,6.178-5.157,7.25L183.918,204.1l52.793,18.33  c3.088,1.072,5.157,3.981,5.157,7.25c0,3.267-2.07,6.178-5.157,7.25l-52.79,18.328l52.789,18.324  c3.088,1.073,5.157,3.982,5.157,7.251c0,3.267-2.069,6.178-5.157,7.25l-52.792,18.33l52.792,18.329  c3.088,1.072,5.157,3.982,5.157,7.25c0,3.269-2.07,6.178-5.157,7.25l-30.688,10.655h290.628V142.688  c0-4.238,3.436-7.674,7.674-7.674v-15.349C500.087,119.666,496.651,116.231,496.651,111.992z"/>
<path style="fill:#FFFFFF;" d="M210.798,331.987l-52.792-18.329c-3.086-1.072-5.157-3.981-5.157-7.25c0-3.269,2.07-6.178,5.157-7.25  l52.791-18.33l-52.79-18.324c-3.088-1.073-5.157-3.981-5.157-7.25c0-3.269,2.07-6.178,5.157-7.25l52.791-18.329l-52.791-18.329  c-3.086-1.072-5.157-3.981-5.157-7.25c0-3.269,2.07-6.177,5.157-7.249l52.794-18.333l-52.795-18.333  c-3.086-1.073-5.156-3.981-5.156-7.25c0-3.267,2.07-6.178,5.157-7.25l52.795-18.332l-52.795-18.333  c-3.086-1.073-5.156-3.982-5.156-7.25c0-3.269,2.07-6.178,5.156-7.25l52.798-18.337L159.23,58.272H51.551V349.89H159.23  L210.798,331.987z"/>
<path d="M496.651,142.688v207.203H206.025l30.688-10.655c3.088-1.072,5.157-3.981,5.157-7.25c0-3.267-2.07-6.178-5.157-7.25  l-52.792-18.329l52.792-18.33c3.088-1.072,5.157-3.982,5.157-7.25c0-3.269-2.07-6.178-5.157-7.251l-52.789-18.324l52.79-18.328  c3.088-1.072,5.157-3.982,5.157-7.25c0-3.269-2.07-6.178-5.157-7.25l-52.793-18.33l52.793-18.332  c3.088-1.072,5.157-3.981,5.157-7.25c0-3.267-2.069-6.177-5.156-7.25l-52.794-18.333l52.794-18.332  c3.088-1.072,5.157-3.982,5.157-7.25c0-3.269-2.069-6.177-5.156-7.25l-52.799-18.332l52.796-18.336  c3.088-1.073,5.156-3.981,5.156-7.25s-2.069-6.177-5.156-7.249l-30.701-10.663H496.65v53.72c0,4.238,3.436,7.674,7.674,7.674  c4.238,0,7.674-3.436,7.674-7.674V50.599c0-4.238-3.436-7.674-7.674-7.674H43.877c-4.239,0-7.675,3.436-7.675,7.674v306.966  c0,4.239,3.436,7.674,7.674,7.674h116.621c0.008,0,0.018,0.002,0.026,0.002s0.017-0.002,0.024-0.002h343.779  c4.239,0,7.674-3.435,7.674-7.674V142.688c0-4.238-3.436-7.674-7.674-7.674C500.087,135.014,496.651,138.451,496.651,142.688z   M51.551,58.273h107.678l51.575,17.912l-52.798,18.337c-3.086,1.072-5.156,3.981-5.156,7.25c0,3.267,2.07,6.177,5.156,7.25  l52.795,18.333l-52.795,18.332c-3.086,1.072-5.157,3.982-5.157,7.25c0,3.269,2.07,6.177,5.156,7.25l52.795,18.333l-52.794,18.333  c-3.088,1.072-5.157,3.981-5.157,7.249c0,3.267,2.07,6.178,5.157,7.25l52.791,18.329l-52.791,18.329  c-3.086,1.072-5.157,3.981-5.157,7.25c0,3.269,2.07,6.178,5.157,7.25l52.79,18.324l-52.791,18.33  c-3.086,1.072-5.157,3.981-5.157,7.25s2.07,6.178,5.157,7.25l52.792,18.329l-51.568,17.904H51.551V58.273z"/>
<path style="fill:#2E3033;" d="M20.97,482.004c-6.429,0-11.661-5.232-11.661-11.661V41.549c0-6.371,5.183-11.554,11.554-11.554  h1.524c6.431,0,11.661,5.232,11.661,11.661v428.685c0,6.431-5.232,11.661-11.661,11.661H20.97V482.004z"/>
<path d="M22.386,20.686h-1.524C9.359,20.686,0,30.045,0,41.549v428.793c0,11.563,9.407,20.97,20.97,20.97h1.415  c11.564,0,20.97-9.407,20.97-20.97V41.657C43.357,30.094,33.949,20.686,22.386,20.686z M27.841,470.342  c0,3.008-2.447,5.455-5.455,5.455h-1.415c-3.008,0-5.455-2.447-5.455-5.455V41.549c0-2.949,2.399-5.348,5.348-5.348h1.524  c3.008,0,5.455,2.447,5.455,5.455v428.686H27.841z"/>
<g>
</g>
<g>
</g>
<g>
</g>
<g>
</g>
<g>
</g>
<g>
</g>
<g>
</g>
<g>
</g>
<g>
</g>
<g>
</g>
<g>
</g>
<g>
</g>
<g>
</g>
<g>
</g>
<g>
</g>
</svg>
