<?xml version="1.0" encoding="iso-8859-1"?>
<!-- Generator: Adobe Illustrator 19.0.0, SVG Export Plug-In . SVG Version: 6.00 Build 0)  -->
<svg xmlns="http://www.w3.org/2000/svg" xmlns:xlink="http://www.w3.org/1999/xlink" version="1.1" id="Layer_1" x="0px" y="0px" viewBox="0 0 512 512" style="enable-background:new 0 0 512 512;" xml:space="preserve">
<g>
	<polygon style="fill:#FFFFFF;" points="496.651,242.453 230.379,242.453 161.312,288.498 496.651,288.498  "/>
	<path style="fill:#FFFFFF;" d="M412.236,119.666H161.312l69.067,46.046h266.272v-46.046h-53.72c-4.238,0-7.674-3.435-7.674-7.674   h-15.349C419.91,116.231,416.474,119.666,412.236,119.666z"/>
</g>
<g>
	<polygon style="fill:#ED1F34;" points="138.29,303.848 69.222,349.891 496.651,349.891 496.651,303.848  "/>
	<path style="fill:#ED1F34;" d="M253.402,181.061l24.956,16.636c2.135,1.424,3.417,3.819,3.417,6.386   c0,2.565-1.283,4.962-3.417,6.385l-24.956,16.637h243.25v-46.045L253.402,181.061L253.402,181.061z"/>
	<path style="fill:#ED1F34;" d="M138.29,104.318h273.947c4.239,0,7.674,3.435,7.674,7.675h15.349c0-4.24,3.436-7.675,7.674-7.675   h53.72V58.274H69.222L138.29,104.318z"/>
</g>
<path style="fill:#164FCE;" d="M131.664,289.818c0.009-0.007,0.02-0.013,0.029-0.021l92.063-61.375  c0.008-0.005,0.017-0.011,0.025-0.017l36.486-24.325l-36.486-24.323c-0.008-0.005-0.017-0.011-0.025-0.017l-92.063-61.376  c-0.009-0.007-0.02-0.013-0.029-0.021L51.551,64.938v278.288L131.664,289.818z M78.445,191.074  c-2.472-1.999-3.456-5.315-2.473-8.339c0.983-3.024,3.728-5.129,6.902-5.294l27.035-1.396l9.681-25.279  c1.138-2.969,3.987-4.929,7.167-4.929s6.03,1.96,7.167,4.929l9.682,25.279l27.035,1.396c3.174,0.164,5.92,2.269,6.902,5.294  c0.983,3.023-0.001,6.339-2.473,8.339l-21.051,17.02l7.025,26.142c0.824,3.071-0.329,6.331-2.9,8.2  c-1.342,0.975-2.925,1.467-4.511,1.467c-1.454,0-2.91-0.412-4.184-1.241l-22.692-14.761l-22.691,14.761  c-2.664,1.733-6.123,1.645-8.695-0.225c-2.572-1.869-3.726-5.129-2.901-8.2l7.025-26.142L78.445,191.074z"/>
<path style="fill:#FFFFFF;" d="M115.613,207.258l-3.122,11.614l10.081-6.558c1.272-0.826,2.729-1.24,4.184-1.24  c1.456,0,2.913,0.414,4.184,1.24l10.081,6.558l-3.122-11.614c-0.787-2.931,0.227-6.051,2.586-7.959l9.353-7.561l-12.011-0.622  c-3.031-0.156-5.685-2.085-6.77-4.919l-4.302-11.229l-4.301,11.229c-1.086,2.834-3.74,4.762-6.77,4.919l-12.011,0.622l9.353,7.561  C115.387,201.207,116.401,204.326,115.613,207.258z"/>
<path d="M95.371,242.438c2.571,1.87,6.03,1.958,8.695,0.225l22.691-14.761l22.692,14.761c1.274,0.83,2.73,1.241,4.184,1.241  c1.586,0,3.169-0.491,4.511-1.467c2.571-1.869,3.726-5.129,2.9-8.2l-7.025-26.142l21.051-17.02c2.472-1.999,3.456-5.315,2.473-8.339  c-0.983-3.024-3.728-5.129-6.902-5.294l-27.035-1.396l-9.682-25.279c-1.137-2.969-3.987-4.929-7.167-4.929  c-3.179,0-6.029,1.96-7.167,4.929l-9.681,25.279l-27.035,1.396c-3.175,0.164-5.921,2.269-6.902,5.294  c-0.983,3.023,0.001,6.339,2.473,8.339l21.05,17.02l-7.025,26.142C91.645,237.308,92.798,240.569,95.371,242.438z M115.686,191.117  c3.031-0.156,5.685-2.085,6.77-4.919l4.301-11.229l4.302,11.229c1.085,2.834,3.739,4.762,6.77,4.919l12.011,0.622l-9.353,7.561  c-2.36,1.909-3.374,5.028-2.586,7.959l3.122,11.614l-10.081-6.558c-1.271-0.826-2.728-1.24-4.184-1.24  c-1.456,0-2.912,0.414-4.184,1.24l-10.081,6.558l3.122-11.614c0.787-2.931-0.227-6.051-2.586-7.959l-9.353-7.561L115.686,191.117z"/>
<path d="M504.326,42.925H43.876c-0.003,0-0.006,0-0.009,0c-0.258,0.001-0.515,0.013-0.771,0.039  c-0.098,0.009-0.192,0.029-0.289,0.043c-0.149,0.022-0.299,0.038-0.446,0.067c-0.167,0.033-0.328,0.08-0.49,0.123  c-0.078,0.021-0.155,0.036-0.232,0.059c-0.152,0.048-0.299,0.103-0.447,0.159c-0.086,0.031-0.174,0.059-0.259,0.095  c-0.124,0.051-0.242,0.11-0.363,0.169c-0.107,0.051-0.215,0.098-0.32,0.153c-0.09,0.05-0.176,0.106-0.264,0.157  c-0.129,0.074-0.259,0.149-0.384,0.233c-0.061,0.04-0.118,0.087-0.177,0.129c-0.144,0.102-0.287,0.204-0.424,0.318  c-0.044,0.036-0.085,0.077-0.128,0.115c-0.144,0.124-0.287,0.247-0.422,0.384c-0.074,0.073-0.141,0.155-0.212,0.233  c-0.096,0.104-0.195,0.204-0.285,0.315c-0.163,0.198-0.317,0.405-0.459,0.62c-0.001,0.002-0.003,0.005-0.005,0.006  c-0.017,0.025-0.029,0.052-0.044,0.076c-0.122,0.188-0.237,0.376-0.342,0.575c-0.037,0.07-0.067,0.142-0.102,0.212  c-0.077,0.154-0.152,0.309-0.218,0.468c-0.042,0.102-0.076,0.206-0.113,0.309c-0.048,0.13-0.097,0.261-0.138,0.394  c-0.039,0.131-0.069,0.264-0.101,0.396c-0.027,0.11-0.058,0.218-0.08,0.329c-0.032,0.163-0.054,0.328-0.076,0.492  c-0.011,0.085-0.027,0.168-0.035,0.252c-0.021,0.211-0.029,0.422-0.032,0.634c0,0.039-0.006,0.079-0.006,0.119v0.024  c0,0.01,0,0.02,0,0.029v306.861c0,0.01,0,0.02,0,0.028v0.024c0,0.041,0.005,0.08,0.006,0.12c0.003,0.212,0.011,0.422,0.032,0.633  c0.008,0.086,0.024,0.168,0.035,0.252c0.022,0.164,0.043,0.329,0.076,0.492c0.022,0.112,0.053,0.22,0.08,0.329  c0.032,0.133,0.062,0.266,0.101,0.397c0.04,0.133,0.09,0.262,0.138,0.393c0.037,0.103,0.071,0.208,0.113,0.31  c0.066,0.158,0.142,0.312,0.217,0.466c0.035,0.07,0.065,0.143,0.103,0.212c0.106,0.198,0.22,0.388,0.342,0.575  c0.017,0.025,0.029,0.052,0.044,0.076c0.001,0.002,0.003,0.004,0.004,0.006c0.165,0.247,0.348,0.482,0.54,0.709  c0.06,0.07,0.123,0.135,0.185,0.203c0.133,0.147,0.272,0.288,0.416,0.422c0.08,0.074,0.158,0.149,0.241,0.22  c0.152,0.13,0.311,0.253,0.474,0.372c0.068,0.05,0.133,0.103,0.204,0.151c0.231,0.157,0.471,0.302,0.719,0.433  c0.06,0.032,0.122,0.059,0.183,0.089c0.199,0.099,0.401,0.191,0.608,0.273c0.08,0.031,0.158,0.06,0.239,0.087  c0.197,0.07,0.396,0.132,0.6,0.186c0.082,0.022,0.163,0.044,0.245,0.064c0.209,0.048,0.421,0.086,0.635,0.115  c0.078,0.011,0.153,0.027,0.231,0.035c0.265,0.03,0.533,0.048,0.805,0.049c0.022,0,0.043,0.005,0.065,0.005  c0.004,0,0.009-0.001,0.013-0.001h460.429c4.239,0,7.674-3.436,7.674-7.675V50.599C512,46.36,508.564,42.925,504.326,42.925z   M496.651,104.318h-53.72c-4.238,0-7.674,3.435-7.674,7.675c0,4.239,3.436,7.674,7.674,7.674h53.72v46.046H230.379l-69.067-46.046  h250.923c4.239,0,7.674-3.435,7.674-7.674c0-4.24-3.436-7.675-7.674-7.675H138.29L69.222,58.274h427.429V104.318z M51.551,64.938  l80.113,53.408c0.009,0.007,0.02,0.013,0.029,0.021l92.063,61.376c0.008,0.005,0.017,0.011,0.025,0.017l36.486,24.325  l-36.486,24.325c-0.008,0.005-0.017,0.011-0.025,0.017L131.693,289.8c-0.009,0.007-0.02,0.013-0.029,0.021l-80.113,53.405V64.938z   M230.379,242.453h266.272v46.045H161.312L230.379,242.453z M253.402,227.105l24.956-16.637c2.135-1.423,3.417-3.819,3.417-6.385  s-1.283-4.962-3.417-6.386l-24.956-16.636h243.25v46.045H253.402z M69.222,349.891l69.067-46.045h358.362v46.045H69.222z"/>
<path style="fill:#2E3033;" d="M20.97,482.004c-6.429,0-11.661-5.232-11.661-11.661V41.55c0-6.371,5.183-11.554,11.554-11.554h1.524  c6.431,0,11.661,5.232,11.661,11.661v428.685c0,6.431-5.232,11.661-11.661,11.661H20.97V482.004z"/>
<path d="M22.386,20.687h-1.524C9.359,20.687,0,30.046,0,41.55v428.793c0,11.563,9.407,20.97,20.97,20.97h1.415  c11.564,0,20.97-9.407,20.97-20.97V41.657C43.357,30.094,33.949,20.687,22.386,20.687z M27.841,470.343  c0,3.008-2.447,5.455-5.455,5.455h-1.415c-3.008,0-5.455-2.447-5.455-5.455V41.55c0-2.949,2.399-5.348,5.348-5.348h1.524  c3.008,0,5.455,2.447,5.455,5.455v428.686H27.841z"/>
<g>
</g>
<g>
</g>
<g>
</g>
<g>
</g>
<g>
</g>
<g>
</g>
<g>
</g>
<g>
</g>
<g>
</g>
<g>
</g>
<g>
</g>
<g>
</g>
<g>
</g>
<g>
</g>
<g>
</g>
</svg>
