<?xml version="1.0" encoding="iso-8859-1"?>
<!-- Generator: Adobe Illustrator 19.0.0, SVG Export Plug-In . SVG Version: 6.00 Build 0)  -->
<svg xmlns="http://www.w3.org/2000/svg" xmlns:xlink="http://www.w3.org/1999/xlink" version="1.1" id="Layer_1" x="0px" y="0px" viewBox="0 0 511.999 511.999" style="enable-background:new 0 0 511.999 511.999;" xml:space="preserve">
<path style="fill:#259245;" d="M218.763,303.846c-4.239,0-7.674-3.435-7.674-7.674v-23.459  c-34.484-3.831-61.392-33.142-61.392-68.631c0-35.489,26.909-64.8,61.392-68.632V58.273H51.551v291.619h159.537V326.87  c0-4.239,3.436-7.674,7.674-7.674l0,0v-15.35H218.763z"/>
<path style="fill:#ED1F34;" d="M226.436,135.451c34.484,3.831,61.393,33.142,61.393,68.632s-26.909,64.8-61.393,68.631v23.459  c0,4.239-3.436,7.674-7.674,7.674v15.349c4.239,0,7.674,3.436,7.674,7.674v23.022h270.215V58.273H226.436V135.451z"/>
<path d="M504.326,42.925H43.876c-4.238,0-7.674,3.436-7.674,7.674v306.966c0,4.239,3.436,7.674,7.674,7.674h460.449  c4.239,0,7.674-3.436,7.674-7.674V50.599C512,46.361,508.564,42.925,504.326,42.925z M496.651,349.891H226.436v-23.022  c0-4.238-3.436-7.674-7.674-7.674l0,0c-4.239,0-7.674,3.436-7.674,7.674v23.022H51.551V58.273h159.537v77.178  c-34.484,3.831-61.392,33.142-61.392,68.632s26.909,64.8,61.392,68.631v23.459c0,4.239,3.436,7.674,7.674,7.674l0,0  c4.239,0,7.674-3.435,7.674-7.674v-23.459c34.484-3.831,61.393-33.142,61.393-68.631c0-35.489-26.909-64.8-61.393-68.632V58.273  H496.65v291.618H496.651z M218.763,150.363c29.622,0,53.72,24.098,53.72,53.72c0,29.62-24.098,53.72-53.72,53.72  c-29.62,0-53.72-24.099-53.72-53.72C165.043,174.461,189.141,150.363,218.763,150.363z"/>
<path style="fill:#FFE000;" d="M165.043,204.083c0,29.62,24.098,53.72,53.72,53.72s53.72-24.099,53.72-53.72  c0-29.622-24.098-53.72-53.72-53.72S165.043,174.461,165.043,204.083z"/>
<path style="fill:#2E3033;" d="M20.97,482.004c-6.429,0-11.661-5.232-11.661-11.661V41.549c0-6.371,5.183-11.554,11.554-11.554  h1.524c6.431,0,11.661,5.232,11.661,11.661v428.685c0,6.431-5.232,11.661-11.661,11.661H20.97V482.004z"/>
<path d="M22.386,20.686h-1.524C9.359,20.686,0,30.045,0,41.549v428.793c0,11.563,9.407,20.97,20.97,20.97h1.415  c11.564,0,20.97-9.407,20.97-20.97V41.657C43.357,30.094,33.949,20.686,22.386,20.686z M27.841,470.342  c0,3.008-2.447,5.455-5.455,5.455h-1.415c-3.008,0-5.455-2.447-5.455-5.455V41.549c0-2.949,2.399-5.348,5.348-5.348h1.524  c3.008,0,5.455,2.447,5.455,5.455v428.686H27.841z"/>
<g>
</g>
<g>
</g>
<g>
</g>
<g>
</g>
<g>
</g>
<g>
</g>
<g>
</g>
<g>
</g>
<g>
</g>
<g>
</g>
<g>
</g>
<g>
</g>
<g>
</g>
<g>
</g>
<g>
</g>
</svg>
