<?xml version="1.0" encoding="iso-8859-1"?>
<!-- Generator: Adobe Illustrator 19.0.0, SVG Export Plug-In . SVG Version: 6.00 Build 0)  -->
<svg xmlns="http://www.w3.org/2000/svg" xmlns:xlink="http://www.w3.org/1999/xlink" version="1.1" id="Layer_1" x="0px" y="0px" viewBox="0 0 511.999 511.999" style="enable-background:new 0 0 511.999 511.999;" xml:space="preserve">
<g>
	<polygon style="fill:#103B9B;" points="128.189,52.94 81.434,52.94 128.189,84.11  "/>
	<polygon style="fill:#103B9B;" points="39.132,75.887 39.132,102.591 79.188,102.591  "/>
	<polygon style="fill:#103B9B;" points="39.132,145.149 39.132,171.854 79.188,145.149  "/>
	<polygon style="fill:#103B9B;" points="217.501,52.94 170.747,52.94 170.747,84.11  "/>
	<path style="fill:#103B9B;" d="M39.132,328.78v23.643h457.106V52.94H267.685v17.693l-47.937,31.958h47.937v9.852v22.855v9.85   h-47.937l47.937,31.959v8.888v16.687h-38.361l-58.577-39.052v39.052h-9.851H138.04h-9.851v-39.052l-58.577,39.052H56.825H39.132   v94.573c0,4.353-3.529,7.881-7.881,7.881v15.763C35.603,320.899,39.132,324.427,39.132,328.78z M305.25,233.368   c0-13.068,3.143-25.407,8.682-36.334c-5.539-10.927-8.682-23.266-8.682-36.334v-42.137c0-4.353,3.529-7.881,7.881-7.881   c4.352,0,7.881,3.528,7.881,7.881v42.137c0,7.199,1.196,14.12,3.371,20.596c0.361-0.425,0.728-0.849,1.098-1.267v-14.175   c0-4.353,3.529-7.88,7.881-7.88h23.363v-17.173h-0.421c-4.353,0-7.881-3.528-7.881-7.881s3.529-7.882,7.881-7.882h0.421v-1.996   c0-16.089,13.089-29.179,29.178-29.179c16.089,0,29.178,13.089,29.178,29.179v1.996h0.421c4.352,0,7.881,3.529,7.881,7.882   s-3.529,7.881-7.881,7.881h-0.421v17.173h23.364c4.352,0,7.881,3.527,7.881,7.88v14.175c0.371,0.42,0.736,0.842,1.098,1.267   c2.173-6.475,3.369-13.396,3.369-20.596v-42.137c0-4.353,3.529-7.881,7.881-7.881c4.352,0,7.881,3.528,7.881,7.881v42.137   c0,13.068-3.143,25.407-8.682,36.334c5.539,10.927,8.682,23.266,8.682,36.334v42.137c0,4.353-3.529,7.881-7.881,7.881   c-4.353,0-7.881-3.528-7.881-7.881v-42.137c0-7.199-1.196-14.12-3.369-20.596c-0.362,0.425-0.729,0.849-1.098,1.267v7.707   c0,16.423-3.042,29.935-7.568,40.956c-0.151,0.479-0.347,0.942-0.586,1.386c-5.705,13.263-13.544,22.805-20.648,29.371   c-14.337,13.248-28.814,17.549-29.424,17.727c-0.717,0.207-1.456,0.311-2.195,0.311c-0.738,0-1.478-0.104-2.194-0.311   c-0.61-0.176-15.088-4.478-29.425-17.727c-7.102-6.565-14.938-16.101-20.643-29.361c-0.241-0.445-0.438-0.91-0.59-1.392   c-4.527-11.022-7.571-24.536-7.571-40.961v-7.704c-0.371-0.42-0.736-0.842-1.098-1.267c-2.174,6.475-3.37,13.396-3.37,20.596   v42.137c0,4.353-3.529,7.881-7.881,7.881c-4.353,0-7.881-3.528-7.881-7.881v-42.138H305.25z"/>
</g>
<g>
	<polygon style="fill:#ED1F34;" points="170.747,102.591 181.386,102.591 255.863,52.94 230.29,52.94 170.747,92.641  "/>
	<polygon style="fill:#ED1F34;" points="181.386,145.149 267.685,202.682 267.685,185.996 206.56,145.149  "/>
	<polygon style="fill:#ED1F34;" points="117.549,102.591 43.072,52.94 39.132,52.94 39.132,67.387 91.811,102.591  "/>
	<polygon style="fill:#ED1F34;" points="128.189,155.107 128.189,145.149 117.549,145.149 39.132,197.428 39.132,202.682    56.825,202.682  "/>
</g>
<g>
	<polygon style="fill:#FFFFFF;" points="138.04,112.443 138.04,52.94 128.189,52.94 128.189,84.11 81.434,52.94 43.072,52.94    117.549,102.591 91.811,102.591 39.132,67.387 39.132,75.887 79.188,102.591 39.132,102.591 39.132,112.443  "/>
	<polygon style="fill:#FFFFFF;" points="160.895,112.443 267.685,112.443 267.685,102.591 219.748,102.591 267.685,70.633    267.685,52.94 255.863,52.94 181.386,102.591 170.747,102.591 170.747,92.641 230.29,52.94 217.501,52.94 170.747,84.11    170.747,52.94 160.895,52.94  "/>
	<polygon style="fill:#FFFFFF;" points="160.895,135.298 160.895,202.682 170.747,202.682 170.747,163.63 229.324,202.682    267.685,202.682 181.386,145.149 206.56,145.149 267.685,185.996 267.685,177.107 219.748,145.149 267.685,145.149    267.685,135.298  "/>
	<polygon style="fill:#FFFFFF;" points="128.189,145.149 128.189,155.107 56.825,202.682 69.612,202.682 128.189,163.63    128.189,202.682 138.04,202.682 138.04,135.298 39.132,135.298 39.132,145.149 79.188,145.149 39.132,171.854 39.132,197.428    117.549,145.149  "/>
</g>
<polygon style="fill:#ED1F34;" points="138.04,135.298 138.04,202.682 160.895,202.682 160.895,135.298 267.685,135.298   267.685,112.443 160.895,112.443 160.895,52.94 138.04,52.94 138.04,112.443 39.132,112.443 39.132,135.298 "/>
<g>
	<path style="fill:#259245;" d="M325.48,180.028c-0.371,0.42-0.736,0.842-1.098,1.267c0.342,1.019,0.707,2.025,1.098,3.021V180.028z   "/>
	<path style="fill:#259245;" d="M447.422,181.296c-0.362-0.425-0.729-0.849-1.098-1.267v4.288   C446.715,183.321,447.08,182.315,447.422,181.296z"/>
	<path style="fill:#259245;" d="M450.792,233.368v42.137c0,4.353,3.529,7.881,7.881,7.881c4.352,0,7.881-3.528,7.881-7.881v-42.137   c0-13.068-3.143-25.407-8.682-36.334c-2.87,5.661-6.382,10.94-10.449,15.738C449.596,219.248,450.792,226.17,450.792,233.368z"/>
	<path style="fill:#259245;" d="M313.13,283.386c4.352,0,7.881-3.528,7.881-7.881v-42.137c0-7.199,1.196-14.12,3.371-20.596   c-4.068-4.799-7.58-10.077-10.45-15.738c-5.539,10.927-8.682,23.266-8.682,36.334v42.137   C305.25,279.858,308.779,283.386,313.13,283.386z"/>
</g>
<g>
	<path style="fill:#FFE000;" d="M325.48,214.041v-29.724c-0.391-0.996-0.756-2.002-1.098-3.021   c-2.174-6.475-3.371-13.396-3.371-20.596v-42.137c0-4.353-3.529-7.881-7.881-7.881c-4.353,0-7.881,3.528-7.881,7.881v42.137   c0,13.068,3.143,25.407,8.682,36.334c2.87,5.661,6.382,10.94,10.45,15.738C324.743,213.199,325.109,213.621,325.48,214.041z"/>
	<path style="fill:#FFE000;" d="M446.324,214.041c0.371-0.42,0.736-0.842,1.098-1.267c4.068-4.799,7.58-10.077,10.449-15.738   c5.539-10.927,8.682-23.266,8.682-36.334v-42.137c0-4.353-3.529-7.881-7.881-7.881c-4.353,0-7.881,3.528-7.881,7.881v42.137   c0,7.199-1.196,14.12-3.369,20.596c-0.342,1.019-0.708,2.025-1.098,3.021V214.041z"/>
</g>
<g>
	<path style="fill:#3DB4EA;" d="M392.736,177.274l36.187,63.153c1.042-5.669,1.638-11.873,1.638-18.68v-48.011h-23.363h-18.796   C390.203,174.342,391.763,175.574,392.736,177.274z"/>
	<path style="fill:#3DB4EA;" d="M341.242,221.748c0,6.794,0.604,12.989,1.659,18.653l36.159-63.126   c0.973-1.7,2.532-2.933,4.334-3.538h-18.788h-23.364V221.748z"/>
</g>
<path style="fill:#259245;" d="M385.898,197.045l-36.449,63.634c11.048,22.893,30.066,32.062,36.473,34.589  c6.557-2.536,25.503-11.586,36.491-34.498L385.898,197.045z"/>
<g>
	<path style="fill:#FFE000;" d="M438.754,262.703c-0.192,0.468-0.39,0.927-0.586,1.386   C438.408,263.644,438.603,263.182,438.754,262.703z"/>
	<path style="fill:#FFE000;" d="M333.64,264.099c-0.199-0.461-0.396-0.921-0.59-1.392   C333.203,263.189,333.399,263.654,333.64,264.099z"/>
	<path style="fill:#FFE000;" d="M379.06,177.275L342.901,240.4c1.439,7.73,3.735,14.449,6.549,20.279l36.449-63.634l36.515,63.724   c2.8-5.84,5.083-12.578,6.51-20.342l-36.187-63.153c-0.973-1.7-2.531-2.932-4.334-3.537h-5.008   C381.591,174.342,380.033,175.575,379.06,177.275z"/>
</g>
<path d="M325.48,214.041v7.707c0,16.425,3.043,29.939,7.571,40.961c0.193,0.47,0.391,0.931,0.59,1.392  c5.705,13.259,13.54,22.797,20.643,29.361c14.337,13.248,28.814,17.549,29.425,17.727c0.717,0.207,1.455,0.311,2.194,0.311  c0.739,0,1.479-0.104,2.195-0.311c0.61-0.176,15.087-4.478,29.424-17.727c7.104-6.567,14.941-16.108,20.648-29.371  c0.198-0.459,0.394-0.917,0.586-1.386c4.526-11.021,7.568-24.532,7.568-40.956v-7.708v-29.724v-4.288v-14.175  c0-4.353-3.529-7.88-7.881-7.88h-23.364v-17.173h-15.76v17.173h-26.831v-17.173h-15.763v17.173h-23.363  c-4.353,0-7.881,3.527-7.881,7.88v14.175v4.288L325.48,214.041L325.48,214.041z M364.606,173.736h18.788h5.008h18.796h23.363v48.011  c0,6.807-0.596,13.01-1.638,18.68c-1.428,7.765-3.71,14.502-6.51,20.342c-10.987,22.911-29.934,31.963-36.491,34.498  c-6.407-2.527-25.425-11.695-36.473-34.589c-2.814-5.831-5.109-12.548-6.549-20.279c-1.055-5.664-1.659-11.859-1.659-18.653v-48.011  h23.365V173.736z"/>
<g>
	<rect x="372.485" y="140.799" style="fill:#B3B3B3;" width="26.832" height="17.176"/>
	<path style="fill:#B3B3B3;" d="M385.901,109.627c-7.396,0-13.415,6.019-13.415,13.416v1.996h26.831v-1.996   C399.318,115.646,393.299,109.627,385.901,109.627z"/>
</g>
<path d="M372.486,125.039v-1.996c0-7.397,6.019-13.416,13.415-13.416c7.397,0,13.416,6.019,13.416,13.416v1.996h15.762v-1.996  c0-16.089-13.089-29.179-29.178-29.179c-16.089,0-29.178,13.089-29.178,29.179v1.996H372.486z"/>
<path style="fill:#259245;" d="M372.486,140.802h26.831h15.762h0.421c4.352,0,7.881-3.528,7.881-7.881s-3.529-7.882-7.881-7.882  h-0.421h-15.762h-26.831h-15.763h-0.421c-4.353,0-7.881,3.529-7.881,7.882s3.529,7.881,7.881,7.881h0.421H372.486z"/>
<path d="M504.119,37.178H31.25c-4.352,0-7.881,3.528-7.881,7.882v252.196c0,4.353,3.529,7.881,7.881,7.881s7.881-3.528,7.881-7.881  v-94.573v-5.254v-25.573v-26.706v-9.85v-22.855v-9.853V75.887v-8.5V52.94h3.94h38.362h46.756h9.851h22.855h9.851H217.5h12.788  h25.573h11.823h228.553v299.483H39.132V328.78c0-4.353-3.529-7.881-7.881-7.881s-7.882,3.528-7.882,7.881v31.525  c0,4.353,3.529,7.882,7.881,7.882h472.868c4.353,0,7.881-3.529,7.881-7.882V45.06C512,40.706,508.471,37.178,504.119,37.178z"/>
<path style="fill:#2E3033;" d="M21.536,488.099c-6.603,0-11.976-5.373-11.976-11.976V35.765c0-6.542,5.323-11.865,11.865-11.865  h1.565c6.604,0,11.976,5.373,11.976,11.976v440.247c0,6.604-5.373,11.976-11.976,11.976h-1.454V488.099z"/>
<path d="M22.99,14.34h-1.565C9.611,14.34,0,23.951,0,35.765v440.358c0,11.876,9.661,21.536,21.536,21.536h1.453  c11.876,0,21.536-9.661,21.536-21.536V35.876C44.526,24.001,34.865,14.34,22.99,14.34z M28.592,476.123  c0,3.089-2.513,5.602-5.602,5.602h-1.453c-3.089,0-5.602-2.513-5.602-5.602V35.765c0-3.028,2.463-5.492,5.492-5.492h1.565  c3.089,0,5.602,2.513,5.602,5.602v440.248H28.592z"/>
<g>
</g>
<g>
</g>
<g>
</g>
<g>
</g>
<g>
</g>
<g>
</g>
<g>
</g>
<g>
</g>
<g>
</g>
<g>
</g>
<g>
</g>
<g>
</g>
<g>
</g>
<g>
</g>
<g>
</g>
</svg>
