<?xml version="1.0" encoding="iso-8859-1"?>
<!-- Generator: Adobe Illustrator 19.0.0, SVG Export Plug-In . SVG Version: 6.00 Build 0)  -->
<svg xmlns="http://www.w3.org/2000/svg" xmlns:xlink="http://www.w3.org/1999/xlink" version="1.1" id="Layer_1" x="0px" y="0px" viewBox="0 0 512 512" style="enable-background:new 0 0 512 512;" xml:space="preserve">
<path style="fill:#ED1F34;" d="M473.629,211.757c-4.24,0-7.674-3.435-7.674-7.674h-15.349c0,4.239-3.435,7.674-7.675,7.674H276.424  L69.222,349.891h427.429V211.757H473.629z"/>
<path style="fill:#103B9B;" d="M473.629,196.408h23.022V58.274H69.222l207.202,138.135h166.508c4.24,0,7.675,3.435,7.675,7.675  h15.349C465.955,199.843,469.39,196.408,473.629,196.408z"/>
<g>
	<path style="fill:#FFFFFF;" d="M125.518,239.895c19.747,0,35.813-16.065,35.813-35.812c0-19.748-16.065-35.813-35.813-35.813   s-35.813,16.065-35.813,35.813C89.704,223.829,105.77,239.895,125.518,239.895z M125.518,180.038   c13.28,0,24.046,10.765,24.046,24.045c0,13.28-10.766,24.045-24.046,24.045s-24.045-10.765-24.045-24.045   C101.472,190.803,112.238,180.038,125.518,180.038z"/>
	<path style="fill:#FFFFFF;" d="M260.266,204.083L51.551,64.938v278.288L260.266,204.083z M125.518,152.921   c28.211,0,51.161,22.95,51.161,51.162c0,28.21-22.95,51.161-51.161,51.161s-51.161-22.95-51.161-51.161   C74.356,175.871,97.307,152.921,125.518,152.921z"/>
</g>
<g>
	<path style="fill:#FFE000;" d="M125.518,255.244c28.211,0,51.161-22.95,51.161-51.161s-22.95-51.162-51.161-51.162   s-51.161,22.95-51.161,51.162C74.356,232.293,97.307,255.244,125.518,255.244z M125.518,168.27   c19.747,0,35.813,16.065,35.813,35.813c0,19.747-16.065,35.812-35.813,35.812s-35.813-16.065-35.813-35.812   C89.704,184.336,105.77,168.27,125.518,168.27z"/>
	<circle style="fill:#FFE000;" cx="125.518" cy="204.086" r="24.048"/>
</g>
<path d="M504.325,42.925H43.876c-0.004,0-0.009,0.001-0.013,0.001c-0.237,0-0.474,0.013-0.71,0.035  c-0.189,0.018-0.373,0.048-0.559,0.079c-0.077,0.013-0.153,0.021-0.229,0.034c-0.184,0.037-0.362,0.086-0.54,0.137  c-0.061,0.017-0.122,0.028-0.182,0.046c-0.161,0.05-0.318,0.109-0.474,0.169c-0.078,0.029-0.156,0.054-0.234,0.086  c-0.129,0.054-0.253,0.116-0.38,0.177c-0.101,0.049-0.204,0.093-0.303,0.146c-0.094,0.052-0.184,0.109-0.276,0.162  c-0.125,0.074-0.251,0.147-0.372,0.228c-0.064,0.043-0.122,0.091-0.185,0.135c-0.141,0.1-0.281,0.2-0.417,0.311  c-0.046,0.038-0.087,0.08-0.132,0.119c-0.143,0.123-0.284,0.245-0.419,0.381c-0.074,0.073-0.141,0.155-0.212,0.233  c-0.096,0.104-0.195,0.204-0.285,0.315c-0.163,0.198-0.317,0.405-0.459,0.62c-0.001,0.002-0.003,0.004-0.005,0.006  c-0.017,0.025-0.029,0.052-0.044,0.076c-0.122,0.187-0.237,0.376-0.342,0.575c-0.037,0.07-0.067,0.142-0.102,0.212  c-0.077,0.154-0.152,0.309-0.218,0.468c-0.042,0.102-0.076,0.206-0.113,0.309c-0.048,0.13-0.097,0.261-0.138,0.394  c-0.04,0.131-0.069,0.264-0.102,0.396c-0.027,0.11-0.058,0.218-0.08,0.329c-0.032,0.163-0.054,0.328-0.074,0.492  c-0.011,0.085-0.027,0.168-0.036,0.252c-0.021,0.211-0.029,0.422-0.032,0.634c0,0.039-0.006,0.079-0.006,0.119v0.024  c0,0.01,0,0.02,0,0.029v306.861c0,0.01,0,0.02,0,0.028v0.024c0,0.041,0.005,0.08,0.006,0.12c0.003,0.212,0.011,0.422,0.032,0.633  c0.008,0.085,0.024,0.168,0.036,0.252c0.022,0.164,0.042,0.329,0.074,0.492c0.022,0.112,0.053,0.22,0.08,0.329  c0.032,0.132,0.062,0.266,0.102,0.396c0.04,0.134,0.09,0.263,0.138,0.394c0.037,0.103,0.07,0.208,0.113,0.31  c0.065,0.158,0.142,0.312,0.218,0.466c0.035,0.07,0.065,0.143,0.102,0.212c0.106,0.198,0.22,0.388,0.342,0.575  c0.017,0.025,0.029,0.052,0.044,0.076c0.001,0.002,0.003,0.004,0.004,0.006c0.165,0.247,0.348,0.482,0.54,0.709  c0.06,0.07,0.123,0.136,0.185,0.203c0.133,0.147,0.272,0.286,0.416,0.422c0.08,0.074,0.158,0.149,0.241,0.22  c0.152,0.13,0.311,0.253,0.474,0.372c0.068,0.05,0.133,0.103,0.204,0.151c0.231,0.157,0.471,0.302,0.719,0.433  c0.06,0.032,0.122,0.059,0.183,0.089c0.199,0.099,0.401,0.191,0.608,0.273c0.08,0.031,0.158,0.06,0.238,0.087  c0.197,0.07,0.396,0.132,0.6,0.186c0.082,0.022,0.163,0.044,0.245,0.064c0.208,0.048,0.421,0.086,0.635,0.115  c0.078,0.011,0.153,0.027,0.231,0.035c0.264,0.03,0.533,0.048,0.805,0.049c0.022,0,0.043,0.005,0.065,0.005  c0.004,0,0.009-0.001,0.013-0.001h460.43c4.24,0,7.675-3.436,7.675-7.675V50.599C512,46.36,508.565,42.925,504.325,42.925z   M260.266,204.083L51.551,343.226V64.938L260.266,204.083z M69.222,349.891l207.202-138.136h166.508c4.24,0,7.675-3.435,7.675-7.674  c0-4.24-3.435-7.675-7.675-7.675H276.424L69.222,58.274h427.429v138.135h-23.022c-4.24,0-7.674,3.435-7.674,7.675  c0,4.239,3.434,7.674,7.674,7.674h23.022v138.136H69.222V349.891z"/>
<path style="fill:#2E3033;" d="M20.97,482.004c-6.429,0-11.661-5.232-11.661-11.661V41.55c0-6.371,5.183-11.554,11.554-11.554h1.524  c6.431,0,11.661,5.232,11.661,11.661v428.685c0,6.431-5.232,11.661-11.661,11.661H20.97V482.004z"/>
<path d="M22.386,20.687h-1.524C9.359,20.687,0,30.046,0,41.55v428.793c0,11.563,9.407,20.97,20.97,20.97h1.415  c11.564,0,20.97-9.407,20.97-20.97V41.657C43.357,30.094,33.949,20.687,22.386,20.687z M27.841,470.343  c0,3.008-2.447,5.455-5.455,5.455h-1.415c-3.008,0-5.455-2.447-5.455-5.455V41.55c0-2.949,2.399-5.348,5.348-5.348h1.524  c3.008,0,5.455,2.447,5.455,5.455v428.686H27.841z"/>
<g>
</g>
<g>
</g>
<g>
</g>
<g>
</g>
<g>
</g>
<g>
</g>
<g>
</g>
<g>
</g>
<g>
</g>
<g>
</g>
<g>
</g>
<g>
</g>
<g>
</g>
<g>
</g>
<g>
</g>
</svg>
