<?xml version="1.0" encoding="iso-8859-1"?>
<!-- Generator: Adobe Illustrator 19.0.0, SVG Export Plug-In . SVG Version: 6.00 Build 0)  -->
<svg xmlns="http://www.w3.org/2000/svg" xmlns:xlink="http://www.w3.org/1999/xlink" version="1.1" id="Layer_1" x="0px" y="0px" viewBox="0 0 512.001 512.001" style="enable-background:new 0 0 512.001 512.001;" xml:space="preserve">
<path style="fill:#333333;" d="M51.853,274.51v61.384h427.149L51.853,62.381v182.666c0,4.068-3.434,7.366-7.669,7.366v14.732  C48.419,267.144,51.853,270.442,51.853,274.51z M178.576,176.401c6.857,0,12.417,5.34,12.417,11.925  c0,6.586-5.56,11.926-12.417,11.926s-12.417-5.34-12.417-11.926C166.159,181.74,171.719,176.401,178.576,176.401z M159.951,237.024  c4.571,0,8.277,3.56,8.277,7.951c0,4.391-3.706,7.951-8.277,7.951c-4.572,0-8.277-3.56-8.277-7.951  C151.674,240.584,155.379,237.024,159.951,237.024z M141.326,146.586c6.857,0,12.417,5.34,12.417,11.926  c0,6.586-5.56,11.925-12.417,11.925c-6.857,0-12.417-5.34-12.417-11.925C128.909,151.925,134.469,146.586,141.326,146.586z   M141.326,289.699c6.857,0,12.417,5.34,12.417,11.926c0,6.586-5.56,11.925-12.417,11.925c-6.857,0-12.417-5.34-12.417-11.925  C128.909,295.038,134.469,289.699,141.326,289.699z M104.075,206.216c6.857,0,12.417,5.34,12.417,11.926s-5.56,11.926-12.417,11.926  c-6.857,0-12.417-5.34-12.417-11.926S97.218,206.216,104.075,206.216z"/>
<g>
	<ellipse style="fill:#FFFFFF;" cx="141.328" cy="158.509" rx="12.417" ry="11.926"/>
	<ellipse style="fill:#FFFFFF;" cx="141.328" cy="301.62" rx="12.417" ry="11.926"/>
	<ellipse style="fill:#FFFFFF;" cx="178.576" cy="188.324" rx="12.417" ry="11.926"/>
	<ellipse style="fill:#FFFFFF;" cx="104.07" cy="218.139" rx="12.417" ry="11.926"/>
	<ellipse style="fill:#FFFFFF;" cx="159.947" cy="244.972" rx="8.277" ry="7.951"/>
</g>
<path style="fill:#ED1F34;" d="M496.662,55.983H69.513l427.149,273.513V55.983z M440.257,199.297c-4.236,0-7.668-3.298-7.668-7.366  c0-11.976-9.413-21.873-21.503-23.245c-10.739,9.447-25.033,15.222-40.708,15.222c-30.666,0-56.044-22.096-59.827-50.581h-8.138  c-4.236,0-7.668-3.298-7.668-7.366s3.433-7.366,7.668-7.366h15.302h24.575v-10.558h-2.591c-4.236,0-7.668-3.297-7.668-7.366  c0-4.068,3.433-7.366,7.668-7.366h10.259c4.236,0,7.669,3.298,7.669,7.366v17.924h65.409h15.302c4.236,0,7.668,3.298,7.668,7.366  s-3.433,7.366-7.668,7.366h-8.138c-1.097,8.26-3.995,15.984-8.327,22.785c15.187,5.361,26.05,19.394,26.05,35.817  C447.926,195.999,444.493,199.297,440.257,199.297z"/>
<path d="M511.205,346.511c0.075-0.146,0.15-0.29,0.215-0.441c0.043-0.1,0.077-0.201,0.115-0.302  c0.047-0.124,0.096-0.246,0.137-0.373c0.04-0.127,0.069-0.254,0.102-0.382c0.027-0.105,0.057-0.207,0.079-0.315  c0.032-0.156,0.053-0.315,0.075-0.472c0.011-0.081,0.027-0.161,0.035-0.242c0.021-0.202,0.029-0.406,0.032-0.607  c0-0.04,0.006-0.077,0.006-0.117v-0.023c0-0.009,0-0.019,0-0.028V48.617c0-4.068-3.433-7.366-7.668-7.366H44.183  c-0.003,0-0.007,0-0.011,0c-0.256,0-0.512,0.013-0.765,0.038c-0.121,0.011-0.239,0.034-0.358,0.052  c-0.126,0.018-0.252,0.031-0.376,0.055c-0.172,0.033-0.338,0.077-0.505,0.121c-0.072,0.02-0.145,0.032-0.217,0.054  c-0.153,0.044-0.301,0.1-0.449,0.152c-0.087,0.03-0.173,0.057-0.257,0.091c-0.123,0.049-0.24,0.106-0.359,0.161  c-0.108,0.049-0.217,0.095-0.324,0.15c-0.089,0.046-0.174,0.099-0.261,0.148c-0.13,0.073-0.261,0.145-0.386,0.226  c-0.06,0.039-0.116,0.082-0.174,0.122c-0.145,0.099-0.289,0.197-0.427,0.306c-0.042,0.033-0.08,0.07-0.121,0.104  c-0.146,0.121-0.291,0.242-0.428,0.374c-0.066,0.065-0.125,0.133-0.189,0.199c-0.104,0.107-0.212,0.212-0.31,0.326  c-0.163,0.19-0.315,0.388-0.458,0.592c-0.002,0.002-0.004,0.005-0.005,0.007c-0.02,0.027-0.034,0.057-0.053,0.085  c-0.118,0.174-0.231,0.353-0.334,0.538c-0.039,0.07-0.07,0.142-0.106,0.212c-0.075,0.146-0.15,0.291-0.215,0.441  c-0.043,0.1-0.077,0.201-0.115,0.302c-0.047,0.124-0.096,0.246-0.137,0.373c-0.04,0.127-0.07,0.254-0.102,0.383  c-0.026,0.104-0.057,0.207-0.079,0.314c-0.032,0.156-0.054,0.315-0.075,0.472c-0.011,0.081-0.027,0.161-0.035,0.242  c-0.021,0.202-0.029,0.406-0.032,0.608c0,0.04-0.006,0.077-0.006,0.116v0.023c0,0.009,0,0.019,0,0.028v196.377  c0,4.068,3.434,7.366,7.668,7.366c4.236,0,7.669-3.298,7.669-7.366V62.381L479,335.894H51.853V274.51  c0-4.068-3.434-7.366-7.669-7.366s-7.668,3.298-7.668,7.366v68.75c0,4.069,3.434,7.366,7.668,7.366H504.31  c0.004,0,0.009,0.001,0.014,0.001c0.022,0,0.044-0.003,0.066-0.004c0.272-0.001,0.54-0.018,0.804-0.046  c0.077-0.008,0.153-0.023,0.23-0.034c0.215-0.029,0.426-0.066,0.634-0.111c0.082-0.019,0.164-0.04,0.246-0.06  c0.203-0.052,0.402-0.112,0.598-0.178c0.08-0.027,0.16-0.053,0.239-0.083c0.206-0.078,0.408-0.166,0.606-0.261  c0.063-0.029,0.125-0.055,0.187-0.087c0.247-0.126,0.487-0.265,0.716-0.415c0.072-0.047,0.14-0.101,0.21-0.151  c0.16-0.113,0.316-0.228,0.466-0.352c0.084-0.069,0.165-0.142,0.246-0.215c0.142-0.127,0.278-0.261,0.41-0.398  c0.064-0.067,0.129-0.131,0.19-0.201c0.192-0.216,0.372-0.441,0.538-0.677c0.001-0.002,0.003-0.004,0.005-0.006  c0.019-0.027,0.033-0.057,0.052-0.085c0.119-0.175,0.231-0.353,0.335-0.538C511.138,346.653,511.169,346.581,511.205,346.511z   M496.662,55.983v273.513L69.513,55.983H496.662z"/>
<path style="fill:#FFE000;" d="M370.378,169.175c22.195,0,40.688-15.516,44.337-35.849h-88.676  C329.689,153.659,348.182,169.175,370.378,169.175z"/>
<path d="M421.876,156.113c4.333-6.801,7.231-14.527,8.327-22.785h8.138c4.236,0,7.668-3.298,7.668-7.366  c0-4.068-3.433-7.366-7.668-7.366h-15.302h-65.409v-17.924c0-4.068-3.434-7.366-7.669-7.366h-10.259  c-4.236,0-7.668,3.298-7.668,7.366c0,4.069,3.433,7.366,7.668,7.366h2.591v10.558h-24.575h-15.302c-4.236,0-7.668,3.298-7.668,7.366  c0,4.068,3.433,7.366,7.668,7.366h8.138c3.781,28.484,29.159,50.581,59.827,50.581c15.675,0,29.969-5.775,40.708-15.222  c12.092,1.371,21.503,11.269,21.503,23.245c0,4.069,3.434,7.366,7.668,7.366c4.236,0,7.669-3.298,7.669-7.366  C447.926,175.507,437.063,161.474,421.876,156.113z M414.715,133.327c-3.65,20.332-22.143,35.849-44.337,35.849  c-22.195,0-40.689-15.516-44.339-35.849H414.715z"/>
<path style="fill:#2E3033;" d="M21.135,483.781c-6.48,0-11.753-5.272-11.753-11.753V39.864c0-6.421,5.224-11.644,11.644-11.644  h1.536c6.481,0,11.753,5.273,11.753,11.753v432.055c0,6.481-5.273,11.753-11.753,11.753h-1.427V483.781z"/>
<path d="M22.562,18.838h-1.536C9.432,18.838,0,28.27,0,39.864v432.164c0,11.655,9.481,21.135,21.135,21.135h1.426  c11.655,0,21.135-9.481,21.135-21.135V39.974C43.697,28.319,34.216,18.838,22.562,18.838z M28.06,472.028  c0,3.032-2.466,5.498-5.498,5.498h-1.426c-3.032,0-5.498-2.466-5.498-5.498V39.864c0-2.972,2.417-5.39,5.39-5.39h1.536  c3.032,0,5.498,2.466,5.498,5.498v432.056H28.06z"/>
<g>
</g>
<g>
</g>
<g>
</g>
<g>
</g>
<g>
</g>
<g>
</g>
<g>
</g>
<g>
</g>
<g>
</g>
<g>
</g>
<g>
</g>
<g>
</g>
<g>
</g>
<g>
</g>
<g>
</g>
</svg>
