<?xml version="1.0" encoding="iso-8859-1"?>
<!-- Generator: Adobe Illustrator 19.0.0, SVG Export Plug-In . SVG Version: 6.00 Build 0)  -->
<svg xmlns="http://www.w3.org/2000/svg" xmlns:xlink="http://www.w3.org/1999/xlink" version="1.1" id="Layer_1" x="0px" y="0px" viewBox="0 0 512 512" style="enable-background:new 0 0 512 512;" xml:space="preserve">
<path style="fill:#FFFFFF;" d="M50.619,196.288h215.31V57.874H50.619V196.288z M107.385,114.921c0.985-3.031,3.735-5.14,6.917-5.303  l27.088-1.399l9.702-25.331c1.14-2.975,3.994-4.94,7.18-4.94c3.186,0,6.042,1.965,7.182,4.94l9.701,25.331l27.088,1.399  c3.182,0.164,5.934,2.273,6.917,5.303c0.984,3.031-0.001,6.353-2.478,8.357l-21.095,17.055l7.042,26.195  c0.827,3.076-0.33,6.344-2.907,8.216c-1.345,0.977-2.931,1.47-4.52,1.47c-1.456,0-2.915-0.412-4.192-1.243l-22.738-14.79  l-22.737,14.79c-2.672,1.735-6.137,1.646-8.712-0.227c-2.578-1.872-3.734-5.14-2.907-8.216l7.041-26.195l-21.094-17.055  C107.386,121.275,106.401,117.952,107.385,114.921z"/>
<rect x="281.31" y="57.874" style="fill:#ED1F34;" width="215.309" height="138.416"/>
<path style="fill:#FFFFFF;" d="M496.62,350.082V211.667H281.31v84.587c0,4.247-3.443,7.689-7.69,7.689v15.38  c4.247,0,7.69,3.442,7.69,7.689v23.07H496.62V350.082z M338.077,268.715c0.984-3.03,3.735-5.14,6.917-5.303l27.087-1.399  l9.702-25.329c1.14-2.976,3.995-4.94,7.181-4.94c3.186,0,6.041,1.964,7.181,4.94l9.702,25.329l27.088,1.399  c3.182,0.164,5.933,2.274,6.917,5.303c0.984,3.031-0.001,6.354-2.479,8.357l-21.094,17.055l7.041,26.196  c0.827,3.075-0.329,6.343-2.907,8.216c-1.344,0.976-2.93,1.469-4.519,1.469c-1.456,0-2.915-0.411-4.193-1.243l-22.737-14.79  l-22.737,14.79c-2.671,1.737-6.136,1.648-8.712-0.226c-2.577-1.873-3.734-5.141-2.907-8.216l7.041-26.196l-21.094-17.055  C338.078,275.068,337.092,271.745,338.077,268.715z"/>
<path style="fill:#164FCE;" d="M265.929,296.254v-84.587H50.619v138.415h215.31v-23.07c0-4.247,3.443-7.689,7.69-7.689v-15.38  C269.372,303.944,265.929,300.502,265.929,296.254z"/>
<path d="M504.31,42.494H42.929c-4.248,0-7.69,3.442-7.69,7.69v307.587c0,4.247,3.442,7.69,7.69,7.69h461.38  c4.248,0,7.69-3.443,7.69-7.69V50.184C512,45.936,508.558,42.494,504.31,42.494z M273.619,319.323c-4.247,0-7.69,3.442-7.69,7.689  v23.07H50.619V211.667h215.31v84.587c0,4.247,3.443,7.689,7.69,7.689s7.69-3.442,7.69-7.689v-84.587H496.62v138.415H281.31v-23.07  C281.31,322.765,277.867,319.323,273.619,319.323z M496.62,196.288H281.31V57.874H496.62V196.288z M265.929,196.288H50.619V57.874  h215.31V196.288z"/>
<path style="fill:#164FCE;" d="M144.517,131.518c2.365,1.912,3.381,5.038,2.591,7.974l-3.128,11.638l10.101-6.57  c1.275-0.829,2.734-1.244,4.192-1.244c1.459,0,2.918,0.415,4.194,1.244l10.1,6.57l-3.128-11.638  c-0.79-2.936,0.226-6.063,2.591-7.974l9.369-7.576l-12.032-0.622c-3.037-0.158-5.695-2.089-6.783-4.929l-4.312-11.254l-4.31,11.254  c-1.088,2.84-3.748,4.772-6.785,4.929l-12.032,0.622L144.517,131.518z"/>
<path d="M109.864,123.277l21.094,17.055l-7.041,26.195c-0.827,3.076,0.329,6.344,2.907,8.216c2.576,1.873,6.04,1.962,8.712,0.227  l22.737-14.79l22.738,14.79c1.277,0.83,2.736,1.243,4.192,1.243c1.589,0,3.175-0.492,4.52-1.47c2.577-1.872,3.734-5.14,2.907-8.216  l-7.042-26.195l21.095-17.055c2.477-2.003,3.462-5.326,2.478-8.357c-0.984-3.031-3.735-5.14-6.917-5.303l-27.088-1.399  l-9.701-25.331c-1.14-2.975-3.995-4.94-7.183-4.94c-3.185,0-6.04,1.965-7.18,4.94l-9.702,25.331l-27.088,1.399  c-3.182,0.164-5.933,2.273-6.917,5.303C106.402,117.951,107.386,121.275,109.864,123.277z M153.964,118.391l4.31-11.254  l4.312,11.254c1.088,2.84,3.747,4.772,6.783,4.929l12.032,0.622l-9.369,7.576c-2.365,1.912-3.381,5.038-2.591,7.974l3.128,11.638  l-10.1-6.57c-1.276-0.829-2.735-1.244-4.194-1.244c-1.458,0-2.917,0.415-4.192,1.244l-10.101,6.57l3.128-11.638  c0.79-2.936-0.226-6.063-2.591-7.974l-9.369-7.576l12.032-0.622C150.216,123.162,152.876,121.231,153.964,118.391z"/>
<path style="fill:#ED1F34;" d="M375.208,285.312c2.365,1.912,3.38,5.037,2.591,7.973l-3.128,11.638l10.1-6.57  c1.275-0.829,2.735-1.244,4.193-1.244c1.459,0,2.918,0.415,4.193,1.244l10.101,6.57l-3.129-11.638  c-0.789-2.936,0.227-6.062,2.592-7.973l9.369-7.577l-12.032-0.622c-3.037-0.156-5.696-2.089-6.785-4.929l-4.311-11.253  l-4.311,11.253c-1.088,2.84-3.747,4.772-6.784,4.929l-12.032,0.622L375.208,285.312z"/>
<path d="M340.555,277.071l21.094,17.055l-7.041,26.196c-0.827,3.075,0.33,6.343,2.907,8.216c2.577,1.874,6.041,1.963,8.712,0.226  l22.737-14.79l22.737,14.79c1.277,0.831,2.737,1.243,4.193,1.243c1.589,0,3.175-0.492,4.519-1.469  c2.578-1.873,3.734-5.141,2.907-8.216l-7.041-26.196l21.094-17.055c2.478-2.002,3.463-5.326,2.479-8.357  c-0.985-3.03-3.735-5.14-6.917-5.303l-27.088-1.399l-9.702-25.329c-1.14-2.976-3.994-4.94-7.181-4.94  c-3.185,0-6.041,1.964-7.181,4.94l-9.702,25.331l-27.087,1.399c-3.182,0.164-5.934,2.274-6.917,5.303  C337.092,271.745,338.078,275.068,340.555,277.071z M384.654,272.184l4.311-11.253l4.311,11.253c1.088,2.84,3.748,4.772,6.785,4.929  l12.032,0.622l-9.369,7.577c-2.365,1.912-3.381,5.037-2.592,7.973l3.129,11.638l-10.101-6.57c-1.275-0.829-2.734-1.244-4.193-1.244  c-1.458,0-2.918,0.415-4.193,1.244l-10.1,6.57l3.128-11.638c0.789-2.936-0.226-6.062-2.591-7.973l-9.369-7.577l12.032-0.622  C380.907,276.957,383.566,275.024,384.654,272.184z"/>
<path style="fill:#2E3033;" d="M21.013,482.462c-6.442,0-11.685-5.242-11.685-11.685V41.115c0-6.383,5.194-11.577,11.577-11.577  h1.527c6.444,0,11.685,5.242,11.685,11.685v429.552c0,6.444-5.242,11.685-11.685,11.685h-1.419V482.462z"/>
<path d="M22.432,20.211h-1.527C9.378,20.211,0,29.588,0,41.115v429.661c0,11.587,9.426,21.013,21.013,21.013h1.418  c11.587,0,21.013-9.426,21.013-21.013V41.223C43.444,29.637,34.018,20.211,22.432,20.211z M27.898,470.777  c0,3.014-2.452,5.466-5.466,5.466h-1.418c-3.014,0-5.466-2.452-5.466-5.466V41.115c0-2.955,2.403-5.358,5.358-5.358h1.527  c3.014,0,5.466,2.452,5.466,5.466v429.554H27.898z"/>
<g>
</g>
<g>
</g>
<g>
</g>
<g>
</g>
<g>
</g>
<g>
</g>
<g>
</g>
<g>
</g>
<g>
</g>
<g>
</g>
<g>
</g>
<g>
</g>
<g>
</g>
<g>
</g>
<g>
</g>
</svg>
