<?xml version="1.0" encoding="iso-8859-1"?>
<!-- Generator: Adobe Illustrator 19.0.0, SVG Export Plug-In . SVG Version: 6.00 Build 0)  -->
<svg xmlns="http://www.w3.org/2000/svg" xmlns:xlink="http://www.w3.org/1999/xlink" version="1.1" id="Layer_1" x="0px" y="0px" viewBox="0 0 512 512" style="enable-background:new 0 0 512 512;" xml:space="preserve">
<path style="fill:#FFFFFF;" d="M496.237,158.023H179.116l46.326,38.605c1.797,1.498,2.836,3.716,2.836,6.055  s-1.039,4.557-2.836,6.054l-46.326,38.606h317.121V158.023z"/>
<path style="fill:#259245;" d="M462.086,352.424h34.151v-89.32H160.202l-107.183,89.32h377.543c4.352,0,7.881,3.528,7.881,7.881  h15.762C454.205,355.953,457.733,352.424,462.086,352.424z"/>
<polygon style="fill:#333333;" points="160.202,142.261 496.237,142.261 496.237,52.941 53.019,52.941 "/>
<polygon style="fill:#ED1F34;" points="208.088,202.683 39.132,61.886 39.132,343.479 "/>
<path d="M504.119,37.178H31.25c-0.085,0-0.167,0.01-0.251,0.013c-0.168,0.005-0.335,0.01-0.501,0.025  c-0.137,0.013-0.271,0.037-0.406,0.056c-0.117,0.018-0.235,0.031-0.352,0.054c-0.148,0.029-0.291,0.067-0.436,0.104  c-0.103,0.025-0.207,0.049-0.309,0.08c-0.14,0.042-0.277,0.092-0.414,0.142c-0.105,0.038-0.211,0.073-0.314,0.115  c-0.124,0.051-0.244,0.109-0.365,0.167c-0.113,0.053-0.226,0.104-0.337,0.163c-0.107,0.056-0.209,0.12-0.313,0.182  c-0.119,0.07-0.238,0.137-0.353,0.215c-0.096,0.064-0.186,0.133-0.278,0.2c-0.114,0.084-0.229,0.165-0.34,0.255  c-0.099,0.081-0.191,0.168-0.286,0.253c-0.096,0.086-0.193,0.168-0.285,0.259c-0.126,0.125-0.244,0.259-0.362,0.393  c-0.049,0.055-0.103,0.106-0.151,0.164c-0.004,0.004-0.006,0.01-0.011,0.014c-0.168,0.202-0.326,0.411-0.473,0.63  c-0.013,0.018-0.022,0.038-0.035,0.056c-0.13,0.197-0.253,0.397-0.365,0.605c-0.054,0.1-0.097,0.203-0.147,0.305  c-0.064,0.13-0.131,0.258-0.186,0.392c-0.051,0.122-0.091,0.248-0.136,0.373c-0.042,0.117-0.089,0.233-0.126,0.353  c-0.046,0.149-0.079,0.298-0.116,0.449c-0.024,0.1-0.054,0.198-0.074,0.298c-0.048,0.238-0.084,0.478-0.11,0.718  c-0.001,0.016-0.005,0.032-0.007,0.048c-0.027,0.262-0.039,0.525-0.039,0.787c0,0.005-0.001,0.012-0.001,0.017v315.245  c0,0.006,0.001,0.012,0.001,0.018c0,0.262,0.013,0.525,0.039,0.787c0.002,0.016,0.005,0.032,0.007,0.048  c0.027,0.241,0.062,0.48,0.11,0.718c0.02,0.102,0.05,0.2,0.074,0.299c0.037,0.15,0.07,0.301,0.116,0.449  c0.037,0.119,0.084,0.235,0.126,0.353c0.045,0.124,0.085,0.25,0.136,0.373c0.056,0.134,0.123,0.261,0.186,0.392  c0.049,0.102,0.092,0.204,0.147,0.304c0.113,0.208,0.236,0.409,0.365,0.605c0.013,0.019,0.022,0.038,0.035,0.056  c0.147,0.218,0.305,0.428,0.473,0.63c0.004,0.004,0.006,0.01,0.011,0.015c0.027,0.032,0.057,0.059,0.085,0.091  c0.15,0.173,0.305,0.341,0.468,0.501c0.08,0.078,0.163,0.149,0.244,0.222c0.12,0.108,0.242,0.215,0.369,0.315  c0.098,0.078,0.198,0.15,0.297,0.222c0.122,0.087,0.245,0.171,0.373,0.252c0.103,0.066,0.207,0.13,0.313,0.19  c0.136,0.079,0.276,0.151,0.419,0.22c0.1,0.049,0.199,0.1,0.3,0.144c0.161,0.071,0.328,0.134,0.495,0.195  c0.086,0.031,0.17,0.067,0.257,0.095c0.195,0.064,0.396,0.115,0.598,0.164c0.064,0.015,0.125,0.035,0.189,0.048  c0.234,0.05,0.472,0.087,0.713,0.115c0.034,0.004,0.068,0.013,0.103,0.016c0.274,0.029,0.551,0.045,0.833,0.045h399.311  c4.352,0,7.881-3.529,7.881-7.881s-3.529-7.881-7.881-7.881H53.019l107.183-89.32h336.036v89.32h-34.151  c-4.353,0-7.881,3.528-7.881,7.881s3.529,7.881,7.881,7.881h42.033c4.353,0,7.881-3.529,7.881-7.881V45.059  C512,40.707,508.471,37.178,504.119,37.178z M496.237,142.261H160.202L53.019,52.941h443.219L496.237,142.261L496.237,142.261z   M39.132,61.886l168.956,140.797L39.132,343.479V61.886z M225.443,208.737c1.797-1.497,2.836-3.715,2.836-6.054  s-1.039-4.558-2.836-6.055l-46.326-38.605h317.121v89.32H179.116L225.443,208.737z"/>
<path style="fill:#2E3033;" d="M21.536,488.1c-6.603,0-11.976-5.373-11.976-11.976V35.766c0-6.542,5.323-11.865,11.865-11.865h1.565  c6.604,0,11.976,5.373,11.976,11.976v440.247c0,6.604-5.373,11.976-11.976,11.976h-1.454V488.1z"/>
<path d="M22.99,14.34h-1.565C9.611,14.34,0,23.951,0,35.766v440.358C0,488,9.661,497.66,21.536,497.66h1.453  c11.876,0,21.536-9.661,21.536-21.536V35.876C44.526,24.001,34.865,14.34,22.99,14.34z M28.592,476.124  c0,3.089-2.513,5.602-5.602,5.602h-1.453c-3.089,0-5.602-2.513-5.602-5.602V35.766c0-3.028,2.463-5.492,5.492-5.492h1.565  c3.089,0,5.602,2.513,5.602,5.602v440.248H28.592z"/>
<g>
</g>
<g>
</g>
<g>
</g>
<g>
</g>
<g>
</g>
<g>
</g>
<g>
</g>
<g>
</g>
<g>
</g>
<g>
</g>
<g>
</g>
<g>
</g>
<g>
</g>
<g>
</g>
<g>
</g>
</svg>
