<?xml version="1.0" encoding="iso-8859-1"?>
<!-- Generator: Adobe Illustrator 19.0.0, SVG Export Plug-In . SVG Version: 6.00 Build 0)  -->
<svg xmlns="http://www.w3.org/2000/svg" xmlns:xlink="http://www.w3.org/1999/xlink" version="1.1" id="Layer_1" x="0px" y="0px" viewBox="0 0 512 512" style="enable-background:new 0 0 512 512;" xml:space="preserve">
<path style="fill:#3DB4EA;" d="M442.971,55.971H51.813v279.935H496.66V55.971h-23.009c-4.236,0-7.67-3.298-7.67-7.366h-15.34  C450.641,52.672,447.207,55.971,442.971,55.971z M257.771,275.348c-4.157,0.807-8.201-1.767-9.043-5.754  c-0.025-0.122-0.038-0.242-0.057-0.364c-2.554,0.247-5.144,0.375-7.766,0.375c-2.622,0-5.213-0.128-7.766-0.375  c-0.02,0.122-0.031,0.243-0.057,0.364c-0.738,3.494-3.937,5.903-7.508,5.903c-0.506,0-1.019-0.049-1.535-0.149  c-39.113-7.626-67.502-41.024-67.502-79.41c0-44.682,37.847-81.034,84.367-81.034s84.367,36.351,84.367,81.034  C325.272,234.325,296.885,267.722,257.771,275.348z"/>
<path d="M504.33,41.238h-30.679c-4.236,0-7.67,3.299-7.67,7.367s3.434,7.366,7.67,7.366h23.009v279.935H51.813V55.971h391.158  c4.236,0,7.669-3.298,7.669-7.366c0-4.069-3.433-7.367-7.669-7.367H44.143c-4.236,0-7.67,3.299-7.67,7.367v294.668  c0,4.068,3.434,7.367,7.67,7.367H504.33c4.236,0,7.67-3.299,7.67-7.367V48.604C512,44.535,508.566,41.238,504.33,41.238z"/>
<path style="fill:#FFE000;" d="M254.718,260.909c31.993-6.238,55.215-33.561,55.215-64.97c0-36.558-30.967-66.3-69.028-66.3  c-38.062,0-69.028,29.743-69.028,66.3c0,31.409,23.22,58.732,55.214,64.971c4.024,0.784,6.658,4.463,6.048,8.32  c2.554,0.247,5.145,0.375,7.766,0.375c2.621,0,5.212-0.128,7.766-0.375C248.061,265.373,250.694,261.694,254.718,260.909z"/>
<path d="M240.906,114.904c-46.521,0-84.367,36.351-84.367,81.034c0,38.386,28.388,71.783,67.502,79.41  c0.516,0.1,1.028,0.149,1.535,0.149c3.572,0,6.77-2.41,7.508-5.903c0.025-0.121,0.038-0.242,0.057-0.364  c0.61-3.857-2.024-7.536-6.048-8.32c-31.993-6.239-55.214-33.562-55.214-64.971c0-36.558,30.965-66.3,69.028-66.3  s69.027,29.743,69.027,66.3c0,31.409-23.221,58.732-55.215,64.97c-4.024,0.785-6.658,4.464-6.048,8.322  c0.02,0.122,0.031,0.242,0.057,0.364c0.842,3.987,4.886,6.561,9.043,5.754c39.113-7.627,67.5-41.024,67.5-79.411  C325.272,151.256,287.426,114.904,240.906,114.904z"/>
<path style="fill:#2E3033;" d="M21.136,483.795c-6.48,0-11.754-5.273-11.754-11.755V39.851c0-6.421,5.224-11.645,11.645-11.645  h1.536c6.481,0,11.754,5.273,11.754,11.754v432.081c0,6.481-5.273,11.754-11.754,11.754h-1.427V483.795z"/>
<path d="M22.564,18.823h-1.536C9.433,18.823,0,28.256,0,39.851v432.19c0,11.656,9.482,21.136,21.136,21.136h1.426  c11.656,0,21.136-9.482,21.136-21.136V39.959C43.7,28.304,34.218,18.823,22.564,18.823z M28.062,472.041  c0,3.032-2.467,5.498-5.498,5.498h-1.426c-3.032,0-5.498-2.467-5.498-5.498V39.851c0-2.972,2.418-5.39,5.39-5.39h1.536  c3.032,0,5.498,2.467,5.498,5.498v432.081H28.062z"/>
<g>
</g>
<g>
</g>
<g>
</g>
<g>
</g>
<g>
</g>
<g>
</g>
<g>
</g>
<g>
</g>
<g>
</g>
<g>
</g>
<g>
</g>
<g>
</g>
<g>
</g>
<g>
</g>
<g>
</g>
</svg>
