<?xml version="1.0" encoding="iso-8859-1"?>
<!-- Generator: Adobe Illustrator 19.0.0, SVG Export Plug-In . SVG Version: 6.00 Build 0)  -->
<svg xmlns="http://www.w3.org/2000/svg" xmlns:xlink="http://www.w3.org/1999/xlink" version="1.1" id="Layer_1" x="0px" y="0px" viewBox="0 0 512 512" style="enable-background:new 0 0 512 512;" xml:space="preserve">
<path style="fill:#134923;" d="M496.652,111.99V58.273H153.881v291.61h342.771V142.687c0-4.239,3.434-7.674,7.674-7.674v-15.349  C500.086,119.664,496.652,116.229,496.652,111.99z M393.518,235.067c-3.889,13.885-11.348,26.627-21.569,36.848  c-15.943,15.943-37.142,24.724-59.691,24.724c-22.547,0-43.745-8.781-59.69-24.725c-15.943-15.943-24.723-37.14-24.723-59.689  s8.78-43.745,24.723-59.69c10.222-10.221,22.964-17.68,36.85-21.57c3.429-0.96,7.065,0.562,8.785,3.675  c1.722,3.113,1.078,7.004-1.556,9.395c-0.772,0.7-1.471,1.365-2.138,2.034c-23.134,23.133-23.134,60.773-0.001,83.906  c11.206,11.206,26.105,17.378,41.953,17.378c15.848,0,30.748-6.171,41.954-17.377c0.665-0.665,1.329-1.364,2.034-2.139  c2.393-2.633,6.282-3.278,9.396-1.556C392.956,228.004,394.479,231.64,393.518,235.067z M422.594,164.327  c-0.496,3.14-2.879,5.648-5.99,6.307l-23.891,5.06l-5.06,23.889c-0.659,3.11-3.167,5.492-6.307,5.99  c-0.401,0.063-0.803,0.094-1.202,0.094c-2.712,0-5.263-1.441-6.647-3.843l-12.193-21.157l-24.285,2.57  c-3.153,0.332-6.201-1.315-7.645-4.148s-0.99-6.262,1.139-8.623l16.354-18.135l-9.949-22.301c-1.295-2.904-0.665-6.305,1.582-8.553  c2.25-2.249,5.647-2.879,8.554-1.582l22.301,9.948l18.135-16.353c2.361-2.129,5.79-2.584,8.623-1.139  c2.833,1.444,4.482,4.484,4.147,7.646l-2.569,24.284l21.157,12.195C421.602,158.065,423.091,161.187,422.594,164.327z"/>
<g>
	<rect x="51.562" y="58.275" style="fill:#FFFFFF;" width="86.968" height="291.612"/>
	<path style="fill:#FFFFFF;" d="M283.654,240.829c-21.874-21.875-27.314-54.058-16.32-81.059c-1.349,1.153-2.653,2.361-3.912,3.62   c-13.044,13.045-20.23,30.389-20.23,48.838s7.185,35.791,20.23,48.836c13.044,13.045,30.389,20.23,48.837,20.23   c18.449,0,35.793-7.184,48.837-20.229c1.238-1.238,2.427-2.521,3.563-3.845c-8.833,3.598-18.372,5.484-28.198,5.484   C316.513,262.703,297.761,254.935,283.654,240.829z"/>
</g>
<path d="M389.843,226.282c-3.114-1.722-7.003-1.078-9.396,1.556c-0.704,0.775-1.368,1.474-2.034,2.139  c-11.206,11.206-26.106,17.377-41.954,17.377c-15.848,0-30.747-6.172-41.953-17.378c-23.133-23.133-23.133-60.773,0.001-83.906  c0.668-0.668,1.366-1.333,2.138-2.034c2.633-2.392,3.278-6.282,1.556-9.395c-1.72-3.113-5.356-4.635-8.785-3.675  c-13.885,3.89-26.627,11.349-36.85,21.57c-15.943,15.943-24.723,37.141-24.723,59.69s8.78,43.745,24.723,59.689  c15.944,15.944,37.143,24.725,59.69,24.725c22.549,0,43.748-8.781,59.691-24.724c10.221-10.221,17.68-22.965,21.569-36.848  C394.479,231.64,392.956,228.004,389.843,226.282z M361.094,261.063c-13.042,13.045-30.388,20.229-48.837,20.229  c-18.448,0-35.792-7.184-48.837-20.23c-13.044-13.044-20.23-30.388-20.23-48.835s7.185-35.792,20.23-48.838  c1.259-1.258,2.564-2.466,3.912-3.62c-10.994,27.002-5.554,59.184,16.32,81.059c14.106,14.105,32.859,21.873,52.806,21.873  c9.826,0,19.365-1.886,28.198-5.484C363.521,258.542,362.334,259.825,361.094,261.063z"/>
<path style="fill:#FFFFFF;" d="M385.701,155.087c-2.629-1.515-4.118-4.438-3.799-7.457l0.986-9.324l-6.961,6.278  c-2.253,2.032-5.492,2.547-8.265,1.309l-8.562-3.82l3.82,8.562c1.236,2.772,0.723,6.013-1.309,8.265l-6.278,6.963l9.324-0.988  c0.271-0.028,0.54-0.042,0.809-0.042c2.722,0,5.268,1.448,6.648,3.842l4.68,8.124l1.944-9.173c0.629-2.969,2.948-5.289,5.919-5.917  l9.173-1.943L385.701,155.087z"/>
<path d="M418.846,156.478l-21.157-12.195l2.569-24.284c0.335-3.162-1.314-6.202-4.147-7.646c-2.833-1.444-6.262-0.99-8.623,1.139  l-18.135,16.353l-22.301-9.948c-2.906-1.297-6.304-0.667-8.554,1.582c-2.247,2.248-2.876,5.649-1.581,8.553l9.949,22.301  l-16.354,18.135c-2.129,2.361-2.582,5.79-1.139,8.623c1.444,2.833,4.492,4.48,7.645,4.148l24.285-2.57l12.193,21.157  c1.384,2.402,3.935,3.843,6.647,3.843c0.399,0,0.801-0.031,1.202-0.094c3.14-0.498,5.649-2.88,6.307-5.99l5.06-23.889l23.891-5.06  c3.111-0.659,5.493-3.167,5.99-6.307C423.089,161.187,421.602,158.065,418.846,156.478z M378.733,167.63l-1.944,9.173l-4.68-8.124  c-1.38-2.393-3.925-3.842-6.648-3.842c-0.269,0-0.539,0.014-0.809,0.042l-9.324,0.988l6.278-6.963  c2.033-2.254,2.546-5.493,1.309-8.265l-3.82-8.562l8.562,3.82c2.774,1.238,6.013,0.723,8.265-1.309l6.961-6.278l-0.986,9.324  c-0.32,3.018,1.17,5.941,3.799,7.457l8.124,4.681l-9.173,1.943C381.681,162.341,379.363,164.661,378.733,167.63z"/>
<path d="M496.652,142.687v207.197H153.881V58.273h342.771v53.718c0,4.239,3.434,7.674,7.674,7.674c4.239,0,7.674-3.435,7.674-7.674  V50.599c0-4.238-3.435-7.674-7.674-7.674H43.888c-4.239,0-7.674,3.436-7.674,7.674v306.959c0,4.238,3.435,7.674,7.674,7.674h460.438  c4.239,0,7.674-3.436,7.674-7.674V142.687c0-4.239-3.435-7.674-7.674-7.674C500.086,135.013,496.652,138.449,496.652,142.687z   M51.562,58.273h86.972v291.61H51.562V58.273z"/>
<path style="fill:#2E3033;" d="M20.97,482.004c-6.429,0-11.661-5.232-11.661-11.661V41.55c0-6.371,5.183-11.554,11.554-11.554h1.524  c6.431,0,11.661,5.232,11.661,11.661v428.685c0,6.431-5.232,11.661-11.661,11.661H20.97V482.004z"/>
<path d="M22.386,20.687h-1.524C9.359,20.687,0,30.046,0,41.55v428.793c0,11.563,9.407,20.97,20.97,20.97h1.415  c11.564,0,20.97-9.407,20.97-20.97V41.657C43.357,30.094,33.949,20.687,22.386,20.687z M27.841,470.343  c0,3.008-2.447,5.455-5.455,5.455h-1.415c-3.008,0-5.455-2.447-5.455-5.455V41.55c0-2.949,2.399-5.348,5.348-5.348h1.524  c3.008,0,5.455,2.447,5.455,5.455v428.686H27.841z"/>
<g>
</g>
<g>
</g>
<g>
</g>
<g>
</g>
<g>
</g>
<g>
</g>
<g>
</g>
<g>
</g>
<g>
</g>
<g>
</g>
<g>
</g>
<g>
</g>
<g>
</g>
<g>
</g>
<g>
</g>
</svg>
