<?xml version="1.0" encoding="iso-8859-1"?>
<!-- Generator: Adobe Illustrator 19.0.0, SVG Export Plug-In . SVG Version: 6.00 Build 0)  -->
<svg xmlns="http://www.w3.org/2000/svg" xmlns:xlink="http://www.w3.org/1999/xlink" version="1.1" id="Layer_1" x="0px" y="0px" viewBox="0 0 512.001 512.001" style="enable-background:new 0 0 512.001 512.001;" xml:space="preserve">
<g>
	<path style="fill:#103B9B;" d="M253.991,229.157l20.116,62.674V204.08l-21.997,21.997   C252.961,226.927,253.612,227.978,253.991,229.157z"/>
	<path style="fill:#103B9B;" d="M296.104,226.076c0.851-0.85,1.903-1.502,3.081-1.88l62.674-20.116h-87.752L296.104,226.076z"/>
	<path style="fill:#103B9B;" d="M473.63,349.885h23.022V58.273H51.562v291.611h391.373c4.239,0,7.674,3.435,7.674,7.674h15.349   C465.956,353.32,469.392,349.885,473.63,349.885z M299.828,107.671c1.403-3.998,5.784-6.103,9.784-4.698   c30.402,10.675,54.926,35.201,65.6,65.603c1.405,3.999-0.699,8.378-4.698,9.782c-0.841,0.296-1.699,0.436-2.542,0.436   c-3.168,0-6.132-1.976-7.24-5.134c-9.146-26.047-30.156-47.059-56.205-56.206C300.527,116.049,298.425,111.669,299.828,107.671z    M173.001,168.576c10.675-30.402,35.199-54.928,65.601-65.603c4.003-1.404,8.38,0.7,9.783,4.698   c1.405,3.999-0.698,8.379-4.697,9.783c-26.049,9.148-47.06,30.159-56.206,56.206c-1.108,3.159-4.073,5.134-7.24,5.134   c-0.843,0-1.701-0.141-2.541-0.436C173.701,176.953,171.597,172.575,173.001,168.576z M248.385,300.488   c-1.108,3.158-4.073,5.133-7.239,5.133c-0.844,0-1.703-0.141-2.543-0.436c-30.402-10.675-54.926-35.2-65.601-65.601   c-1.404-3.999,0.7-8.379,4.699-9.783c3.996-1.406,8.379,0.7,9.782,4.699c9.147,26.047,30.157,47.056,56.206,56.204   C247.687,292.107,249.79,296.489,248.385,300.488z M375.212,239.583c-10.674,30.401-35.198,54.926-65.6,65.601   c-0.841,0.296-1.7,0.436-2.543,0.436c-3.168,0-6.132-1.976-7.24-5.133c-1.404-3.999,0.699-8.38,4.698-9.784   c26.049-9.148,47.06-30.157,56.205-56.204c1.404-3.999,5.787-6.104,9.783-4.699C374.513,231.204,376.617,235.585,375.212,239.583z    M389.313,211.386l-81.682,26.217l-26.217,81.682c-1.019,3.175-3.973,5.329-7.307,5.329s-6.289-2.154-7.307-5.329l-26.219-81.682   l-81.681-26.217c-3.175-1.019-5.329-3.973-5.329-7.307s2.154-6.288,5.329-7.307l81.681-26.219l26.219-81.682   c1.018-3.174,3.973-5.328,7.307-5.328s6.288,2.154,7.307,5.328l26.217,81.682l81.682,26.219c3.175,1.019,5.329,3.973,5.329,7.307   S392.489,210.367,389.313,211.386z"/>
	<path style="fill:#103B9B;" d="M249.029,183.963l-62.674,20.116h87.753L252.11,182.08   C251.259,182.932,250.207,183.584,249.029,183.963z"/>
	<path style="fill:#103B9B;" d="M294.223,179.001l-20.116-62.674v87.753l21.997-21.998   C295.252,181.231,294.602,180.18,294.223,179.001z"/>
</g>
<path d="M504.326,42.926H43.888c-4.239,0-7.674,3.435-7.674,7.674v306.959c0,4.24,3.435,7.675,7.674,7.675h399.047  c4.239,0,7.674-3.435,7.674-7.675c0-4.239-3.435-7.674-7.674-7.674H51.562V58.273h445.091v291.611h-23.022  c-4.239,0-7.674,3.435-7.674,7.674c0,4.24,3.435,7.675,7.674,7.675h30.696c4.239,0,7.674-3.435,7.674-7.675V50.6  C512,46.361,508.565,42.926,504.326,42.926z"/>
<g>
	<path style="fill:#FFFFFF;" d="M389.313,196.772l-81.682-26.219l-26.217-81.682c-1.019-3.174-3.973-5.328-7.307-5.328   s-6.289,2.154-7.307,5.328l-26.219,81.682l-81.681,26.219c-3.175,1.019-5.329,3.973-5.329,7.307c0,3.334,2.154,6.288,5.329,7.307   l81.681,26.217l26.219,81.682c1.018,3.175,3.973,5.329,7.307,5.329s6.288-2.154,7.307-5.329l26.217-81.682l81.682-26.217   c3.175-1.019,5.329-3.973,5.329-7.307C394.642,200.745,392.489,197.792,389.313,196.772z M299.185,224.196   c-1.178,0.379-2.229,1.03-3.081,1.88l-21.997-21.997v87.752l-20.116-62.674c-0.379-1.179-1.03-2.23-1.88-3.081l21.997-21.997   h-87.753l62.674-20.116c1.179-0.379,2.23-1.03,3.081-1.881l21.997,21.998v-87.753L294.223,179c0.379,1.18,1.029,2.23,1.88,3.081   l-21.997,21.998h87.752L299.185,224.196z"/>
	<path style="fill:#FFFFFF;" d="M304.526,117.453c26.049,9.148,47.06,30.159,56.205,56.206c1.109,3.159,4.073,5.134,7.24,5.134   c0.843,0,1.703-0.141,2.542-0.436c3.999-1.404,6.103-5.783,4.698-9.782c-10.674-30.402-35.198-54.928-65.6-65.603   c-4-1.405-8.381,0.7-9.784,4.698C298.425,111.669,300.527,116.049,304.526,117.453z"/>
	<path style="fill:#FFFFFF;" d="M177.7,178.358c0.841,0.296,1.698,0.436,2.541,0.436c3.168,0,6.133-1.976,7.24-5.134   c9.147-26.047,30.157-47.059,56.206-56.206c3.999-1.404,6.102-5.784,4.697-9.783c-1.403-3.998-5.78-6.102-9.783-4.698   c-30.402,10.675-54.926,35.201-65.601,65.603C171.597,172.575,173.701,176.953,177.7,178.358z"/>
	<path style="fill:#FFFFFF;" d="M370.514,229.801c-3.996-1.405-8.379,0.7-9.783,4.699c-9.146,26.047-30.156,47.056-56.205,56.204   c-3.999,1.404-6.102,5.785-4.698,9.784c1.109,3.158,4.073,5.133,7.24,5.133c0.843,0,1.703-0.141,2.543-0.436   c30.402-10.675,54.926-35.2,65.6-65.601C376.617,235.585,374.513,231.204,370.514,229.801z"/>
	<path style="fill:#FFFFFF;" d="M243.688,290.704c-26.049-9.148-47.06-30.157-56.206-56.204c-1.403-3.999-5.786-6.105-9.782-4.699   c-3.999,1.404-6.103,5.784-4.699,9.783c10.675,30.401,35.199,54.926,65.601,65.601c0.841,0.296,1.699,0.436,2.543,0.436   c3.166,0,6.132-1.976,7.239-5.133C249.79,296.489,247.687,292.107,243.688,290.704z"/>
</g>
<path style="fill:#2E3033;" d="M20.97,482.005c-6.429,0-11.661-5.232-11.661-11.661V41.55c0-6.371,5.183-11.554,11.554-11.554h1.524  c6.431,0,11.661,5.232,11.661,11.661v428.685c0,6.431-5.232,11.661-11.661,11.661H20.97V482.005z"/>
<path d="M22.386,20.687h-1.524C9.359,20.687,0,30.046,0,41.55v428.793c0,11.563,9.407,20.97,20.97,20.97h1.415  c11.564,0,20.97-9.407,20.97-20.97V41.658C43.357,30.095,33.949,20.687,22.386,20.687z M27.841,470.343  c0,3.008-2.447,5.455-5.455,5.455h-1.415c-3.008,0-5.455-2.447-5.455-5.455V41.55c0-2.949,2.399-5.348,5.348-5.348h1.524  c3.008,0,5.455,2.447,5.455,5.455v428.686H27.841z"/>
<g>
</g>
<g>
</g>
<g>
</g>
<g>
</g>
<g>
</g>
<g>
</g>
<g>
</g>
<g>
</g>
<g>
</g>
<g>
</g>
<g>
</g>
<g>
</g>
<g>
</g>
<g>
</g>
<g>
</g>
</svg>
