<?xml version="1.0" encoding="iso-8859-1"?>
<!-- Generator: Adobe Illustrator 19.0.0, SVG Export Plug-In . SVG Version: 6.00 Build 0)  -->
<svg xmlns="http://www.w3.org/2000/svg" xmlns:xlink="http://www.w3.org/1999/xlink" version="1.1" id="Layer_1" x="0px" y="0px" viewBox="0 0 512 512" style="enable-background:new 0 0 512 512;" xml:space="preserve">
<path style="fill:#ED1F34;" d="M409.546,158.017H39.132v89.316h457.106v-89.316h-55.169c-4.353,0-7.881-3.529-7.881-7.881h-15.763  C417.427,154.489,413.898,158.017,409.546,158.017z"/>
<path style="fill:#FFFFFF;" d="M409.546,142.255c4.353,0,7.881,3.529,7.881,7.881h15.763c0-4.352,3.528-7.881,7.881-7.881h55.169  V52.94H39.132v89.316h370.414V142.255z"/>
<rect x="39.132" y="263.096" style="fill:#FFE000;" width="457.103" height="89.313"/>
<path d="M504.118,37.178H31.251c-4.354,0-7.882,3.529-7.882,7.881v315.232c0,4.352,3.528,7.881,7.882,7.881h472.867  c4.354,0,7.882-3.529,7.882-7.881V45.059C512,40.707,508.472,37.178,504.118,37.178z M496.237,52.94v89.316h-55.169  c-4.353,0-7.881,3.529-7.881,7.881s3.528,7.881,7.881,7.881h55.169v89.316H39.132v-89.316h370.414c4.353,0,7.881-3.529,7.881-7.881  s-3.528-7.881-7.881-7.881H39.132V52.94H496.237z M39.132,352.41v-89.316h457.106v89.316H39.132z"/>
<path style="fill:#2E3033;" d="M21.536,488.1c-6.603,0-11.976-5.373-11.976-11.976V35.766c0-6.542,5.323-11.865,11.865-11.865h1.565  c6.604,0,11.976,5.373,11.976,11.976v440.247c0,6.604-5.373,11.976-11.976,11.976h-1.454V488.1z"/>
<path d="M22.99,14.34h-1.565C9.611,14.34,0,23.951,0,35.766v440.358C0,488,9.661,497.66,21.536,497.66h1.453  c11.876,0,21.536-9.661,21.536-21.536V35.876C44.526,24.001,34.865,14.34,22.99,14.34z M28.592,476.124  c0,3.089-2.513,5.602-5.602,5.602h-1.453c-3.089,0-5.602-2.513-5.602-5.602V35.766c0-3.028,2.463-5.492,5.492-5.492h1.565  c3.089,0,5.602,2.513,5.602,5.602v440.248H28.592z"/>
<g>
</g>
<g>
</g>
<g>
</g>
<g>
</g>
<g>
</g>
<g>
</g>
<g>
</g>
<g>
</g>
<g>
</g>
<g>
</g>
<g>
</g>
<g>
</g>
<g>
</g>
<g>
</g>
<g>
</g>
</svg>
