<?xml version="1.0" encoding="iso-8859-1"?>
<!-- Generator: Adobe Illustrator 19.0.0, SVG Export Plug-In . SVG Version: 6.00 Build 0)  -->
<svg xmlns="http://www.w3.org/2000/svg" xmlns:xlink="http://www.w3.org/1999/xlink" version="1.1" id="Layer_1" x="0px" y="0px" viewBox="0 0 512 512" style="enable-background:new 0 0 512 512;" xml:space="preserve">
<rect x="205.038" y="58.275" style="fill:#FFFFFF;" width="291.612" height="86.968"/>
<path style="fill:#259245;" d="M496.652,262.913H259.588c-4.239,0-7.674-3.435-7.674-7.674h-15.348c0,4.239-3.436,7.674-7.674,7.674  h-23.85v86.972h291.611v-86.972H496.652z"/>
<path style="fill:#ED1F34;" d="M259.588,247.565h237.064v-86.972H197.367c-4.239,0-7.674-3.436-7.674-7.674V58.273H51.562v291.61  h138.131v-94.646c0-4.239,3.436-7.674,7.674-7.674h31.524c4.239,0,7.674,3.435,7.674,7.674h15.348  C251.913,251,255.349,247.565,259.588,247.565z M144.983,147.492c2.998,2.997,2.998,7.856,0,10.852  c-1.498,1.499-3.462,2.248-5.426,2.248c-1.963,0-3.927-0.75-5.426-2.248l-13.502-13.502l-13.503,13.502  c-1.499,1.499-3.462,2.248-5.426,2.248c-1.964,0-3.927-0.75-5.426-2.248c-2.996-2.996-2.996-7.856,0-10.852l13.503-13.502  l-13.503-13.503c-2.996-2.996-2.996-7.856,0-10.852c2.996-2.996,7.856-2.996,10.852,0l13.503,13.503l13.502-13.503  c2.997-2.996,7.856-2.996,10.852,0c2.998,2.996,2.998,7.856,0,10.852l-13.502,13.503L144.983,147.492z"/>
<path d="M504.326,42.925H43.888c-4.238,0-7.674,3.436-7.674,7.674v306.959c0,4.239,3.436,7.674,7.674,7.674h460.438  c4.239,0,7.674-3.436,7.674-7.674V50.599C512,46.361,508.565,42.925,504.326,42.925z M205.041,262.913h23.85  c4.239,0,7.674-3.435,7.674-7.674c0-4.239-3.436-7.674-7.674-7.674h-31.524c-4.239,0-7.674,3.435-7.674,7.674v94.646H51.562V58.273  h138.131v94.646c0,4.239,3.436,7.674,7.674,7.674h299.285v86.972H259.588c-4.239,0-7.674,3.435-7.674,7.674s3.436,7.674,7.674,7.674  h237.064v86.972H205.041V262.913z M496.652,145.245H205.041V58.273h291.611V145.245z"/>
<path style="fill:#FFFFFF;" d="M144.983,109.634c-2.996-2.996-7.856-2.996-10.852,0l-13.502,13.503l-13.503-13.503  c-2.996-2.996-7.856-2.996-10.852,0c-2.996,2.996-2.996,7.856,0,10.852l13.503,13.503l-13.503,13.502  c-2.996,2.997-2.996,7.856,0,10.852c1.499,1.499,3.462,2.248,5.426,2.248c1.964,0,3.927-0.75,5.426-2.248l13.503-13.502  l13.502,13.502c1.499,1.499,3.463,2.248,5.426,2.248c1.964,0,3.928-0.75,5.426-2.248c2.998-2.996,2.998-7.856,0-10.852  l-13.502-13.502l13.502-13.503C147.98,117.49,147.98,112.631,144.983,109.634z"/>
<path style="fill:#2E3033;" d="M20.97,482.004c-6.429,0-11.661-5.232-11.661-11.661V41.55c0-6.371,5.183-11.554,11.554-11.554h1.524  c6.431,0,11.661,5.232,11.661,11.661v428.685c0,6.431-5.232,11.661-11.661,11.661H20.97V482.004z"/>
<path d="M22.386,20.687h-1.524C9.359,20.687,0,30.046,0,41.55v428.793c0,11.563,9.407,20.97,20.97,20.97h1.415  c11.564,0,20.97-9.407,20.97-20.97V41.657C43.357,30.094,33.949,20.687,22.386,20.687z M27.841,470.343  c0,3.008-2.447,5.455-5.455,5.455h-1.415c-3.008,0-5.455-2.447-5.455-5.455V41.55c0-2.949,2.399-5.348,5.348-5.348h1.524  c3.008,0,5.455,2.447,5.455,5.455v428.686H27.841z"/>
<g>
</g>
<g>
</g>
<g>
</g>
<g>
</g>
<g>
</g>
<g>
</g>
<g>
</g>
<g>
</g>
<g>
</g>
<g>
</g>
<g>
</g>
<g>
</g>
<g>
</g>
<g>
</g>
<g>
</g>
</svg>
