<?xml version="1.0" encoding="iso-8859-1"?>
<!-- Generator: Adobe Illustrator 19.0.0, SVG Export Plug-In . SVG Version: 6.00 Build 0)  -->
<svg xmlns="http://www.w3.org/2000/svg" xmlns:xlink="http://www.w3.org/1999/xlink" version="1.1" id="Layer_1" x="0px" y="0px" viewBox="0 0 512 512" style="enable-background:new 0 0 512 512;" xml:space="preserve">
<g>
	<rect x="51.24" y="59.465" style="fill:#ED1F34;" width="123.97" height="103.737"/>
	<rect x="257.594" y="59.465" style="fill:#ED1F34;" width="236.065" height="103.737"/>
	<rect x="257.594" y="245.585" style="fill:#ED1F34;" width="236.065" height="103.737"/>
	<rect x="51.24" y="245.585" style="fill:#ED1F34;" width="123.97" height="103.737"/>
</g>
<g>
	<polygon style="fill:#FFFFFF;" points="257.594,59.465 246.151,59.465 246.151,174.646 493.659,174.646 493.659,163.205    257.594,163.205  "/>
	<path style="fill:#FFFFFF;" d="M175.212,163.205H51.24v11.442h22.884c4.213,0,7.628,3.415,7.628,7.628h15.256   c0-4.212,3.415-7.628,7.628-7.628h82.018V59.465h-11.442v103.74H175.212z"/>
	<polygon style="fill:#FFFFFF;" points="175.212,349.326 186.654,349.326 186.654,234.144 51.24,234.144 51.24,245.586    175.212,245.586  "/>
	<polygon style="fill:#FFFFFF;" points="257.594,245.586 493.659,245.586 493.659,234.144 246.151,234.144 246.151,349.326    257.594,349.326  "/>
</g>
<path style="fill:#164FCE;" d="M74.124,189.903H51.24v28.986h143.041c4.212,0,7.628,3.415,7.628,7.628v122.81h28.986v-122.81  c0-4.212,3.415-7.628,7.628-7.628h255.136v-28.986H238.522c-4.212,0-7.628-3.415-7.628-7.629V59.465h-28.986v122.809  c0,4.213-3.415,7.629-7.628,7.629h-89.646c-4.213,0-7.628-3.415-7.628-7.629H81.751C81.751,186.487,78.336,189.903,74.124,189.903z"/>
<path d="M504.371,44.209H46.696c-4.212,0-7.628,3.415-7.628,7.628v305.117c0,4.213,3.415,7.628,7.628,7.628h457.676  c4.214,0,7.629-3.415,7.629-7.628V51.836C512,47.624,508.586,44.209,504.371,44.209z M186.654,174.646h-82.018  c-4.213,0-7.628,3.415-7.628,7.628c0,4.213,3.415,7.629,7.628,7.629h89.646c4.212,0,7.628-3.415,7.628-7.629V59.465h28.986v122.809  c0,4.213,3.415,7.629,7.628,7.629h255.136v28.986H238.523c-4.212,0-7.628,3.415-7.628,7.628v122.81H201.91v-122.81  c0-4.212-3.415-7.628-7.628-7.628H51.24v-28.986h22.884c4.213,0,7.628-3.415,7.628-7.629c0-4.212-3.415-7.628-7.628-7.628H51.24  v-11.442V59.465h123.972h11.442V174.646z M493.659,163.205v11.442H246.151V59.465h11.442h236.066v103.74H493.659z M51.24,245.586  v-11.442h135.414v115.181h-11.442H51.24V245.586z M246.151,234.144h247.509v11.442v103.74H257.594h-11.443V234.144z"/>
<path style="fill:#2E3033;" d="M20.844,480.643c-6.391,0-11.591-5.2-11.591-11.591V42.841c0-6.332,5.152-11.484,11.484-11.484h1.514  c6.392,0,11.591,5.2,11.591,11.591v426.102c0,6.392-5.2,11.591-11.591,11.591h-1.407V480.643z"/>
<path d="M22.251,22.104h-1.514C9.302,22.104,0,31.407,0,42.841v426.21c0,11.494,9.351,20.844,20.844,20.844h1.406  c11.494,0,20.844-9.351,20.844-20.844V42.948C43.095,31.455,33.745,22.104,22.251,22.104z M27.674,469.052  c0,2.99-2.433,5.422-5.422,5.422h-1.406c-2.99,0-5.422-2.432-5.422-5.422V42.841c0-2.931,2.384-5.315,5.315-5.315h1.514  c2.99,0,5.422,2.433,5.422,5.422v426.103H27.674z"/>
<g>
</g>
<g>
</g>
<g>
</g>
<g>
</g>
<g>
</g>
<g>
</g>
<g>
</g>
<g>
</g>
<g>
</g>
<g>
</g>
<g>
</g>
<g>
</g>
<g>
</g>
<g>
</g>
<g>
</g>
</svg>
