<?xml version="1.0" encoding="iso-8859-1"?>
<!-- Generator: Adobe Illustrator 19.0.0, SVG Export Plug-In . SVG Version: 6.00 Build 0)  -->
<svg xmlns="http://www.w3.org/2000/svg" xmlns:xlink="http://www.w3.org/1999/xlink" version="1.1" id="Layer_1" x="0px" y="0px" viewBox="0 0 511.999 511.999" style="enable-background:new 0 0 511.999 511.999;" xml:space="preserve">
<g>
	<path style="fill:#ED1F34;" d="M39.132,297.256v55.167h457.106V52.94H39.132v212.79c0,4.354-3.529,7.881-7.881,7.881v15.764   C35.603,289.375,39.132,292.902,39.132,297.256z M267.685,71.035c64.543,0,117.05,52.51,117.05,117.052   c0,51.245-33.105,94.9-79.049,110.714l1.138,26.728c0.035,0.303,0.053,0.608,0.053,0.919c0,4.353-3.529,7.882-7.881,7.882   c-0.008-0.002-0.015-0.002-0.021,0h-62.581c-2.148,0-4.204-0.877-5.69-2.428c-1.486-1.552-2.275-3.642-2.184-5.789l1.163-27.311   c-45.945-15.814-79.049-59.468-79.049-110.714C150.634,123.544,203.143,71.035,267.685,71.035z"/>
	<path style="fill:#ED1F34;" d="M225.495,266.852c-2.641-1.919-3.826-5.268-2.979-8.421l10.297-38.317l-30.854-24.946   c-2.539-2.053-3.549-5.459-2.54-8.565c1.008-3.105,3.827-5.268,7.088-5.435l28.245-1.458l2.58-60.608   c0.18-4.218,3.652-7.546,7.874-7.546h44.953c4.222,0,7.695,3.328,7.874,7.546l2.58,60.608l28.245,1.458   c3.261,0.168,6.08,2.331,7.088,5.435c1.009,3.106-0.001,6.512-2.54,8.565l-30.854,24.946l10.297,38.317   c0.848,3.154-0.337,6.502-2.979,8.421c-1.378,1.002-3.004,1.506-4.632,1.506c-0.286,0-0.57-0.03-0.854-0.061l0.595,13.96   c37.447-14.884,63.99-51.485,63.99-94.171c0-55.852-45.437-101.289-101.289-101.289c-55.85,0-101.289,45.436-101.289,101.289   c0,42.687,26.543,79.289,63.992,94.171l0.594-13.954C229.075,268.512,227.115,268.029,225.495,266.852z"/>
</g>
<path style="fill:#FFFFFF;" d="M229.683,298.8l0.704-16.542c-37.447-14.883-63.992-51.485-63.992-94.171  c0-55.852,45.437-101.289,101.289-101.289s101.289,45.436,101.289,101.289c0,42.687-26.543,79.288-63.99,94.171l0.704,16.542  c45.944-15.815,79.049-59.468,79.049-110.714c0-64.543-52.509-117.051-117.05-117.051s-117.05,52.51-117.05,117.051  C150.634,239.332,183.738,282.987,229.683,298.8z"/>
<g>
	<path style="fill:#B3B3B3;" d="M267.685,137.006c3.265,0,6.192,2.014,7.36,5.063l9.216,24.062l-1.653-38.813H252.76l-1.653,38.813   l9.216-24.062C261.493,139.019,264.419,137.006,267.685,137.006z"/>
	<polygon style="fill:#B3B3B3;" points="267.685,245.449 247.163,258.798 244.618,318.565 290.751,318.565 288.206,258.798  "/>
</g>
<path d="M304.388,268.298c0.284,0.03,0.568,0.061,0.854,0.061c1.628,0,3.255-0.505,4.632-1.506c2.642-1.919,3.826-5.268,2.979-8.421  l-10.297-38.317l30.854-24.946c2.539-2.053,3.549-5.459,2.54-8.565c-1.008-3.105-3.827-5.268-7.088-5.435l-28.245-1.458  l-2.58-60.608c-0.18-4.218-3.652-7.546-7.874-7.546h-44.954c-4.222,0-7.695,3.328-7.874,7.546l-2.58,60.608l-28.245,1.458  c-3.261,0.168-6.08,2.331-7.088,5.435c-1.009,3.106,0.001,6.512,2.54,8.565l30.854,24.946l-10.297,38.317  c-0.848,3.154,0.338,6.502,2.979,8.421c1.62,1.177,3.581,1.66,5.486,1.452l-0.594,13.954l-0.704,16.542l-1.163,27.311  c-0.091,2.147,0.697,4.237,2.184,5.789c1.486,1.551,3.542,2.428,5.69,2.428h62.581c0.006-0.002,0.013-0.002,0.021,0  c4.353,0,7.881-3.529,7.881-7.882c0-0.311-0.018-0.616-0.053-0.919l-1.138-26.728l-0.704-16.542L304.388,268.298z M252.761,127.316  h29.848l1.653,38.813l-9.216-24.062c-1.168-3.049-4.095-5.063-7.36-5.063c-3.265,0-6.192,2.014-7.36,5.063l-9.216,24.062  L252.761,127.316z M244.618,318.565l2.545-59.768l20.521-13.348l20.521,13.348l2.545,59.768H244.618z M288.66,211.081  c-2.424,1.96-3.465,5.164-2.657,8.173l6.287,23.397l-20.309-13.21c-1.307-0.851-2.801-1.276-4.297-1.276  c-1.496,0-2.99,0.425-4.297,1.276l-20.309,13.21l6.287-23.397c0.808-3.009-0.233-6.214-2.656-8.173l-18.839-15.233l24.195-1.251  c3.112-0.16,5.838-2.141,6.953-5.052l8.665-22.624l8.666,22.625c1.114,2.911,3.84,4.891,6.952,5.052l24.195,1.251L288.66,211.081z"/>
<path d="M504.119,37.178H31.25c-4.352,0-7.881,3.528-7.881,7.882v220.671c0,4.354,3.529,7.881,7.881,7.881s7.881-3.527,7.881-7.881  V52.94h457.106v299.483H39.132v-55.167c0-4.354-3.529-7.881-7.881-7.881s-7.882,3.527-7.882,7.881v63.048  c0,4.353,3.529,7.882,7.881,7.882h472.868c4.353,0,7.881-3.529,7.881-7.882V45.06C512,40.706,508.471,37.178,504.119,37.178z"/>
<path style="fill:#FFFFFF;" d="M283.304,194.597c-3.112-0.16-5.838-2.141-6.952-5.052l-8.667-22.624l-8.666,22.625  c-1.115,2.911-3.841,4.891-6.953,5.052l-24.195,1.251l18.839,15.233c2.424,1.96,3.465,5.164,2.656,8.173l-6.287,23.397l20.309-13.21  c1.307-0.851,2.801-1.276,4.297-1.276c1.496,0,2.99,0.425,4.297,1.276l20.309,13.21l-6.287-23.397  c-0.808-3.009,0.233-6.214,2.657-8.173l18.839-15.233L283.304,194.597z"/>
<path style="fill:#2E3033;" d="M21.536,488.099c-6.603,0-11.976-5.373-11.976-11.976V35.765c0-6.542,5.323-11.865,11.865-11.865  h1.565c6.604,0,11.976,5.373,11.976,11.976v440.247c0,6.604-5.373,11.976-11.976,11.976h-1.454V488.099z"/>
<path d="M22.99,14.34h-1.565C9.611,14.34,0,23.951,0,35.765v440.358c0,11.876,9.661,21.536,21.536,21.536h1.453  c11.876,0,21.536-9.661,21.536-21.536V35.876C44.526,24.001,34.865,14.34,22.99,14.34z M28.592,476.123  c0,3.089-2.513,5.602-5.602,5.602h-1.453c-3.089,0-5.602-2.513-5.602-5.602V35.765c0-3.028,2.463-5.492,5.492-5.492h1.565  c3.089,0,5.602,2.513,5.602,5.602v440.248H28.592z"/>
<g>
</g>
<g>
</g>
<g>
</g>
<g>
</g>
<g>
</g>
<g>
</g>
<g>
</g>
<g>
</g>
<g>
</g>
<g>
</g>
<g>
</g>
<g>
</g>
<g>
</g>
<g>
</g>
<g>
</g>
</svg>
