<?xml version="1.0" encoding="iso-8859-1"?>
<!-- Generator: Adobe Illustrator 19.0.0, SVG Export Plug-In . SVG Version: 6.00 Build 0)  -->
<svg xmlns="http://www.w3.org/2000/svg" xmlns:xlink="http://www.w3.org/1999/xlink" version="1.1" id="Layer_1" x="0px" y="0px" viewBox="0 0 512 512" style="enable-background:new 0 0 512 512;" xml:space="preserve">
<g>
	<rect x="39.132" y="334.032" style="fill:#FFFFFF;" width="457.103" height="18.39"/>
	<rect x="39.132" y="52.941" style="fill:#FFFFFF;" width="457.103" height="18.39"/>
</g>
<rect x="39.132" y="71.329" style="fill:#ED1F34;" width="457.103" height="18.39"/>
<path style="fill:#FFFFFF;" d="M94.299,299.883h401.938V105.482H39.132v194.401h23.643c4.353,0,7.881,3.529,7.881,7.882h15.763  C86.419,303.412,89.947,299.883,94.299,299.883z M316.972,172.853c0.168-3.261,2.329-6.08,5.434-7.089  c3.105-1.007,6.512,0.001,8.565,2.541l10.414,12.882l15.997-4.3c3.151-0.847,6.502,0.337,8.421,2.979  c1.919,2.641,2.012,6.193,0.23,8.929l-9.032,13.888l8.748,13.45c0.993,1.318,1.58,2.957,1.58,4.734c0,4.305-3.452,7.804-7.74,7.88  c-0.734,0.017-1.475-0.072-2.207-0.269l-15.997-4.3l-10.414,12.882c-1.523,1.884-3.791,2.926-6.13,2.926  c-0.813,0-1.634-0.126-2.435-0.387c-3.105-1.009-5.267-3.828-5.434-7.089l-0.854-16.544l-15.468-5.925  c-3.049-1.168-5.063-4.095-5.063-7.36s2.014-6.192,5.063-7.36l15.468-5.925L316.972,172.853z M249.5,121.244  c22.429,0,44.052,9.381,59.408,25.752c1.517,1.437,2.462,3.47,2.462,5.724c0,4.299-3.442,7.794-7.72,7.88  c-1.302,0.039-2.633-0.263-3.855-0.907c-7.027-3.702-14.631-5.58-22.602-5.58c-26.781,0-48.57,21.789-48.57,48.571  c0,26.781,21.789,48.57,48.57,48.57c7.971,0,15.576-1.878,22.602-5.58c3.394-1.789,7.59-0.872,9.927,2.175  c2.337,3.046,2.138,7.335-0.471,10.152c-15.376,16.6-37.155,26.121-59.751,26.121c-44.905,0-81.439-36.533-81.439-81.439  S204.594,121.244,249.5,121.244z"/>
<path style="fill:#ED1F34;" d="M496.237,315.645H94.299c-4.353,0-7.881-3.529-7.881-7.881H70.656c0,4.352-3.529,7.881-7.881,7.881  H39.132v18.389h457.106L496.237,315.645L496.237,315.645z"/>
<path d="M504.118,37.178H31.25c-4.352,0-7.881,3.529-7.881,7.881v315.245c0,4.353,3.529,7.881,7.881,7.881h472.868  c4.354,0,7.882-3.529,7.882-7.881V45.059C512,40.707,508.472,37.178,504.118,37.178z M496.237,52.941v18.388v18.39H39.132v-18.39  V52.941H496.237z M39.132,352.424v-18.39v-18.389h23.643c4.353,0,7.881-3.529,7.881-7.881c0-4.353-3.529-7.882-7.881-7.882H39.132  V105.482h457.106v194.401H94.299c-4.353,0-7.881,3.529-7.881,7.882c0,4.352,3.529,7.881,7.881,7.881h401.938v18.39v18.389  L39.132,352.424L39.132,352.424z"/>
<path style="fill:#ED1F34;" d="M249.5,268.358c5.763,0,11.458-0.768,16.946-2.241c-30.375-5.13-53.585-31.623-53.585-63.434  c0-31.812,23.211-58.305,53.585-63.435c-5.488-1.473-11.183-2.241-16.946-2.241c-36.214,0-65.676,29.462-65.676,65.676  S213.286,268.358,249.5,268.358z"/>
<path d="M249.5,284.121c22.596,0,44.375-9.52,59.751-26.12c2.609-2.817,2.809-7.105,0.471-10.152  c-2.337-3.048-6.532-3.964-9.927-2.175c-7.027,3.702-14.631,5.58-22.602,5.58c-26.781,0-48.57-21.789-48.57-48.57  s21.789-48.571,48.57-48.571c7.971,0,15.576,1.878,22.602,5.58c1.222,0.645,2.553,0.946,3.855,0.907  c4.278-0.086,7.72-3.581,7.72-7.88c0-2.254-0.946-4.287-2.462-5.724c-15.356-16.371-36.979-25.752-59.408-25.752  c-44.905,0-81.439,36.534-81.439,81.439S204.594,284.121,249.5,284.121z M249.5,137.007c5.763,0,11.458,0.768,16.946,2.241  c-30.375,5.13-53.585,31.623-53.585,63.435s23.211,58.305,53.585,63.434c-5.488,1.473-11.183,2.241-16.946,2.241  c-36.214,0-65.676-29.462-65.676-65.676S213.286,137.007,249.5,137.007z"/>
<path style="fill:#ED1F34;" d="M331.594,210.036l0.058,1.111l0.698-0.865c1.961-2.424,5.167-3.463,8.174-2.656l1.077,0.29  l-0.608-0.936c-1.7-2.612-1.7-5.981,0-8.594l0.608-0.937l-1.077,0.29c-3.01,0.807-6.214-0.233-8.174-2.656l-0.698-0.865  l-0.058,1.111c-0.16,3.112-2.14,5.838-5.052,6.953l-1.042,0.399l1.042,0.398C329.454,204.197,331.434,206.922,331.594,210.036z"/>
<path d="M295.589,202.683c0,3.264,2.014,6.192,5.063,7.36l15.468,5.925l0.854,16.544c0.168,3.261,2.329,6.08,5.434,7.089  c0.801,0.26,1.622,0.387,2.435,0.387c2.338,0,4.607-1.042,6.13-2.926l10.414-12.882l15.997,4.3c0.732,0.197,1.473,0.286,2.207,0.269  c4.287-0.075,7.74-3.574,7.74-7.88c0-1.777-0.587-3.416-1.58-4.734l-8.748-13.45l9.032-13.888c1.781-2.737,1.689-6.288-0.231-8.929  c-1.919-2.642-5.271-3.825-8.421-2.979l-15.997,4.3l-10.414-12.882c-2.053-2.539-5.46-3.548-8.565-2.541  c-3.105,1.009-5.267,3.828-5.434,7.089l-0.854,16.544l-15.468,5.925C297.602,196.491,295.589,199.418,295.589,202.683z   M326.542,202.284c2.912-1.115,4.891-3.841,5.052-6.953l0.058-1.111l0.698,0.865c1.961,2.424,5.164,3.464,8.174,2.656l1.077-0.29  l-0.608,0.937c-1.7,2.612-1.7,5.98,0,8.594l0.608,0.936l-1.077-0.29c-3.007-0.806-6.214,0.232-8.174,2.656l-0.698,0.865  l-0.058-1.111c-0.16-3.113-2.14-5.839-5.052-6.953l-1.042-0.398L326.542,202.284z"/>
<path style="fill:#2E3033;" d="M21.536,488.1c-6.603,0-11.976-5.373-11.976-11.976V35.766c0-6.542,5.323-11.865,11.865-11.865h1.565  c6.604,0,11.976,5.373,11.976,11.976v440.247c0,6.604-5.373,11.976-11.976,11.976h-1.454V488.1z"/>
<path d="M22.99,14.34h-1.565C9.611,14.34,0,23.951,0,35.766v440.358C0,488,9.661,497.66,21.536,497.66h1.453  c11.876,0,21.536-9.661,21.536-21.536V35.876C44.526,24.001,34.865,14.34,22.99,14.34z M28.592,476.124  c0,3.089-2.513,5.602-5.602,5.602h-1.453c-3.089,0-5.602-2.513-5.602-5.602V35.766c0-3.028,2.463-5.492,5.492-5.492h1.565  c3.089,0,5.602,2.513,5.602,5.602v440.248H28.592z"/>
<g>
</g>
<g>
</g>
<g>
</g>
<g>
</g>
<g>
</g>
<g>
</g>
<g>
</g>
<g>
</g>
<g>
</g>
<g>
</g>
<g>
</g>
<g>
</g>
<g>
</g>
<g>
</g>
<g>
</g>
</svg>
