<?xml version="1.0" encoding="iso-8859-1"?>
<!-- Generator: Adobe Illustrator 19.0.0, SVG Export Plug-In . SVG Version: 6.00 Build 0)  -->
<svg xmlns="http://www.w3.org/2000/svg" xmlns:xlink="http://www.w3.org/1999/xlink" version="1.1" id="Layer_1" x="0px" y="0px" viewBox="0 0 512 512" style="enable-background:new 0 0 512 512;" xml:space="preserve">
<g>
	<rect x="50.63" y="57.873" style="fill:#103B9B;" width="445.989" height="36.913"/>
	<rect x="50.63" y="313.16" style="fill:#103B9B;" width="445.989" height="36.913"/>
</g>
<rect x="50.63" y="295.737" style="fill:#FFFFFF;" width="445.989" height="17.426"/>
<path style="fill:#ED1F34;" d="M442.795,127.591H50.63v152.766h445.992V127.591h-23.069c-4.247,0-7.689-3.442-7.689-7.689h-15.38  C450.483,124.149,447.041,127.591,442.795,127.591z M160.846,260.875c-31.376,0-56.902-25.526-56.902-56.901  s25.526-56.902,56.902-56.902s56.901,25.527,56.901,56.902S192.223,260.875,160.846,260.875z"/>
<path style="fill:#FFFFFF;" d="M160.846,147.07c-31.376,0-56.902,25.527-56.902,56.902s25.526,56.901,56.902,56.901  s56.901-25.526,56.901-56.901S192.223,147.07,160.846,147.07z M208.131,189.446c0.984,3.031-0.001,6.353-2.478,8.356l-19.028,15.385  l6.351,23.631c0.827,3.077-0.329,6.344-2.907,8.217c-1.344,0.976-2.93,1.469-4.519,1.469c-1.456,0-2.915-0.413-4.193-1.244  l-20.511-13.341l-20.511,13.341c-2.672,1.737-6.137,1.648-8.713-0.225c-2.577-1.873-3.733-5.14-2.906-8.217l6.35-23.631  l-19.027-15.385c-2.477-2.002-3.462-5.325-2.478-8.356c0.984-3.03,3.735-5.14,6.916-5.303l24.436-1.262l8.752-22.851  c1.14-2.975,3.994-4.94,7.181-4.94s6.041,1.965,7.181,4.94l8.752,22.851l24.435,1.262  C204.397,184.307,207.148,186.417,208.131,189.446z"/>
<path style="fill:#ED1F34;" d="M164.207,193.053l-3.36-8.774l-3.36,8.774c-1.087,2.839-3.747,4.772-6.785,4.928l-9.382,0.485  l7.306,5.907c2.364,1.912,3.38,5.037,2.591,7.974l-2.439,9.073l7.875-5.122c1.275-0.829,2.735-1.243,4.193-1.243  s2.917,0.414,4.193,1.243l7.875,5.122l-2.439-9.073c-0.789-2.937,0.227-6.063,2.591-7.974l7.306-5.907l-9.382-0.485  C167.954,197.824,165.293,195.892,164.207,193.053z"/>
<path d="M168.027,160.029c-1.14-2.975-3.994-4.94-7.181-4.94s-6.041,1.965-7.181,4.94l-8.752,22.851l-24.436,1.262  c-3.181,0.164-5.933,2.274-6.916,5.303c-0.984,3.031,0.001,6.353,2.478,8.356l19.027,15.385l-6.35,23.631  c-0.827,3.077,0.329,6.344,2.906,8.217s6.041,1.962,8.713,0.225l20.511-13.341l20.511,13.341c1.277,0.831,2.737,1.244,4.193,1.244  c1.589,0,3.175-0.492,4.519-1.469c2.578-1.873,3.734-5.14,2.907-8.217l-6.351-23.631l19.028-15.385  c2.477-2.002,3.462-5.325,2.478-8.356c-0.984-3.03-3.735-5.14-6.917-5.303l-24.435-1.262L168.027,160.029z M173.066,204.373  c-2.364,1.912-3.38,5.037-2.591,7.974l2.439,9.073l-7.875-5.122c-1.276-0.829-2.735-1.243-4.193-1.243s-2.918,0.414-4.193,1.243  l-7.875,5.122l2.439-9.073c0.789-2.937-0.227-6.063-2.591-7.974l-7.306-5.907l9.382-0.485c3.038-0.156,5.697-2.089,6.785-4.928  l3.36-8.774l3.36,8.774c1.087,2.839,3.747,4.772,6.785,4.928l9.382,0.485L173.066,204.373z"/>
<path style="fill:#FFFFFF;" d="M50.63,112.213h392.165c4.247,0,7.689,3.442,7.689,7.689h15.38c0-4.247,3.442-7.689,7.689-7.689  h23.069V94.785H50.63V112.213z"/>
<path d="M504.311,42.494H42.941c-4.247,0-7.689,3.442-7.689,7.689v307.58c0,4.248,3.442,7.69,7.689,7.69h461.37  c4.247,0,7.689-3.442,7.689-7.69V50.183C512,45.936,508.558,42.494,504.311,42.494z M496.621,57.873v36.913v17.427h-23.069  c-4.247,0-7.689,3.442-7.689,7.689c0,4.247,3.442,7.689,7.689,7.689h23.069v152.766H50.63V127.591h392.165  c4.247,0,7.689-3.442,7.689-7.689c0-4.247-3.442-7.689-7.689-7.689H50.63V94.785V57.873H496.621z M50.63,350.074v-36.913v-17.426  h445.992v17.426v36.913H50.63z"/>
<path style="fill:#2E3033;" d="M21.013,482.462c-6.442,0-11.685-5.242-11.685-11.685V41.115c0-6.383,5.194-11.577,11.577-11.577  h1.527c6.444,0,11.685,5.242,11.685,11.685v429.552c0,6.444-5.242,11.685-11.685,11.685h-1.419V482.462z"/>
<path d="M22.432,20.211h-1.527C9.378,20.211,0,29.588,0,41.115v429.661c0,11.587,9.426,21.013,21.013,21.013h1.418  c11.587,0,21.013-9.426,21.013-21.013V41.223C43.444,29.637,34.018,20.211,22.432,20.211z M27.898,470.777  c0,3.014-2.452,5.466-5.466,5.466h-1.418c-3.014,0-5.466-2.452-5.466-5.466V41.115c0-2.955,2.403-5.358,5.358-5.358h1.527  c3.014,0,5.466,2.452,5.466,5.466v429.553H27.898z"/>
<g>
</g>
<g>
</g>
<g>
</g>
<g>
</g>
<g>
</g>
<g>
</g>
<g>
</g>
<g>
</g>
<g>
</g>
<g>
</g>
<g>
</g>
<g>
</g>
<g>
</g>
<g>
</g>
<g>
</g>
</svg>
