<?xml version="1.0" encoding="iso-8859-1"?>
<!-- Generator: Adobe Illustrator 19.0.0, SVG Export Plug-In . SVG Version: 6.00 Build 0)  -->
<svg xmlns="http://www.w3.org/2000/svg" xmlns:xlink="http://www.w3.org/1999/xlink" version="1.1" id="Layer_1" x="0px" y="0px" viewBox="0 0 512 512" style="enable-background:new 0 0 512 512;" xml:space="preserve">
<path style="fill:#FFFFFF;" d="M359.631,297.236V52.94H175.737v299.461H359.63v-23.641c0-4.354,3.529-7.882,7.882-7.882v-15.76  C363.16,305.117,359.631,301.589,359.631,297.236z M328.127,273.345c-0.005,0-0.014,0.001-0.021,0h-52.539v30.739  c0,4.353-3.529,7.882-7.882,7.882c-4.353,0-7.882-3.529-7.882-7.882v-30.739h-52.541c-2.576,0-4.989-1.259-6.464-3.373  c-1.474-2.112-1.822-4.811-0.934-7.23l60.423-164.21c1.141-3.1,4.094-5.159,7.396-5.159s6.256,2.06,7.396,5.159l60.223,163.67  c0.454,0.993,0.704,2.098,0.704,3.261C336.008,269.818,332.48,273.345,328.127,273.345z"/>
<g>
	<path style="fill:#259245;" d="M375.393,297.236c0,4.353-3.528,7.881-7.881,7.881v15.76c4.353,0,7.881,3.528,7.881,7.882v23.641   h120.845V52.94H375.393V297.236z"/>
	<rect x="39.132" y="52.94" style="fill:#259245;" width="120.84" height="299.456"/>
</g>
<path d="M504.118,37.178H31.251c-4.354,0-7.882,3.528-7.882,7.881V360.28c0,4.353,3.528,7.882,7.882,7.882h472.867  c4.354,0,7.882-3.529,7.882-7.882V45.059C512,40.706,508.472,37.178,504.118,37.178z M496.237,352.401H375.393v-23.641  c0-4.354-3.528-7.882-7.881-7.882c-4.353,0-7.882,3.528-7.882,7.882v23.641H175.737V52.94H359.63v244.296  c0,4.353,3.529,7.881,7.882,7.881c4.353,0,7.881-3.528,7.881-7.881V52.94h120.845V352.401z M39.132,52.94h120.844v299.461H39.132  V52.94z"/>
<path style="fill:#259245;" d="M316.809,257.585l-49.124-133.508L218.56,257.586h41.243v-30.74c0-4.353,3.529-7.881,7.882-7.881  s7.882,3.528,7.882,7.881v30.74h41.243V257.585z"/>
<path d="M275.081,98.533c-1.141-3.1-4.094-5.159-7.396-5.159c-3.303,0-6.256,2.06-7.396,5.159l-60.423,164.211  c-0.888,2.418-0.541,5.117,0.934,7.23c1.474,2.114,3.888,3.373,6.464,3.373h52.541v30.739c0,4.353,3.529,7.882,7.882,7.882  s7.882-3.529,7.882-7.882v-30.739h52.541c0.007,0.001,0.016,0,0.021,0c4.353,0,7.881-3.528,7.881-7.881  c0-1.164-0.251-2.269-0.704-3.261L275.081,98.533z M267.685,218.964c-4.353,0-7.882,3.528-7.882,7.881v30.74H218.56l49.124-133.508  l49.124,133.509h-41.243v-30.74C275.566,222.492,272.038,218.964,267.685,218.964z"/>
<path style="fill:#2E3033;" d="M21.536,488.1c-6.603,0-11.976-5.373-11.976-11.976V35.766c0-6.542,5.323-11.865,11.865-11.865h1.565  c6.604,0,11.976,5.373,11.976,11.976v440.247c0,6.604-5.373,11.976-11.976,11.976h-1.454V488.1z"/>
<path d="M22.99,14.34h-1.565C9.611,14.34,0,23.951,0,35.766v440.358C0,488,9.661,497.66,21.536,497.66h1.453  c11.876,0,21.536-9.661,21.536-21.536V35.876C44.526,24.001,34.865,14.34,22.99,14.34z M28.592,476.124  c0,3.089-2.513,5.602-5.602,5.602h-1.453c-3.089,0-5.602-2.513-5.602-5.602V35.766c0-3.028,2.463-5.492,5.492-5.492h1.565  c3.089,0,5.602,2.513,5.602,5.602v440.248H28.592z"/>
<g>
</g>
<g>
</g>
<g>
</g>
<g>
</g>
<g>
</g>
<g>
</g>
<g>
</g>
<g>
</g>
<g>
</g>
<g>
</g>
<g>
</g>
<g>
</g>
<g>
</g>
<g>
</g>
<g>
</g>
</svg>
