<?xml version="1.0" encoding="iso-8859-1"?>
<!-- Generator: Adobe Illustrator 19.0.0, SVG Export Plug-In . SVG Version: 6.00 Build 0)  -->
<svg xmlns="http://www.w3.org/2000/svg" xmlns:xlink="http://www.w3.org/1999/xlink" version="1.1" id="Layer_1" x="0px" y="0px" viewBox="0 0 512 512" style="enable-background:new 0 0 512 512;" xml:space="preserve">
<path style="fill:#FFE000;" d="M496.237,76.594V52.952H275.565v149.742c0,2.09-0.83,4.094-2.307,5.573  c-1.48,1.479-3.483,2.308-5.574,2.308L39.132,210.57v141.865h457.106V108.12c0-4.353,3.528-7.882,7.881-7.882V84.476  C499.765,84.476,496.237,80.947,496.237,76.594z"/>
<g>
	<polygon style="fill:#103B9B;" points="217.501,52.952 170.747,52.952 170.747,84.121  "/>
	<polygon style="fill:#103B9B;" points="259.803,102.602 259.803,75.898 219.747,102.602  "/>
	<polygon style="fill:#103B9B;" points="259.803,171.864 259.803,145.159 219.748,145.159  "/>
	<polygon style="fill:#103B9B;" points="128.189,52.952 81.434,52.952 128.189,84.121  "/>
	<polygon style="fill:#103B9B;" points="39.132,75.898 39.132,102.602 79.188,102.602  "/>
	<polygon style="fill:#103B9B;" points="170.747,194.81 217.5,194.811 170.747,163.641  "/>
	<polygon style="fill:#103B9B;" points="39.132,145.159 39.132,171.864 79.188,145.159  "/>
	<polygon style="fill:#103B9B;" points="81.439,194.808 128.189,194.809 128.189,163.641  "/>
</g>
<g>
	<polygon style="fill:#ED1F34;" points="91.812,102.602 117.549,102.602 43.073,52.952 39.132,52.952 39.132,67.397  "/>
	<polygon style="fill:#ED1F34;" points="170.747,102.602 181.386,102.602 255.863,52.952 230.29,52.952 170.747,92.651  "/>
	<polygon style="fill:#ED1F34;" points="181.386,145.159 255.863,194.811 259.803,194.811 259.803,180.739 206.56,145.159  "/>
	<polygon style="fill:#ED1F34;" points="128.189,145.159 117.549,145.159 43.079,194.806 68.653,194.808 128.189,155.116  "/>
</g>
<g>
	<path style="fill:#FFFFFF;" d="M173.127,135.308c-2.578,5.329-6.904,9.654-12.233,12.233v47.268h9.851V163.64l46.753,31.169   l38.363,0.001l-74.477-49.651h25.174l53.243,35.58v-8.875l-40.055-26.705h40.055v-9.851   C259.802,135.308,173.127,135.308,173.127,135.308z"/>
	<path style="fill:#FFFFFF;" d="M138.039,147.541c-5.328-2.579-9.654-6.905-12.233-12.233H39.132v9.851h40.056l-40.056,26.705   v22.942h3.947l74.469-49.647h10.64v9.956l-59.536,39.692h12.786l46.75-31.166v31.167h9.85V147.541z"/>
	<path style="fill:#FFFFFF;" d="M160.895,100.221c5.329,2.578,9.655,6.904,12.233,12.233h86.676v-9.852h-40.056l40.056-26.704   V52.952h-3.94l-74.478,49.65h-10.639v-9.951l59.543-39.699h-12.788l-46.755,31.169V52.952h-9.851L160.895,100.221L160.895,100.221z   "/>
	<path style="fill:#FFFFFF;" d="M91.812,102.602l-52.68-35.205v8.5l40.056,26.705H39.132v9.851h86.676   c2.579-5.329,6.905-9.654,12.233-12.233v-47.27h-9.85V84.12L81.434,52.952H43.073l74.476,49.65H91.812z"/>
</g>
<g>
	<path style="fill:#ED1F34;" d="M138.039,100.221c3.455-1.672,7.332-2.611,11.429-2.611c4.095,0,7.972,0.938,11.428,2.611v-47.27   h-22.856V100.221z M149.468,68.01c4.352,0,7.881,3.529,7.881,7.881c0,4.353-3.529,7.882-7.881,7.882   c-4.353,0-7.882-3.529-7.882-7.882C141.586,71.539,145.115,68.01,149.468,68.01z"/>
	<path style="fill:#ED1F34;" d="M173.127,112.453c1.672,3.455,2.61,7.332,2.61,11.428c0,4.096-0.938,7.973-2.61,11.428h86.676   v-22.855C259.803,112.453,173.127,112.453,173.127,112.453z M218.033,116c4.353,0,7.882,3.529,7.882,7.881   c0,4.353-3.529,7.882-7.882,7.882s-7.881-3.529-7.881-7.882C210.153,119.529,213.68,116,218.033,116z"/>
	<path style="fill:#ED1F34;" d="M125.808,135.308c-1.672-3.454-2.61-7.332-2.61-11.428c0-4.095,0.938-7.972,2.61-11.428H39.132   v22.855C39.132,135.308,125.808,135.308,125.808,135.308z M80.901,131.762c-4.353,0-7.881-3.529-7.881-7.882   c0-4.352,3.528-7.881,7.881-7.881c4.353,0,7.881,3.529,7.881,7.881C88.782,128.234,85.254,131.762,80.901,131.762z"/>
	<path style="fill:#ED1F34;" d="M160.895,147.541c-3.455,1.672-7.332,2.61-11.428,2.61c-4.096,0-7.973-0.938-11.429-2.61v47.268   h22.856V147.541z M149.468,179.751c-4.353,0-7.882-3.529-7.882-7.881c0-4.352,3.529-7.881,7.882-7.881   c4.352,0,7.881,3.528,7.881,7.881C157.349,176.224,153.82,179.751,149.468,179.751z"/>
</g>
<path style="fill:#164FCE;" d="M123.198,123.881c0,4.096,0.938,7.973,2.61,11.428c2.579,5.329,6.905,9.654,12.233,12.233  c3.455,1.672,7.332,2.61,11.429,2.61c4.095,0,7.972-0.938,11.428-2.61c5.329-2.579,9.655-6.905,12.233-12.233  c1.672-3.454,2.61-7.332,2.61-11.428c0-4.095-0.938-7.972-2.61-11.428c-2.578-5.329-6.903-9.654-12.233-12.233  c-3.455-1.672-7.332-2.611-11.428-2.611c-4.096,0-7.973,0.938-11.429,2.611c-5.328,2.578-9.654,6.904-12.233,12.233  C124.135,115.909,123.198,119.786,123.198,123.881z M149.468,108.119c8.704,0,15.763,7.058,15.763,15.762  c0,8.705-7.059,15.763-15.763,15.763c-8.705,0-15.763-7.058-15.763-15.763S140.763,108.119,149.468,108.119z"/>
<g>
	<circle style="fill:#FFE000;" cx="149.468" cy="123.879" r="15.763"/>
	<circle style="fill:#FFE000;" cx="149.468" cy="75.886" r="7.881"/>
	<circle style="fill:#FFE000;" cx="80.9" cy="123.879" r="7.881"/>
	<circle style="fill:#FFE000;" cx="218.036" cy="123.879" r="7.881"/>
	<circle style="fill:#FFE000;" cx="149.468" cy="171.871" r="7.881"/>
</g>
<path d="M496.237,108.119v244.315H39.132V210.569l228.553,0.004c2.09,0,4.094-0.83,5.574-2.308c1.478-1.479,2.307-3.482,2.307-5.573  V52.952h220.672v23.643c0,4.353,3.528,7.881,7.881,7.881c4.354,0,7.882-3.529,7.882-7.881V45.07c0-4.353-3.528-7.881-7.882-7.881  H267.888c-0.068-0.002-0.135-0.011-0.203-0.011s-0.135,0.008-0.203,0.011H31.25c-4.353,0-7.881,3.529-7.881,7.881v315.245  c0,4.353,3.528,7.881,7.881,7.881h472.868c4.354,0,7.882-3.529,7.882-7.881V108.119c0-4.353-3.528-7.882-7.882-7.882  C499.765,100.237,496.237,103.767,496.237,108.119z M43.073,52.952h38.361h46.756h9.85h22.856h9.851h46.755h12.788h25.573h3.94  v22.948v26.703v9.851v22.855v9.851v26.705v8.875v14.072h-3.94L217.5,194.81l-46.753-0.001h-9.851h-22.856h-9.85l-46.75-0.001H68.653  H43.079h-3.947v-22.942V145.16v-9.851v-22.855v-9.852V75.898v-8.5V52.952H43.073z"/>
<path style="fill:#2E3033;" d="M21.536,488.1c-6.603,0-11.976-5.373-11.976-11.976V35.766c0-6.542,5.323-11.865,11.865-11.865h1.565  c6.604,0,11.976,5.373,11.976,11.976v440.247c0,6.604-5.373,11.976-11.976,11.976h-1.454V488.1z"/>
<path d="M22.99,14.34h-1.565C9.611,14.34,0,23.951,0,35.766v440.358C0,488,9.661,497.66,21.536,497.66h1.453  c11.876,0,21.536-9.661,21.536-21.536V35.876C44.526,24.001,34.865,14.34,22.99,14.34z M28.592,476.124  c0,3.089-2.513,5.602-5.602,5.602h-1.453c-3.089,0-5.602-2.513-5.602-5.602V35.766c0-3.028,2.463-5.492,5.492-5.492h1.565  c3.089,0,5.602,2.513,5.602,5.602v440.248H28.592z"/>
<g>
</g>
<g>
</g>
<g>
</g>
<g>
</g>
<g>
</g>
<g>
</g>
<g>
</g>
<g>
</g>
<g>
</g>
<g>
</g>
<g>
</g>
<g>
</g>
<g>
</g>
<g>
</g>
<g>
</g>
</svg>
