<?xml version="1.0" encoding="iso-8859-1"?>
<!-- Generator: Adobe Illustrator 19.0.0, SVG Export Plug-In . SVG Version: 6.00 Build 0)  -->
<svg xmlns="http://www.w3.org/2000/svg" xmlns:xlink="http://www.w3.org/1999/xlink" version="1.1" id="Layer_1" x="0px" y="0px" viewBox="0 0 512 512" style="enable-background:new 0 0 512 512;" xml:space="preserve">
<path style="fill:#FFFFFF;" d="M496.652,160.593H51.562v86.972h445.091v-86.972H496.652z M274.107,232.216  c-15.515,0-28.138-12.623-28.138-28.137c0-15.515,12.623-28.138,28.138-28.138c15.515,0,28.137,12.623,28.137,28.138  C302.244,219.593,289.622,232.216,274.107,232.216z"/>
<path style="fill:#FF7900;" d="M274.107,175.941c-15.515,0-28.138,12.623-28.138,28.138s12.623,28.137,28.138,28.137  c15.515,0,28.137-12.623,28.137-28.137C302.244,188.564,289.622,175.941,274.107,175.941z"/>
<rect x="51.562" y="262.909" style="fill:#259245;" width="445.088" height="86.968"/>
<path style="fill:#FF7900;" d="M442.935,58.273H51.562v86.972h445.091V58.273h-23.022c-4.239,0-7.674-3.436-7.674-7.674h-15.349  C450.608,54.838,447.173,58.273,442.935,58.273z"/>
<path d="M504.326,42.925H473.63c-4.239,0-7.674,3.436-7.674,7.674s3.435,7.674,7.674,7.674h23.022v86.972H51.562V58.273h391.373  c4.239,0,7.674-3.436,7.674-7.674c0-4.239-3.435-7.674-7.674-7.674H43.888c-4.239,0-7.674,3.436-7.674,7.674v306.959  c0,4.238,3.435,7.674,7.674,7.674h460.438c4.239,0,7.674-3.436,7.674-7.674V50.599C512,46.361,508.565,42.925,504.326,42.925z   M51.562,160.593h445.091v86.972H51.562V160.593z M51.562,349.884v-86.972h445.091v86.972H51.562z"/>
<path style="fill:#2E3033;" d="M20.97,482.004c-6.429,0-11.661-5.232-11.661-11.661V41.55c0-6.371,5.183-11.554,11.554-11.554h1.524  c6.431,0,11.661,5.232,11.661,11.661v428.685c0,6.431-5.232,11.661-11.661,11.661H20.97V482.004z"/>
<path d="M22.386,20.687h-1.524C9.359,20.687,0,30.046,0,41.55v428.793c0,11.563,9.407,20.97,20.97,20.97h1.415  c11.564,0,20.97-9.407,20.97-20.97V41.657C43.357,30.094,33.949,20.687,22.386,20.687z M27.841,470.343  c0,3.008-2.447,5.455-5.455,5.455h-1.415c-3.008,0-5.455-2.447-5.455-5.455V41.55c0-2.949,2.399-5.348,5.348-5.348h1.524  c3.008,0,5.455,2.447,5.455,5.455v428.686H27.841z"/>
<g>
</g>
<g>
</g>
<g>
</g>
<g>
</g>
<g>
</g>
<g>
</g>
<g>
</g>
<g>
</g>
<g>
</g>
<g>
</g>
<g>
</g>
<g>
</g>
<g>
</g>
<g>
</g>
<g>
</g>
</svg>
