<?xml version="1.0" encoding="iso-8859-1"?>
<!-- Generator: Adobe Illustrator 19.0.0, SVG Export Plug-In . SVG Version: 6.00 Build 0)  -->
<svg xmlns="http://www.w3.org/2000/svg" xmlns:xlink="http://www.w3.org/1999/xlink" version="1.1" id="Layer_1" x="0px" y="0px" viewBox="0 0 512 512" style="enable-background:new 0 0 512 512;" xml:space="preserve">
<path style="fill:#FFFFFF;" d="M440.264,161.171H51.24v86.45h442.419v-86.45h-22.884c-4.214,0-7.628-3.415-7.628-7.629h-15.256  C447.893,157.755,444.478,161.171,440.264,161.171z M298.894,234.907c-0.021,0-52.868,0-52.868,0c-2.726,0-5.243-1.455-6.606-3.814  c-1.362-2.361-1.362-5.268,0-7.628l26.424-45.768c1.363-2.361,3.881-3.814,6.607-3.814s5.243,1.454,6.607,3.814l26.163,45.317  c0.821,1.218,1.302,2.684,1.302,4.264C306.521,231.492,303.106,234.907,298.894,234.907z"/>
<g>
	<rect x="54.324" y="262.878" style="fill:#164FCE;" width="442.417" height="86.454"/>
	<path style="fill:#164FCE;" d="M440.264,145.915c4.214,0,7.629,3.414,7.629,7.628h15.256c0-4.213,3.413-7.628,7.628-7.628h22.884   v-86.45H51.24v86.45H440.264z"/>
</g>
<path d="M504.371,44.209H46.696c-4.212,0-7.628,3.414-7.628,7.629v305.116c0,4.213,3.415,7.629,7.628,7.629h457.676  c4.214,0,7.629-3.415,7.629-7.629V51.837C512,47.623,508.586,44.209,504.371,44.209z M493.659,59.465v86.45h-22.884  c-4.214,0-7.628,3.414-7.628,7.628s3.413,7.629,7.628,7.629h22.884v86.45H51.24v-86.45h389.024c4.214,0,7.629-3.415,7.629-7.629  s-3.414-7.628-7.629-7.628H51.24v-86.45H493.659z M54.324,349.326v-86.451h442.419v86.451H54.324z"/>
<polygon style="fill:#259245;" points="259.238,219.651 285.662,219.651 272.45,196.767 "/>
<path d="M279.056,177.698c-1.363-2.361-3.881-3.814-6.607-3.814s-5.243,1.454-6.607,3.814l-26.424,45.768  c-1.362,2.36-1.362,5.267,0,7.628c1.363,2.36,3.88,3.814,6.606,3.814c0,0,52.848,0,52.868,0c4.213,0,7.628-3.415,7.628-7.629  c0-1.579-0.48-3.046-1.302-4.264L279.056,177.698z M259.238,219.651l13.212-22.884l13.212,22.884L259.238,219.651L259.238,219.651z"/>
<path style="fill:#2E3033;" d="M20.844,480.643c-6.391,0-11.591-5.2-11.591-11.591V42.841c0-6.332,5.152-11.484,11.484-11.484h1.514  c6.392,0,11.591,5.2,11.591,11.591v426.102c0,6.392-5.2,11.591-11.591,11.591h-1.407V480.643z"/>
<path d="M22.251,22.104h-1.514C9.302,22.104,0,31.407,0,42.841v426.21c0,11.494,9.351,20.844,20.844,20.844h1.406  c11.494,0,20.844-9.351,20.844-20.844V42.948C43.095,31.455,33.745,22.104,22.251,22.104z M27.674,469.052  c0,2.99-2.433,5.422-5.422,5.422h-1.406c-2.99,0-5.422-2.432-5.422-5.422V42.841c0-2.931,2.384-5.315,5.315-5.315h1.514  c2.99,0,5.422,2.433,5.422,5.422v426.103H27.674z"/>
<g>
</g>
<g>
</g>
<g>
</g>
<g>
</g>
<g>
</g>
<g>
</g>
<g>
</g>
<g>
</g>
<g>
</g>
<g>
</g>
<g>
</g>
<g>
</g>
<g>
</g>
<g>
</g>
<g>
</g>
</svg>
