<?xml version="1.0" encoding="iso-8859-1"?>
<!-- Generator: Adobe Illustrator 19.0.0, SVG Export Plug-In . SVG Version: 6.00 Build 0)  -->
<svg xmlns="http://www.w3.org/2000/svg" xmlns:xlink="http://www.w3.org/1999/xlink" version="1.1" id="Layer_1" x="0px" y="0px" viewBox="0 0 512 512" style="enable-background:new 0 0 512 512;" xml:space="preserve">
<g>
	<polygon style="fill:#103B9B;" points="51.562,80.617 51.562,106.619 90.566,106.619  "/>
	<polygon style="fill:#103B9B;" points="51.562,148.059 51.562,174.06 90.566,148.059  "/>
	<polygon style="fill:#103B9B;" points="225.244,58.273 179.717,58.273 179.717,88.624  "/>
	<polygon style="fill:#103B9B;" points="138.278,58.273 92.752,58.273 138.278,88.624  "/>
	<path style="fill:#103B9B;" d="M496.652,81.295V58.273H274.107v17.228l-46.677,31.118h46.677v9.593v22.255v9.592H227.43   l46.677,31.118v8.654v16.247h-37.353l-57.037-38.025v38.025h-9.592h-22.254h-9.592v-38.025L81.24,204.079H68.79H51.562v145.805   h53.719c4.239,0,7.674,3.436,7.674,7.674h15.348c0-4.238,3.436-7.674,7.675-7.674h360.677V111.99c0-4.239,3.434-7.674,7.674-7.674   V88.969C500.086,88.969,496.652,85.533,496.652,81.295z M343.172,204.079c-8.476,0-15.349-6.872-15.349-15.349   c0-8.475,6.872-15.348,15.349-15.348c8.475,0,15.348,6.872,15.348,15.348C358.52,197.207,351.649,204.079,343.172,204.079z    M389.216,311.514c-8.475,0-15.348-6.872-15.348-15.348c0-8.475,6.872-15.348,15.348-15.348c8.476,0,15.349,6.872,15.349,15.348   C404.565,304.642,397.693,311.514,389.216,311.514z M389.216,127.339c-8.475,0-15.348-6.872-15.348-15.348   s6.872-15.348,15.348-15.348c8.476,0,15.349,6.872,15.349,15.348S397.693,127.339,389.216,127.339z M435.261,165.709   c-8.476,0-15.349-6.872-15.349-15.349c0-8.475,6.872-15.348,15.349-15.348c8.475,0,15.348,6.872,15.348,15.348   C450.608,158.837,443.736,165.709,435.261,165.709z"/>
</g>
<polygon style="fill:#FFFFFF;" points="190.077,106.619 179.717,106.619 179.717,96.929 237.695,58.273 225.244,58.273   179.717,88.624 179.717,58.273 170.125,58.273 170.125,116.212 274.107,116.212 274.107,106.619 227.43,106.619 274.107,75.501   274.107,58.273 262.596,58.273 "/>
<g>
	<polygon style="fill:#ED1F34;" points="127.918,106.619 55.399,58.273 51.562,58.273 51.562,72.34 102.856,106.619  "/>
	<polygon style="fill:#ED1F34;" points="190.077,148.059 274.107,204.079 274.107,187.832 214.59,148.059  "/>
	<polygon style="fill:#ED1F34;" points="179.717,106.619 190.077,106.619 262.596,58.273 237.695,58.273 179.717,96.929  "/>
	<polygon style="fill:#ED1F34;" points="138.278,148.059 127.918,148.059 51.562,198.962 51.562,204.079 68.79,204.079    138.278,157.754  "/>
</g>
<g>
	<polygon style="fill:#FFFFFF;" points="147.871,116.212 147.871,58.273 138.278,58.273 138.278,88.624 92.752,58.273    55.399,58.273 127.918,106.619 102.856,106.619 51.562,72.34 51.562,80.617 90.566,106.619 51.562,106.619 51.562,116.212  "/>
	<polygon style="fill:#FFFFFF;" points="170.125,138.467 170.125,204.079 179.717,204.079 179.717,166.055 236.754,204.079    274.107,204.079 190.077,148.059 214.59,148.059 274.107,187.832 274.107,179.177 227.43,148.059 274.107,148.059 274.107,138.467     "/>
	<polygon style="fill:#FFFFFF;" points="147.871,138.467 51.562,138.467 51.562,148.059 90.566,148.059 51.562,174.06    51.562,198.962 127.918,148.059 138.278,148.059 138.278,157.754 68.79,204.079 81.24,204.079 138.278,166.055 138.278,204.079    147.871,204.079  "/>
</g>
<g>
	<polygon style="fill:#ED1F34;" points="170.125,116.212 170.125,58.273 147.871,58.273 147.871,116.212 51.562,116.212    51.562,138.467 147.871,138.467 147.871,204.079 170.125,204.079 170.125,138.467 274.107,138.467 274.107,116.212  "/>
	<circle style="fill:#ED1F34;" cx="389.213" cy="111.988" r="15.348"/>
	<circle style="fill:#ED1F34;" cx="389.213" cy="296.164" r="15.348"/>
	<circle style="fill:#ED1F34;" cx="435.262" cy="150.363" r="15.348"/>
	<circle style="fill:#ED1F34;" cx="343.174" cy="188.726" r="15.348"/>
</g>
<path d="M496.652,111.99v237.893H135.976c-4.239,0-7.675,3.436-7.675,7.674c0,4.239,3.436,7.674,7.675,7.674h368.35  c4.239,0,7.674-3.436,7.674-7.674V111.99c0-4.239-3.435-7.674-7.674-7.674C500.086,104.318,496.652,107.753,496.652,111.99z"/>
<path d="M105.28,349.884H51.562V204.079v-5.116v-24.902v-26.002v-9.592v-22.255v-9.593V80.617V72.34V58.273h3.837h37.352h45.527  h9.592h22.254h9.592h45.527h12.451h24.901h11.511h222.545v23.021c0,4.239,3.434,7.674,7.674,7.674c4.239,0,7.674-3.436,7.674-7.674  V50.599c0-4.238-3.435-7.674-7.674-7.674H43.888c-4.239,0-7.674,3.436-7.674,7.674v306.959c0,4.239,3.435,7.674,7.674,7.674h61.392  c4.239,0,7.674-3.436,7.674-7.674C112.953,353.319,109.518,349.884,105.28,349.884z"/>
<path style="fill:#2E3033;" d="M20.97,482.004c-6.429,0-11.661-5.232-11.661-11.661V41.55c0-6.371,5.183-11.554,11.554-11.554h1.524  c6.431,0,11.661,5.232,11.661,11.661v428.685c0,6.431-5.232,11.661-11.661,11.661H20.97V482.004z"/>
<path d="M22.386,20.687h-1.524C9.359,20.687,0,30.046,0,41.55v428.793c0,11.563,9.407,20.97,20.97,20.97h1.415  c11.564,0,20.97-9.407,20.97-20.97V41.657C43.357,30.094,33.949,20.687,22.386,20.687z M27.841,470.343  c0,3.008-2.447,5.455-5.455,5.455h-1.415c-3.008,0-5.455-2.447-5.455-5.455V41.55c0-2.949,2.399-5.348,5.348-5.348h1.524  c3.008,0,5.455,2.447,5.455,5.455v428.686H27.841z"/>
<g>
</g>
<g>
</g>
<g>
</g>
<g>
</g>
<g>
</g>
<g>
</g>
<g>
</g>
<g>
</g>
<g>
</g>
<g>
</g>
<g>
</g>
<g>
</g>
<g>
</g>
<g>
</g>
<g>
</g>
</svg>
