<?xml version="1.0" encoding="iso-8859-1"?>
<!-- Generator: Adobe Illustrator 19.0.0, SVG Export Plug-In . SVG Version: 6.00 Build 0)  -->
<svg xmlns="http://www.w3.org/2000/svg" xmlns:xlink="http://www.w3.org/1999/xlink" version="1.1" id="Layer_1" x="0px" y="0px" viewBox="0 0 512 512" style="enable-background:new 0 0 512 512;" xml:space="preserve">
<path style="fill:#FFFFFF;" d="M473.63,349.884h23.022V58.273H70.601l270.77,169.564c2.901,1.816,4.248,5.333,3.303,8.622  c-0.944,3.289-3.953,5.555-7.376,5.555H204.24l107.871,107.869h130.823c4.239,0,7.674,3.436,7.674,7.674h15.349  C465.956,353.319,469.392,349.884,473.63,349.884z"/>
<path style="fill:#103B9B;" d="M51.562,349.884h238.843L180.288,239.768c-2.195-2.195-2.851-5.495-1.662-8.363  c1.186-2.867,3.986-4.737,7.089-4.737h124.872L51.562,64.459V349.884z M246.515,208.262H122.754L245.97,331.478H69.968V97.702  L246.515,208.262z"/>
<polygon style="fill:#ED1F34;" points="245.97,331.478 122.754,208.262 246.515,208.262 69.968,97.702 69.968,331.478 "/>
<path d="M504.326,42.925H43.888c-0.037,0-0.073,0.005-0.111,0.005c-0.147,0.002-0.293,0.011-0.439,0.022  c-0.115,0.008-0.23,0.016-0.343,0.028c-0.12,0.014-0.239,0.035-0.359,0.055c-0.134,0.022-0.269,0.043-0.4,0.071  c-0.096,0.022-0.19,0.049-0.285,0.073c-0.148,0.038-0.296,0.077-0.44,0.123c-0.086,0.028-0.17,0.063-0.254,0.093  c-0.147,0.053-0.293,0.106-0.434,0.168c-0.095,0.041-0.188,0.09-0.28,0.134c-0.125,0.061-0.25,0.12-0.371,0.187  c-0.113,0.063-0.221,0.133-0.331,0.202c-0.097,0.06-0.194,0.117-0.288,0.181c-0.121,0.083-0.237,0.174-0.355,0.265  c-0.077,0.06-0.155,0.117-0.232,0.18c-0.112,0.093-0.219,0.195-0.326,0.297c-0.074,0.07-0.152,0.14-0.224,0.213  c-0.093,0.094-0.179,0.194-0.267,0.293c-0.083,0.093-0.165,0.186-0.244,0.283c-0.068,0.087-0.133,0.178-0.2,0.268  c-0.088,0.12-0.175,0.241-0.257,0.366c-0.02,0.031-0.042,0.059-0.063,0.09c-0.034,0.055-0.061,0.111-0.093,0.167  c-0.08,0.134-0.156,0.27-0.229,0.41c-0.048,0.092-0.091,0.186-0.135,0.28c-0.061,0.131-0.119,0.265-0.173,0.401  c-0.043,0.108-0.082,0.215-0.119,0.324c-0.042,0.124-0.083,0.248-0.119,0.375c-0.035,0.125-0.066,0.249-0.096,0.374  c-0.026,0.115-0.053,0.23-0.073,0.345c-0.025,0.141-0.046,0.281-0.064,0.423c-0.014,0.106-0.026,0.211-0.036,0.318  c-0.012,0.153-0.02,0.306-0.022,0.46c-0.002,0.065-0.01,0.129-0.01,0.194v306.959c0,4.238,3.435,7.674,7.674,7.674h399.047  c4.239,0,7.674-3.436,7.674-7.674c0-4.239-3.435-7.674-7.674-7.674H312.111L204.24,242.015h133.059c3.423,0,6.432-2.266,7.376-5.555  c0.945-3.289-0.402-6.806-3.303-8.622L70.601,58.273h426.051v291.61H473.63c-4.239,0-7.674,3.436-7.674,7.674  c0,4.238,3.435,7.674,7.674,7.674h30.696c4.239,0,7.674-3.436,7.674-7.674V50.599C512,46.361,508.565,42.925,504.326,42.925z   M185.714,226.667c-3.103,0-5.902,1.87-7.089,4.737c-1.187,2.867-0.533,6.169,1.662,8.363l110.117,110.116H51.562V64.459  l259.024,162.208H185.714z"/>
<path style="fill:#2E3033;" d="M20.97,482.004c-6.429,0-11.661-5.232-11.661-11.661V41.55c0-6.371,5.183-11.554,11.554-11.554h1.524  c6.431,0,11.661,5.232,11.661,11.661v428.685c0,6.431-5.232,11.661-11.661,11.661H20.97V482.004z"/>
<path d="M22.386,20.687h-1.524C9.359,20.687,0,30.046,0,41.55v428.793c0,11.563,9.407,20.97,20.97,20.97h1.415  c11.564,0,20.97-9.407,20.97-20.97V41.657C43.357,30.094,33.949,20.687,22.386,20.687z M27.841,470.343  c0,3.008-2.447,5.455-5.455,5.455h-1.415c-3.008,0-5.455-2.447-5.455-5.455V41.55c0-2.949,2.399-5.348,5.348-5.348h1.524  c3.008,0,5.455,2.447,5.455,5.455v428.686H27.841z"/>
<g>
</g>
<g>
</g>
<g>
</g>
<g>
</g>
<g>
</g>
<g>
</g>
<g>
</g>
<g>
</g>
<g>
</g>
<g>
</g>
<g>
</g>
<g>
</g>
<g>
</g>
<g>
</g>
<g>
</g>
</svg>
