<?xml version="1.0" encoding="iso-8859-1"?>
<!-- Generator: Adobe Illustrator 19.0.0, SVG Export Plug-In . SVG Version: 6.00 Build 0)  -->
<svg xmlns="http://www.w3.org/2000/svg" xmlns:xlink="http://www.w3.org/1999/xlink" version="1.1" id="Layer_1" x="0px" y="0px" viewBox="0 0 512 512" style="enable-background:new 0 0 512 512;" xml:space="preserve">
<g>
	<path style="fill:#103B9B;" d="M442.935,181.057c4.239,0,7.674,3.436,7.674,7.674h15.349c0-4.238,3.435-7.674,7.674-7.674h23.022   V58.273H51.562v122.784H442.935z"/>
	<path style="fill:#103B9B;" d="M51.562,227.1v122.784h445.09V227.1H51.562z M192.101,297.612l-18.04-4.049l4.049,18.04   l-13.599-12.527l-5.514,17.648l-5.513-17.648l-13.599,12.527l4.049-18.04l-18.04,4.049l12.527-13.599l-17.648-5.513l17.648-5.513   l-12.527-13.599l18.04,4.049l-4.049-18.04l13.599,12.527l5.513-17.648l5.514,17.648l13.599-12.527l-4.049,18.04l18.04-4.049   l-12.527,13.599l17.648,5.513l-17.648,5.513L192.101,297.612z"/>
</g>
<polygon style="fill:#FFFFFF;" points="179.573,272.987 192.101,259.387 174.06,263.437 178.11,245.397 164.511,257.924   158.997,240.276 153.484,257.924 139.886,245.397 143.934,263.437 125.894,259.387 138.421,272.987 120.773,278.5 138.421,284.013   125.894,297.612 143.934,293.562 139.886,311.603 153.484,299.076 158.997,316.724 164.511,299.076 178.11,311.603 174.06,293.562   192.101,297.612 179.573,284.013 197.221,278.5 "/>
<path style="fill:#FFE000;" d="M442.935,196.404H51.562v15.348h445.09v-15.348H473.63c-4.239,0-7.674-3.436-7.674-7.674h-15.349  C450.608,192.969,447.173,196.404,442.935,196.404z"/>
<path d="M504.326,42.925H43.888c-4.238,0-7.674,3.436-7.674,7.674v306.959c0,4.239,3.436,7.675,7.674,7.675h460.438  c4.239,0,7.674-3.436,7.674-7.675V50.599C512,46.361,508.565,42.925,504.326,42.925z M496.652,58.273v122.784H473.63  c-4.239,0-7.674,3.436-7.674,7.674c0,4.239,3.435,7.674,7.674,7.674h23.022v15.348H51.562v-15.348h391.372  c4.239,0,7.674-3.436,7.674-7.674s-3.435-7.674-7.674-7.674H51.562V58.273H496.652z M51.562,349.884V227.1h445.09v122.784H51.562z"/>
<path style="fill:#2E3033;" d="M20.97,482.004c-6.429,0-11.661-5.232-11.661-11.661V41.55c0-6.371,5.183-11.554,11.554-11.554h1.524  c6.431,0,11.661,5.232,11.661,11.661v428.685c0,6.431-5.232,11.661-11.661,11.661H20.97V482.004z"/>
<path d="M22.386,20.687h-1.524C9.359,20.687,0,30.046,0,41.55v428.793c0,11.563,9.407,20.97,20.97,20.97h1.415  c11.564,0,20.97-9.407,20.97-20.97V41.657C43.357,30.094,33.949,20.687,22.386,20.687z M27.841,470.343  c0,3.008-2.447,5.455-5.455,5.455h-1.415c-3.008,0-5.455-2.447-5.455-5.455V41.55c0-2.949,2.399-5.348,5.348-5.348h1.524  c3.008,0,5.455,2.447,5.455,5.455v428.686H27.841z"/>
<g>
</g>
<g>
</g>
<g>
</g>
<g>
</g>
<g>
</g>
<g>
</g>
<g>
</g>
<g>
</g>
<g>
</g>
<g>
</g>
<g>
</g>
<g>
</g>
<g>
</g>
<g>
</g>
<g>
</g>
</svg>
