<?xml version="1.0" encoding="iso-8859-1"?>
<!-- Generator: Adobe Illustrator 19.0.0, SVG Export Plug-In . SVG Version: 6.00 Build 0)  -->
<svg xmlns="http://www.w3.org/2000/svg" xmlns:xlink="http://www.w3.org/1999/xlink" version="1.1" id="Layer_1" x="0px" y="0px" viewBox="0 0 512 512" style="enable-background:new 0 0 512 512;" xml:space="preserve">
<g>
	<path style="fill:#164FCE;" d="M51.55,58.273v201.949l302.91-201.949H51.55z M168.532,137.06h-4.996   c-1.082,5.768-3.35,11.122-6.554,15.792l3.542,3.542c2.997,2.998,2.997,7.856,0,10.853c-1.499,1.498-3.463,2.248-5.426,2.248   s-3.928-0.75-5.427-2.248l-3.542-3.542c-4.67,3.203-10.023,5.472-15.793,6.554v4.996c0,4.239-3.434,7.674-7.674,7.674   c-4.239,0-7.674-3.435-7.674-7.674v-4.996c-5.769-1.082-11.122-3.35-15.792-6.555l-3.541,3.542   c-1.499,1.499-3.464,2.249-5.427,2.249s-3.927-0.75-5.425-2.248c-2.998-2.996-2.998-7.856-0.001-10.852l3.542-3.543   c-3.204-4.669-5.473-10.023-6.555-15.792h-4.996c-4.239,0-7.674-3.435-7.674-7.675c0-4.239,3.435-7.674,7.674-7.674h4.996   c1.082-5.769,3.35-11.122,6.554-15.792l-3.541-3.541c-2.996-2.998-2.996-7.857,0-10.853c2.996-2.995,7.856-2.995,10.853,0   l3.541,3.541c4.67-3.203,10.023-5.472,15.792-6.554v-4.995c0-4.239,3.435-7.674,7.674-7.674c4.24,0,7.674,3.435,7.674,7.674v4.995   c5.77,1.082,11.124,3.35,15.794,6.555l3.542-3.542c2.996-2.995,7.857-2.995,10.852,0.001c2.996,2.995,2.996,7.856-0.001,10.852   l-3.541,3.541c3.203,4.67,5.472,10.022,6.554,15.792h4.996c4.239,0,7.674,3.435,7.674,7.674   C176.205,133.625,172.77,137.06,168.532,137.06z"/>
	<path style="fill:#164FCE;" d="M148.908,129.385c0-14.472-11.774-26.245-26.246-26.245c-14.471,0-26.245,11.774-26.245,26.245   c0,14.473,11.774,26.246,26.245,26.246C137.134,155.631,148.908,143.858,148.908,129.385z M122.662,147.291   c-9.873,0-17.907-8.033-17.907-17.907c0-9.873,8.034-17.906,17.907-17.906c9.874,0,17.907,8.033,17.907,17.906   C140.567,139.259,132.536,147.291,122.662,147.291z"/>
</g>
<path style="fill:#FFE610;" d="M122.662,111.479c-9.873,0-17.907,8.033-17.907,17.906c0,9.874,8.034,17.907,17.907,17.907  c9.874,0,17.907-8.033,17.907-17.907C140.567,119.512,132.536,111.479,122.662,111.479z"/>
<path style="fill:#259245;" d="M473.932,349.894h22.72v-201.94l-302.921,201.94h249.505c4.239,0,7.674,3.435,7.674,7.674h15.348  C466.257,353.33,469.693,349.894,473.932,349.894z"/>
<g>
	<polygon style="fill:#FFFFFF;" points="496.652,126.434 161.452,349.894 193.731,349.894 496.652,147.954  "/>
	<polygon style="fill:#FFFFFF;" points="354.459,58.273 51.55,260.222 51.55,281.743 386.74,58.273  "/>
</g>
<polygon style="fill:#ED1F34;" points="496.652,58.273 414.408,58.273 51.55,300.188 51.55,349.894 133.782,349.894   496.652,107.989 "/>
<path d="M512,50.599c0-4.239-3.435-7.674-7.674-7.674H43.876c-4.239,0-7.674,3.435-7.674,7.674v306.968  c0,4.24,3.435,7.674,7.674,7.674h92.22c0.005,0,0.011,0.001,0.017,0.001s0.009-0.001,0.014-0.001h307.11  c4.239,0,7.674-3.434,7.674-7.674l0,0c0-4.239-3.435-7.674-7.674-7.674H193.731h-32.28l335.201-223.46v21.52v201.94h-22.72  c-4.24,0-7.675,3.435-7.675,7.674l0,0c0,4.24,3.435,7.674,7.675,7.674h30.394c4.239,0,7.674-3.434,7.674-7.674L512,50.599  L512,50.599z M51.55,281.743v-21.521V58.273h302.91h32.281L51.55,281.743z M51.55,349.894v-49.706L414.408,58.273h82.245v49.716  l-362.87,241.905H51.55z"/>
<path style="fill:#FFE610;" d="M168.532,121.711h-4.996c-1.082-5.77-3.35-11.122-6.554-15.792l3.541-3.541  c2.998-2.996,2.998-7.857,0.001-10.852c-2.995-2.996-7.856-2.996-10.852-0.001l-3.542,3.542c-4.67-3.204-10.024-5.473-15.794-6.555  v-4.995c0-4.239-3.434-7.674-7.674-7.674c-4.239,0-7.674,3.435-7.674,7.674v4.995c-5.769,1.082-11.122,3.35-15.792,6.554  l-3.541-3.541c-2.998-2.995-7.857-2.995-10.853,0c-2.996,2.996-2.996,7.856,0,10.853l3.541,3.541  c-3.203,4.67-5.472,10.023-6.554,15.792h-4.996c-4.239,0-7.674,3.435-7.674,7.674c0,4.24,3.435,7.675,7.674,7.675h4.996  c1.082,5.769,3.35,11.123,6.555,15.792l-3.542,3.543c-2.996,2.996-2.996,7.856,0.001,10.852c1.498,1.498,3.462,2.248,5.425,2.248  s3.928-0.75,5.427-2.249l3.541-3.542c4.67,3.204,10.023,5.473,15.792,6.555v4.996c0,4.239,3.435,7.674,7.674,7.674  c4.24,0,7.674-3.435,7.674-7.674v-4.996c5.77-1.082,11.123-3.35,15.793-6.554l3.542,3.542c1.499,1.498,3.464,2.248,5.427,2.248  s3.927-0.75,5.426-2.248c2.997-2.998,2.997-7.856,0-10.853l-3.542-3.542c3.203-4.67,5.472-10.024,6.554-15.792h4.996  c4.239,0,7.674-3.435,7.674-7.675C176.205,125.146,172.77,121.711,168.532,121.711z M122.662,155.631  c-14.471,0-26.245-11.774-26.245-26.246c0-14.471,11.774-26.245,26.245-26.245c14.473,0,26.246,11.774,26.246,26.245  C148.908,143.858,137.134,155.631,122.662,155.631z"/>
<path style="fill:#2E3033;" d="M20.97,482.004c-6.429,0-11.661-5.232-11.661-11.661V41.55c0-6.371,5.183-11.554,11.554-11.554h1.524  c6.431,0,11.661,5.232,11.661,11.661v428.685c0,6.431-5.232,11.661-11.661,11.661H20.97V482.004z"/>
<path d="M22.386,20.687h-1.524C9.359,20.687,0,30.046,0,41.55v428.793c0,11.563,9.407,20.97,20.97,20.97h1.415  c11.564,0,20.97-9.407,20.97-20.97V41.657C43.357,30.094,33.949,20.687,22.386,20.687z M27.841,470.343  c0,3.008-2.447,5.455-5.455,5.455h-1.415c-3.008,0-5.455-2.447-5.455-5.455V41.55c0-2.949,2.399-5.348,5.348-5.348h1.524  c3.008,0,5.455,2.447,5.455,5.455v428.686H27.841z"/>
<g>
</g>
<g>
</g>
<g>
</g>
<g>
</g>
<g>
</g>
<g>
</g>
<g>
</g>
<g>
</g>
<g>
</g>
<g>
</g>
<g>
</g>
<g>
</g>
<g>
</g>
<g>
</g>
<g>
</g>
</svg>
