<?xml version="1.0" encoding="iso-8859-1"?>
<!-- Generator: Adobe Illustrator 19.0.0, SVG Export Plug-In . SVG Version: 6.00 Build 0)  -->
<svg xmlns="http://www.w3.org/2000/svg" xmlns:xlink="http://www.w3.org/1999/xlink" version="1.1" id="Layer_1" x="0px" y="0px" viewBox="0 0 512 512" style="enable-background:new 0 0 512 512;" xml:space="preserve">
<g>
	<path style="fill:#259245;" d="M300.766,175.487l54.426,2.812c3.174,0.164,5.92,2.268,6.902,5.293   c0.983,3.023-0.001,6.339-2.474,8.339l-42.378,34.266l7.805,29.042h171.605V152.919h-204.53L300.766,175.487z"/>
	<path style="fill:#259245;" d="M230.971,226.196l-42.378-34.266c-2.472-1.999-3.456-5.316-2.473-8.339   c0.983-3.023,3.728-5.128,6.902-5.293l54.426-2.812l8.644-22.568H51.562v102.319h171.605L230.971,226.196z"/>
</g>
<path style="fill:#ED1F34;" d="M131.42,349.884h365.233v-94.646H325.048l6.338,23.588c0.824,3.071-0.329,6.332-2.9,8.2  c-1.342,0.975-2.925,1.466-4.511,1.466c-1.453,0-2.91-0.412-4.184-1.24l-45.684-29.716l-45.684,29.716  c-2.664,1.734-6.123,1.644-8.695-0.225c-2.572-1.868-3.726-5.129-2.9-8.2l6.338-23.588H51.562v94.646h43.486  c4.238,0,7.674,3.436,7.674,7.674h21.024C123.746,353.319,127.181,349.884,131.42,349.884z"/>
<path style="fill:#FFE000;" d="M266.941,124.594c1.137-2.969,3.986-4.93,7.166-4.93c3.179,0,6.029,1.961,7.166,4.93l10.849,28.324  h204.53V58.273H51.562v94.646h204.53L266.941,124.594z"/>
<path d="M504.326,42.925H43.888c-4.238,0-7.674,3.436-7.674,7.674v306.959c0,4.239,3.436,7.674,7.674,7.674h51.16  c4.238,0,7.674-3.436,7.674-7.674c0-4.238-3.436-7.674-7.674-7.674H51.562v-94.646V152.919V58.273h445.09v94.646v102.319v94.646  H131.42c-4.239,0-7.674,3.436-7.674,7.674c0,4.239,3.435,7.674,7.674,7.674h372.907c4.239,0,7.674-3.436,7.674-7.674V50.599  C512,46.361,508.564,42.925,504.326,42.925z"/>
<path style="fill:#FFFFFF;" d="M303.71,217.4l30.681-24.807l-39.402-2.036c-3.031-0.157-5.685-2.085-6.77-4.918l-14.112-36.844  l-14.113,36.844c-1.085,2.833-3.739,4.762-6.77,4.918l-39.402,2.036l30.681,24.807c2.36,1.908,3.374,5.028,2.586,7.958  l-10.24,38.102l33.073-21.513c1.272-0.827,2.728-1.24,4.184-1.24c1.456,0,2.912,0.413,4.184,1.24l33.073,21.513l-10.239-38.102  C300.337,222.427,301.351,219.308,303.71,217.4z"/>
<path d="M359.621,191.931c2.473-1.999,3.457-5.315,2.474-8.339c-0.983-3.023-3.728-5.128-6.902-5.293l-54.426-2.812l-8.644-22.568  l-10.849-28.324c-1.137-2.969-3.987-4.93-7.166-4.93c-3.18,0-6.029,1.961-7.166,4.93l-10.849,28.324l-8.644,22.568l-54.426,2.812  c-3.174,0.164-5.92,2.268-6.902,5.293c-0.983,3.023,0.001,6.339,2.473,8.339l42.378,34.266l-7.804,29.042l-6.338,23.588  c-0.825,3.071,0.328,6.332,2.9,8.2c2.571,1.869,6.03,1.959,8.695,0.225l45.684-29.716l45.684,29.716  c1.274,0.829,2.731,1.24,4.184,1.24c1.586,0,3.169-0.49,4.511-1.466c2.571-1.868,3.726-5.129,2.9-8.2l-6.338-23.588l-7.805-29.042  L359.621,191.931z M311.364,263.461l-33.073-21.513c-1.272-0.827-2.729-1.24-4.184-1.24c-1.456,0-2.912,0.413-4.184,1.24  l-33.073,21.513l10.24-38.102c0.787-2.93-0.227-6.051-2.586-7.958l-30.681-24.807l39.402-2.036c3.031-0.157,5.685-2.085,6.77-4.918  l14.113-36.844l14.112,36.844c1.086,2.833,3.74,4.762,6.77,4.918l39.402,2.036L303.711,217.4c-2.359,1.908-3.373,5.028-2.586,7.958  L311.364,263.461z"/>
<path style="fill:#2E3033;" d="M20.97,482.004c-6.429,0-11.661-5.232-11.661-11.661V41.55c0-6.371,5.183-11.554,11.554-11.554h1.524  c6.431,0,11.661,5.232,11.661,11.661v428.685c0,6.431-5.232,11.661-11.661,11.661H20.97V482.004z"/>
<path d="M22.386,20.687h-1.524C9.359,20.687,0,30.046,0,41.55v428.793c0,11.563,9.407,20.97,20.97,20.97h1.415  c11.564,0,20.97-9.407,20.97-20.97V41.657C43.357,30.094,33.949,20.687,22.386,20.687z M27.841,470.343  c0,3.008-2.447,5.455-5.455,5.455h-1.415c-3.008,0-5.455-2.447-5.455-5.455V41.55c0-2.949,2.399-5.348,5.348-5.348h1.524  c3.008,0,5.455,2.447,5.455,5.455v428.686H27.841z"/>
<g>
</g>
<g>
</g>
<g>
</g>
<g>
</g>
<g>
</g>
<g>
</g>
<g>
</g>
<g>
</g>
<g>
</g>
<g>
</g>
<g>
</g>
<g>
</g>
<g>
</g>
<g>
</g>
<g>
</g>
</svg>
