<?xml version="1.0" encoding="iso-8859-1"?>
<!-- Generator: Adobe Illustrator 19.0.0, SVG Export Plug-In . SVG Version: 6.00 Build 0)  -->
<svg xmlns="http://www.w3.org/2000/svg" xmlns:xlink="http://www.w3.org/1999/xlink" version="1.1" id="Layer_1" x="0px" y="0px" viewBox="0 0 511.998 511.998" style="enable-background:new 0 0 511.998 511.998;" xml:space="preserve">
<path style="fill:#333333;" d="M278.358,197.696c2.135,1.423,3.417,3.819,3.417,6.386c0,2.565-1.283,4.962-3.417,6.385  l-55.653,37.102h273.946v-86.974H222.706L278.358,197.696z"/>
<polygon style="fill:#FFE000;" points="69.222,349.889 496.651,349.889 496.651,262.917 199.683,262.917 "/>
<path style="fill:#048B7D;" d="M442.933,58.273H69.222l130.461,86.974h296.968V58.273h-23.022c-4.239,0-7.674-3.435-7.674-7.675  h-15.349C450.607,54.838,447.17,58.273,442.933,58.273z"/>
<g>
	<polygon style="fill:#FFFFFF;" points="199.683,262.917 496.651,262.917 496.651,247.569 222.706,247.569  "/>
	<polygon style="fill:#FFFFFF;" points="222.706,160.595 496.651,160.595 496.651,145.247 199.683,145.247  "/>
</g>
<g>
	<polygon style="fill:#ED1F34;" points="89.41,180.657 84.282,185.785 94.034,185.281  "/>
	<path style="fill:#ED1F34;" d="M51.551,343.225l208.715-139.143L51.551,64.937V343.225z M156.591,160.325   c2.997-2.995,7.856-2.995,10.852,0c2.998,2.997,2.998,7.856,0,10.853l-14.102,14.102l28.158,1.454l-30.185,24.407v9.712   l16.13,16.131c2.998,2.996,2.998,7.856,0,10.853c-1.499,1.498-3.462,2.248-5.426,2.248c-1.454,0-2.906-0.413-4.172-1.234   l1.571,5.846l-35.729-23.242l-35.729,23.242l1.571-5.846c-1.265,0.821-2.717,1.234-4.172,1.234c-1.964,0-3.928-0.75-5.426-2.248   c-2.998-2.998-2.998-7.857,0-10.853l16.13-16.131v-9.712l-20.63-16.68c-1.317,0.923-2.856,1.392-4.398,1.392   c-1.963,0-3.927-0.75-5.426-2.248c-2.996-2.996-2.996-7.856,0-10.853l13.133-13.133c-1.721-2.94-1.329-6.774,1.193-9.295   c2.996-2.995,7.856-2.995,10.852,0l19.474,19.473l13.43-35.065l13.43,35.065L156.591,160.325z"/>
</g>
<g>
	<path style="fill:#FFE000;" d="M102.6,193.847l-8.566-8.566l-9.752,0.504l-7.823,7.823c-0.322,0.323-0.668,0.602-1.028,0.855   l20.63,16.68v-17.295L102.6,193.847L102.6,193.847z"/>
	<polygon style="fill:#FFE000;" points="151.315,193.847 151.315,211.143 181.5,186.735 153.341,185.281 144.776,193.847  "/>
	<path style="fill:#FFE000;" d="M136.205,227.451h-25.034l-20.387,20.387c-0.389,0.39-0.811,0.725-1.255,1.013l-1.571,5.846   l35.729-23.242l35.729,23.242l-1.571-5.846c-0.444-0.288-0.866-0.624-1.255-1.013L136.205,227.451z"/>
	<polygon style="fill:#FFE000;" points="123.688,144.733 110.258,179.798 123.688,193.228 137.118,179.798  "/>
</g>
<g>
	<polygon style="fill:#FFFFFF;" points="144.776,193.847 134.541,204.082 151.315,220.854 151.315,211.143 151.315,193.847  "/>
	<polygon style="fill:#FFFFFF;" points="112.834,204.082 102.6,193.847 96.062,193.847 96.062,211.143 96.062,220.854  "/>
	<polygon style="fill:#FFFFFF;" points="123.688,214.936 111.17,227.451 136.205,227.451  "/>
</g>
<path d="M110.258,179.798l-19.474-19.473c-2.996-2.995-7.856-2.995-10.852,0c-2.522,2.522-2.913,6.356-1.193,9.295l-13.133,13.133  c-2.996,2.998-2.996,7.857,0,10.853c1.499,1.498,3.463,2.248,5.426,2.248c1.542,0,3.081-0.47,4.398-1.392  c0.36-0.253,0.706-0.534,1.028-0.855l7.823-7.823l5.128-5.127l4.624,4.624l8.566,8.566l10.235,10.235l-16.774,16.773l-16.13,16.131  c-2.998,2.997-2.998,7.856,0,10.853c1.498,1.498,3.462,2.248,5.426,2.248c1.453,0,2.907-0.413,4.172-1.234  c0.444-0.288,0.866-0.624,1.255-1.013l20.386-20.387l12.518-12.517l12.518,12.517l20.386,20.387c0.389,0.39,0.811,0.725,1.255,1.013  c1.265,0.821,2.717,1.234,4.172,1.234c1.964,0,3.927-0.75,5.426-2.248c2.998-2.998,2.998-7.857,0-10.853l-16.13-16.131  l-16.774-16.773l10.235-10.235l8.566-8.566l14.102-14.102c2.998-2.998,2.998-7.857,0-10.853c-2.997-2.995-7.856-2.995-10.852,0  l-19.474,19.473l-13.43,13.429L110.258,179.798z"/>
<path d="M504.326,42.924H473.63c-4.239,0-7.674,3.435-7.674,7.674c0,4.24,3.436,7.675,7.674,7.675h23.022v86.974v15.349v86.974  v15.348v86.974H69.222l130.461-86.974l23.022-15.348l55.653-37.102c2.135-1.423,3.417-3.819,3.417-6.385s-1.283-4.963-3.417-6.386  l-55.653-37.101l-23.022-15.349L69.222,58.273h373.71c4.238,0,7.674-3.435,7.674-7.675c0-4.239-3.436-7.674-7.674-7.674H43.877  c-0.003,0-0.006,0-0.009,0c-0.258,0.001-0.515,0.013-0.771,0.039c-0.098,0.009-0.192,0.029-0.289,0.043  c-0.149,0.022-0.298,0.038-0.446,0.067c-0.167,0.033-0.328,0.08-0.49,0.123c-0.078,0.021-0.155,0.036-0.232,0.059  c-0.152,0.048-0.299,0.103-0.447,0.159c-0.086,0.031-0.174,0.059-0.259,0.095c-0.124,0.051-0.242,0.11-0.363,0.169  c-0.107,0.051-0.215,0.098-0.32,0.153c-0.09,0.05-0.176,0.106-0.264,0.157c-0.129,0.074-0.259,0.149-0.384,0.233  c-0.061,0.04-0.117,0.087-0.177,0.129c-0.144,0.102-0.287,0.204-0.424,0.318c-0.044,0.036-0.085,0.077-0.128,0.115  c-0.144,0.124-0.287,0.247-0.422,0.384c-0.074,0.073-0.141,0.155-0.212,0.233c-0.096,0.104-0.195,0.204-0.287,0.315  c-0.163,0.198-0.317,0.405-0.459,0.62c-0.001,0.002-0.003,0.005-0.005,0.006c-0.017,0.025-0.029,0.052-0.044,0.076  c-0.122,0.188-0.237,0.376-0.342,0.575c-0.037,0.07-0.067,0.142-0.102,0.212c-0.077,0.154-0.152,0.309-0.218,0.468  c-0.042,0.102-0.076,0.206-0.113,0.309c-0.048,0.13-0.097,0.261-0.138,0.394c-0.039,0.131-0.069,0.264-0.101,0.396  c-0.027,0.11-0.058,0.218-0.08,0.329c-0.032,0.163-0.054,0.328-0.076,0.492c-0.011,0.085-0.027,0.168-0.035,0.252  c-0.021,0.211-0.029,0.422-0.032,0.634c0,0.039-0.006,0.079-0.006,0.119v0.024c0,0.01,0,0.02,0,0.029v306.861  c0,0.009,0,0.019,0,0.028v0.024c0,0.04,0.005,0.08,0.006,0.12c0.003,0.212,0.011,0.422,0.032,0.633  c0.008,0.085,0.024,0.168,0.035,0.252c0.022,0.163,0.043,0.329,0.076,0.492c0.022,0.112,0.053,0.219,0.08,0.329  c0.032,0.132,0.062,0.265,0.101,0.396c0.04,0.134,0.09,0.263,0.138,0.394c0.037,0.103,0.07,0.207,0.113,0.309  c0.065,0.159,0.142,0.313,0.217,0.468c0.035,0.07,0.065,0.143,0.103,0.212c0.106,0.198,0.22,0.388,0.342,0.575  c0.017,0.025,0.028,0.051,0.044,0.076c0.001,0.002,0.003,0.004,0.004,0.006c0.165,0.246,0.348,0.482,0.54,0.707  c0.06,0.071,0.123,0.137,0.185,0.204c0.133,0.147,0.272,0.287,0.416,0.422c0.08,0.074,0.159,0.149,0.241,0.219  c0.152,0.131,0.311,0.254,0.474,0.373c0.068,0.05,0.133,0.103,0.204,0.151c0.231,0.157,0.471,0.301,0.719,0.433  c0.06,0.032,0.122,0.058,0.183,0.089c0.199,0.099,0.401,0.191,0.608,0.273c0.079,0.031,0.158,0.059,0.238,0.087  c0.197,0.069,0.396,0.132,0.6,0.186c0.082,0.022,0.162,0.044,0.245,0.063c0.209,0.049,0.421,0.086,0.635,0.116  c0.078,0.011,0.153,0.027,0.231,0.035c0.264,0.029,0.533,0.047,0.804,0.049c0.022,0,0.043,0.004,0.065,0.004  c0.004,0,0.009-0.001,0.013-0.001h460.429c4.239,0,7.674-3.435,7.674-7.674V50.598C512,46.359,508.564,42.924,504.326,42.924z   M260.267,204.082L51.551,343.225V64.937L260.267,204.082z"/>
<path style="fill:#2E3033;" d="M20.97,482.003c-6.429,0-11.661-5.232-11.661-11.661V41.549c0-6.371,5.183-11.554,11.554-11.554  h1.524c6.431,0,11.661,5.232,11.661,11.661v428.685c0,6.431-5.232,11.661-11.661,11.661H20.97V482.003z"/>
<path d="M22.386,20.686h-1.524C9.359,20.686,0,30.045,0,41.549v428.793c0,11.563,9.407,20.97,20.97,20.97h1.415  c11.564,0,20.97-9.407,20.97-20.97V41.656C43.357,30.093,33.949,20.686,22.386,20.686z M27.841,470.342  c0,3.008-2.447,5.455-5.455,5.455h-1.415c-3.008,0-5.455-2.447-5.455-5.455V41.549c0-2.949,2.399-5.348,5.348-5.348h1.524  c3.008,0,5.455,2.447,5.455,5.455v428.686H27.841z"/>
<g>
</g>
<g>
</g>
<g>
</g>
<g>
</g>
<g>
</g>
<g>
</g>
<g>
</g>
<g>
</g>
<g>
</g>
<g>
</g>
<g>
</g>
<g>
</g>
<g>
</g>
<g>
</g>
<g>
</g>
</svg>
