<?xml version="1.0" encoding="iso-8859-1"?>
<!-- Generator: Adobe Illustrator 19.0.0, SVG Export Plug-In . SVG Version: 6.00 Build 0)  -->
<svg xmlns="http://www.w3.org/2000/svg" xmlns:xlink="http://www.w3.org/1999/xlink" version="1.1" id="Layer_1" x="0px" y="0px" viewBox="0 0 511.999 511.999" style="enable-background:new 0 0 511.999 511.999;" xml:space="preserve">
<g>
	<polygon style="fill:#ED1F34;" points="299.399,245.384 294.724,230.992 287.157,236.489  "/>
	<polygon style="fill:#ED1F34;" points="274.1,167.523 269.424,181.915 278.777,181.915  "/>
	<polygon style="fill:#ED1F34;" points="289.736,215.644 283.764,197.263 264.437,197.263 258.465,215.643 274.1,227.003  "/>
	<polygon style="fill:#ED1F34;" points="315.034,197.263 299.902,197.263 302.792,206.158  "/>
	<path style="fill:#ED1F34;" d="M51.551,326.869v23.022h445.101V58.273H51.551v237.899c0,4.239-3.436,7.674-7.674,7.674v15.349   C48.116,319.195,51.551,322.63,51.551,326.869z M209.55,181.915h43.736l13.517-41.597c1.027-3.162,3.974-5.302,7.298-5.302   s6.271,2.141,7.298,5.302l13.517,41.597h43.738c3.324,0,6.271,2.141,7.298,5.303c1.027,3.162-0.098,6.626-2.788,8.58   l-35.384,25.709l13.516,41.597c1.027,3.162-0.098,6.626-2.788,8.58c-1.345,0.977-2.928,1.466-4.511,1.466s-3.166-0.488-4.511-1.466   l-35.386-25.709l-35.385,25.708c-2.689,1.955-6.332,1.955-9.022,0c-2.69-1.954-3.815-5.418-2.788-8.58l13.516-41.597   l-32.162-23.367c-4.646-3.376-6.385-4.639-6.385-8.55C201.875,185.351,205.311,181.915,209.55,181.915z"/>
	<polygon style="fill:#ED1F34;" points="253.478,230.991 248.802,245.383 261.044,236.489  "/>
	<path style="fill:#ED1F34;" d="M248.299,197.263h-15.131c3.744,2.721,7.877,5.723,12.241,8.894L248.299,197.263z"/>
</g>
<path d="M504.326,42.925H43.877c-4.239,0-7.675,3.436-7.675,7.674v245.573c0,4.239,3.436,7.674,7.674,7.674s7.674-3.436,7.674-7.674  V58.272H496.65V349.89h-445.1v-23.022c0-4.238-3.436-7.674-7.674-7.674s-7.675,3.436-7.675,7.675v30.697  c0,4.239,3.436,7.674,7.674,7.674h460.449c4.239,0,7.674-3.436,7.674-7.674V50.599C512,46.361,508.564,42.925,504.326,42.925z"/>
<path style="fill:#134923;" d="M208.261,198.138l32.162,23.367l-13.516,41.597c-1.027,3.162,0.098,6.626,2.788,8.58  c2.689,1.955,6.332,1.955,9.022,0l35.385-25.708l35.386,25.709c1.345,0.977,2.928,1.466,4.511,1.466s3.166-0.488,4.511-1.466  c2.69-1.955,3.815-5.418,2.788-8.58l-13.516-41.597l35.384-25.709c2.69-1.955,3.815-5.419,2.788-8.58  c-1.027-3.161-3.974-5.303-7.298-5.303h-43.738l-13.517-41.597c-1.027-3.162-3.974-5.302-7.298-5.302s-6.271,2.141-7.298,5.302  l-13.517,41.597h-43.736c-4.239,0-7.674,3.436-7.674,7.674C201.875,193.499,203.615,194.762,208.261,198.138z M315.034,197.263  l-12.242,8.895l-2.89-8.895H315.034z M299.399,245.384l-12.242-8.895l7.567-5.496L299.399,245.384z M274.1,167.523l4.676,14.392  h-9.353L274.1,167.523z M264.437,197.263h19.327l5.972,18.38L274.1,227.003l-15.635-11.36L264.437,197.263z M253.478,230.991  l7.566,5.498l-12.242,8.894L253.478,230.991z M248.299,197.263l-2.89,8.894c-4.365-3.171-8.497-6.173-12.241-8.894H248.299z"/>
<path style="fill:#2E3033;" d="M20.97,482.004c-6.429,0-11.661-5.232-11.661-11.661V41.549c0-6.371,5.183-11.554,11.554-11.554  h1.524c6.431,0,11.661,5.232,11.661,11.661v428.685c0,6.431-5.232,11.661-11.661,11.661H20.97V482.004z"/>
<path d="M22.386,20.686h-1.524C9.359,20.686,0,30.045,0,41.549v428.793c0,11.563,9.407,20.97,20.97,20.97h1.415  c11.564,0,20.97-9.407,20.97-20.97V41.657C43.357,30.094,33.949,20.686,22.386,20.686z M27.841,470.342  c0,3.008-2.447,5.455-5.455,5.455h-1.415c-3.008,0-5.455-2.447-5.455-5.455V41.549c0-2.949,2.399-5.348,5.348-5.348h1.524  c3.008,0,5.455,2.447,5.455,5.455v428.686H27.841z"/>
<g>
</g>
<g>
</g>
<g>
</g>
<g>
</g>
<g>
</g>
<g>
</g>
<g>
</g>
<g>
</g>
<g>
</g>
<g>
</g>
<g>
</g>
<g>
</g>
<g>
</g>
<g>
</g>
<g>
</g>
</svg>
