<?xml version="1.0" encoding="iso-8859-1"?>
<!-- Generator: Adobe Illustrator 19.0.0, SVG Export Plug-In . SVG Version: 6.00 Build 0)  -->
<svg xmlns="http://www.w3.org/2000/svg" xmlns:xlink="http://www.w3.org/1999/xlink" version="1.1" id="Layer_1" x="0px" y="0px" viewBox="0 0 512 512" style="enable-background:new 0 0 512 512;" xml:space="preserve">
<g>
	<polygon style="fill:#103B9B;" points="128.189,52.941 81.434,52.941 128.189,84.11  "/>
	<polygon style="fill:#103B9B;" points="39.132,75.888 39.132,102.592 79.188,102.592  "/>
	<polygon style="fill:#103B9B;" points="217.501,52.941 170.747,52.941 170.747,84.11  "/>
	<polygon style="fill:#103B9B;" points="39.132,145.15 39.132,171.855 79.188,145.15  "/>
	<path style="fill:#103B9B;" d="M496.237,297.256V52.941H267.685v17.693l-47.937,31.958h47.937v9.851v22.855v9.851h-47.937   l47.937,31.959v8.889v16.686h-38.361l-58.577-39.051v39.051h-9.851H138.04h-9.851v-39.051l-58.577,39.051H56.825H39.132v149.742   h457.106v-23.643c0-4.353,3.528-7.881,7.881-7.881v-15.762C499.765,305.137,496.237,301.608,496.237,297.256z M446.324,205.856   c0,32.508-15.919,51.872-29.274,62.393c-14.307,11.269-28.654,14.904-29.257,15.054c-0.62,0.154-1.256,0.231-1.891,0.231   c-0.635,0-1.269-0.076-1.891-0.231c-0.603-0.15-14.949-3.785-29.256-15.054c-13.356-10.522-29.275-29.886-29.275-62.393v-79.174   c0-4.352,3.528-7.881,7.882-7.881h105.082c4.353,0,7.881,3.529,7.881,7.881L446.324,205.856L446.324,205.856z"/>
</g>
<polygon style="fill:#FFFFFF;" points="181.386,102.592 170.747,102.592 170.747,92.64 230.29,52.941 217.501,52.941 170.747,84.11   170.747,52.941 160.895,52.941 160.895,112.444 267.685,112.444 267.685,102.592 219.748,102.592 267.685,70.634 267.685,52.941   255.863,52.941 "/>
<g>
	<polygon style="fill:#ED1F34;" points="181.386,145.15 267.685,202.683 267.685,185.996 206.56,145.15  "/>
	<polygon style="fill:#ED1F34;" points="117.549,102.592 43.072,52.941 39.132,52.941 39.132,67.388 91.811,102.592  "/>
	<polygon style="fill:#ED1F34;" points="128.189,145.15 117.549,145.15 39.132,197.428 39.132,202.683 56.825,202.683    128.189,155.107  "/>
	<polygon style="fill:#ED1F34;" points="170.747,102.592 181.386,102.592 255.863,52.941 230.29,52.941 170.747,92.64  "/>
</g>
<g>
	<polygon style="fill:#FFFFFF;" points="138.04,135.299 39.132,135.299 39.132,145.15 79.188,145.15 39.132,171.855 39.132,197.428    117.549,145.15 128.189,145.15 128.189,155.107 56.825,202.683 69.612,202.683 128.189,163.631 128.189,202.683 138.04,202.683     "/>
	<polygon style="fill:#FFFFFF;" points="138.04,112.444 138.04,52.941 128.189,52.941 128.189,84.11 81.434,52.941 43.072,52.941    117.549,102.592 91.811,102.592 39.132,67.388 39.132,75.888 79.188,102.592 39.132,102.592 39.132,112.444  "/>
	<polygon style="fill:#FFFFFF;" points="160.895,135.299 160.895,202.683 170.747,202.683 170.747,163.631 229.324,202.683    267.685,202.683 181.386,145.15 206.56,145.15 267.685,185.996 267.685,177.107 219.748,145.15 267.685,145.15 267.685,135.299     "/>
</g>
<polygon style="fill:#ED1F34;" points="160.895,112.444 160.895,52.941 138.04,52.941 138.04,112.444 39.132,112.444   39.132,135.299 138.04,135.299 138.04,202.683 160.895,202.683 160.895,135.299 267.685,135.299 267.685,112.444 "/>
<path style="fill:#3DB4EA;" d="M366.461,158.207c0-4.353,3.528-7.881,7.881-7.881c4.354,0,7.882,3.529,7.882,7.881v47.649h7.356  v-47.649c0-4.353,3.528-7.881,7.881-7.881s7.882,3.529,7.882,7.881v47.649h25.219l0,0v-71.293h-89.32v71.293l0,0h25.22  L366.461,158.207L366.461,158.207z"/>
<path style="fill:#BF2300;" d="M385.901,267.446c8.884-2.846,44.66-17.076,44.66-61.589h-25.219v27.764  c0,4.353-3.529,7.881-7.882,7.881s-7.881-3.529-7.881-7.881v-27.764h-7.356v27.764c0,4.353-3.528,7.881-7.882,7.881  c-4.353,0-7.881-3.529-7.881-7.881v-27.764h-25.22C341.242,250.37,377.018,264.6,385.901,267.446z"/>
<path d="M438.443,118.801H333.361c-4.354,0-7.882,3.529-7.882,7.881v79.174c0,32.508,15.919,51.872,29.275,62.393  c14.307,11.269,28.653,14.904,29.256,15.054c0.621,0.154,1.257,0.231,1.891,0.231c0.636,0,1.27-0.076,1.891-0.231  c0.603-0.15,14.95-3.785,29.257-15.054c13.354-10.522,29.274-29.886,29.274-62.393v-79.174  C446.324,122.33,442.796,118.801,438.443,118.801z M341.242,205.856v-71.293h89.32v71.293l0,0c0,44.513-35.776,58.743-44.66,61.589  C377.018,264.6,341.242,250.37,341.242,205.856L341.242,205.856z"/>
<path d="M374.342,150.326c-4.353,0-7.881,3.529-7.881,7.881v47.649v27.764c0,4.353,3.528,7.881,7.881,7.881  c4.354,0,7.882-3.529,7.882-7.881v-27.764v-47.649C382.224,153.854,378.696,150.326,374.342,150.326z"/>
<path style="fill:#134923;" d="M397.461,150.326c-4.353,0-7.881,3.529-7.881,7.881v47.649v27.764c0,4.353,3.528,7.881,7.881,7.881  s7.882-3.529,7.882-7.881v-27.764v-47.649C405.343,153.854,401.814,150.326,397.461,150.326z"/>
<path d="M496.237,328.781v23.643H39.132V202.683v-5.254v-25.575V145.15v-9.851v-22.855v-9.851V75.888v-8.5V52.941h3.94h38.362  h46.756h9.851h22.855h9.851h46.755h12.788h25.573h11.822h228.553v244.315c0,4.352,3.528,7.881,7.881,7.881  c4.354,0,7.882-3.529,7.882-7.881V45.059c0-4.353-3.528-7.881-7.882-7.881H31.25c-4.352,0-7.881,3.529-7.881,7.881v315.245  c0,4.353,3.529,7.881,7.881,7.881h472.868c4.354,0,7.882-3.529,7.882-7.881v-31.524c0-4.353-3.528-7.881-7.882-7.881  C499.765,320.9,496.237,324.427,496.237,328.781z"/>
<path style="fill:#2E3033;" d="M21.536,488.1c-6.603,0-11.976-5.373-11.976-11.976V35.766c0-6.542,5.323-11.865,11.865-11.865h1.565  c6.604,0,11.976,5.373,11.976,11.976v440.247c0,6.604-5.373,11.976-11.976,11.976h-1.454V488.1z"/>
<path d="M22.99,14.34h-1.565C9.611,14.34,0,23.951,0,35.766v440.358C0,488,9.661,497.66,21.536,497.66h1.453  c11.876,0,21.536-9.661,21.536-21.536V35.876C44.526,24.001,34.865,14.34,22.99,14.34z M28.592,476.124  c0,3.089-2.513,5.602-5.602,5.602h-1.453c-3.089,0-5.602-2.513-5.602-5.602V35.766c0-3.028,2.463-5.492,5.492-5.492h1.565  c3.089,0,5.602,2.513,5.602,5.602v440.248H28.592z"/>
<g>
</g>
<g>
</g>
<g>
</g>
<g>
</g>
<g>
</g>
<g>
</g>
<g>
</g>
<g>
</g>
<g>
</g>
<g>
</g>
<g>
</g>
<g>
</g>
<g>
</g>
<g>
</g>
<g>
</g>
</svg>
