<?xml version="1.0" encoding="iso-8859-1"?>
<!-- Generator: Adobe Illustrator 19.0.0, SVG Export Plug-In . SVG Version: 6.00 Build 0)  -->
<svg xmlns="http://www.w3.org/2000/svg" xmlns:xlink="http://www.w3.org/1999/xlink" version="1.1" id="Layer_1" x="0px" y="0px" viewBox="0 0 512 512" style="enable-background:new 0 0 512 512;" xml:space="preserve">
<path style="fill:#FFE000;" d="M73.698,57.873H50.63v292.201h445.992V57.873H104.456c-4.247,0-7.689-3.443-7.689-7.689h-15.38  C81.387,54.431,77.945,57.873,73.698,57.873z M473.552,80.942v246.065H73.698V80.942H473.552z"/>
<path style="fill:#ED1F34;" d="M73.698,327.005h399.854V80.942H73.698V327.005z M179.674,147.488h10.253h47.644  c4.247,0,7.689,3.443,7.689,7.689c0,7.848,3.206,14.96,8.372,20.101v-44.003h-4.613c-4.248,0-7.69-3.443-7.69-7.689  s3.442-7.689,7.69-7.689h12.303c4.248,0,7.69,3.443,7.69,7.689v59.575c1.502,0.247,3.042,0.381,4.613,0.381s3.111-0.134,4.613-0.381  v-59.575c0-4.246,3.442-7.689,7.689-7.689h12.304c4.247,0,7.689,3.443,7.689,7.689c0,4.247-3.442,7.689-7.689,7.689h-4.613v44.003  c5.167-5.141,8.371-12.253,8.371-20.101c0-4.246,3.442-7.689,7.69-7.689h47.644h10.253c4.247,0,7.689,3.443,7.689,7.689  c0,4.247-3.442,7.689-7.689,7.689h-2.888c-3.079,36.89-28.117,68.136-63.073,79.313c1.9,4.051,2.915,8.515,2.915,13.108v29.072  c0,4.247-3.442,7.689-7.689,7.689h-46.433c-4.247,0-7.689-3.442-7.689-7.689v-29.072c0-4.594,1.016-9.056,2.915-13.108  c-34.957-11.178-59.995-42.424-63.073-79.313h-2.888c-4.247,0-7.689-3.443-7.689-7.689  C171.984,150.931,175.427,147.488,179.674,147.488z"/>
<path d="M504.311,42.494H104.456c-4.247,0-7.689,3.443-7.689,7.689c0,4.247,3.442,7.689,7.689,7.689h392.165v292.201H50.63V57.873  h23.069c4.247,0,7.689-3.443,7.689-7.689s-3.442-7.689-7.689-7.689H42.941c-4.247,0-7.689,3.443-7.689,7.689v307.58  c0,4.246,3.442,7.689,7.689,7.689h461.37c4.247,0,7.689-3.443,7.689-7.689V50.183C512,45.937,508.558,42.494,504.311,42.494z"/>
<path style="fill:#FFE000;" d="M260.059,229.953c2.933,0.529,5.297,2.706,6.067,5.586c0.767,2.881-0.198,5.946-2.481,7.866  c-3.525,2.966-5.547,7.299-5.547,11.884v21.383h31.055v-21.383c0-4.586-2.021-8.918-5.548-11.884  c-2.281-1.919-3.248-4.984-2.48-7.866c0.769-2.88,3.133-5.058,6.067-5.586c33.633-6.059,58.693-33.662,62.058-67.087h-32.558  c-3.644,20.465-21.569,36.055-43.067,36.055s-39.423-15.589-43.067-36.055h-32.557C201.365,196.292,226.425,223.894,260.059,229.953  z"/>
<path d="M179.674,162.868h2.888c3.079,36.89,28.118,68.136,63.073,79.313c-1.9,4.051-2.915,8.515-2.915,13.108v29.072  c0,4.247,3.442,7.689,7.689,7.689h46.433c4.247,0,7.689-3.442,7.689-7.689v-29.072c0-4.593-1.016-9.056-2.915-13.108  c34.957-11.178,59.995-42.424,63.073-79.313h2.888c4.247,0,7.689-3.443,7.689-7.689c0-4.246-3.442-7.689-7.689-7.689h-10.253  h-47.644c-4.248,0-7.69,3.443-7.69,7.689c0,7.848-3.205,14.96-8.371,20.101v-44.004h4.613c4.247,0,7.689-3.443,7.689-7.689  s-3.442-7.689-7.689-7.689h-12.304c-4.247,0-7.689,3.443-7.689,7.689v59.575c-1.502,0.247-3.043,0.381-4.613,0.381  c-1.572,0-3.111-0.134-4.613-0.381v-59.575c0-4.246-3.442-7.689-7.69-7.689h-12.303c-4.248,0-7.69,3.443-7.69,7.689  c0,4.247,3.442,7.689,7.69,7.689h4.613v44.003c-5.167-5.141-8.372-12.253-8.372-20.101c0-4.246-3.442-7.689-7.689-7.689h-47.643  h-10.253c-4.247,0-7.689,3.443-7.689,7.689C171.984,159.425,175.427,162.868,179.674,162.868z M230.559,162.868  c3.644,20.465,21.569,36.055,43.067,36.055s39.423-15.589,43.067-36.055h32.558c-3.364,33.424-28.424,61.026-62.058,67.087  c-2.933,0.529-5.297,2.706-6.067,5.586c-0.768,2.881,0.198,5.946,2.48,7.866c3.526,2.966,5.548,7.299,5.548,11.884v21.383h-31.055  V255.29c0-4.586,2.021-8.918,5.547-11.884c2.282-1.919,3.248-4.984,2.481-7.866c-0.769-2.88-3.133-5.058-6.067-5.586  c-33.633-6.059-58.693-33.662-62.058-67.087L230.559,162.868L230.559,162.868z"/>
<path style="fill:#2E3033;" d="M21.013,482.462c-6.442,0-11.685-5.242-11.685-11.685V41.115c0-6.383,5.194-11.577,11.577-11.577  h1.527c6.444,0,11.685,5.242,11.685,11.685v429.552c0,6.444-5.242,11.685-11.685,11.685h-1.419V482.462z"/>
<path d="M22.432,20.211h-1.527C9.378,20.211,0,29.588,0,41.115v429.661c0,11.587,9.426,21.013,21.013,21.013h1.418  c11.587,0,21.013-9.426,21.013-21.013V41.223C43.444,29.637,34.018,20.211,22.432,20.211z M27.898,470.777  c0,3.014-2.452,5.466-5.466,5.466h-1.418c-3.014,0-5.466-2.452-5.466-5.466V41.115c0-2.955,2.403-5.358,5.358-5.358h1.527  c3.014,0,5.466,2.452,5.466,5.466v429.553H27.898z"/>
<g>
</g>
<g>
</g>
<g>
</g>
<g>
</g>
<g>
</g>
<g>
</g>
<g>
</g>
<g>
</g>
<g>
</g>
<g>
</g>
<g>
</g>
<g>
</g>
<g>
</g>
<g>
</g>
<g>
</g>
</svg>
