<?xml version="1.0" encoding="iso-8859-1"?>
<!-- Generator: Adobe Illustrator 19.0.0, SVG Export Plug-In . SVG Version: 6.00 Build 0)  -->
<svg xmlns="http://www.w3.org/2000/svg" xmlns:xlink="http://www.w3.org/1999/xlink" version="1.1" id="Layer_1" x="0px" y="0px" viewBox="0 0 511.999 511.999" style="enable-background:new 0 0 511.999 511.999;" xml:space="preserve">
<path style="fill:#103B9B;" d="M342.826,296.254V57.873H204.412v292.209h138.415v-23.07c0-4.247,3.443-7.689,7.689-7.689v-15.38  C346.27,303.943,342.826,300.501,342.826,296.254z"/>
<g>
	<path style="fill:#ED1F34;" d="M358.206,296.254c0,4.247-3.443,7.689-7.689,7.689v15.38c4.247,0,7.689,3.442,7.689,7.689v23.07   H496.62V57.873H358.206V296.254z"/>
	<path style="fill:#ED1F34;" d="M189.033,57.873H50.619v292.209h138.414L189.033,57.873L189.033,57.873z M112.135,108.692   c0-4.247,3.443-7.689,7.689-7.689c4.247,0,7.689,3.442,7.689,7.689v9.506c0,4.247-3.443,7.689-7.689,7.689   s-7.689-3.442-7.689-7.689V108.692z M119.826,136.14c10.177,0,18.456,8.279,18.456,18.456c0,10.177-8.279,18.456-18.456,18.456   c-10.176,0-18.455-8.279-18.455-18.456C101.371,144.419,109.649,136.14,119.826,136.14z M86.503,299.262   c0,4.247-3.443,7.689-7.689,7.689s-7.689-3.442-7.689-7.689v-82.508c0-4.248,3.443-7.69,7.689-7.69s7.689,3.442,7.689,7.69V299.262   z M135.205,306.338h-30.758c-4.247,0-7.689-3.442-7.689-7.689s3.443-7.689,7.689-7.689h30.758c4.247,0,7.689,3.442,7.689,7.689   S139.452,306.338,135.205,306.338z M119.826,280.707c-12.72,0-23.069-10.349-23.069-23.069c0-12.72,10.349-23.07,23.069-23.07   s23.069,10.349,23.069,23.07C142.895,270.358,132.546,280.707,119.826,280.707z M135.205,224.315h-30.758   c-4.247,0-7.689-3.442-7.689-7.689s3.443-7.689,7.689-7.689h30.758c4.247,0,7.689,3.442,7.689,7.689   S139.452,224.315,135.205,224.315z M119.826,198.682c-19.425,0-36.822-13.021-42.304-31.662c-1.198-4.075,1.134-8.35,5.207-9.548   c4.073-1.198,8.35,1.134,9.547,5.207c3.571,12.143,14.9,20.622,27.55,20.622c12.651,0,23.979-8.48,27.551-20.622   c1.198-4.075,5.472-6.407,9.547-5.207c4.074,1.198,6.405,5.472,5.207,9.548C156.647,185.663,139.251,198.682,119.826,198.682z    M160.837,306.952c-4.246,0-7.689-3.442-7.689-7.689v-82.508c0-4.248,3.443-7.69,7.689-7.69c4.247,0,7.689,3.442,7.689,7.69v82.508   C168.527,303.51,165.084,306.952,160.837,306.952z"/>
</g>
<path d="M504.311,42.493H42.928c-4.246,0-7.689,3.442-7.689,7.689V357.77c0,4.248,3.443,7.69,7.689,7.69H504.31  c4.247,0,7.689-3.442,7.689-7.69V50.183C512,45.935,508.557,42.493,504.311,42.493z M496.62,350.081H358.206v-23.07  c0-4.247-3.443-7.689-7.689-7.689c-4.246,0-7.689,3.442-7.689,7.689v23.07H204.412V57.873h138.415v238.381  c0,4.247,3.443,7.689,7.689,7.689c4.247,0,7.689-3.442,7.689-7.689V57.873H496.62V350.081z M50.619,57.873h138.414v292.209H50.619  V57.873z"/>
<g>
	<path style="fill:#FFE000;" d="M156.923,157.474c-4.074-1.199-8.35,1.133-9.547,5.207c-3.572,12.143-14.9,20.622-27.551,20.622   c-12.65,0-23.979-8.48-27.55-20.622c-1.198-4.074-5.473-6.406-9.547-5.207c-4.073,1.199-6.406,5.472-5.207,9.548   c5.483,18.641,22.879,31.662,42.304,31.662c19.426,0,36.822-13.021,42.305-31.662C163.328,162.946,160.997,158.672,156.923,157.474   z"/>
	<path style="fill:#FFE000;" d="M119.826,173.051c10.177,0,18.456-8.279,18.456-18.456c0-10.177-8.279-18.456-18.456-18.456   c-10.176,0-18.455,8.279-18.455,18.456C101.371,164.772,109.649,173.051,119.826,173.051z"/>
	<path style="fill:#FFE000;" d="M160.837,209.064c-4.246,0-7.689,3.442-7.689,7.69v82.508c0,4.247,3.443,7.689,7.689,7.689   c4.247,0,7.689-3.442,7.689-7.689v-82.508C168.527,212.506,165.084,209.064,160.837,209.064z"/>
	<path style="fill:#FFE000;" d="M78.814,209.064c-4.247,0-7.689,3.442-7.689,7.69v82.508c0,4.247,3.443,7.689,7.689,7.689   s7.689-3.442,7.689-7.689v-82.508C86.503,212.506,83.061,209.064,78.814,209.064z"/>
	<path style="fill:#FFE000;" d="M119.826,125.887c4.247,0,7.689-3.442,7.689-7.689v-9.506c0-4.247-3.443-7.689-7.689-7.689   s-7.689,3.442-7.689,7.689v9.506C112.135,122.445,115.579,125.887,119.826,125.887z"/>
	<path style="fill:#FFE000;" d="M119.826,234.568c-12.72,0-23.069,10.349-23.069,23.07c0,12.719,10.349,23.069,23.069,23.069   s23.069-10.349,23.069-23.069C142.895,244.918,132.546,234.568,119.826,234.568z"/>
	<path style="fill:#FFE000;" d="M135.205,290.96h-30.758c-4.247,0-7.689,3.442-7.689,7.689s3.443,7.689,7.689,7.689h30.758   c4.247,0,7.689-3.442,7.689-7.689S139.452,290.96,135.205,290.96z"/>
	<path style="fill:#FFE000;" d="M135.205,208.936h-30.758c-4.247,0-7.689,3.442-7.689,7.689s3.443,7.689,7.689,7.689h30.758   c4.247,0,7.689-3.442,7.689-7.689S139.452,208.936,135.205,208.936z"/>
</g>
<path style="fill:#2E3033;" d="M21.013,482.461c-6.442,0-11.685-5.242-11.685-11.685V41.115c0-6.383,5.194-11.577,11.577-11.577  h1.527c6.444,0,11.685,5.242,11.685,11.685v429.552c0,6.444-5.242,11.685-11.685,11.685h-1.419V482.461z"/>
<path d="M22.432,20.21h-1.527C9.378,20.21,0,29.588,0,41.115v429.661c0,11.587,9.426,21.013,21.013,21.013h1.418  c11.587,0,21.013-9.426,21.013-21.013V41.223C43.444,29.636,34.018,20.21,22.432,20.21z M27.898,470.776  c0,3.014-2.452,5.466-5.466,5.466h-1.418c-3.014,0-5.466-2.452-5.466-5.466V41.115c0-2.955,2.403-5.358,5.358-5.358h1.527  c3.014,0,5.466,2.452,5.466,5.466v429.554H27.898z"/>
<g>
</g>
<g>
</g>
<g>
</g>
<g>
</g>
<g>
</g>
<g>
</g>
<g>
</g>
<g>
</g>
<g>
</g>
<g>
</g>
<g>
</g>
<g>
</g>
<g>
</g>
<g>
</g>
<g>
</g>
</svg>
