<?xml version="1.0" encoding="iso-8859-1"?>
<!-- Generator: Adobe Illustrator 19.0.0, SVG Export Plug-In . SVG Version: 6.00 Build 0)  -->
<svg xmlns="http://www.w3.org/2000/svg" xmlns:xlink="http://www.w3.org/1999/xlink" version="1.1" id="Layer_1" x="0px" y="0px" viewBox="0 0 512 512" style="enable-background:new 0 0 512 512;" xml:space="preserve">
<path style="fill:#FFE000;" d="M342.831,350.074V57.873H204.42V265.49c0,4.246-3.442,7.689-7.689,7.689v15.379  c4.247,0,7.689,3.443,7.689,7.689v53.826h138.411V350.074z M219.798,184.581c0-12.472,10.148-22.62,22.62-22.62  c9.774,0,18.117,6.232,21.271,14.931h2.246v-19.233h-0.889c-4.247,0-7.689-3.442-7.689-7.689c0-4.247,3.442-7.689,7.689-7.689h8.579  c4.247,0,7.689,3.442,7.689,7.689v26.922h2.246c3.154-8.699,11.498-14.931,21.271-14.931c12.473,0,22.619,10.148,22.619,22.62  v63.569c0,3.084-1.843,5.871-4.683,7.077c-0.97,0.411-1.992,0.613-3.005,0.613c-1.955,0-3.877-0.744-5.34-2.155L288.6,228.78  l-7.286,3.915v25.284c0,4.246-3.442,7.689-7.689,7.689s-7.689-3.443-7.689-7.689v-25.284l-7.286-3.915l-25.823,24.905  c-1.462,1.41-3.386,2.155-5.341,2.155c-1.014,0-2.036-0.2-3.004-0.613c-2.84-1.206-4.684-3.992-4.684-7.077V184.581z"/>
<rect x="358.213" y="57.873" style="fill:#ED1F34;" width="138.416" height="292.203"/>
<path style="fill:#164FCE;" d="M189.041,265.49V57.873H50.63v292.201h138.411v-53.826c0-4.246,3.442-7.689,7.69-7.689v-15.379  C192.483,273.179,189.041,269.736,189.041,265.49z"/>
<path d="M504.311,42.494H42.941c-4.247,0-7.689,3.443-7.689,7.689v307.58c0,4.247,3.442,7.689,7.689,7.689h461.37  c4.247,0,7.689-3.443,7.689-7.689V50.183C512,45.937,508.558,42.494,504.311,42.494z M496.621,350.074H358.209V57.873h138.412  V350.074z M196.73,288.558c-4.248,0-7.69,3.443-7.69,7.689v53.826H50.63V57.873h138.411V265.49c0,4.246,3.442,7.689,7.69,7.689  c4.247,0,7.689-3.443,7.689-7.689V57.873h138.411v292.201H204.42v-53.826C204.42,292.001,200.978,288.558,196.73,288.558z"/>
<path style="fill:#F2A643;" d="M249.659,184.581c0-3.992-3.248-7.241-7.24-7.241c-3.993,0-7.241,3.248-7.241,7.241v45.47  l14.481-13.967v-31.503H249.659z"/>
<path d="M224.482,255.227c0.969,0.411,1.991,0.613,3.004,0.613c1.956,0,3.878-0.745,5.341-2.155l25.823-24.905l7.286,3.915v25.284  c0,4.246,3.442,7.689,7.689,7.689s7.689-3.443,7.689-7.689v-25.284l7.286-3.915l25.823,24.905c1.462,1.411,3.386,2.155,5.34,2.155  c1.014,0,2.036-0.2,3.005-0.613c2.839-1.206,4.683-3.992,4.683-7.077v-63.569c0-12.472-10.147-22.62-22.619-22.62  c-9.774,0-18.117,6.232-21.271,14.931h-2.246v-26.922c0-4.247-3.442-7.689-7.689-7.689h-8.579c-4.247,0-7.689,3.442-7.689,7.689  c0,4.247,3.442,7.689,7.689,7.689h0.889v19.233h-2.246c-3.154-8.699-11.498-14.931-21.271-14.931  c-12.472,0-22.62,10.148-22.62,22.62v63.569C219.798,251.234,221.642,254.02,224.482,255.227z M235.178,184.581  c0-3.992,3.248-7.241,7.241-7.241s7.24,3.248,7.24,7.241v31.503l-14.481,13.967v-45.47H235.178z M312.073,184.581v45.47  l-14.481-13.967v-31.503c0-3.992,3.248-7.241,7.24-7.241C308.825,177.34,312.073,180.589,312.073,184.581z M282.213,214.753  l-8.587,4.614l-8.588-4.614v-22.482h17.175V214.753z"/>
<path style="fill:#F2A643;" d="M297.592,184.581v31.503l14.481,13.967v-45.47c0-3.992-3.248-7.241-7.241-7.241  C300.84,177.34,297.592,180.589,297.592,184.581z"/>
<polygon style="fill:#ED1F34;" points="265.038,192.271 265.038,214.753 273.626,219.367 282.213,214.753 282.213,192.271 "/>
<path style="fill:#2E3033;" d="M21.013,482.462c-6.442,0-11.685-5.242-11.685-11.685V41.115c0-6.383,5.194-11.577,11.577-11.577  h1.527c6.444,0,11.685,5.242,11.685,11.685v429.552c0,6.444-5.242,11.685-11.685,11.685h-1.419V482.462z"/>
<path d="M22.432,20.211h-1.527C9.378,20.211,0,29.588,0,41.115v429.661c0,11.587,9.426,21.013,21.013,21.013h1.418  c11.587,0,21.013-9.426,21.013-21.013V41.223C43.444,29.637,34.018,20.211,22.432,20.211z M27.898,470.777  c0,3.014-2.452,5.466-5.466,5.466h-1.418c-3.014,0-5.466-2.452-5.466-5.466V41.115c0-2.955,2.403-5.358,5.358-5.358h1.527  c3.014,0,5.466,2.452,5.466,5.466v429.553H27.898z"/>
<g>
</g>
<g>
</g>
<g>
</g>
<g>
</g>
<g>
</g>
<g>
</g>
<g>
</g>
<g>
</g>
<g>
</g>
<g>
</g>
<g>
</g>
<g>
</g>
<g>
</g>
<g>
</g>
<g>
</g>
</svg>
