<?xml version="1.0" encoding="iso-8859-1"?>
<!-- Generator: Adobe Illustrator 19.0.0, SVG Export Plug-In . SVG Version: 6.00 Build 0)  -->
<svg xmlns="http://www.w3.org/2000/svg" xmlns:xlink="http://www.w3.org/1999/xlink" version="1.1" id="Layer_1" x="0px" y="0px" viewBox="0 0 511.999 511.999" style="enable-background:new 0 0 511.999 511.999;" xml:space="preserve">
<path style="fill:#3DB4EA;" d="M51.551,111.992v237.899h445.101V58.273H51.551v23.022c0,4.239-3.436,7.674-7.674,7.674v15.348  C48.116,104.317,51.551,107.754,51.551,111.992z M322.922,186.988c-1.734-2.664-1.645-6.122,0.224-8.695  c1.868-2.572,5.131-3.725,8.2-2.901l19.693,5.293l12.822-15.856c1.999-2.472,5.315-3.454,8.339-2.474  c3.023,0.983,5.128,3.728,5.293,6.903l1.052,20.364l19.043,7.294c2.969,1.137,4.929,3.987,4.929,7.167  c0,3.179-1.96,6.029-4.929,7.166l-19.043,7.293l-1.052,20.364c-0.164,3.175-2.269,5.921-5.293,6.902  c-0.779,0.253-1.579,0.376-2.371,0.376c-2.277,0-4.485-1.015-5.968-2.85l-12.822-15.856l-19.693,5.293  c-3.071,0.824-6.332-0.329-8.2-2.901c-1.869-2.571-1.958-6.03-0.224-8.695l11.118-17.093L322.922,186.988z M232.375,105.985  c0.982-3.023,3.728-5.128,6.902-5.293l20.364-1.052l7.293-19.043c1.137-2.969,3.987-4.929,7.166-4.929c3.18,0,6.03,1.96,7.167,4.929  l7.293,19.043l20.364,1.052c3.175,0.164,5.921,2.269,6.902,5.293c0.983,3.023-0.001,6.339-2.473,8.339l-15.856,12.822l5.293,19.692  c0.824,3.071-0.329,6.332-2.901,8.2c-1.342,0.975-2.925,1.466-4.511,1.466c-1.454,0-2.91-0.413-4.184-1.241l-17.093-11.119  l-17.094,11.118c-2.665,1.735-6.122,1.645-8.695-0.224c-2.571-1.869-3.726-5.129-2.9-8.2l5.293-19.692l-15.856-12.822  C232.376,112.324,231.392,109.008,232.375,105.985z M234.848,293.841l15.856-12.821l-5.293-19.693c-0.824-3.071,0.329-6.331,2.9-8.2  c2.571-1.87,6.03-1.958,8.695-0.225l17.095,11.119l17.094-11.119c2.665-1.733,6.123-1.644,8.695,0.225  c2.572,1.869,3.726,5.129,2.901,8.2l-5.293,19.693l15.856,12.821c2.472,1.999,3.456,5.316,2.473,8.339  c-0.982,3.023-3.728,5.128-6.902,5.293l-20.364,1.052l-7.293,19.042c-1.137,2.969-3.987,4.93-7.167,4.93  c-3.179,0-6.029-1.961-7.166-4.93l-7.293-19.042l-20.364-1.052c-3.175-0.164-5.921-2.269-6.902-5.293  C231.392,299.156,232.376,295.84,234.848,293.841z M150.616,196.916l19.042-7.294l1.052-20.364c0.164-3.175,2.269-5.921,5.293-6.903  c3.021-0.982,6.339,0.001,8.339,2.474l12.821,15.856l19.693-5.293c3.071-0.824,6.331,0.329,8.2,2.901s1.958,6.03,0.224,8.695  l-11.118,17.094l11.118,17.093c1.734,2.665,1.645,6.123-0.224,8.695c-1.868,2.572-5.13,3.726-8.2,2.901l-19.693-5.293  l-12.821,15.856c-1.483,1.835-3.692,2.85-5.968,2.85c-0.791,0-1.591-0.123-2.371-0.376c-3.023-0.982-5.128-3.728-5.293-6.902  l-1.052-20.364l-19.042-7.293c-2.969-1.137-4.93-3.987-4.93-7.166C145.687,200.903,147.647,198.052,150.616,196.916z"/>
<path d="M504.326,42.925H43.877c-4.239,0-7.675,3.436-7.675,7.674v30.697c0,4.239,3.436,7.674,7.674,7.674s7.674-3.436,7.674-7.674  V58.273H496.65v291.618h-445.1V111.992c0-4.239-3.436-7.675-7.674-7.675s-7.675,3.437-7.675,7.675v245.573  c0,4.239,3.436,7.674,7.674,7.674h460.449c4.239,0,7.674-3.435,7.674-7.674V50.599C512,46.361,508.564,42.925,504.326,42.925z"/>
<path style="fill:#FFFFFF;" d="M264.236,118.347c2.36,1.908,3.374,5.028,2.586,7.959l-1.388,5.163l4.482-2.915  c1.271-0.827,2.728-1.241,4.184-1.241s2.913,0.414,4.184,1.241l4.482,2.915l-1.388-5.163c-0.787-2.931,0.227-6.051,2.586-7.959  l4.158-3.362l-5.339-0.276c-3.032-0.157-5.686-2.085-6.771-4.919l-1.91-4.993l-1.912,4.994c-1.086,2.834-3.74,4.762-6.771,4.919  l-5.339,0.276L264.236,118.347z"/>
<path d="M234.848,114.322l15.856,12.822l-5.293,19.692c-0.824,3.071,0.329,6.332,2.9,8.2c2.572,1.869,6.03,1.959,8.695,0.224  l17.095-11.118l17.094,11.118c1.274,0.828,2.73,1.241,4.184,1.241c1.586,0,3.168-0.491,4.511-1.466  c2.572-1.869,3.726-5.129,2.901-8.2l-5.293-19.692l15.856-12.822c2.472-1.999,3.456-5.315,2.473-8.339  c-0.982-3.023-3.728-5.128-6.902-5.293l-20.364-1.052l-7.293-19.043c-1.137-2.969-3.987-4.929-7.167-4.929  c-3.179,0-6.029,1.96-7.166,4.929l-7.293,19.043l-20.364,1.052c-3.175,0.164-5.921,2.269-6.902,5.293  C231.392,109.008,232.376,112.324,234.848,114.322z M272.189,109.791l1.912-4.994l1.913,4.994c1.086,2.834,3.74,4.762,6.771,4.919  l5.339,0.276l-4.158,3.362c-2.36,1.908-3.374,5.028-2.586,7.959l1.388,5.163l-4.482-2.915c-1.271-0.827-2.728-1.241-4.184-1.241  c-1.456,0-2.912,0.414-4.184,1.241l-4.482,2.915l1.388-5.163c0.787-2.931-0.227-6.051-2.586-7.959l-4.158-3.362l5.339-0.276  C268.449,114.553,271.103,112.625,272.189,109.791z"/>
<path style="fill:#FFFFFF;" d="M179.81,205.994c2.834,1.086,4.762,3.739,4.919,6.771l0.276,5.339l3.362-4.158  c1.908-2.36,5.026-3.374,7.959-2.587l5.162,1.388l-2.915-4.482c-1.655-2.543-1.655-5.824,0-8.369l2.915-4.482l-5.162,1.388  c-2.932,0.786-6.052-0.225-7.959-2.587l-3.362-4.157l-0.276,5.339c-0.156,3.032-2.085,5.686-4.919,6.771l-4.994,1.914  L179.81,205.994z"/>
<path d="M150.616,211.249l19.042,7.293l1.052,20.364c0.164,3.175,2.269,5.921,5.293,6.902c0.78,0.253,1.578,0.376,2.371,0.376  c2.277,0,4.485-1.015,5.968-2.85l12.821-15.856l19.693,5.293c3.07,0.824,6.332-0.329,8.2-2.901c1.869-2.571,1.958-6.03,0.224-8.695  l-11.118-17.093l11.118-17.095c1.734-2.664,1.645-6.122-0.224-8.695c-1.869-2.571-5.129-3.726-8.2-2.901l-19.693,5.293  l-12.821-15.856c-1.998-2.473-5.317-3.456-8.339-2.474c-3.023,0.983-5.128,3.728-5.293,6.903l-1.052,20.364l-19.042,7.294  c-2.969,1.137-4.93,3.987-4.93,7.167C145.687,207.261,147.647,210.112,150.616,211.249z M184.73,195.398l0.276-5.339l3.362,4.157  c1.907,2.361,5.027,3.373,7.959,2.587l5.162-1.388l-2.915,4.482c-1.655,2.544-1.655,5.824,0,8.369l2.915,4.482l-5.162-1.388  c-2.933-0.787-6.052,0.227-7.959,2.587l-3.362,4.158l-0.276-5.339c-0.156-3.032-2.085-5.685-4.919-6.771l-4.994-1.913l4.994-1.914  C182.644,201.084,184.572,198.43,184.73,195.398z"/>
<path style="fill:#FFFFFF;" d="M269.917,279.609l-4.482-2.915l1.388,5.162c0.787,2.931-0.227,6.052-2.586,7.959l-4.158,3.362  l5.339,0.276c3.032,0.156,5.686,2.085,6.771,4.919l1.912,4.994l1.913-4.994c1.086-2.834,3.74-4.762,6.771-4.919l5.339-0.276  l-4.158-3.362c-2.36-1.908-3.374-5.028-2.586-7.959l1.388-5.162l-4.482,2.915C275.741,281.264,272.462,281.264,269.917,279.609z"/>
<path d="M239.278,307.473l20.364,1.052l7.293,19.042c1.137,2.969,3.987,4.93,7.166,4.93c3.18,0,6.03-1.961,7.167-4.93l7.293-19.042  l20.364-1.052c3.175-0.164,5.921-2.269,6.902-5.293c0.983-3.023-0.001-6.339-2.473-8.339l-15.856-12.821l5.293-19.693  c0.824-3.071-0.329-6.331-2.901-8.2c-2.57-1.869-6.029-1.958-8.695-0.225l-17.094,11.119l-17.094-11.119  c-2.664-1.733-6.123-1.645-8.695,0.225c-2.571,1.869-3.726,5.129-2.9,8.2l5.293,19.693l-15.856,12.821  c-2.472,1.999-3.456,5.316-2.473,8.339C233.356,305.203,236.102,307.308,239.278,307.473z M282.768,276.695l-1.388,5.162  c-0.787,2.931,0.227,6.052,2.586,7.959l4.158,3.362l-5.339,0.276c-3.032,0.156-5.686,2.085-6.771,4.919l-1.913,4.994l-1.912-4.994  c-1.086-2.834-3.74-4.762-6.771-4.919l-5.339-0.276l4.158-3.362c2.36-1.908,3.374-5.028,2.586-7.959l-1.388-5.162l4.482,2.915  c2.543,1.655,5.824,1.655,8.368,0L282.768,276.695z"/>
<path style="fill:#FFFFFF;" d="M346.714,195.416l2.915,4.482c1.655,2.544,1.655,5.824,0,8.369l-2.915,4.482l5.162-1.388  c0.66-0.177,1.329-0.263,1.992-0.263c2.283,0,4.489,1.021,5.968,2.85l3.362,4.158l0.276-5.339c0.157-3.032,2.085-5.685,4.919-6.771  l4.994-1.912l-4.994-1.914c-2.834-1.085-4.762-3.739-4.919-6.771l-0.276-5.339l-3.362,4.157c-1.907,2.36-5.025,3.374-7.959,2.587  L346.714,195.416z"/>
<path d="M323.146,229.87c1.868,2.572,5.128,3.726,8.2,2.901l19.693-5.293l12.822,15.856c1.483,1.835,3.692,2.85,5.968,2.85  c0.791,0,1.591-0.123,2.371-0.376c3.023-0.982,5.128-3.728,5.293-6.902l1.052-20.364l19.043-7.293  c2.969-1.137,4.929-3.987,4.929-7.166c0-3.18-1.96-6.03-4.929-7.167l-19.043-7.294l-1.052-20.364  c-0.164-3.175-2.269-5.921-5.293-6.903c-3.022-0.98-6.339,0.002-8.339,2.474l-12.822,15.856l-19.693-5.293  c-3.069-0.823-6.332,0.329-8.2,2.901c-1.869,2.572-1.958,6.03-0.224,8.695l11.118,17.094l-11.118,17.094  C321.188,223.841,321.277,227.299,323.146,229.87z M359.836,194.217l3.362-4.157l0.276,5.339c0.157,3.032,2.085,5.686,4.919,6.771  l4.994,1.914l-4.994,1.912c-2.834,1.086-4.762,3.739-4.919,6.771l-0.276,5.339l-3.362-4.158c-1.479-1.83-3.685-2.85-5.968-2.85  c-0.663,0-1.332,0.086-1.992,0.263l-5.162,1.388l2.915-4.482c1.655-2.543,1.655-5.824,0-8.369l-2.915-4.482l5.162,1.388  C354.811,197.591,357.928,196.577,359.836,194.217z"/>
<path style="fill:#2E3033;" d="M20.97,482.004c-6.429,0-11.661-5.232-11.661-11.661V41.549c0-6.371,5.183-11.554,11.554-11.554  h1.524c6.431,0,11.661,5.232,11.661,11.661v428.685c0,6.431-5.232,11.661-11.661,11.661H20.97V482.004z"/>
<path d="M22.386,20.686h-1.524C9.359,20.686,0,30.045,0,41.549v428.793c0,11.563,9.407,20.97,20.97,20.97h1.415  c11.564,0,20.97-9.407,20.97-20.97V41.657C43.357,30.094,33.949,20.686,22.386,20.686z M27.841,470.342  c0,3.008-2.447,5.455-5.455,5.455h-1.415c-3.008,0-5.455-2.447-5.455-5.455V41.549c0-2.949,2.399-5.348,5.348-5.348h1.524  c3.008,0,5.455,2.447,5.455,5.455v428.686H27.841z"/>
<g>
</g>
<g>
</g>
<g>
</g>
<g>
</g>
<g>
</g>
<g>
</g>
<g>
</g>
<g>
</g>
<g>
</g>
<g>
</g>
<g>
</g>
<g>
</g>
<g>
</g>
<g>
</g>
<g>
</g>
</svg>
