<?xml version="1.0" encoding="iso-8859-1"?>
<!-- Generator: Adobe Illustrator 19.0.0, SVG Export Plug-In . SVG Version: 6.00 Build 0)  -->
<svg xmlns="http://www.w3.org/2000/svg" xmlns:xlink="http://www.w3.org/1999/xlink" version="1.1" id="Layer_1" x="0px" y="0px" viewBox="0 0 512 512" style="enable-background:new 0 0 512 512;" xml:space="preserve">
<path style="fill:#FFFFFF;" d="M341.101,349.326V59.465H203.799v205.954c0,4.214-3.414,7.628-7.628,7.628v15.257  c4.213,0,7.628,3.413,7.628,7.628v53.396h137.302V349.326z M272.45,167.527c15.423,0,27.969,12.547,27.969,27.969  c0,15.423-12.546,27.97-27.969,27.97c-15.422,0-27.969-12.547-27.969-27.97C244.481,180.074,257.028,167.527,272.45,167.527z   M226.682,187.867c4.213,0,7.628,3.415,7.628,7.629c0,21.03,17.109,38.14,38.14,38.14c21.03,0,38.14-17.11,38.14-38.14  c0-4.213,3.414-7.629,7.628-7.629c4.214,0,7.629,3.415,7.629,7.629c0,29.442-23.954,53.396-53.396,53.396  c-29.443,0-53.396-23.954-53.396-53.396C219.054,191.283,222.469,187.867,226.682,187.867z"/>
<path style="fill:#259245;" d="M188.542,265.419V59.465H51.24v289.862h137.302v-53.396c0-4.214,3.415-7.628,7.628-7.628v-15.257  C191.958,273.046,188.542,269.633,188.542,265.419z"/>
<rect x="356.354" y="59.465" style="fill:#ED1F34;" width="137.304" height="289.866"/>
<path d="M504.371,44.209H46.696c-4.212,0-7.628,3.414-7.628,7.629v305.116c0,4.213,3.415,7.629,7.628,7.629h457.676  c4.214,0,7.629-3.415,7.629-7.629V51.837C512,47.623,508.586,44.209,504.371,44.209z M493.659,349.326H356.357V59.465h137.302  V349.326z M196.171,288.303c-4.213,0-7.628,3.413-7.628,7.628v53.396H51.24V59.465h137.302v205.954c0,4.214,3.415,7.628,7.628,7.628  s7.628-3.413,7.628-7.628V59.465h137.303v289.862H203.799v-53.396C203.799,291.717,200.383,288.303,196.171,288.303z"/>
<path style="fill:#134923;" d="M272.45,248.892c29.442,0,53.396-23.954,53.396-53.396c0-4.213-3.414-7.629-7.629-7.629  c-4.213,0-7.628,3.415-7.628,7.629c0,21.03-17.11,38.14-38.14,38.14c-21.031,0-38.14-17.11-38.14-38.14  c0-4.213-3.415-7.629-7.628-7.629s-7.628,3.415-7.628,7.629C219.054,224.938,243.007,248.892,272.45,248.892z"/>
<path style="fill:#F2A643;" d="M272.45,223.465c15.423,0,27.969-12.547,27.969-27.97c0-15.422-12.546-27.969-27.969-27.969  c-15.422,0-27.969,12.547-27.969,27.969C244.481,210.918,257.028,223.465,272.45,223.465z"/>
<path style="fill:#2E3033;" d="M20.844,480.643c-6.391,0-11.591-5.2-11.591-11.591V42.841c0-6.332,5.152-11.484,11.484-11.484h1.514  c6.392,0,11.591,5.2,11.591,11.591v426.102c0,6.392-5.2,11.591-11.591,11.591h-1.407V480.643z"/>
<path d="M22.251,22.104h-1.514C9.302,22.104,0,31.407,0,42.841v426.21c0,11.494,9.351,20.844,20.844,20.844h1.406  c11.494,0,20.844-9.351,20.844-20.844V42.948C43.095,31.455,33.745,22.104,22.251,22.104z M27.674,469.052  c0,2.99-2.433,5.422-5.422,5.422h-1.406c-2.99,0-5.422-2.432-5.422-5.422V42.841c0-2.931,2.384-5.315,5.315-5.315h1.514  c2.99,0,5.422,2.433,5.422,5.422v426.103H27.674z"/>
<g>
</g>
<g>
</g>
<g>
</g>
<g>
</g>
<g>
</g>
<g>
</g>
<g>
</g>
<g>
</g>
<g>
</g>
<g>
</g>
<g>
</g>
<g>
</g>
<g>
</g>
<g>
</g>
<g>
</g>
</svg>
