<?xml version="1.0" encoding="iso-8859-1"?>
<!-- Generator: Adobe Illustrator 19.0.0, SVG Export Plug-In . SVG Version: 6.00 Build 0)  -->
<svg xmlns="http://www.w3.org/2000/svg" xmlns:xlink="http://www.w3.org/1999/xlink" version="1.1" id="Layer_1" x="0px" y="0px" viewBox="0 0 512 512" style="enable-background:new 0 0 512 512;" xml:space="preserve">
<path style="fill:#3DB4EA;" d="M94.299,52.941H39.132v299.484h457.106V52.941H125.825c-4.353,0-7.881-3.528-7.881-7.881H102.18  C102.18,49.413,98.652,52.941,94.299,52.941z M333.361,179.564c0-4.353,3.528-7.882,7.881-7.882h9.825  c4.354,0,7.882,3.529,7.882,7.882c0,3.302-2.032,6.126-4.913,7.299v71.22c2.881,1.173,4.913,3.996,4.913,7.299  c0,4.353-3.528,7.881-7.882,7.881h-9.825c-4.353,0-7.881-3.528-7.881-7.881c0-3.302,2.032-6.126,4.912-7.299v-71.22  C335.393,185.69,333.361,182.867,333.361,179.564z M219.164,127.549v-13.836c0-4.354,3.529-7.881,7.881-7.881  c4.352,0,7.881,3.527,7.881,7.881v3.401l24.879-7.077v-3.504c0-4.354,3.528-7.882,7.881-7.882s7.881,3.528,7.881,7.882v3.504  l24.879,7.077v-3.401c0-4.354,3.528-7.881,7.881-7.881c4.354,0,7.881,3.527,7.881,7.881v13.836v22.067  c0,4.353-3.527,7.882-7.881,7.882h-81.281c-4.353,0-7.881-3.529-7.881-7.882L219.164,127.549L219.164,127.549z M212.858,179.564  c0-4.353,3.529-7.882,7.881-7.882h93.89c4.354,0,7.881,3.529,7.881,7.882v72.323c0,30.231-24.594,54.826-54.825,54.826  s-54.826-24.595-54.826-54.826V179.564z M176.422,179.564c0-4.353,3.529-7.882,7.881-7.882h9.825c4.352,0,7.881,3.529,7.881,7.882  c0,3.301-2.032,6.126-4.913,7.299v71.22c2.88,1.173,4.913,3.997,4.913,7.299c0,4.353-3.529,7.881-7.881,7.881h-9.825  c-4.352,0-7.881-3.528-7.881-7.881c0-3.301,2.032-6.125,4.912-7.298v-71.222C178.454,185.689,176.422,182.866,176.422,179.564z"/>
<path style="fill:#ED1F34;" d="M267.685,290.951c21.539,0,39.064-17.524,39.064-39.064v-64.441h-78.128v64.441  C228.621,273.427,246.146,290.951,267.685,290.951z M247.01,205.835h41.349v46.052c0,11.399-9.273,20.675-20.674,20.675  c-11.401,0-20.674-9.275-20.674-20.675L247.01,205.835L247.01,205.835z"/>
<path style="fill:#3DB4EA;" d="M267.685,272.562c11.4,0,20.674-9.275,20.674-20.675v-46.052H247.01v46.052  C247.01,263.286,256.285,272.562,267.685,272.562z"/>
<path d="M267.685,306.714c30.231,0,54.825-24.595,54.825-54.826v-72.323c0-4.353-3.527-7.882-7.881-7.882h-93.89  c-4.353,0-7.881,3.529-7.881,7.882v72.323C212.858,282.118,237.453,306.714,267.685,306.714z M228.621,187.446h78.128v64.441  c0,21.54-17.525,39.064-39.064,39.064s-39.064-17.524-39.064-39.064L228.621,187.446L228.621,187.446z"/>
<polygon style="fill:#F2A643;" points="234.925,141.735 300.444,141.735 300.444,133.5 267.685,124.184 234.925,133.5 "/>
<path d="M227.044,157.498h81.281c4.354,0,7.881-3.529,7.881-7.882V127.55v-13.837c0-4.354-3.527-7.881-7.881-7.881  c-4.353,0-7.881,3.527-7.881,7.881v3.401l-24.879-7.077v-3.504c0-4.354-3.528-7.882-7.881-7.882s-7.881,3.528-7.881,7.882v3.504  l-24.879,7.077v-3.401c0-4.354-3.528-7.881-7.881-7.881s-7.881,3.527-7.881,7.881v13.836v22.067  C219.164,153.969,222.692,157.498,227.044,157.498z M267.685,124.184l32.759,9.316v8.234h-65.519V133.5L267.685,124.184z"/>
<g>
	<path style="fill:#333333;" d="M176.422,265.382c0,4.353,3.529,7.881,7.881,7.881h9.825c4.352,0,7.881-3.528,7.881-7.881   c0-3.301-2.032-6.126-4.913-7.299v-71.22c2.88-1.173,4.913-3.997,4.913-7.299c0-4.353-3.529-7.882-7.881-7.882h-9.825   c-4.352,0-7.881,3.529-7.881,7.882c0,3.301,2.032,6.125,4.912,7.298v71.222C178.454,259.257,176.422,262.08,176.422,265.382z"/>
	<path style="fill:#333333;" d="M333.361,265.382c0,4.353,3.528,7.881,7.881,7.881h9.825c4.354,0,7.882-3.528,7.882-7.881   c0-3.302-2.032-6.126-4.913-7.299v-71.22c2.881-1.173,4.913-3.996,4.913-7.299c0-4.353-3.528-7.882-7.882-7.882h-9.825   c-4.353,0-7.881,3.529-7.881,7.882c0,3.302,2.032,6.126,4.912,7.299v71.22C335.393,259.256,333.361,262.079,333.361,265.382z"/>
</g>
<path d="M504.118,37.178H125.825c-4.353,0-7.881,3.528-7.881,7.882c0,4.353,3.529,7.881,7.881,7.881h370.413v299.484H39.132V52.941  H94.3c4.353,0,7.881-3.528,7.881-7.881c0-4.354-3.528-7.882-7.881-7.882H31.25c-4.352,0-7.881,3.528-7.881,7.882v315.244  c0,4.353,3.529,7.882,7.881,7.882h472.868c4.354,0,7.882-3.529,7.882-7.882V45.06C512,40.706,508.472,37.178,504.118,37.178z"/>
<path style="fill:#2E3033;" d="M21.536,488.1c-6.603,0-11.976-5.373-11.976-11.976V35.766c0-6.542,5.323-11.865,11.865-11.865h1.565  c6.604,0,11.976,5.373,11.976,11.976v440.247c0,6.604-5.373,11.976-11.976,11.976h-1.454V488.1z"/>
<path d="M22.99,14.34h-1.565C9.611,14.34,0,23.951,0,35.766v440.358C0,488,9.661,497.66,21.536,497.66h1.453  c11.876,0,21.536-9.661,21.536-21.536V35.876C44.526,24.001,34.865,14.34,22.99,14.34z M28.592,476.124  c0,3.089-2.513,5.602-5.602,5.602h-1.453c-3.089,0-5.602-2.513-5.602-5.602V35.766c0-3.028,2.463-5.492,5.492-5.492h1.565  c3.089,0,5.602,2.513,5.602,5.602v440.248H28.592z"/>
<g>
</g>
<g>
</g>
<g>
</g>
<g>
</g>
<g>
</g>
<g>
</g>
<g>
</g>
<g>
</g>
<g>
</g>
<g>
</g>
<g>
</g>
<g>
</g>
<g>
</g>
<g>
</g>
<g>
</g>
</svg>
