<?xml version="1.0" encoding="iso-8859-1"?>
<!-- Generator: Adobe Illustrator 19.0.0, SVG Export Plug-In . SVG Version: 6.00 Build 0)  -->
<svg xmlns="http://www.w3.org/2000/svg" xmlns:xlink="http://www.w3.org/1999/xlink" version="1.1" id="Layer_1" x="0px" y="0px" viewBox="0 0 512 512" style="enable-background:new 0 0 512 512;" xml:space="preserve">
<path style="fill:#259245;" d="M51.562,349.884h445.091V58.273H51.562V349.884z M229.911,134.897  c0.982-3.023,3.728-5.128,6.902-5.293l22.139-1.143l7.93-20.703c1.138-2.969,3.986-4.929,7.166-4.929s6.03,1.96,7.167,4.929  l7.93,20.703l22.139,1.143c3.175,0.164,5.921,2.269,6.902,5.293c0.983,3.023-0.001,6.339-2.473,8.339l-17.239,13.939l5.754,21.41  c0.825,3.07-0.329,6.331-2.901,8.2c-2.572,1.868-6.03,1.956-8.695,0.224l-18.584-12.088l-18.583,12.088  c-1.274,0.829-2.732,1.241-4.185,1.241c-1.586,0-3.168-0.49-4.511-1.466c-2.571-1.869-3.726-5.129-2.9-8.2l5.754-21.41  l-17.24-13.939C229.912,141.236,228.928,137.92,229.911,134.897z M166.691,141.248c1.456-3.324,5.048-5.175,8.596-4.433  c3.554,0.741,6.102,3.871,6.107,7.5c0.066,45.299,33.825,84.612,78.525,91.447c4.092,0.626,6.922,4.376,6.455,8.455  c2.533,0.191,5.092,0.29,7.674,0.29c2.622,0,5.221-0.101,7.792-0.299c-0.471-4.077,2.353-7.832,6.445-8.463  c45.37-6.992,78.35-45.444,78.418-91.43c0.005-3.63,2.554-6.759,6.107-7.5c3.551-0.74,7.139,1.109,8.597,4.433  c6.501,14.844,9.797,30.632,9.797,46.925c0,64.6-52.556,117.156-117.157,117.156c-64.6,0-117.156-52.556-117.156-117.156  C156.893,171.879,160.19,156.092,166.691,141.248z"/>
<path d="M504.326,42.925H43.888c-4.239,0-7.674,3.436-7.674,7.674v306.959c0,4.238,3.435,7.674,7.674,7.674h460.438  c4.239,0,7.674-3.436,7.674-7.674V50.599C512,46.361,508.565,42.925,504.326,42.925z M496.652,349.884H51.562V58.273h445.091  v291.611H496.652z"/>
<path style="fill:#FFE000;" d="M263.156,148.379c2.359,1.908,3.374,5.028,2.586,7.959l-1.849,6.88l5.972-3.885  c1.271-0.827,2.729-1.241,4.184-1.241c1.456,0,2.913,0.414,4.186,1.241l5.972,3.885l-1.849-6.882  c-0.788-2.93,0.227-6.051,2.586-7.958l5.54-4.481l-7.115-0.367c-3.032-0.157-5.685-2.085-6.771-4.919l-2.55-6.656l-2.549,6.656  c-1.086,2.834-3.739,4.762-6.771,4.919l-7.115,0.367L263.156,148.379z"/>
<path d="M232.384,143.236l17.24,13.939l-5.754,21.41c-0.825,3.07,0.328,6.331,2.9,8.2c1.343,0.975,2.925,1.466,4.511,1.466  c1.453,0,2.91-0.412,4.185-1.241l18.583-12.088l18.584,12.088c2.664,1.731,6.122,1.644,8.695-0.224  c2.571-1.869,3.727-5.13,2.901-8.2l-5.754-21.41l17.239-13.939c2.472-1.999,3.456-5.316,2.473-8.339  c-0.982-3.023-3.727-5.128-6.902-5.293l-22.139-1.143l-7.93-20.703c-1.137-2.969-3.986-4.929-7.167-4.929  c-3.179,0-6.028,1.96-7.166,4.929l-7.93,20.703l-22.139,1.143c-3.174,0.164-5.921,2.269-6.902,5.293  C228.928,137.92,229.912,141.236,232.384,143.236z M271.5,138.612l2.549-6.656l2.55,6.656c1.086,2.834,3.739,4.762,6.771,4.919  l7.115,0.367l-5.54,4.481c-2.359,1.908-3.374,5.028-2.586,7.958l1.849,6.881l-5.972-3.885c-1.272-0.827-2.73-1.241-4.186-1.241  c-1.455,0-2.912,0.414-4.184,1.241l-5.972,3.885l1.849-6.88c0.788-2.93-0.227-6.051-2.586-7.959l-5.541-4.481l7.115-0.367  C267.76,143.374,270.415,141.446,271.5,138.612z"/>
<path style="fill:#FFE000;" d="M257.599,250.935c-25.222-3.857-48.367-16.65-65.169-36.023  c-8.741-10.078-15.465-21.613-19.937-33.971c-0.168,2.396-0.252,4.808-0.252,7.232c0,56.137,45.671,101.808,101.808,101.808  s101.808-45.67,101.808-101.808c0-2.426-0.084-4.837-0.251-7.234c-4.465,12.342-11.177,23.859-19.898,33.926  c-16.778,19.363-39.889,32.166-65.083,36.049c-4.192,0.649-8.107-2.227-8.754-6.415c-0.016-0.097-0.019-0.194-0.03-0.292  c-2.57,0.198-5.17,0.299-7.792,0.299c-2.582,0-5.141-0.098-7.674-0.29c-0.011,0.097-0.016,0.194-0.029,0.292  C265.705,248.699,261.792,251.576,257.599,250.935z"/>
<path d="M274.048,305.328c64.601,0,117.157-52.556,117.157-117.156c0-16.293-3.296-32.081-9.797-46.925  c-1.457-3.324-5.047-5.173-8.597-4.433c-3.554,0.741-6.102,3.871-6.107,7.5c-0.067,45.985-33.047,84.437-78.418,91.43  c-4.092,0.631-6.917,4.386-6.445,8.463c0.012,0.097,0.016,0.194,0.03,0.292c0.646,4.188,4.561,7.065,8.754,6.415  c25.192-3.883,48.305-16.685,65.083-36.049c8.722-10.066,15.432-21.585,19.898-33.926c0.168,2.398,0.251,4.809,0.251,7.234  c0,56.137-45.67,101.808-101.808,101.808c-56.136,0-101.808-45.67-101.808-101.808c0-2.424,0.085-4.837,0.252-7.232  c4.471,12.358,11.196,23.893,19.937,33.971c16.802,19.373,39.946,32.166,65.169,36.023c4.193,0.641,8.106-2.236,8.746-6.425  c0.014-0.097,0.019-0.194,0.029-0.292c0.466-4.077-2.363-7.829-6.455-8.455c-44.7-6.835-78.459-46.148-78.525-91.447  c-0.005-3.63-2.554-6.759-6.107-7.5c-3.549-0.742-7.139,1.109-8.596,4.433c-6.501,14.844-9.798,30.632-9.798,46.925  C156.893,252.773,209.448,305.328,274.048,305.328z"/>
<path style="fill:#2E3033;" d="M20.97,482.004c-6.429,0-11.661-5.232-11.661-11.661V41.55c0-6.371,5.183-11.554,11.554-11.554h1.524  c6.431,0,11.661,5.232,11.661,11.661v428.685c0,6.431-5.232,11.661-11.661,11.661H20.97V482.004z"/>
<path d="M22.386,20.687h-1.524C9.359,20.687,0,30.046,0,41.55v428.793c0,11.563,9.407,20.97,20.97,20.97h1.415  c11.564,0,20.97-9.407,20.97-20.97V41.657C43.357,30.094,33.949,20.687,22.386,20.687z M27.841,470.343  c0,3.008-2.447,5.455-5.455,5.455h-1.415c-3.008,0-5.455-2.447-5.455-5.455V41.55c0-2.949,2.399-5.348,5.348-5.348h1.524  c3.008,0,5.455,2.447,5.455,5.455v428.686H27.841z"/>
<g>
</g>
<g>
</g>
<g>
</g>
<g>
</g>
<g>
</g>
<g>
</g>
<g>
</g>
<g>
</g>
<g>
</g>
<g>
</g>
<g>
</g>
<g>
</g>
<g>
</g>
<g>
</g>
<g>
</g>
</svg>
