<?xml version="1.0" encoding="iso-8859-1"?>
<!-- Generator: Adobe Illustrator 19.0.0, SVG Export Plug-In . SVG Version: 6.00 Build 0)  -->
<svg xmlns="http://www.w3.org/2000/svg" xmlns:xlink="http://www.w3.org/1999/xlink" version="1.1" id="Layer_1" x="0px" y="0px" viewBox="0 0 511.999 511.999" style="enable-background:new 0 0 511.999 511.999;" xml:space="preserve">
<g>
	<path style="fill:#103B9B;" d="M39.132,163.539h189.41V52.94H39.132V163.539z M123.445,100.359h20.783   c4.382,0,7.947-3.565,7.947-7.947s-3.565-7.947-7.947-7.947h-20.783c-4.353,0-7.881-3.529-7.881-7.881   c0-4.352,3.529-7.881,7.881-7.881h20.783c13.073,0,23.709,10.636,23.709,23.709s-10.636,23.709-23.709,23.709h-20.783   c-4.382,0-7.947,3.565-7.947,7.947c0,4.382,3.565,7.947,7.947,7.947h36.611c4.352,0,7.881,3.529,7.881,7.881   c0,4.353-3.529,7.881-7.881,7.881h-36.611c-13.073,0-23.709-10.636-23.709-23.709S110.372,100.359,123.445,100.359z"/>
	<path style="fill:#103B9B;" d="M472.594,163.539h23.643V52.94H306.828v110.598h134.241c4.353,0,7.881,3.529,7.881,7.881h15.763   C464.713,167.068,468.242,163.539,472.594,163.539z M391.141,132.015h36.611c4.352,0,7.881,3.529,7.881,7.881   c0,4.353-3.529,7.881-7.881,7.881h-36.611c-13.073,0-23.709-10.636-23.709-23.709s10.636-23.709,23.709-23.709h20.783   c4.382,0,7.947-3.565,7.947-7.947s-3.565-7.947-7.947-7.947h-20.783c-4.353,0-7.881-3.529-7.881-7.881   c0-4.352,3.529-7.881,7.881-7.881h20.783c13.073,0,23.709,10.636,23.709,23.709s-10.636,23.709-23.709,23.709h-20.783   c-4.382,0-7.947,3.565-7.947,7.947S386.76,132.015,391.141,132.015z"/>
	<path style="fill:#103B9B;" d="M228.542,241.825H39.132v110.598h189.41V241.825z M160.056,336.662h-36.611   c-13.073,0-23.709-10.636-23.709-23.709c0-13.073,10.636-23.709,23.709-23.709h20.783c4.382,0,7.947-3.565,7.947-7.947   s-3.565-7.947-7.947-7.947h-20.783c-4.353,0-7.881-3.529-7.881-7.881c0-4.352,3.529-7.881,7.881-7.881h20.783   c13.073,0,23.709,10.636,23.709,23.709s-10.636,23.709-23.709,23.709h-20.783c-4.382,0-7.947,3.565-7.947,7.947   c0,4.382,3.565,7.947,7.947,7.947h36.611c4.352,0,7.881,3.529,7.881,7.881S164.408,336.662,160.056,336.662z"/>
	<path style="fill:#103B9B;" d="M496.237,241.825H306.828v110.598h189.409V241.825z M391.141,320.899h36.611   c4.352,0,7.881,3.529,7.881,7.881s-3.529,7.881-7.881,7.881h-36.611c-13.073,0-23.709-10.636-23.709-23.709   c0-13.073,10.636-23.709,23.709-23.709h20.783c4.382,0,7.947-3.565,7.947-7.947s-3.565-7.947-7.947-7.947h-20.783   c-4.353,0-7.881-3.529-7.881-7.881c0-4.352,3.529-7.881,7.881-7.881h20.783c13.073,0,23.709,10.636,23.709,23.709   s-10.636,23.709-23.709,23.709h-20.783c-4.382,0-7.947,3.565-7.947,7.947C383.195,317.334,386.76,320.899,391.141,320.899z"/>
</g>
<g>
	<path style="fill:#FFFFFF;" d="M291.066,352.423v-118.48c0-4.352,3.529-7.881,7.881-7.881h197.29v-46.761h-23.643   c-4.353,0-7.881-3.529-7.881-7.881H448.95c0,4.353-3.529,7.881-7.881,7.881H298.947c-4.353,0-7.881-3.529-7.881-7.881V52.94   h-46.762v118.48c0,4.353-3.529,7.881-7.881,7.881H39.132v46.761h197.291c4.353,0,7.881,3.529,7.881,7.881v118.48L291.066,352.423   L291.066,352.423z"/>
	<path style="fill:#FFFFFF;" d="M160.056,320.899h-36.611c-4.382,0-7.947-3.565-7.947-7.947c0-4.382,3.565-7.947,7.947-7.947h20.783   c13.073,0,23.709-10.636,23.709-23.709s-10.636-23.709-23.709-23.709h-20.783c-4.353,0-7.881,3.529-7.881,7.881   c0,4.352,3.529,7.881,7.881,7.881h20.783c4.382,0,7.947,3.565,7.947,7.947s-3.565,7.947-7.947,7.947h-20.783   c-13.073,0-23.709,10.636-23.709,23.709c0,13.073,10.636,23.709,23.709,23.709h36.611c4.352,0,7.881-3.529,7.881-7.881   S164.408,320.899,160.056,320.899z"/>
	<path style="fill:#FFFFFF;" d="M123.445,147.776h36.611c4.352,0,7.881-3.529,7.881-7.881c0-4.352-3.529-7.881-7.881-7.881h-36.611   c-4.382,0-7.947-3.565-7.947-7.947c0-4.382,3.565-7.947,7.947-7.947h20.783c13.073,0,23.709-10.636,23.709-23.709   s-10.636-23.709-23.709-23.709h-20.783c-4.353,0-7.881,3.529-7.881,7.881c0,4.352,3.529,7.881,7.881,7.881h20.783   c4.382,0,7.947,3.565,7.947,7.947s-3.565,7.947-7.947,7.947h-20.783c-13.073,0-23.709,10.636-23.709,23.709   C99.736,137.14,110.372,147.776,123.445,147.776z"/>
	<path style="fill:#FFFFFF;" d="M391.141,305.005h20.783c13.073,0,23.709-10.636,23.709-23.709s-10.636-23.709-23.709-23.709   h-20.783c-4.353,0-7.881,3.529-7.881,7.881c0,4.352,3.529,7.881,7.881,7.881h20.783c4.382,0,7.947,3.565,7.947,7.947   s-3.565,7.947-7.947,7.947h-20.783c-13.073,0-23.709,10.636-23.709,23.709c0,13.073,10.636,23.709,23.709,23.709h36.611   c4.352,0,7.881-3.529,7.881-7.881s-3.529-7.881-7.881-7.881h-36.611c-4.382,0-7.947-3.565-7.947-7.947   S386.76,305.005,391.141,305.005z"/>
	<path style="fill:#FFFFFF;" d="M391.141,116.12h20.783c13.073,0,23.709-10.636,23.709-23.709s-10.636-23.709-23.709-23.709h-20.783   c-4.353,0-7.881,3.529-7.881,7.881c0,4.352,3.529,7.881,7.881,7.881h20.783c4.382,0,7.947,3.565,7.947,7.947   s-3.565,7.947-7.947,7.947h-20.783c-13.073,0-23.709,10.636-23.709,23.709s10.636,23.709,23.709,23.709h36.611   c4.352,0,7.881-3.529,7.881-7.881s-3.529-7.881-7.881-7.881h-36.611c-4.382,0-7.947-3.565-7.947-7.947   C383.195,119.685,386.76,116.12,391.141,116.12z"/>
</g>
<path d="M504.119,37.178H31.25c-4.352,0-7.881,3.529-7.881,7.881v315.245c0,4.353,3.529,7.881,7.881,7.881h472.868  c4.353,0,7.881-3.529,7.881-7.881V45.059C512,40.707,508.471,37.178,504.119,37.178z M228.542,163.539H39.132V52.94h189.41V163.539z   M39.132,241.825h189.41v110.598H39.132V241.825z M236.423,226.062H39.132v-46.761h197.291c4.353,0,7.881-3.529,7.881-7.881V52.94  h46.761v118.48c0,4.353,3.529,7.881,7.881,7.881h142.122c4.353,0,7.881-3.529,7.881-7.881s-3.529-7.881-7.881-7.881h-134.24V52.94  h189.409v110.598h-23.643c-4.353,0-7.881,3.529-7.881,7.881s3.529,7.881,7.881,7.881h23.643v46.761h-197.29  c-4.353,0-7.881,3.529-7.881,7.881v118.48h-46.762V233.943C244.305,229.591,240.776,226.062,236.423,226.062z M306.828,241.825  h189.409v110.598H306.828V241.825z"/>
<path style="fill:#2E3033;" d="M21.536,488.099c-6.603,0-11.976-5.373-11.976-11.976V35.765c0-6.542,5.323-11.865,11.865-11.865  h1.565c6.604,0,11.976,5.373,11.976,11.976v440.247c0,6.604-5.373,11.976-11.976,11.976h-1.454V488.099z"/>
<path d="M22.99,14.34h-1.565C9.611,14.34,0,23.951,0,35.765v440.358c0,11.876,9.661,21.536,21.536,21.536h1.453  c11.876,0,21.536-9.661,21.536-21.536V35.876C44.526,24.001,34.865,14.34,22.99,14.34z M28.592,476.123  c0,3.089-2.513,5.602-5.602,5.602h-1.453c-3.089,0-5.602-2.513-5.602-5.602V35.765c0-3.028,2.463-5.492,5.492-5.492h1.565  c3.089,0,5.602,2.513,5.602,5.602v440.248H28.592z"/>
<g>
</g>
<g>
</g>
<g>
</g>
<g>
</g>
<g>
</g>
<g>
</g>
<g>
</g>
<g>
</g>
<g>
</g>
<g>
</g>
<g>
</g>
<g>
</g>
<g>
</g>
<g>
</g>
<g>
</g>
</svg>
