<?xml version="1.0" encoding="iso-8859-1"?>
<!-- Generator: Adobe Illustrator 19.0.0, SVG Export Plug-In . SVG Version: 6.00 Build 0)  -->
<svg xmlns="http://www.w3.org/2000/svg" xmlns:xlink="http://www.w3.org/1999/xlink" version="1.1" id="Layer_1" x="0px" y="0px" viewBox="0 0 512 512" style="enable-background:new 0 0 512 512;" xml:space="preserve">
<g>
	<path style="fill:#103B9B;" d="M429.422,95.857c3.701-1.999,8.387-0.737,10.469,2.817l13.401-7.237   c-2.08-3.555-0.767-8.055,2.933-10.054l40.403-21.817v-4.049H50.783v244.806L429.422,95.857z M105.377,138.932h15.362   c3.065-14.444,14.937-25.847,29.975-28.79V95.387c0-4.077,3.442-7.383,7.686-7.383c4.245,0,7.687,3.306,7.687,7.383v14.755   c15.037,2.943,26.909,14.346,29.975,28.79h15.362c4.245,0,7.687,3.306,7.687,7.383c0,4.077-3.442,7.383-7.687,7.383h-15.362   c-3.065,14.444-14.937,25.847-29.975,28.79v14.755c0,4.077-3.442,7.383-7.687,7.383c-4.245,0-7.686-3.306-7.686-7.383v-14.755   c-15.038-2.943-26.909-14.346-29.975-28.79h-15.362c-4.245,0-7.687-3.306-7.687-7.383   C97.69,142.238,101.131,138.932,105.377,138.932z"/>
	<polygon style="fill:#103B9B;" points="50.783,333.055 50.783,336.079 496.626,336.079 496.626,192.216  "/>
</g>
<polygon style="fill:#FFFFFF;" points="50.783,317.263 50.783,317.51 496.626,176.672 496.626,126.24 52.797,316.177 "/>
<path d="M512,181.878V63.78c0-0.004,0-0.008,0-0.014V48.134c0-4.077-3.441-7.383-7.686-7.383H43.096  c-4.245,0-7.686,3.306-7.686,7.383v264.912c0,0.006,0,0.014,0,0.02v14.736c0,0.015,0,0.027,0,0.041v15.62  c0,4.078,3.441,7.383,7.686,7.383h461.217c4.245,0,7.686-3.305,7.686-7.383V181.941C512,181.92,512,181.899,512,181.878z   M496.626,55.518v4.049l-40.403,21.817c-3.7,1.998-5.013,6.499-2.933,10.054l0,0c1.411,2.411,4.02,3.766,6.707,3.766  c1.276,0,2.569-0.306,3.761-0.949l32.868-17.749v49.734v50.432L50.783,317.51v-0.247l2.014-1.088l384.16-207.448  c3.7-1.999,5.013-6.5,2.934-10.055l0,0c-2.08-3.554-6.768-4.816-10.469-2.817L50.783,300.324V55.518H496.626z M50.783,336.079  v-3.024l445.844-140.839v143.863H50.783z"/>
<path style="fill:#FF7900;" d="M439.889,98.674c2.079,3.555,0.766,8.056-2.934,10.055L52.797,316.177l443.83-189.936V76.506  l-32.868,17.749c-1.191,0.643-2.485,0.949-3.761,0.949c-2.687,0-5.297-1.356-6.707-3.766l0,0L439.889,98.674L439.889,98.674z"/>
<path style="fill:#FFFFFF;" d="M158.4,168.465c12.716,0,23.061-9.936,23.061-22.15c0-12.214-10.344-22.15-23.061-22.15  c-12.715,0-23.061,9.937-23.061,22.15C135.339,158.528,145.684,168.465,158.4,168.465z"/>
<path d="M105.377,153.698h15.362c3.065,14.444,14.937,25.847,29.975,28.79v14.755c0,4.077,3.442,7.383,7.686,7.383  c4.245,0,7.687-3.306,7.687-7.383v-14.755c15.037-2.943,26.909-14.346,29.975-28.79h15.362c4.245,0,7.687-3.306,7.687-7.383  c0-4.077-3.442-7.383-7.687-7.383h-15.362c-3.065-14.444-14.937-25.847-29.975-28.79V95.387c0-4.077-3.442-7.383-7.687-7.383  c-4.245,0-7.686,3.306-7.686,7.383v14.755c-15.038,2.943-26.909,14.346-29.975,28.79h-15.362c-4.245,0-7.687,3.306-7.687,7.383  C97.69,150.392,101.131,153.698,105.377,153.698z M158.4,124.165c12.716,0,23.061,9.937,23.061,22.15  c0,12.213-10.344,22.15-23.061,22.15c-12.715,0-23.061-9.936-23.061-22.15C135.339,134.101,145.684,124.165,158.4,124.165z"/>
<path style="fill:#2E3033;" d="M21.184,484.31c-6.495,0-11.78-5.285-11.78-11.78V39.361c0-6.436,5.236-11.672,11.672-11.672h1.539  c6.496,0,11.78,5.285,11.78,11.78v433.059c0,6.496-5.285,11.78-11.78,11.78h-1.43V484.31z"/>
<path d="M22.615,18.286h-1.539C9.454,18.286,0,27.74,0,39.361V472.53c0,11.682,9.503,21.184,21.184,21.184h1.429  c11.682,0,21.184-9.503,21.184-21.184V39.47C43.799,27.789,34.296,18.286,22.615,18.286z M28.126,472.53  c0,3.039-2.472,5.511-5.511,5.511h-1.429c-3.039,0-5.511-2.472-5.511-5.511V39.361c0-2.979,2.423-5.402,5.402-5.402h1.539  c3.039,0,5.511,2.472,5.511,5.511v433.06H28.126z"/>
<g>
</g>
<g>
</g>
<g>
</g>
<g>
</g>
<g>
</g>
<g>
</g>
<g>
</g>
<g>
</g>
<g>
</g>
<g>
</g>
<g>
</g>
<g>
</g>
<g>
</g>
<g>
</g>
<g>
</g>
</svg>
