<?xml version="1.0" encoding="iso-8859-1"?>
<!-- Generator: Adobe Illustrator 19.0.0, SVG Export Plug-In . SVG Version: 6.00 Build 0)  -->
<svg xmlns="http://www.w3.org/2000/svg" xmlns:xlink="http://www.w3.org/1999/xlink" version="1.1" id="Layer_1" x="0px" y="0px" viewBox="0 0 512 512" style="enable-background:new 0 0 512 512;" xml:space="preserve">
<path style="fill:#ED1F34;" d="M280.077,265.419c0,4.213-3.414,7.628-7.628,7.628v15.256c4.213,0,7.628,3.415,7.628,7.628v53.396  h213.582V59.465H280.077V265.419z"/>
<path style="fill:#FFFFFF;" d="M264.822,265.419V59.465H51.24v289.862h213.582v-53.396c0-4.213,3.414-7.628,7.628-7.628v-15.256  C268.237,273.047,264.822,269.632,264.822,265.419z M125.231,120.615h-12.84v12.84c0,4.213-3.415,7.628-7.628,7.628  c-4.213,0-7.628-3.414-7.628-7.628v-12.84H84.294c-4.213,0-7.628-3.415-7.628-7.628c0-4.212,3.415-7.628,7.628-7.628h12.84V92.519  c0-4.213,3.415-7.628,7.628-7.628s7.628,3.415,7.628,7.628v12.84h12.84c4.213,0,7.628,3.415,7.628,7.628  S129.443,120.615,125.231,120.615z"/>
<path style="fill:#999999;" d="M125.231,105.36h-12.84V92.519c0-4.213-3.415-7.628-7.628-7.628c-4.213,0-7.628,3.415-7.628,7.628  v12.84H84.294c-4.213,0-7.628,3.415-7.628,7.628s3.415,7.628,7.628,7.628h12.84v12.84c0,4.213,3.415,7.628,7.628,7.628  s7.628-3.414,7.628-7.628v-12.84h12.84c4.213,0,7.628-3.415,7.628-7.628S129.443,105.36,125.231,105.36z"/>
<path d="M504.371,44.209H46.696c-4.212,0-7.628,3.415-7.628,7.628v305.117c0,4.213,3.415,7.628,7.628,7.628h457.676  c4.214,0,7.629-3.415,7.629-7.628V51.836C512,47.624,508.586,44.209,504.371,44.209z M493.659,349.326H280.077V295.93  c0-4.213-3.414-7.628-7.628-7.628s-7.628,3.415-7.628,7.628v53.396H51.24V59.465h213.582v205.954c0,4.213,3.414,7.628,7.628,7.628  s7.628-3.415,7.628-7.628V59.465h213.582V349.326z"/>
<path style="fill:#2E3033;" d="M20.844,480.643c-6.391,0-11.591-5.2-11.591-11.591V42.841c0-6.332,5.152-11.484,11.484-11.484h1.514  c6.392,0,11.591,5.2,11.591,11.591v426.102c0,6.392-5.2,11.591-11.591,11.591h-1.407V480.643z"/>
<path d="M22.251,22.104h-1.514C9.302,22.104,0,31.407,0,42.841v426.21c0,11.494,9.351,20.844,20.844,20.844h1.406  c11.494,0,20.844-9.351,20.844-20.844V42.948C43.095,31.455,33.745,22.104,22.251,22.104z M27.674,469.052  c0,2.99-2.433,5.422-5.422,5.422h-1.406c-2.99,0-5.422-2.432-5.422-5.422V42.841c0-2.931,2.384-5.315,5.315-5.315h1.514  c2.99,0,5.422,2.433,5.422,5.422v426.103H27.674z"/>
<g>
</g>
<g>
</g>
<g>
</g>
<g>
</g>
<g>
</g>
<g>
</g>
<g>
</g>
<g>
</g>
<g>
</g>
<g>
</g>
<g>
</g>
<g>
</g>
<g>
</g>
<g>
</g>
<g>
</g>
</svg>
