<?xml version="1.0" encoding="iso-8859-1"?>
<!-- Generator: Adobe Illustrator 19.0.0, SVG Export Plug-In . SVG Version: 6.00 Build 0)  -->
<svg xmlns="http://www.w3.org/2000/svg" xmlns:xlink="http://www.w3.org/1999/xlink" version="1.1" id="Layer_1" x="0px" y="0px" viewBox="0 0 511.999 511.999" style="enable-background:new 0 0 511.999 511.999;" xml:space="preserve">
<path style="fill:#ED1F34;" d="M51.551,349.891h445.101V58.273H51.551V349.891z M107.828,122.225c0-4.238,3.436-7.674,7.674-7.674  h30.697c4.238,0,7.674,3.436,7.674,7.674h15.349c0-4.238,3.436-7.674,7.674-7.674h255.806c4.239,0,7.674,3.436,7.674,7.674v163.716  c0,4.238-3.436,7.674-7.674,7.674H115.502c-4.239,0-7.674-3.436-7.674-7.674V122.225z"/>
<path style="fill:#278A2A;" d="M146.199,129.899h-23.022v148.366h301.85V129.899H176.895c-4.239,0-7.674-3.436-7.674-7.674h-15.349  C153.873,126.462,150.437,129.899,146.199,129.899z M287.166,145.247c9.93,0,19.745,2.529,28.413,7.319  c2.554,1.246,4.313,3.867,4.313,6.901c0,4.23-3.423,7.661-7.651,7.674c-0.133,0-0.276-0.002-0.414-0.009  c-0.611-0.029-1.226-0.047-1.843-0.047c-20.4,0-36.996,16.596-36.996,36.996s16.596,36.997,36.996,36.997  c0.617,0,1.232-0.018,1.843-0.047c3.553-0.17,6.76,2.122,7.745,5.542c0.985,3.42-0.512,7.068-3.613,8.813  c-8.762,4.927-18.719,7.531-28.794,7.531c-32.441,0-58.836-26.393-58.836-58.836C228.33,171.639,254.725,145.247,287.166,145.247z"/>
<path d="M115.502,293.613h317.199c4.239,0,7.674-3.436,7.674-7.674V122.224c0-4.238-3.436-7.674-7.674-7.674H176.895  c-4.239,0-7.674,3.436-7.674,7.674c0,4.239,3.436,7.674,7.674,7.674h248.131v148.366h-301.85V129.898h23.022  c4.238,0,7.674-3.436,7.674-7.674c0-4.238-3.436-7.674-7.674-7.674h-30.697c-4.239,0-7.674,3.436-7.674,7.674V285.94  C107.828,290.177,111.263,293.613,115.502,293.613z"/>
<path style="fill:#FFFFFF;" d="M280.023,246.982c-13.525-9.474-22.383-25.172-22.383-42.901c0-17.728,8.86-33.426,22.383-42.9  c-20.593,3.417-36.344,21.354-36.344,42.9C243.679,225.628,259.43,243.566,280.023,246.982z"/>
<path d="M287.166,262.917c10.076,0,20.032-2.604,28.794-7.531c3.102-1.745,4.598-5.393,3.613-8.813  c-0.985-3.42-4.193-5.712-7.745-5.542c-0.611,0.029-1.226,0.047-1.843,0.047c-20.4,0-36.996-16.596-36.996-36.997  c0-20.399,16.596-36.996,36.996-36.996c0.617,0,1.232,0.018,1.843,0.047c0.139,0.007,0.28,0.009,0.414,0.009  c4.228-0.012,7.651-3.443,7.651-7.674c0-3.034-1.759-5.655-4.313-6.901c-8.669-4.79-18.485-7.319-28.413-7.319  c-32.441,0-58.836,26.393-58.836,58.834C228.33,236.524,254.725,262.917,287.166,262.917z M280.023,161.181  c-13.523,9.474-22.383,25.173-22.383,42.9c0,17.73,8.858,33.427,22.383,42.901c-20.593-3.417-36.344-21.355-36.344-42.901  C243.679,182.535,259.43,164.599,280.023,161.181z"/>
<path d="M504.326,42.925H43.877c-4.239,0-7.675,3.436-7.675,7.674v306.966c0,4.239,3.436,7.674,7.674,7.674h460.449  c4.239,0,7.674-3.435,7.674-7.674V50.599C512,46.361,508.564,42.925,504.326,42.925z M496.651,349.891H51.551V58.273h445.101  L496.651,349.891L496.651,349.891z"/>
<path style="fill:#2E3033;" d="M20.97,482.004c-6.429,0-11.661-5.232-11.661-11.661V41.549c0-6.371,5.183-11.554,11.554-11.554  h1.524c6.431,0,11.661,5.232,11.661,11.661v428.685c0,6.431-5.232,11.661-11.661,11.661H20.97V482.004z"/>
<path d="M22.386,20.686h-1.524C9.359,20.686,0,30.045,0,41.549v428.793c0,11.563,9.407,20.97,20.97,20.97h1.415  c11.564,0,20.97-9.407,20.97-20.97V41.657C43.357,30.094,33.949,20.686,22.386,20.686z M27.841,470.342  c0,3.008-2.447,5.455-5.455,5.455h-1.415c-3.008,0-5.455-2.447-5.455-5.455V41.549c0-2.949,2.399-5.348,5.348-5.348h1.524  c3.008,0,5.455,2.447,5.455,5.455v428.686H27.841z"/>
<g>
</g>
<g>
</g>
<g>
</g>
<g>
</g>
<g>
</g>
<g>
</g>
<g>
</g>
<g>
</g>
<g>
</g>
<g>
</g>
<g>
</g>
<g>
</g>
<g>
</g>
<g>
</g>
<g>
</g>
</svg>
