<?xml version="1.0" encoding="iso-8859-1"?>
<!-- Generator: Adobe Illustrator 19.0.0, SVG Export Plug-In . SVG Version: 6.00 Build 0)  -->
<svg xmlns="http://www.w3.org/2000/svg" xmlns:xlink="http://www.w3.org/1999/xlink" version="1.1" id="Layer_1" x="0px" y="0px" viewBox="0 0 512 512" style="enable-background:new 0 0 512 512;" xml:space="preserve">
<g>
	<path style="fill:#333333;" d="M184.892,145.245c3.878-40.735,38.273-72.706,80.006-72.706c41.733,0,76.129,31.972,80.005,72.706   h151.747V58.273H51.562v86.972H184.892z"/>
	<path style="fill:#333333;" d="M264.898,87.886c-33.261,0-60.754,25.105-64.565,57.358h14.376   c3.71-24.366,24.803-43.093,50.188-43.093c25.385,0,46.478,18.727,50.187,43.093h14.376   C325.652,112.991,298.16,87.886,264.898,87.886z"/>
</g>
<path style="fill:#259245;" d="M473.63,262.913c-4.239,0-7.674-3.435-7.674-7.674h-15.348c0,4.239-3.436,7.674-7.674,7.674H51.562  v86.972h445.09v-86.972H473.63z"/>
<g>
	<path style="fill:#ED1F34;" d="M264.898,72.539c-41.734,0-76.129,31.972-80.006,72.706h15.442   c3.811-32.254,31.303-57.358,64.565-57.358s60.753,25.105,64.565,57.358h15.441C341.027,104.51,306.631,72.539,264.898,72.539z"/>
	<path style="fill:#ED1F34;" d="M264.898,102.152c-25.386,0-46.478,18.727-50.188,43.093h100.376   C311.377,120.879,290.284,102.152,264.898,102.152z"/>
	<path style="fill:#ED1F34;" d="M473.63,247.565h23.021v-86.972H51.562v86.972h391.372c4.238,0,7.674,3.435,7.674,7.674h15.348   C465.956,251,469.392,247.565,473.63,247.565z"/>
</g>
<path d="M504.326,42.925H43.888c-4.238,0-7.674,3.435-7.674,7.674v306.959c0,4.24,3.436,7.675,7.674,7.675h460.438  c4.239,0,7.674-3.435,7.674-7.675V50.599C512,46.36,508.564,42.925,504.326,42.925z M496.652,58.273v86.972H344.904h-15.441h-14.376  H214.711h-14.376h-15.442H51.562V58.273H496.652z M51.562,349.884v-86.972h391.372c4.238,0,7.674-3.435,7.674-7.674  c0-4.239-3.436-7.674-7.674-7.674H51.562v-86.972h445.09v86.972h-23.021c-4.239,0-7.674,3.435-7.674,7.674  c0,4.239,3.436,7.674,7.674,7.674h23.021v86.972H51.562z"/>
<path style="fill:#2E3033;" d="M20.97,482.004c-6.429,0-11.661-5.232-11.661-11.661V41.55c0-6.371,5.183-11.554,11.554-11.554h1.524  c6.431,0,11.661,5.232,11.661,11.661v428.685c0,6.431-5.232,11.661-11.661,11.661H20.97V482.004z"/>
<path d="M22.386,20.687h-1.524C9.359,20.687,0,30.046,0,41.55v428.793c0,11.563,9.407,20.97,20.97,20.97h1.415  c11.564,0,20.97-9.407,20.97-20.97V41.657C43.357,30.094,33.949,20.687,22.386,20.687z M27.841,470.343  c0,3.008-2.447,5.455-5.455,5.455h-1.415c-3.008,0-5.455-2.447-5.455-5.455V41.55c0-2.949,2.399-5.348,5.348-5.348h1.524  c3.008,0,5.455,2.447,5.455,5.455v428.686H27.841z"/>
<g>
</g>
<g>
</g>
<g>
</g>
<g>
</g>
<g>
</g>
<g>
</g>
<g>
</g>
<g>
</g>
<g>
</g>
<g>
</g>
<g>
</g>
<g>
</g>
<g>
</g>
<g>
</g>
<g>
</g>
</svg>
