<?xml version="1.0" encoding="iso-8859-1"?>
<!-- Generator: Adobe Illustrator 19.0.0, SVG Export Plug-In . SVG Version: 6.00 Build 0)  -->
<svg xmlns="http://www.w3.org/2000/svg" xmlns:xlink="http://www.w3.org/1999/xlink" version="1.1" id="Layer_1" x="0px" y="0px" viewBox="0 0 512 512" style="enable-background:new 0 0 512 512;" xml:space="preserve">
<g>
	<rect x="281.31" y="160.399" style="fill:#FFFFFF;" width="215.309" height="18.791"/>
	<rect x="281.31" y="92.046" style="fill:#FFFFFF;" width="215.309" height="18.801"/>
	<rect x="281.31" y="228.762" style="fill:#FFFFFF;" width="215.309" height="18.791"/>
	<path style="fill:#FFFFFF;" d="M465.862,323.599c0-4.247,3.441-7.689,7.689-7.689h23.069v-18.804H50.619v18.804h392.174   c4.248,0,7.689,3.442,7.689,7.689l0,0L465.862,323.599L465.862,323.599z"/>
</g>
<path style="fill:#103B9B;" d="M50.619,247.553h23.069c4.248,0,7.689,3.442,7.689,7.689h15.38c0-4.247,3.442-7.689,7.69-7.689  h161.482V57.874H50.619V247.553z M241.744,152.713c0,22.26-18.109,40.368-40.367,40.368s-40.368-18.11-40.368-40.368  s18.11-40.367,40.368-40.367S241.744,130.453,241.744,152.713z M143.345,84.175c11.593,0,23.049,2.959,33.165,8.563  c2.556,1.25,4.318,3.875,4.318,6.913c0,4.236-3.425,7.672-7.655,7.69c-0.15,0.003-0.284-0.003-0.426-0.009  c-0.749-0.036-1.502-0.058-2.262-0.058c-25.057,0-45.443,20.385-45.443,45.442s20.386,45.443,45.443,45.443  c0.759,0,1.512-0.021,2.262-0.057c3.571-0.189,6.773,2.128,7.76,5.553c0.987,3.425-0.513,7.082-3.62,8.829  c-10.207,5.74-21.805,8.773-33.541,8.773c-37.794,0-68.542-30.748-68.542-68.542S105.552,84.175,143.345,84.175z"/>
<g>
	<path style="fill:#ED1F34;" d="M473.551,331.289c-4.248,0-7.689-3.442-7.689-7.69h-15.381c0,4.248-3.441,7.69-7.689,7.69H50.619   v18.794H496.62v-18.794H473.551z"/>
	<path style="fill:#ED1F34;" d="M73.688,262.932H50.619v18.794H496.62v-18.794H104.446c-4.248,0-7.69-3.442-7.69-7.69H81.377   C81.377,259.49,77.935,262.932,73.688,262.932z"/>
	<rect x="281.31" y="194.581" style="fill:#ED1F34;" width="215.309" height="18.801"/>
	<rect x="281.31" y="126.228" style="fill:#ED1F34;" width="215.309" height="18.791"/>
	<rect x="281.31" y="57.874" style="fill:#ED1F34;" width="215.309" height="18.791"/>
</g>
<path d="M504.31,42.494H42.929c-4.248,0-7.69,3.442-7.69,7.689v307.588c0,4.248,3.442,7.69,7.69,7.69h461.38  c4.248,0,7.69-3.442,7.69-7.69V50.183C512,45.936,508.558,42.494,504.31,42.494z M281.31,247.553v-18.794H496.62v18.794H281.31z   M281.31,213.38v-18.804H496.62v18.804H281.31z M281.31,179.196v-18.794H496.62v18.794H281.31z M281.31,145.023V126.23H496.62  v18.794H281.31z M281.31,110.85V92.047H496.62v18.804H281.31V110.85z M496.62,76.667H281.31V57.874H496.62V76.667z M265.929,247.553  H104.446c-4.248,0-7.69,3.442-7.69,7.689c0,4.248,3.442,7.69,7.69,7.69H496.62v18.794H50.619v-18.794h23.069  c4.248,0,7.689-3.442,7.689-7.69c0-4.247-3.441-7.689-7.689-7.689H50.619V57.874h215.31V247.553z M50.619,350.082v-18.794h392.174  c4.248,0,7.689-3.442,7.689-7.69l0,0c0-4.247-3.441-7.689-7.689-7.689H50.619v-18.803H496.62v18.804h-23.069  c-4.248,0-7.689,3.442-7.689,7.689l0,0c0,4.248,3.441,7.69,7.689,7.69h23.069v18.794H50.619V350.082z"/>
<path style="fill:#FFE000;" d="M176.388,152.713c0,13.778,11.21,24.988,24.988,24.988c13.778,0,24.987-11.21,24.987-24.988  c0-13.778-11.209-24.987-24.987-24.987C187.598,127.725,176.388,138.934,176.388,152.713z"/>
<path d="M161.008,152.713c0,22.26,18.11,40.368,40.368,40.368s40.367-18.11,40.367-40.368s-18.109-40.367-40.367-40.367  S161.008,130.453,161.008,152.713z M226.364,152.713c0,13.778-11.209,24.988-24.987,24.988c-13.778,0-24.988-11.21-24.988-24.988  c0-13.778,11.21-24.987,24.988-24.987C215.155,127.725,226.364,138.934,226.364,152.713z"/>
<path style="fill:#FFE000;" d="M140.856,205.821c-18.595-10.417-31.193-30.318-31.193-53.105c0-22.786,12.597-42.687,31.193-53.104  c-28.164,1.305-50.673,24.626-50.673,53.104C90.184,181.195,112.692,204.517,140.856,205.821z"/>
<path d="M143.345,221.258c11.737,0,23.335-3.034,33.541-8.773c3.107-1.747,4.607-5.403,3.62-8.829  c-0.987-3.426-4.189-5.742-7.76-5.553c-0.749,0.036-1.502,0.057-2.262,0.057c-25.057,0-45.443-20.386-45.443-45.443  s20.386-45.442,45.443-45.442c0.759,0,1.512,0.022,2.262,0.058c0.142,0.006,0.277,0.012,0.426,0.009  c4.23-0.019,7.655-3.454,7.655-7.69c0-3.038-1.762-5.663-4.318-6.913c-10.116-5.603-21.572-8.563-33.165-8.563  c-37.794,0-68.542,30.747-68.542,68.541S105.552,221.258,143.345,221.258z M140.856,99.611  c-18.595,10.418-31.193,30.318-31.193,53.104c0,22.787,12.597,42.689,31.193,53.105c-28.164-1.304-50.673-24.626-50.673-53.105  C90.184,124.237,112.692,100.916,140.856,99.611z"/>
<path style="fill:#2E3033;" d="M21.013,482.462c-6.442,0-11.685-5.242-11.685-11.685V41.115c0-6.383,5.194-11.577,11.577-11.577  h1.527c6.444,0,11.685,5.242,11.685,11.685v429.552c0,6.444-5.242,11.685-11.685,11.685h-1.419V482.462z"/>
<path d="M22.432,20.211h-1.527C9.378,20.211,0,29.588,0,41.115v429.661c0,11.587,9.426,21.013,21.013,21.013h1.418  c11.587,0,21.013-9.426,21.013-21.013V41.223C43.444,29.637,34.018,20.211,22.432,20.211z M27.898,470.777  c0,3.014-2.452,5.466-5.466,5.466h-1.418c-3.014,0-5.466-2.452-5.466-5.466V41.115c0-2.955,2.403-5.358,5.358-5.358h1.527  c3.014,0,5.466,2.452,5.466,5.466v429.554H27.898z"/>
<g>
</g>
<g>
</g>
<g>
</g>
<g>
</g>
<g>
</g>
<g>
</g>
<g>
</g>
<g>
</g>
<g>
</g>
<g>
</g>
<g>
</g>
<g>
</g>
<g>
</g>
<g>
</g>
<g>
</g>
</svg>
