<?xml version="1.0" encoding="iso-8859-1"?>
<!-- Generator: Adobe Illustrator 19.0.0, SVG Export Plug-In . SVG Version: 6.00 Build 0)  -->
<svg xmlns="http://www.w3.org/2000/svg" xmlns:xlink="http://www.w3.org/1999/xlink" version="1.1" id="Layer_1" x="0px" y="0px" viewBox="0 0 512 512" style="enable-background:new 0 0 512 512;" xml:space="preserve">
<path style="fill:#FFE000;" d="M338.615,76.584V52.941h-141.86v299.484h141.861V108.11c0-4.354,3.528-7.881,7.881-7.881V84.465  C342.143,84.465,338.615,80.937,338.615,76.584z M326.005,231.12c0,4.353-3.528,7.881-7.881,7.881c-4.354,0-7.882-3.528-7.882-7.881  v-2.627h-16.747v16.747h2.627c4.353,0,7.881,3.528,7.881,7.882c0,4.353-3.528,7.88-7.881,7.88h-50.57  c-4.353,0-7.882-3.527-7.882-7.88c0-4.354,3.529-7.882,7.882-7.882h2.627v-16.747h-16.747v2.627c0,4.353-3.528,7.881-7.882,7.881  c-4.353,0-7.881-3.528-7.881-7.881v-50.57c0-4.353,3.528-7.882,7.881-7.882c4.354,0,7.882,3.529,7.882,7.882v2.627h16.747V166.43  h-2.627c-4.353,0-7.882-3.529-7.882-7.882c0-4.353,3.529-7.881,7.882-7.881h50.57c4.353,0,7.881,3.528,7.881,7.881  c0,4.353-3.528,7.882-7.881,7.882h-2.627v16.747h16.747v-2.627c0-4.353,3.528-7.882,7.882-7.882c4.353,0,7.881,3.529,7.881,7.882  V231.12z"/>
<g>
	<rect x="39.132" y="52.941" style="fill:#164FCE;" width="141.862" height="299.488"/>
	<path style="fill:#164FCE;" d="M354.377,76.584c0,4.354-3.529,7.881-7.882,7.881v15.764c4.353,0,7.882,3.527,7.882,7.881v244.315   h141.86V52.941h-141.86V76.584z"/>
</g>
<path d="M504.118,37.178H31.25c-4.353,0-7.881,3.528-7.881,7.882v315.244c0,4.353,3.528,7.882,7.881,7.882h472.868  c4.354,0,7.882-3.529,7.882-7.882V45.06C512,40.706,508.472,37.178,504.118,37.178z M496.237,352.424h-141.86V108.108  c0-4.354-3.529-7.881-7.882-7.881s-7.881,3.527-7.881,7.881v244.315h-141.86V52.941h141.861v23.643c0,4.354,3.528,7.881,7.881,7.881  s7.882-3.527,7.882-7.881V52.941h141.86v299.483H496.237z M39.132,52.941h141.86v299.484H39.132V52.941z"/>
<path style="fill:#FFFFFF;" d="M310.242,198.939h-24.629c-4.353,0-7.881-3.528-7.881-7.881v-24.629H263.94v24.629  c0,4.353-3.528,7.881-7.881,7.881H231.43v13.791h24.629c4.353,0,7.881,3.529,7.881,7.882v24.629h13.792v-24.629  c0-4.353,3.528-7.882,7.881-7.882h24.629V198.939z"/>
<path style="fill:#ED1F34;" d="M318.124,172.668c-4.354,0-7.882,3.529-7.882,7.882v2.627h-16.747V166.43h2.627  c4.353,0,7.881-3.529,7.881-7.882c0-4.353-3.528-7.881-7.881-7.881h-50.57c-4.353,0-7.882,3.528-7.882,7.881  c0,4.353,3.529,7.882,7.882,7.882h2.627v16.747h-16.747v-2.627c0-4.353-3.528-7.882-7.882-7.882c-4.353,0-7.881,3.529-7.881,7.882  v50.57c0,4.353,3.528,7.881,7.881,7.881c4.354,0,7.882-3.528,7.882-7.881v-2.627h16.747v16.747h-2.627  c-4.353,0-7.882,3.528-7.882,7.882c0,4.353,3.529,7.88,7.882,7.88h50.57c4.353,0,7.881-3.527,7.881-7.88  c0-4.354-3.528-7.882-7.881-7.882h-2.627v-16.747h16.747v2.627c0,4.353,3.528,7.881,7.882,7.881c4.353,0,7.881-3.528,7.881-7.881  v-50.57C326.005,176.197,322.477,172.668,318.124,172.668z M277.733,220.613v24.629h-13.792v-24.629  c0-4.353-3.528-7.882-7.881-7.882h-24.629V198.94h24.629c4.353,0,7.881-3.528,7.881-7.881V166.43h13.792v24.629  c0,4.353,3.528,7.881,7.881,7.881h24.629v13.791h-24.629C281.261,212.731,277.733,216.259,277.733,220.613z"/>
<path style="fill:#2E3033;" d="M21.536,488.1c-6.603,0-11.976-5.373-11.976-11.976V35.766c0-6.542,5.323-11.865,11.865-11.865h1.565  c6.604,0,11.976,5.373,11.976,11.976v440.247c0,6.604-5.373,11.976-11.976,11.976h-1.454V488.1z"/>
<path d="M22.99,14.34h-1.565C9.611,14.34,0,23.951,0,35.766v440.358C0,488,9.661,497.66,21.536,497.66h1.453  c11.876,0,21.536-9.661,21.536-21.536V35.876C44.526,24.001,34.865,14.34,22.99,14.34z M28.592,476.124  c0,3.089-2.513,5.602-5.602,5.602h-1.453c-3.089,0-5.602-2.513-5.602-5.602V35.766c0-3.028,2.463-5.492,5.492-5.492h1.565  c3.089,0,5.602,2.513,5.602,5.602v440.248H28.592z"/>
<g>
</g>
<g>
</g>
<g>
</g>
<g>
</g>
<g>
</g>
<g>
</g>
<g>
</g>
<g>
</g>
<g>
</g>
<g>
</g>
<g>
</g>
<g>
</g>
<g>
</g>
<g>
</g>
<g>
</g>
</svg>
