<?xml version="1.0" encoding="iso-8859-1"?>
<!-- Generator: Adobe Illustrator 19.0.0, SVG Export Plug-In . SVG Version: 6.00 Build 0)  -->
<svg xmlns="http://www.w3.org/2000/svg" xmlns:xlink="http://www.w3.org/1999/xlink" version="1.1" id="Layer_1" x="0px" y="0px" viewBox="0 0 512 512" style="enable-background:new 0 0 512 512;" xml:space="preserve">
<path style="fill:#ED1F34;" d="M205.041,111.99v84.414h291.611V58.273H205.041v23.022c0,4.239-3.435,7.675-7.674,7.675v15.348  C201.606,104.318,205.041,107.753,205.041,111.99z"/>
<rect x="205.038" y="211.751" style="fill:#259245;" width="291.612" height="138.126"/>
<path style="fill:#FFFFFF;" d="M189.693,111.99c0-4.239,3.435-7.674,7.675-7.674V88.97c-4.24,0-7.675-3.436-7.675-7.675V58.273  H51.562v291.611h138.131L189.693,111.99L189.693,111.99z"/>
<path d="M504.326,42.925H43.888c-4.239,0-7.674,3.435-7.674,7.674v306.959c0,4.24,3.435,7.675,7.674,7.675h460.438  c4.239,0,7.674-3.435,7.674-7.675V50.599C512,46.36,508.565,42.925,504.326,42.925z M51.562,58.273h138.131v23.022  c0,4.239,3.435,7.675,7.675,7.675c4.239,0,7.674-3.436,7.674-7.675V58.273h291.611v138.132H205.041v-84.414  c0-4.239-3.435-7.674-7.674-7.674c-4.24,0-7.675,3.435-7.675,7.674v237.893H51.562V58.273z M205.041,211.753h291.611v138.131  H205.041V211.753z"/>
<path style="fill:#2E3033;" d="M20.97,482.004c-6.429,0-11.661-5.232-11.661-11.661V41.55c0-6.371,5.183-11.554,11.554-11.554h1.524  c6.431,0,11.661,5.232,11.661,11.661v428.685c0,6.431-5.232,11.661-11.661,11.661H20.97V482.004z"/>
<path d="M22.386,20.687h-1.524C9.359,20.687,0,30.046,0,41.55v428.793c0,11.563,9.407,20.97,20.97,20.97h1.415  c11.564,0,20.97-9.407,20.97-20.97V41.657C43.357,30.094,33.949,20.687,22.386,20.687z M27.841,470.343  c0,3.008-2.447,5.455-5.455,5.455h-1.415c-3.008,0-5.455-2.447-5.455-5.455V41.55c0-2.949,2.399-5.348,5.348-5.348h1.524  c3.008,0,5.455,2.447,5.455,5.455v428.686H27.841z"/>
<g>
</g>
<g>
</g>
<g>
</g>
<g>
</g>
<g>
</g>
<g>
</g>
<g>
</g>
<g>
</g>
<g>
</g>
<g>
</g>
<g>
</g>
<g>
</g>
<g>
</g>
<g>
</g>
<g>
</g>
</svg>
