<?xml version="1.0" encoding="iso-8859-1"?>
<!-- Generator: Adobe Illustrator 19.0.0, SVG Export Plug-In . SVG Version: 6.00 Build 0)  -->
<svg xmlns="http://www.w3.org/2000/svg" xmlns:xlink="http://www.w3.org/1999/xlink" version="1.1" id="Layer_1" x="0px" y="0px" viewBox="0 0 512 512" style="enable-background:new 0 0 512 512;" xml:space="preserve">
<path style="fill:#048B7D;" d="M39.132,108.108v244.315h457.106V52.941H39.132v23.643c0,4.354-3.528,7.881-7.882,7.881v15.764  C35.604,100.228,39.132,103.755,39.132,108.108z M331.395,305.471c-17.063,16.919-39.69,26.237-63.71,26.237  s-46.646-9.318-63.71-26.237c-2.269-2.249-2.956-5.644-1.74-8.598c1.216-2.953,4.094-4.881,7.287-4.881h116.324  c3.193,0,6.072,1.927,7.287,4.881C334.348,299.827,333.663,303.222,331.395,305.471z M345.4,284.008H189.969  c-4.353,0-7.881-3.529-7.881-7.882s3.528-7.881,7.881-7.881H345.4c4.353,0,7.881,3.528,7.881,7.881S349.753,284.008,345.4,284.008z   M337.967,136.526c5.517-1.793,11.444,1.227,13.237,6.746c1.793,5.516-1.226,11.444-6.744,13.237  c-5.518,1.793-11.445-1.226-13.238-6.745C329.428,144.246,332.448,138.32,337.967,136.526z M304.626,109.041  c3.411-4.695,9.982-5.736,14.677-2.325c4.694,3.411,5.735,9.983,2.324,14.677c-3.412,4.695-9.982,5.735-14.677,2.324  C302.257,120.307,301.215,113.736,304.626,109.041z M267.685,81.538c8.705,0,15.763,7.058,15.763,15.762  c0,8.705-7.058,15.764-15.763,15.764c-8.705,0-15.763-7.059-15.763-15.764C251.922,88.594,258.98,81.538,267.685,81.538z   M216.065,106.716c4.695-3.411,11.265-2.369,14.677,2.325c3.411,4.695,2.369,11.265-2.324,14.676  c-4.695,3.411-11.265,2.37-14.677-2.324C210.33,116.699,211.371,110.127,216.065,106.716z M184.165,143.272  c1.793-5.518,7.72-8.538,13.238-6.746c5.518,1.793,8.538,7.72,6.745,13.238c-1.793,5.518-7.719,8.538-13.238,6.745  C185.392,154.715,182.373,148.788,184.165,143.272z M174.451,199.206c0.091-2.337,1.217-4.513,3.073-5.941  c8.677-6.668,20.174-10.339,32.375-10.339c7.856,0,15.842,1.497,23.473,4.372c2.44-21.054,14.055-38.942,30.969-46.867  c2.12-0.994,4.569-0.994,6.689,0c16.914,7.925,28.529,25.814,30.969,46.867c7.633-2.875,15.617-4.372,23.473-4.372  c12.2,0,23.698,3.671,32.375,10.339c1.856,1.428,2.982,3.604,3.073,5.941c0.826,21.082-12.742,41.999-34.568,53.289  c-9.82,5.081-20.57,7.766-31.089,7.766c-0.001,0-0.002,0-0.003,0c-10.066,0-19.654-2.501-27.574-7.119  c-7.92,4.62-17.508,7.119-27.574,7.119c-10.519,0-21.27-2.684-31.092-7.766C187.193,241.205,173.624,220.289,174.451,199.206z"/>
<path d="M504.118,37.178H31.25c-4.353,0-7.881,3.528-7.881,7.882v31.524c0,4.354,3.528,7.881,7.881,7.881  c4.354,0,7.882-3.527,7.882-7.881V52.941h457.106v299.484H39.132V108.11c0-4.354-3.528-7.881-7.882-7.881  c-4.353,0-7.881,3.527-7.881,7.881v252.196c0,4.353,3.528,7.882,7.881,7.882h472.868c4.354,0,7.882-3.529,7.882-7.882V45.06  C512,40.706,508.472,37.178,504.118,37.178z"/>
<path style="fill:#FFFFFF;" d="M216.263,238.496c7.591,3.926,15.838,6.003,23.848,6.003c8.744,0,16.833-2.513,22.771-7.078  c1.417-1.088,3.11-1.632,4.802-1.632s3.386,0.544,4.802,1.632c5.937,4.563,14.025,7.076,22.772,7.078c0,0,0.001,0,0.002,0  c8.008,0,16.254-2.077,23.845-6.003c14.778-7.646,24.799-21.286,25.969-34.855c-5.507-3.213-12.327-4.952-19.605-4.952  c-8.01,0-16.258,2.076-23.85,6.003c-1.051,0.544-2.093,1.125-3.095,1.727c-2.51,1.509-5.649,1.5-8.154-0.023  c-2.502-1.522-3.953-4.306-3.769-7.23c0.073-1.174,0.112-2.368,0.112-3.546c0-16.642-7.515-31.811-19.03-39.083  c-11.515,7.272-19.03,22.441-19.03,39.083c0,1.178,0.038,2.371,0.112,3.546c0.184,2.923-1.266,5.707-3.769,7.23  c-2.503,1.524-5.643,1.533-8.154,0.023c-1.004-0.602-2.046-1.183-3.095-1.727c-7.593-3.927-15.84-6.003-23.85-6.003  c-7.277,0-14.098,1.739-19.605,4.952C191.464,217.21,201.485,230.85,216.263,238.496z"/>
<path d="M209.019,252.496c9.82,5.081,20.571,7.766,31.092,7.766c10.066,0,19.654-2.501,27.574-7.119  c7.92,4.62,17.508,7.119,27.574,7.119c0.001,0,0.002,0,0.003,0c10.517,0,21.267-2.684,31.089-7.766  c21.827-11.291,35.395-32.207,34.568-53.289c-0.091-2.337-1.217-4.513-3.073-5.941c-8.677-6.668-20.174-10.339-32.375-10.339  c-7.856,0-15.84,1.497-23.473,4.372c-2.44-21.054-14.055-38.942-30.969-46.867c-2.12-0.994-4.569-0.994-6.689,0  c-16.914,7.925-28.529,25.814-30.969,46.867c-7.631-2.875-15.617-4.372-23.473-4.372c-12.2,0-23.698,3.671-32.375,10.339  c-1.856,1.428-2.982,3.604-3.073,5.941C173.624,220.289,187.193,241.205,209.019,252.496z M233.749,204.692  c1.049,0.544,2.092,1.125,3.095,1.727c2.511,1.509,5.65,1.5,8.154-0.023c2.502-1.522,3.953-4.306,3.769-7.23  c-0.073-1.174-0.112-2.368-0.112-3.546c0-16.642,7.515-31.811,19.03-39.083c11.515,7.272,19.03,22.441,19.03,39.083  c0,1.178-0.038,2.371-0.112,3.546c-0.184,2.923,1.266,5.707,3.769,7.23c2.504,1.524,5.644,1.533,8.154,0.023  c1.003-0.602,2.045-1.183,3.095-1.727c7.593-3.927,15.84-6.003,23.85-6.003c7.277,0,14.098,1.739,19.605,4.952  c-1.171,13.569-11.191,27.209-25.969,34.855c-7.591,3.926-15.837,6.003-23.845,6.003c-0.001,0-0.002,0-0.002,0  c-8.747-0.002-16.835-2.514-22.772-7.078c-1.416-1.088-3.11-1.632-4.802-1.632c-1.692,0-3.386,0.544-4.802,1.632  c-5.938,4.564-14.026,7.078-22.771,7.078c-8.01,0-16.258-2.077-23.848-6.003c-14.778-7.646-24.799-21.286-25.969-34.855  c5.507-3.213,12.327-4.952,19.605-4.952C217.909,198.689,226.155,200.765,233.749,204.692z"/>
<g>
	<circle style="fill:#FFE610;" cx="267.685" cy="97.301" r="15.763"/>
	<circle style="fill:#FFE610;" cx="222.242" cy="115.221" r="10.508"/>
	<circle style="fill:#FFE610;" cx="194.156" cy="146.515" r="10.506"/>
	<circle style="fill:#FFE610;" cx="341.213" cy="146.515" r="10.506"/>
	<circle style="fill:#FFE610;" cx="313.127" cy="115.221" r="10.508"/>
</g>
<path style="fill:#FFFFFF;" d="M267.685,315.947c12.042,0,23.658-2.836,34.083-8.191h-68.166  C244.026,313.11,255.643,315.947,267.685,315.947z"/>
<path d="M325.847,291.993H209.523c-3.193,0-6.072,1.927-7.287,4.881c-1.217,2.953-0.529,6.349,1.74,8.598  c17.063,16.919,39.69,26.237,63.71,26.237s46.646-9.318,63.71-26.237c2.269-2.249,2.955-5.644,1.74-8.598  C331.92,293.92,329.04,291.993,325.847,291.993z M267.685,315.947c-12.042,0-23.658-2.836-34.083-8.191h68.166  C291.343,313.11,279.726,315.947,267.685,315.947z"/>
<path d="M345.4,268.246H189.969c-4.353,0-7.881,3.528-7.881,7.881s3.528,7.882,7.881,7.882H345.4c4.353,0,7.881-3.529,7.881-7.882  S349.753,268.246,345.4,268.246z"/>
<path style="fill:#2E3033;" d="M21.536,488.1c-6.603,0-11.976-5.373-11.976-11.976V35.766c0-6.542,5.323-11.865,11.865-11.865h1.565  c6.604,0,11.976,5.373,11.976,11.976v440.247c0,6.604-5.373,11.976-11.976,11.976h-1.454V488.1z"/>
<path d="M22.99,14.34h-1.565C9.611,14.34,0,23.951,0,35.766v440.358C0,488,9.661,497.66,21.536,497.66h1.453  c11.876,0,21.536-9.661,21.536-21.536V35.876C44.526,24.001,34.865,14.34,22.99,14.34z M28.592,476.124  c0,3.089-2.513,5.602-5.602,5.602h-1.453c-3.089,0-5.602-2.513-5.602-5.602V35.766c0-3.028,2.463-5.492,5.492-5.492h1.565  c3.089,0,5.602,2.513,5.602,5.602v440.248H28.592z"/>
<g>
</g>
<g>
</g>
<g>
</g>
<g>
</g>
<g>
</g>
<g>
</g>
<g>
</g>
<g>
</g>
<g>
</g>
<g>
</g>
<g>
</g>
<g>
</g>
<g>
</g>
<g>
</g>
<g>
</g>
</svg>
