<?xml version="1.0" encoding="iso-8859-1"?>
<!-- Generator: Adobe Illustrator 19.0.0, SVG Export Plug-In . SVG Version: 6.00 Build 0)  -->
<svg xmlns="http://www.w3.org/2000/svg" xmlns:xlink="http://www.w3.org/1999/xlink" version="1.1" id="Layer_1" x="0px" y="0px" viewBox="0 0 511.999 511.999" style="enable-background:new 0 0 511.999 511.999;" xml:space="preserve">
<path style="fill:#259245;" d="M104.446,160.403H50.619v87.15H496.62v-87.15H135.205c-4.247,0-7.689-3.443-7.689-7.69h-15.38  C112.135,156.959,108.693,160.403,104.446,160.403z"/>
<rect x="50.619" y="262.933" style="fill:#ED1F34;" width="446" height="87.154"/>
<path style="fill:#FFE000;" d="M104.446,145.023c4.246,0,7.689,3.443,7.689,7.689h15.38c0-4.246,3.443-7.689,7.689-7.689h361.415  v-87.15H50.619v87.15H104.446z"/>
<path d="M504.311,42.493H42.928c-4.246,0-7.689,3.443-7.689,7.689V357.77c0,4.247,3.443,7.689,7.689,7.689H504.31  c4.247,0,7.689-3.443,7.689-7.689V50.183C512,45.936,508.557,42.493,504.311,42.493z M496.62,57.873v87.15H135.205  c-4.247,0-7.689,3.443-7.689,7.689c0,4.247,3.443,7.69,7.689,7.69H496.62v87.15H50.619v-87.15h53.828  c4.246,0,7.689-3.443,7.689-7.69c0-4.246-3.443-7.689-7.689-7.689H50.619v-87.15H496.62z M50.619,350.081v-87.15H496.62v87.15  H50.619z"/>
<path style="fill:#2E3033;" d="M21.013,482.461c-6.442,0-11.685-5.242-11.685-11.685V41.115c0-6.383,5.194-11.577,11.577-11.577  h1.527c6.444,0,11.685,5.242,11.685,11.685v429.552c0,6.444-5.242,11.685-11.685,11.685h-1.419V482.461z"/>
<path d="M22.432,20.21h-1.527C9.378,20.21,0,29.588,0,41.115v429.661c0,11.587,9.426,21.013,21.013,21.013h1.418  c11.587,0,21.013-9.426,21.013-21.013V41.223C43.444,29.636,34.018,20.21,22.432,20.21z M27.898,470.776  c0,3.014-2.452,5.466-5.466,5.466h-1.418c-3.014,0-5.466-2.452-5.466-5.466V41.115c0-2.955,2.403-5.358,5.358-5.358h1.527  c3.014,0,5.466,2.452,5.466,5.466v429.554H27.898z"/>
<g>
</g>
<g>
</g>
<g>
</g>
<g>
</g>
<g>
</g>
<g>
</g>
<g>
</g>
<g>
</g>
<g>
</g>
<g>
</g>
<g>
</g>
<g>
</g>
<g>
</g>
<g>
</g>
<g>
</g>
</svg>
