<?xml version="1.0" encoding="iso-8859-1"?>
<!-- Generator: Adobe Illustrator 19.0.0, SVG Export Plug-In . SVG Version: 6.00 Build 0)  -->
<svg xmlns="http://www.w3.org/2000/svg" xmlns:xlink="http://www.w3.org/1999/xlink" version="1.1" id="Layer_1" x="0px" y="0px" viewBox="0 0 511.999 511.999" style="enable-background:new 0 0 511.999 511.999;" xml:space="preserve">
<path style="fill:#ED1F34;" d="M442.933,211.757c-4.238,0-7.674-3.435-7.674-7.674H419.91c0,4.239-3.436,7.674-7.674,7.674H51.551  v138.136h445.101V211.757H442.933z"/>
<path style="fill:#103B9B;" d="M442.933,196.408h53.72V58.273H51.551v138.135h360.685c4.239,0,7.674,3.436,7.674,7.674h15.349  C435.259,199.844,438.694,196.408,442.933,196.408z M245.044,169.221c-1.457,1.773-3.633,2.801-5.928,2.801h-85.268  c-2.295,0-4.47-1.028-5.928-2.801c-0.489-0.595-11.979-14.775-11.979-32.671c0-19.559,15.912-35.471,35.471-35.471  c6.188,0,12.164,1.655,17.395,4.607V90.334c0-4.238,3.436-7.674,7.674-7.674s7.674,3.436,7.674,7.674v15.352  c5.232-2.952,11.206-4.607,17.395-4.607c19.559,0,35.472,15.912,35.472,35.471C257.023,154.446,245.533,168.625,245.044,169.221z"/>
<path d="M504.326,42.925H43.876c-4.238,0-7.674,3.436-7.674,7.674v306.966c0,4.239,3.436,7.674,7.674,7.674h460.449  c4.239,0,7.674-3.436,7.674-7.674V50.599C512,46.361,508.564,42.925,504.326,42.925z M51.551,349.891V211.757h360.685  c4.239,0,7.674-3.435,7.674-7.674c0-4.239-3.436-7.674-7.674-7.674H51.551V58.273h445.101v138.135h-53.72  c-4.238,0-7.674,3.436-7.674,7.674c0,4.238,3.436,7.674,7.674,7.674h53.72v138.136L51.551,349.891L51.551,349.891z"/>
<path style="fill:#FFE000;" d="M221.551,116.426c-7.692,0-14.818,4.484-18.152,11.423c-0.016,0.032-0.036,0.06-0.053,0.091  c-0.146,0.293-0.304,0.579-0.485,0.849c-0.002,0.004-0.004,0.008-0.007,0.011c-0.179,0.267-0.38,0.517-0.59,0.759  c-0.056,0.063-0.113,0.124-0.17,0.186c-0.188,0.202-0.385,0.394-0.593,0.575c-0.034,0.029-0.065,0.062-0.1,0.091  c-0.243,0.204-0.502,0.389-0.77,0.562c-0.058,0.037-0.117,0.071-0.176,0.107c-0.236,0.144-0.479,0.274-0.73,0.392  c-0.048,0.022-0.094,0.048-0.143,0.068c-0.297,0.131-0.603,0.245-0.919,0.338c-0.046,0.014-0.093,0.023-0.14,0.036  c-0.266,0.073-0.539,0.131-0.816,0.176c-0.081,0.012-0.16,0.026-0.242,0.037c-0.324,0.041-0.651,0.07-0.986,0.07  s-0.663-0.029-0.986-0.07c-0.082-0.01-0.161-0.024-0.242-0.037c-0.277-0.044-0.549-0.103-0.816-0.176  c-0.047-0.013-0.094-0.022-0.14-0.036c-0.315-0.093-0.622-0.207-0.919-0.338c-0.049-0.022-0.096-0.047-0.145-0.069  c-0.25-0.117-0.492-0.247-0.727-0.39c-0.06-0.036-0.12-0.07-0.178-0.108c-0.267-0.173-0.524-0.358-0.767-0.561  c-0.036-0.03-0.069-0.064-0.106-0.095c-0.206-0.179-0.401-0.369-0.587-0.57c-0.059-0.063-0.116-0.125-0.173-0.19  c-0.21-0.24-0.41-0.49-0.589-0.756c-0.003-0.005-0.006-0.011-0.01-0.017c-0.18-0.269-0.337-0.553-0.482-0.844  c-0.016-0.032-0.037-0.06-0.053-0.092c-3.335-6.939-10.459-11.423-18.152-11.423c-11.096,0-20.123,9.028-20.123,20.123  c0,8.502,4.027,16.168,6.538,20.124h77.309c2.512-3.955,6.538-11.621,6.538-20.124C241.674,125.454,232.647,116.426,221.551,116.426  z"/>
<path d="M221.551,101.079c-6.188,0-12.164,1.655-17.395,4.607V90.334c0-4.238-3.436-7.674-7.674-7.674  c-4.239,0-7.674,3.436-7.674,7.674v15.352c-5.232-2.952-11.206-4.607-17.395-4.607c-19.559,0-35.471,15.912-35.471,35.471  c0,17.896,11.488,32.076,11.979,32.671c1.457,1.773,3.633,2.801,5.928,2.801h85.268c2.295,0,4.47-1.028,5.928-2.801  c0.489-0.595,11.979-14.775,11.979-32.671C257.023,116.99,241.11,101.079,221.551,101.079z M157.827,156.674  c-2.511-3.955-6.538-11.621-6.538-20.124c0-11.096,9.028-20.123,20.123-20.123c7.692,0,14.817,4.484,18.152,11.423  c0.016,0.033,0.037,0.061,0.053,0.092c0.146,0.292,0.302,0.576,0.482,0.844c0.003,0.005,0.006,0.011,0.01,0.017  c0.179,0.266,0.379,0.516,0.589,0.756c0.057,0.065,0.114,0.127,0.173,0.19c0.186,0.2,0.382,0.391,0.587,0.57  c0.036,0.031,0.068,0.065,0.106,0.095c0.242,0.203,0.5,0.388,0.767,0.561c0.059,0.037,0.119,0.072,0.178,0.108  c0.235,0.143,0.477,0.273,0.727,0.39c0.049,0.023,0.095,0.048,0.145,0.069c0.297,0.131,0.603,0.245,0.919,0.338  c0.046,0.014,0.093,0.023,0.14,0.036c0.266,0.073,0.539,0.131,0.816,0.176c0.081,0.013,0.16,0.026,0.242,0.037  c0.324,0.041,0.651,0.07,0.986,0.07s0.662-0.029,0.986-0.07c0.082-0.01,0.161-0.024,0.242-0.037  c0.277-0.044,0.549-0.103,0.816-0.176c0.047-0.013,0.094-0.022,0.14-0.036c0.315-0.093,0.622-0.207,0.918-0.338  c0.049-0.022,0.095-0.047,0.143-0.068c0.251-0.118,0.494-0.248,0.73-0.392c0.059-0.035,0.118-0.069,0.176-0.107  c0.268-0.173,0.525-0.358,0.77-0.562c0.035-0.029,0.066-0.062,0.1-0.091c0.209-0.181,0.405-0.372,0.593-0.575  c0.057-0.062,0.114-0.123,0.17-0.186c0.21-0.242,0.411-0.492,0.59-0.759c0.002-0.003,0.004-0.007,0.007-0.011  c0.181-0.27,0.339-0.556,0.485-0.849c0.017-0.032,0.037-0.06,0.053-0.091c3.334-6.939,10.459-11.423,18.152-11.423  c11.096,0,20.123,9.028,20.123,20.123c0,8.502-4.026,16.168-6.538,20.124H157.827z"/>
<path style="fill:#2E3033;" d="M20.97,482.004c-6.429,0-11.661-5.232-11.661-11.661V41.549c0-6.371,5.183-11.554,11.554-11.554  h1.524c6.431,0,11.661,5.232,11.661,11.661v428.685c0,6.431-5.232,11.661-11.661,11.661H20.97V482.004z"/>
<path d="M22.386,20.686h-1.524C9.359,20.686,0,30.045,0,41.549v428.793c0,11.563,9.407,20.97,20.97,20.97h1.415  c11.564,0,20.97-9.407,20.97-20.97V41.657C43.357,30.094,33.949,20.686,22.386,20.686z M27.841,470.342  c0,3.008-2.447,5.455-5.455,5.455h-1.415c-3.008,0-5.455-2.447-5.455-5.455V41.549c0-2.949,2.399-5.348,5.348-5.348h1.524  c3.008,0,5.455,2.447,5.455,5.455v428.686H27.841z"/>
<g>
</g>
<g>
</g>
<g>
</g>
<g>
</g>
<g>
</g>
<g>
</g>
<g>
</g>
<g>
</g>
<g>
</g>
<g>
</g>
<g>
</g>
<g>
</g>
<g>
</g>
<g>
</g>
<g>
</g>
</svg>
