<?xml version="1.0" encoding="iso-8859-1"?>
<!-- Generator: Adobe Illustrator 19.0.0, SVG Export Plug-In . SVG Version: 6.00 Build 0)  -->
<svg xmlns="http://www.w3.org/2000/svg" xmlns:xlink="http://www.w3.org/1999/xlink" version="1.1" id="Layer_1" x="0px" y="0px" viewBox="0 0 512 512" style="enable-background:new 0 0 512 512;" xml:space="preserve">
<path style="fill:#333333;" d="M473.63,247.565h23.021v-86.972H51.562v86.972h391.372c4.238,0,7.674,3.435,7.674,7.674h15.348  C465.956,251,469.392,247.565,473.63,247.565z M281.547,229.319c-5.36,3.903-11.705,5.967-18.351,5.967  c-17.208,0-31.207-14-31.207-31.207c0-17.208,13.999-31.208,31.207-31.208c6.647,0,12.991,2.064,18.35,5.967  c3.427,2.496,4.18,7.296,1.684,10.722c-2.494,3.425-7.293,4.18-10.721,1.685c-2.715-1.979-5.936-3.025-9.313-3.025  c-8.745,0-15.86,7.114-15.86,15.86s7.114,15.86,15.86,15.86c3.376,0,6.597-1.047,9.314-3.025c3.426-2.495,8.226-1.743,10.721,1.685  C285.727,222.022,284.974,226.822,281.547,229.319z M298.249,212.845c-4.842,0-8.767-3.924-8.767-8.767s3.925-8.768,8.767-8.768  c4.843,0,8.768,3.925,8.768,8.768S303.091,212.845,298.249,212.845z"/>
<g>
	<path style="fill:#FFFFFF;" d="M272.51,216.913c-2.716,1.979-5.938,3.025-9.314,3.025c-8.745,0-15.86-7.114-15.86-15.86   s7.114-15.86,15.86-15.86c3.377,0,6.597,1.047,9.313,3.025c3.428,2.495,8.227,1.74,10.721-1.685   c2.496-3.427,1.742-8.226-1.684-10.722c-5.359-3.903-11.704-5.967-18.35-5.967c-17.208,0-31.207,14-31.207,31.208   c0,17.207,13.999,31.207,31.207,31.207c6.646,0,12.991-2.064,18.351-5.967c3.427-2.497,4.18-7.297,1.684-10.721   C280.737,215.17,275.936,214.418,272.51,216.913z"/>
	<circle style="fill:#FFFFFF;" cx="298.253" cy="204.076" r="8.767"/>
</g>
<path style="fill:#259245;" d="M473.63,262.913c-4.239,0-7.674-3.435-7.674-7.674h-15.348c0,4.239-3.436,7.674-7.674,7.674H51.562  v86.972h445.09v-86.972H473.63z"/>
<rect x="51.562" y="58.275" style="fill:#ED1F34;" width="445.088" height="86.968"/>
<path d="M504.326,42.925H43.888c-4.238,0-7.674,3.435-7.674,7.675v306.958c0,4.239,3.436,7.675,7.674,7.675h460.438  c4.239,0,7.674-3.436,7.674-7.675V50.6C512,46.36,508.564,42.925,504.326,42.925z M496.652,58.273v86.972H51.562V58.273H496.652z   M51.562,349.884v-86.972h391.372c4.238,0,7.674-3.435,7.674-7.674c0-4.239-3.436-7.674-7.674-7.674H51.562v-86.972h445.09v86.972  h-23.021c-4.239,0-7.674,3.435-7.674,7.674c0,4.239,3.436,7.674,7.674,7.674h23.021v86.972H51.562z"/>
<path style="fill:#2E3033;" d="M20.97,482.004c-6.429,0-11.661-5.232-11.661-11.661V41.55c0-6.371,5.183-11.554,11.554-11.554h1.524  c6.431,0,11.661,5.232,11.661,11.661v428.685c0,6.431-5.232,11.661-11.661,11.661H20.97V482.004z"/>
<path d="M22.386,20.687h-1.524C9.359,20.687,0,30.046,0,41.55v428.793c0,11.563,9.407,20.97,20.97,20.97h1.415  c11.564,0,20.97-9.407,20.97-20.97V41.657C43.357,30.094,33.949,20.687,22.386,20.687z M27.841,470.343  c0,3.008-2.447,5.455-5.455,5.455h-1.415c-3.008,0-5.455-2.447-5.455-5.455V41.55c0-2.949,2.399-5.348,5.348-5.348h1.524  c3.008,0,5.455,2.447,5.455,5.455v428.686H27.841z"/>
<g>
</g>
<g>
</g>
<g>
</g>
<g>
</g>
<g>
</g>
<g>
</g>
<g>
</g>
<g>
</g>
<g>
</g>
<g>
</g>
<g>
</g>
<g>
</g>
<g>
</g>
<g>
</g>
<g>
</g>
</svg>
