<?xml version="1.0" encoding="iso-8859-1"?>
<!-- Generator: Adobe Illustrator 19.0.0, SVG Export Plug-In . SVG Version: 6.00 Build 0)  -->
<svg xmlns="http://www.w3.org/2000/svg" xmlns:xlink="http://www.w3.org/1999/xlink" version="1.1" id="Layer_1" x="0px" y="0px" viewBox="0 0 512 512" style="enable-background:new 0 0 512 512;" xml:space="preserve">
<g>
	<rect x="51.562" y="309.414" style="fill:#FFFFFF;" width="445.088" height="12.563"/>
	<path style="fill:#FFFFFF;" d="M211.006,86.175h-23.021v12.563h308.668V86.175H241.703c-4.24,0-7.675-3.436-7.675-7.675h-15.348   C218.681,82.739,215.246,86.175,211.006,86.175z"/>
	<path style="fill:#FFFFFF;" d="M105.28,253.607H51.562v12.563h445.091v-12.563H135.976c-4.239,0-7.675-3.436-7.675-7.674h-15.348   C112.953,250.169,109.518,253.607,105.28,253.607z"/>
	<path style="fill:#FFFFFF;" d="M51.562,197.802v12.554h391.373c4.239,0,7.674,3.435,7.674,7.675l0,0h15.349l0,0   c0-4.24,3.435-7.675,7.674-7.675h23.022v-12.554H51.562z"/>
	<rect x="187.982" y="141.984" style="fill:#FFFFFF;" width="308.669" height="12.555"/>
</g>
<g>
	<rect x="51.562" y="281.517" style="fill:#ED1F34;" width="445.088" height="12.554"/>
	<path style="fill:#ED1F34;" d="M442.935,225.703H51.562v12.555h53.719c4.239,0,7.674,3.435,7.674,7.674v0.001h15.348v-0.001   c0-4.239,3.436-7.674,7.675-7.674h360.677v-12.555h-23.022c-4.239,0-7.674-3.434-7.674-7.673h-15.349   C450.608,222.269,447.173,225.703,442.935,225.703z"/>
	<rect x="51.562" y="337.33" style="fill:#ED1F34;" width="445.088" height="12.555"/>
	<rect x="187.982" y="169.891" style="fill:#ED1F34;" width="308.669" height="12.563"/>
	<rect x="187.982" y="114.088" style="fill:#ED1F34;" width="308.669" height="12.554"/>
	<path style="fill:#ED1F34;" d="M187.985,70.828h23.021c4.24,0,7.675,3.435,7.675,7.674l0,0h15.348l0,0   c0-4.239,3.435-7.674,7.675-7.674h254.949V58.273H187.985V70.828z"/>
</g>
<path style="fill:#164FCE;" d="M51.562,182.454h121.075V58.273H51.562V182.454z M70.374,110.263  c0.983-3.024,3.728-5.129,6.903-5.293l20.363-1.052l7.294-19.041c1.137-2.969,3.986-4.93,7.166-4.93c3.18,0,6.029,1.961,7.167,4.93  l7.293,19.041l20.363,1.052c3.175,0.163,5.922,2.268,6.903,5.293c0.983,3.023-0.001,6.339-2.473,8.338l-15.856,12.822l5.293,19.692  c0.825,3.07-0.329,6.331-2.901,8.2c-1.342,0.974-2.924,1.466-4.51,1.466c-1.454,0-2.91-0.412-4.185-1.241l-17.093-11.118  L95.01,159.539c-2.667,1.733-6.123,1.644-8.696-0.224c-2.571-1.869-3.726-5.13-2.9-8.2l5.292-19.692l-15.856-12.822  C70.375,116.602,69.392,113.285,70.374,110.263z"/>
<path style="fill:#FFFFFF;" d="M102.236,122.627c2.359,1.908,3.373,5.027,2.586,7.957l-1.388,5.164l4.482-2.916  c1.271-0.827,2.729-1.24,4.184-1.24c1.456,0,2.913,0.413,4.185,1.24l4.482,2.916l-1.388-5.164c-0.788-2.93,0.227-6.05,2.586-7.957  l4.158-3.362l-5.338-0.277c-3.032-0.155-5.685-2.085-6.771-4.919l-1.914-4.992l-1.913,4.992c-1.086,2.834-3.74,4.763-6.771,4.919  l-5.339,0.277L102.236,122.627z"/>
<path d="M72.847,118.6l15.856,12.822l-5.292,19.692c-0.825,3.07,0.328,6.331,2.9,8.2c2.572,1.868,6.029,1.957,8.696,0.224  l17.091-11.118l17.093,11.118c1.274,0.83,2.731,1.241,4.185,1.241c1.586,0,3.168-0.491,4.51-1.466c2.571-1.869,3.727-5.13,2.901-8.2  l-5.293-19.692l15.856-12.822c2.472-1.998,3.456-5.314,2.473-8.338c-0.982-3.024-3.728-5.129-6.903-5.293l-20.363-1.052  l-7.293-19.041c-1.138-2.969-3.986-4.93-7.167-4.93s-6.029,1.961-7.166,4.93l-7.294,19.041l-20.363,1.052  c-3.175,0.163-5.921,2.268-6.903,5.293C69.392,113.285,70.375,116.602,72.847,118.6z M110.187,114.068l1.913-4.992l1.914,4.992  c1.086,2.834,3.739,4.763,6.771,4.919l5.338,0.277l-4.158,3.362c-2.359,1.908-3.374,5.027-2.586,7.957l1.388,5.164l-4.482-2.916  c-1.271-0.827-2.729-1.24-4.185-1.24c-1.455,0-2.913,0.413-4.184,1.24l-4.482,2.916l1.388-5.164c0.787-2.93-0.227-6.05-2.586-7.957  l-4.159-3.362l5.339-0.277C106.446,118.833,109.102,116.903,110.187,114.068z"/>
<path d="M504.326,42.925H43.888c-4.239,0-7.674,3.435-7.674,7.675v306.958c0,4.239,3.435,7.675,7.674,7.675h460.438  c4.239,0,7.674-3.436,7.674-7.675V50.6C512,46.36,508.565,42.925,504.326,42.925z M496.652,70.828H241.703  c-4.24,0-7.675,3.435-7.675,7.674l0,0c0,4.239,3.435,7.675,7.675,7.675h254.949v12.562H187.985V86.175h23.021  c4.24,0,7.675-3.436,7.675-7.675l0,0c0-4.239-3.435-7.674-7.675-7.674h-23.021V58.273h308.668V70.828z M473.63,210.355  c-4.239,0-7.674,3.435-7.674,7.675l0,0c0,4.239,3.435,7.673,7.674,7.673h23.022v12.555H135.976c-4.239,0-7.675,3.435-7.675,7.674  v0.001c0,4.238,3.436,7.674,7.675,7.674h360.677v12.563H51.562v-12.563h53.719c4.239,0,7.674-3.436,7.674-7.674v-0.001  c0-4.239-3.435-7.674-7.674-7.674H51.562v-12.555h391.373c4.239,0,7.674-3.434,7.674-7.673l0,0c0-4.24-3.435-7.675-7.674-7.675  H51.562v-12.554h445.091v12.554L473.63,210.355L473.63,210.355z M496.652,309.419v12.563H51.562v-12.563H496.652z M51.562,294.071  v-12.554h445.091v12.554H51.562z M187.985,182.454v-12.563h308.668v12.563H187.985z M187.985,154.542v-12.555h308.668v12.555  H187.985z M187.985,126.641v-12.554h308.668v12.554H187.985z M172.636,182.454H51.562V58.273h121.075v124.181H172.636z   M51.562,349.884v-12.555h445.091v12.555H51.562z"/>
<path style="fill:#2E3033;" d="M20.97,482.004c-6.429,0-11.661-5.232-11.661-11.661V41.55c0-6.371,5.183-11.554,11.554-11.554h1.524  c6.431,0,11.661,5.232,11.661,11.661v428.685c0,6.431-5.232,11.661-11.661,11.661H20.97V482.004z"/>
<path d="M22.386,20.687h-1.524C9.359,20.687,0,30.046,0,41.55v428.793c0,11.563,9.407,20.97,20.97,20.97h1.415  c11.564,0,20.97-9.407,20.97-20.97V41.657C43.357,30.094,33.949,20.687,22.386,20.687z M27.841,470.343  c0,3.008-2.447,5.455-5.455,5.455h-1.415c-3.008,0-5.455-2.447-5.455-5.455V41.55c0-2.949,2.399-5.348,5.348-5.348h1.524  c3.008,0,5.455,2.447,5.455,5.455v428.686H27.841z"/>
<g>
</g>
<g>
</g>
<g>
</g>
<g>
</g>
<g>
</g>
<g>
</g>
<g>
</g>
<g>
</g>
<g>
</g>
<g>
</g>
<g>
</g>
<g>
</g>
<g>
</g>
<g>
</g>
<g>
</g>
</svg>
