<?xml version="1.0" encoding="iso-8859-1"?>
<!-- Generator: Adobe Illustrator 19.0.0, SVG Export Plug-In . SVG Version: 6.00 Build 0)  -->
<svg xmlns="http://www.w3.org/2000/svg" xmlns:xlink="http://www.w3.org/1999/xlink" version="1.1" id="Layer_1" x="0px" y="0px" viewBox="0 0 512 512" style="enable-background:new 0 0 512 512;" xml:space="preserve">
<path style="fill:#FFFFFF;" d="M135.976,247.565h360.677v-86.972H51.562v86.972h53.718c4.239,0,7.674,3.435,7.674,7.674h15.348  C128.302,251,131.737,247.565,135.976,247.565z M248.713,211.282l17.72-20.158v-7.508c0-4.24,3.435-7.675,7.674-7.675  s7.674,3.435,7.674,7.675v7.508l17.72,20.158c2.661,3.029,2.527,7.6-0.31,10.465c-6.682,6.75-15.591,10.469-25.084,10.469  c-9.494,0-18.402-3.718-25.085-10.469C246.186,218.882,246.051,214.31,248.713,211.282z"/>
<path style="fill:#259245;" d="M473.63,349.884h23.022v-86.972H135.976c-4.239,0-7.674-3.435-7.674-7.674h-15.348  c0,4.239-3.435,7.674-7.674,7.674H51.562v86.972h391.372c4.239,0,7.674,3.435,7.674,7.674h15.349  C465.956,353.319,469.392,349.884,473.63,349.884z"/>
<rect x="51.562" y="58.275" style="fill:#103B9B;" width="445.088" height="86.968"/>
<path d="M504.326,42.925H43.888c-4.238,0-7.674,3.435-7.674,7.674v306.959c0,4.24,3.436,7.675,7.674,7.675h399.047  c4.239,0,7.674-3.435,7.674-7.675c0-4.239-3.435-7.674-7.674-7.674H51.562v-86.972h53.718c4.239,0,7.674-3.435,7.674-7.674  c0-4.239-3.435-7.674-7.674-7.674H51.562v-86.972h445.09v86.972H135.976c-4.239,0-7.674,3.435-7.674,7.674  c0,4.239,3.436,7.674,7.674,7.674h360.677v86.972H473.63c-4.239,0-7.674,3.435-7.674,7.674c0,4.24,3.435,7.675,7.674,7.675h30.696  c4.239,0,7.674-3.435,7.674-7.675V50.599C512,46.36,508.565,42.925,504.326,42.925z M496.652,58.273v86.972H51.562V58.273H496.652z"/>
<path style="fill:#333333;" d="M282.4,215.074l-8.293-9.433l-8.293,9.433c2.568,1.176,5.382,1.795,8.293,1.795  S279.83,216.249,282.4,215.074z"/>
<path d="M274.107,232.216c9.493,0,18.402-3.718,25.084-10.469c2.837-2.866,2.972-7.437,0.31-10.465l-17.72-20.158v-7.508  c0-4.24-3.435-7.675-7.674-7.675s-7.674,3.435-7.674,7.675v7.508l-17.72,20.158c-2.662,3.029-2.527,7.6,0.309,10.465  C255.705,228.498,264.613,232.216,274.107,232.216z M274.107,205.641l8.293,9.433c-2.569,1.176-5.382,1.795-8.293,1.795  s-5.724-0.62-8.293-1.795L274.107,205.641z"/>
<path style="fill:#2E3033;" d="M20.97,482.004c-6.429,0-11.661-5.232-11.661-11.661V41.55c0-6.371,5.183-11.554,11.554-11.554h1.524  c6.431,0,11.661,5.232,11.661,11.661v428.685c0,6.431-5.232,11.661-11.661,11.661H20.97V482.004z"/>
<path d="M22.386,20.687h-1.524C9.359,20.687,0,30.046,0,41.55v428.793c0,11.563,9.407,20.97,20.97,20.97h1.415  c11.564,0,20.97-9.407,20.97-20.97V41.657C43.357,30.094,33.949,20.687,22.386,20.687z M27.841,470.343  c0,3.008-2.447,5.455-5.455,5.455h-1.415c-3.008,0-5.455-2.447-5.455-5.455V41.55c0-2.949,2.399-5.348,5.348-5.348h1.524  c3.008,0,5.455,2.447,5.455,5.455v428.686H27.841z"/>
<g>
</g>
<g>
</g>
<g>
</g>
<g>
</g>
<g>
</g>
<g>
</g>
<g>
</g>
<g>
</g>
<g>
</g>
<g>
</g>
<g>
</g>
<g>
</g>
<g>
</g>
<g>
</g>
<g>
</g>
</svg>
