<?xml version="1.0" encoding="iso-8859-1"?>
<!-- Generator: Adobe Illustrator 19.0.0, SVG Export Plug-In . SVG Version: 6.00 Build 0)  -->
<svg xmlns="http://www.w3.org/2000/svg" xmlns:xlink="http://www.w3.org/1999/xlink" version="1.1" id="Layer_1" x="0px" y="0px" viewBox="0 0 512 512" style="enable-background:new 0 0 512 512;" xml:space="preserve">
<g>
	<path style="fill:#ED1F34;" d="M105.28,295.655c-4.239,0-7.674-3.436-7.674-7.674H82.257c0,4.238-3.435,7.674-7.674,7.674H51.562   v54.23h445.09v-54.23H105.28z"/>
	<rect x="51.562" y="58.275" style="fill:#ED1F34;" width="445.088" height="54.231"/>
</g>
<path style="fill:#FFFFFF;" d="M105.28,280.307h391.373V127.85H51.562v152.457h23.021c4.239,0,7.674,3.436,7.674,7.674h15.349  C97.606,283.742,101.042,280.307,105.28,280.307z M227.504,228.522l39.713-81.026c1.289-2.629,3.962-4.297,6.891-4.297  c2.928,0,5.602,1.667,6.891,4.297l39.476,80.542c0.662,1.135,1.041,2.454,1.041,3.861c0,4.239-3.435,7.674-7.675,7.674  c-0.008,0-15.061,0-32.058,0v17.712c0,4.238-3.435,7.674-7.674,7.674s-7.674-3.436-7.674-7.674v-17.712c-16.995,0-32.04,0-32.04,0  c-2.649,0-5.11-1.366-6.511-3.614C226.481,233.712,226.337,230.901,227.504,228.522z"/>
<path d="M504.326,42.925H43.888c-4.238,0-7.674,3.436-7.674,7.674v306.959c0,4.239,3.436,7.674,7.674,7.674h460.438  c4.239,0,7.674-3.436,7.674-7.674V50.599C512,46.361,508.565,42.925,504.326,42.925z M496.652,58.273v54.23H51.562v-54.23H496.652z   M51.562,349.884v-54.23h23.021c4.239,0,7.674-3.436,7.674-7.674c0-4.239-3.435-7.674-7.674-7.674H51.562V127.85h445.09v152.457  H105.28c-4.239,0-7.674,3.436-7.674,7.674c0,4.238,3.435,7.674,7.674,7.674h391.373v54.23L51.562,349.884L51.562,349.884z"/>
<path style="fill:#259245;" d="M266.433,206.513c0-4.238,3.435-7.674,7.674-7.674s7.674,3.436,7.674,7.674v17.712h19.731  l-27.405-55.917l-27.406,55.917h19.732V206.513z"/>
<path d="M234.394,239.574c0,0,15.045,0,32.04,0v17.712c0,4.238,3.435,7.674,7.674,7.674s7.674-3.436,7.674-7.674v-17.712  c16.998,0,32.05,0,32.058,0c4.24,0,7.675-3.436,7.675-7.674c0-1.408-0.379-2.728-1.041-3.861l-39.476-80.542  c-1.289-2.629-3.963-4.297-6.891-4.297c-2.929,0-5.602,1.667-6.891,4.297l-39.713,81.026c-1.166,2.379-1.023,5.19,0.379,7.438  C229.284,238.207,231.746,239.574,234.394,239.574z M274.107,168.309l27.405,55.917h-19.731v-17.712  c0-4.238-3.435-7.674-7.674-7.674s-7.674,3.436-7.674,7.674v17.712h-19.732L274.107,168.309z"/>
<path style="fill:#2E3033;" d="M20.97,482.004c-6.429,0-11.661-5.232-11.661-11.661V41.55c0-6.371,5.183-11.554,11.554-11.554h1.524  c6.431,0,11.661,5.232,11.661,11.661v428.685c0,6.431-5.232,11.661-11.661,11.661H20.97V482.004z"/>
<path d="M22.386,20.687h-1.524C9.359,20.687,0,30.046,0,41.55v428.793c0,11.563,9.407,20.97,20.97,20.97h1.415  c11.564,0,20.97-9.407,20.97-20.97V41.657C43.357,30.094,33.949,20.687,22.386,20.687z M27.841,470.343  c0,3.008-2.447,5.455-5.455,5.455h-1.415c-3.008,0-5.455-2.447-5.455-5.455V41.55c0-2.949,2.399-5.348,5.348-5.348h1.524  c3.008,0,5.455,2.447,5.455,5.455v428.686H27.841z"/>
<g>
</g>
<g>
</g>
<g>
</g>
<g>
</g>
<g>
</g>
<g>
</g>
<g>
</g>
<g>
</g>
<g>
</g>
<g>
</g>
<g>
</g>
<g>
</g>
<g>
</g>
<g>
</g>
<g>
</g>
</svg>
