<?xml version="1.0" encoding="iso-8859-1"?>
<!-- Generator: Adobe Illustrator 19.0.0, SVG Export Plug-In . SVG Version: 6.00 Build 0)  -->
<svg xmlns="http://www.w3.org/2000/svg" xmlns:xlink="http://www.w3.org/1999/xlink" version="1.1" id="Layer_1" x="0px" y="0px" viewBox="0 0 511.999 511.999" style="enable-background:new 0 0 511.999 511.999;" xml:space="preserve">
<path style="fill:#FFFFFF;" d="M442.933,234.779h53.72v-61.393H48.448v61.393h363.788c4.239,0,7.674,3.436,7.674,7.674h15.349  C435.259,238.215,438.694,234.779,442.933,234.779z"/>
<g>
	<rect x="48.448" y="58.274" style="fill:#B21727;" width="448.202" height="99.762"/>
	<path style="fill:#B21727;" d="M442.933,250.127c-4.238,0-7.674-3.435-7.674-7.674H419.91c0,4.239-3.436,7.674-7.674,7.674H48.448   v99.765h448.204v-99.764L442.933,250.127L442.933,250.127z"/>
</g>
<path d="M504.326,42.925H40.773c-4.238,0-7.674,3.436-7.674,7.674v306.966c0,4.239,3.436,7.674,7.674,7.674h463.552  c4.239,0,7.674-3.436,7.674-7.674V50.599C512,46.361,508.564,42.925,504.326,42.925z M496.651,58.273v99.763H48.448V58.273H496.651z   M48.448,349.891v-99.764h363.788c4.239,0,7.674-3.435,7.674-7.674c0-4.239-3.436-7.674-7.674-7.674H48.448v-61.393h448.204v61.393  h-53.72c-4.238,0-7.674,3.436-7.674,7.674s3.436,7.674,7.674,7.674h53.72v99.764H48.448z"/>
<path style="fill:#2E3033;" d="M20.97,482.004c-6.429,0-11.661-5.232-11.661-11.661V41.549c0-6.371,5.183-11.554,11.554-11.554  h1.524c6.431,0,11.661,5.232,11.661,11.661v428.685c0,6.431-5.232,11.661-11.661,11.661H20.97V482.004z"/>
<path d="M22.386,20.686h-1.524C9.359,20.686,0,30.045,0,41.549v428.793c0,11.563,9.407,20.97,20.97,20.97h1.415  c11.564,0,20.97-9.407,20.97-20.97V41.657C43.357,30.094,33.949,20.686,22.386,20.686z M27.841,470.342  c0,3.008-2.447,5.455-5.455,5.455h-1.415c-3.008,0-5.455-2.447-5.455-5.455V41.549c0-2.949,2.399-5.348,5.348-5.348h1.524  c3.008,0,5.455,2.447,5.455,5.455v428.686H27.841z"/>
<g>
</g>
<g>
</g>
<g>
</g>
<g>
</g>
<g>
</g>
<g>
</g>
<g>
</g>
<g>
</g>
<g>
</g>
<g>
</g>
<g>
</g>
<g>
</g>
<g>
</g>
<g>
</g>
<g>
</g>
</svg>
