<?xml version="1.0" encoding="iso-8859-1"?>
<!-- Generator: Adobe Illustrator 19.0.0, SVG Export Plug-In . SVG Version: 6.00 Build 0)  -->
<svg xmlns="http://www.w3.org/2000/svg" xmlns:xlink="http://www.w3.org/1999/xlink" version="1.1" id="Layer_1" x="0px" y="0px" viewBox="0 0 512 512" style="enable-background:new 0 0 512 512;" xml:space="preserve">
<g>
	<path style="fill:#ED1F34;" d="M442.634,57.973c-3.662,0-6.639-2.979-6.639-6.639v-1.034h-17.416v1.034   c0,3.661-2.979,6.639-6.639,6.639H50.228V296.9c0,3.662-2.979,6.639-6.639,6.639h-1.034v17.417h1.034   c3.662,0,6.639,2.978,6.639,6.639v24.056h447.159V57.973H442.634z M365.984,195.302l-9.188,1.621l0.078,0.94   c0.21,2.535,0.312,4.809,0.312,6.951c0,2.142-0.102,4.416-0.312,6.951l-0.078,0.94l9.188,1.621   c1.747,0.308,3.269,1.277,4.286,2.731c1.017,1.453,1.408,3.215,1.1,4.962c-0.561,3.18-3.307,5.488-6.53,5.488   c-0.386,0-0.777-0.034-1.162-0.102l-9.178-1.618l-0.248,0.91c-1.214,4.457-2.819,8.85-4.768,13.058l-0.398,0.857l8.085,4.668   c3.17,1.831,4.26,5.899,2.43,9.07c-1.182,2.048-3.388,3.321-5.757,3.321c-1.157,0-2.303-0.308-3.313-0.892l-8.106-4.679   l-0.545,0.77c-2.709,3.827-5.712,7.409-8.924,10.646l-0.665,0.669l6.014,7.167c2.353,2.804,1.986,7.001-0.819,9.355   c-1.194,1.001-2.708,1.553-4.265,1.553c-1.969,0-3.825-0.865-5.09-2.372l-6.015-7.169l-0.776,0.541   c-3.821,2.662-7.865,5.008-12.02,6.973l-0.852,0.402l3.19,8.764c1.252,3.44-0.529,7.259-3.968,8.511   c-0.734,0.267-1.499,0.402-2.271,0.402c-2.78,0-5.288-1.756-6.24-4.37l-3.185-8.75l-0.913,0.241   c-4.435,1.172-9.043,1.98-13.695,2.401l-0.941,0.086v9.325c0,3.662-2.979,6.639-6.639,6.639c-3.661,0-6.639-2.978-6.639-6.639   v-9.325l-0.941-0.086c-4.652-0.421-9.26-1.229-13.696-2.401l-0.913-0.241l-3.185,8.749c-0.952,2.614-3.46,4.371-6.24,4.371   c-0.773,0-1.536-0.136-2.27-0.402c-3.44-1.253-5.22-5.07-3.969-8.512l3.19-8.764l-0.852-0.402   c-4.156-1.965-8.199-4.311-12.02-6.973l-0.776-0.541l-6.015,7.169c-1.265,1.507-3.12,2.372-5.09,2.372   c-1.556,0-3.07-0.551-4.265-1.553c-2.804-2.353-3.171-6.551-0.818-9.355l6.013-7.167l-0.665-0.67   c-3.213-3.236-6.215-6.818-8.924-10.645l-0.545-0.77l-8.106,4.68c-1.01,0.582-2.155,0.891-3.313,0.891   c-2.369,0-4.574-1.272-5.757-3.321c-1.831-3.17-0.741-7.239,2.431-9.07l8.085-4.668l-0.398-0.857   c-1.951-4.208-3.555-8.601-4.767-13.058l-0.248-0.91l-9.178,1.618c-0.385,0.067-0.776,0.102-1.163,0.102   c-3.223,0-5.969-2.308-6.53-5.488c-0.308-1.746,0.083-3.508,1.1-4.961c1.017-1.452,2.539-2.422,4.286-2.731l9.189-1.621   l-0.079-0.94c-0.211-2.532-0.312-4.806-0.312-6.951s0.102-4.418,0.312-6.95l0.079-0.94l-9.189-1.621   c-1.746-0.308-3.269-1.277-4.286-2.731c-1.018-1.453-1.408-3.215-1.1-4.961c0.561-3.181,3.307-5.489,6.53-5.489   c0.387,0,0.777,0.035,1.162,0.102l9.179,1.618l0.248-0.91c1.213-4.457,2.818-8.85,4.767-13.058l0.397-0.857l-8.084-4.669   c-1.536-0.886-2.634-2.318-3.094-4.031s-0.223-3.502,0.664-5.038c1.183-2.049,3.389-3.321,5.757-3.321   c1.158,0,2.303,0.308,3.313,0.892l8.106,4.679l0.545-0.77c2.711-3.829,5.714-7.411,8.924-10.645l0.666-0.67l-6.014-7.167   c-1.14-1.358-1.683-3.08-1.529-4.847c0.154-1.767,0.988-3.368,2.347-4.508c1.194-1.001,2.708-1.553,4.264-1.553   c1.97,0,3.826,0.864,5.091,2.372l6.015,7.169l0.776-0.54c3.823-2.663,7.866-5.009,12.02-6.973l0.852-0.403l-3.19-8.764   c-1.252-3.44,0.529-7.259,3.969-8.512c0.733-0.267,1.498-0.402,2.27-0.402c2.78,0,5.288,1.756,6.24,4.371l3.185,8.748l0.913-0.241   c4.436-1.172,9.044-1.98,13.696-2.401l0.941-0.086v-9.325c0-3.662,2.978-6.639,6.639-6.639c3.662,0,6.639,2.978,6.639,6.639v9.325   l0.941,0.086c4.651,0.422,9.258,1.229,13.695,2.401l0.913,0.241l3.185-8.748c0.951-2.614,3.459-4.371,6.239-4.371   c0.773,0,1.537,0.135,2.271,0.402c3.44,1.253,5.22,5.07,3.969,8.512l-3.19,8.764l0.852,0.403c4.152,1.962,8.196,4.309,12.02,6.973   l0.776,0.54l6.015-7.169c1.265-1.508,3.12-2.372,5.089-2.372c1.556,0,3.071,0.551,4.266,1.553c2.804,2.353,3.171,6.549,0.819,9.355   l-6.014,7.167l0.665,0.67c3.211,3.235,6.213,6.817,8.924,10.645l0.545,0.77l8.106-4.679c1.01-0.582,2.156-0.891,3.313-0.891   c2.369,0,4.574,1.272,5.756,3.321c0.886,1.536,1.122,3.325,0.664,5.038c-0.459,1.713-1.558,3.145-3.094,4.031l-8.085,4.669   l0.397,0.857c1.95,4.207,3.554,8.6,4.768,13.058l0.248,0.91l9.177-1.618c0.385-0.067,0.775-0.101,1.161-0.101   c3.225,0,5.971,2.308,6.532,5.488c0.308,1.746-0.083,3.508-1.1,4.961C369.252,194.024,367.731,194.993,365.984,195.302z"/>
	<path style="fill:#ED1F34;" d="M297.505,139.936c-0.026-0.009-0.052-0.016-0.077-0.024c-0.008-0.003-0.016-0.007-0.023-0.009   c-7.367-2.686-15.314-4.156-23.599-4.156s-16.232,1.469-23.599,4.156c-0.007,0.002-0.014,0.006-0.022,0.009   c-0.026,0.009-0.052,0.016-0.078,0.024c-26.445,9.691-45.367,35.115-45.367,64.876c0,29.767,18.931,55.197,45.385,64.882   c0.02,0.007,0.04,0.011,0.06,0.019c0.007,0.002,0.014,0.006,0.022,0.009c7.367,2.687,15.314,4.156,23.599,4.156   s16.232-1.469,23.599-4.156c0.007-0.002,0.014-0.006,0.023-0.009c0.02-0.007,0.04-0.011,0.06-0.019   c26.454-9.686,45.384-35.114,45.384-64.882C342.872,175.051,323.95,149.627,297.505,139.936z M273.806,151.095   c14.091,0,26.925,5.461,36.516,14.368c-0.577-0.011-1.148-0.043-1.727-0.043c-12.401,0-24.173,2.71-34.789,7.533   c-10.617-4.823-22.388-7.533-34.788-7.533c-0.58,0-1.151,0.032-1.727,0.043C246.882,156.556,259.715,151.095,273.806,151.095z    M220.089,204.812c0-8.085,1.807-15.753,5.02-22.638c4.494-0.923,9.146-1.407,13.91-1.407c6.198,0,12.203,0.834,17.922,2.372   c-14.947,11.603-25.914,28.102-30.453,47.072C222.409,222.645,220.089,213.995,220.089,204.812z M273.806,258.53   c-12.971,0-24.881-4.621-34.175-12.304c1.236-23.889,14.668-44.596,34.175-56.021c19.507,11.425,32.938,32.132,34.175,56.021   C298.688,253.91,286.777,258.53,273.806,258.53z M321.126,230.212c-4.539-18.97-15.506-35.469-30.453-47.072   c5.719-1.539,11.724-2.372,17.923-2.372c4.763,0,9.416,0.485,13.909,1.407c3.214,6.885,5.02,14.552,5.02,22.638   C327.524,213.995,325.205,222.645,321.126,230.212z"/>
</g>
<g>
	<path style="fill:#FFE000;" d="M372.388,187.43c-0.735-4.174-4.715-6.959-8.89-6.226l-8.248,1.454   c-1.245-4.573-2.866-8.989-4.827-13.22l7.266-4.195c3.67-2.118,4.928-6.812,2.808-10.482c-2.118-3.671-6.811-4.929-10.483-2.809   l-7.29,4.209c-2.716-3.836-5.731-7.448-9.034-10.777l5.406-6.443c2.723-3.247,2.3-8.088-0.946-10.812   c-3.248-2.723-8.088-2.301-10.812,0.946l-5.408,6.444c-3.838-2.674-7.904-5.042-12.169-7.059l2.867-7.878   c1.449-3.983-0.604-8.386-4.586-9.837c-3.985-1.449-8.386,0.603-9.837,4.586l-2.862,7.862c-4.487-1.185-9.121-2.001-13.866-2.431   v-8.38c0-4.239-3.435-7.674-7.674-7.674s-7.674,3.436-7.674,7.674v8.38c-4.745,0.43-9.378,1.245-13.866,2.431l-2.861-7.862   c-1.45-3.982-5.853-6.036-9.837-4.586c-3.983,1.45-6.035,5.853-4.586,9.837l2.867,7.878c-4.266,2.017-8.331,4.385-12.169,7.059   l-5.408-6.444c-2.724-3.247-7.565-3.67-10.812-0.946c-3.247,2.724-3.67,7.565-0.946,10.812l5.407,6.443   c-3.304,3.329-6.318,6.939-9.035,10.777l-7.29-4.209c-3.671-2.119-8.364-0.862-10.483,2.809c-2.119,3.67-0.862,8.364,2.809,10.482   l7.266,4.195c-1.961,4.23-3.582,8.647-4.827,13.22l-8.249-1.454c-4.172-0.736-8.154,2.051-8.89,6.226   c-0.735,4.174,2.051,8.154,6.225,8.89l8.259,1.456c-0.193,2.322-0.317,4.665-0.317,7.036c0,2.371,0.123,4.714,0.317,7.036   l-8.259,1.456c-4.174,0.735-6.96,4.717-6.225,8.89c0.657,3.724,3.894,6.343,7.549,6.343c0.442,0,0.891-0.038,1.342-0.118   l8.249-1.454c1.245,4.573,2.866,8.989,4.827,13.22l-7.266,4.195c-3.671,2.119-4.929,6.812-2.809,10.483   c1.421,2.462,4.001,3.838,6.653,3.838c1.302,0,2.621-0.331,3.83-1.029l7.29-4.209c2.716,3.837,5.731,7.448,9.035,10.777   l-5.407,6.443c-2.724,3.247-2.301,8.086,0.946,10.812c1.438,1.206,3.188,1.795,4.929,1.795c2.19,0,4.365-0.932,5.883-2.741   l5.408-6.444c3.838,2.675,7.904,5.042,12.169,7.059l-2.867,7.878c-1.449,3.983,0.603,8.386,4.586,9.837   c0.867,0.315,1.752,0.464,2.624,0.464c3.134,0,6.077-1.935,7.212-5.052l2.861-7.862c4.487,1.185,9.121,2.001,13.866,2.432v8.38   c0,4.239,3.435,7.674,7.674,7.674c4.239,0,7.674-3.435,7.674-7.674v-8.38c4.745-0.43,9.378-1.245,13.866-2.432l2.862,7.862   c1.135,3.116,4.077,5.052,7.211,5.052c0.871,0,1.758-0.15,2.625-0.464c3.982-1.45,6.035-5.853,4.586-9.837l-2.867-7.878   c4.266-2.017,8.331-4.385,12.169-7.059l5.408,6.444c1.518,1.809,3.693,2.741,5.883,2.741c1.741,0,3.491-0.589,4.929-1.795   c3.247-2.724,3.67-7.565,0.946-10.812l-5.406-6.443c3.303-3.329,6.318-6.939,9.034-10.777l7.29,4.209   c1.208,0.698,2.528,1.029,3.83,1.029c2.652,0,5.232-1.377,6.653-3.838c2.119-3.671,0.862-8.364-2.808-10.483l-7.266-4.195   c1.961-4.23,3.582-8.647,4.827-13.22l8.248,1.454c0.451,0.08,0.899,0.118,1.342,0.118c3.653,0,6.893-2.62,7.549-6.343   c0.735-4.174-2.051-8.154-6.226-8.89l-8.259-1.456c0.192-2.322,0.315-4.665,0.315-7.036c0-2.371-0.123-4.714-0.315-7.036   l8.259-1.456C370.337,195.584,373.124,191.604,372.388,187.43z M297.488,269.695c-0.02,0.007-0.04,0.011-0.06,0.019   c-0.008,0.002-0.016,0.006-0.023,0.009c-7.367,2.687-15.314,4.156-23.599,4.156c-8.284,0-16.232-1.469-23.599-4.156   c-0.007-0.002-0.014-0.006-0.022-0.009c-0.02-0.007-0.04-0.011-0.06-0.019c-26.454-9.686-45.385-35.115-45.385-64.882   c0-29.761,18.921-55.186,45.367-64.876c0.026-0.009,0.052-0.016,0.078-0.024c0.007-0.003,0.014-0.007,0.022-0.009   c7.367-2.686,15.314-4.156,23.599-4.156c8.284,0,16.232,1.469,23.599,4.156c0.007,0.002,0.014,0.006,0.023,0.009   c0.025,0.009,0.051,0.016,0.077,0.024c26.445,9.691,45.367,35.115,45.367,64.876C342.872,234.581,323.942,260.009,297.488,269.695z   "/>
	<path style="fill:#FFE000;" d="M273.806,190.206c-19.507,11.425-32.938,32.132-34.175,56.021   c9.293,7.682,21.204,12.304,34.175,12.304c12.971,0,24.881-4.621,34.175-12.304C306.745,222.338,293.313,201.632,273.806,190.206z"/>
	<path style="fill:#FFE000;" d="M308.595,180.768c-6.199,0-12.203,0.834-17.923,2.372c14.947,11.603,25.914,28.102,30.453,47.072   c4.078-7.567,6.398-16.217,6.398-25.399c0-8.085-1.806-15.753-5.02-22.638C318.011,181.252,313.359,180.768,308.595,180.768z"/>
	<path style="fill:#FFE000;" d="M273.806,172.953c10.616-4.823,22.388-7.533,34.789-7.533c0.579,0,1.151,0.032,1.727,0.043   c-9.591-8.907-22.426-14.368-36.516-14.368c-14.091,0-26.925,5.461-36.516,14.368c0.577-0.011,1.148-0.043,1.727-0.043   C251.418,165.419,263.191,168.129,273.806,172.953z"/>
	<path style="fill:#FFE000;" d="M256.94,183.14c-5.719-1.539-11.724-2.372-17.922-2.372c-4.763,0-9.416,0.485-13.91,1.407   c-3.213,6.885-5.02,14.552-5.02,22.638c0,9.182,2.32,17.832,6.398,25.399C231.026,211.242,241.993,194.743,256.94,183.14z"/>
</g>
<path d="M51.562,296.167V58.273h360.677c4.239,0,7.674-3.436,7.674-7.674s-3.436-7.674-7.674-7.674H43.888  c-4.238,0-7.674,3.436-7.674,7.674v245.568c0,4.238,3.436,7.674,7.674,7.674S51.562,300.404,51.562,296.167z"/>
<path d="M504.326,42.925h-61.391c-4.239,0-7.674,3.436-7.674,7.674c0,4.239,3.436,7.674,7.674,7.674h53.718v291.61H51.562v-23.021  c0-4.239-3.436-7.674-7.674-7.674s-7.674,3.436-7.674,7.674v30.696c0,4.238,3.436,7.674,7.674,7.674h460.438  c4.239,0,7.674-3.436,7.674-7.674V50.599C512,46.361,508.564,42.925,504.326,42.925z"/>
<path style="fill:#2E3033;" d="M20.97,482.004c-6.429,0-11.661-5.232-11.661-11.661V41.55c0-6.371,5.183-11.554,11.554-11.554h1.524  c6.431,0,11.661,5.232,11.661,11.661v428.685c0,6.431-5.232,11.661-11.661,11.661H20.97V482.004z"/>
<path d="M22.386,20.687h-1.524C9.359,20.687,0,30.046,0,41.55v428.793c0,11.563,9.407,20.97,20.97,20.97h1.415  c11.564,0,20.97-9.407,20.97-20.97V41.657C43.357,30.094,33.949,20.687,22.386,20.687z M27.841,470.343  c0,3.008-2.447,5.455-5.455,5.455h-1.415c-3.008,0-5.455-2.447-5.455-5.455V41.55c0-2.949,2.399-5.348,5.348-5.348h1.524  c3.008,0,5.455,2.447,5.455,5.455v428.686H27.841z"/>
<g>
</g>
<g>
</g>
<g>
</g>
<g>
</g>
<g>
</g>
<g>
</g>
<g>
</g>
<g>
</g>
<g>
</g>
<g>
</g>
<g>
</g>
<g>
</g>
<g>
</g>
<g>
</g>
<g>
</g>
</svg>
