<?xml version="1.0" encoding="iso-8859-1"?>
<!-- Generator: Adobe Illustrator 19.0.0, SVG Export Plug-In . SVG Version: 6.00 Build 0)  -->
<svg xmlns="http://www.w3.org/2000/svg" xmlns:xlink="http://www.w3.org/1999/xlink" version="1.1" id="Layer_1" x="0px" y="0px" viewBox="0 0 511.998 511.998" style="enable-background:new 0 0 511.998 511.998;" xml:space="preserve">
<path style="fill:#FFFFFF;" d="M450.608,152.917c0,4.238-3.435,7.674-7.674,7.674H205.041v86.972h291.611v-86.972H473.63  c-4.239,0-7.674-3.436-7.674-7.674l0,0H450.608L450.608,152.917z"/>
<path style="fill:#259245;" d="M199.69,145.244h243.243c4.239,0,7.674,3.436,7.674,7.674h15.349c0-4.238,3.435-7.674,7.674-7.674  h23.022V58.272H69.234L199.69,145.244z"/>
<polygon style="fill:#ED1F34;" points="199.69,262.911 69.234,349.883 496.652,349.883 496.652,262.911 "/>
<polygon style="fill:#333333;" points="189.693,251.13 189.693,157.025 51.562,64.937 51.562,343.218 "/>
<path d="M504.326,42.924H43.888c-0.003,0-0.007,0-0.011,0c-0.257,0-0.512,0.012-0.766,0.039c-0.127,0.012-0.25,0.037-0.375,0.057  c-0.12,0.019-0.241,0.031-0.36,0.055c-0.173,0.035-0.34,0.082-0.509,0.127c-0.07,0.02-0.143,0.033-0.213,0.055  c-0.155,0.047-0.305,0.104-0.456,0.161c-0.084,0.031-0.168,0.058-0.25,0.092c-0.125,0.052-0.245,0.113-0.367,0.172  c-0.106,0.051-0.212,0.097-0.314,0.151c-0.092,0.05-0.18,0.108-0.271,0.16c-0.127,0.074-0.254,0.147-0.377,0.229  c-0.063,0.042-0.122,0.09-0.184,0.134c-0.142,0.101-0.282,0.202-0.418,0.313c-0.043,0.036-0.084,0.077-0.127,0.114  c-0.145,0.124-0.289,0.249-0.424,0.386c-0.065,0.065-0.123,0.137-0.186,0.204c-0.106,0.113-0.213,0.223-0.312,0.344  c-0.163,0.198-0.315,0.404-0.458,0.618c-0.001,0.002-0.003,0.005-0.005,0.007c-0.02,0.029-0.034,0.06-0.053,0.089  c-0.118,0.182-0.232,0.367-0.334,0.561c-0.039,0.072-0.07,0.147-0.107,0.22c-0.074,0.151-0.15,0.303-0.215,0.459  c-0.043,0.104-0.078,0.21-0.115,0.314c-0.047,0.129-0.096,0.258-0.137,0.389c-0.04,0.131-0.069,0.265-0.102,0.398  c-0.026,0.109-0.057,0.216-0.079,0.327c-0.032,0.163-0.054,0.328-0.076,0.493c-0.011,0.084-0.027,0.167-0.035,0.252  c-0.021,0.211-0.029,0.422-0.032,0.632c0,0.04-0.006,0.081-0.006,0.121v0.024c0,0.009,0,0.02,0,0.029v306.852  c0,0.009,0,0.02,0,0.029v0.024c0,0.041,0.005,0.081,0.006,0.121c0.003,0.211,0.011,0.422,0.032,0.632  c0.008,0.086,0.024,0.168,0.035,0.252c0.022,0.164,0.043,0.329,0.076,0.493c0.022,0.111,0.053,0.217,0.079,0.327  c0.033,0.132,0.063,0.266,0.102,0.397c0.04,0.132,0.089,0.261,0.137,0.39c0.038,0.105,0.072,0.211,0.115,0.314  c0.065,0.157,0.14,0.308,0.215,0.459c0.036,0.073,0.067,0.148,0.107,0.22c0.102,0.192,0.215,0.378,0.334,0.561  c0.02,0.029,0.034,0.06,0.053,0.089c0.001,0.002,0.003,0.004,0.005,0.006c0.165,0.246,0.347,0.481,0.539,0.706  c0.061,0.071,0.125,0.138,0.188,0.207c0.132,0.145,0.269,0.283,0.412,0.418c0.081,0.076,0.161,0.15,0.244,0.221  c0.151,0.13,0.307,0.251,0.468,0.368c0.069,0.052,0.137,0.108,0.208,0.156c0.231,0.157,0.47,0.301,0.717,0.432  c0.061,0.033,0.125,0.059,0.187,0.09c0.197,0.099,0.398,0.19,0.604,0.271c0.08,0.031,0.16,0.06,0.241,0.088  c0.195,0.069,0.394,0.131,0.597,0.185c0.083,0.022,0.164,0.044,0.247,0.064c0.208,0.048,0.419,0.085,0.633,0.116  c0.078,0.01,0.154,0.026,0.232,0.035c0.264,0.029,0.533,0.046,0.804,0.048c0.022,0,0.043,0.004,0.065,0.004  c0.004,0,0.009-0.001,0.014-0.001h460.417c4.239,0,7.674-3.436,7.674-7.675V50.598C512,46.36,508.565,42.924,504.326,42.924z   M496.652,145.244H473.63c-4.239,0-7.674,3.436-7.674,7.674l0,0c0,4.238,3.435,7.674,7.674,7.674h23.022v86.972H205.041v-86.972  h237.893c4.239,0,7.674-3.436,7.674-7.674l0,0c0-4.238-3.435-7.674-7.674-7.674H199.69L69.234,58.272h427.42v86.972H496.652z   M189.693,157.025v94.106L51.562,343.218V64.937L189.693,157.025z M69.234,349.883l130.457-86.972h296.962v86.972H69.234z"/>
<path style="fill:#2E3033;" d="M20.97,482.003c-6.429,0-11.661-5.232-11.661-11.661V41.549c0-6.371,5.183-11.554,11.554-11.554  h1.524c6.431,0,11.661,5.232,11.661,11.661v428.685c0,6.431-5.232,11.661-11.661,11.661H20.97V482.003z"/>
<path d="M22.386,20.686h-1.524C9.359,20.686,0,30.045,0,41.549v428.793c0,11.563,9.407,20.97,20.97,20.97h1.415  c11.564,0,20.97-9.407,20.97-20.97V41.656C43.357,30.093,33.949,20.686,22.386,20.686z M27.841,470.342  c0,3.008-2.447,5.455-5.455,5.455h-1.415c-3.008,0-5.455-2.447-5.455-5.455V41.549c0-2.949,2.399-5.348,5.348-5.348h1.524  c3.008,0,5.455,2.447,5.455,5.455v428.686H27.841z"/>
<g>
</g>
<g>
</g>
<g>
</g>
<g>
</g>
<g>
</g>
<g>
</g>
<g>
</g>
<g>
</g>
<g>
</g>
<g>
</g>
<g>
</g>
<g>
</g>
<g>
</g>
<g>
</g>
<g>
</g>
</svg>
