<?xml version="1.0" encoding="iso-8859-1"?>
<!-- Generator: Adobe Illustrator 19.0.0, SVG Export Plug-In . SVG Version: 6.00 Build 0)  -->
<svg xmlns="http://www.w3.org/2000/svg" xmlns:xlink="http://www.w3.org/1999/xlink" version="1.1" id="Layer_1" x="0px" y="0px" viewBox="0 0 511.999 511.999" style="enable-background:new 0 0 511.999 511.999;" xml:space="preserve">
<path style="fill:#103B9B;" d="M442.793,57.873H50.619v292.209H496.62V57.873h-23.069c-4.247,0-7.689-3.443-7.689-7.689h-15.38  C450.482,54.43,447.039,57.873,442.793,57.873z M285.019,114.989c0.368-5.853,5.412-10.3,11.265-9.932s10.3,5.412,9.932,11.265  c-0.368,5.853-5.412,10.3-11.265,9.932C289.098,125.886,284.651,120.843,285.019,114.989z M250.955,105.058  c5.853-0.368,10.897,4.078,11.265,9.932c0.368,5.853-4.078,10.897-9.932,11.265c-5.853,0.368-10.897-4.078-11.265-9.932  C240.655,110.469,245.101,105.426,250.955,105.058z M166.29,142.505c-5.576,1.812-11.566-1.24-13.378-6.817  c-1.812-5.576,1.24-11.567,6.817-13.378c5.576-1.813,11.566,1.24,13.378,6.817C174.918,134.704,171.867,140.694,166.29,142.505z   M196.358,123.234c-1.099-5.761,2.68-11.321,8.441-12.42s11.321,2.68,12.42,8.441c1.099,5.761-2.68,11.321-8.441,12.42  C203.017,132.773,197.458,128.994,196.358,123.234z M343.888,231.541c-1.445,17.592-9.394,33.907-22.384,45.938  c-11.503,10.655-26.062,17.095-41.541,18.484c-2.035,8.393-9.613,14.644-18.623,14.644c-2.686,0-5.178-1.402-6.573-3.698  l-50.325-82.872c-1.578-2.6-1.476-5.888,0.261-8.385c1.738-2.497,4.782-3.735,7.773-3.156c1.879,0.364,3.785,0.548,5.668,0.548  c16.338,0,29.631-13.292,29.631-29.631c0-4.616-1.037-9.046-3.084-13.162c-0.969-1.95-1.066-4.218-0.267-6.245  c0.799-2.026,2.419-3.617,4.459-4.381c7.917-2.962,16.235-4.465,24.72-4.465c9.536,0,18.79,1.874,27.507,5.568  c1.49,0.632,2.743,1.718,3.582,3.104l38.115,63.103C343.642,228.318,344.02,229.93,343.888,231.541z M350.881,123.234  c-1.1,5.761-6.659,9.539-12.42,8.441c-5.761-1.099-9.539-6.659-8.441-12.42c1.099-5.761,6.659-9.539,12.42-8.441  C348.2,111.913,351.979,117.474,350.881,123.234z M394.327,135.689c-1.813,5.576-7.801,8.628-13.378,6.817  c-5.577-1.812-8.628-7.801-6.817-13.378c1.813-5.576,7.801-8.628,13.378-6.817C393.087,124.123,396.139,130.113,394.327,135.689z"/>
<path d="M504.311,42.493h-30.758c-4.247,0-7.689,3.443-7.689,7.689s3.443,7.689,7.689,7.689h23.069v292.209H50.619V57.873h392.174  c4.247,0,7.689-3.443,7.689-7.689c0-4.247-3.443-7.689-7.689-7.689H42.928c-4.246-0.001-7.689,3.442-7.689,7.688V357.77  c0,4.247,3.443,7.689,7.689,7.689H504.31c4.247,0,7.689-3.443,7.689-7.689V50.183C512,45.936,508.557,42.493,504.311,42.493z"/>
<g>
	<circle style="fill:#FFFFFF;" cx="251.626" cy="115.656" r="10.619"/>
	<circle style="fill:#FFFFFF;" cx="206.79" cy="121.242" r="10.618"/>
	<circle style="fill:#FFFFFF;" cx="163.011" cy="132.404" r="10.616"/>
	<circle style="fill:#FFFFFF;" cx="295.623" cy="115.656" r="10.619"/>
	<circle style="fill:#FFFFFF;" cx="340.449" cy="121.242" r="10.618"/>
	<circle style="fill:#FFFFFF;" cx="384.228" cy="132.404" r="10.616"/>
</g>
<path style="fill:#F2A643;" d="M292.861,173.993c-6.145-2.292-12.611-3.453-19.259-3.453c-4.046,0-8.043,0.435-11.947,1.301  c0.998,3.745,1.501,7.613,1.501,11.571c0,22.557-16.681,41.293-38.354,44.519l39.767,65.484c0.35-0.573,0.553-1.248,0.553-1.968  v-2.91c0-2.057,0.824-4.028,2.287-5.472c1.465-1.445,3.423-2.243,5.504-2.216c0.173,0.002,0.345,0.008,0.518,0.013l0.18,0.005  c27.673,0,51.248-20.976,54.699-48.186L292.861,173.993z"/>
<path d="M304.691,163.832c-0.837-1.386-2.09-2.472-3.582-3.104c-8.717-3.694-17.971-5.568-27.507-5.568  c-8.485,0-16.803,1.503-24.72,4.465c-2.04,0.763-3.66,2.355-4.459,4.381s-0.702,4.295,0.267,6.245  c2.046,4.117,3.084,8.545,3.084,13.162c0,16.339-13.292,29.631-29.631,29.631c-1.883,0-3.79-0.184-5.668-0.548  c-2.99-0.58-6.034,0.659-7.773,3.156c-1.738,2.497-1.841,5.784-0.261,8.385l50.325,82.873c1.395,2.296,3.887,3.698,6.573,3.698  c9.01,0,16.587-6.252,18.623-14.644c15.478-1.389,30.037-7.829,41.541-18.484c12.99-12.031,20.94-28.347,22.384-45.938  c0.132-1.611-0.247-3.222-1.082-4.605L304.691,163.832z M273.61,280.868l-0.18-0.005c-0.173-0.005-0.345-0.011-0.518-0.013  c-2.079-0.026-4.038,0.771-5.503,2.216c-1.463,1.445-2.287,3.415-2.287,5.472v2.91c0,0.72-0.203,1.395-0.553,1.968L224.8,227.932  c21.674-3.226,38.354-21.962,38.354-44.519c0-3.958-0.503-7.826-1.501-11.571c3.905-0.865,7.901-1.301,11.947-1.301  c6.647,0,13.114,1.161,19.259,3.453l35.448,58.688C324.858,259.891,301.283,280.868,273.61,280.868z"/>
<path style="fill:#2E3033;" d="M21.013,482.461c-6.442,0-11.685-5.242-11.685-11.685V41.115c0-6.383,5.194-11.577,11.577-11.577  h1.527c6.444,0,11.685,5.242,11.685,11.685v429.552c0,6.444-5.242,11.685-11.685,11.685h-1.419V482.461z"/>
<path d="M22.432,20.21h-1.527C9.378,20.21,0,29.588,0,41.115v429.661c0,11.587,9.426,21.013,21.013,21.013h1.418  c11.587,0,21.013-9.426,21.013-21.013V41.223C43.444,29.636,34.018,20.21,22.432,20.21z M27.898,470.776  c0,3.014-2.452,5.466-5.466,5.466h-1.418c-3.014,0-5.466-2.452-5.466-5.466V41.115c0-2.955,2.403-5.358,5.358-5.358h1.527  c3.014,0,5.466,2.452,5.466,5.466v429.554H27.898z"/>
<g>
</g>
<g>
</g>
<g>
</g>
<g>
</g>
<g>
</g>
<g>
</g>
<g>
</g>
<g>
</g>
<g>
</g>
<g>
</g>
<g>
</g>
<g>
</g>
<g>
</g>
<g>
</g>
<g>
</g>
</svg>
