<?xml version="1.0" encoding="iso-8859-1"?>
<!-- Generator: Adobe Illustrator 19.0.0, SVG Export Plug-In . SVG Version: 6.00 Build 0)  -->
<svg xmlns="http://www.w3.org/2000/svg" xmlns:xlink="http://www.w3.org/1999/xlink" version="1.1" id="Layer_1" x="0px" y="0px" viewBox="0 0 511.999 511.999" style="enable-background:new 0 0 511.999 511.999;" xml:space="preserve">
<path style="fill:#ED1F34;" d="M120.616,205.618c17.437,0,25.598-3.917,35.047-8.453c9.73-4.671,20.758-9.965,41.689-9.965  c6.057,0,11.265,0.453,15.872,1.197c5.674-28.42,30.808-49.904,60.871-49.904c30.063,0,55.197,21.483,60.872,49.903  c4.606-0.743,9.812-1.196,15.868-1.196c20.932,0,31.962,5.294,41.693,9.964c9.451,4.537,17.613,8.454,35.053,8.454  s25.602-3.917,35.053-8.454c8.466-4.063,17.922-8.594,34.02-9.704V58.272H51.55v129.186c16.095,1.111,25.551,5.642,34.016,9.705  C95.016,201.701,103.177,205.618,120.616,205.618z M211.367,87.444h45.848c1.854,0,3.645,0.671,5.042,1.89l11.837,10.32  l11.837-10.32c1.398-1.218,3.189-1.89,5.042-1.89h45.848c4.239,0,7.674,3.435,7.674,7.674s-3.435,7.674-7.674,7.674H293.85  l-14.714,12.827c-1.444,1.259-3.244,1.89-5.042,1.89s-3.597-0.629-5.042-1.89l-14.712-12.827h-42.973  c-4.238,0-7.674-3.435-7.674-7.674S207.128,87.444,211.367,87.444z"/>
<path style="fill:#FFE000;" d="M274.095,153.84c-22.958,0-42.087,16.647-45.989,38.501c4.035,1.52,7.569,3.208,10.937,4.823  c9.45,4.536,17.611,8.453,35.049,8.453c17.439,0,25.601-3.917,35.051-8.454c3.369-1.617,6.905-3.304,10.941-4.824  C316.182,170.487,297.052,153.84,274.095,153.84z"/>
<path d="M274.095,138.494c-30.063,0-55.197,21.484-60.871,49.904c5.805,0.936,10.631,2.343,14.882,3.945  c3.9-21.854,23.031-38.501,45.989-38.501c22.957,0,42.087,16.647,45.989,38.499c4.251-1.601,9.078-3.008,14.883-3.944  C329.292,159.977,304.158,138.494,274.095,138.494z"/>
<g>
	<path style="fill:#103B9B;" d="M105.267,349.893h391.384V284.7c-12.387,0.982-19.438,4.346-27.378,8.157   c-9.731,4.67-20.76,9.964-41.693,9.964s-31.962-5.294-41.693-9.965c-9.451-4.536-17.613-8.454-35.053-8.454   c-17.439,0-25.6,3.918-35.05,8.454c-9.731,4.671-20.76,9.965-41.692,9.965c-20.931,0-31.959-5.294-41.691-9.965   c-9.45-4.536-17.611-8.454-35.049-8.454s-25.599,3.918-35.048,8.454c-9.73,4.671-20.758,9.965-41.689,9.965   s-31.96-5.294-41.691-9.965c-7.939-3.811-14.99-7.175-27.375-8.157v65.193H74.57c4.239,0,7.674,3.435,7.674,7.674h15.348   C97.594,353.329,101.03,349.893,105.267,349.893z"/>
	<path style="fill:#103B9B;" d="M120.616,246.546c17.437,0,25.598-3.918,35.047-8.453c9.73-4.671,20.758-9.965,41.689-9.965   s31.96,5.294,41.691,9.965c9.45,4.536,17.611,8.453,35.049,8.453c17.439,0,25.601-3.918,35.051-8.454   c9.731-4.671,20.76-9.964,41.692-9.964s31.962,5.294,41.693,9.964c9.451,4.536,17.613,8.454,35.053,8.454   s25.602-3.918,35.053-8.454c8.466-4.063,17.922-8.594,34.02-9.705v-25.542c-12.387,0.982-19.438,4.346-27.378,8.157   c-9.731,4.671-20.76,9.964-41.693,9.964s-31.962-5.294-41.693-9.965c-9.451-4.536-17.613-8.453-35.053-8.453   c-17.439,0-25.6,3.918-35.05,8.453c-9.731,4.671-20.76,9.965-41.692,9.965c-20.931,0-31.959-5.294-41.691-9.965   c-9.45-4.536-17.611-8.453-35.049-8.453s-25.599,3.918-35.048,8.453c-9.73,4.671-20.758,9.965-41.689,9.965   s-31.96-5.294-41.691-9.965c-7.939-3.809-14.99-7.174-27.375-8.156v25.542c16.095,1.111,25.551,5.642,34.016,9.705   C95.016,242.629,103.177,246.546,120.616,246.546z"/>
	<path style="fill:#103B9B;" d="M120.616,287.474c17.437,0,25.598-3.918,35.047-8.453c9.73-4.671,20.758-9.965,41.689-9.965   s31.96,5.294,41.691,9.965c9.45,4.536,17.611,8.453,35.049,8.453c17.439,0,25.601-3.918,35.051-8.454   c9.731-4.67,20.76-9.964,41.692-9.964s31.962,5.294,41.693,9.964c9.451,4.536,17.613,8.454,35.053,8.454s25.602-3.918,35.053-8.454   c8.466-4.063,17.922-8.594,34.02-9.704v-25.543c-12.387,0.982-19.438,4.346-27.378,8.157c-9.731,4.67-20.76,9.964-41.693,9.964   s-31.962-5.294-41.693-9.965c-9.451-4.536-17.613-8.453-35.053-8.453c-17.439,0-25.6,3.917-35.05,8.453   c-9.731,4.671-20.76,9.965-41.692,9.965c-20.931,0-31.959-5.294-41.691-9.965c-9.45-4.536-17.611-8.453-35.049-8.453   s-25.599,3.917-35.048,8.453c-9.73,4.671-20.758,9.965-41.689,9.965s-31.96-5.294-41.691-9.965   c-7.939-3.811-14.99-7.175-27.375-8.156v25.543c16.095,1.11,25.551,5.641,34.016,9.705   C95.016,283.556,103.177,287.474,120.616,287.474z"/>
</g>
<g>
	<path style="fill:#FFFFFF;" d="M120.616,302.822c20.93,0,31.958-5.294,41.689-9.965c9.449-4.536,17.61-8.454,35.048-8.454   s25.6,3.918,35.049,8.454c9.731,4.671,20.76,9.965,41.691,9.965c20.932,0,31.961-5.294,41.692-9.965   c9.45-4.536,17.611-8.454,35.05-8.454c17.44,0,25.601,3.918,35.053,8.454c9.731,4.671,20.76,9.965,41.693,9.965   s31.962-5.294,41.693-9.964c7.94-3.812,14.992-7.175,27.378-8.157v-15.385c-16.098,1.11-25.553,5.641-34.02,9.704   c-9.451,4.536-17.612,8.454-35.053,8.454s-25.602-3.918-35.053-8.454c-9.731-4.67-20.76-9.964-41.693-9.964   c-20.932,0-31.961,5.294-41.692,9.964c-9.45,4.536-17.611,8.454-35.051,8.454c-17.438,0-25.6-3.918-35.049-8.453   c-9.731-4.671-20.759-9.965-41.691-9.965c-20.931,0-31.959,5.294-41.689,9.965c-9.449,4.536-17.61,8.453-35.047,8.453   c-17.439,0-25.6-3.918-35.049-8.453c-8.466-4.064-17.921-8.595-34.016-9.705v15.385c12.385,0.982,19.436,4.346,27.375,8.157   C88.656,297.527,99.685,302.822,120.616,302.822z"/>
	<path style="fill:#FFFFFF;" d="M120.616,261.893c20.93,0,31.958-5.294,41.689-9.965c9.449-4.536,17.61-8.453,35.048-8.453   s25.6,3.917,35.049,8.453c9.731,4.671,20.76,9.965,41.691,9.965c20.932,0,31.961-5.294,41.692-9.965   c9.45-4.536,17.611-8.453,35.05-8.453c17.44,0,25.601,3.917,35.053,8.453c9.731,4.671,20.76,9.965,41.693,9.965   s31.962-5.294,41.693-9.964c7.94-3.812,14.992-7.176,27.378-8.157v-15.386c-16.098,1.111-25.553,5.642-34.02,9.705   c-9.451,4.536-17.612,8.454-35.053,8.454s-25.602-3.918-35.053-8.454c-9.731-4.671-20.76-9.964-41.693-9.964   c-20.932,0-31.961,5.294-41.692,9.964c-9.45,4.536-17.611,8.454-35.051,8.454c-17.438,0-25.6-3.918-35.049-8.453   c-9.731-4.671-20.759-9.965-41.691-9.965c-20.931,0-31.959,5.294-41.689,9.965c-9.449,4.536-17.61,8.453-35.047,8.453   c-17.439,0-25.6-3.918-35.049-8.453c-8.466-4.064-17.921-8.595-34.016-9.705v15.386c12.385,0.982,19.436,4.346,27.375,8.156   C88.656,256.599,99.685,261.893,120.616,261.893z"/>
	<path style="fill:#FFFFFF;" d="M120.616,220.965c20.93,0,31.958-5.294,41.689-9.965c9.449-4.536,17.61-8.453,35.048-8.453   s25.6,3.918,35.049,8.453c9.731,4.671,20.76,9.965,41.691,9.965c20.932,0,31.961-5.294,41.692-9.965   c9.45-4.536,17.611-8.453,35.05-8.453c17.44,0,25.601,3.918,35.053,8.453c9.731,4.671,20.76,9.965,41.693,9.965   s31.962-5.294,41.693-9.964c7.94-3.811,14.992-7.175,27.378-8.157v-15.386c-16.098,1.111-25.553,5.642-34.02,9.704   c-9.451,4.537-17.612,8.454-35.053,8.454s-25.602-3.917-35.053-8.454c-9.731-4.67-20.76-9.964-41.693-9.964   c-6.055,0-11.262,0.453-15.868,1.196c-5.805,0.936-10.632,2.343-14.883,3.944c-4.036,1.52-7.572,3.209-10.941,4.824   c-9.45,4.537-17.611,8.454-35.051,8.454c-17.438,0-25.6-3.917-35.049-8.453c-3.367-1.617-6.902-3.303-10.937-4.823   c-4.251-1.602-9.077-3.009-14.882-3.945c-4.607-0.744-9.815-1.197-15.872-1.197c-20.931,0-31.959,5.294-41.689,9.965   c-9.449,4.536-17.61,8.453-35.047,8.453c-17.439,0-25.6-3.917-35.049-8.453c-8.466-4.064-17.921-8.595-34.016-9.705v15.386   c12.385,0.982,19.436,4.346,27.375,8.156C88.656,215.673,99.685,220.965,120.616,220.965z"/>
</g>
<path d="M504.326,42.925H43.876c-4.238,0-7.674,3.436-7.674,7.674v306.968c0,4.239,3.436,7.674,7.674,7.674h30.695  c4.239,0,7.674-3.436,7.674-7.674l0,0c0-4.239-3.436-7.674-7.674-7.674H51.55V284.7v-15.385v-25.543v-15.386v-25.542v-15.386V58.272  h445.102v129.186v15.386v25.542v15.386v25.543V284.7v65.193H105.267c-4.238,0-7.674,3.435-7.674,7.674l0,0  c0,4.239,3.436,7.674,7.674,7.674h399.058c4.239,0,7.674-3.436,7.674-7.674V50.599C512,46.361,508.564,42.925,504.326,42.925z"/>
<path d="M211.367,102.792h42.973l14.713,12.827c1.445,1.26,3.244,1.89,5.042,1.89s3.598-0.63,5.042-1.89l14.714-12.827h42.973  c4.239,0,7.674-3.435,7.674-7.674s-3.435-7.674-7.674-7.674h-45.848c-1.854,0-3.645,0.67-5.042,1.89l-11.837,10.32l-11.837-10.32  c-1.397-1.218-3.189-1.89-5.042-1.89h-45.848c-4.238,0-7.674,3.435-7.674,7.674S207.128,102.792,211.367,102.792z"/>
<path style="fill:#2E3033;" d="M20.97,482.004c-6.429,0-11.661-5.232-11.661-11.661V41.549c0-6.371,5.183-11.554,11.554-11.554  h1.524c6.431,0,11.661,5.232,11.661,11.661v428.685c0,6.431-5.232,11.661-11.661,11.661H20.97V482.004z"/>
<path d="M22.386,20.686h-1.524C9.359,20.686,0,30.045,0,41.549v428.793c0,11.563,9.407,20.97,20.97,20.97h1.415  c11.564,0,20.97-9.407,20.97-20.97V41.657C43.357,30.094,33.949,20.686,22.386,20.686z M27.841,470.342  c0,3.008-2.447,5.455-5.455,5.455h-1.415c-3.008,0-5.455-2.447-5.455-5.455V41.549c0-2.949,2.399-5.348,5.348-5.348h1.524  c3.008,0,5.455,2.447,5.455,5.455v428.686H27.841z"/>
<g>
</g>
<g>
</g>
<g>
</g>
<g>
</g>
<g>
</g>
<g>
</g>
<g>
</g>
<g>
</g>
<g>
</g>
<g>
</g>
<g>
</g>
<g>
</g>
<g>
</g>
<g>
</g>
<g>
</g>
</svg>
