<?xml version="1.0" encoding="iso-8859-1"?>
<!-- Generator: Adobe Illustrator 19.0.0, SVG Export Plug-In . SVG Version: 6.00 Build 0)  -->
<svg xmlns="http://www.w3.org/2000/svg" xmlns:xlink="http://www.w3.org/1999/xlink" version="1.1" id="Layer_1" x="0px" y="0px" viewBox="0 0 512 512" style="enable-background:new 0 0 512 512;" xml:space="preserve">
<path style="fill:#259245;" d="M354.637,273.756l20.054,20.054c2.996,2.996,2.996,7.856,0,10.853  c-1.499,1.497-3.464,2.247-5.426,2.247c-1.963,0-3.928-0.75-5.427-2.247l-30.907-30.907h-19.627  c-0.197,0.322-0.392,0.64-0.582,0.944c-11.987,19.238-26.784,31.186-38.615,31.186c-11.832,0-26.628-11.95-38.616-31.186  c-0.19-0.304-0.385-0.624-0.581-0.944h-19.627l-30.907,30.907c-1.499,1.497-3.464,2.247-5.427,2.247  c-1.962,0-3.927-0.75-5.426-2.247c-2.996-2.998-2.996-7.857,0-10.853l20.054-20.054H51.562v76.129h445.091v-76.129L354.637,273.756  L354.637,273.756z"/>
<path style="fill:#333333;" d="M193.576,134.402l-20.054-20.055c-2.996-2.996-2.996-7.855,0-10.852  c2.997-2.995,7.856-2.995,10.853,0l30.907,30.907h19.627c0.195-0.322,0.391-0.64,0.581-0.945  c11.988-19.237,26.784-31.185,38.616-31.185c11.831,0,26.628,11.95,38.615,31.185c0.19,0.305,0.385,0.625,0.581,0.945h19.628  l30.907-30.907c2.998-2.995,7.856-2.995,10.853,0c2.997,2.998,2.997,7.856,0,10.852l-20.054,20.055h142.015V58.273H51.562v76.13  h142.014V134.402z"/>
<g>
	<path style="fill:#ED1F34;" d="M473.63,240.508h23.022v-72.859H327.795c3.024,10.578,5.146,22.838,5.146,36.431   c0,13.591-2.121,25.852-5.145,36.43h115.138c4.239,0,7.674,3.435,7.674,7.674h15.349   C465.956,243.944,469.392,240.508,473.63,240.508z"/>
	<path style="fill:#ED1F34;" d="M51.562,167.648v72.859h168.857c-3.023-10.577-5.145-22.838-5.145-36.43   c0-13.592,2.121-25.852,5.145-36.431H51.562V167.648z"/>
</g>
<g>
	<path style="fill:#FFFFFF;" d="M320.144,147.189l12.787-12.787h-19.628C315.367,137.783,317.755,142.078,320.144,147.189z"/>
	<path style="fill:#FFFFFF;" d="M228.071,147.189c2.388-5.11,4.776-9.406,6.839-12.787h-19.627L228.071,147.189z"/>
	<polygon style="fill:#FFFFFF;" points="51.562,152.301 211.477,152.301 193.576,134.402 51.562,134.402  "/>
	<polygon style="fill:#FFFFFF;" points="336.738,152.301 496.652,152.301 496.652,134.402 354.637,134.402  "/>
	<polygon style="fill:#FFFFFF;" points="211.477,255.856 51.562,255.856 51.562,273.756 193.576,273.756  "/>
	<path style="fill:#FFFFFF;" d="M496.652,255.856H473.63c-4.239,0-7.674-3.436-7.674-7.675l0,0h-15.349l0,0   c0,4.239-3.435,7.675-7.674,7.675H336.738l17.9,17.899h142.015v-17.899H496.652z"/>
	<path style="fill:#FFFFFF;" d="M320.144,260.969c-2.388,5.11-4.776,9.405-6.839,12.787h19.627L320.144,260.969z"/>
	<path style="fill:#FFFFFF;" d="M228.071,260.969l-12.787,12.787h19.627C232.846,270.373,230.459,266.079,228.071,260.969z"/>
</g>
<path d="M504.326,42.925H43.888c-4.239,0-7.674,3.435-7.674,7.675v306.958c0,4.239,3.435,7.675,7.674,7.675h460.438  c4.239,0,7.674-3.436,7.674-7.675V50.6C512,46.36,508.565,42.925,504.326,42.925z M496.652,58.273v76.13v17.899H336.738l17.9-17.899  l20.054-20.055c2.997-2.996,2.997-7.855,0-10.852c-2.998-2.995-7.856-2.995-10.853,0l-30.907,30.907l-12.787,12.787  c-2.388-5.11-4.776-9.406-6.84-12.787c-0.195-0.322-0.391-0.64-0.581-0.945c-11.987-19.237-26.784-31.185-38.615-31.185  c-11.832,0-26.628,11.95-38.616,31.185c-0.19,0.305-0.385,0.625-0.581,0.945c-2.064,3.381-4.452,7.677-6.839,12.787l-12.787-12.787  l-30.907-30.907c-2.998-2.995-7.857-2.995-10.853,0c-2.997,2.998-2.997,7.856,0,10.852l20.054,20.055l17.9,17.899H51.562v-17.899  v-76.13H496.652z M317.593,204.079c0,19.349-4.831,36.535-11.379,50.396c-7.442,15.755-17.099,27.2-24.433,32.59  c-3.08,2.264-5.754,3.473-7.674,3.473s-4.594-1.209-7.674-3.473c-7.335-5.39-16.991-16.834-24.433-32.59  c-6.547-13.86-11.379-31.047-11.379-50.396s4.831-36.535,11.379-50.396c7.442-15.755,17.099-27.2,24.433-32.591  c3.08-2.263,5.754-3.473,7.674-3.473s4.594,1.21,7.674,3.473c7.335,5.391,16.991,16.835,24.433,32.591  C312.762,167.543,317.593,184.73,317.593,204.079z M220.419,240.508H51.562v-72.859h168.857  c-3.023,10.578-5.145,22.838-5.145,36.431C215.274,217.669,217.395,229.931,220.419,240.508z M51.562,349.884v-76.129v-17.899  h159.915l-17.9,17.899l-20.054,20.054c-2.996,2.996-2.996,7.856,0,10.853c1.499,1.497,3.464,2.247,5.426,2.247  c1.963,0,3.928-0.75,5.427-2.247l30.907-30.907l12.787-12.787c2.388,5.11,4.776,9.405,6.839,12.787  c0.195,0.322,0.391,0.64,0.581,0.944c11.988,19.238,26.784,31.186,38.616,31.186c11.831,0,26.628-11.95,38.615-31.186  c0.19-0.304,0.385-0.624,0.582-0.944c2.064-3.382,4.452-7.677,6.839-12.787l12.787,12.787l30.907,30.907  c1.499,1.497,3.464,2.247,5.427,2.247c1.962,0,3.927-0.75,5.426-2.247c2.996-2.998,2.996-7.857,0-10.853l-20.054-20.054  l-17.9-17.899h106.197c4.239,0,7.674-3.436,7.674-7.675l0,0c0-4.239-3.435-7.674-7.674-7.674H327.796  c3.023-10.577,5.145-22.838,5.145-36.43c0-13.592-2.121-25.852-5.146-36.431h168.858v72.859H473.63  c-4.239,0-7.674,3.435-7.674,7.674l0,0c0,4.239,3.435,7.675,7.674,7.675h23.022v17.899v76.129L51.562,349.884L51.562,349.884z"/>
<g>
	<path style="fill:#ED1F34;" d="M266.433,121.092c-7.335,5.391-16.991,16.835-24.433,32.591   c6.317,14.572,10.621,31.853,10.621,50.396s-4.303,35.824-10.621,50.396c7.442,15.755,17.099,27.2,24.433,32.59V121.092z"/>
	<path style="fill:#ED1F34;" d="M295.594,204.079c0-18.544,4.303-35.824,10.621-50.396c-7.442-15.755-17.099-27.2-24.433-32.591   v165.973c7.335-5.39,16.991-16.834,24.433-32.59C299.897,239.904,295.594,222.622,295.594,204.079z"/>
</g>
<g>
	<path style="fill:#333333;" d="M306.214,153.683c-6.317,14.572-10.621,31.853-10.621,50.396s4.303,35.824,10.621,50.396   c6.547-13.86,11.379-31.047,11.379-50.396S312.762,167.543,306.214,153.683z"/>
	<path style="fill:#333333;" d="M252.62,204.079c0-18.544-4.303-35.824-10.621-50.396c-6.547,13.86-11.379,31.047-11.379,50.396   s4.831,36.535,11.379,50.396C248.317,239.904,252.62,222.622,252.62,204.079z"/>
</g>
<path style="fill:#FFFFFF;" d="M281.781,121.092c-3.08-2.263-5.754-3.473-7.674-3.473s-4.594,1.21-7.674,3.473v165.973  c3.08,2.264,5.754,3.473,7.674,3.473s4.594-1.209,7.674-3.473V121.092z"/>
<path style="fill:#2E3033;" d="M20.97,482.004c-6.429,0-11.661-5.232-11.661-11.661V41.55c0-6.371,5.183-11.554,11.554-11.554h1.524  c6.431,0,11.661,5.232,11.661,11.661v428.685c0,6.431-5.232,11.661-11.661,11.661H20.97V482.004z"/>
<path d="M22.386,20.687h-1.524C9.359,20.687,0,30.046,0,41.55v428.793c0,11.563,9.407,20.97,20.97,20.97h1.415  c11.564,0,20.97-9.407,20.97-20.97V41.657C43.357,30.094,33.949,20.687,22.386,20.687z M27.841,470.343  c0,3.008-2.447,5.455-5.455,5.455h-1.415c-3.008,0-5.455-2.447-5.455-5.455V41.55c0-2.949,2.399-5.348,5.348-5.348h1.524  c3.008,0,5.455,2.447,5.455,5.455v428.686H27.841z"/>
<g>
</g>
<g>
</g>
<g>
</g>
<g>
</g>
<g>
</g>
<g>
</g>
<g>
</g>
<g>
</g>
<g>
</g>
<g>
</g>
<g>
</g>
<g>
</g>
<g>
</g>
<g>
</g>
<g>
</g>
</svg>
