<?xml version="1.0" encoding="iso-8859-1"?>
<!-- Generator: Adobe Illustrator 19.0.0, SVG Export Plug-In . SVG Version: 6.00 Build 0)  -->
<svg xmlns="http://www.w3.org/2000/svg" xmlns:xlink="http://www.w3.org/1999/xlink" version="1.1" id="Layer_1" x="0px" y="0px" viewBox="0 0 512.001 512.001" style="enable-background:new 0 0 512.001 512.001;" xml:space="preserve">
<g>
	<polygon style="fill:#3DB4EA;" points="104.419,125.718 94.986,136.545 104.419,147.373 113.852,136.545  "/>
	<polygon style="fill:#3DB4EA;" points="104.419,170.736 94.986,181.564 104.419,192.392 113.852,181.564  "/>
	<polygon style="fill:#3DB4EA;" points="104.419,260.777 94.986,271.607 104.419,282.435 113.852,271.607  "/>
	<polygon style="fill:#3DB4EA;" points="104.419,215.755 94.986,226.583 104.419,237.411 113.852,226.583  "/>
	<path style="fill:#3DB4EA;" d="M442.935,349.885h53.719V58.273H51.562v291.61h360.677c4.239,0,7.674,3.436,7.674,7.674h15.349   C435.261,353.32,438.696,349.885,442.935,349.885z M314.694,129.839c23.414,0,42.463,19.048,42.463,42.463   s-19.048,42.463-42.463,42.463c-23.413,0-42.463-19.048-42.463-42.463S291.28,129.839,314.694,129.839z M129.817,311.59   c2.783,3.195,2.45,8.043-0.746,10.827c-1.453,1.266-3.25,1.888-5.037,1.888c-2.141,0-4.272-0.892-5.79-2.633l-13.825-15.87   l-13.825,15.869c-1.517,1.742-3.648,2.633-5.789,2.633c-1.788,0-3.584-0.622-5.038-1.888c-3.195-2.784-3.529-7.631-0.746-10.827   l15.22-17.471l-15.22-17.472c-2.518-2.889-2.518-7.192,0-10.081l15.22-17.472l-15.22-17.472c-2.518-2.889-2.518-7.192,0.001-10.082   l15.219-17.468l-15.219-17.468c-2.519-2.889-2.519-7.193-0.001-10.083l15.22-17.469l-15.22-17.469   c-2.518-2.889-2.518-7.193,0.001-10.083l15.219-17.468L79.022,96.569c-2.784-3.195-2.45-8.043,0.745-10.828   c3.195-2.783,8.043-2.45,10.826,0.745l13.826,15.869l13.826-15.869c2.782-3.197,7.632-3.529,10.826-0.745   c3.196,2.784,3.529,7.631,0.745,10.828l-15.219,17.467l15.219,17.468c2.519,2.889,2.519,7.193,0.001,10.083l-15.219,17.469   l15.219,17.469c2.518,2.889,2.518,7.193-0.001,10.083l-15.219,17.468l15.219,17.468c2.519,2.889,2.519,7.193,0.001,10.082   l-15.22,17.472l15.22,17.472c2.518,2.889,2.518,7.192,0,10.081l-15.22,17.472L129.817,311.59z M224.684,206.579   c-4.24,0-7.674-3.436-7.674-7.674c0-4.238,3.434-7.674,7.674-7.674h20.836c-1.007-3.665-1.737-7.425-2.15-11.256h-40.173   c-4.24,0-7.674-3.435-7.674-7.674c0-4.239,3.434-7.674,7.674-7.674h47.429c4.239,0,7.675,3.435,7.675,7.674   c0,22.028,12.952,42.175,32.998,51.329c3.856,1.76,5.554,6.313,3.794,10.168c-1.289,2.823-4.073,4.489-6.986,4.489   c-1.066,0-2.149-0.223-3.183-0.695c-14.397-6.573-25.915-17.609-33.217-31.013h-27.022V206.579z M426.19,179.975h-40.174   c-0.412,3.852-1.138,7.609-2.135,11.256h20.822c4.24,0,7.675,3.436,7.675,7.674c0,4.239-3.435,7.674-7.675,7.674h-27.02   c-11.575,21.186-33.511,35.937-58.96,37.352l-22.267,31.174c-1.497,2.097-3.856,3.214-6.252,3.214   c-1.543,0-3.101-0.464-4.453-1.429c-3.449-2.464-4.248-7.256-1.784-10.705l24.482-34.276c1.441-2.016,3.767-3.213,6.244-3.213   c31.095,0,56.393-25.298,56.393-56.393c0-4.239,3.435-7.674,7.674-7.674h47.429c4.24,0,7.675,3.435,7.675,7.674   C433.865,176.54,430.43,179.975,426.19,179.975z"/>
</g>
<path d="M504.326,42.926H43.888c-4.239,0-7.674,3.436-7.674,7.674v306.959c0,4.238,3.435,7.674,7.674,7.674h368.35  c4.239,0,7.674-3.436,7.674-7.674c0-4.239-3.435-7.674-7.674-7.674H51.562V58.273h445.091v291.61h-53.719  c-4.239,0-7.674,3.436-7.674,7.674c0,4.238,3.435,7.674,7.674,7.674h61.392c4.239,0,7.674-3.436,7.674-7.674V50.6  C512,46.362,508.565,42.926,504.326,42.926z"/>
<g>
	<path style="fill:#FFE000;" d="M314.694,214.764c23.414,0,42.463-19.048,42.463-42.463s-19.048-42.463-42.463-42.463   c-23.413,0-42.463,19.048-42.463,42.463S291.28,214.764,314.694,214.764z"/>
	<path style="fill:#FFE000;" d="M284.924,237.592c1.033,0.473,2.116,0.695,3.183,0.695c2.912,0,5.697-1.666,6.986-4.489   c1.76-3.856,0.062-8.407-3.794-10.168c-20.046-9.154-32.998-29.301-32.998-51.329c0-4.239-3.436-7.674-7.675-7.674h-47.43   c-4.24,0-7.674,3.435-7.674,7.674c0,4.239,3.434,7.674,7.674,7.674h40.172c0.414,3.831,1.143,7.591,2.15,11.256h-20.836   c-4.24,0-7.674,3.436-7.674,7.674c0,4.239,3.434,7.674,7.674,7.674h27.023C259.009,219.984,270.527,231.018,284.924,237.592z"/>
	<path style="fill:#FFE000;" d="M426.19,164.628h-47.429c-4.239,0-7.674,3.435-7.674,7.674c0,31.095-25.298,56.393-56.393,56.393   c-2.478,0-4.805,1.197-6.244,3.213l-24.482,34.276c-2.465,3.449-1.664,8.242,1.784,10.705c1.352,0.966,2.91,1.429,4.453,1.429   c2.396,0,4.755-1.117,6.252-3.214l22.267-31.174c25.449-1.416,47.384-16.166,58.96-37.352h27.02c4.24,0,7.675-3.436,7.675-7.674   c0-4.238-3.435-7.674-7.675-7.674h-20.822c0.998-3.646,1.723-7.404,2.135-11.256h40.174c4.24,0,7.675-3.435,7.675-7.674   C433.865,168.063,430.43,164.628,426.19,164.628z"/>
	<path style="fill:#FFE000;" d="M129.817,266.566l-15.22-17.472l15.22-17.472c2.518-2.889,2.518-7.192-0.001-10.082l-15.219-17.468   l15.219-17.468c2.519-2.889,2.519-7.193,0.001-10.083l-15.219-17.469l15.219-17.469c2.518-2.889,2.518-7.193-0.001-10.083   l-15.219-17.468l15.219-17.467c2.784-3.195,2.451-8.043-0.745-10.828c-3.194-2.783-8.043-2.452-10.826,0.745l-13.826,15.869   L90.593,86.486c-2.782-3.195-7.631-3.529-10.826-0.745c-3.195,2.784-3.529,7.631-0.745,10.828l15.219,17.467l-15.219,17.468   c-2.519,2.889-2.519,7.193-0.001,10.083l15.22,17.469l-15.22,17.469c-2.518,2.889-2.518,7.193,0.001,10.083l15.219,17.468   l-15.219,17.468c-2.519,2.889-2.519,7.193-0.001,10.082l15.22,17.472l-15.22,17.472c-2.518,2.889-2.518,7.192,0,10.081   l15.22,17.472l-15.22,17.471c-2.783,3.195-2.449,8.043,0.746,10.827c1.454,1.266,3.25,1.888,5.038,1.888   c2.14,0,4.272-0.892,5.789-2.633l13.825-15.87l13.825,15.87c1.518,1.742,3.648,2.633,5.79,2.633c1.788,0,3.584-0.622,5.037-1.888   c3.196-2.784,3.529-7.631,0.746-10.827l-15.22-17.471l15.22-17.472C132.334,273.758,132.334,269.455,129.817,266.566z    M94.986,136.545l9.433-10.828l9.433,10.828l-9.433,10.828L94.986,136.545z M94.986,181.564l9.433-10.828l9.433,10.828   l-9.433,10.827L94.986,181.564z M94.986,226.583l9.433-10.828l9.433,10.828l-9.433,10.829L94.986,226.583z M94.986,271.607   l9.433-10.83l9.433,10.83l-9.433,10.829L94.986,271.607z"/>
</g>
<path style="fill:#2E3033;" d="M20.97,482.005c-6.429,0-11.661-5.232-11.661-11.661V41.55c0-6.371,5.183-11.554,11.554-11.554h1.524  c6.431,0,11.661,5.232,11.661,11.661v428.685c0,6.431-5.232,11.661-11.661,11.661H20.97V482.005z"/>
<path d="M22.386,20.687h-1.524C9.359,20.687,0,30.046,0,41.55v428.793c0,11.563,9.407,20.97,20.97,20.97h1.415  c11.564,0,20.97-9.407,20.97-20.97V41.658C43.357,30.095,33.949,20.687,22.386,20.687z M27.841,470.343  c0,3.008-2.447,5.455-5.455,5.455h-1.415c-3.008,0-5.455-2.447-5.455-5.455V41.55c0-2.949,2.399-5.348,5.348-5.348h1.524  c3.008,0,5.455,2.447,5.455,5.455v428.686H27.841z"/>
<g>
</g>
<g>
</g>
<g>
</g>
<g>
</g>
<g>
</g>
<g>
</g>
<g>
</g>
<g>
</g>
<g>
</g>
<g>
</g>
<g>
</g>
<g>
</g>
<g>
</g>
<g>
</g>
<g>
</g>
</svg>
