<?xml version="1.0" encoding="iso-8859-1"?>
<!-- Generator: Adobe Illustrator 19.0.0, SVG Export Plug-In . SVG Version: 6.00 Build 0)  -->
<svg xmlns="http://www.w3.org/2000/svg" xmlns:xlink="http://www.w3.org/1999/xlink" version="1.1" id="Layer_1" x="0px" y="0px" viewBox="0 0 511.999 511.999" style="enable-background:new 0 0 511.999 511.999;" xml:space="preserve">
<path style="fill:#FFFFFF;" d="M496.651,160.595H222.706l55.652,37.102c2.135,1.423,3.417,3.82,3.417,6.385  c0,2.566-1.283,4.962-3.417,6.385l-55.652,37.102h273.946V160.595z"/>
<path style="fill:#259245;" d="M442.933,349.891h53.719v-86.974H199.683L69.222,349.891h343.013c4.239,0,7.674,3.436,7.674,7.674  h15.349C435.259,353.327,438.694,349.891,442.933,349.891z"/>
<polygon style="fill:#333333;" points="199.683,145.247 496.651,145.247 496.651,58.273 69.222,58.273 "/>
<path style="fill:#ED1F34;" d="M260.267,204.082L51.551,64.939v278.287L260.267,204.082z M96.437,179.087l22.473,6.576l8.871-21.671  l8.869,21.671l22.474-6.576l-11.413,20.447l19.154,13.469l-23.101,3.825l1.412,23.374l-17.395-15.677l-17.395,15.677l1.411-23.374  l-23.101-3.825l19.154-13.469L96.437,179.087z"/>
<polygon style="fill:#FFFFFF;" points="111.797,216.828 110.386,240.202 127.781,224.525 145.175,240.202 143.763,216.828   166.865,213.003 147.712,199.533 159.124,179.087 136.65,185.663 127.781,163.993 118.91,185.663 96.437,179.087 107.85,199.533   88.696,213.003 "/>
<path d="M504.326,42.925H43.877c-4.239,0-7.675,3.436-7.675,7.674v306.966c0,4.239,3.436,7.674,7.674,7.674h368.359  c4.239,0,7.674-3.435,7.674-7.674s-3.436-7.674-7.674-7.674H69.222l130.461-86.974h296.968v86.974h-53.719  c-4.239,0-7.674,3.436-7.674,7.674s3.436,7.674,7.674,7.674h61.392c4.239,0,7.674-3.435,7.674-7.674V50.599  C512,46.361,508.564,42.925,504.326,42.925z M496.651,145.247H199.683L69.222,58.273h427.429V145.247z M51.551,64.939  l208.715,139.143L51.551,343.226V64.939z M278.358,210.467c2.135-1.423,3.417-3.819,3.417-6.385c0-2.565-1.283-4.962-3.417-6.385  l-55.652-37.102h273.946v86.974H222.707L278.358,210.467z"/>
<path style="fill:#2E3033;" d="M20.97,482.004c-6.429,0-11.661-5.232-11.661-11.661V41.549c0-6.371,5.183-11.554,11.554-11.554  h1.524c6.431,0,11.661,5.232,11.661,11.661v428.685c0,6.431-5.232,11.661-11.661,11.661H20.97V482.004z"/>
<path d="M22.386,20.686h-1.524C9.359,20.686,0,30.045,0,41.549v428.793c0,11.563,9.407,20.97,20.97,20.97h1.415  c11.564,0,20.97-9.407,20.97-20.97V41.657C43.357,30.094,33.949,20.686,22.386,20.686z M27.841,470.342  c0,3.008-2.447,5.455-5.455,5.455h-1.415c-3.008,0-5.455-2.447-5.455-5.455V41.549c0-2.949,2.399-5.348,5.348-5.348h1.524  c3.008,0,5.455,2.447,5.455,5.455v428.686H27.841z"/>
<g>
</g>
<g>
</g>
<g>
</g>
<g>
</g>
<g>
</g>
<g>
</g>
<g>
</g>
<g>
</g>
<g>
</g>
<g>
</g>
<g>
</g>
<g>
</g>
<g>
</g>
<g>
</g>
<g>
</g>
</svg>
