<?xml version="1.0" encoding="iso-8859-1"?>
<!-- Generator: Adobe Illustrator 19.0.0, SVG Export Plug-In . SVG Version: 6.00 Build 0)  -->
<svg xmlns="http://www.w3.org/2000/svg" xmlns:xlink="http://www.w3.org/1999/xlink" version="1.1" id="Layer_1" x="0px" y="0px" viewBox="0 0 512 512" style="enable-background:new 0 0 512 512;" xml:space="preserve">
<g>
	<polygon style="fill:#FFFFFF;" points="267.685,239.611 98.482,352.406 436.887,352.406  "/>
	<path style="fill:#FFFFFF;" d="M89.596,284.454l122.678-81.781L39.132,87.251v230.844l24.233-16.155   c3.62-2.413,8.515-1.436,10.928,2.186l13.117-8.743C84.995,291.761,85.975,286.869,89.596,284.454z"/>
	<polygon style="fill:#FFFFFF;" points="496.237,87.251 323.095,202.673 496.237,318.095  "/>
	<path style="fill:#FFFFFF;" d="M267.685,165.734L436.887,52.94H98.482L267.685,165.734z M246.633,71.254h42.104   c3.097,0,5.907,1.814,7.183,4.636c2.899,6.415,4.431,13.763,4.431,21.252c0,31.203-27.822,46.144-29.007,46.764   c-1.145,0.6-2.403,0.901-3.658,0.901s-2.513-0.3-3.657-0.901c-1.184-0.62-29.008-15.56-29.008-46.764   c0-7.489,1.532-14.837,4.431-21.252C240.726,73.068,243.536,71.254,246.633,71.254z"/>
</g>
<path style="fill:#ED1F34;" d="M267.685,127.59c5.939-4.295,16.902-14.398,16.902-30.448c0-3.501-0.463-6.931-1.357-10.127h-31.092  c-0.894,3.195-1.356,6.625-1.356,10.127C250.782,113.193,261.746,123.295,267.685,127.59z"/>
<path d="M264.027,143.907c1.144,0.6,2.402,0.901,3.657,0.901s2.513-0.3,3.658-0.901c1.183-0.62,29.007-15.56,29.007-46.764  c0-7.489-1.532-14.837-4.431-21.252c-1.276-2.822-4.085-4.636-7.183-4.636h-42.104c-3.097,0-5.907,1.814-7.183,4.636  c-2.899,6.415-4.431,13.763-4.431,21.252C235.02,128.346,262.842,143.287,264.027,143.907z M252.139,87.016h31.092  c0.894,3.195,1.357,6.625,1.357,10.127c0,16.05-10.963,26.153-16.902,30.448c-5.939-4.295-16.902-14.398-16.902-30.448  C250.782,93.641,251.244,90.211,252.139,87.016z"/>
<path style="fill:#ED1F34;" d="M496.237,337.037L304.517,209.231c-2.192-1.462-3.51-3.922-3.51-6.557s1.316-5.096,3.51-6.557  L496.237,68.308V52.94h-30.936L272.056,181.763c-1.324,0.883-2.848,1.325-4.371,1.325c-1.523,0-3.048-0.442-4.371-1.325  L70.066,52.94H39.132v15.368l191.721,127.808c2.192,1.461,3.51,3.922,3.51,6.557c0,2.634-1.316,5.096-3.51,6.557L98.338,297.569  c-1.343,0.895-2.861,1.324-4.364,1.325c-2.546,0-5.046-1.232-6.565-3.511l0,0l-13.117,8.743l0,0  c2.414,3.621,1.436,8.515-2.186,10.928l-32.976,21.983v15.368h30.935l193.247-128.823c2.647-1.765,6.095-1.765,8.742,0  l193.246,128.823h30.936v-15.368H496.237z"/>
<path d="M512,332.768V72.578c0-0.007,0-0.016,0-0.023V45.059c0-4.353-3.528-7.881-7.882-7.881h-41.153c-0.006,0-0.011,0-0.017,0  H72.43c-0.011,0-0.021,0-0.03,0H31.251c-4.354,0-7.882,3.528-7.882,7.881v27.495c0,0.007,0,0.016,0,0.023v260.191  c0,0.007,0,0.016,0,0.023v27.495c0,4.352,3.528,7.881,7.882,7.881h41.148c0.011,0,0.02,0,0.03,0h390.466  c0.004,0,0.01,0.001,0.014,0.001c0.006,0,0.012-0.001,0.018-0.001h41.192c4.354,0,7.882-3.529,7.882-7.881v-27.495  C512,332.784,512,332.776,512,332.768z M465.302,352.406L272.056,223.583c-2.647-1.765-6.095-1.765-8.742,0L70.066,352.406H39.132  v-15.368l32.976-21.983c3.621-2.413,4.601-7.307,2.186-10.928l0,0c-2.413-3.621-7.308-4.599-10.928-2.186l-24.233,16.155V87.251  l173.142,115.422L89.597,284.454c-3.621,2.413-4.601,7.307-2.186,10.928l0,0c1.519,2.278,4.017,3.511,6.565,3.511  c1.503-0.001,3.022-0.429,4.364-1.325l132.515-88.338c2.192-1.462,3.51-3.922,3.51-6.557s-1.316-5.096-3.51-6.557L39.132,68.308  V52.94h30.935l193.247,128.823c1.324,0.883,2.848,1.325,4.371,1.325s3.048-0.442,4.371-1.325L465.302,52.94h30.936v15.368  L304.517,196.116c-2.192,1.461-3.51,3.922-3.51,6.557c0,2.634,1.316,5.096,3.51,6.557l191.721,127.807v15.368H465.302z   M267.685,239.611l169.202,112.795H98.482L267.685,239.611z M267.685,165.734L98.482,52.94h338.404L267.685,165.734z   M496.237,87.251v230.844L323.095,202.673L496.237,87.251z"/>
<path style="fill:#2E3033;" d="M21.536,488.1c-6.603,0-11.976-5.373-11.976-11.976V35.766c0-6.542,5.323-11.865,11.865-11.865h1.565  c6.604,0,11.976,5.373,11.976,11.976v440.247c0,6.604-5.373,11.976-11.976,11.976h-1.454V488.1z"/>
<path d="M22.99,14.34h-1.565C9.611,14.34,0,23.951,0,35.766v440.358C0,488,9.661,497.66,21.536,497.66h1.453  c11.876,0,21.536-9.661,21.536-21.536V35.876C44.526,24.001,34.865,14.34,22.99,14.34z M28.592,476.124  c0,3.089-2.513,5.602-5.602,5.602h-1.453c-3.089,0-5.602-2.513-5.602-5.602V35.766c0-3.028,2.463-5.492,5.492-5.492h1.565  c3.089,0,5.602,2.513,5.602,5.602v440.248H28.592z"/>
<g>
</g>
<g>
</g>
<g>
</g>
<g>
</g>
<g>
</g>
<g>
</g>
<g>
</g>
<g>
</g>
<g>
</g>
<g>
</g>
<g>
</g>
<g>
</g>
<g>
</g>
<g>
</g>
<g>
</g>
</svg>
