<?xml version="1.0" encoding="iso-8859-1"?>
<!-- Generator: Adobe Illustrator 19.0.0, SVG Export Plug-In . SVG Version: 6.00 Build 0)  -->
<svg xmlns="http://www.w3.org/2000/svg" xmlns:xlink="http://www.w3.org/1999/xlink" version="1.1" id="Layer_1" x="0px" y="0px" viewBox="0 0 511.999 511.999" style="enable-background:new 0 0 511.999 511.999;" xml:space="preserve">
<path style="fill:#FFFFFF;" d="M105.269,58.273H51.551v291.619h445.101V58.273H135.967c-4.239,0-7.674-3.435-7.674-7.675h-15.349  C112.943,54.838,109.508,58.273,105.269,58.273z M274.101,119.666c46.547,0,84.416,37.869,84.416,84.416  s-37.869,84.416-84.416,84.416s-84.416-37.868-84.416-84.415S227.555,119.666,274.101,119.666z"/>
<path d="M504.326,42.925h-368.36c-4.239,0-7.674,3.435-7.674,7.674c0,4.24,3.436,7.675,7.674,7.675h360.685v291.619H51.551V58.273  h53.72c4.238,0,7.674-3.435,7.674-7.675c0-4.239-3.436-7.674-7.674-7.674H43.876c-4.238,0-7.674,3.435-7.674,7.674v306.966  c0,4.239,3.436,7.675,7.674,7.675h460.449c4.239,0,7.674-3.436,7.674-7.675V50.599C512,46.36,508.564,42.925,504.326,42.925z"/>
<path style="fill:#ED1F34;" d="M274.101,273.15c38.083,0,69.067-30.984,69.067-69.067s-30.984-69.068-69.067-69.068  s-69.067,30.984-69.067,69.067S236.018,273.15,274.101,273.15z"/>
<path d="M274.101,288.498c46.547,0,84.416-37.868,84.416-84.415s-37.869-84.417-84.416-84.417s-84.416,37.869-84.416,84.416  S227.555,288.498,274.101,288.498z M274.101,135.014c38.083,0,69.067,30.984,69.067,69.067s-30.984,69.068-69.067,69.068  s-69.067-30.984-69.067-69.067S236.018,135.014,274.101,135.014z"/>
<path style="fill:#2E3033;" d="M20.97,482.004c-6.429,0-11.661-5.232-11.661-11.661V41.549c0-6.371,5.183-11.554,11.554-11.554  h1.524c6.431,0,11.661,5.232,11.661,11.661v428.685c0,6.431-5.232,11.661-11.661,11.661H20.97V482.004z"/>
<path d="M22.386,20.686h-1.524C9.359,20.686,0,30.045,0,41.549v428.793c0,11.563,9.407,20.97,20.97,20.97h1.415  c11.564,0,20.97-9.407,20.97-20.97V41.657C43.357,30.094,33.949,20.686,22.386,20.686z M27.841,470.342  c0,3.008-2.447,5.455-5.455,5.455h-1.415c-3.008,0-5.455-2.447-5.455-5.455V41.549c0-2.949,2.399-5.348,5.348-5.348h1.524  c3.008,0,5.455,2.447,5.455,5.455v428.686H27.841z"/>
<g>
</g>
<g>
</g>
<g>
</g>
<g>
</g>
<g>
</g>
<g>
</g>
<g>
</g>
<g>
</g>
<g>
</g>
<g>
</g>
<g>
</g>
<g>
</g>
<g>
</g>
<g>
</g>
<g>
</g>
</svg>
