<?xml version="1.0" encoding="iso-8859-1"?>
<!-- Generator: Adobe Illustrator 19.0.0, SVG Export Plug-In . SVG Version: 6.00 Build 0)  -->
<svg xmlns="http://www.w3.org/2000/svg" xmlns:xlink="http://www.w3.org/1999/xlink" version="1.1" id="Layer_1" x="0px" y="0px" viewBox="0 0 512 512" style="enable-background:new 0 0 512 512;" xml:space="preserve">
<g>
	<path style="fill:#259245;" d="M166.663,349.891h323.914L273.76,222.558L56.944,349.891h79.023c4.239,0,7.674,3.435,7.674,7.674   h15.349C158.989,353.328,162.424,349.891,166.663,349.891z"/>
	<polygon style="fill:#259245;" points="490.577,58.274 56.944,58.274 273.76,185.608  "/>
</g>
<path style="fill:#FFE000;" d="M490.577,349.891h6.075v-30.575L311.704,210.7c-2.347-1.379-3.788-3.896-3.788-6.617  c0-2.72,1.442-5.239,3.788-6.617L496.651,88.848V58.273h-6.075L273.76,185.608L56.944,58.274h-5.393v30.975l184.265,108.216  c2.346,1.378,3.788,3.896,3.788,6.617c0,2.72-1.442,5.238-3.788,6.617L51.551,318.916v30.975h5.393L273.76,222.558L490.577,349.891z  "/>
<g>
	<polygon style="fill:#333333;" points="51.551,107.048 51.551,301.117 216.776,204.083  "/>
	<polygon style="fill:#333333;" points="496.651,301.518 496.651,106.646 330.744,204.083  "/>
</g>
<path d="M504.325,42.925H43.876c-4.238,0-7.674,3.435-7.674,7.674v306.966c0,4.239,3.436,7.675,7.674,7.675h92.09  c4.239,0,7.674-3.436,7.674-7.675c0-4.239-3.436-7.674-7.674-7.674H56.944h-5.393v-30.975L235.816,210.7  c2.346-1.379,3.788-3.896,3.788-6.617c0-2.72-1.442-5.239-3.788-6.617L51.551,89.249V58.274h5.393h433.633h6.075v30.575  L311.704,197.465c-2.347,1.378-3.788,3.896-3.788,6.617c0,2.72,1.442,5.238,3.788,6.617l184.948,108.617v30.575h-6.075H166.663  c-4.239,0-7.674,3.435-7.674,7.674c0,4.239,3.435,7.675,7.674,7.675h337.662c4.24,0,7.675-3.436,7.675-7.675V50.599  C512,46.36,508.565,42.925,504.325,42.925z M496.651,301.518l-165.908-97.435l165.908-97.436V301.518z M51.551,107.048  l165.225,97.035L51.551,301.117V107.048z"/>
<path style="fill:#2E3033;" d="M20.97,482.004c-6.429,0-11.661-5.232-11.661-11.661V41.55c0-6.371,5.183-11.554,11.554-11.554h1.524  c6.431,0,11.661,5.232,11.661,11.661v428.685c0,6.431-5.232,11.661-11.661,11.661H20.97V482.004z"/>
<path d="M22.386,20.687h-1.524C9.359,20.687,0,30.046,0,41.55v428.793c0,11.563,9.407,20.97,20.97,20.97h1.415  c11.564,0,20.97-9.407,20.97-20.97V41.657C43.357,30.094,33.949,20.687,22.386,20.687z M27.841,470.343  c0,3.008-2.447,5.455-5.455,5.455h-1.415c-3.008,0-5.455-2.447-5.455-5.455V41.55c0-2.949,2.399-5.348,5.348-5.348h1.524  c3.008,0,5.455,2.447,5.455,5.455v428.686H27.841z"/>
<g>
</g>
<g>
</g>
<g>
</g>
<g>
</g>
<g>
</g>
<g>
</g>
<g>
</g>
<g>
</g>
<g>
</g>
<g>
</g>
<g>
</g>
<g>
</g>
<g>
</g>
<g>
</g>
<g>
</g>
</svg>
