<?xml version="1.0" encoding="iso-8859-1"?>
<!-- Generator: Adobe Illustrator 19.0.0, SVG Export Plug-In . SVG Version: 6.00 Build 0)  -->
<svg xmlns="http://www.w3.org/2000/svg" xmlns:xlink="http://www.w3.org/1999/xlink" version="1.1" id="Layer_1" x="0px" y="0px" viewBox="0 0 512 512" style="enable-background:new 0 0 512 512;" xml:space="preserve">
<path style="fill:#FFFFFF;" d="M343.172,296.166V58.273H205.041v291.611h138.131v-23.021c0-4.24,3.436-7.675,7.674-7.675V303.84  C346.609,303.84,343.172,300.405,343.172,296.166z"/>
<rect x="51.562" y="58.275" style="fill:#FF7900;" width="138.126" height="291.612"/>
<path style="fill:#259245;" d="M358.521,296.166c0,4.24-3.436,7.675-7.674,7.675v15.348c4.239,0,7.674,3.435,7.674,7.675v23.021  h138.131V58.273H358.521V296.166z"/>
<path d="M504.326,42.925H43.888c-4.238,0-7.674,3.435-7.674,7.675v306.958c0,4.239,3.436,7.675,7.674,7.675h460.438  c4.239,0,7.674-3.436,7.674-7.675V50.6C512,46.36,508.564,42.925,504.326,42.925z M496.652,349.884H358.521v-23.021  c0-4.24-3.436-7.675-7.674-7.675c-4.238,0-7.674,3.435-7.674,7.675v23.021H205.041V58.273h138.131v237.893  c0,4.24,3.436,7.675,7.674,7.675c4.239,0,7.674-3.435,7.674-7.675V58.273h138.131v291.611H496.652z M51.562,58.273h138.131v291.611  H51.562V58.273z"/>
<path style="fill:#2E3033;" d="M20.97,482.004c-6.429,0-11.661-5.232-11.661-11.661V41.55c0-6.371,5.183-11.554,11.554-11.554h1.524  c6.431,0,11.661,5.232,11.661,11.661v428.685c0,6.431-5.232,11.661-11.661,11.661H20.97V482.004z"/>
<path d="M22.386,20.687h-1.524C9.359,20.687,0,30.046,0,41.55v428.793c0,11.563,9.407,20.97,20.97,20.97h1.415  c11.564,0,20.97-9.407,20.97-20.97V41.657C43.357,30.094,33.949,20.687,22.386,20.687z M27.841,470.343  c0,3.008-2.447,5.455-5.455,5.455h-1.415c-3.008,0-5.455-2.447-5.455-5.455V41.55c0-2.949,2.399-5.348,5.348-5.348h1.524  c3.008,0,5.455,2.447,5.455,5.455v428.686H27.841z"/>
<g>
</g>
<g>
</g>
<g>
</g>
<g>
</g>
<g>
</g>
<g>
</g>
<g>
</g>
<g>
</g>
<g>
</g>
<g>
</g>
<g>
</g>
<g>
</g>
<g>
</g>
<g>
</g>
<g>
</g>
</svg>
