<?xml version="1.0" encoding="iso-8859-1"?>
<!-- Generator: Adobe Illustrator 19.0.0, SVG Export Plug-In . SVG Version: 6.00 Build 0)  -->
<svg xmlns="http://www.w3.org/2000/svg" xmlns:xlink="http://www.w3.org/1999/xlink" version="1.1" id="Layer_1" x="0px" y="0px" viewBox="0 0 511.999 511.999" style="enable-background:new 0 0 511.999 511.999;" xml:space="preserve">
<path style="fill:#FFFFFF;" d="M342.826,111.7V57.873H204.412v292.209h138.415V142.46c0-4.247,3.443-7.689,7.689-7.689v-15.38  C346.27,119.39,342.826,115.948,342.826,111.7z"/>
<rect x="50.619" y="57.873" style="fill:#259245;" width="138.416" height="292.213"/>
<path style="fill:#ED1F34;" d="M358.206,111.7c0,4.246-3.443,7.689-7.689,7.689v15.38c4.247,0,7.689,3.443,7.689,7.689v207.622  H496.62V57.873H358.206V111.7z"/>
<path d="M504.311,42.493H42.928c-4.246,0-7.689,3.443-7.689,7.689V357.77c0,4.247,3.443,7.689,7.689,7.689H504.31  c4.247,0,7.689-3.443,7.689-7.689V50.183C512,45.936,508.557,42.493,504.311,42.493z M496.62,350.081H358.206V142.46  c0-4.247-3.443-7.689-7.689-7.689c-4.246,0-7.689,3.443-7.689,7.689v207.622H204.412V57.873h138.415v53.828  c0,4.246,3.443,7.689,7.689,7.689c4.247,0,7.689-3.443,7.689-7.689V57.873H496.62V350.081z M50.619,57.873h138.414v292.209H50.619  V57.873z"/>
<path style="fill:#2E3033;" d="M21.013,482.461c-6.442,0-11.685-5.242-11.685-11.685V41.115c0-6.383,5.194-11.577,11.577-11.577  h1.527c6.444,0,11.685,5.242,11.685,11.685v429.552c0,6.444-5.242,11.685-11.685,11.685h-1.419V482.461z"/>
<path d="M22.432,20.21h-1.527C9.378,20.21,0,29.588,0,41.115v429.661c0,11.587,9.426,21.013,21.013,21.013h1.418  c11.587,0,21.013-9.426,21.013-21.013V41.223C43.444,29.636,34.018,20.21,22.432,20.21z M27.898,470.776  c0,3.014-2.452,5.466-5.466,5.466h-1.418c-3.014,0-5.466-2.452-5.466-5.466V41.115c0-2.955,2.403-5.358,5.358-5.358h1.527  c3.014,0,5.466,2.452,5.466,5.466v429.554H27.898z"/>
<g>
</g>
<g>
</g>
<g>
</g>
<g>
</g>
<g>
</g>
<g>
</g>
<g>
</g>
<g>
</g>
<g>
</g>
<g>
</g>
<g>
</g>
<g>
</g>
<g>
</g>
<g>
</g>
<g>
</g>
</svg>
