<?xml version="1.0" encoding="iso-8859-1"?>
<!-- Generator: Adobe Illustrator 19.0.0, SVG Export Plug-In . SVG Version: 6.00 Build 0)  -->
<svg xmlns="http://www.w3.org/2000/svg" xmlns:xlink="http://www.w3.org/1999/xlink" version="1.1" id="Layer_1" x="0px" y="0px" viewBox="0 0 512 512" style="enable-background:new 0 0 512 512;" xml:space="preserve">
<g>
	<polygon style="fill:#FFFFFF;" points="229.801,178.499 235.119,187.707 240.435,178.499  "/>
	<polygon style="fill:#FFFFFF;" points="318.412,229.658 313.096,220.45 307.779,229.658  "/>
	<polygon style="fill:#FFFFFF;" points="229.801,229.658 240.435,229.658 235.119,220.45  "/>
	<polygon style="fill:#FFFFFF;" points="274.107,152.918 268.791,162.127 279.424,162.127  "/>
	<polygon style="fill:#FFFFFF;" points="259.339,229.658 288.876,229.658 303.644,204.079 288.876,178.499 259.339,178.499    244.569,204.079  "/>
	<polygon style="fill:#FFFFFF;" points="274.107,255.239 279.424,246.029 268.791,246.029  "/>
	<polygon style="fill:#FFFFFF;" points="307.779,178.499 313.096,187.707 318.412,178.499  "/>
	<path style="fill:#FFFFFF;" d="M412.239,113.525H51.562v181.105h445.09V113.525h-53.718c-4.239,0-7.674-3.436-7.674-7.674h-15.349   C419.912,110.09,416.476,113.525,412.239,113.525z M339.679,233.751c1.463,2.533,1.463,5.653,0,8.186   c-1.463,2.532-4.164,4.093-7.089,4.093h-34.263l-17.132,29.673c-1.463,2.533-4.164,4.093-7.089,4.093   c-2.925,0-5.627-1.56-7.089-4.093l-17.132-29.673h-34.263c-2.924,0-5.626-1.56-7.088-4.093c-1.463-2.533-1.463-5.653,0-8.186   l17.132-29.673l-17.132-29.673c-1.463-2.532-1.463-5.654,0-8.186c1.463-2.532,4.164-4.093,7.088-4.093h34.263l17.132-29.672   c1.463-2.533,4.164-4.093,7.089-4.093c2.925,0,5.627,1.56,7.089,4.093l17.132,29.672h34.263c2.924,0,5.627,1.561,7.089,4.093   c1.463,2.532,1.463,5.654,0,8.186l-17.132,29.673L339.679,233.751z"/>
</g>
<g>
	<path style="fill:#164FCE;" d="M339.679,166.22c-1.463-2.532-4.164-4.093-7.089-4.093h-34.263l-17.132-29.672   c-1.463-2.533-4.164-4.093-7.089-4.093c-2.925,0-5.627,1.56-7.089,4.093l-17.132,29.672h-34.263c-2.924,0-5.626,1.561-7.088,4.093   c-1.463,2.532-1.463,5.654,0,8.186l17.132,29.673l-17.132,29.673c-1.463,2.532-1.463,5.653,0,8.186   c1.463,2.532,4.164,4.093,7.088,4.093h34.263l17.132,29.673c1.463,2.533,4.164,4.093,7.089,4.093c2.925,0,5.627-1.56,7.089-4.093   l17.132-29.673h34.263c2.924,0,5.627-1.561,7.089-4.093c1.463-2.532,1.463-5.653,0-8.186l-17.132-29.672l17.132-29.673   C341.142,171.874,341.142,168.752,339.679,166.22z M274.107,152.918l5.317,9.209h-10.633L274.107,152.918z M288.876,178.499   l14.768,25.579l-14.768,25.579h-29.538l-14.768-25.579l14.768-25.579H288.876z M229.801,178.499h10.633l-5.317,9.208   L229.801,178.499z M229.801,229.658l5.317-9.209l5.317,9.209H229.801z M274.107,255.239l-5.317-9.209h10.633L274.107,255.239z    M318.412,229.658h-10.633l5.317-9.209L318.412,229.658z M307.779,178.499h10.633l-5.317,9.208L307.779,178.499z"/>
	<path style="fill:#164FCE;" d="M412.239,98.178c4.239,0,7.674,3.436,7.674,7.674h15.348c0-4.238,3.436-7.674,7.674-7.674h53.718   V58.273H51.562v39.905H412.239z"/>
	<rect x="51.562" y="309.982" style="fill:#164FCE;" width="445.088" height="39.905"/>
</g>
<path d="M504.326,42.925H43.888c-4.238,0-7.674,3.436-7.674,7.674v306.959c0,4.239,3.436,7.674,7.674,7.674h460.438  c4.239,0,7.674-3.436,7.674-7.674V50.599C512,46.361,508.564,42.925,504.326,42.925z M496.652,58.273v39.905h-53.718  c-4.239,0-7.674,3.436-7.674,7.674c0,4.239,3.436,7.674,7.674,7.674h53.718v181.105H51.562V113.525h360.677  c4.239,0,7.674-3.436,7.674-7.674c0-4.238-3.436-7.674-7.674-7.674H51.562V58.273C51.562,58.273,496.652,58.273,496.652,58.273z   M51.562,349.884v-39.905h445.09v39.905L51.562,349.884L51.562,349.884z"/>
<path style="fill:#2E3033;" d="M20.97,482.004c-6.429,0-11.661-5.232-11.661-11.661V41.55c0-6.371,5.183-11.554,11.554-11.554h1.524  c6.431,0,11.661,5.232,11.661,11.661v428.685c0,6.431-5.232,11.661-11.661,11.661H20.97V482.004z"/>
<path d="M22.386,20.687h-1.524C9.359,20.687,0,30.046,0,41.55v428.793c0,11.563,9.407,20.97,20.97,20.97h1.415  c11.564,0,20.97-9.407,20.97-20.97V41.657C43.357,30.094,33.949,20.687,22.386,20.687z M27.841,470.343  c0,3.008-2.447,5.455-5.455,5.455h-1.415c-3.008,0-5.455-2.447-5.455-5.455V41.55c0-2.949,2.399-5.348,5.348-5.348h1.524  c3.008,0,5.455,2.447,5.455,5.455v428.686H27.841z"/>
<g>
</g>
<g>
</g>
<g>
</g>
<g>
</g>
<g>
</g>
<g>
</g>
<g>
</g>
<g>
</g>
<g>
</g>
<g>
</g>
<g>
</g>
<g>
</g>
<g>
</g>
<g>
</g>
<g>
</g>
</svg>
