<?xml version="1.0" encoding="iso-8859-1"?>
<!-- Generator: Adobe Illustrator 19.0.0, SVG Export Plug-In . SVG Version: 6.00 Build 0)  -->
<svg xmlns="http://www.w3.org/2000/svg" xmlns:xlink="http://www.w3.org/1999/xlink" version="1.1" id="Layer_1" x="0px" y="0px" viewBox="0 0 511.999 511.999" style="enable-background:new 0 0 511.999 511.999;" xml:space="preserve">
<path style="fill:#ED1F34;" d="M441.07,52.94H39.132v299.484h457.106V52.94h-23.643c-4.353,0-7.881-3.529-7.881-7.881h-15.763  C448.951,49.412,445.422,52.94,441.07,52.94z M390.137,183.42c-1.03,3.406-4.159,5.6-7.541,5.6c-0.756,0-1.525-0.11-2.286-0.34  l-17.099-5.174l-30.492,57.645c-0.031,0.057-0.062,0.115-0.094,0.172c-3.247,5.786-9.389,9.381-16.029,9.381  c-2.717,0-5.342-0.587-7.803-1.745l-49.033-23.081l-18.729,9.38c8.857,15.242,12.285,32.54,9.943,48.76  c0.271,0.221,0.535,0.455,0.781,0.717c2.977,3.175,2.817,8.162-0.357,11.141l-24.066,22.57c-1.521,1.427-3.458,2.133-5.39,2.133  c-2.102,0-4.199-0.835-5.751-2.49c-2.977-3.175-2.817-8.162,0.357-11.14l13.031-12.221l-34.676-55.229  c-0.034-0.055-0.068-0.112-0.102-0.167c-4.896-8.247-2.566-18.99,5.305-24.458l44.504-30.923l1.242-20.91  c-0.08,0.001-0.159,0.001-0.24,0.001c-17.459,0-34.119-5.738-46.929-15.782c-0.336,0.13-0.681,0.245-1.041,0.33  c-0.603,0.141-1.208,0.209-1.802,0.209c-3.579,0-6.817-2.454-7.667-6.088l-7.513-32.127c-0.991-4.238,1.64-8.478,5.88-9.469  c4.236-0.992,8.477,1.64,9.469,5.88l4.068,17.395l65.168-2.416c0.066-0.002,0.131-0.004,0.195-0.005l0.227-0.001  c9.472,0,17.51,7.39,18.301,16.824l4.528,54.004l17.488,11.531c8.771-15.292,22.037-26.91,37.255-32.991  c0.056-0.345,0.126-0.69,0.23-1.035c1.261-4.166,5.662-6.52,9.826-5.26l31.579,9.556  C389.041,174.854,391.396,179.254,390.137,183.42z"/>
<path d="M504.119,37.178h-31.524c-4.353,0-7.881,3.529-7.881,7.881s3.529,7.881,7.881,7.881h23.643v299.484H39.132V52.94H441.07  c4.353,0,7.881-3.529,7.881-7.881c0-4.353-3.529-7.881-7.881-7.881H31.25c-4.352-0.001-7.881,3.528-7.881,7.88v315.245  c0,4.353,3.529,7.881,7.881,7.881h472.868c4.353,0,7.881-3.529,7.881-7.881V45.059C512,40.707,508.471,37.178,504.119,37.178z"/>
<path style="fill:#FFFFFF;" d="M318.569,213.139c-0.803,1.517-1.568,3.12-2.273,4.761c-0.921,2.144-2.744,3.769-4.98,4.438  c-2.235,0.67-4.652,0.314-6.6-0.97l-28.094-18.524c-2.017-1.33-3.313-3.513-3.515-5.921l-4.847-57.818  c-0.112-1.324-1.234-2.362-2.563-2.378l-51.834,1.921c9.81,5.932,21.743,9.046,34.196,8.583c1.708-0.064,3.479-0.202,5.262-0.413  c2.318-0.273,4.636,0.493,6.332,2.095c1.697,1.601,2.597,3.871,2.459,6.2l-1.995,33.591c-0.143,2.412-1.385,4.625-3.371,6.004  L209.1,227.815c-1.095,0.761-1.43,2.247-0.778,3.411l27.608,43.97c0.255-11.469-3.044-23.361-9.693-33.949  c-0.91-1.449-1.916-2.914-2.989-4.352c-1.395-1.87-1.89-4.261-1.351-6.53c0.537-2.27,2.054-4.184,4.14-5.229l30.089-15.068  c2.16-1.083,4.698-1.113,6.885-0.084l52.496,24.711c0.345,0.163,0.712,0.245,1.091,0.245c0.728,0,1.692-0.337,2.251-1.276  l24.276-45.896C333.063,193.285,324.415,202.088,318.569,213.139z"/>
<path d="M384.875,173.593l-31.579-9.556c-4.164-1.26-8.565,1.094-9.826,5.26c-0.104,0.344-0.175,0.689-0.23,1.035  c-15.218,6.082-28.484,17.699-37.255,32.991l-17.488-11.531l-4.528-54.004c-0.791-9.434-8.83-16.824-18.301-16.824l-0.227,0.001  c-0.065,0.001-0.131,0.002-0.195,0.005l-65.168,2.416l-4.068-17.395c-0.991-4.238-5.232-6.871-9.469-5.88  c-4.238,0.991-6.871,5.23-5.88,9.469l7.513,32.127c0.85,3.634,4.089,6.088,7.667,6.088c0.594,0,1.198-0.068,1.802-0.209  c0.361-0.084,0.705-0.2,1.041-0.33c12.811,10.043,29.47,15.782,46.929,15.782c0.08,0,0.159,0,0.24-0.001l-1.242,20.91  l-44.504,30.923c-7.87,5.468-10.201,16.211-5.305,24.458c0.033,0.055,0.067,0.112,0.102,0.167l34.676,55.229l-13.031,12.221  c-3.175,2.977-3.334,7.965-0.357,11.14c1.552,1.655,3.649,2.49,5.751,2.49c1.932,0,3.87-0.706,5.39-2.133l24.066-22.57  c3.175-2.979,3.334-7.966,0.357-11.141c-0.245-0.262-0.51-0.496-0.781-0.717c2.342-16.22-1.086-33.518-9.943-48.76l18.729-9.38  l49.033,23.081c2.461,1.158,5.087,1.745,7.803,1.745c6.64,0,12.782-3.595,16.029-9.381c0.032-0.057,0.064-0.115,0.094-0.172  l30.492-57.645l17.099,5.174c0.761,0.229,1.53,0.34,2.286,0.34c3.382,0,6.509-2.196,7.541-5.6  C391.396,179.254,389.041,174.854,384.875,173.593z M316.597,234.942c-0.378,0-0.746-0.083-1.091-0.245l-52.496-24.711  c-2.187-1.029-4.726-0.999-6.885,0.084l-30.089,15.068c-2.085,1.044-3.602,2.959-4.14,5.229c-0.537,2.27-0.044,4.661,1.351,6.53  c1.073,1.438,2.079,2.902,2.989,4.352c6.647,10.589,9.947,22.48,9.693,33.949l-27.608-43.97c-0.652-1.164-0.318-2.65,0.778-3.411  l47.647-33.108c1.985-1.379,3.227-3.591,3.37-6.004l1.995-33.591c0.138-2.329-0.762-4.6-2.459-6.2  c-1.697-1.601-4.014-2.368-6.332-2.095c-1.783,0.21-3.554,0.349-5.262,0.413c-12.453,0.463-24.386-2.651-34.196-8.583l51.834-1.921  c1.329,0.016,2.452,1.055,2.563,2.378l4.847,57.818c0.202,2.409,1.498,4.591,3.515,5.921l28.094,18.524  c1.947,1.283,4.365,1.639,6.6,0.97c2.235-0.669,4.059-2.294,4.98-4.438c0.706-1.641,1.47-3.245,2.273-4.761  c5.846-11.053,14.494-19.854,24.555-25.368l-24.276,45.896C318.289,234.605,317.324,234.942,316.597,234.942z"/>
<path style="fill:#2E3033;" d="M21.536,488.099c-6.603,0-11.976-5.373-11.976-11.976V35.765c0-6.542,5.323-11.865,11.865-11.865  h1.565c6.604,0,11.976,5.373,11.976,11.976v440.247c0,6.604-5.373,11.976-11.976,11.976h-1.454V488.099z"/>
<path d="M22.99,14.34h-1.565C9.611,14.34,0,23.951,0,35.765v440.358c0,11.876,9.661,21.536,21.536,21.536h1.453  c11.876,0,21.536-9.661,21.536-21.536V35.876C44.526,24.001,34.865,14.34,22.99,14.34z M28.592,476.123  c0,3.089-2.513,5.602-5.602,5.602h-1.453c-3.089,0-5.602-2.513-5.602-5.602V35.765c0-3.028,2.463-5.492,5.492-5.492h1.565  c3.089,0,5.602,2.513,5.602,5.602v440.248H28.592z"/>
<g>
</g>
<g>
</g>
<g>
</g>
<g>
</g>
<g>
</g>
<g>
</g>
<g>
</g>
<g>
</g>
<g>
</g>
<g>
</g>
<g>
</g>
<g>
</g>
<g>
</g>
<g>
</g>
<g>
</g>
</svg>
