<?xml version="1.0" encoding="iso-8859-1"?>
<!-- Generator: Adobe Illustrator 19.0.0, SVG Export Plug-In . SVG Version: 6.00 Build 0)  -->
<svg xmlns="http://www.w3.org/2000/svg" xmlns:xlink="http://www.w3.org/1999/xlink" version="1.1" id="Layer_1" x="0px" y="0px" viewBox="0 0 512 512" style="enable-background:new 0 0 512 512;" xml:space="preserve">
<path style="fill:#FFFFFF;" d="M342.488,350.265V57.471H203.796v208.038c0,4.255-3.449,7.705-7.705,7.705v15.41  c4.256,0,7.705,3.45,7.705,7.705v53.936h138.692V350.265z"/>
<rect x="357.901" y="57.473" style="fill:#FF7900;" width="138.697" height="292.795"/>
<path style="fill:#259245;" d="M188.386,265.509V57.471H49.694v292.793h138.692v-53.936c0-4.255,3.449-7.705,7.706-7.705v-15.41  C191.835,273.214,188.386,269.764,188.386,265.509z"/>
<path d="M504.295,42.061H41.989c-4.256,0-7.705,3.45-7.705,7.705V357.97c0,4.255,3.449,7.705,7.705,7.705h462.306  c4.256,0,7.705-3.45,7.705-7.705V49.766C512,45.511,508.551,42.061,504.295,42.061z M496.59,350.265H357.897V57.471H496.59V350.265z   M196.091,288.624c-4.257,0-7.706,3.45-7.706,7.705v53.936H49.694V57.471h138.692v208.038c0,4.255,3.449,7.705,7.706,7.705  c4.256,0,7.705-3.45,7.705-7.705V57.471h138.692v292.793H203.796v-53.936C203.796,292.074,200.347,288.624,196.091,288.624z"/>
<path style="fill:#2E3033;" d="M21.055,482.921c-6.456,0-11.708-5.253-11.708-11.708V40.68c0-6.396,5.204-11.6,11.6-11.6h1.53  c6.457,0,11.708,5.253,11.708,11.708v430.424c0,6.457-5.253,11.708-11.708,11.708h-1.422V482.921z"/>
<path d="M22.477,19.732h-1.53C9.397,19.732,0,29.129,0,40.68v430.533c0,11.61,9.446,21.055,21.055,21.055h1.421  c11.611,0,21.055-9.446,21.055-21.055V40.788C43.532,29.178,34.087,19.732,22.477,19.732z M27.954,471.212  c0,3.02-2.457,5.477-5.477,5.477h-1.421c-3.02,0-5.477-2.457-5.477-5.477V40.68c0-2.961,2.408-5.369,5.369-5.369h1.53  c3.02,0,5.477,2.457,5.477,5.477v430.425H27.954z"/>
<g>
</g>
<g>
</g>
<g>
</g>
<g>
</g>
<g>
</g>
<g>
</g>
<g>
</g>
<g>
</g>
<g>
</g>
<g>
</g>
<g>
</g>
<g>
</g>
<g>
</g>
<g>
</g>
<g>
</g>
</svg>
