<?xml version="1.0" encoding="iso-8859-1"?>
<!-- Generator: Adobe Illustrator 19.0.0, SVG Export Plug-In . SVG Version: 6.00 Build 0)  -->
<svg xmlns="http://www.w3.org/2000/svg" xmlns:xlink="http://www.w3.org/1999/xlink" version="1.1" id="Layer_1" x="0px" y="0px" viewBox="0 0 512 512" style="enable-background:new 0 0 512 512;" xml:space="preserve">
<path style="fill:#FFFFFF;" d="M135.976,247.565h360.677v-86.972H51.562v86.972h53.718c4.239,0,7.674,3.435,7.674,7.674h15.348  C128.302,251,131.737,247.565,135.976,247.565z M293.548,202.371c0-4.238,3.435-7.674,7.675-7.674c4.239,0,7.674,3.436,7.674,7.674  v7.379h7.162v-26.136c0-4.238,3.435-7.674,7.675-7.674c4.239,0,7.674,3.436,7.674,7.674v26.136h7.163v-11.09  c0-4.238,3.435-7.674,7.674-7.674c4.239,0,7.674,3.436,7.674,7.674v11.09h7.674c4.24,0,7.675,3.436,7.675,7.674  c0,4.239-3.435,7.674-7.675,7.674h-60.367c-4.24,0-7.675-3.436-7.675-7.674v-15.053H293.548z M178.95,217.424  c0-4.238,3.436-7.674,7.674-7.674h40.416v-25.821c0-4.239,3.436-7.674,7.674-7.674c4.238,0,7.674,3.435,7.674,7.674v25.821h7.163  v-18.4c0-4.238,3.435-7.674,7.674-7.674s7.674,3.436,7.674,7.674v26.074c0,4.239-3.435,7.674-7.674,7.674h-62.946  c-0.284,3.979-3.603,7.117-7.654,7.117c-4.238,0-7.674-3.435-7.674-7.674L178.95,217.424L178.95,217.424z"/>
<rect x="51.562" y="58.275" style="fill:#ED1F34;" width="445.088" height="86.968"/>
<path style="fill:#333333;" d="M135.976,262.913c-4.239,0-7.674-3.435-7.674-7.674h-15.348c0,4.239-3.435,7.674-7.674,7.674H51.562  v86.972h445.09v-86.972H135.976z"/>
<path d="M504.326,42.925H43.888c-4.238,0-7.674,3.436-7.674,7.674v306.959c0,4.239,3.436,7.674,7.674,7.674h460.438  c4.239,0,7.674-3.436,7.674-7.674V50.599C512,46.361,508.565,42.925,504.326,42.925z M496.652,58.273v86.971H51.562V58.273H496.652z   M51.562,349.884v-86.972h53.718c4.239,0,7.674-3.435,7.674-7.674c0-4.239-3.435-7.674-7.674-7.674H51.562v-86.972h445.09v86.972  H135.976c-4.239,0-7.674,3.435-7.674,7.674c0,4.239,3.436,7.674,7.674,7.674h360.677v86.972H51.562z"/>
<g>
	<path style="fill:#259245;" d="M186.623,232.216c4.052,0,7.37-3.139,7.654-7.117h62.946c4.239,0,7.674-3.436,7.674-7.674v-26.074   c0-4.238-3.435-7.674-7.674-7.674c-4.239,0-7.674,3.436-7.674,7.674v18.4h-7.163V183.93c0-4.239-3.436-7.674-7.674-7.674   c-4.239,0-7.674,3.435-7.674,7.674v25.821h-40.416c-4.238,0-7.674,3.436-7.674,7.674v7.118   C178.95,228.781,182.386,232.216,186.623,232.216z"/>
	<path style="fill:#259245;" d="M301.223,225.099h60.367c4.24,0,7.675-3.436,7.675-7.674s-3.435-7.674-7.675-7.674h-7.674v-11.09   c0-4.238-3.435-7.674-7.674-7.674s-7.674,3.436-7.674,7.674v11.09h-7.163v-26.136c0-4.238-3.435-7.674-7.674-7.674   c-4.24,0-7.675,3.436-7.675,7.674v26.136h-7.162v-7.379c0-4.238-3.435-7.674-7.674-7.674c-4.24,0-7.675,3.436-7.675,7.674v15.053   C293.548,221.663,296.983,225.099,301.223,225.099z"/>
</g>
<path style="fill:#2E3033;" d="M20.97,482.004c-6.429,0-11.661-5.232-11.661-11.661V41.55c0-6.371,5.183-11.554,11.554-11.554h1.524  c6.431,0,11.661,5.232,11.661,11.661v428.685c0,6.431-5.232,11.661-11.661,11.661H20.97V482.004z"/>
<path d="M22.386,20.687h-1.524C9.359,20.687,0,30.046,0,41.55v428.793c0,11.563,9.407,20.97,20.97,20.97h1.415  c11.564,0,20.97-9.407,20.97-20.97V41.657C43.357,30.094,33.949,20.687,22.386,20.687z M27.841,470.343  c0,3.008-2.447,5.455-5.455,5.455h-1.415c-3.008,0-5.455-2.447-5.455-5.455V41.55c0-2.949,2.399-5.348,5.348-5.348h1.524  c3.008,0,5.455,2.447,5.455,5.455v428.686H27.841z"/>
<g>
</g>
<g>
</g>
<g>
</g>
<g>
</g>
<g>
</g>
<g>
</g>
<g>
</g>
<g>
</g>
<g>
</g>
<g>
</g>
<g>
</g>
<g>
</g>
<g>
</g>
<g>
</g>
<g>
</g>
</svg>
