<?xml version="1.0" encoding="iso-8859-1"?>
<!-- Generator: Adobe Illustrator 19.0.0, SVG Export Plug-In . SVG Version: 6.00 Build 0)  -->
<svg xmlns="http://www.w3.org/2000/svg" xmlns:xlink="http://www.w3.org/1999/xlink" version="1.1" id="Layer_1" x="0px" y="0px" viewBox="0 0 512 512" style="enable-background:new 0 0 512 512;" xml:space="preserve">
<path style="fill:#ED1F34;" d="M295.466,175.304c-3.177-2.805-8.029-2.503-10.833,0.673c-2.806,3.178-2.503,8.027,0.673,10.832  c3.645,3.218,5.735,7.848,5.735,12.704c0,6.575-3.773,12.275-9.263,15.079v-19.599c0-4.238-3.435-7.674-7.674-7.674  s-7.674,3.436-7.674,7.674v19.599c-5.489-2.804-9.263-8.503-9.263-15.079c0-4.856,2.09-9.486,5.735-12.704  c3.176-2.805,3.479-7.654,0.672-10.832c-2.805-3.178-7.654-3.479-10.832-0.673c-6.944,6.13-10.926,14.954-10.926,24.21  c0,15.234,10.609,28.028,24.824,31.405c0.801,3.382,3.832,5.902,7.461,5.902c3.627,0,6.659-2.52,7.46-5.902  c14.216-3.377,24.825-16.171,24.825-31.405C306.392,190.257,302.41,181.433,295.466,175.304z"/>
<path style="fill:#259245;" d="M51.562,152.918h20.07v-3.069c0-4.239,3.435-7.674,7.674-7.674s7.674,3.436,7.674,7.674v3.069h20.07  v-3.069c0-4.239,3.435-7.674,7.674-7.674s7.674,3.436,7.674,7.674v3.069h20.07v-3.069c0-4.239,3.435-7.674,7.674-7.674  c4.239,0,7.674,3.436,7.674,7.674v3.069h20.071v-3.069c0-4.239,3.435-7.674,7.674-7.674c4.239,0,7.674,3.436,7.674,7.674v3.069  h20.07v-3.069c0-4.239,3.435-7.674,7.674-7.674c4.239,0,7.674,3.436,7.674,7.674v3.069h20.07v-3.069  c0-4.239,3.435-7.674,7.674-7.674c4.239,0,7.674,3.436,7.674,7.674v3.069h20.069v-3.069c0-4.239,3.436-7.674,7.675-7.674  c4.239,0,7.674,3.436,7.674,7.674v3.069h20.07v-3.069c0-4.239,3.435-7.674,7.674-7.674c4.239,0,7.674,3.436,7.674,7.674v3.069h20.07  v-3.069c0-4.239,3.435-7.674,7.674-7.674s7.674,3.436,7.674,7.674v3.069h20.071v-3.069c0-4.239,3.434-7.674,7.674-7.674  c4.239,0,7.674,3.436,7.674,7.674v3.069h20.07v-3.069c0-4.239,3.434-7.674,7.674-7.674c4.239,0,7.674,3.436,7.674,7.674v3.069h20.07  v-3.069c0-4.239,3.434-7.674,7.674-7.674c4.239,0,7.674,3.436,7.674,7.674v3.069h20.07V58.273H51.562V152.918z"/>
<path style="fill:#ED1F34;" d="M476.582,258.308c0,4.239-3.435,7.674-7.674,7.674c-4.24,0-7.674-3.435-7.674-7.674v-3.07h-20.07  v3.07c0,4.239-3.435,7.674-7.674,7.674c-4.24,0-7.674-3.435-7.674-7.674v-3.07h-20.07v3.07c0,4.239-3.435,7.674-7.674,7.674  c-4.24,0-7.674-3.435-7.674-7.674v-3.07h-20.072v3.07c0,4.239-3.435,7.674-7.674,7.674s-7.674-3.435-7.674-7.674v-3.07h-20.07v3.07  c0,4.239-3.435,7.674-7.674,7.674c-4.239,0-7.674-3.435-7.674-7.674v-3.07h-20.07v3.07c0,4.239-3.435,7.674-7.674,7.674  c-4.239,0-7.675-3.435-7.675-7.674v-3.07h-20.069v3.07c0,4.239-3.435,7.674-7.674,7.674s-7.674-3.435-7.674-7.674v-3.07h-20.07v3.07  c0,4.239-3.435,7.674-7.674,7.674c-4.239,0-7.674-3.435-7.674-7.674v-3.07h-20.07v3.07c0,4.239-3.435,7.674-7.674,7.674  c-4.239,0-7.674-3.435-7.674-7.674v-3.07h-20.071v3.07c0,4.239-3.435,7.674-7.674,7.674c-4.239,0-7.674-3.435-7.674-7.674v-3.07  h-20.07v3.07c0,4.239-3.435,7.674-7.674,7.674s-7.674-3.435-7.674-7.674v-3.07H86.98v3.07c0,4.239-3.435,7.674-7.674,7.674  s-7.674-3.435-7.674-7.674v-3.07h-20.07v94.646h445.091v-94.646h-20.07v3.07H476.582z"/>
<path style="fill:#FFFFFF;" d="M476.582,149.849c0-4.239-3.435-7.674-7.674-7.674c-4.24,0-7.674,3.436-7.674,7.674v3.069h-20.07  v-3.069c0-4.239-3.435-7.674-7.674-7.674c-4.24,0-7.674,3.436-7.674,7.674v3.069h-20.07v-3.069c0-4.239-3.435-7.674-7.674-7.674  c-4.24,0-7.674,3.436-7.674,7.674v3.069h-20.072v-3.069c0-4.239-3.435-7.674-7.674-7.674s-7.674,3.436-7.674,7.674v3.069h-20.07  v-3.069c0-4.239-3.435-7.674-7.674-7.674c-4.239,0-7.674,3.436-7.674,7.674v3.069h-20.07v-3.069c0-4.239-3.435-7.674-7.674-7.674  c-4.239,0-7.675,3.436-7.675,7.674v3.069h-20.069v-3.069c0-4.239-3.435-7.674-7.674-7.674s-7.674,3.436-7.674,7.674v3.069h-20.07  v-3.069c0-4.239-3.435-7.674-7.674-7.674c-4.239,0-7.674,3.436-7.674,7.674v3.069h-20.07v-3.069c0-4.239-3.435-7.674-7.674-7.674  c-4.239,0-7.674,3.436-7.674,7.674v3.069h-20.071v-3.069c0-4.239-3.435-7.674-7.674-7.674c-4.239,0-7.674,3.436-7.674,7.674v3.069  h-20.07v-3.069c0-4.239-3.435-7.674-7.674-7.674s-7.674,3.436-7.674,7.674v3.069H86.98v-3.069c0-4.239-3.435-7.674-7.674-7.674  s-7.674,3.436-7.674,7.674v3.069h-20.07v102.319h20.07v3.07c0,4.239,3.435,7.674,7.674,7.674s7.674-3.435,7.674-7.674v-3.07h20.07  v3.07c0,4.239,3.435,7.674,7.674,7.674s7.674-3.435,7.674-7.674v-3.07h20.07v3.07c0,4.239,3.435,7.674,7.674,7.674  c4.239,0,7.674-3.435,7.674-7.674v-3.07h20.071v3.07c0,4.239,3.435,7.674,7.674,7.674c4.239,0,7.674-3.435,7.674-7.674v-3.07h20.07  v3.07c0,4.239,3.435,7.674,7.674,7.674c4.239,0,7.674-3.435,7.674-7.674v-3.07h20.07v3.07c0,4.239,3.435,7.674,7.674,7.674  c4.239,0,7.674-3.435,7.674-7.674v-3.07h20.069v3.07c0,4.239,3.436,7.674,7.675,7.674c4.239,0,7.674-3.435,7.674-7.674v-3.07h20.07  v3.07c0,4.239,3.435,7.674,7.674,7.674c4.239,0,7.674-3.435,7.674-7.674v-3.07h20.07v3.07c0,4.239,3.435,7.674,7.674,7.674  s7.674-3.435,7.674-7.674v-3.07h20.071v3.07c0,4.239,3.434,7.674,7.674,7.674c4.239,0,7.674-3.435,7.674-7.674v-3.07h20.07v3.07  c0,4.239,3.434,7.674,7.674,7.674c4.239,0,7.674-3.435,7.674-7.674v-3.07h20.07v3.07c0,4.239,3.434,7.674,7.674,7.674  c4.239,0,7.674-3.435,7.674-7.674v-3.07h20.07V152.918h-20.07v-3.069H476.582z M281.567,230.918c-0.8,3.382-3.832,5.902-7.46,5.902  c-3.628,0-6.659-2.52-7.461-5.902c-14.215-3.377-24.824-16.171-24.824-31.405c0-9.256,3.982-18.08,10.926-24.21  c3.176-2.805,8.027-2.503,10.832,0.673c2.806,3.178,2.504,8.027-0.672,10.832c-3.645,3.218-5.735,7.848-5.735,12.704  c0,6.575,3.773,12.275,9.263,15.079v-19.599c0-4.238,3.435-7.674,7.674-7.674s7.674,3.436,7.674,7.674v19.599  c5.489-2.804,9.263-8.503,9.263-15.079c0-4.856-2.09-9.486-5.735-12.704c-3.176-2.805-3.48-7.654-0.673-10.832  c2.804-3.176,7.654-3.479,10.833-0.673c6.944,6.13,10.926,14.954,10.926,24.21C306.392,214.747,295.783,227.541,281.567,230.918z"/>
<path d="M504.326,42.925H43.888c-4.239,0-7.674,3.436-7.674,7.674v306.959c0,4.239,3.435,7.674,7.674,7.674h460.438  c4.239,0,7.674-3.436,7.674-7.674V50.599C512,46.361,508.565,42.925,504.326,42.925z M496.652,152.918v102.319v94.646H51.562  v-94.646V152.918V58.273h445.091v94.646H496.652z"/>
<path style="fill:#2E3033;" d="M20.97,482.004c-6.429,0-11.661-5.232-11.661-11.661V41.55c0-6.371,5.183-11.554,11.554-11.554h1.524  c6.431,0,11.661,5.232,11.661,11.661v428.685c0,6.431-5.232,11.661-11.661,11.661H20.97V482.004z"/>
<path d="M22.386,20.687h-1.524C9.359,20.687,0,30.046,0,41.55v428.793c0,11.563,9.407,20.97,20.97,20.97h1.415  c11.564,0,20.97-9.407,20.97-20.97V41.657C43.357,30.094,33.949,20.687,22.386,20.687z M27.841,470.343  c0,3.008-2.447,5.455-5.455,5.455h-1.415c-3.008,0-5.455-2.447-5.455-5.455V41.55c0-2.949,2.399-5.348,5.348-5.348h1.524  c3.008,0,5.455,2.447,5.455,5.455v428.686H27.841z"/>
<g>
</g>
<g>
</g>
<g>
</g>
<g>
</g>
<g>
</g>
<g>
</g>
<g>
</g>
<g>
</g>
<g>
</g>
<g>
</g>
<g>
</g>
<g>
</g>
<g>
</g>
<g>
</g>
<g>
</g>
</svg>
