<?xml version="1.0" encoding="iso-8859-1"?>
<!-- Generator: Adobe Illustrator 19.0.0, SVG Export Plug-In . SVG Version: 6.00 Build 0)  -->
<svg xmlns="http://www.w3.org/2000/svg" xmlns:xlink="http://www.w3.org/1999/xlink" version="1.1" id="Layer_1" x="0px" y="0px" viewBox="0 0 512 512" style="enable-background:new 0 0 512 512;" xml:space="preserve">
<g>
	<path style="fill:#FFFFFF;" d="M274.107,216.869c7.052,0,12.79-5.738,12.79-12.79c0-7.052-5.737-12.79-12.79-12.79   s-12.79,5.738-12.79,12.79C261.318,211.131,267.055,216.869,274.107,216.869z"/>
	<path style="fill:#FFFFFF;" d="M74.583,160.593H51.562v86.972h445.09v-86.972H105.28c-4.239,0-7.674-3.436-7.674-7.674H82.257   C82.257,157.157,78.822,160.593,74.583,160.593z M274.107,175.941c15.515,0,28.138,12.623,28.138,28.138   s-12.623,28.137-28.138,28.137c-15.515,0-28.138-12.622-28.138-28.137S258.591,175.941,274.107,175.941z"/>
</g>
<path style="fill:#164FCE;" d="M274.107,232.216c15.515,0,28.138-12.622,28.138-28.137s-12.623-28.138-28.138-28.138  c-15.515,0-28.138,12.623-28.138,28.138S258.591,232.216,274.107,232.216z M274.107,191.289c7.052,0,12.79,5.738,12.79,12.79  c0,7.052-5.737,12.79-12.79,12.79s-12.79-5.738-12.79-12.79C261.318,197.027,267.055,191.289,274.107,191.289z"/>
<path style="fill:#FF7900;" d="M74.583,145.245c4.239,0,7.674,3.436,7.674,7.674h15.348c0-4.238,3.436-7.674,7.674-7.674H496.65  V58.273H51.562v86.972H74.583z"/>
<rect x="51.562" y="262.909" style="fill:#259245;" width="445.088" height="86.968"/>
<path d="M504.326,42.925H43.888c-4.238,0-7.674,3.436-7.674,7.674v306.959c0,4.238,3.436,7.674,7.674,7.674h460.438  c4.239,0,7.674-3.436,7.674-7.674V50.599C512,46.361,508.564,42.925,504.326,42.925z M496.652,58.273v86.972H105.28  c-4.239,0-7.674,3.436-7.674,7.674c0,4.239,3.436,7.674,7.674,7.674h391.372v86.972H51.562v-86.972h23.021  c4.239,0,7.674-3.436,7.674-7.674s-3.435-7.674-7.674-7.674H51.562V58.273H496.652z M51.562,349.884v-86.972h445.09v86.972H51.562z"/>
<path style="fill:#2E3033;" d="M20.97,482.004c-6.429,0-11.661-5.232-11.661-11.661V41.55c0-6.371,5.183-11.554,11.554-11.554h1.524  c6.431,0,11.661,5.232,11.661,11.661v428.685c0,6.431-5.232,11.661-11.661,11.661H20.97V482.004z"/>
<path d="M22.386,20.687h-1.524C9.359,20.687,0,30.046,0,41.55v428.793c0,11.563,9.407,20.97,20.97,20.97h1.415  c11.564,0,20.97-9.407,20.97-20.97V41.657C43.357,30.094,33.949,20.687,22.386,20.687z M27.841,470.343  c0,3.008-2.447,5.455-5.455,5.455h-1.415c-3.008,0-5.455-2.447-5.455-5.455V41.55c0-2.949,2.399-5.348,5.348-5.348h1.524  c3.008,0,5.455,2.447,5.455,5.455v428.686H27.841z"/>
<g>
</g>
<g>
</g>
<g>
</g>
<g>
</g>
<g>
</g>
<g>
</g>
<g>
</g>
<g>
</g>
<g>
</g>
<g>
</g>
<g>
</g>
<g>
</g>
<g>
</g>
<g>
</g>
<g>
</g>
</svg>
