<?xml version="1.0" encoding="iso-8859-1"?>
<!-- Generator: Adobe Illustrator 19.0.0, SVG Export Plug-In . SVG Version: 6.00 Build 0)  -->
<svg xmlns="http://www.w3.org/2000/svg" xmlns:xlink="http://www.w3.org/1999/xlink" version="1.1" id="Layer_1" x="0px" y="0px" viewBox="0 0 511.999 511.999" style="enable-background:new 0 0 511.999 511.999;" xml:space="preserve">
<g>
	<rect x="50.619" y="245.5" style="fill:#164FCE;" width="124.974" height="104.577"/>
	<rect x="50.619" y="57.873" style="fill:#164FCE;" width="124.974" height="104.577"/>
	<rect x="258.643" y="57.873" style="fill:#164FCE;" width="237.976" height="104.577"/>
	<rect x="258.643" y="245.5" style="fill:#164FCE;" width="237.976" height="104.577"/>
</g>
<g>
	<path style="fill:#FFFFFF;" d="M258.643,245.501H496.62v-11.535h-53.828c-4.246,0-7.689-3.443-7.689-7.69h-15.38   c0,4.247-3.443,7.69-7.689,7.69H247.107v116.114h11.535v-104.58H258.643z"/>
	<polygon style="fill:#FFFFFF;" points="175.593,350.081 187.129,350.081 187.129,233.967 50.619,233.967 50.619,245.501    175.593,245.501  "/>
	<polygon style="fill:#FFFFFF;" points="258.643,57.873 247.107,57.873 247.107,173.987 496.62,173.987 496.62,162.453    258.643,162.453  "/>
	<polygon style="fill:#FFFFFF;" points="175.593,162.453 50.619,162.453 50.619,173.987 187.129,173.987 187.129,57.873    175.593,57.873  "/>
</g>
<path style="fill:#ED1F34;" d="M442.793,218.587h53.828v-29.22H239.419c-4.247,0-7.689-3.443-7.689-7.69V57.873h-29.221v123.803  c0,4.247-3.443,7.69-7.689,7.69H50.619v29.22h144.2c4.246,0,7.689,3.443,7.689,7.689v123.805h29.221V226.277  c0-4.246,3.443-7.689,7.689-7.689h172.616c4.247,0,7.689,3.443,7.689,7.689h15.38C435.104,222.03,438.546,218.587,442.793,218.587z"/>
<path d="M504.311,42.493H42.928c-4.246,0-7.689,3.443-7.689,7.689V357.77c0,4.247,3.443,7.689,7.689,7.689H504.31  c4.247,0,7.689-3.443,7.689-7.689V50.183C512,45.936,508.557,42.493,504.311,42.493z M496.62,162.453v11.535H247.107V57.873h11.535  h237.977v104.58H496.62z M187.129,173.987H50.619v-11.535V57.873h124.975h11.535v116.114H187.129z M50.619,245.501v-11.535h136.51  v116.114h-11.536H50.619V245.501z M247.107,233.967h164.926c4.247,0,7.689-3.443,7.689-7.69c0-4.246-3.443-7.689-7.689-7.689  H239.418c-4.247,0-7.689,3.443-7.689,7.689v123.805h-29.221V226.277c0-4.246-3.443-7.689-7.689-7.689h-144.2v-29.22h144.2  c4.246,0,7.689-3.443,7.689-7.69V57.873h29.221v123.803c0,4.247,3.443,7.69,7.689,7.69H496.62v29.22h-53.828  c-4.246,0-7.689,3.443-7.689,7.689c0,4.247,3.443,7.69,7.689,7.69h53.828v11.535v104.58H258.643h-11.536V233.967z"/>
<path style="fill:#2E3033;" d="M21.013,482.461c-6.442,0-11.685-5.242-11.685-11.685V41.115c0-6.383,5.194-11.577,11.577-11.577  h1.527c6.444,0,11.685,5.242,11.685,11.685v429.552c0,6.444-5.242,11.685-11.685,11.685h-1.419V482.461z"/>
<path d="M22.432,20.21h-1.527C9.378,20.21,0,29.588,0,41.115v429.661c0,11.587,9.426,21.013,21.013,21.013h1.418  c11.587,0,21.013-9.426,21.013-21.013V41.223C43.444,29.636,34.018,20.21,22.432,20.21z M27.898,470.776  c0,3.014-2.452,5.466-5.466,5.466h-1.418c-3.014,0-5.466-2.452-5.466-5.466V41.115c0-2.955,2.403-5.358,5.358-5.358h1.527  c3.014,0,5.466,2.452,5.466,5.466v429.554H27.898z"/>
<g>
</g>
<g>
</g>
<g>
</g>
<g>
</g>
<g>
</g>
<g>
</g>
<g>
</g>
<g>
</g>
<g>
</g>
<g>
</g>
<g>
</g>
<g>
</g>
<g>
</g>
<g>
</g>
<g>
</g>
</svg>
