<?xml version="1.0" encoding="iso-8859-1"?>
<!-- Generator: Adobe Illustrator 19.0.0, SVG Export Plug-In . SVG Version: 6.00 Build 0)  -->
<svg xmlns="http://www.w3.org/2000/svg" xmlns:xlink="http://www.w3.org/1999/xlink" version="1.1" id="Layer_1" x="0px" y="0px" viewBox="0 0 512 512" style="enable-background:new 0 0 512 512;" xml:space="preserve">
<path style="fill:#FFFFFF;" d="M135.215,247.548h361.407V160.4H50.63v87.148h53.827c4.247,0,7.689,3.442,7.689,7.689h15.379  C127.524,250.99,130.967,247.548,135.215,247.548z"/>
<path style="fill:#259245;" d="M135.215,262.927c-4.247,0-7.69-3.442-7.69-7.689h-15.379c0,4.247-3.442,7.689-7.689,7.689H50.63  v87.148h445.992v-87.148H135.215z"/>
<rect x="50.63" y="57.873" style="fill:#ED1F34;" width="445.989" height="87.144"/>
<path d="M504.311,42.494H42.941c-4.247,0-7.689,3.443-7.689,7.689v307.58c0,4.246,3.442,7.689,7.689,7.689h461.37  c4.247,0,7.689-3.443,7.689-7.689V50.183C512,45.937,508.558,42.494,504.311,42.494z M496.621,57.873v87.148H50.63V57.873H496.621z   M50.63,350.074v-87.148h53.827c4.247,0,7.689-3.442,7.689-7.689c0-4.247-3.442-7.689-7.689-7.689H50.63V160.4h445.992v87.148  H135.215c-4.247,0-7.69,3.442-7.69,7.689c0,4.247,3.443,7.689,7.69,7.689h361.407v87.148H50.63z"/>
<path style="fill:#2E3033;" d="M21.013,482.462c-6.442,0-11.685-5.242-11.685-11.685V41.115c0-6.383,5.194-11.577,11.577-11.577  h1.527c6.444,0,11.685,5.242,11.685,11.685v429.552c0,6.444-5.242,11.685-11.685,11.685h-1.419V482.462z"/>
<path d="M22.432,20.211h-1.527C9.378,20.211,0,29.588,0,41.115v429.661c0,11.587,9.426,21.013,21.013,21.013h1.418  c11.587,0,21.013-9.426,21.013-21.013V41.223C43.444,29.637,34.018,20.211,22.432,20.211z M27.898,470.777  c0,3.014-2.452,5.466-5.466,5.466h-1.418c-3.014,0-5.466-2.452-5.466-5.466V41.115c0-2.955,2.403-5.358,5.358-5.358h1.527  c3.014,0,5.466,2.452,5.466,5.466v429.553H27.898z"/>
<g>
</g>
<g>
</g>
<g>
</g>
<g>
</g>
<g>
</g>
<g>
</g>
<g>
</g>
<g>
</g>
<g>
</g>
<g>
</g>
<g>
</g>
<g>
</g>
<g>
</g>
<g>
</g>
<g>
</g>
</svg>
