<?xml version="1.0" encoding="iso-8859-1"?>
<!-- Generator: Adobe Illustrator 19.0.0, SVG Export Plug-In . SVG Version: 6.00 Build 0)  -->
<svg xmlns="http://www.w3.org/2000/svg" xmlns:xlink="http://www.w3.org/1999/xlink" version="1.1" id="Layer_1" x="0px" y="0px" viewBox="0 0 512 512" style="enable-background:new 0 0 512 512;" xml:space="preserve">
<path style="fill:#ED1F34;" d="M409.546,52.941H39.132v299.484h457.106V52.941h-55.169c-4.353,0-7.881-3.528-7.881-7.881h-15.763  C417.427,49.413,413.898,52.941,409.546,52.941z M276.439,92.458c4.354,0,7.882,3.528,7.882,7.881v14.461  c8.13,5.338,13.154,14.436,13.154,24.419c0,9.983-5.023,19.081-13.154,24.419v14.46c0,4.354-3.528,7.882-7.882,7.882  c-25.784,0-46.761-20.977-46.761-46.761S250.655,92.458,276.439,92.458z M159.832,198.5c-5.67-11.13-6.668-23.801-2.809-35.679  c1.345-4.141,5.791-6.406,9.931-5.061l13.757,4.469c5.142-4.114,11.558-6.4,18.251-6.4c3.061,0,6.1,0.482,9.033,1.436  c9.495,3.085,16.595,10.673,19.16,20.056l13.754,4.469c4.14,1.345,6.405,5.791,5.059,9.931  c-6.282,19.332-24.151,32.322-44.464,32.322c-0.001,0,0,0-0.001,0c-4.898-0.001-9.762-0.774-14.457-2.3  C175.168,217.884,165.503,209.629,159.832,198.5z M252.357,287.79c-8.771,12.071-22.925,19.278-37.864,19.278  c-9.917,0-19.409-3.088-27.454-8.932c-1.691-1.228-2.826-3.078-3.152-5.143c-0.326-2.065,0.18-4.175,1.409-5.865l8.499-11.7  c-3.44-9.098-2.156-19.41,3.711-27.488c5.74-7.902,15.208-12.471,24.99-12.017l8.505-11.707c2.557-3.52,7.486-4.304,11.008-1.744  c10.105,7.342,16.747,18.179,18.7,30.515C262.666,265.325,259.698,277.685,252.357,287.79z M325.007,311.4  c-1.353,0.986-2.979,1.506-4.631,1.506c-0.411,0-0.821-0.032-1.232-0.098c-2.064-0.326-3.915-1.461-5.143-3.152l-8.506-11.707  c-0.442,0.021-0.884,0.031-1.325,0.031c-0.001,0-0.001,0-0.002,0c-9.336-0.001-18.182-4.504-23.662-12.046  c-5.869-8.078-7.151-18.391-3.711-27.488l-8.5-11.701c-1.229-1.69-1.736-3.8-1.409-5.865c0.327-2.065,1.461-3.915,3.152-5.143  c8.044-5.847,17.539-8.935,27.455-8.935c14.938,0,29.093,7.206,37.863,19.279C350.508,266.944,345.869,296.245,325.007,311.4z   M379.785,190.3c-0.95,1.862-2.598,3.271-4.587,3.918l-13.752,4.469c-2.566,9.382-9.665,16.971-19.161,20.056  c-2.932,0.952-5.971,1.436-9.032,1.436c-6.693,0-13.11-2.286-18.252-6.402l-13.757,4.471c-1.984,0.645-4.15,0.475-6.013-0.473  c-1.862-0.951-3.271-2.599-3.918-4.587c-7.967-24.523,5.501-50.957,30.023-58.924c4.695-1.526,9.559-2.3,14.457-2.3  c20.314,0,38.183,12.99,44.465,32.323C380.906,186.273,380.735,188.437,379.785,190.3z"/>
<path d="M504.118,37.178H441.07c-4.353,0-7.881,3.528-7.881,7.882c0,4.353,3.528,7.881,7.881,7.881h55.169v299.484H39.132V52.941  h370.414c4.353,0,7.881-3.528,7.881-7.881c0-4.354-3.528-7.882-7.881-7.882H31.25c-4.352,0-7.881,3.528-7.881,7.882v315.244  c0,4.353,3.529,7.882,7.881,7.882h472.868c4.354,0,7.882-3.529,7.882-7.882V45.06C512,40.706,508.472,37.178,504.118,37.178z"/>
<path style="fill:#FFFFFF;" d="M268.558,169.203v-10.268c0-3.182,1.914-6.052,4.851-7.276c5.042-2.1,8.301-6.983,8.301-12.44  c0-5.458-3.258-10.34-8.301-12.44c-2.938-1.223-4.851-4.094-4.851-7.276v-10.269c-13.29,3.495-23.118,15.613-23.118,29.985  S255.269,165.708,268.558,169.203z"/>
<path d="M276.439,185.981c4.354,0,7.882-3.528,7.882-7.882v-14.46c8.13-5.338,13.154-14.436,13.154-24.419  s-5.023-19.081-13.154-24.419v-14.462c0-4.353-3.528-7.881-7.882-7.881c-25.784,0-46.761,20.977-46.761,46.761  S250.655,185.981,276.439,185.981z M268.558,109.236v10.269c0,3.182,1.914,6.053,4.851,7.276c5.043,2.1,8.301,6.982,8.301,12.44  c0,5.457-3.259,10.34-8.301,12.44c-2.938,1.224-4.851,4.094-4.851,7.276v10.268c-13.29-3.495-23.118-15.612-23.118-29.984  S255.269,112.73,268.558,109.236z"/>
<path style="fill:#FFFFFF;" d="M191.917,206.752c3.12,1.013,6.346,1.528,9.588,1.528c10.757,0,20.482-5.498,26.08-14.247  l-9.774-3.176c-3.027-0.982-5.165-3.691-5.421-6.863c-0.439-5.444-4.075-10.051-9.265-11.739c-1.358-0.441-2.758-0.664-4.163-0.664  c-3.935,0-7.664,1.72-10.234,4.715c-2.071,2.417-5.391,3.352-8.418,2.368l-9.776-3.176c-0.32,5.429,0.806,10.87,3.341,15.847  C177.635,198.722,184.043,204.193,191.917,206.752z"/>
<path d="M201.504,224.042C201.505,224.042,201.504,224.042,201.504,224.042c20.314,0,38.183-12.99,44.465-32.322  c1.346-4.138-0.92-8.586-5.059-9.931l-13.754-4.469c-2.564-9.383-9.664-16.971-19.16-20.056c-2.933-0.953-5.972-1.436-9.033-1.436  c-6.693,0-13.109,2.286-18.251,6.4l-13.757-4.469c-4.14-1.347-8.586,0.919-9.931,5.061c-3.86,11.878-2.863,24.548,2.809,35.679  c5.671,11.129,15.336,19.384,27.215,23.243C191.742,223.269,196.606,224.041,201.504,224.042z M170.535,175.498l9.776,3.176  c3.027,0.986,6.348,0.05,8.418-2.368c2.57-2.996,6.3-4.715,10.234-4.715c1.405,0,2.805,0.223,4.163,0.664  c5.19,1.688,8.827,6.295,9.265,11.739c0.255,3.172,2.393,5.882,5.421,6.863l9.774,3.176c-5.599,8.749-15.323,14.247-26.08,14.247  c-3.242-0.001-6.468-0.514-9.588-1.528c-7.874-2.558-14.282-8.031-18.041-15.408C171.342,186.368,170.216,180.927,170.535,175.498z"/>
<path style="fill:#FFFFFF;" d="M245.143,255.454c-0.873-5.514-3.16-10.578-6.611-14.783l-6.042,8.314  c-1.871,2.575-5.104,3.771-8.202,3.034c-1.018-0.242-2.066-0.366-3.118-0.366c-4.372,0-8.349,2.023-10.911,5.55  c-3.208,4.417-3.442,10.283-0.596,14.945c1.658,2.717,1.519,6.163-0.352,8.738l-6.041,8.315c3.55,1.388,7.337,2.103,11.222,2.103  c9.909,0,19.297-4.778,25.111-12.78C244.472,271.825,246.439,263.633,245.143,255.454z"/>
<path d="M242.011,222.474c-3.521-2.56-8.451-1.777-11.008,1.744l-8.505,11.707c-9.782-0.455-19.25,4.114-24.99,12.017  c-5.868,8.077-7.151,18.389-3.711,27.488l-8.499,11.7c-1.229,1.691-1.736,3.801-1.409,5.865c0.327,2.064,1.461,3.915,3.152,5.143  c8.043,5.844,17.537,8.932,27.454,8.932c14.938,0,29.093-7.206,37.864-19.278c7.341-10.105,10.309-22.463,8.355-34.802  C258.759,240.653,252.116,229.816,242.011,222.474z M214.494,291.305c-3.885,0-7.672-0.716-11.222-2.103l6.041-8.315  c1.871-2.575,2.01-6.021,0.352-8.738c-2.847-4.663-2.612-10.528,0.596-14.945c2.562-3.527,6.539-5.55,10.911-5.55  c1.052,0,2.1,0.124,3.118,0.366c3.098,0.736,6.33-0.46,8.202-3.034l6.042-8.314c3.451,4.205,5.738,9.269,6.611,14.783  c1.296,8.178-0.671,16.371-5.539,23.071C233.79,286.527,224.403,291.305,214.494,291.305z"/>
<path style="fill:#FFFFFF;" d="M322.6,255.35c-5.815-8.003-15.203-12.781-25.111-12.781c-3.885,0-7.673,0.718-11.221,2.104  l6.042,8.314c1.871,2.575,2.01,6.023,0.351,8.739c-2.846,4.663-2.611,10.529,0.596,14.944c2.525,3.475,6.605,5.548,10.912,5.55  h0.001c1.049,0,2.099-0.124,3.116-0.366c0.607-0.144,1.219-0.215,1.826-0.215c2.487,0,4.872,1.179,6.376,3.249l6.037,8.307  C330.219,282.557,331.047,266.975,322.6,255.35z"/>
<path d="M297.49,226.806c-9.916,0-19.409,3.088-27.455,8.934c-1.691,1.228-2.824,3.077-3.152,5.143  c-0.327,2.064,0.18,4.175,1.409,5.865l8.5,11.701c-3.44,9.096-2.157,19.408,3.711,27.488c5.48,7.542,14.326,12.045,23.662,12.046  c0.001,0,0.001,0,0.002,0c0.441,0,0.883-0.011,1.325-0.031l8.506,11.707c1.228,1.691,3.078,2.826,5.143,3.152  c0.411,0.066,0.821,0.098,1.232,0.098c1.654,0,3.278-0.521,4.631-1.506c20.861-15.156,25.5-44.457,10.344-65.315  C326.582,234.013,312.427,226.806,297.49,226.806z M309.11,281.639c-0.605,0-1.218,0.07-1.826,0.215  c-1.017,0.242-2.065,0.366-3.116,0.366h-0.001c-4.308-0.002-8.387-2.076-10.912-5.55c-3.207-4.415-3.441-10.281-0.596-14.944  c1.659-2.716,1.52-6.164-0.351-8.739l-6.042-8.314c3.55-1.387,7.337-2.104,11.221-2.104c9.909,0,19.297,4.778,25.111,12.781  c8.447,11.625,7.618,27.207-1.079,37.846l-6.037-8.307C313.982,282.818,311.597,281.639,309.11,281.639z"/>
<path style="fill:#FFFFFF;" d="M335.793,167.726c-3.242,0-6.468,0.514-9.587,1.529c-13.667,4.44-22.154,17.533-21.372,31.251  l9.765-3.172c0.801-0.259,1.621-0.386,2.435-0.386c2.262,0,4.46,0.975,5.985,2.751c2.57,2.998,6.3,4.715,10.235,4.715  c1.404,0,2.806-0.223,4.162-0.664c5.191-1.686,8.828-6.295,9.266-11.739c0.256-3.173,2.393-5.881,5.422-6.863l9.773-3.176  C356.276,173.224,346.553,167.726,335.793,167.726z"/>
<path d="M335.793,151.964c-4.898,0-9.762,0.774-14.457,2.3c-24.522,7.967-37.99,34.401-30.023,58.924  c0.646,1.987,2.055,3.637,3.918,4.587c1.863,0.949,4.029,1.119,6.013,0.473l13.757-4.471c5.142,4.116,11.559,6.402,18.252,6.402  c3.061,0,6.1-0.483,9.032-1.436c9.495-3.085,16.594-10.674,19.161-20.056l13.752-4.469c1.989-0.646,3.638-2.055,4.587-3.918  c0.95-1.863,1.121-4.027,0.474-6.014C373.977,164.953,356.108,151.964,335.793,151.964z M346.68,192.013  c-0.438,5.444-4.075,10.053-9.266,11.739c-1.355,0.441-2.758,0.664-4.162,0.664c-3.935,0-7.665-1.718-10.235-4.715  c-1.524-1.776-3.723-2.751-5.985-2.751c-0.814,0-1.634,0.126-2.435,0.386l-9.765,3.172c-0.782-13.718,7.705-26.811,21.372-31.251  c3.12-1.014,6.346-1.529,9.587-1.529c10.759,0,20.482,5.498,26.081,14.247l-9.773,3.176  C349.074,186.132,346.936,188.839,346.68,192.013z"/>
<path style="fill:#2E3033;" d="M21.536,488.1c-6.603,0-11.976-5.373-11.976-11.976V35.766c0-6.542,5.323-11.865,11.865-11.865h1.565  c6.604,0,11.976,5.373,11.976,11.976v440.247c0,6.604-5.373,11.976-11.976,11.976h-1.454V488.1z"/>
<path d="M22.99,14.34h-1.565C9.611,14.34,0,23.951,0,35.766v440.358C0,488,9.661,497.66,21.536,497.66h1.453  c11.876,0,21.536-9.661,21.536-21.536V35.876C44.526,24.001,34.865,14.34,22.99,14.34z M28.592,476.124  c0,3.089-2.513,5.602-5.602,5.602h-1.453c-3.089,0-5.602-2.513-5.602-5.602V35.766c0-3.028,2.463-5.492,5.492-5.492h1.565  c3.089,0,5.602,2.513,5.602,5.602v440.248H28.592z"/>
<g>
</g>
<g>
</g>
<g>
</g>
<g>
</g>
<g>
</g>
<g>
</g>
<g>
</g>
<g>
</g>
<g>
</g>
<g>
</g>
<g>
</g>
<g>
</g>
<g>
</g>
<g>
</g>
<g>
</g>
</svg>
