<?xml version="1.0" encoding="iso-8859-1"?>
<!-- Generator: Adobe Illustrator 19.0.0, SVG Export Plug-In . SVG Version: 6.00 Build 0)  -->
<svg xmlns="http://www.w3.org/2000/svg" xmlns:xlink="http://www.w3.org/1999/xlink" version="1.1" id="Layer_1" x="0px" y="0px" viewBox="0 0 511.999 511.999" style="enable-background:new 0 0 511.999 511.999;" xml:space="preserve">
<path style="fill:#FFFFFF;" d="M135.205,247.553H496.62v-87.15H50.619v87.15h53.828c4.246,0,7.689,3.442,7.689,7.69h15.38  C127.515,250.995,130.958,247.553,135.205,247.553z M335.137,175.268c5.865,0,10.62,4.755,10.62,10.62  c0,5.865-4.755,10.619-10.62,10.619c-5.865,0-10.62-4.754-10.62-10.619C324.517,180.023,329.272,175.268,335.137,175.268z   M335.137,211.445c5.865,0,10.62,4.755,10.62,10.62c0,5.865-4.755,10.62-10.62,10.62c-5.865,0-10.62-4.755-10.62-10.62  C324.517,216.2,329.272,211.445,335.137,211.445z M273.619,193.358c5.865,0,10.62,4.753,10.62,10.619  c0,5.865-4.754,10.619-10.62,10.619s-10.62-4.754-10.62-10.619C262.999,198.11,267.754,193.358,273.619,193.358z M212.102,175.268  c5.865,0,10.62,4.755,10.62,10.62c0,5.865-4.754,10.619-10.62,10.619c-5.865,0-10.62-4.754-10.62-10.619  C201.481,180.023,206.236,175.268,212.102,175.268z M212.102,211.445c5.865,0,10.62,4.755,10.62,10.62  c0,5.865-4.754,10.62-10.62,10.62c-5.865,0-10.62-4.755-10.62-10.62C201.481,216.2,206.236,211.445,212.102,211.445z"/>
<g>
	<circle style="fill:#3DB4EA;" cx="212.107" cy="185.885" r="10.62"/>
	<circle style="fill:#3DB4EA;" cx="212.107" cy="222.067" r="10.62"/>
	<circle style="fill:#3DB4EA;" cx="335.142" cy="185.885" r="10.62"/>
	<circle style="fill:#3DB4EA;" cx="335.142" cy="222.067" r="10.62"/>
	<circle style="fill:#3DB4EA;" cx="273.619" cy="203.981" r="10.619"/>
	<path style="fill:#3DB4EA;" d="M135.205,262.931c-4.247,0-7.689-3.441-7.689-7.688h-15.38c0,4.247-3.443,7.688-7.689,7.688H50.619   v87.151H496.62v-87.151H135.205L135.205,262.931z"/>
	<rect x="50.619" y="57.873" style="fill:#3DB4EA;" width="446" height="87.154"/>
</g>
<path d="M504.311,42.493H42.928c-4.246,0-7.689,3.442-7.689,7.69V357.77c0,4.247,3.443,7.69,7.689,7.69H504.31  c4.247,0,7.689-3.443,7.689-7.69V50.184C512,45.935,508.557,42.493,504.311,42.493z M496.62,57.873v87.15H50.619v-87.15H496.62z   M50.619,350.081V262.93h53.828c4.246,0,7.689-3.441,7.689-7.688c0-4.248-3.443-7.69-7.689-7.69H50.619v-87.15H496.62v87.15H135.205  c-4.247,0-7.689,3.442-7.689,7.69c0,4.247,3.443,7.688,7.689,7.688H496.62v87.151H50.619z"/>
<path style="fill:#2E3033;" d="M21.013,482.461c-6.442,0-11.685-5.242-11.685-11.685V41.115c0-6.383,5.194-11.577,11.577-11.577  h1.527c6.444,0,11.685,5.242,11.685,11.685v429.552c0,6.444-5.242,11.685-11.685,11.685h-1.419V482.461z"/>
<path d="M22.432,20.21h-1.527C9.378,20.21,0,29.588,0,41.115v429.661c0,11.587,9.426,21.013,21.013,21.013h1.418  c11.587,0,21.013-9.426,21.013-21.013V41.223C43.444,29.636,34.018,20.21,22.432,20.21z M27.898,470.776  c0,3.014-2.452,5.466-5.466,5.466h-1.418c-3.014,0-5.466-2.452-5.466-5.466V41.115c0-2.955,2.403-5.358,5.358-5.358h1.527  c3.014,0,5.466,2.452,5.466,5.466v429.554H27.898z"/>
<g>
</g>
<g>
</g>
<g>
</g>
<g>
</g>
<g>
</g>
<g>
</g>
<g>
</g>
<g>
</g>
<g>
</g>
<g>
</g>
<g>
</g>
<g>
</g>
<g>
</g>
<g>
</g>
<g>
</g>
</svg>
