<?xml version="1.0" encoding="iso-8859-1"?>
<!-- Generator: Adobe Illustrator 19.0.0, SVG Export Plug-In . SVG Version: 6.00 Build 0)  -->
<svg xmlns="http://www.w3.org/2000/svg" xmlns:xlink="http://www.w3.org/1999/xlink" version="1.1" id="Layer_1" x="0px" y="0px" viewBox="0 0 512 512" style="enable-background:new 0 0 512 512;" xml:space="preserve">
<rect x="275.566" y="52.952" style="fill:#FFFFFF;" width="220.67" height="31.524"/>
<rect x="275.566" y="84.48" style="fill:#ED1F34;" width="220.67" height="39.409"/>
<rect x="275.566" y="123.879" style="fill:#103B9B;" width="220.67" height="39.409"/>
<rect x="275.566" y="163.288" style="fill:#FFFFFF;" width="220.67" height="39.409"/>
<path style="fill:#ED1F34;" d="M496.237,202.693H275.565l0,0c0,2.09-0.83,4.094-2.307,5.573c-1.48,1.479-3.483,2.308-5.574,2.308  l-228.553-0.005v31.53h457.106L496.237,202.693L496.237,202.693z"/>
<rect x="39.132" y="242.095" style="fill:#103B9B;" width="457.103" height="39.409"/>
<rect x="39.132" y="281.504" style="fill:#FFFFFF;" width="457.103" height="39.409"/>
<path style="fill:#ED1F34;" d="M472.594,352.433h23.643v-31.524H39.132v31.524H441.07c4.354,0,7.882,3.529,7.882,7.882h15.763  C464.713,355.962,468.241,352.433,472.594,352.433z"/>
<g>
	<polygon style="fill:#103B9B;" points="217.501,52.952 170.747,52.952 170.747,84.12  "/>
	<polygon style="fill:#103B9B;" points="259.803,75.898 219.747,102.602 259.803,102.602  "/>
	<polygon style="fill:#103B9B;" points="128.189,52.952 81.434,52.952 128.189,84.12  "/>
	<polygon style="fill:#103B9B;" points="39.132,75.898 39.132,102.602 79.188,102.602  "/>
	<polygon style="fill:#103B9B;" points="79.188,145.159 39.132,145.159 39.132,171.863  "/>
	<polygon style="fill:#103B9B;" points="259.803,171.863 259.803,145.159 219.748,145.159  "/>
	<polygon style="fill:#103B9B;" points="170.747,194.81 217.5,194.811 170.747,163.641  "/>
	<polygon style="fill:#103B9B;" points="81.439,194.808 128.189,194.81 128.189,163.641  "/>
</g>
<polygon style="fill:#FFFFFF;" points="259.803,75.898 259.803,52.952 255.863,52.952 181.386,102.602 170.747,102.602   170.747,92.651 230.29,52.952 217.501,52.952 170.747,84.12 170.747,52.952 160.895,52.952 160.895,112.453 259.803,112.453   259.803,102.602 219.747,102.602 "/>
<g>
	<polygon style="fill:#ED1F34;" points="91.812,102.602 117.549,102.602 43.073,52.952 39.132,52.952 39.132,67.398  "/>
	<polygon style="fill:#ED1F34;" points="170.747,92.651 170.747,102.602 181.386,102.602 255.863,52.952 230.29,52.952  "/>
	<polygon style="fill:#ED1F34;" points="128.189,155.116 128.189,145.159 117.549,145.159 43.079,194.808 68.653,194.808  "/>
	<polygon style="fill:#ED1F34;" points="206.56,145.159 181.386,145.159 255.863,194.811 259.803,194.811 259.803,180.739  "/>
</g>
<g>
	<polygon style="fill:#FFFFFF;" points="138.039,135.309 39.132,135.309 39.132,145.159 79.188,145.159 39.132,171.863    39.132,194.808 43.079,194.808 117.549,145.159 128.189,145.159 128.189,155.116 68.653,194.808 81.439,194.808 128.189,163.641    128.189,194.81 138.039,194.81  "/>
	<polygon style="fill:#FFFFFF;" points="138.039,112.453 138.039,52.952 128.189,52.952 128.189,84.12 81.434,52.952 43.073,52.952    117.549,102.602 91.812,102.602 39.132,67.398 39.132,75.898 79.188,102.602 39.132,102.602 39.132,112.453  "/>
	<polygon style="fill:#FFFFFF;" points="160.895,135.309 160.895,194.81 170.747,194.81 170.747,163.641 217.5,194.811    255.863,194.811 181.386,145.159 206.56,145.159 259.803,180.739 259.803,171.863 219.748,145.159 259.803,145.159    259.803,135.309  "/>
</g>
<polygon style="fill:#ED1F34;" points="160.895,112.453 160.895,52.952 138.039,52.952 138.039,112.453 39.132,112.453   39.132,135.309 138.039,135.309 138.039,194.81 160.895,194.81 160.895,135.309 259.803,135.309 259.803,112.453 "/>
<path d="M504.118,37.189H267.888c-0.068-0.002-0.135-0.011-0.203-0.011s-0.135,0.008-0.203,0.011H31.25  c-4.353,0-7.881,3.529-7.881,7.882v315.244c0,4.353,3.528,7.882,7.881,7.882h409.82c4.354,0,7.882-3.529,7.882-7.882l0,0  c0-4.353-3.528-7.882-7.882-7.882H39.132v-31.524v-39.405v-39.406v-31.531l228.553,0.005c2.09,0,4.094-0.83,5.574-2.308  c1.478-1.479,2.307-3.482,2.307-5.573l0,0v-39.407v-39.405V84.475V52.952h220.672v31.524v39.407v39.405v39.407v39.406v39.406v39.406  v31.524h-23.643c-4.354,0-7.881,3.529-7.881,7.882l0,0c0,4.353,3.527,7.882,7.881,7.882h31.524c4.354,0,7.882-3.529,7.882-7.882  V45.071C512,40.718,508.472,37.189,504.118,37.189z M259.803,112.453v22.856v9.85v26.704v8.876v14.072h-3.94H217.5l-46.753-0.002  h-9.851h-22.856h-9.85l-46.75-0.002H68.653H43.079h-3.947v-22.944v-26.704v-9.85v-22.856v-9.85V75.898v-8.5V52.952h3.941h38.361  h46.756h9.85h22.856h9.851h46.755h12.788h25.573h3.94v22.948v26.703V112.453z"/>
<path style="fill:#2E3033;" d="M21.536,488.1c-6.603,0-11.976-5.373-11.976-11.976V35.766c0-6.542,5.323-11.865,11.865-11.865h1.565  c6.604,0,11.976,5.373,11.976,11.976v440.247c0,6.604-5.373,11.976-11.976,11.976h-1.454V488.1z"/>
<path d="M22.99,14.34h-1.565C9.611,14.34,0,23.951,0,35.766v440.358C0,488,9.661,497.66,21.536,497.66h1.453  c11.876,0,21.536-9.661,21.536-21.536V35.876C44.526,24.001,34.865,14.34,22.99,14.34z M28.592,476.124  c0,3.089-2.513,5.602-5.602,5.602h-1.453c-3.089,0-5.602-2.513-5.602-5.602V35.766c0-3.028,2.463-5.492,5.492-5.492h1.565  c3.089,0,5.602,2.513,5.602,5.602v440.248H28.592z"/>
<g>
</g>
<g>
</g>
<g>
</g>
<g>
</g>
<g>
</g>
<g>
</g>
<g>
</g>
<g>
</g>
<g>
</g>
<g>
</g>
<g>
</g>
<g>
</g>
<g>
</g>
<g>
</g>
<g>
</g>
</svg>
