<?xml version="1.0" encoding="iso-8859-1"?>
<!-- Generator: Adobe Illustrator 19.0.0, SVG Export Plug-In . SVG Version: 6.00 Build 0)  -->
<svg xmlns="http://www.w3.org/2000/svg" xmlns:xlink="http://www.w3.org/1999/xlink" version="1.1" id="Layer_1" x="0px" y="0px" viewBox="0 0 511.999 511.999" style="enable-background:new 0 0 511.999 511.999;" xml:space="preserve">
<path style="fill:#ED1F34;" d="M442.933,211.757c-4.238,0-7.674-3.435-7.674-7.674H419.91c0,4.239-3.436,7.674-7.674,7.674H51.551  v138.136h445.101V211.757H442.933z"/>
<path style="fill:#164FCE;" d="M442.933,196.408h53.72V58.273H51.551v138.135h360.685c4.239,0,7.674,3.436,7.674,7.675h15.349  C435.259,199.844,438.694,196.408,442.933,196.408z"/>
<path d="M504.326,42.925H43.876c-4.238,0-7.674,3.435-7.674,7.675v306.965c0,4.239,3.436,7.675,7.674,7.675h460.449  c4.239,0,7.674-3.436,7.674-7.675V50.6C512,46.36,508.564,42.925,504.326,42.925z M51.551,349.891V211.757h360.685  c4.239,0,7.674-3.435,7.674-7.674c0-4.239-3.436-7.675-7.674-7.675H51.551V58.273h445.101v138.135h-53.72  c-4.238,0-7.674,3.436-7.674,7.675c0,4.239,3.436,7.674,7.674,7.674h53.72v138.136H51.551V349.891z"/>
<path style="fill:#2E3033;" d="M20.97,482.004c-6.429,0-11.661-5.232-11.661-11.661V41.549c0-6.371,5.183-11.554,11.554-11.554  h1.524c6.431,0,11.661,5.232,11.661,11.661v428.685c0,6.431-5.232,11.661-11.661,11.661H20.97V482.004z"/>
<path d="M22.386,20.686h-1.524C9.359,20.686,0,30.045,0,41.549v428.793c0,11.563,9.407,20.97,20.97,20.97h1.415  c11.564,0,20.97-9.407,20.97-20.97V41.657C43.357,30.094,33.949,20.686,22.386,20.686z M27.841,470.342  c0,3.008-2.447,5.455-5.455,5.455h-1.415c-3.008,0-5.455-2.447-5.455-5.455V41.549c0-2.949,2.399-5.348,5.348-5.348h1.524  c3.008,0,5.455,2.447,5.455,5.455v428.686H27.841z"/>
<g>
</g>
<g>
</g>
<g>
</g>
<g>
</g>
<g>
</g>
<g>
</g>
<g>
</g>
<g>
</g>
<g>
</g>
<g>
</g>
<g>
</g>
<g>
</g>
<g>
</g>
<g>
</g>
<g>
</g>
</svg>
