<?xml version="1.0" encoding="iso-8859-1"?>
<!-- Generator: Adobe Illustrator 19.0.0, SVG Export Plug-In . SVG Version: 6.00 Build 0)  -->
<svg xmlns="http://www.w3.org/2000/svg" xmlns:xlink="http://www.w3.org/1999/xlink" version="1.1" id="Layer_1" x="0px" y="0px" viewBox="0 0 512 512" style="enable-background:new 0 0 512 512;" xml:space="preserve">
<g>
	<path style="fill:#259245;" d="M496.62,203.978V57.874H88.816l402.622,138.835C494.538,197.777,496.62,200.697,496.62,203.978z"/>
	<path style="fill:#259245;" d="M442.793,350.082h53.828V203.978c0,3.281-2.082,6.199-5.182,7.27L88.816,350.082h323.217   c4.247,0,7.689,3.442,7.689,7.689h15.38C435.104,353.525,438.546,350.082,442.793,350.082z"/>
</g>
<path style="fill:#FFE000;" d="M96.916,76.934l180.968,120.645c2.139,1.427,3.425,3.828,3.425,6.399  c0,2.571-1.285,4.972-3.425,6.398L96.916,331.022l368.427-127.043L96.916,76.934z"/>
<g>
	<path style="fill:#FFFFFF;" d="M41.698,363.265c0.047,0.046,0.095,0.088,0.144,0.132c-0.006-0.005-0.011-0.011-0.018-0.017   C41.783,363.342,41.739,363.305,41.698,363.265z"/>
	<path style="fill:#FFFFFF;" d="M43.213,43.541c-0.082,0.047-0.163,0.093-0.243,0.144c0.063-0.038,0.126-0.074,0.19-0.111   C43.178,43.563,43.197,43.551,43.213,43.541z"/>
	<path style="fill:#FFFFFF;" d="M42.612,43.928c-0.087,0.062-0.174,0.124-0.258,0.191c0.077-0.06,0.155-0.116,0.235-0.173   C42.598,43.941,42.605,43.934,42.612,43.928z"/>
	<path style="fill:#FFFFFF;" d="M40.189,46.774c-0.044,0.088-0.088,0.175-0.129,0.266c0.04-0.089,0.084-0.176,0.127-0.264   L40.189,46.774z"/>
	<path style="fill:#FFFFFF;" d="M43.856,43.207c-0.081,0.037-0.162,0.074-0.24,0.113c0.046-0.022,0.093-0.042,0.139-0.064   C43.787,43.239,43.822,43.223,43.856,43.207z"/>
	<path style="fill:#FFFFFF;" d="M42.048,44.372c-0.093,0.081-0.188,0.163-0.279,0.25c0.084-0.079,0.17-0.153,0.256-0.23   C42.035,44.384,42.041,44.377,42.048,44.372z"/>
	<path style="fill:#FFFFFF;" d="M41.523,44.873c-0.099,0.104-0.196,0.208-0.289,0.318c0.021-0.024,0.042-0.046,0.063-0.068   C41.369,45.036,41.444,44.953,41.523,44.873z"/>
	<path style="fill:#FFFFFF;" d="M44.546,42.928c-0.089,0.03-0.177,0.061-0.264,0.095c0.033-0.013,0.066-0.023,0.101-0.035   C44.437,42.968,44.492,42.948,44.546,42.928z"/>
	<path style="fill:#FFFFFF;" d="M40.784,45.77c0.079-0.113,0.162-0.224,0.248-0.332C40.947,45.546,40.863,45.656,40.784,45.77z"/>
	<path style="fill:#FFFFFF;" d="M46.421,42.526c0.121-0.01,0.245-0.017,0.367-0.021C46.666,42.511,46.542,42.516,46.421,42.526z"/>
	<path style="fill:#FFFFFF;" d="M45.284,42.712c-0.105,0.025-0.208,0.05-0.312,0.08c0.035-0.01,0.072-0.019,0.108-0.027   C45.148,42.746,45.216,42.729,45.284,42.712z"/>
	<path style="fill:#FFFFFF;" d="M40.394,46.385c0.061-0.106,0.124-0.208,0.19-0.312C40.518,46.176,40.454,46.278,40.394,46.385z"/>
	<path style="fill:#FFFFFF;" d="M39.571,359.44c0.019,0.081,0.04,0.16,0.061,0.24c-0.006-0.024-0.011-0.048-0.017-0.07   C39.601,359.552,39.584,359.496,39.571,359.44z"/>
	<path style="fill:#FFFFFF;" d="M43.605,364.63c0.051,0.024,0.103,0.048,0.153,0.072c-0.038-0.019-0.077-0.036-0.115-0.055   C43.632,364.639,43.618,364.635,43.605,364.63z"/>
	<path style="fill:#FFFFFF;" d="M45.769,365.342c0.081,0.015,0.162,0.027,0.244,0.038c-0.011-0.002-0.022-0.004-0.033-0.006   C45.909,365.365,45.84,365.355,45.769,365.342z"/>
	<path style="fill:#FFFFFF;" d="M47.081,365.461c-0.022,0-0.044-0.004-0.065-0.004c-0.005,0-0.01,0-0.016,0   c0.024,0,0.049,0.006,0.074,0.006c0.008,0,0.016-0.002,0.023-0.002h-0.003C47.092,365.461,47.086,365.461,47.081,365.461z"/>
	<path style="fill:#FFFFFF;" d="M39.44,358.652c0.011,0.102,0.028,0.202,0.044,0.305c-0.009-0.057-0.017-0.114-0.023-0.17   C39.453,358.741,39.444,358.697,39.44,358.652z"/>
	<path style="fill:#FFFFFF;" d="M39.389,357.86c0.002,0.126,0.009,0.253,0.017,0.379c-0.006-0.111-0.012-0.224-0.015-0.334   C39.391,357.891,39.389,357.877,39.389,357.86z"/>
	<path style="fill:#FFFFFF;" d="M39.483,48.999c-0.016,0.102-0.032,0.202-0.044,0.305c0.004-0.046,0.015-0.089,0.021-0.134   C39.466,49.113,39.474,49.056,39.483,48.999z"/>
	<path style="fill:#FFFFFF;" d="M39.864,47.529c-0.019,0.05-0.041,0.096-0.06,0.147c-0.008,0.025-0.013,0.051-0.022,0.076   c0.022-0.065,0.048-0.131,0.07-0.195C39.858,47.548,39.86,47.538,39.864,47.529z"/>
	<path style="fill:#FFFFFF;" d="M39.631,48.275c-0.021,0.08-0.042,0.16-0.061,0.24c0.013-0.058,0.029-0.113,0.045-0.17   C39.621,48.323,39.625,48.299,39.631,48.275z"/>
	<path style="fill:#FFFFFF;" d="M39.405,49.715c-0.007,0.127-0.015,0.254-0.017,0.38c0-0.017,0.002-0.03,0.002-0.046   C39.393,49.939,39.399,49.827,39.405,49.715z"/>
	<path style="fill:#FFFFFF;" d="M45.686,42.625c0.123-0.022,0.248-0.039,0.373-0.057C45.934,42.585,45.809,42.602,45.686,42.625z"/>
	<path style="fill:#FFFFFF;" d="M41.034,362.519c-0.054-0.067-0.105-0.138-0.155-0.207C40.929,362.383,40.98,362.451,41.034,362.519   z"/>
	<path style="fill:#FFFFFF;" d="M44.749,365.102c-0.003,0-0.006-0.002-0.009-0.003C44.743,365.1,44.746,365.102,44.749,365.102z"/>
	<path style="fill:#FFFFFF;" d="M39.804,360.279c0.01,0.028,0.026,0.053,0.036,0.081c-0.02-0.053-0.039-0.105-0.058-0.158   C39.792,360.228,39.796,360.253,39.804,360.279z"/>
	<path style="fill:#FFFFFF;" d="M40.305,361.42c-0.004-0.007-0.006-0.013-0.01-0.02C40.299,361.407,40.301,361.414,40.305,361.42z"/>
	<path style="fill:#FFFFFF;" d="M42.667,364.072c-0.028-0.021-0.054-0.045-0.081-0.065   C42.613,364.028,42.639,364.053,42.667,364.072z"/>
	<path style="fill:#FFFFFF;" d="M496.62,203.978c0-3.281-2.082-6.2-5.182-7.27L88.816,57.874h-20.49l28.59,19.06l368.427,127.044   L96.916,331.022l-28.59,19.061h20.491l402.621-138.836C494.538,210.177,496.62,207.259,496.62,203.978z"/>
</g>
<polygon style="fill:#ED1F34;" points="50.619,64.551 50.619,343.403 259.757,203.978 "/>
<path d="M504.31,42.494H42.929c-0.002,0-0.003,0-0.004,0c-0.095,0-0.189,0.008-0.282,0.012c-0.122,0.004-0.246,0.01-0.367,0.021  c-0.044,0.003-0.087,0.002-0.131,0.007c-0.041,0.005-0.082,0.013-0.123,0.02c-0.036,0.004-0.072,0.01-0.108,0.016  c-0.125,0.018-0.25,0.034-0.373,0.057c-0.044,0.008-0.087,0.012-0.13,0.022c-0.093,0.019-0.181,0.045-0.273,0.065  c-0.068,0.018-0.137,0.034-0.204,0.053c-0.035,0.009-0.072,0.018-0.108,0.027c-0.046,0.012-0.092,0.022-0.139,0.036  c-0.097,0.029-0.192,0.066-0.287,0.101c-0.055,0.02-0.109,0.039-0.164,0.06c-0.033,0.012-0.066,0.022-0.101,0.035  c-0.052,0.02-0.104,0.036-0.153,0.058c-0.093,0.038-0.181,0.084-0.273,0.125c-0.034,0.017-0.068,0.032-0.103,0.05  c-0.046,0.022-0.093,0.041-0.139,0.064c-0.057,0.028-0.113,0.055-0.17,0.085c-0.079,0.042-0.153,0.091-0.232,0.136  c-0.018,0.01-0.035,0.022-0.054,0.032c-0.063,0.037-0.126,0.073-0.19,0.111c-0.058,0.037-0.116,0.07-0.173,0.109  c-0.063,0.042-0.123,0.09-0.186,0.135c-0.007,0.005-0.016,0.012-0.023,0.018c-0.079,0.057-0.158,0.113-0.235,0.173  c-0.053,0.04-0.108,0.08-0.16,0.122c-0.05,0.041-0.096,0.087-0.146,0.131c-0.007,0.006-0.015,0.013-0.022,0.021  c-0.086,0.076-0.172,0.151-0.256,0.23c-0.041,0.04-0.086,0.077-0.126,0.118c-0.042,0.042-0.081,0.089-0.121,0.133  c-0.078,0.081-0.152,0.164-0.227,0.249c-0.021,0.023-0.042,0.045-0.063,0.068c-0.029,0.034-0.061,0.065-0.089,0.099  c-0.04,0.048-0.074,0.099-0.112,0.149c-0.086,0.108-0.169,0.219-0.248,0.332c-0.034,0.048-0.07,0.094-0.104,0.143  c-0.001,0.002-0.003,0.004-0.004,0.005c-0.015,0.022-0.024,0.044-0.038,0.065c-0.02,0.028-0.036,0.06-0.055,0.089  c-0.065,0.104-0.129,0.206-0.19,0.312c-0.035,0.062-0.073,0.123-0.107,0.187c-0.036,0.066-0.065,0.136-0.098,0.203l-0.001,0.001  c-0.044,0.089-0.087,0.176-0.127,0.265c-0.031,0.07-0.065,0.14-0.095,0.211c-0.037,0.092-0.066,0.186-0.102,0.278  c-0.004,0.009-0.006,0.019-0.01,0.027c-0.023,0.065-0.05,0.13-0.07,0.195c-0.022,0.067-0.048,0.136-0.068,0.205  c-0.031,0.105-0.056,0.21-0.083,0.318c-0.006,0.023-0.011,0.048-0.017,0.07c-0.016,0.057-0.031,0.112-0.045,0.17  c-0.012,0.056-0.026,0.111-0.037,0.168c-0.022,0.105-0.034,0.209-0.051,0.315c-0.009,0.057-0.017,0.113-0.023,0.171  c-0.006,0.045-0.017,0.088-0.021,0.134c-0.006,0.042-0.012,0.083-0.017,0.125c-0.01,0.095-0.012,0.191-0.019,0.285  c-0.006,0.112-0.012,0.224-0.015,0.335c0,0.016-0.002,0.029-0.002,0.046c0,0.029-0.004,0.059-0.004,0.089v0.026c0,0,0,0.017,0,0.024  v307.486c0,0.008,0,0.017,0,0.017v0.034c0,0.03,0.004,0.059,0.004,0.089c0,0.017,0.002,0.03,0.002,0.046  c0.002,0.11,0.008,0.223,0.015,0.334c0.006,0.095,0.008,0.191,0.019,0.286c0.004,0.041,0.01,0.083,0.017,0.125  c0.004,0.046,0.015,0.089,0.021,0.135c0.007,0.056,0.015,0.113,0.023,0.17c0.017,0.106,0.029,0.21,0.051,0.315  c0.011,0.057,0.025,0.112,0.037,0.168c0.013,0.057,0.03,0.112,0.045,0.17c0.005,0.023,0.01,0.047,0.017,0.07  c0.027,0.107,0.052,0.212,0.083,0.318c0.022,0.068,0.047,0.137,0.068,0.204c0.019,0.054,0.038,0.106,0.058,0.158  c0.004,0.012,0.009,0.024,0.013,0.037c0.037,0.103,0.07,0.205,0.111,0.306c0.067,0.163,0.145,0.319,0.223,0.475  c0.033,0.068,0.063,0.138,0.099,0.206c0.002,0.005,0.004,0.01,0.007,0.017c0.004,0.006,0.006,0.012,0.01,0.02  c0.103,0.19,0.216,0.372,0.333,0.551c0.015,0.022,0.024,0.045,0.038,0.065c0.001,0.001,0.002,0.003,0.004,0.005  c0.062,0.093,0.132,0.18,0.197,0.27c0.052,0.069,0.103,0.14,0.155,0.207c0.062,0.08,0.124,0.158,0.19,0.234  c0.059,0.069,0.12,0.134,0.182,0.2c0.096,0.106,0.192,0.211,0.293,0.312c0.041,0.04,0.085,0.077,0.126,0.115  c0.006,0.005,0.011,0.011,0.018,0.017c0.073,0.068,0.146,0.136,0.222,0.2c0.154,0.133,0.315,0.257,0.48,0.378  c0.016,0.01,0.027,0.022,0.042,0.032c0.027,0.021,0.053,0.045,0.081,0.065c0.024,0.018,0.05,0.033,0.075,0.051  c0.232,0.159,0.473,0.304,0.721,0.436c0.048,0.025,0.095,0.046,0.142,0.069c0.013,0.006,0.026,0.01,0.038,0.018  c0.038,0.019,0.077,0.036,0.115,0.055c0.163,0.08,0.328,0.152,0.497,0.22c0.079,0.031,0.158,0.059,0.237,0.087  c0.082,0.029,0.161,0.064,0.245,0.09c0.003,0.001,0.006,0.003,0.009,0.003c0.114,0.036,0.233,0.063,0.349,0.094  c0.081,0.022,0.161,0.044,0.244,0.063c0.141,0.032,0.283,0.06,0.427,0.084c0.069,0.012,0.14,0.022,0.21,0.032  c0.011,0.002,0.022,0.004,0.033,0.006c0.065,0.009,0.131,0.022,0.196,0.028c0.26,0.03,0.524,0.047,0.792,0.049  c0.005,0,0.01,0,0.016,0c0.022,0,0.042,0.004,0.065,0.004c0.005,0,0.01,0,0.015,0h0.003H412.03c4.247,0,7.689-3.443,7.689-7.69  s-3.442-7.689-7.689-7.689H88.816h-20.49l28.59-19.061l180.968-120.645c2.139-1.426,3.425-3.827,3.425-6.398  c0-2.571-1.285-4.972-3.425-6.399L96.916,76.934l-28.59-19.06h20.491h407.804v146.104v146.105h-53.828  c-4.247,0-7.689,3.442-7.689,7.689s3.442,7.69,7.689,7.69h61.517c4.248,0,7.69-3.443,7.69-7.69V50.184  C512,45.936,508.558,42.494,504.31,42.494z M50.619,64.551l209.139,139.426L50.619,343.403V64.551z"/>
<path style="fill:#2E3033;" d="M21.013,482.462c-6.442,0-11.685-5.242-11.685-11.685V41.115c0-6.383,5.194-11.577,11.577-11.577  h1.527c6.444,0,11.685,5.242,11.685,11.685v429.552c0,6.444-5.242,11.685-11.685,11.685h-1.419V482.462z"/>
<path d="M22.432,20.211h-1.527C9.378,20.211,0,29.588,0,41.115v429.661c0,11.587,9.426,21.013,21.013,21.013h1.418  c11.587,0,21.013-9.426,21.013-21.013V41.223C43.444,29.637,34.018,20.211,22.432,20.211z M27.898,470.777  c0,3.014-2.452,5.466-5.466,5.466h-1.418c-3.014,0-5.466-2.452-5.466-5.466V41.115c0-2.955,2.403-5.358,5.358-5.358h1.527  c3.014,0,5.466,2.452,5.466,5.466v429.554H27.898z"/>
<g>
</g>
<g>
</g>
<g>
</g>
<g>
</g>
<g>
</g>
<g>
</g>
<g>
</g>
<g>
</g>
<g>
</g>
<g>
</g>
<g>
</g>
<g>
</g>
<g>
</g>
<g>
</g>
<g>
</g>
</svg>
