<?xml version="1.0" encoding="iso-8859-1"?>
<!-- Generator: Adobe Illustrator 19.0.0, SVG Export Plug-In . SVG Version: 6.00 Build 0)  -->
<svg xmlns="http://www.w3.org/2000/svg" xmlns:xlink="http://www.w3.org/1999/xlink" version="1.1" id="Layer_1" x="0px" y="0px" viewBox="0 0 511.999 511.999" style="enable-background:new 0 0 511.999 511.999;" xml:space="preserve">
<path style="fill:#259245;" d="M496.651,211.757h-23.022c-4.239,0-7.674-3.435-7.674-7.674h-15.349c0,4.239-3.436,7.674-7.674,7.674  H205.034v138.134h291.618V211.757z"/>
<path style="fill:#FFE000;" d="M465.954,204.083c0-4.239,3.436-7.675,7.674-7.675h23.022V58.273H205.034v138.135h237.899  c4.238,0,7.674,3.436,7.674,7.675l0,0H465.954L465.954,204.083z"/>
<path style="fill:#ED1F34;" d="M189.685,58.273H51.551v291.618h138.135L189.685,58.273L189.685,58.273z M159.871,202.319  l-15.856,12.822l5.293,19.693c0.824,3.069-0.328,6.331-2.901,8.2c-2.571,1.869-6.029,1.96-8.695,0.224l-17.094-11.119  l-17.094,11.119c-1.274,0.83-2.731,1.24-4.184,1.24c-1.586,0-3.169-0.49-4.511-1.465c-2.571-1.869-3.726-5.129-2.901-8.2  l5.293-19.693l-15.856-12.822c-2.472-1.999-3.456-5.314-2.473-8.338c0.983-3.024,3.728-5.129,6.903-5.293l20.364-1.053l7.293-19.042  c1.138-2.968,3.987-4.93,7.167-4.93c3.18,0,6.029,1.961,7.167,4.93l7.293,19.042l20.364,1.053c3.175,0.163,5.921,2.268,6.903,5.293  C163.327,197.005,162.343,200.32,159.871,202.319z"/>
<path d="M504.326,42.925H43.876c-4.238,0-7.674,3.435-7.674,7.675v306.965c0,4.239,3.436,7.675,7.674,7.675h460.449  c4.239,0,7.674-3.436,7.674-7.675V50.6C512,46.36,508.564,42.925,504.326,42.925z M205.034,211.757h237.899  c4.238,0,7.674-3.435,7.674-7.674l0,0c0-4.239-3.436-7.675-7.674-7.675H205.034V58.273h291.618v138.135h-23.022  c-4.239,0-7.674,3.436-7.674,7.675l0,0c0,4.239,3.436,7.674,7.674,7.674h23.022v138.135H205.034V211.757z M51.551,58.273h138.135  v291.618H51.551V58.273z"/>
<path style="fill:#333333;" d="M124.802,216.551l4.482,2.916l-1.388-5.164c-0.787-2.93,0.227-6.051,2.586-7.958l4.158-3.361  l-5.339-0.277c-3.031-0.156-5.685-2.085-6.771-4.919l-1.912-4.993l-1.912,4.993c-1.085,2.834-3.739,4.762-6.771,4.919l-5.339,0.277  l4.158,3.361c2.359,1.908,3.374,5.028,2.586,7.958l-1.388,5.164l4.482-2.916C118.977,214.897,122.258,214.897,124.802,216.551z"/>
<path d="M162.344,193.981c-0.983-3.024-3.728-5.129-6.903-5.293l-20.364-1.053l-7.293-19.042c-1.138-2.968-3.987-4.93-7.167-4.93  c-3.18,0-6.029,1.961-7.167,4.93l-7.293,19.042l-20.364,1.053c-3.175,0.163-5.921,2.268-6.903,5.293  c-0.983,3.023,0.001,6.338,2.473,8.338l15.856,12.822l-5.293,19.693c-0.824,3.071,0.329,6.331,2.901,8.2  c1.342,0.974,2.925,1.465,4.511,1.465c1.453,0,2.91-0.411,4.184-1.24l17.094-11.119l17.094,11.119  c2.665,1.736,6.123,1.645,8.695-0.224c2.572-1.869,3.726-5.131,2.901-8.2l-5.293-19.693l15.856-12.822  C162.343,200.32,163.327,197.005,162.344,193.981z M111.951,219.468l1.388-5.164c0.787-2.93-0.227-6.051-2.586-7.958l-4.158-3.361  l5.339-0.277c3.032-0.156,5.686-2.085,6.771-4.919l1.912-4.993l1.912,4.993c1.086,2.834,3.74,4.762,6.771,4.919l5.339,0.277  l-4.158,3.361c-2.36,1.908-3.374,5.028-2.586,7.958l1.388,5.164l-4.482-2.916c-2.543-1.655-5.824-1.655-8.369,0L111.951,219.468z"/>
<path style="fill:#2E3033;" d="M20.97,482.004c-6.429,0-11.661-5.232-11.661-11.661V41.549c0-6.371,5.183-11.554,11.554-11.554  h1.524c6.431,0,11.661,5.232,11.661,11.661v428.685c0,6.431-5.232,11.661-11.661,11.661H20.97V482.004z"/>
<path d="M22.386,20.686h-1.524C9.359,20.686,0,30.045,0,41.549v428.793c0,11.563,9.407,20.97,20.97,20.97h1.415  c11.564,0,20.97-9.407,20.97-20.97V41.657C43.357,30.094,33.949,20.686,22.386,20.686z M27.841,470.342  c0,3.008-2.447,5.455-5.455,5.455h-1.415c-3.008,0-5.455-2.447-5.455-5.455V41.549c0-2.949,2.399-5.348,5.348-5.348h1.524  c3.008,0,5.455,2.447,5.455,5.455v428.686H27.841z"/>
<g>
</g>
<g>
</g>
<g>
</g>
<g>
</g>
<g>
</g>
<g>
</g>
<g>
</g>
<g>
</g>
<g>
</g>
<g>
</g>
<g>
</g>
<g>
</g>
<g>
</g>
<g>
</g>
<g>
</g>
</svg>
