<?xml version="1.0" encoding="iso-8859-1"?>
<!-- Generator: Adobe Illustrator 19.0.0, SVG Export Plug-In . SVG Version: 6.00 Build 0)  -->
<svg xmlns="http://www.w3.org/2000/svg" xmlns:xlink="http://www.w3.org/1999/xlink" version="1.1" id="Layer_1" x="0px" y="0px" viewBox="0 0 512 512" style="enable-background:new 0 0 512 512;" xml:space="preserve">
<g>
	<rect x="314.179" y="52.941" style="fill:#FFFFFF;" width="182.057" height="103.239"/>
	<rect x="39.132" y="249.18" style="fill:#FFFFFF;" width="182.057" height="103.239"/>
	<rect x="39.132" y="52.941" style="fill:#FFFFFF;" width="182.057" height="103.239"/>
	<path style="fill:#FFFFFF;" d="M496.237,249.181h-23.643c-4.354,0-7.881-3.529-7.881-7.881l0,0h-15.763l0,0   c0,4.353-3.528,7.881-7.882,7.881H314.183v103.243h182.054L496.237,249.181L496.237,249.181z"/>
</g>
<path style="fill:#ED1F34;" d="M472.594,233.419h23.643v-61.473H306.301c-4.353,0-7.881-3.529-7.881-7.881V52.941h-61.473v111.124  c0,4.353-3.528,7.881-7.881,7.881H39.132v61.473h189.936c4.353,0,7.881,3.528,7.881,7.881v111.124h61.473V241.3  c0-4.353,3.528-7.881,7.881-7.881H441.07c4.354,0,7.882,3.528,7.882,7.881h15.763C464.713,236.947,468.241,233.419,472.594,233.419z   M370.139,206.886c0,4.353-3.527,7.881-7.881,7.881c-3.024,0-5.646-1.704-6.968-4.203h-79.725v79.725  c2.499,1.321,4.203,3.944,4.203,6.968c0,4.353-3.528,7.881-7.881,7.881h-8.407c-4.353,0-7.882-3.528-7.882-7.881  c0-3.024,1.705-5.646,4.203-6.968v-79.725h-79.724c-1.321,2.499-3.944,4.203-6.968,4.203c-4.354,0-7.881-3.528-7.881-7.881v-8.407  c0-4.353,3.527-7.881,7.881-7.881c3.024,0,5.646,1.704,6.968,4.203h79.724v-79.724c-2.498-1.321-4.203-3.944-4.203-6.968  c0-4.353,3.529-7.882,7.882-7.882h8.407c4.353,0,7.881,3.529,7.881,7.882c0,3.023-1.704,5.646-4.203,6.968v79.724h79.725  c1.321-2.499,3.944-4.203,6.968-4.203c4.354,0,7.881,3.529,7.881,7.881V206.886z"/>
<path d="M504.118,37.178H31.25c-4.353,0-7.881,3.529-7.881,7.881v315.245c0,4.353,3.528,7.881,7.881,7.881h472.868  c4.354,0,7.882-3.529,7.882-7.881V45.059C512,40.707,508.472,37.178,504.118,37.178z M496.237,156.183H314.183V52.941h182.054  L496.237,156.183L496.237,156.183z M221.186,156.183H39.132V52.941h182.054V156.183z M39.132,249.181h182.054v103.243H39.132  V249.181z M314.183,249.181h126.886c4.354,0,7.882-3.529,7.882-7.881l0,0c0-4.353-3.528-7.881-7.882-7.881H306.301  c-4.353,0-7.881,3.528-7.881,7.881v111.124h-61.473V241.3c0-4.353-3.528-7.881-7.881-7.881H39.132v-61.473h189.936  c4.353,0,7.881-3.529,7.881-7.881V52.941h61.473v111.124c0,4.353,3.528,7.881,7.881,7.881h189.936v61.473h-23.643  c-4.354,0-7.881,3.528-7.881,7.881l0,0c0,4.353,3.527,7.881,7.881,7.881h23.643v103.243H314.183V249.181z"/>
<path style="fill:#FFE000;" d="M362.258,190.598c-3.024,0-5.646,1.704-6.968,4.203h-79.725v-79.724  c2.499-1.321,4.203-3.944,4.203-6.968c0-4.353-3.528-7.882-7.881-7.882h-8.407c-4.353,0-7.882,3.529-7.882,7.882  c0,3.023,1.705,5.646,4.203,6.968v79.724h-79.724c-1.321-2.499-3.944-4.203-6.968-4.203c-4.354,0-7.881,3.529-7.881,7.881v8.407  c0,4.353,3.527,7.881,7.881,7.881c3.024,0,5.646-1.704,6.968-4.203h79.724v79.725c-2.498,1.321-4.203,3.944-4.203,6.968  c0,4.353,3.529,7.881,7.882,7.881h8.407c4.353,0,7.881-3.528,7.881-7.881c0-3.024-1.704-5.646-4.203-6.968v-79.725h79.725  c1.321,2.499,3.944,4.203,6.968,4.203c4.354,0,7.881-3.528,7.881-7.881v-8.407C370.139,194.127,366.612,190.598,362.258,190.598z"/>
<path style="fill:#2E3033;" d="M21.536,488.1c-6.603,0-11.976-5.373-11.976-11.976V35.766c0-6.542,5.323-11.865,11.865-11.865h1.565  c6.604,0,11.976,5.373,11.976,11.976v440.247c0,6.604-5.373,11.976-11.976,11.976h-1.454V488.1z"/>
<path d="M22.99,14.34h-1.565C9.611,14.34,0,23.951,0,35.766v440.358C0,488,9.661,497.66,21.536,497.66h1.453  c11.876,0,21.536-9.661,21.536-21.536V35.876C44.526,24.001,34.865,14.34,22.99,14.34z M28.592,476.124  c0,3.089-2.513,5.602-5.602,5.602h-1.453c-3.089,0-5.602-2.513-5.602-5.602V35.766c0-3.028,2.463-5.492,5.492-5.492h1.565  c3.089,0,5.602,2.513,5.602,5.602v440.248H28.592z"/>
<g>
</g>
<g>
</g>
<g>
</g>
<g>
</g>
<g>
</g>
<g>
</g>
<g>
</g>
<g>
</g>
<g>
</g>
<g>
</g>
<g>
</g>
<g>
</g>
<g>
</g>
<g>
</g>
<g>
</g>
</svg>
