<?xml version="1.0" encoding="iso-8859-1"?>
<!-- Generator: Adobe Illustrator 19.0.0, SVG Export Plug-In . SVG Version: 6.00 Build 0)  -->
<svg xmlns="http://www.w3.org/2000/svg" xmlns:xlink="http://www.w3.org/1999/xlink" version="1.1" id="Layer_1" x="0px" y="0px" viewBox="0 0 512 512" style="enable-background:new 0 0 512 512;" xml:space="preserve">
<g>
	<path style="fill:#FFFFFF;" d="M300.491,217.472c5.844-9.818,5.844-22.173,0-31.991l-15.996,15.995L300.491,217.472z"/>
	<path style="fill:#FFFFFF;" d="M257.623,228.348c9.819,5.844,22.174,5.844,31.992,0l-15.995-15.995L257.623,228.348z"/>
	<path style="fill:#FFFFFF;" d="M246.748,185.481c-5.844,9.819-5.844,22.174,0,31.991l15.996-15.996L246.748,185.481z"/>
	<path style="fill:#FFFFFF;" d="M335.65,111.701V57.874H211.589v292.209H335.65V142.459c0-4.247,3.442-7.689,7.689-7.689v-15.38   C339.092,119.39,335.65,115.948,335.65,111.701z M306.607,234.464c-8.812,8.812-20.528,13.664-32.988,13.664   s-24.176-4.853-32.988-13.664c-18.188-18.189-18.188-47.785,0-65.974c3.004-3.002,7.873-3.002,10.876,0l22.111,22.111   l22.111-22.112c3.004-3.002,7.873-3.002,10.876,0C324.796,186.678,324.796,216.274,306.607,234.464z"/>
</g>
<g>
	<path style="fill:#3DB4EA;" d="M351.029,111.701c0,4.247-3.442,7.689-7.69,7.689v15.38c4.248,0,7.69,3.442,7.69,7.689v207.622   H496.62V57.874H351.029V111.701z"/>
	<rect x="50.619" y="57.874" style="fill:#3DB4EA;" width="145.588" height="292.213"/>
</g>
<path d="M504.31,42.494H42.929c-4.248,0-7.69,3.442-7.69,7.69v307.587c0,4.247,3.442,7.69,7.69,7.69h461.38  c4.248,0,7.69-3.443,7.69-7.69V50.184C512,45.936,508.558,42.494,504.31,42.494z M496.62,350.082H351.029V142.459  c0-4.247-3.442-7.689-7.69-7.689c-4.247,0-7.689,3.442-7.689,7.689v207.622h-124.06V57.874H335.65v53.828  c0,4.247,3.442,7.689,7.689,7.689c4.248,0,7.69-3.442,7.69-7.689V57.874h145.591v292.208H496.62z M50.619,57.874H196.21v292.209  H50.619V57.874z"/>
<path style="fill:#D9D9D9;" d="M251.508,179.365c-1.877,1.877-3.462,3.934-4.76,6.116l15.996,15.995l-15.996,15.996  c1.299,2.182,2.883,4.241,4.76,6.116c1.876,1.876,3.933,3.461,6.115,4.76l15.996-15.996l15.996,15.996  c2.182-1.3,4.24-2.884,6.115-4.76c1.877-1.876,3.462-3.934,4.76-6.116l-15.996-15.996l15.996-15.995  c-1.299-2.182-2.883-4.24-4.76-6.116c-3.002-3.004-3.002-7.873,0-10.875l-22.111,22.111l-22.111-22.112  C254.511,171.492,254.511,176.36,251.508,179.365z"/>
<path style="fill:#259245;" d="M295.731,168.488c-3.002,3.003-3.002,7.872,0,10.875c1.877,1.877,3.462,3.934,4.76,6.116  c5.844,9.819,5.844,22.174,0,31.991c-1.299,2.182-2.883,4.241-4.76,6.116c-1.876,1.876-3.933,3.461-6.115,4.76  c-9.819,5.844-22.174,5.844-31.992,0c-2.182-1.3-4.24-2.884-6.115-4.76c-1.877-1.876-3.462-3.934-4.76-6.116  c-5.844-9.818-5.844-22.173,0-31.991c1.299-2.182,2.883-4.24,4.76-6.116c3.002-3.004,3.002-7.873,0-10.875  c-3.004-3.002-7.873-3.002-10.876,0c-18.188,18.189-18.188,47.785,0,65.974c8.812,8.812,20.528,13.664,32.988,13.664  c12.46,0,24.176-4.853,32.988-13.664c18.188-18.189,18.188-47.785,0-65.974C303.604,165.487,298.734,165.487,295.731,168.488z"/>
<path style="fill:#2E3033;" d="M21.013,482.462c-6.442,0-11.685-5.242-11.685-11.685V41.115c0-6.383,5.194-11.577,11.577-11.577  h1.527c6.444,0,11.685,5.242,11.685,11.685v429.552c0,6.444-5.242,11.685-11.685,11.685h-1.419V482.462z"/>
<path d="M22.432,20.211h-1.527C9.378,20.211,0,29.588,0,41.115v429.661c0,11.587,9.426,21.013,21.013,21.013h1.418  c11.587,0,21.013-9.426,21.013-21.013V41.223C43.444,29.637,34.018,20.211,22.432,20.211z M27.898,470.777  c0,3.014-2.452,5.466-5.466,5.466h-1.418c-3.014,0-5.466-2.452-5.466-5.466V41.115c0-2.955,2.403-5.358,5.358-5.358h1.527  c3.014,0,5.466,2.452,5.466,5.466v429.554H27.898z"/>
<g>
</g>
<g>
</g>
<g>
</g>
<g>
</g>
<g>
</g>
<g>
</g>
<g>
</g>
<g>
</g>
<g>
</g>
<g>
</g>
<g>
</g>
<g>
</g>
<g>
</g>
<g>
</g>
<g>
</g>
</svg>
