<?xml version="1.0" encoding="iso-8859-1"?>
<!-- Generator: Adobe Illustrator 19.0.0, SVG Export Plug-In . SVG Version: 6.00 Build 0)  -->
<svg xmlns="http://www.w3.org/2000/svg" xmlns:xlink="http://www.w3.org/1999/xlink" version="1.1" id="Layer_1" x="0px" y="0px" viewBox="0 0 512 512" style="enable-background:new 0 0 512 512;" xml:space="preserve">
<path style="fill:#ED1F34;" d="M496.237,265.731V52.941H94.299c-4.353,0-7.881-3.528-7.881-7.881H70.656  c0,4.353-3.529,7.881-7.881,7.881H39.132v299.484h457.106v-55.169c0-4.354,3.528-7.881,7.881-7.881v-15.764  C499.765,273.612,496.237,270.085,496.237,265.731z M472.594,328.781H62.775V76.584h409.82v252.196H472.594z"/>
<path style="fill:#103B9B;" d="M62.775,328.781h409.82V76.584H62.775V328.781z M264.122,109.485c2.239-1.136,4.885-1.136,7.124,0  c35.443,17.958,57.462,53.669,57.462,93.197c0,39.527-22.019,75.238-57.462,93.197c-1.121,0.568-2.341,0.851-3.563,0.851  s-2.442-0.283-3.563-0.851c-35.443-17.958-57.461-53.67-57.461-93.197C206.661,163.155,228.679,127.444,264.122,109.485z"/>
<path d="M496.237,297.256v55.169H39.132V52.941h23.643c4.353,0,7.881-3.528,7.881-7.881c0-4.354-3.529-7.882-7.881-7.882H31.25  c-4.352,0-7.881,3.528-7.881,7.882v315.244c0,4.353,3.529,7.882,7.881,7.882h472.868c4.354,0,7.882-3.529,7.882-7.882v-63.048  c0-4.354-3.528-7.881-7.882-7.881C499.765,289.376,496.237,292.902,496.237,297.256z"/>
<path d="M94.299,52.941h401.938v212.79c0,4.354,3.528,7.881,7.881,7.881c4.354,0,7.882-3.527,7.882-7.881V45.06  c0-4.354-3.528-7.882-7.882-7.882H94.299c-4.353,0-7.881,3.528-7.881,7.882C86.419,49.413,89.947,52.941,94.299,52.941z"/>
<path style="fill:#3DB4EA;" d="M312.946,202.683c0-32.211-17.24-61.444-45.261-77.232c-28.021,15.788-45.261,45.021-45.261,77.232  H312.946z"/>
<path style="fill:#164FCE;" d="M231.771,242.35h71.826c6.052-12.07,9.349-25.585,9.349-39.668h-90.523  C222.424,216.765,225.72,230.28,231.771,242.35z"/>
<path style="fill:#FFE000;" d="M267.685,279.915c15.77-8.885,28.124-22.029,35.913-37.564h-71.826  C239.561,257.885,251.916,271.03,267.685,279.915z"/>
<path style="fill:#ED1F34;" d="M264.122,295.88c1.121,0.568,2.341,0.851,3.563,0.851s2.442-0.283,3.563-0.851  c35.443-17.958,57.462-53.67,57.462-93.197c0-39.528-22.019-75.239-57.462-93.197c-2.239-1.136-4.885-1.136-7.124,0  c-35.443,17.958-57.461,53.669-57.461,93.197C206.661,242.21,228.679,277.921,264.122,295.88z M267.685,125.451  c28.021,15.788,45.261,45.021,45.261,77.232c0,14.083-3.297,27.597-9.349,39.668c-7.789,15.535-20.143,28.679-35.913,37.564  c-15.769-8.885-28.124-22.029-35.913-37.564c-6.052-12.07-9.349-25.585-9.349-39.668  C222.424,170.471,239.664,141.239,267.685,125.451z"/>
<path style="fill:#2E3033;" d="M21.536,488.1c-6.603,0-11.976-5.373-11.976-11.976V35.766c0-6.542,5.323-11.865,11.865-11.865h1.565  c6.604,0,11.976,5.373,11.976,11.976v440.247c0,6.604-5.373,11.976-11.976,11.976h-1.454V488.1z"/>
<path d="M22.99,14.34h-1.565C9.611,14.34,0,23.951,0,35.766v440.358C0,488,9.661,497.66,21.536,497.66h1.453  c11.876,0,21.536-9.661,21.536-21.536V35.876C44.526,24.001,34.865,14.34,22.99,14.34z M28.592,476.124  c0,3.089-2.513,5.602-5.602,5.602h-1.453c-3.089,0-5.602-2.513-5.602-5.602V35.766c0-3.028,2.463-5.492,5.492-5.492h1.565  c3.089,0,5.602,2.513,5.602,5.602v440.248H28.592z"/>
<g>
</g>
<g>
</g>
<g>
</g>
<g>
</g>
<g>
</g>
<g>
</g>
<g>
</g>
<g>
</g>
<g>
</g>
<g>
</g>
<g>
</g>
<g>
</g>
<g>
</g>
<g>
</g>
<g>
</g>
</svg>
