<?xml version="1.0" encoding="iso-8859-1"?>
<!-- Generator: Adobe Illustrator 19.0.0, SVG Export Plug-In . SVG Version: 6.00 Build 0)  -->
<svg xmlns="http://www.w3.org/2000/svg" xmlns:xlink="http://www.w3.org/1999/xlink" version="1.1" id="Layer_1" x="0px" y="0px" viewBox="0 0 511.999 511.999" style="enable-background:new 0 0 511.999 511.999;" xml:space="preserve">
<path style="fill:#ED1F34;" d="M442.933,58.273H51.551v291.619h445.101V58.273h-23.022c-4.239,0-7.674-3.435-7.674-7.675h-15.349  C450.607,54.838,447.17,58.273,442.933,58.273z M366.191,68.505c4.239,0,7.674,3.435,7.674,7.674c0,4.24-3.436,7.675-7.674,7.675  s-7.674-3.435-7.674-7.675C358.517,71.941,361.953,68.505,366.191,68.505z M274.101,68.505c4.239,0,7.674,3.435,7.674,7.674  c0,4.24-3.436,7.675-7.674,7.675c-4.238,0-7.674-3.435-7.674-7.675C266.427,71.941,269.862,68.505,274.101,68.505z M182.011,68.505  c4.239,0,7.674,3.435,7.674,7.674c0,4.24-3.436,7.675-7.674,7.675s-7.674-3.435-7.674-7.675  C174.337,71.941,177.773,68.505,182.011,68.505z M182.011,339.659c-4.239,0-7.674-3.435-7.674-7.675  c0-4.239,3.436-7.674,7.674-7.674s7.674,3.435,7.674,7.674C189.685,336.224,186.249,339.659,182.011,339.659z M274.101,339.659  c-4.239,0-7.674-3.435-7.674-7.675c0-4.239,3.436-7.674,7.674-7.674c4.238,0,7.674,3.435,7.674,7.674  C281.775,336.224,278.34,339.659,274.101,339.659z M366.191,339.659c-4.239,0-7.674-3.435-7.674-7.675  c0-4.239,3.436-7.674,7.674-7.674s7.674,3.435,7.674,7.674C373.866,336.224,370.429,339.659,366.191,339.659z M453.165,94.085  c4.239,0,7.674,3.436,7.674,7.675v204.645c0,4.239-3.436,7.674-7.674,7.674H95.038c-4.239,0-7.674-3.435-7.674-7.674V101.76  c0-4.239,3.436-7.675,7.674-7.675C95.038,94.085,453.165,94.085,453.165,94.085z"/>
<g>
	<path style="fill:#FFE000;" d="M274.101,243.988c-14.832,0-27.765-8.099-34.643-20.109l-130.99,74.851h331.268l-130.99-74.851   C301.867,235.889,288.934,243.988,274.101,243.988z"/>
	<path style="fill:#FFE000;" d="M239.458,184.286c6.878-12.011,19.811-20.11,34.643-20.11c14.832,0,27.766,8.099,34.643,20.11   l130.99-74.852H108.467L239.458,184.286z"/>
</g>
<g>
	<path style="fill:#259245;" d="M234.195,204.083c0-7.207,1.92-13.961,5.262-19.796l-130.99-74.852h-5.755V298.73h5.755   l130.99-74.851C236.116,218.043,234.195,211.288,234.195,204.083z M140.059,230.517c-9.656-4.891-16.304-14.89-16.304-26.436   c0-11.545,6.649-21.543,16.304-26.437c9.655,4.892,16.304,14.89,16.304,26.437S149.714,225.626,140.059,230.517z"/>
	<path style="fill:#259245;" d="M314.007,204.083c0,7.206-1.92,13.961-5.262,19.796l130.99,74.851h5.755V109.434h-5.755   l-130.99,74.852C312.086,190.122,314.007,196.875,314.007,204.083z"/>
</g>
<path d="M504.326,42.925H473.63c-4.239,0-7.674,3.435-7.674,7.674c0,4.24,3.436,7.675,7.674,7.675h23.022v291.619H51.551V58.273  h391.382c4.239,0,7.674-3.435,7.674-7.675c0-4.239-3.436-7.674-7.674-7.674H43.876c-4.238,0-7.674,3.435-7.674,7.674v306.966  c0,4.239,3.436,7.675,7.674,7.675h460.449c4.239,0,7.674-3.436,7.674-7.675V50.599C512,46.36,508.564,42.925,504.326,42.925z"/>
<path style="fill:#ED1F34;" d="M239.458,223.878c6.878,12.01,19.811,20.109,34.643,20.109c14.832,0,27.766-8.099,34.643-20.109  c3.342-5.836,5.262-12.59,5.262-19.796c0-7.207-1.92-13.961-5.262-19.796c-6.877-12.011-19.811-20.11-34.643-20.11  c-14.832,0-27.765,8.099-34.643,20.11c-3.342,5.836-5.262,12.589-5.262,19.796C234.195,211.288,236.116,218.043,239.458,223.878z   M274.101,183.617c11.284,0,20.465,9.18,20.465,20.464c0,11.284-9.181,20.464-20.465,20.464c-11.284,0-20.464-9.181-20.464-20.464  C253.637,192.797,262.817,183.617,274.101,183.617z"/>
<g>
	<path style="fill:#FFE000;" d="M253.637,204.083c0,11.284,9.181,20.464,20.464,20.464c11.284,0,20.465-9.181,20.465-20.464   c0-11.285-9.181-20.464-20.465-20.464C262.817,183.618,253.637,192.797,253.637,204.083z"/>
	<path style="fill:#FFE000;" d="M140.059,177.646c-9.656,4.892-16.304,14.89-16.304,26.437s6.649,21.543,16.304,26.436   c9.655-4.891,16.304-14.89,16.304-26.436C156.364,192.537,149.714,182.539,140.059,177.646z"/>
</g>
<path d="M87.363,101.76v204.645c0,4.239,3.436,7.674,7.674,7.674h358.127c4.239,0,7.674-3.435,7.674-7.674V101.76  c0-4.239-3.436-7.675-7.674-7.675H95.038C90.799,94.085,87.363,97.522,87.363,101.76z M445.491,109.434V298.73h-5.755H108.467  h-5.755V109.434h5.755h331.268H445.491z"/>
<g>
	<circle style="fill:#FFE000;" cx="182.013" cy="76.179" r="7.674"/>
	<circle style="fill:#FFE000;" cx="274.101" cy="76.179" r="7.674"/>
	<circle style="fill:#FFE000;" cx="366.189" cy="76.179" r="7.674"/>
	<circle style="fill:#FFE000;" cx="182.013" cy="331.982" r="7.674"/>
	<circle style="fill:#FFE000;" cx="274.101" cy="331.982" r="7.674"/>
	<circle style="fill:#FFE000;" cx="366.189" cy="331.982" r="7.674"/>
</g>
<path style="fill:#2E3033;" d="M20.97,482.004c-6.429,0-11.661-5.232-11.661-11.661V41.549c0-6.371,5.183-11.554,11.554-11.554  h1.524c6.431,0,11.661,5.232,11.661,11.661v428.685c0,6.431-5.232,11.661-11.661,11.661H20.97V482.004z"/>
<path d="M22.386,20.686h-1.524C9.359,20.686,0,30.045,0,41.549v428.793c0,11.563,9.407,20.97,20.97,20.97h1.415  c11.564,0,20.97-9.407,20.97-20.97V41.657C43.357,30.094,33.949,20.686,22.386,20.686z M27.841,470.342  c0,3.008-2.447,5.455-5.455,5.455h-1.415c-3.008,0-5.455-2.447-5.455-5.455V41.549c0-2.949,2.399-5.348,5.348-5.348h1.524  c3.008,0,5.455,2.447,5.455,5.455v428.686H27.841z"/>
<g>
</g>
<g>
</g>
<g>
</g>
<g>
</g>
<g>
</g>
<g>
</g>
<g>
</g>
<g>
</g>
<g>
</g>
<g>
</g>
<g>
</g>
<g>
</g>
<g>
</g>
<g>
</g>
<g>
</g>
</svg>
