<?xml version="1.0" encoding="iso-8859-1"?>
<!-- Generator: Adobe Illustrator 19.0.0, SVG Export Plug-In . SVG Version: 6.00 Build 0)  -->
<svg xmlns="http://www.w3.org/2000/svg" xmlns:xlink="http://www.w3.org/1999/xlink" version="1.1" id="Layer_1" x="0px" y="0px" viewBox="0 0 512 512" style="enable-background:new 0 0 512 512;" xml:space="preserve">
<path style="fill:#ED1F34;" d="M472.068,210.564c-4.353,0-7.881-3.528-7.881-7.881h-15.763c0,4.353-3.528,7.881-7.881,7.881H320.543  c-3.997,44.121-41.175,78.811-86.319,78.811c-17.069,0-33.6-4.971-47.804-14.377c-3.63-2.403-4.623-7.293-2.219-10.923  c0.071-0.109,0.154-0.207,0.229-0.312c-4.132-3.373-7.915-7.154-11.286-11.286c-0.104,0.076-0.203,0.158-0.311,0.229  c-3.628,2.404-8.52,1.411-10.922-2.219c-7.95-12.003-12.718-25.672-14.009-39.923H39.132v141.861h457.106v-141.86H472.068z"/>
<path style="fill:#FFFFFF;" d="M472.068,194.801h24.169V52.941H39.132v141.86h108.775c3.997-44.121,41.174-78.812,86.318-78.812  s82.322,34.691,86.318,78.812h120.002c4.353,0,7.881,3.529,7.881,7.881h15.763C464.188,198.33,467.716,194.801,472.068,194.801z"/>
<path d="M504.118,37.178H31.25c-4.352,0-7.881,3.529-7.881,7.881v315.245c0,4.353,3.529,7.881,7.881,7.881h472.868  c4.354,0,7.882-3.529,7.882-7.881V45.059C512,40.707,508.472,37.178,504.118,37.178z M39.132,352.424v-141.86h108.77  c1.291,14.251,6.059,27.92,14.009,39.923c2.403,3.63,7.294,4.623,10.922,2.219c0.109-0.071,0.207-0.154,0.311-0.229  c3.366-2.473,4.238-7.172,1.907-10.693c-7.691-11.615-11.757-25.135-11.757-39.101c0-39.112,31.819-70.93,70.93-70.93  c39.112,0,70.93,31.819,70.93,70.93s-31.818,70.93-70.93,70.93c-13.964,0-27.485-4.066-39.101-11.757  c-3.52-2.331-8.22-1.46-10.693,1.907c-0.076,0.105-0.158,0.203-0.229,0.312c-2.404,3.63-1.411,8.52,2.219,10.923  c14.204,9.405,30.735,14.377,47.804,14.377c45.144,0,82.322-34.69,86.319-78.811h120.002c4.353,0,7.881-3.528,7.881-7.881  c0-4.353-3.528-7.881-7.881-7.881H320.543c-3.997-44.121-41.175-78.812-86.318-78.812c-45.144,0-82.322,34.691-86.318,78.812H39.132  V52.941h457.106v141.86h-24.169c-4.353,0-7.881,3.529-7.881,7.881c0,4.352,3.528,7.881,7.881,7.881h24.169v141.861L39.132,352.424  L39.132,352.424z"/>
<path style="fill:#FFFFFF;" d="M184.432,263.763c2.473-3.366,7.172-4.238,10.693-1.907c11.615,7.692,25.136,11.757,39.101,11.757  c39.112,0,70.93-31.819,70.93-70.93h-141.86c0,13.966,4.066,27.487,11.757,39.101c2.332,3.519,1.46,8.22-1.907,10.693  C176.517,256.608,180.298,260.39,184.432,263.763z"/>
<path style="fill:#ED1F34;" d="M234.224,131.752c-39.111,0-70.93,31.819-70.93,70.93h141.86  C305.154,163.571,273.336,131.752,234.224,131.752z"/>
<path style="fill:#2E3033;" d="M21.536,488.1c-6.603,0-11.976-5.373-11.976-11.976V35.766c0-6.542,5.323-11.865,11.865-11.865h1.565  c6.604,0,11.976,5.373,11.976,11.976v440.247c0,6.604-5.373,11.976-11.976,11.976h-1.454V488.1z"/>
<path d="M22.99,14.34h-1.565C9.611,14.34,0,23.951,0,35.766v440.358C0,488,9.661,497.66,21.536,497.66h1.453  c11.876,0,21.536-9.661,21.536-21.536V35.876C44.526,24.001,34.865,14.34,22.99,14.34z M28.592,476.124  c0,3.089-2.513,5.602-5.602,5.602h-1.453c-3.089,0-5.602-2.513-5.602-5.602V35.766c0-3.028,2.463-5.492,5.492-5.492h1.565  c3.089,0,5.602,2.513,5.602,5.602v440.248H28.592z"/>
<g>
</g>
<g>
</g>
<g>
</g>
<g>
</g>
<g>
</g>
<g>
</g>
<g>
</g>
<g>
</g>
<g>
</g>
<g>
</g>
<g>
</g>
<g>
</g>
<g>
</g>
<g>
</g>
<g>
</g>
</svg>
