<?xml version="1.0" encoding="iso-8859-1"?>
<!-- Generator: Adobe Illustrator 19.0.0, SVG Export Plug-In . SVG Version: 6.00 Build 0)  -->
<svg xmlns="http://www.w3.org/2000/svg" xmlns:xlink="http://www.w3.org/1999/xlink" version="1.1" id="Layer_1" x="0px" y="0px" viewBox="0 0 511.999 511.999" style="enable-background:new 0 0 511.999 511.999;" xml:space="preserve">
<g>
	<rect x="221.507" y="160.399" style="fill:#FFFFFF;" width="275.112" height="18.791"/>
	<rect x="221.507" y="92.045" style="fill:#FFFFFF;" width="275.112" height="18.801"/>
	<path style="fill:#FFFFFF;" d="M327.448,289.414c0,4.247-3.443,7.69-7.689,7.69H50.619v18.804H496.62v-18.804H350.516   c-4.246,0-7.689-3.443-7.689-7.69l0,0H327.448L327.448,289.414z"/>
	<path style="fill:#FFFFFF;" d="M50.619,228.759v18.794h330.657c4.246,0,7.689,3.442,7.689,7.689h15.379   c0-4.247,3.443-7.689,7.689-7.689h84.587v-18.794H50.619z"/>
</g>
<g>
	<rect x="50.619" y="331.286" style="fill:#3DB4EA;" width="446" height="18.791"/>
	<path style="fill:#3DB4EA;" d="M381.275,262.931H50.619v18.794h269.139c4.247,0,7.689,3.442,7.689,7.689h15.38   c0-4.247,3.443-7.689,7.689-7.689H496.62v-18.794h-84.587c-4.247,0-7.689-3.443-7.689-7.69h-15.379   C388.966,259.488,385.521,262.931,381.275,262.931z"/>
	<rect x="50.619" y="160.399" style="fill:#3DB4EA;" width="52.972" height="52.972"/>
	<path style="fill:#3DB4EA;" d="M442.793,57.873H153.148v52.976h52.976V84.356c0-4.247,3.443-7.689,7.689-7.689H496.62V57.873   h-23.069c-4.247,0-7.689-3.443-7.689-7.689h-15.38C450.482,54.43,447.039,57.873,442.793,57.873z"/>
	<rect x="50.619" y="57.873" style="fill:#3DB4EA;" width="52.972" height="52.972"/>
	<path style="fill:#3DB4EA;" d="M213.814,194.575c-4.247,0-7.689-3.443-7.689-7.689v-26.483h-52.976v52.976H496.62v-18.804   L213.814,194.575L213.814,194.575z"/>
	<rect x="221.507" y="126.227" style="fill:#3DB4EA;" width="275.112" height="18.791"/>
</g>
<path style="fill:#FFFFFF;" d="M118.975,57.873v60.666c0,4.247-3.443,7.69-7.689,7.69H50.619v18.794h60.667  c4.247,0,7.689,3.443,7.689,7.689v60.667h18.794v-60.667c0-4.246,3.443-7.689,7.689-7.689h60.667v-18.794h-60.667  c-4.247,0-7.689-3.443-7.689-7.69V57.873H118.975z"/>
<path d="M504.311,42.493h-30.758c-4.247,0-7.689,3.443-7.689,7.689s3.443,7.689,7.689,7.689h23.069v18.794H213.814  c-4.247,0-7.689,3.443-7.689,7.689v26.493h-52.976V57.873h289.645c4.247,0,7.689-3.443,7.689-7.689c0-4.247-3.443-7.689-7.689-7.689  H42.928c-4.246-0.001-7.689,3.442-7.689,7.688V357.77c0,4.247,3.443,7.689,7.689,7.689H504.31c4.247,0,7.689-3.443,7.689-7.689  V50.183C512,45.936,508.557,42.493,504.311,42.493z M145.458,126.229h60.667v18.794h-60.667c-4.247,0-7.689,3.443-7.689,7.689  v60.667h-18.794v-60.667c0-4.246-3.443-7.689-7.689-7.689H50.619v-18.794h60.667c4.247,0,7.689-3.443,7.689-7.69V57.873h18.794  v60.666C137.768,122.786,141.211,126.229,145.458,126.229z M412.034,247.553c-4.247,0-7.689,3.442-7.689,7.689  c0,4.247,3.443,7.69,7.689,7.69h84.587v18.794H350.516c-4.246,0-7.689,3.442-7.689,7.689l0,0c0,4.247,3.443,7.69,7.689,7.69H496.62  v18.804H50.619v-18.805h269.139c4.247,0,7.689-3.443,7.689-7.69l0,0c0-4.247-3.443-7.689-7.689-7.689H50.619v-18.794h330.657  c4.246,0,7.689-3.443,7.689-7.69s-3.443-7.689-7.689-7.689H50.619v-18.794H496.62v18.794h-84.587V247.553z M103.595,160.403v52.976  H50.619v-52.976H103.595z M153.148,213.379v-52.976h52.976v26.483c0,4.246,3.443,7.689,7.689,7.689H496.62v18.804L153.148,213.379  L153.148,213.379z M221.503,179.195v-18.794H496.62v18.794H221.503z M221.503,145.023v-18.794H496.62v18.794H221.503z   M221.503,110.85V92.047H496.62v18.804H221.503V110.85z M103.595,110.85H50.619V57.873h52.976V110.85z M50.619,350.081v-18.794  H496.62v18.794H50.619z"/>
<path style="fill:#2E3033;" d="M21.013,482.461c-6.442,0-11.685-5.242-11.685-11.685V41.115c0-6.383,5.194-11.577,11.577-11.577  h1.527c6.444,0,11.685,5.242,11.685,11.685v429.552c0,6.444-5.242,11.685-11.685,11.685h-1.419V482.461z"/>
<path d="M22.432,20.21h-1.527C9.378,20.21,0,29.588,0,41.115v429.661c0,11.587,9.426,21.013,21.013,21.013h1.418  c11.587,0,21.013-9.426,21.013-21.013V41.223C43.444,29.636,34.018,20.21,22.432,20.21z M27.898,470.776  c0,3.014-2.452,5.466-5.466,5.466h-1.418c-3.014,0-5.466-2.452-5.466-5.466V41.115c0-2.955,2.403-5.358,5.358-5.358h1.527  c3.014,0,5.466,2.452,5.466,5.466v429.554H27.898z"/>
<g>
</g>
<g>
</g>
<g>
</g>
<g>
</g>
<g>
</g>
<g>
</g>
<g>
</g>
<g>
</g>
<g>
</g>
<g>
</g>
<g>
</g>
<g>
</g>
<g>
</g>
<g>
</g>
<g>
</g>
</svg>
