<?xml version="1.0" encoding="iso-8859-1"?>
<!-- Generator: Adobe Illustrator 19.0.0, SVG Export Plug-In . SVG Version: 6.00 Build 0)  -->
<svg xmlns="http://www.w3.org/2000/svg" xmlns:xlink="http://www.w3.org/1999/xlink" version="1.1" id="Layer_1" x="0px" y="0px" viewBox="0 0 512 512" style="enable-background:new 0 0 512 512;" xml:space="preserve">
<path style="fill:#FFFFFF;" d="M94.299,247.343h146.992l16.084-10.792l-2.653-4.97h-91.295c-4.353,0-7.881-3.529-7.881-7.881  c0-4.352,3.529-7.881,7.881-7.881h6.83v-48.874c-1.911-1.438-3.153-3.719-3.153-6.295c0-4.352,3.529-7.881,7.881-7.881h5.78v-40.529  c0-4.353,3.529-7.881,7.881-7.881h32.576c4.352,0,7.881,3.529,7.881,7.881v40.529h10.735V87.092c0-4.353,3.529-7.881,7.881-7.881  h39.932c4.353,0,7.881,3.529,7.881,7.881v65.676h10.735V112.24c0-4.353,3.528-7.881,7.881-7.881h32.576  c4.353,0,7.881,3.529,7.881,7.881v40.529h5.78c4.353,0,7.881,3.529,7.881,7.881c0,2.576-1.242,4.857-3.153,6.295v48.874h6.832  c4.353,0,7.881,3.529,7.881,7.881c0,4.353-3.528,7.881-7.881,7.881h-91.296l-2.653,4.97l16.083,10.792h202.16V52.941H39.132v194.402  h23.643c4.353,0,7.881,3.528,7.881,7.881h15.763C86.419,250.87,89.947,247.343,94.299,247.343z"/>
<path style="fill:#ED1F34;" d="M294.077,263.104l-18.512,12.421v53.255c0,4.352-3.528,7.881-7.881,7.881h-13.66  c-4.353,0-7.881-3.529-7.881-7.881c0-4.353,3.528-7.881,7.881-7.881h5.78v-5.254h-5.78c-4.353,0-7.881-3.529-7.881-7.881  c0-4.353,3.528-7.882,7.881-7.882h5.78v-24.357l-18.513-12.421H94.299c-4.353,0-7.881-3.529-7.881-7.881H70.656  c0,4.353-3.529,7.881-7.881,7.881H39.132v89.32h457.106v-89.32h-202.16V263.104z"/>
<polygon points="257.837,255.224 267.685,261.832 277.533,255.224 267.685,248.614 "/>
<path d="M235.81,255.224c0-2.627,1.309-5.081,3.491-6.544l1.992-1.336H94.299c-4.353,0-7.881,3.528-7.881,7.881  s3.529,7.881,7.881,7.881h146.992l-1.992-1.336C237.119,260.304,235.81,257.849,235.81,255.224z"/>
<path style="fill:#ED1F34;" d="M349.35,168.531h-2.627c-4.354,0-7.882-3.529-7.882-7.882V120.12h-16.812v40.529  c0,4.353-3.529,7.882-7.882,7.882h-26.497c-4.354,0-7.882-3.529-7.882-7.882V94.974h-24.168v65.676c0,4.353-3.529,7.882-7.882,7.882  h-26.498c-4.353,0-7.881-3.529-7.881-7.882v-40.529h-16.813v40.529c0,4.353-3.529,7.882-7.881,7.882h-2.627v47.287h60.461  c-1.068-3.525,0.46-7.428,3.833-9.229c3.231-1.726,7.118-0.965,9.492,1.605v-16.021c0-4.353,3.528-7.881,7.881-7.881  c4.353,0,7.881,3.529,7.881,7.881v16.02c2.374-2.568,6.258-3.331,9.493-1.604c3.373,1.801,4.899,5.703,3.832,9.229h60.46v-47.288  H349.35z"/>
<path d="M247.072,217.253c-0.25-0.466-0.444-0.948-0.593-1.436h-60.461V168.53h2.627c4.353,0,7.881-3.529,7.881-7.882v-40.529  h16.813v40.529c0,4.353,3.529,7.882,7.881,7.882h26.498c4.353,0,7.882-3.529,7.882-7.882V94.974h24.168v65.676  c0,4.353,3.528,7.882,7.882,7.882h26.497c4.353,0,7.882-3.529,7.882-7.882v-40.529h16.812v40.529c0,4.353,3.528,7.882,7.882,7.882  h2.627v47.287h-60.46c-0.148,0.488-0.343,0.969-0.593,1.436l-7.65,14.326h91.296c4.353,0,7.881-3.529,7.881-7.881  c0-4.352-3.528-7.881-7.881-7.881h-6.832v-48.874c1.911-1.438,3.153-3.718,3.153-6.295c0-4.352-3.528-7.881-7.881-7.881h-5.78  v-40.529c0-4.353-3.528-7.881-7.881-7.881h-32.575c-4.353,0-7.881,3.529-7.881,7.881v40.529h-10.735V87.092  c0-4.353-3.528-7.881-7.881-7.881h-39.932c-4.352,0-7.881,3.529-7.881,7.881v65.676h-10.735V112.24c0-4.353-3.529-7.881-7.881-7.881  h-32.576c-4.352,0-7.881,3.529-7.881,7.881v40.529h-5.78c-4.353,0-7.881,3.529-7.881,7.881c0,2.576,1.241,4.855,3.153,6.295v48.874  h-6.83c-4.353,0-7.881,3.529-7.881,7.881c0,4.353,3.529,7.881,7.881,7.881h91.295L247.072,217.253z"/>
<path d="M267.685,184.293c-4.353,0-7.881,3.529-7.881,7.881v16.021c0.447,0.484,0.848,1.025,1.173,1.635l6.708,12.562l6.708-12.563  c0.325-0.609,0.726-1.15,1.173-1.636v-16.02C275.565,187.821,272.038,184.293,267.685,184.293z"/>
<path style="fill:#FFE000;" d="M280.647,231.58l7.65-14.326c0.249-0.466,0.445-0.948,0.593-1.436  c1.068-3.525-0.46-7.428-3.832-9.229c-3.236-1.727-7.118-0.965-9.493,1.604c-0.447,0.485-0.848,1.026-1.173,1.636l-6.708,12.563  l-6.708-12.563c-0.325-0.609-0.726-1.15-1.173-1.635c-2.374-2.57-6.262-3.331-9.492-1.605c-3.373,1.801-4.9,5.703-3.833,9.229  c0.149,0.488,0.343,0.969,0.593,1.436l7.65,14.326l2.653,4.97l-16.084,10.792l-1.992,1.336c-2.182,1.464-3.491,3.918-3.491,6.544  c0,2.627,1.309,5.081,3.491,6.544l1.992,1.336l18.513,12.421v24.357h-5.78c-4.353,0-7.881,3.529-7.881,7.882  c0,4.352,3.528,7.881,7.881,7.881h5.78v5.254h-5.78c-4.353,0-7.881,3.529-7.881,7.881c0,4.352,3.528,7.881,7.881,7.881h13.66  c4.353,0,7.881-3.529,7.881-7.881v-53.255l18.512-12.421l1.993-1.336c2.182-1.464,3.489-3.918,3.489-6.544  c0-2.627-1.308-5.081-3.489-6.544l-1.993-1.336l-16.083-10.792L280.647,231.58z M267.685,261.832l-9.848-6.609l9.848-6.608  l9.848,6.608L267.685,261.832z"/>
<path d="M504.118,37.178H31.25c-4.352,0-7.881,3.529-7.881,7.881v315.245c0,4.353,3.529,7.881,7.881,7.881h472.868  c4.354,0,7.882-3.529,7.882-7.881V45.059C512,40.707,508.472,37.178,504.118,37.178z M39.132,352.424v-89.32h23.643  c4.353,0,7.881-3.529,7.881-7.881s-3.529-7.881-7.881-7.881H39.132V52.941h457.106v194.402h-202.16l1.993,1.336  c2.182,1.464,3.489,3.918,3.489,6.544c0,2.627-1.308,5.081-3.489,6.544l-1.993,1.336h202.16v89.32H39.132z"/>
<path style="fill:#2E3033;" d="M21.536,488.1c-6.603,0-11.976-5.373-11.976-11.976V35.766c0-6.542,5.323-11.865,11.865-11.865h1.565  c6.604,0,11.976,5.373,11.976,11.976v440.247c0,6.604-5.373,11.976-11.976,11.976h-1.454V488.1z"/>
<path d="M22.99,14.34h-1.565C9.611,14.34,0,23.951,0,35.766v440.358C0,488,9.661,497.66,21.536,497.66h1.453  c11.876,0,21.536-9.661,21.536-21.536V35.876C44.526,24.001,34.865,14.34,22.99,14.34z M28.592,476.124  c0,3.089-2.513,5.602-5.602,5.602h-1.453c-3.089,0-5.602-2.513-5.602-5.602V35.766c0-3.028,2.463-5.492,5.492-5.492h1.565  c3.089,0,5.602,2.513,5.602,5.602v440.248H28.592z"/>
<g>
</g>
<g>
</g>
<g>
</g>
<g>
</g>
<g>
</g>
<g>
</g>
<g>
</g>
<g>
</g>
<g>
</g>
<g>
</g>
<g>
</g>
<g>
</g>
<g>
</g>
<g>
</g>
<g>
</g>
</svg>
