<?xml version="1.0" encoding="iso-8859-1"?>
<!-- Generator: Adobe Illustrator 19.0.0, SVG Export Plug-In . SVG Version: 6.00 Build 0)  -->
<svg xmlns="http://www.w3.org/2000/svg" xmlns:xlink="http://www.w3.org/1999/xlink" version="1.1" id="Layer_1" x="0px" y="0px" viewBox="0 0 512 512" style="enable-background:new 0 0 512 512;" xml:space="preserve">
<g>
	<path style="fill:#FFFFFF;" d="M50.63,165.782h184.805V57.873H50.63V165.782z M122.399,104.138h12.943V91.194   c0-4.247,3.442-7.689,7.69-7.689c4.247,0,7.689,3.443,7.689,7.689v12.944h12.943c4.248,0,7.69,3.443,7.69,7.689   c0,4.247-3.442,7.689-7.69,7.689h-12.943v12.944c0,4.247-3.442,7.689-7.689,7.689c-4.248,0-7.69-3.443-7.69-7.689v-12.944h-12.943   c-4.247,0-7.689-3.443-7.689-7.689C114.71,107.581,118.152,104.138,122.399,104.138z"/>
	<path style="fill:#FFFFFF;" d="M311.816,165.782h130.978c4.247,0,7.689,3.443,7.689,7.689h15.38c0-4.246,3.442-7.689,7.689-7.689   h23.069V57.873H311.816V165.782z M383.585,104.138h12.944V91.194c0-4.247,3.442-7.689,7.689-7.689c4.247,0,7.69,3.443,7.69,7.689   v12.944h12.943c4.247,0,7.689,3.443,7.689,7.689c0,4.247-3.442,7.689-7.689,7.689h-12.943v12.944c0,4.247-3.443,7.689-7.69,7.689   s-7.689-3.443-7.689-7.689v-12.944h-12.944c-4.247,0-7.689-3.443-7.689-7.689C375.896,107.581,379.338,104.138,383.585,104.138z"/>
	<path style="fill:#FFFFFF;" d="M496.621,242.165H311.816v107.91h184.805V242.165z M424.852,303.809h-12.943v12.944   c0,4.246-3.443,7.689-7.69,7.689s-7.689-3.443-7.689-7.689v-12.944h-12.944c-4.247,0-7.689-3.443-7.689-7.689   c0-4.247,3.442-7.689,7.689-7.689h12.944v-12.944c0-4.247,3.442-7.689,7.689-7.689c4.247,0,7.69,3.442,7.69,7.689v12.944h12.943   c4.247,0,7.689,3.443,7.689,7.689C432.542,300.366,429.1,303.809,424.852,303.809z"/>
	<path style="fill:#FFFFFF;" d="M235.434,242.165H50.63v107.91h184.805v-107.91H235.434z M163.665,303.809h-12.943v12.944   c0,4.246-3.442,7.689-7.689,7.689c-4.248,0-7.69-3.443-7.69-7.689v-12.944h-12.943c-4.247,0-7.689-3.443-7.689-7.689   c0-4.247,3.442-7.689,7.689-7.689h12.943v-12.944c0-4.247,3.442-7.689,7.69-7.689c4.247,0,7.689,3.442,7.689,7.689v12.944h12.943   c4.248,0,7.69,3.443,7.69,7.689S167.913,303.809,163.665,303.809z"/>
</g>
<g>
	<path style="fill:#ED1F34;" d="M450.483,173.472c0,4.247-3.442,7.689-7.689,7.689H304.128c-4.248,0-7.69-3.443-7.69-7.689V57.873   h-45.624v115.599c0,4.247-3.443,7.689-7.69,7.689H50.63v45.624h192.494c4.247,0,7.69,3.443,7.69,7.689v115.599h45.624V234.475   c0-4.247,3.442-7.689,7.69-7.689h192.494v-45.624h-23.069c-4.247,0-7.689-3.443-7.689-7.689l0,0h-15.382V173.472z"/>
	<path style="fill:#ED1F34;" d="M163.665,288.43h-12.943v-12.944c0-4.247-3.442-7.689-7.689-7.689c-4.248,0-7.69,3.442-7.69,7.689   v12.944h-12.943c-4.247,0-7.689,3.443-7.689,7.689s3.442,7.689,7.689,7.689h12.943v12.944c0,4.246,3.442,7.689,7.69,7.689   c4.247,0,7.689-3.443,7.689-7.689v-12.944h12.943c4.248,0,7.69-3.443,7.69-7.689C171.355,291.872,167.913,288.43,163.665,288.43z"/>
	<path style="fill:#ED1F34;" d="M122.399,119.517h12.943v12.944c0,4.247,3.442,7.689,7.69,7.689c4.247,0,7.689-3.443,7.689-7.689   v-12.944h12.943c4.248,0,7.69-3.443,7.69-7.689s-3.442-7.689-7.69-7.689h-12.943V91.194c0-4.247-3.442-7.689-7.689-7.689   c-4.248,0-7.69,3.443-7.69,7.689v12.944h-12.943c-4.247,0-7.689,3.443-7.689,7.689C114.71,116.075,118.152,119.517,122.399,119.517   z"/>
	<path style="fill:#ED1F34;" d="M424.852,288.43h-12.943v-12.944c0-4.247-3.443-7.689-7.69-7.689s-7.689,3.442-7.689,7.689v12.944   h-12.944c-4.247,0-7.689,3.443-7.689,7.689s3.442,7.689,7.689,7.689h12.944v12.944c0,4.246,3.442,7.689,7.689,7.689   c4.247,0,7.69-3.443,7.69-7.689v-12.944h12.943c4.247,0,7.689-3.443,7.689-7.689C432.542,291.872,429.1,288.43,424.852,288.43z"/>
	<path style="fill:#ED1F34;" d="M383.585,119.517h12.944v12.944c0,4.247,3.442,7.689,7.689,7.689c4.247,0,7.69-3.443,7.69-7.689   v-12.944h12.943c4.247,0,7.689-3.443,7.689-7.689s-3.442-7.689-7.689-7.689h-12.943V91.194c0-4.247-3.443-7.689-7.69-7.689   s-7.689,3.443-7.689,7.689v12.944h-12.944c-4.247,0-7.689,3.443-7.689,7.689C375.896,116.075,379.338,119.517,383.585,119.517z"/>
</g>
<path d="M504.311,42.494H42.941c-4.247,0-7.689,3.443-7.689,7.689v307.58c0,4.246,3.442,7.689,7.689,7.689h461.37  c4.247,0,7.689-3.443,7.689-7.689V50.183C512,45.937,508.558,42.494,504.311,42.494z M496.621,165.782h-23.069  c-4.247,0-7.689,3.443-7.689,7.689l0,0c0,4.247,3.442,7.689,7.689,7.689h23.069v45.624H304.128c-4.248,0-7.69,3.443-7.69,7.689  v115.599h-45.624V234.475c0-4.247-3.443-7.689-7.69-7.689H50.63v-45.624h192.494c4.247,0,7.69-3.443,7.69-7.689v-115.6h45.624  v115.599c0,4.247,3.442,7.689,7.69,7.689h138.667c4.247,0,7.689-3.443,7.689-7.689l0,0c0-4.246-3.442-7.689-7.689-7.689h-130.98  V57.873h184.805V165.782z M235.434,165.782H50.63V57.873h184.805v107.91H235.434z M50.63,242.165h184.805v107.91H50.63V242.165z   M311.816,242.165h184.805v107.91H311.816V242.165z"/>
<path style="fill:#2E3033;" d="M21.013,482.462c-6.442,0-11.685-5.242-11.685-11.685V41.115c0-6.383,5.194-11.577,11.577-11.577  h1.527c6.444,0,11.685,5.242,11.685,11.685v429.552c0,6.444-5.242,11.685-11.685,11.685h-1.419V482.462z"/>
<path d="M22.432,20.211h-1.527C9.378,20.211,0,29.588,0,41.115v429.661c0,11.587,9.426,21.013,21.013,21.013h1.418  c11.587,0,21.013-9.426,21.013-21.013V41.223C43.444,29.637,34.018,20.211,22.432,20.211z M27.898,470.777  c0,3.014-2.452,5.466-5.466,5.466h-1.418c-3.014,0-5.466-2.452-5.466-5.466V41.115c0-2.955,2.403-5.358,5.358-5.358h1.527  c3.014,0,5.466,2.452,5.466,5.466v429.553H27.898z"/>
<g>
</g>
<g>
</g>
<g>
</g>
<g>
</g>
<g>
</g>
<g>
</g>
<g>
</g>
<g>
</g>
<g>
</g>
<g>
</g>
<g>
</g>
<g>
</g>
<g>
</g>
<g>
</g>
<g>
</g>
</svg>
