<?xml version="1.0" encoding="iso-8859-1"?>
<!-- Generator: Adobe Illustrator 19.0.0, SVG Export Plug-In . SVG Version: 6.00 Build 0)  -->
<svg xmlns="http://www.w3.org/2000/svg" xmlns:xlink="http://www.w3.org/1999/xlink" version="1.1" id="Layer_1" x="0px" y="0px" viewBox="0 0 512 512" style="enable-background:new 0 0 512 512;" xml:space="preserve">
<rect x="39.132" y="161.174" style="fill:#FFFFFF;" width="457.103" height="83.014"/>
<rect x="39.132" y="259.952" style="fill:#164FCE;" width="457.103" height="92.468"/>
<path style="fill:#259245;" d="M441.07,52.941H39.132v92.472h457.106V52.941h-23.643c-4.354,0-7.881-3.528-7.881-7.881h-15.763  C448.952,49.413,445.423,52.941,441.07,52.941z"/>
<path d="M504.118,37.178h-31.524c-4.354,0-7.881,3.528-7.881,7.882c0,4.353,3.527,7.881,7.881,7.881h23.643v92.472H39.132V52.941  H441.07c4.354,0,7.882-3.528,7.882-7.881c0-4.354-3.528-7.882-7.882-7.882H31.25c-4.353,0-7.881,3.528-7.881,7.882v315.244  c0,4.354,3.528,7.882,7.881,7.882h472.868c4.354,0,7.882-3.528,7.882-7.882V45.06C512,40.706,508.472,37.178,504.118,37.178z   M39.132,161.175h457.106v83.014H39.132V161.175z M39.132,352.424v-92.472h457.106v92.472H39.132z"/>
<path style="fill:#2E3033;" d="M21.536,488.1c-6.603,0-11.976-5.373-11.976-11.976V35.766c0-6.542,5.323-11.865,11.865-11.865h1.565  c6.604,0,11.976,5.373,11.976,11.976v440.247c0,6.604-5.373,11.976-11.976,11.976h-1.454V488.1z"/>
<path d="M22.99,14.34h-1.565C9.611,14.34,0,23.951,0,35.766v440.358C0,488,9.661,497.66,21.536,497.66h1.453  c11.876,0,21.536-9.661,21.536-21.536V35.876C44.526,24.001,34.865,14.34,22.99,14.34z M28.592,476.124  c0,3.089-2.513,5.602-5.602,5.602h-1.453c-3.089,0-5.602-2.513-5.602-5.602V35.766c0-3.028,2.463-5.492,5.492-5.492h1.565  c3.089,0,5.602,2.513,5.602,5.602v440.248H28.592z"/>
<g>
</g>
<g>
</g>
<g>
</g>
<g>
</g>
<g>
</g>
<g>
</g>
<g>
</g>
<g>
</g>
<g>
</g>
<g>
</g>
<g>
</g>
<g>
</g>
<g>
</g>
<g>
</g>
<g>
</g>
</svg>
