<?xml version="1.0" encoding="iso-8859-1"?>
<!-- Generator: Adobe Illustrator 19.0.0, SVG Export Plug-In . SVG Version: 6.00 Build 0)  -->
<svg xmlns="http://www.w3.org/2000/svg" xmlns:xlink="http://www.w3.org/1999/xlink" version="1.1" id="Layer_1" x="0px" y="0px" viewBox="0 0 511.999 511.999" style="enable-background:new 0 0 511.999 511.999;" xml:space="preserve">
<g>
	<path style="fill:#ED1F34;" d="M441.07,108.635c4.353,0,7.881,3.527,7.881,7.88h15.763c0-4.353,3.529-7.88,7.881-7.88h23.643V52.94   H39.132v55.694C39.132,108.635,441.07,108.635,441.07,108.635z"/>
	<rect x="39.132" y="296.726" style="fill:#ED1F34;" width="457.103" height="55.693"/>
</g>
<path style="fill:#FFFFFF;" d="M441.07,124.395H39.132v156.572h457.106V124.395h-23.643c-4.353,0-7.881-3.528-7.881-7.882h-15.763  C448.951,120.868,445.422,124.395,441.07,124.395z M267.685,268.883c-36.504,0-66.201-29.697-66.201-66.201  s29.698-66.201,66.201-66.201s66.202,29.697,66.202,66.201S304.189,268.883,267.685,268.883z"/>
<path style="fill:#F2A643;" d="M267.685,152.242c-27.813,0-50.439,22.627-50.439,50.439c0,7.498,1.657,14.613,4.605,21.016h15.549  c-0.867-2.222-1.361-4.628-1.361-7.153v-22.005c0-4.354,3.529-7.881,7.881-7.881c4.352,0,7.881,3.527,7.881,7.881v22.005  c0,2.205,1.795,4,4.001,4c2.206,0,4.001-1.794,4.001-4v-39.608c0-4.354,3.529-7.882,7.881-7.882c4.352,0,7.881,3.528,7.881,7.882  v39.608c0,2.205,1.794,4,4.001,4s4.001-1.794,4.001-4v-22.005c0-4.354,3.529-7.881,7.881-7.881s7.881,3.527,7.881,7.881v22.005  c0,2.525-0.494,4.932-1.361,7.153h15.549c2.948-6.403,4.605-13.519,4.605-21.016C318.124,174.869,295.497,152.242,267.685,152.242z"/>
<path style="fill:#164FCE;" d="M279.567,236.309c-4.462,0-8.57-1.505-11.882-4.008c-3.312,2.503-7.42,4.008-11.882,4.008  c-8.373,0-15.529-5.243-18.403-12.61H221.85c7.986,17.345,25.52,29.423,45.835,29.423c20.314,0,37.849-12.078,45.835-29.423H297.97  C295.096,231.066,287.939,236.309,279.567,236.309z"/>
<path style="fill:#B21727;" d="M255.802,236.309c4.462,0,8.57-1.505,11.882-4.008c3.312,2.503,7.42,4.008,11.882,4.008  c8.373,0,15.529-5.243,18.403-12.61c0.867-2.222,1.361-4.628,1.361-7.153V194.54c0-4.354-3.529-7.881-7.881-7.881  s-7.881,3.527-7.881,7.881v22.005c0,2.205-1.794,4-4.001,4s-4.001-1.794-4.001-4v-39.609c0-4.354-3.529-7.882-7.881-7.882  s-7.881,3.528-7.881,7.882v39.608c0,2.205-1.794,4-4.001,4c-2.206,0-4.001-1.794-4.001-4v-22.005c0-4.354-3.529-7.881-7.881-7.881  c-4.352,0-7.881,3.527-7.881,7.881v22.005c0,2.525,0.494,4.932,1.361,7.153C240.274,231.066,247.43,236.309,255.802,236.309z"/>
<path d="M267.685,136.48c-36.504,0-66.201,29.697-66.201,66.201s29.698,66.201,66.201,66.201s66.202-29.697,66.202-66.201  S304.189,136.48,267.685,136.48z M313.519,223.699c-7.986,17.345-25.52,29.423-45.835,29.423s-37.849-12.078-45.835-29.423  c-2.948-6.403-4.605-13.519-4.605-21.016c0-27.814,22.627-50.439,50.439-50.439s50.439,22.627,50.439,50.439  C318.124,210.18,316.467,217.295,313.519,223.699z"/>
<path d="M504.119,37.178H31.25c-4.352,0-7.881,3.528-7.881,7.882v315.244c0,4.353,3.529,7.882,7.881,7.882h472.868  c4.353,0,7.881-3.529,7.881-7.882V45.06C512,40.706,508.471,37.178,504.119,37.178z M496.237,52.94v55.694h-23.643  c-4.353,0-7.881,3.527-7.881,7.88c0,4.354,3.529,7.882,7.881,7.882h23.643v156.572H39.132V124.395H441.07  c4.353,0,7.881-3.528,7.881-7.882c0-4.353-3.529-7.88-7.881-7.88H39.132V52.94H496.237z M39.132,352.422v-55.693h457.106v55.693  H39.132z"/>
<path style="fill:#2E3033;" d="M21.536,488.099c-6.603,0-11.976-5.373-11.976-11.976V35.765c0-6.542,5.323-11.865,11.865-11.865  h1.565c6.604,0,11.976,5.373,11.976,11.976v440.247c0,6.604-5.373,11.976-11.976,11.976h-1.454V488.099z"/>
<path d="M22.99,14.34h-1.565C9.611,14.34,0,23.951,0,35.765v440.358c0,11.876,9.661,21.536,21.536,21.536h1.453  c11.876,0,21.536-9.661,21.536-21.536V35.876C44.526,24.001,34.865,14.34,22.99,14.34z M28.592,476.123  c0,3.089-2.513,5.602-5.602,5.602h-1.453c-3.089,0-5.602-2.513-5.602-5.602V35.765c0-3.028,2.463-5.492,5.492-5.492h1.565  c3.089,0,5.602,2.513,5.602,5.602v440.248H28.592z"/>
<g>
</g>
<g>
</g>
<g>
</g>
<g>
</g>
<g>
</g>
<g>
</g>
<g>
</g>
<g>
</g>
<g>
</g>
<g>
</g>
<g>
</g>
<g>
</g>
<g>
</g>
<g>
</g>
<g>
</g>
</svg>
