<?xml version="1.0" encoding="iso-8859-1"?>
<!-- Generator: Adobe Illustrator 19.0.0, SVG Export Plug-In . SVG Version: 6.00 Build 0)  -->
<svg xmlns="http://www.w3.org/2000/svg" xmlns:xlink="http://www.w3.org/1999/xlink" version="1.1" id="Layer_1" x="0px" y="0px" viewBox="0 0 512 512" style="enable-background:new 0 0 512 512;" xml:space="preserve">
<path style="fill:#3DB4EA;" d="M473.954,335.279h22.828V57.552h-213.06v138.864c0,1.938-0.802,3.797-2.228,5.169  c-1.428,1.37-3.364,2.14-5.382,2.14l-220.67-0.004v131.559h388.074c4.202,0,7.607,3.27,7.609,7.303h15.219  C466.347,338.549,469.752,335.279,473.954,335.279z M442.706,204.274c0,30.391-25.883,48.905-50.136,56.11  c-0.348,0.107-0.707,0.184-1.074,0.242c-0.076,0.012-0.151,0.023-0.227,0.033c-0.334,0.043-0.672,0.072-1.02,0.072  c-0.346,0-0.685-0.03-1.019-0.072c-0.076-0.01-0.151-0.022-0.227-0.033c-0.366-0.059-0.726-0.135-1.074-0.242  c-24.251-7.205-50.136-25.718-50.136-56.11v-64.865c0-4.036,3.407-7.308,7.61-7.308h89.691c4.203,0,7.609,3.272,7.609,7.308v64.865  H442.706z"/>
<g>
	<polygon style="fill:#103B9B;" points="268.502,103.596 268.502,78.832 229.828,103.596  "/>
	<polygon style="fill:#103B9B;" points="227.659,57.552 182.517,57.552 182.517,86.458  "/>
	<polygon style="fill:#103B9B;" points="268.502,167.826 268.502,143.063 229.828,143.063  "/>
	<polygon style="fill:#103B9B;" points="141.427,57.552 96.285,57.552 141.427,86.458  "/>
	<polygon style="fill:#103B9B;" points="96.29,189.103 141.427,189.104 141.427,160.201  "/>
	<polygon style="fill:#103B9B;" points="182.517,189.105 227.659,189.106 182.517,160.201  "/>
	<polygon style="fill:#103B9B;" points="55.442,78.831 55.442,103.596 94.116,103.596  "/>
	<polygon style="fill:#103B9B;" points="55.442,143.063 55.442,167.826 94.116,143.063  "/>
</g>
<g>
	<polygon style="fill:#ED1F34;" points="182.517,103.596 192.79,103.596 264.697,57.552 240.006,57.552 182.517,94.367  "/>
	<polygon style="fill:#ED1F34;" points="192.79,143.063 264.698,189.107 268.502,189.107 268.502,176.058 217.095,143.063  "/>
	<polygon style="fill:#ED1F34;" points="141.427,152.296 141.427,143.063 131.155,143.063 59.253,189.103 83.944,189.103  "/>
	<polygon style="fill:#ED1F34;" points="131.155,103.596 59.247,57.552 55.442,57.552 55.442,70.95 106.304,103.596  "/>
</g>
<g>
	<polygon style="fill:#FFFFFF;" points="173.006,133.927 173.006,189.105 182.517,189.105 182.517,160.201 227.659,189.106    264.698,189.107 192.79,143.063 217.095,143.063 268.502,176.058 268.502,167.826 229.828,143.063 268.502,143.063    268.502,133.927  "/>
	<polygon style="fill:#FFFFFF;" points="150.939,112.732 150.939,57.552 141.427,57.552 141.427,86.458 96.285,57.552    59.247,57.552 131.155,103.596 106.304,103.596 55.442,70.95 55.442,78.831 94.116,103.596 55.442,103.596 55.442,112.732  "/>
	<polygon style="fill:#FFFFFF;" points="173.006,112.732 268.502,112.732 268.502,103.596 229.828,103.596 268.502,78.832    268.502,57.552 264.697,57.552 192.79,103.596 182.517,103.596 182.517,94.367 240.006,57.552 227.659,57.552 182.517,86.458    182.517,57.552 173.006,57.552  "/>
	<polygon style="fill:#FFFFFF;" points="141.427,143.063 141.427,152.296 83.944,189.103 96.29,189.103 141.427,160.201    141.427,189.104 150.939,189.104 150.939,133.927 55.442,133.927 55.442,143.063 94.116,143.063 55.442,167.826 55.442,189.103    59.253,189.103 131.155,143.063  "/>
</g>
<polygon style="fill:#ED1F34;" points="150.939,133.927 150.939,189.104 173.006,189.105 173.006,133.927 268.502,133.927   268.502,112.732 173.006,112.732 173.006,57.552 150.939,57.552 150.939,112.732 55.442,112.732 55.442,133.927 "/>
<g>
	<path style="fill:#FFFFFF;" d="M353.737,211.582c3.373,16.734,17.982,26.284,28.904,31.189v-31.189H353.737z"/>
	<polygon style="fill:#FFFFFF;" points="397.86,170.134 397.86,196.965 427.487,196.965 427.487,170.134  "/>
	<polygon style="fill:#FFFFFF;" points="382.642,170.134 382.642,170.134 353.015,170.134 353.015,196.965 382.642,196.965  "/>
	<path style="fill:#FFFFFF;" d="M397.86,211.582v31.189c10.924-4.905,25.532-14.455,28.905-31.189H397.86z"/>
</g>
<g>
	<path style="fill:#ED1F34;" d="M387.932,260.383c0.348,0.108,0.707,0.184,1.074,0.242c-0.335-0.054-0.668-0.121-0.996-0.218   C387.983,260.399,387.957,260.391,387.932,260.383z"/>
	<path style="fill:#ED1F34;" d="M391.27,260.659c-0.338,0.043-0.679,0.072-1.02,0.072   C390.598,260.731,390.936,260.701,391.27,260.659z"/>
	<path style="fill:#ED1F34;" d="M391.497,260.626c0.366-0.059,0.726-0.135,1.074-0.242c-0.025,0.007-0.052,0.017-0.078,0.024   C392.166,260.504,391.832,260.572,391.497,260.626z"/>
	<path style="fill:#ED1F34;" d="M390.251,260.731c-0.34,0-0.681-0.029-1.019-0.072C389.566,260.701,389.904,260.731,390.251,260.731   z"/>
	<path style="fill:#ED1F34;" d="M426.766,211.582c0.462-2.3,0.721-4.73,0.721-7.309v-7.309H397.86v-26.83l0,0h29.627v-23.417   h-74.472v23.417h29.627l0,0v26.83h-29.627v7.309c0,2.579,0.259,5.008,0.722,7.309h28.904v31.189   c2.886,1.295,5.515,2.268,7.609,2.964c2.095-0.695,4.723-1.668,7.61-2.964v-31.189H426.766z"/>
</g>
<path d="M435.097,132.1h-89.691c-4.203,0-7.61,3.272-7.61,7.308v64.865c0,30.391,25.883,48.905,50.136,56.11  c0.026,0.008,0.052,0.017,0.078,0.024c0.327,0.097,0.661,0.164,0.996,0.218c0.076,0.012,0.151,0.023,0.227,0.033  c0.338,0.043,0.679,0.072,1.019,0.072c0.341,0,0.682-0.029,1.02-0.072c0.076-0.01,0.151-0.022,0.227-0.033  c0.335-0.054,0.668-0.121,0.996-0.218c0.026-0.008,0.053-0.017,0.078-0.024c24.251-7.205,50.136-25.718,50.136-56.11v-64.865  C442.706,135.372,439.299,132.1,435.097,132.1z M397.86,242.77c-2.887,1.295-5.515,2.268-7.61,2.964  c-2.094-0.695-4.723-1.668-7.609-2.964c-10.923-4.905-25.532-14.455-28.904-31.189c-0.463-2.3-0.722-4.73-0.722-7.309v-7.309  v-26.831v-23.417h74.472v23.417v26.831v7.309c0,2.579-0.259,5.008-0.721,7.309C423.392,228.316,408.784,237.865,397.86,242.77z"/>
<path d="M504.39,42.935H276.308c-0.065-0.001-0.13-0.009-0.197-0.009c-0.065,0-0.13,0.008-0.195,0.009H47.832  c-4.203,0-7.609,3.273-7.609,7.309v292.345c0,4.036,3.406,7.309,7.609,7.309h395.684c4.203,0,7.609-3.273,7.609-7.309  c0-0.002,0-0.003,0-0.005c-0.002-4.034-3.408-7.303-7.609-7.303H55.442V203.72l220.67,0.004c2.018,0,3.953-0.77,5.382-2.14  c1.426-1.37,2.228-3.23,2.228-5.169V57.552h213.06v277.727h-22.828c-4.202,0-7.607,3.27-7.609,7.303  c0,0.002-0.001,0.003-0.001,0.005c0,4.036,3.407,7.309,7.61,7.309h30.437c4.204,0,7.61-3.273,7.61-7.309V50.243  C512,46.207,508.594,42.935,504.39,42.935z M55.442,189.103v-21.275v-24.764v-9.136v-21.195v-9.136V78.831V70.95V57.552h3.806  h37.038h45.143h9.511h22.068h9.511h45.141h12.348h24.691h3.805v21.281v24.763v9.136v21.195v9.136v24.764v8.231v13.049h-3.804  l-37.04-0.001l-45.142-0.001h-9.511l-22.068-0.001h-9.511l-45.138-0.001H83.944H59.253L55.442,189.103L55.442,189.103z"/>
<path style="fill:#2E3033;" d="M20.97,482.004c-6.429,0-11.661-5.232-11.661-11.661V41.55c0-6.371,5.183-11.554,11.554-11.554h1.524  c6.431,0,11.661,5.232,11.661,11.661v428.685c0,6.431-5.232,11.661-11.661,11.661H20.97V482.004z"/>
<path d="M22.386,20.687h-1.524C9.359,20.687,0,30.046,0,41.55v428.793c0,11.563,9.407,20.97,20.97,20.97h1.415  c11.564,0,20.97-9.407,20.97-20.97V41.657C43.357,30.094,33.949,20.687,22.386,20.687z M27.841,470.343  c0,3.008-2.447,5.455-5.455,5.455h-1.415c-3.008,0-5.455-2.447-5.455-5.455V41.55c0-2.949,2.399-5.348,5.348-5.348h1.524  c3.008,0,5.455,2.447,5.455,5.455v428.686H27.841z"/>
<g>
</g>
<g>
</g>
<g>
</g>
<g>
</g>
<g>
</g>
<g>
</g>
<g>
</g>
<g>
</g>
<g>
</g>
<g>
</g>
<g>
</g>
<g>
</g>
<g>
</g>
<g>
</g>
<g>
</g>
</svg>
