<?xml version="1.0" encoding="iso-8859-1"?>
<!-- Generator: Adobe Illustrator 19.0.0, SVG Export Plug-In . SVG Version: 6.00 Build 0)  -->
<svg xmlns="http://www.w3.org/2000/svg" xmlns:xlink="http://www.w3.org/1999/xlink" version="1.1" id="Layer_1" x="0px" y="0px" viewBox="0 0 511.999 511.999" style="enable-background:new 0 0 511.999 511.999;" xml:space="preserve">
<g>
	<rect x="39.132" y="245.239" style="fill:#FFFFFF;" width="128.085" height="107.18"/>
	<rect x="252.335" y="52.94" style="fill:#FFFFFF;" width="243.901" height="107.18"/>
	<rect x="39.132" y="52.94" style="fill:#FFFFFF;" width="128.085" height="107.18"/>
	<rect x="252.335" y="245.239" style="fill:#FFFFFF;" width="243.901" height="107.18"/>
</g>
<g>
	<polygon style="fill:#164FCE;" points="252.335,245.24 496.237,245.24 496.237,233.418 240.514,233.418 240.514,352.423    252.335,352.423  "/>
	<polygon style="fill:#164FCE;" points="252.335,52.94 240.514,52.94 240.514,171.945 496.237,171.945 496.237,160.124    252.335,160.124  "/>
	<path style="fill:#164FCE;" d="M167.218,352.423h11.822V233.418h-84.74c-4.353,0-7.881-3.529-7.881-7.882H70.656   c0,4.353-3.529,7.882-7.881,7.882H39.132v11.822h128.086V352.423z"/>
	<polygon style="fill:#164FCE;" points="167.218,160.124 39.132,160.124 39.132,171.945 179.041,171.945 179.041,52.94    167.218,52.94  "/>
</g>
<path style="fill:#ED1F34;" d="M94.299,217.656h92.622c4.352,0,7.881,3.529,7.881,7.881v126.887h29.949V225.537  c0-4.352,3.529-7.881,7.881-7.881h263.606v-29.948H232.632c-4.353,0-7.881-3.529-7.881-7.882V52.94h-29.949v126.886  c0,4.353-3.529,7.882-7.881,7.882H39.132v29.948h23.643c4.353,0,7.881,3.529,7.881,7.881h15.763  C86.419,221.185,89.947,217.656,94.299,217.656z"/>
<path d="M504.119,37.178H31.25c-4.352,0-7.881,3.529-7.881,7.881v315.245c0,4.353,3.529,7.881,7.881,7.881h472.868  c4.353,0,7.881-3.529,7.881-7.881V45.059C512,40.707,508.471,37.178,504.119,37.178z M179.041,171.945H39.132v-11.822V52.94h128.086  h11.822v119.005H179.041z M39.132,245.24v-11.822h23.643c4.353,0,7.881-3.529,7.881-7.882c0-4.352-3.529-7.881-7.881-7.881H39.132  v-29.948h147.79c4.352,0,7.881-3.529,7.881-7.882V52.94h29.949v126.886c0,4.353,3.529,7.882,7.881,7.882h263.606v29.948H232.632  c-4.353,0-7.881,3.529-7.881,7.881v126.887h-29.949V225.537c0-4.352-3.529-7.881-7.881-7.881H94.299  c-4.353,0-7.881,3.529-7.881,7.881c0,4.353,3.529,7.882,7.881,7.882h84.74v119.005h-11.822H39.132V245.24z M496.237,160.124v11.822  H240.514V52.94h11.822h243.902V160.124z M240.514,233.418h255.724v11.822v107.183H252.335h-11.822V233.418z"/>
<path style="fill:#2E3033;" d="M21.536,488.099c-6.603,0-11.976-5.373-11.976-11.976V35.765c0-6.542,5.323-11.865,11.865-11.865  h1.565c6.604,0,11.976,5.373,11.976,11.976v440.247c0,6.604-5.373,11.976-11.976,11.976h-1.454V488.099z"/>
<path d="M22.99,14.34h-1.565C9.611,14.34,0,23.951,0,35.765v440.358c0,11.876,9.661,21.536,21.536,21.536h1.453  c11.876,0,21.536-9.661,21.536-21.536V35.876C44.526,24.001,34.865,14.34,22.99,14.34z M28.592,476.123  c0,3.089-2.513,5.602-5.602,5.602h-1.453c-3.089,0-5.602-2.513-5.602-5.602V35.765c0-3.028,2.463-5.492,5.492-5.492h1.565  c3.089,0,5.602,2.513,5.602,5.602v440.248H28.592z"/>
<g>
</g>
<g>
</g>
<g>
</g>
<g>
</g>
<g>
</g>
<g>
</g>
<g>
</g>
<g>
</g>
<g>
</g>
<g>
</g>
<g>
</g>
<g>
</g>
<g>
</g>
<g>
</g>
<g>
</g>
</svg>
