<?xml version="1.0" encoding="iso-8859-1"?>
<!-- Generator: Adobe Illustrator 19.0.0, SVG Export Plug-In . SVG Version: 6.00 Build 0)  -->
<svg xmlns="http://www.w3.org/2000/svg" xmlns:xlink="http://www.w3.org/1999/xlink" version="1.1" id="Layer_1" x="0px" y="0px" viewBox="0 0 511.999 511.999" style="enable-background:new 0 0 511.999 511.999;" xml:space="preserve">
<g>
	<polygon style="fill:#103B9B;" points="217.501,52.94 170.747,52.94 170.747,84.11  "/>
	<path style="fill:#103B9B;" d="M94.299,352.423h401.938V52.94H267.685v17.693l-47.937,31.958h47.937v9.851v22.855v9.851h-47.937   l47.937,31.959v8.889v16.686h-38.361l-58.577-39.051v39.051h-9.851H138.04h-9.851V163.63l-58.577,39.051H56.825H39.132v149.741   h23.643c4.353,0,7.881,3.529,7.881,7.881h15.763C86.419,355.952,89.947,352.423,94.299,352.423z M325.48,110.858   c0-4.353,3.529-7.881,7.881-7.881h105.082c4.352,0,7.881,3.529,7.881,7.881v89.683c0,10.44-1.648,19.517-4.319,27.389   c-0.099,0.356-0.216,0.712-0.368,1.06c0,0.001-0.001,0.002-0.002,0.003c-5.717,16.054-15.714,26.952-24.586,33.941   c-14.306,11.27-28.653,14.904-29.256,15.054c-0.621,0.154-1.257,0.231-1.891,0.231c-0.635,0-1.27-0.078-1.892-0.231   c-0.603-0.15-14.95-3.784-29.256-15.054c-8.881-6.997-18.892-17.913-24.605-33.997c-0.14-0.325-0.249-0.653-0.342-0.985   c-2.677-7.877-4.328-16.961-4.328-27.411V110.858z M299.502,273.416l6.949-24.762c0.874-3.116,3.564-5.38,6.783-5.711   c3.222-0.328,6.313,1.342,7.802,4.214c12.616,24.343,37.472,39.466,64.866,39.466c27.394,0,52.249-15.123,64.866-39.466   c1.489-2.873,4.585-4.545,7.802-4.214c3.219,0.33,5.909,2.595,6.783,5.711l6.949,24.762c1.176,4.191-1.267,8.542-5.459,9.717   c-4.194,1.175-8.541-1.268-9.717-5.459l-2.273-8.103c-16.658,20.578-41.777,32.816-68.95,32.816   c-27.174,0-52.292-12.238-68.95-32.816l-2.274,8.104c-1.176,4.191-5.528,6.635-9.717,5.459   C300.77,281.957,298.326,277.607,299.502,273.416z"/>
	<polygon style="fill:#103B9B;" points="39.132,145.149 39.132,171.854 79.188,145.149  "/>
	<polygon style="fill:#103B9B;" points="39.132,75.887 39.132,102.592 79.188,102.592  "/>
	<polygon style="fill:#103B9B;" points="128.189,52.94 81.434,52.94 128.189,84.11  "/>
</g>
<g>
	<polygon style="fill:#ED1F34;" points="181.386,145.149 267.685,202.682 267.685,185.996 206.56,145.149  "/>
	<polygon style="fill:#ED1F34;" points="117.55,102.592 43.072,52.94 39.132,52.94 39.132,67.387 91.811,102.592  "/>
	<polygon style="fill:#ED1F34;" points="170.747,102.592 181.386,102.592 255.863,52.94 230.29,52.94 170.747,92.64  "/>
	<polygon style="fill:#ED1F34;" points="128.189,155.107 128.189,145.149 117.55,145.149 39.132,197.428 39.132,202.682    56.825,202.682  "/>
</g>
<g>
	<polygon style="fill:#FFFFFF;" points="160.895,135.298 160.895,202.682 170.747,202.682 170.747,163.63 229.324,202.682    267.685,202.682 181.386,145.149 206.56,145.149 267.685,185.996 267.685,177.107 219.748,145.149 267.685,145.149    267.685,135.298  "/>
	<polygon style="fill:#FFFFFF;" points="160.895,112.443 267.685,112.443 267.685,102.592 219.748,102.592 267.685,70.633    267.685,52.94 255.863,52.94 181.386,102.592 170.747,102.592 170.747,92.64 230.29,52.94 217.501,52.94 170.747,84.11    170.747,52.94 160.895,52.94  "/>
	<polygon style="fill:#FFFFFF;" points="138.04,112.443 138.04,52.94 128.189,52.94 128.189,84.11 81.434,52.94 43.072,52.94    117.55,102.592 91.811,102.592 39.132,67.387 39.132,75.887 79.188,102.592 39.132,102.592 39.132,112.443  "/>
	<polygon style="fill:#FFFFFF;" points="128.189,145.149 128.189,155.107 56.825,202.682 69.612,202.682 128.189,163.63    128.189,202.682 138.04,202.682 138.04,135.298 39.132,135.298 39.132,145.149 79.188,145.149 39.132,171.854 39.132,197.428    117.55,145.149  "/>
</g>
<polygon style="fill:#ED1F34;" points="138.04,135.298 138.04,202.682 160.895,202.682 160.895,135.298 267.685,135.298   267.685,112.443 160.895,112.443 160.895,52.94 138.04,52.94 138.04,112.443 39.132,112.443 39.132,135.298 "/>
<path style="fill:#3DB4EA;" d="M351.696,179.033c10.344,0,15.981,2.707,20.512,4.881c3.873,1.859,6.933,3.328,13.69,3.328  s9.817-1.469,13.691-3.328c4.53-2.174,10.168-4.881,20.512-4.881c4.18,0,7.581,0.446,10.461,1.115v-61.41h-89.32v61.409  C344.121,179.479,347.521,179.033,351.696,179.033z M358.693,143.849v-9.007c0-4.353,3.529-7.882,7.881-7.882  c4.352,0,7.881,3.529,7.881,7.882v1.126h19.515c10.553,0,19.139,8.586,19.139,19.139v11.259c0,4.353-3.529,7.881-7.881,7.881  h-27.396c-10.553,0-19.139-8.586-19.139-19.139L358.693,143.849L358.693,143.849z"/>
<g>
	<path style="fill:#103B9B;" d="M406.41,198.124c-4.53,2.174-10.168,4.881-20.512,4.881c-10.344,0-15.981-2.707-20.512-4.881   c-3.873-1.859-6.933-3.328-13.69-3.328c-4.822,0-7.759,0.75-10.455,1.855v3.891c0,5.59,0.566,10.699,1.57,15.371   c2.502-0.471,5.41-0.773,8.885-0.773c10.344,0,15.981,2.707,20.512,4.881c3.873,1.859,6.933,3.328,13.69,3.328   s9.817-1.469,13.691-3.328c4.53-2.174,10.168-4.881,20.512-4.881c3.477,0,6.388,0.302,8.891,0.774   c1.004-4.672,1.57-9.782,1.57-15.372v-3.889c-2.698-1.106-5.636-1.857-10.461-1.857   C413.344,194.795,410.284,196.264,406.41,198.124z"/>
	<path style="fill:#103B9B;" d="M406.41,234.229c-4.53,2.174-10.168,4.881-20.512,4.881c-10.344,0-15.981-2.706-20.512-4.881   c-3.873-1.859-6.933-3.328-13.69-3.328c-1.298,0-2.451,0.058-3.494,0.157c10.867,21.025,31.287,29.017,37.699,31.072   c6.412-2.054,26.831-10.047,37.698-31.072c-1.044-0.099-2.199-0.157-3.499-0.157C413.343,230.901,410.284,232.369,406.41,234.229z"/>
</g>
<g>
	<path style="fill:#FFFFFF;" d="M330.15,228.937c-0.116-0.326-0.231-0.654-0.342-0.985C329.9,228.284,330.01,228.612,330.15,228.937   z"/>
	<path style="fill:#FFFFFF;" d="M441.637,228.989c0.153-0.348,0.269-0.704,0.368-1.06c-0.121,0.357-0.244,0.712-0.37,1.063   C441.635,228.991,441.636,228.99,441.637,228.989z"/>
	<path style="fill:#FFFFFF;" d="M399.588,220.019c-3.874,1.859-6.933,3.328-13.691,3.328s-9.817-1.469-13.69-3.328   c-4.529-2.174-10.168-4.881-20.512-4.881c-3.475,0-6.383,0.302-8.885,0.773c1.22,5.679,3.094,10.702,5.392,15.146   c1.043-0.099,2.195-0.157,3.494-0.157c6.757,0,9.816,1.468,13.69,3.328c4.53,2.174,10.168,4.881,20.512,4.881   s15.981-2.706,20.512-4.881c3.874-1.859,6.933-3.328,13.691-3.328c1.301,0,2.455,0.058,3.499,0.157   c2.298-4.445,4.171-9.469,5.392-15.146c-2.503-0.472-5.414-0.774-8.891-0.774C409.757,215.138,404.119,217.845,399.588,220.019z"/>
	<path style="fill:#FFFFFF;" d="M399.588,183.914c-3.874,1.859-6.934,3.328-13.691,3.328s-9.817-1.469-13.69-3.328   c-4.529-2.174-10.167-4.881-20.512-4.881c-4.176,0-7.575,0.445-10.455,1.114v16.502c2.696-1.105,5.633-1.855,10.455-1.855   c6.757,0,9.816,1.469,13.69,3.328c4.53,2.174,10.168,4.881,20.512,4.881s15.981-2.707,20.512-4.881   c3.874-1.859,6.934-3.328,13.691-3.328c4.825,0,7.764,0.751,10.461,1.857v-16.503c-2.88-0.669-6.282-1.115-10.461-1.115   C409.756,179.033,404.119,181.739,399.588,183.914z"/>
</g>
<path style="fill:#F2A643;" d="M304.961,283.133c4.189,1.175,8.541-1.268,9.717-5.459l2.274-8.104  c16.658,20.578,41.776,32.816,68.95,32.816c27.173,0,52.292-12.238,68.95-32.816l2.273,8.103c1.176,4.191,5.524,6.635,9.717,5.459  c4.192-1.176,6.635-5.527,5.459-9.717l-6.949-24.762c-0.874-3.116-3.564-5.38-6.783-5.711c-3.218-0.331-6.313,1.341-7.802,4.214  c-12.616,24.343-37.472,39.466-64.866,39.466c-27.395,0-52.25-15.123-64.866-39.466c-1.489-2.873-4.58-4.542-7.802-4.214  c-3.219,0.33-5.909,2.595-6.783,5.711l-6.949,24.762C298.326,277.607,300.77,281.957,304.961,283.133z"/>
<path style="fill:#FFFFFF;" d="M374.456,155.109c0,1.862,1.516,3.378,3.378,3.378h19.516v-3.378c0-1.862-1.516-3.377-3.378-3.377  h-19.516V155.109z"/>
<path d="M377.833,174.248h27.396c4.353,0,7.881-3.528,7.881-7.881v-11.259c0-10.553-8.586-19.139-19.139-19.139h-19.515v-1.126  c0-4.353-3.529-7.882-7.881-7.882c-4.353,0-7.881,3.529-7.881,7.882v9.007v11.259C358.693,165.662,367.279,174.248,377.833,174.248z   M397.348,155.109v3.378h-19.516c-1.862,0-3.378-1.515-3.378-3.378v-3.377h19.515C395.833,151.731,397.348,153.247,397.348,155.109z  "/>
<path d="M330.15,228.937c5.713,16.084,15.723,27,24.605,33.997c14.306,11.27,28.653,14.904,29.256,15.054  c0.621,0.154,1.257,0.231,1.892,0.231c0.635,0,1.269-0.078,1.891-0.231c0.603-0.15,14.95-3.784,29.256-15.054  c8.872-6.99,18.869-17.887,24.586-33.941c0.125-0.353,0.249-0.707,0.37-1.063c2.672-7.872,4.319-16.949,4.319-27.389v-89.683  c0-4.353-3.529-7.881-7.881-7.881H333.361c-4.353,0-7.881,3.529-7.881,7.881v89.683c0,10.45,1.651,19.535,4.328,27.411  C329.919,228.282,330.033,228.611,330.15,228.937z M430.561,118.739v61.41v16.503v3.889c0,5.59-0.566,10.7-1.57,15.372  c-1.219,5.678-3.094,10.701-5.392,15.146c-10.867,21.025-31.286,29.017-37.698,31.072c-6.413-2.054-26.832-10.047-37.699-31.072  c-2.298-4.445-4.171-9.469-5.392-15.146c-1.004-4.672-1.57-9.781-1.57-15.371v-3.891v-16.502V118.74h89.321V118.739z"/>
<path d="M504.119,37.178H31.25c-4.352,0-7.881,3.529-7.881,7.881v315.245c0,4.353,3.529,7.881,7.881,7.881h31.524  c4.353,0,7.881-3.529,7.881-7.881c0-4.352-3.529-7.881-7.881-7.881H39.132V202.682v-5.254v-25.575v-26.705v-9.851v-22.855v-9.851  V75.887v-8.5V52.94h3.94h38.362h46.756h9.851h22.855h9.851h46.755h12.788h25.573h11.822h228.553v299.483H94.299  c-4.353,0-7.881,3.529-7.881,7.881c0,4.352,3.529,7.881,7.881,7.881h409.819c4.353,0,7.881-3.529,7.881-7.881V45.059  C512,40.707,508.471,37.178,504.119,37.178z"/>
<path style="fill:#2E3033;" d="M21.536,488.099c-6.603,0-11.976-5.373-11.976-11.976V35.765c0-6.542,5.323-11.865,11.865-11.865  h1.565c6.604,0,11.976,5.373,11.976,11.976v440.247c0,6.604-5.373,11.976-11.976,11.976h-1.454V488.099z"/>
<path d="M22.99,14.34h-1.565C9.611,14.34,0,23.951,0,35.765v440.358c0,11.876,9.661,21.536,21.536,21.536h1.453  c11.876,0,21.536-9.661,21.536-21.536V35.876C44.526,24.001,34.865,14.34,22.99,14.34z M28.592,476.123  c0,3.089-2.513,5.602-5.602,5.602h-1.453c-3.089,0-5.602-2.513-5.602-5.602V35.765c0-3.028,2.463-5.492,5.492-5.492h1.565  c3.089,0,5.602,2.513,5.602,5.602v440.248H28.592z"/>
<g>
</g>
<g>
</g>
<g>
</g>
<g>
</g>
<g>
</g>
<g>
</g>
<g>
</g>
<g>
</g>
<g>
</g>
<g>
</g>
<g>
</g>
<g>
</g>
<g>
</g>
<g>
</g>
<g>
</g>
</svg>
