<?xml version="1.0" encoding="iso-8859-1"?>
<!-- Generator: Adobe Illustrator 19.0.0, SVG Export Plug-In . SVG Version: 6.00 Build 0)  -->
<svg xmlns="http://www.w3.org/2000/svg" xmlns:xlink="http://www.w3.org/1999/xlink" version="1.1" id="Layer_1" x="0px" y="0px" viewBox="0 0 512 512" style="enable-background:new 0 0 512 512;" xml:space="preserve">
<path style="fill:#103B9B;" d="M51.562,296.166v53.719h445.09V58.273H51.562V265.47c0,4.239-3.436,7.674-7.674,7.674v15.348  C48.126,288.492,51.562,291.927,51.562,296.166z M202.031,263.414c-7.341,4.239-16.727,1.723-20.966-5.619  c-4.238-7.341-1.723-16.727,5.618-20.965c7.341-4.24,16.727-1.724,20.966,5.618C211.887,249.79,209.372,259.175,202.031,263.414z   M381.542,204.079c0,8.475-6.872,15.348-15.348,15.348c-8.476,0-15.349-6.872-15.349-15.348c0-8.476,6.872-15.349,15.349-15.349  C374.67,188.73,381.542,195.602,381.542,204.079z M346.182,144.744c7.342-4.24,16.728-1.724,20.966,5.618  c4.239,7.342,1.723,16.728-5.618,20.966c-7.342,4.239-16.727,1.723-20.966-5.618C336.327,158.367,338.843,148.981,346.182,144.744z   M340.566,242.448c4.239-7.342,13.624-9.856,20.966-5.618c7.341,4.238,9.855,13.624,5.618,20.965  c-4.238,7.342-13.624,9.856-20.966,5.619C338.843,259.175,336.327,249.79,340.566,242.448z M306.859,116.654  c4.239-7.341,13.625-9.856,20.966-5.619c7.342,4.239,9.856,13.625,5.619,20.966c-4.239,7.342-13.625,9.856-20.966,5.619  C305.137,133.383,302.621,123.996,306.859,116.654z M312.477,270.538c7.341-4.239,16.727-1.723,20.966,5.618  c4.239,7.341,1.723,16.727-5.619,20.966c-7.341,4.239-16.727,1.723-20.966-5.617C302.621,284.162,305.137,274.774,312.477,270.538z   M274.107,96.644c8.476,0,15.348,6.871,15.348,15.348s-6.871,15.348-15.348,15.348s-15.348-6.871-15.348-15.348  S265.631,96.644,274.107,96.644z M274.107,280.818c8.476,0,15.348,6.872,15.348,15.348c0,8.476-6.871,15.349-15.348,15.349  s-15.348-6.872-15.348-15.349C258.76,287.69,265.631,280.818,274.107,280.818z M220.39,111.037  c7.341-4.239,16.727-1.722,20.966,5.619c4.238,7.342,1.723,16.727-5.618,20.966c-7.341,4.239-16.727,1.723-20.966-5.619  C210.533,124.661,213.049,115.274,220.39,111.037z M214.772,276.154c4.239-7.341,13.624-9.855,20.966-5.618  c7.341,4.238,9.855,13.624,5.618,20.966c-4.239,7.341-13.624,9.855-20.966,5.618C213.048,292.883,210.533,283.495,214.772,276.154z   M181.065,150.36c4.238-7.342,13.624-9.856,20.966-5.618c7.341,4.238,9.856,13.624,5.618,20.966  c-4.239,7.341-13.624,9.855-20.966,5.618C179.342,167.089,176.827,157.702,181.065,150.36z M182.02,188.73  c8.476,0,15.349,6.872,15.349,15.349c0,8.475-6.872,15.348-15.349,15.348c-8.476,0-15.348-6.872-15.348-15.348  C166.672,195.602,173.543,188.73,182.02,188.73z"/>
<g>
	<circle style="fill:#FFE000;" cx="274.111" cy="111.988" r="15.348"/>
	<circle style="fill:#FFE000;" cx="228.062" cy="124.328" r="15.349"/>
	<circle style="fill:#FFE000;" cx="194.353" cy="158.037" r="15.348"/>
	<circle style="fill:#FFE000;" cx="182.024" cy="204.076" r="15.348"/>
	<circle style="fill:#FFE000;" cx="194.353" cy="250.125" r="15.348"/>
	<circle style="fill:#FFE000;" cx="228.062" cy="283.824" r="15.348"/>
	<circle style="fill:#FFE000;" cx="274.111" cy="296.164" r="15.348"/>
	<circle style="fill:#FFE000;" cx="320.15" cy="283.824" r="15.348"/>
	<circle style="fill:#FFE000;" cx="353.859" cy="250.125" r="15.348"/>
	<circle style="fill:#FFE000;" cx="366.199" cy="204.076" r="15.348"/>
	<circle style="fill:#FFE000;" cx="353.859" cy="158.037" r="15.348"/>
	<circle style="fill:#FFE000;" cx="320.15" cy="124.328" r="15.348"/>
</g>
<path d="M504.326,42.925H43.888c-4.238,0-7.674,3.435-7.674,7.674V265.47c0,4.239,3.436,7.674,7.674,7.674  c4.239,0,7.674-3.435,7.674-7.674V58.273h445.09v291.611H51.562v-53.719c0-4.239-3.436-7.674-7.674-7.674s-7.674,3.435-7.674,7.674  v61.392c0,4.24,3.436,7.675,7.674,7.675h460.438c4.239,0,7.674-3.435,7.674-7.675V50.599C512,46.36,508.565,42.925,504.326,42.925z"/>
<path style="fill:#2E3033;" d="M20.97,482.004c-6.429,0-11.661-5.232-11.661-11.661V41.55c0-6.371,5.183-11.554,11.554-11.554h1.524  c6.431,0,11.661,5.232,11.661,11.661v428.685c0,6.431-5.232,11.661-11.661,11.661H20.97V482.004z"/>
<path d="M22.386,20.687h-1.524C9.359,20.687,0,30.046,0,41.55v428.793c0,11.563,9.407,20.97,20.97,20.97h1.415  c11.564,0,20.97-9.407,20.97-20.97V41.657C43.357,30.094,33.949,20.687,22.386,20.687z M27.841,470.343  c0,3.008-2.447,5.455-5.455,5.455h-1.415c-3.008,0-5.455-2.447-5.455-5.455V41.55c0-2.949,2.399-5.348,5.348-5.348h1.524  c3.008,0,5.455,2.447,5.455,5.455v428.686H27.841z"/>
<g>
</g>
<g>
</g>
<g>
</g>
<g>
</g>
<g>
</g>
<g>
</g>
<g>
</g>
<g>
</g>
<g>
</g>
<g>
</g>
<g>
</g>
<g>
</g>
<g>
</g>
<g>
</g>
<g>
</g>
</svg>
