<?xml version="1.0" encoding="iso-8859-1"?>
<!-- Generator: Adobe Illustrator 19.0.0, SVG Export Plug-In . SVG Version: 6.00 Build 0)  -->
<svg xmlns="http://www.w3.org/2000/svg" xmlns:xlink="http://www.w3.org/1999/xlink" version="1.1" id="Layer_1" x="0px" y="0px" viewBox="0 0 512 512" style="enable-background:new 0 0 512 512;" xml:space="preserve">
<g>
	<path style="fill:#FFE000;" d="M496.652,160.593H383.628c5.364,13.462,8.318,28.134,8.318,43.486   c0,15.351-2.954,30.024-8.318,43.486h113.025L496.652,160.593L496.652,160.593z"/>
	<path style="fill:#FFE000;" d="M105.28,247.565h59.307c-5.364-13.462-8.318-28.135-8.318-43.486   c0-15.352,2.954-30.024,8.318-43.486H51.562v86.972h23.021c4.239,0,7.674,3.435,7.674,7.674h15.349   C97.606,251,101.042,247.565,105.28,247.565z"/>
</g>
<path style="fill:#ED1F34;" d="M376.177,262.913c-20.393,35.242-58.507,59.005-102.07,59.005c-43.562,0-81.677-23.763-102.07-59.005  H105.28c-4.239,0-7.674-3.435-7.674-7.674H82.257c0,4.239-3.435,7.674-7.674,7.674H51.562v86.972h445.09v-86.972H376.177z"/>
<path style="fill:#259245;" d="M172.037,145.245c20.392-35.242,58.508-59.004,102.07-59.004s81.677,23.762,102.07,59.004h120.476  V58.273H51.562v86.972H172.037z"/>
<path d="M504.326,42.925H43.888c-4.238,0-7.674,3.435-7.674,7.675v306.958c0,4.239,3.436,7.675,7.674,7.675h460.438  c4.239,0,7.674-3.436,7.674-7.675V50.6C512,46.36,508.565,42.925,504.326,42.925z M496.652,58.273v86.972H376.177  c-20.393-35.242-58.507-59.004-102.07-59.004c-43.562,0-81.677,23.762-102.07,59.004H51.562V58.273H496.652z M274.107,306.57  c-56.513,0-102.49-45.978-102.49-102.491s45.977-102.491,102.49-102.491s102.49,45.978,102.49,102.491  S330.621,306.57,274.107,306.57z M391.946,204.079c0-15.352-2.954-30.024-8.318-43.486h113.025v86.972H383.628  C388.991,234.103,391.946,219.43,391.946,204.079z M51.562,349.884v-86.972h23.021c4.239,0,7.674-3.435,7.674-7.674  c0-4.239-3.435-7.674-7.674-7.674H51.562v-86.972h113.025c-5.364,13.462-8.318,28.134-8.318,43.486  c0,15.351,2.954,30.024,8.318,43.486H105.28c-4.239,0-7.674,3.435-7.674,7.674s3.435,7.674,7.674,7.674h66.758  c20.392,35.242,58.508,59.005,102.07,59.005s81.677-23.763,102.07-59.005h120.476v86.972L51.562,349.884L51.562,349.884z"/>
<g>
	<polygon style="fill:#164FCE;" points="280.694,172.801 274.106,152.526 267.52,172.801  "/>
	<polygon style="fill:#164FCE;" points="304.409,245.786 297.822,225.512 287.163,233.256  "/>
	<polygon style="fill:#164FCE;" points="323.136,188.148 301.819,188.148 305.889,200.679  "/>
	<polygon style="fill:#164FCE;" points="246.394,188.148 225.077,188.148 242.323,200.679  "/>
	<polygon style="fill:#164FCE;" points="261.052,233.256 250.392,225.512 243.804,245.787  "/>
	<polygon style="fill:#164FCE;" points="285.681,188.148 262.532,188.148 255.379,210.164 274.107,223.77 292.834,210.164  "/>
	<path style="fill:#164FCE;" d="M274.107,101.588c-56.513,0-102.49,45.978-102.49,102.491s45.977,102.491,102.49,102.491   s102.49-45.978,102.49-102.491S330.621,101.588,274.107,101.588z M323.516,136.073c3.429,2.491,4.189,7.291,1.698,10.719   l-10.652,14.659c-1.502,2.068-3.843,3.166-6.214,3.166c-1.565,0-3.142-0.477-4.505-1.467c-3.429-2.492-4.189-7.291-1.698-10.719   l10.653-14.66C315.291,134.339,320.09,133.582,323.516,136.073z M223,146.792c-2.491-3.43-1.73-8.228,1.698-10.719   c3.43-2.493,8.228-1.73,10.719,1.698l10.651,14.66c2.491,3.429,1.73,8.227-1.698,10.719c-1.362,0.99-2.941,1.467-4.504,1.467   c-2.373,0-4.714-1.098-6.215-3.166L223,146.792z M199.088,220.384l17.233-5.599c4.03-1.312,8.361,0.895,9.67,4.927   c1.311,4.031-0.896,8.361-4.927,9.67l-17.233,5.6c-0.788,0.254-1.588,0.378-2.373,0.378c-3.234,0-6.243-2.062-7.296-5.305   C192.851,226.024,195.058,221.695,199.088,220.384z M274.106,288.138c-4.239,0-7.674-3.436-7.674-7.674l0.001-18.12   c0-4.239,3.436-7.675,7.674-7.675c4.239,0,7.674,3.436,7.674,7.675v18.12C281.78,284.702,278.345,288.138,274.106,288.138z    M326.304,263.506c1.027,3.161-0.098,6.625-2.788,8.579c-2.69,1.955-6.331,1.955-9.022,0l-40.388-29.343l-40.389,29.343   c-1.345,0.977-2.928,1.467-4.51,1.467c-1.583,0-3.166-0.489-4.511-1.467c-2.69-1.954-3.815-5.418-2.788-8.579l15.427-47.479   l-40.387-29.343c-2.69-1.954-3.815-5.418-2.788-8.58c1.027-3.163,3.974-5.303,7.298-5.303h49.922l15.427-47.478   c1.027-3.162,3.974-5.303,7.298-5.303c3.325,0,6.271,2.141,7.299,5.303l15.427,47.478h49.923c3.324,0,6.271,2.14,7.299,5.303   c1.027,3.162-0.098,6.626-2.788,8.58l-40.389,29.343L326.304,263.506z M354.053,230.055c-1.054,3.245-4.063,5.305-7.297,5.305   c-0.786,0-1.586-0.121-2.373-0.378l-17.232-5.599c-4.031-1.311-6.237-5.639-4.928-9.67c1.309-4.032,5.643-6.232,9.67-4.928   l17.232,5.6C353.156,221.695,355.362,226.026,354.053,230.055z"/>
</g>
<g>
	<path style="fill:#FFE000;" d="M239.865,164.616c1.564,0,3.142-0.477,4.504-1.467c3.428-2.492,4.189-7.29,1.698-10.719   l-10.651-14.66c-2.491-3.428-7.289-4.191-10.719-1.698c-3.429,2.491-4.189,7.289-1.698,10.719l10.651,14.659   C235.152,163.518,237.492,164.616,239.865,164.616z"/>
	<path style="fill:#FFE000;" d="M201.458,235.36c0.786,0,1.586-0.123,2.373-0.378l17.233-5.6c4.031-1.309,6.237-5.638,4.927-9.67   c-1.309-4.031-5.639-6.237-9.67-4.927l-17.233,5.599c-4.031,1.311-6.236,5.638-4.927,9.67   C195.215,233.297,198.224,235.36,201.458,235.36z"/>
	<path style="fill:#FFE000;" d="M281.781,262.346c0-4.239-3.435-7.675-7.674-7.675c-4.238,0-7.674,3.436-7.674,7.675l-0.001,18.12   c0,4.238,3.435,7.674,7.674,7.674s7.674-3.436,7.675-7.674V262.346z"/>
	<path style="fill:#FFE000;" d="M349.125,220.385l-17.232-5.6c-4.027-1.305-8.361,0.895-9.67,4.928   c-1.311,4.03,0.896,8.36,4.928,9.67l17.232,5.599c0.787,0.257,1.587,0.378,2.373,0.378c3.234,0,6.243-2.06,7.297-5.305   C355.362,226.026,353.156,221.695,349.125,220.385z"/>
	<path style="fill:#FFE000;" d="M302.145,152.43c-2.491,3.428-1.731,8.227,1.698,10.719c1.362,0.99,2.941,1.467,4.505,1.467   c2.372,0,4.712-1.098,6.214-3.166l10.652-14.659c2.491-3.428,1.732-8.228-1.698-10.719c-3.427-2.49-8.225-1.734-10.718,1.698   L302.145,152.43z"/>
	<path style="fill:#FFE000;" d="M351.266,186.682c2.69-1.954,3.815-5.418,2.788-8.58c-1.027-3.163-3.975-5.303-7.299-5.303h-49.923   l-15.427-47.478c-1.028-3.162-3.974-5.303-7.299-5.303c-3.324,0-6.271,2.141-7.298,5.303l-15.427,47.478h-49.922   c-3.324,0-6.271,2.14-7.298,5.303c-1.027,3.162,0.098,6.626,2.788,8.58l40.387,29.343l-15.427,47.479   c-1.027,3.161,0.098,6.625,2.788,8.579c1.345,0.977,2.928,1.467,4.511,1.467c1.583,0,3.166-0.489,4.51-1.467l40.389-29.343   l40.388,29.343c2.69,1.955,6.331,1.955,9.022,0c2.69-1.954,3.815-5.418,2.788-8.579l-15.427-47.479L351.266,186.682z    M323.136,188.148l-17.247,12.53l-4.071-12.53H323.136z M297.822,225.512l6.588,20.274l-17.247-12.53L297.822,225.512z    M274.106,152.526l6.588,20.274H267.52L274.106,152.526z M261.052,233.256l-17.248,12.531l6.588-20.275L261.052,233.256z    M225.077,188.148h21.317l-4.071,12.53L225.077,188.148z M255.379,210.164l7.154-22.015h23.149l7.154,22.015l-18.727,13.606   L255.379,210.164z"/>
</g>
<path style="fill:#2E3033;" d="M20.97,482.004c-6.429,0-11.661-5.232-11.661-11.661V41.55c0-6.371,5.183-11.554,11.554-11.554h1.524  c6.431,0,11.661,5.232,11.661,11.661v428.685c0,6.431-5.232,11.661-11.661,11.661H20.97V482.004z"/>
<path d="M22.386,20.687h-1.524C9.359,20.687,0,30.046,0,41.55v428.793c0,11.563,9.407,20.97,20.97,20.97h1.415  c11.564,0,20.97-9.407,20.97-20.97V41.657C43.357,30.094,33.949,20.687,22.386,20.687z M27.841,470.343  c0,3.008-2.447,5.455-5.455,5.455h-1.415c-3.008,0-5.455-2.447-5.455-5.455V41.55c0-2.949,2.399-5.348,5.348-5.348h1.524  c3.008,0,5.455,2.447,5.455,5.455v428.686H27.841z"/>
<g>
</g>
<g>
</g>
<g>
</g>
<g>
</g>
<g>
</g>
<g>
</g>
<g>
</g>
<g>
</g>
<g>
</g>
<g>
</g>
<g>
</g>
<g>
</g>
<g>
</g>
<g>
</g>
<g>
</g>
</svg>
