<?xml version="1.0" encoding="iso-8859-1"?>
<!-- Generator: Adobe Illustrator 19.0.0, SVG Export Plug-In . SVG Version: 6.00 Build 0)  -->
<svg xmlns="http://www.w3.org/2000/svg" xmlns:xlink="http://www.w3.org/1999/xlink" version="1.1" id="Layer_1" x="0px" y="0px" viewBox="0 0 512 512" style="enable-background:new 0 0 512 512;" xml:space="preserve">
<path style="fill:#333333;" d="M135.967,247.57h360.685v-86.974H51.551v86.974h53.72c4.239,0,7.674,3.435,7.674,7.674h15.349  C128.292,251.005,131.728,247.57,135.967,247.57z"/>
<path style="fill:#FFFFFF;" d="M473.629,349.892h23.022v-86.974H135.967c-4.239,0-7.674-3.436-7.674-7.674h-15.349  c0,4.239-3.435,7.674-7.674,7.674h-53.72v86.974h391.382c4.24,0,7.675,3.436,7.675,7.674h15.349  C465.955,353.328,469.39,349.892,473.629,349.892z"/>
<rect x="54.654" y="58.275" style="fill:#3DB4EA;" width="445.099" height="86.978"/>
<path d="M504.325,42.925H43.876c-4.238,0-7.674,3.436-7.674,7.674v306.966c0,4.239,3.436,7.674,7.674,7.674h399.056  c4.24,0,7.675-3.436,7.675-7.674c0-4.238-3.435-7.674-7.675-7.674H51.551v-86.974h53.72c4.239,0,7.674-3.436,7.674-7.674  s-3.435-7.674-7.674-7.674h-53.72v-86.974h445.101v86.974H135.967c-4.239,0-7.674,3.435-7.674,7.674s3.436,7.674,7.674,7.674  h360.685v86.974h-23.022c-4.24,0-7.674,3.436-7.674,7.674c0,4.239,3.434,7.674,7.674,7.674h30.696c4.24,0,7.675-3.436,7.675-7.674  V50.599C512,46.361,508.565,42.925,504.325,42.925z M499.754,58.274v86.974H54.654V58.274H499.754z"/>
<path style="fill:#2E3033;" d="M20.97,482.004c-6.429,0-11.661-5.232-11.661-11.661V41.55c0-6.371,5.183-11.554,11.554-11.554h1.524  c6.431,0,11.661,5.232,11.661,11.661v428.685c0,6.431-5.232,11.661-11.661,11.661H20.97V482.004z"/>
<path d="M22.386,20.687h-1.524C9.359,20.687,0,30.046,0,41.55v428.793c0,11.563,9.407,20.97,20.97,20.97h1.415  c11.564,0,20.97-9.407,20.97-20.97V41.657C43.357,30.094,33.949,20.687,22.386,20.687z M27.841,470.343  c0,3.008-2.447,5.455-5.455,5.455h-1.415c-3.008,0-5.455-2.447-5.455-5.455V41.55c0-2.949,2.399-5.348,5.348-5.348h1.524  c3.008,0,5.455,2.447,5.455,5.455v428.686H27.841z"/>
<g>
</g>
<g>
</g>
<g>
</g>
<g>
</g>
<g>
</g>
<g>
</g>
<g>
</g>
<g>
</g>
<g>
</g>
<g>
</g>
<g>
</g>
<g>
</g>
<g>
</g>
<g>
</g>
<g>
</g>
</svg>
