<?xml version="1.0" encoding="iso-8859-1"?>
<!-- Generator: Adobe Illustrator 19.0.0, SVG Export Plug-In . SVG Version: 6.00 Build 0)  -->
<svg xmlns="http://www.w3.org/2000/svg" xmlns:xlink="http://www.w3.org/1999/xlink" version="1.1" id="Layer_1" x="0px" y="0px" viewBox="0 0 512 512" style="enable-background:new 0 0 512 512;" xml:space="preserve">
<path style="fill:#3DB4EA;" d="M442.935,349.885h53.719v-135.16L91.177,349.885h321.06c4.239,0,7.674,3.434,7.674,7.674h15.349  C435.261,353.319,438.696,349.885,442.935,349.885z"/>
<polygon style="fill:#134923;" points="496.652,193.433 496.652,58.273 91.177,58.273 "/>
<path style="fill:#ED1F34;" d="M51.562,61.247v285.665l428.497-142.832L51.562,61.247z M159.096,263.355  c0,4.24-3.436,7.675-7.675,7.675s-7.674-3.435-7.674-7.675v-3.042c-31.088-3.799-55.25-30.341-55.25-62.438  c0-27.864,18.69-52.722,45.448-60.446c4.069-1.174,8.326,1.173,9.501,5.244c1.175,4.073-1.173,8.325-5.244,9.501  c-20.23,5.84-34.358,24.633-34.358,45.701c0,23.62,17.307,43.267,39.903,46.948v-19.73l-13.561-13.56  c-2.996-2.998-2.996-7.857,0-10.854c2.998-2.995,7.856-2.995,10.853,0l2.708,2.709v-5.763v-0.01v-24.291  c0-4.239,3.435-7.675,7.674-7.675s7.675,3.436,7.675,7.675v5.769l2.707-2.708c2.998-2.995,7.857-2.995,10.853,0  c2.996,2.998,2.996,7.856,0,10.852l-13.56,13.561v21.111v0.008v22.907c22.596-3.681,39.901-23.328,39.901-46.948  c0-21.068-14.127-39.86-34.356-45.701c-4.073-1.176-6.42-5.428-5.245-9.501c1.176-4.073,5.435-6.416,9.503-5.244  c26.758,7.726,45.447,32.582,45.447,60.446c0,32.096-24.161,58.639-55.248,62.438v3.042H159.096z"/>
<path d="M504.326,42.925H44.065c-0.028,0-0.056,0-0.083,0h-0.094c-0.042,0-0.083,0.006-0.125,0.006  c-0.203,0.004-0.405,0.012-0.605,0.031c-0.074,0.007-0.149,0.02-0.223,0.028c-0.171,0.022-0.341,0.046-0.51,0.078  c-0.101,0.021-0.198,0.044-0.297,0.067c-0.14,0.033-0.278,0.065-0.414,0.107c-0.116,0.034-0.229,0.074-0.341,0.113  c-0.118,0.041-0.237,0.083-0.352,0.129c-0.118,0.049-0.233,0.1-0.348,0.153c-0.109,0.051-0.219,0.101-0.326,0.157  c-0.108,0.056-0.213,0.117-0.319,0.178c-0.111,0.065-0.221,0.129-0.329,0.2c-0.092,0.061-0.181,0.124-0.27,0.188  c-0.115,0.083-0.229,0.165-0.339,0.253c-0.076,0.061-0.149,0.124-0.221,0.188c-0.115,0.1-0.23,0.201-0.339,0.308  c-0.064,0.063-0.124,0.127-0.186,0.192c-0.109,0.113-0.216,0.229-0.318,0.35c-0.061,0.07-0.116,0.145-0.174,0.218  c-0.093,0.117-0.185,0.237-0.272,0.362c-0.063,0.091-0.121,0.186-0.18,0.28c-0.07,0.111-0.141,0.222-0.206,0.338  c-0.069,0.123-0.131,0.25-0.194,0.379c-0.046,0.094-0.093,0.185-0.135,0.28c-0.069,0.158-0.129,0.321-0.189,0.484  c-0.022,0.061-0.049,0.117-0.068,0.178c-0.006,0.018-0.009,0.033-0.014,0.051c-0.053,0.162-0.096,0.329-0.139,0.496  c-0.022,0.087-0.049,0.174-0.067,0.262c-0.027,0.127-0.044,0.258-0.066,0.387c-0.022,0.133-0.046,0.265-0.061,0.396  c-0.008,0.087-0.011,0.176-0.019,0.263c-0.012,0.175-0.024,0.35-0.026,0.525c0,0.016-0.002,0.031-0.002,0.049v306.959  c0,0.017,0.002,0.031,0.002,0.049c0.002,0.175,0.014,0.35,0.026,0.524c0.007,0.087,0.01,0.176,0.019,0.263  c0.016,0.131,0.039,0.263,0.061,0.395c0.022,0.13,0.039,0.261,0.066,0.389c0.02,0.087,0.046,0.174,0.067,0.261  c0.042,0.168,0.086,0.334,0.139,0.496c0.005,0.017,0.008,0.033,0.014,0.051c0.008,0.024,0.022,0.047,0.03,0.072  c0.12,0.346,0.262,0.682,0.428,1.004c0.017,0.032,0.029,0.066,0.047,0.097c0.165,0.312,0.357,0.606,0.562,0.891  c0.052,0.07,0.104,0.142,0.157,0.21c0.207,0.267,0.427,0.522,0.668,0.759c0.044,0.042,0.092,0.081,0.137,0.123  c0.224,0.212,0.462,0.409,0.712,0.592c0.051,0.036,0.1,0.077,0.151,0.113c0.284,0.199,0.583,0.377,0.895,0.538  c0.053,0.026,0.106,0.05,0.156,0.074c0.31,0.15,0.629,0.283,0.961,0.392c0.016,0.004,0.03,0.011,0.044,0.017  c0.331,0.107,0.672,0.184,1.022,0.243c0.085,0.016,0.17,0.027,0.254,0.039c0.323,0.044,0.649,0.073,0.982,0.077  c0.024,0,0.049,0.006,0.072,0.006c0.008,0,0.018-0.002,0.025-0.002h368.327c4.239,0,7.674-3.435,7.674-7.674  c0-4.24-3.435-7.674-7.674-7.674H91.177l405.475-135.16v135.16h-53.719c-4.239,0-7.674,3.434-7.674,7.674  c0,4.239,3.435,7.674,7.674,7.674h61.392c4.239,0,7.674-3.435,7.674-7.674V50.6C512,46.36,508.565,42.925,504.326,42.925z   M496.652,193.433L91.177,58.273h405.475V193.433z M51.562,61.247l428.497,142.832L51.562,346.912V61.247z"/>
<path style="fill:#F2A643;" d="M214.346,197.875c0-27.864-18.687-52.722-45.447-60.446c-4.067-1.172-8.326,1.172-9.503,5.244  c-1.175,4.073,1.173,8.325,5.245,9.501c20.229,5.84,34.356,24.633,34.356,45.701c0,23.62-17.305,43.267-39.901,46.948v-22.906v-0.01  v-21.111l13.56-13.561c2.996-2.997,2.996-7.855,0-10.852c-2.997-2.995-7.856-2.995-10.853,0l-2.707,2.708v-5.769  c0-4.239-3.436-7.675-7.675-7.675s-7.674,3.436-7.674,7.675v24.291v0.01v5.763l-2.708-2.709c-2.998-2.995-7.856-2.995-10.853,0  c-2.996,2.998-2.996,7.857,0,10.854l13.561,13.56v19.73c-22.596-3.681-39.903-23.328-39.903-46.948  c0-21.068,14.128-39.861,34.358-45.701c4.072-1.176,6.419-5.428,5.244-9.501c-1.175-4.072-5.432-6.418-9.501-5.244  c-26.758,7.726-45.448,32.582-45.448,60.446c0,32.097,24.162,58.639,55.25,62.438v3.042c0,4.24,3.435,7.675,7.674,7.675  c4.239,0,7.675-3.435,7.675-7.675v-3.042C190.184,256.514,214.346,229.971,214.346,197.875z"/>
<path style="fill:#2E3033;" d="M20.97,482.004c-6.429,0-11.661-5.232-11.661-11.661V41.55c0-6.371,5.183-11.554,11.554-11.554h1.524  c6.431,0,11.661,5.232,11.661,11.661v428.685c0,6.431-5.232,11.661-11.661,11.661H20.97V482.004z"/>
<path d="M22.386,20.687h-1.524C9.359,20.687,0,30.046,0,41.55v428.793c0,11.563,9.407,20.97,20.97,20.97h1.415  c11.564,0,20.97-9.407,20.97-20.97V41.657C43.357,30.094,33.949,20.687,22.386,20.687z M27.841,470.343  c0,3.008-2.447,5.455-5.455,5.455h-1.415c-3.008,0-5.455-2.447-5.455-5.455V41.55c0-2.949,2.399-5.348,5.348-5.348h1.524  c3.008,0,5.455,2.447,5.455,5.455v428.686H27.841z"/>
<g>
</g>
<g>
</g>
<g>
</g>
<g>
</g>
<g>
</g>
<g>
</g>
<g>
</g>
<g>
</g>
<g>
</g>
<g>
</g>
<g>
</g>
<g>
</g>
<g>
</g>
<g>
</g>
<g>
</g>
</svg>
