<?xml version="1.0" encoding="iso-8859-1"?>
<!-- Generator: Adobe Illustrator 19.0.0, SVG Export Plug-In . SVG Version: 6.00 Build 0)  -->
<svg xmlns="http://www.w3.org/2000/svg" xmlns:xlink="http://www.w3.org/1999/xlink" version="1.1" id="Layer_1" x="0px" y="0px" viewBox="0 0 512 512" style="enable-background:new 0 0 512 512;" xml:space="preserve">
<g>
	<path style="fill:#FFFFFF;" d="M324.239,208.246c0,6.361,8.605,9.746,12.279,10.899c3.674-1.153,12.279-4.538,12.279-10.899   v-19.512h-24.557V208.246z"/>
	<path style="fill:#FFFFFF;" d="M496.651,160.596H164.726l38.06,38.06c2.997,2.998,2.997,7.856,0,10.853l-38.06,38.061h331.925   V160.596z M338.118,234.61c-0.528,0.113-1.063,0.17-1.599,0.17c-0.536,0-1.073-0.057-1.599-0.17   c-9.667-2.058-26.027-9.931-26.027-26.363v-27.186c0-4.24,3.436-7.675,7.674-7.675h39.906c4.238,0,7.674,3.435,7.674,7.675v27.186   C364.145,224.68,347.784,232.551,338.118,234.61z"/>
</g>
<polygon style="fill:#ED1F34;" points="149.378,262.918 62.404,349.891 496.651,349.891 496.651,262.918 "/>
<path style="fill:#259245;" d="M432.7,58.274H62.404l86.974,86.974h347.274V58.274h-33.254c-4.239,0-7.674-3.435-7.674-7.674  h-15.348C440.375,54.839,436.939,58.274,432.7,58.274z"/>
<polygon style="fill:#164FCE;" points="51.551,339.038 186.507,204.083 51.551,69.127 "/>
<path d="M504.326,42.925h-40.929c-4.239,0-7.674,3.435-7.674,7.675c0,4.239,3.436,7.674,7.674,7.674h33.254v86.974H149.378  L62.404,58.274H432.7c4.239,0,7.674-3.435,7.674-7.674c0-4.24-3.436-7.675-7.674-7.675H43.877c-0.062,0-0.121,0.008-0.182,0.009  c-0.19,0.005-0.381,0.011-0.57,0.029C42.99,42.976,42.859,43,42.726,43.02c-0.114,0.019-0.23,0.03-0.343,0.054  c-0.141,0.027-0.277,0.065-0.416,0.101c-0.104,0.027-0.21,0.05-0.313,0.08c-0.132,0.04-0.261,0.091-0.39,0.138  c-0.107,0.038-0.214,0.072-0.32,0.116c-0.12,0.051-0.235,0.108-0.352,0.163c-0.111,0.053-0.222,0.101-0.33,0.158  c-0.11,0.059-0.215,0.127-0.322,0.19c-0.109,0.065-0.218,0.126-0.324,0.197c-0.115,0.078-0.222,0.162-0.333,0.245  c-0.09,0.066-0.183,0.129-0.271,0.202c-0.183,0.15-0.358,0.309-0.526,0.475c-0.011,0.012-0.024,0.022-0.036,0.033  c-0.01,0.009-0.019,0.022-0.029,0.031c-0.168,0.17-0.328,0.345-0.48,0.532c-0.072,0.089-0.137,0.182-0.205,0.274  c-0.082,0.108-0.167,0.215-0.242,0.329c-0.073,0.109-0.137,0.223-0.203,0.334c-0.062,0.103-0.126,0.204-0.183,0.309  c-0.061,0.115-0.113,0.233-0.169,0.35c-0.052,0.111-0.108,0.218-0.154,0.331c-0.047,0.114-0.085,0.231-0.127,0.348  c-0.043,0.119-0.089,0.238-0.126,0.362c-0.036,0.116-0.062,0.237-0.091,0.355c-0.031,0.124-0.066,0.246-0.091,0.372  c-0.028,0.139-0.043,0.279-0.064,0.418c-0.016,0.108-0.036,0.214-0.047,0.324c-0.024,0.255-0.037,0.508-0.037,0.762v306.96  c0,0.254,0.013,0.508,0.038,0.76c0.01,0.111,0.031,0.216,0.047,0.324c0.021,0.141,0.036,0.28,0.064,0.419  c0.025,0.126,0.06,0.248,0.091,0.371c0.03,0.119,0.056,0.238,0.091,0.356c0.037,0.123,0.084,0.24,0.126,0.361  c0.041,0.116,0.08,0.234,0.127,0.349c0.047,0.112,0.101,0.22,0.153,0.329c0.055,0.117,0.108,0.236,0.169,0.351  c0.057,0.107,0.121,0.207,0.183,0.31c0.066,0.111,0.129,0.224,0.203,0.333c0.077,0.113,0.16,0.221,0.242,0.329  c0.068,0.093,0.131,0.186,0.205,0.275c0.151,0.184,0.312,0.362,0.48,0.531c0.01,0.011,0.019,0.022,0.029,0.031  c0.011,0.012,0.024,0.022,0.036,0.033c0.169,0.167,0.343,0.324,0.526,0.475c0.088,0.072,0.182,0.137,0.273,0.205  c0.11,0.082,0.216,0.165,0.33,0.242c0.108,0.072,0.219,0.133,0.33,0.2c0.104,0.063,0.207,0.129,0.314,0.186  c0.113,0.061,0.229,0.112,0.343,0.165c0.112,0.053,0.221,0.109,0.336,0.155c0.112,0.048,0.227,0.085,0.341,0.125  c0.122,0.044,0.243,0.091,0.368,0.129c0.113,0.034,0.229,0.059,0.342,0.088c0.128,0.033,0.255,0.067,0.386,0.094  c0.132,0.026,0.266,0.042,0.4,0.061c0.114,0.019,0.227,0.038,0.342,0.051c0.251,0.024,0.504,0.038,0.757,0.038h460.449  c4.239,0,7.674-3.436,7.674-7.675V50.6C512,46.36,508.564,42.925,504.326,42.925z M202.786,209.509  c2.997-2.998,2.997-7.856,0-10.853l-38.06-38.06h331.925v86.974H164.726L202.786,209.509z M186.507,204.083L51.551,339.038V69.127  L186.507,204.083z M62.404,349.891l86.974-86.974h347.274v86.974H62.404z"/>
<path d="M356.471,173.386h-39.906c-4.239,0-7.674,3.435-7.674,7.675v27.186c0,16.434,16.36,24.305,26.027,26.363  c0.528,0.113,1.063,0.17,1.599,0.17c0.537,0,1.073-0.057,1.599-0.17c9.667-2.058,26.027-9.931,26.027-26.363v-27.186  C364.145,176.821,360.709,173.386,356.471,173.386z M348.796,208.246c0,6.361-8.605,9.746-12.279,10.899  c-3.674-1.153-12.279-4.538-12.279-10.899v-19.512h24.557V208.246z"/>
<path style="fill:#2E3033;" d="M20.97,482.004c-6.429,0-11.661-5.232-11.661-11.661V41.55c0-6.371,5.183-11.554,11.554-11.554h1.524  c6.431,0,11.661,5.232,11.661,11.661v428.685c0,6.431-5.232,11.661-11.661,11.661H20.97V482.004z"/>
<path d="M22.386,20.687h-1.524C9.359,20.687,0,30.046,0,41.55v428.793c0,11.563,9.407,20.97,20.97,20.97h1.415  c11.564,0,20.97-9.407,20.97-20.97V41.657C43.357,30.094,33.949,20.687,22.386,20.687z M27.841,470.343  c0,3.008-2.447,5.455-5.455,5.455h-1.415c-3.008,0-5.455-2.447-5.455-5.455V41.55c0-2.949,2.399-5.348,5.348-5.348h1.524  c3.008,0,5.455,2.447,5.455,5.455v428.686H27.841z"/>
<g>
</g>
<g>
</g>
<g>
</g>
<g>
</g>
<g>
</g>
<g>
</g>
<g>
</g>
<g>
</g>
<g>
</g>
<g>
</g>
<g>
</g>
<g>
</g>
<g>
</g>
<g>
</g>
<g>
</g>
</svg>
