<?xml version="1.0" encoding="iso-8859-1"?>
<!-- Generator: Adobe Illustrator 19.0.0, SVG Export Plug-In . SVG Version: 6.00 Build 0)  -->
<svg xmlns="http://www.w3.org/2000/svg" xmlns:xlink="http://www.w3.org/1999/xlink" version="1.1" id="Layer_1" x="0px" y="0px" viewBox="0 0 511.999 511.999" style="enable-background:new 0 0 511.999 511.999;" xml:space="preserve">
<g>
	<rect x="39.132" y="233.416" style="fill:#FFFFFF;" width="197.821" height="119.003"/>
	<rect x="298.426" y="52.94" style="fill:#FFFFFF;" width="197.821" height="119.003"/>
	<rect x="39.132" y="52.94" style="fill:#FFFFFF;" width="197.821" height="119.003"/>
	<path style="fill:#FFFFFF;" d="M472.594,233.418c-4.353,0-7.881-3.528-7.881-7.882h-15.763c0,4.354-3.529,7.882-7.881,7.882   H298.422v119.005h197.817V233.418H472.594z"/>
</g>
<path style="fill:#ED1F34;" d="M472.594,217.656h23.643v-29.948H290.54c-4.353,0-7.881-3.528-7.881-7.882V52.94h-29.948v126.886  c0,4.354-3.529,7.882-7.881,7.882H39.132v29.948h205.698c4.353,0,7.881,3.528,7.881,7.881v126.887h29.948V225.537  c0-4.353,3.529-7.881,7.881-7.881h150.529c4.353,0,7.881,3.528,7.881,7.881h15.763C464.713,221.185,468.242,217.656,472.594,217.656  z"/>
<path d="M504.119,37.178H31.25c-4.352,0-7.881,3.528-7.881,7.882v315.244c0,4.353,3.529,7.882,7.881,7.882h472.868  c4.353,0,7.881-3.529,7.881-7.882V45.06C512,40.706,508.471,37.178,504.119,37.178z M236.948,171.945H39.132V52.94h197.817v119.005  H236.948z M39.132,233.418h197.817v119.005H39.132V233.418z M298.422,352.423V233.418H441.07c4.353,0,7.881-3.528,7.881-7.882  c0-4.353-3.529-7.881-7.881-7.881H290.54c-4.353,0-7.881,3.528-7.881,7.881v126.887h-29.948V225.537  c0-4.353-3.529-7.881-7.881-7.881H39.132v-29.948h205.698c4.353,0,7.881-3.528,7.881-7.882V52.94h29.948v126.886  c0,4.354,3.529,7.882,7.881,7.882h205.698v29.948h-23.643c-4.353,0-7.881,3.528-7.881,7.881c0,4.354,3.529,7.882,7.881,7.882h23.643  v119.005H298.422z M496.237,171.945H298.422V52.94h197.817v119.005H496.237z"/>
<path style="fill:#2E3033;" d="M21.536,488.099c-6.603,0-11.976-5.373-11.976-11.976V35.765c0-6.542,5.323-11.865,11.865-11.865  h1.565c6.604,0,11.976,5.373,11.976,11.976v440.247c0,6.604-5.373,11.976-11.976,11.976h-1.454V488.099z"/>
<path d="M22.99,14.34h-1.565C9.611,14.34,0,23.951,0,35.765v440.358c0,11.876,9.661,21.536,21.536,21.536h1.453  c11.876,0,21.536-9.661,21.536-21.536V35.876C44.526,24.001,34.865,14.34,22.99,14.34z M28.592,476.123  c0,3.089-2.513,5.602-5.602,5.602h-1.453c-3.089,0-5.602-2.513-5.602-5.602V35.765c0-3.028,2.463-5.492,5.492-5.492h1.565  c3.089,0,5.602,2.513,5.602,5.602v440.248H28.592z"/>
<g>
</g>
<g>
</g>
<g>
</g>
<g>
</g>
<g>
</g>
<g>
</g>
<g>
</g>
<g>
</g>
<g>
</g>
<g>
</g>
<g>
</g>
<g>
</g>
<g>
</g>
<g>
</g>
<g>
</g>
</svg>
