<?xml version="1.0" encoding="iso-8859-1"?>
<!-- Generator: Adobe Illustrator 19.0.0, SVG Export Plug-In . SVG Version: 6.00 Build 0)  -->
<svg xmlns="http://www.w3.org/2000/svg" xmlns:xlink="http://www.w3.org/1999/xlink" version="1.1" id="Layer_1" x="0px" y="0px" viewBox="0 0 511.999 511.999" style="enable-background:new 0 0 511.999 511.999;" xml:space="preserve">
<path style="fill:#FFFFFF;" d="M496.651,160.596H105.269c-4.239,0-7.674-3.436-7.674-7.675H82.247c0,4.239-3.436,7.675-7.674,7.675  H51.551v86.974h445.101L496.651,160.596L496.651,160.596z M274.101,242.453c-14.077,0-26.4-7.625-33.077-18.956  c-0.049-0.079-0.108-0.149-0.153-0.229c-0.048-0.085-0.082-0.174-0.126-0.259c-3.185-5.59-5.015-12.046-5.015-18.927  c0-10.894,4.661-21.315,12.788-28.592c3.157-2.827,8.009-2.559,10.836,0.598c1.093,1.221,1.718,2.693,1.898,4.205l6.204-10.745  c1.372-2.374,3.904-3.838,6.646-3.838c2.742,0,5.275,1.465,6.646,3.838l6.204,10.745c0.18-1.512,0.805-2.985,1.898-4.205  c2.828-3.158,7.679-3.426,10.836-0.598c8.127,7.277,12.788,17.698,12.788,28.592c0,6.734-1.749,13.064-4.808,18.571  c-0.194,0.417-0.422,0.816-0.685,1.188C300.258,234.986,288.036,242.453,274.101,242.453z"/>
<g>
	<path style="fill:#103B9B;" d="M442.933,349.891h53.72v-86.975H51.551v86.975h360.685c4.239,0,7.674,3.435,7.674,7.674h15.349   C435.259,353.327,438.694,349.891,442.933,349.891z"/>
	<path style="fill:#103B9B;" d="M105.269,145.247h391.382V58.273H51.551v86.974h23.022c4.239,0,7.674,3.435,7.674,7.674h15.349   C97.595,148.682,101.032,145.247,105.269,145.247z"/>
</g>
<path d="M504.326,42.925H43.876c-4.238,0-7.674,3.435-7.674,7.675v306.965c0,4.239,3.436,7.675,7.674,7.675h368.36  c4.239,0,7.674-3.436,7.674-7.675c0-4.239-3.436-7.674-7.674-7.674H51.551v-86.975h445.101v86.975h-53.72  c-4.238,0-7.674,3.435-7.674,7.674c0,4.239,3.436,7.675,7.674,7.675h61.393c4.239,0,7.674-3.436,7.674-7.675V50.6  C512,46.36,508.564,42.925,504.326,42.925z M51.551,160.596h23.022c4.239,0,7.674-3.436,7.674-7.675  c0-4.239-3.436-7.674-7.674-7.674H51.551V58.273h445.101v86.974H105.269c-4.239,0-7.674,3.435-7.674,7.674  c0,4.239,3.436,7.675,7.674,7.675h391.382v86.974H51.551V160.596z"/>
<g>
	<path style="fill:#259245;" d="M300.705,227.104c-0.006,0-0.013,0-0.021,0h-53.168c-2.649,0-5.093-1.374-6.493-3.608   c6.677,11.331,19,18.956,33.077,18.956c13.935,0,26.156-7.468,32.878-18.611C305.59,225.813,303.301,227.104,300.705,227.104z"/>
	<path style="fill:#259245;" d="M240.871,215.594l20.381-35.3c-0.18-1.512-0.805-2.985-1.898-4.205   c-2.827-3.157-7.679-3.426-10.836-0.598c-8.126,7.277-12.788,17.698-12.788,28.592c0,6.88,1.83,13.338,5.015,18.927   C239.515,220.683,239.548,217.884,240.871,215.594z"/>
	<path style="fill:#259245;" d="M308.38,219.43c0,1.153-0.261,2.242-0.716,3.223c3.06-5.507,4.808-11.837,4.808-18.571   c0-10.894-4.661-21.315-12.788-28.592c-3.157-2.827-8.008-2.56-10.836,0.598c-1.093,1.221-1.718,2.693-1.898,4.205l20.119,34.847   C307.897,216.366,308.38,217.842,308.38,219.43z"/>
</g>
<polygon style="fill:#FFE000;" points="260.809,211.756 287.393,211.756 274.101,188.734 "/>
<path d="M247.516,227.104h53.168c0.007,0,0.013,0,0.021,0c2.595,0,4.884-1.291,6.273-3.262c0.263-0.372,0.491-0.772,0.685-1.188  c0.455-0.981,0.716-2.07,0.716-3.223c0-1.588-0.482-3.065-1.311-4.288l-20.119-34.847l-6.204-10.745  c-1.372-2.374-3.904-3.838-6.646-3.838c-2.742,0-5.275,1.465-6.646,3.838l-6.204,10.745l-20.381,35.3  c-1.323,2.291-1.356,5.09-0.126,7.416c0.044,0.085,0.079,0.174,0.126,0.259c0.047,0.08,0.104,0.15,0.153,0.229  C242.424,225.73,244.867,227.104,247.516,227.104z M260.809,211.756l13.292-23.022l13.292,23.022H260.809z"/>
<path style="fill:#2E3033;" d="M20.97,482.004c-6.429,0-11.661-5.232-11.661-11.661V41.549c0-6.371,5.183-11.554,11.554-11.554  h1.524c6.431,0,11.661,5.232,11.661,11.661v428.685c0,6.431-5.232,11.661-11.661,11.661H20.97V482.004z"/>
<path d="M22.386,20.686h-1.524C9.359,20.686,0,30.045,0,41.549v428.793c0,11.563,9.407,20.97,20.97,20.97h1.415  c11.564,0,20.97-9.407,20.97-20.97V41.657C43.357,30.094,33.949,20.686,22.386,20.686z M27.841,470.342  c0,3.008-2.447,5.455-5.455,5.455h-1.415c-3.008,0-5.455-2.447-5.455-5.455V41.549c0-2.949,2.399-5.348,5.348-5.348h1.524  c3.008,0,5.455,2.447,5.455,5.455v428.686H27.841z"/>
<g>
</g>
<g>
</g>
<g>
</g>
<g>
</g>
<g>
</g>
<g>
</g>
<g>
</g>
<g>
</g>
<g>
</g>
<g>
</g>
<g>
</g>
<g>
</g>
<g>
</g>
<g>
</g>
<g>
</g>
</svg>
