<?xml version="1.0" encoding="iso-8859-1"?>
<!-- Generator: Adobe Illustrator 19.0.0, SVG Export Plug-In . SVG Version: 6.00 Build 0)  -->
<svg xmlns="http://www.w3.org/2000/svg" xmlns:xlink="http://www.w3.org/1999/xlink" version="1.1" id="Layer_1" x="0px" y="0px" viewBox="0 0 511.999 511.999" style="enable-background:new 0 0 511.999 511.999;" xml:space="preserve">
<path style="fill:#FFFFFF;" d="M442.933,160.595H51.551v86.974h445.101v-86.974h-23.022c-4.239,0-7.674-3.436-7.674-7.674h-15.349  C450.607,157.159,447.17,160.595,442.933,160.595z M300.07,225.977c-0.691,0.193-1.387,0.285-2.071,0.285  c-3.356,0-6.438-2.219-7.386-5.609l-3.39-12.118l-5.448,1.527v17.555c0,4.239-3.436,7.674-7.674,7.674  c-4.238,0-7.674-3.436-7.674-7.674v-17.555l-5.448-1.527l-3.39,12.118c-1.142,4.08-5.377,6.465-9.457,5.323  c-4.083-1.142-6.465-5.375-5.324-9.458l5.458-19.513c0.548-1.961,1.854-3.623,3.627-4.621c1.775-0.998,3.874-1.252,5.834-0.701  l8.7,2.438v-6.367c-2.935-1.078-5.03-3.897-5.03-7.206c0-4.239,3.436-7.674,7.674-7.674h5.028c4.239,0,7.674,3.436,7.674,7.674  v13.574l8.7-2.438c1.96-0.55,4.06-0.297,5.834,0.701c1.775,0.998,3.08,2.66,3.628,4.621l5.457,19.513  C306.535,220.601,304.153,224.836,300.07,225.977z"/>
<rect x="51.551" y="262.919" style="fill:#333333;" width="445.099" height="86.978"/>
<path style="fill:#ED1F34;" d="M442.933,145.247c4.238,0,7.674,3.436,7.674,7.674h15.349c0-4.239,3.436-7.674,7.674-7.674h23.022  V58.273H51.551v86.974H442.933z"/>
<path d="M504.326,42.925H43.877c-4.239,0-7.675,3.436-7.675,7.674v306.966c0,4.239,3.436,7.674,7.674,7.674h460.449  c4.239,0,7.674-3.436,7.674-7.674V50.599C512,46.361,508.564,42.925,504.326,42.925z M496.651,58.273v86.974h-23.022  c-4.239,0-7.674,3.436-7.674,7.674c0,4.238,3.436,7.674,7.674,7.674h23.022v86.974H51.551v-86.974h391.382  c4.238,0,7.674-3.436,7.674-7.674c0-4.239-3.436-7.674-7.674-7.674H51.551V58.273H496.651z M51.551,349.891v-86.974h445.101v86.974  H51.551z"/>
<path style="fill:#F2A643;" d="M299.937,197.007c-0.548-1.961-1.854-3.623-3.628-4.621c-1.774-0.998-3.874-1.252-5.834-0.701  l-8.7,2.438v-13.574c0-4.239-3.436-7.674-7.674-7.674h-5.029c-4.239,0-7.674,3.436-7.674,7.674c0,3.309,2.095,6.128,5.03,7.206  v6.367l-8.7-2.438c-1.96-0.55-4.059-0.297-5.834,0.701c-1.774,0.998-3.079,2.66-3.627,4.621l-5.458,19.513  c-1.142,4.082,1.241,8.316,5.324,9.458c4.08,1.142,8.315-1.242,9.457-5.323l3.39-12.118l5.448,1.527v17.555  c0,4.239,3.436,7.674,7.674,7.674c4.239,0,7.674-3.436,7.674-7.674v-17.555l5.448-1.527l3.39,12.118  c0.948,3.391,4.03,5.609,7.386,5.609c0.684,0,1.38-0.092,2.071-0.285c4.082-1.142,6.465-5.375,5.323-9.458L299.937,197.007z"/>
<path style="fill:#2E3033;" d="M20.97,482.004c-6.429,0-11.661-5.232-11.661-11.661V41.549c0-6.371,5.183-11.554,11.554-11.554  h1.524c6.431,0,11.661,5.232,11.661,11.661v428.685c0,6.431-5.232,11.661-11.661,11.661H20.97V482.004z"/>
<path d="M22.386,20.686h-1.524C9.359,20.686,0,30.045,0,41.549v428.793c0,11.563,9.407,20.97,20.97,20.97h1.415  c11.564,0,20.97-9.407,20.97-20.97V41.657C43.357,30.094,33.949,20.686,22.386,20.686z M27.841,470.342  c0,3.008-2.447,5.455-5.455,5.455h-1.415c-3.008,0-5.455-2.447-5.455-5.455V41.549c0-2.949,2.399-5.348,5.348-5.348h1.524  c3.008,0,5.455,2.447,5.455,5.455v428.686H27.841z"/>
<g>
</g>
<g>
</g>
<g>
</g>
<g>
</g>
<g>
</g>
<g>
</g>
<g>
</g>
<g>
</g>
<g>
</g>
<g>
</g>
<g>
</g>
<g>
</g>
<g>
</g>
<g>
</g>
<g>
</g>
</svg>
