<?xml version="1.0" encoding="iso-8859-1"?>
<!-- Generator: Adobe Illustrator 19.0.0, SVG Export Plug-In . SVG Version: 6.00 Build 0)  -->
<svg xmlns="http://www.w3.org/2000/svg" xmlns:xlink="http://www.w3.org/1999/xlink" version="1.1" id="Layer_1" x="0px" y="0px" viewBox="0 0 511.999 511.999" style="enable-background:new 0 0 511.999 511.999;" xml:space="preserve">
<g>
	<path style="fill:#164FCE;" d="M51.551,211.757v61.392h214.877v-13.983h-41.554c-14.357,0-26.039-11.682-26.039-26.04v-21.371   H51.551V211.757z"/>
	<path style="fill:#164FCE;" d="M496.651,273.149v-61.392H349.368v21.371c0,14.358-11.681,26.04-26.039,26.04h-41.554v13.983   h214.876V273.149z"/>
</g>
<rect x="51.551" y="288.499" style="fill:#ED1F34;" width="445.099" height="61.388"/>
<path style="fill:#FFE000;" d="M74.573,58.273H51.551v138.135h147.284v-17.743c0-4.24,3.436-7.675,7.674-7.675h30.334  c5.92-9.273,14.26-16.267,23.902-19.676l-4.886-6.747h-49.35c-4.239,0-7.674-3.436-7.674-7.675c0-4.239,3.436-7.675,7.674-7.675  h53.268c2.461,0,4.772,1.18,6.216,3.173l8.109,11.199l8.109-11.199c1.444-1.994,3.756-3.173,6.216-3.173h53.268  c4.239,0,7.674,3.436,7.674,7.675c0,4.239-3.436,7.675-7.674,7.675h-49.35l-4.886,6.747c9.641,3.41,17.982,10.404,23.902,19.676  h30.334c4.239,0,7.674,3.435,7.674,7.675v17.743h147.284V58.273H105.269c-4.239,0-7.674-3.435-7.674-7.674H82.247  C82.247,54.838,78.811,58.273,74.573,58.273z"/>
<path d="M504.326,42.925H105.269c-4.239,0-7.674,3.435-7.674,7.675c0,4.239,3.436,7.674,7.674,7.674h391.382v138.134H349.368  v-17.743c0-4.24-3.436-7.675-7.674-7.675H311.36c-5.92-9.273-14.26-16.267-23.902-19.676l4.886-6.747h49.35  c4.239,0,7.674-3.436,7.674-7.675c0-4.239-3.436-7.675-7.674-7.675h-53.268c-2.461,0-4.772,1.18-6.216,3.173l-8.109,11.198  l-8.109-11.199c-1.444-1.994-3.756-3.173-6.216-3.173h-53.268c-4.239,0-7.674,3.436-7.674,7.675c0,4.239,3.436,7.675,7.674,7.675  h49.35l4.886,6.747c-9.641,3.41-17.982,10.404-23.902,19.676h-30.334c-4.239,0-7.674,3.435-7.674,7.675v17.743H51.551V58.273h23.022  c4.239,0,7.674-3.435,7.674-7.674c0-4.24-3.436-7.675-7.674-7.675H43.876c-4.238,0-7.674,3.435-7.674,7.675v306.965  c0,4.239,3.436,7.675,7.674,7.675h460.449c4.239,0,7.674-3.436,7.674-7.675V50.6C512,46.36,508.564,42.925,504.326,42.925z   M274.101,164.347c17.255,0,31.292,17.826,31.292,39.735s-14.037,39.734-31.292,39.734c-17.255,0-31.292-17.825-31.292-39.734  S256.846,164.347,274.101,164.347z M334.02,233.127c0,5.895-4.796,10.691-10.69,10.691h-16.979  c8.858-10.032,14.391-24.131,14.391-39.735c0-6.208-0.886-12.172-2.497-17.745h15.775V233.127z M323.33,259.167  c14.358,0,26.039-11.682,26.039-26.04v-21.371h147.284v61.392H281.775v-13.983h41.555V259.167z M227.46,204.083  c0,15.604,5.532,29.703,14.391,39.735h-16.979c-5.895,0-10.69-4.796-10.69-10.691v-46.791h15.775  C228.348,191.911,227.46,197.875,227.46,204.083z M224.872,259.167h41.554v13.983H51.551v-61.392h147.284v21.371  C198.834,247.485,210.516,259.167,224.872,259.167z M51.551,349.891v-61.392h445.101v61.392L51.551,349.891L51.551,349.891z"/>
<g>
	<path style="fill:#FFE000;" d="M214.183,233.127c0,5.895,4.795,10.691,10.69,10.691h16.979   c-8.858-10.032-14.391-24.131-14.391-39.735c0-6.208,0.886-12.172,2.498-17.745h-15.775v46.79H214.183z"/>
	<path style="fill:#FFE000;" d="M320.742,204.083c0,15.604-5.532,29.703-14.391,39.735h16.979c5.895,0,10.69-4.796,10.69-10.691   v-46.791h-15.775C319.854,191.911,320.742,197.875,320.742,204.083z"/>
</g>
<path style="fill:#3DB4EA;" d="M242.809,204.083c0,21.909,14.038,39.734,31.292,39.734c17.254,0,31.292-17.825,31.292-39.734  s-14.037-39.735-31.292-39.735C256.846,164.347,242.809,182.173,242.809,204.083z"/>
<path style="fill:#2E3033;" d="M20.97,482.004c-6.429,0-11.661-5.232-11.661-11.661V41.549c0-6.371,5.183-11.554,11.554-11.554  h1.524c6.431,0,11.661,5.232,11.661,11.661v428.685c0,6.431-5.232,11.661-11.661,11.661H20.97V482.004z"/>
<path d="M22.386,20.686h-1.524C9.359,20.686,0,30.045,0,41.549v428.793c0,11.563,9.407,20.97,20.97,20.97h1.415  c11.564,0,20.97-9.407,20.97-20.97V41.657C43.357,30.094,33.949,20.686,22.386,20.686z M27.841,470.342  c0,3.008-2.447,5.455-5.455,5.455h-1.415c-3.008,0-5.455-2.447-5.455-5.455V41.549c0-2.949,2.399-5.348,5.348-5.348h1.524  c3.008,0,5.455,2.447,5.455,5.455v428.686H27.841z"/>
<g>
</g>
<g>
</g>
<g>
</g>
<g>
</g>
<g>
</g>
<g>
</g>
<g>
</g>
<g>
</g>
<g>
</g>
<g>
</g>
<g>
</g>
<g>
</g>
<g>
</g>
<g>
</g>
<g>
</g>
</svg>
