<?xml version="1.0" encoding="iso-8859-1"?>
<!-- Generator: Adobe Illustrator 19.0.0, SVG Export Plug-In . SVG Version: 6.00 Build 0)  -->
<svg xmlns="http://www.w3.org/2000/svg" xmlns:xlink="http://www.w3.org/1999/xlink" version="1.1" id="Layer_1" x="0px" y="0px" viewBox="0 0 512 512" style="enable-background:new 0 0 512 512;" xml:space="preserve">
<rect x="51.24" y="242.285" style="fill:#ED1F34;" width="183.323" height="107.047"/>
<rect x="310.336" y="242.285" style="fill:#103B9B;" width="183.323" height="107.047"/>
<rect x="310.336" y="59.465" style="fill:#ED1F34;" width="183.323" height="107.047"/>
<path style="fill:#103B9B;" d="M104.635,166.51h129.929V59.465H51.24V166.51h22.884c4.213,0,7.628,3.414,7.628,7.629h15.256  C97.008,169.924,100.423,166.51,104.635,166.51z"/>
<path style="fill:#FFFFFF;" d="M295.08,349.326V234.652c0-4.213,3.414-7.628,7.628-7.628h190.952v-45.259H302.707  c-4.213,0-7.628-3.414-7.628-7.628V59.465h-45.26v114.674c0,4.213-3.415,7.628-7.628,7.628H104.635  c-4.213,0-7.628-3.414-7.628-7.628H81.751c0,4.213-3.415,7.628-7.628,7.628H51.24v45.259h190.951c4.213,0,7.628,3.414,7.628,7.628  v114.674L295.08,349.326L295.08,349.326z M272.45,186.596c9.83,0,17.799,7.969,17.799,17.8c0,9.83-7.969,17.799-17.799,17.799  c-9.831,0-17.799-7.969-17.799-17.799C254.651,194.565,262.619,186.596,272.45,186.596z"/>
<circle style="fill:#259245;" cx="272.45" cy="204.399" r="17.799"/>
<path d="M504.371,44.209H46.696c-4.212,0-7.628,3.414-7.628,7.629v305.116c0,4.213,3.415,7.629,7.628,7.629h457.676  c4.214,0,7.629-3.415,7.629-7.629V51.837C512,47.623,508.586,44.209,504.371,44.209z M51.24,242.281h183.324v107.045H51.24V242.281z   M242.191,227.025H51.24v-45.259h22.884c4.213,0,7.628-3.414,7.628-7.628c0-4.214-3.415-7.629-7.628-7.629H51.24V59.465h183.324  V166.51H104.635c-4.213,0-7.628,3.414-7.628,7.629c0,4.213,3.415,7.628,7.628,7.628h137.556c4.213,0,7.628-3.414,7.628-7.628V59.465  h45.26v114.674c0,4.213,3.414,7.628,7.628,7.628h190.952v45.259H302.707c-4.213,0-7.628,3.414-7.628,7.628v114.674h-45.26V234.652  C249.82,230.44,246.405,227.025,242.191,227.025z M493.659,166.51H310.336V59.465H493.66V166.51H493.659z M310.336,242.281H493.66  v107.045H310.336V242.281z"/>
<path style="fill:#2E3033;" d="M20.844,480.643c-6.391,0-11.591-5.2-11.591-11.591V42.841c0-6.332,5.152-11.484,11.484-11.484h1.514  c6.392,0,11.591,5.2,11.591,11.591v426.102c0,6.392-5.2,11.591-11.591,11.591h-1.407V480.643z"/>
<path d="M22.251,22.104h-1.514C9.302,22.104,0,31.407,0,42.841v426.21c0,11.494,9.351,20.844,20.844,20.844h1.406  c11.494,0,20.844-9.351,20.844-20.844V42.948C43.095,31.455,33.745,22.104,22.251,22.104z M27.674,469.052  c0,2.99-2.433,5.422-5.422,5.422h-1.406c-2.99,0-5.422-2.432-5.422-5.422V42.841c0-2.931,2.384-5.315,5.315-5.315h1.514  c2.99,0,5.422,2.433,5.422,5.422v426.103H27.674z"/>
<g>
</g>
<g>
</g>
<g>
</g>
<g>
</g>
<g>
</g>
<g>
</g>
<g>
</g>
<g>
</g>
<g>
</g>
<g>
</g>
<g>
</g>
<g>
</g>
<g>
</g>
<g>
</g>
<g>
</g>
</svg>
