<?xml version="1.0" encoding="iso-8859-1"?>
<!-- Generator: Adobe Illustrator 19.0.0, SVG Export Plug-In . SVG Version: 6.00 Build 0)  -->
<svg xmlns="http://www.w3.org/2000/svg" xmlns:xlink="http://www.w3.org/1999/xlink" version="1.1" id="Layer_1" x="0px" y="0px" viewBox="0 0 511.999 511.999" style="enable-background:new 0 0 511.999 511.999;" xml:space="preserve">
<g>
	<path style="fill:#259245;" d="M50.619,165.785h158.075c6.503-11.013,15.722-20.231,26.734-26.734V57.873H50.619V165.785z"/>
	<path style="fill:#259245;" d="M311.812,139.052c11.012,6.502,20.23,15.721,26.733,26.733h73.489c4.247,0,7.689,3.442,7.689,7.689   h15.38c0-4.247,3.443-7.689,7.689-7.689h53.828V57.873H311.812V139.052z"/>
	<path style="fill:#259245;" d="M496.62,242.169H338.545c-6.503,11.011-15.721,20.23-26.733,26.733v81.179H496.62V242.169z"/>
	<path style="fill:#259245;" d="M235.428,268.902c-11.012-6.503-20.231-15.721-26.734-26.733H50.619v107.912h184.809V268.902z"/>
</g>
<g>
	<path style="fill:#FFFFFF;" d="M496.62,211.667H348.589c-0.532,5.217-1.605,10.274-3.15,15.124H496.62V211.667z"/>
	<path style="fill:#FFFFFF;" d="M296.432,275.799c-4.849,1.543-9.907,2.617-15.124,3.149v71.135h15.124V275.799z"/>
	<path style="fill:#FFFFFF;" d="M281.309,57.873v71.135c5.216,0.531,10.274,1.605,15.124,3.149V57.873H281.309z"/>
	<path style="fill:#FFFFFF;" d="M201.8,226.79c-1.544-4.85-2.618-9.906-3.15-15.124H50.619v15.124H201.8z"/>
</g>
<g>
	<path style="fill:#FFE000;" d="M419.724,173.474c0,4.248-3.443,7.69-7.689,7.69H345.44c1.544,4.849,2.618,9.906,3.15,15.123   h148.031v-15.123h-53.828c-4.246,0-7.689-3.442-7.689-7.69l0,0H419.724L419.724,173.474z"/>
	<path style="fill:#FFE000;" d="M265.93,350.081v-71.135c-5.216-0.532-10.273-1.605-15.123-3.149v74.284H265.93z"/>
	<path style="fill:#FFE000;" d="M50.619,196.287H198.65c0.532-5.216,1.605-10.273,3.15-15.123H50.619V196.287z"/>
	<path style="fill:#FFE000;" d="M265.93,129.008V57.873h-15.123v74.284C255.656,130.612,260.714,129.538,265.93,129.008z"/>
</g>
<path d="M504.311,42.493H42.928c-4.246,0-7.689,3.442-7.689,7.689V357.77c0,4.248,3.443,7.69,7.689,7.69H504.31  c4.247,0,7.689-3.442,7.689-7.69V50.183C512,45.935,508.557,42.493,504.311,42.493z M496.62,165.785h-53.828  c-4.246,0-7.689,3.442-7.689,7.689l0,0c0,4.248,3.443,7.69,7.689,7.69h53.828v15.123H348.589c-0.532-5.216-1.605-10.273-3.15-15.123  h66.594c4.247,0,7.689-3.442,7.689-7.69l0,0c0-4.247-3.443-7.689-7.689-7.689h-73.489c-6.503-11.012-15.721-20.231-26.733-26.733  V57.873H496.62V165.785z M273.619,263.957c-33.073,0-59.98-26.907-59.98-59.98s26.907-59.98,59.98-59.98s59.98,26.907,59.98,59.98  S306.692,263.957,273.619,263.957z M281.309,129.008V57.873h15.124v74.284C291.583,130.612,286.526,129.538,281.309,129.008z   M265.93,57.873v71.135c-5.216,0.531-10.273,1.605-15.123,3.149V57.873H265.93z M198.65,196.287H50.619v-15.123H201.8  C200.255,186.014,199.181,191.071,198.65,196.287z M198.65,211.667c0.532,5.217,1.605,10.274,3.15,15.124H50.619v-15.124H198.65z   M265.93,278.947v71.135h-15.123v-74.284C255.656,277.342,260.714,278.416,265.93,278.947z M281.309,278.947  c5.216-0.532,10.274-1.605,15.124-3.149v74.284h-15.124V278.947z M348.589,211.667H496.62v15.124H345.439  C346.984,221.941,348.057,216.884,348.589,211.667z M235.428,139.051c-11.012,6.503-20.231,15.721-26.734,26.734H50.619V57.873  h184.809V139.051z M50.619,242.169h158.075c6.503,11.012,15.722,20.23,26.734,26.733v81.179H50.619V242.169z M311.812,268.902  c11.012-6.503,20.23-15.722,26.733-26.733H496.62v107.912H311.812V268.902z"/>
<g>
	<path style="fill:#ED1F34;" d="M333.599,203.978c0-33.073-26.907-59.98-59.98-59.98s-59.98,26.907-59.98,59.98   s26.907,59.98,59.98,59.98S333.599,237.05,333.599,203.978z M273.619,248.578c-24.593,0-44.6-20.007-44.6-44.6   s20.007-44.6,44.6-44.6c24.593,0,44.6,20.007,44.6,44.6S298.212,248.578,273.619,248.578z"/>
	<path style="fill:#ED1F34;" d="M302.84,203.978c0-16.112-13.108-29.22-29.22-29.22c-16.112,0-29.22,13.108-29.22,29.22   s13.108,29.22,29.22,29.22S302.84,220.09,302.84,203.978z"/>
</g>
<path style="fill:#259245;" d="M318.219,203.978c0-24.594-20.007-44.6-44.6-44.6s-44.6,20.007-44.6,44.6s20.007,44.6,44.6,44.6  C298.212,248.578,318.219,228.57,318.219,203.978z M273.619,233.198c-16.112,0-29.22-13.108-29.22-29.22s13.108-29.22,29.22-29.22  c16.112,0,29.22,13.108,29.22,29.22S289.732,233.198,273.619,233.198z"/>
<path style="fill:#2E3033;" d="M21.013,482.461c-6.442,0-11.685-5.242-11.685-11.685V41.115c0-6.383,5.194-11.577,11.577-11.577  h1.527c6.444,0,11.685,5.242,11.685,11.685v429.552c0,6.444-5.242,11.685-11.685,11.685h-1.419V482.461z"/>
<path d="M22.432,20.21h-1.527C9.378,20.21,0,29.588,0,41.115v429.661c0,11.587,9.426,21.013,21.013,21.013h1.418  c11.587,0,21.013-9.426,21.013-21.013V41.223C43.444,29.636,34.018,20.21,22.432,20.21z M27.898,470.776  c0,3.014-2.452,5.466-5.466,5.466h-1.418c-3.014,0-5.466-2.452-5.466-5.466V41.115c0-2.955,2.403-5.358,5.358-5.358h1.527  c3.014,0,5.466,2.452,5.466,5.466v429.554H27.898z"/>
<g>
</g>
<g>
</g>
<g>
</g>
<g>
</g>
<g>
</g>
<g>
</g>
<g>
</g>
<g>
</g>
<g>
</g>
<g>
</g>
<g>
</g>
<g>
</g>
<g>
</g>
<g>
</g>
<g>
</g>
</svg>
