<?xml version="1.0" encoding="iso-8859-1"?>
<!-- Generator: Adobe Illustrator 19.0.0, SVG Export Plug-In . SVG Version: 6.00 Build 0)  -->
<svg xmlns="http://www.w3.org/2000/svg" xmlns:xlink="http://www.w3.org/1999/xlink" version="1.1" id="Layer_1" x="0px" y="0px" viewBox="0 0 512 512" style="enable-background:new 0 0 512 512;" xml:space="preserve">
<path style="fill:#259245;" d="M442.935,211.753c-4.239,0-7.674-3.435-7.674-7.674h-15.349c0,4.239-3.435,7.674-7.674,7.674H276.43  L69.234,349.884h427.42V211.753H442.935z"/>
<path style="fill:#3DB4EA;" d="M442.935,196.404h53.719V58.273H69.234L276.43,196.404h135.808c4.239,0,7.674,3.436,7.674,7.675  h15.349C435.261,199.84,438.696,196.404,442.935,196.404z"/>
<path style="fill:#FFFFFF;" d="M260.273,204.079L51.562,64.937v278.282L260.273,204.079z M82.885,181.532l27.034-1.397l9.681-25.278  c1.138-2.968,3.986-4.929,7.167-4.929c3.181,0,6.029,1.961,7.167,4.929l9.682,25.278l27.033,1.397  c3.175,0.163,5.921,2.269,6.902,5.294c0.983,3.022-0.001,6.339-2.473,8.338l-21.051,17.02l7.026,26.141  c0.825,3.071-0.328,6.331-2.9,8.2c-1.343,0.975-2.925,1.467-4.511,1.467c-1.453,0-2.91-0.412-4.184-1.242l-22.691-14.76  l-22.691,14.76c-2.666,1.733-6.123,1.645-8.695-0.224c-2.572-1.869-3.727-5.129-2.901-8.2l7.026-26.141l-21.051-17.02  c-2.472-1.998-3.455-5.315-2.473-8.338C76.964,183.802,79.71,181.696,82.885,181.532z"/>
<path style="fill:#ED1F34;" d="M113.037,203.388c2.36,1.907,3.374,5.027,2.586,7.957l-3.122,11.614l10.08-6.557  c1.272-0.827,2.73-1.241,4.185-1.241s2.913,0.414,4.185,1.241l10.08,6.557l-3.122-11.614c-0.788-2.93,0.225-6.051,2.586-7.957  l9.352-7.562l-12.008-0.621c-3.032-0.157-5.685-2.085-6.771-4.919l-4.302-11.23l-4.301,11.23c-1.087,2.834-3.739,4.762-6.771,4.919  l-12.009,0.621L113.037,203.388z"/>
<path d="M78.456,195.164l21.051,17.02l-7.026,26.141c-0.825,3.071,0.328,6.331,2.901,8.2c2.571,1.869,6.029,1.957,8.695,0.224  l22.691-14.76l22.691,14.76c1.274,0.831,2.731,1.242,4.184,1.242c1.586,0,3.168-0.491,4.511-1.467c2.571-1.869,3.726-5.129,2.9-8.2  l-7.026-26.141l21.051-17.02c2.472-1.998,3.456-5.315,2.473-8.338c-0.982-3.024-3.727-5.13-6.902-5.294l-27.033-1.397l-9.682-25.278  c-1.138-2.968-3.986-4.929-7.167-4.929s-6.029,1.961-7.167,4.929l-9.681,25.278l-27.034,1.397c-3.174,0.163-5.921,2.269-6.902,5.294  C75.001,189.849,75.984,193.166,78.456,195.164z M122.465,190.287l4.301-11.23l4.302,11.23c1.086,2.834,3.739,4.762,6.771,4.919  l12.008,0.621l-9.352,7.562c-2.36,1.907-3.374,5.027-2.586,7.957l3.122,11.614l-10.08-6.557c-1.271-0.827-2.73-1.241-4.185-1.241  c-1.455,0-2.912,0.414-4.185,1.241l-10.08,6.557l3.122-11.614c0.788-2.93-0.225-6.051-2.586-7.957l-9.351-7.562l12.009-0.621  C118.726,195.048,121.379,193.121,122.465,190.287z"/>
<path d="M504.326,42.925H43.888c-0.001,0-0.003,0-0.004,0c-0.261,0-0.52,0.013-0.779,0.039c-0.041,0.005-0.081,0.013-0.123,0.02  c-0.203,0.024-0.408,0.053-0.609,0.093c-0.16,0.032-0.318,0.077-0.475,0.118c-0.082,0.022-0.164,0.039-0.245,0.064  c-0.153,0.047-0.301,0.103-0.451,0.159c-0.085,0.032-0.171,0.059-0.253,0.093c-0.128,0.053-0.25,0.115-0.373,0.175  c-0.103,0.05-0.208,0.094-0.308,0.148c-0.098,0.053-0.19,0.112-0.284,0.169c-0.121,0.07-0.243,0.142-0.362,0.22  c-0.071,0.048-0.138,0.102-0.207,0.151c-0.133,0.095-0.267,0.19-0.395,0.295c-0.058,0.048-0.111,0.101-0.168,0.151  c-0.129,0.113-0.26,0.225-0.382,0.348c-0.122,0.121-0.235,0.251-0.348,0.381c-0.051,0.057-0.104,0.109-0.152,0.168  c-0.164,0.198-0.318,0.406-0.461,0.623c-0.001,0.002-0.003,0.003-0.004,0.005c-0.014,0.022-0.024,0.043-0.038,0.065  c-0.125,0.19-0.242,0.384-0.35,0.585c-0.036,0.066-0.065,0.137-0.099,0.205c-0.078,0.155-0.154,0.312-0.222,0.475  c-0.041,0.1-0.073,0.203-0.111,0.304c-0.049,0.132-0.098,0.263-0.14,0.399c-0.039,0.129-0.067,0.26-0.1,0.39  c-0.027,0.112-0.059,0.221-0.081,0.336c-0.032,0.159-0.054,0.323-0.074,0.484c-0.011,0.087-0.027,0.173-0.035,0.26  c-0.021,0.206-0.028,0.412-0.032,0.619c0,0.046-0.006,0.089-0.006,0.136v0.026c0,0,0,0.016,0,0.024v306.857v0.017v0.034  c0,0.046,0.006,0.089,0.006,0.134c0.004,0.206,0.012,0.413,0.032,0.619c0.008,0.088,0.024,0.174,0.036,0.262  c0.022,0.16,0.041,0.323,0.072,0.483c0.023,0.114,0.055,0.224,0.082,0.337c0.032,0.129,0.061,0.259,0.1,0.388  c0.041,0.135,0.091,0.267,0.14,0.398c0.037,0.103,0.069,0.206,0.112,0.307c0.066,0.161,0.144,0.318,0.221,0.473  c0.033,0.068,0.063,0.138,0.099,0.206c0.108,0.202,0.224,0.396,0.35,0.585c0.014,0.022,0.024,0.044,0.038,0.065  c0.001,0.002,0.002,0.004,0.003,0.006c0.167,0.246,0.349,0.483,0.542,0.71c0.059,0.069,0.12,0.133,0.181,0.2  c0.135,0.148,0.275,0.29,0.42,0.426c0.079,0.072,0.156,0.147,0.238,0.216c0.154,0.132,0.314,0.257,0.479,0.378  c0.066,0.049,0.13,0.101,0.198,0.148c0.232,0.157,0.472,0.303,0.72,0.436c0.059,0.03,0.12,0.056,0.18,0.086  c0.2,0.1,0.403,0.192,0.612,0.274c0.079,0.031,0.157,0.059,0.237,0.087c0.198,0.07,0.398,0.132,0.602,0.187  c0.082,0.022,0.161,0.043,0.243,0.062c0.209,0.049,0.421,0.087,0.636,0.117c0.078,0.011,0.152,0.026,0.231,0.034  c0.265,0.03,0.533,0.047,0.804,0.049c0.022,0,0.043,0.005,0.065,0.005c0.005,0,0.009-0.001,0.014-0.001h460.417  c4.239,0,7.674-3.436,7.674-7.675V50.6C512,46.36,508.565,42.925,504.326,42.925z M260.273,204.079L51.562,343.219V64.937  L260.273,204.079z M69.234,349.884L276.43,211.753h135.808c4.239,0,7.674-3.435,7.674-7.674c0-4.239-3.435-7.675-7.674-7.675H276.43  L69.234,58.273h427.42v138.131h-53.719c-4.239,0-7.674,3.436-7.674,7.675c0,4.239,3.435,7.674,7.674,7.674h53.719v138.131H69.234z"/>
<path style="fill:#2E3033;" d="M20.97,482.004c-6.429,0-11.661-5.232-11.661-11.661V41.55c0-6.371,5.183-11.554,11.554-11.554h1.524  c6.431,0,11.661,5.232,11.661,11.661v428.685c0,6.431-5.232,11.661-11.661,11.661H20.97V482.004z"/>
<path d="M22.386,20.687h-1.524C9.359,20.687,0,30.046,0,41.55v428.793c0,11.563,9.407,20.97,20.97,20.97h1.415  c11.564,0,20.97-9.407,20.97-20.97V41.657C43.357,30.094,33.949,20.687,22.386,20.687z M27.841,470.343  c0,3.008-2.447,5.455-5.455,5.455h-1.415c-3.008,0-5.455-2.447-5.455-5.455V41.55c0-2.949,2.399-5.348,5.348-5.348h1.524  c3.008,0,5.455,2.447,5.455,5.455v428.686H27.841z"/>
<g>
</g>
<g>
</g>
<g>
</g>
<g>
</g>
<g>
</g>
<g>
</g>
<g>
</g>
<g>
</g>
<g>
</g>
<g>
</g>
<g>
</g>
<g>
</g>
<g>
</g>
<g>
</g>
<g>
</g>
</svg>
