<?xml version="1.0" encoding="iso-8859-1"?>
<!-- Generator: Adobe Illustrator 19.0.0, SVG Export Plug-In . SVG Version: 6.00 Build 0)  -->
<svg xmlns="http://www.w3.org/2000/svg" xmlns:xlink="http://www.w3.org/1999/xlink" version="1.1" id="Layer_1" x="0px" y="0px" viewBox="0 0 511.999 511.999" style="enable-background:new 0 0 511.999 511.999;" xml:space="preserve">
<g>
	<rect x="51.551" y="234.009" style="fill:#ED1F34;" width="136.492" height="115.878"/>
	<path style="fill:#ED1F34;" d="M442.933,174.153h53.72V58.273H247.899v115.88h164.337c4.239,0,7.674,3.436,7.674,7.674h15.349   C435.259,177.589,438.694,174.153,442.933,174.153z"/>
	<rect x="247.901" y="234.009" style="fill:#ED1F34;" width="248.749" height="115.878"/>
	<rect x="51.551" y="58.274" style="fill:#ED1F34;" width="136.492" height="115.877"/>
</g>
<path style="fill:#FFFFFF;" d="M203.389,58.273v123.553c0,4.239-3.436,7.675-7.674,7.675H51.551v29.161h144.164  c4.239,0,7.674,3.436,7.674,7.674v123.554h29.161V226.337c0-4.238,3.436-7.674,7.674-7.674H496.65v-29.161h-53.72  c-4.238,0-7.674-3.436-7.674-7.675h-15.349c0,4.239-3.436,7.675-7.674,7.675H240.223c-4.239,0-7.674-3.436-7.674-7.675V58.273  H203.389z"/>
<path d="M504.326,42.925H43.876c-4.238,0-7.674,3.436-7.674,7.674v306.966c0,4.239,3.436,7.674,7.674,7.674h460.449  c4.239,0,7.674-3.436,7.674-7.674V50.599C512,46.361,508.564,42.925,504.326,42.925z M240.225,189.502h172.011  c4.239,0,7.674-3.436,7.674-7.675c0-4.238-3.436-7.674-7.674-7.674H247.9V58.273h248.752v115.88h-53.72  c-4.238,0-7.674,3.436-7.674,7.674c0,4.239,3.436,7.675,7.674,7.675h53.72v29.161H240.225c-4.239,0-7.674,3.436-7.674,7.674v123.554  H203.39V226.337c0-4.238-3.436-7.674-7.674-7.674H51.551v-29.161h144.164c4.239,0,7.674-3.436,7.674-7.675V58.273h29.161v123.553  C232.55,186.065,235.986,189.502,240.225,189.502z M51.551,234.011h136.49v115.88H51.551V234.011z M188.041,174.153H51.551V58.273  h136.49V174.153z M247.899,349.891v-115.88h248.752v115.88H247.899z"/>
<path style="fill:#2E3033;" d="M20.97,482.004c-6.429,0-11.661-5.232-11.661-11.661V41.549c0-6.371,5.183-11.554,11.554-11.554  h1.524c6.431,0,11.661,5.232,11.661,11.661v428.685c0,6.431-5.232,11.661-11.661,11.661H20.97V482.004z"/>
<path d="M22.386,20.686h-1.524C9.359,20.686,0,30.045,0,41.549v428.793c0,11.563,9.407,20.97,20.97,20.97h1.415  c11.564,0,20.97-9.407,20.97-20.97V41.657C43.357,30.094,33.949,20.686,22.386,20.686z M27.841,470.342  c0,3.008-2.447,5.455-5.455,5.455h-1.415c-3.008,0-5.455-2.447-5.455-5.455V41.549c0-2.949,2.399-5.348,5.348-5.348h1.524  c3.008,0,5.455,2.447,5.455,5.455v428.686H27.841z"/>
<g>
</g>
<g>
</g>
<g>
</g>
<g>
</g>
<g>
</g>
<g>
</g>
<g>
</g>
<g>
</g>
<g>
</g>
<g>
</g>
<g>
</g>
<g>
</g>
<g>
</g>
<g>
</g>
<g>
</g>
</svg>
