<?xml version="1.0" encoding="iso-8859-1"?>
<!-- Generator: Adobe Illustrator 19.0.0, SVG Export Plug-In . SVG Version: 6.00 Build 0)  -->
<svg xmlns="http://www.w3.org/2000/svg" xmlns:xlink="http://www.w3.org/1999/xlink" version="1.1" id="Layer_1" x="0px" y="0px" viewBox="0 0 512.003 512.003" style="enable-background:new 0 0 512.003 512.003;" xml:space="preserve">
<g>
	<path style="fill:#3DB4EA;" d="M431.398,58.275H51.551v188.746L431.398,58.275z M174.985,114.29   c0.983,3.023-0.001,6.341-2.473,8.339l-21.05,17.02l7.025,26.143c0.824,3.07-0.329,6.331-2.901,8.2   c-2.571,1.868-6.029,1.958-8.695,0.224l-22.692-14.76l-22.692,14.76c-1.274,0.83-2.73,1.241-4.184,1.241   c-1.586,0-3.169-0.491-4.511-1.466c-2.571-1.869-3.726-5.13-2.9-8.2l7.025-26.143l-21.05-17.02   c-2.472-1.998-3.456-5.315-2.473-8.339c0.983-3.024,3.728-5.129,6.902-5.293l27.034-1.396l9.682-25.279   c1.138-2.969,3.987-4.93,7.167-4.93c3.18,0,6.029,1.961,7.167,4.93l9.681,25.279l27.034,1.396   C171.257,109.161,174.002,111.266,174.985,114.29z"/>
	<polygon style="fill:#3DB4EA;" points="496.651,161.147 496.651,349.892 116.805,349.892  "/>
</g>
<path style="fill:#FFE000;" d="M137.93,130.853c-2.359,1.908-3.373,5.028-2.586,7.958l3.122,11.615l-10.081-6.557  c-1.272-0.827-2.729-1.241-4.184-1.241c-1.455,0-2.912,0.414-4.184,1.241l-10.081,6.557l3.122-11.615  c0.787-2.93-0.227-6.051-2.586-7.958l-9.352-7.561l12.009-0.621c3.032-0.157,5.686-2.086,6.771-4.919l4.301-11.23l4.301,11.23  c1.086,2.833,3.74,4.762,6.771,4.919l12.009,0.621L137.93,130.853z"/>
<path d="M174.985,114.29c-0.983-3.024-3.728-5.129-6.903-5.293l-27.034-1.396l-9.681-25.279c-1.138-2.969-3.987-4.93-7.167-4.93  c-3.18,0-6.029,1.961-7.167,4.93l-9.682,25.279l-27.034,1.396c-3.174,0.163-5.921,2.268-6.902,5.293  c-0.983,3.023,0.001,6.341,2.473,8.339l21.05,17.02l-7.025,26.143c-0.824,3.07,0.329,6.331,2.9,8.2  c1.342,0.974,2.926,1.466,4.511,1.466c1.454,0,2.91-0.412,4.184-1.241l22.692-14.76l22.692,14.76  c2.665,1.734,6.123,1.644,8.695-0.224c2.572-1.869,3.726-5.13,2.901-8.2l-7.025-26.143l21.05-17.02  C174.984,120.631,175.968,117.314,174.985,114.29z M135.271,122.673l12.009,0.621l-9.352,7.561  c-2.359,1.908-3.373,5.028-2.586,7.958l3.122,11.615l-10.081-6.557c-1.272-0.827-2.729-1.241-4.184-1.241  c-1.455,0-2.912,0.414-4.184,1.241l-10.081,6.557l3.122-11.615c0.787-2.93-0.227-6.051-2.586-7.958l-9.351-7.561l12.009-0.621  c3.032-0.157,5.686-2.086,6.771-4.919l4.301-11.23l4.301,11.23C129.587,120.586,132.241,122.514,135.271,122.673z"/>
<path style="fill:#ED1F34;" d="M433.695,163.861c-1.885-3.795-6.489-5.341-10.287-3.457L51.551,345.185v-61.024L496.651,62.984  v61.024l-45.754,22.737c-3.795,1.886-5.343,6.491-3.458,10.287L433.695,163.861L433.695,163.861z"/>
<g>
	<path style="fill:#FFE000;" d="M76.566,349.892L430.238,174.15c3.795-1.887,5.343-6.492,3.457-10.289l13.744-6.83v0.001   c1.342,2.698,4.057,4.26,6.878,4.26c1.147,0,2.312-0.259,3.408-0.803l38.924-19.342v19.999L116.805,349.892H76.566z"/>
	<polygon style="fill:#FFE000;" points="471.637,58.275 51.551,267.019 51.551,247.021 431.398,58.275  "/>
</g>
<path d="M36.741,360.377c0.06,0.151,0.125,0.298,0.194,0.445c0.025,0.054,0.043,0.108,0.07,0.16c0.011,0.024,0.028,0.046,0.04,0.068  c0.151,0.296,0.317,0.582,0.504,0.854c0.032,0.048,0.068,0.09,0.102,0.137c0.153,0.214,0.319,0.417,0.492,0.613  c0.066,0.074,0.131,0.15,0.201,0.221c0.209,0.217,0.427,0.426,0.66,0.619c0.041,0.034,0.086,0.062,0.127,0.095  c0.209,0.164,0.427,0.319,0.653,0.46c0.072,0.047,0.146,0.091,0.22,0.134c0.246,0.145,0.5,0.278,0.763,0.394  c0.023,0.01,0.046,0.023,0.069,0.034c0.293,0.126,0.597,0.233,0.907,0.323c0.064,0.018,0.129,0.031,0.193,0.049  c0.242,0.064,0.488,0.115,0.739,0.153c0.088,0.014,0.175,0.03,0.264,0.041c0.28,0.034,0.564,0.055,0.853,0.059  c0.031,0,0.061,0.006,0.092,0.006c0.011,0,0.023-0.002,0.035-0.002h460.408c4.239,0,7.674-3.435,7.674-7.674V50.601  c0-0.061-0.007-0.119-0.009-0.181c-0.003-0.157-0.01-0.317-0.024-0.476c-0.008-0.104-0.022-0.208-0.034-0.312  c-0.019-0.142-0.039-0.281-0.065-0.423c-0.022-0.122-0.049-0.242-0.078-0.363c-0.028-0.117-0.057-0.235-0.09-0.352  c-0.04-0.141-0.086-0.279-0.132-0.415c-0.034-0.096-0.067-0.192-0.105-0.287c-0.06-0.152-0.125-0.3-0.194-0.448  c-0.025-0.053-0.043-0.107-0.069-0.159c-0.016-0.032-0.036-0.061-0.052-0.093c-0.071-0.139-0.15-0.275-0.23-0.409  c-0.055-0.092-0.108-0.184-0.165-0.273c-0.07-0.108-0.147-0.212-0.222-0.317c-0.077-0.107-0.152-0.212-0.234-0.312  c-0.064-0.08-0.131-0.153-0.199-0.231c-0.1-0.114-0.2-0.229-0.305-0.336c-0.061-0.062-0.126-0.119-0.189-0.179  c-0.116-0.11-0.233-0.219-0.354-0.322c-0.071-0.061-0.148-0.115-0.221-0.173c-0.118-0.091-0.236-0.184-0.359-0.268  c-0.095-0.065-0.194-0.124-0.293-0.185c-0.107-0.067-0.212-0.136-0.323-0.195c-0.122-0.068-0.249-0.129-0.377-0.19  c-0.092-0.046-0.182-0.092-0.275-0.133c-0.139-0.061-0.281-0.113-0.424-0.164c-0.089-0.033-0.177-0.068-0.267-0.098  c-0.138-0.046-0.278-0.082-0.419-0.118c-0.103-0.028-0.206-0.058-0.31-0.081c-0.123-0.027-0.248-0.047-0.373-0.067  c-0.13-0.023-0.26-0.046-0.391-0.061c-0.103-0.011-0.209-0.019-0.313-0.026c-0.156-0.012-0.312-0.022-0.47-0.024  c-0.036,0-0.07-0.005-0.108-0.005H43.877c-4.239,0.002-7.675,3.437-7.675,7.676v306.966c0,0.061,0.007,0.12,0.009,0.181  c0.003,0.157,0.01,0.316,0.024,0.476c0.008,0.105,0.022,0.209,0.034,0.312c0.019,0.142,0.038,0.281,0.065,0.423  c0.022,0.123,0.049,0.242,0.078,0.363c0.028,0.118,0.057,0.236,0.09,0.352c0.04,0.142,0.085,0.279,0.132,0.416  C36.67,360.186,36.703,360.281,36.741,360.377z M51.551,58.275h379.846h40.239L51.551,267.019v-19.998V58.275z M496.651,349.892  H116.805H76.566L430.238,174.15c3.795-1.887,5.343-6.492,3.457-10.289l0,0c-1.885-3.795-6.489-5.341-10.287-3.457L51.551,345.185  v-61.024L496.651,62.984v61.024l-45.754,22.737c-3.795,1.886-5.343,6.491-3.458,10.287v0.001c1.342,2.698,4.057,4.26,6.878,4.26  c1.147,0,2.312-0.259,3.408-0.803l38.924-19.342v19.999v188.745H496.651z"/>
<path style="fill:#2E3033;" d="M20.97,482.006c-6.429,0-11.661-5.232-11.661-11.661V41.551c0-6.371,5.183-11.554,11.554-11.554  h1.524c6.431,0,11.661,5.232,11.661,11.661v428.685c0,6.431-5.232,11.661-11.661,11.661H20.97V482.006z"/>
<path d="M22.386,20.688h-1.524C9.359,20.688,0,30.047,0,41.551v428.793c0,11.563,9.407,20.97,20.97,20.97h1.415  c11.564,0,20.97-9.407,20.97-20.97V41.659C43.357,30.096,33.949,20.688,22.386,20.688z M27.841,470.344  c0,3.008-2.447,5.455-5.455,5.455h-1.415c-3.008,0-5.455-2.447-5.455-5.455V41.551c0-2.949,2.399-5.348,5.348-5.348h1.524  c3.008,0,5.455,2.447,5.455,5.455v428.686H27.841z"/>
<g>
</g>
<g>
</g>
<g>
</g>
<g>
</g>
<g>
</g>
<g>
</g>
<g>
</g>
<g>
</g>
<g>
</g>
<g>
</g>
<g>
</g>
<g>
</g>
<g>
</g>
<g>
</g>
<g>
</g>
</svg>
