<?xml version="1.0" encoding="iso-8859-1"?>
<!-- Generator: Adobe Illustrator 19.0.0, SVG Export Plug-In . SVG Version: 6.00 Build 0)  -->
<svg xmlns="http://www.w3.org/2000/svg" xmlns:xlink="http://www.w3.org/1999/xlink" version="1.1" id="Layer_1" x="0px" y="0px" viewBox="0 0 512 512" style="enable-background:new 0 0 512 512;" xml:space="preserve">
<path style="fill:#ED1F34;" d="M442.793,211.667c-4.246,0-7.689-3.442-7.689-7.689h-15.38c0,4.247-3.443,7.689-7.689,7.689H230.265  L64.168,350.082H496.62V211.667H442.793z"/>
<path style="fill:#FFFFFF;" d="M442.793,196.288h53.828V57.874H64.168l166.097,138.414h181.768c4.247,0,7.689,3.443,7.689,7.689  h15.38C435.104,199.731,438.546,196.288,442.793,196.288z"/>
<polygon style="fill:#103B9B;" points="215.47,203.978 50.619,66.601 50.619,341.354 "/>
<path d="M504.311,42.494H42.928c-0.083,0-0.163,0.009-0.245,0.012c-0.164,0.005-0.326,0.009-0.489,0.025  c-0.134,0.012-0.264,0.036-0.396,0.055c-0.114,0.018-0.23,0.03-0.344,0.053c-0.143,0.028-0.282,0.065-0.423,0.101  c-0.102,0.026-0.204,0.048-0.305,0.079c-0.136,0.04-0.267,0.089-0.401,0.137c-0.104,0.037-0.208,0.072-0.31,0.114  c-0.12,0.049-0.236,0.106-0.352,0.16c-0.112,0.053-0.224,0.104-0.334,0.161c-0.103,0.055-0.201,0.115-0.302,0.174  c-0.117,0.068-0.234,0.136-0.347,0.211c-0.092,0.061-0.179,0.129-0.269,0.194c-0.112,0.082-0.226,0.162-0.335,0.251  c-0.095,0.078-0.186,0.163-0.277,0.245c-0.093,0.084-0.19,0.165-0.28,0.254c-0.123,0.122-0.238,0.253-0.353,0.383  c-0.048,0.054-0.101,0.104-0.147,0.16c-0.004,0.004-0.007,0.009-0.01,0.013c-0.164,0.197-0.318,0.401-0.461,0.614  c-0.015,0.022-0.026,0.045-0.04,0.066c-0.124,0.188-0.243,0.38-0.35,0.579c-0.053,0.099-0.096,0.201-0.145,0.302  c-0.061,0.125-0.125,0.249-0.179,0.378c-0.051,0.121-0.09,0.245-0.134,0.367c-0.041,0.113-0.086,0.225-0.122,0.341  c-0.045,0.145-0.078,0.293-0.113,0.44c-0.024,0.096-0.053,0.191-0.073,0.288c-0.048,0.234-0.083,0.471-0.108,0.707  c-0.001,0.013-0.004,0.027-0.006,0.04c-0.026,0.256-0.038,0.512-0.038,0.769c0,0.005-0.001,0.011-0.001,0.017v307.588  c0,0.006,0.001,0.011,0.001,0.018c0,0.256,0.012,0.512,0.038,0.768c0.002,0.016,0.005,0.031,0.007,0.047  c0.025,0.234,0.06,0.468,0.108,0.7c0.02,0.099,0.049,0.194,0.073,0.291c0.036,0.146,0.068,0.293,0.113,0.438  c0.036,0.117,0.082,0.229,0.123,0.344c0.044,0.121,0.083,0.244,0.133,0.364c0.055,0.131,0.12,0.256,0.181,0.382  c0.048,0.1,0.09,0.2,0.143,0.297c0.11,0.203,0.23,0.399,0.357,0.591c0.012,0.019,0.022,0.037,0.034,0.055  c0.143,0.214,0.297,0.418,0.461,0.615c0.003,0.004,0.006,0.009,0.01,0.014c0.026,0.031,0.056,0.058,0.083,0.089  c0.146,0.169,0.297,0.333,0.457,0.489c0.078,0.076,0.159,0.145,0.238,0.217c0.117,0.106,0.236,0.209,0.36,0.308  c0.095,0.076,0.193,0.147,0.29,0.217c0.119,0.085,0.239,0.167,0.364,0.246c0.101,0.064,0.202,0.126,0.306,0.186  c0.133,0.077,0.269,0.146,0.408,0.215c0.097,0.048,0.194,0.097,0.292,0.141c0.158,0.069,0.32,0.131,0.483,0.191  c0.084,0.03,0.166,0.065,0.251,0.092c0.191,0.062,0.387,0.112,0.584,0.16c0.062,0.015,0.122,0.034,0.184,0.048  c0.228,0.048,0.46,0.085,0.695,0.112c0.033,0.004,0.066,0.011,0.101,0.016c0.267,0.028,0.538,0.044,0.813,0.044h461.381  c4.247,0,7.689-3.443,7.689-7.689V50.183C512,45.937,508.557,42.494,504.311,42.494z M215.47,203.978L50.619,341.354V66.601  L215.47,203.978z M64.168,350.082l166.097-138.414h181.768c4.247,0,7.689-3.442,7.689-7.689s-3.443-7.689-7.689-7.689H230.265  L64.168,57.874H496.62v138.414h-53.828c-4.246,0-7.689,3.443-7.689,7.689c0,4.246,3.443,7.689,7.689,7.689h53.828v138.415  L64.168,350.082L64.168,350.082z"/>
<path style="fill:#2E3033;" d="M21.013,482.462c-6.442,0-11.685-5.242-11.685-11.685V41.115c0-6.383,5.194-11.577,11.577-11.577  h1.527c6.444,0,11.685,5.242,11.685,11.685v429.552c0,6.444-5.242,11.685-11.685,11.685h-1.419V482.462z"/>
<path d="M22.432,20.211h-1.527C9.378,20.211,0,29.588,0,41.115v429.661c0,11.587,9.426,21.013,21.013,21.013h1.418  c11.587,0,21.013-9.426,21.013-21.013V41.223C43.444,29.637,34.018,20.211,22.432,20.211z M27.898,470.777  c0,3.014-2.452,5.466-5.466,5.466h-1.418c-3.014,0-5.466-2.452-5.466-5.466V41.115c0-2.955,2.403-5.358,5.358-5.358h1.527  c3.014,0,5.466,2.452,5.466,5.466v429.554H27.898z"/>
<g>
</g>
<g>
</g>
<g>
</g>
<g>
</g>
<g>
</g>
<g>
</g>
<g>
</g>
<g>
</g>
<g>
</g>
<g>
</g>
<g>
</g>
<g>
</g>
<g>
</g>
<g>
</g>
<g>
</g>
</svg>
