<?xml version="1.0" encoding="iso-8859-1"?>
<!-- Generator: Adobe Illustrator 19.0.0, SVG Export Plug-In . SVG Version: 6.00 Build 0)  -->
<svg xmlns="http://www.w3.org/2000/svg" xmlns:xlink="http://www.w3.org/1999/xlink" version="1.1" id="Layer_1" x="0px" y="0px" viewBox="0 0 511.999 511.999" style="enable-background:new 0 0 511.999 511.999;" xml:space="preserve">
<path style="fill:#FFFFFF;" d="M473.629,349.891h23.022V58.273H51.551v291.619h391.382c4.239,0,7.674,3.436,7.674,7.674h15.349  C465.955,353.327,469.391,349.891,473.629,349.891z M391,241.172c1.29,4.037-0.938,8.356-4.975,9.646  c-6.898,2.203-13.926,3.999-20.925,5.387c-2.589,2.195-5.234,4.323-7.926,6.384c2.299,1.104,4,3.32,4.311,6.041  c0.483,4.211-2.54,8.016-6.75,8.498c-7.154,0.819-14.363,1.237-21.465,1.261c-2.92,1.65-5.884,3.22-8.883,4.725  c2.05,1.517,3.305,4.017,3.097,6.749c-0.306,4.028-3.67,7.091-7.644,7.092c-0.195,0-0.392-0.007-0.591-0.023  c-7.155-0.545-14.291-1.5-21.26-2.803c-4.098,1.381-8.242,2.641-12.43,3.76l7.533,14.053c2.003,3.736,0.597,8.387-3.138,10.39  c-1.154,0.619-2.396,0.911-3.619,0.911c-2.737,0-5.387-1.468-6.771-4.05L274.101,309l-5.464,10.193  c-1.384,2.582-4.033,4.05-6.771,4.05c-1.224,0-2.465-0.294-3.619-0.911c-3.735-2.002-5.14-6.654-3.138-10.39l7.533-14.053  c-4.188-1.119-8.332-2.379-12.43-3.76c-6.969,1.304-14.105,2.259-21.26,2.803c-0.199,0.016-0.395,0.023-0.591,0.023  c-3.974,0-7.338-3.064-7.644-7.092c-0.208-2.732,1.047-5.232,3.097-6.749c-2.999-1.505-5.963-3.076-8.883-4.725  c-7.103-0.023-14.311-0.441-21.465-1.261c-4.211-0.482-7.234-4.287-6.751-8.498c0.311-2.719,2.012-4.938,4.309-6.043  c-2.692-2.061-5.335-4.188-7.924-6.382c-6.998-1.389-14.027-3.185-20.925-5.387c-4.037-1.29-6.265-5.608-4.975-9.646  c0.824-2.582,2.89-4.418,5.327-5.071c-1.659-1.868-3.286-3.766-4.877-5.698c-2.693-3.273-2.224-8.108,1.048-10.802  c3.273-2.693,8.108-2.225,10.802,1.048c1.335,1.622,2.705,3.213,4.092,4.786c0.885-2.397,2.941-4.302,5.627-4.862  c4.151-0.866,8.214,1.796,9.079,5.945c1.259,6.033,2.897,12.1,4.842,18.073c2.191,1.855,4.422,3.661,6.693,5.412  c0.426-2.52,2.091-4.771,4.628-5.82c3.916-1.622,8.404,0.241,10.025,4.158c2.336,5.648,5.05,11.253,8.045,16.709  c2.487,1.404,5.004,2.753,7.553,4.043c-0.057-2.555,1.155-5.082,3.449-6.59c3.542-2.327,8.301-1.346,10.628,2.196  c3.372,5.128,7.111,10.137,11.104,14.937c6.17,2.074,12.456,3.83,18.835,5.254c6.379-1.424,12.666-3.181,18.834-5.254  c3.995-4.803,7.734-9.811,11.105-14.937c2.328-3.542,7.088-4.524,10.628-2.196c2.293,1.508,3.505,4.034,3.449,6.59  c2.549-1.291,5.065-2.64,7.553-4.043c2.997-5.458,5.711-11.063,8.045-16.709c1.621-3.918,6.108-5.778,10.025-4.158  c2.536,1.049,4.203,3.302,4.628,5.82c2.271-1.752,4.503-3.557,6.693-5.412c1.945-5.972,3.583-12.04,4.842-18.073  c0.866-4.149,4.932-6.815,9.079-5.945c2.686,0.561,4.741,2.465,5.627,4.862c1.387-1.573,2.757-3.164,4.092-4.786  c2.693-3.272,7.53-3.741,10.802-1.048c3.273,2.693,3.741,7.529,1.048,10.802c-1.591,1.932-3.218,3.83-4.876,5.698  C388.111,236.756,390.176,238.59,391,241.172z M379.568,133.914l-37.951,10.138l5.096,19.078  c3.102,11.611-3.821,23.578-15.431,26.68c-1.84,0.492-3.732,0.741-5.625,0.741c-2.457,0-4.85-0.414-7.1-1.191  c-7.807,26.627-32.568,45.976-61.305,45.976c-34.832,0-63.481-28.337-63.862-63.168c-0.031-2.798,1.465-5.39,3.9-6.767  c2.436-1.375,5.429-1.316,7.809,0.156c4.082,2.524,8.787,3.858,13.607,3.858c14.295,0,25.924-11.63,25.924-25.924  c0-3.236-0.588-6.389-1.746-9.371c-0.79-2.034-0.677-4.307,0.309-6.252c0.988-1.946,2.755-3.378,4.863-3.942l28.92-7.728  c2.406-0.642,4.101-1.095,5.37-1.378l-0.014-0.053l85.983-22.968c1.843-0.492,3.738-0.742,5.633-0.742  c9.848,0,18.503,6.651,21.047,16.173C398.1,118.843,391.177,130.813,379.568,133.914z"/>
<path d="M504.326,42.925H43.876c-4.238,0-7.674,3.436-7.674,7.674v306.966c0,4.239,3.436,7.674,7.674,7.674h399.056  c4.239,0,7.674-3.436,7.674-7.674c0-4.238-3.436-7.674-7.674-7.674H51.551V58.273h445.101v291.619h-23.022  c-4.239,0-7.674,3.436-7.674,7.674c0,4.239,3.436,7.674,7.674,7.674h30.696c4.239,0,7.674-3.436,7.674-7.674V50.599  C512,46.361,508.564,42.925,504.326,42.925z"/>
<path style="fill:#134923;" d="M389.503,219.6c-3.273-2.693-8.108-2.224-10.802,1.048c-1.335,1.622-2.705,3.213-4.092,4.786  c-0.885-2.397-2.941-4.302-5.627-4.862c-4.149-0.87-8.214,1.796-9.079,5.945c-1.259,6.033-2.897,12.1-4.842,18.073  c-2.191,1.855-4.422,3.661-6.693,5.412c-0.426-2.52-2.091-4.771-4.628-5.82c-3.917-1.62-8.404,0.24-10.025,4.158  c-2.335,5.645-5.049,11.251-8.045,16.709c-2.487,1.404-5.004,2.753-7.553,4.043c0.057-2.555-1.155-5.082-3.449-6.59  c-3.541-2.328-8.3-1.346-10.628,2.196c-3.371,5.126-7.11,10.134-11.105,14.937c-6.169,2.074-12.456,3.83-18.834,5.254  c-6.379-1.424-12.666-3.181-18.835-5.254c-3.993-4.801-7.732-9.809-11.104-14.937c-2.327-3.542-7.087-4.524-10.628-2.196  c-2.293,1.508-3.505,4.034-3.449,6.59c-2.549-1.291-5.065-2.64-7.553-4.043c-2.995-5.455-5.71-11.061-8.045-16.709  c-1.62-3.917-6.109-5.78-10.025-4.158c-2.536,1.049-4.203,3.302-4.628,5.82c-2.271-1.752-4.502-3.557-6.693-5.412  c-1.945-5.972-3.583-12.04-4.842-18.073c-0.866-4.15-4.93-6.81-9.079-5.945c-2.686,0.561-4.741,2.465-5.627,4.862  c-1.387-1.573-2.757-3.164-4.092-4.786c-2.693-3.273-7.53-3.741-10.802-1.048c-3.273,2.693-3.741,7.529-1.048,10.802  c1.591,1.932,3.218,3.83,4.877,5.698c-2.436,0.655-4.503,2.491-5.327,5.071c-1.29,4.037,0.938,8.356,4.975,9.646  c6.898,2.203,13.926,3.999,20.925,5.387c2.588,2.195,5.232,4.32,7.924,6.382c-2.297,1.105-3.998,3.323-4.309,6.043  c-0.483,4.211,2.54,8.016,6.751,8.498c7.154,0.819,14.362,1.237,21.465,1.261c2.92,1.65,5.884,3.22,8.883,4.725  c-2.05,1.517-3.305,4.017-3.097,6.749c0.306,4.029,3.67,7.092,7.644,7.092c0.195,0,0.392-0.007,0.591-0.023  c7.155-0.545,14.29-1.5,21.26-2.803c4.098,1.381,8.242,2.641,12.43,3.76l-7.533,14.053c-2.002,3.736-0.597,8.387,3.138,10.39  c1.154,0.619,2.396,0.911,3.619,0.911c2.737,0,5.387-1.468,6.771-4.05l5.464-10.193l5.464,10.193c1.384,2.582,4.033,4.05,6.771,4.05  c1.224,0,2.465-0.294,3.619-0.911c3.735-2.003,5.14-6.654,3.138-10.39l-7.536-14.051c4.188-1.119,8.332-2.379,12.43-3.76  c6.969,1.304,14.105,2.259,21.26,2.803c0.199,0.016,0.395,0.023,0.591,0.023c3.974,0,7.338-3.065,7.644-7.092  c0.208-2.732-1.047-5.232-3.097-6.749c2.999-1.505,5.963-3.076,8.883-4.725c7.103-0.023,14.311-0.441,21.465-1.261  c4.211-0.482,7.233-4.287,6.75-8.498c-0.311-2.72-2.012-4.937-4.311-6.041c2.693-2.061,5.337-4.189,7.926-6.384  c6.998-1.389,14.027-3.185,20.925-5.387c4.037-1.29,6.265-5.608,4.975-9.646c-0.824-2.582-2.89-4.418-5.326-5.072  c1.658-1.868,3.286-3.766,4.876-5.698C393.244,227.129,392.774,222.293,389.503,219.6z"/>
<path style="fill:#F2A643;" d="M373.952,106.41c-0.559,0-1.121,0.074-1.673,0.221l-85.984,22.968  c-0.644,0.171-16.975,4.534-26.86,7.175c0.362,2.207,0.544,4.451,0.544,6.718c0,22.758-18.515,41.272-41.272,41.272  c-2.818,0-5.611-0.287-8.341-0.849c5.54,20.715,24.538,36.073,46.887,36.073c25.316,0,46.569-19.762,48.386-44.992  c0.244-3.393,2.693-6.221,6.018-6.947c3.324-0.723,6.729,0.823,8.365,3.807c1.133,2.065,3.291,3.347,5.635,3.347  c0.555,0,1.115-0.073,1.663-0.22c3.433-0.917,5.481-4.457,4.564-7.89l-7.076-26.494c-1.094-4.095,1.338-8.301,5.433-9.395  l45.365-12.117c1.663-0.444,3.054-1.509,3.916-3c0.862-1.49,1.092-3.227,0.647-4.89C379.418,108.377,376.861,106.41,373.952,106.41z  "/>
<path d="M373.952,91.061c-1.896,0-3.791,0.249-5.633,0.742l-85.983,22.968l0.014,0.053c-1.269,0.282-2.964,0.735-5.37,1.378  l-28.92,7.728c-2.108,0.563-3.876,1.996-4.863,3.942c-0.987,1.945-1.1,4.218-0.309,6.252c1.158,2.981,1.746,6.135,1.746,9.371  c0,14.295-11.63,25.924-25.924,25.924c-4.82,0-9.524-1.335-13.607-3.858c-2.38-1.473-5.372-1.531-7.809-0.156  c-2.437,1.377-3.932,3.969-3.901,6.767c0.382,34.832,29.03,63.168,63.862,63.168c28.736,0,53.496-19.348,61.305-45.976  c2.25,0.777,4.644,1.191,7.1,1.191c1.892,0,3.785-0.248,5.625-0.741c11.611-3.102,18.532-15.07,15.431-26.68l-5.096-19.078  l37.951-10.138c11.611-3.102,18.532-15.07,15.431-26.68C392.455,97.712,383.8,91.061,373.952,91.061z M379.522,116.086  c-0.862,1.489-2.253,2.556-3.916,3l-45.365,12.117c-4.095,1.094-6.528,5.3-5.433,9.395l7.076,26.494  c0.917,3.434-1.13,6.974-4.564,7.89c-0.549,0.147-1.109,0.22-1.663,0.22c-2.344,0-4.504-1.283-5.635-3.347  c-1.636-2.983-5.04-4.53-8.365-3.807c-3.324,0.726-5.774,3.554-6.018,6.947c-1.816,25.23-23.07,44.992-48.386,44.992  c-22.349,0-41.347-15.358-46.887-36.073c2.73,0.562,5.523,0.849,8.341,0.849c22.758,0,41.272-18.515,41.272-41.272  c0-2.267-0.182-4.51-0.544-6.718c9.885-2.641,26.215-7.004,26.86-7.175l85.984-22.968c0.551-0.148,1.114-0.221,1.673-0.221  c2.909,0,5.465,1.967,6.218,4.786C380.616,112.859,380.385,114.595,379.522,116.086z"/>
<path style="fill:#2E3033;" d="M20.97,482.004c-6.429,0-11.661-5.232-11.661-11.661V41.549c0-6.371,5.183-11.554,11.554-11.554  h1.524c6.431,0,11.661,5.232,11.661,11.661v428.685c0,6.431-5.232,11.661-11.661,11.661H20.97V482.004z"/>
<path d="M22.386,20.686h-1.524C9.359,20.686,0,30.045,0,41.549v428.793c0,11.563,9.407,20.97,20.97,20.97h1.415  c11.564,0,20.97-9.407,20.97-20.97V41.657C43.357,30.094,33.949,20.686,22.386,20.686z M27.841,470.342  c0,3.008-2.447,5.455-5.455,5.455h-1.415c-3.008,0-5.455-2.447-5.455-5.455V41.549c0-2.949,2.399-5.348,5.348-5.348h1.524  c3.008,0,5.455,2.447,5.455,5.455v428.686H27.841z"/>
<g>
</g>
<g>
</g>
<g>
</g>
<g>
</g>
<g>
</g>
<g>
</g>
<g>
</g>
<g>
</g>
<g>
</g>
<g>
</g>
<g>
</g>
<g>
</g>
<g>
</g>
<g>
</g>
<g>
</g>
</svg>
