<?xml version="1.0" encoding="iso-8859-1"?>
<!-- Generator: Adobe Illustrator 19.0.0, SVG Export Plug-In . SVG Version: 6.00 Build 0)  -->
<svg xmlns="http://www.w3.org/2000/svg" xmlns:xlink="http://www.w3.org/1999/xlink" version="1.1" id="Layer_1" x="0px" y="0px" viewBox="0 0 512 512" style="enable-background:new 0 0 512 512;" xml:space="preserve">
<g>
	<rect x="39.132" y="293.04" style="fill:#164FCE;" width="457.103" height="59.368"/>
	<path style="fill:#164FCE;" d="M496.237,76.98V52.94H39.132v202.271h457.106V108.503c0-4.352,3.528-7.881,7.881-7.881V84.86   C499.765,84.86,496.237,81.332,496.237,76.98z M147.593,119.749l-15.292,12.363l5.104,18.991c0.848,3.153-0.338,6.502-2.98,8.421   c-1.378,1.001-3.003,1.505-4.631,1.505c-1.492,0-2.988-0.423-4.298-1.275l-16.486-10.722l-16.485,10.722   c-2.737,1.779-6.288,1.689-8.929-0.229c-2.642-1.919-3.827-5.268-2.98-8.421l5.105-18.991L70.43,119.75   c-2.54-2.053-3.549-5.459-2.54-8.564c1.008-3.104,3.828-5.267,7.088-5.435l19.639-1.014l7.034-18.364   c1.168-3.049,4.094-5.063,7.359-5.063s6.193,2.014,7.361,5.063l7.033,18.364l19.639,1.014c3.261,0.169,6.081,2.331,7.089,5.435   C151.141,114.291,150.132,117.696,147.593,119.749z M256.376,159.743l-21.618,17.478l7.215,26.846   c0.848,3.153-0.337,6.502-2.98,8.42c-2.642,1.919-6.193,2.01-8.929,0.231l-23.303-15.158l-23.303,15.158   c-1.309,0.851-2.804,1.275-4.297,1.275c-1.628,0-3.254-0.503-4.632-1.505c-2.641-1.919-3.827-5.268-2.98-8.421l7.216-26.846   l-21.62-17.478c-2.539-2.053-3.548-5.459-2.54-8.563c1.008-3.106,3.828-5.267,7.089-5.435l27.764-1.434l9.941-25.96   c1.168-3.049,4.095-5.063,7.361-5.063c3.264,0,6.191,2.014,7.359,5.063l9.944,25.96l27.763,1.434   c3.261,0.169,6.08,2.329,7.089,5.434C259.924,154.285,258.915,157.691,256.376,159.743z"/>
</g>
<rect x="39.132" y="255.214" style="fill:#FFE000;" width="457.103" height="37.827"/>
<path style="fill:#FFFFFF;" d="M211.179,154.736l-4.417-11.533l-4.417,11.533c-1.115,2.911-3.84,4.891-6.954,5.051l-12.333,0.636  l9.604,7.765c2.424,1.959,3.465,5.164,2.656,8.173l-3.205,11.927l10.35-6.734c1.307-0.85,2.803-1.275,4.299-1.275  c1.494,0,2.989,0.425,4.297,1.275l10.354,6.735l-3.207-11.928c-0.808-3.009,0.233-6.214,2.656-8.173l9.604-7.765l-12.333-0.636  C215.019,159.625,212.293,157.646,211.179,154.736z"/>
<path d="M251.826,145.745l-27.763-1.434l-9.944-25.96c-1.168-3.049-4.094-5.063-7.359-5.063c-3.265,0-6.193,2.014-7.361,5.063  l-9.941,25.96l-27.764,1.434c-3.261,0.169-6.081,2.329-7.089,5.436c-1.008,3.104,0.001,6.509,2.54,8.563l21.62,17.478l-7.216,26.846  c-0.848,3.153,0.338,6.502,2.98,8.421c1.379,1.001,3.004,1.505,4.632,1.505c1.492,0,2.988-0.423,4.297-1.275l23.303-15.158  l23.303,15.158c2.736,1.779,6.287,1.689,8.929-0.23c2.642-1.918,3.827-5.268,2.98-8.42l-7.215-26.846l21.618-17.478  c2.54-2.053,3.549-5.459,2.541-8.564C257.907,148.074,255.089,145.914,251.826,145.745z M220.861,168.188  c-2.423,1.959-3.464,5.164-2.656,8.173l3.207,11.928l-10.354-6.735c-1.307-0.85-2.803-1.275-4.297-1.275  c-1.496,0-2.991,0.425-4.299,1.275l-10.35,6.734l3.205-11.927c0.809-3.009-0.232-6.214-2.656-8.173l-9.604-7.765l12.333-0.636  c3.115-0.161,5.839-2.141,6.954-5.051l4.417-11.533l4.417,11.533c1.114,2.911,3.84,4.891,6.953,5.051l12.333,0.636L220.861,168.188z  "/>
<path style="fill:#FFFFFF;" d="M113.309,133.024l3.533,2.299l-1.094-4.072c-0.808-3.009,0.232-6.214,2.656-8.173l3.278-2.65  l-4.21-0.218c-3.113-0.16-5.839-2.14-6.953-5.051l-1.508-3.936l-1.507,3.936c-1.114,2.911-3.839,4.891-6.953,5.051l-4.21,0.218  l3.278,2.65c2.424,1.96,3.465,5.164,2.656,8.173l-1.093,4.072l3.533-2.299c1.305-0.85,2.802-1.275,4.297-1.275  C110.506,131.75,112.002,132.176,113.309,133.024z"/>
<path d="M143.043,105.75l-19.639-1.014l-7.033-18.364c-1.168-3.049-4.095-5.063-7.361-5.063c-3.264,0-6.191,2.014-7.359,5.063  l-7.034,18.364l-19.639,1.014c-3.26,0.169-6.08,2.331-7.088,5.435c-1.009,3.105,0,6.51,2.54,8.564l15.292,12.363l-5.105,18.991  c-0.848,3.153,0.337,6.502,2.98,8.421c2.641,1.918,6.192,2.01,8.929,0.229l16.485-10.722l16.486,10.722  c1.309,0.852,2.805,1.275,4.298,1.275c1.628,0,3.254-0.505,4.631-1.505c2.641-1.919,3.827-5.268,2.98-8.421l-5.104-18.991  l15.292-12.363c2.539-2.053,3.548-5.459,2.54-8.564C149.125,108.081,146.305,105.919,143.043,105.75z M101.181,135.324l1.093-4.072  c0.809-3.009-0.232-6.214-2.656-8.173l-3.278-2.65l4.21-0.218c3.114-0.16,5.839-2.14,6.953-5.051l1.507-3.936l1.508,3.936  c1.114,2.911,3.84,4.891,6.953,5.051l4.21,0.218l-3.278,2.65c-2.424,1.96-3.464,5.164-2.656,8.173l1.094,4.072l-3.533-2.299  c-1.307-0.85-2.803-1.275-4.299-1.275c-1.495,0-2.99,0.425-4.297,1.275L101.181,135.324z"/>
<path d="M496.237,108.503v146.708v37.827v59.368H39.132v-59.368v-37.827V52.94h457.106v24.04c0,4.352,3.528,7.88,7.881,7.88  c4.354,0,7.882-3.528,7.882-7.88v-31.92c0-4.353-3.528-7.881-7.882-7.881H31.251c-4.354,0-7.882,3.528-7.882,7.881v315.227  c0,4.352,3.528,7.881,7.882,7.881h472.867c4.354,0,7.882-3.529,7.882-7.881V108.503c0-4.352-3.528-7.881-7.882-7.881  C499.765,100.622,496.237,104.15,496.237,108.503z"/>
<path style="fill:#2E3033;" d="M21.536,488.1c-6.603,0-11.976-5.373-11.976-11.976V35.766c0-6.542,5.323-11.865,11.865-11.865h1.565  c6.604,0,11.976,5.373,11.976,11.976v440.247c0,6.604-5.373,11.976-11.976,11.976h-1.454V488.1z"/>
<path d="M22.99,14.34h-1.565C9.611,14.34,0,23.951,0,35.766v440.358C0,488,9.661,497.66,21.536,497.66h1.453  c11.876,0,21.536-9.661,21.536-21.536V35.876C44.526,24.001,34.865,14.34,22.99,14.34z M28.592,476.124  c0,3.089-2.513,5.602-5.602,5.602h-1.453c-3.089,0-5.602-2.513-5.602-5.602V35.766c0-3.028,2.463-5.492,5.492-5.492h1.565  c3.089,0,5.602,2.513,5.602,5.602v440.248H28.592z"/>
<g>
</g>
<g>
</g>
<g>
</g>
<g>
</g>
<g>
</g>
<g>
</g>
<g>
</g>
<g>
</g>
<g>
</g>
<g>
</g>
<g>
</g>
<g>
</g>
<g>
</g>
<g>
</g>
<g>
</g>
</svg>
