<?xml version="1.0" encoding="iso-8859-1"?>
<!-- Generator: Adobe Illustrator 19.0.0, SVG Export Plug-In . SVG Version: 6.00 Build 0)  -->
<svg xmlns="http://www.w3.org/2000/svg" xmlns:xlink="http://www.w3.org/1999/xlink" version="1.1" id="Layer_1" x="0px" y="0px" viewBox="0 0 511.999 511.999" style="enable-background:new 0 0 511.999 511.999;" xml:space="preserve">
<g>
	<polygon style="fill:#FFFFFF;" points="496.62,242.425 229.809,242.425 160.602,288.564 496.62,288.564  "/>
	<path style="fill:#FFFFFF;" d="M442.793,119.39H160.602l69.207,46.138H496.62V119.39h-23.069c-4.247,0-7.689-3.442-7.689-7.689   h-15.38C450.482,115.948,447.039,119.39,442.793,119.39z"/>
</g>
<g>
	<path style="fill:#164FCE;" d="M412.034,350.081h84.587v-46.139H137.533l-69.207,46.139h312.949c4.246,0,7.689,3.442,7.689,7.689   h15.379C404.344,353.524,407.787,350.081,412.034,350.081z"/>
	<path style="fill:#164FCE;" d="M252.878,180.909l25.006,16.67c2.139,1.427,3.424,3.828,3.424,6.399   c0,2.571-1.285,4.972-3.424,6.398l-25.006,16.671H496.62v-46.138L252.878,180.909L252.878,180.909z"/>
	<path style="fill:#164FCE;" d="M137.533,104.011h305.26c4.247,0,7.689,3.441,7.689,7.689h15.38c0-4.248,3.443-7.689,7.689-7.689   h23.069V57.873H68.326L137.533,104.011z"/>
</g>
<path style="fill:#ED1F34;" d="M130.894,289.886c0.009-0.007,0.02-0.012,0.029-0.02l92.249-61.499  c0.008-0.006,0.017-0.012,0.025-0.018l36.56-24.374l-36.56-24.375c-0.008-0.005-0.017-0.01-0.025-0.017l-92.249-61.5  c-0.01-0.006-0.02-0.012-0.029-0.019L50.619,64.551v278.851L130.894,289.886z M77.567,190.942c-2.477-2.002-3.463-5.326-2.478-8.357  c0.985-3.03,3.735-5.14,6.916-5.303l27.089-1.399l9.701-25.329c1.14-2.976,3.995-4.94,7.181-4.94c3.186,0,6.041,1.964,7.181,4.94  l9.702,25.329l27.089,1.399c3.181,0.164,5.932,2.274,6.916,5.303c0.985,3.031-0.001,6.354-2.478,8.357l-21.093,17.055l7.039,26.195  c0.826,3.076-0.33,6.344-2.906,8.217c-1.344,0.976-2.931,1.469-4.52,1.469c-1.457,0-2.916-0.413-4.192-1.243l-22.738-14.791  l-22.738,14.791c-2.67,1.737-6.135,1.648-8.712-0.226c-2.578-1.873-3.733-5.141-2.907-8.217l7.039-26.195L77.567,190.942z"/>
<path style="fill:#FFFFFF;" d="M114.81,207.157l-3.128,11.638l10.101-6.571c1.275-0.828,2.734-1.243,4.192-1.243  c1.459,0,2.918,0.415,4.192,1.243l10.101,6.571l-3.128-11.638c-0.789-2.936,0.227-6.063,2.591-7.974l9.37-7.576l-12.034-0.622  c-3.037-0.158-5.696-2.092-6.783-4.929l-4.311-11.253l-4.31,11.253c-1.088,2.838-3.748,4.772-6.783,4.929l-12.035,0.622l9.371,7.576  C114.584,201.094,115.6,204.221,114.81,207.157z"/>
<path d="M94.527,242.41c2.577,1.874,6.042,1.963,8.712,0.226l22.738-14.791l22.738,14.791c1.277,0.83,2.735,1.243,4.192,1.243  c1.589,0,3.176-0.492,4.52-1.469c2.577-1.873,3.733-5.141,2.906-8.217l-7.039-26.195l21.093-17.055  c2.477-2.002,3.463-5.326,2.478-8.357c-0.985-3.03-3.735-5.14-6.916-5.303l-27.089-1.399l-9.702-25.329  c-1.14-2.976-3.995-4.94-7.181-4.94c-3.185,0-6.041,1.964-7.181,4.94l-9.701,25.329l-27.089,1.399  c-3.182,0.164-5.933,2.274-6.916,5.303c-0.985,3.031,0.001,6.354,2.478,8.357l21.093,17.055l-7.039,26.195  C90.794,237.269,91.95,240.537,94.527,242.41z M114.884,190.985c3.037-0.158,5.696-2.092,6.783-4.929l4.31-11.253l4.311,11.253  c1.087,2.838,3.747,4.772,6.783,4.929l12.034,0.622l-9.37,7.576c-2.365,1.912-3.381,5.038-2.591,7.974l3.128,11.638l-10.101-6.571  c-1.275-0.828-2.733-1.243-4.192-1.243c-1.459,0-2.918,0.415-4.192,1.243l-10.101,6.571l3.128-11.638  c0.789-2.936-0.227-6.063-2.591-7.974l-9.371-7.576L114.884,190.985z"/>
<path d="M504.311,42.493H42.928c-0.003,0-0.006,0-0.009,0c-0.258,0.002-0.516,0.013-0.772,0.039  c-0.091,0.009-0.179,0.028-0.271,0.04c-0.155,0.022-0.312,0.039-0.465,0.072c-0.165,0.032-0.325,0.077-0.487,0.121  c-0.079,0.022-0.159,0.036-0.236,0.061c-0.151,0.047-0.298,0.104-0.446,0.158c-0.087,0.032-0.175,0.06-0.261,0.095  c-0.123,0.052-0.241,0.111-0.363,0.17c-0.108,0.051-0.216,0.098-0.321,0.153c-0.09,0.049-0.177,0.106-0.266,0.158  c-0.129,0.075-0.258,0.149-0.382,0.233c-0.063,0.042-0.121,0.089-0.181,0.133c-0.142,0.102-0.284,0.202-0.42,0.314  c-0.048,0.039-0.092,0.084-0.139,0.124c-0.14,0.121-0.281,0.243-0.413,0.375c-0.086,0.085-0.163,0.177-0.244,0.266  c-0.086,0.095-0.175,0.184-0.257,0.283c-0.164,0.198-0.317,0.405-0.46,0.621c-0.001,0.003-0.003,0.005-0.005,0.006  c-0.017,0.025-0.029,0.052-0.045,0.076c-0.122,0.188-0.237,0.378-0.343,0.576c-0.037,0.069-0.067,0.142-0.103,0.214  c-0.077,0.153-0.152,0.308-0.219,0.467c-0.042,0.104-0.076,0.206-0.113,0.31c-0.048,0.132-0.097,0.261-0.138,0.395  c-0.039,0.132-0.069,0.265-0.102,0.397c-0.027,0.11-0.058,0.219-0.08,0.33c-0.032,0.164-0.054,0.328-0.076,0.494  c-0.01,0.085-0.027,0.167-0.035,0.253c-0.021,0.21-0.029,0.423-0.032,0.633c0,0.04-0.006,0.081-0.006,0.121v0.023  c0,0.009,0,0.02,0,0.029v307.482c0,0.01,0,0.02,0,0.028v0.024c0,0.04,0.005,0.081,0.006,0.121c0.003,0.21,0.011,0.423,0.032,0.633  c0.008,0.085,0.024,0.168,0.035,0.253c0.022,0.165,0.044,0.33,0.076,0.494c0.022,0.111,0.053,0.219,0.08,0.33  c0.032,0.132,0.062,0.265,0.102,0.397c0.04,0.134,0.09,0.263,0.138,0.394c0.037,0.105,0.07,0.207,0.113,0.311  c0.066,0.16,0.142,0.314,0.218,0.467c0.035,0.07,0.065,0.143,0.104,0.214c0.106,0.197,0.221,0.388,0.343,0.575  c0.017,0.025,0.029,0.052,0.045,0.076c0.001,0.002,0.003,0.004,0.004,0.006c0.166,0.247,0.348,0.483,0.541,0.71  c0.06,0.07,0.123,0.136,0.186,0.203c0.134,0.147,0.273,0.287,0.417,0.423c0.08,0.075,0.159,0.15,0.241,0.22  c0.152,0.131,0.312,0.254,0.475,0.373c0.068,0.051,0.134,0.106,0.204,0.152c0.231,0.156,0.472,0.303,0.72,0.434  c0.06,0.032,0.122,0.059,0.183,0.089c0.199,0.1,0.402,0.192,0.609,0.274c0.08,0.03,0.159,0.059,0.239,0.087  c0.197,0.07,0.397,0.133,0.601,0.187c0.082,0.022,0.164,0.045,0.246,0.064c0.208,0.048,0.421,0.086,0.636,0.116  c0.078,0.011,0.153,0.026,0.231,0.034c0.265,0.03,0.534,0.048,0.805,0.049c0.022,0,0.044,0.004,0.065,0.004c0.004,0,0.009,0,0.013,0  h338.326c4.246,0,7.689-3.443,7.689-7.69s-3.443-7.689-7.689-7.689H68.326l69.207-46.139H496.62v46.139h-84.587  c-4.247,0-7.689,3.442-7.689,7.689s3.443,7.69,7.689,7.69h92.276c4.247,0,7.689-3.443,7.689-7.69V50.184  C512,45.935,508.557,42.493,504.311,42.493z M496.62,104.011h-23.069c-4.247,0-7.689,3.441-7.689,7.689  c0,4.247,3.443,7.689,7.689,7.689h23.069v46.138H229.809l-69.207-46.138h282.191c4.247,0,7.689-3.442,7.689-7.689  c0-4.248-3.443-7.689-7.689-7.689h-305.26L68.326,57.873H496.62V104.011z M252.878,227.046l25.006-16.671  c2.139-1.426,3.424-3.827,3.424-6.398c0-2.571-1.285-4.972-3.424-6.399l-25.006-16.67H496.62v46.138H252.878z M50.619,64.551  l80.275,53.517c0.009,0.006,0.02,0.012,0.029,0.019l92.249,61.5c0.008,0.006,0.017,0.011,0.025,0.017l36.56,24.375l-36.56,24.374  c-0.008,0.005-0.017,0.011-0.025,0.018l-92.249,61.499c-0.01,0.007-0.02,0.012-0.029,0.02l-80.275,53.513V64.551z M229.809,242.425  H496.62v46.139H160.602L229.809,242.425z"/>
<path style="fill:#2E3033;" d="M21.013,482.461c-6.442,0-11.685-5.242-11.685-11.685V41.115c0-6.383,5.194-11.577,11.577-11.577  h1.527c6.444,0,11.685,5.242,11.685,11.685v429.552c0,6.444-5.242,11.685-11.685,11.685h-1.419V482.461z"/>
<path d="M22.432,20.21h-1.527C9.378,20.21,0,29.588,0,41.115v429.661c0,11.587,9.426,21.013,21.013,21.013h1.418  c11.587,0,21.013-9.426,21.013-21.013V41.223C43.444,29.636,34.018,20.21,22.432,20.21z M27.898,470.776  c0,3.014-2.452,5.466-5.466,5.466h-1.418c-3.014,0-5.466-2.452-5.466-5.466V41.115c0-2.955,2.403-5.358,5.358-5.358h1.527  c3.014,0,5.466,2.452,5.466,5.466v429.554H27.898z"/>
<g>
</g>
<g>
</g>
<g>
</g>
<g>
</g>
<g>
</g>
<g>
</g>
<g>
</g>
<g>
</g>
<g>
</g>
<g>
</g>
<g>
</g>
<g>
</g>
<g>
</g>
<g>
</g>
<g>
</g>
</svg>
