<?xml version="1.0" encoding="iso-8859-1"?>
<!-- Generator: Adobe Illustrator 19.0.0, SVG Export Plug-In . SVG Version: 6.00 Build 0)  -->
<svg xmlns="http://www.w3.org/2000/svg" xmlns:xlink="http://www.w3.org/1999/xlink" version="1.1" id="Layer_1" x="0px" y="0px" viewBox="0 0 511.999 511.999" style="enable-background:new 0 0 511.999 511.999;" xml:space="preserve">
<g>
	<path style="fill:#FFFFFF;" d="M51.551,160.596v86.974h168.132c-3.338-7.435-5.21-15.665-5.21-24.328v-62.646H51.551z"/>
	<path style="fill:#FFFFFF;" d="M412.236,160.596H333.73v62.646c0,8.663-1.873,16.893-5.21,24.328h168.132v-86.974h-53.72   c-4.238,0-7.674-3.436-7.674-7.674h-15.349C419.91,157.159,416.474,160.596,412.236,160.596z"/>
</g>
<path style="fill:#ED1F34;" d="M214.472,145.247v-12.279c0-4.239,3.436-7.674,7.674-7.674h103.909c4.239,0,7.674,3.436,7.674,7.674  v12.279h78.506c4.239,0,7.674,3.436,7.674,7.674h15.349c0-4.239,3.436-7.674,7.674-7.674h53.72V58.273h-445.1v86.974H214.472z"/>
<path style="fill:#103B9B;" d="M318.564,262.917c-10.928,12.233-26.807,19.954-44.463,19.954s-33.535-7.719-44.463-19.954H51.551  v86.974h445.101v-86.974L318.564,262.917L318.564,262.917z"/>
<path d="M504.326,42.925H43.876c-4.238,0-7.674,3.436-7.674,7.674v306.966c0,4.239,3.436,7.674,7.674,7.674h460.449  c4.239,0,7.674-3.436,7.674-7.674V50.599C512,46.361,508.564,42.925,504.326,42.925z M496.651,58.273v86.974h-53.72  c-4.238,0-7.674,3.436-7.674,7.674c0,4.238,3.436,7.674,7.674,7.674h53.72v86.974H328.52c3.337-7.435,5.21-15.665,5.21-24.328  v-62.646h78.506c4.239,0,7.674-3.436,7.674-7.674c0-4.239-3.436-7.674-7.674-7.674H333.73v-12.279c0-4.239-3.436-7.674-7.674-7.674  H222.147c-4.239,0-7.674,3.436-7.674,7.674v12.279H51.551V58.273H496.651z M274.101,267.522c-24.416,0-44.28-19.864-44.28-44.28  v-19.159v-63.439h44.28h44.28v63.439v19.159C318.381,247.659,298.517,267.522,274.101,267.522z M219.682,247.57H51.551v-86.974  h162.922v62.646C214.472,231.904,216.344,240.135,219.682,247.57z M51.551,349.891v-86.974h178.087  c10.928,12.233,26.807,19.954,44.463,19.954s33.535-7.719,44.463-19.954h178.087v86.974H51.551z"/>
<g>
	<path style="fill:#FFFFFF;" d="M318.381,223.242v-19.159h-44.28v63.439C298.517,267.522,318.381,247.659,318.381,223.242z"/>
	<rect x="229.821" y="140.639" style="fill:#FFFFFF;" width="44.28" height="63.436"/>
</g>
<g>
	<path style="fill:#ED1F34;" d="M274.101,204.083h-44.28v19.159c0,24.417,19.865,44.28,44.28,44.28V204.083z"/>
	<rect x="274.101" y="140.639" style="fill:#ED1F34;" width="44.28" height="63.436"/>
</g>
<path style="fill:#2E3033;" d="M20.97,482.004c-6.429,0-11.661-5.232-11.661-11.661V41.549c0-6.371,5.183-11.554,11.554-11.554  h1.524c6.431,0,11.661,5.232,11.661,11.661v428.685c0,6.431-5.232,11.661-11.661,11.661H20.97V482.004z"/>
<path d="M22.386,20.686h-1.524C9.359,20.686,0,30.045,0,41.549v428.793c0,11.563,9.407,20.97,20.97,20.97h1.415  c11.564,0,20.97-9.407,20.97-20.97V41.657C43.357,30.094,33.949,20.686,22.386,20.686z M27.841,470.342  c0,3.008-2.447,5.455-5.455,5.455h-1.415c-3.008,0-5.455-2.447-5.455-5.455V41.549c0-2.949,2.399-5.348,5.348-5.348h1.524  c3.008,0,5.455,2.447,5.455,5.455v428.686H27.841z"/>
<g>
</g>
<g>
</g>
<g>
</g>
<g>
</g>
<g>
</g>
<g>
</g>
<g>
</g>
<g>
</g>
<g>
</g>
<g>
</g>
<g>
</g>
<g>
</g>
<g>
</g>
<g>
</g>
<g>
</g>
</svg>
