<?xml version="1.0" encoding="iso-8859-1"?>
<!-- Generator: Adobe Illustrator 19.0.0, SVG Export Plug-In . SVG Version: 6.00 Build 0)  -->
<svg xmlns="http://www.w3.org/2000/svg" xmlns:xlink="http://www.w3.org/1999/xlink" version="1.1" id="Layer_1" x="0px" y="0px" viewBox="0 0 512 512" style="enable-background:new 0 0 512 512;" xml:space="preserve">
<g>
	<rect x="50.63" y="57.873" style="fill:#103B9B;" width="445.989" height="35.885"/>
	<path style="fill:#103B9B;" d="M473.552,314.191c-4.247,0-7.689-3.443-7.689-7.69h-15.38c0,4.247-3.442,7.69-7.689,7.69H50.63   v35.884h445.992v-35.884H473.552z"/>
</g>
<path style="fill:#FFFFFF;" d="M473.552,298.811h23.069v-35.885H50.63v35.885h392.165c4.247,0,7.689,3.442,7.689,7.689h15.38  C465.863,302.253,469.306,298.811,473.552,298.811z"/>
<path style="fill:#ED1F34;" d="M104.456,160.4H50.63v87.148h445.992V160.4H135.215c-4.247,0-7.69-3.442-7.69-7.689h-15.379  C112.146,156.957,108.704,160.4,104.456,160.4z"/>
<path style="fill:#FFFFFF;" d="M50.63,109.136v35.885h53.827c4.247,0,7.689,3.443,7.689,7.69h15.379c0-4.247,3.443-7.69,7.69-7.69  h361.407v-35.885C496.622,109.136,50.63,109.136,50.63,109.136z"/>
<path d="M504.311,42.494H42.941c-4.247,0-7.689,3.442-7.689,7.69v307.579c0,4.247,3.442,7.69,7.689,7.69h461.37  c4.247,0,7.689-3.443,7.689-7.69V50.184C512,45.936,508.558,42.494,504.311,42.494z M496.621,57.873v35.885H50.63V57.873H496.621z   M135.215,145.02c-4.247,0-7.69,3.443-7.69,7.69s3.443,7.689,7.69,7.689h361.407v87.148H50.63V160.4h53.827  c4.247,0,7.689-3.442,7.689-7.689s-3.442-7.69-7.689-7.69H50.63v-35.885h445.992v35.885H135.215z M50.63,350.074v-35.884h392.165  c4.247,0,7.689-3.443,7.689-7.69s-3.442-7.689-7.689-7.689H50.63v-35.885h445.992v35.885h-23.069c-4.247,0-7.689,3.442-7.689,7.689  s3.442,7.69,7.689,7.69h23.069v35.884H50.63z"/>
<path style="fill:#2E3033;" d="M21.013,482.462c-6.442,0-11.685-5.242-11.685-11.685V41.115c0-6.383,5.194-11.577,11.577-11.577  h1.527c6.444,0,11.685,5.242,11.685,11.685v429.552c0,6.444-5.242,11.685-11.685,11.685h-1.419V482.462z"/>
<path d="M22.432,20.211h-1.527C9.378,20.211,0,29.588,0,41.115v429.661c0,11.587,9.426,21.013,21.013,21.013h1.418  c11.587,0,21.013-9.426,21.013-21.013V41.223C43.444,29.637,34.018,20.211,22.432,20.211z M27.898,470.777  c0,3.014-2.452,5.466-5.466,5.466h-1.418c-3.014,0-5.466-2.452-5.466-5.466V41.115c0-2.955,2.403-5.358,5.358-5.358h1.527  c3.014,0,5.466,2.452,5.466,5.466v429.553H27.898z"/>
<g>
</g>
<g>
</g>
<g>
</g>
<g>
</g>
<g>
</g>
<g>
</g>
<g>
</g>
<g>
</g>
<g>
</g>
<g>
</g>
<g>
</g>
<g>
</g>
<g>
</g>
<g>
</g>
<g>
</g>
</svg>
