<?xml version="1.0" encoding="iso-8859-1"?>
<!-- Generator: Adobe Illustrator 19.0.0, SVG Export Plug-In . SVG Version: 6.00 Build 0)  -->
<svg xmlns="http://www.w3.org/2000/svg" xmlns:xlink="http://www.w3.org/1999/xlink" version="1.1" id="Layer_1" x="0px" y="0px" viewBox="0 0 512 512" style="enable-background:new 0 0 512 512;" xml:space="preserve">
<g>
	<path style="fill:#FFFFFF;" d="M382.605,109.34V87.092H368.24v22.247c0,10.248-3.601,19.673-9.605,27.07   C372.121,134.776,382.605,123.259,382.605,109.34z"/>
	<path style="fill:#FFFFFF;" d="M39.132,352.424h457.106V52.941H39.132V352.424z M137.847,198.308l12.572-24.934   c0.146-7.229,1.11-14.26,2.803-21.003h-0.427c-4.353,0-7.881-3.528-7.881-7.881s3.529-7.882,7.881-7.882h5.918   c5.359-11.848,13.102-22.397,22.613-31.033c-3.119-1.837-4.658-5.65-3.487-9.232c1.352-4.137,5.802-6.395,9.939-5.044l8.933,2.918   c14.035-8.316,30.401-13.101,47.865-13.101c37.967,0,70.754,22.584,85.644,55.023c12.65-2.36,22.259-13.477,22.259-26.799V79.211   c0-4.354,3.527-7.882,7.881-7.882h30.127c4.354,0,7.882,3.528,7.882,7.882v30.127c0,14.507-7.224,27.351-18.256,35.151   c11.031,7.799,18.256,20.643,18.256,35.148v60.979c0,4.354-3.528,7.882-7.882,7.882c-4.353,0-7.881-3.528-7.881-7.882v-60.979   c0-13.92-10.483-25.436-23.969-27.069c6.003,7.398,9.604,16.822,9.604,27.069v105.639h14.366v-13.135   c0-4.353,3.528-7.881,7.881-7.881c4.354,0,7.882,3.528,7.882,7.881v21.016c0,4.353-3.528,7.881-7.882,7.881H360.36   c-4.354,0-7.881-3.528-7.881-7.881V179.638c0-11.006-6.559-20.503-15.97-24.807c1.467,6.591,2.246,13.437,2.246,20.465   c0,23.751-8.709,46.099-24.637,63.491l20.101,51.505c1.137,2.914,0.442,6.226-1.77,8.437c-1.168,1.168-1.168,1.168-15.918,6.926   l-71.333,27.838c-0.931,0.364-1.901,0.54-2.864,0.54c-2.124,0-4.206-0.86-5.725-2.463c-0.737-0.779-1.292-1.68-1.654-2.645   c-0.565-1.46-11.928-30.578-19.333-49.551l-32.855,0.116c-17.862,0-32.372-14.509-32.372-32.343v-6.086   c-3.059-1.085-5.254-3.994-5.254-7.424c0-3.43,2.195-6.339,5.254-7.423v-18.744c-1.481,1.452-3.467,2.269-5.516,2.269   c-1.194,0-2.404-0.272-3.543-0.846C137.449,206.933,135.887,202.194,137.847,198.308z"/>
</g>
<path d="M504.118,37.178H31.25c-4.352,0-7.881,3.528-7.881,7.881v315.245c0,4.353,3.529,7.882,7.881,7.882h472.868  c4.354,0,7.882-3.529,7.882-7.882V45.059C512,40.706,508.472,37.178,504.118,37.178z M496.237,352.424H39.132V52.941h457.106  L496.237,352.424L496.237,352.424z"/>
<g>
	<path style="fill:#333333;" d="M244.573,96.877c-9.13,0-17.893,1.585-26.049,4.467l90.695,29.63   C295.069,110.402,271.376,96.877,244.573,96.877z"/>
	<path style="fill:#333333;" d="M188.403,167.414c2.706,0,5.222,1.388,6.666,3.675c1.444,2.288,1.614,5.156,0.448,7.598   l-3.131,6.567c-1.351,2.835-4.176,4.492-7.12,4.492c-1.137,0-2.291-0.246-3.386-0.77c-2.407-1.147-3.964-3.356-4.38-5.8h-11.345   v43.037c3.058,1.085,5.254,3.993,5.254,7.423c0,3.43-2.196,6.34-5.254,7.424v6.086c0,9.143,7.438,16.581,16.581,16.581   l38.232-0.135c0.01,0,0.018,0,0.028,0c3.246,0,6.161,1.991,7.342,5.016l18.471,47.337c16.004-6.246,53.863-21.021,69.858-27.262   l-19.073-48.871c-1.147-2.942-0.429-6.286,1.828-8.496c15.199-14.883,23.569-34.778,23.569-56.019   c0-7.974-1.206-15.671-3.428-22.926h-149.98c-1.482,4.835-2.512,9.866-3.031,15.045L188.403,167.414L188.403,167.414z    M230.813,218.465c0.712-4.295,4.778-7.189,9.064-6.486c7.968,1.322,15.528-4.091,16.849-12.059   c0.639-3.862-0.263-7.739-2.541-10.921c-0.175-0.245-0.357-0.483-0.545-0.716c-1.007,3.118-3.907,5.395-7.365,5.456   c-4.386,0.088-7.942-3.391-8.017-7.742l-0.184-10.563c-0.041-2.339,0.959-4.576,2.731-6.104c1.771-1.528,4.131-2.188,6.437-1.809   c8.015,1.328,15.032,5.698,19.761,12.303c4.727,6.607,6.6,14.659,5.272,22.674c-2.463,14.867-15.387,25.443-29.988,25.443   c-1.645,0-3.311-0.134-4.987-0.412C233.007,226.816,230.103,222.758,230.813,218.465z"/>
</g>
<path style="fill:#FFFFFF;" d="M275.709,136.608l-76.714-25.063c-9.22,6.61-16.948,15.163-22.589,25.063H275.709z"/>
<path d="M237.3,227.528c1.676,0.278,3.342,0.412,4.987,0.412c14.602,0,27.525-10.576,29.988-25.443  c1.328-8.015-0.545-16.066-5.272-22.674c-4.728-6.605-11.746-10.975-19.761-12.303c-2.306-0.378-4.666,0.281-6.437,1.809  c-1.771,1.528-2.771,3.765-2.731,6.104l0.184,10.563c0.075,4.351,3.631,7.83,8.017,7.742c3.458-0.061,6.357-2.338,7.365-5.456  c0.188,0.233,0.37,0.47,0.545,0.716c2.277,3.181,3.179,7.06,2.541,10.921c-1.321,7.968-8.88,13.381-16.849,12.059  c-4.286-0.702-8.351,2.191-9.064,6.486C230.103,222.758,233.007,226.816,237.3,227.528z"/>
<path d="M141.335,208.893c1.139,0.574,2.349,0.846,3.543,0.846c2.05,0,4.035-0.817,5.516-2.269v18.744  c-3.059,1.085-5.254,3.993-5.254,7.423c0,3.43,2.195,6.34,5.254,7.424v6.086c0,17.834,14.509,32.343,32.372,32.343l32.855-0.116  c7.405,18.974,18.768,48.092,19.333,49.551c0.362,0.965,0.917,1.866,1.654,2.645c1.518,1.604,3.6,2.463,5.725,2.463  c0.962,0,1.933-0.175,2.864-0.54l71.333-27.838c14.75-5.757,14.75-5.757,15.918-6.926c2.212-2.212,2.906-5.524,1.77-8.437  l-20.101-51.505c15.927-17.392,24.637-39.741,24.637-63.491c0-7.027-0.779-13.874-2.246-20.465c9.41,4.303,15.97,13.8,15.97,24.807  v113.521c0,4.353,3.527,7.881,7.881,7.881h30.127c4.354,0,7.882-3.528,7.882-7.881v-21.016c0-4.353-3.528-7.881-7.882-7.881  c-4.353,0-7.881,3.528-7.881,7.881v13.135h-14.366V179.638c0-10.247-3.601-19.672-9.604-27.069  c13.486,1.633,23.969,13.151,23.969,27.069v60.979c0,4.354,3.528,7.882,7.881,7.882c4.354,0,7.882-3.528,7.882-7.882v-60.979  c0-14.506-7.224-27.35-18.256-35.148c11.031-7.8,18.256-20.644,18.256-35.151V79.211c0-4.354-3.528-7.882-7.882-7.882h-30.127  c-4.354,0-7.881,3.528-7.881,7.882v30.127c0,13.324-9.609,24.44-22.259,26.799c-14.891-32.439-47.678-55.023-85.644-55.023  c-17.463,0-33.829,4.784-47.865,13.101l-8.933-2.918c-4.137-1.35-8.587,0.907-9.939,5.044c-1.171,3.582,0.369,7.395,3.487,9.232  c-9.51,8.636-17.253,19.185-22.613,31.033h-5.918c-4.353,0-7.881,3.529-7.881,7.882s3.529,7.881,7.881,7.881h0.427  c-1.693,6.744-2.657,13.775-2.803,21.003l-12.572,24.934C135.887,202.194,137.449,206.933,141.335,208.893z M198.995,111.546  l76.714,25.063h-99.303C182.047,126.709,189.775,118.155,198.995,111.546z M218.524,101.344c8.156-2.882,16.919-4.467,26.049-4.467  c26.801,0,50.496,13.523,64.645,34.097L218.524,101.344z M319.564,152.37c2.222,7.255,3.428,14.952,3.428,22.926  c0,21.242-8.37,41.137-23.569,56.019c-2.257,2.209-2.975,5.554-1.828,8.496l19.073,48.871  c-15.995,6.242-53.853,21.016-69.858,27.262l-18.471-47.337c-1.181-3.025-4.096-5.016-7.342-5.016c-0.01,0-0.018,0-0.028,0  l-38.232,0.135c-9.143,0-16.581-7.438-16.581-16.581v-6.086c3.058-1.085,5.254-3.994,5.254-7.424c0-3.43-2.196-6.339-5.254-7.423  v-43.037H177.5c0.414,2.444,1.973,4.653,4.38,5.8c1.095,0.523,2.25,0.77,3.386,0.77c2.943,0,5.768-1.657,7.12-4.492l3.131-6.567  c1.164-2.442,0.995-5.31-0.448-7.598c-1.444-2.287-3.96-3.675-6.666-3.675h-21.85c0.518-5.178,1.549-10.209,3.031-15.045H319.564z   M368.238,109.34V87.092h14.366v22.247c0,13.92-10.483,25.436-23.971,27.07C364.638,129.011,368.238,119.588,368.238,109.34z"/>
<path style="fill:#2E3033;" d="M21.536,488.1c-6.603,0-11.976-5.373-11.976-11.976V35.766c0-6.542,5.323-11.865,11.865-11.865h1.565  c6.604,0,11.976,5.373,11.976,11.976v440.247c0,6.604-5.373,11.976-11.976,11.976h-1.454V488.1z"/>
<path d="M22.99,14.34h-1.565C9.611,14.34,0,23.951,0,35.766v440.358C0,488,9.661,497.66,21.536,497.66h1.453  c11.876,0,21.536-9.661,21.536-21.536V35.876C44.526,24.001,34.865,14.34,22.99,14.34z M28.592,476.124  c0,3.089-2.513,5.602-5.602,5.602h-1.453c-3.089,0-5.602-2.513-5.602-5.602V35.766c0-3.028,2.463-5.492,5.492-5.492h1.565  c3.089,0,5.602,2.513,5.602,5.602v440.248H28.592z"/>
<g>
</g>
<g>
</g>
<g>
</g>
<g>
</g>
<g>
</g>
<g>
</g>
<g>
</g>
<g>
</g>
<g>
</g>
<g>
</g>
<g>
</g>
<g>
</g>
<g>
</g>
<g>
</g>
<g>
</g>
</svg>
