<?xml version="1.0" encoding="iso-8859-1"?>
<!-- Generator: Adobe Illustrator 19.0.0, SVG Export Plug-In . SVG Version: 6.00 Build 0)  -->
<svg xmlns="http://www.w3.org/2000/svg" xmlns:xlink="http://www.w3.org/1999/xlink" version="1.1" id="Layer_1" x="0px" y="0px" viewBox="0 0 512 512" style="enable-background:new 0 0 512 512;" xml:space="preserve">
<g>
	<polygon style="fill:#103B9B;" points="217.501,52.941 170.747,52.941 170.747,84.111  "/>
	<path style="fill:#103B9B;" d="M125.825,352.424h370.413V52.941H267.685v17.693l-47.937,31.958h47.937v9.851v22.856v9.851h-47.937   l47.937,31.958v8.889v16.686h-38.361l-58.577-39.051v39.051h-9.851H138.04h-9.851v-39.051l-58.577,39.051H56.825H39.132v149.742   H94.3c4.353,0,7.881,3.529,7.881,7.881h15.763C117.943,355.953,121.471,352.424,125.825,352.424z M328.363,248.035   c-5.024,2.902-11.452,1.18-14.354-3.846c-2.902-5.025-1.179-11.453,3.845-14.355c5.027-2.901,11.453-1.179,14.355,3.846   C335.113,238.708,333.388,245.134,328.363,248.035z M457.795,244.19c-2.901,5.025-9.329,6.748-14.355,3.846   c-5.025-2.901-6.748-9.329-3.846-14.354s9.329-6.748,14.355-3.846C458.974,232.737,460.696,239.163,457.795,244.19z    M468.462,211.36c-0.607,5.772-5.776,9.958-11.549,9.352c-5.772-0.607-9.958-5.778-9.353-11.55   c0.607-5.772,5.778-9.959,11.55-9.352C464.882,200.417,469.069,205.588,468.462,211.36z M464.854,177.029   c1.793,5.519-1.227,11.448-6.747,13.242c-5.519,1.793-11.448-1.227-13.242-6.747c-1.793-5.519,1.228-11.448,6.747-13.241   C457.132,168.489,463.06,171.51,464.854,177.029z M432.753,146.357c4.314-3.882,10.957-3.535,14.841,0.778   c3.884,4.313,3.535,10.957-0.778,14.841c-4.313,3.884-10.956,3.535-14.841-0.778C428.093,156.884,428.44,150.24,432.753,146.357z    M437.022,255.165c3.411,4.695,2.37,11.266-2.324,14.677c-4.696,3.412-11.267,2.37-14.678-2.324s-2.37-11.266,2.324-14.677   C427.039,249.429,433.61,250.47,437.022,255.165z M405.793,132.17c2.361-5.302,8.572-7.685,13.875-5.326   c5.302,2.361,7.685,8.572,5.326,13.874c-2.361,5.302-8.572,7.686-13.874,5.326C405.817,143.684,403.433,137.472,405.793,132.17z    M411.255,271.419c1.207,5.677-2.417,11.257-8.093,12.463c-5.677,1.207-11.258-2.417-12.463-8.093   c-1.207-5.677,2.417-11.258,8.094-12.463C404.469,262.12,410.048,265.743,411.255,271.419z M385.901,119.668   c5.804,0,10.509,4.705,10.509,10.508c0,5.803-4.705,10.509-10.509,10.509c-5.803,0-10.509-4.705-10.509-10.509   C375.393,124.371,380.098,119.668,385.901,119.668z M373.011,263.325c5.678,1.207,9.301,6.787,8.094,12.463   c-1.208,5.677-6.788,9.3-12.463,8.093c-5.676-1.207-9.301-6.787-8.094-12.463C361.756,265.743,367.336,262.12,373.011,263.325z    M352.137,126.844c5.302-2.36,11.513,0.023,13.874,5.326c2.361,5.303-0.023,11.514-5.326,13.874   c-5.303,2.36-11.514-0.023-13.874-5.326C344.451,135.417,346.835,129.206,352.137,126.844z M349.46,252.84   c4.695,3.411,5.735,9.982,2.324,14.677c-3.411,4.695-9.982,5.736-14.677,2.324c-4.695-3.411-5.735-9.982-2.324-14.677   C338.194,250.469,344.764,249.429,349.46,252.84z M324.21,147.135c3.884-4.314,10.528-4.661,14.841-0.778   c4.314,3.884,4.662,10.528,0.778,14.841c-3.882,4.314-10.527,4.662-14.841,0.778C320.675,158.092,320.327,151.447,324.21,147.135z    M306.95,177.029c1.793-5.518,7.722-8.539,13.241-6.746c5.519,1.793,8.54,7.721,6.747,13.241c-1.793,5.519-7.723,8.54-13.241,6.747   C308.177,188.478,305.156,182.549,306.95,177.029z M312.694,199.812c5.772-0.607,10.942,3.58,11.549,9.352   c0.607,5.772-3.58,10.942-9.352,11.55c-5.772,0.607-10.943-3.581-11.549-9.352C302.735,205.588,306.922,200.417,312.694,199.812z"/>
	<polygon style="fill:#103B9B;" points="39.132,75.888 39.132,102.592 79.188,102.592  "/>
	<polygon style="fill:#103B9B;" points="39.132,145.15 39.132,171.854 79.188,145.15  "/>
	<polygon style="fill:#103B9B;" points="128.189,52.941 81.434,52.941 128.189,84.111  "/>
</g>
<g>
	<polygon style="fill:#ED1F34;" points="181.386,145.15 267.685,202.683 267.685,185.997 206.56,145.15  "/>
	<polygon style="fill:#ED1F34;" points="128.189,155.107 128.189,145.15 117.549,145.15 39.132,197.428 39.132,202.683    56.825,202.683  "/>
	<polygon style="fill:#ED1F34;" points="170.747,102.592 181.386,102.592 255.863,52.941 230.29,52.941 170.747,92.64  "/>
	<polygon style="fill:#ED1F34;" points="117.549,102.592 43.072,52.941 39.132,52.941 39.132,67.387 91.811,102.592  "/>
</g>
<g>
	<polygon style="fill:#FFFFFF;" points="138.04,112.442 138.04,52.941 128.189,52.941 128.189,84.111 81.434,52.941 43.072,52.941    117.549,102.592 91.811,102.592 39.132,67.387 39.132,75.888 79.188,102.592 39.132,102.592 39.132,112.442  "/>
	<polygon style="fill:#FFFFFF;" points="160.895,112.442 267.685,112.442 267.685,102.592 219.748,102.592 267.685,70.634    267.685,52.941 255.863,52.941 181.386,102.592 170.747,102.592 170.747,92.64 230.29,52.941 217.501,52.941 170.747,84.111    170.747,52.941 160.895,52.941  "/>
	<polygon style="fill:#FFFFFF;" points="160.895,135.299 160.895,202.683 170.747,202.683 170.747,163.631 229.324,202.683    267.685,202.683 181.386,145.15 206.56,145.15 267.685,185.997 267.685,177.107 219.748,145.15 267.685,145.15 267.685,135.299     "/>
	<polygon style="fill:#FFFFFF;" points="128.189,145.15 128.189,155.107 56.825,202.683 69.612,202.683 128.189,163.631    128.189,202.683 138.04,202.683 138.04,135.299 39.132,135.299 39.132,145.15 79.188,145.15 39.132,171.854 39.132,197.428    117.549,145.15  "/>
</g>
<polygon style="fill:#ED1F34;" points="138.04,135.299 138.04,202.683 160.895,202.683 160.895,135.299 267.685,135.299   267.685,112.442 160.895,112.442 160.895,52.941 138.04,52.941 138.04,112.442 39.132,112.442 39.132,135.299 "/>
<g>
	<circle style="fill:#FFFFFF;" cx="385.901" cy="130.178" r="10.508"/>
	<circle style="fill:#FFFFFF;" cx="356.414" cy="136.445" r="10.509"/>
	<circle style="fill:#FFFFFF;" cx="332.014" cy="154.163" r="10.508"/>
	<circle style="fill:#FFFFFF;" cx="316.941" cy="180.273" r="10.509"/>
	<circle style="fill:#FFFFFF;" cx="313.797" cy="210.26" r="10.508"/>
	<circle style="fill:#FFFFFF;" cx="323.112" cy="238.94" r="10.508"/>
	<circle style="fill:#FFFFFF;" cx="343.284" cy="261.343" r="10.508"/>
	<circle style="fill:#FFFFFF;" cx="370.828" cy="273.601" r="10.509"/>
	<circle style="fill:#FFFFFF;" cx="400.975" cy="273.601" r="10.508"/>
	<circle style="fill:#FFFFFF;" cx="428.519" cy="261.343" r="10.509"/>
	<circle style="fill:#FFFFFF;" cx="448.69" cy="238.94" r="10.509"/>
	<circle style="fill:#FFFFFF;" cx="458.006" cy="210.26" r="10.509"/>
	<circle style="fill:#FFFFFF;" cx="454.862" cy="180.273" r="10.509"/>
	<circle style="fill:#FFFFFF;" cx="439.789" cy="154.163" r="10.508"/>
	<circle style="fill:#FFFFFF;" cx="415.389" cy="136.445" r="10.509"/>
</g>
<path d="M504.118,37.178H31.25c-4.352,0-7.881,3.529-7.881,7.881v315.245c0,4.353,3.529,7.881,7.881,7.881h63.049  c4.353,0,7.881-3.529,7.881-7.881c0-4.352-3.528-7.881-7.881-7.881H39.132V202.683v-5.254v-25.575v-26.704V135.3v-22.856v-9.851  V75.888v-8.5V52.941h3.94h38.362h46.756h9.851h22.855h9.851h46.755h12.788h25.573h11.822h228.553v299.484H125.825  c-4.353,0-7.881,3.529-7.881,7.881c0,4.353,3.529,7.881,7.881,7.881h378.294c4.354,0,7.882-3.529,7.882-7.881V45.059  C512,40.707,508.472,37.178,504.118,37.178z"/>
<path style="fill:#2E3033;" d="M21.536,488.1c-6.603,0-11.976-5.373-11.976-11.976V35.766c0-6.542,5.323-11.865,11.865-11.865h1.565  c6.604,0,11.976,5.373,11.976,11.976v440.247c0,6.604-5.373,11.976-11.976,11.976h-1.454V488.1z"/>
<path d="M22.99,14.34h-1.565C9.611,14.34,0,23.951,0,35.766v440.358C0,488,9.661,497.66,21.536,497.66h1.453  c11.876,0,21.536-9.661,21.536-21.536V35.876C44.526,24.001,34.865,14.34,22.99,14.34z M28.592,476.124  c0,3.089-2.513,5.602-5.602,5.602h-1.453c-3.089,0-5.602-2.513-5.602-5.602V35.766c0-3.028,2.463-5.492,5.492-5.492h1.565  c3.089,0,5.602,2.513,5.602,5.602v440.248H28.592z"/>
<g>
</g>
<g>
</g>
<g>
</g>
<g>
</g>
<g>
</g>
<g>
</g>
<g>
</g>
<g>
</g>
<g>
</g>
<g>
</g>
<g>
</g>
<g>
</g>
<g>
</g>
<g>
</g>
<g>
</g>
</svg>
