<?xml version="1.0" encoding="iso-8859-1"?>
<!-- Generator: Adobe Illustrator 19.0.0, SVG Export Plug-In . SVG Version: 6.00 Build 0)  -->
<svg xmlns="http://www.w3.org/2000/svg" xmlns:xlink="http://www.w3.org/1999/xlink" version="1.1" id="Layer_1" x="0px" y="0px" viewBox="0 0 511.998 511.998" style="enable-background:new 0 0 511.998 511.998;" xml:space="preserve">
<polygon style="fill:#FFE000;" points="161.32,119.663 496.652,119.663 496.652,58.272 69.233,58.272 "/>
<polygon style="fill:#FFFFFF;" points="184.343,135.011 276.43,196.404 496.652,196.404 496.652,135.011 "/>
<polygon style="fill:#ED1F34;" points="496.652,211.752 276.43,211.752 184.343,273.143 496.652,273.143 "/>
<polygon style="fill:#164FCE;" points="161.32,288.491 69.233,349.883 496.652,349.883 496.652,288.491 "/>
<path style="fill:#259245;" d="M260.272,204.078L51.562,64.937v278.281L260.272,204.078z M152.236,217.655  c0,4.24-3.436,7.675-7.674,7.675c-4.239,0-7.674-3.435-7.674-7.675V190.5c0-4.239,3.436-7.674,7.674-7.674s7.674,3.435,7.674,7.674  V217.655z M71.763,204.078c0-28.344,23.059-51.403,51.403-51.403c8.655,0,17.21,2.201,24.773,6.365  c2.556,1.244,4.317,3.868,4.317,6.903c0,4.229-3.422,7.659-7.648,7.674c-0.138,0.006-0.275-0.002-0.413-0.009  c-0.506-0.023-1.014-0.037-1.526-0.037c-16.822,0-30.508,13.684-30.508,30.507c0,16.822,13.685,30.507,30.508,30.507  c0.512,0,1.02-0.014,1.526-0.038c3.559-0.191,6.758,2.125,7.741,5.544c0.984,3.42-0.513,7.066-3.614,8.81  c-7.655,4.305-16.354,6.579-25.156,6.579C94.822,255.48,71.763,232.421,71.763,204.078z"/>
<path style="fill:#FFFFFF;" d="M144.562,182.826c-4.239,0-7.674,3.435-7.674,7.674v27.155c0,4.24,3.436,7.675,7.674,7.675  s7.674-3.435,7.674-7.675V190.5C152.236,186.261,148.8,182.826,144.562,182.826z"/>
<path d="M504.326,42.924H43.888c-0.004,0-0.009,0.001-0.013,0.001c-0.238,0-0.476,0.013-0.713,0.036  c-0.182,0.017-0.36,0.046-0.539,0.076c-0.082,0.014-0.164,0.022-0.245,0.036c-0.182,0.037-0.359,0.086-0.537,0.136  c-0.062,0.018-0.125,0.029-0.186,0.047c-0.16,0.05-0.315,0.109-0.472,0.169c-0.079,0.028-0.158,0.054-0.236,0.086  c-0.129,0.053-0.253,0.115-0.379,0.177c-0.102,0.048-0.205,0.093-0.304,0.146c-0.094,0.052-0.184,0.109-0.277,0.163  c-0.125,0.074-0.25,0.146-0.371,0.227c-0.065,0.043-0.125,0.093-0.189,0.139c-0.14,0.099-0.279,0.198-0.412,0.308  c-0.05,0.04-0.094,0.086-0.143,0.128c-0.139,0.12-0.277,0.239-0.409,0.37c-0.085,0.085-0.161,0.178-0.242,0.267  c-0.086,0.094-0.175,0.182-0.257,0.28c-0.163,0.199-0.317,0.406-0.46,0.621c-0.001,0.002-0.003,0.004-0.004,0.006  c-0.017,0.025-0.029,0.052-0.046,0.076c-0.121,0.187-0.237,0.376-0.342,0.575c-0.037,0.069-0.067,0.143-0.102,0.212  c-0.077,0.154-0.152,0.308-0.218,0.468c-0.042,0.102-0.076,0.206-0.113,0.308c-0.048,0.131-0.097,0.262-0.138,0.395  c-0.04,0.131-0.069,0.264-0.102,0.396c-0.027,0.11-0.058,0.218-0.08,0.328c-0.032,0.164-0.054,0.329-0.076,0.493  c-0.011,0.085-0.027,0.168-0.035,0.252c-0.021,0.211-0.029,0.422-0.032,0.633c-0.001,0.04-0.006,0.08-0.006,0.12v0.024  c0,0.01,0,0.02,0,0.029v306.852c0,0.01,0,0.02,0,0.029v0.023c0,0.041,0.005,0.081,0.006,0.12c0.003,0.212,0.011,0.422,0.032,0.633  c0.008,0.085,0.024,0.168,0.035,0.253c0.022,0.163,0.043,0.328,0.076,0.491c0.022,0.112,0.053,0.22,0.08,0.33  c0.032,0.131,0.062,0.265,0.101,0.395c0.04,0.134,0.09,0.264,0.138,0.394c0.038,0.103,0.071,0.208,0.114,0.31  c0.065,0.158,0.142,0.312,0.217,0.466c0.035,0.07,0.065,0.143,0.103,0.212c0.106,0.198,0.22,0.388,0.342,0.575  c0.017,0.025,0.029,0.052,0.046,0.076c0.001,0.002,0.003,0.004,0.004,0.006c0.165,0.247,0.348,0.482,0.54,0.709  c0.06,0.07,0.123,0.135,0.185,0.204c0.133,0.146,0.271,0.285,0.416,0.421c0.08,0.074,0.159,0.149,0.241,0.22  c0.152,0.13,0.311,0.253,0.474,0.372c0.068,0.05,0.133,0.103,0.203,0.151c0.231,0.157,0.471,0.302,0.719,0.433  c0.06,0.032,0.122,0.059,0.183,0.089c0.199,0.099,0.4,0.191,0.608,0.273c0.08,0.031,0.159,0.06,0.239,0.087  c0.197,0.07,0.396,0.132,0.6,0.186c0.082,0.022,0.162,0.044,0.245,0.064c0.209,0.048,0.421,0.086,0.635,0.116  c0.077,0.01,0.153,0.026,0.231,0.034c0.265,0.03,0.533,0.048,0.805,0.05c0.022,0,0.043,0.004,0.065,0.004  c0.004,0,0.009-0.001,0.014-0.001h460.416c4.239,0,7.674-3.435,7.674-7.675V50.598C512,46.359,508.564,42.924,504.326,42.924z   M51.562,64.937l208.71,139.141l-208.71,139.14V64.937z M276.43,211.752h220.222v61.392h-312.31L276.43,211.752z M276.43,196.404  l-92.088-61.392h312.31v61.392H276.43z M496.652,119.663H161.32L69.233,58.271h427.42V119.663z M69.233,349.883l92.088-61.392  h335.331v61.392H69.233z"/>
<path style="fill:#FFFFFF;" d="M112.393,238.489c-9.546-8.41-15.578-20.72-15.578-34.411c0-13.692,6.032-26.002,15.578-34.412  c-14.635,4.59-25.281,18.281-25.281,34.412S97.758,233.897,112.393,238.489z"/>
<path d="M123.165,255.48c8.802,0,17.501-2.275,25.156-6.579c3.101-1.744,4.598-5.39,3.614-8.81  c-0.984-3.421-4.182-5.735-7.741-5.544c-0.506,0.024-1.014,0.038-1.526,0.038c-16.822,0-30.508-13.685-30.508-30.507  c0-16.823,13.685-30.507,30.508-30.507c0.512,0,1.02,0.014,1.526,0.037c0.138,0.007,0.276,0.016,0.413,0.009  c4.225-0.014,7.648-3.444,7.648-7.674c0-3.035-1.761-5.659-4.317-6.903c-7.562-4.164-16.117-6.365-24.773-6.365  c-28.343,0-51.403,23.059-51.403,51.403C71.763,232.421,94.822,255.48,123.165,255.48z M87.111,204.078  c0-16.131,10.646-29.82,25.281-34.412c-9.546,8.409-15.578,20.719-15.578,34.412c0,13.691,6.032,26.001,15.578,34.412  C97.758,233.897,87.111,220.208,87.111,204.078z"/>
<path style="fill:#2E3033;" d="M20.97,482.003c-6.429,0-11.661-5.232-11.661-11.661V41.549c0-6.371,5.183-11.554,11.554-11.554  h1.524c6.431,0,11.661,5.232,11.661,11.661v428.685c0,6.431-5.232,11.661-11.661,11.661H20.97V482.003z"/>
<path d="M22.386,20.686h-1.524C9.359,20.686,0,30.045,0,41.549v428.793c0,11.563,9.407,20.97,20.97,20.97h1.415  c11.564,0,20.97-9.407,20.97-20.97V41.656C43.357,30.093,33.949,20.686,22.386,20.686z M27.841,470.342  c0,3.008-2.447,5.455-5.455,5.455h-1.415c-3.008,0-5.455-2.447-5.455-5.455V41.549c0-2.949,2.399-5.348,5.348-5.348h1.524  c3.008,0,5.455,2.447,5.455,5.455v428.686H27.841z"/>
<g>
</g>
<g>
</g>
<g>
</g>
<g>
</g>
<g>
</g>
<g>
</g>
<g>
</g>
<g>
</g>
<g>
</g>
<g>
</g>
<g>
</g>
<g>
</g>
<g>
</g>
<g>
</g>
<g>
</g>
</svg>
