<?xml version="1.0" encoding="iso-8859-1"?>
<!-- Generator: Adobe Illustrator 19.0.0, SVG Export Plug-In . SVG Version: 6.00 Build 0)  -->
<svg xmlns="http://www.w3.org/2000/svg" xmlns:xlink="http://www.w3.org/1999/xlink" version="1.1" id="Layer_1" x="0px" y="0px" viewBox="0 0 511.999 511.999" style="enable-background:new 0 0 511.999 511.999;" xml:space="preserve">
<path style="fill:#103B9B;" d="M39.132,328.78v23.643h457.106V52.94H39.132v244.315c0,4.353-3.529,7.881-7.881,7.881v15.763  C35.603,320.899,39.132,324.427,39.132,328.78z M437.851,131.751c8.705,0,15.762,7.058,15.762,15.763  c0,8.705-7.056,15.762-15.762,15.762c-8.705,0-15.763-7.056-15.763-15.762C422.089,138.809,429.146,131.751,437.851,131.751z   M414.208,211.877c5.804,0,10.509,4.704,10.509,10.509c0,5.803-4.705,10.508-10.509,10.508c-5.803,0-10.508-4.705-10.508-10.508  C403.7,216.581,408.405,211.877,414.208,211.877z M390.565,92.346c8.705,0,15.762,7.058,15.762,15.763  c0,8.704-7.056,15.763-15.762,15.763s-15.763-7.059-15.763-15.763C374.802,99.403,381.86,92.346,390.565,92.346z M390.565,281.493  c8.705,0,15.762,7.058,15.762,15.763c0,8.704-7.056,15.763-15.762,15.763s-15.763-7.059-15.763-15.763  C374.802,288.551,381.86,281.493,390.565,281.493z M359.041,186.92c0,8.704-7.058,15.763-15.763,15.763  c-8.705,0-15.763-7.059-15.763-15.763c0-8.705,7.058-15.763,15.763-15.763C351.983,171.157,359.041,178.214,359.041,186.92z   M287.81,115.989c14.698,0,29.224,3.761,42.041,10.882c2.617,1.28,4.422,3.971,4.422,7.083c0,4.34-3.51,7.863-7.847,7.882  c-0.148-0.004-0.289-0.004-0.434-0.011c-1.063-0.051-2.055-0.074-3.032-0.074c-33.598,0-60.931,27.333-60.931,60.93  c0,33.599,27.334,60.932,60.931,60.932c0.976,0,1.968-0.024,3.032-0.075c3.651-0.166,6.943,2.182,7.952,5.694  c1.01,3.511-0.526,7.257-3.711,9.048c-12.908,7.257-27.579,11.095-42.423,11.095c-47.802,0-86.693-38.891-86.693-86.694  C201.117,154.879,240.008,115.989,287.81,115.989z M128.516,90.901c25.826,0,46.761,20.936,46.761,46.761  s-20.936,46.761-46.761,46.761s-46.761-20.936-46.761-46.761S102.691,90.901,128.516,90.901z"/>
<path style="fill:#FFE000;" d="M287.81,273.611c1.827,0,3.653-0.07,5.469-0.211c-27.593-11.624-47.013-38.947-47.013-70.719  c0-31.771,19.421-59.092,47.013-70.717c-1.816-0.141-3.642-0.212-5.469-0.212c-39.111,0-70.93,31.818-70.93,70.929  S248.699,273.611,287.81,273.611z"/>
<path d="M287.81,289.375c14.844,0,29.514-3.838,42.423-11.095c3.186-1.791,4.722-5.537,3.711-9.048  c-1.009-3.513-4.302-5.86-7.952-5.694c-1.063,0.051-2.055,0.075-3.032,0.075c-33.598,0-60.931-27.334-60.931-60.932  c0-33.598,27.334-60.93,60.931-60.93c0.976,0,1.968,0.023,3.032,0.074c0.146,0.006,0.287,0.006,0.434,0.011  c4.337-0.019,7.847-3.542,7.847-7.882c0-3.112-1.804-5.803-4.422-7.083c-12.816-7.12-27.343-10.882-42.041-10.882  c-47.802,0-86.693,38.89-86.693,86.692C201.117,250.484,240.008,289.375,287.81,289.375z M287.81,131.751  c1.827,0,3.652,0.071,5.469,0.212c-27.593,11.624-47.013,38.946-47.013,70.717c0,31.772,19.421,59.095,47.013,70.719  c-1.816,0.141-3.642,0.211-5.469,0.211c-39.111,0-70.93-31.819-70.93-70.93S248.699,131.751,287.81,131.751z"/>
<path d="M504.119,37.178H31.25c-4.352,0-7.881,3.528-7.881,7.882v252.196c0,4.353,3.529,7.881,7.881,7.881s7.881-3.528,7.881-7.881  V52.94h457.106v299.483H39.132V328.78c0-4.353-3.529-7.881-7.881-7.881s-7.882,3.528-7.882,7.881v31.525  c0,4.353,3.529,7.882,7.881,7.882h472.868c4.353,0,7.881-3.529,7.881-7.882V45.06C512,40.706,508.471,37.178,504.119,37.178z"/>
<g>
	<path style="fill:#FFE000;" d="M128.516,184.424c25.826,0,46.761-20.936,46.761-46.761s-20.936-46.761-46.761-46.761   s-46.761,20.936-46.761,46.761S102.691,184.424,128.516,184.424z M128.516,98.943c15.564,0,28.227,12.662,28.227,28.226   c0,12.83-8.606,23.679-20.345,27.1V168.5c0,4.354-3.529,7.881-7.882,7.881c-4.352,0-7.881-3.527-7.881-7.881v-14.231   c-11.74-3.42-20.346-14.27-20.346-27.1C100.29,111.605,112.952,98.943,128.516,98.943z"/>
	<circle style="fill:#FFE000;" cx="390.565" cy="108.104" r="15.763"/>
	<circle style="fill:#FFE000;" cx="390.565" cy="297.257" r="15.763"/>
	<circle style="fill:#FFE000;" cx="437.856" cy="147.513" r="15.762"/>
	<circle style="fill:#FFE000;" cx="343.274" cy="186.922" r="15.763"/>
	<circle style="fill:#FFE000;" cx="414.21" cy="222.38" r="10.508"/>
</g>
<path style="fill:#259245;" d="M128.516,139.634c6.874,0,12.464-5.592,12.464-12.464c0-6.873-5.592-12.463-12.464-12.463  c-6.873,0-12.464,5.592-12.464,12.463C116.052,134.043,121.645,139.634,128.516,139.634z"/>
<path d="M120.635,154.269V168.5c0,4.354,3.529,7.881,7.881,7.881c4.353,0,7.882-3.527,7.882-7.881v-14.231  c11.74-3.42,20.345-14.27,20.345-27.1c0-15.564-12.663-28.226-28.227-28.226c-15.564,0-28.227,12.662-28.227,28.226  C100.29,140,108.897,150.849,120.635,154.269z M128.516,114.706c6.874,0,12.464,5.592,12.464,12.463  c0,6.874-5.592,12.464-12.464,12.464c-6.873,0-12.464-5.592-12.464-12.464C116.052,120.297,121.645,114.706,128.516,114.706z"/>
<path style="fill:#2E3033;" d="M21.536,488.099c-6.603,0-11.976-5.373-11.976-11.976V35.765c0-6.542,5.323-11.865,11.865-11.865  h1.565c6.604,0,11.976,5.373,11.976,11.976v440.247c0,6.604-5.373,11.976-11.976,11.976h-1.454V488.099z"/>
<path d="M22.99,14.34h-1.565C9.611,14.34,0,23.951,0,35.765v440.358c0,11.876,9.661,21.536,21.536,21.536h1.453  c11.876,0,21.536-9.661,21.536-21.536V35.876C44.526,24.001,34.865,14.34,22.99,14.34z M28.592,476.123  c0,3.089-2.513,5.602-5.602,5.602h-1.453c-3.089,0-5.602-2.513-5.602-5.602V35.765c0-3.028,2.463-5.492,5.492-5.492h1.565  c3.089,0,5.602,2.513,5.602,5.602v440.248H28.592z"/>
<g>
</g>
<g>
</g>
<g>
</g>
<g>
</g>
<g>
</g>
<g>
</g>
<g>
</g>
<g>
</g>
<g>
</g>
<g>
</g>
<g>
</g>
<g>
</g>
<g>
</g>
<g>
</g>
<g>
</g>
</svg>
