<?xml version="1.0" encoding="iso-8859-1"?>
<!-- Generator: Adobe Illustrator 19.0.0, SVG Export Plug-In . SVG Version: 6.00 Build 0)  -->
<svg xmlns="http://www.w3.org/2000/svg" xmlns:xlink="http://www.w3.org/1999/xlink" version="1.1" id="Layer_1" x="0px" y="0px" viewBox="0 0 512 512" style="enable-background:new 0 0 512 512;" xml:space="preserve">
<path style="fill:#164FCE;" d="M313.87,242.944c-11.249,12.887-27.775,21.054-46.185,21.054c-33.809,0-61.315-27.507-61.315-61.316  c0-9.75,2.299-18.968,6.365-27.161L39.132,59.785v292.638H478.09L313.87,242.944z M131.078,149.879  c7.047,0,12.76,5.713,12.76,12.761c0,7.047-5.713,12.76-12.76,12.76c-7.047,0-12.76-5.713-12.76-12.76  C118.319,155.592,124.031,149.879,131.078,149.879z M92.798,239.199c-7.047,0-12.76-5.713-12.76-12.76  c0-7.048,5.713-12.761,12.76-12.761c7.047,0,12.761,5.713,12.761,12.761C105.559,233.486,99.845,239.199,92.798,239.199z   M131.078,328.519c-7.047,0-12.76-5.714-12.76-12.762c0-7.047,5.713-12.76,12.76-12.76c7.047,0,12.76,5.713,12.76,12.76  C143.838,322.805,138.125,328.519,131.078,328.519z M150.219,263.656c-4.698,0-8.506-3.809-8.506-8.507  c0-4.698,3.808-8.507,8.506-8.507s8.506,3.809,8.506,8.507C158.725,259.846,154.916,263.656,150.219,263.656z M169.358,207.298  c-7.047,0-12.76-5.714-12.76-12.761c0-7.047,5.713-12.76,12.76-12.76c7.047,0,12.76,5.713,12.76,12.76  S176.405,207.298,169.358,207.298z"/>
<g>
	<circle style="fill:#FFFFFF;" cx="131.081" cy="162.64" r="12.758"/>
	<circle style="fill:#FFFFFF;" cx="131.081" cy="315.762" r="12.758"/>
	<circle style="fill:#FFFFFF;" cx="169.364" cy="194.539" r="12.758"/>
	<circle style="fill:#FFFFFF;" cx="92.797" cy="226.438" r="12.758"/>
	<circle style="fill:#FFFFFF;" cx="150.222" cy="255.15" r="8.509"/>
</g>
<path style="fill:#259245;" d="M496.237,286.748V52.941H57.279l164.22,109.48c11.248-12.888,27.775-21.054,46.185-21.054  c33.81,0,61.315,27.507,61.315,61.316c0,9.75-2.299,18.968-6.365,27.162l173.603,115.734v-27.307c0-4.353,3.529-7.881,7.881-7.881  v-15.763C499.766,294.628,496.237,291.102,496.237,286.748z M454.392,172.875c-6.762,6.761-15.754,10.486-25.317,10.486  c-6.879,0-13.455-1.936-19.126-5.534L370.976,216.8c-1.538,1.537-3.556,2.307-5.573,2.307c-2.017,0-4.033-0.77-5.573-2.307  c-3.078-3.078-3.078-8.069,0-11.147l43.926-43.925l20.549-20.549l-12.197-9.428h-86.015c-4.353,0-7.881-3.528-7.881-7.881  s3.529-7.882,7.881-7.882H414.8c1.744,0,3.44,0.579,4.82,1.646l15.922,12.308l5.397-5.396v-23.794c0-4.353,3.529-7.882,7.881-7.882  s7.881,3.529,7.881,7.882v24.031C468.299,138.836,467.534,159.733,454.392,172.875z"/>
<path d="M511.18,363.791c0.079-0.157,0.156-0.315,0.224-0.479c0.044-0.106,0.078-0.211,0.116-0.319  c0.049-0.134,0.1-0.268,0.141-0.404c0.04-0.135,0.071-0.272,0.104-0.407c0.028-0.114,0.059-0.224,0.082-0.338  c0.033-0.168,0.055-0.337,0.078-0.507c0.012-0.087,0.028-0.172,0.036-0.259c0.021-0.216,0.03-0.433,0.033-0.649  c0-0.041,0.006-0.083,0.006-0.124v-0.024c0-0.01,0-0.019,0-0.029v-41.98c0-4.353-3.529-7.881-7.881-7.881s-7.881,3.528-7.881,7.881  v27.307L322.634,229.844c4.066-8.193,6.365-17.412,6.365-27.161c0-33.809-27.506-61.316-61.315-61.316  c-18.409,0-34.936,8.167-46.185,21.054L57.279,52.941h438.958v233.807c0,4.354,3.529,7.881,7.881,7.881s7.881-3.527,7.881-7.881  V45.06c0-4.354-3.529-7.882-7.881-7.882H31.25c-0.003,0-0.006,0-0.01,0c-0.264,0.002-0.529,0.014-0.791,0.04  c-0.093,0.01-0.184,0.029-0.277,0.041c-0.159,0.022-0.32,0.04-0.477,0.073c-0.169,0.033-0.334,0.079-0.499,0.124  c-0.081,0.022-0.163,0.037-0.242,0.063c-0.155,0.048-0.306,0.106-0.457,0.161c-0.089,0.033-0.18,0.062-0.268,0.098  c-0.126,0.053-0.248,0.114-0.372,0.174c-0.11,0.052-0.221,0.101-0.329,0.157c-0.092,0.05-0.182,0.108-0.273,0.161  c-0.132,0.076-0.264,0.153-0.392,0.239c-0.065,0.044-0.124,0.091-0.186,0.136c-0.146,0.104-0.291,0.207-0.43,0.322  c-0.049,0.04-0.095,0.086-0.142,0.127c-0.143,0.124-0.288,0.249-0.423,0.385c-0.088,0.087-0.167,0.182-0.25,0.273  c-0.088,0.098-0.18,0.189-0.263,0.29c-0.168,0.203-0.325,0.415-0.472,0.636c-0.001,0.003-0.003,0.005-0.005,0.006  c-0.017,0.025-0.03,0.053-0.046,0.078c-0.125,0.192-0.243,0.388-0.352,0.591c-0.038,0.071-0.069,0.146-0.105,0.219  c-0.079,0.157-0.156,0.315-0.224,0.479c-0.044,0.106-0.078,0.211-0.116,0.318c-0.049,0.135-0.1,0.268-0.141,0.405  c-0.04,0.135-0.071,0.272-0.104,0.407c-0.028,0.113-0.059,0.224-0.082,0.338c-0.033,0.168-0.055,0.336-0.078,0.507  c-0.011,0.087-0.028,0.171-0.036,0.259c-0.021,0.216-0.03,0.433-0.033,0.649c0,0.041-0.006,0.083-0.006,0.124v0.023  c0,0.01,0,0.02,0,0.03v315.191c0,4.353,3.529,7.882,7.881,7.882h472.847c0.004,0,0.01,0,0.014,0c0.022,0,0.045-0.004,0.067-0.004  c0.279-0.001,0.555-0.019,0.826-0.05c0.08-0.009,0.157-0.023,0.236-0.035c0.221-0.031,0.439-0.07,0.653-0.12  c0.084-0.019,0.167-0.041,0.251-0.064c0.209-0.056,0.415-0.119,0.618-0.192c0.082-0.029,0.163-0.058,0.243-0.089  c0.214-0.085,0.422-0.178,0.626-0.28c0.063-0.031,0.126-0.058,0.187-0.091c0.255-0.135,0.501-0.285,0.738-0.445  c0.072-0.049,0.139-0.106,0.21-0.157c0.166-0.121,0.328-0.246,0.484-0.38c0.085-0.072,0.167-0.15,0.25-0.227  c0.148-0.138,0.288-0.281,0.424-0.43c0.065-0.07,0.131-0.138,0.192-0.211c0.198-0.233,0.383-0.473,0.553-0.727  c0.001-0.002,0.003-0.004,0.004-0.006c0.017-0.024,0.03-0.052,0.046-0.078c0.125-0.192,0.243-0.387,0.352-0.59  C511.113,363.936,511.144,363.863,511.18,363.791z M39.132,59.785L212.735,175.52c-4.066,8.193-6.365,17.412-6.365,27.161  c0,33.809,27.506,61.316,61.315,61.316c18.41,0,34.936-8.167,46.185-21.054l164.22,109.479H39.132V59.785z M267.685,157.13  c25.118,0,45.552,20.434,45.552,45.553s-20.434,45.551-45.552,45.551s-45.552-20.433-45.552-45.552S242.567,157.13,267.685,157.13z"/>
<path style="fill:#FFE000;" d="M447.677,140.1l-5.848,5.847c-0.002,0.002-0.005,0.005-0.007,0.008l-20.214,20.213  c2.343,0.94,4.867,1.432,7.466,1.432c5.354,0,10.387-2.085,14.172-5.87C449.083,155.892,450.56,147.32,447.677,140.1z"/>
<path d="M456.7,100.754c0-4.353-3.529-7.882-7.881-7.882s-7.881,3.529-7.881,7.882v23.794l-5.397,5.396l-15.922-12.308  c-1.38-1.068-3.076-1.646-4.82-1.646h-88.706c-4.353,0-7.881,3.529-7.881,7.882c0,4.353,3.529,7.881,7.881,7.881h86.015  l12.197,9.428l-20.549,20.549l-43.926,43.925c-3.078,3.078-3.078,8.069,0,11.147c1.539,1.537,3.555,2.307,5.573,2.307  c2.016,0,4.034-0.77,5.573-2.307l38.973-38.973c5.669,3.598,12.247,5.534,19.126,5.534c9.563,0,18.555-3.725,25.317-10.486  c13.142-13.142,13.908-34.039,2.308-48.091v-24.032H456.7z M429.074,167.599c-2.6,0-5.124-0.492-7.466-1.432l20.214-20.213  c0.002-0.003,0.005-0.006,0.007-0.008l5.848-5.847c2.883,7.221,1.406,15.792-4.431,21.629  C439.461,165.514,434.428,167.599,429.074,167.599z"/>
<path style="fill:#FFE000;" d="M222.133,202.683c0,25.118,20.434,45.552,45.552,45.552s45.552-20.433,45.552-45.552  s-20.434-45.553-45.552-45.553S222.133,177.564,222.133,202.683z M297.475,202.683c0,16.425-13.364,29.791-29.791,29.791  c-16.427,0-29.791-13.365-29.791-29.791c0-16.426,13.364-29.791,29.791-29.791C284.111,172.892,297.475,186.256,297.475,202.683z"/>
<path style="fill:#259245;" d="M237.894,202.683c0,16.425,13.364,29.791,29.791,29.791s29.791-13.365,29.791-29.791  c0-16.426-13.364-29.791-29.791-29.791C251.258,172.892,237.894,186.256,237.894,202.683z"/>
<path style="fill:#2E3033;" d="M21.536,488.1c-6.603,0-11.976-5.373-11.976-11.976V35.766c0-6.542,5.323-11.865,11.865-11.865h1.565  c6.604,0,11.976,5.373,11.976,11.976v440.247c0,6.604-5.373,11.976-11.976,11.976h-1.454V488.1z"/>
<path d="M22.99,14.34h-1.565C9.611,14.34,0,23.951,0,35.766v440.358C0,488,9.661,497.66,21.536,497.66h1.453  c11.876,0,21.536-9.661,21.536-21.536V35.876C44.526,24.001,34.865,14.34,22.99,14.34z M28.592,476.124  c0,3.089-2.513,5.602-5.602,5.602h-1.453c-3.089,0-5.602-2.513-5.602-5.602V35.766c0-3.028,2.463-5.492,5.492-5.492h1.565  c3.089,0,5.602,2.513,5.602,5.602v440.248H28.592z"/>
<g>
</g>
<g>
</g>
<g>
</g>
<g>
</g>
<g>
</g>
<g>
</g>
<g>
</g>
<g>
</g>
<g>
</g>
<g>
</g>
<g>
</g>
<g>
</g>
<g>
</g>
<g>
</g>
<g>
</g>
</svg>
