<?xml version="1.0" encoding="iso-8859-1"?>
<!-- Generator: Adobe Illustrator 19.0.0, SVG Export Plug-In . SVG Version: 6.00 Build 0)  -->
<svg xmlns="http://www.w3.org/2000/svg" xmlns:xlink="http://www.w3.org/1999/xlink" version="1.1" id="Layer_1" x="0px" y="0px" viewBox="0 0 512 512" style="enable-background:new 0 0 512 512;" xml:space="preserve">
<path style="fill:#ED1F34;" d="M496.744,295.931V59.465H54.324v289.862h442.419v-22.885c0-4.213,3.414-7.628,7.628-7.628v-15.255  C500.158,303.559,496.744,300.144,496.744,295.931z M179.608,160.491l-20.923,16.918l6.983,25.986  c0.819,3.051-0.327,6.292-2.884,8.15c-1.333,0.969-2.908,1.458-4.484,1.458c-1.446,0-2.892-0.409-4.159-1.234l-22.556-14.672  l-22.556,14.672c-2.647,1.723-6.086,1.635-8.642-0.224c-2.557-1.858-3.703-5.098-2.884-8.15l6.983-25.986l-20.923-16.918  c-2.457-1.986-3.435-5.283-2.458-8.289c0.977-3.006,3.705-5.098,6.861-5.261l26.872-1.389l9.623-25.126  c1.131-2.951,3.963-4.9,7.124-4.9c3.16,0,5.993,1.949,7.124,4.9l9.623,25.126l26.872,1.389c3.156,0.162,5.885,2.255,6.861,5.261  C183.044,155.208,182.065,158.505,179.608,160.491z M205.078,242.585c-4.113,4.115-10.784,4.115-14.898,0s-4.115-10.783,0-14.897  c4.113-4.116,10.784-4.116,14.898,0C209.192,231.802,209.192,238.471,205.078,242.585z M205.078,110.503  c-4.113,4.115-10.784,4.115-14.898,0c-4.115-4.115-4.115-10.784,0-14.897c4.113-4.116,10.784-4.116,14.898,0  C209.192,99.719,209.192,106.388,205.078,110.503z M231.975,195.994c-1.506,5.619-7.281,8.953-12.9,7.448  c-5.619-1.507-8.953-7.281-7.448-12.9c1.505-5.619,7.281-8.953,12.899-7.448C230.146,184.601,233.48,190.376,231.975,195.994z   M224.527,155.095c-5.619,1.505-11.394-1.829-12.899-7.448c-1.505-5.619,1.829-11.394,7.448-12.899  c5.619-1.506,11.394,1.829,12.9,7.447C233.48,147.814,230.146,153.591,224.527,155.095z"/>
<path d="M496.744,326.442v22.885H54.324V59.465h442.419v236.466c0,4.213,3.414,7.629,7.628,7.629c4.214,0,7.629-3.415,7.629-7.629  V51.836c0-4.213-3.414-7.628-7.629-7.628H46.696c-4.212,0-7.628,3.414-7.628,7.628v305.117c0,4.213,3.415,7.629,7.628,7.629h457.676  c4.214,0,7.629-3.415,7.629-7.629v-30.512c0-4.213-3.414-7.628-7.629-7.628C500.158,318.815,496.744,322.229,496.744,326.442z"/>
<path style="fill:#FFE000;" d="M135.862,155.644l-4.275-11.162l-4.275,11.162c-1.08,2.817-3.718,4.733-6.73,4.89l-11.937,0.617  l9.295,7.517c2.346,1.897,3.354,4.998,2.57,7.91l-3.103,11.544l10.02-6.517c1.265-0.824,2.711-1.234,4.159-1.234  c1.448,0,2.894,0.41,4.159,1.234l10.02,6.517l-3.103-11.544c-0.782-2.913,0.225-6.014,2.57-7.91l9.295-7.517l-11.937-0.617  C139.58,160.376,136.941,158.461,135.862,155.644z"/>
<path d="M175.206,146.942l-26.872-1.389l-9.623-25.126c-1.131-2.951-3.963-4.9-7.124-4.9c-3.16,0-5.993,1.949-7.124,4.9  l-9.623,25.126l-26.872,1.389c-3.155,0.162-5.884,2.255-6.861,5.261c-0.977,3.005,0.001,6.302,2.458,8.289l20.923,16.918  l-6.983,25.986c-0.819,3.051,0.327,6.292,2.884,8.15c2.556,1.859,5.995,1.947,8.642,0.224l22.556-14.672l22.556,14.672  c1.267,0.825,2.713,1.234,4.159,1.234c1.576,0,3.149-0.488,4.484-1.458c2.557-1.858,3.703-5.098,2.884-8.15l-6.983-25.986  l20.923-16.918c2.457-1.986,3.435-5.283,2.458-8.289C181.091,149.197,178.362,147.104,175.206,146.942z M145.235,168.666  c-2.346,1.897-3.354,4.998-2.57,7.91l3.103,11.544l-10.02-6.517c-1.265-0.824-2.711-1.234-4.159-1.234  c-1.448,0-2.894,0.41-4.159,1.234l-10.02,6.517l3.103-11.544c0.782-2.913-0.225-6.014-2.57-7.91l-9.295-7.517l11.937-0.617  c3.012-0.156,5.651-2.073,6.73-4.89l4.275-11.162l4.275,11.162c1.08,2.817,3.718,4.733,6.73,4.89l11.937,0.617L145.235,168.666z"/>
<g>
	<circle style="fill:#FFE000;" cx="221.805" cy="144.923" r="10.532"/>
	<circle style="fill:#FFE000;" cx="197.624" cy="103.058" r="10.534"/>
	<circle style="fill:#FFE000;" cx="221.805" cy="193.265" r="10.533"/>
	<circle style="fill:#FFE000;" cx="197.624" cy="235.14" r="10.534"/>
</g>
<path style="fill:#2E3033;" d="M20.844,480.643c-6.391,0-11.591-5.2-11.591-11.591V42.841c0-6.332,5.152-11.484,11.484-11.484h1.514  c6.392,0,11.591,5.2,11.591,11.591v426.102c0,6.392-5.2,11.591-11.591,11.591h-1.407V480.643z"/>
<path d="M22.251,22.104h-1.514C9.302,22.104,0,31.407,0,42.841v426.21c0,11.494,9.351,20.844,20.844,20.844h1.406  c11.494,0,20.844-9.351,20.844-20.844V42.948C43.095,31.455,33.745,22.104,22.251,22.104z M27.674,469.052  c0,2.99-2.433,5.422-5.422,5.422h-1.406c-2.99,0-5.422-2.432-5.422-5.422V42.841c0-2.931,2.384-5.315,5.315-5.315h1.514  c2.99,0,5.422,2.433,5.422,5.422v426.103H27.674z"/>
<g>
</g>
<g>
</g>
<g>
</g>
<g>
</g>
<g>
</g>
<g>
</g>
<g>
</g>
<g>
</g>
<g>
</g>
<g>
</g>
<g>
</g>
<g>
</g>
<g>
</g>
<g>
</g>
<g>
</g>
</svg>
