<?xml version="1.0" encoding="iso-8859-1"?>
<!-- Generator: Adobe Illustrator 19.0.0, SVG Export Plug-In . SVG Version: 6.00 Build 0)  -->
<svg xmlns="http://www.w3.org/2000/svg" xmlns:xlink="http://www.w3.org/1999/xlink" version="1.1" id="Layer_1" x="0px" y="0px" viewBox="0 0 512 512" style="enable-background:new 0 0 512 512;" xml:space="preserve">
<path style="fill:#ED1F34;" d="M470.776,212.024c-4.214,0-7.628-3.414-7.628-7.628h-15.256c0,4.213-3.414,7.628-7.629,7.628H51.24  v137.303h442.419V212.024H470.776z"/>
<path style="fill:#FFFFFF;" d="M470.776,196.767h22.884V59.465H203.799v137.302h236.466c4.214,0,7.629,3.415,7.629,7.629h15.256  C463.148,200.183,466.563,196.767,470.776,196.767z"/>
<path style="fill:#164FCE;" d="M51.24,196.767h137.302V59.465H51.24V196.767z M78.415,118.077c0.977-3.005,3.705-5.098,6.861-5.261  l20.241-1.047l7.25-18.928c1.13-2.95,3.963-4.9,7.123-4.9c3.16,0,5.994,1.949,7.124,4.9l7.249,18.928l20.241,1.047  c3.155,0.162,5.884,2.256,6.861,5.261c0.977,3.006-0.001,6.302-2.459,8.29l-15.761,12.743l5.261,19.574  c0.819,3.05-0.327,6.293-2.884,8.151c-1.333,0.968-2.908,1.456-4.484,1.456c-1.445,0-2.892-0.408-4.159-1.233l-16.991-11.052  l-16.991,11.052c-2.648,1.725-6.085,1.635-8.642-0.223c-2.556-1.858-3.703-5.1-2.884-8.151l5.261-19.574l-15.761-12.743  C78.416,124.379,77.438,121.082,78.415,118.077z"/>
<path d="M504.371,44.209H46.696c-4.212,0-7.628,3.414-7.628,7.629v305.116c0,4.213,3.415,7.629,7.628,7.629h457.676  c4.214,0,7.629-3.415,7.629-7.629V51.837C512,47.623,508.586,44.209,504.371,44.209z M188.542,196.767H51.24V59.465h137.302  L188.542,196.767L188.542,196.767z M51.24,349.326V212.024h389.024c4.214,0,7.629-3.414,7.629-7.628s-3.414-7.629-7.629-7.629  H203.799V59.465H493.66v137.302h-22.884c-4.214,0-7.628,3.415-7.628,7.629s3.413,7.628,7.628,7.628h22.884v137.303H51.24V349.326z"/>
<path style="fill:#FFFFFF;" d="M110.085,130.366c2.346,1.896,3.354,4.997,2.571,7.909l-1.38,5.133l4.455-2.898  c1.265-0.821,2.712-1.233,4.159-1.233c1.448,0,2.895,0.411,4.159,1.233l4.455,2.898l-1.38-5.133  c-0.782-2.913,0.225-6.014,2.571-7.909l4.133-3.341l-5.308-0.276c-3.012-0.155-5.651-2.073-6.729-4.89l-1.901-4.963l-1.901,4.963  c-1.078,2.817-3.717,4.733-6.729,4.89l-5.307,0.276L110.085,130.366z"/>
<path d="M80.874,126.365l15.761,12.743l-5.261,19.574c-0.819,3.05,0.327,6.293,2.884,8.151c2.557,1.858,5.994,1.948,8.642,0.223  l16.991-11.052l16.991,11.052c1.267,0.825,2.714,1.233,4.159,1.233c1.576,0,3.15-0.487,4.484-1.456  c2.557-1.858,3.703-5.1,2.884-8.151l-5.261-19.574l15.761-12.743c2.458-1.987,3.436-5.283,2.459-8.29  c-0.977-3.005-3.705-5.098-6.861-5.261l-20.241-1.047l-7.249-18.928c-1.13-2.95-3.963-4.9-7.124-4.9c-3.159,0-5.993,1.949-7.123,4.9  l-7.25,18.928l-20.241,1.047c-3.156,0.162-5.885,2.256-6.861,5.261C77.438,121.082,78.416,124.379,80.874,126.365z M117.99,121.859  l1.901-4.963l1.901,4.963c1.08,2.817,3.718,4.733,6.729,4.89l5.308,0.276l-4.133,3.341c-2.346,1.896-3.354,4.997-2.571,7.909  l1.38,5.133l-4.455-2.898c-1.264-0.821-2.711-1.233-4.159-1.233s-2.894,0.411-4.159,1.233l-4.455,2.898l1.38-5.133  c0.782-2.913-0.225-6.014-2.571-7.909l-4.132-3.341l5.307-0.276C114.273,126.594,116.911,124.677,117.99,121.859z"/>
<path style="fill:#2E3033;" d="M20.844,480.643c-6.391,0-11.591-5.2-11.591-11.591V42.841c0-6.332,5.152-11.484,11.484-11.484h1.514  c6.392,0,11.591,5.2,11.591,11.591v426.102c0,6.392-5.2,11.591-11.591,11.591h-1.407V480.643z"/>
<path d="M22.251,22.104h-1.514C9.302,22.104,0,31.407,0,42.841v426.21c0,11.494,9.351,20.844,20.844,20.844h1.406  c11.494,0,20.844-9.351,20.844-20.844V42.948C43.095,31.455,33.745,22.104,22.251,22.104z M27.674,469.052  c0,2.99-2.433,5.422-5.422,5.422h-1.406c-2.99,0-5.422-2.432-5.422-5.422V42.841c0-2.931,2.384-5.315,5.315-5.315h1.514  c2.99,0,5.422,2.433,5.422,5.422v426.103H27.674z"/>
<g>
</g>
<g>
</g>
<g>
</g>
<g>
</g>
<g>
</g>
<g>
</g>
<g>
</g>
<g>
</g>
<g>
</g>
<g>
</g>
<g>
</g>
<g>
</g>
<g>
</g>
<g>
</g>
<g>
</g>
</svg>
