<?xml version="1.0" encoding="iso-8859-1"?>
<!-- Generator: Adobe Illustrator 19.0.0, SVG Export Plug-In . SVG Version: 6.00 Build 0)  -->
<svg xmlns="http://www.w3.org/2000/svg" xmlns:xlink="http://www.w3.org/1999/xlink" version="1.1" id="Layer_1" x="0px" y="0px" viewBox="0 0 512 512" style="enable-background:new 0 0 512 512;" xml:space="preserve">
<path style="fill:#FFE000;" d="M343.172,296.167V58.273H205.041v291.61h138.131v-23.021c0-4.239,3.435-7.674,7.674-7.674V303.84  C346.609,303.839,343.172,300.404,343.172,296.167z"/>
<path style="fill:#ED1F34;" d="M358.52,296.167c0,4.238-3.435,7.674-7.674,7.674v15.348c4.239,0,7.674,3.436,7.674,7.674v23.021  h138.132V58.273H358.52V296.167z"/>
<rect x="51.562" y="58.275" style="fill:#103B9B;" width="138.126" height="291.612"/>
<path d="M504.326,42.925H43.888c-4.239,0-7.674,3.436-7.674,7.674v306.959c0,4.238,3.435,7.674,7.674,7.674h460.438  c4.239,0,7.674-3.436,7.674-7.674V50.599C512,46.361,508.565,42.925,504.326,42.925z M496.652,349.884H358.52v-23.021  c0-4.239-3.435-7.674-7.674-7.674s-7.674,3.436-7.674,7.674v23.021H205.041V58.273h138.131v237.893c0,4.238,3.435,7.674,7.674,7.674  s7.674-3.436,7.674-7.674V58.273h138.132L496.652,349.884L496.652,349.884z M51.562,58.273h138.131v291.61H51.562V58.273z"/>
<path style="fill:#2E3033;" d="M20.97,482.004c-6.429,0-11.661-5.232-11.661-11.661V41.55c0-6.371,5.183-11.554,11.554-11.554h1.524  c6.431,0,11.661,5.232,11.661,11.661v428.685c0,6.431-5.232,11.661-11.661,11.661H20.97V482.004z"/>
<path d="M22.386,20.687h-1.524C9.359,20.687,0,30.046,0,41.55v428.793c0,11.563,9.407,20.97,20.97,20.97h1.415  c11.564,0,20.97-9.407,20.97-20.97V41.657C43.357,30.094,33.949,20.687,22.386,20.687z M27.841,470.343  c0,3.008-2.447,5.455-5.455,5.455h-1.415c-3.008,0-5.455-2.447-5.455-5.455V41.55c0-2.949,2.399-5.348,5.348-5.348h1.524  c3.008,0,5.455,2.447,5.455,5.455v428.686H27.841z"/>
<g>
</g>
<g>
</g>
<g>
</g>
<g>
</g>
<g>
</g>
<g>
</g>
<g>
</g>
<g>
</g>
<g>
</g>
<g>
</g>
<g>
</g>
<g>
</g>
<g>
</g>
<g>
</g>
<g>
</g>
</svg>
