<?xml version="1.0" encoding="iso-8859-1"?>
<!-- Generator: Adobe Illustrator 19.0.0, SVG Export Plug-In . SVG Version: 6.00 Build 0)  -->
<svg xmlns="http://www.w3.org/2000/svg" xmlns:xlink="http://www.w3.org/1999/xlink" version="1.1" id="Layer_1" x="0px" y="0px" viewBox="0 0 511.999 511.999" style="enable-background:new 0 0 511.999 511.999;" xml:space="preserve">
<g>
	<path style="fill:#FFFFFF;" d="M496.237,297.256v-94.573H322.511v36.551l169.786,113.19h3.94V328.78   c0-4.353,3.529-7.881,7.881-7.881v-15.763C499.766,305.137,496.237,301.609,496.237,297.256z"/>
	<path style="fill:#FFFFFF;" d="M212.858,251.887v-12.653L43.072,352.422h224.613v-45.709   C237.453,306.713,212.858,282.118,212.858,251.887z"/>
	<path style="fill:#FFFFFF;" d="M212.858,179.564c0-4.353,3.529-7.882,7.881-7.882h0.446L43.072,52.94h-3.94v149.742h173.726   V179.564z"/>
	<path style="fill:#FFFFFF;" d="M275.565,106.533v3.504l24.878,7.077v-3.401c0-4.354,3.528-7.881,7.881-7.881   c4.353,0,7.881,3.527,7.881,7.881v13.836v22.067c0,4.353-3.529,7.882-7.881,7.882h-40.639v14.185h46.499L492.298,52.94H267.685   v45.71C272.038,98.651,275.565,102.179,275.565,106.533z"/>
</g>
<g>
	<path style="fill:#333333;" d="M492.298,52.94L314.183,171.682h0.446c4.353,0,7.881,3.529,7.881,7.882v23.119h173.726V52.94   H492.298z"/>
	<path style="fill:#333333;" d="M267.685,306.713v45.709h224.613L322.511,239.233v12.653   C322.511,282.118,297.915,306.713,267.685,306.713z"/>
	<polygon style="fill:#333333;" points="212.858,202.682 39.132,202.682 39.132,352.422 43.072,352.422 212.858,239.233  "/>
	<path style="fill:#333333;" d="M267.685,171.682v-14.184h-40.64c-4.353,0-7.881-3.529-7.881-7.882v-22.067v-13.837   c0-4.354,3.529-7.881,7.881-7.881c4.352,0,7.881,3.527,7.881,7.881v3.401l24.878-7.077v-3.504c0-4.354,3.529-7.882,7.881-7.882   V52.94H43.072l178.114,118.742H267.685z"/>
</g>
<path d="M496.237,328.78v23.643h-3.94H267.685H43.072h-3.94V202.682V52.94h3.94h224.613h224.613h3.94v149.742v94.573  c0,4.353,3.529,7.881,7.881,7.881s7.881-3.528,7.881-7.881V45.06c0-4.354-3.529-7.882-7.881-7.882H31.25  c-4.352,0-7.881,3.528-7.881,7.882v315.244c0,4.353,3.529,7.882,7.881,7.882h472.868c4.353,0,7.881-3.529,7.881-7.882v-31.525  c0-4.353-3.529-7.881-7.881-7.881S496.237,324.427,496.237,328.78z"/>
<path style="fill:#ED1F34;" d="M306.749,187.446h-78.128v64.441c0,21.54,17.525,39.064,39.064,39.064  c21.54,0,39.064-17.524,39.064-39.064V187.446z M267.685,272.562c-11.4,0-20.674-9.275-20.674-20.675v-46.052h41.35v46.052  C288.359,263.285,279.085,272.562,267.685,272.562z"/>
<path style="fill:#FFFFFF;" d="M288.359,205.834h-41.35v46.052c0,11.399,9.274,20.675,20.674,20.675  c11.4,0,20.674-9.275,20.674-20.675v-46.052H288.359z"/>
<path d="M314.629,171.682h-0.446h-46.499h-46.499h-0.446c-4.353,0-7.881,3.529-7.881,7.882v23.119v36.551v12.653  c0,30.231,24.595,54.826,54.827,54.826c30.23,0,54.826-24.595,54.826-54.826v-12.653v-36.551v-23.119  C322.511,175.211,318.982,171.682,314.629,171.682z M267.685,290.95c-21.539,0-39.064-17.524-39.064-39.064v-64.441h78.128v64.441  C306.749,273.427,289.225,290.95,267.685,290.95z"/>
<polygon style="fill:#F2A643;" points="300.444,141.734 300.444,133.5 267.685,124.184 234.926,133.5 234.926,141.734 "/>
<path d="M316.206,149.616v-22.067v-13.837c0-4.354-3.529-7.881-7.881-7.881s-7.881,3.527-7.881,7.881v3.401l-24.878-7.077v-3.504  c0-4.354-3.529-7.882-7.881-7.882s-7.881,3.528-7.881,7.882v3.504l-24.878,7.077v-3.401c0-4.354-3.529-7.881-7.881-7.881  c-4.352,0-7.881,3.527-7.881,7.881v13.836v22.067c0,4.353,3.529,7.882,7.881,7.882h40.638h40.64  C312.677,157.498,316.206,153.968,316.206,149.616z M234.926,133.5l32.758-9.316l32.759,9.316v8.234h-65.518V133.5z"/>
<path style="fill:#2E3033;" d="M21.536,488.099c-6.603,0-11.976-5.373-11.976-11.976V35.765c0-6.542,5.323-11.865,11.865-11.865  h1.565c6.604,0,11.976,5.373,11.976,11.976v440.247c0,6.604-5.373,11.976-11.976,11.976h-1.454V488.099z"/>
<path d="M22.99,14.34h-1.565C9.611,14.34,0,23.951,0,35.765v440.358c0,11.876,9.661,21.536,21.536,21.536h1.453  c11.876,0,21.536-9.661,21.536-21.536V35.876C44.526,24.001,34.865,14.34,22.99,14.34z M28.592,476.123  c0,3.089-2.513,5.602-5.602,5.602h-1.453c-3.089,0-5.602-2.513-5.602-5.602V35.765c0-3.028,2.463-5.492,5.492-5.492h1.565  c3.089,0,5.602,2.513,5.602,5.602v440.248H28.592z"/>
<g>
</g>
<g>
</g>
<g>
</g>
<g>
</g>
<g>
</g>
<g>
</g>
<g>
</g>
<g>
</g>
<g>
</g>
<g>
</g>
<g>
</g>
<g>
</g>
<g>
</g>
<g>
</g>
<g>
</g>
</svg>
