<?xml version="1.0" encoding="iso-8859-1"?>
<!-- Generator: Adobe Illustrator 19.0.0, SVG Export Plug-In . SVG Version: 6.00 Build 0)  -->
<svg xmlns="http://www.w3.org/2000/svg" xmlns:xlink="http://www.w3.org/1999/xlink" version="1.1" id="Layer_1" x="0px" y="0px" viewBox="0 0 511.999 511.999" style="enable-background:new 0 0 511.999 511.999;" xml:space="preserve">
<g>
	<rect x="51.551" y="211.761" style="fill:#259245;" width="176.511" height="61.388"/>
	<path style="fill:#259245;" d="M473.629,273.149h23.022v-61.392H320.147v61.392h122.786c4.238,0,7.674,3.436,7.674,7.675h15.349   C465.955,276.585,469.391,273.149,473.629,273.149z"/>
</g>
<g>
	<rect x="320.15" y="58.274" style="fill:#164FCE;" width="176.511" height="61.388"/>
	<path style="fill:#164FCE;" d="M51.551,119.666h176.506V58.273H51.551V119.666z M102.712,73.622   c8.476,0,15.348,6.872,15.348,15.348c0,8.476-6.872,15.35-15.348,15.35c-8.476,0-15.349-6.873-15.349-15.35   C87.364,80.493,94.235,73.622,102.712,73.622z"/>
</g>
<g>
	<path style="fill:#FFE000;" d="M473.629,288.498c-4.239,0-7.674-3.435-7.674-7.674h-15.349c0,4.239-3.436,7.674-7.674,7.674   H320.147v61.392h176.506v-61.392H473.629z"/>
	<rect x="51.551" y="288.499" style="fill:#FFE000;" width="176.511" height="61.388"/>
</g>
<g>
	<rect x="320.15" y="135.012" style="fill:#FFFFFF;" width="176.511" height="61.388"/>
	<rect x="51.551" y="135.012" style="fill:#FFFFFF;" width="176.511" height="61.388"/>
</g>
<rect x="243.402" y="58.274" style="fill:#ED1F34;" width="61.388" height="291.623"/>
<path d="M504.326,42.925H43.877c-4.239,0-7.675,3.435-7.675,7.675v306.965c0,4.239,3.436,7.675,7.674,7.675h460.449  c4.239,0,7.674-3.436,7.674-7.675V50.6C512,46.36,508.564,42.925,504.326,42.925z M320.147,196.408v-61.392h176.506v61.392H320.147z   M496.651,119.666H320.147V58.273h176.506v61.392H496.651z M304.798,349.89h-61.393V58.273h61.393V349.89z M228.056,196.408H51.551  v-61.392h176.506L228.056,196.408L228.056,196.408z M228.056,211.757v61.392H51.551v-61.392L228.056,211.757L228.056,211.757z   M51.551,288.498h176.506v61.392H51.551V288.498z M228.056,119.666H51.551V58.273h176.506L228.056,119.666L228.056,119.666z   M320.147,349.89v-61.392h122.786c4.238,0,7.674-3.435,7.674-7.674c0-4.239-3.436-7.675-7.674-7.675H320.147v-61.392h176.506v61.392  H473.63c-4.239,0-7.674,3.436-7.674,7.675c0,4.239,3.436,7.674,7.674,7.674h23.022v61.392H320.147z"/>
<circle style="fill:#FFE000;" cx="102.71" cy="88.974" r="15.349"/>
<path style="fill:#2E3033;" d="M20.97,482.004c-6.429,0-11.661-5.232-11.661-11.661V41.549c0-6.371,5.183-11.554,11.554-11.554  h1.524c6.431,0,11.661,5.232,11.661,11.661v428.685c0,6.431-5.232,11.661-11.661,11.661H20.97V482.004z"/>
<path d="M22.386,20.686h-1.524C9.359,20.686,0,30.045,0,41.549v428.793c0,11.563,9.407,20.97,20.97,20.97h1.415  c11.564,0,20.97-9.407,20.97-20.97V41.657C43.357,30.094,33.949,20.686,22.386,20.686z M27.841,470.342  c0,3.008-2.447,5.455-5.455,5.455h-1.415c-3.008,0-5.455-2.447-5.455-5.455V41.549c0-2.949,2.399-5.348,5.348-5.348h1.524  c3.008,0,5.455,2.447,5.455,5.455v428.686H27.841z"/>
<g>
</g>
<g>
</g>
<g>
</g>
<g>
</g>
<g>
</g>
<g>
</g>
<g>
</g>
<g>
</g>
<g>
</g>
<g>
</g>
<g>
</g>
<g>
</g>
<g>
</g>
<g>
</g>
<g>
</g>
</svg>
