<?xml version="1.0" encoding="iso-8859-1"?>
<!-- Generator: Adobe Illustrator 19.0.0, SVG Export Plug-In . SVG Version: 6.00 Build 0)  -->
<svg xmlns="http://www.w3.org/2000/svg" xmlns:xlink="http://www.w3.org/1999/xlink" version="1.1" id="Layer_1" x="0px" y="0px" viewBox="0 0 512 512" style="enable-background:new 0 0 512 512;" xml:space="preserve">
<g>
	<path style="fill:#103B9B;" d="M39.132,328.78v23.643h457.106V52.941H267.685v17.693l-47.937,31.958h47.937v9.851v22.856v9.851   h-47.937l47.937,31.958v8.889v16.686h-38.361l-58.577-39.051v39.051h-9.851h-22.856h-9.85v-39.051l-58.577,39.051H56.825H39.132   v94.573c0,4.353-3.528,7.881-7.882,7.881v15.762C35.604,320.9,39.132,324.427,39.132,328.78z M325.479,158.207   c0-4.352,3.529-7.881,7.882-7.881h13.803c3.145-15.485,15.372-27.711,30.857-30.856v-13.926c0-4.353,3.528-7.882,7.881-7.882   c4.354,0,7.881,3.529,7.881,7.882v13.926c15.485,3.145,27.712,15.371,30.857,30.856h13.804c4.353,0,7.881,3.529,7.881,7.881v47.65   c0,10.438-1.648,19.513-4.317,27.384c-0.1,0.358-0.216,0.715-0.37,1.065c-0.001,0.002-0.002,0.004-0.003,0.007   c-5.717,16.052-15.714,26.948-24.585,33.936c-14.307,11.269-28.654,14.904-29.257,15.054c-0.62,0.154-1.256,0.23-1.891,0.23   c-0.635,0-1.27-0.076-1.891-0.23c-0.603-0.15-14.949-3.785-29.256-15.054c-8.885-6.999-18.898-17.919-24.61-34.012   c-0.136-0.317-0.243-0.638-0.335-0.961c-2.678-7.879-4.33-16.966-4.33-27.42v-47.65H325.479z M299.502,278.732l6.949-24.762   c0.874-3.116,3.563-5.38,6.783-5.711c3.212-0.325,6.313,1.341,7.802,4.215c12.616,24.343,37.469,39.466,64.865,39.466   c27.395,0,52.249-15.123,64.866-39.466c1.489-2.873,4.587-4.539,7.802-4.215c3.219,0.331,5.909,2.595,6.783,5.711l6.948,24.762   c1.176,4.191-1.267,8.541-5.459,9.717c-4.191,1.173-8.541-1.268-9.716-5.459l-2.274-8.104   c-16.658,20.578-41.777,32.816-68.95,32.816c-27.173,0-52.293-12.238-68.949-32.816l-2.274,8.104   c-1.176,4.191-5.525,6.634-9.717,5.459C300.769,287.273,298.327,282.923,299.502,278.732z"/>
	<polygon style="fill:#103B9B;" points="39.132,145.151 39.132,171.854 79.188,145.151  "/>
	<polygon style="fill:#103B9B;" points="217.502,52.941 170.747,52.941 170.747,84.111  "/>
	<polygon style="fill:#103B9B;" points="128.189,52.941 81.434,52.941 128.189,84.111  "/>
	<polygon style="fill:#103B9B;" points="39.132,75.888 39.132,102.592 79.188,102.592  "/>
</g>
<g>
	<polygon style="fill:#ED1F34;" points="128.189,155.107 128.189,145.151 117.549,145.151 39.132,197.428 39.132,202.683    56.825,202.683  "/>
	<polygon style="fill:#ED1F34;" points="181.386,145.151 267.685,202.683 267.685,185.997 206.56,145.151  "/>
	<polygon style="fill:#ED1F34;" points="117.549,102.592 43.073,52.941 39.132,52.941 39.132,67.387 91.812,102.592  "/>
	<polygon style="fill:#ED1F34;" points="170.747,102.592 181.386,102.592 255.863,52.941 230.291,52.941 170.747,92.64  "/>
</g>
<g>
	<polygon style="fill:#FFFFFF;" points="138.039,112.442 138.039,52.941 128.189,52.941 128.189,84.111 81.434,52.941    43.073,52.941 117.549,102.592 91.812,102.592 39.132,67.387 39.132,75.888 79.188,102.592 39.132,102.592 39.132,112.442  "/>
	<polygon style="fill:#FFFFFF;" points="160.895,112.442 267.685,112.442 267.685,102.592 219.748,102.592 267.685,70.634    267.685,52.941 255.863,52.941 181.386,102.592 170.747,102.592 170.747,92.64 230.291,52.941 217.502,52.941 170.747,84.111    170.747,52.941 160.895,52.941  "/>
	<polygon style="fill:#FFFFFF;" points="160.895,135.299 160.895,202.683 170.747,202.683 170.747,163.631 229.324,202.683    267.685,202.683 181.386,145.151 206.56,145.151 267.685,185.997 267.685,177.107 219.748,145.151 267.685,145.151    267.685,135.299  "/>
	<polygon style="fill:#FFFFFF;" points="128.189,145.151 128.189,155.107 56.825,202.683 69.612,202.683 128.189,163.631    128.189,202.683 138.039,202.683 138.039,135.299 39.132,135.299 39.132,145.151 79.188,145.151 39.132,171.854 39.132,197.428    117.549,145.151  "/>
</g>
<g>
	<polygon style="fill:#ED1F34;" points="138.039,135.299 138.039,202.683 160.895,202.683 160.895,135.299 267.685,135.299    267.685,112.442 160.895,112.442 160.895,52.941 138.039,52.941 138.039,112.442 39.132,112.442 39.132,135.299  "/>
	<path style="fill:#ED1F34;" d="M351.696,184.35c10.343,0,15.981,2.706,20.512,4.881c3.873,1.859,6.933,3.328,13.69,3.328   c6.758,0,9.818-1.469,13.692-3.328c4.529-2.174,10.167-4.881,20.512-4.881c4.18,0,7.581,0.446,10.461,1.115v-19.377h-13.011   h-63.296h-13.012v19.375C344.12,184.795,347.52,184.35,351.696,184.35z"/>
</g>
<g>
	<path style="fill:#103B9B;" d="M406.409,239.545c-4.529,2.174-10.167,4.881-20.512,4.881c-10.343,0-15.98-2.706-20.511-4.88   c-3.873-1.86-6.933-3.328-13.691-3.328c-1.261,0-2.382,0.055-3.401,0.149c10.933,20.914,31.363,29.018,37.628,31.074   c6.437-2.066,26.823-10.064,37.679-31.065c-1.044-0.099-2.199-0.157-3.5-0.157C413.343,236.217,410.283,237.686,406.409,239.545z"/>
	<path style="fill:#103B9B;" d="M406.409,203.44c-4.529,2.174-10.167,4.881-20.512,4.881c-10.343,0-15.98-2.707-20.511-4.88   c-3.873-1.86-6.933-3.328-13.691-3.328c-4.82,0-7.759,0.75-10.455,1.854v3.891c0,5.585,0.577,10.693,1.597,15.366   c2.496-0.468,5.395-0.768,8.858-0.768c10.343,0,15.981,2.706,20.512,4.881c3.873,1.859,6.933,3.328,13.69,3.328   c6.758,0,9.818-1.468,13.692-3.328c4.529-2.174,10.167-4.881,20.512-4.881c3.477,0,6.388,0.302,8.891,0.774   c1.004-4.672,1.57-9.782,1.57-15.373v-3.889c-2.697-1.106-5.636-1.856-10.461-1.856C413.343,200.112,410.283,201.58,406.409,203.44   z"/>
</g>
<g>
	<path style="fill:#FFFFFF;" d="M441.637,234.306c0.154-0.352,0.27-0.709,0.37-1.065c-0.122,0.36-0.246,0.718-0.373,1.073   C441.635,234.31,441.636,234.308,441.637,234.306z"/>
	<path style="fill:#FFFFFF;" d="M330.144,234.238c-0.113-0.319-0.225-0.639-0.335-0.961   C329.901,233.599,330.008,233.92,330.144,234.238z"/>
	<path style="fill:#FFFFFF;" d="M399.589,225.335c-3.873,1.859-6.933,3.328-13.692,3.328c-6.756,0-9.816-1.468-13.69-3.328   c-4.53-2.174-10.168-4.881-20.512-4.881c-3.463,0-6.362,0.3-8.858,0.768c1.238,5.67,3.133,10.696,5.457,15.143   c1.02-0.092,2.141-0.149,3.401-0.149c6.757,0,9.817,1.468,13.691,3.328c4.53,2.174,10.167,4.88,20.511,4.88   c10.344,0,15.982-2.706,20.512-4.881c3.874-1.859,6.934-3.328,13.692-3.328c1.301,0,2.456,0.058,3.5,0.157   c2.298-4.445,4.17-9.468,5.391-15.145c-2.503-0.472-5.414-0.774-8.891-0.774C409.756,220.455,404.118,223.161,399.589,225.335z"/>
	<path style="fill:#FFFFFF;" d="M399.589,189.231c-3.873,1.859-6.933,3.328-13.692,3.328c-6.756,0-9.816-1.469-13.69-3.328   c-4.53-2.174-10.168-4.881-20.512-4.881c-4.177,0-7.576,0.445-10.455,1.114v16.502c2.696-1.105,5.634-1.854,10.455-1.854   c6.757,0,9.817,1.468,13.691,3.328c4.53,2.173,10.167,4.88,20.511,4.88c10.344,0,15.982-2.707,20.512-4.881   c3.874-1.86,6.934-3.328,13.692-3.328c4.825,0,7.764,0.75,10.461,1.856v-16.503c-2.88-0.669-6.281-1.115-10.461-1.115   C409.756,184.35,404.118,187.055,399.589,189.231z"/>
</g>
<path style="fill:#F2A643;" d="M393.782,119.47v-13.926c0-4.353-3.527-7.882-7.881-7.882c-4.353,0-7.881,3.529-7.881,7.882v13.926  c2.547-0.517,5.183-0.791,7.881-0.791C388.6,118.679,391.235,118.952,393.782,119.47z"/>
<path style="fill:#259245;" d="M408.324,150.326c-3.258-9.243-12.079-15.885-22.423-15.885c-10.343,0-19.165,6.642-22.423,15.885  H408.324z"/>
<path d="M330.144,234.238c5.712,16.093,15.725,27.013,24.61,34.012c14.307,11.269,28.653,14.904,29.256,15.054  c0.62,0.154,1.257,0.23,1.891,0.23c0.636,0,1.27-0.076,1.891-0.23c0.603-0.15,14.95-3.785,29.257-15.054  c8.871-6.988,18.867-17.885,24.585-33.936c0.125-0.355,0.25-0.713,0.373-1.073c2.67-7.87,4.317-16.946,4.317-27.384v-47.65  c0-4.352-3.528-7.881-7.881-7.881h-13.804c-3.145-15.485-15.372-27.711-30.857-30.856c-2.547-0.517-5.183-0.791-7.881-0.791  c-2.698,0-5.333,0.274-7.881,0.791c-15.485,3.145-27.712,15.371-30.857,30.856h-13.803c-4.353,0-7.882,3.529-7.882,7.881v47.65  c0,10.454,1.653,19.541,4.33,27.42C329.919,233.598,330.031,233.919,330.144,234.238z M385.901,134.44  c10.344,0,19.165,6.642,22.423,15.885h-44.847C366.736,141.083,375.558,134.44,385.901,134.44z M354.254,166.088h63.296h13.011  v19.377v16.503v3.889c0,5.59-0.565,10.7-1.57,15.373c-1.22,5.678-3.093,10.701-5.391,15.145  c-10.856,21.002-31.242,28.999-37.679,31.065c-6.264-2.055-26.695-10.159-37.628-31.074c-2.324-4.448-4.219-9.472-5.457-15.143  c-1.02-4.673-1.597-9.781-1.597-15.366v-3.891v-16.502v-19.375h13.014V166.088z"/>
<path style="fill:#F2A643;" d="M304.961,288.449c4.193,1.174,8.541-1.268,9.717-5.459l2.274-8.104  c16.657,20.578,41.776,32.816,68.949,32.816c27.173,0,52.293-12.238,68.95-32.816l2.274,8.104c1.175,4.191,5.526,6.633,9.716,5.459  c4.191-1.176,6.635-5.527,5.459-9.717l-6.948-24.762c-0.874-3.116-3.564-5.38-6.783-5.711c-3.214-0.325-6.312,1.342-7.802,4.215  c-12.616,24.343-37.471,39.466-64.866,39.466c-27.395,0-52.249-15.123-64.865-39.466c-1.488-2.874-4.589-4.539-7.802-4.215  c-3.22,0.331-5.909,2.595-6.783,5.711l-6.949,24.762C298.327,282.923,300.769,287.273,304.961,288.449z"/>
<path d="M504.118,37.178H31.25c-4.353,0-7.881,3.529-7.881,7.881v252.196c0,4.353,3.528,7.881,7.881,7.881  c4.354,0,7.882-3.529,7.882-7.881v-94.573v-5.254v-25.575V145.15v-9.851v-22.856v-9.851V75.888v-8.5V52.941h3.941h38.361h46.756  h9.85h22.856h9.851h46.756h12.788h25.572h11.822h228.553v299.484H39.132v-23.643c0-4.353-3.528-7.881-7.882-7.881  c-4.353,0-7.881,3.529-7.881,7.881v31.524c0,4.353,3.528,7.881,7.881,7.881h472.868c4.354,0,7.882-3.529,7.882-7.881V45.059  C512,40.707,508.472,37.178,504.118,37.178z"/>
<path style="fill:#2E3033;" d="M21.536,488.1c-6.603,0-11.976-5.373-11.976-11.976V35.766c0-6.542,5.323-11.865,11.865-11.865h1.565  c6.604,0,11.976,5.373,11.976,11.976v440.247c0,6.604-5.373,11.976-11.976,11.976h-1.454V488.1z"/>
<path d="M22.99,14.34h-1.565C9.611,14.34,0,23.951,0,35.766v440.358C0,488,9.661,497.66,21.536,497.66h1.453  c11.876,0,21.536-9.661,21.536-21.536V35.876C44.526,24.001,34.865,14.34,22.99,14.34z M28.592,476.124  c0,3.089-2.513,5.602-5.602,5.602h-1.453c-3.089,0-5.602-2.513-5.602-5.602V35.766c0-3.028,2.463-5.492,5.492-5.492h1.565  c3.089,0,5.602,2.513,5.602,5.602v440.248H28.592z"/>
<g>
</g>
<g>
</g>
<g>
</g>
<g>
</g>
<g>
</g>
<g>
</g>
<g>
</g>
<g>
</g>
<g>
</g>
<g>
</g>
<g>
</g>
<g>
</g>
<g>
</g>
<g>
</g>
<g>
</g>
</svg>
