<?xml version="1.0" encoding="iso-8859-1"?>
<!-- Generator: Adobe Illustrator 19.0.0, SVG Export Plug-In . SVG Version: 6.00 Build 0)  -->
<svg xmlns="http://www.w3.org/2000/svg" xmlns:xlink="http://www.w3.org/1999/xlink" version="1.1" id="Layer_1" x="0px" y="0px" viewBox="0 0 511.999 511.999" style="enable-background:new 0 0 511.999 511.999;" xml:space="preserve">
<g>
	<path style="fill:#103B9B;" d="M496.651,288.498H209.172c2.706,1.022,5.156,2.811,6.983,5.326   c4.982,6.858,3.463,16.456-3.395,21.439c-6.858,4.981-16.456,3.463-21.439-3.395c-4.982-6.859-3.462-16.456,3.396-21.44   c1.137-0.826,2.353-1.456,3.608-1.93h-77.671c1.254,0.474,2.471,1.104,3.608,1.93c6.858,4.982,8.378,14.581,3.396,21.44   c-4.982,6.858-14.581,8.377-21.439,3.395c-6.858-4.981-8.378-14.581-3.396-21.439c1.827-2.516,4.278-4.304,6.983-5.326H51.551   v61.392h445.101L496.651,288.498L496.651,288.498z M159.49,332.571c-8.476,0-15.349-6.872-15.349-15.349   c0-8.476,6.872-15.349,15.349-15.349s15.349,6.872,15.349,15.349C174.838,325.699,167.966,332.571,159.49,332.571z"/>
	<path style="fill:#103B9B;" d="M442.933,196.408c4.238,0,7.674,3.435,7.674,7.675h15.349c0-4.24,3.436-7.675,7.674-7.675h23.022   V58.273H51.551v138.135L442.933,196.408L442.933,196.408z M191.321,172.016c4.982-6.858,14.581-8.378,21.439-3.396   s8.378,14.581,3.395,21.44c-4.982,6.858-14.581,8.377-21.439,3.395S186.339,178.874,191.321,172.016z M159.49,151.312   c8.476,0,15.349,6.872,15.349,15.348c0,8.476-6.872,15.349-15.349,15.349s-15.349-6.872-15.349-15.349   C144.141,158.184,151.013,151.312,159.49,151.312z M106.219,168.619c6.858-4.981,16.456-3.462,21.439,3.396   c4.982,6.858,3.462,16.456-3.396,21.439c-6.858,4.982-16.456,3.463-21.439-3.395C97.841,183.2,99.361,173.603,106.219,168.619z"/>
</g>
<g>
	<path style="fill:#FFFFFF;" d="M442.933,211.757H244.766c0.351,0.696,0.669,1.415,0.917,2.178c2.62,8.062-1.793,16.721-9.854,19.34   s-16.721-1.793-19.34-9.854c-1.304-4.013-0.864-8.173,0.901-11.664H101.589c1.765,3.491,2.205,7.651,0.901,11.664   c-2.619,8.062-11.278,12.474-19.34,9.854s-12.474-11.278-9.854-19.34c0.248-0.763,0.566-1.483,0.917-2.178H51.551v22.511h445.101   v-22.511h-23.022c-4.239,0-7.674-3.435-7.674-7.674h-15.349C450.607,208.32,447.17,211.757,442.933,211.757z"/>
	<path style="fill:#FFFFFF;" d="M51.551,273.149h23.223c-0.599-0.99-1.106-2.054-1.479-3.202c-2.62-8.061,1.793-16.72,9.854-19.339   c8.062-2.62,16.721,1.793,19.34,9.853c1.435,4.417,0.749,9.005-1.479,12.688h116.959c-2.229-3.683-2.915-8.272-1.48-12.688   c2.619-8.061,11.278-12.474,19.34-9.853c8.062,2.619,12.474,11.278,9.854,19.339c-0.372,1.147-0.88,2.212-1.479,3.202h252.447   v-23.533H51.551V273.149z"/>
</g>
<rect x="51.551" y="234.268" style="fill:#ED1F34;" width="445.099" height="15.349"/>
<path d="M504.326,42.925H43.877c-4.239,0-7.675,3.435-7.675,7.674v306.966c0,4.239,3.436,7.674,7.674,7.674h460.449  c4.239,0,7.674-3.435,7.674-7.674V50.599C512,46.36,508.564,42.925,504.326,42.925z M496.651,58.273v138.135h-23.022  c-4.239,0-7.674,3.435-7.674,7.675c0,4.239,3.436,7.674,7.674,7.674h23.022v22.511v15.349v23.533H244.204  c-3.606,5.964-10.946,8.899-17.861,6.653c-3.646-1.184-6.534-3.61-8.374-6.653H101.01c-1.84,3.042-4.729,5.469-8.375,6.653  c-6.914,2.247-14.255-0.689-17.861-6.653H51.551v-23.533v-15.349v-22.511h22.661c3.353-6.644,11.124-10.047,18.423-7.675  c4.048,1.315,7.174,4.154,8.953,7.675h115.801c1.78-3.521,4.906-6.359,8.953-7.675c7.298-2.372,15.069,1.031,18.423,7.675h198.167  c4.238,0,7.674-3.435,7.674-7.674c0-4.24-3.436-7.675-7.674-7.675H51.551V58.273H496.651z M51.551,288.498h58.255  c3.45-1.303,7.311-1.335,10.847,0h77.671c3.536-1.335,7.398-1.303,10.847,0H496.65v61.392h-445.1V288.498z"/>
<g>
	<circle style="fill:#FFE610;" cx="159.485" cy="166.663" r="15.348"/>
	<circle style="fill:#FFE610;" cx="115.236" cy="181.041" r="15.349"/>
	<path style="fill:#FFE610;" d="M83.15,233.275c8.062,2.619,16.721-1.793,19.34-9.854c1.304-4.013,0.864-8.173-0.901-11.664   c-1.78-3.521-4.905-6.359-8.953-7.675c-7.298-2.372-15.069,1.031-18.423,7.675c-0.351,0.696-0.669,1.415-0.917,2.178   C70.676,221.997,75.088,230.656,83.15,233.275z"/>
	<path style="fill:#FFE610;" d="M102.489,260.461c-2.619-8.061-11.278-12.474-19.34-9.853c-8.062,2.619-12.474,11.278-9.854,19.339   c0.372,1.147,0.88,2.212,1.479,3.202c3.606,5.964,10.947,8.9,17.861,6.653c3.646-1.184,6.534-3.61,8.375-6.653   C103.239,269.467,103.925,264.877,102.489,260.461z"/>
	<path style="fill:#FFE610;" d="M102.823,293.823c-4.982,6.858-3.463,16.456,3.396,21.439c6.858,4.981,16.456,3.463,21.439-3.395   c4.982-6.859,3.462-16.456-3.396-21.44c-1.137-0.826-2.353-1.456-3.608-1.93c-3.536-1.335-7.398-1.303-10.847,0   C107.101,289.52,104.65,291.309,102.823,293.823z"/>
	<circle style="fill:#FFE610;" cx="159.485" cy="317.222" r="15.349"/>
	<path style="fill:#FFE610;" d="M191.321,311.867c4.982,6.858,14.581,8.377,21.439,3.395c6.858-4.981,8.378-14.581,3.395-21.439   c-1.827-2.516-4.278-4.304-6.983-5.326c-3.45-1.303-7.311-1.335-10.847,0c-1.254,0.474-2.471,1.104-3.608,1.93   C187.86,295.411,186.339,305.009,191.321,311.867z"/>
	<path style="fill:#FFE610;" d="M235.829,250.607c-8.062-2.62-16.721,1.793-19.34,9.853c-1.435,4.417-0.749,9.005,1.48,12.688   c1.84,3.042,4.728,5.469,8.374,6.653c6.915,2.247,14.255-0.689,17.861-6.653c0.599-0.99,1.106-2.054,1.479-3.202   C248.303,261.886,243.891,253.226,235.829,250.607z"/>
	<path style="fill:#FFE610;" d="M216.489,223.421c2.619,8.062,11.278,12.474,19.34,9.854s12.474-11.278,9.854-19.34   c-0.248-0.763-0.566-1.483-0.917-2.178c-3.353-6.644-11.124-10.047-18.423-7.675c-4.048,1.315-7.174,4.154-8.953,7.675   C215.625,215.247,215.186,219.408,216.489,223.421z"/>
	<circle style="fill:#FFE610;" cx="203.735" cy="181.041" r="15.349"/>
</g>
<path style="fill:#2E3033;" d="M20.97,482.004c-6.429,0-11.661-5.232-11.661-11.661V41.549c0-6.371,5.183-11.554,11.554-11.554  h1.524c6.431,0,11.661,5.232,11.661,11.661v428.685c0,6.431-5.232,11.661-11.661,11.661H20.97V482.004z"/>
<path d="M22.386,20.686h-1.524C9.359,20.686,0,30.045,0,41.549v428.793c0,11.563,9.407,20.97,20.97,20.97h1.415  c11.564,0,20.97-9.407,20.97-20.97V41.657C43.357,30.094,33.949,20.686,22.386,20.686z M27.841,470.342  c0,3.008-2.447,5.455-5.455,5.455h-1.415c-3.008,0-5.455-2.447-5.455-5.455V41.549c0-2.949,2.399-5.348,5.348-5.348h1.524  c3.008,0,5.455,2.447,5.455,5.455v428.686H27.841z"/>
<g>
</g>
<g>
</g>
<g>
</g>
<g>
</g>
<g>
</g>
<g>
</g>
<g>
</g>
<g>
</g>
<g>
</g>
<g>
</g>
<g>
</g>
<g>
</g>
<g>
</g>
<g>
</g>
<g>
</g>
</svg>
