<?xml version="1.0" encoding="iso-8859-1"?>
<!-- Generator: Adobe Illustrator 19.0.0, SVG Export Plug-In . SVG Version: 6.00 Build 0)  -->
<svg xmlns="http://www.w3.org/2000/svg" xmlns:xlink="http://www.w3.org/1999/xlink" version="1.1" id="Layer_1" x="0px" y="0px" viewBox="0 0 511.999 511.999" style="enable-background:new 0 0 511.999 511.999;" xml:space="preserve">
<path style="fill:#3DB4EA;" d="M338.615,352.422V52.94h-141.86v23.643c0,4.354-3.529,7.881-7.881,7.881v15.764  c4.353,0,7.881,3.527,7.881,7.881v244.314h141.86V352.422z"/>
<rect x="354.374" y="52.94" style="fill:#FFE000;" width="141.862" height="299.488"/>
<path style="fill:#FFFFFF;" d="M180.992,76.584V52.94H39.132v299.483h141.86V108.108c0-4.354,3.529-7.881,7.881-7.881V84.464  C184.521,84.465,180.992,80.937,180.992,76.584z"/>
<path d="M504.119,37.178H31.25c-4.352,0-7.881,3.528-7.881,7.882v315.244c0,4.353,3.529,7.882,7.881,7.882h472.868  c4.353,0,7.881-3.529,7.881-7.882V45.06C512,40.706,508.471,37.178,504.119,37.178z M496.237,352.422h-141.86V52.94h141.86V352.422z   M188.874,100.227c-4.353,0-7.881,3.527-7.881,7.881v244.314H39.132V52.94h141.86v23.643c0,4.354,3.529,7.881,7.881,7.881  s7.881-3.527,7.881-7.881V52.94h141.86v299.483H196.755V108.108C196.755,103.755,193.226,100.227,188.874,100.227z"/>
<path style="fill:#2E3033;" d="M21.536,488.099c-6.603,0-11.976-5.373-11.976-11.976V35.765c0-6.542,5.323-11.865,11.865-11.865  h1.565c6.604,0,11.976,5.373,11.976,11.976v440.247c0,6.604-5.373,11.976-11.976,11.976h-1.454V488.099z"/>
<path d="M22.99,14.34h-1.565C9.611,14.34,0,23.951,0,35.765v440.358c0,11.876,9.661,21.536,21.536,21.536h1.453  c11.876,0,21.536-9.661,21.536-21.536V35.876C44.526,24.001,34.865,14.34,22.99,14.34z M28.592,476.123  c0,3.089-2.513,5.602-5.602,5.602h-1.453c-3.089,0-5.602-2.513-5.602-5.602V35.765c0-3.028,2.463-5.492,5.492-5.492h1.565  c3.089,0,5.602,2.513,5.602,5.602v440.248H28.592z"/>
<g>
</g>
<g>
</g>
<g>
</g>
<g>
</g>
<g>
</g>
<g>
</g>
<g>
</g>
<g>
</g>
<g>
</g>
<g>
</g>
<g>
</g>
<g>
</g>
<g>
</g>
<g>
</g>
<g>
</g>
</svg>
