<?xml version="1.0" encoding="iso-8859-1"?>
<!-- Generator: Adobe Illustrator 19.0.0, SVG Export Plug-In . SVG Version: 6.00 Build 0)  -->
<svg xmlns="http://www.w3.org/2000/svg" xmlns:xlink="http://www.w3.org/1999/xlink" version="1.1" id="Layer_1" x="0px" y="0px" viewBox="0 0 511.999 511.999" style="enable-background:new 0 0 511.999 511.999;" xml:space="preserve">
<path style="fill:#FFFFFF;" d="M394.329,91.528V58.273H153.873v291.619H394.33V122.224c0-4.239,3.436-7.674,7.674-7.674V99.201  C397.766,99.201,394.329,95.767,394.329,91.528z M376.162,197.155l-12.766,10.428c-0.001,0.001-0.003,0.003-0.004,0.004l-37,30.225  v16.874c0,4.239-3.436,7.675-7.674,7.675h-36.943v33.035c0,4.239-3.436,7.675-7.674,7.675c-4.238,0-7.674-3.436-7.674-7.675v-33.035  h-36.943c-4.238,0-7.674-3.436-7.674-7.675v-16.874l-36.999-30.225c-0.001-0.001-0.003-0.003-0.004-0.004l-12.766-10.428  c-3.283-2.682-3.77-7.516-1.089-10.798c2.502-3.063,6.879-3.688,10.12-1.582l-1.198-22.24c-0.117-2.176,0.696-4.299,2.237-5.84  c1.54-1.539,3.664-2.351,5.839-2.236l22.242,1.198c-2.109-3.241-1.482-7.616,1.582-10.119c3.281-2.681,8.117-2.194,10.798,1.088  L233,159.391c0.001,0.002,0.003,0.004,0.005,0.006l9.896,12.115l-2.875-28.522l-1.654-16.406c-0.425-4.217,2.649-7.981,6.866-8.405  c3.924-0.409,7.472,2.253,8.275,6.038l14.88-16.573c1.455-1.62,3.531-2.548,5.711-2.548c2.179,0,4.254,0.927,5.711,2.548  l14.881,16.573c0.801-3.784,4.341-6.446,8.274-6.038c4.217,0.424,7.291,4.188,6.866,8.405l-1.654,16.406l-2.874,28.522l9.897-12.115  c0.001-0.002,0.003-0.004,0.004-0.006l10.428-12.765c2.681-3.282,7.516-3.769,10.798-1.088c3.063,2.503,3.689,6.878,1.581,10.119  l22.241-1.198c2.177-0.11,4.299,0.697,5.839,2.236c1.541,1.541,2.353,3.665,2.237,5.84l-1.198,22.24  c3.242-2.107,7.618-1.481,10.12,1.582C379.931,189.64,379.445,194.474,376.162,197.155z"/>
<g>
	<rect x="51.551" y="58.274" style="fill:#ED1F34;" width="86.978" height="291.623"/>
	<path style="fill:#ED1F34;" d="M409.678,91.528c0,4.24-3.436,7.674-7.674,7.674v15.349c4.239,0,7.674,3.435,7.674,7.674v227.667   h86.974V58.273h-86.974V91.528z"/>
</g>
<path d="M504.326,42.925H43.876c-4.238,0-7.674,3.435-7.674,7.675v306.965c0,4.239,3.436,7.675,7.674,7.675h460.449  c4.239,0,7.674-3.436,7.674-7.675V50.6C512,46.36,508.564,42.925,504.326,42.925z M496.651,349.891h-86.974V122.224  c0-4.239-3.436-7.674-7.674-7.674s-7.674,3.435-7.674,7.674v227.667H153.873V58.273H394.33v33.254c0,4.24,3.436,7.674,7.674,7.674  c4.239,0,7.674-3.434,7.674-7.674V58.273h86.974V349.891z M51.551,58.273h86.974v291.619H51.551V58.273z"/>
<path d="M367.13,184.776l1.198-22.24c0.117-2.176-0.696-4.299-2.237-5.84c-1.54-1.539-3.662-2.347-5.839-2.236l-22.241,1.198  c2.109-3.241,1.482-7.616-1.58-10.119c-3.282-2.681-8.117-2.194-10.798,1.088l-10.428,12.765c-0.001,0.002-0.003,0.004-0.004,0.006  l-9.897,12.115l2.874-28.522l1.654-16.406c0.425-4.217-2.649-7.981-6.866-8.405c-3.933-0.409-7.473,2.255-8.274,6.038  l-14.881-16.573c-1.455-1.62-3.531-2.548-5.711-2.548s-4.254,0.927-5.711,2.548l-14.88,16.573c-0.802-3.786-4.349-6.446-8.275-6.038  c-4.217,0.424-7.291,4.188-6.866,8.405l1.654,16.406l2.875,28.522l-9.896-12.115c-0.002-0.002-0.003-0.004-0.005-0.006  l-10.428-12.765c-2.681-3.282-7.517-3.769-10.798-1.088c-3.063,2.503-3.689,6.878-1.582,10.119l-22.242-1.198  c-2.175-0.115-4.299,0.697-5.839,2.236c-1.541,1.541-2.354,3.665-2.237,5.84l1.198,22.24c-3.241-2.107-7.618-1.481-10.12,1.582  c-2.681,3.283-2.194,8.116,1.089,10.798l12.766,10.428c0.001,0.001,0.003,0.003,0.004,0.004l36.999,30.225v16.874  c0,4.239,3.436,7.675,7.674,7.675h36.943v33.035c0,4.239,3.436,7.675,7.674,7.675s7.674-3.436,7.674-7.675v-33.035h36.943  c4.239,0,7.674-3.436,7.674-7.675v-16.874l36.999-30.225c0.001-0.001,0.003-0.003,0.004-0.004l12.766-10.428  c3.283-2.682,3.77-7.516,1.089-10.798C374.748,183.294,370.372,182.669,367.13,184.776z M311.044,234.171v12.841h-73.886v-12.841  c0-2.306-1.035-4.486-2.82-5.943l-37.192-30.382l-1.486-27.601l27.601,1.486l23.888,29.244c2.143,2.622,5.752,3.533,8.88,2.233  c3.129-1.296,5.038-4.49,4.699-7.859l-5.093-50.527l18.466-20.566l18.466,20.568l-5.093,50.527c-0.339,3.369,1.57,6.563,4.699,7.859  c3.129,1.298,6.738,0.389,8.88-2.233l23.888-29.244l27.601-1.486l-1.486,27.601l-37.193,30.382  C312.079,229.686,311.044,231.866,311.044,234.171z"/>
<path style="fill:#ED1F34;" d="M352.542,170.245l-27.601,1.486l-23.888,29.244c-2.143,2.622-5.751,3.531-8.88,2.233  c-3.129-1.296-5.038-4.49-4.699-7.859l5.093-50.527l-18.465-20.567l-18.466,20.568l5.093,50.527c0.339,3.369-1.57,6.563-4.699,7.859  c-3.128,1.3-6.738,0.389-8.88-2.233l-23.888-29.244l-27.601-1.486l1.486,27.601l37.193,30.382c1.784,1.457,2.82,3.639,2.82,5.943  v12.841h73.886v-12.841c0-2.306,1.035-4.486,2.82-5.943l37.193-30.382L352.542,170.245z"/>
<path style="fill:#2E3033;" d="M20.97,482.004c-6.429,0-11.661-5.232-11.661-11.661V41.549c0-6.371,5.183-11.554,11.554-11.554  h1.524c6.431,0,11.661,5.232,11.661,11.661v428.685c0,6.431-5.232,11.661-11.661,11.661H20.97V482.004z"/>
<path d="M22.386,20.686h-1.524C9.359,20.686,0,30.045,0,41.549v428.793c0,11.563,9.407,20.97,20.97,20.97h1.415  c11.564,0,20.97-9.407,20.97-20.97V41.657C43.357,30.094,33.949,20.686,22.386,20.686z M27.841,470.342  c0,3.008-2.447,5.455-5.455,5.455h-1.415c-3.008,0-5.455-2.447-5.455-5.455V41.549c0-2.949,2.399-5.348,5.348-5.348h1.524  c3.008,0,5.455,2.447,5.455,5.455v428.686H27.841z"/>
<g>
</g>
<g>
</g>
<g>
</g>
<g>
</g>
<g>
</g>
<g>
</g>
<g>
</g>
<g>
</g>
<g>
</g>
<g>
</g>
<g>
</g>
<g>
</g>
<g>
</g>
<g>
</g>
<g>
</g>
</svg>
