<?xml version="1.0" encoding="iso-8859-1"?>
<!-- Generator: Adobe Illustrator 19.0.0, SVG Export Plug-In . SVG Version: 6.00 Build 0)  -->
<svg xmlns="http://www.w3.org/2000/svg" xmlns:xlink="http://www.w3.org/1999/xlink" version="1.1" id="Layer_1" x="0px" y="0px" viewBox="0 0 512 512" style="enable-background:new 0 0 512 512;" xml:space="preserve">
<path style="fill:#ED1F34;" d="M205.041,349.884h138.131V58.273H205.041V349.884z M239.285,188.686l20.363-1.053l7.293-19.041  c1.138-2.97,3.986-4.93,7.167-4.93c3.181,0,6.029,1.96,7.166,4.93l7.294,19.041l20.363,1.053c3.175,0.163,5.922,2.269,6.903,5.292  c0.982,3.024-0.001,6.342-2.473,8.34l-15.856,12.821l5.292,19.692c0.825,3.07-0.328,6.331-2.9,8.199  c-1.343,0.975-2.925,1.467-4.511,1.467c-1.453,0-2.91-0.412-4.184-1.24l-17.093-11.119l-17.092,11.119  c-2.666,1.731-6.124,1.643-8.695-0.227c-2.571-1.868-3.727-5.129-2.901-8.199l5.293-19.692l-15.856-12.821  c-2.472-1.998-3.455-5.316-2.473-8.34C233.363,190.955,236.11,188.849,239.285,188.686z"/>
<path style="fill:#FFE000;" d="M264.243,206.341c2.36,1.908,3.374,5.027,2.586,7.957l-1.388,5.164l4.482-2.916  c1.271-0.827,2.73-1.24,4.185-1.24s2.913,0.413,4.185,1.24l4.481,2.916l-1.388-5.164c-0.787-2.93,0.227-6.05,2.586-7.957  l4.159-3.362l-5.339-0.277c-3.032-0.155-5.685-2.085-6.771-4.919l-1.913-4.992l-1.914,4.992c-1.085,2.834-3.738,4.763-6.77,4.919  l-5.339,0.277L264.243,206.341z"/>
<path d="M234.855,202.318l15.856,12.821l-5.293,19.692c-0.825,3.07,0.329,6.331,2.901,8.199c2.57,1.869,6.029,1.958,8.695,0.227  l17.093-11.119l17.093,11.119c1.274,0.829,2.731,1.24,4.184,1.24c1.586,0,3.168-0.491,4.511-1.467  c2.571-1.868,3.726-5.129,2.9-8.199l-5.292-19.692l15.856-12.821c2.472-1.998,3.455-5.316,2.473-8.34  c-0.982-3.022-3.728-5.128-6.903-5.292l-20.363-1.053l-7.294-19.041c-1.137-2.97-3.986-4.93-7.166-4.93  c-3.18,0-6.029,1.96-7.167,4.93l-7.293,19.041l-20.363,1.053c-3.175,0.163-5.922,2.269-6.903,5.292  C231.4,197.002,232.383,200.319,234.855,202.318z M272.194,197.784l1.914-4.992l1.913,4.992c1.086,2.834,3.739,4.763,6.771,4.919  l5.339,0.277l-4.159,3.362c-2.359,1.908-3.373,5.027-2.586,7.957l1.388,5.164l-4.481-2.916c-1.271-0.827-2.73-1.24-4.185-1.24  s-2.913,0.413-4.185,1.24l-4.482,2.916l1.388-5.164c0.788-2.93-0.225-6.05-2.586-7.957l-4.158-3.362l5.339-0.277  C268.456,202.547,271.109,200.618,272.194,197.784z"/>
<path style="fill:#259245;" d="M51.562,326.863v23.021h138.131V58.273H51.562v237.893c0,4.24-3.434,7.675-7.674,7.675v15.348  C48.127,319.188,51.562,322.623,51.562,326.863z"/>
<rect x="358.524" y="58.275" style="fill:#FFE000;" width="138.137" height="291.612"/>
<path d="M504.326,42.925H43.888c-4.239,0-7.674,3.435-7.674,7.675v245.566c0,4.24,3.435,7.675,7.674,7.675  c4.24,0,7.674-3.435,7.674-7.675V58.273h138.131v291.611H51.562v-23.021c0-4.24-3.434-7.675-7.674-7.675  c-4.239,0-7.674,3.435-7.674,7.675v30.695c0,4.239,3.435,7.675,7.674,7.675h460.438c4.239,0,7.674-3.436,7.674-7.675V50.6  C512,46.36,508.565,42.925,504.326,42.925z M496.652,349.884H358.52V58.273h138.132V349.884z M343.172,349.884H205.041V58.273  h138.131V349.884z"/>
<path style="fill:#2E3033;" d="M20.97,482.004c-6.429,0-11.661-5.232-11.661-11.661V41.55c0-6.371,5.183-11.554,11.554-11.554h1.524  c6.431,0,11.661,5.232,11.661,11.661v428.685c0,6.431-5.232,11.661-11.661,11.661H20.97V482.004z"/>
<path d="M22.386,20.687h-1.524C9.359,20.687,0,30.046,0,41.55v428.793c0,11.563,9.407,20.97,20.97,20.97h1.415  c11.564,0,20.97-9.407,20.97-20.97V41.657C43.357,30.094,33.949,20.687,22.386,20.687z M27.841,470.343  c0,3.008-2.447,5.455-5.455,5.455h-1.415c-3.008,0-5.455-2.447-5.455-5.455V41.55c0-2.949,2.399-5.348,5.348-5.348h1.524  c3.008,0,5.455,2.447,5.455,5.455v428.686H27.841z"/>
<g>
</g>
<g>
</g>
<g>
</g>
<g>
</g>
<g>
</g>
<g>
</g>
<g>
</g>
<g>
</g>
<g>
</g>
<g>
</g>
<g>
</g>
<g>
</g>
<g>
</g>
<g>
</g>
<g>
</g>
</svg>
