<?xml version="1.0" encoding="iso-8859-1"?>
<!-- Generator: Adobe Illustrator 19.0.0, SVG Export Plug-In . SVG Version: 6.00 Build 0)  -->
<svg xmlns="http://www.w3.org/2000/svg" xmlns:xlink="http://www.w3.org/1999/xlink" version="1.1" id="Layer_1" x="0px" y="0px" viewBox="0 0 512 512" style="enable-background:new 0 0 512 512;" xml:space="preserve">
<g>
	<path style="fill:#103B9B;" d="M442.795,112.213c4.247,0,7.689,3.442,7.689,7.689h15.38c0-4.247,3.442-7.689,7.689-7.689h23.069   v-54.34H50.63v54.34H442.795z"/>
	<rect x="50.63" y="295.737" style="fill:#103B9B;" width="445.989" height="54.34"/>
</g>
<path style="fill:#ED1F34;" d="M442.795,127.591H50.63v152.766h445.992V127.591h-23.069c-4.247,0-7.689-3.442-7.689-7.689h-15.38  C450.483,124.149,447.041,127.591,442.795,127.591z M366.925,261.644H180.326c-4.247,0-7.689-3.442-7.689-7.689  c0-4.247,3.442-7.69,7.689-7.69h2.564V204.23c0-4.247,3.442-7.689,7.689-7.689h5.881c3.631-13.623,15.903-20.638,16.513-20.977  c2.331-1.304,5.172-1.304,7.503,0c0.608,0.34,12.881,7.356,16.513,20.977h3.245c3.586-31.244,27.958-48.152,29.073-48.909  c2.608-1.772,6.033-1.772,8.641,0c1.115,0.758,25.488,17.665,29.073,48.909h3.246c3.631-13.623,15.903-20.638,16.513-20.977  c2.331-1.304,5.172-1.304,7.503,0c0.609,0.34,12.881,7.356,16.513,20.977h5.881c4.247,0,7.689,3.442,7.689,7.689v42.036h2.564  c4.247,0,7.689,3.443,7.689,7.69C374.617,258.203,371.172,261.644,366.925,261.644z"/>
<path d="M504.311,42.494H42.941c-4.247,0-7.689,3.442-7.689,7.689v307.58c0,4.248,3.442,7.69,7.689,7.69h461.37  c4.247,0,7.689-3.442,7.689-7.69V50.183C512,45.936,508.558,42.494,504.311,42.494z M496.621,57.873v54.34h-23.069  c-4.247,0-7.689,3.442-7.689,7.689c0,4.247,3.442,7.689,7.689,7.689h23.069v152.765H50.63V127.591h392.165  c4.247,0,7.689-3.442,7.689-7.689c0-4.247-3.442-7.689-7.689-7.689H50.63v-54.34h445.991V57.873z M50.63,350.074v-54.339h445.992  v54.339L50.63,350.074L50.63,350.074z"/>
<path style="fill:#FFFFFF;" d="M348.983,246.265v-34.346h-4.876c-4.241,0-7.682-3.434-7.689-7.676  c-0.01-5.538-3.178-9.739-5.88-12.319c-2.705,2.587-5.889,6.802-5.898,12.319c-0.007,4.242-3.448,7.676-7.689,7.676h-17.181  c-4.246,0-7.687-3.439-7.69-7.684c-0.012-20.477-11.83-34.227-18.455-40.328c-6.615,6.091-18.44,19.844-18.453,40.328  c-0.003,4.245-3.444,7.684-7.69,7.684h-17.18c-4.241,0-7.682-3.434-7.689-7.676c-0.01-5.538-3.178-9.739-5.88-12.319  c-2.705,2.587-5.889,6.802-5.898,12.319c-0.007,4.242-3.448,7.676-7.689,7.676h-4.876v34.346H348.983z"/>
<path d="M366.925,246.265h-2.564V204.23c0-4.247-3.442-7.689-7.689-7.689h-5.881c-3.632-13.623-15.903-20.638-16.513-20.977  c-2.331-1.304-5.172-1.304-7.503,0c-0.609,0.34-12.882,7.356-16.513,20.977h-3.246c-3.585-31.244-27.958-48.152-29.073-48.909  c-2.608-1.772-6.033-1.772-8.641,0c-1.115,0.758-25.487,17.665-29.073,48.909h-3.245c-3.632-13.623-15.904-20.638-16.513-20.977  c-2.331-1.304-5.172-1.304-7.503,0c-0.609,0.34-12.882,7.356-16.513,20.977h-5.881c-4.247,0-7.689,3.442-7.689,7.689v42.036h-2.564  c-4.247,0-7.689,3.443-7.689,7.69c0,4.247,3.442,7.689,7.689,7.689h186.599c4.247,0,7.689-3.442,7.689-7.689  C374.611,249.709,371.172,246.265,366.925,246.265z M203.145,211.919c4.241,0,7.682-3.434,7.689-7.676  c0.01-5.517,3.193-9.732,5.898-12.319c2.701,2.579,5.869,6.781,5.88,12.319c0.007,4.242,3.448,7.676,7.689,7.676h17.18  c4.246,0,7.687-3.439,7.69-7.684c0.012-20.484,11.838-34.237,18.453-40.328c6.625,6.1,18.442,19.851,18.455,40.328  c0.003,4.245,3.444,7.684,7.69,7.684h17.18c4.241,0,7.682-3.434,7.689-7.676c0.01-5.517,3.193-9.732,5.898-12.319  c2.701,2.579,5.869,6.781,5.88,12.319c0.007,4.242,3.448,7.676,7.689,7.676h4.876v34.347H198.268v-34.347H203.145z"/>
<path style="fill:#2E3033;" d="M21.013,482.462c-6.442,0-11.685-5.242-11.685-11.685V41.115c0-6.383,5.194-11.577,11.577-11.577  h1.527c6.444,0,11.685,5.242,11.685,11.685v429.552c0,6.444-5.242,11.685-11.685,11.685h-1.419V482.462z"/>
<path d="M22.432,20.211h-1.527C9.378,20.211,0,29.588,0,41.115v429.661c0,11.587,9.426,21.013,21.013,21.013h1.418  c11.587,0,21.013-9.426,21.013-21.013V41.223C43.444,29.637,34.018,20.211,22.432,20.211z M27.898,470.777  c0,3.014-2.452,5.466-5.466,5.466h-1.418c-3.014,0-5.466-2.452-5.466-5.466V41.115c0-2.955,2.403-5.358,5.358-5.358h1.527  c3.014,0,5.466,2.452,5.466,5.466v429.553H27.898z"/>
<g>
</g>
<g>
</g>
<g>
</g>
<g>
</g>
<g>
</g>
<g>
</g>
<g>
</g>
<g>
</g>
<g>
</g>
<g>
</g>
<g>
</g>
<g>
</g>
<g>
</g>
<g>
</g>
<g>
</g>
</svg>
