<?xml version="1.0" encoding="iso-8859-1"?>
<!-- Generator: Adobe Illustrator 19.0.0, SVG Export Plug-In . SVG Version: 6.00 Build 0)  -->
<svg xmlns="http://www.w3.org/2000/svg" xmlns:xlink="http://www.w3.org/1999/xlink" version="1.1" id="Layer_1" x="0px" y="0px" viewBox="0 0 511.999 511.999" style="enable-background:new 0 0 511.999 511.999;" xml:space="preserve">
<g>
	<path style="fill:#B21727;" d="M135.976,58.272H56.954l160.371,94.185c14.037-15.431,34.278-25.119,56.781-25.119   c22.376,0,42.509,9.583,56.537,24.861l159.933-93.928H166.671c-4.238,0-7.674-3.434-7.674-7.674H143.65   C143.65,54.838,140.214,58.272,135.976,58.272z"/>
	<path style="fill:#B21727;" d="M274.107,280.818c-22.504,0-42.745-9.687-56.781-25.118L56.954,349.884h433.623l-159.933-93.928   C316.617,271.234,296.483,280.818,274.107,280.818z"/>
</g>
<g>
	<path style="fill:#259245;" d="M198.156,193.14L51.562,107.046v194.064l146.594-86.093c-0.511-3.575-0.789-7.223-0.789-10.938   C197.367,200.363,197.645,196.714,198.156,193.14z"/>
	<path style="fill:#259245;" d="M350.01,215.389l146.642,86.122V106.645L350.01,192.767c0.545,3.692,0.837,7.467,0.837,11.312   C350.846,207.922,350.556,211.698,350.01,215.389z"/>
</g>
<path d="M504.326,42.925H166.671c-4.238,0-7.674,3.435-7.674,7.674c0,4.24,3.436,7.674,7.674,7.674h323.906h6.075v30.576  l-150.616,88.455c1.838,4.935,3.183,10.109,3.974,15.464l146.642-86.122v194.864l-146.642-86.122  c-0.791,5.356-2.136,10.53-3.974,15.464l150.616,88.455v30.575h-6.075H56.954h-5.392v-30.975L202.05,230.53  c-1.817-4.95-3.126-10.145-3.893-15.513L51.562,301.109V107.046l146.594,86.094c0.766-5.368,2.075-10.563,3.893-15.513  L51.562,89.247V58.272h5.392h79.021c4.238,0,7.674-3.434,7.674-7.674c0-4.239-3.436-7.674-7.674-7.674H43.887  c-4.238,0-7.674,3.435-7.674,7.674v306.959c0,4.24,3.436,7.675,7.674,7.675h460.438c4.239,0,7.674-3.435,7.674-7.675V50.599  C512,46.36,508.564,42.925,504.326,42.925z"/>
<path style="fill:#FFFFFF;" d="M274.107,127.338c-22.504,0-42.745,9.688-56.781,25.119L56.954,58.272h-5.392v30.974l150.488,88.379  c-1.817,4.95-3.126,10.145-3.893,15.513c-0.511,3.574-0.789,7.223-0.789,10.938c0,3.715,0.279,7.363,0.789,10.938  c0.766,5.368,2.075,10.563,3.893,15.513l-150.488,88.38v30.974h5.392l160.371-94.184c14.037,15.431,34.278,25.118,56.781,25.118  c22.376,0,42.509-9.583,56.537-24.861l159.933,93.928h6.075v-30.575l-150.616-88.455c1.838-4.935,3.183-10.109,3.974-15.464  c0.545-3.692,0.837-7.468,0.837-11.312c0-3.845-0.291-7.619-0.837-11.312c-0.791-5.356-2.136-10.531-3.974-15.464l150.616-88.455  V58.272h-6.075L330.643,152.2C316.617,136.921,296.483,127.338,274.107,127.338z M258.6,166.475l10.517,0.311l4.99-9.264l4.99,9.264  l10.517-0.311l-5.529,8.953l5.529,8.952l-10.517-0.31l-4.99,9.264l-4.99-9.264l-10.517,0.31l5.529-8.952L258.6,166.475z   M248.401,235.231l-4.99,9.264l-4.99-9.264l-10.517,0.31l5.529-8.952l-5.529-8.952l10.517,0.31l4.99-9.264l4.99,9.264l10.517-0.31  l-5.529,8.952l5.529,8.952L248.401,235.231z M304.803,244.495l-4.99-9.264l-10.517,0.31l5.528-8.952l-5.528-8.952l10.517,0.31  l4.99-9.264l4.99,9.264l10.517-0.31l-5.529,8.952l5.529,8.952l-10.517-0.31L304.803,244.495z"/>
<g>
	<polygon style="fill:#B21727;" points="253.39,226.588 258.918,217.636 248.401,217.946 243.411,208.682 238.421,217.946    227.904,217.636 233.433,226.588 227.904,235.541 238.421,235.231 243.411,244.495 248.401,235.231 258.918,235.541  "/>
	<polygon style="fill:#B21727;" points="320.31,235.541 314.782,226.588 320.31,217.636 309.792,217.946 304.803,208.682    299.814,217.946 289.296,217.636 294.824,226.588 289.296,235.541 299.814,235.231 304.803,244.495 309.792,235.231  "/>
	<polygon style="fill:#B21727;" points="258.6,184.382 269.118,184.071 274.107,193.335 279.097,184.071 289.614,184.382    284.086,175.428 289.614,166.475 279.097,166.786 274.107,157.523 269.118,166.786 258.6,166.475 264.128,175.428  "/>
</g>
<path style="fill:#2E3033;" d="M20.97,482.004c-6.429,0-11.661-5.232-11.661-11.661V41.549c0-6.371,5.183-11.554,11.554-11.554  h1.524c6.431,0,11.661,5.232,11.661,11.661v428.685c0,6.431-5.232,11.661-11.661,11.661H20.97V482.004z"/>
<path d="M22.386,20.686h-1.524C9.359,20.686,0,30.045,0,41.549v428.793c0,11.563,9.407,20.97,20.97,20.97h1.415  c11.564,0,20.97-9.407,20.97-20.97V41.657C43.357,30.094,33.949,20.686,22.386,20.686z M27.841,470.342  c0,3.008-2.447,5.455-5.455,5.455h-1.415c-3.008,0-5.455-2.447-5.455-5.455V41.549c0-2.949,2.399-5.348,5.348-5.348h1.524  c3.008,0,5.455,2.447,5.455,5.455v428.686H27.841z"/>
<g>
</g>
<g>
</g>
<g>
</g>
<g>
</g>
<g>
</g>
<g>
</g>
<g>
</g>
<g>
</g>
<g>
</g>
<g>
</g>
<g>
</g>
<g>
</g>
<g>
</g>
<g>
</g>
<g>
</g>
</svg>
