<?xml version="1.0" encoding="iso-8859-1"?>
<!-- Generator: Adobe Illustrator 19.0.0, SVG Export Plug-In . SVG Version: 6.00 Build 0)  -->
<svg xmlns="http://www.w3.org/2000/svg" xmlns:xlink="http://www.w3.org/1999/xlink" version="1.1" id="Layer_1" x="0px" y="0px" viewBox="0 0 512 512" style="enable-background:new 0 0 512 512;" xml:space="preserve">
<path style="fill:#259245;" d="M317.242,226.195l14.145,52.632c0.825,3.071-0.328,6.331-2.9,8.2  c-1.343,0.975-2.925,1.467-4.511,1.467c-1.453,0-2.91-0.412-4.185-1.242l-45.684-29.716l-45.684,29.716  c-2.667,1.735-6.123,1.645-8.696-0.224c-2.571-1.869-3.726-5.129-2.9-8.2l14.145-52.632l-27.353-22.116H51.562v145.805h445.091  V204.079H344.596L317.242,226.195z"/>
<path style="fill:#ED1F34;" d="M51.562,111.99v92.088h152.057l-15.025-12.148c-2.472-1.999-3.456-5.316-2.473-8.339  c0.982-3.024,3.728-5.129,6.902-5.293l54.426-2.812l19.492-50.893c1.138-2.968,3.986-4.93,7.167-4.93  c3.181,0,6.029,1.961,7.167,4.93l19.492,50.893l54.425,2.812c3.175,0.163,5.921,2.268,6.903,5.293  c0.982,3.023-0.001,6.339-2.474,8.339l-15.024,12.148h152.057V58.273H51.562v23.022c0,4.239-3.434,7.675-7.674,7.675v15.348  C48.127,104.318,51.562,107.753,51.562,111.99z"/>
<path style="fill:#FFE000;" d="M244.503,217.399c2.36,1.908,3.374,5.028,2.586,7.958l-10.239,38.103l33.073-21.513  c1.271-0.827,2.73-1.24,4.185-1.24c1.455,0,2.913,0.413,4.185,1.24l33.073,21.513l-10.24-38.103  c-0.787-2.93,0.227-6.051,2.587-7.958l30.68-24.807l-39.401-2.035c-3.033-0.157-5.686-2.085-6.771-4.919l-14.113-36.844  l-14.113,36.844c-1.085,2.834-3.738,4.762-6.771,4.919l-39.401,2.035L244.503,217.399z"/>
<path d="M216.827,278.826c-0.825,3.071,0.328,6.331,2.9,8.2c2.572,1.869,6.029,1.959,8.696,0.224l45.684-29.716l45.684,29.716  c1.274,0.831,2.732,1.242,4.185,1.242c1.586,0,3.168-0.491,4.511-1.467c2.571-1.869,3.726-5.129,2.9-8.2l-14.145-52.632  l27.353-22.116l15.024-12.148c2.473-1.999,3.456-5.315,2.474-8.339c-0.983-3.024-3.728-5.129-6.903-5.293l-54.425-2.812  l-19.492-50.893c-1.138-2.968-3.986-4.93-7.167-4.93c-3.181,0-6.029,1.961-7.167,4.93l-19.492,50.893l-54.426,2.812  c-3.174,0.163-5.921,2.268-6.902,5.293c-0.983,3.023,0.001,6.339,2.473,8.339l15.025,12.148l27.353,22.116L216.827,278.826z   M259.995,185.639l14.113-36.844l14.113,36.844c1.085,2.834,3.738,4.762,6.771,4.919l39.401,2.035l-30.68,24.807  c-2.36,1.908-3.374,5.028-2.587,7.958l10.24,38.103l-33.073-21.513c-1.271-0.827-2.73-1.24-4.185-1.24s-2.913,0.413-4.185,1.24  l-33.073,21.513l10.239-38.103c0.788-2.93-0.225-6.051-2.586-7.958l-30.68-24.807l39.401-2.035  C256.257,190.4,258.91,188.473,259.995,185.639z"/>
<path d="M504.326,42.925H43.888c-4.239,0-7.674,3.435-7.674,7.675v30.695c0,4.239,3.435,7.675,7.674,7.675  c4.24,0,7.674-3.436,7.674-7.675V58.273h445.091v145.806v145.805H51.562V204.079v-92.088c0-4.239-3.434-7.674-7.674-7.674  c-4.239,0-7.674,3.435-7.674,7.674v245.567c0,4.239,3.435,7.675,7.674,7.675h460.438c4.239,0,7.674-3.436,7.674-7.675V50.6  C512,46.36,508.565,42.925,504.326,42.925z"/>
<path style="fill:#2E3033;" d="M20.97,482.004c-6.429,0-11.661-5.232-11.661-11.661V41.55c0-6.371,5.183-11.554,11.554-11.554h1.524  c6.431,0,11.661,5.232,11.661,11.661v428.685c0,6.431-5.232,11.661-11.661,11.661H20.97V482.004z"/>
<path d="M22.386,20.687h-1.524C9.359,20.687,0,30.046,0,41.55v428.793c0,11.563,9.407,20.97,20.97,20.97h1.415  c11.564,0,20.97-9.407,20.97-20.97V41.657C43.357,30.094,33.949,20.687,22.386,20.687z M27.841,470.343  c0,3.008-2.447,5.455-5.455,5.455h-1.415c-3.008,0-5.455-2.447-5.455-5.455V41.55c0-2.949,2.399-5.348,5.348-5.348h1.524  c3.008,0,5.455,2.447,5.455,5.455v428.686H27.841z"/>
<g>
</g>
<g>
</g>
<g>
</g>
<g>
</g>
<g>
</g>
<g>
</g>
<g>
</g>
<g>
</g>
<g>
</g>
<g>
</g>
<g>
</g>
<g>
</g>
<g>
</g>
<g>
</g>
<g>
</g>
</svg>
