<?xml version="1.0" encoding="iso-8859-1"?>
<!-- Generator: Adobe Illustrator 19.0.0, SVG Export Plug-In . SVG Version: 6.00 Build 0)  -->
<svg xmlns="http://www.w3.org/2000/svg" xmlns:xlink="http://www.w3.org/1999/xlink" version="1.1" id="Layer_1" x="0px" y="0px" viewBox="0 0 511.999 511.999" style="enable-background:new 0 0 511.999 511.999;" xml:space="preserve">
<g>
	<path style="fill:#FFE000;" d="M412.034,57.873H50.619v25.204l215.312,59.81v-1.453c0-4.247,3.443-7.689,7.689-7.689   s7.689,3.442,7.689,7.689v5.724l215.312,59.81V57.873h-53.828c-4.246,0-7.689-3.442-7.689-7.69h-15.38   C419.724,54.431,416.281,57.873,412.034,57.873z"/>
	<path style="fill:#FFE000;" d="M273.619,274.21c-20.072,0-38.168-8.587-50.833-22.27L50.619,206.028v144.053H496.62v-25.119   L294.376,271.03C287.82,273.093,280.849,274.21,273.619,274.21z"/>
</g>
<g>
	<path style="fill:#333333;" d="M294.376,271.03l202.244,53.932v-51.027l-158.718-43.208   C330.194,249.858,314.201,264.792,294.376,271.03z"/>
	<path style="fill:#333333;" d="M273.619,233.243c10.167,0,19.096-5.388,24.093-13.457l-52.397-14.263   C245.636,220.862,258.204,233.243,273.619,233.243z"/>
	<path style="fill:#333333;" d="M204.333,204.924c0-4.248,3.443-7.69,7.689-7.69c4.246,0,7.689,3.442,7.689,7.69   c0,29.724,24.182,53.907,53.907,53.907c21.995,0,40.943-13.248,49.317-32.178l-9.977-2.715   c-7.083,14.597-22.054,24.685-39.34,24.685c-24.096,0-43.699-19.603-43.699-43.698c0-1.196,0.062-2.378,0.157-3.549L50.619,152.522   v53.506l172.168,45.912C211.344,239.577,204.333,223.056,204.333,204.924z"/>
</g>
<g>
	<path style="fill:#FFFFFF;" d="M301.939,204.924h-0.279l0.277,0.075C301.937,204.974,301.939,204.948,301.939,204.924   L301.939,204.924z"/>
	<path style="fill:#FFFFFF;" d="M281.309,161.916c20.44,3.645,36.009,21.536,36.009,43.008c0,1.418-0.074,2.82-0.206,4.206   l9.956,2.709c0.291-2.266,0.458-4.571,0.458-6.915c0-4.248,3.443-7.69,7.689-7.69s7.689,3.442,7.689,7.69   c0,3.738-0.308,7.406-0.881,10.988l154.595,42.084v-51.027l-215.312-59.81v14.757H281.309z"/>
	<path style="fill:#FFFFFF;" d="M265.93,161.916v-19.028L50.619,83.077v53.506l183.386,49.921   C239.925,173.826,251.753,164.444,265.93,161.916z"/>
</g>
<path d="M504.311,42.493h-61.518c-4.246,0-7.689,3.442-7.689,7.689c0,4.248,3.443,7.69,7.689,7.69h53.828v149.096v51.027  l-154.595-42.083c-0.824,5.15-2.226,10.107-4.123,14.815l158.718,43.208v51.027v25.119H50.619V206.028v-53.506l179.458,48.854  c0.426-5.275,1.789-10.287,3.928-14.871L50.619,136.583V83.077V57.873h361.415c4.247,0,7.689-3.442,7.689-7.69  c0-4.247-3.443-7.689-7.689-7.689H42.928c-4.246,0-7.689,3.442-7.689,7.689V357.77c0,4.248,3.443,7.69,7.689,7.69H504.31  c4.247,0,7.689-3.442,7.689-7.69V50.183C512,45.935,508.557,42.493,504.311,42.493z"/>
<path d="M312.96,223.936l9.977,2.715c2.05-4.634,3.461-9.609,4.131-14.814l-9.956-2.709  C316.608,214.391,315.168,219.383,312.96,223.936z"/>
<path d="M245.3,204.924L245.3,204.924c0,0.2,0.011,0.399,0.016,0.599l52.397,14.263c2.665-4.303,4.211-9.367,4.226-14.788  l-0.277-0.075L245.3,204.924L245.3,204.924z"/>
<g>
	<path style="fill:#ED1F34;" d="M335.216,197.234c-4.247,0-7.689,3.442-7.689,7.69c0,2.344-0.167,4.649-0.458,6.915   c-0.671,5.205-2.081,10.18-4.131,14.814c-8.373,18.931-27.322,32.178-49.317,32.178c-29.725,0-53.907-24.183-53.907-53.907   c0-4.248-3.443-7.69-7.689-7.69c-4.246,0-7.689,3.442-7.689,7.69c0,18.132,7.012,34.654,18.454,47.016   c12.665,13.683,30.761,22.27,50.833,22.27c7.229,0,14.2-1.116,20.757-3.18c19.825-6.238,35.819-21.172,43.526-40.304   c1.897-4.707,3.299-9.665,4.123-14.815c0.573-3.581,0.881-7.249,0.881-10.988C342.906,200.676,339.463,197.234,335.216,197.234z"/>
	<path style="fill:#ED1F34;" d="M273.619,248.622c17.285,0,32.256-10.088,39.34-24.685c2.21-4.554,3.648-9.546,4.153-14.808   c0.133-1.386,0.206-2.787,0.206-4.206c0-21.472-15.569-39.363-36.009-43.008v-14.757v-5.724c0-4.247-3.443-7.689-7.689-7.689   s-7.689,3.442-7.689,7.689v1.453v19.028c-14.177,2.528-26.005,11.91-31.924,24.589c-2.139,4.584-3.502,9.595-3.928,14.871   c-0.094,1.171-0.157,2.353-0.157,3.549C229.92,229.019,249.523,248.622,273.619,248.622z M297.712,219.786   c-4.996,8.069-13.926,13.457-24.093,13.457c-15.415,0-27.984-12.381-28.305-27.721c-0.004-0.2-0.016-0.399-0.016-0.599l0,0h56.361   h0.279l0,0c0,0.024-0.002,0.05-0.002,0.075C301.923,210.418,300.376,215.482,297.712,219.786z"/>
</g>
<path style="fill:#2E3033;" d="M21.013,482.461c-6.442,0-11.685-5.242-11.685-11.685V41.115c0-6.383,5.194-11.577,11.577-11.577  h1.527c6.444,0,11.685,5.242,11.685,11.685v429.552c0,6.444-5.242,11.685-11.685,11.685h-1.419V482.461z"/>
<path d="M22.432,20.21h-1.527C9.378,20.21,0,29.588,0,41.115v429.661c0,11.587,9.426,21.013,21.013,21.013h1.418  c11.587,0,21.013-9.426,21.013-21.013V41.223C43.444,29.636,34.018,20.21,22.432,20.21z M27.898,470.776  c0,3.014-2.452,5.466-5.466,5.466h-1.418c-3.014,0-5.466-2.452-5.466-5.466V41.115c0-2.955,2.403-5.358,5.358-5.358h1.527  c3.014,0,5.466,2.452,5.466,5.466v429.554H27.898z"/>
<g>
</g>
<g>
</g>
<g>
</g>
<g>
</g>
<g>
</g>
<g>
</g>
<g>
</g>
<g>
</g>
<g>
</g>
<g>
</g>
<g>
</g>
<g>
</g>
<g>
</g>
<g>
</g>
<g>
</g>
</svg>
