<?xml version="1.0" encoding="iso-8859-1"?>
<!-- Generator: Adobe Illustrator 19.0.0, SVG Export Plug-In . SVG Version: 6.00 Build 0)  -->
<svg xmlns="http://www.w3.org/2000/svg" xmlns:xlink="http://www.w3.org/1999/xlink" version="1.1" id="Layer_1" x="0px" y="0px" viewBox="0 0 512 512" style="enable-background:new 0 0 512 512;" xml:space="preserve">
<g>
	<polygon style="fill:#103B9B;" points="39.132,75.888 39.132,102.592 79.188,102.592  "/>
	<polygon style="fill:#103B9B;" points="128.189,52.941 81.434,52.941 128.189,84.111  "/>
	<polygon style="fill:#103B9B;" points="39.132,145.15 39.132,171.854 79.188,145.15  "/>
	<path style="fill:#103B9B;" d="M125.825,352.424h370.413V52.941H267.685v17.693l-47.937,31.958h47.937v9.851v22.856v9.851h-47.937   l47.937,31.958v8.889v16.686h-38.361l-58.577-39.051v39.051h-9.851H138.04h-9.851v-39.051l-58.577,39.051H56.825H39.132v149.742   H94.3c4.353,0,7.881,3.529,7.881,7.881h15.763C117.943,355.953,121.471,352.424,125.825,352.424z M325.479,121.366   c0-4.352,3.528-7.881,7.882-7.881h105.082c4.353,0,7.881,3.529,7.881,7.881v85.053c0,45.654-56.093,60.441-58.481,61.048   c-0.636,0.163-1.29,0.243-1.942,0.243c-0.652,0-1.305-0.081-1.941-0.243c-2.388-0.607-58.482-15.394-58.482-61.048V121.366z    M299.21,221.403c0-4.007,3.006-7.376,6.987-7.83c3.988-0.454,7.669,2.151,8.572,6.055c7.687,33.26,36.939,56.49,71.132,56.49   s63.446-23.23,71.133-56.49c0.904-3.905,4.595-6.508,8.572-6.055c3.98,0.454,6.987,3.823,6.987,7.83v33.127   c0,4.353-3.528,7.881-7.881,7.881c-3.773,0-6.926-2.65-7.7-6.19c-4.445,5.954-9.641,11.366-15.479,16.066   c-15.691,12.634-35.449,19.592-55.633,19.592c-20.183,0-39.94-6.959-55.633-19.592c-5.838-4.7-11.034-10.113-15.478-16.066   c-0.775,3.539-3.927,6.19-7.7,6.19c-4.353,0-7.881-3.529-7.881-7.881L299.21,221.403L299.21,221.403z"/>
	<polygon style="fill:#103B9B;" points="217.501,52.941 170.747,52.941 170.747,84.111  "/>
</g>
<g>
	<polygon style="fill:#ED1F34;" points="128.189,155.107 128.189,145.15 117.549,145.15 39.132,197.428 39.132,202.683    56.825,202.683  "/>
	<polygon style="fill:#ED1F34;" points="117.549,102.592 43.072,52.941 39.132,52.941 39.132,67.387 91.811,102.592  "/>
	<polygon style="fill:#ED1F34;" points="181.386,145.15 267.685,202.683 267.685,185.997 206.56,145.15  "/>
	<polygon style="fill:#ED1F34;" points="170.747,102.592 181.386,102.592 255.863,52.941 230.29,52.941 170.747,92.64  "/>
</g>
<g>
	<polygon style="fill:#FFFFFF;" points="160.895,135.299 160.895,202.683 170.747,202.683 170.747,163.631 229.324,202.683    267.685,202.683 181.386,145.15 206.56,145.15 267.685,185.997 267.685,177.107 219.748,145.15 267.685,145.15 267.685,135.299     "/>
	<polygon style="fill:#FFFFFF;" points="138.04,112.442 138.04,52.941 128.189,52.941 128.189,84.111 81.434,52.941 43.072,52.941    117.549,102.592 91.811,102.592 39.132,67.387 39.132,75.888 79.188,102.592 39.132,102.592 39.132,112.442  "/>
	<polygon style="fill:#FFFFFF;" points="160.895,112.442 267.685,112.442 267.685,102.592 219.748,102.592 267.685,70.634    267.685,52.941 255.863,52.941 181.386,102.592 170.747,102.592 170.747,92.64 230.29,52.941 217.501,52.941 170.747,84.111    170.747,52.941 160.895,52.941  "/>
	<polygon style="fill:#FFFFFF;" points="128.189,145.15 128.189,155.107 56.825,202.683 69.612,202.683 128.189,163.631    128.189,202.683 138.04,202.683 138.04,135.299 39.132,135.299 39.132,145.15 79.188,145.15 39.132,171.854 39.132,197.428    117.549,145.15  "/>
</g>
<polygon style="fill:#ED1F34;" points="138.04,135.299 138.04,202.683 160.895,202.683 160.895,135.299 267.685,135.299   267.685,112.442 160.895,112.442 160.895,52.941 138.04,52.941 138.04,112.442 39.132,112.442 39.132,135.299 "/>
<path style="fill:#259245;" d="M385.901,251.619c8.847-2.768,44.66-15.798,44.66-45.2v-77.171h-89.32v77.171  C341.242,235.822,377.054,248.851,385.901,251.619z M401.139,152.891c0-4.353,3.528-7.881,7.881-7.881s7.881,3.529,7.881,7.881  V213.4c0,4.353-3.528,7.881-7.881,7.881s-7.881-3.529-7.881-7.881V152.891z M378.021,152.891c0-4.353,3.528-7.881,7.881-7.881  c4.354,0,7.882,3.529,7.882,7.881v71.016c0,4.353-3.528,7.881-7.882,7.881c-4.353,0-7.881-3.528-7.881-7.881V152.891z   M354.902,152.891c0-4.353,3.528-7.881,7.882-7.881c4.353,0,7.881,3.529,7.881,7.881V213.4c0,4.353-3.528,7.881-7.881,7.881  c-4.354,0-7.882-3.529-7.882-7.881V152.891z"/>
<path d="M383.961,267.467c0.636,0.163,1.289,0.243,1.941,0.243c0.652,0,1.306-0.081,1.942-0.243  c2.388-0.607,58.481-15.394,58.481-61.048v-85.053c0-4.352-3.528-7.881-7.881-7.881H333.361c-4.354,0-7.882,3.529-7.882,7.881  v85.053C325.479,252.074,381.573,266.86,383.961,267.467z M341.242,129.248h89.32v77.171c0,29.403-35.812,42.432-44.66,45.2  c-8.847-2.768-44.66-15.798-44.66-45.2V129.248z"/>
<path style="fill:#FFE000;" d="M362.784,221.281c4.353,0,7.881-3.529,7.881-7.881v-60.508c0-4.353-3.528-7.881-7.881-7.881  c-4.354,0-7.882,3.529-7.882,7.881V213.4C354.902,217.752,358.431,221.281,362.784,221.281z"/>
<path style="fill:#FFFFFF;" d="M385.901,231.788c4.354,0,7.882-3.528,7.882-7.881v-71.016c0-4.353-3.528-7.881-7.882-7.881  c-4.353,0-7.881,3.529-7.881,7.881v71.016C378.021,228.261,381.548,231.788,385.901,231.788z"/>
<g>
	<path style="fill:#FFE000;" d="M409.02,221.281c4.353,0,7.881-3.529,7.881-7.881v-60.508c0-4.353-3.528-7.881-7.881-7.881   s-7.881,3.529-7.881,7.881V213.4C401.139,217.752,404.667,221.281,409.02,221.281z"/>
	<path style="fill:#FFE000;" d="M307.091,262.411c3.773,0,6.925-2.65,7.7-6.19c4.445,5.954,9.64,11.366,15.478,16.066   c15.693,12.634,35.45,19.592,55.633,19.592c20.184,0,39.941-6.959,55.633-19.592c5.838-4.7,11.035-10.113,15.479-16.066   c0.774,3.539,3.927,6.19,7.7,6.19c4.353,0,7.881-3.529,7.881-7.881v-33.127c0-4.007-3.007-7.376-6.987-7.83   c-3.977-0.454-7.669,2.15-8.572,6.055c-7.687,33.26-36.939,56.49-71.133,56.49c-34.191,0-63.444-23.23-71.132-56.49   c-0.904-3.904-4.585-6.508-8.572-6.055c-3.981,0.454-6.987,3.823-6.987,7.83v33.127   C299.21,258.882,302.738,262.411,307.091,262.411z"/>
</g>
<path d="M504.118,37.178H31.25c-4.352,0-7.881,3.529-7.881,7.881v315.245c0,4.353,3.529,7.881,7.881,7.881h63.049  c4.353,0,7.881-3.529,7.881-7.881c0-4.352-3.528-7.881-7.881-7.881H39.132V202.683v-5.254v-25.575v-26.704V135.3v-22.856v-9.851  V75.888v-8.5V52.941h3.94h38.362h46.756h9.851h22.855h9.851h46.755h12.788h25.573h11.822h228.553v299.484H125.825  c-4.353,0-7.881,3.529-7.881,7.881c0,4.353,3.529,7.881,7.881,7.881h378.294c4.354,0,7.882-3.529,7.882-7.881V45.059  C512,40.707,508.472,37.178,504.118,37.178z"/>
<path style="fill:#2E3033;" d="M21.536,488.1c-6.603,0-11.976-5.373-11.976-11.976V35.766c0-6.542,5.323-11.865,11.865-11.865h1.565  c6.604,0,11.976,5.373,11.976,11.976v440.247c0,6.604-5.373,11.976-11.976,11.976h-1.454V488.1z"/>
<path d="M22.99,14.34h-1.565C9.611,14.34,0,23.951,0,35.766v440.358C0,488,9.661,497.66,21.536,497.66h1.453  c11.876,0,21.536-9.661,21.536-21.536V35.876C44.526,24.001,34.865,14.34,22.99,14.34z M28.592,476.124  c0,3.089-2.513,5.602-5.602,5.602h-1.453c-3.089,0-5.602-2.513-5.602-5.602V35.766c0-3.028,2.463-5.492,5.492-5.492h1.565  c3.089,0,5.602,2.513,5.602,5.602v440.248H28.592z"/>
<g>
</g>
<g>
</g>
<g>
</g>
<g>
</g>
<g>
</g>
<g>
</g>
<g>
</g>
<g>
</g>
<g>
</g>
<g>
</g>
<g>
</g>
<g>
</g>
<g>
</g>
<g>
</g>
<g>
</g>
</svg>
