<?xml version="1.0" encoding="iso-8859-1"?>
<!-- Generator: Adobe Illustrator 19.0.0, SVG Export Plug-In . SVG Version: 6.00 Build 0)  -->
<svg xmlns="http://www.w3.org/2000/svg" xmlns:xlink="http://www.w3.org/1999/xlink" version="1.1" id="Layer_1" x="0px" y="0px" viewBox="0 0 512 512" style="enable-background:new 0 0 512 512;" xml:space="preserve">
<g>
	<path style="fill:#103B9B;" d="M425.314,227.894c-0.453,0-0.892-0.006-1.335-0.011c8.499,5.576,14.127,15.183,14.127,26.084   c0,5.973-1.477,11.462-3.313,15.989c9.924-1.103,15.94-3.971,23.111-7.413c9.465-4.543,20.047-9.618,38.335-10.767v-42.468   c-10.893,0.961-17.149,3.955-24.695,7.577C460.79,222.045,448.604,227.894,425.314,227.894z"/>
	<path style="fill:#103B9B;" d="M334.171,103.993c10.893-17.09,30.003-28.46,51.73-28.46c27.902,0,51.493,18.739,58.892,44.285   c4.714-1.409,8.694-3.309,13.109-5.427c9.465-4.543,20.047-9.618,38.335-10.767V61.156c-10.893,0.961-17.149,3.955-24.695,7.577   c-10.752,5.16-22.938,11.008-46.23,11.008s-35.477-5.848-46.229-11.008c-9.203-4.416-16.472-7.904-32.59-7.904   s-23.386,3.488-32.587,7.904c-9.467,4.543-20.05,9.619-38.343,10.767v42.469c10.896-0.961,17.153-3.956,24.701-7.578   C308.941,110.23,318.553,105.621,334.171,103.993z"/>
	<path style="fill:#103B9B;" d="M445.293,152.101c-5.01,19.485-19.384,35.247-38.017,42.201c4.8,1.285,10.426,2.07,18.036,2.07   c16.118,0,23.386-3.488,32.59-7.904c9.465-4.543,20.047-9.618,38.335-10.767v-42.468c-10.893,0.961-17.149,3.955-24.695,7.577   C464.383,146.246,456.582,149.985,445.293,152.101z"/>
	<path style="fill:#103B9B;" d="M397.405,224.297c-1.252-0.362-2.457-0.745-3.623-1.142v2.567   C394.957,225.175,396.168,224.698,397.405,224.297z"/>
	<path style="fill:#103B9B;" d="M340.16,177.612c-9.404-10.536-15.218-24.329-15.54-39.454c-3.713,1.3-7.063,2.9-10.712,4.65   c-9.467,4.543-20.05,9.619-38.343,10.767v42.468c10.896-0.96,17.153-3.955,24.701-7.577   C309.998,183.797,320.907,178.564,340.16,177.612z"/>
	<path style="fill:#103B9B;" d="M110.062,270.449c16.114,0,23.382-3.488,32.582-7.904c10.75-5.159,22.937-11.009,46.227-11.009   s35.475,5.849,46.227,11.009c9.201,4.416,16.469,7.904,32.585,7.904s23.385-3.488,32.586-7.904   c8.596-4.125,18.114-8.688,33.484-10.353c0.925-16.37,14.534-29.406,31.132-29.406c4.608,0,9.081,1.044,13.137,2.938v-9.348   c-8.715-4.171-16.037-7.395-31.525-7.395c-16.117,0-23.386,3.488-32.587,7.904c-10.751,5.16-22.937,11.008-46.228,11.008   s-35.475-5.849-46.228-11.008c-5.447-2.615-10.23-4.897-16.56-6.33h-32.045c-6.331,1.432-11.115,3.716-16.564,6.33   c-10.75,5.159-22.936,11.008-46.224,11.008c-23.291,0-35.476-5.849-46.228-11.008c-5.451-2.617-10.239-4.901-16.576-6.333h-8.126   v41.224c18.295,1.148,28.878,6.224,38.346,10.768C86.679,266.959,93.946,270.449,110.062,270.449z"/>
	<path style="fill:#103B9B;" d="M110.062,344.524c16.114,0,23.382-3.488,32.582-7.903c10.75-5.16,22.937-11.01,46.227-11.01   s35.475,5.85,46.227,11.009c9.201,4.416,16.469,7.904,32.585,7.904s23.385-3.488,32.586-7.904   c10.751-5.159,22.938-11.009,46.229-11.009c23.292,0,35.477,5.849,46.23,11.009c9.202,4.416,16.471,7.904,32.588,7.904   c16.118,0,23.386-3.488,32.59-7.904c9.465-4.542,20.047-9.618,38.335-10.767v-42.468c-10.893,0.962-17.149,3.956-24.695,7.577   c-10.752,5.16-22.938,11.008-46.23,11.008c-13.695,0-23.548-2.022-31.532-4.738v24.697c0,4.352-3.527,7.881-7.881,7.881   c-4.353,0-7.881-3.529-7.881-7.881v-31.476c-4.405-2.109-8.468-3.971-13.394-5.301H350.16c-1.981,0-3.871-0.753-5.313-2.072   c-14.957,0.235-22.061,3.622-30.936,7.882c-10.751,5.16-22.937,11.008-46.228,11.008s-35.475-5.849-46.228-11.008   c-9.2-4.415-16.469-7.904-32.584-7.904s-23.383,3.489-32.584,7.904c-10.75,5.159-22.936,11.008-46.224,11.008   c-23.291,0-35.476-5.849-46.228-11.008c-7.548-3.622-13.805-6.617-24.703-7.577v42.467C57.427,327,68.01,332.076,77.478,336.62   C86.679,341.036,93.946,344.524,110.062,344.524z"/>
</g>
<g>
	<path style="fill:#FFFFFF;" d="M267.681,227.894c23.291,0,35.476-5.848,46.228-11.008c9.201-4.417,16.47-7.904,32.587-7.904   c15.489,0,22.811,3.224,31.525,7.395V197.63c-14.978-1.931-28.277-9.275-37.861-20.017c-19.253,0.952-30.162,6.185-39.892,10.856   c-7.547,3.623-13.805,6.617-24.701,7.577v6.632c0,2.09-0.831,4.094-2.308,5.573c-1.48,1.478-3.483,2.308-5.574,2.308l-62.79-0.001   c6.33,1.433,11.113,3.715,16.56,6.33C232.207,222.045,244.391,227.894,267.681,227.894z"/>
	<path style="fill:#FFFFFF;" d="M425.314,196.372c-7.61,0-13.237-0.785-18.036-2.07c-4.291,1.601-8.812,2.723-13.495,3.327v25.527   c1.167,0.397,2.371,0.779,3.623,1.142c3.037-0.982,6.241-1.512,9.513-1.512c6.294,0,12.153,1.879,17.06,5.098   c0.443,0.004,0.883,0.011,1.335,0.011c23.292,0,35.477-5.848,46.23-11.008c7.546-3.622,13.802-6.616,24.695-7.577v-31.607   c-18.289,1.149-28.871,6.224-38.335,10.767C448.699,192.884,441.431,196.372,425.314,196.372z"/>
	<path style="fill:#FFFFFF;" d="M110.062,227.894c23.289,0,35.475-5.849,46.224-11.008c5.448-2.615,10.233-4.898,16.564-6.33   l-125.591-0.002c6.338,1.432,11.126,3.716,16.576,6.333C74.586,222.045,86.772,227.894,110.062,227.894z"/>
	<path style="fill:#FFFFFF;" d="M444.793,119.82c1.567,5.409,2.423,11.116,2.423,17.023c0,5.267-0.669,10.379-1.924,15.258   c11.288-2.116,19.09-5.855,26.249-9.291c7.546-3.622,13.802-6.616,24.695-7.577v-31.607c-18.289,1.149-28.871,6.224-38.335,10.767   C453.488,116.511,449.508,118.411,444.793,119.82z"/>
	<path style="fill:#FFFFFF;" d="M324.621,138.158c-0.01-0.439-0.033-0.874-0.033-1.315c0-12.081,3.527-23.346,9.584-32.85   c-15.618,1.627-25.23,6.236-33.904,10.399c-7.547,3.622-13.805,6.617-24.701,7.578v31.606c18.293-1.148,28.876-6.223,38.343-10.767   C317.557,141.058,320.907,139.459,324.621,138.158z"/>
	<path style="fill:#FFFFFF;" d="M346.495,60.829c16.117,0,23.386,3.488,32.59,7.904c10.751,5.16,22.937,11.008,46.229,11.008   s35.477-5.848,46.23-11.008c7.546-3.622,13.802-6.616,24.695-7.577v-8.208H275.566V79.5c18.293-1.148,28.876-6.223,38.343-10.767   C323.11,64.318,330.379,60.829,346.495,60.829z"/>
	<path style="fill:#FFFFFF;" d="M110.062,301.968c23.289,0,35.475-5.849,46.224-11.008c9.201-4.415,16.469-7.904,32.584-7.904   s23.384,3.489,32.584,7.904c10.752,5.159,22.937,11.008,46.228,11.008c23.291,0,35.476-5.848,46.228-11.008   c8.875-4.26,15.978-7.647,30.936-7.882c-0.274-0.249-0.538-0.512-0.775-0.803c-0.422-0.515-10.371-12.793-10.371-28.308   c0-0.597,0.021-1.189,0.054-1.777c-15.371,1.665-24.889,6.228-33.484,10.353c-9.201,4.416-16.47,7.904-32.586,7.904   s-23.384-3.488-32.585-7.904c-10.751-5.159-22.937-11.009-46.227-11.009s-35.476,5.849-46.227,11.009   c-9.2,4.416-16.468,7.904-32.582,7.904c-16.116,0-23.384-3.488-32.585-7.904c-9.468-4.543-20.051-9.62-38.346-10.768v31.608   c10.899,0.96,17.154,3.955,24.703,7.577C74.586,296.121,86.772,301.968,110.062,301.968z"/>
	<path style="fill:#FFFFFF;" d="M434.791,269.957c-2.936,7.233-6.796,12.002-7.058,12.32c-1.497,1.822-3.732,2.875-6.088,2.875   h-27.864v12.08c7.984,2.715,17.836,4.738,31.532,4.738c23.292,0,35.477-5.848,46.23-11.008c7.546-3.621,13.802-6.615,24.695-7.577   v-31.607c-18.289,1.149-28.871,6.223-38.335,10.767C450.731,265.985,444.716,268.854,434.791,269.957z"/>
	<path style="fill:#FFFFFF;" d="M364.627,285.151c4.927,1.33,8.989,3.192,13.394,5.301v-5.301H364.627z"/>
	<path style="fill:#FFFFFF;" d="M94.306,352.405h401.932v-26.552c-18.289,1.149-28.871,6.224-38.335,10.767   c-9.203,4.416-16.471,7.904-32.59,7.904c-16.117,0-23.386-3.488-32.589-7.904c-10.752-5.16-22.938-11.009-46.23-11.009   c-23.291,0-35.477,5.85-46.229,11.009c-9.201,4.416-16.47,7.904-32.586,7.904s-23.384-3.488-32.585-7.904   c-10.751-5.159-22.937-11.009-46.227-11.009s-35.476,5.85-46.227,11.01c-9.2,4.415-16.468,7.903-32.582,7.903   c-16.116,0-23.384-3.488-32.585-7.904c-9.468-4.543-20.051-9.62-38.346-10.768v26.553h23.65c4.353,0,7.881,3.527,7.881,7.88h15.766   C86.424,355.931,89.953,352.405,94.306,352.405z"/>
</g>
<g>
	<polygon style="fill:#103B9B;" points="170.747,163.63 170.747,194.794 217.5,194.795  "/>
	<polygon style="fill:#103B9B;" points="128.189,84.117 128.189,52.95 81.434,52.95  "/>
	<polygon style="fill:#103B9B;" points="219.748,145.15 259.803,171.851 259.803,145.15  "/>
	<polygon style="fill:#103B9B;" points="128.189,163.63 81.44,194.792 128.189,194.793  "/>
	<polygon style="fill:#103B9B;" points="39.132,75.894 39.132,102.595 79.188,102.595  "/>
	<polygon style="fill:#103B9B;" points="219.748,102.595 259.803,102.595 259.803,75.894  "/>
	<polygon style="fill:#103B9B;" points="170.747,84.117 217.502,52.95 170.747,52.95  "/>
	<polygon style="fill:#103B9B;" points="79.188,145.15 39.132,145.15 39.132,171.851  "/>
</g>
<polygon style="fill:#FFFFFF;" points="255.863,52.95 181.386,102.595 170.747,102.595 170.747,92.644 230.291,52.95 217.502,52.95   170.747,84.117 170.747,52.95 160.895,52.95 160.895,112.446 259.803,112.446 259.803,102.595 219.748,102.595 259.803,75.894   259.803,52.95 "/>
<g>
	<polygon style="fill:#ED1F34;" points="181.386,145.15 255.863,194.796 259.803,194.796 259.803,180.726 206.56,145.15  "/>
	<polygon style="fill:#ED1F34;" points="170.747,92.644 170.747,102.595 181.386,102.595 255.863,52.95 230.291,52.95  "/>
	<polygon style="fill:#ED1F34;" points="117.549,102.595 43.073,52.95 39.132,52.95 39.132,67.395 91.812,102.595  "/>
	<polygon style="fill:#ED1F34;" points="128.189,155.105 128.189,145.15 117.549,145.15 43.079,194.791 68.653,194.792  "/>
</g>
<g>
	<polygon style="fill:#FFFFFF;" points="138.039,135.3 39.132,135.3 39.132,145.15 79.188,145.15 39.132,171.851 39.132,194.791    43.079,194.791 117.549,145.15 128.189,145.15 128.189,155.105 68.653,194.792 81.44,194.792 128.189,163.63 128.189,194.793    138.039,194.794  "/>
	<polygon style="fill:#FFFFFF;" points="138.039,112.446 138.039,52.95 128.189,52.95 128.189,84.117 81.434,52.95 43.073,52.95    117.549,102.595 91.812,102.595 39.132,67.395 39.132,75.894 79.188,102.595 39.132,102.595 39.132,112.446  "/>
	<polygon style="fill:#FFFFFF;" points="160.895,135.3 160.895,194.794 170.747,194.794 170.747,163.63 217.5,194.795    255.863,194.796 181.386,145.15 206.56,145.15 259.803,180.726 259.803,171.851 219.748,145.15 259.803,145.15 259.803,135.3  "/>
</g>
<polygon style="fill:#ED1F34;" points="160.895,112.446 160.895,52.95 138.039,52.95 138.039,112.446 39.132,112.446 39.132,135.3   138.039,135.3 138.039,194.794 160.895,194.794 160.895,135.3 259.803,135.3 259.803,112.446 "/>
<path d="M504.118,37.188h-236.24c-0.065-0.001-0.129-0.01-0.193-0.01c-0.066,0-0.129,0.008-0.193,0.01H31.251  c-4.354,0-7.882,3.528-7.882,7.88v315.216c0,4.353,3.528,7.881,7.882,7.881h31.53c4.353,0,7.881-3.528,7.881-7.881  s-3.528-7.88-7.881-7.88h-23.65v-26.553v-42.467v-31.608v-41.225h8.126l125.591,0.002h32.045l62.791,0.004  c2.09,0,4.094-0.831,5.574-2.308c1.478-1.479,2.308-3.482,2.308-5.573v-6.632v-42.468v-31.606V79.5V52.95h220.671v8.208v42.468  v31.607v42.468v31.607v42.468v31.607v42.468v26.552H94.306c-4.354,0-7.882,3.527-7.882,7.88s3.528,7.881,7.882,7.881h409.812  c4.354,0,7.882-3.528,7.882-7.881V45.069C512,40.717,508.472,37.188,504.118,37.188z M259.803,102.595v9.85v22.853v9.85v26.702  v8.875v14.07h-3.94l-38.363-0.001l-46.753-0.001h-9.851h-22.856h-9.85l-46.749-0.001H68.653l-25.573-0.001h-3.947v-22.94V145.15  v-9.85v-22.853v-9.85V75.894v-8.499V52.95h3.941h38.361h46.756h9.85h22.856h9.851h46.756h12.788h25.572h3.94v22.945V102.595z"/>
<path style="fill:#259245;" d="M385.901,182.392c25.118,0,45.553-20.433,45.553-45.548s-20.434-45.548-45.553-45.548  c-25.118,0-45.553,20.433-45.553,45.548S360.785,182.392,385.901,182.392z"/>
<path style="fill:#ED1F34;" d="M417.505,269.391c2.012-3.313,4.837-9.096,4.837-15.424c0-8.504-6.918-15.423-15.424-15.423  c-5.896,0-11.357,3.436-13.914,8.756c-1.312,2.73-4.074,4.468-7.104,4.468c-3.031,0-5.791-1.737-7.103-4.468  c-2.556-5.32-8.018-8.756-13.915-8.756c-8.504,0-15.424,6.918-15.424,15.423c0,6.342,2.828,12.122,4.832,15.424H417.505z"/>
<path d="M421.646,285.151c2.357,0,4.591-1.054,6.088-2.875c0.26-0.318,4.121-5.087,7.058-12.32  c1.837-4.527,3.313-10.016,3.313-15.989c0-10.902-5.628-20.509-14.127-26.084c-4.905-3.219-10.766-5.098-17.06-5.098  c-3.273,0-6.477,0.53-9.513,1.512c-1.238,0.4-2.448,0.877-3.623,1.427v-2.567v-25.527c4.682-0.603,9.203-1.726,13.495-3.327  c18.633-6.953,33.007-22.716,38.017-42.201c1.255-4.879,1.924-9.991,1.924-15.258c0-5.907-0.857-11.615-2.423-17.023  c-7.4-25.547-30.991-44.285-58.892-44.285c-21.727,0-40.837,11.369-51.73,28.46c-6.057,9.504-9.584,20.769-9.584,32.85  c0,0.442,0.023,0.876,0.033,1.315c0.322,15.125,6.136,28.916,15.54,39.454c9.584,10.74,22.884,18.085,37.861,20.017v18.747v9.348  c-4.056-1.894-8.529-2.938-13.137-2.938c-16.599,0-30.207,13.036-31.132,29.406c-0.033,0.588-0.054,1.18-0.054,1.777  c0,15.515,9.948,27.792,10.371,28.308c0.239,0.29,0.502,0.553,0.775,0.803c1.443,1.319,3.332,2.072,5.313,2.072h14.469h13.394v5.301  v31.476c0,4.352,3.528,7.881,7.881,7.881c4.354,0,7.881-3.529,7.881-7.881v-24.697v-12.08h27.864V285.151z M349.46,253.968  c0-8.504,6.919-15.423,15.424-15.423c5.898,0,11.359,3.436,13.915,8.756c1.311,2.73,4.073,4.468,7.103,4.468  c3.031,0,5.791-1.737,7.104-4.468c2.556-5.32,8.018-8.756,13.914-8.756c8.505,0,15.424,6.918,15.424,15.423  c0,6.327-2.826,12.11-4.837,15.424h-63.213C352.288,266.09,349.46,260.31,349.46,253.968z M385.901,91.295  c25.118,0,45.553,20.433,45.553,45.548s-20.434,45.548-45.553,45.548c-25.118,0-45.553-20.433-45.553-45.548  S360.785,91.295,385.901,91.295z"/>
<path style="fill:#2E3033;" d="M21.536,488.1c-6.603,0-11.976-5.373-11.976-11.976V35.766c0-6.542,5.323-11.865,11.865-11.865h1.565  c6.604,0,11.976,5.373,11.976,11.976v440.247c0,6.604-5.373,11.976-11.976,11.976h-1.454V488.1z"/>
<path d="M22.99,14.34h-1.565C9.611,14.34,0,23.951,0,35.766v440.358C0,488,9.661,497.66,21.536,497.66h1.453  c11.876,0,21.536-9.661,21.536-21.536V35.876C44.526,24.001,34.865,14.34,22.99,14.34z M28.592,476.124  c0,3.089-2.513,5.602-5.602,5.602h-1.453c-3.089,0-5.602-2.513-5.602-5.602V35.766c0-3.028,2.463-5.492,5.492-5.492h1.565  c3.089,0,5.602,2.513,5.602,5.602v440.248H28.592z"/>
<g>
</g>
<g>
</g>
<g>
</g>
<g>
</g>
<g>
</g>
<g>
</g>
<g>
</g>
<g>
</g>
<g>
</g>
<g>
</g>
<g>
</g>
<g>
</g>
<g>
</g>
<g>
</g>
<g>
</g>
</svg>
