<?xml version="1.0" encoding="iso-8859-1"?>
<!-- Generator: Adobe Illustrator 19.0.0, SVG Export Plug-In . SVG Version: 6.00 Build 0)  -->
<svg xmlns="http://www.w3.org/2000/svg" xmlns:xlink="http://www.w3.org/1999/xlink" version="1.1" id="Layer_1" x="0px" y="0px" viewBox="0 0 512.001 512.001" style="enable-background:new 0 0 512.001 512.001;" xml:space="preserve">
<g>
	<path style="fill:#103B9B;" d="M39.132,287.062v38.793c18.292,1.148,28.878,6.223,38.344,10.767   c0.673,0.324,1.335,0.641,1.992,0.952c8.682-11.51,18.407-22.203,29.013-31.937c-22.262-0.259-34.141-5.954-44.646-10.996   C56.286,291.016,50.028,288.023,39.132,287.062z"/>
	<path style="fill:#103B9B;" d="M496.237,325.855v-38.793c-10.895,0.96-17.149,3.955-24.697,7.578   c-10.506,5.041-22.387,10.738-44.654,10.996c10.608,9.737,20.333,20.429,29.015,31.941c0.659-0.312,1.322-0.631,1.999-0.955   C467.367,332.077,477.946,327.003,496.237,325.855z"/>
	<path style="fill:#103B9B;" d="M392.723,266.22c9.202,4.417,16.471,7.904,32.588,7.904c16.118,0,23.386-3.487,32.59-7.904   c9.467-4.543,20.046-9.619,38.337-10.768v-38.793c-10.895,0.961-17.149,3.956-24.697,7.578   c-10.751,5.16-22.937,11.009-46.23,11.009c-23.291,0-35.477-5.849-46.229-11.009c-9.203-4.416-16.471-7.904-32.59-7.904   c-16.117,0-23.386,3.488-32.587,7.904c-10.751,5.16-22.937,11.009-46.228,11.009s-35.475-5.849-46.228-11.009   c-9.2-4.416-16.469-7.904-32.584-7.904s-23.383,3.488-32.584,7.904c-10.75,5.16-22.936,11.009-46.224,11.009   c-23.291,0-35.475-5.849-46.228-11.009c-7.546-3.622-13.805-6.617-24.701-7.578v38.793c18.292,1.149,28.878,6.224,38.344,10.768   c9.201,4.417,16.47,7.904,32.585,7.904c16.114,0,23.382-3.487,32.582-7.904c10.751-5.159,22.937-11.008,46.227-11.008   c1.91,0,3.738,0.042,5.503,0.117c23.547-7.692,48.311-11.676,73.312-11.676s49.766,3.984,73.312,11.676   c1.764-0.074,3.591-0.117,5.5-0.117C369.786,255.212,381.971,261.06,392.723,266.22z"/>
</g>
<path style="fill:#FFFFFF;" d="M110.06,235.248c23.289,0,35.475-5.849,46.224-11.009c9.201-4.416,16.469-7.904,32.584-7.904  s23.384,3.488,32.584,7.904c10.752,5.16,22.937,11.009,46.228,11.009s35.476-5.849,46.228-11.009  c9.201-4.416,16.47-7.904,32.587-7.904c16.118,0,23.386,3.488,32.59,7.904c10.751,5.16,22.938,11.009,46.229,11.009  c23.293,0,35.478-5.849,46.23-11.009c7.548-3.622,13.802-6.617,24.697-7.578v-6.106H39.132v6.106  c10.896,0.961,17.154,3.956,24.701,7.578C74.585,229.399,86.77,235.248,110.06,235.248z"/>
<g>
	<polygon style="fill:#103B9B;" points="496.237,102.589 496.237,73.26 408.242,102.589  "/>
	<polygon style="fill:#103B9B;" points="225.125,163.625 131.614,194.793 225.125,194.793  "/>
	<polygon style="fill:#103B9B;" points="496.237,174.474 496.237,145.144 408.242,145.144  "/>
	<polygon style="fill:#103B9B;" points="310.241,194.793 403.751,194.793 310.241,163.625  "/>
	<polygon style="fill:#103B9B;" points="39.132,145.144 39.132,174.474 127.124,145.144  "/>
	<polygon style="fill:#103B9B;" points="39.132,73.26 39.132,102.589 127.124,102.589  "/>
	<polygon style="fill:#103B9B;" points="225.125,52.94 131.615,52.94 225.125,84.109  "/>
	<polygon style="fill:#103B9B;" points="403.751,52.94 310.241,52.94 310.241,84.109  "/>
</g>
<polygon style="fill:#FFFFFF;" points="203.846,145.144 225.125,145.144 225.125,155.1 106.04,194.793 131.614,194.793   225.125,163.625 225.125,194.793 244.827,194.793 244.827,135.293 39.132,135.293 39.132,145.144 127.124,145.144 39.132,174.474   39.132,194.793 54.894,194.793 "/>
<g>
	<polygon style="fill:#ED1F34;" points="203.846,102.589 54.894,52.94 39.132,52.94 39.132,64.754 152.37,102.589  "/>
	<polygon style="fill:#ED1F34;" points="225.125,145.144 203.846,145.144 54.894,194.793 106.04,194.793 225.125,155.1  "/>
	<polygon style="fill:#ED1F34;" points="331.521,145.144 480.475,194.793 496.237,194.793 496.237,183.355 381.869,145.144  "/>
	<polygon style="fill:#ED1F34;" points="310.241,102.589 331.521,102.589 480.475,52.94 429.328,52.94 310.241,92.637  "/>
</g>
<g>
	<polygon style="fill:#FFFFFF;" points="290.539,112.44 496.237,112.44 496.237,102.589 408.242,102.589 496.237,73.26    496.237,52.94 480.475,52.94 331.521,102.589 310.241,102.589 310.241,92.637 429.328,52.94 403.751,52.94 310.241,84.109    310.241,52.94 290.539,52.94  "/>
	<polygon style="fill:#FFFFFF;" points="290.539,135.293 290.539,194.793 310.241,194.793 310.241,163.625 403.751,194.793    480.475,194.793 331.521,145.144 381.869,145.144 496.237,183.355 496.237,174.474 408.242,145.144 496.237,145.144    496.237,135.293  "/>
	<polygon style="fill:#FFFFFF;" points="244.827,112.44 244.827,52.94 225.125,52.94 225.125,84.109 131.615,52.94 54.894,52.94    203.846,102.589 152.37,102.589 39.132,64.754 39.132,73.26 127.124,102.589 39.132,102.589 39.132,112.44  "/>
</g>
<polygon style="fill:#ED1F34;" points="244.827,135.293 244.827,194.793 290.539,194.793 290.539,135.293 496.237,135.293   496.237,112.44 290.539,112.44 290.539,52.94 244.827,52.94 244.827,112.44 39.132,112.44 39.132,135.293 "/>
<g>
	<path style="fill:#FFFFFF;" d="M496.237,287.062v-31.609c-18.292,1.149-28.871,6.224-38.337,10.768   c-9.203,4.417-16.471,7.904-32.59,7.904c-16.117,0-23.386-3.487-32.589-7.904c-10.752-5.16-22.937-11.008-46.23-11.008   c-1.909,0-3.736,0.042-5.5,0.117c15.083,4.928,29.666,11.371,43.486,19.278c15.267,8.734,29.49,19.172,42.406,31.028   c22.268-0.257,34.149-5.954,44.654-10.996C479.09,291.016,485.342,288.023,496.237,287.062z"/>
	<path style="fill:#FFFFFF;" d="M142.642,266.22c-9.2,4.417-16.468,7.904-32.582,7.904c-16.115,0-23.384-3.487-32.585-7.904   c-9.466-4.543-20.052-9.619-38.344-10.768v31.609c10.896,0.96,17.154,3.955,24.701,7.578c10.506,5.041,22.384,10.736,44.646,10.996   c12.916-11.856,27.138-22.294,42.406-31.028c13.821-7.906,28.404-14.351,43.486-19.278c-1.765-0.074-3.594-0.117-5.503-0.117   C165.579,255.212,153.393,261.061,142.642,266.22z"/>
	<path style="fill:#FFFFFF;" d="M39.132,325.855v26.553h30.042c3.25-5.074,6.671-10.032,10.292-14.834   c-0.656-0.312-1.318-0.629-1.992-0.952C68.009,332.077,57.424,327.003,39.132,325.855z"/>
	<path style="fill:#FFFFFF;" d="M496.237,325.855c-18.292,1.148-28.871,6.223-38.337,10.767c-0.677,0.325-1.341,0.643-1.999,0.955   c3.62,4.801,7.04,9.758,10.289,14.831h30.048V325.855z"/>
</g>
<path style="fill:#FFE000;" d="M398.813,352.407h48.431c-41.229-58.49-107.339-92.993-179.561-92.993S129.35,293.916,88.121,352.407  h279.167c4.354,0,7.882,3.527,7.882,7.88h15.763C390.932,355.934,394.461,352.407,398.813,352.407z"/>
<path d="M504.118,37.179H31.251c-4.354,0-7.882,3.528-7.882,7.881v157.613v157.614c0,4.353,3.528,7.882,7.882,7.882h336.038  c4.354,0,7.882-3.529,7.882-7.882s-3.528-7.88-7.882-7.88H88.121c41.229-58.49,107.339-92.993,179.561-92.993  s138.332,34.502,179.561,92.993h-48.431c-4.353,0-7.881,3.527-7.881,7.88s3.528,7.882,7.881,7.882h63.04c0.006,0,0.012,0,0.017,0  c0.005,0,0.011,0,0.016,0h42.234c4.354,0,7.882-3.529,7.882-7.882V202.673V45.06C512,40.707,508.472,37.179,504.118,37.179z   M466.19,352.407c-3.248-5.073-6.668-10.03-10.289-14.831c-8.683-11.512-18.408-22.204-29.015-31.941  c-12.916-11.856-27.139-22.294-42.406-31.028c-13.821-7.906-28.403-14.351-43.486-19.278c-23.546-7.692-48.311-11.676-73.312-11.676  s-49.765,3.984-73.312,11.676c-15.082,4.928-29.666,11.371-43.486,19.278c-15.268,8.734-29.49,19.172-42.406,31.028  c-10.605,9.734-20.331,20.427-29.013,31.937c-3.621,4.802-7.043,9.76-10.292,14.834H39.132v-26.553v-38.793v-31.609v-38.793v-6.106  h457.106v6.106v38.793v31.609v38.793v26.553H466.19z M39.132,174.474v-29.33v-9.85V112.44v-9.85V73.261v-8.506V52.94h15.763h76.721  h93.509h19.704h45.71h19.702h93.51h25.577h51.147h15.763v20.32v29.328v9.85v22.854v9.85v29.33v8.881v11.438h-15.763H403.75h-93.51  h-19.702h-45.71h-19.704h-93.51H106.04H54.894H39.132V174.474z"/>
<path style="fill:#2E3033;" d="M21.536,488.1c-6.603,0-11.976-5.373-11.976-11.976V35.766c0-6.542,5.323-11.865,11.865-11.865h1.565  c6.604,0,11.976,5.373,11.976,11.976v440.247c0,6.604-5.373,11.976-11.976,11.976h-1.454V488.1z"/>
<path d="M22.99,14.341h-1.565C9.611,14.341,0,23.952,0,35.766v440.358C0,488,9.661,497.66,21.536,497.66h1.453  c11.876,0,21.536-9.661,21.536-21.536V35.877C44.526,24.002,34.865,14.341,22.99,14.341z M28.592,476.124  c0,3.089-2.513,5.602-5.602,5.602h-1.453c-3.089,0-5.602-2.513-5.602-5.602V35.766c0-3.028,2.463-5.492,5.492-5.492h1.565  c3.089,0,5.602,2.513,5.602,5.602v440.248H28.592z"/>
<g>
</g>
<g>
</g>
<g>
</g>
<g>
</g>
<g>
</g>
<g>
</g>
<g>
</g>
<g>
</g>
<g>
</g>
<g>
</g>
<g>
</g>
<g>
</g>
<g>
</g>
<g>
</g>
<g>
</g>
</svg>
