<?xml version="1.0" encoding="iso-8859-1"?>
<!-- Generator: Adobe Illustrator 19.0.0, SVG Export Plug-In . SVG Version: 6.00 Build 0)  -->
<svg xmlns="http://www.w3.org/2000/svg" xmlns:xlink="http://www.w3.org/1999/xlink" version="1.1" id="Layer_1" x="0px" y="0px" viewBox="0 0 512 512" style="enable-background:new 0 0 512 512;" xml:space="preserve">
<g>
	<path style="fill:#3DB4EA;" d="M135.976,349.884h360.677v-81.862H51.562v81.862h53.719c4.239,0,7.674,3.436,7.674,7.674h15.348   C128.301,353.32,131.737,349.884,135.976,349.884z"/>
	<rect x="51.562" y="58.275" style="fill:#3DB4EA;" width="445.088" height="81.858"/>
</g>
<rect x="51.562" y="173.387" style="fill:#333333;" width="445.088" height="61.388"/>
<g>
	<rect x="51.562" y="140.133" style="fill:#FFFFFF;" width="445.088" height="17.9"/>
	<rect x="51.562" y="250.125" style="fill:#FFFFFF;" width="445.088" height="17.9"/>
</g>
<path d="M504.326,42.925H43.888c-4.239,0-7.674,3.435-7.674,7.674v306.959c0,4.24,3.435,7.675,7.674,7.675h61.392  c4.239,0,7.674-3.435,7.674-7.675c0-4.238-3.435-7.674-7.674-7.674H51.562v-81.862v-17.9h445.091v17.9v81.862H135.976  c-4.239,0-7.675,3.436-7.675,7.674c0,4.24,3.436,7.675,7.675,7.675h368.35c4.239,0,7.674-3.435,7.674-7.675V50.599  C512,46.36,508.565,42.925,504.326,42.925z M496.652,58.273v81.862v17.9H51.562v-17.9V58.273H496.652z M51.562,173.383h445.091  v61.392H51.562V173.383z"/>
<path style="fill:#2E3033;" d="M20.97,482.004c-6.429,0-11.661-5.232-11.661-11.661V41.55c0-6.371,5.183-11.554,11.554-11.554h1.524  c6.431,0,11.661,5.232,11.661,11.661v428.685c0,6.431-5.232,11.661-11.661,11.661H20.97V482.004z"/>
<path d="M22.386,20.687h-1.524C9.359,20.687,0,30.046,0,41.55v428.793c0,11.563,9.407,20.97,20.97,20.97h1.415  c11.564,0,20.97-9.407,20.97-20.97V41.657C43.357,30.094,33.949,20.687,22.386,20.687z M27.841,470.343  c0,3.008-2.447,5.455-5.455,5.455h-1.415c-3.008,0-5.455-2.447-5.455-5.455V41.55c0-2.949,2.399-5.348,5.348-5.348h1.524  c3.008,0,5.455,2.447,5.455,5.455v428.686H27.841z"/>
<g>
</g>
<g>
</g>
<g>
</g>
<g>
</g>
<g>
</g>
<g>
</g>
<g>
</g>
<g>
</g>
<g>
</g>
<g>
</g>
<g>
</g>
<g>
</g>
<g>
</g>
<g>
</g>
<g>
</g>
</svg>
