<?xml version="1.0" encoding="iso-8859-1"?>
<!-- Generator: Adobe Illustrator 19.0.0, SVG Export Plug-In . SVG Version: 6.00 Build 0)  -->
<svg xmlns="http://www.w3.org/2000/svg" xmlns:xlink="http://www.w3.org/1999/xlink" version="1.1" id="Layer_1" x="0px" y="0px" viewBox="0 0 512 512" style="enable-background:new 0 0 512 512;" xml:space="preserve">
<g>
	<path style="fill:#103B9B;" d="M427.531,82.349c0,4.213-3.414,7.628-7.628,7.628h-0.001v15.256h0.001   c4.213,0,7.628,3.415,7.628,7.628v236.466h66.128V59.465h-66.128V82.349z"/>
	<path style="fill:#103B9B;" d="M372.39,337.398c6.648,0,12.042,5.316,12.19,11.928h19.175L165.416,59.465h-20.092   c-0.149,6.611-5.544,11.928-12.19,11.928c-6.648,0-12.042-5.316-12.19-11.928H51.24v289.862h308.959   C360.347,342.715,365.743,337.398,372.39,337.398z M173.01,119.796c-6.74,0-12.205-5.464-12.205-12.205   c0-6.74,5.464-12.205,12.205-12.205s12.205,5.464,12.205,12.205C185.213,114.33,179.75,119.796,173.01,119.796z M212.885,168.197   c-6.74,0-12.205-5.464-12.205-12.205c0-6.741,5.464-12.205,12.205-12.205c6.74,0,12.205,5.463,12.205,12.205   C225.091,162.733,219.626,168.197,212.885,168.197z M252.761,216.6c-6.74,0-12.205-5.464-12.205-12.205   c0-6.741,5.464-12.205,12.205-12.205c6.74,0,12.205,5.463,12.205,12.205C264.966,211.135,259.502,216.6,252.761,216.6z    M292.638,265.002c-6.74,0-12.205-5.464-12.205-12.205c0-6.741,5.464-12.205,12.205-12.205c6.741,0,12.205,5.463,12.205,12.205   C304.843,259.538,299.378,265.002,292.638,265.002z M332.514,313.405c-6.741,0-12.205-5.464-12.205-12.205   c0-6.74,5.463-12.205,12.205-12.205c6.74,0,12.205,5.463,12.205,12.205S339.254,313.405,332.514,313.405z"/>
</g>
<g>
	<path style="fill:#FFFFFF;" d="M372.39,337.398c-6.647,0-12.042,5.316-12.19,11.928h24.382   C384.432,342.715,379.037,337.398,372.39,337.398z"/>
	<circle style="fill:#FFFFFF;" cx="332.512" cy="301.196" r="12.205"/>
	<circle style="fill:#FFFFFF;" cx="292.642" cy="252.803" r="12.205"/>
	<circle style="fill:#FFFFFF;" cx="252.761" cy="204.399" r="12.205"/>
	<circle style="fill:#FFFFFF;" cx="212.881" cy="155.995" r="12.205"/>
	<circle style="fill:#FFFFFF;" cx="173.011" cy="107.592" r="12.205"/>
	<path style="fill:#FFFFFF;" d="M133.133,71.392c6.647,0,12.041-5.316,12.19-11.928h-24.381   C121.091,66.076,126.486,71.392,133.133,71.392z"/>
</g>
<path style="fill:#FFE000;" d="M412.275,82.349V59.465H185.166l227.109,276.201V112.86c0-4.213,3.414-7.628,7.628-7.628V89.976  C415.689,89.976,412.275,86.561,412.275,82.349z"/>
<path d="M504.371,44.209H46.696c-4.212,0-7.628,3.415-7.628,7.628v305.117c0,4.213,3.415,7.628,7.628,7.628h457.676  c4.214,0,7.629-3.415,7.629-7.628V51.836C512,47.624,508.586,44.209,504.371,44.209z M493.659,349.326h-66.128V112.86  c0-4.213-3.414-7.628-7.628-7.628h-0.001c-4.213,0-7.628,3.415-7.628,7.628v222.806L185.166,59.465h227.109v22.884  c0,4.213,3.414,7.628,7.628,7.628h0.001c4.213,0,7.628-3.415,7.628-7.628V59.465h66.128L493.659,349.326L493.659,349.326z   M51.24,349.326V59.465h69.703h24.381h20.091l238.34,289.862H384.58h-24.381H51.24V349.326z"/>
<path style="fill:#2E3033;" d="M20.844,480.643c-6.391,0-11.591-5.2-11.591-11.591V42.841c0-6.332,5.152-11.484,11.484-11.484h1.514  c6.392,0,11.591,5.2,11.591,11.591v426.102c0,6.392-5.2,11.591-11.591,11.591h-1.407V480.643z"/>
<path d="M22.251,22.104h-1.514C9.302,22.104,0,31.407,0,42.841v426.21c0,11.494,9.351,20.844,20.844,20.844h1.406  c11.494,0,20.844-9.351,20.844-20.844V42.948C43.095,31.455,33.745,22.104,22.251,22.104z M27.674,469.052  c0,2.99-2.433,5.422-5.422,5.422h-1.406c-2.99,0-5.422-2.432-5.422-5.422V42.841c0-2.931,2.384-5.315,5.315-5.315h1.514  c2.99,0,5.422,2.433,5.422,5.422v426.103H27.674z"/>
<g>
</g>
<g>
</g>
<g>
</g>
<g>
</g>
<g>
</g>
<g>
</g>
<g>
</g>
<g>
</g>
<g>
</g>
<g>
</g>
<g>
</g>
<g>
</g>
<g>
</g>
<g>
</g>
<g>
</g>
</svg>
