<?xml version="1.0" encoding="iso-8859-1"?>
<!-- Generator: Adobe Illustrator 19.0.0, SVG Export Plug-In . SVG Version: 6.00 Build 0)  -->
<svg xmlns="http://www.w3.org/2000/svg" xmlns:xlink="http://www.w3.org/1999/xlink" version="1.1" id="Layer_1" x="0px" y="0px" viewBox="0 0 512.002 512.002" style="enable-background:new 0 0 512.002 512.002;" xml:space="preserve">
<polygon style="fill:#FFE000;" points="233.25,52.942 39.132,52.942 39.132,182.356 "/>
<g>
	<path style="fill:#FFFFFF;" d="M166.848,160.455c-15.934,0-28.897,12.964-28.897,28.897s12.964,28.897,28.897,28.897   s28.898-12.964,28.898-28.897S182.782,160.455,166.848,160.455z M166.848,207.74c-10.139,0-18.39-8.249-18.39-18.389   c0-10.14,8.249-18.39,18.39-18.39c10.14,0,18.39,8.249,18.39,18.39C185.238,199.491,176.988,207.74,166.848,207.74z"/>
	<path style="fill:#FFFFFF;" d="M439.625,88.057c-2.414-3.621-1.436-8.515,2.186-10.929l36.279-24.186H261.664L39.132,201.3v144.281   L415.58,94.614c3.62-2.413,8.515-1.435,10.928,2.186L439.625,88.057L439.625,88.057z M166.848,234.012   c-24.626,0-44.66-20.034-44.66-44.66s20.034-44.66,44.66-44.66s44.66,20.034,44.66,44.66S191.473,234.012,166.848,234.012z"/>
</g>
<path style="fill:#164FCE;" d="M450.554,90.243c-1.344,0.895-2.862,1.325-4.365,1.325c-2.546,0-5.046-1.232-6.565-3.511  L426.509,96.8c2.414,3.621,1.436,8.515-2.186,10.929L57.279,352.425h438.958V59.786L450.554,90.243z"/>
<path d="M512,45.085V45.06c0-0.042-0.005-0.083-0.006-0.124c-0.003-0.217-0.012-0.433-0.033-0.65  c-0.008-0.088-0.024-0.173-0.036-0.259c-0.022-0.169-0.045-0.338-0.078-0.507c-0.022-0.114-0.054-0.224-0.082-0.336  c-0.033-0.136-0.064-0.273-0.105-0.408c-0.041-0.136-0.091-0.268-0.139-0.4c-0.039-0.107-0.074-0.217-0.118-0.323  c-0.067-0.16-0.143-0.317-0.221-0.472c-0.037-0.074-0.069-0.152-0.109-0.226c-0.106-0.199-0.222-0.388-0.343-0.576  c-0.019-0.03-0.034-0.062-0.054-0.091c-0.002-0.002-0.004-0.005-0.005-0.007c-0.148-0.22-0.304-0.432-0.471-0.635  c-0.09-0.11-0.189-0.208-0.285-0.312c-0.076-0.083-0.149-0.171-0.228-0.251c-0.136-0.136-0.279-0.261-0.424-0.386  c-0.048-0.041-0.092-0.087-0.142-0.127c-0.135-0.11-0.276-0.21-0.417-0.311c-0.068-0.048-0.133-0.101-0.202-0.148  c-0.121-0.081-0.246-0.152-0.371-0.225c-0.098-0.058-0.194-0.12-0.294-0.174c-0.099-0.053-0.201-0.097-0.302-0.146  c-0.133-0.064-0.264-0.13-0.4-0.187c-0.073-0.03-0.15-0.054-0.224-0.082c-0.166-0.064-0.33-0.126-0.501-0.177  c-0.055-0.016-0.11-0.028-0.166-0.044c-0.19-0.053-0.38-0.105-0.576-0.143c-0.061-0.013-0.121-0.018-0.182-0.028  c-0.217-0.038-0.434-0.07-0.656-0.09c-0.232-0.021-0.464-0.034-0.697-0.035c-0.005,0-0.01-0.001-0.015-0.001H259.324  c-0.003,0-0.007,0-0.011,0H31.25c-4.352,0.001-7.881,3.53-7.881,7.882v151.967c0,0.011,0,0.02,0,0.03V360.25c0,0.011,0,0.02,0,0.03  v0.024c0,0.043,0.005,0.083,0.006,0.124c0.003,0.217,0.012,0.433,0.033,0.649c0.008,0.088,0.024,0.172,0.036,0.259  c0.022,0.169,0.045,0.338,0.078,0.506c0.022,0.114,0.054,0.224,0.082,0.336c0.033,0.137,0.064,0.273,0.105,0.409  c0.041,0.136,0.091,0.268,0.139,0.399c0.039,0.108,0.074,0.217,0.118,0.323c0.067,0.161,0.143,0.317,0.221,0.473  c0.037,0.075,0.069,0.152,0.109,0.226c0.105,0.198,0.221,0.389,0.343,0.576c0.019,0.031,0.034,0.062,0.054,0.091  c0.002,0.002,0.003,0.004,0.005,0.006c0.17,0.253,0.356,0.493,0.553,0.724c0.063,0.074,0.129,0.142,0.193,0.212  c0.136,0.149,0.276,0.292,0.423,0.429c0.083,0.078,0.166,0.155,0.251,0.228c0.155,0.133,0.315,0.258,0.481,0.378  c0.071,0.053,0.14,0.11,0.214,0.16c0.236,0.16,0.482,0.309,0.736,0.444c0.063,0.034,0.129,0.061,0.192,0.092  c0.203,0.101,0.409,0.194,0.621,0.278c0.082,0.032,0.164,0.062,0.246,0.09c0.201,0.071,0.405,0.135,0.614,0.19  c0.085,0.022,0.169,0.045,0.254,0.065c0.214,0.049,0.431,0.088,0.651,0.119c0.08,0.012,0.158,0.027,0.238,0.036  c0.272,0.031,0.547,0.048,0.826,0.05c0.022,0,0.045,0.004,0.067,0.004c0.004,0,0.01-0.001,0.014-0.001h472.847  c4.353,0,7.881-3.529,7.881-7.881V45.115C512,45.105,512,45.095,512,45.085z M233.25,52.942L39.132,182.356V52.942H233.25z   M57.279,352.425l367.045-244.696c3.622-2.414,4.601-7.308,2.186-10.929c-2.413-3.621-7.308-4.6-10.928-2.186L39.132,345.581V201.3  L261.664,52.942h216.425L441.81,77.128c-3.622,2.413-4.601,7.307-2.186,10.929l0,0c1.519,2.279,4.017,3.511,6.565,3.511  c1.503,0,3.021-0.429,4.365-1.325l45.684-30.455v292.639H57.279V352.425z"/>
<path d="M166.848,144.692c-24.626,0-44.66,20.034-44.66,44.66s20.034,44.66,44.66,44.66s44.66-20.034,44.66-44.66  S191.473,144.692,166.848,144.692z M166.848,218.249c-15.934,0-28.897-12.964-28.897-28.897s12.964-28.897,28.897-28.897  s28.898,12.964,28.898,28.897S182.782,218.249,166.848,218.249z"/>
<path style="fill:#ED1F34;" d="M166.848,170.962c-10.139,0-18.39,8.249-18.39,18.39s8.249,18.389,18.39,18.389  c10.14,0,18.39-8.249,18.39-18.389S176.988,170.962,166.848,170.962z"/>
<path style="fill:#2E3033;" d="M21.536,488.101c-6.603,0-11.976-5.373-11.976-11.976V35.767c0-6.542,5.323-11.865,11.865-11.865  h1.565c6.604,0,11.976,5.373,11.976,11.976v440.247c0,6.604-5.373,11.976-11.976,11.976h-1.454V488.101z"/>
<path d="M22.99,14.341h-1.565C9.611,14.341,0,23.952,0,35.767v440.358c0,11.876,9.661,21.536,21.536,21.536h1.453  c11.876,0,21.536-9.661,21.536-21.536V35.877C44.526,24.002,34.865,14.341,22.99,14.341z M28.592,476.125  c0,3.089-2.513,5.602-5.602,5.602h-1.453c-3.089,0-5.602-2.513-5.602-5.602V35.767c0-3.028,2.463-5.492,5.492-5.492h1.565  c3.089,0,5.602,2.513,5.602,5.602v440.248H28.592z"/>
<g>
</g>
<g>
</g>
<g>
</g>
<g>
</g>
<g>
</g>
<g>
</g>
<g>
</g>
<g>
</g>
<g>
</g>
<g>
</g>
<g>
</g>
<g>
</g>
<g>
</g>
<g>
</g>
<g>
</g>
</svg>
