<?xml version="1.0" encoding="iso-8859-1"?>
<!-- Generator: Adobe Illustrator 19.0.0, SVG Export Plug-In . SVG Version: 6.00 Build 0)  -->
<svg xmlns="http://www.w3.org/2000/svg" xmlns:xlink="http://www.w3.org/1999/xlink" version="1.1" id="Layer_1" x="0px" y="0px" viewBox="0 0 512 512" style="enable-background:new 0 0 512 512;" xml:space="preserve">
<g>
	<path style="fill:#FFE000;" d="M51.562,122.223v227.661h3.836l76.667-51.111c-0.759-1.191-1.206-2.601-1.206-4.119   c0-4.238,3.436-7.674,7.674-7.674h2.482c-0.784-1.548-1.425-3.18-1.912-4.877H128.3c-4.238,0-7.674-3.435-7.674-7.674   s3.436-7.674,7.674-7.674h10.803c0.486-1.697,1.128-3.329,1.912-4.877h-2.482c-4.238,0-7.674-3.436-7.674-7.674   c0-4.238,3.436-7.674,7.674-7.674h27.387h44.509l25.192-16.795c-26.732-7.318-46.44-31.81-46.44-60.833   c0-34.779,28.294-63.073,63.073-63.073h22.874V85.365c0-4.238,3.435-7.674,7.674-7.674s7.674,3.436,7.674,7.674v20.464h5.799   V85.365c0-4.238,3.435-7.674,7.674-7.674s7.674,3.436,7.674,7.674v20.464h5.798V95.597c0-4.239,3.435-7.674,7.674-7.674   s7.674,3.435,7.674,7.674v10.233h5.799V95.597c0-4.239,3.435-7.674,7.674-7.674s7.674,3.435,7.674,7.674v10.233h36.448v-0.489   c0-4.239,3.435-7.674,7.674-7.674s7.674,3.436,7.674,7.674v8.163v2.838l87.103-58.068H51.562v33.254   c0,4.238-3.436,7.674-7.674,7.674v15.348C48.126,114.549,51.562,117.984,51.562,122.223z"/>
	<path style="fill:#FFE000;" d="M244.979,168.903c0,4.012,3.264,7.277,7.277,7.277h43.702c5.757,0,11.331,0.79,16.634,2.242   l25.192-16.796h-85.529C248.243,161.627,244.979,164.891,244.979,168.903z"/>
</g>
<g>
	<path style="fill:#FF7900;" d="M405.712,127.599c1.862,1.4,3.07,3.62,3.07,6.128c0,2.857-1.565,5.344-3.88,6.665   c-2.996,12.174-14.002,21.233-27.088,21.233h-23.897v5.128c0,4.231,3.442,7.674,7.674,7.674h20.975   c4.239,0,7.674,3.436,7.674,7.674c0,4.239-3.435,7.674-7.674,7.674H361.59c-12.693,0-23.021-10.328-23.021-23.022v-5.128h-0.784   l-25.192,16.796c26.732,7.318,46.44,31.81,46.44,60.832c0,34.78-28.294,63.074-63.074,63.074h-17.247v5.116   c0,4.232,3.442,7.674,7.675,7.674h20.974c4.24,0,7.674,3.435,7.674,7.674c0,4.239-3.434,7.674-7.674,7.674h-20.974   c-12.694,0-23.022-10.327-23.022-23.021v-5.116H217.32v5.116c0,4.232,3.442,7.674,7.674,7.674h20.975   c4.238,0,7.674,3.435,7.674,7.674c0,4.239-3.436,7.674-7.674,7.674h-20.975c-12.695,0-23.022-10.327-23.022-23.021v-5.116H165.92   h-27.387c-2.72,0-5.106-1.42-6.468-3.556l-76.666,51.114h441.254V58.273h-3.837l-87.103,58.068v11.258H405.712z"/>
	<path style="fill:#FF7900;" d="M303.234,239.254c0-4.012-3.264-7.277-7.277-7.277h-43.702c-5.757,0-11.33-0.79-16.633-2.241   l-25.192,16.795h85.528C299.97,246.531,303.234,243.266,303.234,239.254z"/>
</g>
<path d="M504.326,42.925H43.888c-4.238,0-7.674,3.436-7.674,7.674v40.928c0,4.238,3.436,7.674,7.674,7.674  c4.239,0,7.674-3.436,7.674-7.674V58.273h441.253h3.837v291.61H55.399h-3.837v-227.66c0-4.239-3.436-7.674-7.674-7.674  s-7.674,3.436-7.674,7.674v235.335c0,4.239,3.436,7.674,7.674,7.674h460.438c4.239,0,7.674-3.436,7.674-7.674V50.599  C512,46.361,508.565,42.925,504.326,42.925z"/>
<path style="fill:#FFFFFF;" d="M153.369,274.429c0,6.92,5.63,12.551,12.551,12.551h36.051v-0.511c0-4.239,3.436-7.674,7.674-7.674  c4.239,0,7.674,3.436,7.674,7.674v0.511h78.638c26.316,0,47.727-21.41,47.727-47.726c0-26.317-21.41-47.727-47.727-47.727h-43.701  c-12.475,0-22.624-10.149-22.624-22.625c0-12.475,10.15-22.624,22.624-22.624h125.558c4.03,0,7.612-1.917,9.91-4.877h-10.785  c-4.24,0-7.674-3.436-7.674-7.674c0-4.238,3.434-7.674,7.674-7.674h13.426v-4.877h-36.603c-0.711,3.503-3.806,6.14-7.52,6.14  s-6.809-2.637-7.521-6.14h-6.106c-0.712,3.503-3.807,6.14-7.521,6.14s-6.809-2.637-7.521-6.14h-65.318  c-26.316,0-47.726,21.41-47.726,47.727s21.41,47.727,47.726,47.727h43.702c12.476,0,22.624,10.15,22.624,22.625  s-10.149,22.624-22.624,22.624H165.921C159,261.878,153.369,267.509,153.369,274.429z"/>
<path d="M138.534,302.328h27.387h36.051v5.116c0,12.694,10.327,23.021,23.022,23.021h20.975c4.238,0,7.674-3.435,7.674-7.674  s-3.436-7.674-7.674-7.674h-20.975c-4.232,0-7.674-3.442-7.674-7.674v-5.116h46.044v5.116c0,12.694,10.327,23.021,23.022,23.021  h20.974c4.24,0,7.674-3.435,7.674-7.674s-3.434-7.674-7.674-7.674h-20.974c-4.233,0-7.675-3.442-7.675-7.674v-5.116h17.247  c34.78,0,63.074-28.294,63.074-63.074c0-29.022-19.709-53.514-46.44-60.832c-5.303-1.452-10.877-2.242-16.634-2.242h-43.703  c-4.012,0-7.277-3.264-7.277-7.277c0-4.012,3.264-7.277,7.277-7.277h85.529h0.784v5.128c0,12.694,10.327,23.022,23.021,23.022  h20.975c4.239,0,7.674-3.436,7.674-7.674c0-4.238-3.435-7.674-7.674-7.674H361.59c-4.232,0-7.674-3.442-7.674-7.674v-5.128h23.897  c13.087,0,24.092-9.059,27.088-21.233c2.315-1.321,3.88-3.808,3.88-6.665c0-2.508-1.208-4.729-3.07-6.128v-11.258v-2.838v-8.163  c0-4.239-3.435-7.674-7.674-7.674s-7.674,3.436-7.674,7.674v0.489h-36.448V95.598c0-4.239-3.435-7.674-7.674-7.674  s-7.674,3.435-7.674,7.674v10.233h-5.799V95.598c0-4.239-3.435-7.674-7.674-7.674s-7.674,3.435-7.674,7.674v10.233h-5.798V85.365  c0-4.238-3.435-7.674-7.674-7.674s-7.674,3.436-7.674,7.674v20.464h-5.799V85.365c0-4.238-3.435-7.674-7.674-7.674  s-7.674,3.436-7.674,7.674v20.464h-22.875c-34.779,0-63.073,28.294-63.073,63.073c0,29.023,19.708,53.514,46.44,60.833  c5.303,1.451,10.876,2.241,16.633,2.241h43.702c4.012,0,7.277,3.264,7.277,7.277c0,4.012-3.264,7.277-7.277,7.277H210.43h-44.509  h-27.387c-4.238,0-7.674,3.436-7.674,7.674c0,4.239,3.436,7.674,7.674,7.674h2.482c-0.784,1.549-1.425,3.18-1.913,4.877h-10.803  c-4.238,0-7.674,3.435-7.674,7.674s3.436,7.674,7.674,7.674h10.803c0.486,1.697,1.128,3.329,1.913,4.877h-2.482  c-4.238,0-7.674,3.436-7.674,7.674c0,1.517,0.447,2.928,1.206,4.119C133.428,300.908,135.812,302.328,138.534,302.328z   M295.958,261.878c12.476,0,22.624-10.149,22.624-22.624s-10.149-22.625-22.624-22.625h-43.702  c-26.316,0-47.726-21.41-47.726-47.727s21.41-47.727,47.726-47.727h65.32c0.712,3.503,3.807,6.14,7.521,6.14s6.809-2.637,7.521-6.14  h6.106c0.712,3.503,3.807,6.14,7.521,6.14s6.809-2.637,7.52-6.14h36.603v4.877h-13.426c-4.24,0-7.674,3.436-7.674,7.674  c0,4.239,3.434,7.674,7.674,7.674h10.785c-2.298,2.96-5.881,4.877-9.91,4.877h-125.56c-12.475,0-22.624,10.15-22.624,22.624  c0,12.476,10.15,22.625,22.624,22.625h43.702c26.316,0,47.727,21.41,47.727,47.727c0,26.316-21.41,47.726-47.727,47.726H217.32  v-0.511c0-4.239-3.436-7.674-7.674-7.674s-7.674,3.436-7.674,7.674v0.511h-36.051c-6.921,0-12.551-5.63-12.551-12.551  s5.63-12.551,12.551-12.551h130.037V261.878z"/>
<path style="fill:#2E3033;" d="M20.97,482.004c-6.429,0-11.661-5.232-11.661-11.661V41.55c0-6.371,5.183-11.554,11.554-11.554h1.524  c6.431,0,11.661,5.232,11.661,11.661v428.685c0,6.431-5.232,11.661-11.661,11.661H20.97V482.004z"/>
<path d="M22.386,20.687h-1.524C9.359,20.687,0,30.046,0,41.55v428.793c0,11.563,9.407,20.97,20.97,20.97h1.415  c11.564,0,20.97-9.407,20.97-20.97V41.657C43.357,30.094,33.949,20.687,22.386,20.687z M27.841,470.343  c0,3.008-2.447,5.455-5.455,5.455h-1.415c-3.008,0-5.455-2.447-5.455-5.455V41.55c0-2.949,2.399-5.348,5.348-5.348h1.524  c3.008,0,5.455,2.447,5.455,5.455v428.686H27.841z"/>
<g>
</g>
<g>
</g>
<g>
</g>
<g>
</g>
<g>
</g>
<g>
</g>
<g>
</g>
<g>
</g>
<g>
</g>
<g>
</g>
<g>
</g>
<g>
</g>
<g>
</g>
<g>
</g>
<g>
</g>
</svg>
