<?xml version="1.0" encoding="iso-8859-1"?>
<!-- Generator: Adobe Illustrator 19.0.0, SVG Export Plug-In . SVG Version: 6.00 Build 0)  -->
<svg xmlns="http://www.w3.org/2000/svg" xmlns:xlink="http://www.w3.org/1999/xlink" version="1.1" id="Layer_1" x="0px" y="0px" viewBox="0 0 511.999 511.999" style="enable-background:new 0 0 511.999 511.999;" xml:space="preserve">
<path style="fill:#ED1F34;" d="M441.07,352.434h55.169V52.951H275.565v149.742c0,2.09-0.831,4.094-2.308,5.573  s-3.482,2.308-5.573,2.308l-228.553-0.006v141.865h370.413c4.353,0,7.881,3.529,7.881,7.881h15.763  C433.189,355.962,436.717,352.434,441.07,352.434z M405.409,276.085c-5.671,2.43-11.029,4.726-14.933,7.509  c-1.369,0.976-2.972,1.464-4.575,1.464c-1.604,0-3.207-0.488-4.575-1.464c-3.904-2.783-9.262-5.079-14.933-7.509  c-17.267-7.397-40.914-17.53-40.914-52.317v-95.56c0-4.353,3.529-7.882,7.881-7.882h105.082c4.352,0,7.881,3.529,7.881,7.882v95.56  C446.324,258.554,422.676,268.687,405.409,276.085z"/>
<g>
	<polygon style="fill:#103B9B;" points="259.804,102.601 259.804,75.898 219.748,102.601  "/>
	<polygon style="fill:#103B9B;" points="128.189,52.951 81.435,52.951 128.189,84.12  "/>
	<polygon style="fill:#103B9B;" points="81.439,194.807 128.189,194.808 128.189,163.641  "/>
	<polygon style="fill:#103B9B;" points="170.747,194.809 217.5,194.81 170.747,163.641  "/>
	<polygon style="fill:#103B9B;" points="259.804,171.864 259.804,145.159 219.748,145.159  "/>
	<polygon style="fill:#103B9B;" points="217.501,52.951 170.747,52.951 170.747,84.12  "/>
	<polygon style="fill:#103B9B;" points="39.132,145.159 39.132,171.864 79.188,145.159  "/>
	<polygon style="fill:#103B9B;" points="39.132,75.898 39.132,102.601 79.188,102.601  "/>
</g>
<g>
	<polygon style="fill:#ED1F34;" points="128.189,155.115 128.189,145.159 117.55,145.159 43.079,194.806 68.653,194.807  "/>
	<polygon style="fill:#ED1F34;" points="170.747,102.601 181.386,102.601 255.863,52.951 230.29,52.951 170.747,92.65  "/>
	<polygon style="fill:#ED1F34;" points="181.386,145.159 255.863,194.81 259.804,194.81 259.804,180.739 206.56,145.159  "/>
	<polygon style="fill:#ED1F34;" points="117.55,102.601 43.073,52.951 39.132,52.951 39.132,67.397 91.812,102.601  "/>
</g>
<g>
	<polygon style="fill:#FFFFFF;" points="138.04,112.453 138.04,52.951 128.189,52.951 128.189,84.12 81.435,52.951 43.073,52.951    117.55,102.601 91.812,102.601 39.132,67.397 39.132,75.898 79.188,102.601 39.132,102.601 39.132,112.453  "/>
	<polygon style="fill:#FFFFFF;" points="160.895,135.308 160.895,194.809 170.747,194.809 170.747,163.641 217.5,194.81    255.863,194.81 181.386,145.159 206.56,145.159 259.804,180.739 259.804,171.864 219.748,145.159 259.804,145.159 259.804,135.308     "/>
	<polygon style="fill:#FFFFFF;" points="160.895,112.453 259.804,112.453 259.804,102.601 219.748,102.601 259.804,75.898    259.804,52.951 255.863,52.951 181.386,102.601 170.747,102.601 170.747,92.65 230.29,52.951 217.501,52.951 170.747,84.12    170.747,52.951 160.895,52.951  "/>
	<polygon style="fill:#FFFFFF;" points="128.189,145.159 128.189,155.115 68.653,194.807 81.439,194.807 128.189,163.641    128.189,194.808 138.04,194.808 138.04,135.308 39.132,135.308 39.132,145.159 79.188,145.159 39.132,171.864 39.132,194.806    43.079,194.806 117.55,145.159  "/>
</g>
<polygon style="fill:#ED1F34;" points="138.04,135.308 138.04,194.808 160.895,194.809 160.895,135.308 259.804,135.308   259.804,112.453 160.895,112.453 160.895,52.951 138.04,52.951 138.04,112.453 39.132,112.453 39.132,135.308 "/>
<path style="fill:#FFFFFF;" d="M341.242,223.767h22.924v-43.824c0-12.004,9.731-21.736,21.736-21.736  c12.004,0,21.736,9.732,21.736,21.736v43.824h22.924v-87.679h-89.32V223.767z"/>
<path style="fill:#259245;" d="M364.166,223.767h-22.924c0,24.393,14.533,30.62,31.359,37.83c4.491,1.925,9.094,3.896,13.3,6.274  c4.206-2.377,8.808-4.349,13.3-6.274c16.827-7.21,31.359-13.436,31.359-37.83h-22.924H364.166z"/>
<path style="fill:#ED1F34;" d="M407.637,179.943c0-12.004-9.731-21.736-21.736-21.736c-12.004,0-21.736,9.732-21.736,21.736v43.824  h43.471V179.943z"/>
<path d="M446.324,128.207c0-4.353-3.529-7.882-7.881-7.882H333.361c-4.353,0-7.881,3.529-7.881,7.882v95.56  c0,34.787,23.648,44.92,40.914,52.317c5.671,2.43,11.029,4.726,14.933,7.509c1.369,0.976,2.971,1.464,4.575,1.464  c1.603,0,3.206-0.488,4.575-1.464c3.904-2.783,9.261-5.079,14.933-7.509c17.267-7.397,40.914-17.53,40.914-52.317v-95.56H446.324z   M430.561,223.767c0,24.393-14.533,30.62-31.359,37.83c-4.491,1.925-9.094,3.896-13.3,6.274c-4.206-2.377-8.809-4.349-13.3-6.274  c-16.827-7.21-31.359-13.436-31.359-37.83v-87.679h89.32V223.767z"/>
<path d="M504.119,37.189H267.888c-0.068-0.002-0.135-0.011-0.203-0.011s-0.135,0.008-0.203,0.011H31.25  c-4.353,0-7.881,3.529-7.881,7.881v315.245c0,4.353,3.529,7.881,7.881,7.881h378.295c4.353,0,7.881-3.529,7.881-7.881l0,0  c0-4.353-3.529-7.881-7.881-7.881H39.132V210.567l228.553,0.005c2.09,0,4.095-0.83,5.573-2.308c1.479-1.479,2.308-3.482,2.308-5.573  V52.951h220.672v299.483h-55.169c-4.352,0-7.881,3.529-7.881,7.881l0,0c0,4.353,3.529,7.881,7.881,7.881h63.049  c4.353,0,7.881-3.529,7.881-7.881V45.069C512,40.717,508.471,37.189,504.119,37.189z M39.132,194.806v-22.942v-26.705v-9.851  v-22.855v-9.851V75.898v-8.5V52.951h3.941h38.362h46.755h9.851h22.855h9.851h46.755h12.788h25.573h3.941v22.948v26.703v9.851v22.855  v9.851v26.705v8.875v14.072h-3.94l-38.363-0.001l-46.753-0.001h-9.851h-22.855h-9.851l-46.749-0.001H68.653H43.079h-3.947V194.806z"/>
<path style="fill:#2E3033;" d="M21.536,488.099c-6.603,0-11.976-5.373-11.976-11.976V35.765c0-6.542,5.323-11.865,11.865-11.865  h1.565c6.604,0,11.976,5.373,11.976,11.976v440.247c0,6.604-5.373,11.976-11.976,11.976h-1.454V488.099z"/>
<path d="M22.99,14.34h-1.565C9.611,14.34,0,23.951,0,35.765v440.358c0,11.876,9.661,21.536,21.536,21.536h1.453  c11.876,0,21.536-9.661,21.536-21.536V35.876C44.526,24.001,34.865,14.34,22.99,14.34z M28.592,476.123  c0,3.089-2.513,5.602-5.602,5.602h-1.453c-3.089,0-5.602-2.513-5.602-5.602V35.765c0-3.028,2.463-5.492,5.492-5.492h1.565  c3.089,0,5.602,2.513,5.602,5.602v440.248H28.592z"/>
<g>
</g>
<g>
</g>
<g>
</g>
<g>
</g>
<g>
</g>
<g>
</g>
<g>
</g>
<g>
</g>
<g>
</g>
<g>
</g>
<g>
</g>
<g>
</g>
<g>
</g>
<g>
</g>
<g>
</g>
</svg>
