<?xml version="1.0" encoding="iso-8859-1"?>
<!-- Generator: Adobe Illustrator 19.0.0, SVG Export Plug-In . SVG Version: 6.00 Build 0)  -->
<svg xmlns="http://www.w3.org/2000/svg" xmlns:xlink="http://www.w3.org/1999/xlink" version="1.1" id="Layer_1" x="0px" y="0px" viewBox="0 0 512 512" style="enable-background:new 0 0 512 512;" xml:space="preserve">
<path style="fill:#ED1F34;" d="M496.652,349.884V211.753H205.041v84.413c0,4.239-3.436,7.675-7.674,7.675v15.348  c4.238,0,7.674,3.435,7.674,7.675v23.021L496.652,349.884L496.652,349.884z"/>
<rect x="205.038" y="58.275" style="fill:#FFE000;" width="291.612" height="138.126"/>
<path style="fill:#259245;" d="M189.693,296.166V58.273H51.562v291.611h138.131v-23.021c0-4.24,3.436-7.675,7.674-7.675V303.84  C193.13,303.84,189.693,300.404,189.693,296.166z"/>
<path d="M504.326,42.925H43.888c-4.238,0-7.674,3.435-7.674,7.675v306.958c0,4.239,3.436,7.675,7.674,7.675h460.438  c4.239,0,7.674-3.436,7.674-7.675V50.6C512,46.36,508.565,42.925,504.326,42.925z M197.367,319.188  c-4.239,0-7.674,3.435-7.674,7.675v23.021H51.562V58.273h138.131v237.893c0,4.239,3.436,7.675,7.674,7.675  c4.238,0,7.674-3.436,7.674-7.675v-84.413h291.611v138.131H205.041v-23.021C205.041,322.623,201.606,319.188,197.367,319.188z   M496.652,196.404H205.041V58.273h291.611V196.404z"/>
<path style="fill:#2E3033;" d="M20.97,482.004c-6.429,0-11.661-5.232-11.661-11.661V41.55c0-6.371,5.183-11.554,11.554-11.554h1.524  c6.431,0,11.661,5.232,11.661,11.661v428.685c0,6.431-5.232,11.661-11.661,11.661H20.97V482.004z"/>
<path d="M22.386,20.687h-1.524C9.359,20.687,0,30.046,0,41.55v428.793c0,11.563,9.407,20.97,20.97,20.97h1.415  c11.564,0,20.97-9.407,20.97-20.97V41.657C43.357,30.094,33.949,20.687,22.386,20.687z M27.841,470.343  c0,3.008-2.447,5.455-5.455,5.455h-1.415c-3.008,0-5.455-2.447-5.455-5.455V41.55c0-2.949,2.399-5.348,5.348-5.348h1.524  c3.008,0,5.455,2.447,5.455,5.455v428.686H27.841z"/>
<g>
</g>
<g>
</g>
<g>
</g>
<g>
</g>
<g>
</g>
<g>
</g>
<g>
</g>
<g>
</g>
<g>
</g>
<g>
</g>
<g>
</g>
<g>
</g>
<g>
</g>
<g>
</g>
<g>
</g>
</svg>
