<?xml version="1.0" encoding="iso-8859-1"?>
<!-- Generator: Adobe Illustrator 19.0.0, SVG Export Plug-In . SVG Version: 6.00 Build 0)  -->
<svg xmlns="http://www.w3.org/2000/svg" xmlns:xlink="http://www.w3.org/1999/xlink" version="1.1" id="Layer_1" x="0px" y="0px" viewBox="0 0 512 512" style="enable-background:new 0 0 512 512;" xml:space="preserve">
<path style="fill:#103B9B;" d="M442.795,305.474h53.827V102.472H50.63v203.003h361.407c4.247,0,7.689,3.442,7.689,7.689h15.38  C435.106,308.917,438.548,305.474,442.795,305.474z M273.626,282.407c-43.318,0-78.433-35.116-78.433-78.433  s35.116-78.433,78.433-78.433c43.317,0,78.433,35.116,78.433,78.433S316.943,282.407,273.626,282.407z"/>
<g>
	<rect x="50.63" y="57.873" style="fill:#ED1F34;" width="445.989" height="29.217"/>
	<path style="fill:#ED1F34;" d="M442.795,320.854c-4.247,0-7.689-3.443-7.689-7.69h-15.38c0,4.247-3.442,7.69-7.689,7.69H50.63   v29.219h445.992v-29.219H442.795z"/>
</g>
<path d="M504.311,42.494H42.941c-4.247,0-7.689,3.442-7.689,7.69v307.579c0,4.247,3.442,7.69,7.689,7.69h461.37  c4.247,0,7.689-3.443,7.689-7.69V50.184C512,45.936,508.558,42.494,504.311,42.494z M496.621,57.873v29.22H50.63v-29.22H496.621z   M50.63,350.074v-29.219h361.407c4.247,0,7.689-3.443,7.689-7.69s-3.442-7.689-7.689-7.689H50.63V102.472h445.992v203.003h-53.827  c-4.247,0-7.689,3.442-7.689,7.689s3.442,7.69,7.689,7.69h53.827v29.219H50.63V350.074z"/>
<g>
	<path style="fill:#FFFFFF;" d="M273.626,151.172c-29.116,0-52.801,23.687-52.801,52.801s23.687,52.801,52.801,52.801   s52.801-23.687,52.801-52.801S302.741,151.172,273.626,151.172z M302.989,211.984c0,17.493-13.999,28.041-27.099,32.079   c-0.737,0.228-1.501,0.342-2.266,0.342s-1.529-0.114-2.267-0.342c-13.099-4.038-27.098-14.586-27.098-32.079v-34.6   c0-4.248,3.442-7.689,7.689-7.689h43.348c4.247,0,7.689,3.441,7.689,7.689v34.6H302.989z"/>
	<path style="fill:#FFFFFF;" d="M273.626,125.541c-43.318,0-78.433,35.116-78.433,78.433s35.116,78.433,78.433,78.433   c43.317,0,78.433-35.116,78.433-78.433S316.943,125.541,273.626,125.541z M273.626,272.154c-37.594,0-68.18-30.586-68.18-68.18   c0-37.595,30.586-68.18,68.18-68.18s68.18,30.585,68.18,68.18C341.806,241.568,311.219,272.154,273.626,272.154z"/>
</g>
<path style="fill:#259245;" d="M273.626,135.794c-37.594,0-68.18,30.585-68.18,68.18c0,37.594,30.586,68.18,68.18,68.18  s68.18-30.586,68.18-68.18C341.806,166.378,311.219,135.794,273.626,135.794z M273.626,256.775  c-29.116,0-52.801-23.687-52.801-52.801s23.687-52.801,52.801-52.801s52.801,23.687,52.801,52.801S302.741,256.775,273.626,256.775z  "/>
<path style="fill:#FFE000;" d="M259.642,211.984c0,9.735,8.939,14.613,13.984,16.588c5.044-1.975,13.984-6.853,13.984-16.588  v-26.911h-27.967V211.984L259.642,211.984z"/>
<path d="M295.3,169.695h-43.348c-4.247,0-7.689,3.441-7.689,7.689v34.6c0,17.493,13.999,28.041,27.098,32.079  c0.738,0.228,1.502,0.342,2.267,0.342s1.529-0.114,2.266-0.342c13.1-4.038,27.099-14.586,27.099-32.079v-34.6  C302.989,173.136,299.547,169.695,295.3,169.695z M287.609,211.984c0,9.735-8.939,14.613-13.984,16.588  c-5.044-1.975-13.984-6.853-13.984-16.588v-26.911h27.967V211.984z"/>
<path style="fill:#2E3033;" d="M21.013,482.462c-6.442,0-11.685-5.242-11.685-11.685V41.115c0-6.383,5.194-11.577,11.577-11.577  h1.527c6.444,0,11.685,5.242,11.685,11.685v429.552c0,6.444-5.242,11.685-11.685,11.685h-1.419V482.462z"/>
<path d="M22.432,20.211h-1.527C9.378,20.211,0,29.588,0,41.115v429.661c0,11.587,9.426,21.013,21.013,21.013h1.418  c11.587,0,21.013-9.426,21.013-21.013V41.223C43.444,29.637,34.018,20.211,22.432,20.211z M27.898,470.777  c0,3.014-2.452,5.466-5.466,5.466h-1.418c-3.014,0-5.466-2.452-5.466-5.466V41.115c0-2.955,2.403-5.358,5.358-5.358h1.527  c3.014,0,5.466,2.452,5.466,5.466v429.553H27.898z"/>
<g>
</g>
<g>
</g>
<g>
</g>
<g>
</g>
<g>
</g>
<g>
</g>
<g>
</g>
<g>
</g>
<g>
</g>
<g>
</g>
<g>
</g>
<g>
</g>
<g>
</g>
<g>
</g>
<g>
</g>
</svg>
