<?xml version="1.0" encoding="iso-8859-1"?>
<!-- Generator: Adobe Illustrator 19.0.0, SVG Export Plug-In . SVG Version: 6.00 Build 0)  -->
<svg xmlns="http://www.w3.org/2000/svg" xmlns:xlink="http://www.w3.org/1999/xlink" version="1.1" id="Layer_1" x="0px" y="0px" viewBox="0 0 512 512" style="enable-background:new 0 0 512 512;" xml:space="preserve">
<g>
	<polygon style="fill:#FFFFFF;" points="105.521,57.874 62.36,57.874 83.94,78.126  "/>
	<path style="fill:#FFFFFF;" d="M67.073,104.501c2.907,3.097,2.751,7.963-0.344,10.869l-12.563,11.789l29.775,27.944l29.775-27.944   L50.619,67.947v41.451l5.585-5.242C59.302,101.249,64.168,101.405,67.073,104.501z"/>
	<polygon style="fill:#FFFFFF;" points="117.263,109.398 117.263,67.947 95.178,88.672  "/>
	<polygon style="fill:#FFFFFF;" points="117.263,186.377 117.263,144.923 95.177,165.651  "/>
	<path style="fill:#FFFFFF;" d="M67.074,181.48c2.907,3.097,2.752,7.963-0.344,10.869l-12.566,11.792l29.776,27.945l29.776-27.945   l-63.097-59.218v41.454l5.586-5.242C59.302,178.228,64.168,178.384,67.074,181.48z"/>
	<polygon style="fill:#FFFFFF;" points="117.263,263.361 117.263,221.904 95.177,242.633  "/>
	<path style="fill:#FFFFFF;" d="M67.075,335.447c2.907,3.097,2.753,7.963-0.344,10.87l-4.012,3.765h42.443l-54.544-51.195v41.459   l5.587-5.244C59.304,332.195,64.169,332.352,67.075,335.447z"/>
	<path style="fill:#FFFFFF;" d="M67.074,258.462c2.907,3.097,2.752,7.964-0.344,10.87l-12.566,11.792l29.776,27.948l29.776-27.948   l-63.097-59.22v41.456l5.586-5.243C59.302,255.209,64.168,255.367,67.074,258.462z"/>
	<polygon style="fill:#FFFFFF;" points="117.263,340.346 117.263,298.888 95.177,319.618  "/>
</g>
<g>
	<path style="fill:#ED1F34;" d="M122.709,365.461c0.731,0.222,1.486,0.339,2.241,0.339c0.763,0,1.527-0.113,2.26-0.339H122.709z"/>
	<path style="fill:#ED1F34;" d="M117.263,350.082v-9.736l-22.085-20.729l22.085-20.73V263.36l-22.085-20.728l22.085-20.729v-35.526   l-22.085-20.727l22.085-20.728v-35.525L95.178,88.672l22.084-20.726V57.874h-11.742L83.94,78.126L62.36,57.874H50.619v10.073   l63.096,59.214L83.94,155.105L54.165,127.16l12.563-11.789c3.095-2.906,3.251-7.772,0.344-10.869   c-2.905-3.096-7.771-3.252-10.869-0.345l-5.585,5.242v35.525l63.097,59.218l-29.776,27.945l-29.775-27.947l12.566-11.792   c3.096-2.906,3.251-7.772,0.344-10.869c-2.906-3.096-7.772-3.252-10.869-0.345l-5.586,5.242v35.526l63.097,59.22L83.94,309.071   l-29.776-27.948l12.566-11.792c3.096-2.906,3.251-7.773,0.344-10.87c-2.906-3.095-7.772-3.252-10.869-0.344l-5.586,5.243v35.527   l54.544,51.195h12.1V350.082z"/>
	<path style="fill:#ED1F34;" d="M39.389,357.856c-0.065,1.97,0.623,3.965,2.079,5.516c1.513,1.613,3.558,2.427,5.608,2.427   c0.756,0,1.511-0.116,2.242-0.339h-2.243C42.857,365.461,39.435,362.064,39.389,357.856z"/>
	<path style="fill:#ED1F34;" d="M66.731,346.317c3.097-2.907,3.251-7.773,0.344-10.87c-2.906-3.095-7.771-3.252-10.869-0.345   l-5.587,5.244v9.736h12.1L66.731,346.317z"/>
	<path style="fill:#ED1F34;" d="M40.421,46.34c0.061-0.107,0.124-0.211,0.191-0.315C40.544,46.129,40.482,46.233,40.421,46.34z"/>
	<path style="fill:#ED1F34;" d="M40.076,47.01c0.052-0.113,0.106-0.226,0.162-0.337C40.181,46.785,40.128,46.897,40.076,47.01z"/>
	<path style="fill:#ED1F34;" d="M40.838,45.697c0.067-0.094,0.137-0.189,0.208-0.28C40.975,45.509,40.906,45.603,40.838,45.697z"/>
	<path style="fill:#ED1F34;" d="M39.799,47.706c0.04-0.118,0.083-0.234,0.129-0.349C39.882,47.473,39.84,47.589,39.799,47.706z"/>
	<path style="fill:#ED1F34;" d="M43.677,43.293c0.113-0.057,0.226-0.114,0.342-0.165C43.902,43.178,43.791,43.237,43.677,43.293z"/>
	<path style="fill:#ED1F34;" d="M41.468,44.921c-0.051,0.053-0.093,0.112-0.142,0.167c0.074-0.083,0.146-0.166,0.223-0.245   C41.523,44.87,41.493,44.893,41.468,44.921z"/>
	<path style="fill:#ED1F34;" d="M41.857,44.546c0.085-0.079,0.168-0.158,0.256-0.232C42.025,44.387,41.942,44.467,41.857,44.546z"/>
	<path style="fill:#ED1F34;" d="M39.593,48.43c0.028-0.122,0.059-0.243,0.093-0.362C39.652,48.188,39.622,48.308,39.593,48.43z"/>
	<path style="fill:#ED1F34;" d="M42.415,44.077c0.099-0.077,0.197-0.154,0.302-0.225C42.613,43.922,42.515,44,42.415,44.077z"/>
	<path style="fill:#ED1F34;" d="M45.822,42.605c0.119-0.021,0.239-0.041,0.363-0.056C46.062,42.563,45.942,42.585,45.822,42.605z"/>
	<path style="fill:#ED1F34;" d="M39.457,49.182c0.017-0.13,0.035-0.258,0.059-0.386C39.492,48.925,39.474,49.054,39.457,49.182z"/>
	<path style="fill:#ED1F34;" d="M39.397,49.958c0.004-0.141,0.009-0.281,0.021-0.419C39.406,49.68,39.401,49.818,39.397,49.958z"/>
	<path style="fill:#ED1F34;" d="M46.547,42.52c0.135-0.009,0.269-0.019,0.406-0.021C46.818,42.502,46.683,42.512,46.547,42.52z"/>
	<path style="fill:#ED1F34;" d="M43.017,43.66c0.111-0.069,0.221-0.141,0.336-0.204C43.239,43.519,43.128,43.59,43.017,43.66z"/>
	<path style="fill:#ED1F34;" d="M45.102,42.759c0.111-0.029,0.221-0.062,0.334-0.086C45.322,42.697,45.213,42.73,45.102,42.759z"/>
	<path style="fill:#ED1F34;" d="M44.38,42.989c0.11-0.042,0.22-0.086,0.332-0.121C44.601,42.903,44.492,42.948,44.38,42.989z"/>
	<path style="fill:#ED1F34;" d="M217.229,247.553H496.62V57.874H132.642v189.679h53.828c4.247,0,7.689,3.443,7.689,7.689h15.38   C209.539,250.995,212.981,247.553,217.229,247.553z"/>
</g>
<path style="fill:#259245;" d="M217.229,262.932c-4.248,0-7.69-3.443-7.69-7.69l0,0h-15.38l0,0c0,4.247-3.442,7.69-7.689,7.69  h-53.828v87.15H496.62v-87.15H217.229L217.229,262.932z"/>
<path d="M504.31,42.494H42.929c-0.041,0-0.081,0.005-0.121,0.006c-0.137,0.002-0.272,0.011-0.406,0.021  c-0.121,0.008-0.244,0.016-0.364,0.029c-0.122,0.015-0.243,0.035-0.363,0.056c-0.13,0.021-0.259,0.04-0.387,0.067  c-0.113,0.024-0.223,0.057-0.334,0.086c-0.131,0.034-0.261,0.066-0.389,0.108c-0.112,0.036-0.222,0.08-0.332,0.121  c-0.121,0.045-0.243,0.088-0.363,0.14c-0.116,0.051-0.229,0.108-0.342,0.165c-0.108,0.053-0.218,0.105-0.323,0.162  c-0.115,0.064-0.225,0.135-0.336,0.204c-0.102,0.063-0.203,0.123-0.301,0.192c-0.105,0.07-0.202,0.149-0.302,0.225  c-0.103,0.079-0.204,0.154-0.303,0.237c-0.088,0.075-0.171,0.153-0.256,0.232c-0.105,0.097-0.208,0.195-0.308,0.297  c-0.077,0.079-0.149,0.162-0.223,0.245c-0.095,0.108-0.19,0.216-0.28,0.329c-0.072,0.091-0.141,0.186-0.208,0.28  c-0.078,0.108-0.153,0.217-0.227,0.329c-0.065,0.104-0.13,0.208-0.191,0.315c-0.064,0.109-0.125,0.221-0.183,0.334  c-0.057,0.111-0.11,0.223-0.162,0.337c-0.052,0.114-0.102,0.229-0.148,0.346c-0.046,0.115-0.088,0.231-0.129,0.349  c-0.04,0.119-0.079,0.239-0.113,0.362c-0.034,0.119-0.065,0.239-0.093,0.362c-0.028,0.121-0.055,0.244-0.077,0.367  c-0.023,0.127-0.042,0.256-0.059,0.386c-0.017,0.118-0.03,0.237-0.04,0.358c-0.011,0.139-0.017,0.279-0.021,0.419  c0,0.077-0.009,0.15-0.009,0.226v307.588c0,0.029,0.004,0.057,0.004,0.085c0.047,4.208,3.468,7.604,7.686,7.604h2.243h77.537h4.501  H504.31c4.248,0,7.69-3.443,7.69-7.689V50.183C512,45.937,508.558,42.494,504.31,42.494z M50.619,340.346v-41.459v-35.527v-41.456  v-35.526v-41.454v-35.525V67.947V57.874H62.36h43.16h11.742v10.073v41.451v35.525v41.454v35.526v41.456v35.527v41.459v9.736h-12.1  H62.719h-12.1V340.346z M132.642,350.082v-87.15h53.828c4.247,0,7.689-3.443,7.689-7.69l0,0c0-4.246-3.442-7.689-7.689-7.689  h-53.828V57.874h363.979v189.679H217.229c-4.248,0-7.69,3.443-7.69,7.689l0,0c0,4.247,3.442,7.69,7.69,7.69H496.62v87.15H132.642  V350.082z"/>
<path style="fill:#2E3033;" d="M21.013,482.462c-6.442,0-11.685-5.242-11.685-11.685V41.115c0-6.383,5.194-11.577,11.577-11.577  h1.527c6.444,0,11.685,5.242,11.685,11.685v429.552c0,6.444-5.242,11.685-11.685,11.685h-1.419V482.462z"/>
<path d="M22.432,20.211h-1.527C9.378,20.211,0,29.588,0,41.115v429.661c0,11.587,9.426,21.013,21.013,21.013h1.418  c11.587,0,21.013-9.426,21.013-21.013V41.223C43.444,29.637,34.018,20.211,22.432,20.211z M27.898,470.777  c0,3.014-2.452,5.466-5.466,5.466h-1.418c-3.014,0-5.466-2.452-5.466-5.466V41.115c0-2.955,2.403-5.358,5.358-5.358h1.527  c3.014,0,5.466,2.452,5.466,5.466v429.553H27.898z"/>
<g>
</g>
<g>
</g>
<g>
</g>
<g>
</g>
<g>
</g>
<g>
</g>
<g>
</g>
<g>
</g>
<g>
</g>
<g>
</g>
<g>
</g>
<g>
</g>
<g>
</g>
<g>
</g>
<g>
</g>
</svg>
