<?xml version="1.0" encoding="iso-8859-1"?>
<!-- Generator: Adobe Illustrator 19.0.0, SVG Export Plug-In . SVG Version: 6.00 Build 0)  -->
<svg xmlns="http://www.w3.org/2000/svg" xmlns:xlink="http://www.w3.org/1999/xlink" version="1.1" id="Layer_1" x="0px" y="0px" viewBox="0 0 512.001 512.001" style="enable-background:new 0 0 512.001 512.001;" xml:space="preserve">
<g>
	<polygon style="fill:#ED1F34;" points="298.422,145.251 436.886,52.942 298.422,52.942  "/>
	<polygon style="fill:#ED1F34;" points="496.237,233.419 369.201,233.419 496.237,318.112  "/>
	<path style="fill:#ED1F34;" d="M94.299,171.946h71.87L39.132,87.255v84.691h23.643c4.353,0,7.881,3.528,7.881,7.881h15.763   C86.418,175.474,89.946,171.946,94.299,171.946z"/>
	<polygon style="fill:#ED1F34;" points="496.237,87.255 369.2,171.946 496.237,171.946  "/>
	<path style="fill:#ED1F34;" d="M298.422,328.781v23.644h138.465l-138.465-92.31v37.142c0,4.353-3.528,7.881-7.882,7.881v15.763   C294.893,320.9,298.422,324.428,298.422,328.781z"/>
	<polygon style="fill:#ED1F34;" points="166.169,233.419 39.132,233.419 39.132,318.112  "/>
	<polygon style="fill:#ED1F34;" points="236.948,145.251 236.948,52.942 98.484,52.942  "/>
	<polygon style="fill:#ED1F34;" points="236.948,260.115 98.484,352.424 236.948,352.424  "/>
</g>
<g>
	<polygon style="fill:#259245;" points="298.422,171.946 340.785,171.946 496.237,68.312 496.237,52.942 465.301,52.942    298.422,164.194  "/>
	<polygon style="fill:#259245;" points="496.237,337.055 340.786,233.419 298.422,233.419 298.422,241.172 465.301,352.424    496.237,352.424  "/>
	<polygon style="fill:#259245;" points="39.132,68.312 194.586,171.946 236.948,171.946 236.948,164.194 70.069,52.942    39.132,52.942  "/>
	<polygon style="fill:#259245;" points="236.948,233.419 194.584,233.419 39.132,337.055 39.132,352.424 70.069,352.424    236.948,241.172  "/>
</g>
<path d="M512,332.786V72.58c0-0.007,0-0.016,0-0.016V45.06c0-4.353-3.528-7.881-7.882-7.881h-41.16c-0.001,0-0.003,0-0.005,0H72.428  c-0.008,0-0.017,0-0.024,0H31.25c-4.353,0-7.881,3.528-7.881,7.881v27.498c0,0,0,0.016,0,0.022v260.205v0.015v27.506  c0,4.354,3.528,7.882,7.881,7.882h41.194c0.006,0,0.012,0.001,0.017,0.001s0.011-0.001,0.016-0.001h390.418  c0.004,0,0.01,0.001,0.015,0.001s0.011-0.001,0.017-0.001h41.193c4.354,0,7.882-3.528,7.882-7.882v-27.497v-0.023H512z   M465.301,352.424L298.422,241.172v-7.752h42.365l155.451,103.635v15.371h-30.938V352.424z M496.237,233.419v84.691l-127.037-84.691  H496.237z M496.237,52.942v15.371L340.785,171.948h-42.364v-7.752l166.88-111.254H496.237z M496.237,87.255v84.691H369.2  L496.237,87.255z M298.422,145.251v-92.31h138.465L298.422,145.251z M282.659,179.827c0,4.354,3.528,7.882,7.881,7.882h205.699  v29.948H290.54c-4.353,0-7.881,3.528-7.881,7.881v71.719c0,4.353,3.528,7.881,7.881,7.881c4.354,0,7.882-3.528,7.882-7.881v-37.142  l138.465,92.31H298.422V328.78c0-4.353-3.528-7.881-7.882-7.881c-4.353,0-7.881,3.528-7.881,7.881v23.644h-29.948V225.538  c0-4.353-3.528-7.881-7.881-7.881H39.132v-29.948h23.643c4.353,0,7.881-3.528,7.881-7.882l0,0c0-4.353-3.528-7.881-7.881-7.881  H39.132V87.255l127.039,84.691H94.299c-4.354,0-7.882,3.528-7.882,7.881l0,0c0,4.354,3.528,7.882,7.882,7.882h150.53  c4.353,0,7.881-3.528,7.881-7.882V52.942h29.948v126.886H282.659z M166.169,233.419L39.132,318.112V233.42h127.038V233.419z   M39.132,352.424v-15.371l155.453-103.635h42.364v7.752L70.069,352.424H39.132z M236.948,260.115v92.31H98.484L236.948,260.115z   M70.069,52.942l166.88,111.253v7.752h-42.363L39.132,68.312V52.942C39.132,52.942,70.069,52.942,70.069,52.942z M236.948,145.251  L98.484,52.942h138.465v92.31H236.948z"/>
<path style="fill:#FFFFFF;" d="M252.71,179.827c0,4.354-3.528,7.882-7.881,7.882H94.299c-4.354,0-7.882-3.528-7.882-7.882l0,0  H70.656l0,0c0,4.354-3.528,7.882-7.881,7.882H39.132v29.948h205.699c4.353,0,7.881,3.528,7.881,7.881v126.887h29.948V328.78  c0-4.353,3.528-7.881,7.881-7.881v-15.763c-4.353,0-7.881-3.528-7.881-7.881v-71.719c0-4.353,3.528-7.881,7.881-7.881h205.699  v-29.947H290.54c-4.353,0-7.881-3.528-7.881-7.882V52.942h-29.948v126.886H252.71z"/>
<path style="fill:#2E3033;" d="M21.536,488.1c-6.603,0-11.976-5.373-11.976-11.976V35.766c0-6.542,5.323-11.865,11.865-11.865h1.565  c6.604,0,11.976,5.373,11.976,11.976v440.247c0,6.604-5.373,11.976-11.976,11.976h-1.454V488.1z"/>
<path d="M22.99,14.341h-1.565C9.611,14.341,0,23.952,0,35.766v440.358C0,488,9.661,497.66,21.536,497.66h1.453  c11.876,0,21.536-9.661,21.536-21.536V35.877C44.526,24.002,34.865,14.341,22.99,14.341z M28.592,476.124  c0,3.089-2.513,5.602-5.602,5.602h-1.453c-3.089,0-5.602-2.513-5.602-5.602V35.766c0-3.028,2.463-5.492,5.492-5.492h1.565  c3.089,0,5.602,2.513,5.602,5.602v440.248H28.592z"/>
<g>
</g>
<g>
</g>
<g>
</g>
<g>
</g>
<g>
</g>
<g>
</g>
<g>
</g>
<g>
</g>
<g>
</g>
<g>
</g>
<g>
</g>
<g>
</g>
<g>
</g>
<g>
</g>
<g>
</g>
</svg>
