<?xml version="1.0" encoding="iso-8859-1"?>
<!-- Generator: Adobe Illustrator 19.0.0, SVG Export Plug-In . SVG Version: 6.00 Build 0)  -->
<svg xmlns="http://www.w3.org/2000/svg" xmlns:xlink="http://www.w3.org/1999/xlink" version="1.1" id="Layer_1" x="0px" y="0px" viewBox="0 0 512 512" style="enable-background:new 0 0 512 512;" xml:space="preserve">
<path style="fill:#FFE000;" d="M342.826,350.082V57.874H204.412v23.069c0,4.247-3.442,7.689-7.689,7.689v15.38  c4.247,0,7.689,3.442,7.689,7.69v238.381h138.414V350.082z M235.132,156.923c4.202-0.562,8.08,2.391,8.643,6.6l6.873,51.294  l15.281-7.942v-58.264c0-4.247,3.443-7.689,7.69-7.689s7.69,3.442,7.69,7.689v58.264l15.281,7.942l6.873-51.294  c0.563-4.21,4.433-7.162,8.643-6.6c4.21,0.564,7.164,4.434,6.6,8.643l-8.326,62.145c-0.332,2.482-1.853,4.647-4.076,5.803  c-1.111,0.577-2.329,0.866-3.546,0.866c-1.218,0-2.435-0.289-3.547-0.866l-17.902-9.305v35.134c0,4.248-3.443,7.69-7.69,7.69  s-7.69-3.442-7.69-7.69v-35.134l-17.902,9.305c-2.222,1.155-4.868,1.155-7.092,0c-2.223-1.155-3.744-3.321-4.076-5.803  l-8.326-62.145C227.969,161.358,230.923,157.487,235.132,156.923z"/>
<g>
	<path style="fill:#103B9B;" d="M189.033,80.943V57.874H50.619v292.209h138.414V111.702c0-4.248,3.442-7.69,7.69-7.69v-15.38   C192.475,88.632,189.033,85.189,189.033,80.943z"/>
	<rect x="358.203" y="57.874" style="fill:#103B9B;" width="138.416" height="292.213"/>
</g>
<path d="M504.31,42.494H42.929c-4.248,0-7.69,3.442-7.69,7.689v307.588c0,4.248,3.442,7.69,7.69,7.69h461.38  c4.248,0,7.69-3.442,7.69-7.69V50.183C512,45.936,508.558,42.494,504.31,42.494z M496.62,350.082H358.206V57.874H496.62V350.082z   M196.723,104.011c-4.248,0-7.69,3.442-7.69,7.69v238.381H50.619V57.874h138.414v23.069c0,4.247,3.442,7.689,7.69,7.689  c4.247,0,7.689-3.442,7.689-7.689V57.874h138.415v292.209H204.412V111.702C204.412,107.454,200.969,104.011,196.723,104.011z"/>
<path d="M236.858,227.71c0.332,2.482,1.853,4.647,4.076,5.803c2.224,1.155,4.87,1.155,7.092,0l17.902-9.305v35.134  c0,4.248,3.443,7.69,7.69,7.69s7.69-3.442,7.69-7.69v-35.134l17.902,9.305c1.112,0.577,2.329,0.866,3.547,0.866  c1.217,0,2.435-0.289,3.546-0.866c2.223-1.155,3.744-3.321,4.076-5.803l8.326-62.145c0.564-4.209-2.391-8.079-6.6-8.643  c-4.21-0.562-8.08,2.391-8.643,6.6l-6.873,51.294l-15.281-7.942v-58.264c0-4.247-3.443-7.689-7.69-7.689s-7.69,3.442-7.69,7.689  v58.264l-15.281,7.942l-6.873-51.294c-0.563-4.21-4.441-7.162-8.643-6.6c-4.21,0.564-7.164,4.434-6.6,8.643L236.858,227.71z"/>
<path style="fill:#2E3033;" d="M21.013,482.462c-6.442,0-11.685-5.242-11.685-11.685V41.115c0-6.383,5.194-11.577,11.577-11.577  h1.527c6.444,0,11.685,5.242,11.685,11.685v429.552c0,6.444-5.242,11.685-11.685,11.685h-1.419V482.462z"/>
<path d="M22.432,20.211h-1.527C9.378,20.211,0,29.588,0,41.115v429.661c0,11.587,9.426,21.013,21.013,21.013h1.418  c11.587,0,21.013-9.426,21.013-21.013V41.223C43.444,29.637,34.018,20.211,22.432,20.211z M27.898,470.777  c0,3.014-2.452,5.466-5.466,5.466h-1.418c-3.014,0-5.466-2.452-5.466-5.466V41.115c0-2.955,2.403-5.358,5.358-5.358h1.527  c3.014,0,5.466,2.452,5.466,5.466v429.554H27.898z"/>
<g>
</g>
<g>
</g>
<g>
</g>
<g>
</g>
<g>
</g>
<g>
</g>
<g>
</g>
<g>
</g>
<g>
</g>
<g>
</g>
<g>
</g>
<g>
</g>
<g>
</g>
<g>
</g>
<g>
</g>
</svg>
