<?xml version="1.0" encoding="iso-8859-1"?>
<!-- Generator: Adobe Illustrator 19.0.0, SVG Export Plug-In . SVG Version: 6.00 Build 0)  -->
<svg xmlns="http://www.w3.org/2000/svg" xmlns:xlink="http://www.w3.org/1999/xlink" version="1.1" id="Layer_1" x="0px" y="0px" viewBox="0 0 511.999 511.999" style="enable-background:new 0 0 511.999 511.999;" xml:space="preserve">
<path style="fill:#259245;" d="M51.551,349.891h445.101V58.273H51.551V349.891z M241.519,119.666  c39.989,0,74.779,28.405,82.725,67.541c0.843,4.154-1.84,8.204-5.994,9.048c-0.127,0.026-0.252,0.038-0.38,0.057  c0.258,2.556,0.39,5.148,0.39,7.771c0,2.623-0.133,5.214-0.39,7.77c0.127,0.02,0.252,0.032,0.38,0.058  c4.154,0.843,6.837,4.893,5.994,9.047c-7.945,39.135-42.735,67.541-82.725,67.541c-46.546,0-84.416-37.868-84.416-84.415  C157.104,157.535,194.973,119.666,241.519,119.666z"/>
<path d="M504.326,42.925H43.877c-4.239,0-7.675,3.436-7.675,7.674v306.966c0,4.239,3.436,7.674,7.674,7.674h460.449  c4.239,0,7.674-3.435,7.674-7.674V50.599C512,46.361,508.564,42.925,504.326,42.925z M496.651,349.891H51.551V58.273h445.101  L496.651,349.891L496.651,349.891z"/>
<path style="fill:#ED1F34;" d="M309.203,190.261c-6.499-32.012-34.963-55.246-67.683-55.246c-38.085,0-69.067,30.984-69.067,69.067  s30.984,69.066,69.067,69.066c32.719,0,61.185-23.233,67.683-55.245c0.818-4.028,4.648-6.662,8.668-6.052  c0.258-2.556,0.39-5.147,0.39-7.77s-0.133-5.215-0.39-7.771C313.855,196.924,310.021,194.287,309.203,190.261z"/>
<path d="M241.519,288.498c39.989,0,74.779-28.404,82.725-67.541c0.843-4.154-1.84-8.204-5.994-9.047  c-0.127-0.026-0.252-0.038-0.38-0.058c-4.02-0.611-7.851,2.024-8.668,6.052c-6.499,32.012-34.963,55.245-67.683,55.245  c-38.085,0-69.067-30.983-69.067-69.066c0-38.085,30.984-69.067,69.067-69.067c32.719,0,61.185,23.234,67.683,55.246  c0.818,4.027,4.652,6.663,8.668,6.051c0.127-0.02,0.252-0.031,0.38-0.057c4.154-0.843,6.837-4.895,5.994-9.048  c-7.945-39.135-42.735-67.541-82.725-67.541c-46.546,0-84.416,37.868-84.416,84.416  C157.104,250.629,194.973,288.498,241.519,288.498z"/>
<path style="fill:#2E3033;" d="M20.97,482.004c-6.429,0-11.661-5.232-11.661-11.661V41.549c0-6.371,5.183-11.554,11.554-11.554  h1.524c6.431,0,11.661,5.232,11.661,11.661v428.685c0,6.431-5.232,11.661-11.661,11.661H20.97V482.004z"/>
<path d="M22.386,20.686h-1.524C9.359,20.686,0,30.045,0,41.549v428.793c0,11.563,9.407,20.97,20.97,20.97h1.415  c11.564,0,20.97-9.407,20.97-20.97V41.657C43.357,30.094,33.949,20.686,22.386,20.686z M27.841,470.342  c0,3.008-2.447,5.455-5.455,5.455h-1.415c-3.008,0-5.455-2.447-5.455-5.455V41.549c0-2.949,2.399-5.348,5.348-5.348h1.524  c3.008,0,5.455,2.447,5.455,5.455v428.686H27.841z"/>
<g>
</g>
<g>
</g>
<g>
</g>
<g>
</g>
<g>
</g>
<g>
</g>
<g>
</g>
<g>
</g>
<g>
</g>
<g>
</g>
<g>
</g>
<g>
</g>
<g>
</g>
<g>
</g>
<g>
</g>
</svg>
