<?xml version="1.0" encoding="iso-8859-1"?>
<!-- Generator: Adobe Illustrator 19.0.0, SVG Export Plug-In . SVG Version: 6.00 Build 0)  -->
<svg xmlns="http://www.w3.org/2000/svg" xmlns:xlink="http://www.w3.org/1999/xlink" version="1.1" id="Layer_1" x="0px" y="0px" viewBox="0 0 512 512" style="enable-background:new 0 0 512 512;" xml:space="preserve">
<rect x="275.566" y="52.952" style="fill:#FFE000;" width="220.67" height="27.147"/>
<rect x="275.566" y="80.093" style="fill:#ED1F34;" width="220.67" height="35.027"/>
<rect x="275.566" y="115.126" style="fill:#FFE000;" width="220.67" height="35.027"/>
<rect x="275.566" y="150.148" style="fill:#ED1F34;" width="220.67" height="35.027"/>
<path style="fill:#FFE000;" d="M496.237,185.178H275.565v17.514c0,2.09-0.83,4.094-2.307,5.573c-1.48,1.479-3.483,2.308-5.574,2.308  l-228.553-0.005v9.637h457.106L496.237,185.178L496.237,185.178z"/>
<rect x="39.132" y="220.202" style="fill:#ED1F34;" width="457.103" height="35.028"/>
<rect x="39.132" y="255.235" style="fill:#FFE000;" width="457.103" height="35.027"/>
<rect x="39.132" y="290.257" style="fill:#ED1F34;" width="457.103" height="35.028"/>
<path style="fill:#FFE000;" d="M94.299,352.433h401.938v-27.146H39.132v27.146h23.643c4.353,0,7.881,3.529,7.881,7.882h15.763  C86.419,355.962,89.946,352.433,94.299,352.433z"/>
<path style="fill:#6806C1;" d="M259.803,52.952H39.132v141.856l220.671,0.004V52.952z M73.767,120.242  c0-4.353,3.528-7.881,7.881-7.881h9.8v-8.285c0-4.353,3.529-7.882,7.882-7.882s7.882,3.529,7.882,7.882v8.285h9.306v-8.285  c0-4.353,3.528-7.882,7.881-7.882c4.354,0,7.882,3.529,7.882,7.882v8.285h9.306V87.103c0-4.354,3.528-7.881,7.882-7.881  c4.353,0,7.881,3.527,7.881,7.881v25.259h9.307v-8.285c0-4.353,3.528-7.882,7.881-7.882s7.882,3.529,7.882,7.882v8.285h9.305v-8.285  c0-4.353,3.528-7.882,7.881-7.882c4.354,0,7.882,3.529,7.882,7.882v8.285h9.801c4.353,0,7.881,3.528,7.881,7.881  c0,2.177-0.881,4.145-2.305,5.57v26.965h2.881c4.354,0,7.882,3.529,7.882,7.882c0,4.353-3.528,7.882-7.882,7.882H73.192  c-4.354,0-7.881-3.529-7.881-7.882c0-4.353,3.527-7.882,7.881-7.882h2.882v-26.965C74.648,124.388,73.767,122.419,73.767,120.242z"/>
<path style="fill:#FFFFFF;" d="M207.1,128.124H91.836v24.654h49.75v-5.86c0-4.353,3.528-7.881,7.882-7.881  c4.353,0,7.881,3.528,7.881,7.881v5.86H207.1L207.1,128.124L207.1,128.124z"/>
<path d="M76.073,152.778h-2.882c-4.354,0-7.881,3.529-7.881,7.882c0,4.353,3.527,7.882,7.881,7.882h152.551  c4.354,0,7.882-3.529,7.882-7.882c0-4.353-3.528-7.882-7.882-7.882h-2.881v-26.965c1.424-1.426,2.305-3.394,2.305-5.57  c0-4.353-3.528-7.881-7.881-7.881h-9.801v-8.285c0-4.353-3.528-7.882-7.882-7.882c-4.353,0-7.881,3.529-7.881,7.882v8.285h-9.305  v-8.285c0-4.353-3.529-7.882-7.882-7.882c-4.353,0-7.881,3.529-7.881,7.882v8.285h-9.307V87.103c0-4.354-3.528-7.881-7.881-7.881  c-4.354,0-7.882,3.527-7.882,7.881v25.259h-9.306v-8.285c0-4.353-3.528-7.882-7.882-7.882c-4.353,0-7.881,3.529-7.881,7.882v8.285  h-9.306v-8.285c0-4.353-3.529-7.882-7.882-7.882c-4.353,0-7.882,3.529-7.882,7.882v8.285h-9.8c-4.353,0-7.881,3.528-7.881,7.881  c0,2.177,0.881,4.145,2.306,5.57v26.965H76.073z M157.349,152.778v-5.86c0-4.353-3.528-7.881-7.881-7.881  c-4.354,0-7.882,3.528-7.882,7.881v5.86h-49.75v-24.654H207.1v24.654H157.349z"/>
<path d="M504.118,37.189H267.888c-0.068-0.002-0.135-0.011-0.203-0.011s-0.135,0.008-0.203,0.011H31.25  c-4.353,0-7.881,3.529-7.881,7.882v315.244c0,4.353,3.528,7.882,7.881,7.882h31.525c4.353,0,7.881-3.529,7.881-7.882l0,0  c0-4.353-3.528-7.882-7.881-7.882H39.132v-27.146v-35.028v-35.027v-35.028v-9.637l228.553,0.006c2.09,0,4.094-0.83,5.574-2.308  c1.478-1.479,2.307-3.482,2.307-5.573v-17.514v-35.027v-35.027V80.097V52.952h220.672v27.147v35.027v35.027v35.027v35.027v35.028  v35.027v35.028v27.146H94.299c-4.354,0-7.881,3.529-7.882,7.882l0,0c0,4.353,3.528,7.882,7.882,7.882h409.819  c4.354,0,7.882-3.529,7.882-7.882V45.071C512,40.718,508.472,37.189,504.118,37.189z M39.132,52.952h220.671v141.86l-220.671-0.004  C39.132,194.808,39.132,52.952,39.132,52.952z"/>
<path style="fill:#2E3033;" d="M21.536,488.1c-6.603,0-11.976-5.373-11.976-11.976V35.766c0-6.542,5.323-11.865,11.865-11.865h1.565  c6.604,0,11.976,5.373,11.976,11.976v440.247c0,6.604-5.373,11.976-11.976,11.976h-1.454V488.1z"/>
<path d="M22.99,14.34h-1.565C9.611,14.34,0,23.951,0,35.766v440.358C0,488,9.661,497.66,21.536,497.66h1.453  c11.876,0,21.536-9.661,21.536-21.536V35.876C44.526,24.001,34.865,14.34,22.99,14.34z M28.592,476.124  c0,3.089-2.513,5.602-5.602,5.602h-1.453c-3.089,0-5.602-2.513-5.602-5.602V35.766c0-3.028,2.463-5.492,5.492-5.492h1.565  c3.089,0,5.602,2.513,5.602,5.602v440.248H28.592z"/>
<g>
</g>
<g>
</g>
<g>
</g>
<g>
</g>
<g>
</g>
<g>
</g>
<g>
</g>
<g>
</g>
<g>
</g>
<g>
</g>
<g>
</g>
<g>
</g>
<g>
</g>
<g>
</g>
<g>
</g>
</svg>
