<?xml version="1.0" encoding="iso-8859-1"?>
<!-- Generator: Adobe Illustrator 19.0.0, SVG Export Plug-In . SVG Version: 6.00 Build 0)  -->
<svg xmlns="http://www.w3.org/2000/svg" xmlns:xlink="http://www.w3.org/1999/xlink" version="1.1" id="Layer_1" x="0px" y="0px" viewBox="0 0 512 512" style="enable-background:new 0 0 512 512;" xml:space="preserve">
<path style="fill:#ED1F34;" d="M496.652,296.167V58.273H191.876l45.872,23.894c2.538,1.322,4.129,3.945,4.129,6.807  c0,2.862-1.591,5.484-4.129,6.806l-60.603,31.568l60.602,31.564c2.538,1.322,4.129,3.945,4.129,6.806  c0,2.861-1.592,5.485-4.129,6.806l-60.602,31.565l60.602,31.563c2.538,1.322,4.129,3.945,4.129,6.807  c0,2.862-1.592,5.484-4.129,6.806l-60.601,31.562l60.6,31.558c2.538,1.321,4.13,3.945,4.13,6.806c0,2.862-1.592,5.485-4.129,6.807  l-45.867,23.887h304.771v-23.022c0-4.239,3.436-7.675,7.674-7.675V303.84C500.087,303.841,496.652,300.404,496.652,296.167z"/>
<path style="fill:#FFFFFF;" d="M217.589,319.191l-60.6-31.559c-2.538-1.321-4.13-3.944-4.13-6.806c0-2.861,1.592-5.485,4.129-6.806  l60.602-31.562l-60.602-31.563c-2.537-1.322-4.129-3.945-4.129-6.807c0-2.861,1.592-5.484,4.129-6.806l60.602-31.565l-60.602-31.563  c-2.537-1.321-4.129-3.945-4.129-6.806c0-2.861,1.592-5.484,4.129-6.806l60.604-31.569l-58.938-30.701H51.562v291.61h107.092  L217.589,319.191z"/>
<path d="M496.652,326.863v23.021H191.88l45.867-23.887c2.538-1.322,4.129-3.945,4.129-6.807c0-2.861-1.592-5.484-4.13-6.806  l-60.6-31.558l60.601-31.562c2.538-1.322,4.129-3.945,4.129-6.806c0-2.861-1.592-5.485-4.129-6.807l-60.602-31.563l60.602-31.565  c2.538-1.321,4.129-3.945,4.129-6.806c0-2.861-1.592-5.484-4.129-6.806l-60.602-31.564l60.603-31.568  c2.538-1.322,4.129-3.945,4.129-6.806s-1.591-5.484-4.129-6.807l-45.872-23.894h304.777v237.894c0,4.238,3.436,7.674,7.674,7.674  c4.239,0,7.674-3.436,7.674-7.674V50.599c0-4.238-3.436-7.674-7.674-7.674H160.441c-0.018,0-0.035,0-0.053,0h-116.5  c-4.238,0-7.674,3.436-7.674,7.674v306.959c0,4.238,3.436,7.674,7.674,7.674h116.628c0.007,0,0.014,0.001,0.022,0.001  c0.008,0,0.017-0.001,0.025-0.001h343.762c4.239,0,7.674-3.436,7.674-7.674v-30.695c0-4.239-3.436-7.675-7.674-7.675  S496.652,322.624,496.652,326.863z M51.562,58.273h107.091l58.938,30.701l-60.604,31.569c-2.537,1.322-4.129,3.945-4.129,6.806  c0,2.861,1.592,5.485,4.129,6.806l60.602,31.563l-60.602,31.565c-2.537,1.322-4.129,3.945-4.129,6.806  c0,2.862,1.592,5.485,4.129,6.807l60.602,31.563l-60.602,31.562c-2.537,1.321-4.129,3.945-4.129,6.806  c0,2.862,1.592,5.485,4.13,6.806l60.6,31.559l-58.935,30.693H51.562V58.273z"/>
<path style="fill:#2E3033;" d="M20.97,482.004c-6.429,0-11.661-5.232-11.661-11.661V41.55c0-6.371,5.183-11.554,11.554-11.554h1.524  c6.431,0,11.661,5.232,11.661,11.661v428.685c0,6.431-5.232,11.661-11.661,11.661H20.97V482.004z"/>
<path d="M22.386,20.687h-1.524C9.359,20.687,0,30.046,0,41.55v428.793c0,11.563,9.407,20.97,20.97,20.97h1.415  c11.564,0,20.97-9.407,20.97-20.97V41.657C43.357,30.094,33.949,20.687,22.386,20.687z M27.841,470.343  c0,3.008-2.447,5.455-5.455,5.455h-1.415c-3.008,0-5.455-2.447-5.455-5.455V41.55c0-2.949,2.399-5.348,5.348-5.348h1.524  c3.008,0,5.455,2.447,5.455,5.455v428.686H27.841z"/>
<g>
</g>
<g>
</g>
<g>
</g>
<g>
</g>
<g>
</g>
<g>
</g>
<g>
</g>
<g>
</g>
<g>
</g>
<g>
</g>
<g>
</g>
<g>
</g>
<g>
</g>
<g>
</g>
<g>
</g>
</svg>
