<?xml version="1.0" encoding="iso-8859-1"?>
<!-- Generator: Adobe Illustrator 19.0.0, SVG Export Plug-In . SVG Version: 6.00 Build 0)  -->
<svg xmlns="http://www.w3.org/2000/svg" xmlns:xlink="http://www.w3.org/1999/xlink" version="1.1" id="Layer_1" x="0px" y="0px" viewBox="0 0 512 512" style="enable-background:new 0 0 512 512;" xml:space="preserve">
<path style="fill:#ED1F34;" d="M442.793,247.553h53.828v-87.15H50.619v87.15h361.416c4.247,0,7.689,3.443,7.689,7.689h15.38  C435.104,250.995,438.546,247.553,442.793,247.553z M281.073,229.269c-5.37,3.912-11.728,5.979-18.387,5.979  c-17.242,0-31.271-14.028-31.271-31.271s14.029-31.271,31.271-31.271c6.659,0,13.017,2.068,18.386,5.978  c3.434,2.5,4.189,7.31,1.689,10.743c-2.499,3.433-7.309,4.189-10.743,1.689c-2.722-1.984-5.949-3.031-9.333-3.031  c-8.763,0-15.892,7.129-15.892,15.892c0,8.763,7.129,15.892,15.892,15.892c3.384,0,6.611-1.048,9.334-3.031  c3.433-2.5,8.243-1.745,10.743,1.688C285.263,221.959,284.507,226.769,281.073,229.269z M297.81,212.763  c-4.852,0-8.785-3.932-8.785-8.785s3.933-8.786,8.785-8.786c4.853,0,8.787,3.933,8.787,8.786S302.661,212.763,297.81,212.763z"/>
<g>
	<path style="fill:#FFFFFF;" d="M272.02,216.838c-2.723,1.983-5.95,3.031-9.334,3.031c-8.763,0-15.892-7.129-15.892-15.892   c0-8.763,7.129-15.892,15.892-15.892c3.384,0,6.611,1.048,9.333,3.031c3.434,2.5,8.244,1.742,10.743-1.689   c2.5-3.434,1.744-8.243-1.689-10.743c-5.371-3.91-11.727-5.978-18.386-5.978c-17.242,0-31.271,14.028-31.271,31.271   s14.029,31.271,31.271,31.271c6.659,0,13.019-2.068,18.387-5.979c3.434-2.5,4.189-7.31,1.689-10.743   C280.263,215.094,275.453,214.338,272.02,216.838z"/>
	<circle style="fill:#FFFFFF;" cx="297.81" cy="203.981" r="8.786"/>
</g>
<path style="fill:#259245;" d="M442.793,262.932c-4.247,0-7.689-3.443-7.689-7.689h-15.38c0,4.246-3.442,7.689-7.689,7.689H50.619  v87.15H496.62v-87.15L442.793,262.932L442.793,262.932z"/>
<rect x="50.619" y="57.874" style="fill:#3DB4EA;" width="446" height="87.154"/>
<path d="M504.31,42.494H42.929c-4.248,0-7.69,3.443-7.69,7.689v307.588c0,4.247,3.442,7.689,7.69,7.689h461.38  c4.248,0,7.69-3.443,7.69-7.689V50.183C512,45.937,508.558,42.494,504.31,42.494z M496.62,57.874v87.15H50.619v-87.15H496.62z   M50.619,350.082v-87.15h361.416c4.247,0,7.689-3.443,7.689-7.689c0-4.247-3.442-7.689-7.689-7.689H50.619v-87.15H496.62v87.15  h-53.828c-4.247,0-7.689,3.443-7.689,7.689c0,4.246,3.442,7.689,7.689,7.689h53.828v87.15H50.619z"/>
<path style="fill:#2E3033;" d="M21.013,482.462c-6.442,0-11.685-5.242-11.685-11.685V41.115c0-6.383,5.194-11.577,11.577-11.577  h1.527c6.444,0,11.685,5.242,11.685,11.685v429.552c0,6.444-5.242,11.685-11.685,11.685h-1.419V482.462z"/>
<path d="M22.432,20.211h-1.527C9.378,20.211,0,29.588,0,41.115v429.661c0,11.587,9.426,21.013,21.013,21.013h1.418  c11.587,0,21.013-9.426,21.013-21.013V41.223C43.444,29.637,34.018,20.211,22.432,20.211z M27.898,470.777  c0,3.014-2.452,5.466-5.466,5.466h-1.418c-3.014,0-5.466-2.452-5.466-5.466V41.115c0-2.955,2.403-5.358,5.358-5.358h1.527  c3.014,0,5.466,2.452,5.466,5.466v429.554H27.898z"/>
<g>
</g>
<g>
</g>
<g>
</g>
<g>
</g>
<g>
</g>
<g>
</g>
<g>
</g>
<g>
</g>
<g>
</g>
<g>
</g>
<g>
</g>
<g>
</g>
<g>
</g>
<g>
</g>
<g>
</g>
</svg>
