<?xml version="1.0" encoding="iso-8859-1"?>
<!-- Generator: Adobe Illustrator 19.0.0, SVG Export Plug-In . SVG Version: 6.00 Build 0)  -->
<svg xmlns="http://www.w3.org/2000/svg" xmlns:xlink="http://www.w3.org/1999/xlink" version="1.1" id="Layer_1" x="0px" y="0px" viewBox="0 0 512 512" style="enable-background:new 0 0 512 512;" xml:space="preserve">
<g>
	<polygon style="fill:#103B9B;" points="138.278,58.273 92.752,58.273 138.278,88.624  "/>
	<polygon style="fill:#103B9B;" points="225.244,58.273 179.717,58.273 179.717,88.624  "/>
	<path style="fill:#103B9B;" d="M442.935,349.884h53.719V58.273H274.107v17.228l-46.677,31.118h46.677v9.593v22.255v9.592H227.43   l46.677,31.118v8.654v16.247h-37.352l-57.038-38.025v38.025h-9.592H147.87h-9.591v-38.025L81.24,204.079H68.79H51.562v145.805   h360.677c4.239,0,7.674,3.436,7.674,7.674h15.349C435.261,353.319,438.696,349.884,442.935,349.884z M158.998,311.514   c-16.954,0-30.697-13.743-30.697-30.696c0-16.953,13.743-30.696,30.697-30.696c16.953,0,30.695,13.743,30.695,30.696   C189.693,297.771,175.95,311.514,158.998,311.514z M389.216,96.643c8.476,0,15.349,6.872,15.349,15.348   s-6.872,15.348-15.349,15.348c-8.475,0-15.348-6.872-15.348-15.348S380.741,96.643,389.216,96.643z M343.172,204.079   c-8.476,0-15.349-6.872-15.349-15.349c0-8.475,6.872-15.348,15.349-15.348c8.475,0,15.348,6.872,15.348,15.348   C358.52,197.207,351.649,204.079,343.172,204.079z M389.216,311.514c-8.475,0-15.348-6.872-15.348-15.348   c0-8.475,6.872-15.348,15.348-15.348c8.476,0,15.349,6.872,15.349,15.348C404.565,304.642,397.693,311.514,389.216,311.514z    M412.239,233.496c-5.651,0-10.233-4.581-10.233-10.232c0-5.651,4.582-10.233,10.233-10.233s10.233,4.581,10.233,10.233   S417.889,233.496,412.239,233.496z M419.912,150.36c0-8.475,6.872-15.348,15.349-15.348c8.475,0,15.348,6.872,15.348,15.348   c0,8.476-6.872,15.349-15.348,15.349C426.784,165.709,419.912,158.837,419.912,150.36z"/>
	<polygon style="fill:#103B9B;" points="51.562,80.617 51.562,106.619 90.566,106.619  "/>
	<polygon style="fill:#103B9B;" points="51.562,148.059 51.562,174.06 90.566,148.059  "/>
</g>
<g>
	<polygon style="fill:#ED1F34;" points="190.077,148.059 274.107,204.079 274.107,187.832 214.589,148.059  "/>
	<polygon style="fill:#ED1F34;" points="138.278,157.754 138.278,148.059 127.918,148.059 51.562,198.962 51.562,204.079    68.79,204.079  "/>
	<polygon style="fill:#ED1F34;" points="127.918,106.619 55.399,58.273 51.562,58.273 51.562,72.34 102.856,106.619  "/>
	<polygon style="fill:#ED1F34;" points="179.717,106.619 190.077,106.619 262.596,58.273 237.695,58.273 179.717,96.929  "/>
</g>
<g>
	<polygon style="fill:#FFFFFF;" points="147.87,116.212 147.87,58.273 138.278,58.273 138.278,88.624 92.752,58.273 55.399,58.273    127.918,106.619 102.856,106.619 51.562,72.34 51.562,80.617 90.566,106.619 51.562,106.619 51.562,116.212  "/>
	<polygon style="fill:#FFFFFF;" points="170.125,116.212 274.107,116.212 274.107,106.619 227.43,106.619 274.107,75.501    274.107,58.273 262.596,58.273 190.077,106.619 179.717,106.619 179.717,96.929 237.695,58.273 225.244,58.273 179.717,88.624    179.717,58.273 170.125,58.273  "/>
	<polygon style="fill:#FFFFFF;" points="170.125,138.467 170.125,204.079 179.717,204.079 179.717,166.055 236.755,204.079    274.107,204.079 190.077,148.059 214.589,148.059 274.107,187.832 274.107,179.177 227.43,148.059 274.107,148.059    274.107,138.467  "/>
	<polygon style="fill:#FFFFFF;" points="138.278,148.059 138.278,157.754 68.79,204.079 81.24,204.079 138.278,166.055    138.278,204.079 147.87,204.079 147.87,138.467 51.562,138.467 51.562,148.059 90.566,148.059 51.562,174.06 51.562,198.962    127.918,148.059  "/>
</g>
<polygon style="fill:#ED1F34;" points="147.87,138.467 147.87,204.079 170.125,204.079 170.125,138.467 274.107,138.467   274.107,116.212 170.125,116.212 170.125,58.273 147.87,58.273 147.87,116.212 51.562,116.212 51.562,138.467 "/>
<g>
	<circle style="fill:#FFFFFF;" cx="158.999" cy="280.814" r="30.696"/>
	<circle style="fill:#FFFFFF;" cx="389.213" cy="111.988" r="15.348"/>
	<circle style="fill:#FFFFFF;" cx="389.213" cy="296.164" r="15.348"/>
	<circle style="fill:#FFFFFF;" cx="435.262" cy="150.363" r="15.348"/>
	<circle style="fill:#FFFFFF;" cx="343.174" cy="188.726" r="15.348"/>
	<circle style="fill:#FFFFFF;" cx="412.238" cy="223.263" r="10.232"/>
</g>
<path d="M504.326,42.925H43.888c-4.239,0-7.674,3.436-7.674,7.674v306.959c0,4.239,3.435,7.674,7.674,7.674h368.35  c4.239,0,7.674-3.436,7.674-7.674c0-4.238-3.435-7.674-7.674-7.674H51.562V204.079v-5.116v-24.902v-26.002v-9.592v-22.255v-9.593  V80.617V72.34V58.273h3.837h37.352h45.527h9.591h22.255h9.592h45.527h12.451h24.901h11.511h222.545v291.61h-53.719  c-4.239,0-7.674,3.436-7.674,7.674c0,4.239,3.435,7.674,7.674,7.674h61.392c4.239,0,7.674-3.436,7.674-7.674V50.599  C512,46.361,508.565,42.925,504.326,42.925z"/>
<path style="fill:#2E3033;" d="M20.97,482.004c-6.429,0-11.661-5.232-11.661-11.661V41.55c0-6.371,5.183-11.554,11.554-11.554h1.524  c6.431,0,11.661,5.232,11.661,11.661v428.685c0,6.431-5.232,11.661-11.661,11.661H20.97V482.004z"/>
<path d="M22.386,20.687h-1.524C9.359,20.687,0,30.046,0,41.55v428.793c0,11.563,9.407,20.97,20.97,20.97h1.415  c11.564,0,20.97-9.407,20.97-20.97V41.657C43.357,30.094,33.949,20.687,22.386,20.687z M27.841,470.343  c0,3.008-2.447,5.455-5.455,5.455h-1.415c-3.008,0-5.455-2.447-5.455-5.455V41.55c0-2.949,2.399-5.348,5.348-5.348h1.524  c3.008,0,5.455,2.447,5.455,5.455v428.686H27.841z"/>
<g>
</g>
<g>
</g>
<g>
</g>
<g>
</g>
<g>
</g>
<g>
</g>
<g>
</g>
<g>
</g>
<g>
</g>
<g>
</g>
<g>
</g>
<g>
</g>
<g>
</g>
<g>
</g>
<g>
</g>
</svg>
