<?xml version="1.0" encoding="iso-8859-1"?>
<!-- Generator: Adobe Illustrator 19.0.0, SVG Export Plug-In . SVG Version: 6.00 Build 0)  -->
<svg xmlns="http://www.w3.org/2000/svg" xmlns:xlink="http://www.w3.org/1999/xlink" version="1.1" id="Layer_1" x="0px" y="0px" viewBox="0 0 512 512" style="enable-background:new 0 0 512 512;" xml:space="preserve">
<g>
	<rect x="39.132" y="274.122" style="fill:#3DB4EA;" width="457.103" height="18.914"/>
	<rect x="39.132" y="311.948" style="fill:#3DB4EA;" width="457.103" height="40.45"/>
	<path style="fill:#3DB4EA;" d="M409.546,52.94H39.132v202.271h457.106V52.94h-55.169c-4.353,0-7.881-3.528-7.881-7.881h-15.763   C417.427,49.412,413.898,52.94,409.546,52.94z M193.443,154.468l-39.691,13.086l-13.087,39.69c-1.065,3.23-4.083,5.413-7.486,5.413   c-3.401,0-6.419-2.183-7.485-5.413l-13.087-39.69l-39.691-13.086c-3.23-1.064-5.413-4.083-5.413-7.485   c0-3.402,2.183-6.419,5.413-7.485l39.691-13.086l13.087-39.69c1.065-3.23,4.083-5.413,7.485-5.413c3.402,0,6.42,2.183,7.486,5.413   l13.087,39.69l39.691,13.086c3.23,1.065,5.413,4.083,5.413,7.485C198.856,150.385,196.673,153.402,193.443,154.468z"/>
</g>
<g>
	<rect x="39.132" y="293.04" style="fill:#FFE000;" width="457.103" height="18.914"/>
	<rect x="39.132" y="255.214" style="fill:#FFE000;" width="457.103" height="18.914"/>
</g>
<path style="fill:#ED1F34;" d="M145.043,140.137c-2.372-0.783-4.233-2.644-5.018-5.017l-6.845-20.761l-6.845,20.761  c-0.783,2.373-2.644,4.234-5.017,5.017l-20.765,6.845l20.765,6.845c2.372,0.783,4.233,2.644,5.017,5.017l6.845,20.761l6.845-20.761  c0.784-2.373,2.645-4.234,5.018-5.017l20.764-6.845L145.043,140.137z"/>
<path style="fill:#FFFFFF;" d="M193.443,139.498l-39.691-13.086l-13.087-39.69c-1.065-3.23-4.083-5.413-7.486-5.413  c-3.401,0-6.419,2.183-7.485,5.413l-13.087,39.69l-39.691,13.086c-3.23,1.065-5.413,4.083-5.413,7.485  c0,3.401,2.183,6.419,5.413,7.485l39.691,13.086l13.087,39.69c1.065,3.23,4.083,5.413,7.485,5.413c3.402,0,6.42-2.183,7.486-5.413  l13.087-39.69l39.691-13.086c3.23-1.064,5.413-4.083,5.413-7.485C198.856,143.581,196.673,140.563,193.443,139.498z   M140.025,158.845l-6.845,20.761l-6.845-20.761c-0.783-2.373-2.644-4.234-5.017-5.017l-20.765-6.845l20.765-6.845  c2.372-0.783,4.233-2.644,5.017-5.017l6.845-20.761l6.845,20.761c0.784,2.373,2.645,4.234,5.018,5.017l20.764,6.845l-20.764,6.845  C142.671,154.61,140.81,156.472,140.025,158.845z"/>
<path d="M504.118,37.178H441.07c-4.353,0-7.881,3.528-7.881,7.881s3.528,7.881,7.881,7.881h55.169v202.271v18.914v18.914v18.914  v40.453H39.132v-40.453v-18.914v-18.914v-18.914V52.94h370.414c4.353,0,7.881-3.528,7.881-7.881s-3.529-7.881-7.881-7.881H31.251  c-4.354,0-7.882,3.528-7.882,7.881v315.227c0,4.352,3.528,7.881,7.882,7.881h472.867c4.354,0,7.882-3.529,7.882-7.881V45.059  C512,40.706,508.472,37.178,504.118,37.178z"/>
<path style="fill:#2E3033;" d="M21.536,488.1c-6.603,0-11.976-5.373-11.976-11.976V35.766c0-6.542,5.323-11.865,11.865-11.865h1.565  c6.604,0,11.976,5.373,11.976,11.976v440.247c0,6.604-5.373,11.976-11.976,11.976h-1.454V488.1z"/>
<path d="M22.99,14.34h-1.565C9.611,14.34,0,23.951,0,35.766v440.358C0,488,9.661,497.66,21.536,497.66h1.453  c11.876,0,21.536-9.661,21.536-21.536V35.876C44.526,24.001,34.865,14.34,22.99,14.34z M28.592,476.124  c0,3.089-2.513,5.602-5.602,5.602h-1.453c-3.089,0-5.602-2.513-5.602-5.602V35.766c0-3.028,2.463-5.492,5.492-5.492h1.565  c3.089,0,5.602,2.513,5.602,5.602v440.248H28.592z"/>
<g>
</g>
<g>
</g>
<g>
</g>
<g>
</g>
<g>
</g>
<g>
</g>
<g>
</g>
<g>
</g>
<g>
</g>
<g>
</g>
<g>
</g>
<g>
</g>
<g>
</g>
<g>
</g>
<g>
</g>
</svg>
