<?xml version="1.0" encoding="iso-8859-1"?>
<!-- Generator: Adobe Illustrator 19.0.0, SVG Export Plug-In . SVG Version: 6.00 Build 0)  -->
<svg xmlns="http://www.w3.org/2000/svg" xmlns:xlink="http://www.w3.org/1999/xlink" version="1.1" id="Layer_1" x="0px" y="0px" viewBox="0 0 512 512" style="enable-background:new 0 0 512 512;" xml:space="preserve">
<path style="fill:#FFFFFF;" d="M496.621,160.4H50.63v87.148h445.992V160.4H496.621z M273.626,232.168  c-15.547,0-28.195-12.648-28.195-28.194s12.649-28.194,28.195-28.194s28.194,12.648,28.194,28.194S289.172,232.168,273.626,232.168z  "/>
<path style="fill:#F2A643;" d="M273.626,175.78c-15.547,0-28.195,12.648-28.195,28.194s12.649,28.194,28.195,28.194  s28.194-12.648,28.194-28.194S289.172,175.78,273.626,175.78z"/>
<g>
	<rect x="50.63" y="262.923" style="fill:#3DB4EA;" width="445.989" height="87.144"/>
	<path style="fill:#3DB4EA;" d="M412.037,57.873H50.63v87.148h445.992V57.873h-53.827c-4.247,0-7.689-3.441-7.689-7.688h-15.38   C419.726,54.432,416.283,57.873,412.037,57.873z"/>
</g>
<path d="M504.311,42.494h-61.517c-4.247,0-7.689,3.442-7.689,7.69c0,4.247,3.442,7.688,7.689,7.688h53.827v87.148H50.63V57.873  h361.407c4.247,0,7.689-3.441,7.689-7.688c0-4.248-3.442-7.69-7.689-7.69H42.941c-4.247,0-7.689,3.442-7.689,7.69v307.579  c0,4.247,3.442,7.69,7.689,7.69h461.37c4.247,0,7.689-3.443,7.689-7.69V50.184C512,45.936,508.558,42.494,504.311,42.494z   M50.63,160.4h445.992v87.148H50.63V160.4z M50.63,350.074v-87.148h445.992v87.148H50.63z"/>
<path style="fill:#2E3033;" d="M21.013,482.462c-6.442,0-11.685-5.242-11.685-11.685V41.115c0-6.383,5.194-11.577,11.577-11.577  h1.527c6.444,0,11.685,5.242,11.685,11.685v429.552c0,6.444-5.242,11.685-11.685,11.685h-1.419V482.462z"/>
<path d="M22.432,20.211h-1.527C9.378,20.211,0,29.588,0,41.115v429.661c0,11.587,9.426,21.013,21.013,21.013h1.418  c11.587,0,21.013-9.426,21.013-21.013V41.223C43.444,29.637,34.018,20.211,22.432,20.211z M27.898,470.777  c0,3.014-2.452,5.466-5.466,5.466h-1.418c-3.014,0-5.466-2.452-5.466-5.466V41.115c0-2.955,2.403-5.358,5.358-5.358h1.527  c3.014,0,5.466,2.452,5.466,5.466v429.553H27.898z"/>
<g>
</g>
<g>
</g>
<g>
</g>
<g>
</g>
<g>
</g>
<g>
</g>
<g>
</g>
<g>
</g>
<g>
</g>
<g>
</g>
<g>
</g>
<g>
</g>
<g>
</g>
<g>
</g>
<g>
</g>
</svg>
