<?xml version="1.0" encoding="iso-8859-1"?>
<!-- Generator: Adobe Illustrator 19.0.0, SVG Export Plug-In . SVG Version: 6.00 Build 0)  -->
<svg xmlns="http://www.w3.org/2000/svg" xmlns:xlink="http://www.w3.org/1999/xlink" version="1.1" id="Layer_1" x="0px" y="0px" viewBox="0 0 512.002 512.002" style="enable-background:new 0 0 512.002 512.002;" xml:space="preserve">
<path style="fill:#333333;" d="M58.32,57.874l80.738,107.654h37.971l21.674-7.215l-18.205-15.775  c-2.503-2.167-3.336-5.695-2.069-8.754c1.268-3.059,4.359-4.984,7.653-4.727l24.028,1.718l-10.782-21.539  c-1.483-2.961-0.902-6.539,1.439-8.88c2.342-2.34,5.92-2.918,8.88-1.439l21.539,10.783l-1.718-24.029  c-0.236-3.303,1.668-6.385,4.727-7.652c3.059-1.269,6.586-0.435,8.754,2.068l15.775,18.205l7.608-22.857  c1.045-3.141,3.985-5.261,7.295-5.261c3.31,0,6.251,2.12,7.296,5.261l7.607,22.857l15.776-18.205  c2.166-2.504,5.696-3.337,8.753-2.068c3.059,1.267,4.964,4.349,4.728,7.652l-1.718,24.029l21.539-10.783  c2.959-1.48,6.539-0.902,8.88,1.439c2.34,2.342,2.92,5.919,1.439,8.88l-10.783,21.539l24.028-1.718  c3.303-0.254,6.388,1.668,7.653,4.727c1.268,3.059,0.435,6.587-2.069,8.754l-18.205,15.775l21.674,7.215h37.971l80.74-107.654  C488.935,57.874,58.32,57.874,58.32,57.874z"/>
<path style="fill:#3DB4EA;" d="M396.658,180.906h-27.656c-0.009,0-0.018,0.003-0.026,0.003c-0.008,0-0.017-0.003-0.024-0.003  H178.455c-0.031,0.002-0.063,0-0.094,0h-27.767l63.438,84.585h119.187L396.658,180.906z"/>
<path style="fill:#FFFFFF;" d="M304.384,303.938l28.835-38.448H214.032l59.594,79.457l12.302-16.404  c2.549-3.398,7.366-4.086,10.767-1.538l9.226-12.302C302.525,312.155,301.835,307.335,304.384,303.938z"/>
<g>
	<path style="fill:#ED1F34;" d="M496.621,73.253L316.687,313.165c-1.51,2.015-3.82,3.076-6.156,3.076   c-1.606,0-3.224-0.5-4.608-1.537l-9.226,12.302c3.396,2.549,4.085,7.368,1.537,10.767l-9.227,12.303h207.617V73.253H496.621z"/>
	<polygon style="fill:#ED1F34;" points="50.63,73.253 50.63,350.075 258.247,350.075  "/>
</g>
<path d="M511.992,50.023c-0.003-0.14-0.01-0.277-0.021-0.415c-0.01-0.122-0.021-0.246-0.035-0.368  c-0.016-0.117-0.033-0.235-0.054-0.352c-0.023-0.136-0.048-0.272-0.078-0.404c-0.023-0.105-0.052-0.206-0.08-0.309  c-0.037-0.14-0.075-0.278-0.12-0.414c-0.033-0.102-0.072-0.2-0.11-0.3c-0.049-0.13-0.098-0.26-0.153-0.387  c-0.048-0.108-0.102-0.211-0.153-0.317c-0.057-0.113-0.112-0.227-0.174-0.336c-0.064-0.114-0.134-0.225-0.203-0.335  c-0.062-0.097-0.121-0.195-0.188-0.288c-0.078-0.111-0.161-0.22-0.245-0.326c-0.068-0.09-0.139-0.179-0.212-0.266  c-0.085-0.099-0.174-0.195-0.265-0.291c-0.085-0.09-0.172-0.18-0.261-0.266c-0.085-0.082-0.174-0.161-0.263-0.239  c-0.108-0.094-0.217-0.187-0.33-0.275c-0.041-0.031-0.078-0.067-0.12-0.101c-0.045-0.032-0.092-0.06-0.137-0.091  c-0.123-0.089-0.248-0.173-0.376-0.254c-0.089-0.056-0.178-0.111-0.269-0.164c-0.126-0.072-0.254-0.141-0.385-0.205  c-0.1-0.05-0.197-0.099-0.297-0.144c-0.125-0.057-0.253-0.108-0.381-0.158c-0.109-0.042-0.22-0.084-0.33-0.12  c-0.122-0.04-0.246-0.076-0.37-0.111c-0.121-0.034-0.243-0.065-0.366-0.094c-0.118-0.027-0.237-0.049-0.357-0.069  c-0.134-0.024-0.267-0.046-0.401-0.062c-0.112-0.015-0.226-0.024-0.34-0.033c-0.144-0.011-0.286-0.019-0.43-0.022  c-0.059-0.001-0.115-0.009-0.174-0.009H42.941c-0.063,0-0.123,0.008-0.187,0.009c-0.137,0.004-0.273,0.011-0.409,0.022  c-0.119,0.009-0.238,0.02-0.357,0.034c-0.13,0.017-0.258,0.036-0.387,0.06c-0.123,0.021-0.246,0.045-0.367,0.072  c-0.12,0.027-0.238,0.059-0.358,0.092c-0.126,0.035-0.252,0.07-0.375,0.113c-0.111,0.036-0.22,0.078-0.329,0.119  c-0.129,0.05-0.256,0.102-0.38,0.158c-0.102,0.045-0.2,0.094-0.3,0.144c-0.13,0.065-0.258,0.134-0.382,0.205  c-0.092,0.053-0.182,0.108-0.273,0.165c-0.127,0.08-0.252,0.164-0.374,0.253c-0.045,0.031-0.092,0.058-0.137,0.091  c-0.042,0.032-0.08,0.068-0.12,0.101c-0.113,0.088-0.223,0.18-0.33,0.275c-0.089,0.079-0.178,0.158-0.263,0.239  c-0.09,0.086-0.176,0.176-0.261,0.266c-0.091,0.096-0.18,0.193-0.265,0.291c-0.074,0.087-0.144,0.176-0.214,0.266  c-0.083,0.108-0.167,0.216-0.244,0.326c-0.065,0.093-0.126,0.192-0.189,0.288c-0.068,0.11-0.139,0.221-0.202,0.334  c-0.063,0.111-0.118,0.224-0.175,0.337c-0.052,0.106-0.106,0.209-0.151,0.317c-0.057,0.126-0.107,0.256-0.154,0.387  c-0.038,0.099-0.077,0.198-0.11,0.301c-0.046,0.136-0.083,0.274-0.121,0.413c-0.027,0.103-0.056,0.204-0.079,0.309  c-0.03,0.133-0.055,0.268-0.078,0.404c-0.021,0.117-0.038,0.235-0.054,0.352c-0.016,0.122-0.025,0.246-0.035,0.368  c-0.01,0.139-0.018,0.276-0.021,0.415c-0.001,0.054-0.008,0.108-0.008,0.162v307.58c0,4.248,3.442,7.69,7.689,7.69h461.37  c4.247,0,7.689-3.442,7.689-7.69V50.184C512,50.129,511.993,50.075,511.992,50.023z M50.63,73.253l207.617,276.822H50.63V73.253z   M408.191,165.527h-37.971l-21.674-7.215l18.205-15.775c2.504-2.167,3.336-5.695,2.069-8.754c-1.265-3.059-4.35-4.981-7.653-4.727  l-24.028,1.718l10.783-21.539c1.482-2.961,0.902-6.539-1.439-8.88c-2.342-2.34-5.921-2.918-8.88-1.439l-21.539,10.783l1.718-24.029  c0.236-3.303-1.669-6.385-4.728-7.652c-3.056-1.27-6.587-0.436-8.753,2.068l-15.776,18.205l-7.607-22.857  c-1.045-3.141-3.985-5.261-7.295-5.261c-3.31,0-6.251,2.12-7.296,5.261l-7.608,22.857l-15.775-18.205  c-2.168-2.503-5.695-3.336-8.754-2.068c-3.059,1.267-4.962,4.349-4.727,7.652l1.718,24.029l-21.539-10.783  c-2.96-1.48-6.539-0.902-8.88,1.439c-2.34,2.342-2.921,5.919-1.439,8.88l10.782,21.539l-24.028-1.718  c-3.294-0.257-6.385,1.668-7.653,4.727c-1.268,3.06-0.434,6.587,2.069,8.754l18.205,15.775l-21.674,7.215h-37.967L58.32,57.874  h430.612L408.191,165.527z M218.98,155.533l-10.949-9.488l14.451,1.033c2.769,0.213,5.408-1.1,6.943-3.396  c1.534-2.298,1.718-5.244,0.482-7.714l-6.485-12.954l12.954,6.485c2.472,1.235,5.418,1.051,7.714-0.482  c2.298-1.536,3.594-4.186,3.396-6.943l-1.033-14.451l9.488,10.949c1.81,2.09,4.598,3.051,7.311,2.506  c2.71-0.539,4.923-2.491,5.797-5.114l4.576-13.748l4.576,13.748c0.873,2.622,3.087,4.575,5.796,5.114  c2.711,0.545,5.502-0.415,7.312-2.506l9.487-10.949l-1.032,14.451c-0.197,2.757,1.1,5.407,3.396,6.943  c2.299,1.534,5.242,1.718,7.714,0.482l12.954-6.485l-6.486,12.954c-1.235,2.471-1.052,5.417,0.483,7.714  c1.535,2.297,4.181,3.611,6.943,3.396l14.451-1.033l-10.949,9.488c-2.089,1.81-3.046,4.601-2.506,7.312  c0.193,0.972,0.575,1.877,1.098,2.682H220.388c0.522-0.805,0.904-1.71,1.098-2.682C222.026,160.135,221.069,157.344,218.98,155.533z   M289.004,350.075l9.227-12.303c2.548-3.397,1.859-8.218-1.537-10.767c-3.4-2.548-8.218-1.86-10.767,1.538l-12.302,16.404  l-59.594-79.457l-63.438-84.585h27.767c0.031,0,0.063,0.002,0.094,0h190.497c0.008,0,0.017,0.003,0.024,0.003  c0.009,0,0.018-0.003,0.026-0.003h27.656l-63.439,84.585l-28.835,38.448c-2.549,3.396-1.859,8.217,1.537,10.765  c1.384,1.037,3.002,1.537,4.608,1.537c2.337,0,4.646-1.06,6.156-3.076L496.621,73.253v276.822H289.004z"/>
<path style="fill:#FFE000;" d="M220.389,165.527h106.473c-0.522-0.805-0.905-1.71-1.098-2.682c-0.54-2.71,0.417-5.502,2.506-7.312  l10.949-9.488l-14.451,1.033c-2.762,0.215-5.409-1.1-6.943-3.396c-1.534-2.297-1.718-5.244-0.483-7.714l6.486-12.954l-12.954,6.485  c-2.473,1.236-5.416,1.053-7.714-0.482c-2.298-1.536-3.594-4.186-3.396-6.943l1.032-14.451l-9.487,10.949  c-1.81,2.092-4.6,3.051-7.312,2.506c-2.709-0.539-4.923-2.491-5.796-5.114l-4.576-13.748l-4.576,13.748  c-0.874,2.622-3.087,4.575-5.797,5.114c-2.713,0.545-5.501-0.416-7.311-2.506l-9.488-10.949l1.033,14.451  c0.197,2.757-1.1,5.407-3.396,6.943c-2.297,1.533-5.243,1.717-7.714,0.482l-12.954-6.485l6.485,12.954  c1.236,2.471,1.053,5.417-0.482,7.714c-1.535,2.298-4.174,3.61-6.943,3.396l-14.451-1.033l10.949,9.488  c2.089,1.81,3.045,4.601,2.506,7.312C221.293,163.817,220.911,164.722,220.389,165.527z"/>
<path style="fill:#2E3033;" d="M21.013,482.463c-6.442,0-11.685-5.242-11.685-11.685V41.116c0-6.383,5.194-11.577,11.577-11.577  h1.527c6.444,0,11.685,5.242,11.685,11.685v429.552c0,6.444-5.242,11.685-11.685,11.685h-1.419V482.463z"/>
<path d="M22.432,20.212h-1.527C9.378,20.212,0,29.589,0,41.116v429.661c0,11.587,9.426,21.013,21.013,21.013h1.418  c11.587,0,21.013-9.426,21.013-21.013V41.224C43.444,29.638,34.018,20.212,22.432,20.212z M27.898,470.778  c0,3.014-2.452,5.466-5.466,5.466h-1.418c-3.014,0-5.466-2.452-5.466-5.466V41.116c0-2.955,2.403-5.358,5.358-5.358h1.527  c3.014,0,5.466,2.452,5.466,5.466v429.554H27.898z"/>
<g>
</g>
<g>
</g>
<g>
</g>
<g>
</g>
<g>
</g>
<g>
</g>
<g>
</g>
<g>
</g>
<g>
</g>
<g>
</g>
<g>
</g>
<g>
</g>
<g>
</g>
<g>
</g>
<g>
</g>
</svg>
