<?xml version="1.0" encoding="iso-8859-1"?>
<!-- Generator: Adobe Illustrator 19.0.0, SVG Export Plug-In . SVG Version: 6.00 Build 0)  -->
<svg xmlns="http://www.w3.org/2000/svg" xmlns:xlink="http://www.w3.org/1999/xlink" version="1.1" id="Layer_1" x="0px" y="0px" viewBox="0 0 512 512" style="enable-background:new 0 0 512 512;" xml:space="preserve">
<g>
	<polygon style="fill:#103B9B;" points="39.132,75.888 39.132,102.592 79.188,102.592  "/>
	<polygon style="fill:#103B9B;" points="39.132,145.151 39.132,171.854 79.188,145.151  "/>
	<polygon style="fill:#103B9B;" points="217.502,52.941 170.747,52.941 170.747,84.111  "/>
	<polygon style="fill:#103B9B;" points="128.189,52.941 81.434,52.941 128.189,84.111  "/>
	<path style="fill:#103B9B;" d="M94.299,352.424h401.938V52.941H267.685v17.693l-47.937,31.958h47.937v9.851v22.856v9.851h-47.937   l47.937,31.958v8.889v16.686h-38.361l-58.577-39.051v39.051h-9.851h-22.856h-9.85v-39.051l-58.577,39.051H56.825H39.132v149.742   h23.643c4.353,0,7.881,3.529,7.881,7.881h15.763C86.418,355.953,89.946,352.424,94.299,352.424z M329.001,131.112   c1.196-2.63,3.734-4.394,6.616-4.599c2.899-0.202,5.645,1.183,7.2,3.617c4.437,6.942,11.084,10.924,18.235,10.924   c7.149,0,13.8-3.983,18.246-10.929c1.449-2.263,3.952-3.632,6.638-3.632c0.001,0,0.002,0,0.003,0   c2.687,0.001,5.19,1.371,6.637,3.636c4.439,6.943,11.086,10.924,18.237,10.924c7.163,0,13.812-3.98,18.241-10.92   c1.558-2.44,4.308-3.835,7.219-3.62c2.888,0.211,5.428,1.99,6.615,4.632c6.199,13.807,9.476,29.642,9.476,45.794   c0,27.939-10.867,54.277-31.426,76.167c-15.378,16.373-30.73,24.515-31.375,24.853c-1.145,0.6-2.403,0.901-3.658,0.901   c-1.256,0-2.513-0.301-3.657-0.901c-0.647-0.339-15.999-8.481-31.376-24.853c-20.559-21.89-31.425-48.228-31.425-76.167   C319.442,160.716,322.747,144.869,329.001,131.112z"/>
</g>
<g>
	<polygon style="fill:#ED1F34;" points="170.747,102.592 181.386,102.592 255.863,52.941 230.291,52.941 170.747,92.64  "/>
	<polygon style="fill:#ED1F34;" points="117.549,102.592 43.073,52.941 39.132,52.941 39.132,67.387 91.812,102.592  "/>
	<polygon style="fill:#ED1F34;" points="128.189,155.107 128.189,145.151 117.549,145.151 39.132,197.428 39.132,202.683    56.825,202.683  "/>
	<polygon style="fill:#ED1F34;" points="181.386,145.151 267.685,202.683 267.685,185.997 206.56,145.151  "/>
</g>
<g>
	<polygon style="fill:#FFFFFF;" points="160.895,135.299 160.895,202.683 170.747,202.683 170.747,163.631 229.324,202.683    267.685,202.683 181.386,145.151 206.56,145.151 267.685,185.997 267.685,177.107 219.748,145.151 267.685,145.151    267.685,135.299  "/>
	<polygon style="fill:#FFFFFF;" points="160.895,112.442 267.685,112.442 267.685,102.592 219.748,102.592 267.685,70.634    267.685,52.941 255.863,52.941 181.386,102.592 170.747,102.592 170.747,92.64 230.291,52.941 217.502,52.941 170.747,84.111    170.747,52.941 160.895,52.941  "/>
	<polygon style="fill:#FFFFFF;" points="138.039,112.442 138.039,52.941 128.189,52.941 128.189,84.111 81.434,52.941    43.073,52.941 117.549,102.592 91.812,102.592 39.132,67.387 39.132,75.888 79.188,102.592 39.132,102.592 39.132,112.442  "/>
	<polygon style="fill:#FFFFFF;" points="128.189,145.151 128.189,155.107 56.825,202.683 69.612,202.683 128.189,163.631    128.189,202.683 138.039,202.683 138.039,135.299 39.132,135.299 39.132,145.151 79.188,145.151 39.132,171.854 39.132,197.428    117.549,145.151  "/>
</g>
<polygon style="fill:#ED1F34;" points="138.039,135.299 138.039,202.683 160.895,202.683 160.895,135.299 267.685,135.299   267.685,112.442 160.895,112.442 160.895,52.941 138.039,52.941 138.039,112.442 39.132,112.442 39.132,135.299 "/>
<path d="M504.118,37.178H31.25c-4.353,0-7.881,3.529-7.881,7.881v315.245c0,4.353,3.528,7.881,7.881,7.881h31.525  c4.353,0,7.881-3.529,7.881-7.881c0-4.352-3.528-7.881-7.881-7.881H39.132V202.683v-5.254v-25.575v-26.704V135.3v-22.856v-9.851  V75.888v-8.5V52.941h3.941h38.361h46.756h9.85h22.856h9.851h46.756h12.788h25.572h11.822h228.553v299.484H94.299  c-4.354,0-7.882,3.529-7.882,7.881c0,4.353,3.528,7.881,7.882,7.881h409.819c4.354,0,7.882-3.529,7.882-7.881V45.059  C512,40.707,508.472,37.178,504.118,37.178z"/>
<g>
	<path style="fill:#FFFFFF;" d="M410.812,156.815c-9.164,0-17.968-3.686-24.88-10.175c-6.916,6.489-15.719,10.175-24.881,10.175   c-7.917,0-15.563-2.749-21.954-7.681c-2.562,8.762-3.893,18.19-3.893,27.806c0,15.111,3.671,28.239,9.098,39.404h83.145   c5.458-11.178,9.151-24.31,9.151-39.404c0-9.577-1.32-18.993-3.863-27.773C426.354,154.078,418.72,156.815,410.812,156.815z    M385.901,209.436c-13.036,0-23.643-10.606-23.643-23.643s10.606-23.643,23.643-23.643c13.037,0,23.644,10.605,23.644,23.643   S398.938,209.436,385.901,209.436z"/>
	<path style="fill:#FFFFFF;" d="M385.901,177.91c-4.346,0-7.881,3.535-7.881,7.881c0,4.347,3.535,7.882,7.881,7.882   c4.347,0,7.881-3.535,7.881-7.882C393.782,181.446,390.248,177.91,385.901,177.91z"/>
</g>
<path style="fill:#3DB4EA;" d="M385.888,261.819c8.426-5.357,29.388-20.541,41.56-45.475h-83.145  C356.457,241.347,377.442,256.481,385.888,261.819z"/>
<path d="M382.244,277.961c1.144,0.6,2.402,0.901,3.657,0.901c1.256,0,2.513-0.301,3.658-0.901  c0.646-0.339,15.998-8.481,31.375-24.853c20.559-21.89,31.426-48.228,31.426-76.167c0-16.152-3.277-31.987-9.476-45.794  c-1.185-2.643-3.726-4.421-6.615-4.632c-2.911-0.216-5.661,1.179-7.219,3.62c-4.428,6.94-11.078,10.92-18.241,10.92  c-7.151,0-13.797-3.982-18.237-10.924c-1.447-2.265-3.949-3.635-6.637-3.636c-0.001,0-0.002,0-0.003,0  c-2.686,0-5.189,1.369-6.638,3.632c-4.447,6.946-11.096,10.929-18.246,10.929c-7.151,0-13.798-3.982-18.235-10.924  c-1.555-2.434-4.301-3.819-7.2-3.617c-2.882,0.205-5.42,1.969-6.616,4.6c-6.254,13.757-9.559,29.604-9.559,45.828  c0,27.939,10.867,54.277,31.425,76.167C366.245,269.48,381.596,277.622,382.244,277.961z M427.448,216.343  c-12.172,24.934-33.134,40.118-41.56,45.475c-8.446-5.337-29.43-20.47-41.585-45.475c-5.427-11.164-9.098-24.292-9.098-39.404  c0-9.616,1.331-19.044,3.893-27.806c6.391,4.932,14.038,7.681,21.954,7.681c9.162,0,17.965-3.686,24.881-10.175  c6.912,6.488,15.716,10.175,24.88,10.175c7.907,0,15.542-2.738,21.925-7.649c2.543,8.78,3.863,18.196,3.863,27.773  C436.6,192.033,432.906,205.166,427.448,216.343z"/>
<path style="fill:#FFE000;" d="M385.901,162.148c-13.036,0-23.643,10.605-23.643,23.643s10.606,23.643,23.643,23.643  c13.037,0,23.644-10.606,23.644-23.643C409.546,172.754,398.938,162.148,385.901,162.148z M385.901,193.673  c-4.346,0-7.881-3.535-7.881-7.882c0-4.346,3.535-7.881,7.881-7.881c4.347,0,7.881,3.535,7.881,7.881  C393.782,190.138,390.248,193.673,385.901,193.673z"/>
<path style="fill:#2E3033;" d="M21.536,488.1c-6.603,0-11.976-5.373-11.976-11.976V35.766c0-6.542,5.323-11.865,11.865-11.865h1.565  c6.604,0,11.976,5.373,11.976,11.976v440.247c0,6.604-5.373,11.976-11.976,11.976h-1.454V488.1z"/>
<path d="M22.99,14.34h-1.565C9.611,14.34,0,23.951,0,35.766v440.358C0,488,9.661,497.66,21.536,497.66h1.453  c11.876,0,21.536-9.661,21.536-21.536V35.876C44.526,24.001,34.865,14.34,22.99,14.34z M28.592,476.124  c0,3.089-2.513,5.602-5.602,5.602h-1.453c-3.089,0-5.602-2.513-5.602-5.602V35.766c0-3.028,2.463-5.492,5.492-5.492h1.565  c3.089,0,5.602,2.513,5.602,5.602v440.248H28.592z"/>
<g>
</g>
<g>
</g>
<g>
</g>
<g>
</g>
<g>
</g>
<g>
</g>
<g>
</g>
<g>
</g>
<g>
</g>
<g>
</g>
<g>
</g>
<g>
</g>
<g>
</g>
<g>
</g>
<g>
</g>
</svg>
