<?xml version="1.0" encoding="iso-8859-1"?>
<!-- Generator: Adobe Illustrator 19.0.0, SVG Export Plug-In . SVG Version: 6.00 Build 0)  -->
<svg xmlns="http://www.w3.org/2000/svg" xmlns:xlink="http://www.w3.org/1999/xlink" version="1.1" id="Layer_1" x="0px" y="0px" viewBox="0 0 512 512" style="enable-background:new 0 0 512 512;" xml:space="preserve">
<g>
	<path style="fill:#ED1F34;" d="M253.8,191.965c-0.173,1.483-0.134,2.977,0.099,4.44h6.241L253.8,191.965z"/>
	<path style="fill:#ED1F34;" d="M105.28,196.405h133.176c-0.579-7.076,1.207-14.384,5.588-20.639   c2.432-3.47,7.217-4.314,10.688-1.885l32.167,22.524h65.505c0.927-7.03,0.795-14.236-0.472-21.418   c-3.251-18.436-13.486-34.504-28.822-45.242c-7.859-5.503-16.579-9.277-25.919-11.215c-4.15-0.863-6.815-4.925-5.955-9.074   c0.863-4.152,4.936-6.812,9.073-5.954c11.393,2.366,22.026,6.964,31.603,13.671c18.694,13.09,31.171,32.676,35.134,55.149   c1.422,8.068,1.667,16.157,0.816,24.084h128.79V58.273H51.562v138.132h23.022c4.239,0,7.674,3.435,7.674,7.674h15.349   C97.606,199.84,101.042,196.405,105.28,196.405z M258.196,134.147c6.32-9.028,18.762-11.222,27.788-4.9   c9.027,6.32,11.221,18.762,4.9,27.788c-6.32,9.028-18.762,11.221-27.788,4.9C254.069,155.615,251.876,143.174,258.196,134.147z"/>
</g>
<g>
	<path style="fill:#333333;" d="M267.192,211.753l51.218,35.862c2.626-1.539,5.152-3.242,7.557-5.118l-43.906-30.744   L267.192,211.753L267.192,211.753z"/>
	<path style="fill:#333333;" d="M337.111,231.565c1.111-1.36,2.192-2.752,3.211-4.206c3.434-4.904,6.184-10.147,8.24-15.606h-39.744   L337.111,231.565z"/>
	<path style="fill:#333333;" d="M364.746,211.753c-2.595,8.602-6.549,16.834-11.853,24.409c-1.016,1.451-2.086,2.853-3.179,4.227   l46.918,32.854c0.003,0.002,0.007,0.004,0.011,0.007c0.004,0.003,0.007,0.006,0.011,0.009l25.134,17.598   c3.472,2.432,4.315,7.217,1.885,10.688c-1.493,2.133-3.875,3.272-6.293,3.273c-1.52,0-3.054-0.451-4.395-1.389l-18.858-13.204   l-2.25,3.212c-1.493,2.133-3.875,3.274-6.293,3.274c-1.521,0-3.054-0.451-4.395-1.389c-3.472-2.432-4.316-7.218-1.885-10.688   l2.25-3.213l-42.544-29.79c-2.245,1.96-4.585,3.793-7.013,5.499l20.205,14.148c3.472,2.432,4.316,7.217,1.885,10.688   c-2.431,3.471-7.214,4.316-10.687,1.884l-26.267-18.391c-6.139,2.67-12.63,4.646-19.39,5.839   c-5.01,0.883-10.033,1.321-15.018,1.321c-17.371,0-34.297-5.303-48.823-15.475c-9.576-6.705-17.534-15.122-23.653-25.02   c-2.229-3.605-1.114-8.335,2.491-10.563c3.604-2.229,8.335-1.113,10.563,2.491c5.018,8.114,11.544,15.018,19.404,20.52   c15.335,10.739,33.934,14.862,52.372,11.612c2.256-0.398,4.475-0.903,6.655-1.507l-49.942-34.971   c-3.174-2.223-5.811-4.931-7.886-7.952H105.28c-4.239,0-7.674-3.435-7.674-7.674H82.257c0,4.239-3.435,7.674-7.674,7.674H51.562   v138.131h445.091V211.753H364.746z"/>
</g>
<path d="M504.326,42.925H43.888c-4.239,0-7.674,3.435-7.674,7.674v306.959c0,4.24,3.435,7.675,7.674,7.675h460.438  c4.239,0,7.674-3.435,7.674-7.675V50.599C512,46.36,508.565,42.925,504.326,42.925z M51.562,349.884V211.753h23.022  c4.239,0,7.674-3.435,7.674-7.674c0-4.239-3.435-7.674-7.674-7.674H51.562V58.273h445.091v138.132H367.862  c-0.56,5.207-1.606,10.339-3.118,15.348h131.907v138.131H51.562z"/>
<path d="M238.455,196.405H105.28c-4.239,0-7.674,3.435-7.674,7.674c0,4.239,3.435,7.674,7.674,7.674h138.625  C240.754,207.167,238.901,201.855,238.455,196.405z"/>
<path d="M260.141,196.405h-6.241c0.667,4.186,2.956,8.109,6.695,10.727l6.598,4.62h14.868L260.141,196.405z"/>
<path d="M308.817,211.753h39.744c1.869-4.961,3.151-10.106,3.843-15.348h-65.505L308.817,211.753z"/>
<g>
	<path style="fill:#FFE000;" d="M367.046,172.322c-3.963-22.474-16.44-42.059-35.134-55.149   c-9.577-6.706-20.21-11.305-31.603-13.671c-4.137-0.859-8.211,1.802-9.073,5.954c-0.861,4.151,1.805,8.212,5.955,9.074   c9.338,1.938,18.06,5.712,25.919,11.215c15.336,10.739,25.572,26.806,28.822,45.242c1.267,7.182,1.399,14.388,0.472,21.418   c-0.692,5.242-1.974,10.387-3.843,15.348c-2.055,5.459-4.806,10.702-8.24,15.606c-1.018,1.453-2.099,2.845-3.211,4.206   l-28.293-19.812l-21.919-15.348l-32.167-22.524c-3.471-2.43-8.256-1.586-10.688,1.885c-4.38,6.256-6.167,13.563-5.588,20.639   c0.446,5.451,2.298,10.761,5.45,15.348c2.075,3.021,4.711,5.728,7.886,7.952l49.942,34.971c-2.179,0.604-4.399,1.109-6.655,1.507   c-18.438,3.252-37.037-0.873-52.372-11.612c-7.86-5.503-14.387-12.406-19.404-20.52c-2.228-3.604-6.959-4.72-10.563-2.491   c-3.605,2.228-4.72,6.958-2.491,10.563c6.119,9.898,14.077,18.315,23.653,25.02c14.526,10.172,31.452,15.475,48.823,15.475   c4.983,0,10.007-0.439,15.018-1.321c6.759-1.192,13.252-3.168,19.39-5.839l26.267,18.391c3.473,2.433,8.256,1.588,10.687-1.884   c2.432-3.471,1.588-8.256-1.885-10.688l-20.205-14.148c2.429-1.706,4.768-3.54,7.013-5.499l42.544,29.79l-2.25,3.213   c-2.432,3.47-1.588,8.256,1.885,10.688c1.34,0.938,2.874,1.389,4.395,1.389c2.418,0,4.8-1.142,6.293-3.274l2.25-3.212   l18.858,13.204c1.34,0.938,2.874,1.389,4.395,1.389c2.418-0.001,4.8-1.141,6.293-3.273c2.431-3.471,1.588-8.256-1.885-10.688   l-25.134-17.598c-0.004-0.003-0.007-0.006-0.011-0.009c-0.004-0.003-0.008-0.005-0.011-0.007l-46.918-32.854   c1.093-1.375,2.163-2.776,3.179-4.227c5.303-7.574,9.257-15.807,11.853-24.409c1.511-5.008,2.558-10.141,3.118-15.348   C368.714,188.479,368.468,180.388,367.046,172.322z M318.409,247.615l-51.218-35.862l-6.598-4.62   c-3.738-2.618-6.028-6.541-6.695-10.727c-0.234-1.464-0.272-2.957-0.099-4.44l6.341,4.44l21.919,15.348l43.906,30.744   C323.561,244.373,321.035,246.074,318.409,247.615z"/>
	<circle style="fill:#FFE000;" cx="274.535" cy="145.594" r="19.952"/>
</g>
<path style="fill:#2E3033;" d="M20.97,482.004c-6.429,0-11.661-5.232-11.661-11.661V41.55c0-6.371,5.183-11.554,11.554-11.554h1.524  c6.431,0,11.661,5.232,11.661,11.661v428.685c0,6.431-5.232,11.661-11.661,11.661H20.97V482.004z"/>
<path d="M22.386,20.687h-1.524C9.359,20.687,0,30.046,0,41.55v428.793c0,11.563,9.407,20.97,20.97,20.97h1.415  c11.564,0,20.97-9.407,20.97-20.97V41.657C43.357,30.094,33.949,20.687,22.386,20.687z M27.841,470.343  c0,3.008-2.447,5.455-5.455,5.455h-1.415c-3.008,0-5.455-2.447-5.455-5.455V41.55c0-2.949,2.399-5.348,5.348-5.348h1.524  c3.008,0,5.455,2.447,5.455,5.455v428.686H27.841z"/>
<g>
</g>
<g>
</g>
<g>
</g>
<g>
</g>
<g>
</g>
<g>
</g>
<g>
</g>
<g>
</g>
<g>
</g>
<g>
</g>
<g>
</g>
<g>
</g>
<g>
</g>
<g>
</g>
<g>
</g>
</svg>
