<?xml version="1.0" encoding="iso-8859-1"?>
<!-- Generator: Adobe Illustrator 19.0.0, SVG Export Plug-In . SVG Version: 6.00 Build 0)  -->
<svg xmlns="http://www.w3.org/2000/svg" xmlns:xlink="http://www.w3.org/1999/xlink" version="1.1" id="Layer_1" x="0px" y="0px" viewBox="0 0 511.999 511.999" style="enable-background:new 0 0 511.999 511.999;" xml:space="preserve">
<path style="fill:#FFE000;" d="M342.826,350.081V57.873H204.412v53.828c0,4.246-3.443,7.689-7.689,7.689v15.38  c4.246,0,7.689,3.443,7.689,7.689v207.622h138.414V350.081z M219.791,157.794c0-4.246,3.443-7.689,7.689-7.689h92.277  c4.247,0,7.689,3.443,7.689,7.689v65.459c0,30.228-19.926,35.074-34.474,38.612c-5.797,1.41-11.271,2.741-14.891,5.321  c-1.336,0.953-2.9,1.428-4.464,1.428c-1.564,0-3.129-0.476-4.464-1.428c-3.618-2.58-9.094-3.911-14.89-5.321  c-14.55-3.538-34.474-8.385-34.474-38.612v-65.459H219.791z"/>
<rect x="358.203" y="57.873" style="fill:#ED1F34;" width="138.416" height="292.213"/>
<path style="fill:#164FCE;" d="M189.033,111.7V57.873H50.619v292.209h138.414V142.46c0-4.247,3.443-7.689,7.689-7.689v-15.38  C192.476,119.39,189.033,115.948,189.033,111.7z"/>
<path d="M504.311,42.493H42.928c-4.246,0-7.689,3.443-7.689,7.689V357.77c0,4.247,3.443,7.689,7.689,7.689H504.31  c4.247,0,7.689-3.443,7.689-7.689V50.183C512,45.936,508.557,42.493,504.311,42.493z M496.62,350.081H358.206V57.873H496.62V350.081  z M196.723,134.77c-4.247,0-7.689,3.443-7.689,7.689v207.622H50.619V57.873h138.414v53.828c0,4.246,3.443,7.689,7.689,7.689  c4.246,0,7.689-3.443,7.689-7.689V57.873h138.415v292.209H204.412V142.46C204.412,138.213,200.969,134.77,196.723,134.77z"/>
<rect x="235.168" y="165.487" style="fill:#FFE000;" width="38.452" height="43.872"/>
<path style="fill:#ED1F34;" d="M235.171,209.36v13.893c0,18.141,8.555,20.221,22.729,23.668c5.31,1.291,10.756,2.616,15.72,5.083  V209.36H235.171z"/>
<path style="fill:#FFE000;" d="M273.619,252.004c4.964-2.466,10.41-3.791,15.72-5.083c14.174-3.447,22.729-5.527,22.729-23.668  V209.36h-38.449V252.004z"/>
<rect x="273.619" y="165.487" style="fill:#ED1F34;" width="38.452" height="43.872"/>
<path d="M254.265,261.866c5.797,1.41,11.271,2.741,14.89,5.321c1.336,0.953,2.9,1.428,4.464,1.428s3.129-0.476,4.464-1.428  c3.619-2.58,9.094-3.911,14.891-5.321c14.549-3.538,34.474-8.385,34.474-38.612v-65.459c0-4.246-3.443-7.689-7.689-7.689h-92.277  c-4.247,0-7.689,3.443-7.689,7.689v65.459C219.791,253.48,239.717,258.327,254.265,261.866z M312.068,209.36v13.893  c0,18.141-8.555,20.221-22.729,23.668c-5.31,1.291-10.756,2.616-15.72,5.083c-4.964-2.466-10.41-3.791-15.72-5.083  c-14.174-3.447-22.729-5.527-22.729-23.668V209.36v-43.877h38.449h38.449V209.36z"/>
<path style="fill:#2E3033;" d="M21.013,482.461c-6.442,0-11.685-5.242-11.685-11.685V41.115c0-6.383,5.194-11.577,11.577-11.577  h1.527c6.444,0,11.685,5.242,11.685,11.685v429.552c0,6.444-5.242,11.685-11.685,11.685h-1.419V482.461z"/>
<path d="M22.432,20.21h-1.527C9.378,20.21,0,29.588,0,41.115v429.661c0,11.587,9.426,21.013,21.013,21.013h1.418  c11.587,0,21.013-9.426,21.013-21.013V41.223C43.444,29.636,34.018,20.21,22.432,20.21z M27.898,470.776  c0,3.014-2.452,5.466-5.466,5.466h-1.418c-3.014,0-5.466-2.452-5.466-5.466V41.115c0-2.955,2.403-5.358,5.358-5.358h1.527  c3.014,0,5.466,2.452,5.466,5.466v429.554H27.898z"/>
<g>
</g>
<g>
</g>
<g>
</g>
<g>
</g>
<g>
</g>
<g>
</g>
<g>
</g>
<g>
</g>
<g>
</g>
<g>
</g>
<g>
</g>
<g>
</g>
<g>
</g>
<g>
</g>
<g>
</g>
</svg>
