<?xml version="1.0" encoding="iso-8859-1"?>
<!-- Generator: Adobe Illustrator 19.0.0, SVG Export Plug-In . SVG Version: 6.00 Build 0)  -->
<svg xmlns="http://www.w3.org/2000/svg" xmlns:xlink="http://www.w3.org/1999/xlink" version="1.1" id="Layer_1" x="0px" y="0px" viewBox="0 0 512 512" style="enable-background:new 0 0 512 512;" xml:space="preserve">
<g>
	<path style="fill:#103B9B;" d="M44.443,195.218L457.09,52.94H39.132v149.726C39.132,199.304,41.266,196.314,44.443,195.218z"/>
	<path style="fill:#103B9B;" d="M125.823,352.394h331.265L44.443,210.117c-3.177-1.095-5.311-4.088-5.311-7.451v149.728H94.3   c4.353,0,7.881,3.528,7.881,7.881h15.763C117.943,355.922,121.471,352.394,125.823,352.394z"/>
</g>
<path style="fill:#FFFFFF;" d="M496.237,349.222V56.112L71.189,202.666L496.237,349.222z M422.676,256.778h-78.624  c-4.354,0-7.881-3.527-7.881-7.88c0-4.353,3.527-7.88,7.881-7.88h78.624c4.353,0,7.882,3.527,7.882,7.88  C430.558,253.251,427.029,256.778,422.676,256.778z M317.598,194.786h7.909c-2.577-4.488-4.061-9.68-4.061-15.217  c0-16.91,13.757-30.665,30.666-30.665h97.018c3.156,0,6.009,1.883,7.249,4.786c1.239,2.904,0.626,6.266-1.559,8.546l-31.188,32.55  h25.499c4.353,0,7.881,3.528,7.881,7.88c0,4.353-3.528,7.882-7.881,7.882h-36.083v14.902c0,4.353-3.528,7.88-7.882,7.88h-30.267  c-14.102,0-26.009-9.666-29.575-22.782h-27.726c-4.354,0-7.881-3.529-7.881-7.882C309.718,198.314,313.245,194.786,317.598,194.786z  "/>
<g>
	<path style="fill:#ED1F34;" d="M505.121,37.249c0.152,0.019,0.302,0.041,0.451,0.068C505.424,37.29,505.272,37.27,505.121,37.249z"/>
	<path style="fill:#ED1F34;" d="M505.924,37.394c0.127,0.03,0.254,0.062,0.378,0.098C506.178,37.456,506.05,37.424,505.924,37.394z"/>
	<path style="fill:#ED1F34;" d="M511.065,363.996c-0.003,0.006-0.005,0.013-0.007,0.017   C511.06,364.009,511.062,364.002,511.065,363.996z"/>
	<path style="fill:#ED1F34;" d="M509.254,39.089c0.117,0.1,0.233,0.203,0.343,0.311C509.486,39.292,509.371,39.189,509.254,39.089z"/>
	<path style="fill:#ED1F34;" d="M508.675,38.636c0.115,0.082,0.229,0.167,0.341,0.255C508.905,38.803,508.791,38.718,508.675,38.636   z"/>
	<path style="fill:#ED1F34;" d="M507.395,37.899c0.107,0.049,0.212,0.1,0.317,0.153C507.608,37.997,507.503,37.947,507.395,37.899z"/>
	<path style="fill:#ED1F34;" d="M508.056,38.24c0.11,0.064,0.22,0.13,0.328,0.199C508.276,38.369,508.167,38.303,508.056,38.24z"/>
	<path style="fill:#ED1F34;" d="M506.685,37.614c0.11,0.038,0.222,0.078,0.33,0.12C506.906,37.691,506.796,37.652,506.685,37.614z"/>
	<path style="fill:#ED1F34;" d="M507.683,367.296c-0.053,0.027-0.108,0.052-0.161,0.079   C507.575,367.348,507.629,367.324,507.683,367.296z"/>
	<path style="fill:#ED1F34;" d="M509.627,365.907c-0.052,0.05-0.108,0.096-0.159,0.146   C509.52,366.002,509.575,365.957,509.627,365.907z"/>
	<path style="fill:#ED1F34;" d="M510.468,364.93c-0.051,0.07-0.103,0.141-0.155,0.209C510.365,365.071,510.417,365,510.468,364.93z"/>
	<path style="fill:#ED1F34;" d="M505.454,368.033c-0.086,0.016-0.173,0.029-0.261,0.04   C505.281,368.061,505.368,368.048,505.454,368.033z"/>
	<path style="fill:#ED1F34;" d="M504.301,37.188c0.174,0.004,0.348,0.012,0.519,0.025C504.648,37.2,504.475,37.192,504.301,37.188z"/>
	<path style="fill:#ED1F34;" d="M506.508,367.784c-0.002,0-0.004,0.002-0.006,0.002   C506.504,367.786,506.506,367.784,506.508,367.784z"/>
	<path style="fill:#ED1F34;" d="M510.764,40.834c0.071,0.11,0.14,0.222,0.205,0.338C510.904,41.056,510.834,40.944,510.764,40.834z"/>
	<path style="fill:#ED1F34;" d="M511.737,43.069c0.023,0.093,0.051,0.186,0.072,0.28C511.788,43.256,511.76,43.162,511.737,43.069z"/>
	<path style="fill:#ED1F34;" d="M511.886,43.772c0.021,0.126,0.044,0.255,0.058,0.385C511.93,44.028,511.907,43.899,511.886,43.772z   "/>
	<path style="fill:#ED1F34;" d="M511.944,361.177c-0.015,0.131-0.037,0.258-0.058,0.386   C511.907,361.434,511.93,361.305,511.944,361.177z"/>
	<path style="fill:#ED1F34;" d="M511.569,362.844c0.01-0.025,0.015-0.052,0.022-0.078c-0.018,0.055-0.039,0.107-0.058,0.16   C511.542,362.899,511.559,362.873,511.569,362.844z"/>
	<path style="fill:#ED1F34;" d="M504.095,368.156c0.008,0,0.016,0.002,0.023,0.002c0.025,0,0.05-0.006,0.075-0.006   c-0.025,0-0.05,0.004-0.075,0.004H504.095z"/>
	<path style="fill:#ED1F34;" d="M511.996,360.366c-0.002,0.163-0.014,0.324-0.024,0.484   C511.982,360.689,511.993,360.527,511.996,360.366z"/>
	<path style="fill:#ED1F34;" d="M511.971,44.483c0.012,0.159,0.022,0.322,0.024,0.483C511.993,44.807,511.982,44.645,511.971,44.483   z"/>
	<path style="fill:#ED1F34;" d="M510.302,40.182c0.093,0.117,0.185,0.239,0.271,0.361C510.485,40.419,510.395,40.299,510.302,40.182   z"/>
	<path style="fill:#ED1F34;" d="M511.809,361.983c-0.022,0.096-0.049,0.189-0.072,0.283   C511.76,362.172,511.788,362.077,511.809,361.983z"/>
	<path style="fill:#ED1F34;" d="M508.737,366.651c-0.044,0.031-0.086,0.067-0.131,0.098   C508.652,366.717,508.693,366.682,508.737,366.651z"/>
	<path style="fill:#ED1F34;" d="M509.796,39.601c0.11,0.114,0.218,0.233,0.321,0.353C510.014,39.832,509.906,39.716,509.796,39.601z   "/>
	<path style="fill:#ED1F34;" d="M511.569,42.49c-0.019-0.056-0.045-0.109-0.066-0.164c0.03,0.08,0.062,0.159,0.088,0.241   C511.583,42.542,511.578,42.515,511.569,42.49z"/>
	<path style="fill:#ED1F34;" d="M511.17,41.556c0.048,0.093,0.095,0.189,0.138,0.285C511.265,41.743,511.218,41.649,511.17,41.556z"/>
	<path style="fill:#ED1F34;" d="M44.443,210.117L457.09,352.394h39.148v-3.172L71.189,202.666L496.237,56.112V52.94H457.09   L44.443,195.218c-3.177,1.095-5.311,4.086-5.311,7.448C39.132,206.029,41.266,209.02,44.443,210.117z"/>
</g>
<path d="M512,45.058c0-0.03-0.004-0.061-0.004-0.091c-0.002-0.161-0.014-0.324-0.024-0.483c-0.009-0.11-0.015-0.218-0.027-0.327  c-0.015-0.13-0.037-0.258-0.058-0.385c-0.023-0.142-0.047-0.284-0.076-0.423c-0.022-0.095-0.049-0.187-0.072-0.28  c-0.045-0.17-0.09-0.337-0.146-0.502c-0.027-0.081-0.058-0.16-0.088-0.241c-0.062-0.164-0.123-0.327-0.195-0.485  c-0.044-0.096-0.09-0.191-0.138-0.285c-0.065-0.131-0.129-0.259-0.201-0.383c-0.066-0.116-0.134-0.228-0.205-0.338  c-0.063-0.098-0.124-0.195-0.191-0.29c-0.086-0.122-0.177-0.243-0.271-0.361c-0.062-0.078-0.121-0.154-0.186-0.228  c-0.103-0.12-0.209-0.239-0.321-0.353c-0.066-0.068-0.13-0.135-0.199-0.201c-0.111-0.108-0.226-0.211-0.343-0.311  c-0.079-0.068-0.156-0.135-0.238-0.199c-0.112-0.088-0.226-0.173-0.341-0.255c-0.097-0.067-0.193-0.134-0.291-0.199  c-0.108-0.068-0.217-0.135-0.328-0.199c-0.113-0.066-0.227-0.13-0.344-0.189c-0.104-0.053-0.209-0.104-0.317-0.153  c-0.125-0.058-0.252-0.112-0.38-0.164c-0.108-0.042-0.219-0.082-0.33-0.12c-0.126-0.044-0.253-0.085-0.381-0.122  c-0.124-0.036-0.251-0.067-0.378-0.098c-0.117-0.027-0.234-0.054-0.352-0.076c-0.15-0.027-0.3-0.05-0.451-0.068  c-0.101-0.013-0.2-0.027-0.301-0.035c-0.171-0.015-0.345-0.022-0.519-0.025c-0.063-0.001-0.121-0.01-0.184-0.01H31.251  c-4.354,0-7.882,3.528-7.882,7.88v315.217c0,4.352,3.528,7.881,7.882,7.881h63.048c4.353,0,7.881-3.529,7.881-7.881  c0-4.353-3.528-7.881-7.881-7.881H39.132V202.666V52.94H457.09h39.148v3.172v293.11v3.172H457.09H125.823  c-4.353,0-7.881,3.528-7.881,7.881c0,4.352,3.528,7.881,7.881,7.881h378.27h0.023c0.025,0,0.05-0.004,0.075-0.004  c0.339-0.004,0.671-0.033,0.999-0.078c0.088-0.012,0.175-0.024,0.261-0.04c0.358-0.061,0.71-0.14,1.047-0.246  c0.002,0,0.004-0.002,0.006-0.002c0.351-0.112,0.686-0.253,1.012-0.409c0.054-0.027,0.109-0.052,0.161-0.079  c0.321-0.163,0.63-0.344,0.923-0.548c0.045-0.031,0.087-0.067,0.131-0.098c0.256-0.186,0.499-0.386,0.731-0.599  c0.052-0.05,0.108-0.096,0.159-0.146c0.244-0.24,0.473-0.498,0.686-0.768c0.053-0.068,0.105-0.139,0.155-0.209  c0.215-0.292,0.416-0.596,0.591-0.917c0.002-0.004,0.004-0.011,0.007-0.017c0.184-0.34,0.335-0.699,0.467-1.069  c0.019-0.054,0.04-0.106,0.058-0.16c0.055-0.165,0.101-0.332,0.146-0.501c0.023-0.093,0.051-0.187,0.072-0.283  c0.03-0.139,0.053-0.28,0.076-0.421c0.021-0.127,0.044-0.255,0.058-0.386c0.013-0.108,0.019-0.217,0.027-0.326  c0.012-0.16,0.022-0.322,0.024-0.484c0-0.031,0.004-0.062,0.004-0.091V45.058H512z"/>
<path d="M317.598,210.548h27.726c3.565,13.117,15.472,22.782,29.575,22.782h30.267c4.354,0,7.882-3.527,7.882-7.88v-14.902h36.083  c4.353,0,7.881-3.529,7.881-7.882c0-4.352-3.528-7.88-7.881-7.88h-25.499l31.188-32.55c2.185-2.28,2.798-5.642,1.559-8.546  c-1.24-2.902-4.094-4.786-7.249-4.786h-97.018c-16.909,0-30.666,13.755-30.666,30.665c0,5.536,1.484,10.73,4.061,15.217h-7.909  c-4.354,0-7.881,3.528-7.881,7.88C309.718,207.019,313.245,210.548,317.598,210.548z M352.113,194.473  c-8.219,0-14.903-6.686-14.903-14.903s6.685-14.903,14.903-14.903h78.552l-28.862,30.12h-7.146c-4.353,0-7.881,3.528-7.881,7.88  c0,4.353,3.528,7.882,7.881,7.882h2.628v7.021h-22.387c-8.078,0-14.903-6.968-14.903-15.217  C359.994,198,356.467,194.473,352.113,194.473z"/>
<path style="fill:#F2A643;" d="M359.994,202.353c0,8.249,6.825,15.217,14.903,15.217h22.387v-7.021h-2.628  c-4.353,0-7.881-3.529-7.881-7.882c0-4.352,3.528-7.88,7.881-7.88h7.146l28.862-30.12h-78.552c-8.219,0-14.903,6.686-14.903,14.903  s6.685,14.903,14.903,14.903C356.467,194.473,359.994,198,359.994,202.353z"/>
<path style="fill:#FFE000;" d="M422.676,241.018h-78.624c-4.354,0-7.881,3.527-7.881,7.88c0,4.353,3.527,7.88,7.881,7.88h78.624  c4.353,0,7.882-3.527,7.882-7.88C430.558,244.545,427.029,241.018,422.676,241.018z"/>
<path style="fill:#2E3033;" d="M21.536,488.1c-6.603,0-11.976-5.373-11.976-11.976V35.766c0-6.542,5.323-11.865,11.865-11.865h1.565  c6.604,0,11.976,5.373,11.976,11.976v440.247c0,6.604-5.373,11.976-11.976,11.976h-1.454V488.1z"/>
<path d="M22.99,14.34h-1.565C9.611,14.34,0,23.951,0,35.766v440.358C0,488,9.661,497.66,21.536,497.66h1.453  c11.876,0,21.536-9.661,21.536-21.536V35.876C44.526,24.001,34.865,14.34,22.99,14.34z M28.592,476.124  c0,3.089-2.513,5.602-5.602,5.602h-1.453c-3.089,0-5.602-2.513-5.602-5.602V35.766c0-3.028,2.463-5.492,5.492-5.492h1.565  c3.089,0,5.602,2.513,5.602,5.602v440.248H28.592z"/>
<g>
</g>
<g>
</g>
<g>
</g>
<g>
</g>
<g>
</g>
<g>
</g>
<g>
</g>
<g>
</g>
<g>
</g>
<g>
</g>
<g>
</g>
<g>
</g>
<g>
</g>
<g>
</g>
<g>
</g>
</svg>
