<?xml version="1.0" encoding="iso-8859-1"?>
<!-- Generator: Adobe Illustrator 19.0.0, SVG Export Plug-In . SVG Version: 6.00 Build 0)  -->
<svg xmlns="http://www.w3.org/2000/svg" xmlns:xlink="http://www.w3.org/1999/xlink" version="1.1" id="Layer_1" x="0px" y="0px" viewBox="0 0 512 512" style="enable-background:new 0 0 512 512;" xml:space="preserve">
<g>
	<path style="fill:#259245;" d="M237.966,204.079c0,26.834,14.538,50.325,36.14,63.049V141.03   C252.504,153.753,237.966,177.244,237.966,204.079z"/>
	<path style="fill:#259245;" d="M197.424,292.213c-21.146-18.535-34.933-44.006-38.822-71.72c-0.59-4.197,2.336-8.076,6.533-8.666   c0.089-0.012,0.176-0.013,0.265-0.023c-0.178-2.553-0.275-5.127-0.275-7.724c0-2.597,0.097-5.173,0.275-7.726   c-0.088-0.009-0.176-0.011-0.265-0.023c-4.197-0.59-7.122-4.468-6.533-8.666c3.888-27.713,17.675-53.185,38.822-71.72   c21.225-18.605,48.44-28.895,76.683-29.015V58.273H51.562v291.61h222.545v-28.655C245.863,321.109,218.649,310.818,197.424,292.213   z"/>
</g>
<path style="fill:#FFFFFF;" d="M274.107,86.928c0.167,0,0.333-0.005,0.5-0.005c40.76,0,77.971,20.701,99.536,55.377  c2.05,3.297,1.315,7.608-1.715,10.039c-3.03,2.431-7.397,2.215-10.171-0.504c-13.757-13.47-31.925-20.89-51.157-20.89  c-13.492,0-26.133,3.687-36.994,10.085V267.13c10.862,6.397,23.502,10.085,36.994,10.085c19.233,0,37.4-7.419,51.156-20.891  c2.775-2.717,7.141-2.934,10.172-0.504c3.031,2.431,3.766,6.741,1.715,10.039c-21.566,34.675-58.776,55.378-99.536,55.378  c-0.167,0-0.333-0.005-0.5-0.005v28.655h222.545V58.273H274.107V86.928z M390.648,204.079c0,3.179-1.961,6.029-4.93,7.166  l-20.704,7.929l-1.142,22.14c-0.164,3.175-2.269,5.921-5.293,6.902c-0.78,0.253-1.578,0.376-2.371,0.376  c-2.276,0-4.484-1.015-5.968-2.85l-13.94-17.239l-21.41,5.754c-3.065,0.826-6.33-0.327-8.2-2.9c-1.868-2.571-1.958-6.03-0.224-8.695  l12.087-18.584l-12.087-18.585c-1.734-2.664-1.644-6.122,0.224-8.695c1.87-2.571,5.13-3.725,8.2-2.9l21.41,5.754l13.94-17.239  c1.998-2.472,5.319-3.455,8.339-2.473c3.023,0.983,5.128,3.728,5.293,6.902l1.142,22.14l20.704,7.929  C388.687,198.05,390.648,200.9,390.648,204.079z"/>
<path d="M504.326,42.925H43.888c-4.238,0-7.674,3.436-7.674,7.674v306.959c0,4.238,3.436,7.674,7.674,7.674h460.438  c4.239,0,7.674-3.436,7.674-7.674V50.599C512,46.361,508.565,42.925,504.326,42.925z M496.652,349.884H274.107H51.562V58.273  h222.545h222.545L496.652,349.884L496.652,349.884z"/>
<g>
	<path style="fill:#ED1F34;" d="M173.801,218.36c7.001,49.899,50.338,87.526,100.806,87.526c19.169,0,37.436-5.271,53.133-14.885   c-5.431,1.032-10.998,1.56-16.639,1.56c-48.789,0-88.482-39.693-88.482-88.482s39.693-88.482,88.482-88.482   c5.641,0,11.209,0.528,16.642,1.56c-15.697-9.614-33.966-14.885-53.135-14.885c-50.468,0-93.805,37.627-100.806,87.526   c-0.576,4.108-4.301,6.991-8.401,6.557c-0.178,2.553-0.275,5.128-0.275,7.726c0,2.597,0.097,5.172,0.275,7.724   C169.496,211.378,173.225,214.252,173.801,218.36z"/>
	<path style="fill:#ED1F34;" d="M354.864,201.529c-2.833-1.085-4.762-3.739-4.919-6.77l-0.367-7.115l-4.48,5.541   c-1.908,2.36-5.03,3.37-7.958,2.586l-6.881-1.849l3.885,5.973c1.656,2.543,1.656,5.824,0,8.368l-3.885,5.973l6.882-1.849   c0.66-0.177,1.329-0.263,1.991-0.263c2.283,0,4.489,1.02,5.968,2.849l4.48,5.541l0.367-7.115c0.156-3.032,2.086-5.685,4.919-6.771   l6.654-2.549L354.864,201.529z"/>
</g>
<path d="M363.872,166.843c-0.164-3.175-2.269-5.921-5.293-6.902c-3.02-0.982-6.341,0.001-8.339,2.473l-13.94,17.239l-21.41-5.754  c-3.07-0.824-6.33,0.328-8.2,2.9c-1.868,2.572-1.958,6.03-0.224,8.695l12.087,18.585l-12.087,18.584  c-1.734,2.664-1.644,6.123,0.224,8.695c1.87,2.572,5.136,3.727,8.2,2.9l21.41-5.754l13.94,17.239c1.484,1.835,3.692,2.85,5.968,2.85  c0.792,0,1.591-0.123,2.371-0.376c3.023-0.982,5.128-3.728,5.293-6.902l1.142-22.14l20.704-7.929c2.969-1.137,4.93-3.987,4.93-7.166  c0-3.18-1.961-6.029-4.93-7.167l-20.704-7.929L363.872,166.843z M349.944,213.399l-0.367,7.115l-4.48-5.541  c-1.479-1.829-3.685-2.849-5.968-2.849c-0.662,0-1.331,0.086-1.991,0.263l-6.882,1.849l3.885-5.973c1.656-2.543,1.656-5.824,0-8.368  l-3.885-5.973l6.882,1.849c2.928,0.784,6.051-0.225,7.958-2.586l4.48-5.541l0.367,7.115c0.156,3.031,2.086,5.685,4.919,6.77  l6.654,2.549l-6.654,2.549C352.031,207.713,350.101,210.367,349.944,213.399z"/>
<path d="M158.602,187.665c-0.59,4.197,2.336,8.076,6.533,8.666c0.089,0.012,0.176,0.014,0.265,0.023  c4.1,0.434,7.825-2.448,8.401-6.557c7.001-49.899,50.338-87.526,100.806-87.526c19.169,0,37.438,5.271,53.135,14.885  c-5.432-1.032-11-1.56-16.642-1.56c-48.789,0-88.482,39.693-88.482,88.482s39.693,88.482,88.482,88.482  c5.641,0,11.208-0.528,16.639-1.56c-15.697,9.614-33.964,14.885-53.133,14.885c-50.468,0-93.805-37.627-100.806-87.526  c-0.576-4.108-4.305-6.982-8.401-6.557c-0.088,0.009-0.176,0.011-0.265,0.023c-4.197,0.59-7.122,4.468-6.533,8.666  c3.888,27.714,17.675,53.185,38.822,71.72c21.225,18.605,48.44,28.895,76.683,29.015c0.167,0,0.333,0.005,0.5,0.005  c40.76,0,77.971-20.701,99.536-55.378c2.05-3.297,1.315-7.609-1.715-10.039c-3.031-2.432-7.397-2.214-10.172,0.504  c-13.756,13.471-31.923,20.891-51.156,20.891c-13.492,0-26.133-3.687-36.994-10.085c-21.603-12.725-36.14-36.214-36.14-63.049  s14.538-50.325,36.14-63.049c10.862-6.397,23.502-10.085,36.994-10.085c19.232,0,37.4,7.419,51.157,20.89  c2.774,2.718,7.141,2.934,10.171,0.504c3.031-2.431,3.766-6.741,1.715-10.039c-21.566-34.674-58.776-55.377-99.536-55.377  c-0.167,0-0.333,0.005-0.5,0.005c-28.244,0.12-55.458,10.411-76.683,29.015C176.277,134.48,162.49,159.951,158.602,187.665z"/>
<path style="fill:#2E3033;" d="M20.97,482.004c-6.429,0-11.661-5.232-11.661-11.661V41.55c0-6.371,5.183-11.554,11.554-11.554h1.524  c6.431,0,11.661,5.232,11.661,11.661v428.685c0,6.431-5.232,11.661-11.661,11.661H20.97V482.004z"/>
<path d="M22.386,20.687h-1.524C9.359,20.687,0,30.046,0,41.55v428.793c0,11.563,9.407,20.97,20.97,20.97h1.415  c11.564,0,20.97-9.407,20.97-20.97V41.657C43.357,30.094,33.949,20.687,22.386,20.687z M27.841,470.343  c0,3.008-2.447,5.455-5.455,5.455h-1.415c-3.008,0-5.455-2.447-5.455-5.455V41.55c0-2.949,2.399-5.348,5.348-5.348h1.524  c3.008,0,5.455,2.447,5.455,5.455v428.686H27.841z"/>
<g>
</g>
<g>
</g>
<g>
</g>
<g>
</g>
<g>
</g>
<g>
</g>
<g>
</g>
<g>
</g>
<g>
</g>
<g>
</g>
<g>
</g>
<g>
</g>
<g>
</g>
<g>
</g>
<g>
</g>
</svg>
