<?xml version="1.0" encoding="iso-8859-1"?>
<!-- Generator: Adobe Illustrator 19.0.0, SVG Export Plug-In . SVG Version: 6.00 Build 0)  -->
<svg xmlns="http://www.w3.org/2000/svg" xmlns:xlink="http://www.w3.org/1999/xlink" version="1.1" id="Layer_1" x="0px" y="0px" viewBox="0 0 512 512" style="enable-background:new 0 0 512 512;" xml:space="preserve">
<path style="fill:#ED1F34;" d="M473.551,350.082h23.069V57.874H50.619v292.209h392.174c4.248,0,7.689,3.443,7.689,7.689h15.381  C465.862,353.525,469.304,350.082,473.551,350.082z M377.826,163.1c4.247,0,7.689,3.443,7.689,7.689  c0,4.247-3.442,7.689-7.689,7.689h-19.831c-1.741,4.184-3.777,8.218-6.099,12.069h25.931c4.247,0,7.689,3.443,7.689,7.689  c0,4.246-3.442,7.689-7.689,7.689h-37.592c-11.369,12.105-26.053,21.162-42.832,25.654l5.883,33.256h14.057  c4.248,0,7.69,3.442,7.69,7.689s-3.442,7.689-7.69,7.689h-20.505H281.31v15.988c0,4.246-3.443,7.689-7.69,7.689  s-7.69-3.443-7.69-7.689v-15.988h-15.526h-20.506c-4.248,0-7.69-3.443-7.69-7.689s3.442-7.689,7.69-7.689h14.057l5.883-33.256  c-16.779-4.492-31.463-13.549-42.832-25.654h-37.592c-4.247,0-7.689-3.443-7.689-7.689c0-4.246,3.442-7.689,7.689-7.689h25.931  c-2.323-3.851-4.358-7.885-6.099-12.069h-19.831c-4.247,0-7.689-3.443-7.689-7.689c0-4.246,3.442-7.689,7.689-7.689h14.971  c-0.869-3.942-1.491-7.968-1.835-12.069h-13.138c-4.247,0-7.689-3.443-7.689-7.689c0-4.246,3.442-7.689,7.689-7.689h20.506h47.645  c4.247,0,7.69,3.443,7.69,7.689c0,7.848,3.204,14.96,8.371,20.101v-44.003h-14.867c-4.247,0-7.689-3.443-7.689-7.689  s3.442-7.689,7.689-7.689h22.557c4.247,0,7.69,3.443,7.69,7.689v59.578c1.502,0.247,3.042,0.381,4.613,0.381  s3.111-0.135,4.613-0.381v-59.579c0-4.246,3.442-7.689,7.69-7.689h22.557c4.247,0,7.689,3.443,7.689,7.689  c0,4.247-3.442,7.689-7.689,7.689h-14.868v44.004c5.169-5.141,8.372-12.253,8.372-20.101c0-4.247,3.442-7.689,7.69-7.689h47.645  h20.506c4.247,0,7.689,3.443,7.689,7.689c0,4.246-3.442,7.689-7.689,7.689h-13.138c-0.342,4.101-0.966,8.128-1.834,12.069  L377.826,163.1L377.826,163.1z"/>
<path d="M504.31,42.494H42.929c-4.248,0-7.69,3.443-7.69,7.689v307.588c0,4.247,3.442,7.689,7.69,7.689h399.864  c4.248,0,7.689-3.443,7.689-7.689c0-4.246-3.441-7.689-7.689-7.689H50.619V57.874H496.62v292.209h-23.069  c-4.248,0-7.689,3.443-7.689,7.689c0,4.247,3.441,7.689,7.689,7.689h30.758c4.248,0,7.69-3.443,7.69-7.689V50.183  C512,45.937,508.558,42.494,504.31,42.494z"/>
<path style="fill:#333333;" d="M316.689,151.032c-3.646,20.467-21.571,36.056-43.069,36.056s-39.423-15.59-43.069-36.056h-32.558  c1.583,15.725,7.969,30.159,17.79,41.67c0.289,0.28,0.556,0.584,0.799,0.905c10.991,12.479,26.08,21.381,43.469,24.514  c4.17,0.751,6.946,4.734,6.208,8.907l-6.689,37.811h28.095l-6.689-37.811c-0.738-4.173,2.039-8.156,6.208-8.907  c17.389-3.133,32.477-12.035,43.469-24.514c0.244-0.322,0.51-0.625,0.799-0.905c9.821-11.511,16.208-25.945,17.79-41.67  L316.689,151.032L316.689,151.032z"/>
<path d="M377.826,151.032c4.247,0,7.689-3.443,7.689-7.689c0-4.246-3.442-7.689-7.689-7.689H357.32h-47.645  c-4.248,0-7.69,3.443-7.69,7.689c0,7.848-3.204,14.96-8.372,20.101v-44.004h14.868c4.247,0,7.689-3.443,7.689-7.689  s-3.442-7.689-7.689-7.689h-22.557c-4.248,0-7.69,3.443-7.69,7.689v59.578c-1.502,0.247-3.043,0.381-4.613,0.381  c-1.572,0-3.111-0.135-4.613-0.381v-59.579c0-4.246-3.443-7.689-7.69-7.689h-22.557c-4.247,0-7.689,3.443-7.689,7.689  c0,4.247,3.442,7.689,7.689,7.689h14.867v44.004c-5.168-5.141-8.371-12.253-8.371-20.101c0-4.247-3.443-7.689-7.69-7.689h-47.645  h-20.506c-4.247,0-7.689,3.443-7.689,7.689c0,4.246,3.442,7.689,7.689,7.689h13.138c0.342,4.101,0.966,8.128,1.835,12.069h-14.971  c-4.247,0-7.689,3.443-7.689,7.689c0,4.247,3.442,7.689,7.689,7.689h19.831c1.741,4.184,3.777,8.218,6.099,12.069h-25.931  c-4.247,0-7.689,3.443-7.689,7.689c0,4.246,3.442,7.689,7.689,7.689h37.592c11.369,12.105,26.053,21.162,42.832,25.654  l-5.883,33.256h-14.057c-4.248,0-7.69,3.442-7.69,7.689s3.442,7.689,7.69,7.689h20.506h15.526v15.988  c0,4.246,3.443,7.689,7.69,7.689s7.69-3.443,7.69-7.689v-15.988h15.527h20.505c4.248,0,7.69-3.443,7.69-7.689  s-3.442-7.689-7.69-7.689h-14.057l-5.883-33.256c16.779-4.492,31.463-13.549,42.832-25.654h37.592c4.247,0,7.689-3.443,7.689-7.689  c0-4.246-3.442-7.689-7.689-7.689h-25.931c2.323-3.851,4.358-7.885,6.099-12.069h19.831c4.247,0,7.689-3.443,7.689-7.689  c0-4.246-3.442-7.689-7.689-7.689h-14.971c0.869-3.942,1.491-7.968,1.834-12.069h13.138V151.032z M331.456,192.701  c-0.289,0.28-0.556,0.584-0.799,0.905c-10.992,12.479-26.08,21.381-43.469,24.514c-4.17,0.751-6.946,4.734-6.208,8.907l6.689,37.811  h-28.095l6.689-37.811c0.738-4.173-2.039-8.156-6.208-8.907c-17.389-3.133-32.478-12.035-43.469-24.514  c-0.244-0.322-0.51-0.625-0.799-0.905c-9.821-11.511-16.208-25.945-17.79-41.67h32.558c3.646,20.467,21.571,36.056,43.069,36.056  s39.423-15.59,43.069-36.056h32.558C347.663,166.757,341.276,181.19,331.456,192.701z"/>
<path style="fill:#2E3033;" d="M21.013,482.462c-6.442,0-11.685-5.242-11.685-11.685V41.115c0-6.383,5.194-11.577,11.577-11.577  h1.527c6.444,0,11.685,5.242,11.685,11.685v429.552c0,6.444-5.242,11.685-11.685,11.685h-1.419V482.462z"/>
<path d="M22.432,20.211h-1.527C9.378,20.211,0,29.588,0,41.115v429.661c0,11.587,9.426,21.013,21.013,21.013h1.418  c11.587,0,21.013-9.426,21.013-21.013V41.223C43.444,29.637,34.018,20.211,22.432,20.211z M27.898,470.777  c0,3.014-2.452,5.466-5.466,5.466h-1.418c-3.014,0-5.466-2.452-5.466-5.466V41.115c0-2.955,2.403-5.358,5.358-5.358h1.527  c3.014,0,5.466,2.452,5.466,5.466v429.553H27.898z"/>
<g>
</g>
<g>
</g>
<g>
</g>
<g>
</g>
<g>
</g>
<g>
</g>
<g>
</g>
<g>
</g>
<g>
</g>
<g>
</g>
<g>
</g>
<g>
</g>
<g>
</g>
<g>
</g>
<g>
</g>
</svg>
