<?xml version="1.0" encoding="iso-8859-1"?>
<!-- Generator: Adobe Illustrator 19.0.0, SVG Export Plug-In . SVG Version: 6.00 Build 0)  -->
<svg xmlns="http://www.w3.org/2000/svg" xmlns:xlink="http://www.w3.org/1999/xlink" version="1.1" id="Layer_1" x="0px" y="0px" viewBox="0 0 512 512" style="enable-background:new 0 0 512 512;" xml:space="preserve">
<g>
	<path style="fill:#ED1F34;" d="M274.107,165.709c-21.158,0-38.37,17.213-38.37,38.37s17.213,38.37,38.37,38.37   c21.157,0,38.37-17.213,38.37-38.37C312.477,182.922,295.265,165.709,274.107,165.709z M274.107,227.1   c-12.693,0-23.022-10.328-23.022-23.021s10.328-23.022,23.022-23.022s23.022,10.328,23.022,23.022   C297.13,216.774,286.801,227.1,274.107,227.1z"/>
	<path style="fill:#ED1F34;" d="M343.172,111.99V58.273H205.041v291.61h138.131V142.687c0-4.239,3.435-7.674,7.674-7.674v-15.349   C346.609,119.664,343.172,116.229,343.172,111.99z M274.107,257.797c-29.62,0-53.718-24.097-53.718-53.718   s24.097-53.719,53.718-53.719s53.718,24.098,53.718,53.719S303.728,257.797,274.107,257.797z"/>
</g>
<rect x="51.562" y="58.275" style="fill:#333333;" width="138.126" height="291.612"/>
<path style="fill:#259245;" d="M358.521,111.99c0,4.239-3.436,7.674-7.675,7.674v15.349c4.239,0,7.675,3.435,7.675,7.674v207.197  h138.131V58.273H358.521V111.99z"/>
<path d="M504.326,42.925H43.888c-4.238,0-7.674,3.436-7.674,7.674v306.959c0,4.239,3.436,7.674,7.674,7.674h460.438  c4.239,0,7.674-3.436,7.674-7.674V50.599C512,46.361,508.565,42.925,504.326,42.925z M496.652,349.884H358.521V142.687  c0-4.239-3.436-7.674-7.675-7.674s-7.674,3.435-7.674,7.674v207.197H205.041V58.273h138.131v53.718c0,4.239,3.435,7.674,7.674,7.674  s7.675-3.435,7.675-7.674V58.273h138.131L496.652,349.884L496.652,349.884z M51.562,58.273h138.131v291.61H51.562V58.273z"/>
<g>
	<path style="fill:#FFFFFF;" d="M274.107,150.36c-29.62,0-53.718,24.098-53.718,53.719s24.097,53.718,53.718,53.718   s53.718-24.097,53.718-53.718S303.728,150.36,274.107,150.36z M274.107,242.448c-21.158,0-38.37-17.213-38.37-38.37   s17.213-38.37,38.37-38.37c21.157,0,38.37,17.213,38.37,38.37C312.477,225.236,295.265,242.448,274.107,242.448z"/>
	<path style="fill:#FFFFFF;" d="M274.107,181.057c-12.693,0-23.022,10.328-23.022,23.022c0,12.694,10.328,23.021,23.022,23.021   s23.022-10.328,23.022-23.021S286.801,181.057,274.107,181.057z"/>
</g>
<path style="fill:#2E3033;" d="M20.97,482.004c-6.429,0-11.661-5.232-11.661-11.661V41.55c0-6.371,5.183-11.554,11.554-11.554h1.524  c6.431,0,11.661,5.232,11.661,11.661v428.685c0,6.431-5.232,11.661-11.661,11.661H20.97V482.004z"/>
<path d="M22.386,20.687h-1.524C9.359,20.687,0,30.046,0,41.55v428.793c0,11.563,9.407,20.97,20.97,20.97h1.415  c11.564,0,20.97-9.407,20.97-20.97V41.657C43.357,30.094,33.949,20.687,22.386,20.687z M27.841,470.343  c0,3.008-2.447,5.455-5.455,5.455h-1.415c-3.008,0-5.455-2.447-5.455-5.455V41.55c0-2.949,2.399-5.348,5.348-5.348h1.524  c3.008,0,5.455,2.447,5.455,5.455v428.686H27.841z"/>
<g>
</g>
<g>
</g>
<g>
</g>
<g>
</g>
<g>
</g>
<g>
</g>
<g>
</g>
<g>
</g>
<g>
</g>
<g>
</g>
<g>
</g>
<g>
</g>
<g>
</g>
<g>
</g>
<g>
</g>
</svg>
