<?xml version="1.0" encoding="iso-8859-1"?>
<!-- Generator: Adobe Illustrator 19.0.0, SVG Export Plug-In . SVG Version: 6.00 Build 0)  -->
<svg xmlns="http://www.w3.org/2000/svg" xmlns:xlink="http://www.w3.org/1999/xlink" version="1.1" id="Layer_1" x="0px" y="0px" viewBox="0 0 511.999 511.999" style="enable-background:new 0 0 511.999 511.999;" xml:space="preserve">
<g>
	<path style="fill:#FFFFFF;" d="M441.07,97.971H244.304v29.282h251.934V97.971h-23.643c-4.353,0-7.881-3.529-7.881-7.881h-15.763   C448.951,94.443,445.422,97.971,441.07,97.971z"/>
	<rect x="39.132" y="188.048" style="fill:#FFFFFF;" width="457.103" height="29.269"/>
	<path style="fill:#FFFFFF;" d="M464.713,315.274c0-4.353,3.529-7.881,7.881-7.881h23.643v-29.269H39.132v29.269H441.07   c4.353,0,7.881,3.529,7.881,7.881l0,0L464.713,315.274L464.713,315.274z"/>
</g>
<g>
	<path style="fill:#259245;" d="M472.594,323.154c-4.353,0-7.881-3.529-7.881-7.881h-15.763c0,4.353-3.529,7.881-7.881,7.881H39.132   v29.269h457.106v-29.269H472.594z"/>
	<rect x="39.132" y="233.076" style="fill:#259245;" width="457.103" height="29.283"/>
	<rect x="244.305" y="143.02" style="fill:#259245;" width="251.932" height="29.269"/>
	<path style="fill:#259245;" d="M244.304,82.209h196.765c4.353,0,7.881,3.529,7.881,7.881l0,0h15.763l0,0   c0-4.353,3.529-7.881,7.881-7.881h23.643V52.94H244.304V82.209z"/>
</g>
<path style="fill:#ED1F34;" d="M39.132,172.284h189.409V52.94H39.132V172.284z M156.319,135.315  c0,12.397-10.086,22.483-22.483,22.483s-22.483-10.086-22.483-22.483v-24.7c0-4.643,3.764-8.407,8.407-8.407h28.153  c4.643,0,8.407,3.764,8.407,8.407v24.7H156.319z M133.837,67.953c36.749,0,66.647,29.898,66.647,66.647  c0,4.353-3.529,7.881-7.881,7.881c-4.353,0-7.881-3.529-7.881-7.881c0-28.058-22.826-50.885-50.885-50.885  s-50.886,22.826-50.886,50.883c0,4.353-3.529,7.881-7.881,7.881c-4.352,0-7.881-3.529-7.881-7.881  C67.19,97.85,97.087,67.953,133.837,67.953z"/>
<path style="fill:#FFFFFF;" d="M128.167,135.315c0,3.126,2.544,5.67,5.669,5.67c3.126,0,5.669-2.544,5.669-5.67v-16.294h-11.339  v16.294H128.167z"/>
<path d="M147.913,102.207H119.76c-4.643,0-8.407,3.764-8.407,8.407v24.7c0,12.397,10.086,22.483,22.483,22.483  s22.483-10.086,22.483-22.483v-24.7C156.319,105.972,152.556,102.207,147.913,102.207z M139.506,135.315  c0,3.126-2.543,5.67-5.669,5.67s-5.669-2.544-5.669-5.67v-16.294h11.339v16.294H139.506z"/>
<path style="fill:#FFFFFF;" d="M75.071,142.481c4.353,0,7.881-3.529,7.881-7.881c0-28.058,22.826-50.885,50.885-50.885  s50.885,22.826,50.885,50.885c0,4.353,3.529,7.881,7.881,7.881c4.352,0,7.881-3.529,7.881-7.881  c0-36.749-29.898-66.647-66.647-66.647S67.188,97.851,67.188,134.6C67.19,138.952,70.719,142.481,75.071,142.481z"/>
<path d="M504.119,37.178H31.25c-4.352,0-7.881,3.529-7.881,7.881v315.245c0,4.353,3.529,7.881,7.881,7.881h472.868  c4.353,0,7.881-3.529,7.881-7.881V45.059C512,40.707,508.471,37.178,504.119,37.178z M496.237,82.209h-23.643  c-4.353,0-7.881,3.529-7.881,7.881l0,0c0,4.353,3.529,7.881,7.881,7.881h23.643v29.282H244.304V97.971h196.765  c4.353,0,7.881-3.529,7.881-7.881l0,0c0-4.353-3.529-7.881-7.881-7.881H244.304V52.94h251.934V82.209z M39.132,262.361v-29.283  h457.106v29.283H39.132z M39.132,217.316v-29.269h457.106v29.269H39.132z M244.304,172.284v-29.269h251.934v29.269H244.304z   M228.541,172.284H39.132V52.94h189.409V172.284z M39.132,352.423v-29.269H441.07c4.353,0,7.881-3.529,7.881-7.881l0,0  c0-4.353-3.529-7.881-7.881-7.881H39.132v-29.269h457.106v29.269h-23.643c-4.353,0-7.881,3.529-7.881,7.881l0,0  c0,4.353,3.529,7.881,7.881,7.881h23.643v29.269L39.132,352.423L39.132,352.423z"/>
<path style="fill:#2E3033;" d="M21.536,488.099c-6.603,0-11.976-5.373-11.976-11.976V35.765c0-6.542,5.323-11.865,11.865-11.865  h1.565c6.604,0,11.976,5.373,11.976,11.976v440.247c0,6.604-5.373,11.976-11.976,11.976h-1.454V488.099z"/>
<path d="M22.99,14.34h-1.565C9.611,14.34,0,23.951,0,35.765v440.358c0,11.876,9.661,21.536,21.536,21.536h1.453  c11.876,0,21.536-9.661,21.536-21.536V35.876C44.526,24.001,34.865,14.34,22.99,14.34z M28.592,476.123  c0,3.089-2.513,5.602-5.602,5.602h-1.453c-3.089,0-5.602-2.513-5.602-5.602V35.765c0-3.028,2.463-5.492,5.492-5.492h1.565  c3.089,0,5.602,2.513,5.602,5.602v440.248H28.592z"/>
<g>
</g>
<g>
</g>
<g>
</g>
<g>
</g>
<g>
</g>
<g>
</g>
<g>
</g>
<g>
</g>
<g>
</g>
<g>
</g>
<g>
</g>
<g>
</g>
<g>
</g>
<g>
</g>
<g>
</g>
</svg>
