<?xml version="1.0" encoding="iso-8859-1"?>
<!-- Generator: Adobe Illustrator 19.0.0, SVG Export Plug-In . SVG Version: 6.00 Build 0)  -->
<svg version="1.1" id="Layer_1" xmlns="http://www.w3.org/2000/svg" xmlns:xlink="http://www.w3.org/1999/xlink" x="0px" y="0px"
	 viewBox="0 0 799.999 799.999" style="enable-background:new 0 0 799.999 799.999;" xml:space="preserve">
<g>
	<path style="fill:#FFFFFF;" d="M683.871,228.565h-322.15v47.942h412.473v-47.942h-38.709c-7.127,0-12.903-5.777-12.903-12.903
		h-25.807C696.774,222.788,690.997,228.565,683.871,228.565z"/>
	<rect x="25.807" y="376.039" style="fill:#FFFFFF;" width="748.387" height="47.92"/>
	<path style="fill:#FFFFFF;" d="M722.581,584.336c0-7.126,5.776-12.903,12.903-12.903h38.709v-47.921H25.807v47.921h658.064
		c7.126,0,12.903,5.777,12.903,12.903l0,0H722.581L722.581,584.336z"/>
	<path style="fill:#259245;" d="M735.484,597.239c-7.127,0-12.903-5.777-12.903-12.903h-25.807c0,7.126-5.777,12.903-12.903,12.903
		H25.807v47.921h748.387v-47.921H735.484z"/>
	<rect x="25.807" y="449.766" style="fill:#259245;" width="748.387" height="47.941"/>
	<rect x="361.721" y="302.313" style="fill:#259245;" width="412.473" height="47.921"/>
	<path style="fill:#259245;" d="M361.721,202.759h322.15c7.126,0,12.903,5.777,12.903,12.903l0,0h25.807l0,0
		c0-7.126,5.776-12.903,12.903-12.903h38.709v-47.921H361.721V202.759z"/>
	<path style="fill:#ED1F34;" d="M24.807,351.232V153.838h312.107v197.394H24.807z M157.813,236.5
		c-7.038,0-12.764,5.726-12.764,12.764v40.44c0,19.746,16.064,35.81,35.811,35.81c19.746,0,35.81-16.064,35.81-35.81l-0.001-40.44
		c0-7.038-5.726-12.764-12.764-12.764H157.813z M180.86,204.224c46.489,0,84.31,37.821,84.31,84.31
		c0,6.563,5.34,11.903,11.903,11.903s11.903-5.34,11.903-11.903c0-59.616-48.501-108.117-108.116-108.117
		c-59.616,0-108.117,48.501-108.117,108.117c0,6.563,5.34,11.903,11.903,11.903s11.903-5.34,11.903-11.903
		C96.55,242.045,134.372,204.224,180.86,204.224z"/>
	<path style="fill:#ED1F34;" d="M25.807,350.232h310.107V154.838H25.807V350.232z M217.67,289.704
		c0,20.296-16.513,36.81-36.81,36.81c-20.298,0-36.811-16.513-36.811-36.81v-40.44c0-7.601,6.163-13.764,13.764-13.764h46.092
		c7.601,0,13.764,6.163,13.764,13.764v40.44H217.67z M180.86,179.417c60.167,0,109.116,48.95,109.116,109.117
		c0,7.126-5.777,12.903-12.903,12.903s-12.903-5.777-12.903-12.903c0-45.938-37.373-83.31-83.31-83.31
		c-45.938,0-83.31,37.373-83.31,83.31c0,7.126-5.777,12.903-12.903,12.903s-12.903-5.777-12.903-12.903
		C71.744,228.365,120.693,179.417,180.86,179.417z"/>
	<path style="fill:#FFFFFF;" d="M171.577,289.704c0,5.118,4.164,9.283,9.284,9.283s9.283-4.163,9.283-9.283v-26.677h-18.567V289.704
		z"/>
	<path d="M203.907,235.5h-46.094c-7.601,0-13.764,6.163-13.764,13.764v40.44c0,20.296,16.513,36.81,36.811,36.81
		c20.297,0,36.81-16.513,36.81-36.81v-40.44C217.67,241.661,211.508,235.5,203.907,235.5z M190.144,289.704
		c0,5.118-4.163,9.283-9.283,9.283s-9.284-4.163-9.284-9.283v-26.677h18.565v26.677H190.144z"/>
	<path style="fill:#FFFFFF;" d="M84.647,301.436c7.126,0,12.903-5.777,12.903-12.903c0-45.937,37.373-83.31,83.31-83.31
		s83.31,37.373,83.31,83.31c0,7.126,5.777,12.903,12.903,12.903s12.903-5.777,12.903-12.903
		c0-60.167-48.949-109.116-109.116-109.116S71.744,228.365,71.744,288.532C71.744,295.66,77.521,301.436,84.647,301.436z"/>
	<path d="M787.097,129.031H12.903C5.777,129.031,0,134.809,0,141.935v516.129c0,7.126,5.777,12.903,12.903,12.903h774.193
		c7.126,0,12.903-5.777,12.903-12.903V141.935C800,134.809,794.223,129.031,787.097,129.031z M774.193,202.759h-38.709
		c-7.127,0-12.903,5.777-12.903,12.903l0,0c0,7.126,5.776,12.903,12.903,12.903h38.709v47.942H361.721v-47.942h322.15
		c7.126,0,12.903-5.777,12.903-12.903l0,0c0-7.126-5.777-12.903-12.903-12.903h-322.15v-47.921h412.473L774.193,202.759
		L774.193,202.759z M25.807,497.707v-47.941h748.387v47.941H25.807z M25.807,423.959v-47.92h748.387v47.92L25.807,423.959
		L25.807,423.959z M361.721,350.232v-47.919h412.473v47.921H361.721V350.232z M335.914,350.232H25.807V154.838h310.107V350.232z
		 M25.807,645.16v-47.921h658.064c7.126,0,12.903-5.777,12.903-12.903l0,0c0-7.126-5.777-12.903-12.903-12.903H25.807v-47.921
		h748.387v47.921h-38.709c-7.127,0-12.903,5.777-12.903,12.903l0,0c0,7.126,5.776,12.903,12.903,12.903h38.709v47.921H25.807z"/>
</g>
<g>
</g>
<g>
</g>
<g>
</g>
<g>
</g>
<g>
</g>
<g>
</g>
<g>
</g>
<g>
</g>
<g>
</g>
<g>
</g>
<g>
</g>
<g>
</g>
<g>
</g>
<g>
</g>
<g>
</g>
</svg>
