<?xml version="1.0" encoding="iso-8859-1"?>
<!-- Generator: Adobe Illustrator 19.0.0, SVG Export Plug-In . SVG Version: 6.00 Build 0)  -->
<svg version="1.1" id="Layer_1" xmlns="http://www.w3.org/2000/svg" xmlns:xlink="http://www.w3.org/1999/xlink" x="0px" y="0px"
	 viewBox="0 0 799.999 799.999" style="enable-background:new 0 0 799.999 799.999;" xml:space="preserve">
<g>
	<path style="fill:#ED1F34;" d="M400,335.483c-35.575,0-64.516,28.941-64.516,64.516s28.94,64.517,64.516,64.517
		s64.516-28.941,64.516-64.517S435.575,335.483,400,335.483z M400,438.709c-21.344,0-38.71-17.366-38.71-38.71
		S378.656,361.29,400,361.29s38.71,17.366,38.71,38.709S421.344,438.709,400,438.709z"/>
	<path style="fill:#ED1F34;" d="M516.129,245.16v-90.322H283.871V645.16h232.258V296.773c0-7.126,5.775-12.903,12.903-12.903
		v-25.807C521.904,258.063,516.129,252.286,516.129,245.16z M400,490.321c-49.805,0-90.322-40.518-90.322-90.322
		s40.518-90.323,90.322-90.323c49.803,0,90.322,40.518,90.322,90.323S449.803,490.321,400,490.321z"/>
	<rect x="24.807" y="153.838" style="fill:#333333;" width="234.258" height="492.322"/>
	<rect x="25.807" y="154.838" style="fill:#333333;" width="232.258" height="490.322"/>
	<path style="fill:#259245;" d="M540.936,646.16V296.773c0-6.563-5.34-11.903-11.903-11.903h-1v-27.807h1
		c6.563,0,11.903-5.34,11.903-11.903v-91.322h234.258V646.16L540.936,646.16L540.936,646.16z"/>
	<path style="fill:#259245;" d="M541.936,245.16c0,7.126-5.775,12.903-12.903,12.903v25.807c7.128,0,12.903,5.777,12.903,12.903
		V645.16h232.258V154.838H541.936V245.16z"/>
	<path d="M787.097,129.031H12.903C5.777,129.031,0,134.809,0,141.935v516.129c0,7.126,5.777,12.903,12.903,12.903h774.193
		c7.128,0,12.903-5.777,12.903-12.903V141.935C800,134.809,794.225,129.031,787.097,129.031z M774.193,645.16H541.936V296.773
		c0-7.126-5.775-12.903-12.903-12.903s-12.903,5.777-12.903,12.903V645.16H283.871V154.838h232.258v90.322
		c0,7.126,5.775,12.903,12.903,12.903s12.903-5.777,12.903-12.903v-90.322h232.258L774.193,645.16L774.193,645.16z M25.807,154.838
		h232.258V645.16H25.807V154.838z"/>
	<path style="fill:#FFFFFF;" d="M400,309.676c-49.805,0-90.322,40.518-90.322,90.323s40.518,90.322,90.322,90.322
		c49.803,0,90.322-40.518,90.322-90.322S449.803,309.676,400,309.676z M400,464.516c-35.575,0-64.516-28.941-64.516-64.517
		s28.94-64.516,64.516-64.516s64.516,28.941,64.516,64.516S435.575,464.516,400,464.516z"/>
	<path style="fill:#FFFFFF;" d="M400,361.29c-21.344,0-38.71,17.366-38.71,38.709s17.366,38.71,38.71,38.71
		s38.71-17.366,38.71-38.71S421.344,361.29,400,361.29z"/>
</g>
<g>
</g>
<g>
</g>
<g>
</g>
<g>
</g>
<g>
</g>
<g>
</g>
<g>
</g>
<g>
</g>
<g>
</g>
<g>
</g>
<g>
</g>
<g>
</g>
<g>
</g>
<g>
</g>
<g>
</g>
</svg>
