<?xml version="1.0" encoding="iso-8859-1"?>
<!-- Generator: Adobe Illustrator 19.0.0, SVG Export Plug-In . SVG Version: 6.00 Build 0)  -->
<svg version="1.1" id="Layer_1" xmlns="http://www.w3.org/2000/svg" xmlns:xlink="http://www.w3.org/1999/xlink" x="0px" y="0px"
	 viewBox="0 0 799.999 799.999" style="enable-background:new 0 0 799.999 799.999;" xml:space="preserve">
<g>
	<rect x="24.807" y="153.838" style="fill:#164FCE;" width="211.708" height="177.484"/>
	<rect x="25.807" y="154.838" style="fill:#164FCE;" width="209.708" height="175.484"/>
	<rect x="373.87" y="153.838" style="fill:#164FCE;" width="401.323" height="177.484"/>
	<rect x="374.87" y="154.838" style="fill:#164FCE;" width="399.323" height="175.484"/>
	<rect x="24.807" y="468.677" style="fill:#164FCE;" width="211.708" height="177.483"/>
	<rect x="25.807" y="469.677" style="fill:#164FCE;" width="209.708" height="175.483"/>
	<rect x="373.87" y="468.677" style="fill:#164FCE;" width="401.323" height="177.483"/>
	<rect x="374.87" y="469.677" style="fill:#164FCE;" width="399.323" height="175.483"/>
	<polygon style="fill:#FFE000;" points="235.515,330.322 25.807,330.322 25.807,349.676 254.87,349.676 254.87,154.838 
		235.515,154.838 	"/>
	<polygon style="fill:#FFE000;" points="374.87,469.677 774.193,469.677 774.193,450.321 355.515,450.321 355.515,645.16 
		374.87,645.16 	"/>
	<polygon style="fill:#FFE000;" points="235.515,645.16 254.87,645.16 254.87,450.321 25.807,450.321 25.807,469.677 
		235.515,469.677 	"/>
	<path style="fill:#FFE000;" d="M735.484,349.676h38.709v-19.354H374.87V154.838h-19.355v194.838h328.356
		c7.126,0,12.903,5.777,12.903,12.903h25.807C722.581,355.454,728.357,349.676,735.484,349.676z"/>
	<path style="fill:#ED1F34;" d="M279.676,646.16V437.418c0-6.563-5.34-11.902-11.903-11.902H24.807v-51.033h242.966
		c6.563,0,11.903-5.34,11.903-11.903V153.838h51.032V362.58c0,6.563,5.34,11.903,11.903,11.903h341.26
		c6.563,0,11.903-5.34,11.903-11.903v-1h27.807v1c0,6.563,5.34,11.903,11.903,11.903h39.709v51.033H342.611
		c-6.563,0-11.903,5.339-11.903,11.902V646.16H279.676z"/>
	<path style="fill:#ED1F34;" d="M280.676,154.838V362.58c0,7.126-5.777,12.903-12.903,12.903H25.807v49.033h241.966
		c7.126,0,12.903,5.776,12.903,12.902V645.16h49.032V437.418c0-7.126,5.777-12.902,12.903-12.902h431.582v-49.033h-38.709
		c-7.127,0-12.903-5.777-12.903-12.903h-25.807c0,7.126-5.777,12.903-12.903,12.903h-341.26c-7.126,0-12.903-5.777-12.903-12.903
		V154.838H280.676z"/>
	<path d="M787.097,129.031H12.903C5.777,129.031,0,134.809,0,141.935v516.129c0,7.126,5.777,12.903,12.903,12.903h774.193
		c7.126,0,12.903-5.777,12.903-12.903V141.935C800,134.809,794.223,129.031,787.097,129.031z M342.611,375.483h341.26
		c7.126,0,12.903-5.777,12.903-12.903s-5.777-12.903-12.903-12.903H355.515V154.838h19.355h399.323v175.484v19.354h-38.709
		c-7.127,0-12.903,5.777-12.903,12.903s5.776,12.903,12.903,12.903h38.709v49.033H342.611c-7.126,0-12.903,5.776-12.903,12.902
		v207.742h-49.032V437.418c0-7.126-5.777-12.902-12.903-12.902H25.807v-49.033h241.966c7.126,0,12.903-5.777,12.903-12.903V154.838
		h49.032V362.58C329.708,369.706,335.484,375.483,342.611,375.483z M254.87,349.676H25.807v-19.354V154.838h209.708h19.355
		L254.87,349.676L254.87,349.676z M25.807,469.677v-19.355H254.87v194.839h-19.355H25.807V469.677z M355.515,450.321h418.679v19.355
		v175.483H374.87h-19.355L355.515,450.321L355.515,450.321z"/>
</g>
<g>
</g>
<g>
</g>
<g>
</g>
<g>
</g>
<g>
</g>
<g>
</g>
<g>
</g>
<g>
</g>
<g>
</g>
<g>
</g>
<g>
</g>
<g>
</g>
<g>
</g>
<g>
</g>
<g>
</g>
</svg>
