<?xml version="1.0" encoding="iso-8859-1"?>
<!-- Generator: Adobe Illustrator 19.0.0, SVG Export Plug-In . SVG Version: 6.00 Build 0)  -->
<svg version="1.1" id="Layer_1" xmlns="http://www.w3.org/2000/svg" xmlns:xlink="http://www.w3.org/1999/xlink" x="0px" y="0px"
	 viewBox="0 0 800 800" style="enable-background:new 0 0 800 800;" xml:space="preserve">
<g>
	<path style="fill:#ED1F34;" d="M695.774,659.064v-1c0-6.563-5.34-11.903-11.903-11.903H24.807V153.839h750.387v492.322h-39.709
		c-6.563,0-11.903,5.34-11.903,11.903v1H695.774z M326.632,503.125c-6.563,0-11.902,5.34-11.902,11.903
		c0,6.563,5.339,11.902,11.902,11.902h61.465v27.825c0,6.563,5.34,11.903,11.903,11.903s11.903-5.34,11.903-11.903V526.93h61.463
		c6.563,0,11.903-5.34,11.903-11.903s-5.34-11.903-11.903-11.903H448.94l-10.178-57.532l0.886-0.237
		c27.299-7.308,51.989-22.096,71.402-42.766l0.296-0.315h63.511c6.563,0,11.903-5.34,11.903-11.903s-5.34-11.903-11.903-11.903
		h-45.283l0.915-1.517c3.845-6.374,7.266-13.143,10.169-20.119l0.256-0.616h33.943c6.563,0,11.903-5.34,11.903-11.903
		s-5.34-11.903-11.903-11.903l-26.367,0.001l0.268-1.215c1.475-6.692,2.504-13.461,3.06-20.119l0.076-0.917h22.964
		c6.563,0,11.903-5.34,11.903-11.903s-5.34-11.903-11.903-11.903H460.501c-6.563,0-11.903,5.34-11.903,11.903
		c0,13.007-5.094,25.237-14.344,34.438l-1.705,1.696v-77.243h25.944c6.563,0,11.903-5.34,11.903-11.903
		c0-6.563-5.34-11.903-11.903-11.903h-37.85c-6.563,0-11.903,5.339-11.903,11.903v100.818l-0.838,0.138
		c-2.636,0.434-5.295,0.653-7.904,0.653s-5.269-0.22-7.904-0.653l-0.837-0.138V245.244c0-6.563-5.34-11.903-11.903-11.903h-37.85
		c-6.563,0-11.903,5.339-11.903,11.903s5.34,11.903,11.903,11.903h25.946v77.242l-1.705-1.696
		c-9.25-9.2-14.345-21.431-14.345-34.438c0-6.563-5.339-11.903-11.902-11.903H225.141c-6.563,0-11.903,5.34-11.903,11.903
		c0,6.563,5.34,11.903,11.903,11.903h22.964l0.077,0.917c0.557,6.664,1.586,13.433,3.06,20.119l0.268,1.215h-26.368
		c-6.563,0-11.903,5.34-11.903,11.903s5.34,11.903,11.903,11.903h33.943l0.256,0.616c2.902,6.974,6.323,13.743,10.168,20.119
		l0.914,1.517h-45.282c-6.563,0-11.903,5.34-11.903,11.903s5.34,11.903,11.903,11.903h63.511l0.296,0.315
		c19.412,20.669,44.102,35.457,71.402,42.767l0.886,0.237l-10.177,57.532L326.632,503.125L326.632,503.125z"/>
	<path style="fill:#ED1F34;" d="M735.484,645.161h38.709V154.839H25.807v490.322h658.064c7.128,0,12.903,5.777,12.903,12.903h25.807
		C722.581,650.938,728.356,645.161,735.484,645.161z M574.857,331.408c7.128,0,12.903,5.777,12.903,12.903
		s-5.775,12.903-12.903,12.903h-33.276c-2.921,7.019-6.338,13.789-10.235,20.251h43.512c7.128,0,12.903,5.777,12.903,12.903
		s-5.775,12.903-12.903,12.903H511.78c-19.076,20.312-43.716,35.51-71.872,43.047l9.872,55.804h23.587
		c7.128,0,12.903,5.777,12.903,12.903c0,7.126-5.775,12.903-12.903,12.903h-34.409h-26.054v26.826
		c0,7.126-5.775,12.903-12.903,12.903s-12.903-5.777-12.903-12.903v-26.825h-26.056h-34.409c-7.127,0-12.902-5.776-12.902-12.902
		s5.775-12.903,12.902-12.903h23.588l9.871-55.804c-28.154-7.538-52.796-22.736-71.872-43.048h-63.078
		c-7.128,0-12.903-5.777-12.903-12.903s5.775-12.903,12.903-12.903h43.511c-3.896-6.462-7.313-13.231-10.235-20.251h-33.276
		c-7.128,0-12.903-5.777-12.903-12.903s5.775-12.903,12.903-12.903h25.124c-1.458-6.613-2.505-13.371-3.08-20.251h-22.044
		c-7.128,0-12.903-5.777-12.903-12.903s5.775-12.903,12.903-12.903h34.409H339.5c7.127,0,12.902,5.777,12.902,12.903
		c0,13.168,5.377,25.103,14.05,33.729v-73.837h-24.946c-7.128,0-12.903-5.777-12.903-12.903s5.775-12.903,12.903-12.903h37.85
		c7.127,0,12.903,5.777,12.903,12.903v99.969c2.52,0.415,5.104,0.64,7.741,0.64c2.638,0,5.222-0.226,7.742-0.64v-99.969
		c0-7.126,5.775-12.903,12.903-12.903h37.85c7.128,0,12.903,5.777,12.903,12.903s-5.775,12.903-12.903,12.903h-24.944v73.837
		c8.672-8.626,14.049-20.561,14.049-33.729c0-7.126,5.775-12.903,12.903-12.903h79.948h34.408c7.128,0,12.903,5.777,12.903,12.903
		s-5.775,12.903-12.903,12.903h-22.044c-0.574,6.882-1.622,13.638-3.079,20.251h25.123v-0.001H574.857z"/>
	<path d="M787.097,129.032H12.903C5.775,129.032,0,134.81,0,141.936v516.129c0,7.126,5.775,12.903,12.903,12.903h670.968
		c7.128,0,12.903-5.777,12.903-12.903s-5.775-12.903-12.903-12.903H25.807V154.839h748.387v490.322h-38.709
		c-7.128,0-12.903,5.777-12.903,12.903s5.775,12.903,12.903,12.903h51.612c7.128,0,12.903-5.777,12.903-12.903V141.936
		C800,134.81,794.225,129.032,787.097,129.032z"/>
	<path style="fill:#333333;" d="M375.236,503.125l11.431-64.62c1.139-6.442-3.173-12.628-9.611-13.789
		c-28.357-5.109-54.465-19.832-73.514-41.457c-0.433-0.567-0.85-1.04-1.286-1.46c-17.12-20.06-27.523-44.428-30.152-70.542
		l-0.111-1.1h56.575l0.147,0.825c6.159,34.579,36.138,59.676,71.284,59.676s65.126-25.097,71.284-59.676l0.146-0.825h56.575
		l-0.11,1.1c-2.629,26.113-13.032,50.481-30.085,70.47c-0.498,0.487-0.915,0.959-1.308,1.475
		c-19.096,21.681-45.203,36.405-73.559,41.513c-6.439,1.16-10.751,7.347-9.612,13.789l11.432,64.62L375.236,503.125L375.236,503.125
		z"/>
	<path style="fill:#333333;" d="M472.269,311.157c-6.116,34.341-36.194,60.5-72.269,60.5s-66.152-26.159-72.269-60.5H273.1
		c2.656,26.386,13.373,50.606,29.851,69.921c0.487,0.47,0.933,0.977,1.343,1.519c18.444,20.939,43.761,35.877,72.94,41.134
		c6.997,1.262,11.656,7.945,10.419,14.947l-11.224,63.446h47.143l-11.224-63.446c-1.238-7.002,3.42-13.686,10.419-14.947
		c29.18-5.257,54.496-20.196,72.94-41.134c0.41-0.54,0.855-1.049,1.343-1.519c16.478-19.315,27.194-43.536,29.851-69.921
		L472.269,311.157L472.269,311.157z"/>
	<path d="M574.857,311.157c7.128,0,12.903-5.777,12.903-12.903s-5.775-12.903-12.903-12.903h-34.408h-79.948
		c-7.128,0-12.903,5.777-12.903,12.903c0,13.168-5.377,25.103-14.049,33.729v-73.837h24.945c7.128,0,12.903-5.777,12.903-12.903
		s-5.775-12.903-12.903-12.903h-37.849c-7.128,0-12.903,5.777-12.903,12.903v99.969c-2.521,0.415-5.104,0.64-7.742,0.64
		s-5.222-0.225-7.742-0.64v-99.969c0-7.126-5.775-12.903-12.903-12.903h-37.849c-7.128,0-12.903,5.777-12.903,12.903
		s5.775,12.903,12.903,12.903h24.945v73.837c-8.672-8.626-14.049-20.561-14.049-33.729c0-7.126-5.775-12.903-12.903-12.903h-79.948
		h-34.408c-7.128,0-12.903,5.777-12.903,12.903s5.775,12.903,12.903,12.903h22.043c0.575,6.881,1.623,13.638,3.08,20.251h-25.123
		c-7.128,0-12.903,5.777-12.903,12.903s5.775,12.903,12.903,12.903h33.276c2.921,7.019,6.338,13.789,10.235,20.251h-43.511
		c-7.128,0-12.903,5.777-12.903,12.903s5.775,12.903,12.903,12.903h63.078c19.076,20.312,43.716,35.51,71.873,43.047l-9.872,55.804
		h-23.587c-7.128,0-12.903,5.777-12.903,12.903c0,7.126,5.775,12.903,12.903,12.903h34.409h26.054v26.826
		c0,7.126,5.775,12.903,12.903,12.903s12.903-5.777,12.903-12.903v-26.825h26.056h34.409c7.127,0,12.903-5.776,12.903-12.902
		s-5.776-12.903-12.903-12.903H449.78l-9.871-55.804c28.154-7.538,52.796-22.736,71.872-43.048h63.078
		c7.128,0,12.903-5.777,12.903-12.903s-5.775-12.903-12.903-12.903h-43.512c3.897-6.462,7.313-13.231,10.235-20.251h33.276
		c7.128,0,12.903-5.777,12.903-12.903s-5.775-12.903-12.903-12.903h-25.123c1.457-6.613,2.505-13.371,3.079-20.251h22.042v-0.001
		H574.857z M497.05,381.079c-0.487,0.47-0.933,0.977-1.343,1.519c-18.444,20.939-43.761,35.877-72.94,41.134
		c-6.997,1.262-11.656,7.945-10.419,14.947l11.224,63.446h-47.143l11.224-63.446c1.239-7.002-3.42-13.686-10.419-14.947
		c-29.18-5.257-54.496-20.196-72.94-41.134c-0.41-0.54-0.855-1.049-1.343-1.519c-16.478-19.315-27.194-43.536-29.851-69.921h54.632
		c6.116,34.341,36.194,60.5,72.269,60.5s66.152-26.159,72.269-60.5h54.63C524.244,337.543,513.527,361.764,497.05,381.079z"/>
</g>
<g>
</g>
<g>
</g>
<g>
</g>
<g>
</g>
<g>
</g>
<g>
</g>
<g>
</g>
<g>
</g>
<g>
</g>
<g>
</g>
<g>
</g>
<g>
</g>
<g>
</g>
<g>
</g>
<g>
</g>
</svg>
