<?xml version="1.0" encoding="iso-8859-1"?>
<!-- Generator: Adobe Illustrator 19.0.0, SVG Export Plug-In . SVG Version: 6.00 Build 0)  -->
<svg version="1.1" id="Layer_1" xmlns="http://www.w3.org/2000/svg" xmlns:xlink="http://www.w3.org/1999/xlink" x="0px" y="0px"
	 viewBox="0 0 799.999 799.999" style="enable-background:new 0 0 799.999 799.999;" xml:space="preserve">
<g>
	<path style="fill:#259245;" d="M339.232,399.999c0,45.12,24.444,84.617,60.768,106.013V293.986
		C363.677,315.381,339.232,354.879,339.232,399.999z"/>
	<path style="fill:#259245;" d="M24.807,646.16V153.838H401v50.176l-0.996,0.004c-47.245,0.202-92.803,17.44-128.283,48.54
		c-35.376,31.01-58.441,73.62-64.946,119.981c-0.442,3.148,0.369,6.28,2.283,8.819s4.702,4.18,7.851,4.622
		c0.063,0.008,0.41,0.035,0.41,0.035l0.961,0.1l-0.067,0.964c-0.306,4.382-0.46,8.729-0.46,12.92s0.155,8.538,0.46,12.92
		l0.067,0.964l-1.175,0.118c-0.064,0.004-0.129,0.008-0.194,0.018c-3.152,0.441-5.94,2.082-7.854,4.621
		c-1.914,2.538-2.725,5.671-2.283,8.819c6.504,46.36,29.569,88.971,64.946,119.98c35.479,31.1,81.037,48.338,128.283,48.54
		l0.996,0.004v50.177H24.807z"/>
	<path style="fill:#259245;" d="M271.063,548.191c-35.556-31.167-58.739-73.994-65.277-120.594
		c-0.991-7.057,3.928-13.581,10.985-14.569c0.15-0.021,0.296-0.024,0.446-0.04c-0.299-4.292-0.463-8.621-0.463-12.989
		s0.164-8.697,0.463-12.989c-0.15-0.016-0.296-0.019-0.446-0.04c-7.057-0.991-11.976-7.513-10.985-14.57
		c6.538-46.598,29.721-89.426,65.277-120.594c35.688-31.282,81.448-48.584,128.938-48.788v-48.181H25.807v490.322H400v-48.18
		C352.511,596.776,306.751,579.475,271.063,548.191z"/>
	<path style="fill:#FFFFFF;" d="M400,203.019c0.28,0,0.561-0.009,0.842-0.009c68.534,0,131.102,34.808,167.363,93.111
		c3.447,5.545,2.21,12.793-2.884,16.879c-5.094,4.087-12.437,3.725-17.101-0.847c-23.132-22.651-53.68-35.126-86.017-35.126
		c-22.686,0-43.94,6.201-62.202,16.957v212.025c18.262,10.757,39.517,16.957,62.202,16.957c32.339,0,62.885-12.475,86.015-35.126
		c4.666-4.567,12.007-4.935,17.103-0.847c5.094,4.086,6.331,11.334,2.884,16.879c-36.264,58.308-98.829,93.115-167.363,93.115
		c-0.281,0-0.562-0.009-0.842-0.009v48.181h374.193V154.838H400V203.019z M595.953,399.999c0,5.346-3.296,10.139-8.287,12.05
		l-34.811,13.333l-1.922,37.228c-0.275,5.338-3.816,9.954-8.9,11.605c-1.311,0.427-2.654,0.633-3.984,0.633
		c-3.828,0-7.54-1.706-10.035-4.791l-23.438-28.987l-36,9.676c-5.152,1.39-10.645-0.551-13.787-4.876s-3.293-10.141-0.379-14.62
		l20.323-31.248l-20.323-31.249c-2.914-4.48-2.763-10.295,0.379-14.62c3.143-4.323,8.626-6.262,13.787-4.875l36,9.675l23.438-28.987
		c3.36-4.157,8.943-5.808,14.02-4.158c5.084,1.651,8.625,6.268,8.9,11.606l1.922,37.227l34.811,13.333
		C592.657,389.86,595.953,394.654,595.953,399.999z"/>
	<path d="M787.097,129.031H12.903C5.777,129.031,0,134.809,0,141.935v516.129c0,7.126,5.777,12.903,12.903,12.903h774.193
		c7.128,0,12.903-5.777,12.903-12.903V141.935C800,134.809,794.225,129.031,787.097,129.031z M774.193,645.16H400H25.807V154.838
		H400h374.193V645.16z"/>
	<path style="fill:#ED1F34;" d="M400.842,572.182c-85.355,0-158.649-63.639-170.489-148.03c-0.818-5.834-5.884-10.233-11.783-10.233
		c-0.414,0-0.834,0.021-1.248,0.065l-1.029,0.106l-0.072-1.032c-0.309-4.428-0.465-8.821-0.465-13.059s0.157-8.631,0.465-13.059
		l0.072-1.035l1.031,0.109c0.422,0.045,0.849,0.067,1.27,0.067c5.886,0,10.941-4.401,11.759-10.236
		c11.84-84.391,85.134-148.03,170.489-148.03c31.898,0,62.973,8.706,89.865,25.176l-0.709,1.835
		c-9.103-1.728-18.454-2.604-27.796-2.604c-81.484,0-147.776,66.292-147.776,147.776s66.292,147.776,147.776,147.776
		c9.335,0,18.687-0.876,27.793-2.604l0.709,1.835C463.814,563.476,432.741,572.182,400.842,572.182z"/>
	<path style="fill:#ED1F34;" d="M231.343,424.013c11.771,83.9,84.64,147.169,169.499,147.169c32.231,0,62.945-8.861,89.34-25.028
		c-9.134,1.733-18.493,2.622-27.979,2.622c-82.035,0-148.776-66.741-148.776-148.776s66.741-148.776,148.776-148.776
		c9.486,0,18.848,0.888,27.982,2.622c-26.395-16.166-57.111-25.029-89.343-25.029c-84.859,0-157.728,63.269-169.499,147.169
		c-0.969,6.909-7.231,11.756-14.125,11.024c-0.299,4.292-0.463,8.621-0.463,12.989s0.164,8.697,0.463,12.989
		C224.103,412.272,230.374,417.105,231.343,424.013z"/>
	<path style="fill:#ED1F34;" d="M518.588,418.945c-2.271-2.81-5.645-4.421-9.256-4.421c-1.041,0-2.08,0.138-3.089,0.409
		l-14.093,3.787l7.956-12.231c2.563-3.944,2.563-9.04,0-12.981l-7.956-12.233l14.093,3.789c1.006,0.27,2.044,0.407,3.084,0.407
		c3.615,0,6.991-1.61,9.261-4.417l9.174-11.347l0.752,14.571c0.243,4.698,3.239,8.82,7.631,10.502l13.626,5.22l-13.626,5.219
		c-4.393,1.684-7.389,5.806-7.631,10.503l-0.752,14.571L518.588,418.945z"/>
	<path style="fill:#ED1F34;" d="M535.787,395.713c-4.766-1.825-8.008-6.288-8.272-11.384l-0.617-11.964l-7.532,9.316
		c-3.209,3.969-8.459,5.667-13.382,4.348l-11.571-3.111l6.532,10.044c2.782,4.277,2.782,9.792,0,14.072l-6.532,10.043l11.571-3.109
		c1.11-0.299,2.235-0.443,3.349-0.443c3.836,0,7.547,1.716,10.033,4.792l7.532,9.316l0.617-11.964
		c0.264-5.096,3.507-9.559,8.272-11.385l11.188-4.285L535.787,395.713z"/>
	<path d="M550.932,337.389c-0.275-5.338-3.816-9.955-8.899-11.606c-5.077-1.65-10.66,0.001-14.021,4.158l-23.438,28.987l-36-9.675
		c-5.161-1.385-10.644,0.552-13.787,4.875c-3.142,4.325-3.293,10.14-0.379,14.62l20.324,31.248l-20.324,31.248
		c-2.914,4.48-2.763,10.296,0.379,14.62c3.144,4.327,8.635,6.267,13.787,4.876l36-9.676l23.438,28.988
		c2.495,3.084,6.208,4.791,10.035,4.791c1.33,0,2.676-0.206,3.985-0.633c5.083-1.652,8.624-6.268,8.899-11.606l1.922-37.227
		l34.812-13.333c4.99-1.912,8.287-6.705,8.287-12.05s-3.297-10.139-8.287-12.05l-34.812-13.333L550.932,337.389z M527.515,415.669
		l-0.617,11.964l-7.532-9.316c-2.486-3.076-6.197-4.792-10.033-4.792c-1.113,0-2.24,0.145-3.349,0.443l-11.571,3.109l6.532-10.043
		c2.782-4.277,2.782-9.793,0-14.072l-6.532-10.044l11.571,3.111c4.923,1.319,10.173-0.38,13.382-4.348l7.532-9.316l0.617,11.964
		c0.264,5.096,3.507,9.559,8.272,11.384l11.188,4.286l-11.188,4.285C531.021,406.11,527.778,410.573,527.515,415.669z"/>
	<path d="M205.786,372.4c-0.991,7.057,3.928,13.581,10.985,14.57c0.15,0.021,0.296,0.024,0.446,0.04
		c6.894,0.731,13.156-4.117,14.125-11.024c11.772-83.9,84.641-147.169,169.5-147.169c32.231,0,62.948,8.863,89.343,25.029
		c-9.135-1.734-18.496-2.622-27.982-2.622c-82.035,0-148.776,66.741-148.776,148.776s66.741,148.776,148.776,148.776
		c9.486,0,18.846-0.888,27.979-2.622c-26.395,16.167-57.108,25.028-89.34,25.028c-84.859,0-157.728-63.269-169.499-147.169
		c-0.969-6.907-7.238-11.74-14.125-11.024c-0.15,0.016-0.296,0.019-0.446,0.04c-7.057,0.99-11.976,7.513-10.985,14.569
		c6.538,46.599,29.72,89.427,65.276,120.594c35.689,31.283,81.449,48.585,128.938,48.788c0.28,0,0.561,0.009,0.841,0.009
		c68.535,0,131.103-34.808,167.363-93.113c3.448-5.545,2.211-12.793-2.883-16.879c-5.097-4.088-12.438-3.723-17.104,0.847
		c-23.129,22.652-53.675,35.126-86.015,35.126c-22.686,0-43.939-6.201-62.202-16.957c-36.321-21.397-60.765-60.894-60.765-106.014
		s24.443-84.618,60.767-106.013c18.263-10.756,39.517-16.957,62.202-16.957c32.338,0,62.886,12.475,86.017,35.126
		c4.664,4.569,12.007,4.934,17.102,0.846c5.094-4.086,6.331-11.334,2.883-16.879c-36.265-58.306-98.83-93.113-167.364-93.113
		c-0.281,0-0.562,0.009-0.842,0.009c-47.489,0.203-93.249,17.505-128.938,48.788C235.506,282.974,212.325,325.802,205.786,372.4z"/>
</g>
<g>
</g>
<g>
</g>
<g>
</g>
<g>
</g>
<g>
</g>
<g>
</g>
<g>
</g>
<g>
</g>
<g>
</g>
<g>
</g>
<g>
</g>
<g>
</g>
<g>
</g>
<g>
</g>
<g>
</g>
</svg>
