<?xml version="1.0" encoding="iso-8859-1"?>
<!-- Generator: Adobe Illustrator 19.0.0, SVG Export Plug-In . SVG Version: 6.00 Build 0)  -->
<svg version="1.1" id="Layer_1" xmlns="http://www.w3.org/2000/svg" xmlns:xlink="http://www.w3.org/1999/xlink" x="0px" y="0px"
	 viewBox="0 0 800 800" style="enable-background:new 0 0 800 800;" xml:space="preserve">
<g>
	<path style="fill:#ED1F34;" d="M709.93,646.16L34.177,413.143c-5.605-1.932-9.371-7.214-9.371-13.144
		c0-5.928,3.766-11.21,9.371-13.143L709.93,153.838h65.264v6.909L81.359,399.999l693.834,239.253v6.908H709.93z"/>
	<path style="fill:#103B9B;" d="M24.807,399.999V153.838h685.291l0.326,1.945L34.83,388.747c-4.799,1.655-8.023,6.176-8.023,11.252
		L24.807,399.999L24.807,399.999z"/>
	<path style="fill:#103B9B;" d="M34.503,387.801l675.594-232.963H25.807v245.161C25.807,394.494,29.299,389.596,34.503,387.801z"/>
	<path style="fill:#103B9B;" d="M128.032,659.063v-1c0-6.563-5.34-11.903-11.903-11.903H24.807V399.999h2
		c0,5.076,3.224,9.599,8.023,11.253l675.594,232.963l-0.326,1.945H167.742c-6.563,0-11.903,5.34-11.903,11.903v1L128.032,659.063
		L128.032,659.063z"/>
	<path style="fill:#103B9B;" d="M167.742,645.16h542.355L34.503,412.197c-5.203-1.794-8.697-6.692-8.697-12.198V645.16h90.322
		c7.128,0,12.903,5.776,12.903,12.903h25.807C154.839,650.936,160.614,645.16,167.742,645.16z"/>
	<path style="fill:#FFFFFF;" d="M774.193,639.964V160.034L78.292,399.999L774.193,639.964z M653.757,488.602H525.032
		c-7.128,0-12.903-5.775-12.903-12.903s5.775-12.903,12.903-12.903h128.725c7.128,0,12.903,5.775,12.903,12.903
		S660.885,488.602,653.757,488.602z M481.721,387.096h12.951c-4.221-7.348-6.651-15.851-6.651-24.916
		c0-27.687,22.524-50.21,50.209-50.21h158.839c5.168,0,9.839,3.084,11.867,7.838c2.029,4.755,1.025,10.261-2.551,13.993
		l-51.064,53.297h41.748c7.128,0,12.903,5.775,12.903,12.903s-5.775,12.903-12.903,12.903h-59.076v24.402
		c0,7.128-5.775,12.903-12.903,12.903h-49.555c-23.09,0-42.585-15.826-48.422-37.306h-45.392c-7.128,0-12.903-5.775-12.903-12.903
		S474.593,387.096,481.721,387.096z"/>
	<path style="fill:#ED1F34;" d="M788.738,129.147c0.248,0.031,0.495,0.067,0.739,0.112
		C789.231,129.214,788.985,129.18,788.738,129.147z"/>
	<path style="fill:#ED1F34;" d="M790.053,129.386c0.208,0.048,0.414,0.1,0.619,0.158
		C790.467,129.486,790.261,129.434,790.053,129.386z"/>
	<path style="fill:#ED1F34;" d="M798.471,664.156c-0.005,0.009-0.009,0.02-0.012,0.028
		C798.462,664.177,798.466,664.166,798.471,664.156z"/>
	<path style="fill:#ED1F34;" d="M795.505,132.159c0.192,0.165,0.38,0.335,0.563,0.511
		C795.883,132.493,795.695,132.324,795.505,132.159z"/>
	<path style="fill:#ED1F34;" d="M794.557,131.418c0.189,0.136,0.377,0.273,0.559,0.418
		C794.932,131.691,794.746,131.552,794.557,131.418z"/>
	<path style="fill:#ED1F34;" d="M792.461,130.21c0.176,0.079,0.348,0.162,0.52,0.25C792.809,130.372,792.635,130.289,792.461,130.21
		z"/>
	<path style="fill:#ED1F34;" d="M793.543,130.769c0.181,0.105,0.359,0.212,0.537,0.325
		C793.902,130.981,793.726,130.873,793.543,130.769z"/>
	<path style="fill:#ED1F34;" d="M791.298,129.746c0.183,0.063,0.363,0.127,0.54,0.198
		C791.659,129.871,791.48,129.808,791.298,129.746z"/>
	<path style="fill:#ED1F34;" d="M792.933,669.562c-0.088,0.045-0.178,0.086-0.267,0.129
		C792.755,669.646,792.845,669.605,792.933,669.562z"/>
	<path style="fill:#ED1F34;" d="M796.113,667.285c-0.084,0.083-0.175,0.156-0.262,0.237
		C795.939,667.443,796.029,667.368,796.113,667.285z"/>
	<path style="fill:#ED1F34;" d="M797.491,665.688c-0.084,0.113-0.166,0.229-0.254,0.34
		C797.325,665.916,797.407,665.801,797.491,665.688z"/>
	<path style="fill:#ED1F34;" d="M789.283,670.768c-0.143,0.023-0.285,0.046-0.428,0.065
		C789,670.813,789.143,670.791,789.283,670.768z"/>
	<path style="fill:#ED1F34;" d="M787.395,129.047c0.285,0.007,0.571,0.018,0.852,0.043
		C787.964,129.064,787.68,129.054,787.395,129.047z"/>
	<path style="fill:#ED1F34;" d="M791.009,670.359c-0.003,0-0.007,0.002-0.01,0.004C791.004,670.36,791.006,670.359,791.009,670.359z
		"/>
	<path style="fill:#ED1F34;" d="M797.977,135.017c0.115,0.182,0.229,0.365,0.336,0.554
		C798.206,135.38,798.092,135.197,797.977,135.017z"/>
	<path style="fill:#ED1F34;" d="M799.568,138.674c0.039,0.153,0.084,0.307,0.118,0.461
		C799.652,138.982,799.607,138.828,799.568,138.674z"/>
	<path style="fill:#ED1F34;" d="M799.813,139.826c0.034,0.209,0.072,0.418,0.097,0.631
		C799.885,140.247,799.849,140.037,799.813,139.826z"/>
	<path style="fill:#ED1F34;" d="M799.909,659.542c-0.024,0.213-0.063,0.421-0.097,0.631
		C799.849,659.963,799.885,659.751,799.909,659.542z"/>
	<path style="fill:#ED1F34;" d="M799.295,662.271c0.014-0.042,0.022-0.085,0.036-0.128c-0.029,0.09-0.065,0.176-0.097,0.264
		C799.252,662.359,799.277,662.318,799.295,662.271z"/>
	<path style="fill:#ED1F34;" d="M787.058,670.967c0.014,0,0.027,0.004,0.039,0.004c0.041,0,0.081-0.009,0.122-0.009
		c-0.041,0-0.081,0.005-0.122,0.005H787.058L787.058,670.967z"/>
	<path style="fill:#ED1F34;" d="M799.993,658.214c-0.004,0.267-0.021,0.529-0.04,0.793
		C799.973,658.74,799.989,658.477,799.993,658.214z"/>
	<path style="fill:#ED1F34;" d="M799.952,140.992c0.019,0.263,0.036,0.526,0.039,0.793
		C799.989,141.522,799.973,141.257,799.952,140.992z"/>
	<path style="fill:#ED1F34;" d="M797.22,133.948c0.153,0.193,0.303,0.391,0.444,0.594
		C797.521,134.339,797.373,134.143,797.22,133.948z"/>
	<path style="fill:#ED1F34;" d="M799.687,660.863c-0.034,0.154-0.079,0.308-0.118,0.461
		C799.607,661.171,799.652,661.016,799.687,660.863z"/>
	<path style="fill:#ED1F34;" d="M794.658,668.505c-0.072,0.052-0.143,0.108-0.215,0.16
		C794.517,668.615,794.586,668.557,794.658,668.505z"/>
	<path style="fill:#ED1F34;" d="M796.391,132.999c0.181,0.188,0.356,0.38,0.526,0.578
		C796.747,133.377,796.571,133.187,796.391,132.999z"/>
	<path style="fill:#ED1F34;" d="M799.295,137.729c-0.033-0.093-0.074-0.179-0.108-0.269c0.05,0.131,0.1,0.262,0.145,0.396
		C799.317,137.813,799.309,137.77,799.295,137.729z"/>
	<path style="fill:#ED1F34;" d="M798.643,136.199c0.077,0.155,0.155,0.308,0.226,0.466
		C798.798,136.507,798.719,136.354,798.643,136.199z"/>
	<path style="fill:#ED1F34;" d="M34.503,412.197L710.097,645.16h64.096v-5.195L78.292,399.999l695.902-239.965v-5.196h-64.096
		L34.503,387.801c-5.203,1.794-8.697,6.692-8.697,12.198C25.807,405.505,29.299,410.403,34.503,412.197z"/>
	<path d="M800,141.935c0-0.05-0.007-0.1-0.007-0.149c-0.004-0.267-0.021-0.53-0.04-0.793c-0.014-0.179-0.021-0.358-0.043-0.535
		c-0.023-0.213-0.062-0.422-0.096-0.631c-0.038-0.232-0.076-0.463-0.126-0.69c-0.034-0.155-0.079-0.308-0.118-0.461
		c-0.072-0.277-0.148-0.551-0.238-0.821c-0.044-0.134-0.096-0.265-0.145-0.396c-0.1-0.268-0.201-0.535-0.317-0.793
		c-0.071-0.158-0.148-0.312-0.226-0.466c-0.107-0.213-0.214-0.425-0.33-0.629c-0.107-0.188-0.221-0.372-0.336-0.554
		c-0.102-0.16-0.205-0.318-0.313-0.473c-0.143-0.203-0.29-0.399-0.443-0.594c-0.1-0.125-0.2-0.251-0.303-0.373
		c-0.169-0.198-0.346-0.391-0.526-0.578c-0.107-0.11-0.214-0.22-0.324-0.327c-0.182-0.177-0.371-0.346-0.563-0.511
		c-0.127-0.11-0.256-0.218-0.389-0.323c-0.182-0.145-0.37-0.282-0.559-0.418c-0.157-0.112-0.315-0.22-0.477-0.324
		c-0.176-0.113-0.354-0.22-0.537-0.325c-0.186-0.108-0.373-0.211-0.564-0.31c-0.17-0.088-0.344-0.17-0.52-0.25
		c-0.205-0.095-0.411-0.184-0.623-0.269c-0.179-0.07-0.357-0.134-0.54-0.198c-0.206-0.072-0.414-0.139-0.626-0.201
		c-0.203-0.059-0.411-0.11-0.619-0.158c-0.191-0.045-0.382-0.089-0.576-0.125c-0.245-0.045-0.491-0.081-0.74-0.112
		c-0.163-0.021-0.325-0.043-0.49-0.059c-0.28-0.026-0.566-0.036-0.852-0.043c-0.1-0.002-0.198-0.016-0.298-0.016H12.903
		C5.775,129.03,0,134.805,0,141.933v516.129c0,7.127,5.775,12.902,12.903,12.902h103.226c7.128,0,12.903-5.775,12.903-12.902
		c0-7.128-5.775-12.903-12.903-12.903H25.807V399.998V154.836h684.291h64.096v5.196v479.933v5.195h-64.096H167.742
		c-7.128,0-12.903,5.775-12.903,12.903c0,7.128,5.775,12.903,12.903,12.903h619.315h0.039c0.041,0,0.081-0.005,0.122-0.005
		c0.556-0.005,1.1-0.055,1.637-0.127c0.143-0.02,0.287-0.042,0.428-0.065c0.585-0.101,1.16-0.229,1.716-0.404
		c0.003,0,0.007-0.002,0.01-0.004c0.573-0.183,1.122-0.413,1.657-0.669c0.089-0.043,0.179-0.085,0.267-0.129
		c0.524-0.267,1.03-0.563,1.511-0.896c0.073-0.052,0.143-0.108,0.215-0.16c0.418-0.305,0.815-0.632,1.194-0.982
		c0.086-0.079,0.177-0.155,0.261-0.237c0.403-0.395,0.774-0.815,1.124-1.258c0.088-0.111,0.17-0.227,0.255-0.341
		c0.353-0.479,0.681-0.976,0.967-1.502c0.003-0.009,0.008-0.017,0.012-0.027c0.299-0.558,0.549-1.146,0.764-1.75
		c0.031-0.087,0.067-0.175,0.097-0.263c0.089-0.269,0.165-0.544,0.237-0.82c0.039-0.153,0.084-0.307,0.119-0.462
		c0.05-0.227,0.087-0.459,0.125-0.689c0.034-0.21,0.072-0.418,0.097-0.632c0.021-0.177,0.03-0.355,0.043-0.535
		c0.019-0.263,0.036-0.526,0.039-0.793c0-0.05,0.007-0.1,0.007-0.149L800,141.935L800,141.935z"/>
	<path d="M481.721,412.902h45.392c5.837,21.478,25.332,37.306,48.422,37.306h49.555c7.128,0,12.903-5.775,12.903-12.903v-24.402
		h59.076c7.128,0,12.903-5.775,12.903-12.903c0-7.127-5.775-12.903-12.903-12.903H655.32l51.064-53.297
		c3.576-3.731,4.58-9.237,2.551-13.992c-2.029-4.754-6.7-7.838-11.867-7.838H538.229c-27.685,0-50.209,22.524-50.209,50.211
		c0,9.066,2.431,17.567,6.651,24.915H481.72c-7.128,0-12.903,5.775-12.903,12.903C468.817,407.125,474.593,412.902,481.721,412.902z
		 M538.229,386.582c-13.455,0-24.402-10.945-24.402-24.402c0-13.458,10.945-24.404,24.402-24.404h128.607l-47.253,49.319h-11.699
		c-7.128,0-12.903,5.775-12.903,12.903c0,7.128,5.775,12.904,12.903,12.904h4.301v11.499h-36.651
		c-13.228,0-24.403-11.41-24.403-24.916C551.133,392.359,545.355,386.582,538.229,386.582z"/>
	<path style="fill:#F2A643;" d="M551.133,399.485c0,13.507,11.174,24.916,24.402,24.916h36.652v-11.5h-4.301
		c-7.128,0-12.903-5.775-12.903-12.904c0-7.128,5.775-12.903,12.903-12.903h11.698l47.254-49.319H538.231
		c-13.456,0-24.402,10.947-24.402,24.404s10.945,24.402,24.402,24.402C545.355,386.582,551.133,392.359,551.133,399.485z"/>
	<path style="fill:#FFE000;" d="M653.757,462.795H525.032c-7.128,0-12.903,5.775-12.903,12.903s5.775,12.903,12.903,12.903h128.725
		c7.128,0,12.903-5.775,12.903-12.903S660.885,462.795,653.757,462.795z"/>
</g>
<g>
</g>
<g>
</g>
<g>
</g>
<g>
</g>
<g>
</g>
<g>
</g>
<g>
</g>
<g>
</g>
<g>
</g>
<g>
</g>
<g>
</g>
<g>
</g>
<g>
</g>
<g>
</g>
<g>
</g>
</svg>
