<?xml version="1.0" encoding="iso-8859-1"?>
<!-- Generator: Adobe Illustrator 19.0.0, SVG Export Plug-In . SVG Version: 6.00 Build 0)  -->
<svg version="1.1" id="Layer_1" xmlns="http://www.w3.org/2000/svg" xmlns:xlink="http://www.w3.org/1999/xlink" x="0px" y="0px"
	 viewBox="0 0 799.999 799.999" style="enable-background:new 0 0 799.999 799.999;" xml:space="preserve">
<g>
	<path style="fill:#FFE000;" d="M282.871,646.16V296.773c0-6.563-5.34-11.903-11.903-11.903h-1v-27.807h1
		c6.563,0,11.903-5.34,11.903-11.903v-91.322h234.258V646.16L282.871,646.16L282.871,646.16z M322.581,310.601
		c-6.563,0-11.903,5.34-11.903,11.903v109.839c0,49.937,32.991,57.961,57.08,63.82c9.822,2.389,19.099,4.644,25.331,9.086
		c2.027,1.448,4.416,2.213,6.91,2.213c2.491,0,4.881-0.766,6.911-2.213c6.23-4.441,15.508-6.697,25.329-9.086
		c24.091-5.859,57.084-13.884,57.084-63.82V322.504c0-6.563-5.34-11.903-11.903-11.903H322.581z"/>
	<path style="fill:#FFE000;" d="M516.129,645.16V154.838H283.871v90.322c0,7.126-5.777,12.903-12.903,12.903v25.807
		c7.126,0,12.903,5.777,12.903,12.903V645.16H516.129z M309.678,322.504c0-7.126,5.777-12.903,12.903-12.903h154.838
		c7.126,0,12.903,5.777,12.903,12.903v109.839c0,50.722-33.435,58.854-57.848,64.792c-9.727,2.365-18.914,4.601-24.985,8.929
		c-2.242,1.599-4.865,2.398-7.491,2.398c-2.625,0-5.249-0.798-7.49-2.398c-6.071-4.328-15.259-6.563-24.986-8.929
		c-24.411-5.938-57.844-14.07-57.844-64.792L309.678,322.504L309.678,322.504z"/>
	<rect x="540.936" y="153.838" style="fill:#ED1F34;" width="234.258" height="492.322"/>
	<rect x="541.936" y="154.838" style="fill:#ED1F34;" width="232.258" height="490.322"/>
	<path style="fill:#164FCE;" d="M24.807,646.16V153.838h234.258v91.322c0,6.563,5.34,11.903,11.903,11.903h1v27.807h-1
		c-6.563,0-11.903,5.34-11.903,11.903V646.16H24.807z"/>
	<path style="fill:#164FCE;" d="M258.064,245.16v-90.322H25.807V645.16h232.258V296.773c0-7.126,5.777-12.903,12.903-12.903v-25.807
		C263.842,258.063,258.064,252.286,258.064,245.16z"/>
	<path d="M787.097,129.031H12.903C5.777,129.031,0,134.809,0,141.935v516.129c0,7.126,5.777,12.903,12.903,12.903h774.193
		c7.126,0,12.903-5.777,12.903-12.903V141.935C800,134.809,794.223,129.031,787.097,129.031z M774.193,645.16H541.936V154.838
		h232.258L774.193,645.16L774.193,645.16z M270.968,283.87c-7.126,0-12.903,5.777-12.903,12.903V645.16H25.807V154.838h232.258
		v90.322c0,7.126,5.777,12.903,12.903,12.903s12.903-5.777,12.903-12.903v-90.322h232.258V645.16H283.871V296.773
		C283.871,289.647,278.094,283.87,270.968,283.87z"/>
	<rect x="334.484" y="334.407" style="fill:#FFE000;" width="66.516" height="75.624"/>
	<rect x="335.484" y="335.407" style="fill:#FFE000;" width="64.516" height="73.624"/>
	<path style="fill:#ED1F34;" d="M399.555,481.483c-8.229-4.089-17.35-6.307-26.169-8.452c-23.426-5.697-38.901-9.461-38.901-40.688
		v-24.312H401v74.17L399.555,481.483z"/>
	<path style="fill:#ED1F34;" d="M335.484,409.031v23.312c0,30.44,14.354,33.933,38.138,39.717c8.909,2.167,18.05,4.391,26.378,8.528
		v-71.557L335.484,409.031L335.484,409.031z"/>
	<path style="fill:#FFE000;" d="M399,408.031h66.516v24.312c0,31.228-15.476,34.991-38.901,40.688
		c-8.819,2.146-17.939,4.363-26.169,8.452L399,482.201V408.031z"/>
	<path style="fill:#FFE000;" d="M400,480.588c8.328-4.138,17.469-6.361,26.378-8.528c23.783-5.784,38.138-9.275,38.138-39.717
		v-23.312H400V480.588z"/>
	<rect x="399" y="334.407" style="fill:#ED1F34;" width="66.516" height="75.624"/>
	<rect x="400" y="335.407" style="fill:#ED1F34;" width="64.516" height="73.624"/>
	<path d="M367.523,497.135c9.728,2.365,18.914,4.601,24.985,8.929c2.242,1.599,4.866,2.398,7.491,2.398s5.249-0.798,7.491-2.398
		c6.071-4.328,15.258-6.563,24.985-8.929c24.413-5.938,57.848-14.07,57.848-64.792V322.504c0-7.126-5.777-12.903-12.903-12.903
		H322.58c-7.126,0-12.903,5.777-12.903,12.903v109.839C309.678,483.064,343.11,491.197,367.523,497.135z M464.516,409.031v23.312
		c0,30.44-14.354,33.933-38.138,39.717c-8.909,2.167-18.05,4.391-26.378,8.528c-8.328-4.138-17.469-6.361-26.378-8.528
		c-23.783-5.784-38.138-9.275-38.138-39.717v-23.312v-73.624H400h64.516V409.031z"/>
</g>
<g>
</g>
<g>
</g>
<g>
</g>
<g>
</g>
<g>
</g>
<g>
</g>
<g>
</g>
<g>
</g>
<g>
</g>
<g>
</g>
<g>
</g>
<g>
</g>
<g>
</g>
<g>
</g>
<g>
</g>
</svg>
