<?xml version="1.0" encoding="iso-8859-1"?>
<!-- Generator: Adobe Illustrator 19.0.0, SVG Export Plug-In . SVG Version: 6.00 Build 0)  -->
<svg version="1.1" id="Layer_1" xmlns="http://www.w3.org/2000/svg" xmlns:xlink="http://www.w3.org/1999/xlink" x="0px" y="0px"
	 viewBox="0 0 799.999 799.999" style="enable-background:new 0 0 799.999 799.999;" xml:space="preserve">
<g>
	<path style="fill:#ED1F34;" d="M365.854,379.631c-0.289,2.493-0.226,5.005,0.167,7.465h10.495L365.854,379.631z"/>
	<path style="fill:#ED1F34;" d="M76.419,400.999v-1c0-6.563-5.34-11.903-11.903-11.903H24.807V153.838h750.387v234.256H556.531
		l0.119-1.107c1.438-13.396,0.98-26.925-1.361-40.213c-6.617-37.526-27.452-70.229-58.665-92.083
		c-15.99-11.195-33.743-18.875-52.767-22.827c-0.799-0.166-1.614-0.25-2.423-0.25c-5.61,0-10.51,3.989-11.651,9.485
		c-1.335,6.424,2.808,12.738,9.235,14.074c15.835,3.288,30.622,9.686,43.949,19.017c26.005,18.209,43.362,45.455,48.874,76.718
		c2.122,12.032,2.392,24.251,0.8,36.318l-0.114,0.869H421.191l-54.345-38.052c-2.011-1.409-4.368-2.153-6.814-2.153
		c-3.887,0-7.536,1.898-9.762,5.077c-6.931,9.897-10.205,21.989-9.218,34.047l0.089,1.082H116.129
		c-6.563,0-11.903,5.34-11.903,11.903v1L76.419,400.999L76.419,400.999z M400.756,269.104c-10.626,0-20.604,5.19-26.69,13.884
		c-4.987,7.122-6.902,15.759-5.393,24.321s6.263,16.023,13.385,21.01c5.502,3.853,11.948,5.889,18.639,5.889
		c10.627,0,20.605-5.19,26.691-13.883c10.294-14.702,6.708-35.037-7.993-45.331C413.894,271.141,407.448,269.104,400.756,269.104z"
		/>
	<path style="fill:#ED1F34;" d="M116.129,387.096h223.926c-0.974-11.896,2.03-24.186,9.396-34.703
		c4.088-5.837,12.135-7.255,17.97-3.169l54.087,37.872H531.65c1.559-11.819,1.337-23.935-0.793-36.014
		c-5.466-31-22.677-58.017-48.463-76.072c-13.215-9.252-27.878-15.598-43.58-18.857c-6.978-1.451-11.46-8.281-10.011-15.257
		c1.45-6.981,8.299-11.455,15.257-10.011c19.156,3.979,37.033,11.712,53.137,22.987c31.435,22.009,52.413,54.942,59.076,92.729
		c2.392,13.565,2.803,27.167,1.371,40.494h216.549V154.838H25.807v232.258h38.709c7.128,0,12.903,5.775,12.903,12.903h25.806
		C103.226,392.871,109.001,387.096,116.129,387.096z M373.246,282.415c10.627-15.178,31.545-18.868,46.723-8.239
		c15.178,10.627,18.866,31.546,8.239,46.724s-31.546,18.866-46.724,8.239C366.307,318.511,362.618,297.592,373.246,282.415z"/>
	<path style="fill:#333333;" d="M388.373,412.902l86.118,60.299c4.415-2.589,8.664-5.451,12.705-8.605l-73.825-51.693h-24.998
		V412.902z"/>
	<path style="fill:#333333;" d="M505.938,446.215c1.868-2.288,3.685-4.628,5.396-7.072c5.773-8.246,10.396-17.061,13.854-26.24
		h-66.826L505.938,446.215z"/>
	<path style="fill:#333333;" d="M24.807,646.162V411.903h39.709c6.563,0,11.903-5.34,11.903-11.902v-1h27.806v1
		c0,6.563,5.34,11.902,11.903,11.902h233.617l0.298,0.434c3.519,5.124,7.896,9.537,13.008,13.117l85.713,60.018l-2.044,0.566
		c-3.724,1.032-7.52,1.892-11.282,2.555c-6.911,1.219-13.938,1.837-20.888,1.837c-24.323,0-47.809-7.443-67.92-21.525
		c-13.326-9.33-24.396-21.037-32.903-34.796c-2.185-3.536-5.975-5.646-10.137-5.646c-2.203,0-4.363,0.616-6.246,1.781
		c-2.706,1.671-4.597,4.296-5.327,7.391s-0.21,6.288,1.462,8.992c10.213,16.521,23.502,30.576,39.496,41.777
		c24.14,16.902,52.329,25.837,81.518,25.837c8.336,0,16.773-0.742,25.077-2.205c11.118-1.961,22.013-5.242,32.38-9.75l0.514-0.224
		l44.621,31.246c2.014,1.41,4.372,2.155,6.818,2.155c3.886,0,7.534-1.898,9.759-5.078c1.824-2.604,2.524-5.763,1.973-8.894
		s-2.291-5.86-4.896-7.684l-35.144-24.606l1.166-0.819c4.06-2.852,7.999-5.94,11.709-9.181l0.59-0.516l72.997,51.111l-4.356,6.224
		c-1.824,2.604-2.524,5.762-1.973,8.894c0.552,3.131,2.291,5.86,4.896,7.684c2.014,1.409,4.37,2.153,6.815,2.153
		c3.887,0,7.536-1.897,9.762-5.076l4.357-6.222l32.527,22.775c2.014,1.409,4.37,2.153,6.816,2.153
		c3.887-0.001,7.536-1.898,9.762-5.076c1.824-2.604,2.524-5.763,1.972-8.894c-0.552-3.132-2.29-5.861-4.896-7.685l-42.307-29.622
		l-0.033-0.029l-79.718-55.814l0.661-0.832c2.054-2.582,3.79-4.892,5.309-7.06c8.74-12.481,15.399-26.193,19.792-40.757l0.214-0.711
		h223.534v234.26L24.807,646.162L24.807,646.162z"/>
	<path style="fill:#333333;" d="M552.402,412.902c-4.362,14.464-11.012,28.307-19.93,41.041c-1.71,2.441-3.506,4.796-5.345,7.108
		l78.889,55.239c0.007,0.004,0.014,0.008,0.021,0.013s0.012,0.01,0.019,0.016l42.259,29.589c5.84,4.088,7.257,12.135,3.17,17.971
		c-2.511,3.585-6.514,5.502-10.581,5.503c-2.555,0-5.136-0.757-7.39-2.334l-31.709-22.202l-3.783,5.402
		c-2.51,3.585-6.514,5.503-10.581,5.503c-2.555,0-5.135-0.757-7.389-2.334c-5.839-4.088-7.257-12.135-3.169-17.97l3.783-5.404
		l-71.536-50.089c-3.772,3.295-7.709,6.378-11.792,9.246l33.976,23.788c5.839,4.088,7.257,12.134,3.169,17.97
		c-4.086,5.839-12.129,7.259-17.97,3.169l-44.163-30.925c-10.323,4.489-21.237,7.813-32.604,9.817
		c-8.423,1.484-16.87,2.221-25.251,2.221c-29.207,0-57.669-8.917-82.092-26.018c-16.102-11.276-29.484-25.429-39.773-42.07
		c-3.749-6.061-1.874-14.015,4.189-17.76c6.059-3.749,14.014-1.872,17.76,4.189c8.435,13.643,19.411,25.251,32.626,34.503
		c25.786,18.056,57.058,24.989,88.061,19.523c3.793-0.669,7.524-1.519,11.189-2.534l-83.977-58.801
		c-5.338-3.738-9.77-8.29-13.259-13.37h-233.09c-7.127,0-12.903-5.775-12.903-12.902H77.419c0,7.127-5.775,12.902-12.903,12.902
		H25.807v232.259h748.387v-232.26H552.402V412.902z"/>
	<path d="M787.097,129.031H12.903C5.775,129.031,0,134.807,0,141.935v516.129c0,7.128,5.775,12.903,12.903,12.903h774.193
		c7.128,0,12.903-5.775,12.903-12.903V141.935C800,134.807,794.225,129.031,787.097,129.031z M25.807,645.16V412.902h38.709
		c7.128,0,12.903-5.775,12.903-12.903s-5.775-12.903-12.903-12.903H25.807V154.838h748.387v232.258H557.643
		c-0.94,8.757-2.7,17.386-5.24,25.807h221.791v232.258L25.807,645.16L25.807,645.16z"/>
	<path d="M340.055,387.096H116.129c-7.127,0-12.903,5.775-12.903,12.903s5.776,12.903,12.903,12.903h233.088
		C343.919,405.191,340.805,396.261,340.055,387.096z"/>
	<path d="M376.517,387.096h-10.495c1.12,7.04,4.972,13.636,11.257,18.037l11.095,7.77h24.998L376.517,387.096z"/>
	<path d="M458.362,412.902h66.826c3.142-8.343,5.298-16.991,6.461-25.807H421.506L458.362,412.902z"/>
	<path style="fill:#FFE000;" d="M556.271,346.602c-6.663-37.789-27.642-70.72-59.076-92.729
		c-16.102-11.276-33.979-19.009-53.137-22.987c-6.957-1.443-13.807,3.032-15.257,10.011c-1.448,6.978,3.035,13.807,10.011,15.257
		c15.703,3.26,30.366,9.605,43.581,18.858c25.785,18.056,42.997,45.072,48.462,76.072c2.131,12.079,2.353,24.194,0.794,36.014
		c-1.163,8.815-3.319,17.464-6.461,25.806c-3.458,9.181-8.08,17.995-13.854,26.24c-1.712,2.445-3.528,4.785-5.396,7.073
		l-47.575-33.314l-36.855-25.807l-54.085-37.872c-5.837-4.086-13.882-2.668-17.97,3.169c-7.365,10.517-10.369,22.806-9.396,34.703
		c0.75,9.165,3.864,18.096,9.161,25.807c3.489,5.079,7.921,9.633,13.26,13.369l83.976,58.801c-3.664,1.016-7.396,1.865-11.189,2.534
		c-31.002,5.468-62.272-1.467-88.061-19.523c-13.214-9.252-24.19-20.86-32.626-34.503c-3.747-6.06-11.7-7.937-17.76-4.189
		c-6.061,3.747-7.937,11.699-4.189,17.76c10.288,16.643,23.672,30.795,39.772,42.07c24.424,17.101,52.885,26.018,82.093,26.018
		c8.38,0,16.825-0.736,25.251-2.221c11.366-2.004,22.281-5.328,32.604-9.816l44.163,30.925c5.843,4.089,13.884,2.67,17.97-3.17
		c4.088-5.837,2.671-13.882-3.169-17.97l-33.975-23.788c4.082-2.868,8.019-5.951,11.792-9.246l71.535,50.089l-3.783,5.404
		c-4.088,5.837-2.67,13.882,3.169,17.97c2.254,1.577,4.835,2.335,7.39,2.335c4.067,0,8.07-1.919,10.58-5.504l3.783-5.402
		l31.71,22.202c2.253,1.577,4.834,2.335,7.389,2.335c4.067-0.002,8.071-1.919,10.581-5.504c4.088-5.838,2.67-13.882-3.169-17.97
		l-42.259-29.59c-0.007-0.005-0.013-0.011-0.02-0.016s-0.014-0.009-0.021-0.012l-78.889-55.24c1.838-2.312,3.636-4.667,5.346-7.108
		c8.917-12.734,15.566-26.577,19.93-41.041c2.539-8.421,4.299-17.049,5.24-25.806C559.074,373.77,558.663,360.167,556.271,346.602z
		 M474.491,473.201l-86.118-60.299l-11.095-7.77c-6.285-4.403-10.135-10.999-11.257-18.037c-0.393-2.46-0.456-4.972-0.167-7.465
		l10.662,7.465l36.854,25.807l73.825,51.693C483.155,467.75,478.906,470.612,474.491,473.201z"/>
	<circle style="fill:#FFE000;" cx="400.728" cy="301.658" r="33.548"/>
</g>
<g>
</g>
<g>
</g>
<g>
</g>
<g>
</g>
<g>
</g>
<g>
</g>
<g>
</g>
<g>
</g>
<g>
</g>
<g>
</g>
<g>
</g>
<g>
</g>
<g>
</g>
<g>
</g>
<g>
</g>
</svg>
