<?xml version="1.0" encoding="iso-8859-1"?>
<!-- Generator: Adobe Illustrator 19.0.0, SVG Export Plug-In . SVG Version: 6.00 Build 0)  -->
<svg version="1.1" id="Layer_1" xmlns="http://www.w3.org/2000/svg" xmlns:xlink="http://www.w3.org/1999/xlink" x="0px" y="0px"
	 viewBox="0 0 800 800" style="enable-background:new 0 0 800 800;" xml:space="preserve">
<g>
	<polygon style="fill:#103B9B;" points="24.807,237.129 24.807,190.539 94.69,237.129 	"/>
	<polygon style="fill:#103B9B;" points="25.807,192.408 25.807,236.129 91.388,236.129 	"/>
	<polygon style="fill:#103B9B;" points="24.807,304.807 94.69,304.807 24.807,351.396 	"/>
	<polygon style="fill:#103B9B;" points="25.807,305.807 25.807,349.528 91.388,305.807 	"/>
	<polygon style="fill:#103B9B;" points="240.291,153.839 321.142,153.839 240.291,207.741 	"/>
	<polygon style="fill:#103B9B;" points="317.839,154.839 241.291,154.839 241.291,205.872 	"/>
	<polygon style="fill:#103B9B;" points="91.761,153.839 172.613,153.839 172.613,207.741 	"/>
	<polygon style="fill:#103B9B;" points="171.613,154.839 95.064,154.839 171.613,205.872 	"/>
	<path style="fill:#103B9B;" d="M76.419,659.064v-1c0-6.563-5.34-11.903-11.903-11.903H24.807V399h50.6l97.206-64.805V399h67.678
		v-64.805L337.497,399H399v-40.335l-80.787-53.858H399v-67.678h-80.787L399,183.271v-29.432h376.193v492.322H116.129
		c-6.563,0-11.903,5.34-11.903,11.903v1H76.419z M512.133,276.261c-0.279,0-0.561,0.01-0.843,0.029
		c-4.353,0.31-8.181,2.971-9.989,6.947c-10.182,22.39-15.563,48.192-15.56,74.617c0,45.482,17.698,88.367,51.18,124.018
		c25.114,26.739,50.055,39.941,51.104,40.49c1.697,0.89,3.607,1.36,5.524,1.36c1.916,0,3.826-0.471,5.525-1.36
		c1.051-0.55,26.01-13.773,51.104-40.49c33.481-35.649,51.18-78.534,51.18-124.018c0-26.304-5.335-52.089-15.427-74.566
		c-1.795-3.996-5.622-6.676-9.989-6.996c-0.298-0.022-0.593-0.033-0.887-0.033c-4.074,0-7.818,2.056-10.017,5.5
		c-7.438,11.655-18.63,18.34-30.706,18.34c-12.055,0-23.244-6.687-30.699-18.347c-2.197-3.437-5.945-5.49-10.023-5.492
		c-4.082,0-7.829,2.051-10.029,5.485c-7.467,11.664-18.662,18.353-30.716,18.353c-12.056,0-23.245-6.687-30.699-18.347
		C519.969,278.314,516.219,276.261,512.133,276.261z"/>
	<path style="fill:#103B9B;" d="M116.129,645.161h658.064V154.839H400v28.967l-78.484,52.323H400v16.129v37.419v16.129h-78.484
		L400,358.13v14.551V400h-62.806l-95.904-63.937V400h-16.129h-37.419h-16.129v-63.937L75.709,400H54.773H25.807v245.161h38.709
		c7.128,0,12.903,5.777,12.903,12.903h25.806C103.226,650.938,109.001,645.161,116.129,645.161z M500.391,282.823
		c1.958-4.305,6.112-7.195,10.83-7.53c4.747-0.331,9.242,1.937,11.788,5.922c7.266,11.365,18.147,17.885,29.856,17.885
		c11.706,0,22.595-6.522,29.874-17.892c2.372-3.704,6.469-5.946,10.866-5.946c0.002,0,0.003,0,0.005,0
		c4.401,0.002,8.495,2.245,10.866,5.953c7.268,11.367,18.148,17.885,29.856,17.885c11.727,0,22.613-6.517,29.863-17.878
		c2.55-3.995,7.054-6.278,11.819-5.927c4.728,0.346,8.886,3.258,10.828,7.583c10.149,22.604,15.515,48.532,15.515,74.976
		c0,45.743-17.792,88.864-51.451,124.702c-25.177,26.806-50.311,40.138-51.368,40.691c-1.875,0.982-3.933,1.475-5.989,1.475
		s-4.115-0.492-5.988-1.475c-1.059-0.554-26.193-13.886-51.369-40.691c-33.658-35.838-51.451-78.961-51.451-124.702
		C484.738,331.291,490.148,305.345,500.391,282.823z"/>
	<polygon style="fill:#ED1F34;" points="241.291,236.129 258.709,236.129 380.646,154.839 338.776,154.839 241.291,219.836 	"/>
	<polygon style="fill:#ED1F34;" points="154.193,236.129 32.258,154.839 25.807,154.839 25.807,178.493 112.055,236.129 	"/>
	<polygon style="fill:#ED1F34;" points="171.613,322.107 171.613,305.807 154.193,305.807 25.807,391.398 25.807,400 54.773,400 	
		"/>
	<polygon style="fill:#ED1F34;" points="258.709,305.807 400,400 400,372.681 299.924,305.807 	"/>
	<polygon style="fill:#FFFFFF;" points="225.161,289.677 225.161,400 241.291,400 241.291,336.063 337.194,400 400,400 
		258.709,305.807 299.924,305.807 400,372.681 400,358.13 321.516,305.807 400,305.807 400,289.677 	"/>
	<polygon style="fill:#FFFFFF;" points="225.161,252.258 400,252.258 400,236.129 321.516,236.129 400,183.806 400,154.839 
		380.646,154.839 258.709,236.129 241.291,236.129 241.291,219.836 338.776,154.839 317.839,154.839 241.291,205.872 
		241.291,154.839 225.161,154.839 	"/>
	<polygon style="fill:#FFFFFF;" points="187.742,252.258 187.742,154.839 171.613,154.839 171.613,205.872 95.064,154.839 
		32.258,154.839 154.193,236.129 112.055,236.129 25.807,178.493 25.807,192.408 91.388,236.129 25.807,236.129 25.807,252.258 	"/>
	<polygon style="fill:#FFFFFF;" points="171.613,305.807 171.613,322.107 54.773,400 75.709,400 171.613,336.063 171.613,400 
		187.742,400 187.742,289.677 25.807,289.677 25.807,305.807 91.388,305.807 25.807,349.528 25.807,391.398 154.193,305.807 	"/>
	<polygon style="fill:#ED1F34;" points="187.742,289.677 187.742,400 225.161,400 225.161,289.677 400,289.677 400,252.258 
		225.161,252.258 225.161,154.839 187.742,154.839 187.742,252.258 25.807,252.258 25.807,289.677 	"/>
	<path d="M787.097,129.032H12.903C5.775,129.032,0,134.81,0,141.936v516.129c0,7.126,5.775,12.903,12.903,12.903h51.613
		c7.128,0,12.903-5.777,12.903-12.903s-5.775-12.903-12.903-12.903H25.807V400v-8.602v-41.87v-43.721v-16.129v-37.419V236.13
		v-43.721v-13.917V154.84h6.451h62.806h76.549h16.129h37.419h16.129h76.548h20.938h41.869H400h374.193v490.322H116.129
		c-7.127,0-12.903,5.777-12.903,12.903s5.776,12.903,12.903,12.903h670.968c7.128,0,12.903-5.777,12.903-12.903V141.936
		C800,134.81,794.225,129.032,787.097,129.032z"/>
	<path style="fill:#FFFFFF;" d="M634.333,324.907c-15.004,0-29.418-6.035-40.734-16.659c-11.324,10.624-25.736,16.659-40.736,16.659
		c-12.962,0-25.481-4.502-35.945-12.576c-4.194,14.345-6.374,29.78-6.374,45.524c0,24.74,6.011,46.233,14.897,64.513H661.57
		c8.934-18.3,14.981-39.802,14.981-64.513c0-15.68-2.163-31.097-6.324-45.473C659.778,320.423,647.279,324.907,634.333,324.907z
		 M593.549,411.056c-21.344,0-38.71-17.364-38.71-38.71c0-21.345,17.366-38.709,38.71-38.709s38.709,17.364,38.709,38.709
		C632.258,393.691,614.893,411.056,593.549,411.056z"/>
	<path style="fill:#FFFFFF;" d="M593.549,359.442c-7.116,0-12.903,5.788-12.903,12.903s5.787,12.903,12.903,12.903
		c7.115,0,12.902-5.788,12.902-12.903S600.664,359.442,593.549,359.442z"/>
	<path style="fill:#3DB4EA;" d="M593.526,496.819c13.794-8.771,48.113-33.63,68.043-74.452H525.44
		C545.34,463.304,579.697,488.081,593.526,496.819z"/>
	<path d="M587.56,523.248c1.875,0.982,3.933,1.475,5.989,1.475s4.115-0.492,5.988-1.475c1.059-0.554,26.193-13.886,51.369-40.691
		c33.658-35.838,51.451-78.961,51.451-124.702c0-26.445-5.365-52.37-15.516-74.976c-1.942-4.327-6.101-7.238-10.828-7.584
		c-4.768-0.353-9.27,1.932-11.819,5.927c-7.252,11.361-18.137,17.878-29.863,17.878c-11.709,0-22.591-6.519-29.856-17.885
		c-2.37-3.708-6.467-5.951-10.866-5.953c-0.002,0-0.003,0-0.005,0c-4.399,0-8.495,2.242-10.866,5.946
		c-7.279,11.372-18.17,17.893-29.874,17.893c-11.709,0-22.591-6.519-29.856-17.885c-2.544-3.985-7.041-6.252-11.788-5.922
		c-4.717,0.335-8.872,3.226-10.83,7.53c-10.24,22.522-15.652,48.468-15.652,75.031c0,45.743,17.793,88.863,51.451,124.702
		C561.366,509.362,586.5,522.694,587.56,523.248z M661.57,422.367c-19.929,40.822-54.248,65.681-68.043,74.452
		c-13.828-8.738-48.186-33.516-68.086-74.452c-8.886-18.279-14.896-39.773-14.896-64.513c0-15.745,2.18-31.179,6.374-45.524
		c10.464,8.074,22.981,12.576,35.944,12.576c15.001,0,29.413-6.034,40.736-16.659c11.317,10.624,25.731,16.659,40.735,16.659
		c12.946,0,25.444-4.482,35.895-12.523c4.162,14.374,6.324,29.791,6.324,45.473C676.553,382.565,670.503,404.066,661.57,422.367z"/>
	<path style="fill:#FFE000;" d="M593.549,333.636c-21.344,0-38.71,17.364-38.71,38.709c0,21.346,17.366,38.71,38.71,38.71
		s38.709-17.364,38.709-38.71C632.258,351,614.893,333.636,593.549,333.636z M593.549,385.249c-7.116,0-12.903-5.788-12.903-12.903
		s5.787-12.903,12.903-12.903c7.115,0,12.902,5.788,12.902,12.903S600.664,385.249,593.549,385.249z"/>
</g>
<g>
</g>
<g>
</g>
<g>
</g>
<g>
</g>
<g>
</g>
<g>
</g>
<g>
</g>
<g>
</g>
<g>
</g>
<g>
</g>
<g>
</g>
<g>
</g>
<g>
</g>
<g>
</g>
<g>
</g>
</svg>
