<?xml version="1.0" encoding="iso-8859-1"?>
<!-- Generator: Adobe Illustrator 19.0.0, SVG Export Plug-In . SVG Version: 6.00 Build 0)  -->
<svg version="1.1" id="Layer_1" xmlns="http://www.w3.org/2000/svg" xmlns:xlink="http://www.w3.org/1999/xlink" x="0px" y="0px"
	 viewBox="0 0 799.999 799.999" style="enable-background:new 0 0 799.999 799.999;" xml:space="preserve">
<g>
	<path style="fill:#333333;" d="M561.925,336.484l-38.19-12.71l31.878-27.621c3.882-3.36,5.168-8.806,3.202-13.55
		c-1.85-4.466-6.142-7.352-10.937-7.352c-0.3,0-0.602,0.011-0.903,0.035l-42.078,3.009l18.882-37.715
		c2.298-4.59,1.403-10.115-2.227-13.746c-2.248-2.246-5.24-3.483-8.423-3.483c-1.837,0-3.678,0.435-5.323,1.257l-37.715,18.881
		l3.01-42.071c0.366-5.122-2.574-9.883-7.317-11.846c-1.452-0.603-2.984-0.909-4.553-0.909c-3.457,0-6.737,1.499-8.998,4.111
		l-27.62,31.877l-13.32-40.02c-1.62-4.872-6.159-8.146-11.294-8.146c-5.133,0-9.671,3.273-11.293,8.146l-13.32,40.02l-27.621-31.877
		c-2.263-2.612-5.542-4.11-8.998-4.11c-1.568,0-3.1,0.305-4.553,0.908c-4.742,1.963-7.682,6.724-7.316,11.846l3.009,42.071
		l-37.715-18.881c-1.645-0.823-3.486-1.258-5.323-1.258c-3.183,0-6.174,1.238-8.423,3.485c-3.629,3.63-4.524,9.154-2.227,13.746
		l18.882,37.714l-42.072-3.009c-0.311-0.024-0.614-0.036-0.916-0.036c-4.791,0-9.081,2.886-10.931,7.352
		c-1.965,4.745-0.678,10.19,3.203,13.551l31.877,27.621l-38.19,12.71h-64.378L36.709,153.839H763.29L626.303,336.484H561.925z"/>
	<path style="fill:#333333;" d="M38.709,154.839l135.484,180.645h63.716l36.37-12.105l-30.55-26.471
		c-4.2-3.637-5.598-9.557-3.472-14.689c2.125-5.132,7.314-8.363,12.842-7.931l40.32,2.884l-18.096-36.145
		c-2.486-4.969-1.514-10.972,2.414-14.901c3.929-3.926,9.934-4.898,14.9-2.414l36.145,18.095l-2.884-40.32
		c-0.396-5.543,2.799-10.717,7.931-12.841c5.133-2.128,11.051-0.729,14.689,3.472l26.471,30.55l12.766-38.354
		c1.755-5.271,6.688-8.83,12.242-8.83c5.556,0,10.489,3.557,12.243,8.83l12.766,38.354l26.47-30.55
		c3.636-4.201,9.559-5.602,14.689-3.472c5.132,2.125,8.328,7.298,7.932,12.841l-2.884,40.32l36.145-18.095
		c4.967-2.483,10.971-1.513,14.9,2.414c3.928,3.929,4.901,9.932,2.414,14.901l-18.096,36.145l40.32-2.884
		c5.541-0.427,10.716,2.799,12.841,7.931c2.127,5.132,0.729,11.052-3.472,14.689l-30.55,26.471l36.37,12.105h63.716L761.29,154.839
		H38.709z"/>
	<polygon style="fill:#3DB4EA;" points="299.5,504.226 191.548,360.29 240.143,360.29 240.247,361.29 240.247,360.29 
		560.023,360.29 560.053,360.294 608.451,360.29 500.5,504.226 	"/>
	<path style="fill:#3DB4EA;" d="M606.451,361.29h-46.406c-0.014,0-0.029,0.003-0.043,0.003s-0.027-0.003-0.041-0.003H240.299
		c-0.053,0.001-0.105,0-0.157,0h-46.594L300,503.226h200L606.451,361.29z"/>
	<path style="fill:#FFFFFF;" d="M451.613,567.742L500,503.226H300L400,636.56l20.646-27.527c4.274-5.701,12.361-6.855,18.064-2.581
		l15.483-20.645C448.494,581.531,447.338,573.44,451.613,567.742z"/>
	<path style="fill:#ED1F34;" d="M423.807,646.161l16.684-22.244c3.938-5.251,2.87-12.728-2.381-16.666l-0.8-0.6l16.684-22.245
		l0.8,0.601c2.076,1.557,4.542,2.38,7.132,2.38c3.789,0,7.264-1.735,9.533-4.761l303.735-404.981v468.516H423.807z"/>
	<path style="fill:#ED1F34;" d="M774.193,180.645L472.258,583.226c-2.535,3.381-6.41,5.161-10.333,5.161
		c-2.694,0-5.41-0.839-7.731-2.58l-15.483,20.645c5.699,4.275,6.855,12.365,2.58,18.065l-15.483,20.645h348.387V180.645H774.193z"/>
	<polygon style="fill:#ED1F34;" points="24.807,646.161 24.807,177.645 376.193,646.161 	"/>
	<polygon style="fill:#ED1F34;" points="25.807,180.645 25.807,645.161 374.193,645.161 	"/>
	<path d="M799.986,141.663c-0.005-0.234-0.018-0.464-0.034-0.695c-0.016-0.207-0.034-0.413-0.059-0.618
		c-0.024-0.198-0.057-0.394-0.09-0.592c-0.039-0.229-0.079-0.456-0.131-0.68c-0.039-0.175-0.086-0.346-0.134-0.518
		c-0.063-0.234-0.127-0.466-0.203-0.693c-0.057-0.17-0.12-0.335-0.184-0.502c-0.083-0.219-0.166-0.437-0.26-0.65
		c-0.08-0.179-0.169-0.354-0.257-0.532c-0.095-0.189-0.189-0.382-0.292-0.564c-0.107-0.191-0.225-0.376-0.341-0.561
		c-0.104-0.164-0.205-0.327-0.315-0.485c-0.131-0.186-0.27-0.368-0.409-0.547c-0.117-0.151-0.234-0.301-0.358-0.448
		c-0.143-0.167-0.292-0.327-0.443-0.488c-0.143-0.151-0.289-0.303-0.44-0.447c-0.143-0.138-0.291-0.27-0.44-0.401
		c-0.181-0.158-0.363-0.313-0.553-0.461c-0.07-0.053-0.13-0.113-0.203-0.168s-0.154-0.102-0.23-0.155
		c-0.206-0.148-0.414-0.289-0.629-0.425c-0.15-0.095-0.302-0.186-0.453-0.275c-0.211-0.12-0.427-0.236-0.645-0.344
		c-0.165-0.084-0.332-0.167-0.501-0.243c-0.21-0.095-0.423-0.181-0.64-0.263c-0.185-0.072-0.368-0.141-0.555-0.203
		c-0.204-0.067-0.412-0.127-0.621-0.186c-0.204-0.057-0.407-0.11-0.613-0.158c-0.198-0.044-0.397-0.083-0.598-0.117
		c-0.224-0.04-0.447-0.076-0.671-0.104c-0.189-0.024-0.38-0.041-0.571-0.057c-0.24-0.019-0.479-0.031-0.721-0.036
		c-0.102-0.002-0.196-0.016-0.296-0.016H12.903c-0.105,0-0.207,0.014-0.312,0.016c-0.229,0.007-0.458,0.019-0.687,0.036
		c-0.201,0.016-0.401,0.034-0.599,0.059c-0.217,0.027-0.432,0.06-0.648,0.1c-0.207,0.036-0.413,0.076-0.618,0.12
		c-0.201,0.045-0.401,0.1-0.599,0.155c-0.212,0.059-0.423,0.119-0.63,0.189c-0.186,0.062-0.368,0.131-0.552,0.202
		c-0.215,0.083-0.428,0.17-0.638,0.263c-0.168,0.076-0.337,0.159-0.504,0.243c-0.216,0.108-0.432,0.224-0.642,0.344
		c-0.153,0.089-0.304,0.181-0.456,0.277c-0.213,0.134-0.423,0.275-0.628,0.423c-0.076,0.053-0.155,0.098-0.23,0.155
		c-0.07,0.053-0.132,0.114-0.203,0.168c-0.189,0.148-0.374,0.303-0.552,0.461c-0.15,0.13-0.298,0.263-0.44,0.401
		c-0.152,0.145-0.296,0.296-0.439,0.447c-0.151,0.162-0.303,0.323-0.444,0.488c-0.124,0.146-0.241,0.296-0.358,0.448
		c-0.141,0.179-0.28,0.361-0.409,0.547c-0.11,0.158-0.212,0.324-0.315,0.485c-0.117,0.184-0.234,0.37-0.341,0.559
		c-0.105,0.186-0.198,0.377-0.294,0.566c-0.088,0.177-0.177,0.351-0.256,0.532c-0.095,0.213-0.177,0.43-0.26,0.648
		c-0.064,0.168-0.129,0.334-0.184,0.506c-0.076,0.227-0.14,0.459-0.203,0.691c-0.046,0.172-0.095,0.343-0.133,0.518
		c-0.05,0.224-0.091,0.451-0.13,0.68c-0.035,0.196-0.065,0.394-0.089,0.592c-0.026,0.205-0.043,0.411-0.059,0.618
		c-0.018,0.232-0.029,0.463-0.035,0.695C0.012,141.755,0,141.842,0,141.936v516.129c0,7.128,5.775,12.903,12.903,12.903h774.193
		c7.128,0,12.903-5.775,12.903-12.903V141.936C800,141.842,799.988,141.755,799.986,141.663z M25.807,180.645l348.387,464.516
		H25.807V180.645z M625.807,335.484H562.09l-36.369-12.105l30.55-26.471c4.199-3.637,5.598-9.557,3.472-14.689
		c-2.123-5.132-7.3-8.358-12.842-7.931l-40.319,2.884l18.095-36.145c2.486-4.969,1.515-10.972-2.413-14.901
		c-3.93-3.926-9.935-4.898-14.901-2.414l-36.145,18.095l2.884-40.32c0.396-5.543-2.799-10.717-7.931-12.841
		c-5.131-2.13-11.055-0.731-14.689,3.472l-26.471,30.55l-12.766-38.354c-1.755-5.271-6.688-8.83-12.242-8.83
		c-5.556,0-10.489,3.557-12.243,8.83l-12.766,38.354l-26.47-30.55c-3.639-4.2-9.558-5.6-14.689-3.472
		c-5.132,2.125-8.328,7.298-7.932,12.841l2.884,40.32l-36.145-18.095c-4.967-2.483-10.971-1.513-14.9,2.414
		c-3.928,3.929-4.901,9.932-2.414,14.901l18.096,36.145l-40.32-2.884c-5.528-0.432-10.717,2.799-12.841,7.931
		c-2.126,5.132-0.729,11.052,3.472,14.689l30.55,26.471l-36.374,12.105h-63.716L38.709,154.839H761.29L625.807,335.484z
		 M308.303,318.715l-18.374-15.921l24.251,1.734c4.646,0.357,9.073-1.845,11.649-5.7c2.575-3.855,2.885-8.798,0.81-12.944
		l-10.881-21.737l21.737,10.881c4.147,2.073,9.091,1.762,12.944-0.81c3.855-2.577,6.032-7.024,5.7-11.649l-1.734-24.251
		l15.921,18.374c3.036,3.506,7.713,5.12,12.269,4.205c4.549-0.903,8.261-4.181,9.726-8.58l7.678-23.069l7.679,23.069
		c1.466,4.401,5.179,7.677,9.726,8.58c4.551,0.914,9.231-0.697,12.269-4.205l15.921-18.374l-1.734,24.251
		c-0.33,4.625,1.844,9.072,5.699,11.649c3.857,2.575,8.795,2.885,12.945,0.81l21.737-10.881l-10.882,21.737
		c-2.075,4.146-1.766,9.089,0.811,12.945c2.575,3.855,7.016,6.059,11.648,5.7l24.252-1.734l-18.375,15.921
		c-3.504,3.037-5.111,7.72-4.204,12.269c0.323,1.631,0.965,3.15,1.843,4.5H310.665c0.877-1.351,1.518-2.87,1.843-4.5
		C313.414,326.435,311.808,321.751,308.303,318.715z M425.807,645.161l15.483-20.645c4.275-5.7,3.119-13.79-2.58-18.065
		c-5.703-4.274-13.79-3.12-18.064,2.581L400,636.56L300,503.226L193.548,361.29h46.594c0.054,0,0.105,0.001,0.157,0h319.66
		c0.014,0,0.027,0.003,0.041,0.003s0.027-0.003,0.043-0.003h46.408L500,503.226l-48.387,64.517
		c-4.275,5.699-3.119,13.789,2.58,18.064c2.322,1.741,5.037,2.58,7.731,2.58c3.923,0,7.798-1.78,10.333-5.161l301.936-402.581
		v464.516L425.807,645.161L425.807,645.161z"/>
	<path style="fill:#FFE000;" d="M310.667,335.484h178.666c-0.877-1.351-1.517-2.87-1.843-4.5c-0.904-4.549,0.701-9.232,4.205-12.269
		l18.374-15.921l-24.251,1.734c-4.633,0.359-9.073-1.845-11.648-5.7c-2.576-3.855-2.886-8.798-0.811-12.944l10.882-21.737
		l-21.738,10.881c-4.149,2.075-9.087,1.765-12.944-0.81c-3.855-2.577-6.031-7.024-5.699-11.649l1.733-24.251l-15.921,18.374
		c-3.036,3.508-7.718,5.12-12.268,4.205c-4.549-0.903-8.262-4.181-9.726-8.58L400,229.247l-7.679,23.069
		c-1.466,4.401-5.178,7.677-9.726,8.58c-4.554,0.914-9.231-0.699-12.268-4.205l-15.921-18.374l1.733,24.251
		c0.331,4.625-1.844,9.072-5.699,11.649c-3.854,2.572-8.797,2.883-12.944,0.81l-21.738-10.881l10.882,21.737
		c2.075,4.146,1.766,9.089-0.811,12.945c-2.575,3.855-7.004,6.058-11.648,5.7l-24.251-1.734l18.375,15.921
		c3.504,3.037,5.111,7.72,4.204,12.269C312.184,332.614,311.544,334.133,310.667,335.484z"/>
</g>
<g>
</g>
<g>
</g>
<g>
</g>
<g>
</g>
<g>
</g>
<g>
</g>
<g>
</g>
<g>
</g>
<g>
</g>
<g>
</g>
<g>
</g>
<g>
</g>
<g>
</g>
<g>
</g>
<g>
</g>
</svg>
