<?xml version="1.0" encoding="iso-8859-1"?>
<!-- Generator: Adobe Illustrator 19.0.0, SVG Export Plug-In . SVG Version: 6.00 Build 0)  -->
<svg version="1.1" id="Layer_1" xmlns="http://www.w3.org/2000/svg" xmlns:xlink="http://www.w3.org/1999/xlink" x="0px" y="0px"
	 viewBox="0 0 799.999 799.999" style="enable-background:new 0 0 799.999 799.999;" xml:space="preserve">
<g>
	<path style="fill:#103B9B;" d="M24.807,474.117V325.881h607.451c6.563,0,11.903-5.34,11.903-11.903v-1h27.807v1
		c0,6.563,5.34,11.903,11.903,11.903h91.322v148.236H24.807z"/>
	<path style="fill:#103B9B;" d="M632.258,326.881H25.807v146.236h748.387V326.881h-90.322c-7.128,0-12.903-5.777-12.903-12.903
		h-25.807C645.161,321.103,639.386,326.881,632.258,326.881z"/>
	<path style="fill:#ED1F34;" d="M644.161,314.978v-1c0-6.563-5.34-11.903-11.903-11.903H24.807V153.838h750.387v148.236h-91.322
		c-6.563,0-11.903,5.34-11.903,11.903v1L644.161,314.978L644.161,314.978z"/>
	<path style="fill:#ED1F34;" d="M632.258,301.074c7.128,0,12.903,5.777,12.903,12.903h25.807c0-7.126,5.775-12.903,12.903-12.903
		h90.322V154.838H25.807v146.236H632.258z"/>
	<rect x="24.807" y="497.924" style="fill:#F2A643;" width="750.387" height="148.236"/>
	<rect x="25.807" y="498.924" style="fill:#F2A643;" width="748.387" height="146.236"/>
	<path d="M787.097,129.031H12.903C5.777,129.031,0,134.809,0,141.935v516.129c0,7.126,5.777,12.903,12.903,12.903h774.193
		c7.128,0,12.903-5.777,12.903-12.903V141.935C800,134.809,794.225,129.031,787.097,129.031z M774.193,154.838v146.236h-90.322
		c-7.128,0-12.903,5.777-12.903,12.903s5.775,12.903,12.903,12.903h90.322v146.236H25.807V326.881h606.451
		c7.128,0,12.903-5.777,12.903-12.903s-5.775-12.903-12.903-12.903H25.807V154.838H774.193z M25.807,645.16V498.924h748.387V645.16
		H25.807z"/>
</g>
<g>
</g>
<g>
</g>
<g>
</g>
<g>
</g>
<g>
</g>
<g>
</g>
<g>
</g>
<g>
</g>
<g>
</g>
<g>
</g>
<g>
</g>
<g>
</g>
<g>
</g>
<g>
</g>
<g>
</g>
</svg>
