<?xml version="1.0" encoding="iso-8859-1"?>
<!-- Generator: Adobe Illustrator 19.0.0, SVG Export Plug-In . SVG Version: 6.00 Build 0)  -->
<svg version="1.1" id="Layer_1" xmlns="http://www.w3.org/2000/svg" xmlns:xlink="http://www.w3.org/1999/xlink" x="0px" y="0px"
	 viewBox="0 0 465 465" style="enable-background:new 0 0 465 465;" xml:space="preserve">
<g>
	<rect x="15" y="300.5" style="fill:#3DB4EA;" width="435" height="18"/>
	<rect x="15" y="336.5" style="fill:#3DB4EA;" width="435" height="38.5"/>
	<path style="fill:#3DB4EA;" d="M367.5,90H15v192.5h435V90h-52.5c-4.143,0-7.5-3.358-7.5-7.5h-15C375,86.642,371.643,90,367.5,90z
		 M161.849,186.623l-37.771,12.454l-12.454,37.772c-1.014,3.074-3.886,5.151-7.123,5.151s-6.109-2.077-7.123-5.151l-12.454-37.772
		l-37.771-12.454C44.077,185.609,42,182.737,42,179.5s2.077-6.109,5.151-7.123l37.771-12.454l12.454-37.772
		c1.014-3.074,3.886-5.151,7.123-5.151s6.109,2.077,7.123,5.151l12.454,37.772l37.771,12.454c3.074,1.014,5.151,3.886,5.151,7.123
		S164.923,185.609,161.849,186.623z"/>
	<rect x="15" y="318.5" style="fill:#FFE000;" width="435" height="18"/>
	<rect x="15" y="282.5" style="fill:#FFE000;" width="435" height="18"/>
	<path style="fill:#ED1F34;" d="M115.789,172.985c-2.258-0.745-4.029-2.516-4.774-4.774l-6.515-19.759l-6.515,19.759
		c-0.745,2.258-2.517,4.03-4.774,4.774l-19.76,6.515l19.76,6.515c2.258,0.745,4.029,2.516,4.774,4.774l6.515,19.759l6.515-19.759
		c0.745-2.258,2.517-4.03,4.774-4.774l19.76-6.515L115.789,172.985z"/>
	<path style="fill:#FFFFFF;" d="M161.849,172.377l-37.771-12.454l-12.454-37.772c-1.014-3.074-3.886-5.151-7.123-5.151
		s-6.109,2.077-7.123,5.151l-12.454,37.772l-37.771,12.454C44.077,173.391,42,176.263,42,179.5s2.077,6.109,5.151,7.123
		l37.771,12.454l12.454,37.772c1.014,3.074,3.886,5.151,7.123,5.151s6.109-2.077,7.123-5.151l12.454-37.772l37.771-12.454
		c3.074-1.014,5.151-3.886,5.151-7.123S164.923,173.391,161.849,172.377z M111.015,190.789l-6.515,19.759l-6.515-19.759
		c-0.745-2.258-2.517-4.03-4.774-4.774l-19.76-6.515l19.76-6.515c2.258-0.745,4.029-2.516,4.774-4.774l6.515-19.759l6.515,19.759
		c0.745,2.258,2.517,4.03,4.774,4.774l19.76,6.515l-19.76,6.515C113.531,186.759,111.76,188.531,111.015,190.789z"/>
	<path d="M457.5,75h-60c-4.143,0-7.5,3.358-7.5,7.5s3.357,7.5,7.5,7.5H450v192.5v18v18v18V375H15v-38.5v-18v-18v-18V90h352.5
		c4.143,0,7.5-3.358,7.5-7.5s-3.357-7.5-7.5-7.5H7.5C3.357,75,0,78.358,0,82.5v300c0,4.142,3.357,7.5,7.5,7.5h450
		c4.143,0,7.5-3.358,7.5-7.5v-300C465,78.358,461.643,75,457.5,75z"/>
</g>
<g>
</g>
<g>
</g>
<g>
</g>
<g>
</g>
<g>
</g>
<g>
</g>
<g>
</g>
<g>
</g>
<g>
</g>
<g>
</g>
<g>
</g>
<g>
</g>
<g>
</g>
<g>
</g>
<g>
</g>
</svg>
