<?xml version="1.0" encoding="iso-8859-1"?>
<!-- Generator: Adobe Illustrator 19.0.0, SVG Export Plug-In . SVG Version: 6.00 Build 0)  -->
<svg version="1.1" id="Layer_1" xmlns="http://www.w3.org/2000/svg" xmlns:xlink="http://www.w3.org/1999/xlink" x="0px" y="0px"
	 viewBox="0 0 799.999 799.999" style="enable-background:new 0 0 799.999 799.999;" xml:space="preserve">
<g>
	<path style="fill:#ED1F34;" d="M644.161,487.02v-1c0-6.563-5.34-11.903-11.903-11.903H24.807V325.881h750.387v148.236h-91.322
		c-6.563,0-11.903,5.34-11.903,11.903v1H644.161z M381.655,348.526c-28.383,0-51.474,23.091-51.474,51.473
		s23.091,51.473,51.474,51.473c10.961,0,21.427-3.403,30.266-9.842c5.305-3.862,6.477-11.322,2.613-16.629
		c-2.232-3.066-5.833-4.896-9.632-4.896c-2.527,0-4.947,0.789-6.997,2.282c-4.743,3.454-10.363,5.279-16.252,5.279
		c-15.256,0-27.667-12.411-27.667-27.667c0-15.255,12.411-27.667,27.667-27.667c5.892,0,11.511,1.825,16.25,5.277
		c2.051,1.492,4.471,2.281,6.997,2.281c3.799,0,7.399-1.831,9.632-4.897c1.873-2.571,2.632-5.716,2.139-8.857
		c-0.494-3.141-2.182-5.901-4.752-7.772C403.078,351.928,392.613,348.526,381.655,348.526z M440.592,386.257
		c-7.576,0-13.74,6.165-13.74,13.742c0,7.576,6.164,13.74,13.74,13.74c7.577,0,13.742-6.164,13.742-13.74
		C454.334,392.421,448.169,386.257,440.592,386.257z"/>
	<path style="fill:#ED1F34;" d="M683.871,473.117h90.322V326.881H25.807v146.236h606.451c7.128,0,12.903,5.777,12.903,12.903h25.807
		C670.968,478.895,676.743,473.117,683.871,473.117z M412.51,442.438c-9.011,6.563-19.681,10.033-30.854,10.033
		c-28.933,0-52.474-23.538-52.474-52.473c0-28.934,23.541-52.473,52.474-52.473c11.172,0,21.839,3.468,30.853,10.03
		c5.762,4.194,7.029,12.265,2.833,18.026c-4.194,5.76-12.263,7.03-18.026,2.835c-4.567-3.327-9.983-5.085-15.661-5.085
		c-14.704,0-26.667,11.962-26.667,26.667s11.963,26.667,26.667,26.667c5.678,0,11.092-1.759,15.663-5.088
		c5.76-4.194,13.83-2.928,18.026,2.834C419.537,430.174,418.27,438.244,412.51,442.438z M440.592,414.739
		c-8.141,0-14.74-6.6-14.74-14.74c0-8.141,6.6-14.742,14.74-14.742s14.742,6.6,14.742,14.742S448.734,414.739,440.592,414.739z"/>
	<path style="fill:#FFFFFF;" d="M397.316,421.578c-4.569,3.327-9.985,5.088-15.663,5.088c-14.704,0-26.667-11.962-26.667-26.667
		s11.963-26.667,26.667-26.667c5.678,0,11.092,1.758,15.661,5.085c5.764,4.194,13.832,2.925,18.026-2.835
		c4.194-5.762,2.927-13.832-2.833-18.026c-9.012-6.562-19.679-10.03-30.853-10.03c-28.933,0-52.474,23.539-52.474,52.473
		c0,28.935,23.541,52.473,52.474,52.473c11.172,0,21.843-3.47,30.854-10.033c5.762-4.194,7.029-12.267,2.833-18.026
		C411.146,418.651,403.076,417.384,397.316,421.578z"/>
	<circle style="fill:#FFFFFF;" cx="440.592" cy="399.999" r="14.742"/>
	<path style="fill:#259245;" d="M24.807,646.16V497.924h607.451c6.563,0,11.903-5.34,11.903-11.903v-1h27.807v1
		c0,6.563,5.34,11.903,11.903,11.903h91.322V646.16H24.807z"/>
	<path style="fill:#259245;" d="M683.871,498.924c-7.128,0-12.903-5.777-12.903-12.903h-25.807c0,7.126-5.775,12.903-12.903,12.903
		H25.807V645.16h748.387V498.924H683.871z"/>
	<rect x="24.807" y="153.838" style="fill:#3DB4EA;" width="750.387" height="148.236"/>
	<rect x="25.807" y="154.838" style="fill:#3DB4EA;" width="748.387" height="146.236"/>
	<path d="M787.097,129.031H12.903C5.775,129.031,0,134.809,0,141.935v516.129c0,7.126,5.775,12.903,12.903,12.903h774.193
		c7.128,0,12.903-5.777,12.903-12.903V141.935C800,134.809,794.225,129.031,787.097,129.031z M774.193,154.838v146.236H25.807
		V154.838H774.193z M25.807,645.16V498.924h606.451c7.128,0,12.903-5.777,12.903-12.903s-5.775-12.903-12.903-12.903H25.807V326.881
		h748.387v146.236h-90.322c-7.128,0-12.903,5.777-12.903,12.903s5.775,12.903,12.903,12.903h90.322v146.236L25.807,645.16
		L25.807,645.16z"/>
</g>
<g>
</g>
<g>
</g>
<g>
</g>
<g>
</g>
<g>
</g>
<g>
</g>
<g>
</g>
<g>
</g>
<g>
</g>
<g>
</g>
<g>
</g>
<g>
</g>
<g>
</g>
<g>
</g>
<g>
</g>
</svg>
