<?xml version="1.0" encoding="utf-8"?>
<!-- Generator: Adobe Illustrator 16.0.0, SVG Export Plug-In . SVG Version: 6.00 Build 0)  -->
<!DOCTYPE svg PUBLIC "-//W3C//DTD SVG 1.1//EN" "http://www.w3.org/Graphics/SVG/1.1/DTD/svg11.dtd">
<svg version="1.1" id="Capa_1" xmlns="http://www.w3.org/2000/svg" xmlns:xlink="http://www.w3.org/1999/xlink" x="0px" y="0px"
	 width="800px" height="800px" viewBox="0 0 800 800" enable-background="new 0 0 800 800" xml:space="preserve">
<g>
	<path fill="#FFFFFF" d="M735.484,645.161h38.709V154.839H270.968v105.109c5.794,0,10.489,4.697,10.489,10.491
		c0,5.793-4.697,10.49-10.489,10.49v88.167c17.143,0,31.087,13.944,31.087,31.087v0.595c3.335-5.527,5.197-11.976,5.197-18.778
		c0-7.127,5.775-12.903,12.903-12.903h64.997h13.987c7.128,0,12.903,5.776,12.903,12.903c0,7.128-5.775,12.903-12.903,12.903h-1.758
		c-5.189,51.341-40.979,94.467-90.394,108.979l8.179,33.076c0.953,3.852,0.081,7.928-2.365,11.052
		c-2.444,3.124-6.193,4.949-10.159,4.949h-31.675v92.203h412.903c7.128,0,12.903,5.775,12.903,12.903h25.807
		C722.581,650.937,728.356,645.161,735.484,645.161z M317.246,278.602c-1.633,5.559-7.462,8.741-13.021,7.108
		s-8.743-7.461-7.111-13.02c1.633-5.559,7.461-8.742,13.02-7.109C315.693,267.212,318.878,273.041,317.246,278.602z
		 M349.283,296.515c-3.133,4.874-9.622,6.286-14.496,3.153c-4.874-3.131-6.286-9.623-3.153-14.496
		c3.133-4.874,9.622-6.287,14.496-3.154C351.004,285.149,352.416,291.641,349.283,296.515z M374.979,322.729
		c-4.379,3.793-11.004,3.32-14.798-1.058s-3.32-11.004,1.058-14.797c4.379-3.795,11.004-3.32,14.798,1.058
		S379.354,318.935,374.979,322.729z M392.244,355.119c-5.27,2.407-11.494,0.086-13.901-5.184c-2.406-5.27-0.086-11.494,5.185-13.901
		c5.27-2.407,11.494-0.086,13.9,5.186C399.837,346.489,397.514,352.714,392.244,355.119z"/>
	<path fill="#103B9B" d="M24.807,646.161V153.839h247.161v107.109h-1c-5.232,0-9.489,4.258-9.489,9.491
		c0,5.233,4.257,9.49,9.489,9.49h1v90.163h-1c-16.59,0-30.086,13.497-30.086,30.086v4.185l-1.856-3.073
		c-3.494-5.786-5.341-12.458-5.341-19.294c0-6.563-5.34-11.903-11.903-11.903h-78.985c-6.563,0-11.903,5.34-11.903,11.903
		s5.34,11.903,11.903,11.903h2.664l0.091,0.899c5.174,51.201,40.376,93.641,89.68,108.12l0.919,0.271l-8.409,34.005
		c-0.886,3.579-0.09,7.295,2.182,10.194c2.271,2.903,5.686,4.567,9.372,4.567h32.673v94.206H24.807z M154.056,336.084
		c-3.708,0-7.1,2.179-8.64,5.551c-1.053,2.306-1.145,4.883-0.259,7.259c0.886,2.375,2.643,4.263,4.948,5.315
		c1.25,0.571,2.575,0.861,3.938,0.861c3.708,0,7.098-2.179,8.638-5.551c2.174-4.761,0.07-10.402-4.689-12.576
		C156.742,336.373,155.417,336.084,154.056,336.084z M173.832,305.31c-2.757,0-5.373,1.194-7.176,3.276
		c-3.426,3.955-2.997,9.96,0.957,13.387c1.725,1.495,3.931,2.318,6.21,2.318c2.757,0,5.373-1.194,7.177-3.275
		c1.66-1.916,2.475-4.363,2.294-6.892c-0.181-2.528-1.335-4.835-3.251-6.495C178.317,306.134,176.111,305.31,173.832,305.31z
		 M201.467,281.351c-1.815,0-3.585,0.521-5.121,1.508c-2.133,1.37-3.604,3.489-4.143,5.966c-0.539,2.478-0.081,5.016,1.29,7.149
		c1.755,2.73,4.744,4.361,7.994,4.361c1.815,0,3.585-0.521,5.121-1.508c2.133-1.371,3.604-3.49,4.143-5.966
		c0.539-2.477,0.081-5.016-1.29-7.147C207.705,282.981,204.717,281.351,201.467,281.351z M234.761,266.151
		c-0.902,0-1.804,0.13-2.679,0.387c-5.021,1.475-7.907,6.759-6.433,11.779c1.178,4.015,4.92,6.818,9.1,6.818
		c0.902,0,1.804-0.13,2.679-0.387c2.432-0.714,4.441-2.332,5.656-4.557s1.491-4.79,0.777-7.222
		C242.683,268.955,238.941,266.151,234.761,266.151z M75.074,199.71c-6.563,0-11.903,5.34-11.903,11.903v30.935
		c0,20.1,16.352,36.452,36.452,36.452c9.72,0,18.87-3.796,25.763-10.689s10.688-16.042,10.688-25.763v-30.935
		c0-6.563-5.34-11.903-11.903-11.903H75.074z"/>
	<path fill="#103B9B" d="M239.294,552.955c-3.967,0-7.714-1.825-10.159-4.95c-2.447-3.122-3.319-7.199-2.366-11.052l8.179-33.075
		c-49.414-14.512-85.204-57.637-90.393-108.979h-1.76c-7.128,0-12.903-5.775-12.903-12.903c0-7.127,5.775-12.903,12.903-12.903
		h13.987h64.998c7.127,0,12.903,5.776,12.903,12.903c0,6.803,1.859,13.251,5.197,18.778v-0.595
		c0-17.142,13.944-31.086,31.086-31.086v-88.163c-5.794,0-10.489-4.697-10.489-10.49c0-5.794,4.696-10.491,10.489-10.491V154.839
		H25.807v490.322h245.161v-92.206H239.294z M231.8,265.579c5.559-1.632,11.389,1.55,13.021,7.109
		c1.632,5.559-1.552,11.389-7.111,13.021c-5.559,1.632-11.389-1.55-13.02-7.109C223.057,273.041,226.242,267.212,231.8,265.579z
		 M195.806,282.018c4.874-3.133,11.363-1.72,14.496,3.154c3.133,4.874,1.721,11.363-3.153,14.496s-11.363,1.72-14.497-3.153
		C189.519,291.641,190.932,285.149,195.806,282.018z M165.899,307.931c3.793-4.378,10.419-4.853,14.797-1.058
		c4.378,3.793,4.854,10.419,1.058,14.797s-10.419,4.852-14.797,1.058C162.581,318.935,162.106,312.31,165.899,307.931z
		 M144.506,341.22c2.407-5.27,8.629-7.592,13.901-5.186c5.271,2.407,7.591,8.63,5.184,13.901c-2.407,5.27-8.629,7.592-13.901,5.184
		C144.421,352.714,142.099,346.489,144.506,341.22z M99.623,280c-20.65,0-37.452-16.802-37.452-37.452v-30.935
		c0-7.127,5.775-12.903,12.903-12.903h49.096c7.127,0,12.903,5.775,12.903,12.903v30.935C137.075,263.198,120.273,280,99.623,280z"
		/>
	<path d="M787.097,129.032H12.903C5.775,129.032,0,134.808,0,141.936v516.129c0,7.128,5.775,12.903,12.903,12.903h670.968
		c7.128,0,12.903-5.775,12.903-12.903s-5.775-12.903-12.903-12.903H270.968H25.807V154.839h245.161h503.226v490.322h-38.709
		c-7.128,0-12.903,5.775-12.903,12.903s5.775,12.903,12.903,12.903h51.612c7.128,0,12.903-5.775,12.903-12.903V141.936
		C800,134.808,794.225,129.032,787.097,129.032z"/>
	<path fill="#FFE000" d="M254.501,528.148l7.654-30.956c0.787-3.182,0.217-6.582-1.565-9.331c-1.784-2.751-4.655-4.661-7.878-5.241
		c-44.107-7.947-77.544-43.148-83.203-87.593l-0.143-1.126h41.655l0.167,0.795c4.189,19.983,18.092,36.455,37.191,44.063
		c1.407,0.56,2.888,0.843,4.402,0.843c2.393,0,4.704-0.709,6.684-2.051c3.271-2.216,5.223-5.898,5.223-9.851v-27.519
		c0-3.463,2.817-6.28,6.28-6.28s6.28,2.817,6.28,6.28v27.519c0,3.95,1.953,7.633,5.223,9.852c1.979,1.343,4.288,2.053,6.679,2.053
		c1.515,0,2.997-0.284,4.405-0.846c19.101-7.606,33.003-24.078,37.191-44.063l0.167-0.795h41.656l-0.143,1.126
		c-5.658,44.444-39.094,79.645-83.203,87.593c-3.223,0.58-6.094,2.49-7.878,5.241c-1.781,2.749-2.352,6.149-1.564,9.331
		l7.654,30.956H254.501z"/>
	<path fill="#FFE000" d="M248.009,439.687c-19.679-7.838-33.59-24.702-37.8-44.786h-39.708
		c5.518,43.336,38.465,78.821,82.388,86.735c3.509,0.632,6.6,2.689,8.54,5.682c1.939,2.991,2.553,6.652,1.696,10.115l-7.348,29.716
		h30.379l-7.348-29.716c-0.857-3.463-0.243-7.124,1.696-10.115c1.94-2.992,5.03-5.05,8.54-5.682
		c43.921-7.914,76.871-43.399,82.388-86.735h-39.709c-4.208,20.084-18.121,36.95-37.799,44.786
		c-3.976,1.585-8.477,1.095-12.016-1.309c-3.542-2.402-5.662-6.402-5.662-10.679v-27.519c0-2.911-2.369-5.28-5.28-5.28
		s-5.28,2.369-5.28,5.28v27.519c0,4.276-2.12,8.278-5.662,10.679C256.485,440.777,251.984,441.268,248.009,439.687z"/>
	<path d="M239.881,400.181v0.595c-3.336-5.527-5.197-11.976-5.197-18.778c0-7.128-5.776-12.903-12.903-12.903h-64.998h-13.987
		c-7.128,0-12.903,5.775-12.903,12.903c0,7.127,5.775,12.903,12.903,12.903h1.758c5.188,51.341,40.979,94.468,90.393,108.979
		l-8.179,33.075c-0.953,3.852-0.081,7.928,2.366,11.052c2.445,3.124,6.193,4.95,10.159,4.95h31.673h31.673
		c3.968,0,7.715-1.826,10.159-4.95c2.447-3.122,3.319-7.2,2.366-11.052l-8.179-33.075c49.414-14.512,85.204-57.637,90.393-108.979
		h1.762c7.128,0,12.903-5.776,12.903-12.903c0-7.128-5.775-12.903-12.903-12.903h-13.987h-64.997
		c-7.128,0-12.903,5.775-12.903,12.903c0,6.802-1.86,13.25-5.197,18.778v-0.595c0-17.143-13.944-31.086-31.087-31.086
		S239.881,383.04,239.881,400.181z M265.688,427.7v-27.518c0-2.911,2.369-5.28,5.28-5.28s5.28,2.369,5.28,5.28V427.7
		c0,4.277,2.12,8.279,5.662,10.679c3.541,2.402,8.042,2.895,12.016,1.31c19.678-7.838,33.589-24.702,37.799-44.786h39.709
		c-5.517,43.336-38.465,78.821-82.388,86.735c-3.51,0.632-6.6,2.689-8.54,5.681c-1.939,2.992-2.553,6.653-1.696,10.116l7.348,29.716
		h-30.379l7.348-29.716c0.857-3.463,0.243-7.124-1.696-10.116c-1.94-2.991-5.031-5.049-8.54-5.681
		c-43.921-7.914-76.871-43.399-82.388-86.735h39.709c4.208,20.084,18.121,36.95,37.799,44.786c3.976,1.581,8.477,1.091,12.016-1.31
		C263.566,435.978,265.688,431.978,265.688,427.7z"/>
	<circle fill="#FFE000" cx="270.968" cy="270.438" r="10.49"/>
	<circle fill="#FFE000" cx="234.756" cy="275.646" r="10.489"/>
	<circle fill="#FFE000" cx="201.478" cy="290.842" r="10.49"/>
	<circle fill="#FFE000" cx="173.827" cy="314.801" r="10.49"/>
	<circle fill="#FFE000" cx="154.049" cy="345.578" r="10.489"/>
	<circle fill="#FFE000" cx="307.18" cy="275.646" r="10.489"/>
	<circle fill="#FFE000" cx="340.458" cy="290.842" r="10.49"/>
	<circle fill="#FFE000" cx="368.106" cy="314.801" r="10.49"/>
	<circle fill="#FFE000" cx="387.887" cy="345.578" r="10.489"/>
	<path fill="#ED1F34" d="M99.625,255.193c-6.973,0-12.646-5.673-12.646-12.646v-19.032h25.291v19.032
		C112.271,249.521,106.598,255.193,99.625,255.193z"/>
	<path fill="#ED1F34" d="M87.979,242.548c0,6.421,5.223,11.646,11.646,11.646s11.646-5.223,11.646-11.646v-18.032H87.979V242.548z"
		/>
	<path d="M137.075,211.613c0-7.127-5.775-12.903-12.903-12.903H75.076c-7.128,0-12.903,5.775-12.903,12.903v30.935
		c0,20.65,16.802,37.452,37.452,37.452s37.452-16.802,37.452-37.452v-30.935H137.075z M111.269,242.548
		c0,6.421-5.224,11.646-11.646,11.646s-11.646-5.223-11.646-11.646v-18.032h23.29v18.032H111.269z"/>
</g>
</svg>
