<?xml version="1.0" encoding="utf-8"?>
<!-- Generator: Adobe Illustrator 16.0.0, SVG Export Plug-In . SVG Version: 6.00 Build 0)  -->
<!DOCTYPE svg PUBLIC "-//W3C//DTD SVG 1.1//EN" "http://www.w3.org/Graphics/SVG/1.1/DTD/svg11.dtd">
<svg version="1.1" id="Capa_1" xmlns="http://www.w3.org/2000/svg" xmlns:xlink="http://www.w3.org/1999/xlink" x="0px" y="0px"
	 width="800px" height="800px" viewBox="0 0 800 800" enable-background="new 0 0 800 800" xml:space="preserve">
<g>
	<path fill="#FFE000" d="M310.282,474.118l96.322-64.215c3.319-2.211,5.301-5.913,5.301-9.903c0-3.989-1.981-7.69-5.301-9.903
		l-96.322-64.215h464.911v148.236H310.282z"/>
	<path fill="#FFE000" d="M774.193,326.882H313.585l93.574,62.383c3.59,2.393,5.746,6.42,5.746,10.735
		c0,4.314-2.156,8.344-5.746,10.735l-93.574,62.383h460.608V326.882z"/>
	<polygon fill="#3DB4EA" points="52.217,646.161 274.572,497.925 775.193,497.925 775.193,646.161 	"/>
	<polygon fill="#3DB4EA" points="274.875,498.925 55.52,645.161 774.193,645.161 774.193,498.925 	"/>
	<path fill="#3DB4EA" d="M274.572,302.075L52.217,153.839h580.041c6.563,0,11.903-5.34,11.903-11.903v-1h27.807v1
		c0,6.563,5.34,11.903,11.903,11.903h91.322v148.236H274.572z"/>
	<path fill="#3DB4EA" d="M632.258,154.839H55.52l219.355,146.236h499.318V154.839h-90.322c-7.128,0-12.903-5.775-12.903-12.903
		h-25.807C645.161,149.062,639.386,154.839,632.258,154.839z"/>
	<polygon fill="#333333" points="24.807,164.175 378.541,400 24.807,635.822 	"/>
	<polygon fill="#333333" points="25.807,633.954 376.738,400 25.807,166.044 	"/>
	<path d="M787.097,129.032H683.871c-7.128,0-12.903,5.775-12.903,12.903s5.775,12.903,12.903,12.903h90.322v146.236H274.875
		L55.52,154.839h576.738c7.128,0,12.903-5.775,12.903-12.903s-5.775-12.903-12.903-12.903H12.903c-0.007,0-0.014,0-0.021,0
		c-0.413,0-0.824,0.022-1.234,0.062c-0.335,0.033-0.666,0.088-0.994,0.145c-0.097,0.017-0.193,0.024-0.288,0.043
		c-0.337,0.067-0.666,0.155-0.993,0.25c-0.072,0.021-0.146,0.034-0.218,0.055c-0.298,0.091-0.587,0.199-0.876,0.311
		c-0.103,0.04-0.208,0.072-0.31,0.114c-0.246,0.102-0.481,0.218-0.719,0.335c-0.143,0.07-0.287,0.132-0.428,0.207
		c-0.189,0.102-0.368,0.217-0.552,0.327c-0.179,0.108-0.361,0.21-0.537,0.325c-0.143,0.097-0.275,0.203-0.415,0.303
		c-0.201,0.146-0.406,0.289-0.599,0.449c-0.12,0.1-0.232,0.21-0.349,0.313c-0.196,0.174-0.394,0.341-0.58,0.526
		c-0.239,0.239-0.463,0.492-0.682,0.749c-0.051,0.06-0.108,0.114-0.16,0.176c-0.277,0.335-0.535,0.686-0.778,1.047
		c-0.001,0.003-0.005,0.005-0.007,0.009c-0.024,0.036-0.042,0.072-0.065,0.108c-0.208,0.32-0.406,0.648-0.586,0.987
		c-0.061,0.114-0.108,0.23-0.166,0.346c-0.13,0.261-0.26,0.524-0.373,0.798c-0.071,0.169-0.125,0.341-0.188,0.511
		c-0.081,0.222-0.166,0.442-0.234,0.671c-0.065,0.217-0.116,0.435-0.169,0.654c-0.046,0.188-0.098,0.373-0.136,0.566
		c-0.053,0.27-0.089,0.542-0.124,0.815c-0.019,0.146-0.046,0.289-0.062,0.437c-0.034,0.346-0.046,0.693-0.053,1.039
		c0,0.076-0.01,0.15-0.01,0.226v0.045c0,0.012,0,0.025,0,0.039v515.959c0,0.014,0,0.027,0,0.04v0.044c0,0.076,0.01,0.15,0.012,0.226
		c0.005,0.348,0.019,0.693,0.053,1.039c0.014,0.148,0.041,0.291,0.062,0.438c0.036,0.271,0.07,0.543,0.124,0.813
		c0.038,0.191,0.091,0.377,0.136,0.566c0.053,0.218,0.103,0.437,0.168,0.653c0.069,0.228,0.153,0.447,0.234,0.669
		c0.062,0.173,0.117,0.345,0.188,0.515c0.112,0.271,0.243,0.535,0.372,0.797c0.057,0.115,0.105,0.232,0.167,0.346
		c0.181,0.339,0.378,0.666,0.588,0.985c0.024,0.036,0.042,0.074,0.065,0.108c0.002,0.002,0.003,0.006,0.007,0.009
		c0.279,0.417,0.587,0.813,0.91,1.194c0.098,0.117,0.203,0.224,0.305,0.335c0.227,0.248,0.461,0.487,0.705,0.718
		c0.133,0.124,0.263,0.246,0.401,0.363c0.26,0.222,0.528,0.432,0.805,0.635c0.112,0.081,0.219,0.172,0.332,0.249
		c0.389,0.267,0.793,0.51,1.211,0.733c0.098,0.052,0.201,0.095,0.301,0.145c0.335,0.167,0.678,0.323,1.029,0.461
		c0.133,0.052,0.265,0.098,0.397,0.145c0.332,0.118,0.669,0.222,1.014,0.314c0.136,0.036,0.271,0.072,0.409,0.105
		c0.351,0.081,0.709,0.143,1.07,0.196c0.129,0.019,0.256,0.043,0.387,0.058c0.444,0.051,0.895,0.078,1.352,0.081
		c0.036,0,0.072,0.007,0.11,0.007c0.007,0.002,0.016,0.002,0.024,0.002h774.157c7.128,0,12.903-5.775,12.903-12.903V141.936
		C800,134.808,794.225,129.032,787.097,129.032z M407.157,410.735c3.591-2.394,5.746-6.421,5.746-10.735
		c0-4.315-2.155-8.344-5.746-10.735l-93.572-62.383h460.608v146.236H313.585L407.157,410.735z M376.738,400L25.807,633.954v-467.91
		L376.738,400z M55.52,645.161l219.355-146.236h499.318v146.236H55.52z"/>
</g>
</svg>
