<?xml version="1.0" encoding="iso-8859-1"?>
<!-- Generator: Adobe Illustrator 19.0.0, SVG Export Plug-In . SVG Version: 6.00 Build 0)  -->
<svg version="1.1" id="Layer_1" xmlns="http://www.w3.org/2000/svg" xmlns:xlink="http://www.w3.org/1999/xlink" x="0px" y="0px"
	 viewBox="0 0 800 800" style="enable-background:new 0 0 800 800;" xml:space="preserve">
<g>
	<path style="fill:#ED1F34;" d="M261.743,646.164l-0.462-1.887l77.122-40.165c3.952-2.059,6.406-6.104,6.406-10.558
		s-2.455-8.499-6.406-10.558l-103.599-53.95l103.599-53.955c3.952-2.059,6.406-6.104,6.406-10.558s-2.455-8.498-6.406-10.558
		L234.8,400.02l103.602-53.96c3.952-2.059,6.406-6.104,6.406-10.558s-2.455-8.499-6.406-10.558L234.8,270.986l103.602-53.967
		c3.95-2.058,6.404-6.104,6.404-10.558c0-4.454-2.454-8.5-6.404-10.558l-77.13-40.177l0.462-1.887h513.459v401
		c0,6.563,5.34,11.903,11.903,11.905h1v27.807h-1c-6.563,0-11.903,5.34-11.903,11.903v39.709L261.743,646.164L261.743,646.164z"/>
	<path style="fill:#ED1F34;" d="M774.193,554.84v-400H261.734l77.13,40.177c4.267,2.223,6.942,6.634,6.942,11.444
		s-2.676,9.222-6.942,11.444l-101.899,53.081l101.899,53.072c4.267,2.223,6.944,6.632,6.944,11.444c0,4.81-2.678,9.221-6.944,11.444
		l-101.899,53.073l101.899,53.07c4.267,2.224,6.944,6.633,6.944,11.444c0,4.813-2.678,9.222-6.944,11.444l-101.896,53.068
		l101.896,53.063c4.267,2.223,6.944,6.633,6.944,11.444c0,4.813-2.678,9.222-6.944,11.444l-77.122,40.165h512.451v-38.709
		c0-7.127,5.777-12.903,12.903-12.903v-25.807C779.971,567.743,774.193,561.966,774.193,554.84z"/>
	<path style="fill:#FFFFFF;" d="M304.969,593.555l-101.896-53.063c-4.267-2.223-6.944-6.632-6.944-11.444
		c0-4.81,2.677-9.221,6.944-11.444l101.898-53.069l-101.898-53.07c-4.267-2.224-6.944-6.632-6.944-11.444
		c0-4.811,2.677-9.222,6.944-11.444l101.899-53.074l-101.899-53.072c-4.267-2.223-6.944-6.632-6.944-11.444
		c0-4.81,2.675-9.222,6.942-11.444l101.901-53.08l-99.1-51.622H25.807v490.323h180.067L304.969,593.555z"/>
	<path d="M774.193,606.453v38.709H261.741l77.122-40.165c4.267-2.223,6.943-6.632,6.943-11.444c0-4.812-2.677-9.221-6.943-11.444
		l-101.896-53.063l101.896-53.068c4.267-2.224,6.943-6.633,6.943-11.444c0-4.813-2.677-9.222-6.943-11.444l-101.9-53.07
		l101.9-53.074c4.267-2.223,6.943-6.634,6.943-11.444s-2.677-9.222-6.943-11.444l-101.9-53.072l101.9-53.081
		c4.267-2.223,6.941-6.634,6.941-11.444s-2.675-9.221-6.941-11.444l-77.131-40.178h512.461v400c0,7.126,5.777,12.903,12.903,12.903
		S800,561.964,800,554.838V141.935c0-7.126-5.777-12.903-12.903-12.903H208.879c-0.029,0-0.06,0-0.089,0H12.903
		C5.777,129.032,0,134.809,0,141.935v516.129c0,7.126,5.777,12.902,12.903,12.902h196.103c0.012,0,0.024,0.002,0.038,0.002
		s0.029-0.002,0.043-0.002h578.009c7.126,0,12.903-5.776,12.903-12.902v-51.613c0-7.126-5.777-12.903-12.903-12.903
		S774.193,599.327,774.193,606.453z M25.807,154.84h180.065l99.1,51.622l-101.901,53.081c-4.267,2.223-6.942,6.634-6.942,11.444
		s2.677,9.221,6.944,11.444l101.899,53.072l-101.899,53.073c-4.267,2.223-6.944,6.634-6.944,11.444
		c0,4.811,2.677,9.221,6.944,11.444l101.898,53.07l-101.898,53.07c-4.267,2.223-6.944,6.634-6.944,11.444s2.677,9.222,6.944,11.444
		l101.896,53.063l-99.095,51.609H25.807V154.84z"/>
</g>
<g>
</g>
<g>
</g>
<g>
</g>
<g>
</g>
<g>
</g>
<g>
</g>
<g>
</g>
<g>
</g>
<g>
</g>
<g>
</g>
<g>
</g>
<g>
</g>
<g>
</g>
<g>
</g>
<g>
</g>
</svg>
