<?xml version="1.0" encoding="iso-8859-1"?>
<!-- Generator: Adobe Illustrator 19.0.0, SVG Export Plug-In . SVG Version: 6.00 Build 0)  -->
<svg version="1.1" id="Layer_1" xmlns="http://www.w3.org/2000/svg" xmlns:xlink="http://www.w3.org/1999/xlink" x="0px" y="0px"
	 viewBox="0 0 799.999 799.999" style="enable-background:new 0 0 799.999 799.999;" xml:space="preserve">
<g>
	<path style="fill:#FFE000;" d="M282.871,646.16v-401c0-6.563-5.34-11.903-11.903-11.903h-1v-27.806h1
		c6.563,0,11.903-5.34,11.903-11.903v-39.709h234.258v492.322L282.871,646.16L282.871,646.16z M388.097,492.902
		c0,6.563,5.34,11.903,11.903,11.903s11.903-5.34,11.903-11.903v-60.603l31.503,16.371c1.688,0.878,3.587,1.342,5.49,1.342
		c1.9,0,3.799-0.464,5.488-1.342c3.438-1.786,5.797-5.143,6.31-8.98l13.971-104.277c0.87-6.506-3.714-12.508-10.218-13.379
		c-0.526-0.07-1.062-0.106-1.59-0.106c-5.933,0-11.002,4.438-11.79,10.324l-11.72,87.481l-27.444-14.264v-98.372
		c0-6.563-5.34-11.903-11.903-11.903s-11.903,5.34-11.903,11.903v98.372l-27.445,14.264l-11.719-87.481
		c-0.789-5.886-5.857-10.324-11.79-10.324c-0.528,0-1.063,0.036-1.59,0.106c-6.503,0.871-11.087,6.874-10.217,13.379l13.971,104.277
		c0.515,3.838,2.874,7.195,6.31,8.98c1.689,0.878,3.588,1.343,5.49,1.343c1.903,0,3.8-0.465,5.488-1.342l31.503-16.372
		L388.097,492.902L388.097,492.902z"/>
	<path style="fill:#FFE000;" d="M516.129,645.16V154.838H283.871v38.709c0,7.128-5.775,12.903-12.903,12.903v25.806
		c7.128,0,12.903,5.776,12.903,12.903v400L516.129,645.16L516.129,645.16z M335.42,321.041c7.051-0.943,13.558,4.012,14.504,11.076
		l11.53,86.07l25.643-13.327v-97.765c0-7.128,5.775-12.903,12.903-12.903s12.903,5.775,12.903,12.903v97.765l25.643,13.327
		l11.53-86.07c0.946-7.063,7.439-12.017,14.504-11.076c7.063,0.946,12.021,7.439,11.076,14.503l-13.971,104.277
		c-0.557,4.165-3.11,7.798-6.84,9.735c-1.865,0.969-3.907,1.454-5.949,1.454c-2.044,0-4.084-0.483-5.951-1.454l-30.042-15.612
		v58.957c0,7.128-5.775,12.903-12.903,12.903s-12.903-5.775-12.903-12.903v-58.957l-30.042,15.612c-3.729,1.939-8.169,1.939-11.9,0
		c-3.729-1.938-6.281-5.57-6.84-9.735l-13.971-104.277C323.399,328.482,328.356,321.988,335.42,321.041z"/>
	<path style="fill:#103B9B;" d="M24.807,646.16V153.838h234.258v39.709c0,6.563,5.34,11.903,11.903,11.903h1v27.806h-1
		c-6.563,0-11.903,5.34-11.903,11.903v401L24.807,646.16L24.807,646.16z"/>
	<path style="fill:#103B9B;" d="M258.064,193.547v-38.709H25.807V645.16h232.258v-400c0-7.127,5.775-12.903,12.903-12.903v-25.806
		C263.84,206.451,258.064,200.675,258.064,193.547z"/>
	<rect x="540.936" y="153.838" style="fill:#103B9B;" width="234.258" height="492.322"/>
	<rect x="541.936" y="154.838" style="fill:#103B9B;" width="232.258" height="490.322"/>
	<path d="M787.097,129.031H12.903C5.775,129.031,0,134.807,0,141.935v516.129c0,7.128,5.775,12.903,12.903,12.903h774.193
		c7.128,0,12.903-5.775,12.903-12.903V141.935C800,134.807,794.225,129.031,787.097,129.031z M774.193,645.16H541.936V154.838
		h232.258L774.193,645.16L774.193,645.16z M270.968,232.257c-7.128,0-12.903,5.776-12.903,12.903v400H25.807V154.838h232.258v38.709
		c0,7.128,5.775,12.903,12.903,12.903s12.903-5.775,12.903-12.903v-38.709h232.258V645.16H283.871v-400
		C283.871,238.033,278.096,232.257,270.968,232.257z"/>
	<path d="M338.315,439.822c0.558,4.165,3.11,7.798,6.841,9.735c3.731,1.939,8.172,1.939,11.9,0l30.04-15.612v58.957
		c0,7.128,5.775,12.903,12.903,12.903s12.903-5.775,12.903-12.903v-58.957l30.042,15.612c1.867,0.969,3.907,1.454,5.951,1.454
		c2.042,0,4.084-0.483,5.949-1.454c3.729-1.938,6.281-5.57,6.841-9.735l13.97-104.277c0.946-7.063-4.013-13.557-11.076-14.503
		c-7.063-0.943-13.558,4.012-14.504,11.076l-11.529,86.07l-25.644-13.327v-97.765c0-7.128-5.775-12.903-12.903-12.903
		s-12.903,5.775-12.903,12.903v97.765l-25.643,13.327l-11.53-86.07c-0.946-7.063-7.453-12.017-14.504-11.076
		c-7.063,0.946-12.021,7.439-11.076,14.503L338.315,439.822z"/>
</g>
<g>
</g>
<g>
</g>
<g>
</g>
<g>
</g>
<g>
</g>
<g>
</g>
<g>
</g>
<g>
</g>
<g>
</g>
<g>
</g>
<g>
</g>
<g>
</g>
<g>
</g>
<g>
</g>
<g>
</g>
</svg>
