<?xml version="1.0" encoding="iso-8859-1"?>
<!-- Generator: Adobe Illustrator 19.0.0, SVG Export Plug-In . SVG Version: 6.00 Build 0)  -->
<svg version="1.1" id="Layer_1" xmlns="http://www.w3.org/2000/svg" xmlns:xlink="http://www.w3.org/1999/xlink" x="0px" y="0px"
	 viewBox="0 0 800 800" style="enable-background:new 0 0 800 800;" xml:space="preserve">
<g>
	<polygon style="fill:#ED1F34;" points="449.322,153.837 680.324,153.837 449.322,307.836 	"/>
	<polygon style="fill:#ED1F34;" points="450.322,305.968 677.021,154.837 450.322,154.837 	"/>
	<polygon style="fill:#ED1F34;" points="562.902,449.32 775.193,449.32 775.193,590.847 	"/>
	<polygon style="fill:#ED1F34;" points="774.193,450.32 566.205,450.32 774.193,588.978 	"/>
	<path style="fill:#ED1F34;" d="M76.419,363.579v-1c0-6.563-5.34-11.903-11.903-11.903H24.807V209.147l212.292,141.528h-120.97
		c-6.563,0-11.903,5.34-11.903,11.903v1L76.419,363.579L76.419,363.579z"/>
	<path style="fill:#ED1F34;" d="M116.129,349.675h117.667L25.807,211.016v138.66h38.709c7.128,0,12.903,5.776,12.903,12.903h25.806
		C103.226,355.451,109.001,349.675,116.129,349.675z"/>
	<polygon style="fill:#ED1F34;" points="562.901,350.675 775.193,209.147 775.193,350.675 	"/>
	<polygon style="fill:#ED1F34;" points="774.193,211.016 566.204,349.675 774.193,349.675 	"/>
	<path style="fill:#ED1F34;" d="M449.322,646.159v-39.71c0-6.563-5.34-11.902-11.903-11.902h-1V566.74h1
		c6.563,0,11.903-5.34,11.903-11.903v-62.679l231.002,154.001H449.322z"/>
	<path style="fill:#ED1F34;" d="M450.322,606.449v38.71h226.699L450.322,494.026v60.811c0,7.128-5.775,12.903-12.903,12.903v25.807
		C444.547,593.547,450.322,599.322,450.322,606.449z"/>
	<polygon style="fill:#ED1F34;" points="24.807,449.32 237.099,449.32 24.807,590.847 	"/>
	<polygon style="fill:#ED1F34;" points="233.796,450.32 25.807,450.32 25.807,588.978 	"/>
	<polygon style="fill:#ED1F34;" points="119.675,153.837 350.678,153.837 350.678,307.836 	"/>
	<polygon style="fill:#ED1F34;" points="349.678,305.968 349.678,154.837 122.978,154.837 	"/>
	<polygon style="fill:#ED1F34;" points="119.675,646.159 350.678,492.158 350.678,646.159 	"/>
	<polygon style="fill:#ED1F34;" points="349.678,494.026 122.978,645.159 349.678,645.159 	"/>
	<polygon style="fill:#259245;" points="449.322,350.675 449.322,336.449 723.241,153.837 775.193,153.837 775.193,180.535 
		519.984,350.675 	"/>
	<polygon style="fill:#259245;" points="450.322,349.675 519.682,349.675 774.193,180 774.193,154.837 723.544,154.837 
		450.322,336.984 	"/>
	<polygon style="fill:#259245;" points="723.241,646.159 449.322,463.546 449.322,449.32 519.986,449.32 775.193,619.459 
		775.193,646.159 	"/>
	<polygon style="fill:#259245;" points="774.193,619.994 519.684,450.32 450.322,450.32 450.322,463.011 723.544,645.159 
		774.193,645.159 	"/>
	<polygon style="fill:#259245;" points="280.017,350.675 24.807,180.535 24.807,153.837 76.759,153.837 350.678,336.449 
		350.678,350.675 	"/>
	<polygon style="fill:#259245;" points="25.807,180 280.32,349.675 349.678,349.675 349.678,336.984 76.456,154.837 25.807,154.837 
			"/>
	<polygon style="fill:#259245;" points="24.807,646.159 24.807,619.459 280.016,449.32 350.678,449.32 350.678,463.546 
		76.759,646.159 	"/>
	<polygon style="fill:#259245;" points="349.678,450.32 280.318,450.32 25.807,619.994 25.807,645.159 76.456,645.159 
		349.678,463.011 	"/>
	<path d="M800,613.005V186.99c0-0.012,0-0.026,0-0.026v-45.03c0-7.128-5.775-12.903-12.903-12.903h-67.388c-0.003,0-0.005,0-0.009,0
		H80.32c-0.014,0-0.027,0-0.04,0H12.903C5.775,129.03,0,134.806,0,141.934v45.019c0,0,0,0.027,0,0.038v426.015
		c0,0.012,0,0.025,0,0.025v45.032c0,7.128,5.775,12.903,12.903,12.903h67.444c0.008,0,0.019,0.002,0.027,0.002
		s0.016-0.002,0.024-0.002h639.204c0.009,0,0.016,0.002,0.024,0.002s0.019-0.002,0.027-0.002h67.442
		c7.128,0,12.903-5.775,12.903-12.903v-45.019C800,613.044,800,613.017,800,613.005z M723.544,645.159L450.322,463.011V450.32
		h69.361l254.51,169.675v25.165L723.544,645.159L723.544,645.159z M774.193,450.32v138.66L566.205,450.32H774.193z M774.193,154.837
		v25.165L519.682,349.675h-69.359v-12.691l273.222-182.147L774.193,154.837L774.193,154.837z M774.193,211.016v138.66H566.204
		L774.193,211.016z M450.322,305.968V154.837h226.699L450.322,305.968z M424.516,362.579c0,7.128,5.776,12.903,12.903,12.903
		h336.774v49.033H437.419c-7.127,0-12.903,5.775-12.903,12.902v117.42c0,7.128,5.776,12.903,12.903,12.903
		c7.128,0,12.903-5.775,12.903-12.903v-60.811l226.699,151.133H450.322v-38.71c0-7.127-5.775-12.902-12.903-12.902
		c-7.127,0-12.903,5.775-12.903,12.902v38.71h-49.031V437.417c0-7.127-5.776-12.902-12.903-12.902H25.807v-49.033h38.709
		c7.128,0,12.903-5.775,12.903-12.903l0,0c0-7.127-5.775-12.903-12.903-12.903H25.807v-138.66l207.989,138.66H116.129
		c-7.127,0-12.903,5.776-12.903,12.903l0,0c0,7.128,5.776,12.903,12.903,12.903h246.452c7.127,0,12.903-5.775,12.903-12.903V154.837
		h49.031L424.516,362.579L424.516,362.579z M233.796,450.32L25.807,588.978V450.32H233.796z M25.807,645.159v-25.165L280.319,450.32
		h69.359v12.692L76.456,645.159H25.807z M349.678,494.026v151.133h-226.7L349.678,494.026z M76.456,154.837l273.222,182.147v12.691
		H280.32L25.807,180v-25.163H76.456z M349.678,305.968l-226.7-151.131h226.7V305.968z"/>
	<path style="fill:#FFFFFF;" d="M375.484,362.579c0,7.128-5.776,12.903-12.903,12.903H116.129c-7.127,0-12.903-5.775-12.903-12.903
		l0,0H77.419l0,0c0,7.128-5.775,12.903-12.903,12.903H25.807v49.033h336.774c7.127,0,12.903,5.775,12.903,12.902v207.742h49.031
		v-38.71c0-7.127,5.776-12.902,12.903-12.902V567.74c-7.127,0-12.903-5.775-12.903-12.903v-117.42
		c0-7.127,5.776-12.902,12.903-12.902h336.774v-49.033H437.419c-7.127,0-12.903-5.775-12.903-12.903V154.837h-49.031
		L375.484,362.579L375.484,362.579z"/>
</g>
<g>
</g>
<g>
</g>
<g>
</g>
<g>
</g>
<g>
</g>
<g>
</g>
<g>
</g>
<g>
</g>
<g>
</g>
<g>
</g>
<g>
</g>
<g>
</g>
<g>
</g>
<g>
</g>
<g>
</g>
</svg>
