<?xml version="1.0" encoding="iso-8859-1"?>
<!-- Generator: Adobe Illustrator 19.0.0, SVG Export Plug-In . SVG Version: 6.00 Build 0)  -->
<svg version="1.1" id="Layer_1" xmlns="http://www.w3.org/2000/svg" xmlns:xlink="http://www.w3.org/1999/xlink" x="0px" y="0px"
	 viewBox="0 0 799.999 799.999" style="enable-background:new 0 0 799.999 799.999;" xml:space="preserve">
<g>
	<path style="fill:#ED1F34;" d="M116.934,645.877l-92.127-86.471v-60.479l9.688-9.096c2.588-2.428,5.966-3.766,9.512-3.766
		c3.827,0,7.523,1.6,10.142,4.389c5.247,5.591,4.967,14.407-0.623,19.654l-20.307,19.057l48.501,45.523l48.502-45.523
		L24.807,430.228v-60.479l9.688-9.091c2.588-2.428,5.966-3.766,9.513-3.766c3.827,0,7.522,1.6,10.14,4.39
		c2.542,2.707,3.876,6.243,3.759,9.955c-0.118,3.712-1.674,7.156-4.382,9.697l-20.306,19.055L81.72,445.51l48.502-45.521
		L24.807,301.055v-60.478l9.687-9.091c2.588-2.429,5.966-3.767,9.513-3.767c3.827,0,7.523,1.6,10.14,4.39
		c2.542,2.708,3.877,6.243,3.759,9.955s-1.674,7.155-4.382,9.696l-20.303,19.054l48.5,45.519l48.5-45.519L24.807,171.889v-18.335
		h21.098l35.816,33.612l35.816-33.612h21.098v18.335l-36.597,34.347l36.597,34.344v60.478l-36.597,34.345l36.597,34.348v60.478
		l-36.598,34.35l36.598,34.35v60.479l-36.598,34.35l36.598,34.351v17.771h-21.701V645.877z"/>
	<path style="fill:#ED1F34;" d="M265.667,486.736v-1c0-6.563-5.339-11.903-11.903-11.903h-91.323V153.554h612.752v320.279H305.376
		c-6.563,0-11.903,5.34-11.903,11.903v1H265.667z"/>
	<path style="fill:#259245;" d="M162.441,645.877V497.64h91.323c6.563,0,11.903-5.34,11.903-11.903v-1h27.807v1
		c0,6.563,5.34,11.903,11.903,11.903h469.817v148.237H162.441z"/>
	<polygon style="fill:#FFFFFF;" points="117.932,154.554 45.509,154.554 81.72,188.538 	"/>
	<path style="fill:#FFFFFF;" d="M53.417,232.795c4.877,5.198,4.618,13.363-0.578,18.238l-21.08,19.783l49.961,46.891l49.961-46.891
		l-105.874-99.36v69.555l9.371-8.795C40.377,227.337,48.542,227.6,53.417,232.795z"/>
	<polygon style="fill:#FFFFFF;" points="137.634,241.011 137.634,171.456 100.576,206.234 	"/>
	<polygon style="fill:#FFFFFF;" points="137.634,370.182 137.634,300.624 100.576,335.402 	"/>
	<path style="fill:#FFFFFF;" d="M53.419,361.965c4.877,5.196,4.618,13.363-0.578,18.238l-21.084,19.786l49.963,46.892l49.963-46.892
		L25.807,300.622v69.56l9.373-8.796C40.378,356.506,48.543,356.77,53.419,361.965z"/>
	<polygon style="fill:#FFFFFF;" points="137.634,499.359 137.634,429.795 100.575,464.577 	"/>
	<path style="fill:#FFFFFF;" d="M53.421,620.319c4.877,5.197,4.62,13.362-0.578,18.239l-6.732,6.318h71.219l-91.523-85.903v69.567
		l9.375-8.8C40.38,614.861,48.545,615.125,53.421,620.319z"/>
	<path style="fill:#FFFFFF;" d="M53.419,491.139c4.877,5.197,4.619,13.362-0.578,18.24l-21.084,19.786L81.72,576.06l49.963-46.895
		l-105.877-99.37v69.563l9.373-8.799C40.378,485.682,48.543,485.945,53.419,491.139z"/>
	<polygon style="fill:#FFFFFF;" points="137.634,628.539 137.634,558.974 100.575,593.758 	"/>
	<path style="fill:#ED1F34;" d="M146.773,670.683c1.227,0.374,2.493,0.568,3.763,0.568c1.28,0,2.56-0.191,3.792-0.568H146.773z"/>
	<path style="fill:#ED1F34;" d="M137.634,644.877v-16.338l-37.06-34.783l37.06-34.782v-59.615l-37.06-34.782l37.06-34.782v-59.613
		l-37.058-34.78l37.058-34.778v-59.611l-37.058-34.777l37.058-34.78v-16.902h-19.702L81.72,188.538l-36.211-33.984H25.807v16.902
		l105.875,99.36l-49.961,46.89l-49.961-46.89l21.08-19.783c5.196-4.876,5.456-13.042,0.578-18.238
		c-4.875-5.196-13.041-5.457-18.24-0.578l-9.371,8.795v59.611l105.877,99.367L81.72,446.881l-49.963-46.892l21.084-19.785
		c5.196-4.875,5.456-13.042,0.578-18.238c-4.876-5.196-13.041-5.457-18.24-0.578l-9.373,8.795v59.613l105.877,99.37L81.72,576.06
		l-49.963-46.895l21.084-19.786c5.197-4.878,5.456-13.043,0.578-18.24c-4.876-5.193-13.041-5.457-18.24-0.578l-9.373,8.799v59.614
		l91.523,85.903H137.634z"/>
	<path style="fill:#ED1F34;" d="M0.007,657.923c-0.108,3.305,1.044,6.652,3.487,9.256c2.541,2.706,5.972,4.072,9.413,4.072
		c1.268,0,2.534-0.194,3.761-0.568h-3.764C5.824,670.683,0.084,664.981,0.007,657.923z"/>
	<path style="fill:#ED1F34;" d="M52.843,638.559c5.198-4.877,5.456-13.042,0.578-18.239c-4.875-5.194-13.041-5.458-18.24-0.578
		l-9.375,8.8v16.336H46.11L52.843,638.559z"/>
	<path style="fill:#ED1F34;" d="M1.739,135.201c0.104-0.179,0.21-0.354,0.32-0.526C1.948,134.846,1.843,135.023,1.739,135.201z"/>
	<path style="fill:#ED1F34;" d="M1.16,136.326c0.086-0.191,0.177-0.379,0.272-0.564C1.335,135.947,1.246,136.135,1.16,136.326z"/>
	<path style="fill:#ED1F34;" d="M2.438,134.122c0.113-0.158,0.23-0.316,0.351-0.47C2.668,133.806,2.553,133.964,2.438,134.122z"/>
	<path style="fill:#ED1F34;" d="M0.697,137.492c0.067-0.198,0.138-0.394,0.215-0.586C0.834,137.102,0.764,137.296,0.697,137.492z"/>
	<path style="fill:#ED1F34;" d="M7.202,130.089c0.189-0.095,0.378-0.193,0.573-0.277C7.582,129.895,7.393,129.995,7.202,130.089z"/>
	<path style="fill:#ED1F34;" d="M3.494,132.821c-0.084,0.09-0.155,0.188-0.236,0.279c0.123-0.139,0.245-0.277,0.374-0.411
		C3.587,132.735,3.539,132.775,3.494,132.821z"/>
	<path style="fill:#ED1F34;" d="M4.148,132.19c0.141-0.131,0.28-0.265,0.428-0.389C4.43,131.925,4.291,132.059,4.148,132.19z"/>
	<path style="fill:#ED1F34;" d="M0.351,138.707c0.048-0.205,0.098-0.408,0.156-0.607C0.449,138.301,0.397,138.504,0.351,138.707z"/>
	<path style="fill:#ED1F34;" d="M5.084,131.402c0.167-0.127,0.332-0.258,0.506-0.378C5.417,131.144,5.252,131.275,5.084,131.402z"/>
	<path style="fill:#ED1F34;" d="M10.801,128.933c0.201-0.033,0.403-0.069,0.607-0.093C11.205,128.864,11.004,128.9,10.801,128.933z"
		/>
	<path style="fill:#ED1F34;" d="M0.122,139.97c0.028-0.217,0.06-0.434,0.098-0.647C0.181,139.538,0.15,139.753,0.122,139.97z"/>
	<path style="fill:#ED1F34;" d="M0.019,141.272c0.007-0.235,0.015-0.471,0.036-0.704C0.036,140.804,0.026,141.038,0.019,141.272z"/>
	<path style="fill:#ED1F34;" d="M12.021,128.792c0.226-0.015,0.451-0.031,0.68-0.034C12.473,128.761,12.246,128.777,12.021,128.792z
		"/>
	<path style="fill:#ED1F34;" d="M6.096,130.704c0.186-0.117,0.372-0.236,0.564-0.342C6.467,130.468,6.283,130.586,6.096,130.704z"/>
	<path style="fill:#ED1F34;" d="M9.593,129.191c0.186-0.05,0.37-0.104,0.559-0.143C9.965,129.09,9.779,129.143,9.593,129.191z"/>
	<path style="fill:#ED1F34;" d="M8.384,129.577c0.184-0.071,0.368-0.143,0.556-0.203C8.752,129.434,8.569,129.508,8.384,129.577z"/>
	<path style="fill:#ED1F34;" d="M305.376,472.833h468.817V154.554H163.441v318.279h90.323c7.127,0,12.903,5.777,12.903,12.903
		h25.807C292.473,478.61,298.249,472.833,305.376,472.833z"/>
	<path style="fill:#259245;" d="M305.376,498.64c-7.127,0-12.903-5.777-12.903-12.903l0,0h-25.807l0,0
		c0,7.126-5.775,12.903-12.903,12.903H163.44v146.237h610.752V498.64H305.376z"/>
	<path d="M787.097,128.748H12.903c-0.069,0-0.134,0.008-0.203,0.01c-0.229,0.003-0.454,0.019-0.68,0.034
		c-0.205,0.014-0.409,0.026-0.611,0.048c-0.205,0.024-0.406,0.06-0.607,0.093c-0.217,0.036-0.436,0.069-0.649,0.115
		c-0.189,0.042-0.373,0.095-0.559,0.143c-0.218,0.059-0.438,0.112-0.652,0.182c-0.189,0.06-0.372,0.134-0.556,0.203
		c-0.203,0.076-0.41,0.148-0.609,0.234c-0.196,0.084-0.383,0.183-0.573,0.277c-0.182,0.089-0.366,0.175-0.542,0.273
		c-0.192,0.106-0.376,0.225-0.564,0.342c-0.169,0.105-0.341,0.208-0.504,0.32c-0.174,0.121-0.339,0.251-0.506,0.378
		c-0.17,0.131-0.342,0.26-0.507,0.399c-0.146,0.125-0.288,0.258-0.428,0.389c-0.176,0.164-0.351,0.325-0.518,0.499
		c-0.129,0.132-0.251,0.272-0.374,0.411c-0.16,0.181-0.318,0.363-0.468,0.552c-0.122,0.153-0.237,0.312-0.351,0.47
		c-0.13,0.181-0.258,0.363-0.378,0.552c-0.112,0.172-0.217,0.349-0.32,0.526c-0.107,0.184-0.21,0.37-0.308,0.561
		c-0.095,0.186-0.186,0.373-0.272,0.564c-0.087,0.19-0.17,0.385-0.248,0.581c-0.076,0.193-0.148,0.389-0.215,0.587
		c-0.069,0.199-0.133,0.402-0.191,0.607c-0.057,0.199-0.108,0.402-0.156,0.607c-0.048,0.203-0.091,0.408-0.129,0.616
		c-0.04,0.213-0.071,0.43-0.098,0.647c-0.026,0.198-0.05,0.397-0.067,0.599c-0.019,0.232-0.029,0.468-0.036,0.704
		C0.016,141.399,0,141.523,0,141.65v516.129c0,0.049,0.007,0.095,0.007,0.144c0.078,7.059,5.817,12.76,12.896,12.76h3.764h130.106
		h7.554h632.769c7.128,0,12.903-5.777,12.903-12.903V141.65C800,134.524,794.225,128.748,787.097,128.748z M25.807,628.541v-69.567
		v-59.615v-69.563v-59.613v-69.561v-59.611v-69.557v-16.902h19.702h72.423h19.702v16.902v69.555v59.611v69.56v59.613v69.564v59.614
		v69.565v16.338H117.33H46.111H25.807V628.541z M163.441,644.877V498.64h90.323c7.127,0,12.903-5.777,12.903-12.903l0,0
		c0-7.126-5.775-12.903-12.903-12.903h-90.323v-318.28h610.752v318.279H305.376c-7.127,0-12.903,5.777-12.903,12.903l0,0
		c0,7.126,5.776,12.903,12.903,12.903h468.817v146.237L163.441,644.877L163.441,644.877z"/>
</g>
<g>
</g>
<g>
</g>
<g>
</g>
<g>
</g>
<g>
</g>
<g>
</g>
<g>
</g>
<g>
</g>
<g>
</g>
<g>
</g>
<g>
</g>
<g>
</g>
<g>
</g>
<g>
</g>
<g>
</g>
</svg>
