<?xml version="1.0" encoding="iso-8859-1"?>
<!-- Generator: Adobe Illustrator 19.0.0, SVG Export Plug-In . SVG Version: 6.00 Build 0)  -->
<svg version="1.1" id="Layer_1" xmlns="http://www.w3.org/2000/svg" xmlns:xlink="http://www.w3.org/1999/xlink" x="0px" y="0px"
	 viewBox="0 0 799.999 799.999" style="enable-background:new 0 0 799.999 799.999;" xml:space="preserve">
<g>
	<path style="fill:#FFE000;" d="M282.871,646.161V153.839h234.258v91.322c0,6.563,5.34,11.903,11.903,11.903h1v27.807h-1
		c-6.563,0-11.903,5.34-11.903,11.903v349.387H282.871z"/>
	<path style="fill:#FFE000;" d="M516.129,245.161v-90.322H283.871v490.322h232.258V296.773c0-7.126,5.777-12.903,12.903-12.903
		v-25.807C521.906,258.064,516.129,252.287,516.129,245.161z"/>
	<path style="fill:#ED1F34;" d="M695.774,659.064v-1c0-6.563-5.34-11.903-11.903-11.903H540.936V296.773
		c0-6.563-5.34-11.903-11.903-11.903h-1v-27.807h1c6.563,0,11.903-5.34,11.903-11.903v-91.322h234.258V646.16h-39.709
		c-6.563,0-11.903,5.34-11.903,11.903v1L695.774,659.064L695.774,659.064z"/>
	<path style="fill:#ED1F34;" d="M735.484,645.161h38.709V154.839H541.936v90.322c0,7.126-5.777,12.903-12.903,12.903v25.807
		c7.126,0,12.903,5.777,12.903,12.903v348.387h141.936c7.126,0,12.903,5.777,12.903,12.903h25.807
		C722.581,650.938,728.357,645.161,735.484,645.161z"/>
	<rect x="24.807" y="153.839" style="fill:#333333;" width="234.258" height="492.322"/>
	<rect x="25.807" y="154.839" style="fill:#333333;" width="232.258" height="490.322"/>
	<path d="M787.097,129.032H12.903C5.777,129.032,0,134.81,0,141.936v516.129c0,7.126,5.777,12.903,12.903,12.903h670.968
		c7.126,0,12.903-5.777,12.903-12.903s-5.777-12.903-12.903-12.903H541.936V296.773c0-7.126-5.777-12.903-12.903-12.903
		s-12.903,5.777-12.903,12.903v348.387H283.871V154.839h232.258v90.322c0,7.126,5.777,12.903,12.903,12.903
		s12.903-5.777,12.903-12.903v-90.322h232.258v490.322h-38.709c-7.127,0-12.903,5.777-12.903,12.903s5.776,12.903,12.903,12.903
		h51.612c7.126,0,12.903-5.777,12.903-12.903V141.936C800,134.81,794.223,129.032,787.097,129.032z M25.807,154.839h232.258v490.322
		H25.807V154.839z"/>
</g>
<g>
</g>
<g>
</g>
<g>
</g>
<g>
</g>
<g>
</g>
<g>
</g>
<g>
</g>
<g>
</g>
<g>
</g>
<g>
</g>
<g>
</g>
<g>
</g>
<g>
</g>
<g>
</g>
<g>
</g>
</svg>
