<?xml version="1.0" encoding="iso-8859-1"?>
<!-- Generator: Adobe Illustrator 19.0.0, SVG Export Plug-In . SVG Version: 6.00 Build 0)  -->
<svg version="1.1" id="Layer_1" xmlns="http://www.w3.org/2000/svg" xmlns:xlink="http://www.w3.org/1999/xlink" x="0px" y="0px"
	 viewBox="0 0 799.999 799.999" style="enable-background:new 0 0 799.999 799.999;" xml:space="preserve">
<g>
	<path style="fill:#103B9B;" d="M644.161,584.225v-1c0-6.563-5.34-11.903-11.903-11.903H24.807V228.676h750.387v342.645h-91.322
		c-6.563,0-11.903,5.34-11.903,11.903v1L644.161,584.225L644.161,584.225z M400,269.386c-72.02,0-130.613,58.593-130.613,130.613
		c0,72.021,58.593,130.613,130.613,130.613c72.021,0,130.613-58.593,130.613-130.613C530.613,327.979,472.021,269.386,400,269.386z"
		/>
	<path style="fill:#103B9B;" d="M683.871,570.321h90.322V229.676H25.807v340.645h606.451c7.128,0,12.903,5.775,12.903,12.903h25.807
		C670.968,576.097,676.743,570.321,683.871,570.321z M400,531.612c-72.688,0-131.613-58.925-131.613-131.613
		S327.311,268.386,400,268.386s131.613,58.925,131.613,131.613S472.688,531.612,400,531.612z"/>
	<rect x="24.807" y="153.838" style="fill:#ED1F34;" width="750.387" height="51.032"/>
	<rect x="25.807" y="154.838" style="fill:#ED1F34;" width="748.387" height="49.032"/>
	<path style="fill:#ED1F34;" d="M24.807,646.16v-51.032h607.451c6.563,0,11.903-5.34,11.903-11.903v-1h27.807v1
		c0,6.563,5.34,11.903,11.903,11.903h91.322v51.032H24.807z"/>
	<path style="fill:#ED1F34;" d="M683.871,596.128c-7.128,0-12.903-5.775-12.903-12.903h-25.807c0,7.128-5.775,12.903-12.903,12.903
		H25.807v49.032h748.387v-49.032H683.871z"/>
	<path d="M787.097,129.031H12.903C5.775,129.031,0,134.807,0,141.935v516.129c0,7.128,5.775,12.903,12.903,12.903h774.193
		c7.128,0,12.903-5.775,12.903-12.903V141.935C800,134.807,794.225,129.031,787.097,129.031z M774.193,154.838v49.032H25.807
		v-49.032H774.193z M25.807,645.16v-49.032h606.451c7.128,0,12.903-5.775,12.903-12.903s-5.775-12.903-12.903-12.903H25.807V229.676
		h748.387v340.645h-90.322c-7.128,0-12.903,5.775-12.903,12.903s5.775,12.903,12.903,12.903h90.322v49.032L25.807,645.16
		L25.807,645.16z"/>
	<path style="fill:#FFFFFF;" d="M400,311.397c-48.855,0-88.603,39.747-88.603,88.602s39.747,88.603,88.603,88.603
		s88.603-39.747,88.603-88.603C488.603,351.144,448.855,311.397,400,311.397z M449.273,413.44c0,29.354-23.489,47.054-45.472,53.829
		c-1.238,0.382-2.52,0.573-3.802,0.573c-1.281,0-2.563-0.191-3.802-0.573c-21.98-6.775-45.472-24.477-45.472-53.829v-58.061
		c0-7.128,5.775-12.903,12.903-12.903h72.738c7.128,0,12.903,5.775,12.903,12.903v58.061H449.273z"/>
	<path style="fill:#FFFFFF;" d="M400,268.386c-72.688,0-131.613,58.925-131.613,131.613S327.311,531.612,400,531.612
		s131.613-58.925,131.613-131.613S472.688,268.386,400,268.386z M400,514.407c-63.085,0-114.409-51.323-114.409-114.408
		S336.915,285.59,400,285.59s114.408,51.324,114.408,114.409S463.085,514.407,400,514.407z"/>
	<path style="fill:#259245;" d="M400,285.59c-63.085,0-114.409,51.324-114.409,114.409S336.915,514.407,400,514.407
		s114.408-51.323,114.408-114.408S463.085,285.59,400,285.59z M400,488.602c-48.855,0-88.603-39.747-88.603-88.603
		c0-48.855,39.747-88.602,88.603-88.602s88.603,39.747,88.603,88.602S448.855,488.602,400,488.602z"/>
	<path style="fill:#FFE000;" d="M399.635,442.206c-9.001-3.525-24.102-11.95-24.102-28.766v-46.158h48.934v46.158
		c0,16.815-15.101,25.24-24.102,28.766L400,442.35L399.635,442.206z"/>
	<path style="fill:#FFE000;" d="M376.533,413.44c0,16.334,15.002,24.52,23.467,27.835c8.465-3.315,23.467-11.501,23.467-27.835
		v-45.158h-46.934L376.533,413.44L376.533,413.44z"/>
	<path d="M436.37,342.477h-72.74c-7.128,0-12.903,5.775-12.903,12.903v58.061c0,29.354,23.489,47.054,45.472,53.829
		c1.238,0.382,2.521,0.573,3.802,0.573c1.282,0,2.563-0.191,3.802-0.573c21.98-6.775,45.472-24.477,45.472-53.829V355.38
		C449.273,348.254,443.496,342.477,436.37,342.477z M423.467,413.44c0,16.334-15.002,24.52-23.467,27.835
		c-8.465-3.315-23.467-11.501-23.467-27.835v-45.158h46.932v45.158H423.467z"/>
</g>
<g>
</g>
<g>
</g>
<g>
</g>
<g>
</g>
<g>
</g>
<g>
</g>
<g>
</g>
<g>
</g>
<g>
</g>
<g>
</g>
<g>
</g>
<g>
</g>
<g>
</g>
<g>
</g>
<g>
</g>
</svg>
