<?xml version="1.0" encoding="iso-8859-1"?>
<!-- Generator: Adobe Illustrator 19.0.0, SVG Export Plug-In . SVG Version: 6.00 Build 0)  -->
<svg version="1.1" id="Layer_1" xmlns="http://www.w3.org/2000/svg" xmlns:xlink="http://www.w3.org/1999/xlink" x="0px" y="0px"
	 viewBox="0 0 799.999 799.999" style="enable-background:new 0 0 799.999 799.999;" xml:space="preserve">
<g>
	<path style="fill:#ED1F34;" d="M282.871,646.16v-39.71c0-6.563-5.34-11.902-11.903-11.902h-1v-27.807h1
		c6.563,0,11.903-5.34,11.903-11.903V411.902h492.322V646.16H282.871z"/>
	<path style="fill:#ED1F34;" d="M774.193,645.16V412.902H283.871v141.936c0,7.128-5.777,12.903-12.903,12.903v25.807
		c7.126,0,12.903,5.775,12.903,12.902v38.71H774.193z"/>
	<rect x="282.871" y="153.838" style="fill:#FFE000;" width="492.322" height="234.258"/>
	<rect x="283.871" y="154.838" style="fill:#FFE000;" width="490.322" height="232.258"/>
	<path style="fill:#259245;" d="M24.807,646.16V153.838h234.258v401c0,6.563,5.34,11.903,11.903,11.903h1v27.807h-1
		c-6.563,0-11.903,5.34-11.903,11.902v39.71H24.807z"/>
	<path style="fill:#259245;" d="M258.064,554.838v-400H25.807V645.16h232.258v-38.71c0-7.127,5.777-12.902,12.903-12.902v-25.807
		C263.842,567.741,258.064,561.966,258.064,554.838z"/>
	<path d="M787.097,129.031H12.903C5.777,129.031,0,134.807,0,141.935v516.129c0,7.128,5.777,12.903,12.903,12.903h774.193
		c7.128,0,12.903-5.775,12.903-12.903V141.935C800,134.807,794.225,129.031,787.097,129.031z M270.968,593.548
		c-7.126,0-12.903,5.775-12.903,12.902v38.71H25.807V154.838h232.258v400c0,7.128,5.777,12.903,12.903,12.903
		s12.903-5.775,12.903-12.903V412.902h490.322V645.16H283.871v-38.71C283.871,599.323,278.094,593.548,270.968,593.548z
		 M774.193,387.096H283.871V154.838h490.322V387.096z"/>
</g>
<g>
</g>
<g>
</g>
<g>
</g>
<g>
</g>
<g>
</g>
<g>
</g>
<g>
</g>
<g>
</g>
<g>
</g>
<g>
</g>
<g>
</g>
<g>
</g>
<g>
</g>
<g>
</g>
<g>
</g>
</svg>
