<?xml version="1.0" encoding="iso-8859-1"?>
<!-- Generator: Adobe Illustrator 19.0.0, SVG Export Plug-In . SVG Version: 6.00 Build 0)  -->
<svg version="1.1" id="Layer_1" xmlns="http://www.w3.org/2000/svg" xmlns:xlink="http://www.w3.org/1999/xlink" x="0px" y="0px"
	 viewBox="0 0 800 800" style="enable-background:new 0 0 800 800;" xml:space="preserve">
<g>
	<polygon style="fill:#103B9B;" points="318.213,237.138 388.097,190.548 388.097,237.138 	"/>
	<polygon style="fill:#103B9B;" points="91.763,153.848 172.613,153.848 172.613,207.749 	"/>
	<polygon style="fill:#103B9B;" points="91.77,388.099 172.613,334.204 172.613,388.1 	"/>
	<polygon style="fill:#103B9B;" points="240.291,388.102 240.291,334.204 321.141,388.104 	"/>
	<polygon style="fill:#103B9B;" points="318.213,304.815 388.097,304.815 388.097,351.404 	"/>
	<polygon style="fill:#103B9B;" points="240.291,153.848 321.141,153.848 240.291,207.749 	"/>
	<polygon style="fill:#103B9B;" points="24.807,304.815 94.69,304.815 24.807,351.404 	"/>
	<polygon style="fill:#103B9B;" points="24.807,237.138 24.807,190.548 94.69,237.138 	"/>
	<polygon style="fill:#ED1F34;" points="28.967,388.097 153.891,304.815 172.613,304.815 172.613,322.649 74.441,388.099 	"/>
	<polygon style="fill:#ED1F34;" points="240.291,237.138 240.291,219.31 338.473,153.848 383.948,153.848 259.012,237.138 	"/>
	<polygon style="fill:#ED1F34;" points="380.343,388.105 255.407,304.815 300.227,304.815 388.097,363.533 388.097,388.105 	"/>
	<polygon style="fill:#ED1F34;" points="111.752,237.138 24.807,179.035 24.807,153.848 32.561,153.848 157.496,237.138 	"/>
	<polygon style="fill:#ED1F34;" points="186.742,388.1 186.742,290.686 24.807,290.686 24.807,251.267 186.742,251.267 
		186.742,153.848 226.161,153.848 226.161,251.267 388.097,251.267 388.097,290.686 226.161,290.686 226.161,388.102 	"/>
	<path style="fill:#ED1F34;" d="M683.871,645.17h90.322V154.848h-361.29v245.162c0,3.422-1.359,6.704-3.78,9.123
		c-2.419,2.421-5.701,3.78-9.123,3.78l-374.193-0.009V645.17h606.451c7.126,0,12.903,5.777,12.903,12.903h25.807
		C670.968,650.948,676.745,645.17,683.871,645.17z M625.486,520.17c-9.285,3.979-18.058,7.737-24.447,12.295
		c-2.241,1.598-4.865,2.397-7.49,2.397c-2.626,0-5.249-0.798-7.491-2.397c-6.392-4.556-15.162-8.315-24.447-12.295
		c-28.271-12.113-66.986-28.701-66.986-85.656V278.06c0-7.126,5.776-12.903,12.903-12.903H679.57
		c7.126,0,12.902,5.777,12.902,12.903v156.454C692.473,491.469,653.757,508.057,625.486,520.17z"/>
	<polygon style="fill:#103B9B;" points="387.097,236.138 387.097,192.418 321.516,236.138 	"/>
	<polygon style="fill:#103B9B;" points="171.613,154.848 95.066,154.848 171.613,205.879 	"/>
	<polygon style="fill:#103B9B;" points="95.073,387.099 171.613,387.1 171.613,336.072 	"/>
	<polygon style="fill:#103B9B;" points="241.291,387.102 317.838,387.104 241.291,336.072 	"/>
	<polygon style="fill:#103B9B;" points="387.097,349.535 387.097,305.815 321.516,305.815 	"/>
	<polygon style="fill:#103B9B;" points="317.838,154.848 241.291,154.848 241.291,205.879 	"/>
	<polygon style="fill:#103B9B;" points="25.807,305.815 25.807,349.535 91.388,305.815 	"/>
	<polygon style="fill:#103B9B;" points="25.807,192.418 25.807,236.138 91.388,236.138 	"/>
	<polygon style="fill:#ED1F34;" points="171.613,322.115 171.613,305.815 154.193,305.815 32.27,387.097 74.139,387.099 	"/>
	<polygon style="fill:#ED1F34;" points="241.291,236.138 258.709,236.138 380.646,154.848 338.775,154.848 241.291,219.845 	"/>
	<polygon style="fill:#ED1F34;" points="258.709,305.815 380.646,387.105 387.097,387.105 387.097,364.067 299.924,305.815 	"/>
	<polygon style="fill:#ED1F34;" points="154.193,236.138 32.258,154.848 25.807,154.848 25.807,178.5 112.055,236.138 	"/>
	<polygon style="fill:#FFFFFF;" points="187.742,252.267 187.742,154.848 171.613,154.848 171.613,205.879 95.066,154.848 
		32.258,154.848 154.193,236.138 112.055,236.138 25.807,178.5 25.807,192.418 91.388,236.138 25.807,236.138 25.807,252.267 	"/>
	<polygon style="fill:#FFFFFF;" points="225.161,289.686 225.161,387.102 241.291,387.102 241.291,336.072 317.838,387.104 
		380.646,387.105 258.709,305.815 299.924,305.815 387.097,364.067 387.097,349.535 321.516,305.815 387.097,305.815 
		387.097,289.686 	"/>
	<polygon style="fill:#FFFFFF;" points="225.161,252.267 387.097,252.267 387.097,236.138 321.516,236.138 387.097,192.418 
		387.097,154.848 380.646,154.848 258.709,236.138 241.291,236.138 241.291,219.845 338.775,154.848 317.838,154.848 
		241.291,205.879 241.291,154.848 225.161,154.848 	"/>
	<polygon style="fill:#FFFFFF;" points="171.613,305.815 171.613,322.115 74.139,387.099 95.073,387.099 171.613,336.072 
		171.613,387.1 187.742,387.1 187.742,289.686 25.807,289.686 25.807,305.815 91.388,305.815 25.807,349.535 25.807,387.097 
		32.27,387.097 154.193,305.815 	"/>
	<polygon style="fill:#ED1F34;" points="187.742,289.686 187.742,387.1 225.161,387.102 225.161,289.686 387.097,289.686 
		387.097,252.267 225.161,252.267 225.161,154.848 187.742,154.848 187.742,252.267 25.807,252.267 25.807,289.686 	"/>
	<path style="fill:#FFFFFF;" d="M520.43,434.514h37.531v-71.75c0-19.654,15.934-35.587,35.588-35.587s35.587,15.933,35.587,35.587
		v71.75h37.531V290.964H520.43V434.514z"/>
	<path style="fill:#259245;" d="M557.961,434.514H520.43c0,39.937,23.794,50.132,51.343,61.936
		c7.354,3.15,14.888,6.379,21.776,10.271c6.887-3.892,14.422-7.12,21.775-10.271c27.551-11.804,51.343-21.999,51.343-61.936h-37.531
		H557.961z"/>
	<path style="fill:#ED1F34;" d="M629.136,362.763c0-19.654-15.933-35.587-35.587-35.587s-35.588,15.933-35.588,35.587v71.75h71.173
		v-71.75H629.136z"/>
	<path d="M692.473,278.06c0-7.126-5.776-12.903-12.902-12.903H507.527c-7.127,0-12.903,5.777-12.903,12.903v156.454
		c0,56.955,38.716,73.545,66.986,85.656c9.285,3.979,18.058,7.737,24.447,12.295c2.242,1.598,4.865,2.397,7.491,2.397
		c2.625,0,5.249-0.798,7.49-2.397c6.392-4.556,15.162-8.315,24.447-12.295c28.271-12.113,66.986-28.701,66.986-85.656V278.06
		H692.473z M666.667,434.514c0,39.937-23.794,50.132-51.343,61.936c-7.354,3.15-14.887,6.379-21.775,10.271
		c-6.888-3.892-14.423-7.12-21.776-10.271c-27.551-11.804-51.343-21.999-51.343-61.936V290.964h146.237L666.667,434.514
		L666.667,434.514z"/>
	<path d="M787.097,129.042H400.334c-0.112-0.003-0.221-0.018-0.334-0.018s-0.222,0.014-0.334,0.018H12.903
		C5.777,129.042,0,134.818,0,141.944v516.129c0,7.126,5.777,12.903,12.903,12.903h619.354c7.126,0,12.903-5.777,12.903-12.903l0,0
		c0-7.126-5.777-12.903-12.903-12.903H25.807V412.904L400,412.912c3.422,0,6.704-1.359,9.123-3.78
		c2.421-2.419,3.78-5.701,3.78-9.123V154.848h361.29V645.17h-90.322c-7.126,0-12.903,5.777-12.903,12.903l0,0
		c0,7.126,5.777,12.903,12.903,12.903h103.226c7.126,0,12.903-5.777,12.903-12.903V141.944
		C800,134.818,794.223,129.042,787.097,129.042z M25.807,387.097v-37.562v-43.721v-16.129v-37.419v-16.129v-43.721v-13.917v-23.651
		h6.451h62.806h76.549h16.129h37.419h16.129h76.547h20.938h41.868h6.453v37.569v43.719v16.129v37.419v16.129v43.721v14.532v23.039
		h-6.451l-62.808-0.002l-76.547-0.001h-16.129h-37.419h-16.129l-76.54-0.002H74.139h-41.87h-6.462
		C25.807,387.1,25.807,387.097,25.807,387.097z"/>
</g>
<g>
</g>
<g>
</g>
<g>
</g>
<g>
</g>
<g>
</g>
<g>
</g>
<g>
</g>
<g>
</g>
<g>
</g>
<g>
</g>
<g>
</g>
<g>
</g>
<g>
</g>
<g>
</g>
<g>
</g>
</svg>
