<?xml version="1.0" encoding="iso-8859-1"?>
<!-- Generator: Adobe Illustrator 19.0.0, SVG Export Plug-In . SVG Version: 6.00 Build 0)  -->
<svg version="1.1" id="Layer_1" xmlns="http://www.w3.org/2000/svg" xmlns:xlink="http://www.w3.org/1999/xlink" x="0px" y="0px"
	 viewBox="0 0 799.999 799.999" style="enable-background:new 0 0 799.999 799.999;" xml:space="preserve">
<g>
	<path style="fill:#FFE000;" d="M24.807,646.161V262.366c0-6.563-5.34-11.903-11.903-11.903h-1v-27.807h1
		c6.563,0,11.903-5.339,11.903-11.903v-56.914h746.238l-150.76,100.506v-20.367c0-6.563-5.34-11.903-11.903-11.903
		s-11.903,5.34-11.903,11.903v1.824h-63.285v-18.205c0-6.563-5.34-11.903-11.903-11.903s-11.903,5.339-11.903,11.903v18.205h-11.749
		v-18.205c0-6.563-5.34-11.903-11.903-11.903s-11.903,5.339-11.903,11.903v18.205h-11.748v-35.409
		c0-6.563-5.34-11.903-11.903-11.903s-11.903,5.34-11.903,11.903v35.409H426.53v-35.409c0-6.563-5.34-11.903-11.903-11.903
		s-11.903,5.34-11.903,11.903v35.409H363.26c-57.927,0-105.054,47.127-105.054,105.054c0,47.188,31.807,88.853,77.349,101.32
		l2.116,0.58l-44.438,29.624h-121.19c-6.563,0-11.903,5.34-11.903,11.903s5.34,11.903,11.903,11.903h5.801l-0.735,1.452
		c-1.297,2.562-2.356,5.261-3.146,8.022l-0.208,0.725h-18.917c-6.563,0-11.903,5.34-11.903,11.903s5.34,11.903,11.903,11.903h18.918
		l0.208,0.725c0.792,2.763,1.85,5.462,3.146,8.023l0.735,1.451h-5.803c-6.563,0-11.903,5.34-11.903,11.903
		c0,2.26,0.647,4.469,1.871,6.387l0.527,0.826L32.561,646.161H24.807z"/>
	<path style="fill:#FFE000;" d="M25.807,262.366v382.795h6.451l128.91-85.94c-1.278-2.003-2.028-4.373-2.028-6.925
		c0-7.126,5.777-12.903,12.903-12.903h4.176c-1.318-2.604-2.398-5.347-3.216-8.199h-18.164c-7.126,0-12.903-5.777-12.903-12.903
		s5.777-12.903,12.903-12.903h18.163c0.817-2.854,1.897-5.597,3.215-8.199h-4.174c-7.126,0-12.903-5.777-12.903-12.903
		s5.777-12.903,12.903-12.903h46.049h74.839l42.36-28.239c-44.948-12.305-78.085-53.486-78.085-102.285
		c0-58.479,47.575-106.054,106.054-106.054h38.461v-34.409c0-7.126,5.775-12.903,12.903-12.903c7.127,0,12.903,5.777,12.903,12.903
		v34.409h9.749v-34.409c0-7.126,5.775-12.903,12.903-12.903s12.903,5.777,12.903,12.903v34.409h9.748v-17.205
		c0-7.126,5.775-12.903,12.903-12.903s12.903,5.777,12.903,12.903v17.205h9.749v-17.205c0-7.126,5.775-12.903,12.903-12.903
		s12.903,5.777,12.903,12.903v17.205h61.285v-0.824c0-7.126,5.775-12.903,12.903-12.903s12.903,5.777,12.903,12.903v13.726v4.772
		l146.457-97.638H25.807v55.914c0,7.126-5.777,12.903-12.903,12.903v25.807C20.029,249.462,25.807,255.24,25.807,262.366z"/>
	<path style="fill:#FFE000;" d="M351.024,340.855c0,6.746,5.488,12.236,12.234,12.236h73.481c9.681,0,19.052,1.33,27.969,3.77
		l42.36-28.241H363.259C356.513,328.618,351.024,334.109,351.024,340.855z"/>
	<path style="fill:#FF7900;" d="M28.955,646.161l132.507-88.339l0.549,0.86c2.203,3.454,5.953,5.517,10.032,5.517H279.71v9.603
		c0,20.793,16.917,37.709,37.709,37.709h35.27c6.563,0,11.903-5.34,11.903-11.903s-5.34-11.903-11.903-11.903h-35.27
		c-7.666,0-13.902-6.236-13.902-13.902V564.2h79.419v9.603c0,20.793,16.917,37.709,37.71,37.709h35.269
		c6.563,0,11.903-5.34,11.903-11.903s-5.34-11.903-11.903-11.903h-35.269c-7.666,0-13.903-6.236-13.903-13.902v-9.603h29.998
		c57.928,0,105.056-47.127,105.056-105.055c0-47.187-31.808-88.851-77.351-101.32l-2.117-0.579l44.438-29.626h2.62v9.623
		c0,20.793,16.917,37.709,37.71,37.709h35.269c6.563,0,11.903-5.339,11.903-11.903s-5.34-11.903-11.903-11.903h-35.269
		c-7.666,0-13.903-6.237-13.903-13.903v-9.623h41.183c21.182,0,39.512-14.368,44.576-34.941l0.103-0.417l0.373-0.213
		c3.712-2.118,6.019-6.079,6.019-10.338c0-3.764-1.735-7.229-4.763-9.506l-0.398-0.3v-19.962l147.154-98.103h7.754v492.322H28.955
		V646.161z"/>
	<path style="fill:#FF7900;" d="M621.285,271.405c3.13,2.355,5.161,6.088,5.161,10.305c0,4.804-2.63,8.986-6.523,11.207
		c-5.039,20.471-23.543,35.702-45.547,35.702h-40.183v8.623c0,7.114,5.788,12.903,12.903,12.903h35.269
		c7.128,0,12.903,5.777,12.903,12.903s-5.775,12.903-12.903,12.903h-35.269c-21.344,0-38.71-17.366-38.71-38.709v-8.623h-1.317
		l-42.36,28.241c44.948,12.306,78.087,53.486,78.087,102.284c0,58.479-47.575,106.055-106.056,106.055h-28.998v8.603
		c0,7.113,5.787,12.902,12.903,12.902h35.269c7.128,0,12.903,5.777,12.903,12.903s-5.775,12.903-12.903,12.903h-35.269
		c-21.346,0-38.71-17.366-38.71-38.709v-8.603h-77.419v8.603c0,7.113,5.787,12.902,12.902,12.902h35.27
		c7.126,0,12.903,5.777,12.903,12.903s-5.777,12.903-12.903,12.903h-35.27c-21.345,0-38.709-17.366-38.709-38.709v-8.603h-60.618
		h-46.049c-4.575,0-8.585-2.388-10.875-5.979l-128.91,85.94h741.936V154.839h-6.451l-146.457,97.638L621.285,271.405
		L621.285,271.405z"/>
	<path style="fill:#FF7900;" d="M448.976,459.145c0-6.745-5.488-12.235-12.234-12.235H363.26c-9.681,0-19.052-1.328-27.969-3.77
		l-42.36,28.239h143.811C443.485,471.381,448.976,465.891,448.976,459.145z"/>
	<path d="M787.097,129.032H12.903C5.777,129.032,0,134.81,0,141.936v68.817c0,7.126,5.777,12.903,12.903,12.903
		s12.903-5.777,12.903-12.903v-55.914h741.936h6.451v490.322H32.258h-6.451V262.366c0-7.126-5.777-12.903-12.903-12.903
		S0,255.24,0,262.366v395.699c0,7.126,5.777,12.903,12.903,12.903h774.193c7.128,0,12.903-5.777,12.903-12.903V141.936
		C800,134.81,794.225,129.032,787.097,129.032z"/>
	<path style="fill:#FFFFFF;" d="M196.989,518.289c0,11.637,9.466,21.103,21.103,21.103h60.618v-0.86
		c0-7.126,5.777-12.903,12.903-12.903c7.126,0,12.904,5.777,12.904,12.903v0.86H436.74c44.249,0,80.249-36,80.249-80.248
		s-36-80.248-80.249-80.248h-73.481c-20.976,0-38.041-17.065-38.041-38.042s17.065-38.042,38.041-38.042h211.115
		c6.775,0,12.799-3.222,16.662-8.2h-18.133c-7.128,0-12.903-5.777-12.903-12.903s5.775-12.903,12.903-12.903h22.575v-8.199h-61.545
		c-1.195,5.889-6.401,10.322-12.644,10.322c-6.241,0-11.449-4.434-12.644-10.322h-10.268c-1.195,5.889-6.401,10.322-12.643,10.322
		s-11.45-4.434-12.644-10.322H363.26c-44.249,0-80.247,36-80.247,80.248s35.998,80.248,80.247,80.248h73.481
		c20.976,0,38.041,17.065,38.041,38.042c0,20.978-17.065,38.043-38.041,38.043H218.092
		C206.455,497.188,196.989,506.653,196.989,518.289z"/>
	<path d="M172.043,565.198h46.049h60.618v8.603c0,21.343,17.365,38.709,38.709,38.709h35.27c7.126,0,12.903-5.777,12.903-12.903
		s-5.777-12.903-12.903-12.903h-35.27c-7.115,0-12.902-5.789-12.902-12.902v-8.603h77.419v8.603
		c0,21.343,17.364,38.709,38.71,38.709h35.269c7.128,0,12.903-5.777,12.903-12.903s-5.775-12.903-12.903-12.903h-35.269
		c-7.116,0-12.903-5.789-12.903-12.902V565.2h28.998c58.479,0,106.056-47.577,106.056-106.055
		c0-48.798-33.139-89.978-78.087-102.284c-8.917-2.441-18.288-3.77-27.969-3.77H363.26c-6.746,0-12.234-5.488-12.234-12.236
		s5.488-12.236,12.234-12.236h143.811h1.317v8.623c0,21.344,17.366,38.709,38.71,38.709h35.269c7.128,0,12.903-5.777,12.903-12.903
		s-5.775-12.903-12.903-12.903h-35.269c-7.115,0-12.903-5.79-12.903-12.903v-8.623h40.181c22.005,0,40.51-15.232,45.547-35.702
		c3.894-2.221,6.523-6.403,6.523-11.207c0-4.217-2.031-7.95-5.161-10.305v-18.928v-4.772v-13.726
		c0-7.126-5.775-12.903-12.903-12.903c-7.127,0-12.903,5.777-12.903,12.903v0.822h-61.283v-17.204
		c0-7.126-5.775-12.903-12.903-12.903s-12.903,5.777-12.903,12.903v17.204h-9.749v-17.204c0-7.126-5.775-12.903-12.903-12.903
		s-12.903,5.777-12.903,12.903v17.204h-9.748v-34.409c0-7.126-5.775-12.903-12.903-12.903s-12.903,5.777-12.903,12.903v34.409
		h-9.749v-34.409c0-7.126-5.776-12.903-12.903-12.903c-7.128,0-12.903,5.777-12.903,12.903v34.409h-38.462
		c-58.479,0-106.055,47.577-106.055,106.054c0,48.798,33.139,89.98,78.085,102.285c8.917,2.441,18.289,3.77,27.97,3.77h73.481
		c6.745,0,12.233,5.488,12.233,12.235c0,6.748-5.488,12.236-12.233,12.236H292.929H218.09h-46.047
		c-7.126,0-12.903,5.777-12.903,12.903s5.777,12.903,12.903,12.903h4.176c-1.318,2.604-2.398,5.347-3.216,8.199h-18.164
		c-7.126,0-12.903,5.777-12.903,12.903s5.777,12.903,12.903,12.903h18.163c0.817,2.854,1.897,5.597,3.215,8.199h-4.174
		c-7.126,0-12.903,5.777-12.903,12.903c0,2.552,0.75,4.922,2.028,6.925C163.458,562.812,167.468,565.198,172.043,565.198z
		 M436.74,497.188c20.975,0,38.04-17.065,38.04-38.043c0-20.977-17.065-38.042-38.04-38.042h-73.481
		c-44.25,0-80.248-36-80.248-80.248s35.998-80.248,80.248-80.248h109.832c1.195,5.889,6.401,10.322,12.644,10.322
		c6.241,0,11.449-4.434,12.644-10.322h10.268c1.195,5.889,6.401,10.322,12.644,10.322c6.241,0,11.449-4.434,12.643-10.322h61.545
		v8.199h-22.573c-7.128,0-12.903,5.777-12.903,12.903s5.775,12.903,12.903,12.903h18.135c-3.864,4.978-9.887,8.2-16.662,8.2h-211.12
		c-20.976,0-38.041,17.065-38.041,38.042s17.065,38.042,38.041,38.042h73.481c44.249,0,80.249,36,80.249,80.247
		c0,44.248-36,80.248-80.249,80.248H304.517v-0.86c0-7.126-5.777-12.903-12.904-12.903c-7.126,0-12.903,5.777-12.903,12.903v0.86
		h-60.618c-11.637,0-21.103-9.468-21.103-21.103c0-11.636,9.466-21.103,21.103-21.103H436.74V497.188z"/>
</g>
<g>
</g>
<g>
</g>
<g>
</g>
<g>
</g>
<g>
</g>
<g>
</g>
<g>
</g>
<g>
</g>
<g>
</g>
<g>
</g>
<g>
</g>
<g>
</g>
<g>
</g>
<g>
</g>
<g>
</g>
</svg>
