<?xml version="1.0" encoding="iso-8859-1"?>
<!-- Generator: Adobe Illustrator 19.0.0, SVG Export Plug-In . SVG Version: 6.00 Build 0)  -->
<svg version="1.1" id="Layer_1" xmlns="http://www.w3.org/2000/svg" xmlns:xlink="http://www.w3.org/1999/xlink" x="0px" y="0px"
	 viewBox="0 0 800 800" style="enable-background:new 0 0 800 800;" xml:space="preserve">
<g>
	<polygon style="fill:#FFE000;" points="24.807,153.839 346.924,153.839 24.807,368.589 	"/>
	<polygon style="fill:#FFE000;" points="343.621,154.839 25.807,154.839 25.807,366.72 	"/>
	<path style="fill:#FFFFFF;" d="M234.908,330.861c-26.089,0-47.312,21.223-47.312,47.312c0,26.089,21.223,47.312,47.312,47.312
		c26.088,0,47.312-21.223,47.312-47.312C282.219,352.084,260.996,330.861,234.908,330.861z M234.908,408.28
		c-16.601,0-30.108-13.507-30.108-30.107s13.507-30.107,30.108-30.107c16.6,0,30.107,13.507,30.107,30.107
		S251.508,408.28,234.908,408.28z"/>
	<path style="fill:#FFFFFF;" d="M681.506,212.329c-3.954-5.929-2.353-13.941,3.578-17.893l59.396-39.597H390.144L25.807,397.734
		v236.22l616.334-410.888c5.927-3.952,13.942-2.35,17.892,3.579L681.506,212.329L681.506,212.329z M234.908,451.291
		c-40.318,0-73.119-32.8-73.119-73.118s32.8-73.118,73.119-73.118c40.318,0,73.118,32.8,73.118,73.118
		S275.226,451.291,234.908,451.291z"/>
	<path style="fill:#164FCE;" d="M52.217,646.161l603.682-402.457c2.646-1.763,4.446-4.451,5.07-7.569
		c0.623-3.118-0.005-6.292-1.769-8.937l-0.555-0.832l23.137-15.425l0.555,0.833c2.213,3.32,5.919,5.302,9.915,5.302
		c2.35,0,4.628-0.692,6.589-2.001l76.352-50.9v481.986H52.217z"/>
	<path style="fill:#164FCE;" d="M699.397,215.907c-2.198,1.467-4.687,2.169-7.145,2.169c-4.17,0-8.262-2.018-10.747-5.748
		l-21.473,14.316c3.953,5.928,2.352,13.94-3.579,17.892L55.52,645.161h718.673V166.044L699.397,215.907z"/>
	<path d="M800,141.975v-0.04c0-0.069-0.009-0.136-0.011-0.203c-0.005-0.354-0.019-0.709-0.053-1.063
		c-0.014-0.143-0.041-0.282-0.059-0.425c-0.036-0.277-0.072-0.554-0.128-0.827c-0.035-0.186-0.087-0.367-0.132-0.551
		c-0.056-0.224-0.105-0.447-0.172-0.669c-0.067-0.224-0.15-0.439-0.229-0.656c-0.063-0.177-0.12-0.354-0.192-0.528
		c-0.108-0.263-0.235-0.518-0.361-0.772c-0.06-0.124-0.113-0.25-0.179-0.37c-0.172-0.324-0.363-0.637-0.563-0.943
		c-0.031-0.05-0.057-0.1-0.09-0.15c-0.003-0.003-0.007-0.008-0.009-0.012c-0.24-0.36-0.497-0.707-0.771-1.039
		c-0.147-0.179-0.31-0.343-0.465-0.511c-0.125-0.136-0.242-0.279-0.373-0.409c-0.222-0.224-0.457-0.427-0.693-0.631
		c-0.079-0.069-0.151-0.143-0.232-0.208c-0.22-0.181-0.452-0.346-0.683-0.511c-0.112-0.079-0.217-0.166-0.33-0.241
		c-0.198-0.132-0.403-0.248-0.607-0.368c-0.16-0.094-0.316-0.196-0.481-0.286c-0.162-0.086-0.329-0.158-0.494-0.237
		c-0.217-0.105-0.432-0.213-0.655-0.306c-0.121-0.05-0.246-0.089-0.368-0.134c-0.272-0.103-0.542-0.206-0.821-0.291
		c-0.089-0.028-0.181-0.045-0.27-0.071c-0.312-0.087-0.623-0.172-0.943-0.235c-0.098-0.019-0.197-0.028-0.297-0.045
		c-0.354-0.062-0.711-0.115-1.074-0.148c-0.378-0.035-0.759-0.057-1.141-0.057c-0.012-0.005-0.019-0.005-0.027-0.005H386.313
		c-0.006,0-0.013,0-0.018,0H12.903C5.777,129.032,0,134.808,0,141.936v248.805c0,0.017,0,0.033,0,0.048v267.186
		c0,0.018,0,0.033,0,0.049v0.039c0,0.069,0.009,0.137,0.01,0.203c0.005,0.354,0.019,0.709,0.053,1.063
		c0.014,0.143,0.042,0.282,0.059,0.425c0.036,0.277,0.072,0.554,0.127,0.828c0.036,0.186,0.088,0.366,0.132,0.55
		c0.055,0.224,0.105,0.447,0.172,0.67c0.067,0.222,0.149,0.438,0.229,0.655c0.064,0.177,0.121,0.354,0.193,0.528
		c0.108,0.265,0.235,0.518,0.361,0.773c0.06,0.123,0.113,0.248,0.179,0.37c0.172,0.323,0.363,0.637,0.563,0.943
		c0.031,0.05,0.057,0.102,0.09,0.149c0.003,0.004,0.005,0.007,0.008,0.011c0.277,0.414,0.583,0.809,0.905,1.187
		c0.102,0.121,0.21,0.232,0.317,0.348c0.222,0.244,0.452,0.479,0.693,0.704c0.136,0.127,0.27,0.253,0.411,0.373
		c0.253,0.217,0.518,0.421,0.786,0.619c0.117,0.086,0.23,0.181,0.349,0.262c0.387,0.263,0.79,0.506,1.206,0.728
		c0.104,0.055,0.21,0.1,0.315,0.151c0.332,0.165,0.669,0.318,1.017,0.456c0.134,0.054,0.269,0.102,0.404,0.148
		c0.329,0.116,0.664,0.22,1.005,0.311c0.138,0.036,0.275,0.074,0.415,0.107c0.35,0.08,0.706,0.143,1.065,0.194
		c0.131,0.019,0.258,0.045,0.389,0.06c0.444,0.051,0.895,0.078,1.352,0.081c0.036,0,0.072,0.007,0.11,0.007
		c0.009,0,0.016-0.002,0.024-0.002h774.157c7.126,0,12.903-5.776,12.903-12.902v-516.04C800,142.008,800,141.991,800,141.975z
		 M343.621,154.839L25.807,366.72V154.839H343.621z M55.52,645.161l600.934-400.623c5.931-3.952,7.532-11.964,3.578-17.893
		c-3.951-5.929-11.965-7.53-17.892-3.579L25.807,633.954v-236.22l364.337-242.896h354.338l-59.396,39.597
		c-5.931,3.952-7.532,11.964-3.579,17.893l0,0c2.486,3.73,6.577,5.748,10.748,5.748c2.46,0,4.946-0.702,7.145-2.169l74.794-49.863
		v479.117H55.52z"/>
	<path d="M234.908,305.055c-40.318,0-73.119,32.8-73.119,73.118s32.8,73.118,73.119,73.118c40.318,0,73.118-32.8,73.118-73.118
		S275.226,305.055,234.908,305.055z M234.908,425.484c-26.089,0-47.312-21.223-47.312-47.312c0-26.088,21.223-47.312,47.312-47.312
		c26.088,0,47.312,21.223,47.312,47.312C282.219,404.262,260.996,425.484,234.908,425.484z"/>
	<path style="fill:#ED1F34;" d="M234.908,348.065c-16.601,0-30.108,13.507-30.108,30.107s13.507,30.107,30.108,30.107
		c16.6,0,30.107-13.507,30.107-30.107S251.508,348.065,234.908,348.065z"/>
</g>
<g>
</g>
<g>
</g>
<g>
</g>
<g>
</g>
<g>
</g>
<g>
</g>
<g>
</g>
<g>
</g>
<g>
</g>
<g>
</g>
<g>
</g>
<g>
</g>
<g>
</g>
<g>
</g>
<g>
</g>
</svg>
