<?xml version="1.0" encoding="iso-8859-1"?>
<!-- Generator: Adobe Illustrator 19.0.0, SVG Export Plug-In . SVG Version: 6.00 Build 0)  -->
<svg version="1.1" id="Layer_1" xmlns="http://www.w3.org/2000/svg" xmlns:xlink="http://www.w3.org/1999/xlink" x="0px" y="0px"
	 viewBox="0 0 799.999 799.999" style="enable-background:new 0 0 799.999 799.999;" xml:space="preserve">
<g>
	<path style="fill:#103B9B;" d="M661.331,646.16v-401c0-6.563-5.34-11.903-11.903-11.903h-1v-27.806h1
		c6.563,0,11.903-5.34,11.903-11.903v-39.709h113.862v492.322L661.331,646.16L661.331,646.16z"/>
	<path style="fill:#103B9B;" d="M662.331,193.547c0,7.126-5.775,12.903-12.903,12.903l0,0v25.806l0,0
		c7.128,0,12.903,5.777,12.903,12.903v400h111.862V154.838H662.331V193.547z"/>
	<path style="fill:#103B9B;" d="M588.7,646.16l-0.022-0.978c-0.238-10.587-9.04-19.199-19.621-19.199
		c-10.582,0-19.384,8.612-19.621,19.199l-0.022,0.978H24.807V153.838h119.886l0.022,0.978c0.238,10.587,9.04,19.2,19.621,19.2
		c10.582,0,19.384-8.613,19.621-19.2l0.022-0.978h35.438L624.232,646.16H588.7z M501.604,544.107
		c-10.833,0-19.646,8.813-19.646,19.646s8.813,19.646,19.646,19.646s19.646-8.813,19.646-19.646S512.437,544.107,501.604,544.107z
		 M434.148,462.23c-10.832,0-19.645,8.813-19.645,19.646s8.813,19.646,19.645,19.646c10.833,0,19.646-8.813,19.646-19.646
		S444.981,462.23,434.148,462.23z M366.696,380.354c-10.833,0-19.646,8.813-19.646,19.645s8.813,19.645,19.646,19.645
		c10.832,0,19.645-8.813,19.645-19.645C386.341,389.166,377.528,380.354,366.696,380.354z M299.243,298.477
		c-10.833,0-19.646,8.813-19.646,19.645s8.813,19.645,19.646,19.645s19.646-8.813,19.646-19.645S310.076,298.477,299.243,298.477z
		 M231.789,216.6c-10.833,0-19.646,8.813-19.646,19.646s8.813,19.645,19.646,19.645s19.645-8.813,19.645-19.645
		S242.621,216.6,231.789,216.6z"/>
	<path style="fill:#103B9B;" d="M569.057,624.983c11.244,0,20.369,8.992,20.621,20.177h32.437l-403.17-490.322h-33.987
		c-0.251,11.183-9.378,20.177-20.621,20.177c-11.245,0-20.37-8.995-20.621-20.177H25.807V645.16h522.629
		C548.687,633.978,557.813,624.983,569.057,624.983z M231.789,256.89c-11.401,0-20.646-9.244-20.646-20.645
		s9.244-20.646,20.646-20.646c11.401,0,20.645,9.244,20.645,20.646C252.434,247.648,243.191,256.89,231.789,256.89z
		 M299.243,338.767c-11.401,0-20.646-9.244-20.646-20.645s9.244-20.645,20.646-20.645s20.646,9.244,20.646,20.645
		S310.645,338.767,299.243,338.767z M366.696,420.644c-11.401,0-20.646-9.243-20.646-20.645s9.244-20.645,20.646-20.645
		s20.645,9.244,20.645,20.645S378.098,420.644,366.696,420.644z M434.148,502.521c-11.4,0-20.645-9.244-20.645-20.646
		s9.244-20.646,20.645-20.646s20.646,9.244,20.646,20.646S445.552,502.521,434.148,502.521z M501.604,584.398
		c-11.401,0-20.646-9.244-20.646-20.646s9.244-20.646,20.646-20.646c11.402,0,20.646,9.244,20.646,20.646
		S513.005,584.398,501.604,584.398z"/>
	<path style="fill:#FFFFFF;" d="M569.057,624.983c-11.243,0-20.37,8.992-20.621,20.177h41.243
		C589.426,633.978,580.301,624.983,569.057,624.983z"/>
	<circle style="fill:#FFFFFF;" cx="501.604" cy="563.753" r="20.646"/>
	<circle style="fill:#FFFFFF;" cx="434.148" cy="481.876" r="20.646"/>
	<circle style="fill:#FFFFFF;" cx="366.696" cy="399.999" r="20.645"/>
	<circle style="fill:#FFFFFF;" cx="299.243" cy="318.122" r="20.645"/>
	<circle style="fill:#FFFFFF;" cx="231.789" cy="236.245" r="20.645"/>
	<path style="fill:#FFFFFF;" d="M164.335,175.015c11.243,0,20.37-8.995,20.621-20.177h-41.242
		C143.966,166.02,153.091,175.015,164.335,175.015z"/>
	<path style="fill:#FFE000;" d="M250.236,153.838h387.289v39.709c0,6.563,5.34,11.903,11.903,11.903h1v27.806h-1
		c-6.563,0-11.903,5.34-11.903,11.903v379.686L250.236,153.838z"/>
	<path style="fill:#FFE000;" d="M636.524,193.547v-38.709H252.353l384.172,467.217V245.16c0-7.126,5.775-12.903,12.903-12.903
		v-25.806C642.302,206.451,636.524,200.673,636.524,193.547z"/>
	<path d="M787.097,129.031H12.903C5.777,129.031,0,134.809,0,141.935v516.129c0,7.126,5.777,12.903,12.903,12.903h774.193
		c7.128,0,12.903-5.777,12.903-12.903V141.935C800,134.809,794.225,129.031,787.097,129.031z M774.193,645.16H662.331v-400
		c0-7.126-5.775-12.903-12.903-12.903l0,0c-7.126,0-12.903,5.777-12.903,12.903v376.895L252.353,154.838h384.172v38.709
		c0,7.126,5.775,12.903,12.903,12.903l0,0c7.128,0,12.903-5.777,12.903-12.903v-38.709h111.862L774.193,645.16L774.193,645.16z
		 M25.807,645.16V154.838h117.908h41.244h33.987L622.117,645.16h-32.438h-41.244H25.807z"/>
</g>
<g>
</g>
<g>
</g>
<g>
</g>
<g>
</g>
<g>
</g>
<g>
</g>
<g>
</g>
<g>
</g>
<g>
</g>
<g>
</g>
<g>
</g>
<g>
</g>
<g>
</g>
<g>
</g>
<g>
</g>
</svg>
