<?xml version="1.0" encoding="iso-8859-1"?>
<!-- Generator: Adobe Illustrator 19.0.0, SVG Export Plug-In . SVG Version: 6.00 Build 0)  -->
<svg version="1.1" id="Layer_1" xmlns="http://www.w3.org/2000/svg" xmlns:xlink="http://www.w3.org/1999/xlink" x="0px" y="0px"
	 viewBox="0 0 799.999 799.999" style="enable-background:new 0 0 799.999 799.999;" xml:space="preserve">
<g>
	<path style="fill:#3DB4EA;" d="M128.032,659.063v-1c0-6.563-5.34-11.903-11.903-11.903H24.807V506.516h750.387v139.645H167.742
		c-6.563,0-11.903,5.34-11.903,11.903v1L128.032,659.063L128.032,659.063z"/>
	<path style="fill:#3DB4EA;" d="M167.742,645.16h606.451V507.516H25.807v137.645h90.322c7.128,0,12.903,5.775,12.903,12.903h25.807
		C154.839,650.936,160.614,645.16,167.742,645.16z"/>
	<rect x="24.807" y="153.838" style="fill:#3DB4EA;" width="750.387" height="139.645"/>
	<rect x="25.807" y="154.838" style="fill:#3DB4EA;" width="748.387" height="137.645"/>
	<rect x="24.807" y="347.386" style="fill:#333333;" width="750.387" height="105.226"/>
	<rect x="25.807" y="348.386" style="fill:#333333;" width="748.387" height="103.226"/>
	<rect x="25.807" y="292.482" style="fill:#FFFFFF;" width="748.387" height="30.097"/>
	<rect x="25.807" y="477.418" style="fill:#FFFFFF;" width="748.387" height="30.098"/>
	<path d="M787.097,129.031H12.903C5.775,129.031,0,134.807,0,141.935v516.129c0,7.128,5.775,12.903,12.903,12.903h103.226
		c7.128,0,12.903-5.775,12.903-12.903s-5.775-12.903-12.903-12.903H25.807V507.516v-30.098h748.387v30.098v137.645H167.742
		c-7.128,0-12.903,5.775-12.903,12.903s5.775,12.903,12.903,12.903h619.354c7.128,0,12.903-5.775,12.903-12.903V141.935
		C800,134.807,794.225,129.031,787.097,129.031z M774.193,154.838v137.645v30.097H25.807v-30.097V154.838H774.193z M25.807,348.386
		h748.387v103.226H25.807V348.386z"/>
</g>
<g>
</g>
<g>
</g>
<g>
</g>
<g>
</g>
<g>
</g>
<g>
</g>
<g>
</g>
<g>
</g>
<g>
</g>
<g>
</g>
<g>
</g>
<g>
</g>
<g>
</g>
<g>
</g>
<g>
</g>
</svg>
