<?xml version="1.0" encoding="iso-8859-1"?>
<!-- Generator: Adobe Illustrator 19.0.0, SVG Export Plug-In . SVG Version: 6.00 Build 0)  -->
<svg version="1.1" id="Layer_1" xmlns="http://www.w3.org/2000/svg" xmlns:xlink="http://www.w3.org/1999/xlink" x="0px" y="0px"
	 viewBox="0 0 799.998 799.998" style="enable-background:new 0 0 799.998 799.998;" xml:space="preserve">
<g>
	<path style="fill:#103B9B;" d="M91.416,621.774c-1.077-0.512-2.161-1.029-3.265-1.561c-15.295-7.342-32.632-15.663-62.407-17.532
		l-0.938-0.059v-65.546l1.088,0.096c18.062,1.594,28.593,6.647,40.787,12.5c17.075,8.195,36.428,17.483,72.675,17.906l2.524,0.029
		l-1.86,1.707c-17.345,15.922-33.285,33.471-47.377,52.158l-0.491,0.65L91.416,621.774z"/>
	<path style="fill:#103B9B;" d="M25.807,538.169v63.515c29.947,1.88,47.279,10.189,62.778,17.629c1.103,0.53,2.185,1.048,3.26,1.559
		c14.212-18.847,30.135-36.353,47.5-52.292c-36.447-0.425-55.897-9.75-73.096-18.005C53.893,544.645,43.646,539.743,25.807,538.169z
		"/>
	<path style="fill:#103B9B;" d="M707.354,621.479c-14.091-18.687-30.032-36.237-47.382-52.164l-1.86-1.707l2.524-0.029
		c36.265-0.42,55.615-9.71,72.688-17.906c12.2-5.853,22.736-10.907,40.78-12.5l1.088-0.096v65.546l-0.938,0.059
		c-29.77,1.871-47.104,10.191-62.396,17.532l-4.013,1.917L707.354,621.479z"/>
	<path style="fill:#103B9B;" d="M774.193,601.684v-63.515c-17.837,1.574-28.075,6.476-40.436,12.405
		c-17.198,8.257-36.651,17.583-73.109,18.005c17.366,15.941,33.291,33.448,47.505,52.298c1.078-0.514,2.166-1.034,3.273-1.564
		C726.925,611.873,744.246,603.565,774.193,601.684z"/>
	<path style="fill:#103B9B;" d="M658.071,517.988c-26.612,0-38.604-5.754-53.784-13.039c-17.505-8.404-37.341-17.929-75.257-17.929
		c-2.98,0-5.913,0.063-8.964,0.191l-0.181,0.008l-0.172-0.057c-38.734-12.652-79.014-19.067-119.718-19.067
		s-80.982,6.415-119.715,19.067l-0.172,0.057l-0.181-0.008c-3.051-0.129-5.985-0.191-8.968-0.191
		c-37.905,0-57.745,9.524-75.249,17.928c-15.184,7.287-27.172,13.04-53.778,13.04c-26.612,0-38.602-5.755-53.781-13.041
		c-15.296-7.342-32.634-15.663-62.408-17.533l-0.938-0.059v-65.546l1.088,0.096c18.068,1.593,28.596,6.647,40.787,12.501
		c17.504,8.402,37.344,17.926,75.251,17.926s57.745-9.523,75.248-17.926c15.179-7.287,27.167-13.042,53.779-13.042
		c26.615,0,38.603,5.756,53.781,13.042c17.505,8.402,37.346,17.926,75.251,17.926c37.911,0,57.749-9.523,75.251-17.926
		c15.18-7.287,27.17-13.042,53.787-13.042c26.614,0,38.605,5.755,53.787,13.041c17.505,8.403,37.345,17.927,75.255,17.927
		s57.75-9.523,75.254-17.926c12.199-5.854,22.734-10.908,40.78-12.501l1.088-0.096v65.546l-0.938,0.059
		c-29.76,1.869-47.099,10.191-62.396,17.533C696.675,512.234,684.685,517.988,658.071,517.988z"/>
	<path style="fill:#103B9B;" d="M604.716,504.046c15.067,7.23,26.968,12.942,53.355,12.942s38.288-5.712,53.355-12.942
		c15.5-7.439,32.819-15.749,62.767-17.63v-63.515c-17.837,1.574-28.075,6.476-40.436,12.406
		c-17.602,8.449-37.553,18.024-75.687,18.024c-38.133,0-58.085-9.575-75.687-18.024c-15.067-7.231-26.968-12.943-53.355-12.943
		c-26.389,0-38.289,5.712-53.354,12.943c-17.6,8.449-37.552,18.024-75.684,18.024s-58.081-9.575-75.684-18.024
		c-15.063-7.231-26.964-12.943-53.349-12.943c-26.384,0-38.283,5.712-53.347,12.943c-17.6,8.449-37.552,18.024-75.68,18.024
		c-38.132,0-58.082-9.575-75.684-18.024c-12.356-5.933-22.603-10.834-40.442-12.406v63.515c29.947,1.881,47.279,10.19,62.778,17.63
		c15.064,7.23,26.964,12.942,53.349,12.942c26.383,0,38.281-5.712,53.346-12.941c17.6-8.449,37.552-18.026,75.682-18.026
		c3.126,0,6.12,0.07,9.01,0.192c38.55-12.593,79.097-19.117,120.025-19.117c40.932,0,81.477,6.524,120.028,19.117
		c2.89-0.122,5.88-0.192,9.006-0.192C567.162,486.02,587.114,495.595,604.716,504.046z"/>
	<path style="fill:#FFFFFF;" d="M141.932,453.332c38.128,0,58.08-9.575,75.68-18.024c15.064-7.231,26.962-12.943,53.347-12.943
		c26.385,0,38.285,5.712,53.349,12.943c17.603,8.449,37.552,18.024,75.684,18.024s58.084-9.575,75.684-18.024
		c15.065-7.231,26.966-12.943,53.354-12.943s38.288,5.712,53.355,12.943c17.602,8.449,37.554,18.024,75.687,18.024
		c38.134,0,58.085-9.575,75.687-18.024c12.358-5.933,22.597-10.834,40.436-12.406v-9.999H25.807v9.999
		c17.839,1.574,28.086,6.476,40.442,12.406C83.852,443.755,103.8,453.332,141.932,453.332z"/>
	<polygon style="fill:#103B9B;" points="630.127,237.128 629.811,235.179 775.193,186.718 775.193,237.128 	"/>
	<polygon style="fill:#103B9B;" points="774.193,236.128 774.193,188.105 630.127,236.128 	"/>
	<polygon style="fill:#103B9B;" points="177.222,388.096 176.905,386.147 331.319,334.675 331.319,388.096 	"/>
	<polygon style="fill:#103B9B;" points="330.319,336.062 177.222,387.096 330.319,387.096 	"/>
	<polygon style="fill:#103B9B;" points="629.811,306.754 630.127,304.806 775.193,304.806 775.193,355.213 	"/>
	<polygon style="fill:#103B9B;" points="774.193,353.826 774.193,305.806 630.127,305.806 	"/>
	<polygon style="fill:#103B9B;" points="468.674,388.096 468.674,334.675 623.088,386.147 622.771,388.096 	"/>
	<polygon style="fill:#103B9B;" points="469.674,387.096 622.771,387.096 469.674,336.062 	"/>
	<polygon style="fill:#103B9B;" points="24.807,304.806 169.87,304.806 170.187,306.754 24.807,355.213 	"/>
	<polygon style="fill:#103B9B;" points="25.807,305.806 25.807,353.826 169.87,305.806 	"/>
	<polygon style="fill:#103B9B;" points="24.807,237.128 24.807,186.718 170.187,235.179 169.87,237.128 	"/>
	<polygon style="fill:#103B9B;" points="25.807,188.105 25.807,236.128 169.87,236.128 	"/>
	<polygon style="fill:#103B9B;" points="176.907,155.787 177.223,153.838 331.319,153.838 331.319,207.256 	"/>
	<polygon style="fill:#103B9B;" points="330.319,154.838 177.223,154.838 330.319,205.869 	"/>
	<polygon style="fill:#103B9B;" points="468.674,153.838 622.771,153.838 623.088,155.787 468.674,207.256 	"/>
	<polygon style="fill:#103B9B;" points="622.771,154.838 469.674,154.838 469.674,205.869 	"/>
	<polygon style="fill:#FFFFFF;" points="295.482,305.806 330.319,305.806 330.319,322.106 135.352,387.096 177.222,387.096 
		330.319,336.062 330.319,387.096 362.577,387.096 362.577,289.676 25.807,289.676 25.807,305.806 169.87,305.806 25.807,353.826 
		25.807,387.096 51.613,387.096 	"/>
	<polygon style="fill:#ED1F34;" points="211.041,237.128 24.807,174.899 24.807,153.838 51.775,153.838 295.798,235.179 
		295.482,237.128 	"/>
	<polygon style="fill:#ED1F34;" points="295.482,236.128 51.613,154.838 25.807,154.838 25.807,174.179 211.204,236.128 	"/>
	<polygon style="fill:#ED1F34;" points="51.613,388.096 51.296,386.147 295.32,304.806 331.319,304.806 331.319,322.827 
		135.514,388.096 	"/>
	<polygon style="fill:#ED1F34;" points="330.319,305.806 295.482,305.806 51.613,387.096 135.352,387.096 330.319,322.106 	"/>
	<polygon style="fill:#ED1F34;" points="748.225,388.096 504.198,306.754 504.515,304.806 587.108,304.806 775.193,367.649 
		775.193,388.096 	"/>
	<polygon style="fill:#ED1F34;" points="504.515,305.806 748.387,387.096 774.193,387.096 774.193,368.369 586.945,305.806 	"/>
	<polygon style="fill:#ED1F34;" points="468.674,237.128 468.674,219.113 664.484,153.838 748.387,153.838 748.703,155.787 
		504.677,237.128 	"/>
	<polygon style="fill:#ED1F34;" points="469.674,236.128 504.515,236.128 748.387,154.838 664.646,154.838 469.674,219.834 	"/>
	<polygon style="fill:#FFFFFF;" points="437.416,252.257 774.193,252.257 774.193,236.128 630.127,236.128 774.193,188.105 
		774.193,154.838 748.387,154.838 504.515,236.128 469.674,236.128 469.674,219.834 664.646,154.838 622.771,154.838 
		469.674,205.869 469.674,154.838 437.416,154.838 	"/>
	<polygon style="fill:#FFFFFF;" points="437.416,289.676 437.416,387.096 469.674,387.096 469.674,336.062 622.771,387.096 
		748.387,387.096 504.515,305.806 586.945,305.806 774.193,368.369 774.193,353.826 630.127,305.806 774.193,305.806 
		774.193,289.676 	"/>
	<polygon style="fill:#FFFFFF;" points="362.577,252.257 362.577,154.838 330.319,154.838 330.319,205.869 177.223,154.838 
		51.613,154.838 295.482,236.128 211.204,236.128 25.807,174.179 25.807,188.105 169.87,236.128 25.807,236.128 25.807,252.257 	"/>
	<polygon style="fill:#ED1F34;" points="361.577,388.096 361.577,290.676 24.807,290.676 24.807,251.257 361.577,251.257 
		361.577,153.838 438.416,153.838 438.416,251.257 775.193,251.257 775.193,290.676 438.416,290.676 438.416,388.096 	"/>
	<polygon style="fill:#ED1F34;" points="362.577,289.676 362.577,387.096 437.416,387.096 437.416,289.676 774.193,289.676 
		774.193,252.257 437.416,252.257 437.416,154.838 362.577,154.838 362.577,252.257 25.807,252.257 25.807,289.676 	"/>
	<path style="fill:#FFFFFF;" d="M774.193,538.169v-51.755c-29.947,1.881-47.269,10.19-62.767,17.63
		c-15.067,7.23-26.968,12.942-53.355,12.942s-38.288-5.712-53.355-12.942c-17.602-8.449-37.554-18.025-75.687-18.025
		c-3.125,0-6.116,0.071-9.007,0.193c24.693,8.066,48.571,18.618,71.198,31.564c24.996,14.3,48.28,31.391,69.428,50.803
		c36.456-0.424,55.911-9.75,73.109-18.005C746.118,544.645,756.356,539.743,774.193,538.169z"/>
	<path style="fill:#FFFFFF;" d="M195.277,504.046c-15.064,7.23-26.962,12.94-53.345,12.94c-26.385,0-38.285-5.712-53.349-12.942
		c-15.499-7.439-32.829-15.749-62.778-17.63v51.754c17.839,1.574,28.086,6.477,40.442,12.406
		c17.197,8.255,36.646,17.581,73.096,18.005c21.147-19.412,44.432-36.503,69.428-50.803c22.627-12.946,46.505-23.498,71.199-31.565
		c-2.891-0.122-5.884-0.192-9.01-0.192C232.829,486.02,212.879,495.597,195.277,504.046z"/>
	<path style="fill:#FFFFFF;" d="M25.807,601.684v43.477h49.187c5.319-8.31,10.921-16.425,16.85-24.287
		c-1.075-0.511-2.157-1.029-3.26-1.559C73.085,611.875,55.754,603.565,25.807,601.684z"/>
	<path style="fill:#FFFFFF;" d="M774.193,601.684c-29.947,1.88-47.269,10.189-62.767,17.629c-1.105,0.531-2.193,1.051-3.273,1.564
		c5.929,7.86,11.526,15.976,16.847,24.281h49.193V601.684z"/>
	<path style="fill:#FFE000;" d="M574.979,659.063v-1c0-6.563-5.34-11.903-11.903-11.903h-458.99l1.111-1.576
		c33.269-47.2,77.641-86.052,128.319-112.354c50.835-26.383,108.403-40.328,166.479-40.328c58.077,0,115.646,13.945,166.48,40.328
		c50.679,26.302,95.051,65.153,128.319,112.354l1.111,1.576h-81.22c-3.18,0-6.169,1.238-8.417,3.485
		c-2.248,2.248-3.485,5.238-3.484,8.418v1H574.979z"/>
	<path style="fill:#FFE000;" d="M614.688,645.16h79.291c-67.501-95.768-175.738-152.258-293.982-152.258
		c-118.243,0-226.48,56.49-293.981,152.258h457.062c7.128,0,12.903,5.775,12.903,12.903h25.807
		C601.784,650.936,607.562,645.16,614.688,645.16z"/>
	<path d="M787.097,129.031H12.903C5.775,129.031,0,134.807,0,141.935v258.064v258.064c0,7.128,5.775,12.903,12.903,12.903h550.171
		c7.128,0,12.903-5.775,12.903-12.903s-5.775-12.903-12.903-12.903h-457.06c67.501-95.768,175.738-152.258,293.981-152.258
		c118.244,0,226.481,56.49,293.982,152.258h-79.291c-7.128,0-12.903,5.775-12.903,12.903s5.775,12.903,12.903,12.903h103.21
		c0.009,0,0.018,0.002,0.027,0.002s0.018-0.002,0.026-0.002h69.146c7.128,0,12.903-5.775,12.903-12.903V399.999V141.935
		C800,134.807,794.225,129.031,787.097,129.031z M725,645.16c-5.318-8.306-10.918-16.422-16.847-24.282
		c-14.214-18.849-30.139-36.355-47.505-52.298c-21.147-19.411-44.432-36.502-69.428-50.802
		c-22.627-12.946-46.505-23.498-71.198-31.565c-38.55-12.593-79.097-19.117-120.027-19.117s-81.477,6.524-120.026,19.117
		c-24.693,8.067-48.571,18.619-71.199,31.565c-24.996,14.3-48.28,31.391-69.428,50.802c-17.364,15.94-33.287,33.445-47.5,52.293
		c-5.93,7.862-11.53,15.979-16.85,24.287H25.807v-43.476v-63.515v-51.754V422.9v-9.999h748.387v9.999v63.515v51.754v63.515v43.476
		L725,645.16L725,645.16z M25.807,353.826v-48.021v-16.129v-37.419v-16.129v-48.022v-13.927v-19.341h25.806h125.61h153.098h32.258
		h74.839h32.258h153.098h41.875h83.738h25.807v33.268v48.022v16.129v37.419v16.129v48.022v14.543v18.725h-25.807H622.771H469.674
		h-32.258h-74.839h-32.258H177.222h-41.87H51.613H25.807V353.826z"/>
</g>
<g>
</g>
<g>
</g>
<g>
</g>
<g>
</g>
<g>
</g>
<g>
</g>
<g>
</g>
<g>
</g>
<g>
</g>
<g>
</g>
<g>
</g>
<g>
</g>
<g>
</g>
<g>
</g>
<g>
</g>
</svg>
