<?xml version="1.0" encoding="iso-8859-1"?>
<!-- Generator: Adobe Illustrator 19.0.0, SVG Export Plug-In . SVG Version: 6.00 Build 0)  -->
<svg version="1.1" id="Layer_1" xmlns="http://www.w3.org/2000/svg" xmlns:xlink="http://www.w3.org/1999/xlink" x="0px" y="0px"
	 viewBox="0 0 799.999 799.999" style="enable-background:new 0 0 799.999 799.999;" xml:space="preserve">
<g>
	<polygon style="fill:#103B9B;" points="24.807,237.128 24.807,190.538 94.69,237.128 	"/>
	<polygon style="fill:#103B9B;" points="91.761,153.838 172.613,153.838 172.613,207.74 	"/>
	<polygon style="fill:#103B9B;" points="24.807,304.806 94.69,304.806 24.807,351.395 	"/>
	<path style="fill:#103B9B;" d="M128.032,659.063v-1c0-6.563-5.34-11.903-11.903-11.903H24.807V398.999h50.6l97.206-64.805v64.805
		h67.678v-64.805l97.206,64.805H399v-40.335l-80.787-53.858H399v-67.678h-80.787L399,183.27v-29.432h376.193V646.16H167.742
		c-6.563,0-11.903,5.34-11.903,11.903v1H128.032z M477.922,487.057c7.281,9.75,15.749,18.539,25.169,26.123
		c25.515,20.543,57.639,31.856,90.456,31.856c32.814,0,64.938-11.313,90.456-31.856c9.425-7.59,17.893-16.379,25.167-26.123
		l1.311-1.754l0.468,2.139c1.186,5.416,6.076,9.347,11.629,9.347c6.563,0,11.903-5.34,11.903-11.903v-54.236
		c0-6.056-4.537-11.141-10.553-11.828c-0.449-0.051-0.905-0.076-1.354-0.076c-5.57,0-10.337,3.792-11.593,9.223
		c-12.692,54.91-60.982,93.261-117.434,93.261s-104.742-38.351-117.435-93.261c-1.255-5.431-6.021-9.223-11.59-9.223
		c-0.45,0-0.907,0.025-1.358,0.076c-6.015,0.688-10.551,5.772-10.551,11.828v54.236c0,6.563,5.339,11.903,11.902,11.903
		c5.553,0,10.443-3.931,11.629-9.347l0.468-2.139L477.922,487.057z M507.527,254.964c-6.563,0-11.903,5.34-11.903,11.903v139.249
		c0,73.951,91.113,97.995,94.992,98.982c0.958,0.243,1.945,0.366,2.933,0.366c0.989,0,1.976-0.123,2.933-0.366
		c3.879-0.985,94.991-24.985,94.991-98.982V266.867c0-6.563-5.34-11.903-11.902-11.903L507.527,254.964L507.527,254.964z"/>
	<polygon style="fill:#103B9B;" points="240.291,153.838 321.142,153.838 240.291,207.74 	"/>
	<polygon style="fill:#ED1F34;" points="24.807,400.999 24.807,390.862 153.891,304.806 172.613,304.806 172.613,322.642 
		55.076,400.999 	"/>
	<polygon style="fill:#ED1F34;" points="111.752,237.128 24.807,179.027 24.807,153.838 32.561,153.838 157.496,237.128 	"/>
	<polygon style="fill:#ED1F34;" points="255.407,304.806 300.227,304.806 401,372.145 401,401.867 	"/>
	<polygon style="fill:#ED1F34;" points="240.291,237.128 240.291,219.3 338.474,153.838 383.948,153.838 259.012,237.128 	"/>
	<polygon style="fill:#ED1F34;" points="186.742,400.999 186.742,290.676 24.807,290.676 24.807,251.257 186.742,251.257 
		186.742,153.838 226.161,153.838 226.161,251.257 401,251.257 401,290.676 226.161,290.676 226.161,400.999 	"/>
	<path style="fill:#259245;" d="M593.25,481.073c-7.173-2.243-25.652-8.761-42.279-20.792
		c-20.929-15.145-31.541-33.368-31.541-54.166V278.769h148.237v127.347c0,20.797-10.612,39.021-31.541,54.166
		c-16.626,12.03-35.105,18.549-42.278,20.792l-0.299,0.094L593.25,481.073z M593.549,306.577c-6.563,0-11.903,5.34-11.903,11.903
		v116.27c0,6.563,5.34,11.903,11.903,11.903s11.902-5.34,11.902-11.903V318.48C605.451,311.916,600.111,306.577,593.549,306.577z
		 M631.397,306.577c-6.563,0-11.903,5.34-11.903,11.903v99.066c0,6.563,5.34,11.903,11.903,11.903s11.903-5.34,11.903-11.903V318.48
		C643.301,311.916,637.961,306.577,631.397,306.577z M555.699,306.577c-6.563,0-11.903,5.34-11.903,11.903v99.066
		c0,6.563,5.34,11.903,11.903,11.903s11.903-5.34,11.903-11.903V318.48C567.603,311.916,562.263,306.577,555.699,306.577z"/>
	<polygon style="fill:#103B9B;" points="25.807,192.407 25.807,236.128 91.388,236.128 	"/>
	<polygon style="fill:#103B9B;" points="171.613,154.838 95.064,154.838 171.613,205.871 	"/>
	<polygon style="fill:#103B9B;" points="25.807,305.806 25.807,349.527 91.388,305.806 	"/>
	<path style="fill:#103B9B;" d="M167.742,645.16h606.451V154.838H400v28.967l-78.484,52.323H400v16.129v37.419v16.129h-78.484
		L400,358.129v14.551v27.319h-62.806l-95.904-63.937v63.937h-16.129h-37.419h-16.129v-63.937l-95.904,63.937H54.773H25.807V645.16
		h90.322c7.126,0,12.903,5.777,12.903,12.903h25.807C154.839,650.937,160.616,645.16,167.742,645.16z M494.624,266.867
		c0-7.126,5.775-12.903,12.903-12.903H679.57c7.127,0,12.902,5.777,12.902,12.903v139.249c0,74.748-91.836,98.958-95.745,99.951
		c-1.041,0.265-2.11,0.397-3.179,0.397s-2.137-0.133-3.18-0.397c-3.909-0.995-95.745-25.203-95.745-99.951V266.867H494.624z
		 M451.613,430.648c0-6.56,4.922-12.077,11.438-12.821c6.529-0.74,12.558,3.522,14.035,9.914
		c12.587,54.455,60.479,92.486,116.46,92.486c55.98,0,103.872-38.031,116.459-92.486c1.479-6.394,7.523-10.654,14.035-9.914
		c6.518,0.744,11.439,6.262,11.439,12.821v54.236c0,7.126-5.775,12.903-12.903,12.903c-6.177,0-11.338-4.339-12.605-10.133
		c-7.277,9.747-15.785,18.607-25.342,26.304c-25.693,20.685-58.039,32.077-91.083,32.077c-33.045,0-65.393-11.393-91.083-32.077
		c-9.559-7.696-18.064-16.558-25.343-26.304c-1.268,5.794-6.429,10.133-12.605,10.133c-7.127,0-12.902-5.777-12.902-12.903V430.648
		L451.613,430.648z"/>
	<polygon style="fill:#103B9B;" points="317.839,154.838 241.291,154.838 241.291,205.871 	"/>
	<polygon style="fill:#ED1F34;" points="171.613,322.106 171.613,305.806 154.193,305.806 25.807,391.397 25.807,399.999 
		54.773,399.999 	"/>
	<polygon style="fill:#ED1F34;" points="154.193,236.128 32.258,154.838 25.807,154.838 25.807,178.492 112.055,236.128 	"/>
	<polygon style="fill:#ED1F34;" points="258.709,305.806 400,399.999 400,372.68 299.924,305.806 	"/>
	<polygon style="fill:#ED1F34;" points="241.291,236.128 258.709,236.128 380.646,154.838 338.776,154.838 241.291,219.835 	"/>
	<polygon style="fill:#FFFFFF;" points="225.161,289.676 225.161,399.999 241.291,399.999 241.291,336.062 337.194,399.999 
		400,399.999 258.709,305.806 299.924,305.806 400,372.68 400,358.129 321.516,305.806 400,305.806 400,289.676 	"/>
	<polygon style="fill:#FFFFFF;" points="187.742,252.257 187.742,154.838 171.613,154.838 171.613,205.871 95.064,154.838 
		32.258,154.838 154.193,236.128 112.055,236.128 25.807,178.492 25.807,192.407 91.388,236.128 25.807,236.128 25.807,252.257 	"/>
	<polygon style="fill:#FFFFFF;" points="225.161,252.257 400,252.257 400,236.128 321.516,236.128 400,183.805 400,154.838 
		380.646,154.838 258.709,236.128 241.291,236.128 241.291,219.835 338.776,154.838 317.839,154.838 241.291,205.871 
		241.291,154.838 225.161,154.838 	"/>
	<polygon style="fill:#FFFFFF;" points="171.613,305.806 171.613,322.106 54.773,399.999 75.709,399.999 171.613,336.062 
		171.613,399.999 187.742,399.999 187.742,289.676 25.807,289.676 25.807,305.806 91.388,305.806 25.807,349.527 25.807,391.397 
		154.193,305.806 	"/>
	<polygon style="fill:#ED1F34;" points="187.742,289.676 187.742,399.999 225.161,399.999 225.161,289.676 400,289.676 400,252.257 
		225.161,252.257 225.161,154.838 187.742,154.838 187.742,252.257 25.807,252.257 25.807,289.676 	"/>
	<path style="fill:#259245;" d="M593.549,480.119c14.485-4.531,73.118-25.863,73.118-74.004V279.769H520.43v126.347
		C520.43,454.256,579.063,475.588,593.549,480.119z M618.494,318.48c0-7.126,5.776-12.903,12.903-12.903
		c7.128,0,12.903,5.777,12.903,12.903v99.066c0,7.126-5.775,12.903-12.903,12.903c-7.127,0-12.903-5.777-12.903-12.903V318.48z
		 M580.646,318.48c0-7.126,5.775-12.903,12.903-12.903c7.127,0,12.902,5.777,12.902,12.903v116.27
		c0,7.126-5.775,12.903-12.902,12.903c-7.128,0-12.903-5.777-12.903-12.903V318.48z M542.796,318.48
		c0-7.126,5.775-12.903,12.903-12.903c7.127,0,12.903,5.777,12.903,12.903v99.066c0,7.126-5.776,12.903-12.903,12.903
		c-7.128,0-12.903-5.777-12.903-12.903V318.48z"/>
	<path d="M590.369,506.067c1.041,0.265,2.111,0.397,3.18,0.397s2.137-0.133,3.179-0.397c3.909-0.995,95.745-25.203,95.745-99.951
		V266.867c0-7.126-5.775-12.903-12.902-12.903H507.527c-7.128,0-12.903,5.777-12.903,12.903v139.249
		C494.624,480.862,586.46,505.072,590.369,506.067z M520.43,279.77h146.237v126.346c0,48.14-58.633,69.472-73.118,74.005
		c-14.486-4.531-73.119-25.863-73.119-74.005V279.77z"/>
	<path style="fill:#FFE000;" d="M555.699,430.449c7.127,0,12.903-5.777,12.903-12.903V318.48c0-7.126-5.776-12.903-12.903-12.903
		c-7.128,0-12.903,5.777-12.903,12.903v99.066C542.796,424.672,548.571,430.449,555.699,430.449z"/>
	<path style="fill:#FFFFFF;" d="M593.549,447.653c7.127,0,12.902-5.777,12.902-12.903V318.48c0-7.126-5.775-12.903-12.902-12.903
		c-7.128,0-12.903,5.777-12.903,12.903v116.27C580.646,441.876,586.421,447.653,593.549,447.653z"/>
	<path style="fill:#FFE000;" d="M631.397,430.449c7.128,0,12.903-5.777,12.903-12.903V318.48c0-7.126-5.775-12.903-12.903-12.903
		c-7.127,0-12.903,5.777-12.903,12.903v99.066C618.494,424.672,624.271,430.449,631.397,430.449z"/>
	<path style="fill:#FFE000;" d="M464.516,497.788c6.177,0,11.338-4.339,12.606-10.133c7.277,9.747,15.784,18.607,25.342,26.304
		c25.692,20.685,58.038,32.077,91.083,32.077c33.044,0,65.392-11.393,91.083-32.077c9.559-7.696,18.064-16.558,25.342-26.304
		c1.268,5.794,6.43,10.133,12.605,10.133c7.128,0,12.903-5.777,12.903-12.903v-54.236c0-6.56-4.922-12.077-11.439-12.821
		c-6.512-0.74-12.557,3.521-14.035,9.914c-12.586,54.455-60.478,92.486-116.459,92.486s-103.873-38.031-116.459-92.486
		c-1.479-6.392-7.507-10.654-14.036-9.914c-6.517,0.744-11.438,6.262-11.438,12.821v54.236
		C451.613,492.011,457.389,497.788,464.516,497.788z"/>
	<path d="M787.097,129.031H12.903C5.777,129.031,0,134.809,0,141.935v516.129c0,7.126,5.777,12.903,12.903,12.903h103.226
		c7.126,0,12.903-5.777,12.903-12.903s-5.777-12.903-12.903-12.903H25.807V399.999v-8.602v-41.87v-43.721v-16.129v-37.419v-16.129
		v-43.721v-13.917v-23.652h6.451h62.806h76.549h16.129h37.419h16.129h76.548h20.938h41.869H400h374.193v490.322H167.742
		c-7.126,0-12.903,5.777-12.903,12.903s5.777,12.903,12.903,12.903h619.354c7.128,0,12.903-5.777,12.903-12.903V141.935
		C800,134.809,794.225,129.031,787.097,129.031z"/>
</g>
<g>
</g>
<g>
</g>
<g>
</g>
<g>
</g>
<g>
</g>
<g>
</g>
<g>
</g>
<g>
</g>
<g>
</g>
<g>
</g>
<g>
</g>
<g>
</g>
<g>
</g>
<g>
</g>
<g>
</g>
</svg>
