<?xml version="1.0" encoding="iso-8859-1"?>
<!-- Generator: Adobe Illustrator 19.0.0, SVG Export Plug-In . SVG Version: 6.00 Build 0)  -->
<svg version="1.1" id="Layer_1" xmlns="http://www.w3.org/2000/svg" xmlns:xlink="http://www.w3.org/1999/xlink" x="0px" y="0px"
	 viewBox="0 0 800 800" style="enable-background:new 0 0 800 800;" xml:space="preserve">
<g>
	<path style="fill:#103B9B;" d="M672.666,509.794c3.551-8.744,5.352-17.426,5.352-25.804c0-16.901-8.478-32.556-22.678-41.874
		l-2.854-1.873l3.777,0.041c0.6,0.007,1.199,0.014,1.812,0.014c37.91,0,57.75-9.524,75.254-17.928
		c12.194-5.853,22.726-10.907,40.776-12.501l1.088-0.096v71.567l-0.938,0.059c-29.769,1.872-47.101,10.192-62.393,17.533
		c-11.622,5.579-21.659,10.397-38.16,12.231l-1.669,0.186L672.666,509.794z"/>
	<path style="fill:#103B9B;" d="M658.075,441.299c-0.74,0-1.461-0.01-2.187-0.018c13.914,9.131,23.129,24.86,23.129,42.71
		c0,9.781-2.415,18.769-5.425,26.18c16.248-1.806,26.098-6.503,37.838-12.139c15.497-7.439,32.822-15.747,62.763-17.63v-69.536
		c-17.834,1.574-28.075,6.476-40.432,12.406C716.16,431.722,696.208,441.299,658.075,441.299z"/>
	<path style="fill:#103B9B;" d="M411.901,197.383l0.938-0.059c29.772-1.869,47.109-10.191,62.405-17.533
		c15.181-7.287,27.171-13.042,53.786-13.042c26.613,0,38.604,5.754,53.785,13.04c17.509,8.404,37.35,17.928,75.258,17.928
		c37.909,0,57.749-9.524,75.254-17.926c12.195-5.853,22.728-10.908,40.776-12.501l1.088-0.096v71.566l-0.938,0.059
		c-29.764,1.871-47.099,10.192-62.393,17.533c-7.06,3.389-13.728,6.589-21.608,8.944l-0.966,0.289l-0.281-0.969
		c-12.241-42.269-51.495-71.789-95.457-71.789c-34.093,0-65.438,17.247-83.852,46.135l-0.26,0.407l-0.48,0.05
		c-25.417,2.649-41.229,10.238-55.181,16.934c-12.196,5.854-22.729,10.909-40.787,12.502l-1.088,0.096v-71.568H411.901z"/>
	<path style="fill:#103B9B;" d="M508.854,238.425c17.836-27.983,49.123-46.598,84.695-46.598c45.681,0,84.304,30.682,96.418,72.511
		c7.721-2.307,14.232-5.417,21.462-8.888c15.498-7.439,32.822-15.747,62.763-17.629v-69.535
		c-17.834,1.574-28.075,6.476-40.432,12.406c-17.602,8.449-37.554,18.025-75.687,18.025c-38.134,0-58.085-9.576-75.688-18.025
		c-15.067-7.231-26.968-12.943-53.355-12.943s-38.288,5.712-53.354,12.943c-15.498,7.439-32.826,15.749-62.775,17.629v69.538
		c17.843-1.574,28.084-6.476,40.442-12.408C467.546,248.636,483.282,241.09,508.854,238.425z"/>
	<path style="fill:#103B9B;" d="M658.076,390.685c-11.606,0-21.072-1.088-29.79-3.423l-3.021-0.809l2.93-1.094
		c30.501-11.383,53.538-36.958,61.623-68.412l0.159-0.617l0.625-0.117c18.373-3.444,31.313-9.654,42.729-15.132
		c12.193-5.853,22.725-10.907,40.776-12.5l1.088-0.096v71.568l-0.938,0.059c-29.766,1.871-47.1,10.191-62.393,17.532
		C696.682,384.932,684.69,390.685,658.076,390.685z"/>
	<path style="fill:#103B9B;" d="M690.787,317.196c-8.201,31.904-31.735,57.714-62.242,69.1c7.859,2.105,17.07,3.389,29.531,3.389
		c26.389,0,38.289-5.712,53.356-12.943c15.497-7.439,32.822-15.747,62.763-17.629v-69.537c-17.834,1.574-28.076,6.476-40.432,12.406
		C722.04,307.609,709.268,313.732,690.787,317.196z"/>
	<path style="fill:#103B9B;" d="M612.384,435.409c-2.049-0.594-4.022-1.22-5.933-1.868v4.204
		C608.375,436.846,610.355,436.065,612.384,435.409z"/>
	<path style="fill:#103B9B;" d="M411.903,318.672l0.938-0.059c29.772-1.869,47.109-10.191,62.405-17.533
		c5.868-2.816,11.411-5.476,17.641-7.657l1.301-0.456l0.029,1.378c0.501,23.602,9.446,46.315,25.188,63.956l1.394,1.562l-2.09,0.104
		c-31.319,1.547-49.174,10.115-64.928,17.675c-12.198,5.855-22.73,10.91-40.789,12.503l-1.088,0.096L411.903,318.672
		L411.903,318.672z"/>
	<path style="fill:#103B9B;" d="M518.658,358.967c-15.395-17.252-24.915-39.835-25.441-64.601
		c-6.079,2.128-11.565,4.749-17.538,7.615c-15.498,7.439-32.826,15.749-62.775,17.629v69.538
		c17.843-1.574,28.084-6.476,40.442-12.408C469.278,369.096,487.137,360.524,518.658,358.967z"/>
	<path style="fill:#103B9B;" d="M399.995,511.977c-26.615,0-38.603-5.755-53.781-13.042c-17.508-8.402-37.35-17.926-75.251-17.926
		c-37.904,0-57.744,9.524-75.249,17.928c-15.183,7.287-27.171,13.04-53.778,13.04c-26.614,0-38.603-5.755-53.781-13.042
		c-15.295-7.342-32.631-15.664-62.41-17.534l-0.938-0.059v-69.438l14.417,0.003l0.109,0.024
		c10.583,2.393,18.728,6.303,27.352,10.443c17.506,8.402,37.347,17.927,75.251,17.927c37.905,0,57.744-9.524,75.248-17.927
		c8.628-4.142,16.778-8.053,27.329-10.439l0.109-0.024h52.688l0.109,0.024c10.564,2.39,18.706,6.3,27.326,10.438
		c17.507,8.402,37.348,17.926,75.251,17.926c37.905,0,57.746-9.523,75.251-17.926c15.18-7.286,27.17-13.042,53.786-13.042
		c24.699,0,36.643,4.833,52.045,12.206l0.568,0.272v17.505l-1.423-0.664c-6.703-3.131-13.798-4.718-21.085-4.718
		c-26.525,0-48.476,20.735-49.971,47.206l-0.048,0.847l-0.843,0.091c-25.018,2.711-40.68,10.228-54.498,16.858
		C438.6,506.221,426.609,511.977,399.995,511.977z"/>
	<path style="fill:#103B9B;" d="M141.936,510.977c26.383,0,38.281-5.712,53.345-12.941c17.6-8.449,37.552-18.026,75.682-18.026
		s58.082,9.576,75.684,18.024c15.063,7.231,26.962,12.943,53.349,12.943c26.386,0,38.286-5.712,53.351-12.943
		c14.073-6.754,29.658-14.225,54.823-16.951c1.514-26.804,23.793-48.149,50.969-48.149c7.545,0,14.866,1.71,21.508,4.812V422.44
		c-14.268-6.83-26.254-12.108-51.613-12.108c-26.388,0-38.288,5.712-53.354,12.943c-17.601,8.448-37.552,18.024-75.684,18.024
		s-58.082-9.576-75.684-18.024c-8.919-4.282-16.75-8.02-27.114-10.364h-52.464c-10.366,2.345-18.197,6.084-27.117,10.365
		c-17.6,8.449-37.552,18.025-75.68,18.025c-38.132,0-58.082-9.576-75.684-18.025c-8.925-4.285-16.762-8.023-27.14-10.369
		l-13.306-0.003v67.499c29.953,1.881,47.281,10.19,62.78,17.631C103.651,505.265,115.551,510.977,141.936,510.977z"/>
	<path style="fill:#103B9B;" d="M658.075,633.267c-26.612,0-38.602-5.753-53.781-13.037c-17.513-8.406-37.354-17.931-75.262-17.931
		s-57.749,9.524-75.254,17.927c-15.18,7.286-27.17,13.041-53.783,13.041c-26.613,0-38.601-5.754-53.779-13.039
		c-17.508-8.404-37.35-17.929-75.254-17.929c-37.9,0-57.741,9.523-75.246,17.926c-15.187,7.289-27.174,13.042-53.781,13.042
		c-26.615,0-38.604-5.756-53.781-13.043c-15.294-7.343-32.629-15.665-62.41-17.534l-0.938-0.059v-71.567l1.088,0.096
		c18.059,1.591,28.593,6.647,40.79,12.502c17.505,8.402,37.346,17.927,75.251,17.927s57.744-9.524,75.248-17.927
		c15.181-7.287,27.169-13.041,53.779-13.041c26.612,0,38.601,5.755,53.78,13.04c17.506,8.403,37.347,17.928,75.252,17.928
		c37.907,0,57.747-9.524,75.251-17.927c14.683-7.047,26.28-12.613,51.066-13.004l0.397-0.006l0.293,0.269
		c2.207,2.02,5.057,3.132,8.023,3.132h23.823l0.128,0.034c8.14,2.199,14.824,5.26,22.1,8.741l0.568,0.272v52.169
		c0,6.563,5.34,11.903,11.903,11.903s11.902-5.34,11.902-11.903v-41.833l1.322,0.45c15.45,5.255,31.752,7.703,51.302,7.703
		c37.91,0,57.75-9.523,75.254-17.926c12.194-5.853,22.726-10.907,40.776-12.501l1.088-0.096v71.567l-0.938,0.059
		c-29.769,1.872-47.101,10.192-62.393,17.533C696.679,627.513,684.688,633.267,658.075,633.267z"/>
	<path style="fill:#103B9B;" d="M141.936,632.267c26.383,0,38.281-5.712,53.345-12.941c17.6-8.448,37.552-18.026,75.682-18.026
		s58.082,9.576,75.684,18.025c15.063,7.23,26.962,12.942,53.349,12.942c26.386,0,38.286-5.712,53.351-12.942
		c17.602-8.449,37.555-18.025,75.687-18.025c38.134,0,58.085,9.576,75.687,18.025c15.068,7.23,26.968,12.942,53.356,12.942
		s38.288-5.712,53.355-12.942c15.497-7.439,32.822-15.747,62.763-17.63v-69.536c-17.834,1.574-28.075,6.476-40.432,12.406
		c-17.602,8.449-37.554,18.024-75.687,18.024c-22.423,0-38.556-3.312-51.624-7.757v40.437c0,7.128-5.775,12.903-12.902,12.903
		c-7.128,0-12.903-5.775-12.903-12.903V543.73c-7.212-3.451-13.863-6.499-21.929-8.678h-23.69c-3.245,0-6.337-1.233-8.698-3.395
		c-24.489,0.386-36.117,5.931-50.649,12.905c-17.601,8.449-37.552,18.025-75.684,18.025s-58.082-9.576-75.684-18.025
		c-15.064-7.23-26.964-12.942-53.349-12.942c-26.384,0-38.283,5.712-53.347,12.942c-17.6,8.449-37.552,18.025-75.68,18.025
		c-38.132,0-58.082-9.576-75.684-18.025c-12.358-5.932-22.601-10.835-40.445-12.407v69.536c29.953,1.88,47.281,10.189,62.78,17.631
		C103.651,626.555,115.551,632.267,141.936,632.267z"/>
	<path style="fill:#FFFFFF;" d="M399.995,441.299c38.132,0,58.083-9.576,75.684-18.024c15.065-7.231,26.966-12.943,53.354-12.943
		c25.359,0,37.346,5.278,51.613,12.108v-30.697c-24.521-3.163-46.296-15.19-61.987-32.774c-31.521,1.557-49.38,10.128-65.313,17.775
		c-12.358,5.932-22.6,10.833-40.442,12.408v10.858c0,3.422-1.359,6.702-3.778,9.125c-2.421,2.419-5.701,3.778-9.125,3.778
		l-102.803-0.002c10.364,2.347,18.195,6.084,27.114,10.364C341.913,431.721,361.863,441.299,399.995,441.299z"/>
	<path style="fill:#FFFFFF;" d="M658.075,389.685c-12.46,0-21.673-1.285-29.531-3.389c-7.026,2.622-14.428,4.458-22.093,5.447
		v41.798c1.91,0.648,3.882,1.274,5.933,1.868c4.972-1.608,10.218-2.476,15.575-2.476c10.304,0,19.896,3.077,27.93,8.349
		c0.726,0.007,1.446,0.018,2.187,0.018c38.133,0,58.085-9.576,75.687-18.025c12.356-5.93,22.598-10.832,40.432-12.406v-51.753
		c-29.942,1.882-47.267,10.19-62.763,17.629C696.363,383.974,684.463,389.685,658.075,389.685z"/>
	<path style="fill:#FFFFFF;" d="M141.936,441.299c38.128,0,58.08-9.576,75.68-18.024c8.921-4.282,16.752-8.021,27.118-10.366
		l-205.621-0.005c10.376,2.345,18.212,6.085,27.14,10.369C83.854,431.721,103.804,441.299,141.936,441.299z"/>
	<path style="fill:#FFFFFF;" d="M689.967,264.339c2.564,8.857,3.967,18.202,3.967,27.875c0,8.623-1.094,16.993-3.148,24.982
		c18.481-3.465,31.254-9.588,42.975-15.214c12.356-5.93,22.598-10.832,40.432-12.406v-51.754
		c-29.941,1.882-47.267,10.19-62.763,17.629C704.201,258.92,697.688,262.031,689.967,264.339z"/>
	<path style="fill:#FFFFFF;" d="M493.217,294.367c-0.016-0.717-0.056-1.431-0.056-2.154c0-19.782,5.774-38.226,15.692-53.788
		c-25.571,2.663-41.308,10.211-55.508,17.025c-12.358,5.932-22.6,10.833-40.442,12.408v51.752
		c29.949-1.88,47.277-10.19,62.774-17.629C481.651,299.115,487.138,296.497,493.217,294.367z"/>
	<path style="fill:#FFFFFF;" d="M529.032,167.749c26.388,0,38.288,5.712,53.355,12.943c17.602,8.449,37.554,18.025,75.688,18.025
		c38.133,0,58.085-9.576,75.687-18.025c12.356-5.93,22.598-10.832,40.432-12.406v-13.44h-361.29v43.476
		c29.949-1.88,47.277-10.19,62.775-17.629C490.744,173.46,502.645,167.749,529.032,167.749z"/>
	<path style="fill:#FFFFFF;" d="M141.936,562.589c38.128,0,58.08-9.575,75.68-18.024c15.064-7.231,26.963-12.943,53.347-12.943
		c26.385,0,38.285,5.712,53.349,12.943c17.602,8.449,37.552,18.024,75.684,18.024s58.083-9.575,75.684-18.024
		c14.532-6.977,26.16-12.521,50.649-12.905c-0.447-0.409-0.88-0.84-1.27-1.316c-0.692-0.843-16.979-20.945-16.979-46.35
		c0-0.978,0.034-1.946,0.088-2.909c-25.165,2.725-40.75,10.197-54.823,16.951c-15.064,7.231-26.965,12.942-53.351,12.942
		s-38.285-5.711-53.349-12.942c-17.602-8.449-37.554-18.024-75.684-18.024s-58.082,9.575-75.682,18.026
		c-15.064,7.23-26.963,12.94-53.346,12.94c-26.384,0-38.285-5.711-53.349-12.942c-15.501-7.439-32.828-15.75-62.78-17.631v51.754
		c17.843,1.572,28.088,6.476,40.446,12.408C83.854,553.012,103.804,562.589,141.936,562.589z"/>
	<path style="fill:#FFFFFF;" d="M673.592,510.17c-4.808,11.842-11.128,19.651-11.555,20.171c-2.452,2.981-6.109,4.708-9.969,4.708
		h-45.617v19.78c13.068,4.445,29.201,7.758,51.624,7.758c38.133,0,58.085-9.576,75.687-18.025
		c12.356-5.931,22.598-10.832,40.432-12.406v-51.754c-29.942,1.883-47.267,10.19-62.763,17.63
		C699.688,503.667,689.841,508.365,673.592,510.17z"/>
	<path style="fill:#FFFFFF;" d="M558.717,535.052c8.065,2.179,14.717,5.227,21.929,8.678v-8.678H558.717z"/>
	<path style="fill:#FFFFFF;" d="M116.139,645.169h658.054v-43.476c-29.942,1.883-47.267,10.19-62.763,17.63
		c-15.067,7.23-26.968,12.942-53.355,12.942c-26.389,0-38.288-5.712-53.356-12.942c-17.602-8.449-37.553-18.025-75.687-18.025
		c-38.132,0-58.085,9.576-75.687,18.025c-15.064,7.23-26.965,12.942-53.351,12.942c-26.387,0-38.285-5.712-53.349-12.942
		c-17.603-8.449-37.554-18.025-75.684-18.025s-58.082,9.576-75.682,18.026c-15.064,7.231-26.962,12.941-53.345,12.941
		c-26.385,0-38.285-5.712-53.349-12.942c-15.501-7.439-32.827-15.751-62.78-17.631v43.477h38.72c7.128,0,12.903,5.775,12.903,12.903
		h25.807C103.236,650.945,109.012,645.169,116.139,645.169z"/>
	<polygon style="fill:#103B9B;" points="240.291,388.102 240.291,334.203 321.141,388.104 	"/>
	<polygon style="fill:#103B9B;" points="241.291,336.071 241.291,387.102 317.838,387.104 	"/>
	<polygon style="fill:#103B9B;" points="91.761,153.846 172.613,153.846 172.613,207.747 	"/>
	<polygon style="fill:#103B9B;" points="171.613,205.878 171.613,154.846 95.064,154.846 	"/>
	<polygon style="fill:#103B9B;" points="318.213,304.815 388.097,304.815 388.097,351.403 	"/>
	<polygon style="fill:#103B9B;" points="321.516,305.815 387.097,349.534 387.097,305.815 	"/>
	<polygon style="fill:#103B9B;" points="91.771,388.099 172.613,334.203 172.613,388.099 	"/>
	<polygon style="fill:#103B9B;" points="171.613,336.071 95.074,387.099 171.613,387.099 	"/>
	<polygon style="fill:#103B9B;" points="24.807,237.137 24.807,190.548 94.69,237.137 	"/>
	<polygon style="fill:#103B9B;" points="25.807,192.417 25.807,236.137 91.388,236.137 	"/>
	<polygon style="fill:#103B9B;" points="318.213,237.137 388.097,190.548 388.097,237.137 	"/>
	<polygon style="fill:#103B9B;" points="321.516,236.137 387.097,236.137 387.097,192.417 	"/>
	<polygon style="fill:#103B9B;" points="240.291,153.846 321.142,153.846 240.291,207.747 	"/>
	<polygon style="fill:#103B9B;" points="241.291,205.878 317.839,154.846 241.291,154.846 	"/>
	<polygon style="fill:#103B9B;" points="24.807,304.815 94.69,304.815 24.807,351.403 	"/>
	<polygon style="fill:#103B9B;" points="91.388,305.815 25.807,305.815 25.807,349.534 	"/>
	<polygon style="fill:#FFFFFF;" points="380.646,154.846 258.709,236.137 241.291,236.137 241.291,219.842 338.776,154.846 
		317.839,154.846 241.291,205.878 241.291,154.846 225.161,154.846 225.161,252.266 387.097,252.266 387.097,236.137 
		321.516,236.137 387.097,192.417 387.097,154.846 	"/>
	<polygon style="fill:#ED1F34;" points="380.343,388.104 255.407,304.815 300.229,304.815 388.097,363.531 388.097,388.104 	"/>
	<polygon style="fill:#ED1F34;" points="258.709,305.815 380.646,387.104 387.097,387.104 387.097,364.066 299.926,305.815 	"/>
	<polygon style="fill:#ED1F34;" points="240.291,237.137 240.291,219.307 338.474,153.846 383.948,153.846 259.012,237.137 	"/>
	<polygon style="fill:#ED1F34;" points="241.291,219.842 241.291,236.137 258.709,236.137 380.646,154.846 338.776,154.846 	"/>
	<polygon style="fill:#ED1F34;" points="111.752,237.137 24.807,179.035 24.807,153.846 32.561,153.846 157.496,237.137 	"/>
	<polygon style="fill:#ED1F34;" points="154.193,236.137 32.258,154.846 25.807,154.846 25.807,178.499 112.055,236.137 	"/>
	<polygon style="fill:#ED1F34;" points="28.967,388.096 153.891,304.815 172.613,304.815 172.613,322.651 74.443,388.099 	"/>
	<polygon style="fill:#ED1F34;" points="171.613,322.115 171.613,305.815 154.193,305.815 32.27,387.096 74.14,387.099 	"/>
	<polygon style="fill:#FFFFFF;" points="187.742,289.685 25.807,289.685 25.807,305.815 91.388,305.815 25.807,349.534 
		25.807,387.096 32.27,387.096 154.193,305.815 171.613,305.815 171.613,322.115 74.14,387.099 95.074,387.099 171.613,336.071 
		171.613,387.099 187.742,387.099 	"/>
	<polygon style="fill:#FFFFFF;" points="187.742,252.266 187.742,154.846 171.613,154.846 171.613,205.878 95.064,154.846 
		32.258,154.846 154.193,236.137 112.055,236.137 25.807,178.499 25.807,192.417 91.388,236.137 25.807,236.137 25.807,252.266 	"/>
	<polygon style="fill:#FFFFFF;" points="225.161,289.685 225.161,387.102 241.291,387.102 241.291,336.071 317.838,387.104 
		380.646,387.104 258.709,305.815 299.926,305.815 387.097,364.066 387.097,349.534 321.516,305.815 387.097,305.815 
		387.097,289.685 	"/>
	<polygon style="fill:#ED1F34;" points="186.742,388.099 186.742,290.685 24.807,290.685 24.807,251.266 186.742,251.266 
		186.742,153.846 226.161,153.846 226.161,251.266 388.097,251.266 388.097,290.685 226.161,290.685 226.161,388.102 	"/>
	<polygon style="fill:#ED1F34;" points="225.161,252.266 225.161,154.846 187.742,154.846 187.742,252.266 25.807,252.266 
		25.807,289.685 187.742,289.685 187.742,387.099 225.161,387.102 225.161,289.685 387.097,289.685 387.097,252.266 	"/>
	<path d="M787.097,129.04h-386.78c-0.106-0.002-0.21-0.016-0.316-0.016s-0.21,0.014-0.316,0.016H12.903
		C5.775,129.04,0,134.817,0,141.943v516.129c0,7.128,5.775,12.903,12.903,12.903h51.623c7.128,0,12.903-5.775,12.903-12.903
		s-5.775-12.903-12.903-12.903h-38.72v-43.477v-69.537v-51.754v-67.499h13.306l205.621,0.003h52.464L400,412.907
		c3.422,0,6.703-1.359,9.125-3.777c2.419-2.422,3.778-5.702,3.778-9.125v-10.858v-69.538v-51.752v-69.538v-43.476h361.29v13.44
		v69.536v51.754v69.536v51.755v69.536v51.754v69.536v43.476H116.139c-7.127,0-12.903,5.775-12.903,12.902
		c0,7.128,5.775,12.903,12.903,12.903h670.958c7.128,0,12.903-5.775,12.903-12.903V141.939
		C800,134.817,794.225,129.04,787.097,129.04z M387.097,236.137v16.129v37.419v16.129v43.721v14.533v23.038h-6.451l-62.808-0.001
		l-76.547-0.002h-16.129h-37.419h-16.129l-76.539-0.001H74.14l-41.87-0.005h-6.463v-37.562v-43.721v-16.129v-37.419v-16.129v-43.721
		v-13.917v-23.651h6.451h62.806h76.549h16.129h37.419h16.129h76.548h20.938h41.869h6.451v37.569v43.72H387.097z"/>
	<path style="fill:#259245;" d="M593.549,367.794c-41.676,0-75.581-33.905-75.581-75.579c0-41.675,33.905-75.581,75.581-75.581
		c41.675,0,75.58,33.905,75.58,75.579C669.129,333.888,635.224,367.794,593.549,367.794z"/>
	<path style="fill:#259245;" d="M593.549,366.794c41.123,0,74.58-33.457,74.58-74.581c0-41.124-33.457-74.579-74.58-74.579
		c-41.124,0-74.581,33.458-74.581,74.581C518.968,333.338,552.425,366.794,593.549,366.794z"/>
	<path style="fill:#ED1F34;" d="M541.235,510.245l-0.292-0.48c-3.676-6.05-8.058-15.433-8.058-25.773
		c0-14.476,11.776-26.252,26.252-26.252c10.035,0,19.331,5.85,23.682,14.902c1.969,4.101,6.181,6.749,10.729,6.749
		s8.76-2.648,10.729-6.748c4.349-9.054,13.645-14.903,23.682-14.903c14.476,0,26.252,11.776,26.252,26.252
		c0,10.321-4.387,19.712-8.066,25.772l-0.292,0.481H541.235z"/>
	<path style="fill:#ED1F34;" d="M645.29,509.245c3.293-5.424,7.921-14.894,7.921-25.254c0-13.925-11.327-25.252-25.252-25.252
		c-9.653,0-18.597,5.627-22.78,14.336c-2.147,4.472-6.669,7.315-11.63,7.315c-4.962,0-9.483-2.844-11.631-7.315
		c-4.186-8.71-13.127-14.336-22.78-14.336c-13.925,0-25.252,11.327-25.252,25.252c0,10.383,4.628,19.849,7.912,25.254H645.29z"/>
	<path d="M652.07,535.052c3.859,0,7.517-1.727,9.969-4.709c0.426-0.52,6.747-8.328,11.554-20.17c3.01-7.413,5.425-16.4,5.425-26.18
		c0-17.85-9.215-33.581-23.129-42.71c-8.033-5.27-17.626-8.349-27.93-8.349c-5.359,0-10.604,0.868-15.575,2.476
		c-2.026,0.655-4.009,1.437-5.933,2.334v-4.204v-41.798c7.665-0.989,15.066-2.825,22.093-5.447
		c30.507-11.386,54.04-37.195,62.241-69.099c2.055-7.99,3.148-16.361,3.148-24.982c0-9.672-1.402-19.018-3.967-27.875
		c-12.114-41.829-50.737-72.511-96.418-72.511c-35.572,0-66.859,18.615-84.695,46.598c-9.918,15.562-15.692,34.008-15.692,53.788
		c0,0.723,0.04,1.435,0.056,2.154c0.526,24.766,10.045,47.348,25.441,64.601c15.691,17.586,37.466,29.612,61.987,32.774v30.695
		v15.306c-6.642-3.103-13.963-4.813-21.508-4.813c-27.176,0-49.455,21.346-50.969,48.149c-0.054,0.964-0.088,1.933-0.088,2.909
		c0,25.406,16.287,45.508,16.979,46.351c0.391,0.475,0.822,0.906,1.27,1.316c2.362,2.16,5.454,3.395,8.699,3.395h23.69h21.927v8.678
		v51.54c0,7.128,5.775,12.903,12.903,12.903c7.127,0,12.902-5.775,12.902-12.903v-40.437v-19.78L652.07,535.052L652.07,535.052z
		 M533.886,483.99c0-13.925,11.327-25.252,25.252-25.252c9.653,0,18.597,5.627,22.78,14.336c2.147,4.472,6.669,7.315,11.631,7.315
		c4.961,0,9.482-2.844,11.63-7.315c4.186-8.71,13.127-14.336,22.78-14.336c13.925,0,25.252,11.327,25.252,25.252
		c0,10.359-4.626,19.828-7.921,25.254H541.798C538.516,503.839,533.886,494.373,533.886,483.99z M593.549,217.633
		c41.123,0,74.58,33.458,74.58,74.581c0,41.124-33.455,74.581-74.58,74.581c-41.126,0-74.581-33.458-74.581-74.581
		S552.425,217.633,593.549,217.633z"/>
</g>
<g>
</g>
<g>
</g>
<g>
</g>
<g>
</g>
<g>
</g>
<g>
</g>
<g>
</g>
<g>
</g>
<g>
</g>
<g>
</g>
<g>
</g>
<g>
</g>
<g>
</g>
<g>
</g>
<g>
</g>
</svg>
