<?xml version="1.0" encoding="iso-8859-1"?>
<!-- Generator: Adobe Illustrator 19.0.0, SVG Export Plug-In . SVG Version: 6.00 Build 0)  -->
<svg version="1.1" id="Layer_1" xmlns="http://www.w3.org/2000/svg" xmlns:xlink="http://www.w3.org/1999/xlink" x="0px" y="0px"
	 viewBox="0 0 799.999 799.999" style="enable-background:new 0 0 799.999 799.999;" xml:space="preserve">
<g>
	<path style="fill:#333333;" d="M431.246,512.592l3.284-1.033c33.039-10.396,59.431-34.833,72.408-67.047l0.332-0.824
		l267.923,72.935v87.69L431.246,512.592z"/>
	<path style="fill:#333333;" d="M400,450.108c-26.192,0-47.946-21.306-48.494-47.494l-0.028-1.337l90.504,24.637l-0.705,1.14
		C432.341,441.49,416.91,450.108,400,450.108z"/>
	<path style="fill:#333333;" d="M400,493.043c-50.429,0-91.455-41.026-91.455-91.455c0-6.563-5.34-11.903-11.903-11.903
		s-11.903,5.34-11.903,11.903c0,29.049,10.902,56.825,30.699,78.212l2.347,2.536L24.807,404.21v-91.86L328,394.887l-0.067,0.828
		c-0.174,2.143-0.259,4.064-0.259,5.873c0,39.881,32.445,72.326,72.326,72.326c27.508,0,53.066-16.037,65.112-40.857l0.362-0.746
		l18.663,5.079l-0.471,1.063C468.999,471.615,436.157,493.043,400,493.043z"/>
	<path style="fill:#ED1F34;" d="M400,518.85c-32.503,0-63.86-13.738-86.031-37.69c-20.14-21.758-31.231-50.017-31.231-79.571
		c0-7.667,6.237-13.903,13.903-13.903s13.903,6.237,13.903,13.903c0,49.326,40.129,89.455,89.455,89.455
		c35.366,0,67.489-20.96,81.839-53.398c3.452-7.808,5.759-16.077,6.854-24.58c0.506-3.923,0.763-7.784,0.763-11.477
		c0-7.667,6.237-13.903,13.903-13.903c7.665,0,13.903,6.236,13.905,13.901c0,6.16-0.502,12.417-1.491,18.596
		c-1.366,8.541-3.714,16.978-6.978,25.077c-13.203,32.771-40.053,57.633-73.665,68.208C423.782,517.038,411.962,518.85,400,518.85z"
		/>
	<path style="fill:#ED1F34;" d="M400,475.914c-40.983,0-74.326-33.343-74.326-74.326c0-1.836,0.087-3.81,0.266-6.034
		c0.712-8.812,2.96-17.322,6.681-25.294c10.129-21.696,30.078-37.221,53.476-41.669v-33.537c0-7.667,6.237-13.903,13.903-13.903
		s13.903,6.237,13.903,13.903v33.536c35.063,6.653,60.423,37.219,60.423,72.998c0,2.329-0.118,4.736-0.351,7.154
		c-0.844,8.792-3.221,17.267-7.065,25.188C454.533,459.435,428.27,475.914,400,475.914z M353.506,402.588
		c0.532,25.102,21.387,45.521,46.494,45.521c16.212,0,31.007-8.265,39.576-22.107c4.363-7.046,6.751-15.123,6.93-23.413h-93V402.588
		z"/>
	<path style="fill:#FFE000;" d="M632.258,154.839H25.807v42.293l361.29,100.36v-2.438c0-7.128,5.777-12.903,12.903-12.903
		s12.903,5.775,12.903,12.903v9.605l361.29,100.359v-250.18h-90.322c-7.126,0-12.903-5.775-12.903-12.903h-25.807
		C645.161,149.063,639.384,154.839,632.258,154.839z"/>
	<path style="fill:#FFE000;" d="M400,517.85c-33.679,0-64.045-14.409-85.297-37.37L25.807,403.441v241.72h748.387v-42.15
		L434.83,512.513C423.828,515.976,412.129,517.85,400,517.85z"/>
	<path style="fill:#333333;" d="M434.83,512.513l339.363,90.498v-85.624l-266.327-72.501
		C494.934,476.987,468.095,502.046,434.83,512.513z"/>
	<path style="fill:#333333;" d="M400,449.108c17.062,0,32.045-9.041,40.427-22.581l-87.921-23.934
		C353.044,428.334,374.135,449.108,400,449.108z"/>
	<path style="fill:#333333;" d="M283.738,401.588c0-7.128,5.777-12.903,12.903-12.903s12.903,5.775,12.903,12.903
		c0,49.877,40.578,90.455,90.455,90.455c36.906,0,68.702-22.229,82.753-53.994l-16.741-4.556
		c-11.887,24.492-37.009,41.421-66.012,41.421c-40.432,0-73.326-32.895-73.326-73.326c0-2.006,0.103-3.988,0.263-5.954
		l-301.13-81.975v89.783l288.896,77.038C295.503,459.736,283.738,432.014,283.738,401.588z"/>
	<path style="fill:#FFFFFF;" d="M447.52,401.588h-0.466l0.463,0.125C447.517,401.672,447.52,401.629,447.52,401.588L447.52,401.588z
		"/>
	<path style="fill:#FFFFFF;" d="M412.903,329.423c34.297,6.116,60.423,36.138,60.423,72.165c0,2.381-0.123,4.732-0.346,7.059
		l16.705,4.547c0.491-3.802,0.771-7.669,0.771-11.604c0-7.128,5.777-12.903,12.903-12.903s12.903,5.775,12.903,12.903
		c0,6.274-0.517,12.43-1.479,18.438l259.408,70.615v-85.624L412.901,304.66v24.763H412.903z"/>
	<path style="fill:#FFFFFF;" d="M387.097,329.423v-31.931l-361.29-100.36v89.783l307.721,83.768
		C343.46,349.406,363.307,333.664,387.097,329.423z"/>
	<path d="M787.097,129.032H683.871c-7.126,0-12.903,5.775-12.903,12.903s5.777,12.903,12.903,12.903h90.322v250.18v85.624
		l-259.41-70.617c-1.383,8.643-3.734,16.96-6.917,24.86l266.327,72.501v85.624v42.15H25.807V403.44v-89.783l301.129,81.973
		c0.715-8.852,3.002-17.259,6.591-24.951l-307.72-83.766V197.13v-42.293h606.451c7.126,0,12.903-5.775,12.903-12.903
		s-5.777-12.903-12.903-12.903H12.903C5.777,129.032,0,134.808,0,141.936v516.129c0,7.128,5.777,12.903,12.903,12.903h774.193
		c7.126,0,12.903-5.775,12.903-12.903V141.936C800,134.808,794.223,129.032,787.097,129.032z"/>
	<path d="M466.011,433.493l16.742,4.556c3.44-7.776,5.808-16.122,6.932-24.856l-16.706-4.548
		C472.133,417.475,469.719,425.852,466.011,433.493z"/>
	<path d="M352.48,401.588L352.48,401.588c0,0.338,0.019,0.671,0.025,1.006l87.921,23.934c4.472-7.221,7.065-15.72,7.09-24.814
		l-0.463-0.125H352.48V401.588z"/>
	<path style="fill:#ED1F34;" d="M503.358,388.685c-7.126,0-12.903,5.775-12.903,12.903c0,3.935-0.28,7.803-0.771,11.604
		c-1.125,8.734-3.493,17.082-6.932,24.856c-14.051,31.765-45.847,53.994-82.753,53.994c-49.877,0-90.455-40.578-90.455-90.455
		c0-7.128-5.777-12.903-12.903-12.903s-12.903,5.775-12.903,12.903c0,30.428,11.765,58.149,30.965,78.892
		c21.252,22.961,51.618,37.37,85.297,37.37c12.129,0,23.828-1.874,34.83-5.337c33.267-10.467,60.104-35.525,73.037-67.628
		c3.184-7.9,5.535-16.219,6.918-24.861c0.962-6.007,1.479-12.161,1.479-18.438C516.262,394.46,510.484,388.685,503.358,388.685z"/>
	<path style="fill:#ED1F34;" d="M400,474.914c29.003,0,54.125-16.929,66.011-41.421c3.708-7.641,6.122-16.019,6.97-24.847
		c0.224-2.326,0.346-4.678,0.346-7.059c0-36.027-26.126-66.051-60.423-72.165v-24.764v-9.605c0-7.128-5.777-12.903-12.903-12.903
		s-12.903,5.775-12.903,12.903v2.438v31.931c-23.79,4.243-43.637,19.983-53.569,41.259c-3.59,7.692-5.875,16.1-6.591,24.952
		c-0.158,1.966-0.263,3.948-0.263,5.954C326.674,442.02,359.568,474.914,400,474.914z M440.427,426.527
		c-8.382,13.54-23.367,22.581-40.427,22.581c-25.865,0-46.956-20.774-47.494-46.515c-0.007-0.335-0.025-0.668-0.025-1.006l0,0
		h94.573h0.466l0,0c0,0.041-0.003,0.084-0.003,0.125C447.492,410.808,444.898,419.307,440.427,426.527z"/>
</g>
<g>
</g>
<g>
</g>
<g>
</g>
<g>
</g>
<g>
</g>
<g>
</g>
<g>
</g>
<g>
</g>
<g>
</g>
<g>
</g>
<g>
</g>
<g>
</g>
<g>
</g>
<g>
</g>
<g>
</g>
</svg>
