<?xml version="1.0" encoding="iso-8859-1"?>
<!-- Generator: Adobe Illustrator 19.0.0, SVG Export Plug-In . SVG Version: 6.00 Build 0)  -->
<svg version="1.1" id="Layer_1" xmlns="http://www.w3.org/2000/svg" xmlns:xlink="http://www.w3.org/1999/xlink" x="0px" y="0px"
	 viewBox="0 0 465 465" style="enable-background:new 0 0 465 465;" xml:space="preserve">
<g>
	<path style="fill:#259245;" d="M274.657,254.115l13.824,51.438c0.807,3-0.321,6.188-2.835,8.014
		c-1.312,0.953-2.858,1.433-4.408,1.433c-1.421,0-2.844-0.402-4.09-1.213L232.5,284.745l-44.648,29.042
		c-2.605,1.694-5.984,1.606-8.498-0.22s-3.642-5.014-2.835-8.014l13.824-51.438L163.609,232.5H15V375h435V232.5H301.391
		L274.657,254.115z"/>
	<path style="fill:#ED1F34;" d="M15,142.5v90h148.609l-14.684-11.873c-2.416-1.953-3.377-5.194-2.417-8.149s3.643-5.013,6.746-5.173
		l53.191-2.748l19.051-49.739c1.111-2.901,3.896-4.817,7.004-4.817s5.893,1.916,7.004,4.817l19.051,49.739l53.191,2.748
		c3.104,0.16,5.786,2.218,6.746,5.173s-0.001,6.196-2.417,8.149L301.391,232.5H450V90H15v22.5c0,4.143-3.357,7.5-7.5,7.5v15
		C11.643,135,15,138.357,15,142.5z"/>
	<path style="fill:#FFE000;" d="M203.567,245.519c2.307,1.865,3.297,4.914,2.527,7.778l-10.008,37.239l32.323-21.025
		c1.243-0.809,2.667-1.213,4.09-1.213s2.847,0.404,4.09,1.213l32.323,21.025l-10.008-37.239c-0.77-2.864,0.221-5.913,2.527-7.778
		l29.984-24.244l-38.508-1.989c-2.963-0.153-5.557-2.038-6.617-4.808l-13.79-36.009l-13.792,36.009
		c-1.061,2.77-3.654,4.654-6.617,4.808l-38.508,1.989L203.567,245.519z"/>
	<path d="M176.519,305.554c-0.807,3,0.321,6.188,2.835,8.014s5.893,1.914,8.498,0.22l44.648-29.042l44.648,29.042
		c1.246,0.811,2.669,1.213,4.09,1.213c1.55,0,3.097-0.479,4.408-1.433c2.514-1.826,3.642-5.014,2.835-8.014l-13.824-51.438
		l26.734-21.615l14.684-11.873c2.416-1.953,3.377-5.194,2.417-8.149s-3.643-5.013-6.746-5.173l-53.191-2.748l-19.051-49.739
		c-1.111-2.901-3.896-4.817-7.004-4.817s-5.893,1.916-7.004,4.817l-19.051,49.739l-53.191,2.748
		c-3.104,0.16-5.786,2.218-6.746,5.173s0.001,6.196,2.417,8.149l14.684,11.873l26.734,21.615L176.519,305.554z M218.708,214.478
		l13.792-36.009l13.792,36.009c1.061,2.77,3.654,4.654,6.617,4.808l38.508,1.989l-29.984,24.244
		c-2.307,1.865-3.297,4.914-2.527,7.778l10.008,37.239l-32.323-21.025c-1.243-0.809-2.667-1.213-4.09-1.213s-2.847,0.404-4.09,1.213
		l-32.323,21.025l10.008-37.239c0.77-2.864-0.221-5.913-2.527-7.778l-29.984-24.244l38.508-1.989
		C215.054,219.132,217.647,217.247,218.708,214.478z"/>
	<path d="M457.5,75H7.5C3.357,75,0,78.357,0,82.5v30c0,4.143,3.357,7.5,7.5,7.5s7.5-3.357,7.5-7.5V90h435v142.5V375H15V232.5v-90
		c0-4.143-3.357-7.5-7.5-7.5S0,138.357,0,142.5v240c0,4.143,3.357,7.5,7.5,7.5h450c4.143,0,7.5-3.357,7.5-7.5v-300
		C465,78.357,461.643,75,457.5,75z"/>
</g>
<g>
</g>
<g>
</g>
<g>
</g>
<g>
</g>
<g>
</g>
<g>
</g>
<g>
</g>
<g>
</g>
<g>
</g>
<g>
</g>
<g>
</g>
<g>
</g>
<g>
</g>
<g>
</g>
<g>
</g>
</svg>
