<?xml version="1.0" encoding="iso-8859-1"?>
<!-- Generator: Adobe Illustrator 19.0.0, SVG Export Plug-In . SVG Version: 6.00 Build 0)  -->
<svg version="1.1" id="Layer_1" xmlns="http://www.w3.org/2000/svg" xmlns:xlink="http://www.w3.org/1999/xlink" x="0px" y="0px"
	 viewBox="0 0 799.999 799.999" style="enable-background:new 0 0 799.999 799.999;" xml:space="preserve">
<g>
	<path style="fill:#B21727;" d="M31.198,153.838h136.544c6.563,0,11.903-5.34,11.903-11.903v-1h27.807v1
		c0,6.563,5.34,11.903,11.903,11.903h548.302L494.874,314.041l-0.546-0.595c-24.201-26.361-58.581-41.479-94.326-41.479
		c-35.978,0-70.508,15.275-94.736,41.908l-0.546,0.601L31.198,153.838z"/>
	<path style="fill:#B21727;" d="M167.742,154.838H34.875l269.651,158.364c23.603-25.946,57.636-42.235,95.476-42.235
		c37.624,0,71.477,16.112,95.063,41.803L763.98,154.839H219.355c-7.126,0-12.903-5.775-12.903-12.903h-25.807
		C180.645,149.062,174.868,154.838,167.742,154.838z"/>
	<path style="fill:#B21727;" d="M31.198,646.16l273.52-160.637l0.546,0.601c24.228,26.633,58.758,41.907,94.736,41.907
		c35.745,0,70.126-15.118,94.326-41.479l0.546-0.595L767.657,646.16H31.198z"/>
	<path style="fill:#B21727;" d="M400,529.031c-37.839,0-71.873-16.289-95.476-42.234L34.875,645.16h729.104L495.063,487.228
		C471.477,512.92,437.624,529.031,400,529.031z"/>
	<path style="fill:#259245;" d="M24.807,235.1l248.572,145.985l-0.094,0.664c-0.874,6.128-1.316,12.269-1.316,18.25
		c0,5.996,0.443,12.136,1.316,18.25l0.095,0.664L24.807,564.897V235.1z"/>
	<path style="fill:#259245;" d="M272.294,381.607L25.807,236.847V563.15l246.487-144.76c-0.858-6.01-1.326-12.146-1.326-18.392
		S271.438,387.617,272.294,381.607z"/>
	<path style="fill:#259245;" d="M526.537,419.539l0.099-0.667c0.927-6.261,1.396-12.61,1.396-18.873
		c0-6.25-0.47-12.601-1.396-18.874l-0.099-0.667l248.656-146.033v331.146L526.537,419.539z"/>
	<path style="fill:#259245;" d="M527.625,419.019l246.568,144.807V236.173L527.625,380.979c0.917,6.208,1.407,12.556,1.407,19.02
		S528.544,412.81,527.625,419.019z"/>
	<path d="M787.097,129.031H219.355c-7.126,0-12.903,5.775-12.903,12.903s5.777,12.903,12.903,12.903H763.98h10.214v51.41
		l-253.25,148.73c3.09,8.298,5.351,16.998,6.683,26.002l246.566-144.807v327.65L527.625,419.017
		c-1.33,9.005-3.592,17.705-6.683,26.003l253.251,148.73v51.41h-10.214H34.875h-9.068v-52.081L278.84,444.476
		c-3.055-8.323-5.257-17.057-6.546-26.084L25.807,563.15V236.847l246.487,144.76c1.289-9.027,3.489-17.76,6.546-26.083
		L25.807,206.918v-52.081h9.068h132.867c7.126,0,12.903-5.775,12.903-12.903s-5.777-12.903-12.903-12.903H12.903
		C5.777,129.031,0,134.807,0,141.935v516.129c0,7.128,5.777,12.903,12.903,12.903h774.193c7.126,0,12.903-5.775,12.903-12.903
		V141.935C800,134.807,794.223,129.031,787.097,129.031z"/>
	<path style="fill:#FFFFFF;" d="M400,270.967c-37.839,0-71.873,16.289-95.476,42.235L34.875,154.838h-9.068v52.081L278.84,355.522
		c-3.057,8.323-5.257,17.056-6.546,26.083c-0.859,6.009-1.327,12.146-1.327,18.391c0,6.246,0.47,12.383,1.327,18.392
		c1.289,9.027,3.489,17.76,6.546,26.084L25.807,593.079v52.081h9.068l269.651-158.363c23.603,25.945,57.636,42.234,95.476,42.234
		c37.624,0,71.477-16.111,95.063-41.803L763.98,645.16h10.214v-51.41L520.942,445.02c3.091-8.297,5.351-16.997,6.683-26.002
		c0.917-6.207,1.407-12.556,1.407-19.02s-0.488-12.811-1.407-19.02c-1.33-9.004-3.592-17.705-6.683-26.002l253.251-148.729v-51.41
		h-10.214L495.063,312.77C471.477,287.079,437.624,270.967,400,270.967z M373.927,336.773l17.685,0.523L400,321.719l8.389,15.577
		l17.685-0.523l-9.296,15.054l9.296,15.054l-17.685-0.523L400,381.935l-8.389-15.577l-17.685,0.523l9.296-15.054L373.927,336.773z
		 M356.776,452.379l-8.39,15.577l-8.389-15.577l-17.684,0.523l9.295-15.054l-9.295-15.054l17.684,0.522l8.389-15.576l8.39,15.576
		l17.684-0.522l-9.295,15.054l9.295,15.054L356.776,452.379z M451.613,467.956l-8.389-15.577l-17.685,0.523l9.295-15.054
		l-9.295-15.054l17.685,0.522l8.389-15.576l8.389,15.576l17.684-0.522l-9.295,15.054l9.295,15.054l-17.684-0.523L451.613,467.956z"
		/>
	<polygon style="fill:#B21727;" points="365.166,437.849 374.46,422.795 356.776,423.317 348.387,407.741 339.998,423.317 
		322.314,422.795 331.607,437.849 322.314,452.902 339.998,452.379 348.387,467.956 356.776,452.379 374.46,452.902 	"/>
	<polygon style="fill:#B21727;" points="477.686,452.902 468.393,437.849 477.686,422.795 460.002,423.317 451.613,407.741 
		443.225,423.317 425.54,422.795 434.834,437.849 425.54,452.902 443.225,452.379 451.613,467.956 460.002,452.379 	"/>
	<polygon style="fill:#B21727;" points="373.927,366.881 391.611,366.358 400,381.935 408.389,366.358 426.073,366.881 
		416.779,351.827 426.073,336.773 408.389,337.296 400,321.719 391.611,337.296 373.927,336.773 383.221,351.827 	"/>
</g>
<g>
</g>
<g>
</g>
<g>
</g>
<g>
</g>
<g>
</g>
<g>
</g>
<g>
</g>
<g>
</g>
<g>
</g>
<g>
</g>
<g>
</g>
<g>
</g>
<g>
</g>
<g>
</g>
<g>
</g>
</svg>
