<?xml version="1.0" encoding="iso-8859-1"?>
<!-- Generator: Adobe Illustrator 19.0.0, SVG Export Plug-In . SVG Version: 6.00 Build 0)  -->
<svg version="1.1" id="Layer_1" xmlns="http://www.w3.org/2000/svg" xmlns:xlink="http://www.w3.org/1999/xlink" x="0px" y="0px"
	 viewBox="0 0 799.999 799.999" style="enable-background:new 0 0 799.999 799.999;" xml:space="preserve">
<g>
	<path style="fill:#103B9B;" d="M695.774,259.924v-1c0-6.563-5.34-11.903-11.903-11.903H24.807v-93.183h750.387v93.183h-39.709
		c-6.563,0-11.903,5.34-11.903,11.903v1H695.774z"/>
	<rect x="24.807" y="552.978" style="fill:#103B9B;" width="750.387" height="93.183"/>
	<path style="fill:#ED1F34;" d="M24.807,529.171V270.827h659.064c6.563,0,11.903-5.34,11.903-11.903v-1h27.807v1
		c0,6.563,5.34,11.903,11.903,11.903h39.709v258.344H24.807z M243.441,471.967c-6.563,0-11.903,5.34-11.903,11.903
		s5.34,11.903,11.903,11.903H556.56c6.56,0,11.896-5.34,11.896-11.903s-5.34-11.903-11.902-11.903h-5.302v-71.538
		c0-6.563-5.34-11.903-11.903-11.903h-10.635l-0.198-0.742c-6-22.507-26.365-34.104-27.229-34.586
		c-1.771-0.99-3.778-1.513-5.808-1.513s-4.037,0.523-5.807,1.513c-0.864,0.483-21.236,12.106-27.229,34.586l-0.198,0.742h-7.105
		l-0.102-0.886c-5.97-52.02-46.626-80.185-48.354-81.358c-1.98-1.347-4.293-2.058-6.688-2.058s-4.707,0.711-6.687,2.058
		c-1.728,1.175-42.389,29.371-48.354,81.358l-0.102,0.886h-7.105l-0.198-0.742c-5.997-22.494-26.365-34.104-27.229-34.586
		c-1.77-0.99-3.778-1.513-5.807-1.513s-4.037,0.523-5.806,1.513c-0.864,0.483-21.237,12.106-27.23,34.586l-0.198,0.742h-10.635
		c-6.563,0-11.903,5.34-11.903,11.903v71.538H243.441z"/>
	<path style="fill:#103B9B;" d="M683.871,246.02c7.128,0,12.903,5.775,12.903,12.903h25.807c0-7.128,5.775-12.903,12.903-12.903
		h38.709v-91.183H25.807v91.183L683.871,246.02L683.871,246.02z"/>
	<rect x="25.807" y="553.978" style="fill:#103B9B;" width="748.387" height="91.183"/>
	<path style="fill:#ED1F34;" d="M683.871,271.827H25.807v256.344h748.387V271.827h-38.709c-7.128,0-12.903-5.775-12.903-12.903
		h-25.807C696.774,266.052,690.999,271.827,683.871,271.827z M556.56,496.773H243.441c-7.128,0-12.903-5.775-12.903-12.903
		s5.775-12.903,12.903-12.903h4.301v-70.538c0-7.128,5.775-12.903,12.903-12.903h9.867c6.094-22.857,26.688-34.63,27.708-35.202
		c3.91-2.187,8.679-2.187,12.59,0c1.021,0.571,21.613,12.344,27.707,35.202h5.445c6.017-52.43,46.915-80.8,48.785-82.071
		c4.375-2.975,10.124-2.975,14.499,0c1.872,1.271,42.769,29.641,48.785,82.071h5.445c6.094-22.857,26.687-34.63,27.707-35.202
		c3.91-2.187,8.68-2.187,12.59,0c1.022,0.571,21.614,12.344,27.708,35.202h9.866c7.128,0,12.903,5.775,12.903,12.903v70.538h4.302
		c7.127,0,12.902,5.775,12.902,12.903S563.687,496.773,556.56,496.773z"/>
	<path d="M787.097,129.031H12.903C5.775,129.031,0,134.807,0,141.935v516.129c0,7.128,5.775,12.903,12.903,12.903h774.193
		c7.128,0,12.903-5.775,12.903-12.903V141.935C800,134.807,794.225,129.031,787.097,129.031z M774.193,154.838v91.183h-38.709
		c-7.128,0-12.903,5.775-12.903,12.903s5.775,12.903,12.903,12.903h38.709v256.344H25.807V271.827h658.064
		c7.128,0,12.903-5.775,12.903-12.903s-5.775-12.903-12.903-12.903H25.807v-91.183L774.193,154.838L774.193,154.838z M25.807,645.16
		v-91.183h748.387v91.183H25.807z"/>
	<path style="fill:#FFFFFF;" d="M526.451,470.967v-57.634h-8.182c-7.117,0-12.892-5.764-12.903-12.881
		c-0.018-9.291-5.334-16.344-9.865-20.673c-4.54,4.341-9.882,11.415-9.899,20.673c-0.012,7.12-5.785,12.881-12.903,12.881H443.87
		c-7.124,0-12.898-5.771-12.903-12.896c-0.022-34.36-19.852-57.435-30.968-67.671c-11.099,10.219-30.941,33.299-30.964,67.671
		c-0.005,7.124-5.779,12.896-12.903,12.896h-28.829c-7.118,0-12.892-5.764-12.903-12.881c-0.018-9.291-5.334-16.344-9.865-20.673
		c-4.54,4.341-9.882,11.415-9.899,20.673c-0.012,7.12-5.786,12.881-12.903,12.881h-8.183v57.634H526.451z"/>
	<path d="M556.56,470.967h-4.302v-70.538c0-7.128-5.775-12.903-12.903-12.903h-9.866c-6.094-22.857-26.688-34.63-27.708-35.202
		c-3.91-2.187-8.679-2.187-12.59,0c-1.021,0.571-21.613,12.344-27.707,35.202h-5.445c-6.017-52.43-46.915-80.8-48.785-82.071
		c-4.375-2.975-10.124-2.975-14.499,0c-1.872,1.271-42.769,29.641-48.785,82.071h-5.445c-6.094-22.857-26.687-34.63-27.707-35.202
		c-3.91-2.187-8.68-2.187-12.59,0c-1.022,0.571-21.614,12.344-27.708,35.202h-9.874c-7.127,0-12.903,5.775-12.903,12.903v70.538
		h-4.301c-7.128,0-12.903,5.775-12.903,12.903s5.775,12.903,12.903,12.903H556.56c7.127,0,12.903-5.775,12.903-12.903
		S563.687,470.967,556.56,470.967z M281.731,413.333c7.117,0,12.891-5.764,12.903-12.881c0.018-9.258,5.359-16.331,9.899-20.673
		c4.533,4.329,9.85,11.381,9.865,20.673c0.012,7.12,5.785,12.881,12.903,12.881h28.829c7.124,0,12.898-5.771,12.903-12.896
		c0.022-34.372,19.865-57.452,30.964-67.671c11.116,10.236,30.945,33.311,30.968,67.671c0.005,7.124,5.779,12.896,12.903,12.896
		h28.829c7.118,0,12.892-5.764,12.903-12.881c0.018-9.258,5.359-16.331,9.899-20.673c4.533,4.329,9.85,11.381,9.865,20.673
		c0.012,7.12,5.786,12.881,12.903,12.881h8.182v57.634H273.548v-57.634H281.731z"/>
</g>
<g>
</g>
<g>
</g>
<g>
</g>
<g>
</g>
<g>
</g>
<g>
</g>
<g>
</g>
<g>
</g>
<g>
</g>
<g>
</g>
<g>
</g>
<g>
</g>
<g>
</g>
<g>
</g>
<g>
</g>
</svg>
