<?xml version="1.0" encoding="iso-8859-1"?>
<!-- Generator: Adobe Illustrator 19.0.0, SVG Export Plug-In . SVG Version: 6.00 Build 0)  -->
<svg version="1.1" id="Layer_1" xmlns="http://www.w3.org/2000/svg" xmlns:xlink="http://www.w3.org/1999/xlink" x="0px" y="0px"
	 viewBox="0 0 799.999 799.999" style="enable-background:new 0 0 799.999 799.999;" xml:space="preserve">
<g>
	<path style="fill:#ED1F34;" d="M282.871,646.161V153.839h234.258v492.322H282.871z M429.285,465.032
		c1.936,1.259,4.18,1.925,6.491,1.925c2.527,0,4.947-0.787,6.996-2.275c3.964-2.878,5.771-7.988,4.499-12.718l-9.068-33.739
		l27.167-21.965c3.808-3.078,5.349-8.275,3.836-12.933c-1.513-4.659-5.815-7.958-10.706-8.21l-34.888-1.802l-12.496-32.625
		c-1.751-4.573-6.218-7.645-11.116-7.645s-9.365,3.072-11.116,7.645l-12.497,32.625l-34.888,1.802
		c-4.891,0.252-9.193,3.552-10.706,8.21s0.028,9.855,3.836,12.933l27.167,21.965l-9.068,33.739
		c-1.272,4.729,0.535,9.84,4.499,12.718c2.047,1.487,4.467,2.273,6.999,2.273c2.309,0,4.553-0.665,6.489-1.924L400,445.982
		L429.285,465.032z"/>
	<path style="fill:#ED1F34;" d="M283.871,645.161h232.258V154.839H283.871V645.161z M341.448,374.118l34.238-1.769l12.264-32.017
		c1.911-4.991,6.703-8.287,12.05-8.287s10.139,3.296,12.05,8.287l12.264,32.017l34.238,1.769c5.34,0.275,9.954,3.816,11.605,8.9
		s-0.002,10.66-4.158,14.02l-26.661,21.555l8.899,33.111c1.389,5.161-0.552,10.646-4.877,13.787
		c-2.258,1.64-4.917,2.466-7.584,2.466c-2.444,0-4.893-0.691-7.036-2.087L400,447.176l-28.74,18.694
		c-4.481,2.913-10.296,2.763-14.62-0.379c-4.325-3.141-6.266-8.626-4.877-13.787l8.899-33.111l-26.661-21.555
		c-4.156-3.36-5.81-8.936-4.158-14.02S336.108,374.393,341.448,374.118z"/>
	<path style="fill:#FFE000;" d="M406.491,421.803c-1.935-1.259-4.179-1.924-6.491-1.924s-4.557,0.665-6.491,1.924l-9.725,6.328
		l3.011-11.205c1.222-4.542-0.353-9.388-4.01-12.345l-9.021-7.292l11.584-0.6c4.698-0.244,8.82-3.239,10.501-7.63l4.15-10.834
		l4.149,10.834c1.681,4.393,5.803,7.388,10.502,7.631l11.585,0.6l-9.021,7.292c-3.657,2.958-5.232,7.804-4.011,12.345l3.011,11.205
		L406.491,421.803z"/>
	<path style="fill:#FFE000;" d="M383.413,403.804c3.97,3.209,5.673,8.454,4.348,13.382l-2.333,8.683l7.536-4.903
		c2.138-1.392,4.588-2.086,7.036-2.086s4.898,0.694,7.036,2.086l7.536,4.903l-2.333-8.683c-1.325-4.928,0.38-10.173,4.348-13.382
		l6.99-5.651l-8.978-0.465c-5.098-0.263-9.561-3.506-11.384-8.271L400,381.02l-3.216,8.396c-1.825,4.766-6.286,8.007-11.384,8.271
		l-8.978,0.465L383.413,403.804z"/>
	<path d="M334.001,397.038l26.661,21.555l-8.899,33.111c-1.389,5.161,0.552,10.646,4.877,13.787
		c4.324,3.142,10.139,3.292,14.62,0.379L400,447.176l28.74,18.694c2.144,1.396,4.592,2.087,7.036,2.087
		c2.667,0,5.328-0.824,7.584-2.466c4.325-3.141,6.266-8.626,4.877-13.787l-8.899-33.111l26.661-21.555
		c4.156-3.36,5.81-8.936,4.158-14.02s-6.268-8.625-11.605-8.9l-34.238-1.769l-12.264-32.017c-1.911-4.991-6.703-8.287-12.05-8.287
		s-10.139,3.296-12.05,8.287l-12.264,32.017l-34.238,1.769c-5.34,0.275-9.954,3.816-11.605,8.9S329.845,393.677,334.001,397.038z
		 M396.784,389.417l3.216-8.396l3.216,8.396c1.825,4.766,6.286,8.007,11.384,8.272l8.978,0.464l-6.99,5.652
		c-3.97,3.208-5.673,8.454-4.348,13.382l2.333,8.683l-7.536-4.903c-2.138-1.392-4.588-2.087-7.036-2.087s-4.898,0.695-7.036,2.087
		l-7.536,4.903l2.333-8.683c1.325-4.928-0.38-10.174-4.348-13.382l-6.99-5.652l8.978-0.464
		C390.498,397.424,394.959,394.182,396.784,389.417z"/>
	<path style="fill:#259245;" d="M24.807,646.161v-39.71c0-6.563-5.34-11.902-11.903-11.902h-1v-27.807h1
		c6.563,0,11.903-5.34,11.903-11.903v-401h234.258v492.322H24.807z"/>
	<path style="fill:#259245;" d="M25.807,606.451v38.71h232.258V154.839H25.807v400c0,7.128-5.776,12.903-12.903,12.903v25.807
		C20.031,593.549,25.807,599.324,25.807,606.451z"/>
	<rect x="540.936" y="153.839" style="fill:#FFE000;" width="234.258" height="492.322"/>
	<rect x="541.936" y="154.839" style="fill:#FFE000;" width="232.258" height="490.322"/>
	<path d="M787.097,129.032H12.903C5.775,129.032,0,134.808,0,141.936v412.903c0,7.128,5.775,12.903,12.903,12.903
		c7.127,0,12.903-5.775,12.903-12.903v-400h232.258v490.322H25.807v-38.71c0-7.127-5.776-12.902-12.903-12.902
		C5.775,593.549,0,599.324,0,606.451v51.613c0,7.128,5.775,12.903,12.903,12.903h774.193c7.128,0,12.903-5.775,12.903-12.903
		V141.936C800,134.808,794.225,129.032,787.097,129.032z M774.193,645.161H541.936V154.839h232.258L774.193,645.161L774.193,645.161
		z M516.129,645.161H283.871V154.839h232.258V645.161z"/>
</g>
<g>
</g>
<g>
</g>
<g>
</g>
<g>
</g>
<g>
</g>
<g>
</g>
<g>
</g>
<g>
</g>
<g>
</g>
<g>
</g>
<g>
</g>
<g>
</g>
<g>
</g>
<g>
</g>
<g>
</g>
</svg>
