<?xml version="1.0" encoding="iso-8859-1"?>
<!-- Generator: Adobe Illustrator 19.0.0, SVG Export Plug-In . SVG Version: 6.00 Build 0)  -->
<svg version="1.1" id="Layer_1" xmlns="http://www.w3.org/2000/svg" xmlns:xlink="http://www.w3.org/1999/xlink" x="0px" y="0px"
	 viewBox="0 0 465 465" style="enable-background:new 0 0 465 465;" xml:space="preserve">
<g>
	<path style="fill:#3DB4EA;" d="M300,375V90H165v22.5c0,4.143-3.358,7.5-7.5,7.5v15c4.142,0,7.5,3.357,7.5,7.5V375H300z"/>
	<rect x="315" y="90" style="fill:#FFE000;" width="135" height="285"/>
	<path style="fill:#FFFFFF;" d="M150,112.5V90H15v285h135V142.5c0-4.143,3.358-7.5,7.5-7.5v-15C153.358,120,150,116.643,150,112.5z"
		/>
	<path d="M457.5,75H7.5C3.358,75,0,78.357,0,82.5v300c0,4.143,3.358,7.5,7.5,7.5h450c4.142,0,7.5-3.357,7.5-7.5v-300
		C465,78.357,461.642,75,457.5,75z M450,375H315V90h135V375z M157.5,135c-4.142,0-7.5,3.357-7.5,7.5V375H15V90h135v22.5
		c0,4.143,3.358,7.5,7.5,7.5s7.5-3.357,7.5-7.5V90h135v285H165V142.5C165,138.357,161.642,135,157.5,135z"/>
</g>
<g>
</g>
<g>
</g>
<g>
</g>
<g>
</g>
<g>
</g>
<g>
</g>
<g>
</g>
<g>
</g>
<g>
</g>
<g>
</g>
<g>
</g>
<g>
</g>
<g>
</g>
<g>
</g>
<g>
</g>
</svg>
