<?xml version="1.0" encoding="iso-8859-1"?>
<!-- Generator: Adobe Illustrator 19.0.0, SVG Export Plug-In . SVG Version: 6.00 Build 0)  -->
<svg version="1.1" id="Layer_1" xmlns="http://www.w3.org/2000/svg" xmlns:xlink="http://www.w3.org/1999/xlink" x="0px" y="0px"
	 viewBox="0 0 799.999 799.999" style="enable-background:new 0 0 799.999 799.999;" xml:space="preserve">
<g>
	<rect x="24.807" y="153.838" style="fill:#ED1F34;" width="148.236" height="492.322"/>
	<path style="fill:#ED1F34;" d="M626.957,646.16V262.365c0-6.563-5.34-11.903-11.903-11.903h-1v-27.807h1
		c6.563,0,11.903-5.339,11.903-11.903v-56.914h148.236V646.16H626.957z"/>
	<path style="fill:#ED1F34;" d="M336.884,473.183v-22.591c0-3.589-1.594-6.949-4.372-9.22l-62.878-51.362l-2.582-47.962
		l47.962,2.582l40.444,49.512c2.272,2.781,5.634,4.376,9.222,4.376c1.568,0,3.099-0.306,4.551-0.909
		c4.891-2.026,7.82-6.925,7.289-12.191l-8.608-85.394L400,264.283l32.088,35.74l-8.608,85.394
		c-0.531,5.266,2.397,10.165,7.288,12.19c1.453,0.603,2.984,0.908,4.552,0.908c3.59,0,6.952-1.594,9.223-4.374l40.444-49.512
		l47.962-2.582l-2.583,47.962l-62.878,51.362c-2.779,2.271-4.373,5.632-4.373,9.22v22.591H336.884V473.183z"/>
	<path style="fill:#FFFFFF;" d="M602.15,210.752v-55.914h-404.3V645.16h404.3V262.365c0-7.128,5.777-12.903,12.903-12.903v-25.807
		C607.928,223.655,602.15,217.879,602.15,210.752z M571.604,388.352l-21.464,17.533c-0.004,0.001-0.006,0.005-0.008,0.007
		l-62.21,50.818v28.373c0,7.128-5.777,12.903-12.903,12.903h-62.116v55.544c0,7.128-5.777,12.903-12.903,12.903
		s-12.903-5.775-12.903-12.903v-55.544h-62.114c-7.126,0-12.903-5.775-12.903-12.903V456.71l-62.211-50.818
		c-0.003-0.002-0.005-0.006-0.007-0.007l-21.464-17.533c-5.519-4.509-6.338-12.638-1.831-18.157
		c4.208-5.149,11.566-6.202,17.017-2.658l-2.013-37.395c-0.196-3.658,1.17-7.228,3.761-9.819c2.589-2.591,6.161-3.955,9.819-3.761
		l37.396,2.013c-3.545-5.449-2.491-12.807,2.658-17.015c5.518-4.508,13.648-3.688,18.156,1.829l17.532,21.462
		c0.004,0.003,0.006,0.005,0.009,0.009l16.639,20.37l-4.835-47.955l-2.78-27.585c-0.714-7.09,4.454-13.417,11.544-14.132
		c6.6-0.685,12.564,3.789,13.912,10.152l25.02-27.867c2.447-2.726,5.938-4.282,9.603-4.282c3.664,0,7.153,1.557,9.602,4.282
		l25.02,27.867c1.348-6.362,7.3-10.837,13.912-10.152c7.092,0.714,12.258,7.042,11.544,14.132l-2.78,27.585l-4.835,47.955
		l16.639-20.37c0.004-0.003,0.005-0.005,0.009-0.009l17.533-21.462c4.509-5.517,12.636-6.338,18.155-1.829
		c5.151,4.208,6.204,11.566,2.658,17.015l37.396-2.013c3.661-0.186,7.228,1.17,9.819,3.761c2.591,2.591,3.957,6.161,3.761,9.819
		l-2.014,37.395c5.451-3.546,12.809-2.491,17.018,2.658C577.942,375.715,577.123,383.842,571.604,388.352z"/>
	<rect x="25.807" y="154.838" style="fill:#ED1F34;" width="146.236" height="490.322"/>
	<path style="fill:#ED1F34;" d="M627.957,210.752c0,7.127-5.777,12.903-12.903,12.903v25.807c7.126,0,12.903,5.775,12.903,12.903
		V645.16h146.236V154.838H627.957V210.752z"/>
	<path d="M787.097,129.031H12.903C5.777,129.031,0,134.807,0,141.935v516.129c0,7.128,5.777,12.903,12.903,12.903h774.193
		c7.126,0,12.903-5.775,12.903-12.903V141.935C800,134.807,794.223,129.031,787.097,129.031z M774.193,645.16H627.957V262.365
		c0-7.128-5.777-12.903-12.903-12.903s-12.903,5.775-12.903,12.903V645.16H197.85V154.838h404.3v55.914
		c0,7.127,5.777,12.903,12.903,12.903s12.903-5.775,12.903-12.903v-55.914h146.236L774.193,645.16L774.193,645.16z M25.807,154.838
		h146.236V645.16H25.807V154.838z"/>
	<path d="M556.418,367.538l2.013-37.396c0.196-3.658-1.17-7.228-3.761-9.818s-6.155-3.947-9.818-3.761l-37.396,2.013
		c3.545-5.449,2.49-12.807-2.658-17.015c-5.52-4.507-13.646-3.688-18.156,1.829l-17.533,21.462
		c-0.003,0.003-0.005,0.005-0.008,0.008l-16.639,20.37l4.834-47.956l2.781-27.585c0.714-7.09-4.455-13.418-11.545-14.132
		c-6.611-0.685-12.565,3.79-13.911,10.152L409.6,237.843c-2.446-2.725-5.937-4.282-9.602-4.282c-3.664,0-7.153,1.557-9.602,4.282
		l-25.021,27.868c-1.347-6.364-7.313-10.837-13.911-10.152c-7.092,0.714-12.258,7.042-11.544,14.132l2.78,27.585l4.834,47.956
		l-16.638-20.37c-0.004-0.003-0.006-0.005-0.009-0.008l-17.533-21.462c-4.507-5.518-12.638-6.338-18.155-1.829
		c-5.151,4.208-6.204,11.566-2.658,17.015l-37.397-2.013c-3.656-0.195-7.228,1.17-9.818,3.761c-2.591,2.591-3.957,6.161-3.761,9.818
		l2.013,37.396c-5.449-3.546-12.809-2.491-17.017,2.658c-4.507,5.52-3.688,13.648,1.831,18.158l21.464,17.532
		c0.003,0.002,0.005,0.006,0.007,0.008l62.211,50.817v28.374c0,7.127,5.777,12.903,12.903,12.903h62.119v55.544
		c0,7.128,5.777,12.903,12.903,12.903s12.903-5.775,12.903-12.903V497.99h62.114c7.126,0,12.903-5.776,12.903-12.903v-28.374
		l62.211-50.817c0.003-0.002,0.005-0.006,0.007-0.008l21.464-17.532c5.52-4.509,6.338-12.638,1.831-18.158
		C569.227,365.047,561.868,363.992,556.418,367.538z M462.114,450.59v21.592h-124.23V450.59c0-3.874-1.741-7.542-4.739-9.994
		l-62.536-51.083l-2.498-46.409l46.408,2.498l40.165,49.17c3.603,4.409,9.673,5.94,14.932,3.757c5.262-2.18,8.472-7.549,7.9-13.214
		l-8.564-84.955L400,265.778l31.049,34.583l-8.564,84.955c-0.571,5.665,2.639,11.035,7.9,13.214
		c5.261,2.183,11.327,0.654,14.932-3.757l40.165-49.17l46.408-2.498l-2.498,46.409l-62.536,51.083
		C463.855,443.048,462.114,446.716,462.114,450.59z"/>
	<path style="fill:#ED1F34;" d="M531.89,343.106l-46.408,2.498l-40.165,49.17c-3.603,4.41-9.671,5.939-14.932,3.757
		c-5.262-2.18-8.472-7.549-7.9-13.214l8.564-84.955L400,265.78l-31.049,34.583l8.564,84.955c0.571,5.666-2.639,11.035-7.9,13.214
		c-5.259,2.185-11.327,0.654-14.932-3.757l-40.165-49.17l-46.408-2.498l2.498,46.409l62.536,51.083c3,2.451,4.739,6.12,4.739,9.994
		v21.591h124.23v-21.591c0-3.875,1.741-7.543,4.74-9.994l62.536-51.083L531.89,343.106z"/>
</g>
<g>
</g>
<g>
</g>
<g>
</g>
<g>
</g>
<g>
</g>
<g>
</g>
<g>
</g>
<g>
</g>
<g>
</g>
<g>
</g>
<g>
</g>
<g>
</g>
<g>
</g>
<g>
</g>
<g>
</g>
</svg>
