<?xml version="1.0" encoding="iso-8859-1"?>
<!-- Generator: Adobe Illustrator 19.0.0, SVG Export Plug-In . SVG Version: 6.00 Build 0)  -->
<svg version="1.1" id="Layer_1" xmlns="http://www.w3.org/2000/svg" xmlns:xlink="http://www.w3.org/1999/xlink" x="0px" y="0px"
	 viewBox="0 0 799.999 799.999" style="enable-background:new 0 0 799.999 799.999;" xml:space="preserve">
<g>
	<path style="fill:#103B9B;" d="M24.807,646.16V540.935h98.951l0.354,1.936c-4.539,1.715-8.441,4.691-11.286,8.607
		c-3.895,5.36-5.47,11.917-4.433,18.461c1.037,6.545,4.559,12.294,9.92,16.188c4.268,3.101,9.303,4.74,14.561,4.74
		c7.927,0,15.437-3.823,20.089-10.228c3.895-5.36,5.469-11.917,4.433-18.462c-1.037-6.544-4.56-12.294-9.92-16.188
		c-1.744-1.267-3.707-2.316-5.832-3.119l0.354-1.936H272.59l0.354,1.936c-2.129,0.805-4.091,1.854-5.832,3.119
		c-11.066,8.04-13.527,23.584-5.487,34.65c4.653,6.404,12.163,10.228,20.089,10.227c5.258-0.001,10.293-1.64,14.561-4.739
		c5.361-3.895,8.884-9.644,9.92-16.188s-0.538-13.101-4.433-18.461c-2.845-3.916-6.747-6.893-11.286-8.607l0.354-1.936h484.365
		v105.226L24.807,646.16L24.807,646.16z M207.293,565.426c-13.679,0-24.807,11.128-24.807,24.807s11.128,24.807,24.807,24.807
		c13.678,0,24.807-11.128,24.807-24.807S220.971,565.426,207.293,565.426z"/>
	<path style="fill:#103B9B;" d="M774.193,541.935H290.829c4.549,1.719,8.669,4.726,11.742,8.955
		c8.377,11.53,5.822,27.669-5.708,36.046s-27.669,5.822-36.046-5.708s-5.822-27.67,5.708-36.047c1.911-1.39,3.957-2.449,6.066-3.246
		H141.996c2.109,0.797,4.153,1.856,6.066,3.246c11.53,8.377,14.087,24.517,5.708,36.047c-8.377,11.53-24.516,14.087-36.047,5.708
		c-11.53-8.377-14.086-24.516-5.708-36.046c3.073-4.229,7.193-7.236,11.742-8.955h-97.95v103.226h748.387V541.935H774.193z
		 M207.293,616.039c-14.252,0-25.807-11.555-25.807-25.807s11.555-25.807,25.807-25.807S233.1,575.98,233.1,590.232
		S221.545,616.039,207.293,616.039z"/>
	<path style="fill:#103B9B;" d="M695.774,400.999v-1c0-6.563-5.34-11.903-11.903-11.903H24.807V153.838h750.387v234.258h-39.709
		c-6.563,0-11.903,5.34-11.903,11.903v1H695.774z M281.714,336.443c-7.927,0-15.437,3.823-20.089,10.228
		c-3.895,5.36-5.469,11.917-4.432,18.461c1.036,6.544,4.559,12.293,9.919,16.188c4.268,3.101,9.302,4.74,14.56,4.74
		c7.926,0,15.437-3.823,20.09-10.228c3.896-5.36,5.47-11.917,4.433-18.461c-1.036-6.544-4.56-12.293-9.92-16.188
		C292.006,338.082,286.972,336.443,281.714,336.443z M132.872,336.444c-5.258,0-10.293,1.639-14.561,4.739
		c-11.065,8.039-13.527,23.583-5.487,34.649c4.652,6.404,12.162,10.227,20.089,10.227c5.258,0,10.293-1.639,14.561-4.739
		c11.065-8.039,13.527-23.583,5.487-34.649C148.309,340.267,140.799,336.444,132.872,336.444z M207.293,312.271
		c-13.679,0-24.807,11.128-24.807,24.806s11.128,24.807,24.807,24.807c13.678,0,24.807-11.128,24.807-24.807
		S220.971,312.271,207.293,312.271z"/>
	<path style="fill:#103B9B;" d="M683.871,387.096c7.126,0,12.903,5.775,12.903,12.903h25.807c0-7.128,5.776-12.903,12.903-12.903
		h38.709V154.838H25.807v232.258H683.871z M260.815,346.082c8.377-11.53,24.516-14.087,36.046-5.708
		c11.531,8.378,14.087,24.516,5.708,36.046c-8.378,11.53-24.516,14.087-36.046,5.708
		C254.994,373.752,252.438,357.613,260.815,346.082z M207.293,311.271c14.252,0,25.807,11.554,25.807,25.806
		s-11.555,25.807-25.807,25.807s-25.807-11.555-25.807-25.807S193.041,311.271,207.293,311.271z M117.724,340.374
		c11.531-8.377,27.67-5.822,36.047,5.708c8.376,11.53,5.822,27.669-5.708,36.046s-27.67,5.822-36.046-5.708
		C103.639,364.89,106.193,348.751,117.724,340.374z"/>
	<path style="fill:#FFFFFF;" d="M683.871,412.902H350.677c0.591,1.17,1.125,2.38,1.544,3.663
		c4.404,13.555-3.015,28.115-16.57,32.518c-13.555,4.406-28.113-3.015-32.518-16.567c-2.191-6.75-1.452-13.745,1.514-19.613H109.939
		c2.966,5.868,3.708,12.865,1.514,19.613c-4.404,13.553-18.963,20.972-32.518,16.567s-20.974-18.963-16.569-32.518
		c0.418-1.283,0.953-2.493,1.543-3.663H25.807v37.85h748.387v-37.85h-38.709c-7.127,0-12.903-5.775-12.903-12.903h-25.807
		C696.774,407.127,690.997,412.902,683.871,412.902z"/>
	<path style="fill:#FFFFFF;" d="M25.807,516.128h39.047c-1.007-1.665-1.86-3.454-2.486-5.385
		c-4.404-13.554,3.014-28.113,16.569-32.517c13.556-4.405,28.114,3.015,32.518,16.568c2.412,7.425,1.259,15.142-2.488,21.333
		h196.654c-3.747-6.193-4.9-13.908-2.488-21.333c4.404-13.554,18.963-20.973,32.518-16.568c13.556,4.404,20.975,18.963,16.57,32.517
		c-0.629,1.931-1.48,3.72-2.486,5.385h424.459v-39.569H25.807V516.128z"/>
	<rect x="24.807" y="449.752" style="fill:#ED1F34;" width="750.387" height="27.807"/>
	<rect x="25.807" y="450.752" style="fill:#ED1F34;" width="748.387" height="25.807"/>
	<path d="M787.097,129.031H12.903C5.777,129.031,0,134.807,0,141.935v516.129c0,7.128,5.777,12.903,12.903,12.903h774.193
		c7.126,0,12.903-5.775,12.903-12.903V141.935C800,134.807,794.223,129.031,787.097,129.031z M774.193,154.838v232.258h-38.709
		c-7.127,0-12.903,5.775-12.903,12.903s5.776,12.903,12.903,12.903h38.709v37.85v25.807v39.569H349.732
		c-6.063,10.026-18.407,14.961-30.032,11.185c-6.13-1.99-10.986-6.069-14.079-11.185H108.967c-3.093,5.115-7.95,9.194-14.082,11.185
		c-11.625,3.776-23.969-1.158-30.032-11.185H25.807v-39.569v-25.807v-37.85h38.104c5.638-11.171,18.705-16.891,30.975-12.905
		c6.806,2.211,12.062,6.985,15.054,12.905h194.707c2.991-5.92,8.247-10.694,15.054-12.905c12.27-3.986,25.337,1.734,30.975,12.905
		h333.197c7.126,0,12.903-5.775,12.903-12.903s-5.777-12.903-12.903-12.903H25.807V154.838H774.193z M25.807,541.935h97.951
		c5.8-2.19,12.292-2.247,18.238,0H272.59c5.946-2.247,12.439-2.19,18.238,0h483.365v103.226H25.807V541.935z"/>
	<circle style="fill:#FFE610;" cx="207.293" cy="337.078" r="25.806"/>
	<circle style="fill:#FFE610;" cx="132.893" cy="361.251" r="25.807"/>
	<path style="fill:#FFE610;" d="M78.937,449.083c13.556,4.406,28.114-3.015,32.518-16.567c2.192-6.75,1.452-13.745-1.514-19.613
		c-2.992-5.92-8.248-10.694-15.054-12.905c-12.27-3.986-25.336,1.734-30.975,12.905c-0.59,1.17-1.125,2.38-1.543,3.663
		C57.963,430.12,65.381,444.681,78.937,449.083z"/>
	<path style="fill:#FFE610;" d="M111.455,494.795c-4.404-13.554-18.962-20.973-32.518-16.568
		c-13.555,4.404-20.974,18.963-16.569,32.517c0.628,1.931,1.479,3.72,2.486,5.385c6.063,10.026,18.407,14.961,30.032,11.185
		c6.13-1.99,10.987-6.069,14.082-11.185C112.714,509.935,113.867,502.22,111.455,494.795z"/>
	<path style="fill:#FFE610;" d="M112.016,550.89c-8.377,11.53-5.822,27.669,5.708,36.046c11.531,8.377,27.67,5.822,36.047-5.708
		c8.376-11.53,5.822-27.67-5.708-36.047c-1.912-1.39-3.957-2.449-6.066-3.246c-5.946-2.247-12.438-2.19-18.238,0
		C119.207,543.653,115.086,546.66,112.016,550.89z"/>
	<circle style="fill:#FFE610;" cx="207.293" cy="590.232" r="25.807"/>
	<path style="fill:#FFE610;" d="M260.815,581.228c8.377,11.53,24.516,14.087,36.046,5.708c11.531-8.378,14.087-24.516,5.708-36.046
		c-3.072-4.229-7.193-7.236-11.742-8.955c-5.799-2.19-12.292-2.247-18.238,0c-2.109,0.797-4.153,1.856-6.066,3.246
		C254.994,553.558,252.438,569.697,260.815,581.228z"/>
	<path style="fill:#FFE610;" d="M335.65,478.227c-13.555-4.405-28.113,3.015-32.518,16.568c-2.412,7.425-1.259,15.142,2.488,21.333
		c3.093,5.115,7.949,9.194,14.079,11.185c11.625,3.776,23.97-1.158,30.032-11.185c1.007-1.665,1.859-3.454,2.486-5.385
		C356.623,497.189,349.204,482.63,335.65,478.227z"/>
	<path style="fill:#FFE610;" d="M303.131,432.516c4.404,13.553,18.963,20.972,32.519,16.567
		c13.555-4.404,20.974-18.963,16.569-32.518c-0.418-1.283-0.953-2.493-1.543-3.663c-5.639-11.171-18.705-16.891-30.976-12.905
		c-6.806,2.211-12.062,6.985-15.054,12.905C301.681,418.77,300.939,425.768,303.131,432.516z"/>
	<circle style="fill:#FFE610;" cx="281.693" cy="361.251" r="25.807"/>
</g>
<g>
</g>
<g>
</g>
<g>
</g>
<g>
</g>
<g>
</g>
<g>
</g>
<g>
</g>
<g>
</g>
<g>
</g>
<g>
</g>
<g>
</g>
<g>
</g>
<g>
</g>
<g>
</g>
<g>
</g>
</svg>
