<?xml version="1.0" encoding="iso-8859-1"?>
<!-- Generator: Adobe Illustrator 19.0.0, SVG Export Plug-In . SVG Version: 6.00 Build 0)  -->
<svg version="1.1" id="Layer_1" xmlns="http://www.w3.org/2000/svg" xmlns:xlink="http://www.w3.org/1999/xlink" x="0px" y="0px"
	 viewBox="0 0 799.999 799.999" style="enable-background:new 0 0 799.999 799.999;" xml:space="preserve">
<g>
	<path style="fill:#103B9B;" d="M24.807,646.161v-39.71c0-6.563-5.34-11.902-11.903-11.902h-1v-27.807h1
		c6.563,0,11.903-5.34,11.903-11.903V399h50.6l97.206-64.805V399h67.678v-64.805L337.497,399H399v-40.335l-80.787-53.858H399
		v-67.678h-80.787L399,183.271v-29.432h376.193v492.322H24.807z M481.441,517.589c27.446,33.908,68.309,53.356,112.108,53.356
		c43.797,0,84.659-19.448,112.108-53.356l1.218-1.504l4.246,15.128c1.434,5.117,6.146,8.69,11.457,8.69
		c1.083,0,2.166-0.149,3.22-0.444c6.317-1.774,10.015-8.359,8.242-14.678l-11.376-40.54c-1.329-4.739-5.35-8.125-10.243-8.626
		c-0.401-0.041-0.803-0.061-1.202-0.061c-4.473,0-8.527,2.462-10.583,6.425c-20.828,40.189-61.861,65.155-107.088,65.155
		s-86.261-24.966-107.089-65.155c-2.052-3.964-6.104-6.426-10.579-6.426c-0.399,0-0.802,0.021-1.206,0.062
		c-4.894,0.503-8.915,3.889-10.243,8.626l-11.376,40.54c-1.772,6.319,1.927,12.903,8.247,14.678c1.054,0.295,2.137,0.445,3.22,0.445
		c5.31,0,10.02-3.574,11.456-8.691l4.245-15.128L481.441,517.589z M495.622,405.195c0,15.835,2.367,30.831,7.037,44.569
		c0.168,0.593,0.333,1.068,0.52,1.506c7.787,21.932,21.234,40.515,39.992,55.292c23.252,18.317,46.54,24.22,47.521,24.462
		c0.936,0.23,1.896,0.348,2.857,0.348c0.96,0,1.921-0.117,2.857-0.348c0.979-0.242,24.268-6.145,47.52-24.462
		c18.722-14.747,32.155-33.289,39.927-55.111l0.022-0.062l0.035-0.071c0.181-0.418,0.357-0.93,0.53-1.557
		c4.672-13.771,7.032-28.747,7.032-44.566v-78.013c0-6.563-5.339-11.903-11.902-11.903h-23.417l-0.162-0.801
		c-5.102-25.114-24.625-44.637-49.739-49.738l-0.801-0.163V240.96c0-6.563-5.339-11.903-11.902-11.903s-11.903,5.34-11.903,11.903
		v23.618l-0.801,0.163c-25.113,5.103-44.637,24.626-49.737,49.738l-0.163,0.801h-23.417c-6.563,0-11.903,5.34-11.903,11.903h-0.002
		L495.622,405.195L495.622,405.195z"/>
	<path style="fill:#103B9B;" d="M25.807,606.451v38.71h748.387V154.839H400v28.967l-78.484,52.323H400v16.129v37.419v16.129h-78.484
		L400,358.13v14.551V400h-62.806l-95.904-63.937V400h-16.129h-37.419h-16.129v-63.937L75.709,400H54.773H25.807v154.839
		c0,7.126-5.776,12.903-12.903,12.903v25.807C20.031,593.549,25.807,599.325,25.807,606.451z M494.624,327.183
		c0-7.126,5.775-12.903,12.903-12.903h22.6c5.15-25.353,25.166-45.368,50.519-50.519V240.96c0-7.126,5.775-12.903,12.903-12.903
		c7.127,0,12.902,5.777,12.902,12.903v22.801c25.353,5.149,45.37,25.167,50.52,50.519h22.6c7.127,0,12.902,5.777,12.902,12.903
		v78.013c0,17.09-2.695,31.947-7.068,44.833c-0.162,0.587-0.354,1.172-0.604,1.746c-0.002,0.004-0.003,0.007-0.005,0.013
		c-9.359,26.279-25.726,44.12-40.25,55.561c-23.423,18.452-46.912,24.403-47.899,24.647c-1.018,0.251-2.057,0.377-3.097,0.377
		c-1.041,0-2.08-0.126-3.098-0.377c-0.987-0.244-24.477-6.195-47.899-24.647c-14.547-11.46-30.94-29.337-40.293-55.685
		c-0.222-0.52-0.397-1.046-0.547-1.576c-4.384-12.899-7.09-27.776-7.09-44.892v-78.013L494.624,327.183L494.624,327.183z
		 M452.093,524.511l11.376-40.54c1.431-5.101,5.835-8.809,11.105-9.351c5.261-0.533,10.338,2.193,12.773,6.899
		c20.656,39.856,61.348,64.615,106.201,64.615s85.545-24.76,106.2-64.615c2.439-4.704,7.51-7.431,12.774-6.899
		c5.27,0.54,9.674,4.25,11.104,9.351l11.376,40.54c1.925,6.861-2.075,13.984-8.936,15.911c-6.861,1.921-13.986-2.077-15.909-8.938
		l-3.724-13.266c-27.271,33.689-68.396,53.728-112.886,53.728c-44.488,0-85.615-20.036-112.886-53.728l-3.723,13.266
		c-1.926,6.861-9.047,10.861-15.909,8.938C454.168,538.495,450.168,531.372,452.093,524.511z"/>
	<polygon style="fill:#103B9B;" points="24.807,304.807 94.69,304.807 24.807,351.396 	"/>
	<polygon style="fill:#103B9B;" points="25.807,305.807 25.807,349.528 91.388,305.807 	"/>
	<polygon style="fill:#103B9B;" points="240.291,153.839 321.142,153.839 240.291,207.741 	"/>
	<polygon style="fill:#103B9B;" points="317.839,154.839 241.291,154.839 241.291,205.872 	"/>
	<polygon style="fill:#103B9B;" points="91.761,153.839 172.613,153.839 172.613,207.741 	"/>
	<polygon style="fill:#103B9B;" points="171.613,154.839 95.064,154.839 171.613,205.872 	"/>
	<polygon style="fill:#103B9B;" points="24.807,237.129 24.807,190.539 94.69,237.129 	"/>
	<polygon style="fill:#103B9B;" points="25.807,192.408 25.807,236.129 91.388,236.129 	"/>
	<polygon style="fill:#ED1F34;" points="24.807,401 24.807,390.863 153.891,304.807 172.613,304.807 172.613,322.643 55.076,401 	
		"/>
	<polygon style="fill:#ED1F34;" points="171.613,322.107 171.613,305.807 154.193,305.807 25.807,391.398 25.807,400 54.773,400 	
		"/>
	<polygon style="fill:#ED1F34;" points="255.407,304.807 300.227,304.807 401,372.146 401,401.868 	"/>
	<polygon style="fill:#ED1F34;" points="258.709,305.807 400,400 400,372.681 299.924,305.807 	"/>
	<polygon style="fill:#ED1F34;" points="111.752,237.129 24.807,179.028 24.807,153.839 32.561,153.839 157.496,237.129 	"/>
	<polygon style="fill:#ED1F34;" points="154.193,236.129 32.258,154.839 25.807,154.839 25.807,178.493 112.055,236.129 	"/>
	<polygon style="fill:#ED1F34;" points="240.291,237.129 240.291,219.301 338.474,153.839 383.948,153.839 259.012,237.129 	"/>
	<polygon style="fill:#ED1F34;" points="241.291,236.129 258.709,236.129 380.646,154.839 338.776,154.839 241.291,219.836 	"/>
	<polygon style="fill:#FFFFFF;" points="187.742,252.258 187.742,154.839 171.613,154.839 171.613,205.872 95.064,154.839 
		32.258,154.839 154.193,236.129 112.055,236.129 25.807,178.493 25.807,192.408 91.388,236.129 25.807,236.129 25.807,252.258 	"/>
	<polygon style="fill:#FFFFFF;" points="225.161,252.258 400,252.258 400,236.129 321.516,236.129 400,183.806 400,154.839 
		380.646,154.839 258.709,236.129 241.291,236.129 241.291,219.836 338.776,154.839 317.839,154.839 241.291,205.872 
		241.291,154.839 225.161,154.839 	"/>
	<polygon style="fill:#FFFFFF;" points="225.161,289.677 225.161,400 241.291,400 241.291,336.063 337.194,400 400,400 
		258.709,305.807 299.924,305.807 400,372.681 400,358.13 321.516,305.807 400,305.807 400,289.677 	"/>
	<polygon style="fill:#FFFFFF;" points="171.613,305.807 171.613,322.107 54.773,400 75.709,400 171.613,336.063 171.613,400 
		187.742,400 187.742,289.677 25.807,289.677 25.807,305.807 91.388,305.807 25.807,349.528 25.807,391.398 154.193,305.807 	"/>
	<polygon style="fill:#ED1F34;" points="186.742,401 186.742,290.677 24.807,290.677 24.807,251.258 186.742,251.258 
		186.742,153.839 226.161,153.839 226.161,251.258 401,251.258 401,290.677 226.161,290.677 226.161,401 	"/>
	<polygon style="fill:#ED1F34;" points="187.742,289.677 187.742,400 225.161,400 225.161,289.677 400,289.677 400,252.258 
		225.161,252.258 225.161,154.839 187.742,154.839 187.742,252.258 25.807,252.258 25.807,289.677 	"/>
	<path style="fill:#ED1F34;" d="M593.541,384.425c-11.292,0-16.391-2.448-22.846-5.547c-7.324-3.516-16.439-7.893-33.15-7.893
		c-6.166,0-11.69,0.588-16.889,1.799l-1.227,0.286v-33.982h148.237v33.984l-1.227-0.285c-5.207-1.212-10.735-1.801-16.9-1.801
		c-16.704,0-25.819,4.375-33.145,7.89C609.936,381.978,604.838,384.425,593.541,384.425z"/>
	<path style="fill:#ED1F34;" d="M537.545,369.985c16.936,0,26.166,4.43,33.583,7.991c6.343,3.045,11.353,5.449,22.413,5.449
		c11.064,0,16.074-2.403,22.416-5.449c7.417-3.56,16.646-7.991,33.583-7.991c6.842,0,12.411,0.729,17.127,1.827v-31.725h-21.305
		H541.734H520.43v31.723C525.143,370.713,530.708,369.985,537.545,369.985z"/>
	<path style="fill:#103B9B;" d="M593.27,506.974c-10.005-3.283-44.055-16.688-62.178-51.362l-0.692-1.323l1.487-0.136
		c1.833-0.166,3.684-0.247,5.658-0.247c11.291,0,16.392,2.448,22.849,5.548c7.324,3.516,16.439,7.891,33.147,7.891
		c16.704,0,25.82-4.375,33.145-7.89c6.466-3.103,11.563-5.549,22.846-5.549c2.058,0,3.963,0.086,5.832,0.264l1.474,0.14l-0.68,1.314
		c-18.035,34.892-52.222,48.127-62.271,51.353l-0.309,0.1L593.27,506.974z"/>
	<path style="fill:#103B9B;" d="M627.124,460.353c-7.417,3.56-16.646,7.991-33.583,7.991c-16.936,0-26.164-4.43-33.58-7.989
		c-6.344-3.045-11.354-5.449-22.416-5.449c-2.063,0-3.9,0.092-5.567,0.243c17.897,34.241,51.348,47.51,61.604,50.875
		c10.539-3.383,43.916-16.477,61.688-50.859c-1.71-0.162-3.601-0.259-5.73-0.259C638.476,454.904,633.466,457.31,627.124,460.353z"
		/>
	<path style="fill:#103B9B;" d="M593.541,443.541c-11.292,0-16.391-2.448-22.846-5.547c-7.323-3.517-16.438-7.893-33.15-7.893
		c-5.196,0-9.88,0.405-14.317,1.238l-0.955,0.18l-0.207-0.949c-1.749-8.024-2.636-16.561-2.636-25.371v-7.042l0.621-0.254
		c3.945-1.615,8.795-3.11,17.494-3.11c11.294,0,16.393,2.448,22.849,5.547c7.327,3.517,16.441,7.892,33.147,7.892
		c16.702,0,25.817-4.375,33.142-7.89c6.461-3.102,11.558-5.549,22.848-5.549c8.719,0,13.57,1.496,17.516,3.113l0.621,0.254v7.038
		c0,8.839-0.872,17.377-2.593,25.378l-0.205,0.953l-0.958-0.181c-4.457-0.84-9.157-1.248-14.371-1.248
		c-16.704,0-25.82,4.375-33.145,7.89C609.936,441.093,604.837,443.541,593.541,443.541z"/>
	<path style="fill:#103B9B;" d="M627.124,401.24c-7.417,3.56-16.646,7.992-33.583,7.992c-16.936,0-26.164-4.431-33.58-7.99
		c-6.344-3.045-11.354-5.449-22.416-5.449c-7.894,0-12.702,1.229-17.115,3.035v6.371c0,9.145,0.945,17.507,2.613,25.158
		c4.087-0.768,8.833-1.256,14.502-1.256c16.936,0,26.166,4.43,33.583,7.991c6.343,3.045,11.353,5.448,22.413,5.448
		c11.064,0,16.074-2.403,22.416-5.448c7.417-3.56,16.646-7.991,33.583-7.991c5.692,0,10.458,0.493,14.557,1.266
		c1.645-7.648,2.57-16.018,2.57-25.168v-6.367c-4.417-1.81-9.228-3.039-17.127-3.039
		C638.476,395.792,633.466,398.195,627.124,401.24z"/>
	<path style="fill:#FFFFFF;" d="M684.8,451.774c0.251-0.574,0.442-1.157,0.604-1.746c-0.2,0.59-0.403,1.177-0.611,1.757
		C684.797,451.781,684.798,451.778,684.8,451.774z"/>
	<path style="fill:#FFFFFF;" d="M502.261,451.663c-0.186-0.521-0.368-1.046-0.547-1.576
		C501.863,450.617,502.039,451.145,502.261,451.663z"/>
	<path style="fill:#FFFFFF;" d="M615.957,437.089c-6.344,3.045-11.354,5.449-22.416,5.449s-16.072-2.404-22.413-5.449
		c-7.417-3.56-16.647-7.991-33.583-7.991c-5.669,0-10.415,0.49-14.501,1.256c2.026,9.283,5.128,17.513,8.934,24.793
		c1.667-0.151,3.505-0.242,5.567-0.242c11.064,0,16.074,2.403,22.416,5.448c7.416,3.56,16.645,7.99,33.581,7.99
		s26.166-4.431,33.582-7.992c6.344-3.045,11.354-5.448,22.416-5.448c2.13,0,4.019,0.097,5.73,0.258
		c3.763-7.277,6.828-15.501,8.826-24.798c-4.099-0.772-8.864-1.267-14.557-1.267C632.604,429.098,623.374,433.527,615.957,437.089z"
		/>
	<path style="fill:#FFFFFF;" d="M615.957,377.975c-6.344,3.045-11.354,5.449-22.416,5.449s-16.072-2.404-22.413-5.449
		c-7.417-3.56-16.647-7.992-33.583-7.992c-6.837,0-12.402,0.729-17.115,1.824v27.018c4.413-1.808,9.224-3.035,17.115-3.035
		c11.064,0,16.074,2.403,22.416,5.448c7.416,3.561,16.645,7.99,33.581,7.99s26.166-4.43,33.582-7.992
		c6.344-3.044,11.354-5.448,22.416-5.448c7.9,0,12.71,1.229,17.127,3.039v-27.018c-4.716-1.096-10.285-1.827-17.127-1.827
		C632.604,369.985,623.374,374.416,615.957,377.975z"/>
	<path style="fill:#F2A643;" d="M606.451,263.763v-22.801c0-7.126-5.775-12.903-12.902-12.903c-7.128,0-12.903,5.777-12.903,12.903
		v22.801c4.172-0.848,8.485-1.296,12.903-1.296S602.279,262.915,606.451,263.763z"/>
	<path style="fill:#259245;" d="M555.423,315.28l0.47-1.333c5.625-15.955,20.758-26.675,37.656-26.675
		c16.897,0,32.03,10.72,37.655,26.675l0.47,1.333H555.423z"/>
	<path style="fill:#259245;" d="M630.261,314.28c-5.335-15.133-19.776-26.008-36.712-26.008c-16.937,0-31.378,10.875-36.713,26.008
		H630.261z"/>
	<path d="M502.261,451.663c9.353,26.347,25.746,44.225,40.292,55.685c23.424,18.452,46.913,24.403,47.9,24.647
		c1.017,0.251,2.057,0.377,3.097,0.377c1.041,0,2.08-0.126,3.097-0.377c0.988-0.244,24.477-6.195,47.9-24.647
		c14.524-11.44,30.891-29.281,40.25-55.561c0.206-0.582,0.411-1.169,0.61-1.757c4.372-12.885,7.069-27.744,7.069-44.833v-78.013
		c0-7.126-5.775-12.903-12.903-12.903h-22.6c-5.149-25.352-25.166-45.368-50.519-50.519c-4.172-0.848-8.485-1.295-12.903-1.295
		s-8.731,0.447-12.903,1.295c-25.352,5.149-45.369,25.167-50.519,50.519h-22.603c-7.128,0-12.903,5.777-12.903,12.903v78.013
		c0,17.115,2.704,31.993,7.09,44.892C501.893,450.617,502.075,451.142,502.261,451.663z M593.549,288.273
		c16.936,0,31.377,10.875,36.712,26.008h-73.425C562.171,299.146,576.612,288.273,593.549,288.273z M541.734,340.086h103.628h21.305
		v31.725v27.018v6.367c0,9.151-0.928,17.52-2.57,25.169c-1.998,9.295-5.065,17.521-8.826,24.798
		c-17.772,34.383-51.148,47.477-61.688,50.859c-10.256-3.365-43.706-16.632-61.604-50.875c-3.806-7.28-6.907-15.508-8.935-24.793
		c-1.669-7.65-2.613-16.014-2.613-25.158v-6.37v-27.018v-31.723L541.734,340.086L541.734,340.086z"/>
	<path style="fill:#F2A643;" d="M461.03,540.42c6.863,1.923,13.983-2.077,15.909-8.938l3.723-13.267
		c27.272,33.689,68.397,53.728,112.887,53.728c44.488,0,85.615-20.036,112.886-53.728l3.723,13.267
		c1.924,6.86,9.048,10.859,15.909,8.938c6.861-1.925,10.861-9.048,8.936-15.911l-11.375-40.54
		c-1.432-5.101-5.836-8.809-11.105-9.351c-5.265-0.531-10.335,2.195-12.774,6.899c-20.653,39.858-61.347,64.617-106.198,64.617
		s-85.545-24.76-106.201-64.615c-2.436-4.706-7.513-7.433-12.773-6.899c-5.271,0.54-9.675,4.25-11.105,9.351l-11.376,40.54
		C450.168,531.372,454.168,538.495,461.03,540.42z"/>
	<path d="M787.097,129.032H12.903C5.775,129.032,0,134.81,0,141.936v412.903c0,7.126,5.775,12.903,12.903,12.903
		c7.127,0,12.903-5.777,12.903-12.903V400v-8.602v-41.87v-43.721v-16.129v-37.419V236.13v-43.721v-13.917V154.84h6.451h62.806
		h76.549h16.129h37.419h16.129h76.548h20.938h41.869H400h374.193v490.322H25.807v-38.71c0-7.126-5.776-12.902-12.903-12.902
		C5.775,593.549,0,599.325,0,606.451v51.613c0,7.126,5.775,12.903,12.903,12.903h774.193c7.128,0,12.903-5.777,12.903-12.903
		V141.936C800,134.81,794.225,129.032,787.097,129.032z"/>
</g>
<g>
</g>
<g>
</g>
<g>
</g>
<g>
</g>
<g>
</g>
<g>
</g>
<g>
</g>
<g>
</g>
<g>
</g>
<g>
</g>
<g>
</g>
<g>
</g>
<g>
</g>
<g>
</g>
<g>
</g>
</svg>
