<?xml version="1.0" encoding="iso-8859-1"?>
<!-- Generator: Adobe Illustrator 19.0.0, SVG Export Plug-In . SVG Version: 6.00 Build 0)  -->
<svg version="1.1" id="Layer_1" xmlns="http://www.w3.org/2000/svg" xmlns:xlink="http://www.w3.org/1999/xlink" x="0px" y="0px"
	 viewBox="0 0 799.999 799.999" style="enable-background:new 0 0 799.999 799.999;" xml:space="preserve">
<g>
	<rect x="24.807" y="411.902" style="fill:#259245;" width="298.774" height="105.226"/>
	<rect x="25.807" y="412.902" style="fill:#259245;" width="296.774" height="103.226"/>
	<path style="fill:#259245;" d="M695.774,530.031v-1c0-6.563-5.34-11.903-11.903-11.903H476.419V411.902h298.774v105.226h-39.709
		c-6.563,0-11.903,5.34-11.903,11.903v1L695.774,530.031L695.774,530.031z"/>
	<path style="fill:#259245;" d="M735.484,516.128h38.709V412.902H477.419v103.226h206.452c7.126,0,12.903,5.775,12.903,12.903
		h25.807C722.581,521.903,728.357,516.128,735.484,516.128z"/>
	<rect x="476.419" y="153.838" style="fill:#164FCE;" width="298.774" height="105.226"/>
	<rect x="477.419" y="154.838" style="fill:#164FCE;" width="296.774" height="103.226"/>
	<path style="fill:#164FCE;" d="M24.807,259.063V153.838h298.774v105.226H24.807V259.063z M111.828,181.644
		c-13.678,0-24.807,11.128-24.807,24.807s11.128,24.806,24.807,24.806s24.806-11.128,24.806-24.806S125.506,181.644,111.828,181.644
		z"/>
	<path style="fill:#164FCE;" d="M25.807,258.063h296.774V154.838H25.807V258.063z M111.828,180.644
		c14.252,0,25.806,11.555,25.806,25.807s-11.554,25.806-25.806,25.806s-25.807-11.554-25.807-25.806S97.576,180.644,111.828,180.644
		z"/>
	<path style="fill:#FFE000;" d="M476.419,646.16V540.935h207.452c6.563,0,11.903-5.34,11.903-11.903v-1h27.807v1
		c0,6.563,5.34,11.903,11.903,11.903h39.709v105.226L476.419,646.16L476.419,646.16z"/>
	<path style="fill:#FFE000;" d="M735.484,541.935c-7.127,0-12.903-5.775-12.903-12.903h-25.807c0,7.128-5.777,12.903-12.903,12.903
		H477.419v103.226h296.774V541.935H735.484z"/>
	<rect x="24.807" y="540.935" style="fill:#FFE000;" width="298.774" height="105.226"/>
	<rect x="25.807" y="541.935" style="fill:#FFE000;" width="296.774" height="103.226"/>
	<rect x="477.419" y="283.87" style="fill:#FFFFFF;" width="296.774" height="103.226"/>
	<rect x="25.807" y="283.87" style="fill:#FFFFFF;" width="296.774" height="103.226"/>
	<rect x="347.387" y="153.838" style="fill:#ED1F34;" width="105.227" height="492.322"/>
	<rect x="348.387" y="154.838" style="fill:#ED1F34;" width="103.227" height="490.322"/>
	<path d="M787.097,129.031H12.903C5.777,129.031,0,134.807,0,141.935v516.129c0,7.128,5.777,12.903,12.903,12.903h774.193
		c7.126,0,12.903-5.775,12.903-12.903V141.935C800,134.807,794.223,129.031,787.097,129.031z M477.419,387.096V283.87h296.774
		v103.226H477.419z M774.193,258.063H477.419V154.838h296.774V258.063z M451.613,645.16H348.387V154.838h103.227L451.613,645.16
		L451.613,645.16z M322.581,387.096H25.807V283.87h296.774V387.096z M322.581,412.902v103.226H25.807V412.902H322.581z
		 M25.807,541.935h296.774v103.226H25.807V541.935z M322.581,258.063H25.807V154.838h296.774V258.063z M477.419,645.16V541.935
		h206.452c7.126,0,12.903-5.775,12.903-12.903s-5.777-12.903-12.903-12.903H477.419V412.902h296.774v103.226h-38.709
		c-7.127,0-12.903,5.775-12.903,12.903s5.776,12.903,12.903,12.903h38.709v103.226L477.419,645.16L477.419,645.16z"/>
	<circle style="fill:#FFE000;" cx="111.828" cy="206.45" r="25.806"/>
</g>
<g>
</g>
<g>
</g>
<g>
</g>
<g>
</g>
<g>
</g>
<g>
</g>
<g>
</g>
<g>
</g>
<g>
</g>
<g>
</g>
<g>
</g>
<g>
</g>
<g>
</g>
<g>
</g>
<g>
</g>
</svg>
