<?xml version="1.0" encoding="iso-8859-1"?>
<!-- Generator: Adobe Illustrator 19.0.0, SVG Export Plug-In . SVG Version: 6.00 Build 0)  -->
<svg version="1.1" id="Layer_1" xmlns="http://www.w3.org/2000/svg" xmlns:xlink="http://www.w3.org/1999/xlink" x="0px" y="0px"
	 viewBox="0 0 800 800" style="enable-background:new 0 0 800 800;" xml:space="preserve">
<g>
	<path style="fill:#FFFFFF;" d="M774.193,554.838V399.999h-284.43v59.842L767.742,645.16h6.451v-38.71
		c0-7.127,5.777-12.902,12.903-12.902v-25.807C779.971,567.741,774.193,561.966,774.193,554.838z"/>
	<path style="fill:#FFFFFF;" d="M310.236,480.559v-20.718L32.258,645.16H400v-74.839
		C350.505,570.321,310.236,530.055,310.236,480.559z"/>
	<path style="fill:#FFFFFF;" d="M310.236,362.149c0-7.127,5.777-12.903,12.903-12.903h0.731L32.258,154.838h-6.451v245.161h284.43
		v-37.85H310.236z"/>
	<path style="fill:#FFFFFF;" d="M412.903,242.58v5.739l40.731,11.584v-5.567c0-7.128,5.777-12.903,12.902-12.903
		c7.127,0,12.903,5.775,12.903,12.903v22.653v36.129c0,7.128-5.776,12.903-12.903,12.903H400v23.226h76.129l291.613-194.408H400
		v74.838C407.126,229.676,412.903,235.452,412.903,242.58z"/>
	<path style="fill:#333333;" d="M488.764,400.999v-38.85c0-6.563-5.34-11.903-11.903-11.903h-4.034L767.44,153.838h7.754v247.161
		H488.764z"/>
	<path style="fill:#333333;" d="M767.742,154.838L476.129,349.246h0.731c7.126,0,12.903,5.776,12.903,12.903v37.85h284.43V154.838
		H767.742z"/>
	<path style="fill:#333333;" d="M399,646.16v-76.839h1c48.944,0,88.764-39.818,88.764-88.763v-22.586L771.045,646.16H399z"/>
	<path style="fill:#333333;" d="M400,570.321v74.839h367.742L489.764,459.841v20.718C489.764,530.055,449.495,570.321,400,570.321z"
		/>
	<polygon style="fill:#333333;" points="24.807,646.16 24.807,398.999 311.236,398.999 311.236,460.376 32.561,646.16 	"/>
	<polygon style="fill:#333333;" points="310.236,399.999 25.807,399.999 25.807,645.16 32.258,645.16 310.236,459.841 	"/>
	<path style="fill:#333333;" d="M323.568,350.246L28.955,153.838H401v76.838h-1c-6.563,0-11.903,5.34-11.903,11.903v6.495
		l-42.731,12.153v-6.892c0-6.563-5.34-11.903-11.903-11.903s-11.902,5.34-11.902,11.903v58.782c0,6.563,5.339,11.903,11.902,11.903
		H401v25.226H323.568z"/>
	<path style="fill:#333333;" d="M400,349.246V326.02h-66.538c-7.126,0-12.902-5.775-12.902-12.903v-36.129v-22.653
		c0-7.128,5.776-12.903,12.902-12.903s12.903,5.775,12.903,12.903v5.567l40.731-11.584v-5.739c0-7.127,5.777-12.903,12.903-12.903
		v-74.838H32.258l291.613,194.408H400z"/>
	<path d="M774.193,606.45v38.71h-6.451H400H32.258h-6.451V399.999V154.838h6.451H400h367.742h6.451v245.161v154.839
		c0,7.128,5.777,12.903,12.903,12.903S800,561.966,800,554.838V141.935c0-7.128-5.777-12.903-12.903-12.903H12.903
		C5.777,129.031,0,134.807,0,141.935v516.129c0,7.128,5.777,12.903,12.903,12.903h774.193c7.126,0,12.903-5.775,12.903-12.903
		v-51.613c0-7.127-5.777-12.902-12.903-12.902S774.193,599.323,774.193,606.45z"/>
	<path style="fill:#ED1F34;" d="M400,545.516c-35.817,0-64.957-29.14-64.957-64.957V374.053h129.914v106.506
		C464.957,516.376,435.817,545.516,400,545.516z M367.15,480.559c0,18.113,14.736,32.849,32.85,32.849s32.85-14.735,32.85-32.849
		v-74.398h-65.7V480.559z"/>
	<path style="fill:#ED1F34;" d="M463.957,375.053H336.043v105.506c0,35.265,28.691,63.957,63.957,63.957
		s63.957-28.692,63.957-63.957V375.053z M400,514.407c-18.665,0-33.85-15.185-33.85-33.849V405.16h67.699v75.398
		C433.85,499.223,418.665,514.407,400,514.407z"/>
	<path style="fill:#FFFFFF;" d="M433.85,405.16h-67.7v75.398c0,18.664,15.185,33.849,33.85,33.849s33.85-15.185,33.85-33.849V405.16
		z"/>
	<path d="M476.86,349.246h-0.731H400h-76.129h-0.731c-7.126,0-12.903,5.776-12.903,12.903v37.85v59.842v20.718
		c0,49.496,40.269,89.763,89.764,89.763s89.764-40.267,89.764-89.763v-20.718v-59.842v-37.85
		C489.764,355.022,483.986,349.246,476.86,349.246z M400,544.516c-35.266,0-63.957-28.692-63.957-63.957V375.053h127.914v105.506
		C463.957,515.823,435.266,544.516,400,544.516z"/>
	<polygon style="fill:#F2A643;" points="345.365,301.214 345.365,285.978 400,270.44 454.635,285.978 454.635,301.214 	"/>
	<polygon style="fill:#F2A643;" points="453.635,300.214 453.635,286.733 400,271.479 346.365,286.733 346.365,300.214 	"/>
	<path d="M479.44,313.117v-36.129v-22.653c0-7.128-5.776-12.903-12.903-12.903c-7.125,0-12.902,5.775-12.902,12.903v5.567
		l-40.731-11.584v-5.739c0-7.127-5.777-12.903-12.903-12.903s-12.903,5.776-12.903,12.903v5.739l-40.731,11.584v-5.567
		c0-7.128-5.777-12.903-12.903-12.903s-12.902,5.775-12.902,12.903v22.653v36.129c0,7.128,5.776,12.903,12.902,12.903H400h66.537
		C473.664,326.02,479.44,320.245,479.44,313.117z M346.365,286.733L400,271.479l53.635,15.253v13.481h-107.27L346.365,286.733
		L346.365,286.733z"/>
</g>
<g>
</g>
<g>
</g>
<g>
</g>
<g>
</g>
<g>
</g>
<g>
</g>
<g>
</g>
<g>
</g>
<g>
</g>
<g>
</g>
<g>
</g>
<g>
</g>
<g>
</g>
<g>
</g>
<g>
</g>
</svg>
