<?xml version="1.0" encoding="iso-8859-1"?>
<!-- Generator: Adobe Illustrator 19.0.0, SVG Export Plug-In . SVG Version: 6.00 Build 0)  -->
<svg version="1.1" id="Layer_1" xmlns="http://www.w3.org/2000/svg" xmlns:xlink="http://www.w3.org/1999/xlink" x="0px" y="0px"
	 viewBox="0 0 799.999 799.999" style="enable-background:new 0 0 799.999 799.999;" xml:space="preserve">
<g>
	<path style="fill:#FFE000;" d="M282.871,646.16V153.838h234.258v401c0,6.563,5.34,11.903,11.903,11.903h1v27.807h-1
		c-6.563,0-11.903,5.34-11.903,11.902v39.71H282.871z"/>
	<path style="fill:#FFE000;" d="M516.129,554.838v-400H283.871V645.16h232.258v-38.71c0-7.126,5.775-12.902,12.903-12.902v-25.807
		C521.904,567.741,516.129,561.964,516.129,554.838z"/>
	<path style="fill:#ED1F34;" d="M540.936,646.16v-39.71c0-6.563-5.34-11.902-11.903-11.902h-1v-27.807h1
		c6.563,0,11.903-5.34,11.903-11.903v-401h234.258V646.16H540.936z"/>
	<path style="fill:#ED1F34;" d="M541.936,554.838c0,7.126-5.775,12.903-12.903,12.903v25.807c7.128,0,12.903,5.776,12.903,12.902
		v38.71h232.258V154.838H541.936V554.838z"/>
	<rect x="24.807" y="153.838" style="fill:#103B9B;" width="234.258" height="492.322"/>
	<rect x="25.807" y="154.838" style="fill:#103B9B;" width="232.258" height="490.322"/>
	<path d="M787.097,129.031H12.903C5.775,129.031,0,134.809,0,141.935v516.129c0,7.126,5.775,12.903,12.903,12.903h774.193
		c7.128,0,12.903-5.777,12.903-12.903V141.935C800,134.809,794.225,129.031,787.097,129.031z M774.193,645.16H541.936v-38.71
		c0-7.126-5.775-12.902-12.903-12.902s-12.903,5.776-12.903,12.902v38.71H283.871V154.838h232.258v400
		c0,7.126,5.775,12.903,12.903,12.903s12.903-5.777,12.903-12.903v-400h232.258L774.193,645.16L774.193,645.16z M25.807,154.838
		h232.258V645.16H25.807V154.838z"/>
</g>
<g>
</g>
<g>
</g>
<g>
</g>
<g>
</g>
<g>
</g>
<g>
</g>
<g>
</g>
<g>
</g>
<g>
</g>
<g>
</g>
<g>
</g>
<g>
</g>
<g>
</g>
<g>
</g>
<g>
</g>
</svg>
