<?xml version="1.0" encoding="iso-8859-1"?>
<!-- Generator: Adobe Illustrator 19.0.0, SVG Export Plug-In . SVG Version: 6.00 Build 0)  -->
<svg version="1.1" id="Layer_1" xmlns="http://www.w3.org/2000/svg" xmlns:xlink="http://www.w3.org/1999/xlink" x="0px" y="0px"
	 viewBox="0 0 799.999 799.999" style="enable-background:new 0 0 799.999 799.999;" xml:space="preserve">
<g>
	<path style="fill:#ED1F34;" d="M24.807,646.16V411.902h659.064c6.563,0,11.903-5.34,11.903-11.903v-1h27.807v1
		c0,6.563,5.34,11.903,11.903,11.903h39.709V646.16H24.807z"/>
	<path style="fill:#ED1F34;" d="M735.484,412.902c-7.128,0-12.903-5.775-12.903-12.903h-25.807c0,7.128-5.775,12.903-12.903,12.903
		H25.807V645.16h748.387V412.902H735.484z"/>
	<path style="fill:#FFFFFF;" d="M735.484,387.096h38.709V154.838H283.871v232.258h400c7.128,0,12.903,5.775,12.903,12.903h25.807
		C722.581,392.871,728.356,387.096,735.484,387.096z"/>
	<path style="fill:#164FCE;" d="M24.807,388.096V153.838h234.258v234.258H24.807z M141.936,204.01
		c-4.898,0-9.365,3.073-11.116,7.646l-12.496,32.625l-34.89,1.802c-4.891,0.252-9.193,3.552-10.707,8.21
		c-1.513,4.657,0.028,9.854,3.834,12.933l27.167,21.964l-9.067,33.739c-1.271,4.73,0.537,9.841,4.5,12.719
		c2.048,1.488,4.468,2.275,6.999,2.275c2.309,0,4.553-0.666,6.488-1.925l29.287-19.049l29.285,19.047
		c1.935,1.26,4.178,1.925,6.489,1.925c2.529,0,4.949-0.787,6.998-2.274c3.962-2.877,5.771-7.989,4.5-12.719l-9.067-33.739
		l27.167-21.964c3.808-3.078,5.349-8.275,3.836-12.933c-1.514-4.658-5.816-7.958-10.707-8.21l-34.89-1.802l-12.496-32.625
		C151.3,207.082,146.833,204.01,141.936,204.01z"/>
	<path style="fill:#164FCE;" d="M25.807,387.096h232.258V154.838H25.807V387.096z M71.776,253.984
		c1.651-5.084,6.268-8.625,11.606-8.9l34.24-1.769l12.263-32.017c1.911-4.993,6.705-8.289,12.05-8.289s10.139,3.296,12.05,8.287
		l12.263,32.018l34.24,1.769c5.338,0.275,9.954,3.816,11.606,8.899c1.651,5.084-0.002,10.66-4.158,14.02l-26.662,21.555
		l8.898,33.111c1.387,5.162-0.552,10.646-4.877,13.788c-2.257,1.64-4.918,2.465-7.585,2.465c-2.444,0-4.891-0.691-7.035-2.087
		l-28.74-18.692l-28.742,18.694c-4.48,2.916-10.295,2.765-14.62-0.378c-4.325-3.142-6.264-8.626-4.877-13.788l8.898-33.111
		l-26.661-21.556C71.778,264.644,70.125,259.068,71.776,253.984z"/>
	<path d="M787.097,129.031H12.903C5.777,129.031,0,134.807,0,141.935v516.129c0,7.128,5.777,12.903,12.903,12.903h774.193
		c7.128,0,12.903-5.775,12.903-12.903V141.935C800,134.807,794.225,129.031,787.097,129.031z M258.064,387.096H25.807V154.838
		h232.258v232.258H258.064z M25.807,645.16V412.902h658.064c7.128,0,12.903-5.775,12.903-12.903s-5.775-12.903-12.903-12.903h-400
		V154.838h490.322v232.258h-38.709c-7.128,0-12.903,5.775-12.903,12.903s5.775,12.903,12.903,12.903h38.709V645.16H25.807z"/>
	<path style="fill:#FFFFFF;" d="M125.349,274.77c3.969,3.209,5.672,8.454,4.35,13.382l-2.333,8.683l7.535-4.903
		c2.139-1.392,4.587-2.086,7.035-2.086s4.896,0.695,7.035,2.086l7.536,4.903l-2.333-8.683c-1.325-4.928,0.38-10.173,4.349-13.382
		l6.99-5.651l-8.977-0.465c-5.096-0.263-9.559-3.506-11.384-8.271l-3.215-8.396l-3.216,8.396c-1.825,4.766-6.288,8.007-11.384,8.271
		l-8.977,0.465L125.349,274.77z"/>
	<path d="M75.937,268.004l26.661,21.556L93.7,322.671c-1.387,5.161,0.552,10.646,4.877,13.788c4.325,3.143,10.139,3.294,14.62,0.378
		l28.738-18.694l28.741,18.694c2.144,1.395,4.59,2.087,7.035,2.087c2.667,0,5.328-0.824,7.585-2.465
		c4.325-3.142,6.264-8.626,4.877-13.788l-8.898-33.111l26.662-21.556c4.158-3.36,5.812-8.936,4.158-14.02
		c-1.651-5.084-6.268-8.625-11.606-8.9l-34.24-1.769l-12.262-32.016c-1.913-4.993-6.707-8.289-12.052-8.289
		s-10.139,3.296-12.05,8.287l-12.263,32.018l-34.24,1.769c-5.338,0.275-9.955,3.816-11.606,8.899
		C70.125,259.068,71.778,264.644,75.937,268.004z M138.72,260.384l3.215-8.396l3.215,8.396c1.826,4.766,6.288,8.007,11.384,8.272
		l8.977,0.464l-6.99,5.652c-3.969,3.208-5.672,8.454-4.349,13.381l2.333,8.683l-7.536-4.903c-2.138-1.392-4.586-2.087-7.035-2.087
		s-4.896,0.695-7.035,2.087l-7.536,4.903l2.333-8.683c1.325-4.927-0.38-10.173-4.35-13.381l-6.99-5.652l8.977-0.464
		C132.432,268.391,136.895,265.148,138.72,260.384z"/>
</g>
<g>
</g>
<g>
</g>
<g>
</g>
<g>
</g>
<g>
</g>
<g>
</g>
<g>
</g>
<g>
</g>
<g>
</g>
<g>
</g>
<g>
</g>
<g>
</g>
<g>
</g>
<g>
</g>
<g>
</g>
</svg>
