<?xml version="1.0" encoding="iso-8859-1"?>
<!-- Generator: Adobe Illustrator 19.0.0, SVG Export Plug-In . SVG Version: 6.00 Build 0)  -->
<svg version="1.1" id="Layer_1" xmlns="http://www.w3.org/2000/svg" xmlns:xlink="http://www.w3.org/1999/xlink" x="0px" y="0px"
	 viewBox="0 0 800.002 800.002" style="enable-background:new 0 0 800.002 800.002;" xml:space="preserve">
<g>
	<path style="fill:#164FCE;" d="M24.807,646.16V164.174l286.514,191.01l-0.392,0.789c-6.845,13.79-10.315,28.602-10.315,44.024
		c0,54.803,44.585,99.388,99.387,99.388c28.644,0,55.93-12.438,74.861-34.126l0.577-0.662L747.785,646.16H24.807z M176.344,565.238
		c-10.968,0-19.891,8.923-19.891,19.891c0,10.969,8.923,19.892,19.891,19.892s19.891-8.923,19.891-19.892
		C196.235,574.161,187.312,565.238,176.344,565.238z M207.68,472.97c-7.128,0-12.927,5.799-12.927,12.927
		s5.799,12.927,12.927,12.927c3.453,0,6.7-1.345,9.141-3.786c2.442-2.441,3.786-5.688,3.786-9.141
		C220.607,478.769,214.808,472.97,207.68,472.97z M113.67,419.001c-10.968,0-19.891,8.923-19.891,19.892
		c0,10.968,8.923,19.892,19.891,19.892s19.891-8.924,19.891-19.892C133.562,427.924,124.638,419.001,113.67,419.001z
		 M239.018,366.774c-10.968,0-19.891,8.923-19.891,19.891s8.923,19.891,19.891,19.891s19.891-8.923,19.891-19.891
		C258.909,375.698,249.985,366.774,239.018,366.774z M176.344,314.547c-10.968,0-19.891,8.923-19.891,19.891
		s8.923,19.891,19.891,19.891s19.891-8.923,19.891-19.891S187.312,314.547,176.344,314.547z"/>
	<path style="fill:#259245;" d="M488.68,444.814l0.392-0.788c6.845-13.791,10.315-28.603,10.315-44.025
		c0-54.802-44.585-99.387-99.387-99.387c-28.645,0-55.931,12.438-74.861,34.126l-0.578,0.662L52.217,153.838h722.976v383.796
		c0,6.563,5.34,11.903,11.903,11.903h1v27.806h-1c-6.563,0-11.903,5.34-11.903,11.903v46.575L488.68,444.814z M495.628,259.063
		c-6.563,0-11.903,5.34-11.903,11.903s5.34,11.903,11.903,11.903h141.168l21.138,16.337L551.571,405.569
		c-4.641,4.641-4.641,12.192,0,16.835c2.248,2.248,5.237,3.485,8.417,3.485s6.168-1.237,8.416-3.485l64.374-64.372l0.677,0.429
		c9.182,5.825,19.824,8.904,30.777,8.904c15.39,0,29.859-5.993,40.743-16.875c21.11-21.113,22.708-54.383,3.716-77.39l-0.229-0.277
		v-39.706c0-6.563-5.34-11.903-11.903-11.903s-11.903,5.34-11.903,11.903v39.37l-9.751,9.751l-26.765-20.69
		c-2.075-1.603-4.661-2.485-7.28-2.485L495.628,259.063L495.628,259.063z"/>
	<path style="fill:#FFE000;" d="M664.23,343.559c-4.366,0-8.604-0.813-12.596-2.415l-1.406-0.564l44.827-44.825l0.563,1.41
		c5.029,12.597,2.095,26.92-7.478,36.489C681.754,340.041,673.263,343.559,664.23,343.559z"/>
	<path style="fill:#FFE000;" d="M400,475.58c-41.676,0-75.581-33.905-75.581-75.581c0-41.675,33.905-75.581,75.581-75.581
		s75.581,33.905,75.581,75.581S441.676,475.58,400,475.58z M400,352.225c-26.343,0-47.774,21.432-47.774,47.774
		s21.432,47.774,47.774,47.774s47.774-21.432,47.774-47.774S426.343,352.225,400,352.225z"/>
	<path style="fill:#259245;" d="M400,449.773c-27.446,0-49.774-22.329-49.774-49.774c0-27.446,22.329-49.774,49.774-49.774
		c27.445,0,49.774,22.329,49.774,49.774C449.774,427.444,427.445,449.773,400,449.773z"/>
	<path style="fill:#164FCE;" d="M475.614,465.916c-18.417,21.099-45.476,34.469-75.614,34.469
		c-55.354,0-100.387-45.034-100.387-100.388c0-15.962,3.762-31.055,10.42-44.469L25.807,166.043V645.16h718.675L475.614,465.916z
		 M176.344,313.547c11.537,0,20.891,9.354,20.891,20.891s-9.354,20.891-20.891,20.891c-11.538,0-20.891-9.354-20.891-20.891
		C155.453,322.9,164.807,313.547,176.344,313.547z M113.67,459.784c-11.537,0-20.891-9.354-20.891-20.892
		c0-11.539,9.354-20.892,20.891-20.892s20.891,9.354,20.891,20.892S125.209,459.784,113.67,459.784z M176.344,606.02
		c-11.538,0-20.891-9.354-20.891-20.892c0-11.537,9.354-20.891,20.891-20.891s20.891,9.354,20.891,20.891
		C197.235,596.667,187.881,606.02,176.344,606.02z M207.68,499.823c-7.692,0-13.927-6.236-13.927-13.927s6.235-13.927,13.927-13.927
		s13.927,6.235,13.927,13.927C221.608,493.589,215.372,499.823,207.68,499.823z M239.018,407.557
		c-11.537,0-20.891-9.354-20.891-20.891s9.354-20.891,20.891-20.891s20.891,9.354,20.891,20.891S250.555,407.557,239.018,407.557z"
		/>
	<circle style="fill:#FFFFFF;" cx="176.344" cy="334.437" r="20.891"/>
	<circle style="fill:#FFFFFF;" cx="176.344" cy="585.129" r="20.891"/>
	<circle style="fill:#FFFFFF;" cx="239.018" cy="386.666" r="20.891"/>
	<circle style="fill:#FFFFFF;" cx="113.67" cy="438.893" r="20.892"/>
	<circle style="fill:#FFFFFF;" cx="207.68" cy="485.896" r="13.927"/>
	<path style="fill:#259245;" d="M774.193,537.634V154.838H55.52l268.866,179.245c18.417-21.1,45.476-34.469,75.614-34.469
		c55.354,0,100.387,45.034,100.387,100.387c0,15.962-3.762,31.056-10.42,44.47l284.227,189.482v-44.707
		c0-7.128,5.777-12.903,12.903-12.903v-25.806C779.971,550.537,774.193,544.76,774.193,537.634z M705.683,351.197
		c-11.072,11.071-25.793,17.168-41.45,17.168c-11.262,0-22.03-3.17-31.313-9.06l-63.808,63.806
		c-2.519,2.519-5.822,3.778-9.123,3.778c-3.302,0-6.605-1.26-9.124-3.778c-5.039-5.041-5.039-13.21,0-18.249l71.916-71.915
		l33.643-33.644l-19.969-15.434H495.628c-7.126,0-12.903-5.775-12.903-12.903s5.777-12.903,12.903-12.903H640.86
		c2.855,0,5.631,0.948,7.892,2.694l26.068,20.151l8.836-8.836v-38.956c0-7.127,5.777-12.903,12.903-12.903
		s12.903,5.776,12.903,12.903v39.346C728.454,295.469,727.198,329.68,705.683,351.197z"/>
	<path d="M798.658,663.769c0.127-0.258,0.255-0.517,0.366-0.784c0.07-0.173,0.128-0.348,0.191-0.521
		c0.079-0.221,0.163-0.438,0.231-0.662c0.067-0.221,0.117-0.442,0.171-0.666c0.045-0.185,0.097-0.367,0.134-0.555
		c0.056-0.274,0.09-0.55,0.126-0.827c0.019-0.143,0.045-0.282,0.061-0.425c0.034-0.354,0.048-0.711,0.053-1.064
		c0.002-0.069,0.011-0.135,0.011-0.203v-0.04c0-0.016,0-0.032,0-0.048v-68.727c0-7.128-5.777-12.903-12.903-12.903
		s-12.903,5.775-12.903,12.903v44.707L489.967,444.469c6.658-13.414,10.42-28.508,10.42-44.47
		c0-55.353-45.032-100.387-100.387-100.387c-30.141,0-57.199,13.37-75.614,34.469L55.52,154.838h718.673v382.796
		c0,7.127,5.777,12.903,12.903,12.903S800,544.761,800,537.634V141.935c0-7.128-5.777-12.903-12.903-12.903H12.903
		c-0.005,0-0.01,0-0.016,0c-0.434,0-0.865,0.021-1.295,0.065c-0.153,0.016-0.301,0.046-0.453,0.069
		c-0.261,0.036-0.523,0.067-0.781,0.119c-0.277,0.055-0.547,0.131-0.817,0.205c-0.132,0.036-0.265,0.062-0.396,0.104
		c-0.255,0.077-0.501,0.172-0.749,0.265c-0.146,0.055-0.296,0.102-0.439,0.16c-0.208,0.086-0.406,0.188-0.607,0.284
		c-0.181,0.086-0.363,0.166-0.539,0.26c-0.153,0.083-0.298,0.177-0.447,0.265c-0.215,0.127-0.434,0.25-0.642,0.391
		c-0.104,0.07-0.203,0.149-0.304,0.224c-0.239,0.17-0.477,0.339-0.706,0.526c-0.081,0.067-0.153,0.141-0.232,0.208
		c-0.236,0.205-0.472,0.408-0.693,0.63c-0.143,0.143-0.272,0.297-0.408,0.447c-0.143,0.158-0.294,0.308-0.43,0.473
		c-0.275,0.334-0.532,0.681-0.772,1.041c-0.002,0.003-0.005,0.007-0.009,0.01c-0.027,0.042-0.048,0.086-0.076,0.127
		c-0.205,0.313-0.399,0.633-0.576,0.965c-0.062,0.117-0.114,0.239-0.172,0.358c-0.127,0.258-0.256,0.518-0.366,0.786
		c-0.071,0.172-0.127,0.348-0.191,0.52c-0.079,0.22-0.164,0.437-0.232,0.663c-0.067,0.22-0.117,0.444-0.17,0.666
		c-0.044,0.184-0.096,0.364-0.134,0.552c-0.055,0.275-0.089,0.551-0.125,0.828c-0.019,0.143-0.044,0.281-0.06,0.425
		c-0.035,0.354-0.048,0.71-0.053,1.065C0.009,141.799,0,141.866,0,141.935v0.04c0,0.016,0,0.033,0,0.048v516.041
		c0,7.128,5.777,12.903,12.903,12.903h774.159c0.009,0,0.016,0.002,0.024,0.002c0.036,0,0.072-0.007,0.109-0.007
		c0.458-0.004,0.909-0.033,1.353-0.081c0.129-0.016,0.256-0.04,0.387-0.059c0.361-0.052,0.72-0.113,1.07-0.196
		c0.138-0.032,0.273-0.068,0.41-0.104c0.342-0.092,0.679-0.196,1.011-0.313c0.135-0.048,0.267-0.095,0.399-0.146
		c0.35-0.139,0.69-0.292,1.025-0.459c0.102-0.05,0.207-0.095,0.307-0.148c0.416-0.222,0.82-0.466,1.207-0.729
		c0.119-0.08,0.229-0.174,0.345-0.258c0.271-0.199,0.537-0.404,0.791-0.624c0.14-0.119,0.273-0.245,0.408-0.372
		c0.24-0.226,0.471-0.461,0.694-0.705c0.105-0.115,0.214-0.226,0.315-0.346c0.323-0.381,0.628-0.774,0.906-1.189
		c0.002-0.003,0.006-0.005,0.007-0.008c0.028-0.042,0.049-0.086,0.076-0.128c0.205-0.313,0.399-0.633,0.576-0.965
		C798.548,664.01,798.598,663.887,798.658,663.769z M25.807,166.043l284.227,189.485c-6.658,13.414-10.42,28.507-10.42,44.469
		c0,55.354,45.033,100.388,100.387,100.388c30.141,0,57.199-13.37,75.614-34.469L744.482,645.16H25.807V166.043z M400,325.418
		c41.123,0,74.581,33.456,74.581,74.581S441.123,474.58,400,474.58s-74.581-33.456-74.581-74.581S358.877,325.418,400,325.418z"/>
	<path style="fill:#FFE000;" d="M694.689,297.535l-9.574,9.573c-0.004,0.003-0.009,0.008-0.013,0.012l-33.096,33.096
		c3.835,1.54,7.968,2.343,12.224,2.343c8.766,0,17.005-3.414,23.203-9.612C696.991,323.392,699.41,309.358,694.689,297.535z"/>
	<path d="M709.463,233.117c0-7.127-5.777-12.903-12.903-12.903s-12.903,5.776-12.903,12.903v38.956l-8.836,8.836l-26.068-20.151
		c-2.261-1.748-5.036-2.694-7.892-2.694H495.628c-7.126,0-12.903,5.775-12.903,12.903s5.777,12.903,12.903,12.903h140.826
		l19.969,15.436l-33.643,33.643l-71.916,71.916c-5.039,5.041-5.039,13.209,0,18.249c2.519,2.519,5.822,3.777,9.124,3.777
		c3.301,0,6.604-1.259,9.123-3.777l63.808-63.806c9.283,5.889,20.052,9.06,31.313,9.06c15.657,0,30.379-6.099,41.45-17.168
		c21.516-21.518,22.771-55.73,3.78-78.736L709.463,233.117L709.463,233.117z M664.232,342.561c-4.257,0-8.389-0.805-12.224-2.343
		l33.096-33.096c0.004-0.003,0.009-0.008,0.012-0.012l9.574-9.572c4.721,11.823,2.302,25.856-7.255,35.413
		C681.237,339.145,672.996,342.561,664.232,342.561z"/>
	<path style="fill:#FFE000;" d="M325.419,399.999c0,41.123,33.458,74.581,74.581,74.581s74.581-33.456,74.581-74.581
		S441.123,325.418,400,325.418S325.419,358.874,325.419,399.999z M448.774,399.999c0,26.894-21.881,48.774-48.774,48.774
		s-48.774-21.88-48.774-48.774s21.881-48.774,48.774-48.774S448.774,373.105,448.774,399.999z"/>
	<path style="fill:#259245;" d="M351.226,399.999c0,26.894,21.881,48.774,48.774,48.774s48.774-21.881,48.774-48.774
		s-21.88-48.774-48.774-48.774S351.226,373.105,351.226,399.999z"/>
</g>
<g>
</g>
<g>
</g>
<g>
</g>
<g>
</g>
<g>
</g>
<g>
</g>
<g>
</g>
<g>
</g>
<g>
</g>
<g>
</g>
<g>
</g>
<g>
</g>
<g>
</g>
<g>
</g>
<g>
</g>
</svg>
