<?xml version="1.0" encoding="iso-8859-1"?>
<!-- Generator: Adobe Illustrator 19.0.0, SVG Export Plug-In . SVG Version: 6.00 Build 0)  -->
<svg version="1.1" id="Layer_1" xmlns="http://www.w3.org/2000/svg" xmlns:xlink="http://www.w3.org/1999/xlink" x="0px" y="0px"
	 viewBox="0 0 799.999 799.999" style="enable-background:new 0 0 799.999 799.999;" xml:space="preserve">
<g>
	<path style="fill:#103B9B;" d="M24.807,646.161v-39.71c0-6.563-5.34-11.902-11.903-11.902h-1v-27.807h1
		c6.563,0,11.903-5.34,11.903-11.903v-401h750.387v492.322H24.807z M601.182,530.032c-13.679,0-24.807,11.128-24.807,24.807
		s11.128,24.807,24.807,24.807s24.807-11.128,24.807-24.807S614.86,530.032,601.182,530.032z M432.949,259.064
		c-77.712,0-140.935,63.223-140.935,140.934c0,77.713,63.223,140.938,140.935,140.938c24.136,0,47.983-6.238,68.966-18.039
		c4.833-2.717,7.138-8.336,5.605-13.665c-1.457-5.07-6.171-8.611-11.462-8.611c-0.183,0-0.367,0.004-0.551,0.013
		c-1.743,0.084-3.382,0.125-5.008,0.125c-55.559,0-100.76-45.201-100.76-100.761c0-55.558,45.201-100.757,100.76-100.757
		c1.636,0,3.274,0.041,5.011,0.125c0.121,0.005,0.691,0.015,0.691,0.015c6.502-0.029,11.818-5.369,11.818-11.904
		c0-4.583-2.56-8.682-6.68-10.697C480.466,265.181,456.833,259.064,432.949,259.064z M639.892,416.054
		c-8.935,0-16.204,7.27-16.204,16.204s7.27,16.204,16.204,16.204s16.204-7.27,16.204-16.204S648.826,416.054,639.892,416.054z
		 M523.763,349.387c-13.679,0-24.807,11.128-24.807,24.806S510.084,399,523.763,399c13.679,0,24.807-11.128,24.807-24.807
		S537.441,349.387,523.763,349.387z M172.149,217.989c-41.664,0-75.559,33.896-75.559,75.559s33.896,75.559,75.559,75.559
		s75.56-33.896,75.56-75.559S213.813,217.989,172.149,217.989z M678.602,284.871c-13.679,0-24.807,11.128-24.807,24.806
		s11.128,24.807,24.807,24.807s24.807-11.128,24.807-24.807S692.28,284.871,678.602,284.871z M601.182,220.355
		c-13.679,0-24.807,11.128-24.807,24.806c0,13.679,11.128,24.807,24.807,24.807s24.807-11.128,24.807-24.807
		C625.988,231.483,614.86,220.355,601.182,220.355z"/>
	<path style="fill:#FFE000;" d="M432.949,517.129c-64.585,0-117.129-52.545-117.129-117.131
		c0-64.584,52.544-117.127,117.129-117.127c3.016,0,6.055,0.118,9.033,0.351l0.311,1.918
		c-46.386,19.543-76.358,64.627-76.358,114.858c0,50.232,29.972,95.318,76.358,114.861l-0.311,1.919
		C439.006,517.011,435.967,517.129,432.949,517.129z"/>
	<path style="fill:#FFE000;" d="M172.149,371.107c-42.766,0-77.559-34.793-77.559-77.559s34.793-77.559,77.559-77.559
		c42.767,0,77.56,34.793,77.56,77.559S214.916,371.107,172.149,371.107z M172.149,231.156c-24.93,0-45.212,20.282-45.214,45.212
		c0,19.967,13.402,37.817,32.591,43.408l0.72,0.21v24.05c0,6.563,5.339,11.903,11.903,11.903s11.903-5.34,11.903-11.903v-24.05
		l0.72-0.21c19.189-5.591,32.591-23.441,32.591-43.408C217.364,251.438,197.081,231.156,172.149,231.156z"/>
	<path style="fill:#259245;" d="M172.149,297.778c-11.802,0-21.406-9.604-21.408-21.408c0-11.803,9.604-21.406,21.408-21.406
		c11.805,0,21.408,9.603,21.408,21.406C193.558,288.174,183.954,297.778,172.149,297.778z"/>
	<path style="fill:#103B9B;" d="M25.807,606.451v38.71h748.387V154.839H25.807v400c0,7.128-5.777,12.903-12.903,12.903v25.807
		C20.029,593.549,25.807,599.324,25.807,606.451z M678.602,283.871c14.252,0,25.807,11.554,25.807,25.806
		s-11.555,25.807-25.807,25.807s-25.807-11.554-25.807-25.807C652.795,295.425,664.35,283.871,678.602,283.871z M639.892,415.054
		c9.502,0,17.204,7.702,17.204,17.204s-7.702,17.204-17.204,17.204s-17.204-7.702-17.204-17.204S630.392,415.054,639.892,415.054z
		 M601.182,219.355c14.252,0,25.807,11.554,25.807,25.806s-11.555,25.807-25.807,25.807s-25.807-11.555-25.807-25.807
		S586.93,219.355,601.182,219.355z M601.182,529.032c14.252,0,25.807,11.555,25.807,25.807s-11.555,25.807-25.807,25.807
		s-25.807-11.555-25.807-25.807S586.93,529.032,601.182,529.032z M549.569,374.193c0,14.252-11.555,25.807-25.807,25.807
		s-25.807-11.554-25.807-25.807c0-14.252,11.555-25.806,25.807-25.806C538.017,348.387,549.569,359.941,549.569,374.193z
		 M432.949,258.064c24.065,0,47.849,6.157,68.831,17.815c4.286,2.097,7.24,6.501,7.24,11.596c0,7.107-5.746,12.873-12.847,12.903
		c-0.242-0.007-0.473-0.005-0.712-0.015c-1.741-0.084-3.365-0.124-4.962-0.124c-55.008,0-99.76,44.751-99.76,99.757
		c0,55.009,44.752,99.761,99.76,99.761c1.598,0,3.221-0.04,4.962-0.124c5.977-0.272,11.366,3.569,13.02,9.321
		c1.653,5.749-0.86,11.881-6.076,14.813c-21.134,11.887-45.152,18.168-69.456,18.168c-78.262,0-141.935-63.673-141.935-141.938
		C291.014,321.736,354.688,258.064,432.949,258.064z M172.149,216.989c42.283,0,76.56,34.276,76.56,76.559
		s-34.276,76.559-76.56,76.559c-42.283,0-76.559-34.276-76.559-76.559C95.59,251.266,129.868,216.989,172.149,216.989z"/>
	<path style="fill:#FFE000;" d="M432.949,516.129c2.992,0,5.982-0.115,8.955-0.348c-45.175-19.033-76.97-63.764-76.97-115.783
		c0-52.015,31.795-96.747,76.97-115.779c-2.975-0.232-5.963-0.348-8.955-0.348c-64.032,0-116.129,52.095-116.129,116.127
		C316.82,464.032,368.917,516.129,432.949,516.129z"/>
	<path d="M432.949,541.936c24.303,0,48.322-6.281,69.458-18.166c5.214-2.932,7.729-9.065,6.076-14.813
		c-1.653-5.752-7.043-9.594-13.021-9.321c-1.74,0.084-3.365,0.123-4.961,0.123c-55.008,0-99.76-44.753-99.76-99.76
		s44.752-99.758,99.76-99.758c1.598,0,3.221,0.04,4.961,0.124c0.238,0.01,0.47,0.009,0.713,0.016
		c7.1-0.031,12.846-5.796,12.846-12.903c0-5.094-2.952-9.499-7.239-11.596c-20.985-11.66-44.768-17.817-68.833-17.817
		c-78.262,0-141.935,63.671-141.935,141.934C291.014,478.263,354.688,541.936,432.949,541.936z M432.949,283.871
		c2.992,0,5.98,0.115,8.955,0.348c-45.175,19.033-76.97,63.764-76.97,115.779c0,52.018,31.795,96.75,76.97,115.783
		c-2.975,0.232-5.963,0.348-8.955,0.348c-64.032,0-116.129-52.097-116.129-116.131C316.82,335.966,368.917,283.871,432.949,283.871z
		"/>
	<path d="M787.097,129.032H12.903C5.777,129.032,0,134.808,0,141.936v412.903c0,7.128,5.777,12.903,12.903,12.903
		s12.903-5.775,12.903-12.903v-400h748.387v490.322H25.807v-38.71c0-7.127-5.777-12.902-12.903-12.902S0,599.324,0,606.451v51.613
		c0,7.128,5.777,12.903,12.903,12.903h774.193c7.126,0,12.903-5.775,12.903-12.903V141.936
		C800,134.808,794.223,129.032,787.097,129.032z"/>
	<path style="fill:#FFE000;" d="M172.149,370.107c42.283,0,76.56-34.276,76.56-76.559s-34.276-76.559-76.56-76.559
		c-42.283,0-76.559,34.276-76.559,76.559C95.59,335.832,129.868,370.107,172.149,370.107z M172.149,230.156
		c25.483,0,46.214,20.731,46.214,46.212c0,21.003-14.09,38.768-33.311,44.368v23.3c0,7.128-5.777,12.903-12.903,12.903
		s-12.903-5.775-12.903-12.903v-23.3c-19.221-5.6-33.311-23.365-33.311-44.368C125.937,250.887,146.668,230.156,172.149,230.156z"/>
	<circle style="fill:#FFE000;" cx="601.182" cy="245.161" r="25.806"/>
	<circle style="fill:#FFE000;" cx="601.182" cy="554.839" r="25.807"/>
	<circle style="fill:#FFE000;" cx="678.602" cy="309.677" r="25.806"/>
	<circle style="fill:#FFE000;" cx="523.763" cy="374.194" r="25.806"/>
	<circle style="fill:#FFE000;" cx="639.892" cy="432.258" r="17.204"/>
	<path style="fill:#259245;" d="M172.149,296.778c11.253,0,20.408-9.155,20.408-20.408c0-11.252-9.155-20.406-20.408-20.406
		s-20.408,9.154-20.408,20.406C151.744,287.623,160.898,296.778,172.149,296.778z"/>
	<path d="M159.247,320.738v23.3c0,7.127,5.777,12.903,12.903,12.903s12.903-5.775,12.903-12.903v-23.3
		c19.221-5.6,33.311-23.365,33.311-44.368c0-25.483-20.731-46.213-46.214-46.213s-46.214,20.731-46.214,46.213
		C125.937,297.373,140.027,315.138,159.247,320.738z M172.149,255.962c11.253,0,20.408,9.155,20.408,20.406
		c0,11.253-9.155,20.408-20.408,20.408s-20.408-9.154-20.408-20.408C151.744,265.118,160.898,255.962,172.149,255.962z"/>
</g>
<g>
</g>
<g>
</g>
<g>
</g>
<g>
</g>
<g>
</g>
<g>
</g>
<g>
</g>
<g>
</g>
<g>
</g>
<g>
</g>
<g>
</g>
<g>
</g>
<g>
</g>
<g>
</g>
<g>
</g>
</svg>
