<?xml version="1.0" encoding="iso-8859-1"?>
<!-- Generator: Adobe Illustrator 19.0.0, SVG Export Plug-In . SVG Version: 6.00 Build 0)  -->
<svg version="1.1" id="Layer_1" xmlns="http://www.w3.org/2000/svg" xmlns:xlink="http://www.w3.org/1999/xlink" x="0px" y="0px"
	 viewBox="0 0 799.999 799.999" style="enable-background:new 0 0 799.999 799.999;" xml:space="preserve">
<g>
	<path style="fill:#164FCE;" d="M24.807,517.128V411.902h91.322c6.563,0,11.903-5.34,11.903-11.903v-1h27.807v1
		c0,6.563,5.34,11.903,11.903,11.903h607.451v105.226H24.807z"/>
	<rect x="24.807" y="540.935" style="fill:#ED1F34;" width="750.387" height="105.226"/>
	<path style="fill:#FFE000;" d="M128.032,400.999v-1c0-6.563-5.34-11.903-11.903-11.903H24.807V153.838h750.387v234.258H167.742
		c-6.563,0-11.903,5.34-11.903,11.903v1H128.032z"/>
	<path style="fill:#164FCE;" d="M116.129,412.902H25.807v103.226h748.387V412.902H167.742c-7.128,0-12.903-5.775-12.903-12.903
		h-25.807C129.032,407.127,123.257,412.902,116.129,412.902z"/>
	<rect x="25.807" y="541.935" style="fill:#ED1F34;" width="748.387" height="103.226"/>
	<path style="fill:#FFE000;" d="M116.129,387.096c7.128,0,12.903,5.775,12.903,12.903h25.807c0-7.128,5.775-12.903,12.903-12.903
		h606.451V154.838H25.807v232.258H116.129z"/>
	<path d="M787.097,129.031H12.903C5.775,129.031,0,134.807,0,141.935v516.129c0,7.128,5.775,12.903,12.903,12.903h774.193
		c7.128,0,12.903-5.775,12.903-12.903V141.935C800,134.807,794.225,129.031,787.097,129.031z M774.193,154.838v232.258H167.742
		c-7.128,0-12.903,5.775-12.903,12.903s5.775,12.903,12.903,12.903h606.451v103.226H25.807V412.902h90.322
		c7.128,0,12.903-5.775,12.903-12.903s-5.775-12.903-12.903-12.903H25.807V154.838H774.193z M25.807,645.16V541.935h748.387v103.226
		L25.807,645.16L25.807,645.16z"/>
</g>
<g>
</g>
<g>
</g>
<g>
</g>
<g>
</g>
<g>
</g>
<g>
</g>
<g>
</g>
<g>
</g>
<g>
</g>
<g>
</g>
<g>
</g>
<g>
</g>
<g>
</g>
<g>
</g>
<g>
</g>
</svg>
