<?xml version="1.0" encoding="iso-8859-1"?>
<!-- Generator: Adobe Illustrator 19.0.0, SVG Export Plug-In . SVG Version: 6.00 Build 0)  -->
<svg version="1.1" id="Layer_1" xmlns="http://www.w3.org/2000/svg" xmlns:xlink="http://www.w3.org/1999/xlink" x="0px" y="0px"
	 viewBox="0 0 799.997 799.997" style="enable-background:new 0 0 799.997 799.997;" xml:space="preserve">
<g>
	<polygon style="fill:#FFE000;" points="210.056,259.065 52.217,153.84 775.193,153.84 775.193,259.065 	"/>
	<polygon style="fill:#FFE000;" points="210.359,258.065 774.193,258.065 774.193,154.84 55.52,154.84 	"/>
	<polygon style="fill:#FFFFFF;" points="249.068,283.872 403.907,387.098 774.193,387.098 774.193,283.872 	"/>
	<polygon style="fill:#ED1F34;" points="245.766,517.13 403.604,411.904 775.193,411.904 775.193,517.13 	"/>
	<polygon style="fill:#ED1F34;" points="774.193,412.904 403.907,412.904 249.068,516.13 774.193,516.13 	"/>
	<polygon style="fill:#164FCE;" points="52.217,646.162 210.056,540.937 775.193,540.937 775.193,646.162 	"/>
	<polygon style="fill:#164FCE;" points="210.359,541.937 55.52,645.162 774.193,645.162 774.193,541.937 	"/>
	<path style="fill:#259245;" d="M24.807,164.176l353.734,235.825L24.807,635.823V164.176z M146.202,314.572
		c-47.106,0-85.429,38.323-85.429,85.429s38.323,85.43,85.429,85.43c14.626,0,29.083-3.781,41.808-10.937
		c4.833-2.717,7.138-8.335,5.606-13.663c-1.46-5.073-6.133-8.617-11.365-8.617c-0.211,0-0.424,0.006-0.637,0.017
		c-0.873,0.041-1.743,0.065-2.619,0.065c-28.836,0-52.296-23.459-52.296-52.295c0-28.835,23.46-52.294,52.296-52.294
		c0.876,0,1.747,0.024,2.612,0.064c0.187,0.01,0.332,0.018,0.476,0.018l0.126-0.002c6.583-0.023,11.904-5.363,11.904-11.904
		c0-4.594-2.566-8.697-6.698-10.709C174.809,318.23,160.572,314.572,146.202,314.572z M182.178,365.268
		c-6.563,0-11.903,5.34-11.903,11.903v45.658c0,6.563,5.34,11.903,11.903,11.903s11.903-5.34,11.903-11.903v-45.658
		C194.081,370.607,188.742,365.268,182.178,365.268z"/>
	<path style="fill:#259245;" d="M376.738,400.001L25.807,166.045v467.91L376.738,400.001z M195.081,422.829
		c0,7.128-5.777,12.903-12.903,12.903s-12.903-5.775-12.903-12.903v-45.658c0-7.128,5.777-12.903,12.903-12.903
		s12.903,5.775,12.903,12.903V422.829z M59.773,400.001c0-47.658,38.771-86.429,86.429-86.429c14.553,0,28.938,3.699,41.651,10.703
		c4.3,2.094,7.26,6.505,7.26,11.608c0,7.112-5.753,12.879-12.86,12.903c-0.23,0.01-0.463-0.003-0.693-0.016
		c-0.85-0.04-1.705-0.063-2.565-0.063c-28.284,0-51.296,23.011-51.296,51.294c0,28.284,23.011,51.295,51.296,51.295
		c0.86,0,1.715-0.024,2.565-0.063c5.985-0.322,11.362,3.571,13.017,9.322c1.653,5.75-0.862,11.88-6.077,14.812
		c-12.872,7.237-27.498,11.064-42.298,11.064C98.544,486.431,59.773,447.658,59.773,400.001z"/>
	<path style="fill:#FFFFFF;" d="M182.178,364.268c-7.126,0-12.903,5.775-12.903,12.903v45.658c0,7.128,5.777,12.903,12.903,12.903
		s12.903-5.775,12.903-12.903v-45.658C195.081,370.043,189.304,364.268,182.178,364.268z"/>
	<path d="M787.097,129.033H12.903c-0.009,0-0.016,0.002-0.022,0.002c-0.401,0-0.8,0.022-1.197,0.06
		c-0.306,0.029-0.606,0.078-0.905,0.127c-0.138,0.024-0.277,0.036-0.413,0.062c-0.308,0.062-0.606,0.145-0.903,0.228
		c-0.103,0.029-0.21,0.048-0.312,0.079c-0.27,0.083-0.532,0.182-0.793,0.282c-0.131,0.048-0.265,0.091-0.396,0.145
		c-0.216,0.089-0.425,0.194-0.636,0.297c-0.17,0.081-0.344,0.157-0.511,0.246c-0.16,0.086-0.31,0.182-0.466,0.275
		c-0.21,0.124-0.422,0.244-0.625,0.38c-0.108,0.072-0.211,0.157-0.318,0.232c-0.234,0.168-0.47,0.333-0.693,0.52
		c-0.083,0.065-0.157,0.143-0.239,0.213c-0.234,0.201-0.466,0.402-0.687,0.623c-0.143,0.143-0.272,0.299-0.408,0.449
		c-0.143,0.158-0.294,0.306-0.43,0.471c-0.275,0.334-0.532,0.682-0.772,1.043c-0.001,0.003-0.005,0.007-0.008,0.01
		c-0.028,0.042-0.048,0.086-0.076,0.127c-0.205,0.314-0.399,0.633-0.576,0.967c-0.062,0.117-0.113,0.239-0.172,0.356
		c-0.127,0.26-0.256,0.52-0.367,0.786c-0.07,0.172-0.127,0.346-0.191,0.52c-0.079,0.22-0.164,0.439-0.232,0.665
		c-0.067,0.22-0.117,0.443-0.17,0.666c-0.045,0.184-0.097,0.367-0.134,0.552c-0.055,0.275-0.089,0.552-0.125,0.828
		c-0.019,0.143-0.045,0.282-0.061,0.425c-0.034,0.354-0.048,0.709-0.053,1.065C0.009,141.801,0,141.866,0,141.937v0.04
		c0,0.017,0,0.033,0,0.048v515.95c0,0.017,0,0.032,0,0.048v0.04c0,0.068,0.009,0.134,0.01,0.201c0.005,0.355,0.019,0.71,0.053,1.064
		c0.014,0.143,0.042,0.282,0.061,0.425c0.036,0.275,0.072,0.553,0.125,0.826c0.038,0.188,0.089,0.37,0.134,0.554
		c0.055,0.223,0.105,0.446,0.17,0.666c0.067,0.226,0.151,0.442,0.232,0.662c0.064,0.174,0.119,0.35,0.191,0.521
		c0.11,0.267,0.238,0.526,0.367,0.784c0.059,0.119,0.11,0.241,0.172,0.358c0.177,0.332,0.372,0.652,0.576,0.967
		c0.028,0.041,0.048,0.086,0.076,0.127c0.001,0.004,0.005,0.007,0.007,0.011c0.278,0.415,0.585,0.811,0.908,1.188
		c0.1,0.119,0.207,0.229,0.312,0.343c0.224,0.246,0.456,0.481,0.698,0.709c0.134,0.125,0.267,0.251,0.406,0.37
		c0.256,0.22,0.523,0.426,0.796,0.626c0.115,0.084,0.226,0.175,0.342,0.255c0.389,0.265,0.792,0.507,1.208,0.729
		c0.102,0.053,0.205,0.098,0.308,0.149c0.334,0.167,0.675,0.321,1.024,0.459c0.132,0.052,0.267,0.1,0.401,0.146
		c0.33,0.117,0.666,0.222,1.008,0.313c0.137,0.036,0.273,0.073,0.411,0.106c0.351,0.081,0.707,0.145,1.068,0.194
		c0.129,0.019,0.258,0.045,0.387,0.059c0.444,0.05,0.895,0.079,1.352,0.082c0.036,0,0.072,0.007,0.11,0.007
		c0.009,0,0.016-0.001,0.024-0.001h774.157c7.126,0,12.903-5.775,12.903-12.903V141.933
		C800,134.809,794.223,129.033,787.097,129.033z M25.807,166.045l350.931,233.956L25.807,633.955V166.045z M403.907,412.904h370.286
		V516.13H249.068L403.907,412.904z M403.907,387.098L249.068,283.872h525.125v103.226H403.907z M774.193,258.065H210.359
		L55.52,154.84h718.673V258.065z M55.52,645.162l154.839-103.226h563.834v103.226H55.52z"/>
	<path style="fill:#FFFFFF;" d="M128.089,457.859c-16.051-14.141-26.195-34.839-26.195-57.86c0-23.021,10.144-43.719,26.195-57.859
		c-24.607,7.719-42.508,30.737-42.508,57.859C85.581,427.122,103.48,450.14,128.089,457.859z"/>
	<path d="M146.204,486.431c14.801,0,29.426-3.827,42.298-11.064c5.214-2.932,7.73-9.063,6.077-14.812
		c-1.653-5.751-7.032-9.643-13.017-9.322c-0.85,0.039-1.705,0.063-2.565,0.063c-28.284,0-51.296-23.011-51.296-51.295
		s23.011-51.295,51.296-51.295c0.86,0,1.715,0.024,2.565,0.064c0.232,0.012,0.465,0.026,0.693,0.016
		c7.105-0.024,12.86-5.791,12.86-12.903c0-5.103-2.962-9.514-7.26-11.608c-12.714-7.002-27.099-10.703-41.651-10.703
		c-47.658,0-86.43,38.771-86.43,86.429C59.774,447.658,98.544,486.431,146.204,486.431z M85.579,400.001
		c0-27.123,17.901-50.14,42.509-57.86c-16.052,14.14-26.195,34.839-26.195,57.86s10.144,43.72,26.195,57.859
		C103.48,450.14,85.579,427.122,85.579,400.001z"/>
</g>
<g>
</g>
<g>
</g>
<g>
</g>
<g>
</g>
<g>
</g>
<g>
</g>
<g>
</g>
<g>
</g>
<g>
</g>
<g>
</g>
<g>
</g>
<g>
</g>
<g>
</g>
<g>
</g>
<g>
</g>
</svg>
