<?xml version="1.0" encoding="iso-8859-1"?>
<!-- Generator: Adobe Illustrator 19.0.0, SVG Export Plug-In . SVG Version: 6.00 Build 0)  -->
<svg version="1.1" id="Layer_1" xmlns="http://www.w3.org/2000/svg" xmlns:xlink="http://www.w3.org/1999/xlink" x="0px" y="0px"
	 viewBox="0 0 799.999 799.999" style="enable-background:new 0 0 799.999 799.999;" xml:space="preserve">
<g>
	<polygon style="fill:#103B9B;" points="317.839,154.838 241.291,154.838 241.291,205.871 	"/>
	<path style="fill:#103B9B;" d="M128.032,659.063v-1c0-6.563-5.34-11.903-11.903-11.903H24.807V398.999h50.6l97.206-64.805v64.805
		h67.678v-64.805l97.206,64.805H399v-40.335l-80.787-53.858H399v-67.678h-80.787L399,183.27v-29.432h376.193V646.16H167.742
		c-6.563,0-11.903,5.34-11.903,11.903v1H128.032z M618.246,499.907c-1.131,0-2.271,0.121-3.387,0.358
		c-4.233,0.9-7.864,3.396-10.222,7.025s-3.159,7.96-2.259,12.193c1.582,7.439,8.24,12.839,15.832,12.839
		c1.131,0,2.271-0.12,3.388-0.358c8.738-1.858,14.338-10.48,12.48-19.22C632.498,505.307,625.839,499.907,618.246,499.907z
		 M568.85,499.907c-7.592,0-14.251,5.399-15.833,12.838c-0.9,4.234-0.099,8.565,2.259,12.196c2.357,3.63,5.987,6.124,10.222,7.023
		c1.117,0.238,2.257,0.358,3.388,0.358c7.593,0,14.251-5.399,15.831-12.839c0.901-4.233,0.099-8.564-2.259-12.195
		c-2.357-3.63-5.987-6.124-10.221-7.023C571.12,500.028,569.98,499.907,568.85,499.907z M523.787,479.832
		c-5.179,0-10.084,2.497-13.124,6.68c-5.251,7.229-3.644,17.384,3.585,22.635c2.788,2.025,6.076,3.096,9.511,3.096
		c5.178,0,10.084-2.497,13.124-6.681c2.544-3.501,3.572-7.784,2.896-12.06c-0.678-4.275-2.979-8.03-6.48-10.575
		C530.511,480.902,527.222,479.832,523.787,479.832z M663.31,479.832c-3.434,0-6.723,1.07-9.511,3.096
		c-7.229,5.251-8.836,15.405-3.585,22.634c3.04,4.184,7.946,6.681,13.124,6.681c3.435,0,6.724-1.07,9.511-3.096
		c7.229-5.251,8.836-15.405,3.584-22.635C673.394,482.329,668.488,479.832,663.31,479.832z M696.369,443.146
		c-5.779,0-11.162,3.105-14.048,8.105c-2.165,3.748-2.74,8.115-1.619,12.296c1.12,4.181,3.802,7.675,7.55,9.839
		c2.464,1.423,5.26,2.175,8.087,2.175c5.779,0,11.162-3.105,14.048-8.105c2.164-3.748,2.739-8.115,1.619-12.296
		c-1.119-4.182-3.801-7.675-7.549-9.839C701.993,443.898,699.196,443.146,696.369,443.146z M490.728,443.147
		c-2.827,0-5.624,0.752-8.087,2.174c-3.749,2.163-6.43,5.657-7.55,9.839c-1.12,4.181-0.545,8.547,1.619,12.296
		c2.886,4.999,8.269,8.104,14.048,8.104c2.827,0,5.623-0.752,8.087-2.174c3.748-2.163,6.43-5.658,7.55-9.839
		s0.545-8.548-1.619-12.296C501.89,446.253,496.507,443.147,490.728,443.147z M711.586,396.203c-8.307,0-15.226,6.239-16.096,14.512
		c-0.933,8.886,5.537,16.875,14.423,17.81c0.568,0.06,1.146,0.09,1.713,0.09c8.308,0,15.228-6.239,16.098-14.513
		c0.452-4.305-0.799-8.528-3.522-11.892c-2.725-3.364-6.596-5.465-10.901-5.917C712.73,396.233,712.154,396.203,711.586,396.203z
		 M475.51,396.201c-0.568,0-1.145,0.031-1.714,0.09c-4.305,0.452-8.176,2.554-10.9,5.917c-2.724,3.364-3.975,7.587-3.522,11.891
		c0.87,8.273,7.789,14.513,16.096,14.513c0.568,0,1.146-0.03,1.714-0.09c4.305-0.453,8.176-2.555,10.899-5.918
		c2.724-3.364,3.975-7.587,3.522-11.892C490.735,402.439,483.816,396.201,475.51,396.201z M706.452,347.108
		c-1.695,0-3.382,0.268-5.012,0.798c-8.497,2.762-13.163,11.922-10.402,20.419c2.177,6.7,8.369,11.201,15.407,11.201
		c1.696,0,3.382-0.269,5.012-0.798c8.497-2.762,13.164-11.922,10.403-20.419C719.683,351.609,713.491,347.108,706.452,347.108z
		 M480.646,347.108c-7.038,0-13.23,4.501-15.408,11.201c-2.762,8.498,1.905,17.657,10.402,20.419
		c1.63,0.529,3.315,0.798,5.012,0.798c7.039,0,13.23-4.501,15.408-11.201c2.762-8.498-1.905-17.658-10.403-20.419
		C484.028,347.376,482.343,347.108,480.646,347.108z M505.337,304.363c-4.588,0-8.98,1.954-12.049,5.362
		c-5.979,6.639-5.44,16.905,1.199,22.885c2.98,2.685,6.829,4.163,10.837,4.163c4.589,0,8.98-1.954,12.049-5.361
		c5.979-6.639,5.44-16.906-1.199-22.886C513.193,305.841,509.345,304.363,505.337,304.363z M681.762,304.362
		c-4.008,0-7.855,1.478-10.837,4.162c-3.217,2.896-5.113,6.873-5.34,11.195c-0.227,4.323,1.244,8.474,4.141,11.69
		c3.068,3.408,7.46,5.362,12.049,5.362c4.008,0,7.856-1.478,10.837-4.163c3.216-2.896,5.112-6.872,5.339-11.194
		c0.227-4.323-1.244-8.475-4.141-11.691C690.741,306.316,686.35,304.362,681.762,304.362z M641.841,275.344
		c-6.397,0-12.212,3.775-14.813,9.617c-3.634,8.162,0.05,17.759,8.213,21.395c2.094,0.933,4.309,1.405,6.582,1.405
		c6.397,0,12.211-3.775,14.812-9.618c3.634-8.164-0.051-17.761-8.212-21.395C646.328,275.817,644.114,275.344,641.841,275.344z
		 M545.255,275.344c-2.272,0-4.486,0.473-6.581,1.405c-3.953,1.76-6.985,4.956-8.537,8.997c-1.551,4.042-1.436,8.444,0.325,12.398
		c2.603,5.842,8.417,9.618,14.814,9.618c2.272,0,4.486-0.473,6.581-1.405c8.162-3.634,11.846-13.232,8.211-21.395
		C557.467,279.119,551.651,275.344,545.255,275.344z M593.549,265.085c-8.936,0-16.205,7.269-16.205,16.204
		s7.27,16.205,16.205,16.205s16.204-7.27,16.204-16.205S602.483,265.085,593.549,265.085z"/>
	<path style="fill:#103B9B;" d="M167.742,645.16h606.451V154.838H400v28.967l-78.484,52.323H400v16.129v37.419v16.129h-78.484
		L400,358.129v14.551v27.319h-62.806l-95.904-63.937v63.937h-16.129h-37.419h-16.129v-63.937l-95.904,63.937H54.773H25.807V645.16
		h90.322c7.126,0,12.903,5.777,12.903,12.903h25.807C154.839,650.937,160.616,645.16,167.742,645.16z M499.345,474.253
		c-8.229,4.75-18.751,1.932-23.501-6.297s-1.933-18.751,6.297-23.501c8.229-4.75,18.75-1.933,23.501,6.297
		C510.392,458.98,507.573,469.503,499.345,474.253z M711.253,467.956c-4.75,8.229-15.271,11.049-23.501,6.297
		c-8.229-4.75-11.049-15.272-6.297-23.501c4.75-8.229,15.272-11.049,23.502-6.297C713.186,449.205,716.004,459.728,711.253,467.956z
		 M728.718,414.206c-0.993,9.45-9.459,16.305-18.909,15.313c-9.449-0.993-16.305-9.459-15.313-18.908
		c0.993-9.45,9.459-16.304,18.908-15.312C722.855,396.29,729.712,404.756,728.718,414.206z M722.812,358
		c2.937,9.037-2.01,18.742-11.046,21.679c-9.037,2.937-18.742-2.01-21.679-11.045c-2.937-9.037,2.01-18.742,11.045-21.679
		C710.168,344.018,719.874,348.962,722.812,358z M670.256,307.78c7.061-6.357,17.938-5.787,24.297,1.273
		c6.359,7.061,5.788,17.939-1.272,24.297c-7.061,6.359-17.939,5.788-24.298-1.273S663.193,314.139,670.256,307.78z M677.242,485.924
		c5.584,7.688,3.881,18.447-3.806,24.031c-7.687,5.585-18.446,3.881-24.031-3.806c-5.584-7.687-3.881-18.446,3.806-24.031
		C660.898,476.534,671.657,478.237,677.242,485.924z M626.114,284.555c3.864-8.68,14.034-12.583,22.715-8.719
		c8.68,3.864,12.583,14.034,8.72,22.715c-3.864,8.681-14.034,12.583-22.715,8.719C626.154,303.404,622.25,293.234,626.114,284.555z
		 M635.058,512.537c1.975,9.294-3.957,18.43-13.251,20.406s-18.43-3.957-20.406-13.251c-1.977-9.293,3.957-18.429,13.251-20.405
		C623.946,497.312,633.082,503.244,635.058,512.537z M593.549,264.085c9.502,0,17.204,7.703,17.204,17.204
		c0,9.502-7.702,17.205-17.204,17.205s-17.205-7.703-17.205-17.205C576.344,271.788,584.047,264.085,593.549,264.085z
		 M572.444,499.287c9.293,1.975,15.228,11.11,13.25,20.405c-1.975,9.294-11.11,15.228-20.405,13.251
		c-9.294-1.975-15.228-11.11-13.251-20.406C554.015,503.244,563.15,497.312,572.444,499.287z M538.268,275.835
		c8.68-3.864,18.849,0.04,22.715,8.719c3.864,8.68-0.04,18.851-8.719,22.715c-8.68,3.864-18.85-0.04-22.715-8.719
		C525.683,289.871,529.588,279.7,538.268,275.835z M533.886,482.118c7.687,5.585,9.392,16.345,3.806,24.031
		c-5.585,7.687-16.344,9.392-24.031,3.806c-7.687-5.584-9.39-16.344-3.806-24.031C515.439,478.237,526.199,476.534,533.886,482.118z
		 M492.545,309.055c6.359-7.061,17.237-7.631,24.298-1.273c7.061,6.359,7.632,17.237,1.273,24.298
		c-6.358,7.061-17.237,7.632-24.298,1.273S486.187,316.116,492.545,309.055z M464.287,358c2.938-9.036,12.642-13.982,21.68-11.045
		c9.037,2.937,13.981,12.642,11.045,21.679c-2.937,9.036-12.642,13.982-21.68,11.045C466.295,376.742,461.351,367.036,464.287,358z
		 M473.691,395.297c9.45-0.993,17.915,5.862,18.907,15.312c0.993,9.449-5.861,17.915-15.312,18.908
		c-9.45,0.992-17.915-5.861-18.908-15.313C457.385,404.756,464.241,396.29,473.691,395.297z"/>
	<polygon style="fill:#103B9B;" points="25.807,192.407 25.807,236.128 91.388,236.128 	"/>
	<polygon style="fill:#103B9B;" points="25.807,305.806 25.807,349.527 91.388,305.806 	"/>
	<polygon style="fill:#103B9B;" points="171.613,154.838 95.064,154.838 171.613,205.871 	"/>
	<polygon style="fill:#ED1F34;" points="255.407,304.806 300.227,304.806 401,372.145 401,401.867 	"/>
	<polygon style="fill:#ED1F34;" points="258.709,305.806 400,399.999 400,372.68 299.924,305.806 	"/>
	<polygon style="fill:#ED1F34;" points="24.807,400.999 24.807,390.862 153.891,304.806 172.613,304.806 172.613,322.642 
		55.076,400.999 	"/>
	<polygon style="fill:#ED1F34;" points="171.613,322.106 171.613,305.806 154.193,305.806 25.807,391.397 25.807,399.999 
		54.773,399.999 	"/>
	<polygon style="fill:#ED1F34;" points="240.291,237.128 240.291,219.3 338.474,153.838 383.948,153.838 259.012,237.128 	"/>
	<polygon style="fill:#ED1F34;" points="241.291,236.128 258.709,236.128 380.646,154.838 338.776,154.838 241.291,219.835 	"/>
	<polygon style="fill:#ED1F34;" points="111.752,237.128 24.807,179.027 24.807,153.838 32.561,153.838 157.496,237.128 	"/>
	<polygon style="fill:#ED1F34;" points="154.193,236.128 32.258,154.838 25.807,154.838 25.807,178.492 112.055,236.128 	"/>
	<polygon style="fill:#FFFFFF;" points="187.742,252.257 187.742,154.838 171.613,154.838 171.613,205.871 95.064,154.838 
		32.258,154.838 154.193,236.128 112.055,236.128 25.807,178.492 25.807,192.407 91.388,236.128 25.807,236.128 25.807,252.257 	"/>
	<polygon style="fill:#FFFFFF;" points="225.161,252.257 400,252.257 400,236.128 321.516,236.128 400,183.805 400,154.838 
		380.646,154.838 258.709,236.128 241.291,236.128 241.291,219.835 338.776,154.838 317.839,154.838 241.291,205.871 
		241.291,154.838 225.161,154.838 	"/>
	<polygon style="fill:#FFFFFF;" points="225.161,289.676 225.161,399.999 241.291,399.999 241.291,336.062 337.194,399.999 
		400,399.999 258.709,305.806 299.924,305.806 400,372.68 400,358.129 321.516,305.806 400,305.806 400,289.676 	"/>
	<polygon style="fill:#FFFFFF;" points="171.613,305.806 171.613,322.106 54.773,399.999 75.709,399.999 171.613,336.062 
		171.613,399.999 187.742,399.999 187.742,289.676 25.807,289.676 25.807,305.806 91.388,305.806 25.807,349.527 25.807,391.397 
		154.193,305.806 	"/>
	<polygon style="fill:#ED1F34;" points="186.742,400.999 186.742,290.676 24.807,290.676 24.807,251.257 186.742,251.257 
		186.742,153.838 226.161,153.838 226.161,251.257 401,251.257 401,290.676 226.161,290.676 226.161,400.999 	"/>
	<polygon style="fill:#ED1F34;" points="187.742,289.676 187.742,399.999 225.161,399.999 225.161,289.676 400,289.676 400,252.257 
		225.161,252.257 225.161,154.838 187.742,154.838 187.742,252.257 25.807,252.257 25.807,289.676 	"/>
	<circle style="fill:#FFFFFF;" cx="593.549" cy="281.289" r="17.204"/>
	<circle style="fill:#FFFFFF;" cx="545.265" cy="291.552" r="17.204"/>
	<circle style="fill:#FFFFFF;" cx="505.33" cy="320.567" r="17.204"/>
	<circle style="fill:#FFFFFF;" cx="480.648" cy="363.316" r="17.204"/>
	<circle style="fill:#FFFFFF;" cx="475.489" cy="412.409" r="17.205"/>
	<circle style="fill:#FFFFFF;" cx="490.742" cy="459.354" r="17.205"/>
	<circle style="fill:#FFFFFF;" cx="523.772" cy="496.037" r="17.204"/>
	<circle style="fill:#FFFFFF;" cx="568.867" cy="516.114" r="17.204"/>
	<circle style="fill:#FFFFFF;" cx="618.229" cy="516.114" r="17.204"/>
	<circle style="fill:#FFFFFF;" cx="663.324" cy="496.037" r="17.204"/>
	<circle style="fill:#FFFFFF;" cx="696.354" cy="459.354" r="17.205"/>
	<circle style="fill:#FFFFFF;" cx="711.607" cy="412.409" r="17.205"/>
	<circle style="fill:#FFFFFF;" cx="706.448" cy="363.316" r="17.204"/>
	<circle style="fill:#FFFFFF;" cx="681.767" cy="320.567" r="17.204"/>
	<circle style="fill:#FFFFFF;" cx="641.832" cy="291.552" r="17.204"/>
	<path d="M787.097,129.031H12.903C5.777,129.031,0,134.809,0,141.935v516.129c0,7.126,5.777,12.903,12.903,12.903h103.226
		c7.126,0,12.903-5.777,12.903-12.903s-5.777-12.903-12.903-12.903H25.807V399.999v-8.602v-41.87v-43.721v-16.129v-37.419v-16.129
		v-43.721v-13.917v-23.652h6.451h62.806h76.549h16.129h37.419h16.129h76.548h20.938h41.869H400h374.193v490.322H167.742
		c-7.126,0-12.903,5.777-12.903,12.903s5.777,12.903,12.903,12.903h619.354c7.128,0,12.903-5.777,12.903-12.903V141.935
		C800,134.809,794.225,129.031,787.097,129.031z"/>
</g>
<g>
</g>
<g>
</g>
<g>
</g>
<g>
</g>
<g>
</g>
<g>
</g>
<g>
</g>
<g>
</g>
<g>
</g>
<g>
</g>
<g>
</g>
<g>
</g>
<g>
</g>
<g>
</g>
<g>
</g>
</svg>
