<?xml version="1.0" encoding="iso-8859-1"?>
<!-- Generator: Adobe Illustrator 19.0.0, SVG Export Plug-In . SVG Version: 6.00 Build 0)  -->
<svg version="1.1" id="Layer_1" xmlns="http://www.w3.org/2000/svg" xmlns:xlink="http://www.w3.org/1999/xlink" x="0px" y="0px"
	 viewBox="0 0 799.999 799.999" style="enable-background:new 0 0 799.999 799.999;" xml:space="preserve">
<g>
	<path style="fill:#FFFFFF;" d="M588.149,247.175v-36.423h-23.52v36.423c0,16.779-5.896,32.208-15.727,44.322
		C570.986,288.821,588.149,269.965,588.149,247.175z"/>
	<path style="fill:#FFFFFF;" d="M25.807,645.16h748.387V154.838H25.807V645.16z M187.425,392.835l20.583-40.822
		c0.239-11.835,1.816-23.344,4.588-34.386h-0.7c-7.126,0-12.903-5.775-12.903-12.903c0-7.127,5.777-12.903,12.903-12.903h9.688
		c8.776-19.398,21.452-36.669,37.022-50.81c-5.106-3.007-7.626-9.249-5.71-15.114c2.214-6.773,9.5-10.469,16.271-8.258l14.625,4.777
		c22.98-13.617,49.774-21.45,78.366-21.45c62.159,0,115.84,36.976,140.219,90.085c20.712-3.864,36.442-22.063,36.442-43.877v-49.325
		c0-7.128,5.775-12.903,12.902-12.903h49.327c7.128,0,12.903,5.775,12.903,12.903v49.326c0,23.752-11.826,44.779-29.888,57.548
		c18.062,12.769,29.888,33.798,29.888,57.547v99.836c0,7.128-5.775,12.903-12.903,12.903s-12.903-5.775-12.903-12.903V362.27
		c0-22.789-17.165-41.646-39.245-44.32c9.829,12.113,15.725,27.541,15.725,44.32v172.955h23.521V513.72
		c0-7.128,5.775-12.903,12.903-12.903s12.903,5.775,12.903,12.903v34.408c0,7.128-5.775,12.903-12.903,12.903h-49.327
		c-7.127,0-12.902-5.775-12.902-12.903V362.27c0-18.021-10.737-33.569-26.146-40.614c2.401,10.791,3.676,22.002,3.676,33.507
		c0,38.887-14.261,75.476-40.335,103.952l32.908,84.324c1.861,4.771,0.725,10.194-2.897,13.815
		c-1.913,1.911-1.913,1.911-26.061,11.338l-116.788,45.577c-1.524,0.598-3.114,0.885-4.688,0.885c-3.479,0-6.889-1.407-9.373-4.034
		c-1.207-1.275-2.114-2.753-2.708-4.332c-0.925-2.39-19.528-50.063-31.652-81.127l-53.791,0.188c-29.244,0-53-23.755-53-52.953
		v-9.963c-5.008-1.773-8.603-6.537-8.603-12.152c0-5.616,3.594-10.38,8.603-12.153v-30.689c-2.424,2.379-5.678,3.715-9.032,3.715
		c-1.955,0-3.937-0.445-5.8-1.385C186.775,406.958,184.217,399.199,187.425,392.835z"/>
	<path d="M787.097,129.031H12.903C5.777,129.031,0,134.807,0,141.935v516.129c0,7.128,5.777,12.903,12.903,12.903h774.193
		c7.128,0,12.903-5.775,12.903-12.903V141.935C800,134.807,794.225,129.031,787.097,129.031z M774.193,645.16H25.807V154.838
		h748.387V645.16H774.193z"/>
	<path style="fill:#333333;" d="M316.406,234.123l2.774-0.98c13.843-4.89,28.304-7.369,42.982-7.369
		c42.561,0,82.435,21.03,106.664,56.256l1.675,2.435L316.406,234.123z"/>
	<path style="fill:#333333;" d="M362.162,226.774c-14.948,0-29.295,2.595-42.649,7.312l148.489,48.511
		C444.834,248.914,406.042,226.774,362.162,226.774z"/>
	<path style="fill:#333333;" d="M334.65,508.292c-1.797-4.602-6.149-7.575-11.089-7.575l-62.636,0.222
		c-15.524,0-28.15-12.627-28.15-28.146v-10.67l0.666-0.235c4.747-1.681,7.936-6.187,7.936-11.211c0-5.023-3.189-9.529-7.936-11.211
		l-0.666-0.235v-72.167h20.418l0.141,0.833c0.647,3.821,3.12,7.096,6.613,8.761c1.617,0.771,3.338,1.162,5.115,1.162
		c4.567,0,8.788-2.663,10.753-6.783l5.127-10.753c1.769-3.708,1.516-7.998-0.678-11.475c-2.193-3.476-5.957-5.55-10.067-5.55h-1
		v-0.005h-35.88l0.11-1.1c0.841-8.386,2.523-16.739,5.001-24.825l0.216-0.707h247.033l0.217,0.707
		c3.752,12.247,5.654,24.974,5.654,37.828c0,35.05-13.811,67.877-38.887,92.433c-3.414,3.343-4.497,8.379-2.761,12.831
		l31.589,80.944l-116.236,45.361L334.65,508.292z M352.371,416.046c-5.854,0-10.795,4.188-11.75,9.957
		c-0.52,3.136,0.213,6.287,2.063,8.872s4.596,4.294,7.731,4.813c2.65,0.438,5.343,0.66,8.004,0.66
		c23.957,0,44.19-17.167,48.111-40.82c2.131-12.856-0.873-25.774-8.458-36.374c-7.586-10.598-18.845-17.607-31.703-19.739
		c-0.636-0.104-1.288-0.157-1.934-0.157c-2.861,0-5.627,1.026-7.787,2.89c-2.684,2.317-4.188,5.678-4.125,9.22l0.301,17.294
		c0.112,6.559,5.322,11.696,11.86,11.696l0.245-0.002c5.093-0.087,9.563-3.399,11.126-8.239l0.565-1.75l1.162,1.425
		c0.322,0.396,0.631,0.803,0.93,1.221c3.884,5.43,5.423,12.045,4.332,18.628c-2.009,12.113-12.368,20.904-24.631,20.904
		c-1.366,0-2.747-0.114-4.104-0.34C353.669,416.1,353.016,416.046,352.371,416.046z"/>
	<path style="fill:#333333;" d="M270.199,342.258c4.428,0,8.549,2.271,10.913,6.017c2.364,3.747,2.641,8.442,0.735,12.438
		l-5.127,10.753c-2.212,4.64-6.837,7.353-11.656,7.353c-1.862,0-3.752-0.404-5.545-1.259c-3.941-1.879-6.491-5.495-7.169-9.497
		h-18.574v70.46c5.008,1.774,8.602,6.538,8.602,12.153s-3.594,10.38-8.602,12.153v9.963c0,14.97,12.179,27.146,27.147,27.146
		l62.594-0.222c0.016,0,0.031,0,0.045,0c5.314,0,10.087,3.26,12.021,8.212l30.241,77.502
		c26.202-10.225,88.187-34.416,114.373-44.635l-31.226-80.013c-1.879-4.816-0.702-10.291,2.993-13.909
		c24.883-24.366,38.586-56.939,38.586-91.718c0-13.055-1.972-25.657-5.61-37.535H239.386c-2.426,7.917-4.112,16.153-4.962,24.631
		h35.775V342.258z M339.634,425.84c1.164-7.031,7.821-11.771,14.839-10.622c13.046,2.168,25.421-6.695,27.585-19.742
		c1.048-6.323-0.43-12.671-4.158-17.882c-0.287-0.401-0.583-0.792-0.893-1.171c-1.648,5.104-6.396,8.834-12.058,8.932
		c-7.181,0.143-13.003-5.553-13.125-12.676l-0.301-17.294c-0.067-3.832,1.572-7.491,4.472-9.994
		c2.898-2.501,6.763-3.582,10.537-2.962c13.122,2.175,24.611,9.328,32.353,20.143c7.74,10.816,10.807,23.998,8.632,37.12
		c-4.034,24.34-25.192,41.657-49.098,41.657c-2.694,0-5.421-0.22-8.167-0.674C343.224,439.512,338.469,432.868,339.634,425.84z"/>
	<path style="fill:#FFFFFF;" d="M413.137,291.82l-125.598-41.034c-15.095,10.823-27.747,24.828-36.982,41.034H413.137z"/>
	<path d="M350.254,440.679c2.744,0.454,5.471,0.674,8.167,0.674c23.905,0,45.063-17.313,49.098-41.656
		c2.175-13.122-0.894-26.304-8.632-37.12c-7.742-10.814-19.23-17.968-32.353-20.143c-3.776-0.62-7.639,0.461-10.538,2.962
		c-2.9,2.501-4.538,6.163-4.471,9.994l0.301,17.293c0.124,7.125,5.946,12.819,13.125,12.676c5.662-0.1,10.409-3.83,12.057-8.933
		c0.309,0.38,0.605,0.769,0.894,1.172c3.728,5.209,5.206,11.56,4.158,17.882c-2.163,13.046-14.54,21.909-27.586,19.743
		c-7.018-1.15-13.674,3.59-14.838,10.621C338.469,432.868,343.224,439.512,350.254,440.679z"/>
	<path d="M193.137,410.167c1.863,0.939,3.845,1.385,5.799,1.385c3.355,0,6.608-1.335,9.033-3.715v30.689
		c-5.008,1.773-8.603,6.538-8.603,12.153s3.594,10.379,8.603,12.153v9.963c0,29.199,23.755,52.953,53,52.953l53.791-0.189
		c12.124,31.065,30.727,78.739,31.652,81.127c0.594,1.579,1.502,3.056,2.708,4.332c2.484,2.625,5.895,4.034,9.373,4.034
		c1.575,0,3.164-0.287,4.688-0.885l116.788-45.577c24.148-9.426,24.148-9.426,26.062-11.338c3.62-3.621,4.759-9.044,2.897-13.814
		l-32.909-84.325c26.075-28.477,40.336-65.065,40.336-103.952c0-11.504-1.276-22.715-3.677-33.507
		c15.408,7.047,26.146,22.594,26.146,40.614v185.858c0,7.128,5.775,12.903,12.903,12.903h49.326c7.128,0,12.903-5.775,12.903-12.903
		v-34.408c0-7.128-5.775-12.903-12.903-12.903s-12.903,5.775-12.903,12.903v21.505h-23.52V362.27
		c0-16.779-5.896-32.207-15.725-44.32c22.08,2.673,39.244,21.531,39.244,44.32v99.836c0,7.128,5.775,12.903,12.903,12.903
		s12.903-5.775,12.903-12.903V362.27c0-23.75-11.826-44.778-29.888-57.547c18.062-12.769,29.888-33.798,29.888-57.548v-49.326
		c0-7.128-5.775-12.903-12.903-12.903h-49.326c-7.128,0-12.903,5.775-12.903,12.903v49.326c0,21.815-15.731,40.014-36.442,43.878
		c-24.378-53.109-78.059-90.085-140.218-90.085c-28.593,0-55.387,7.833-78.366,21.45l-14.625-4.778
		c-6.773-2.21-14.06,1.485-16.272,8.258c-1.917,5.865,0.604,12.106,5.71,15.114c-15.572,14.14-28.248,31.412-37.022,50.81H211.9
		c-7.126,0-12.903,5.775-12.903,12.903s5.777,12.903,12.903,12.903h0.7c-2.771,11.042-4.351,22.551-4.588,34.386l-20.583,40.822
		C184.217,399.199,186.775,406.958,193.137,410.167z M287.539,250.788l125.598,41.034h-162.58
		C259.792,275.614,272.444,261.611,287.539,250.788z M319.513,234.086c13.354-4.717,27.701-7.312,42.649-7.312
		c43.88,0,82.674,22.14,105.84,55.823L319.513,234.086z M484.939,317.626c3.639,11.878,5.61,24.48,5.61,37.535
		c0,34.778-13.703,67.35-38.586,91.718c-3.695,3.618-4.872,9.093-2.993,13.91l31.226,80.012
		c-26.187,10.22-88.171,34.41-114.373,44.635l-30.241-77.502c-1.934-4.953-6.706-8.212-12.021-8.212c-0.016,0-0.031,0-0.045,0
		l-62.595,0.223c-14.969,0-27.146-12.178-27.146-27.147v-9.963c5.008-1.773,8.602-6.537,8.602-12.152
		c0-5.616-3.594-10.38-8.602-12.153v-70.46h18.574c0.68,4,3.229,7.618,7.169,9.497c1.793,0.855,3.684,1.259,5.545,1.259
		c4.821,0,9.444-2.713,11.656-7.353l5.127-10.752c1.906-3.997,1.627-8.693-0.735-12.439c-2.364-3.745-6.484-6.016-10.913-6.016
		h-35.775c0.85-8.48,2.538-16.716,4.962-24.631h245.554L484.939,317.626L484.939,317.626z M564.63,247.175v-36.423h23.52v36.423
		c0,22.791-17.164,41.646-39.246,44.322C558.735,279.383,564.63,263.954,564.63,247.175z"/>
</g>
<g>
</g>
<g>
</g>
<g>
</g>
<g>
</g>
<g>
</g>
<g>
</g>
<g>
</g>
<g>
</g>
<g>
</g>
<g>
</g>
<g>
</g>
<g>
</g>
<g>
</g>
<g>
</g>
<g>
</g>
</svg>
