<?xml version="1.0" encoding="iso-8859-1"?>
<!-- Generator: Adobe Illustrator 19.0.0, SVG Export Plug-In . SVG Version: 6.00 Build 0)  -->
<svg version="1.1" id="Layer_1" xmlns="http://www.w3.org/2000/svg" xmlns:xlink="http://www.w3.org/1999/xlink" x="0px" y="0px"
	 viewBox="0 0 799.999 799.999" style="enable-background:new 0 0 799.999 799.999;" xml:space="preserve">
<g>
	<rect x="24.807" y="153.838" style="fill:#103B9B;" width="750.387" height="62.215"/>
	<rect x="25.807" y="154.838" style="fill:#103B9B;" width="748.387" height="60.215"/>
	<path style="fill:#103B9B;" d="M24.807,646.16v-62.215h659.064c6.563,0,11.903-5.34,11.903-11.903v-1h27.807v1
		c0,6.563,5.34,11.903,11.903,11.903h39.709v62.215H24.807z"/>
	<path style="fill:#103B9B;" d="M735.484,584.945c-7.128,0-12.903-5.775-12.903-12.903h-25.807c0,7.128-5.775,12.903-12.903,12.903
		H25.807v60.215h748.387v-60.215H735.484z"/>
	<path style="fill:#FFFFFF;" d="M735.484,559.139h38.709v-60.215H25.807v60.215h658.064c7.128,0,12.903,5.775,12.903,12.903h25.807
		C722.581,564.914,728.356,559.139,735.484,559.139z"/>
	<path style="fill:#ED1F34;" d="M24.807,474.117V325.881h91.322c6.563,0,11.903-5.34,11.903-11.903v-1h27.807v1
		c0,6.563,5.34,11.903,11.903,11.903h607.451v148.236H24.807z"/>
	<path style="fill:#ED1F34;" d="M116.129,326.881H25.807v146.236h748.387V326.881H167.742c-7.128,0-12.903-5.775-12.903-12.903
		h-25.807C129.032,321.105,123.257,326.881,116.129,326.881z"/>
	<path style="fill:#FFFFFF;" d="M25.807,240.859v60.215h90.322c7.128,0,12.903,5.775,12.903,12.903h25.807
		c0-7.128,5.775-12.903,12.903-12.903h606.451v-60.215H25.807z"/>
	<path d="M787.097,129.031H12.903C5.775,129.031,0,134.807,0,141.935v516.129c0,7.128,5.775,12.903,12.903,12.903h774.193
		c7.128,0,12.903-5.775,12.903-12.903V141.935C800,134.807,794.225,129.031,787.097,129.031z M774.193,154.838v60.215H25.807
		v-60.215H774.193z M167.742,301.074c-7.128,0-12.903,5.775-12.903,12.903s5.775,12.903,12.903,12.903h606.451v146.236H25.807
		V326.881h90.322c7.128,0,12.903-5.775,12.903-12.903s-5.775-12.903-12.903-12.903H25.807v-60.216h748.387v60.215H167.742z
		 M25.807,645.16v-60.215h658.064c7.128,0,12.903-5.775,12.903-12.903s-5.775-12.903-12.903-12.903H25.807v-60.215h748.387v60.215
		h-38.709c-7.128,0-12.903,5.775-12.903,12.903s5.775,12.903,12.903,12.903h38.709v60.215H25.807z"/>
</g>
<g>
</g>
<g>
</g>
<g>
</g>
<g>
</g>
<g>
</g>
<g>
</g>
<g>
</g>
<g>
</g>
<g>
</g>
<g>
</g>
<g>
</g>
<g>
</g>
<g>
</g>
<g>
</g>
<g>
</g>
</svg>
