<?xml version="1.0" encoding="iso-8859-1"?>
<!-- Generator: Adobe Illustrator 19.0.0, SVG Export Plug-In . SVG Version: 6.00 Build 0)  -->
<svg version="1.1" id="Layer_1" xmlns="http://www.w3.org/2000/svg" xmlns:xlink="http://www.w3.org/1999/xlink" x="0px" y="0px"
	 viewBox="0 0 799.999 799.999" style="enable-background:new 0 0 799.999 799.999;" xml:space="preserve">
<g>
	<path style="fill:#ED1F34;" d="M644.161,314.978v-1c0-6.563-5.34-11.903-11.903-11.903H499.26v-21.646
		c0-6.563-5.34-11.903-11.903-11.903H312.646c-6.563,0-11.903,5.34-11.903,11.903v21.645H24.807V153.838h750.387v148.236h-91.322
		c-6.563,0-11.903,5.34-11.903,11.903v1L644.161,314.978L644.161,314.978z"/>
	<path style="fill:#103B9B;" d="M24.807,646.16V497.924h300.881l0.298,0.334c18.856,21.108,45.833,33.215,74.014,33.215
		s55.158-12.106,74.014-33.215l0.299-0.334h300.881V646.16H24.807z"/>
	<path style="fill:#ED1F34;" d="M400,507.666c-41.604,0-75.451-33.848-75.451-75.452v-33.215H401v108.667H400z"/>
	<rect x="399" y="292.332" style="fill:#ED1F34;" width="76.451" height="108.667"/>
	<path style="fill:#FFFFFF;" d="M25.807,326.881v146.236h282.694c-5.61-12.501-8.759-26.338-8.759-40.903V326.881H25.807z"/>
	<path style="fill:#FFFFFF;" d="M632.258,326.881h-132v105.333c0,14.567-3.148,28.402-8.759,40.903h282.694V326.881h-90.322
		c-7.126,0-12.903-5.777-12.903-12.903h-25.807C645.161,321.103,639.384,326.881,632.258,326.881z"/>
	<path style="fill:#ED1F34;" d="M299.742,301.074v-20.645c0-7.126,5.777-12.903,12.903-12.903h174.711
		c7.126,0,12.903,5.777,12.903,12.903v20.645h131.998c7.126,0,12.903,5.777,12.903,12.903h25.807
		c0-7.126,5.777-12.903,12.903-12.903h90.322V154.838H25.807v146.236H299.742z"/>
	<path style="fill:#103B9B;" d="M474.76,498.924c-18.374,20.569-45.074,33.549-74.76,33.549s-56.386-12.979-74.76-33.549H25.807
		V645.16h748.387V498.924H474.76z"/>
	<path d="M787.097,129.031H12.903C5.777,129.031,0,134.809,0,141.935v516.129c0,7.126,5.777,12.903,12.903,12.903h774.193
		c7.126,0,12.903-5.777,12.903-12.903V141.935C800,134.809,794.223,129.031,787.097,129.031z M774.193,154.838v146.236h-90.322
		c-7.126,0-12.903,5.777-12.903,12.903s5.777,12.903,12.903,12.903h90.322v146.236H491.499c5.61-12.501,8.759-26.338,8.759-40.903
		V326.881h132c7.126,0,12.903-5.777,12.903-12.903s-5.777-12.903-12.903-12.903h-132v-20.646c0-7.126-5.777-12.903-12.903-12.903
		H312.646c-7.126,0-12.903,5.777-12.903,12.903v20.645H25.807V154.838H774.193z M400,506.666c-41.053,0-74.451-33.399-74.451-74.452
		v-32.215V293.332H400h74.451v106.667v32.215C474.451,473.267,441.053,506.666,400,506.666z M308.501,473.117H25.807V326.881
		h273.936v105.333C299.742,446.779,302.889,460.616,308.501,473.117z M25.807,645.16V498.924H325.24
		c18.374,20.569,45.074,33.549,74.76,33.549s56.386-12.979,74.76-33.549h299.434V645.16H25.807z"/>
	<path style="fill:#FFFFFF;" d="M474.451,432.214v-32.215H400v106.667C441.053,506.666,474.451,473.267,474.451,432.214z"/>
	<rect x="325.549" y="293.332" style="fill:#FFFFFF;" width="74.451" height="106.667"/>
	<path style="fill:#ED1F34;" d="M400,399.999h-74.451v32.215c0,41.053,33.398,74.452,74.451,74.452V399.999z"/>
	<rect x="400" y="293.332" style="fill:#ED1F34;" width="74.451" height="106.667"/>
</g>
<g>
</g>
<g>
</g>
<g>
</g>
<g>
</g>
<g>
</g>
<g>
</g>
<g>
</g>
<g>
</g>
<g>
</g>
<g>
</g>
<g>
</g>
<g>
</g>
<g>
</g>
<g>
</g>
<g>
</g>
</svg>
