<?xml version="1.0" encoding="iso-8859-1"?>
<!-- Generator: Adobe Illustrator 19.0.0, SVG Export Plug-In . SVG Version: 6.00 Build 0)  -->
<svg version="1.1" id="Layer_1" xmlns="http://www.w3.org/2000/svg" xmlns:xlink="http://www.w3.org/1999/xlink" x="0px" y="0px"
	 viewBox="0 0 800 800" style="enable-background:new 0 0 800 800;" xml:space="preserve">
<g>
	<path style="fill:#164FCE;" d="M592.549,659.065v-1c0-6.563-5.34-11.903-11.903-11.903H52.217l119.129-79.419h603.847v79.419
		H632.258c-6.563,0-11.903,5.34-11.903,11.903v1H592.549z"/>
	<path style="fill:#164FCE;" d="M361.895,439.711l44.71-29.807c3.319-2.211,5.301-5.913,5.301-9.903c0-3.988-1.981-7.69-5.301-9.903
		l-44.71-29.806h413.299v79.419H361.895z"/>
	<path style="fill:#164FCE;" d="M695.774,246.162v-1c0-6.563-5.34-11.903-11.903-11.903H171.346L52.217,153.84h722.976v79.419
		h-39.709c-6.563,0-11.903,5.34-11.903,11.903v1H695.774z"/>
	<path style="fill:#ED1F34;" d="M24.807,164.176l353.734,235.825L24.807,635.823V164.176z M190.958,464.032
		c1.936,1.259,4.18,1.925,6.489,1.925c2.529,0,4.949-0.786,6.998-2.274c3.962-2.878,5.771-7.989,4.5-12.719l-11.981-44.586
		l35.898-29.027c3.808-3.078,5.35-8.275,3.836-12.933c-1.513-4.659-5.815-7.958-10.707-8.21l-46.104-2.381l-16.511-43.111
		c-1.751-4.572-6.219-7.645-11.117-7.645s-9.365,3.072-11.116,7.645l-16.511,43.111l-46.105,2.381
		c-4.891,0.252-9.193,3.552-10.707,8.21s0.028,9.855,3.835,12.933l35.898,29.026l-11.981,44.585
		c-1.271,4.729,0.537,9.841,4.5,12.718c2.047,1.488,4.467,2.275,6.999,2.275c2.309,0,4.553-0.666,6.488-1.925l38.7-25.175
		L190.958,464.032z"/>
	<polygon style="fill:#FFFFFF;" points="774.193,464.518 326.487,464.518 210.359,541.937 774.193,541.937 	"/>
	<path style="fill:#FFFFFF;" d="M683.871,258.065H210.359l116.128,77.419h447.706v-77.419h-38.709
		c-7.127,0-12.903-5.775-12.903-12.903h-25.807C696.774,252.288,690.997,258.065,683.871,258.065z"/>
	<path style="fill:#164FCE;" d="M632.258,645.162h141.936v-77.419H171.649L55.52,645.162h525.125
		c7.126,0,12.903,5.775,12.903,12.903h25.806C619.354,650.938,625.132,645.162,632.258,645.162z"/>
	<path style="fill:#164FCE;" d="M365.197,361.292l41.962,27.974c3.589,2.393,5.746,6.42,5.746,10.735
		c0,4.314-2.156,8.344-5.746,10.735l-41.962,27.975h408.996v-77.419L365.197,361.292L365.197,361.292z"/>
	<path style="fill:#164FCE;" d="M171.649,232.259h512.222c7.126,0,12.903,5.776,12.903,12.903h25.807
		c0-7.127,5.776-12.903,12.903-12.903h38.709V154.84H55.52L171.649,232.259z"/>
	<path style="fill:#ED1F34;" d="M160.507,544.154c0.016-0.011,0.033-0.021,0.048-0.033L315.35,440.927
		c0.014-0.009,0.027-0.02,0.041-0.027l61.347-40.899l-61.348-40.898c-0.014-0.009-0.027-0.019-0.041-0.028L160.556,255.88
		c-0.016-0.01-0.033-0.021-0.048-0.033L25.807,166.045v467.91L160.507,544.154z M71.026,378.129c-4.157-3.36-5.81-8.936-4.158-14.02
		c1.651-5.084,6.268-8.625,11.606-8.9l45.456-2.348l16.278-42.503c1.912-4.991,6.705-8.287,12.05-8.287
		c5.346,0,10.139,3.296,12.05,8.287l16.279,42.503l45.455,2.348c5.339,0.275,9.955,3.816,11.606,8.9
		c1.652,5.084-0.001,10.66-4.158,14.02l-35.393,28.618l11.813,43.957c1.387,5.161-0.552,10.646-4.877,13.787
		c-2.257,1.64-4.919,2.466-7.585,2.466c-2.445,0-4.891-0.692-7.035-2.087l-38.154-24.821l-38.154,24.819
		c-4.48,2.914-10.295,2.765-14.62-0.379c-4.325-3.142-6.264-8.626-4.877-13.787l11.813-43.957L71.026,378.129z"/>
	<path style="fill:#FFFFFF;" d="M133.521,405.338l-5.248,19.526l16.95-11.023c2.139-1.393,4.587-2.088,7.035-2.088
		s4.896,0.695,7.035,2.088l16.95,11.023l-5.248-19.526c-1.325-4.927,0.38-10.173,4.348-13.382l15.725-12.714l-20.194-1.042
		c-5.096-0.263-9.559-3.506-11.384-8.272l-7.231-18.882l-7.233,18.882c-1.825,4.766-6.288,8.007-11.384,8.272l-20.194,1.042
		l15.725,12.714C133.141,395.165,134.844,400.411,133.521,405.338z"/>
	<path d="M99.484,464.489c4.325,3.144,10.14,3.293,14.62,0.379l38.154-24.819l38.154,24.819c2.144,1.396,4.59,2.087,7.035,2.087
		c2.667,0,5.328-0.824,7.585-2.466c4.325-3.142,6.264-8.626,4.877-13.787l-11.813-43.957l35.393-28.618
		c4.157-3.36,5.81-8.936,4.159-14.02c-1.652-5.083-6.268-8.625-11.606-8.899l-45.455-2.349l-16.279-42.503
		c-1.912-4.991-6.705-8.288-12.05-8.288c-5.346,0-10.139,3.296-12.05,8.288l-16.278,42.503l-45.456,2.349
		c-5.338,0.275-9.955,3.816-11.606,8.899c-1.652,5.084,0.001,10.66,4.158,14.02l35.393,28.618l-11.813,43.957
		C93.22,455.863,95.161,461.348,99.484,464.489z M133.643,378.2c5.096-0.263,9.559-3.506,11.384-8.272l7.232-18.882l7.233,18.882
		c1.825,4.766,6.288,8.007,11.384,8.272l20.194,1.042l-15.725,12.714c-3.967,3.209-5.672,8.455-4.348,13.382l5.248,19.526
		l-16.95-11.023c-2.139-1.393-4.587-2.088-7.035-2.088s-4.896,0.695-7.035,2.088l-16.95,11.023l5.248-19.526
		c1.325-4.927-0.38-10.173-4.348-13.382l-15.725-12.714L133.643,378.2z"/>
	<path d="M787.097,129.033H12.903c-0.005,0-0.01,0-0.016,0c-0.434,0-0.865,0.021-1.295,0.065c-0.153,0.016-0.301,0.046-0.453,0.069
		c-0.261,0.036-0.523,0.067-0.781,0.119c-0.277,0.055-0.547,0.131-0.817,0.205c-0.132,0.036-0.265,0.062-0.396,0.104
		c-0.255,0.077-0.501,0.172-0.749,0.265c-0.146,0.055-0.296,0.102-0.439,0.16c-0.208,0.086-0.406,0.188-0.607,0.284
		c-0.181,0.086-0.363,0.166-0.539,0.26c-0.153,0.083-0.298,0.177-0.447,0.265c-0.215,0.127-0.434,0.25-0.642,0.391
		c-0.104,0.07-0.203,0.149-0.304,0.224c-0.239,0.17-0.477,0.339-0.706,0.526c-0.081,0.067-0.153,0.141-0.232,0.208
		c-0.236,0.205-0.472,0.408-0.693,0.63c-0.143,0.143-0.272,0.297-0.408,0.447c-0.143,0.158-0.294,0.308-0.43,0.473
		c-0.275,0.334-0.532,0.681-0.772,1.041c-0.002,0.003-0.005,0.007-0.009,0.01c-0.027,0.042-0.048,0.086-0.076,0.127
		c-0.205,0.313-0.399,0.633-0.576,0.965c-0.062,0.117-0.114,0.239-0.172,0.358c-0.127,0.258-0.256,0.518-0.366,0.786
		c-0.071,0.172-0.127,0.348-0.191,0.52c-0.079,0.22-0.164,0.437-0.232,0.663c-0.067,0.22-0.117,0.444-0.17,0.666
		c-0.044,0.184-0.096,0.364-0.134,0.552c-0.055,0.275-0.089,0.551-0.125,0.828c-0.019,0.143-0.044,0.281-0.06,0.425
		c-0.035,0.354-0.048,0.71-0.053,1.065C0.009,141.801,0,141.868,0,141.937v0.04c0,0.016,0,0.033,0,0.048v515.95
		c0,0.017,0,0.032,0,0.048v0.04c0,0.068,0.009,0.134,0.01,0.203c0.005,0.354,0.019,0.71,0.053,1.064
		c0.014,0.143,0.042,0.284,0.061,0.425c0.036,0.277,0.072,0.553,0.125,0.827c0.038,0.188,0.089,0.369,0.134,0.555
		c0.055,0.222,0.105,0.445,0.17,0.666c0.067,0.224,0.151,0.441,0.232,0.662c0.064,0.174,0.119,0.349,0.191,0.521
		c0.11,0.268,0.238,0.526,0.367,0.784c0.059,0.118,0.11,0.241,0.172,0.357c0.177,0.332,0.372,0.652,0.576,0.966
		c0.028,0.041,0.048,0.086,0.076,0.127c0.001,0.004,0.005,0.005,0.007,0.009c0.278,0.416,0.585,0.811,0.908,1.19
		c0.1,0.119,0.207,0.228,0.312,0.343c0.224,0.246,0.456,0.481,0.698,0.71c0.134,0.126,0.267,0.25,0.406,0.368
		c0.256,0.221,0.523,0.427,0.796,0.626c0.115,0.085,0.226,0.176,0.342,0.257c0.389,0.265,0.792,0.508,1.208,0.729
		c0.102,0.054,0.205,0.098,0.308,0.147c0.334,0.167,0.675,0.322,1.024,0.46c0.132,0.052,0.267,0.1,0.401,0.146
		c0.33,0.116,0.666,0.222,1.008,0.313c0.137,0.036,0.273,0.074,0.411,0.106c0.351,0.081,0.707,0.144,1.068,0.194
		c0.129,0.02,0.258,0.045,0.387,0.061c0.444,0.05,0.895,0.078,1.352,0.081c0.036,0,0.072,0.007,0.11,0.007
		c0.009,0,0.016-0.002,0.024-0.002h567.706c7.126,0,12.903-5.775,12.903-12.903c0-7.127-5.777-12.903-12.903-12.903H55.52
		l116.129-77.419h602.544v77.419H632.258c-7.126,0-12.903,5.776-12.903,12.903c0,7.128,5.777,12.903,12.903,12.903h154.839
		c7.126,0,12.903-5.775,12.903-12.903V141.935C800,134.809,794.223,129.033,787.097,129.033z M774.193,232.259h-38.709
		c-7.127,0-12.903,5.776-12.903,12.903c0,7.128,5.776,12.903,12.903,12.903h38.709v77.419H326.487l-116.128-77.419h473.512
		c7.126,0,12.903-5.775,12.903-12.903c0-7.127-5.777-12.903-12.903-12.903H171.649L55.52,154.84h718.673V232.259z M365.197,438.711
		l41.962-27.975c3.589-2.394,5.746-6.421,5.746-10.735c0-4.315-2.156-8.344-5.746-10.735l-41.962-27.974h408.996v77.419
		L365.197,438.711L365.197,438.711z M25.807,166.045l134.701,89.801c0.016,0.01,0.033,0.021,0.048,0.033L315.35,359.074
		c0.014,0.008,0.027,0.019,0.041,0.027l61.348,40.898l-61.348,40.898c-0.014,0.009-0.027,0.019-0.041,0.027L160.556,544.12
		c-0.016,0.01-0.033,0.021-0.048,0.032L25.807,633.955V166.045z M326.487,464.518h447.706v77.419H210.359L326.487,464.518z"/>
</g>
<g>
</g>
<g>
</g>
<g>
</g>
<g>
</g>
<g>
</g>
<g>
</g>
<g>
</g>
<g>
</g>
<g>
</g>
<g>
</g>
<g>
</g>
<g>
</g>
<g>
</g>
<g>
</g>
<g>
</g>
</svg>
