<?xml version="1.0" encoding="utf-8"?>
<!-- Generator: Adobe Illustrator 16.0.0, SVG Export Plug-In . SVG Version: 6.00 Build 0)  -->
<!DOCTYPE svg PUBLIC "-//W3C//DTD SVG 1.1//EN" "http://www.w3.org/Graphics/SVG/1.1/DTD/svg11.dtd">
<svg version="1.1" id="Capa_1" xmlns="http://www.w3.org/2000/svg" xmlns:xlink="http://www.w3.org/1999/xlink" x="0px" y="0px"
	 width="800px" height="800px" viewBox="0 0 800 800" enable-background="new 0 0 800 800" xml:space="preserve">
<g>
	<rect x="24.807" y="546.957" fill="#164FCE" width="750.387" height="99.204"/>
	<path fill="#164FCE" d="M24.807,487.021V153.839h750.387v40.36c0,6.563,5.34,11.903,11.903,11.903h1v27.806h-1
		c-6.563,0-11.903,5.34-11.903,11.903v241.21H24.807z M300.253,254.651c-4.897,0-9.365,3.072-11.116,7.645l-16.512,43.113
		l-46.105,2.381c-4.891,0.254-9.193,3.554-10.707,8.21c-1.514,4.656,0.028,9.854,3.836,12.934l35.9,29.026l-11.981,44.584
		c-1.272,4.728,0.537,9.839,4.5,12.719c2.045,1.486,4.464,2.272,6.996,2.272c2.31,0,4.554-0.666,6.492-1.926l38.697-25.171
		l38.7,25.172c1.936,1.258,4.18,1.924,6.489,1.924c2.531,0,4.951-0.786,6.998-2.273c3.964-2.879,5.771-7.989,4.499-12.719
		l-11.981-44.584l35.898-29.026c3.809-3.08,5.35-8.277,3.836-12.933c-1.513-4.656-5.815-7.955-10.706-8.209l-46.104-2.381
		l-16.513-43.112C309.618,257.724,305.15,254.651,300.253,254.651z M167.749,328.891c1.937,1.259,4.182,1.925,6.491,1.925
		c2.529,0,4.949-0.786,6.996-2.273c3.963-2.878,5.771-7.989,4.5-12.718l-8.525-31.724l25.544-20.651
		c3.808-3.08,5.349-8.278,3.834-12.937c-1.513-4.656-5.816-7.955-10.707-8.209l-32.803-1.694l-11.748-30.675
		c-1.751-4.572-6.219-7.645-11.116-7.645c-4.896,0-9.365,3.073-11.12,7.647l-11.747,30.675l-32.803,1.693
		c-4.891,0.252-9.193,3.551-10.707,8.208c-1.513,4.657,0.029,9.855,3.836,12.935l25.543,20.651l-8.524,31.724
		c-1.272,4.727,0.536,9.838,4.499,12.718c2.047,1.486,4.466,2.272,6.997,2.271c2.31,0,4.555-0.666,6.491-1.924l27.535-17.912
		L167.749,328.891z"/>
	<rect x="24.807" y="485.021" fill="#FFE000" width="750.387" height="63.936"/>
	<rect x="25.807" y="547.957" fill="#164FCE" width="748.387" height="97.204"/>
	<path fill="#164FCE" d="M774.193,194.199v-39.36H25.807v331.183h748.387v-240.21c0-7.126,5.775-12.903,12.903-12.903v-25.806
		C779.969,207.102,774.193,201.327,774.193,194.199z M203.382,264.227l-25.038,20.243l8.356,31.095
		c1.388,5.161-0.552,10.646-4.877,13.787c-2.257,1.64-4.917,2.464-7.583,2.464c-2.445,0-4.893-0.693-7.037-2.087l-26.989-17.557
		l-26.99,17.557c-4.482,2.913-10.295,2.763-14.621-0.377c-4.325-3.143-6.266-8.626-4.877-13.787l8.356-31.095l-25.038-20.243
		c-4.156-3.362-5.81-8.938-4.158-14.021c1.652-5.084,6.268-8.623,11.606-8.898l32.153-1.66l11.515-30.068
		c1.915-4.992,6.708-8.289,12.053-8.289c5.346,0,10.139,3.296,12.05,8.287l11.515,30.068l32.153,1.66
		c5.34,0.277,9.954,3.816,11.606,8.898C209.192,255.29,207.539,260.865,203.382,264.227z M381.484,329.71l-35.393,28.618
		l11.813,43.956c1.389,5.161-0.552,10.646-4.877,13.787c-4.327,3.144-10.141,3.291-14.62,0.379l-38.154-24.817l-38.152,24.817
		c-2.144,1.394-4.592,2.087-7.037,2.087c-2.667,0-5.328-0.824-7.583-2.464c-4.325-3.143-6.266-8.626-4.877-13.787l11.813-43.956
		l-35.395-28.618c-4.157-3.362-5.81-8.938-4.158-14.02c1.652-5.083,6.268-8.623,11.606-8.9l45.456-2.348l16.279-42.505
		c1.911-4.991,6.703-8.288,12.05-8.288c5.347,0,10.139,3.297,12.05,8.288l16.28,42.505l45.454,2.348
		c5.34,0.277,9.954,3.816,11.605,8.898C387.295,320.772,385.642,326.349,381.484,329.71z"/>
	<rect x="25.807" y="486.021" fill="#FFE000" width="748.387" height="61.936"/>
	<path fill="#FFFFFF" d="M307.487,321.511l-7.232-18.884l-7.231,18.884c-1.825,4.766-6.286,8.007-11.384,8.271l-20.193,1.043
		l15.725,12.714c3.969,3.208,5.672,8.454,4.347,13.381l-5.247,19.527l16.948-11.024c2.139-1.392,4.589-2.087,7.036-2.087
		c2.448,0,4.896,0.695,7.037,2.087l16.951,11.026l-5.249-19.529c-1.324-4.927,0.38-10.175,4.348-13.381l15.723-12.714l-20.19-1.043
		C313.773,329.518,309.311,326.276,307.487,321.511z"/>
	<path d="M374.037,306.791l-45.454-2.348l-16.28-42.505c-1.911-4.991-6.703-8.288-12.05-8.288c-5.347,0-10.139,3.296-12.05,8.288
		l-16.279,42.505l-45.456,2.348c-5.34,0.277-9.954,3.816-11.606,8.9s0.001,10.66,4.158,14.02l35.395,28.618l-11.813,43.956
		c-1.388,5.161,0.552,10.646,4.877,13.787c2.257,1.64,4.917,2.464,7.583,2.464c2.445,0,4.893-0.693,7.037-2.087l38.152-24.817
		l38.154,24.817c4.479,2.912,10.293,2.765,14.62-0.379c4.325-3.141,6.266-8.624,4.877-13.787l-11.813-43.955l35.393-28.618
		c4.157-3.362,5.811-8.938,4.158-14.021C383.991,310.606,379.377,307.066,374.037,306.791z M323.34,343.537
		c-3.97,3.208-5.673,8.454-4.348,13.382l5.249,19.528l-16.952-11.026c-2.14-1.392-4.588-2.087-7.036-2.087s-4.898,0.695-7.037,2.087
		l-16.948,11.025l5.247-19.527c1.325-4.928-0.38-10.175-4.348-13.382l-15.725-12.714l20.193-1.042
		c5.098-0.263,9.561-3.506,11.384-8.272l7.23-18.883l7.233,18.883c1.825,4.766,6.286,8.007,11.384,8.272l20.19,1.042L323.34,343.537
		z"/>
	<path fill="#FFFFFF" d="M147.251,285.963l5.784,3.765l-1.791-6.667c-1.325-4.927,0.38-10.174,4.348-13.381l5.366-4.339
		l-6.892-0.356c-5.098-0.264-9.561-3.506-11.384-8.272l-2.469-6.445l-2.469,6.445c-1.826,4.766-6.287,8.007-11.384,8.272
		l-6.892,0.356l5.366,4.339c3.969,3.208,5.672,8.454,4.348,13.381l-1.791,6.667l5.784-3.765c2.138-1.392,4.588-2.087,7.036-2.087
		C142.66,283.876,145.113,284.573,147.251,285.963z"/>
	<path d="M195.935,241.306l-32.153-1.66l-11.515-30.068c-1.913-4.991-6.706-8.287-12.052-8.287c-5.345,0-10.138,3.296-12.05,8.287
		l-11.515,30.068l-32.153,1.66c-5.34,0.277-9.954,3.816-11.606,8.898c-1.651,5.083,0.002,10.66,4.158,14.021l25.038,20.242
		l-8.356,31.095c-1.389,5.161,0.552,10.646,4.877,13.788s10.138,3.291,14.62,0.377l26.986-17.556l26.99,17.557
		c2.144,1.394,4.592,2.087,7.037,2.087c2.667,0,5.328-0.824,7.583-2.464c4.325-3.143,6.266-8.626,4.877-13.787l-8.356-31.095
		l25.038-20.243c4.156-3.362,5.81-8.938,4.158-14.021C205.889,245.122,201.273,241.583,195.935,241.306z M127.395,289.728
		l1.791-6.667c1.325-4.927-0.38-10.174-4.348-13.381l-5.366-4.339l6.892-0.356c5.098-0.264,9.561-3.506,11.384-8.272l2.469-6.445
		l2.469,6.445c1.825,4.766,6.287,8.007,11.384,8.272l6.892,0.356l-5.366,4.339c-3.969,3.208-5.672,8.454-4.348,13.381l1.791,6.667
		l-5.784-3.765c-2.138-1.392-4.588-2.087-7.037-2.087c-2.448,0-4.898,0.695-7.037,2.087L127.395,289.728z"/>
	<path d="M774.193,245.812v240.21v61.936v97.204H25.807v-97.204v-61.936V154.839h748.387v39.36c0,7.126,5.775,12.903,12.903,12.903
		S800,201.325,800,194.199v-52.263c0-7.126-5.775-12.903-12.903-12.903H12.903C5.775,129.032,0,134.81,0,141.936v516.129
		c0,7.126,5.775,12.903,12.903,12.903h774.193c7.128,0,12.903-5.777,12.903-12.903V245.812c0-7.126-5.775-12.903-12.903-12.903
		S774.193,238.686,774.193,245.812z"/>
</g>
</svg>
