<?xml version="1.0" encoding="utf-8"?>
<!-- Generator: Adobe Illustrator 16.0.0, SVG Export Plug-In . SVG Version: 6.00 Build 0)  -->
<!DOCTYPE svg PUBLIC "-//W3C//DTD SVG 1.1//EN" "http://www.w3.org/Graphics/SVG/1.1/DTD/svg11.dtd">
<svg version="1.1" id="Capa_1" xmlns="http://www.w3.org/2000/svg" xmlns:xlink="http://www.w3.org/1999/xlink" x="0px" y="0px"
	 width="800px" height="800px" viewBox="0 0 800 800" enable-background="new 0 0 800 800" xml:space="preserve">
<g>
	<path fill="#FFFFFF" d="M735.484,645.161h38.709V154.839H25.807v490.322h658.064c7.126,0,12.903,5.777,12.903,12.903h25.807
		C722.581,650.938,728.357,645.161,735.484,645.161z M596.554,462.364c2.168,6.788-1.577,14.051-8.364,16.218
		c-11.6,3.704-23.417,6.724-35.183,9.059c-4.354,3.691-8.801,7.267-13.327,10.733c3.866,1.856,6.726,5.583,7.248,10.157
		c0.813,7.08-4.27,13.477-11.351,14.288c-12.028,1.379-24.148,2.08-36.092,2.12c-4.91,2.773-9.894,5.414-14.937,7.945
		c3.447,2.551,5.557,6.756,5.208,11.35c-0.517,6.771-6.171,11.924-12.854,11.924c-0.329,0-0.659-0.012-0.993-0.038
		c-12.029-0.917-24.027-2.521-35.745-4.714c-6.891,2.323-13.856,4.44-20.897,6.323l12.665,23.628
		c3.367,6.281,1.003,14.103-5.276,17.47c-1.94,1.039-4.027,1.532-6.085,1.532c-4.603,0-9.057-2.469-11.384-6.81L400,576.409
		l-9.188,17.14c-2.327,4.34-6.779,6.809-11.384,6.809c-2.058,0-4.145-0.493-6.085-1.532c-6.279-3.367-8.642-11.188-5.276-17.47
		l12.665-23.628c-7.041-1.883-14.007-4-20.897-6.322c-11.718,2.191-23.716,3.798-35.745,4.714c-0.334,0.025-0.664,0.037-0.993,0.037
		c-6.682,0-12.337-5.152-12.854-11.924c-0.349-4.594,1.761-8.797,5.208-11.35c-5.041-2.531-10.026-5.172-14.937-7.945
		c-11.942-0.039-24.062-0.741-36.091-2.119c-7.08-0.811-12.162-7.207-11.352-14.288c0.523-4.573,3.382-8.303,7.245-10.159
		c-4.526-3.467-8.97-7.042-13.323-10.732c-11.766-2.335-23.584-5.354-35.183-9.058c-6.787-2.168-10.534-9.43-8.365-16.219
		c1.387-4.341,4.86-7.427,8.957-8.528c-2.789-3.142-5.526-6.333-8.199-9.581c-4.528-5.502-3.74-13.635,1.762-18.162
		c5.502-4.53,13.634-3.74,18.163,1.762c2.245,2.727,4.547,5.401,6.878,8.048c1.488-4.031,4.945-7.234,9.462-8.176
		c6.978-1.455,13.812,3.02,15.267,9.996c2.116,10.144,4.873,20.344,8.141,30.388c3.684,3.119,7.436,6.154,11.253,9.102
		c0.716-4.236,3.518-8.024,7.782-9.788c6.585-2.725,14.131,0.406,16.854,6.992c3.928,9.495,8.49,18.921,13.528,28.095
		c4.181,2.36,8.414,4.628,12.698,6.797c-0.095-4.296,1.944-8.544,5.798-11.078c5.954-3.913,13.956-2.262,17.87,3.692
		c5.669,8.623,11.957,17.043,18.67,25.115c10.374,3.487,20.944,6.439,31.67,8.834c10.725-2.395,21.295-5.347,31.668-8.834
		c6.715-8.076,13.003-16.497,18.67-25.117c3.914-5.954,11.918-7.605,17.87-3.691c3.855,2.535,5.895,6.781,5.798,11.077
		c4.284-2.169,8.518-4.438,12.698-6.797c5.039-9.177,9.603-18.604,13.528-28.095c2.725-6.588,10.271-9.715,16.854-6.992
		c4.264,1.764,7.064,5.552,7.782,9.788c3.819-2.945,7.569-5.982,11.253-9.102c3.269-10.042,6.023-20.242,8.142-30.388
		c1.455-6.977,8.29-11.458,15.267-9.996c4.518,0.941,7.973,4.145,9.462,8.176c2.333-2.646,4.634-5.319,6.879-8.048
		c4.528-5.5,12.66-6.292,18.162-1.762c5.502,4.528,6.29,12.66,1.762,18.162c-2.673,3.248-5.41,6.439-8.199,9.579
		C591.693,454.937,595.167,458.021,596.554,462.364z M577.33,282.02l-63.811,17.044l8.567,32.079
		c5.215,19.522-6.424,39.644-25.946,44.86c-3.093,0.826-6.275,1.246-9.457,1.246c-4.129,0-8.154-0.695-11.936-2.002
		c-13.127,44.769-54.76,77.302-103.076,77.302c-58.565,0-106.736-47.646-107.377-106.211c-0.052-4.704,2.462-9.065,6.56-11.377
		c4.096-2.311,9.128-2.212,13.13,0.263c6.863,4.244,14.773,6.488,22.879,6.488c24.034,0,43.589-19.555,43.589-43.589
		c0-5.442-0.988-10.742-2.936-15.756c-1.328-3.418-1.139-7.241,0.52-10.512c1.66-3.271,4.633-5.681,8.176-6.627l48.626-12.993
		c4.047-1.08,6.896-1.842,9.03-2.317l-0.023-0.087l144.571-38.617c3.098-0.828,6.284-1.248,9.471-1.248
		c16.559,0,31.11,11.183,35.388,27.193C608.49,256.681,596.852,276.805,577.33,282.02z"/>
	<path d="M787.097,129.032H12.903C5.777,129.032,0,134.81,0,141.936v516.129c0,7.126,5.777,12.903,12.903,12.903h670.968
		c7.126,0,12.903-5.777,12.903-12.903s-5.777-12.903-12.903-12.903H25.807V154.839h748.387v490.322h-38.709
		c-7.127,0-12.903,5.777-12.903,12.903s5.776,12.903,12.903,12.903h51.612c7.126,0,12.903-5.777,12.903-12.903V141.936
		C800,134.81,794.223,129.032,787.097,129.032z"/>
	<path fill="#134923" d="M594.035,426.092c-5.502-4.529-13.635-3.738-18.162,1.762c-2.245,2.728-4.548,5.402-6.879,8.049
		c-1.488-4.031-4.944-7.234-9.462-8.176c-6.975-1.463-13.812,3.02-15.268,9.995c-2.116,10.145-4.872,20.345-8.141,30.389
		c-3.684,3.119-7.436,6.153-11.253,9.101c-0.716-4.235-3.519-8.023-7.782-9.787c-6.586-2.724-14.13,0.404-16.854,6.991
		c-3.927,9.492-8.489,18.917-13.528,28.095c-4.181,2.36-8.414,4.628-12.698,6.798c0.095-4.296-1.944-8.544-5.798-11.078
		c-5.953-3.914-13.956-2.262-17.87,3.692c-5.667,8.619-11.955,17.039-18.67,25.116c-10.373,3.485-20.943,6.439-31.668,8.835
		c-10.726-2.396-21.296-5.348-31.67-8.835c-6.713-8.072-13-16.492-18.67-25.114c-3.914-5.955-11.916-7.606-17.87-3.692
		c-3.855,2.536-5.895,6.782-5.798,11.078c-4.284-2.17-8.518-4.439-12.698-6.798c-5.038-9.173-9.601-18.6-13.528-28.095
		c-2.723-6.586-10.271-9.717-16.855-6.991c-4.263,1.763-7.064,5.552-7.781,9.787c-3.819-2.945-7.57-5.981-11.253-9.101
		c-3.269-10.043-6.023-20.243-8.141-30.389c-1.456-6.977-8.287-11.451-15.267-9.995c-4.518,0.94-7.973,4.145-9.462,8.175
		c-2.333-2.646-4.633-5.319-6.878-8.048c-4.528-5.502-12.661-6.292-18.163-1.762c-5.502,4.528-6.29,12.661-1.762,18.163
		c2.674,3.248,5.411,6.439,8.2,9.581c-4.096,1.101-7.57,4.188-8.957,8.527c-2.167,6.789,1.578,14.051,8.365,16.219
		c11.599,3.704,23.417,6.724,35.183,9.059c4.353,3.689,8.797,7.265,13.323,10.731c-3.862,1.856-6.722,5.588-7.245,10.159
		c-0.812,7.08,4.27,13.477,11.351,14.288c12.028,1.378,24.148,2.08,36.092,2.12c4.91,2.773,9.894,5.414,14.937,7.944
		c-3.448,2.552-5.557,6.757-5.208,11.35c0.517,6.773,6.171,11.925,12.854,11.925c0.328,0,0.659-0.012,0.992-0.038
		c12.029-0.917,24.028-2.522,35.746-4.714c6.89,2.322,13.856,4.44,20.897,6.322l-12.665,23.629
		c-3.367,6.281-1.004,14.103,5.276,17.469c1.94,1.039,4.027,1.533,6.085,1.533c4.603,0,9.057-2.469,11.384-6.81l9.188-17.141
		l9.187,17.141c2.328,4.341,6.78,6.81,11.385,6.81c2.058,0,4.145-0.494,6.085-1.533c6.279-3.366,8.642-11.188,5.276-17.469
		l-12.666-23.629c7.042-1.882,14.008-4,20.898-6.322c11.718,2.191,23.716,3.799,35.745,4.714c0.334,0.026,0.664,0.038,0.993,0.038
		c6.682,0,12.337-5.152,12.854-11.925c0.349-4.593-1.761-8.796-5.208-11.35c5.041-2.53,10.026-5.171,14.937-7.944
		c11.941-0.04,24.063-0.742,36.091-2.12c7.08-0.811,12.162-7.207,11.352-14.288c-0.522-4.574-3.384-8.301-7.248-10.157
		c4.528-3.467,8.974-7.043,13.326-10.733c11.767-2.335,23.584-5.354,35.184-9.059c6.787-2.168,10.534-9.43,8.364-16.219
		c-1.387-4.34-4.858-7.427-8.956-8.529c2.788-3.142,5.523-6.331,8.199-9.579C600.325,438.751,599.535,430.62,594.035,426.092z"/>
	<path fill="#F2A643" d="M371.675,427.742c-37.318,0-70.134-25.246-79.801-61.394l-0.419-1.565l1.587,0.327
		c4.529,0.934,9.18,1.407,13.823,1.407c37.713,0,68.396-30.682,68.396-68.395c0-3.737-0.303-7.483-0.902-11.133l-0.146-0.894
		l190.608-50.914c1.011-0.27,2.044-0.407,3.069-0.407c5.342,0,10.04,3.614,11.424,8.789c0.815,3.052,0.394,6.241-1.188,8.98
		c-1.583,2.737-4.137,4.694-7.192,5.51l-76.277,20.375c-3.071,0.82-5.641,2.788-7.232,5.541s-2.017,5.96-1.196,9.032l11.898,44.545
		c1.684,6.307-2.077,12.807-8.382,14.491c-0.999,0.269-2.027,0.405-3.055,0.405c-4.306,0-8.272-2.355-10.352-6.146
		c-2.089-3.812-6.087-6.179-10.436-6.179c-0.85,0-1.704,0.092-2.539,0.273c-5.119,1.117-8.957,5.548-9.334,10.775
		C450.937,394.105,414.763,427.742,371.675,427.742z"/>
	<path fill="#F2A643" d="M567.889,235.774c-0.939,0-1.886,0.126-2.812,0.374l-144.571,38.617
		c-1.082,0.288-28.542,7.623-45.161,12.063c0.608,3.711,0.915,7.484,0.915,11.295c0,38.264-31.131,69.395-69.396,69.395
		c-4.738,0-9.435-0.481-14.025-1.428c9.315,34.83,41.258,60.652,78.835,60.652c42.565,0,78.302-33.228,81.355-75.649
		c0.411-5.705,4.528-10.46,10.118-11.68c5.592-1.216,11.315,1.385,14.064,6.402c1.904,3.472,5.534,5.627,9.475,5.627
		c0.934,0,1.875-0.124,2.797-0.372c5.772-1.542,9.215-7.492,7.674-13.266l-11.898-44.545c-1.84-6.885,2.252-13.958,9.137-15.797
		l76.277-20.375c2.795-0.747,5.135-2.538,6.584-5.044c1.448-2.507,1.836-5.426,1.089-8.222
		C577.079,239.083,572.779,235.774,567.889,235.774z"/>
	<path d="M567.889,209.968c-3.188,0-6.375,0.419-9.472,1.247l-144.571,38.617l0.024,0.088c-2.134,0.475-4.984,1.237-9.03,2.317
		l-48.627,12.993c-3.544,0.946-6.517,3.357-8.175,6.627c-1.659,3.271-1.848,7.093-0.52,10.512
		c1.947,5.013,2.935,10.314,2.935,15.756c0,24.034-19.554,43.588-43.589,43.588c-8.103,0-16.015-2.243-22.878-6.488
		c-4.002-2.476-9.034-2.574-13.13-0.263c-4.098,2.314-6.612,6.674-6.56,11.377c0.642,58.564,48.813,106.211,107.377,106.211
		c48.316,0,89.949-32.531,103.076-77.303c3.783,1.306,7.81,2.003,11.937,2.003c3.181,0,6.364-0.418,9.457-1.246
		c19.521-5.215,31.16-25.339,25.946-44.86l-8.568-32.079l63.812-17.044c19.521-5.215,31.16-25.338,25.945-44.858
		C598.999,221.149,584.447,209.968,567.889,209.968z M577.254,252.043c-1.448,2.507-3.788,4.298-6.584,5.044l-76.276,20.375
		c-6.886,1.839-10.976,8.912-9.138,15.797l11.898,44.545c1.542,5.774-1.899,11.725-7.673,13.266
		c-0.923,0.248-1.863,0.372-2.798,0.372c-3.941,0-7.569-2.155-9.475-5.627c-2.75-5.017-8.475-7.618-14.064-6.401
		c-5.589,1.22-9.706,5.975-10.117,11.68c-3.054,42.419-38.791,75.649-81.355,75.649c-37.578,0-69.521-25.822-78.836-60.652
		c4.59,0.946,9.287,1.428,14.025,1.428c38.264,0,69.395-31.131,69.395-69.396c0-3.811-0.306-7.583-0.915-11.294
		c16.621-4.44,44.079-11.776,45.161-12.064l144.571-38.617c0.928-0.248,1.872-0.373,2.812-0.373c4.892,0,9.19,3.308,10.455,8.046
		C579.092,246.619,578.704,249.538,577.254,252.043z"/>
</g>
</svg>
