<?xml version="1.0" encoding="utf-8"?>
<!-- Generator: Adobe Illustrator 16.0.0, SVG Export Plug-In . SVG Version: 6.00 Build 0)  -->
<!DOCTYPE svg PUBLIC "-//W3C//DTD SVG 1.1//EN" "http://www.w3.org/Graphics/SVG/1.1/DTD/svg11.dtd">
<svg version="1.1" id="Capa_1" xmlns="http://www.w3.org/2000/svg" xmlns:xlink="http://www.w3.org/1999/xlink" x="0px" y="0px"
	 width="800px" height="800px" viewBox="0 0 800 800" enable-background="new 0 0 800 800" xml:space="preserve">
<g>
	<path fill="#3DB4EA" d="M24.807,153.837h639.67l0.445,1.896L24.807,473.806V153.837z M147.955,187.981
		c-4.897,0-9.364,3.072-11.116,7.645l-16.511,43.113l-46.103,2.379c-4.89,0.252-9.193,3.552-10.707,8.21
		c-1.514,4.658,0.028,9.855,3.836,12.933l35.898,29.027l-11.981,44.585c-1.271,4.73,0.538,9.842,4.5,12.719
		c2.045,1.488,4.465,2.274,6.998,2.274c2.31,0,4.554-0.666,6.49-1.925l38.699-25.172l38.699,25.172
		c1.937,1.259,4.18,1.924,6.489,1.924c2.531,0,4.951-0.786,6.998-2.273c3.962-2.878,5.771-7.989,4.5-12.719l-11.981-44.585
		l35.899-29.026c3.808-3.078,5.349-8.276,3.836-12.934c-1.514-4.659-5.817-7.958-10.71-8.21l-46.104-2.379l-16.511-43.113
		C157.32,191.054,152.853,187.981,147.955,187.981z"/>
	<polygon fill="#3DB4EA" points="135.523,646.159 135.079,644.264 775.193,326.19 775.193,646.159 	"/>
	<path fill="#FFE000" d="M154.446,299.593c-1.935-1.26-4.178-1.925-6.489-1.925s-4.555,0.666-6.489,1.925l-19.138,12.448
		l5.924-22.049c1.221-4.542-0.353-9.387-4.011-12.345l-17.753-14.354l22.798-1.177c4.697-0.243,8.819-3.238,10.501-7.63
		l8.167-21.322l8.167,21.321c1.682,4.392,5.805,7.387,10.502,7.631l22.798,1.177l-17.753,14.354
		c-3.657,2.958-5.231,7.803-4.01,12.344l5.924,22.05L154.446,299.593z"/>
	<path fill="#ED1F34" d="M24.807,534.016l750.387-372.875v104.84l-77.485,38.506c-5.877,2.921-8.282,10.08-5.363,15.957l0.445,0.896
		l-24.902,12.37l-0.444-0.896c-2.024-4.076-6.112-6.608-10.669-6.608c-1.844,0-3.623,0.419-5.288,1.246L24.807,638.855V534.016z"/>
	<path fill="#FFE000" d="M67.868,646.159l-0.445-1.896l594.659-295.492c5.877-2.922,8.283-10.081,5.363-15.958L667,331.917
		l24.899-12.374l0.445,0.896c2.026,4.077,6.115,6.61,10.67,6.61c1.841,0,3.62-0.419,5.288-1.247l66.891-33.239v35.859
		L135.758,646.159H67.868z"/>
	<polygon fill="#FFE000" points="24.807,471.572 664.242,153.837 732.133,153.837 732.578,155.732 24.807,507.432 	"/>
	<path fill="#3DB4EA" d="M664.477,154.837H25.807v317.355L664.477,154.837z M233.347,249.02c1.651,5.084-0.002,10.66-4.158,14.02
		l-35.393,28.618l11.813,43.957c1.387,5.161-0.552,10.646-4.877,13.788c-4.323,3.141-10.137,3.293-14.62,0.378l-38.154-24.817
		l-38.154,24.817c-2.144,1.395-4.59,2.087-7.035,2.087c-2.667,0-5.33-0.824-7.585-2.465c-4.325-3.142-6.264-8.626-4.877-13.788
		l11.813-43.957L66.725,263.04c-4.157-3.36-5.81-8.936-4.158-14.02c1.652-5.083,6.268-8.625,11.606-8.9l45.454-2.346l16.279-42.505
		c1.912-4.991,6.705-8.287,12.05-8.287c5.346,0,10.139,3.296,12.05,8.287l16.278,42.505l45.454,2.346
		C227.08,240.396,231.695,243.937,233.347,249.02z"/>
	<polygon fill="#3DB4EA" points="774.193,327.804 774.193,645.159 135.523,645.159 	"/>
	<path fill="#FFE000" d="M171.042,276.869c-3.967,3.208-5.672,8.455-4.347,13.382l5.247,19.528l-16.95-11.024
		c-2.138-1.392-4.588-2.087-7.035-2.087s-4.896,0.695-7.035,2.087l-16.95,11.024l5.247-19.528c1.325-4.927-0.38-10.173-4.348-13.382
		l-15.723-12.712l20.191-1.042c5.096-0.263,9.559-3.506,11.384-8.271l7.233-18.883l7.232,18.883
		c1.826,4.766,6.289,8.007,11.384,8.272l20.191,1.042L171.042,276.869z"/>
	<path d="M233.347,249.02c-1.652-5.083-6.268-8.625-11.606-8.899l-45.454-2.347l-16.28-42.505c-1.911-4.991-6.705-8.287-12.05-8.287
		s-10.139,3.296-12.05,8.287l-16.279,42.505l-45.454,2.347c-5.339,0.275-9.955,3.816-11.606,8.899
		c-1.652,5.084,0.001,10.66,4.158,14.02l35.393,28.618l-11.813,43.957c-1.387,5.161,0.552,10.646,4.877,13.788
		c2.255,1.639,4.918,2.465,7.585,2.465c2.445,0,4.891-0.692,7.035-2.087l38.152-24.817l38.154,24.817
		c4.482,2.915,10.295,2.763,14.621-0.378c4.325-3.142,6.264-8.626,4.877-13.788l-11.813-43.957l35.393-28.618
		C233.345,259.68,234.999,254.104,233.347,249.02z M166.574,263.114l20.191,1.042l-15.723,12.712
		c-3.967,3.208-5.672,8.455-4.347,13.382l5.247,19.528l-16.95-11.024c-2.138-1.392-4.588-2.087-7.035-2.087
		s-4.896,0.695-7.035,2.087l-16.95,11.024l5.247-19.528c1.325-4.927-0.38-10.173-4.348-13.382l-15.723-12.712l20.191-1.042
		c5.096-0.263,9.559-3.506,11.384-8.271l7.233-18.883l7.232,18.883C157.015,259.606,161.476,262.849,166.574,263.114z"/>
	<path fill="#ED1F34" d="M668.339,332.368c-3.169-6.381-10.911-8.982-17.297-5.813L25.807,637.242V534.636l748.387-371.881v102.606
		l-76.931,38.23c-6.381,3.172-8.984,10.914-5.813,17.297L668.339,332.368L668.339,332.368z"/>
	<path fill="#FFE000" d="M67.868,645.159l594.66-295.492c6.381-3.172,8.984-10.916,5.813-17.299l23.108-11.484v0.002
		c2.256,4.537,6.82,7.164,11.565,7.164c1.928,0,3.886-0.435,5.732-1.351l65.446-32.521v33.625l-638.67,317.355H67.868z"/>
	<polygon fill="#FFE000" points="732.133,154.837 25.807,505.818 25.807,472.192 664.477,154.837 	"/>
	<path d="M0.905,662.787c0.1,0.253,0.21,0.502,0.327,0.748c0.041,0.092,0.074,0.181,0.117,0.271
		c0.021,0.039,0.048,0.076,0.069,0.115c0.255,0.497,0.534,0.979,0.847,1.437c0.055,0.079,0.115,0.151,0.172,0.229
		c0.258,0.36,0.535,0.702,0.828,1.032c0.112,0.126,0.222,0.252,0.337,0.372c0.351,0.366,0.717,0.718,1.109,1.039
		c0.069,0.057,0.145,0.104,0.213,0.16c0.351,0.276,0.717,0.535,1.096,0.774c0.122,0.077,0.246,0.151,0.372,0.225
		c0.415,0.244,0.841,0.467,1.283,0.664c0.04,0.018,0.078,0.038,0.117,0.056c0.492,0.213,1.003,0.392,1.524,0.542
		c0.108,0.03,0.217,0.053,0.325,0.082c0.406,0.108,0.821,0.193,1.241,0.258c0.148,0.024,0.294,0.051,0.444,0.069
		c0.471,0.057,0.95,0.093,1.435,0.1c0.052,0,0.104,0.011,0.155,0.011c0.019,0,0.04-0.004,0.059-0.004h774.123
		c7.126,0,12.903-5.775,12.903-12.903V141.934c0-0.103-0.014-0.201-0.016-0.304c-0.007-0.265-0.018-0.534-0.039-0.8
		c-0.016-0.177-0.036-0.351-0.059-0.526c-0.031-0.237-0.065-0.473-0.108-0.71c-0.038-0.207-0.083-0.408-0.129-0.609
		c-0.047-0.198-0.097-0.394-0.151-0.592c-0.067-0.237-0.144-0.468-0.225-0.699c-0.057-0.162-0.113-0.323-0.175-0.481
		c-0.1-0.255-0.212-0.504-0.327-0.752c-0.041-0.089-0.074-0.179-0.117-0.269c-0.027-0.053-0.06-0.103-0.088-0.156
		c-0.12-0.234-0.251-0.463-0.385-0.687c-0.092-0.155-0.181-0.31-0.279-0.458c-0.118-0.183-0.245-0.358-0.373-0.534
		c-0.129-0.179-0.256-0.356-0.393-0.526c-0.106-0.132-0.222-0.256-0.333-0.387c-0.169-0.191-0.336-0.384-0.515-0.564
		c-0.104-0.105-0.212-0.202-0.318-0.301c-0.194-0.186-0.391-0.37-0.596-0.54c-0.12-0.102-0.247-0.193-0.371-0.291
		c-0.199-0.153-0.396-0.31-0.603-0.451c-0.159-0.108-0.326-0.208-0.492-0.312c-0.179-0.112-0.355-0.227-0.542-0.329
		c-0.206-0.113-0.419-0.217-0.633-0.32c-0.154-0.076-0.306-0.155-0.463-0.224c-0.232-0.103-0.473-0.189-0.714-0.277
		c-0.149-0.055-0.298-0.115-0.449-0.166c-0.23-0.076-0.468-0.137-0.705-0.199c-0.174-0.046-0.346-0.097-0.522-0.134
		c-0.207-0.045-0.417-0.079-0.629-0.114c-0.218-0.038-0.437-0.076-0.658-0.102c-0.174-0.021-0.352-0.033-0.526-0.044
		c-0.264-0.021-0.525-0.036-0.79-0.04c-0.061,0-0.119-0.009-0.181-0.009H12.903C5.777,129.029,0,134.804,0,141.932v516.129
		c0,0.103,0.014,0.201,0.016,0.304c0.007,0.266,0.017,0.534,0.04,0.801c0.015,0.177,0.036,0.351,0.059,0.526
		c0.031,0.237,0.065,0.473,0.108,0.71c0.038,0.207,0.083,0.408,0.129,0.609c0.046,0.198,0.096,0.394,0.151,0.592
		c0.067,0.237,0.143,0.468,0.224,0.698C0.785,662.466,0.841,662.625,0.905,662.787z M25.807,154.837h638.67h67.657L25.807,505.818
		v-33.626V154.837z M774.193,645.159h-638.67H67.868l594.66-295.492c6.381-3.172,8.984-10.916,5.813-17.299l0,0
		c-3.169-6.381-10.911-8.982-17.298-5.813L25.807,637.242V534.636l748.387-371.881v102.606l-76.931,38.23
		c-6.381,3.172-8.984,10.914-5.813,17.297v0.002c2.256,4.537,6.82,7.164,11.565,7.164c1.928,0,3.886-0.435,5.732-1.351
		l65.446-32.524v33.625V645.159z"/>
</g>
</svg>
