<?xml version="1.0" encoding="utf-8"?>
<!-- Generator: Adobe Illustrator 16.0.0, SVG Export Plug-In . SVG Version: 6.00 Build 0)  -->
<!DOCTYPE svg PUBLIC "-//W3C//DTD SVG 1.1//EN" "http://www.w3.org/Graphics/SVG/1.1/DTD/svg11.dtd">
<svg version="1.1" id="Capa_1" xmlns="http://www.w3.org/2000/svg" xmlns:xlink="http://www.w3.org/1999/xlink" x="0px" y="0px"
	 width="800px" height="800px" viewBox="0 0 800 800" enable-background="new 0 0 800 800" xml:space="preserve">
<g>
	<rect x="24.807" y="449.322" fill="#ED1F34" width="231.493" height="196.839"/>
	<rect x="25.807" y="450.322" fill="#ED1F34" width="229.493" height="194.839"/>
	<path fill="#ED1F34" d="M644.161,363.581v-1c0-6.563-5.34-11.903-11.903-11.903H354.945V153.839h420.248v196.838h-91.322
		c-6.563,0-11.903,5.34-11.903,11.903v1H644.161z"/>
	<path fill="#ED1F34" d="M683.871,349.677h90.322V154.839H355.945v194.838h276.313c7.126,0,12.903,5.777,12.903,12.903h25.807
		C670.968,355.455,676.745,349.677,683.871,349.677z"/>
	<rect x="354.945" y="449.322" fill="#ED1F34" width="420.248" height="196.839"/>
	<rect x="355.945" y="450.322" fill="#ED1F34" width="418.248" height="194.839"/>
	<rect x="24.807" y="153.839" fill="#ED1F34" width="231.493" height="196.838"/>
	<rect x="25.807" y="154.839" fill="#ED1F34" width="229.493" height="194.838"/>
	<path fill="#FFFFFF" d="M281.106,154.839v207.742c0,7.126-5.777,12.903-12.903,12.903H25.807v49.033h242.396
		c7.126,0,12.903,5.776,12.903,12.902v207.742h49.032V437.419c0-7.126,5.777-12.902,12.903-12.902h431.151v-49.033h-90.322
		c-7.126,0-12.903-5.777-12.903-12.903h-25.807c0,7.126-5.777,12.903-12.903,12.903H343.042c-7.126,0-12.903-5.777-12.903-12.903
		V154.839H281.106z"/>
	<path d="M787.097,129.032H12.903C5.777,129.032,0,134.81,0,141.936v516.129c0,7.126,5.777,12.903,12.903,12.903h774.193
		c7.126,0,12.903-5.777,12.903-12.903V141.936C800,134.81,794.223,129.032,787.097,129.032z M343.042,375.484h289.216
		c7.126,0,12.903-5.777,12.903-12.903s-5.777-12.903-12.903-12.903H355.945V154.839h418.248v194.838h-90.322
		c-7.126,0-12.903,5.777-12.903,12.903s5.777,12.903,12.903,12.903h90.322v49.033H343.042c-7.126,0-12.903,5.776-12.903,12.902
		v207.742h-49.032V437.419c0-7.126-5.777-12.902-12.903-12.902H25.807v-49.033h242.396c7.126,0,12.903-5.777,12.903-12.903V154.839
		h49.032v207.742C330.139,369.707,335.914,375.484,343.042,375.484z M25.807,450.322H255.3v194.839H25.807V450.322z M255.3,349.677
		H25.807V154.839H255.3V349.677z M355.945,645.161V450.322h418.248v194.839H355.945z"/>
</g>
</svg>
