<?xml version="1.0" encoding="utf-8"?>
<!-- Generator: Adobe Illustrator 16.0.0, SVG Export Plug-In . SVG Version: 6.00 Build 0)  -->
<!DOCTYPE svg PUBLIC "-//W3C//DTD SVG 1.1//EN" "http://www.w3.org/Graphics/SVG/1.1/DTD/svg11.dtd">
<svg version="1.1" id="Capa_1" xmlns="http://www.w3.org/2000/svg" xmlns:xlink="http://www.w3.org/1999/xlink" x="0px" y="0px"
	 width="800px" height="800px" viewBox="0 0 800 800" enable-background="new 0 0 800 800" xml:space="preserve">
<g>
	<path fill="#259245" d="M52.217,646.161l351.387-234.258h228.653c6.563,0,11.903-5.34,11.903-11.903v-1h27.807v1
		c0,6.563,5.34,11.903,11.903,11.903h91.322v234.258H52.217z"/>
	<path fill="#259245" d="M683.871,412.903c-7.128,0-12.903-5.775-12.903-12.903h-25.807c0,7.128-5.775,12.903-12.903,12.903H403.907
		L55.52,645.161h718.673V412.903H683.871z"/>
	<path fill="#3DB4EA" d="M644.161,401v-1c0-6.563-5.34-11.903-11.903-11.903H403.604L52.217,153.839h722.976v234.258h-91.322
		c-6.563,0-11.903,5.34-11.903,11.903v1H644.161z"/>
	<path fill="#3DB4EA" d="M683.871,387.097h90.322V154.839H55.52l348.387,232.258h228.351c7.128,0,12.903,5.775,12.903,12.903h25.807
		C670.968,392.872,676.743,387.097,683.871,387.097z"/>
	<path fill="#FFFFFF" d="M376.738,400L25.807,166.044v467.91L376.738,400z M78.474,362.089l45.454-2.349l16.28-42.503
		c1.912-4.991,6.703-8.287,12.05-8.287c5.347,0,10.139,3.296,12.05,8.287l16.28,42.503l45.454,2.349
		c5.34,0.275,9.955,3.815,11.606,8.899c1.652,5.084-0.001,10.66-4.158,14.02l-35.394,28.618l11.814,43.957
		c1.388,5.161-0.552,10.646-4.877,13.787c-2.257,1.64-4.917,2.466-7.583,2.466c-2.445,0-4.893-0.691-7.037-2.087l-38.154-24.819
		l-38.154,24.819c-4.481,2.911-10.295,2.763-14.62-0.379s-6.266-8.626-4.877-13.787l11.814-43.957l-35.395-28.618
		c-4.157-3.36-5.81-8.936-4.158-14.02C68.52,365.904,73.135,362.366,78.474,362.089z"/>
	<path fill="#ED1F34" d="M158.749,421.559c-1.935-1.259-4.18-1.925-6.491-1.925c-2.312,0-4.556,0.666-6.491,1.925l-19.139,12.448
		l5.927-22.048c1.221-4.543-0.353-9.389-4.01-12.344l-17.754-14.356l22.798-1.177c4.696-0.244,8.818-3.24,10.502-7.631l8.167-21.321
		l8.168,21.321c1.683,4.394,5.805,7.389,10.502,7.631l22.798,1.177l-17.755,14.356c-3.658,2.958-5.232,7.802-4.011,12.344
		l5.927,22.048L158.749,421.559z"/>
	<path fill="#ED1F34" d="M129.173,398.837c3.969,3.208,5.672,8.454,4.348,13.382l-5.249,19.526l16.95-11.024
		c2.138-1.392,4.588-2.087,7.037-2.087c2.448,0,4.898,0.695,7.036,2.087l16.95,11.024l-5.249-19.526
		c-1.325-4.928,0.38-10.174,4.348-13.382l15.725-12.714l-20.191-1.042c-5.098-0.263-9.559-3.506-11.384-8.272l-7.234-18.883
		l-7.233,18.883c-1.827,4.766-6.287,8.007-11.384,8.272l-20.191,1.042L129.173,398.837z"/>
	<path d="M71.026,385.01l35.395,28.617l-11.814,43.958c-1.388,5.161,0.552,10.646,4.877,13.787s10.139,3.289,14.62,0.379
		l38.154-24.821l38.154,24.819c2.144,1.396,4.592,2.087,7.037,2.087c2.667,0,5.328-0.824,7.583-2.466
		c4.325-3.142,6.266-8.626,4.877-13.787l-11.814-43.957l35.394-28.618c4.157-3.36,5.81-8.936,4.159-14.02
		c-1.652-5.084-6.268-8.625-11.606-8.9l-45.454-2.348l-16.28-42.503c-1.912-4.991-6.703-8.287-12.05-8.287
		c-5.347,0-10.139,3.296-12.05,8.287l-16.28,42.503l-45.454,2.348c-5.34,0.275-9.955,3.816-11.606,8.9
		C65.216,376.072,66.87,381.648,71.026,385.01z M145.025,376.809l7.233-18.883l7.232,18.883c1.827,4.766,6.287,8.007,11.384,8.272
		l20.191,1.042l-15.725,12.714c-3.969,3.208-5.672,8.454-4.347,13.382l5.249,19.526l-16.95-11.024
		c-2.139-1.392-4.588-2.087-7.037-2.087s-4.898,0.695-7.037,2.087l-16.95,11.024l5.249-19.526c1.325-4.928-0.38-10.174-4.347-13.382
		l-15.725-12.714l20.191-1.042C138.739,384.815,143.198,381.574,145.025,376.809z"/>
	<path d="M787.097,129.032H12.903c-0.002,0-0.005,0-0.007,0c-0.439,0-0.874,0.022-1.31,0.067c-0.07,0.007-0.138,0.022-0.206,0.031
		c-0.343,0.042-0.687,0.088-1.025,0.157c-0.271,0.055-0.534,0.129-0.798,0.199c-0.138,0.036-0.277,0.065-0.413,0.107
		c-0.258,0.079-0.507,0.175-0.759,0.268c-0.141,0.054-0.286,0.098-0.427,0.157c-0.215,0.089-0.419,0.193-0.628,0.294
		c-0.172,0.083-0.347,0.158-0.518,0.249c-0.164,0.088-0.318,0.188-0.479,0.284c-0.205,0.12-0.411,0.237-0.609,0.37
		c-0.121,0.081-0.232,0.172-0.349,0.255c-0.224,0.16-0.447,0.32-0.663,0.496c-0.098,0.081-0.188,0.17-0.282,0.253
		c-0.217,0.189-0.437,0.378-0.643,0.583c-0.205,0.205-0.394,0.423-0.583,0.64c-0.084,0.096-0.174,0.182-0.256,0.282
		c-0.277,0.336-0.535,0.685-0.777,1.046c-0.002,0.003-0.005,0.005-0.007,0.008c-0.024,0.036-0.041,0.072-0.065,0.108
		c-0.207,0.318-0.404,0.647-0.585,0.986c-0.061,0.114-0.108,0.23-0.166,0.346c-0.13,0.261-0.26,0.524-0.373,0.798
		c-0.071,0.169-0.125,0.341-0.188,0.511c-0.081,0.222-0.166,0.442-0.234,0.671c-0.065,0.217-0.116,0.435-0.169,0.654
		c-0.046,0.188-0.098,0.373-0.136,0.566c-0.053,0.27-0.089,0.542-0.124,0.815c-0.019,0.146-0.046,0.289-0.062,0.437
		c-0.034,0.346-0.046,0.693-0.053,1.039c0,0.076-0.01,0.15-0.01,0.226v0.045c0,0,0,0.025,0,0.039v515.959c0,0.014,0,0.027,0,0.027
		v0.059c0,0.076,0.01,0.149,0.012,0.226c0.005,0.348,0.019,0.693,0.053,1.039c0.014,0.148,0.041,0.291,0.062,0.437
		c0.036,0.272,0.07,0.544,0.124,0.814c0.038,0.19,0.091,0.376,0.136,0.565c0.053,0.219,0.103,0.438,0.168,0.654
		c0.069,0.227,0.153,0.447,0.234,0.669c0.062,0.172,0.117,0.345,0.188,0.515c0.112,0.271,0.243,0.535,0.372,0.797
		c0.057,0.115,0.105,0.231,0.167,0.346c0.181,0.339,0.378,0.665,0.588,0.985c0.024,0.036,0.042,0.074,0.065,0.108
		c0.002,0.002,0.003,0.005,0.007,0.009c0.279,0.416,0.587,0.813,0.91,1.194c0.098,0.116,0.203,0.224,0.305,0.335
		c0.227,0.248,0.461,0.487,0.705,0.718c0.133,0.124,0.263,0.246,0.401,0.362c0.26,0.223,0.528,0.433,0.805,0.636
		c0.112,0.08,0.219,0.172,0.332,0.249c0.389,0.267,0.793,0.509,1.211,0.732c0.098,0.052,0.201,0.095,0.301,0.145
		c0.335,0.167,0.678,0.324,1.029,0.462c0.133,0.051,0.265,0.098,0.397,0.145c0.332,0.118,0.669,0.222,1.014,0.314
		c0.136,0.036,0.271,0.072,0.409,0.105c0.351,0.08,0.709,0.143,1.07,0.195c0.129,0.02,0.256,0.043,0.387,0.059
		c0.444,0.05,0.895,0.078,1.352,0.081c0.036,0,0.072,0.007,0.11,0.007c0.007,0,0.016,0,0.024,0h774.157
		c7.128,0,12.903-5.775,12.903-12.903V141.936C800,134.808,794.225,129.032,787.097,129.032z M376.738,400L25.807,633.954v-467.91
		L376.738,400z M55.52,645.161l348.387-232.258h228.351c7.128,0,12.903-5.775,12.903-12.903s-5.775-12.903-12.903-12.903H403.907
		L55.52,154.839h718.673v232.258h-90.322c-7.128,0-12.903,5.775-12.903,12.903s5.775,12.903,12.903,12.903h90.322v232.258H55.52z"/>
</g>
</svg>
