<?xml version="1.0" encoding="iso-8859-1"?>
<!-- Generator: Adobe Illustrator 19.0.0, SVG Export Plug-In . SVG Version: 6.00 Build 0)  -->
<svg version="1.1" id="Capa_1" xmlns="http://www.w3.org/2000/svg" xmlns:xlink="http://www.w3.org/1999/xlink" x="0px" y="0px"
	 viewBox="0 0 465 465" style="enable-background:new 0 0 465 465;" xml:space="preserve">
<g>
	<path style="fill:#259245;" d="M15,195.25h154.176c6.343-10.741,15.334-19.731,26.074-26.074V90H15V195.25z"/>
	<path style="fill:#259245;" d="M269.75,169.177c10.74,6.342,19.731,15.333,26.073,26.073H367.5c4.142,0,7.5,3.357,7.5,7.5h15
		c0-4.143,3.358-7.5,7.5-7.5H450V90H269.75V169.177z"/>
	<path style="fill:#259245;" d="M450,269.75H295.824c-6.342,10.74-15.333,19.731-26.073,26.073V375H450V269.75z"/>
	<path style="fill:#259245;" d="M195.25,295.824c-10.741-6.343-19.732-15.333-26.074-26.074H15V375h180.25V295.824z"/>
	<path style="fill:#FFFFFF;" d="M450,240H305.62c-0.518,5.088-1.566,10.021-3.072,14.75H450V240z"/>
	<path style="fill:#FFFFFF;" d="M254.75,302.549c-4.73,1.506-9.662,2.554-14.75,3.071V375h14.75V302.549z"/>
	<path style="fill:#FFFFFF;" d="M240,90v69.38c5.088,0.518,10.02,1.565,14.75,3.071V90H240z"/>
	<path style="fill:#FFFFFF;" d="M162.451,254.75c-1.506-4.729-2.554-9.662-3.072-14.75H15v14.75H162.451z"/>
	<path style="fill:#FFE000;" d="M375,202.75c0,4.143-3.358,7.5-7.5,7.5h-64.951c1.506,4.729,2.554,9.662,3.072,14.75H450v-14.75
		h-52.5c-4.142,0-7.5-3.357-7.5-7.5l0,0H375L375,202.75z"/>
	<path style="fill:#FFE000;" d="M225,375v-69.38c-5.088-0.518-10.02-1.565-14.75-3.071V375H225z"/>
	<path style="fill:#FFE000;" d="M15,225h144.38c0.518-5.088,1.566-10.021,3.072-14.75H15V225z"/>
	<path style="fill:#FFE000;" d="M225,159.38V90h-14.75v72.451C214.98,160.945,219.912,159.897,225,159.38z"/>
	<path d="M457.5,75H7.5C3.358,75,0,78.357,0,82.5v300c0,4.143,3.358,7.5,7.5,7.5h450c4.142,0,7.5-3.357,7.5-7.5v-300
		C465,78.357,461.642,75,457.5,75z M450,195.25h-52.5c-4.142,0-7.5,3.357-7.5,7.5l0,0c0,4.143,3.358,7.5,7.5,7.5H450V225H305.62
		c-0.518-5.088-1.566-10.021-3.072-14.75H367.5c4.142,0,7.5-3.357,7.5-7.5l0,0c0-4.143-3.358-7.5-7.5-7.5h-71.676
		c-6.342-10.74-15.333-19.731-26.073-26.073V90H450V195.25z M232.5,291c-32.257,0-58.5-26.243-58.5-58.5s26.243-58.5,58.5-58.5
		s58.5,26.243,58.5,58.5S264.757,291,232.5,291z M240,159.38V90h14.75v72.451C250.02,160.945,245.088,159.897,240,159.38z M225,90
		v69.38c-5.088,0.518-10.02,1.565-14.75,3.071V90H225z M159.38,225H15v-14.75h147.451C160.946,214.979,159.898,219.912,159.38,225z
		 M159.38,240c0.518,5.088,1.566,10.021,3.072,14.75H15V240H159.38z M225,305.62V375h-14.75v-72.451
		C214.98,304.055,219.912,305.103,225,305.62z M240,305.62c5.088-0.518,10.02-1.565,14.75-3.071V375H240V305.62z M305.62,240H450
		v14.75H302.549C304.054,250.021,305.102,245.088,305.62,240z M195.25,169.176c-10.741,6.343-19.732,15.333-26.074,26.074H15V90
		h180.25V169.176z M15,269.75h154.176c6.343,10.741,15.334,19.731,26.074,26.074V375H15V269.75z M269.75,295.823
		c10.74-6.342,19.731-15.333,26.073-26.073H450V375H269.75V295.823z"/>
	<path style="fill:#ED1F34;" d="M291,232.5c0-32.257-26.243-58.5-58.5-58.5S174,200.243,174,232.5s26.243,58.5,58.5,58.5
		S291,264.757,291,232.5z M232.5,276c-23.986,0-43.5-19.514-43.5-43.5s19.514-43.5,43.5-43.5s43.5,19.514,43.5,43.5
		S256.486,276,232.5,276z"/>
	<path style="fill:#ED1F34;" d="M261,232.5c0-15.715-12.785-28.5-28.5-28.5S204,216.785,204,232.5s12.785,28.5,28.5,28.5
		S261,248.215,261,232.5z"/>
	<path style="fill:#259245;" d="M276,232.5c0-23.986-19.514-43.5-43.5-43.5S189,208.514,189,232.5s19.514,43.5,43.5,43.5
		S276,256.486,276,232.5z M232.5,261c-15.715,0-28.5-12.785-28.5-28.5s12.785-28.5,28.5-28.5s28.5,12.785,28.5,28.5
		S248.215,261,232.5,261z"/>
</g>
<g>
</g>
<g>
</g>
<g>
</g>
<g>
</g>
<g>
</g>
<g>
</g>
<g>
</g>
<g>
</g>
<g>
</g>
<g>
</g>
<g>
</g>
<g>
</g>
<g>
</g>
<g>
</g>
<g>
</g>
</svg>
