<?xml version="1.0" encoding="utf-8"?>
<!-- Generator: Adobe Illustrator 16.0.0, SVG Export Plug-In . SVG Version: 6.00 Build 0)  -->
<!DOCTYPE svg PUBLIC "-//W3C//DTD SVG 1.1//EN" "http://www.w3.org/Graphics/SVG/1.1/DTD/svg11.dtd">
<svg version="1.1" id="Capa_1" xmlns="http://www.w3.org/2000/svg" xmlns:xlink="http://www.w3.org/1999/xlink" x="0px" y="0px"
	 width="800px" height="800px" viewBox="0 0 800 800" enable-background="new 0 0 800 800" xml:space="preserve">
<g>
	<rect x="24.807" y="463.086" fill="#ED1F34" width="312.107" height="183.075"/>
	<rect x="25.807" y="464.086" fill="#ED1F34" width="310.107" height="181.075"/>
	<rect x="463.086" y="463.086" fill="#103B9B" width="312.107" height="183.075"/>
	<rect x="464.086" y="464.086" fill="#103B9B" width="310.107" height="181.075"/>
	<rect x="463.086" y="153.839" fill="#ED1F34" width="312.107" height="183.075"/>
	<rect x="464.086" y="154.839" fill="#ED1F34" width="310.107" height="181.075"/>
	<path fill="#103B9B" d="M76.419,349.817v-1c0-6.563-5.34-11.903-11.903-11.903H24.807V153.839h312.107v183.075H116.129
		c-6.563,0-11.903,5.34-11.903,11.903v1H76.419z"/>
	<path fill="#103B9B" d="M116.129,335.914h219.785V154.839H25.807v181.075h38.709c7.126,0,12.903,5.775,12.903,12.903h25.806
		C103.226,341.689,109.003,335.914,116.129,335.914z"/>
	<path fill="#FFFFFF" d="M438.279,645.161V451.183c0-7.128,5.775-12.903,12.903-12.903h323.011V361.72H451.183
		c-7.128,0-12.903-5.775-12.903-12.903V154.839h-76.559v193.979c0,7.127-5.777,12.903-12.903,12.903H116.129
		c-7.126,0-12.903-5.775-12.903-12.903H77.419c0,7.127-5.777,12.903-12.903,12.903H25.807v76.559h323.011
		c7.126,0,12.903,5.775,12.903,12.903v193.979H438.279z M400,369.893c16.628,0,30.107,13.479,30.107,30.107
		S416.628,430.107,400,430.107S369.893,416.628,369.893,400S383.372,369.893,400,369.893z"/>
	<circle fill="#259245" cx="400" cy="400" r="30.107"/>
	<path d="M787.097,129.032H12.903C5.777,129.032,0,134.808,0,141.936v516.129c0,7.128,5.777,12.903,12.903,12.903h774.193
		c7.128,0,12.903-5.775,12.903-12.903V141.936C800,134.808,794.225,129.032,787.097,129.032z M25.807,464.086h310.107v181.075
		H25.807V464.086z M348.817,438.279H25.807V361.72h38.709c7.126,0,12.903-5.775,12.903-12.903c0-7.128-5.777-12.903-12.903-12.903
		H25.807V154.839h310.107v181.075H116.129c-7.126,0-12.903,5.775-12.903,12.903c0,7.127,5.777,12.903,12.903,12.903h232.688
		c7.126,0,12.903-5.775,12.903-12.903V154.839h76.559v193.979c0,7.127,5.775,12.903,12.903,12.903h323.011v76.559H451.183
		c-7.128,0-12.903,5.775-12.903,12.903v193.979h-76.559V451.183C361.721,444.055,355.943,438.279,348.817,438.279z M774.193,335.914
		H464.086V154.839h310.107V335.914z M464.086,464.086h310.107v181.075H464.086V464.086z"/>
</g>
</svg>
