<?xml version="1.0" encoding="utf-8"?>
<!-- Generator: Adobe Illustrator 16.0.0, SVG Export Plug-In . SVG Version: 6.00 Build 0)  -->
<!DOCTYPE svg PUBLIC "-//W3C//DTD SVG 1.1//EN" "http://www.w3.org/Graphics/SVG/1.1/DTD/svg11.dtd">
<svg version="1.1" id="Capa_1" xmlns="http://www.w3.org/2000/svg" xmlns:xlink="http://www.w3.org/1999/xlink" x="0px" y="0px"
	 width="800px" height="800px" viewBox="0 0 800 800" enable-background="new 0 0 800 800" xml:space="preserve">
<g>
	<path fill="#ED1F34" d="M695.774,659.063v-1c0-6.563-5.341-11.903-11.903-11.903H66.749l-0.453-1.893l459.53-233.658
		c4.015-2.041,6.509-6.107,6.509-10.61c0-4.505-2.494-8.57-6.509-10.611L66.296,155.729l0.453-1.892h708.444v492.322h-39.709
		c-6.563,0-11.903,5.34-11.903,11.902v1h-27.807V659.063z"/>
	<path fill="#ED1F34" d="M735.484,645.159h38.709V154.837H66.749l459.53,233.659c4.329,2.2,7.056,6.646,7.056,11.502
		c0,4.857-2.727,9.301-7.056,11.503L66.749,645.159h617.122c7.128,0,12.903,5.774,12.903,12.902h25.807
		C722.581,650.935,728.356,645.159,735.484,645.159z"/>
	<path fill="#FFE000" d="M108.528,593.871l221.674-184.729c2.722-2.268,4.283-5.602,4.283-9.146s-1.562-6.877-4.283-9.145
		L108.528,206.125l1.093-1.66l384.547,195.532L109.621,595.531L108.528,593.871z"/>
	<path fill="#FFE000" d="M330.842,390.085c2.942,2.452,4.644,6.083,4.644,9.913s-1.7,7.462-4.644,9.913L109.168,594.64
		l382.794-194.642L109.168,205.357L330.842,390.085z"/>
	<path fill="#333333" d="M24.807,167.35L303.986,400L24.807,632.648V167.35z M136.41,360.568c-21.742,0-39.43,17.688-39.43,39.43
		s17.688,39.431,39.43,39.431c21.742,0,39.43-17.688,39.43-39.431C175.839,378.256,158.151,360.568,136.41,360.568z"/>
	<path fill="#333333" d="M24.807,167.35L303.986,400L24.807,632.648V167.35z M136.41,360.568c-21.742,0-39.43,17.688-39.43,39.43
		c0,21.742,17.688,39.431,39.43,39.431c21.741,0,39.429-17.688,39.43-39.431C175.84,378.256,158.152,360.568,136.41,360.568z"/>
	<path fill="#333333" d="M25.807,169.485v461.029L302.424,400L25.807,169.485z M136.41,440.429c-22.33,0-40.43-18.101-40.43-40.431
		c0-22.329,18.101-40.43,40.43-40.43s40.43,18.101,40.43,40.43C176.839,422.328,158.739,440.429,136.41,440.429z"/>
	<circle fill="#FFFFFF" cx="136.41" cy="399.999" r="40.43"/>
	<path d="M787.097,129.03H12.903c-0.04,0-0.076,0.005-0.115,0.005c-0.246,0.003-0.49,0.019-0.735,0.036
		c-0.127,0.009-0.254,0.01-0.38,0.022c-0.067,0.007-0.133,0.014-0.198,0.022c-0.208,0.024-0.415,0.058-0.621,0.093
		c-0.139,0.022-0.28,0.038-0.419,0.065c-0.081,0.017-0.162,0.033-0.245,0.048c-0.172,0.036-0.34,0.087-0.509,0.13
		c-0.156,0.04-0.313,0.074-0.466,0.121c-0.084,0.026-0.169,0.048-0.253,0.076c-0.143,0.046-0.282,0.105-0.425,0.157
		c-0.003,0-0.007,0.001-0.01,0.003c-0.168,0.06-0.339,0.117-0.506,0.184c-0.076,0.031-0.153,0.06-0.227,0.095
		c-0.134,0.057-0.263,0.127-0.397,0.189c-0.177,0.084-0.354,0.164-0.528,0.253c-0.059,0.033-0.119,0.062-0.177,0.095
		c-0.141,0.077-0.275,0.167-0.413,0.25c-0.167,0.102-0.335,0.196-0.497,0.306c-0.043,0.029-0.088,0.055-0.129,0.084
		c-0.158,0.108-0.308,0.227-0.461,0.34c-0.141,0.107-0.286,0.208-0.423,0.32c-0.031,0.028-0.063,0.05-0.096,0.078
		c-0.177,0.146-0.346,0.308-0.516,0.466c-0.106,0.1-0.218,0.192-0.323,0.296c-0.026,0.027-0.054,0.052-0.081,0.079
		c-0.184,0.184-0.354,0.384-0.528,0.582c-0.076,0.086-0.158,0.162-0.232,0.251c-0.007,0.009-0.012,0.019-0.019,0.026
		c-0.024,0.029-0.048,0.061-0.072,0.091c-0.134,0.165-0.258,0.341-0.385,0.514c-0.105,0.143-0.217,0.279-0.317,0.425
		c-0.012,0.017-0.021,0.036-0.033,0.053c-0.012,0.019-0.022,0.036-0.034,0.055c-0.091,0.139-0.174,0.286-0.262,0.43
		c-0.11,0.181-0.227,0.359-0.329,0.547c-0.031,0.059-0.057,0.119-0.087,0.179c-0.017,0.033-0.036,0.061-0.053,0.093
		c-0.05,0.098-0.084,0.196-0.131,0.294c-0.091,0.191-0.189,0.378-0.272,0.575c-0.031,0.074-0.055,0.148-0.084,0.222
		c-0.058,0.148-0.108,0.299-0.162,0.449c-0.062,0.174-0.131,0.342-0.184,0.52c-0.022,0.074-0.04,0.148-0.06,0.222
		c-0.053,0.186-0.096,0.375-0.143,0.563c-0.034,0.146-0.079,0.291-0.11,0.44c-0.014,0.065-0.021,0.132-0.033,0.2
		c-0.043,0.229-0.072,0.458-0.103,0.685c-0.007,0.05-0.018,0.104-0.022,0.155c-0.009,0.071-0.024,0.139-0.033,0.211
		c-0.005,0.057-0.005,0.114-0.01,0.172c-0.021,0.243-0.031,0.483-0.038,0.726C0.014,141.65,0,141.779,0,141.908
		c0.002,0.005,0,0.015,0,0.026v516.129c0,0.011,0.002,0.021,0.002,0.032c0,0.127,0.012,0.255,0.017,0.386
		c0.007,0.242,0.017,0.481,0.038,0.727c0.005,0.057,0.003,0.113,0.01,0.172c0.007,0.072,0.024,0.143,0.033,0.214
		c0.007,0.052,0.018,0.104,0.022,0.152c0.029,0.229,0.06,0.458,0.104,0.685c0.012,0.067,0.019,0.136,0.033,0.2
		c0.031,0.149,0.074,0.294,0.11,0.44c0.045,0.188,0.088,0.377,0.143,0.563c0.021,0.074,0.038,0.147,0.061,0.223
		c0.053,0.178,0.124,0.346,0.184,0.52c0.053,0.15,0.103,0.301,0.162,0.449c0.029,0.074,0.053,0.147,0.084,0.222
		c0.083,0.194,0.181,0.384,0.271,0.575c0.046,0.098,0.083,0.196,0.131,0.294c0.014,0.025,0.031,0.046,0.043,0.072
		c0.035,0.064,0.062,0.133,0.098,0.198c0.194,0.359,0.406,0.71,0.633,1.049c0.008,0.012,0.014,0.025,0.022,0.036
		c0.033,0.048,0.072,0.095,0.105,0.142c0.069,0.1,0.145,0.19,0.215,0.287c0.149,0.203,0.294,0.407,0.454,0.602
		c0.007,0.01,0.012,0.019,0.019,0.026c0.044,0.053,0.096,0.1,0.143,0.153c0.059,0.065,0.121,0.13,0.179,0.194
		c0.108,0.121,0.213,0.243,0.325,0.358c0.086,0.089,0.172,0.179,0.26,0.263c0.127,0.124,0.261,0.239,0.392,0.356
		c0.15,0.136,0.296,0.274,0.453,0.403c0.067,0.055,0.136,0.104,0.203,0.155c0.143,0.111,0.288,0.217,0.434,0.321
		c0.205,0.147,0.415,0.289,0.628,0.425c0.067,0.042,0.129,0.093,0.196,0.133c0.017,0.01,0.033,0.024,0.05,0.034
		c0.081,0.048,0.167,0.088,0.25,0.135c0.23,0.132,0.468,0.253,0.707,0.371c0.155,0.077,0.31,0.156,0.468,0.229
		c0.025,0.012,0.051,0.024,0.077,0.036c0.021,0.008,0.04,0.021,0.061,0.028c0.229,0.101,0.466,0.18,0.7,0.264
		c0.132,0.049,0.261,0.102,0.394,0.145c0.138,0.045,0.279,0.084,0.418,0.124c0.115,0.034,0.232,0.059,0.347,0.09
		c0.081,0.022,0.162,0.043,0.243,0.063c0.095,0.021,0.186,0.05,0.28,0.069c0.226,0.049,0.458,0.081,0.688,0.115
		c0.149,0.024,0.297,0.05,0.447,0.068c0.016,0.002,0.031,0.006,0.046,0.008c0.053,0.007,0.105,0.019,0.157,0.023
		c0.399,0.041,0.805,0.063,1.213,0.066c0.053,0,0.106,0.011,0.16,0.011c0.019,0,0.04-0.004,0.059-0.004h670.901
		c7.128,0,12.903-5.774,12.903-12.902s-5.775-12.903-12.903-12.903H66.749l459.53-233.658c4.329-2.2,7.056-6.646,7.056-11.503
		c0-4.857-2.727-9.301-7.056-11.503l-459.53-233.66h707.444v490.322h-38.709c-7.128,0-12.903,5.775-12.903,12.903
		s5.775,12.902,12.903,12.902h51.611c7.128,0,12.903-5.774,12.903-12.902V141.934C800,134.806,794.225,129.03,787.097,129.03z
		 M25.807,169.485l276.617,230.513L25.807,630.512V169.485z M109.168,594.64l221.674-184.728c2.942-2.452,4.644-6.084,4.644-9.914
		s-1.7-7.461-4.644-9.913L109.168,205.357l382.794,194.641L109.168,594.64z"/>
</g>
</svg>
