<?xml version="1.0" encoding="utf-8"?>
<!-- Generator: Adobe Illustrator 16.0.0, SVG Export Plug-In . SVG Version: 6.00 Build 0)  -->
<!DOCTYPE svg PUBLIC "-//W3C//DTD SVG 1.1//EN" "http://www.w3.org/Graphics/SVG/1.1/DTD/svg11.dtd">
<svg version="1.1" id="Capa_1" xmlns="http://www.w3.org/2000/svg" xmlns:xlink="http://www.w3.org/1999/xlink" x="0px" y="0px"
	 width="800px" height="800px" viewBox="0 0 800 800" enable-background="new 0 0 800 800" xml:space="preserve">
<g>
	<path fill="#164FCE" d="M24.807,517.129V411.903h249.64v36.933c0,23.59,19.192,42.781,42.782,42.781h70.868v25.512H24.807z"/>
	<path fill="#164FCE" d="M25.807,412.903v103.226h361.29v-23.512h-69.868c-24.141,0-43.782-19.64-43.782-43.781v-35.933H25.807z"/>
	<path fill="#164FCE" d="M411.903,517.129v-25.512h70.868c23.59,0,42.781-19.191,42.781-42.781v-36.933h249.641v105.226H411.903z"/>
	<path fill="#164FCE" d="M774.193,516.129V412.903H526.553v35.933c0,24.142-19.64,43.781-43.781,43.781h-69.868v23.512H774.193z"/>
	<rect x="25.807" y="541.936" fill="#ED1F34" width="748.387" height="103.226"/>
	<path fill="#FFE000" d="M525.553,388.097v-30.835c0-6.563-5.339-11.903-11.902-11.903h-51.552l-0.295-0.462
		c-9.914-15.529-24.005-27.135-39.678-32.679l-1.262-0.446l9.301-12.843h83.485c6.563,0,11.902-5.34,11.902-11.903
		s-5.339-11.903-11.902-11.903h-89.564c-3.805,0-7.409,1.84-9.642,4.923L400,299.992l-14.445-19.947
		c-2.231-3.083-5.835-4.923-9.641-4.923H286.35c-6.563,0-11.903,5.34-11.903,11.903s5.34,11.903,11.903,11.903h83.484l9.301,12.843
		l-1.261,0.446c-15.675,5.545-29.766,17.151-39.678,32.679l-0.295,0.462H286.35c-6.563,0-11.903,5.34-11.903,11.903v30.835H24.807
		V153.839h39.709c6.563,0,11.903-5.34,11.903-11.903v-1h27.806v1c0,6.563,5.34,11.903,11.903,11.903h659.064v234.258H525.553z"/>
	<path fill="#FFE000" d="M64.516,154.839H25.807v232.258h247.64v-29.835c0-7.128,5.777-12.903,12.903-12.903h51.003
		c9.953-15.592,23.979-27.35,40.188-33.084l-8.217-11.346H286.35c-7.126,0-12.903-5.775-12.903-12.903
		c0-7.127,5.777-12.903,12.903-12.903h89.564c4.138,0,8.024,1.984,10.451,5.337L400,298.287l13.635-18.829
		c2.427-3.352,6.313-5.337,10.451-5.337h89.564c7.125,0,12.902,5.776,12.902,12.903c0,7.128-5.777,12.903-12.902,12.903h-82.975
		l-8.217,11.346c16.209,5.734,30.234,17.494,40.188,33.084h51.004c7.125,0,12.902,5.775,12.902,12.903v29.835h247.641V154.839
		H116.129c-7.126,0-12.903-5.775-12.903-12.903H77.419C77.419,149.063,71.642,154.839,64.516,154.839z"/>
	<path d="M787.097,129.032H116.129c-7.126,0-12.903,5.775-12.903,12.903s5.777,12.903,12.903,12.903h658.064v232.258H526.553
		v-29.835c0-7.128-5.777-12.903-12.902-12.903h-51.004c-9.953-15.592-23.979-27.35-40.188-33.084l8.217-11.346h82.975
		c7.125,0,12.902-5.775,12.902-12.903c0-7.127-5.777-12.903-12.902-12.903h-89.564c-4.138,0-8.024,1.984-10.451,5.337L400,298.287
		l-13.635-18.829c-2.427-3.352-6.313-5.337-10.451-5.337H286.35c-7.126,0-12.903,5.776-12.903,12.903
		c0,7.128,5.777,12.903,12.903,12.903h82.975l8.217,11.346c-16.21,5.734-30.235,17.494-40.188,33.084H286.35
		c-7.126,0-12.903,5.775-12.903,12.903v29.835H25.807V154.839h38.709c7.126,0,12.903-5.775,12.903-12.903
		s-5.777-12.903-12.903-12.903H12.903C5.777,129.032,0,134.808,0,141.936v516.129c0,7.128,5.777,12.903,12.903,12.903h774.193
		c7.126,0,12.903-5.775,12.903-12.903V141.936C800,134.808,794.223,129.032,787.097,129.032z M400,333.19
		c29.012,0,52.614,29.972,52.614,66.81S429.012,466.81,400,466.81s-52.614-29.972-52.614-66.81S370.988,333.19,400,333.19z
		 M500.747,448.836c0,9.911-8.064,17.976-17.976,17.976h-28.547c14.894-16.869,24.196-40.573,24.196-66.812
		c0-10.438-1.492-20.466-4.2-29.836h26.524v78.672H500.747z M482.771,492.618c24.142,0,43.781-19.641,43.781-43.782v-35.933h247.641
		v103.226h-361.29v-23.512L482.771,492.618L482.771,492.618z M321.579,400c0,26.236,9.301,49.942,24.196,66.812h-28.547
		c-9.911,0-17.976-8.065-17.976-17.976v-78.672h26.524C323.071,379.534,321.579,389.562,321.579,400z M317.229,492.618h69.868
		v23.511H25.807V412.903h247.64v35.933C273.447,472.978,293.087,492.618,317.229,492.618z M25.807,645.161V541.936h748.387v103.226
		H25.807z"/>
	<path fill="#FFE000" d="M299.253,448.836c0,9.911,8.064,17.976,17.976,17.976h28.547c-14.894-16.869-24.196-40.573-24.196-66.812
		c0-10.438,1.492-20.466,4.2-29.836h-26.524v78.672H299.253z"/>
	<path fill="#FFE000" d="M478.421,400c0,26.236-9.301,49.942-24.196,66.812h28.547c9.911,0,17.976-8.065,17.976-17.976v-78.672
		h-26.524C476.929,379.534,478.421,389.562,478.421,400z"/>
	<path fill="#3DB4EA" d="M400,467.81c-29.563,0-53.614-30.419-53.614-67.81c0-37.39,24.051-67.81,53.614-67.81
		c29.563,0,53.614,30.419,53.614,67.81C453.614,437.391,429.563,467.81,400,467.81z"/>
	<path fill="#3DB4EA" d="M347.386,400c0,36.838,23.603,66.81,52.614,66.81s52.614-29.972,52.614-66.81S429.012,333.19,400,333.19
		S347.386,363.162,347.386,400z"/>
</g>
</svg>
