<?xml version="1.0" encoding="utf-8"?>
<!-- Generator: Adobe Illustrator 16.0.0, SVG Export Plug-In . SVG Version: 6.00 Build 0)  -->
<!DOCTYPE svg PUBLIC "-//W3C//DTD SVG 1.1//EN" "http://www.w3.org/Graphics/SVG/1.1/DTD/svg11.dtd">
<svg version="1.1" id="Capa_1" xmlns="http://www.w3.org/2000/svg" xmlns:xlink="http://www.w3.org/1999/xlink" x="0px" y="0px"
	 width="800px" height="800px" viewBox="0 0 800 800" enable-background="new 0 0 800 800" xml:space="preserve">
<g>
	<path fill="#FFFFFF" d="M683.871,326.882H25.807v146.236h748.387V326.882h-38.709c-7.127,0-12.903-5.777-12.903-12.903h-25.807
		C696.774,321.104,690.997,326.882,683.871,326.882z M443.664,436.813c-1.161,0.325-2.331,0.48-3.481,0.48
		c-5.644,0-10.825-3.73-12.42-9.432l-5.7-20.376l-9.159,2.566v29.518c0,7.126-5.777,12.902-12.903,12.902
		s-12.903-5.776-12.903-12.902v-29.518l-9.159-2.567l-5.7,20.377c-1.92,6.861-9.041,10.87-15.901,8.951
		c-6.863-1.92-10.87-9.039-8.952-15.901l9.177-32.809c0.923-3.298,3.116-6.092,6.1-7.771c2.984-1.679,6.513-2.104,9.808-1.179
		l14.627,4.098v-10.706c-4.936-1.812-8.457-6.553-8.457-12.117c0-7.126,5.777-12.903,12.903-12.903h8.457
		c7.126,0,12.903,5.777,12.903,12.903v22.823l14.627-4.098c3.297-0.925,6.825-0.5,9.809,1.179s5.179,4.473,6.099,7.771l9.177,32.809
		C454.534,427.774,450.527,434.894,443.664,436.813z"/>
	<rect x="24.807" y="497.925" fill="#333333" width="750.387" height="148.236"/>
	<rect x="25.807" y="498.925" fill="#333333" width="748.387" height="146.236"/>
	<path fill="#ED1F34" d="M695.774,314.979v-1c0-6.563-5.34-11.903-11.903-11.903H24.807V153.839h750.387v148.236h-39.709
		c-6.563,0-11.903,5.34-11.903,11.903v1H695.774z"/>
	<path fill="#ED1F34" d="M683.871,301.075c7.126,0,12.903,5.777,12.903,12.903h25.807c0-7.126,5.776-12.903,12.903-12.903h38.709
		V154.839H25.807v146.236H683.871z"/>
	<path d="M787.097,129.032H12.903C5.777,129.032,0,134.81,0,141.936v516.129c0,7.126,5.777,12.903,12.903,12.903h774.193
		c7.126,0,12.903-5.777,12.903-12.903V141.936C800,134.81,794.223,129.032,787.097,129.032z M774.193,154.839v146.236h-38.709
		c-7.127,0-12.903,5.777-12.903,12.903s5.776,12.903,12.903,12.903h38.709v146.236H25.807V326.882h658.064
		c7.126,0,12.903-5.777,12.903-12.903s-5.777-12.903-12.903-12.903H25.807V154.839H774.193z M25.807,645.161V498.925h748.387
		v146.236H25.807z"/>
	<path fill="#F2A643" d="M443.439,388.103c-0.923-3.298-3.116-6.092-6.1-7.771c-2.982-1.679-6.514-2.104-9.808-1.179l-14.629,4.1
		V360.43c0-7.126-5.777-12.903-12.903-12.903h-8.458c-7.126,0-12.903,5.777-12.903,12.903c0,5.564,3.522,10.305,8.458,12.117v10.707
		l-14.627-4.098c-3.296-0.926-6.823-0.5-9.809,1.179c-2.982,1.679-5.178,4.473-6.099,7.771l-9.177,32.809
		c-1.92,6.862,2.087,13.981,8.951,15.901c6.861,1.918,13.982-2.089,15.902-8.951l5.699-20.377l9.16,2.567v29.516
		c0,7.126,5.777,12.902,12.903,12.902s12.903-5.776,12.903-12.902v-29.518l9.159-2.567l5.7,20.377
		c1.595,5.701,6.774,9.432,12.419,9.432c1.149,0,2.321-0.155,3.482-0.48c6.863-1.92,10.87-9.039,8.951-15.901L443.439,388.103z"/>
</g>
</svg>
