<?xml version="1.0" encoding="utf-8"?>
<!-- Generator: Adobe Illustrator 16.0.0, SVG Export Plug-In . SVG Version: 6.00 Build 0)  -->
<!DOCTYPE svg PUBLIC "-//W3C//DTD SVG 1.1//EN" "http://www.w3.org/Graphics/SVG/1.1/DTD/svg11.dtd">
<svg version="1.1" id="Capa_1" xmlns="http://www.w3.org/2000/svg" xmlns:xlink="http://www.w3.org/1999/xlink" x="0px" y="0px"
	 width="800px" height="800px" viewBox="0 0 800 800" enable-background="new 0 0 800 800" xml:space="preserve">
<g>
	<path fill="#FFFFFF" d="M774.193,326.882H116.129c-7.126,0-12.903-5.775-12.903-12.903H77.419c0,7.128-5.777,12.903-12.903,12.903
		H25.807v146.236h748.387V326.882z M400,464.517c-23.67,0-44.389-12.821-55.614-31.873c-0.083-0.133-0.181-0.251-0.259-0.386
		c-0.08-0.141-0.138-0.289-0.213-0.432c-5.354-9.398-8.43-20.256-8.43-31.826c0-18.315,7.836-35.838,21.5-48.072
		c5.308-4.755,13.466-4.303,18.219,1.005c1.838,2.051,2.889,4.528,3.191,7.069l10.432-18.066c2.305-3.992,6.563-6.452,11.174-6.452
		s8.869,2.46,11.174,6.452l10.432,18.066c0.303-2.542,1.354-5.019,3.191-7.069c4.755-5.31,12.91-5.76,18.219-1.005
		c13.664,12.234,21.5,29.757,21.5,48.072c0,11.322-2.939,21.967-8.084,31.224c-0.326,0.702-0.709,1.373-1.15,2
		C443.978,451.959,423.431,464.517,400,464.517z"/>
	<path fill="#103B9B" d="M644.161,659.064v-1c0-6.563-5.34-11.903-11.903-11.903H24.807V497.925h750.387v148.236h-91.322
		c-6.563,0-11.903,5.34-11.903,11.903v1H644.161z"/>
	<path fill="#103B9B" d="M683.871,645.161h90.322V498.925H25.807v146.236h606.451c7.126,0,12.903,5.775,12.903,12.903h25.807
		C670.968,650.937,676.745,645.161,683.871,645.161z"/>
	<path fill="#103B9B" d="M76.419,314.979v-1c0-6.563-5.34-11.903-11.903-11.903H24.807V153.839h750.387v148.236H116.129
		c-6.563,0-11.903,5.34-11.903,11.903v1H76.419z"/>
	<path fill="#103B9B" d="M116.129,301.075h658.064V154.839H25.807v146.236h38.709c7.126,0,12.903,5.775,12.903,12.903h25.806
		C103.226,306.851,109.003,301.075,116.129,301.075z"/>
	<path d="M787.097,129.032H12.903C5.777,129.032,0,134.808,0,141.936v516.129c0,7.128,5.777,12.903,12.903,12.903h619.354
		c7.126,0,12.903-5.775,12.903-12.903s-5.777-12.903-12.903-12.903H25.807V498.925h748.387v146.236h-90.322
		c-7.126,0-12.903,5.775-12.903,12.903s5.777,12.903,12.903,12.903h103.226c7.126,0,12.903-5.775,12.903-12.903V141.936
		C800,134.808,794.223,129.032,787.097,129.032z M25.807,326.882h38.709c7.126,0,12.903-5.775,12.903-12.903
		s-5.777-12.903-12.903-12.903H25.807V154.839h748.387v146.236H116.129c-7.126,0-12.903,5.775-12.903,12.903
		s5.777,12.903,12.903,12.903h658.064v146.236H25.807V326.882z"/>
	<path fill="#259245" d="M444.732,438.71c-0.012,0-0.021,0-0.034,0h-89.396c-4.454,0-8.564-2.311-10.916-6.066
		c11.226,19.052,31.944,31.873,55.614,31.873c23.431,0,43.978-12.558,55.281-31.292C452.944,436.538,449.096,438.71,444.732,438.71z
		"/>
	<path fill="#259245" d="M344.127,419.355l34.268-59.354c-0.303-2.542-1.354-5.019-3.191-7.069
		c-4.753-5.308-12.911-5.76-18.219-1.005c-13.664,12.234-21.5,29.757-21.5,48.072c0,11.57,3.075,22.428,8.43,31.826
		C341.846,427.914,341.902,423.207,344.127,419.355z"/>
	<path fill="#259245" d="M457.636,425.807c0,1.938-0.438,3.77-1.204,5.417c5.145-9.259,8.084-19.901,8.084-31.224
		c0-18.315-7.836-35.838-21.5-48.072c-5.309-4.755-13.466-4.305-18.219,1.005c-1.838,2.051-2.889,4.528-3.191,7.069l33.828,58.592
		C456.824,420.654,457.636,423.135,457.636,425.807z"/>
	<polygon fill="#FFE000" points="377.65,412.903 422.35,412.903 400,374.193 	"/>
	<path d="M355.302,438.71h89.396c0.013,0,0.022,0,0.034,0c4.363,0,8.212-2.172,10.549-5.485c0.441-0.626,0.825-1.297,1.15-1.999
		c0.766-1.648,1.204-3.48,1.204-5.417c0-2.672-0.812-5.153-2.202-7.213l-33.828-58.592l-10.432-18.066
		c-2.305-3.991-6.563-6.452-11.174-6.452s-8.869,2.46-11.174,6.452l-10.432,18.066l-34.268,59.353
		c-2.225,3.853-2.281,8.56-0.213,12.472c0.076,0.143,0.133,0.292,0.213,0.432c0.078,0.136,0.176,0.253,0.259,0.386
		C346.739,436.399,350.848,438.71,355.302,438.71z M377.65,412.903l22.35-38.71l22.35,38.71H377.65z"/>
</g>
</svg>
