<?xml version="1.0" encoding="utf-8"?>
<!-- Generator: Adobe Illustrator 16.0.0, SVG Export Plug-In . SVG Version: 6.00 Build 0)  -->
<!DOCTYPE svg PUBLIC "-//W3C//DTD SVG 1.1//EN" "http://www.w3.org/Graphics/SVG/1.1/DTD/svg11.dtd">
<svg version="1.1" id="Capa_1" xmlns="http://www.w3.org/2000/svg" xmlns:xlink="http://www.w3.org/1999/xlink" x="0px" y="0px"
	 width="800px" height="800px" viewBox="0 0 800 800" enable-background="new 0 0 800 800" xml:space="preserve">
<g>
	<path fill="#FFFFFF" d="M484.301,407c0,10.698,14.469,16.386,20.646,18.325c6.177-1.939,20.646-7.629,20.646-18.325v-32.807
		h-41.291V407z"/>
	<path fill="#FFFFFF" d="M774.193,326.882H216.098l63.993,63.993c5.039,5.041,5.039,13.209,0,18.248l-63.993,63.995h558.095V326.882
		z M507.635,451.329c-0.886,0.189-1.787,0.284-2.688,0.284s-1.803-0.095-2.689-0.284c-16.254-3.463-43.763-16.697-43.763-44.329
		v-45.709c0-7.128,5.777-12.903,12.903-12.903h67.097c7.127,0,12.903,5.775,12.903,12.903V407
		C551.397,434.632,523.89,447.866,507.635,451.329z"/>
	<polygon fill="#ED1F34" points="41.641,646.161 189.877,497.925 775.193,497.925 775.193,646.161 	"/>
	<polygon fill="#ED1F34" points="41.641,646.161 189.877,497.925 775.193,497.925 775.193,646.161 	"/>
	<polygon fill="#ED1F34" points="190.292,498.925 44.055,645.161 774.193,645.161 774.193,498.925 	"/>
	<path fill="#259245" d="M666.667,154.839H44.055l146.236,146.236h583.902V154.839h-55.914c-7.126,0-12.903-5.775-12.903-12.903
		H679.57C679.57,149.063,673.793,154.839,666.667,154.839z"/>
	<polygon fill="#164FCE" points="24.807,170.673 254.135,400 24.807,629.328 	"/>
	<polygon fill="#164FCE" points="24.807,170.673 254.135,400 24.807,629.328 	"/>
	<polygon fill="#164FCE" points="25.807,626.914 252.721,400 25.807,173.087 	"/>
	<path d="M787.097,129.032h-68.817c-7.126,0-12.903,5.775-12.903,12.903s5.777,12.903,12.903,12.903h55.914v146.236H190.292
		L44.055,154.839h622.612c7.126,0,12.903-5.775,12.903-12.903s-5.777-12.903-12.903-12.903H12.903c-0.104,0-0.203,0.014-0.306,0.016
		c-0.32,0.007-0.64,0.017-0.958,0.048c-0.227,0.022-0.447,0.064-0.671,0.097c-0.193,0.029-0.385,0.05-0.578,0.088
		c-0.237,0.046-0.466,0.11-0.698,0.17c-0.176,0.045-0.353,0.083-0.527,0.136c-0.224,0.069-0.438,0.151-0.655,0.23
		c-0.179,0.065-0.359,0.122-0.537,0.196c-0.202,0.084-0.396,0.181-0.592,0.275c-0.186,0.088-0.374,0.17-0.556,0.267
		c-0.184,0.1-0.361,0.212-0.54,0.32c-0.182,0.108-0.366,0.211-0.545,0.33c-0.192,0.129-0.375,0.272-0.559,0.411
		c-0.151,0.114-0.308,0.219-0.456,0.341c-0.308,0.253-0.602,0.52-0.884,0.8c-0.019,0.019-0.041,0.036-0.06,0.055
		c-0.017,0.017-0.031,0.036-0.048,0.053c-0.282,0.286-0.552,0.582-0.807,0.893c-0.122,0.148-0.229,0.306-0.344,0.461
		c-0.138,0.183-0.28,0.363-0.408,0.554c-0.122,0.184-0.229,0.375-0.342,0.563c-0.103,0.172-0.211,0.342-0.306,0.52
		c-0.104,0.193-0.191,0.392-0.284,0.588c-0.087,0.184-0.179,0.367-0.258,0.556c-0.079,0.191-0.143,0.389-0.213,0.583
		c-0.072,0.201-0.15,0.4-0.213,0.609c-0.06,0.196-0.103,0.397-0.153,0.597c-0.051,0.208-0.11,0.415-0.153,0.626
		c-0.046,0.232-0.074,0.468-0.107,0.702c-0.025,0.182-0.06,0.361-0.079,0.545C0.022,141.085,0,141.512,0,141.939V658.06
		c0,0.428,0.022,0.854,0.063,1.279c0.018,0.185,0.054,0.363,0.079,0.544c0.033,0.236,0.062,0.47,0.107,0.704
		c0.041,0.211,0.1,0.418,0.153,0.626c0.05,0.198,0.095,0.399,0.153,0.597c0.062,0.207,0.139,0.404,0.211,0.607
		c0.071,0.196,0.134,0.395,0.213,0.585c0.079,0.189,0.17,0.372,0.256,0.554c0.093,0.198,0.181,0.396,0.284,0.591
		c0.095,0.179,0.203,0.348,0.306,0.521c0.112,0.188,0.218,0.379,0.342,0.562c0.127,0.19,0.27,0.371,0.408,0.554
		c0.115,0.155,0.222,0.312,0.344,0.461c0.254,0.312,0.524,0.609,0.807,0.894c0.018,0.019,0.031,0.036,0.048,0.053
		c0.019,0.021,0.042,0.036,0.06,0.056c0.282,0.278,0.577,0.545,0.884,0.798c0.15,0.122,0.307,0.229,0.459,0.344
		c0.184,0.138,0.365,0.279,0.556,0.408c0.181,0.12,0.37,0.226,0.556,0.335c0.176,0.107,0.348,0.217,0.528,0.313
		c0.189,0.104,0.384,0.188,0.578,0.278c0.188,0.09,0.373,0.183,0.566,0.262c0.189,0.079,0.382,0.142,0.573,0.21
		c0.207,0.074,0.41,0.153,0.62,0.217c0.191,0.057,0.383,0.1,0.576,0.148c0.215,0.055,0.428,0.113,0.648,0.158
		c0.222,0.045,0.448,0.07,0.671,0.103c0.192,0.029,0.38,0.064,0.574,0.085c0.427,0.041,0.852,0.063,1.277,0.063h774.193
		c7.126,0,12.903-5.775,12.903-12.903V141.936C800,134.808,794.223,129.032,787.097,129.032z M280.091,409.125
		c5.039-5.041,5.039-13.209,0-18.249l-63.993-63.995h558.095v146.236H216.098L280.091,409.125z M252.721,400L25.807,626.914V173.087
		L252.721,400z M44.055,645.161l146.236-146.236h583.902v146.236H44.055z"/>
	<path d="M538.494,348.387h-67.097c-7.126,0-12.903,5.775-12.903,12.903V407c0,27.632,27.509,40.866,43.763,44.329
		c0.887,0.189,1.788,0.284,2.689,0.284s1.803-0.095,2.688-0.284c16.255-3.463,43.763-16.697,43.763-44.329v-45.709
		C551.397,354.163,545.621,348.387,538.494,348.387z M525.592,407c0,10.698-14.469,16.386-20.646,18.325
		c-6.177-1.939-20.646-7.629-20.646-18.325v-32.807h41.291V407z"/>
</g>
</svg>
