<?xml version="1.0" encoding="utf-8"?>
<!-- Generator: Adobe Illustrator 16.0.0, SVG Export Plug-In . SVG Version: 6.00 Build 0)  -->
<!DOCTYPE svg PUBLIC "-//W3C//DTD SVG 1.1//EN" "http://www.w3.org/Graphics/SVG/1.1/DTD/svg11.dtd">
<svg version="1.1" id="Capa_1" xmlns="http://www.w3.org/2000/svg" xmlns:xlink="http://www.w3.org/1999/xlink" x="0px" y="0px"
	 width="800px" height="800px" viewBox="0 0 800 800" enable-background="new 0 0 800 800" xml:space="preserve">
<g>
	<path fill="#3DB4EA" d="M644.161,659.063v-1c0-6.563-5.34-11.903-11.903-11.903H92.418l-0.316-1.948l683.092-227.698v229.646
		h-91.322c-6.563,0-11.903,5.34-11.903,11.903v1H644.161z"/>
	<path fill="#3DB4EA" d="M683.871,645.159h90.322V417.9L92.418,645.159h539.84c7.128,0,12.903,5.775,12.903,12.903h25.807
		C670.968,650.937,676.743,645.159,683.871,645.159z"/>
	<polygon fill="#134923" points="92.102,155.786 92.418,153.837 775.193,153.837 775.193,383.483 	"/>
	<polygon fill="#134923" points="774.193,382.096 774.193,154.837 92.418,154.837 	"/>
	<path fill="#ED1F34" d="M25.807,159.836V640.16l720.486-240.162L25.807,159.836z M206.619,499.67
		c0,7.128-5.776,12.903-12.903,12.903c-7.128,0-12.903-5.775-12.903-12.903v-5.117c-52.272-6.388-92.9-51.018-92.9-104.985
		c0-46.851,31.425-88.645,76.418-101.636c6.842-1.972,14.001,1.972,15.976,8.819c1.975,6.848-1.972,13.999-8.819,15.976
		c-34.015,9.818-57.769,41.417-57.769,76.841c0,39.716,29.099,72.75,67.093,78.94v-33.176l-22.803-22.803
		c-5.039-5.04-5.039-13.209,0-18.248c5.041-5.037,13.209-5.037,18.249,0l4.553,4.552v-9.691v-0.018v-40.843
		c0-7.128,5.775-12.903,12.903-12.903c7.128,0,12.903,5.775,12.903,12.903v9.7l4.552-4.552c5.041-5.038,13.209-5.038,18.249,0
		c5.04,5.041,5.04,13.209,0,18.249l-22.802,22.803v35.498c0,0.005,0,0.012,0,0.012v38.519c37.994-6.189,67.091-39.224,67.091-78.94
		c0-35.423-23.755-67.022-57.767-76.841c-6.846-1.977-10.794-9.13-8.819-15.976c1.977-6.848,9.141-10.789,15.976-8.819
		c44.993,12.991,76.416,54.785,76.416,101.636c0,53.968-40.627,98.598-92.897,104.986v5.115H206.619z"/>
	<path d="M787.097,129.03H13.199c-0.046,0-0.091,0-0.138,0h-0.158c-0.072,0-0.14,0.009-0.212,0.011
		c-0.34,0.005-0.681,0.019-1.017,0.051c-0.125,0.012-0.25,0.033-0.375,0.048c-0.287,0.036-0.575,0.076-0.858,0.131
		c-0.169,0.033-0.334,0.074-0.501,0.113c-0.234,0.055-0.466,0.11-0.697,0.179c-0.194,0.057-0.383,0.124-0.573,0.189
		c-0.198,0.069-0.396,0.138-0.59,0.217c-0.198,0.079-0.391,0.169-0.583,0.256c-0.184,0.086-0.368,0.17-0.549,0.265
		s-0.358,0.198-0.535,0.299c-0.186,0.108-0.372,0.218-0.554,0.337c-0.155,0.102-0.305,0.208-0.454,0.314
		c-0.195,0.14-0.384,0.279-0.571,0.427c-0.127,0.104-0.25,0.21-0.372,0.316c-0.194,0.169-0.385,0.339-0.571,0.518
		c-0.106,0.105-0.21,0.213-0.313,0.322c-0.183,0.191-0.363,0.385-0.535,0.588c-0.102,0.119-0.194,0.244-0.291,0.367
		c-0.157,0.199-0.312,0.399-0.456,0.609c-0.107,0.153-0.203,0.311-0.303,0.47c-0.119,0.188-0.236,0.373-0.346,0.569
		c-0.117,0.208-0.22,0.423-0.325,0.638c-0.076,0.157-0.157,0.312-0.228,0.472c-0.117,0.265-0.218,0.538-0.318,0.813
		c-0.036,0.102-0.083,0.196-0.117,0.299c-0.009,0.028-0.014,0.055-0.022,0.083c-0.089,0.273-0.162,0.554-0.232,0.836
		c-0.038,0.146-0.081,0.292-0.114,0.438c-0.046,0.215-0.078,0.434-0.112,0.652c-0.036,0.222-0.078,0.444-0.102,0.666
		c-0.016,0.145-0.019,0.294-0.031,0.44c-0.022,0.294-0.043,0.588-0.045,0.883c0,0.029-0.003,0.057-0.003,0.084v516.129
		c0,0.028,0.003,0.056,0.003,0.083c0.002,0.292,0.022,0.587,0.045,0.883c0.01,0.146,0.015,0.294,0.031,0.44
		c0.024,0.222,0.065,0.443,0.102,0.665c0.036,0.219,0.065,0.438,0.112,0.652c0.033,0.146,0.076,0.293,0.114,0.438
		c0.07,0.282,0.143,0.563,0.232,0.837c0.009,0.027,0.014,0.055,0.022,0.082c0.014,0.043,0.038,0.079,0.052,0.122
		c0.201,0.583,0.44,1.147,0.719,1.689c0.027,0.054,0.05,0.11,0.079,0.164c0.278,0.522,0.599,1.019,0.944,1.496
		c0.086,0.121,0.174,0.237,0.265,0.354c0.349,0.449,0.719,0.879,1.123,1.276c0.074,0.072,0.153,0.138,0.229,0.209
		c0.378,0.355,0.778,0.686,1.196,0.994c0.086,0.062,0.168,0.129,0.254,0.189c0.479,0.335,0.982,0.635,1.505,0.903
		c0.088,0.044,0.176,0.084,0.263,0.127c0.521,0.251,1.058,0.477,1.616,0.659c0.024,0.008,0.05,0.019,0.074,0.027
		c0.556,0.177,1.132,0.308,1.719,0.409c0.143,0.025,0.286,0.045,0.43,0.065c0.542,0.074,1.091,0.124,1.65,0.129
		c0.042,0,0.081,0.011,0.122,0.011c0.014,0,0.028-0.004,0.042-0.004h619.315c7.128,0,12.903-5.775,12.903-12.903
		s-5.775-12.903-12.903-12.903H92.418L774.193,417.9v227.259h-90.322c-7.128,0-12.903,5.775-12.903,12.903
		s5.775,12.903,12.903,12.903h103.226c7.128,0,12.903-5.775,12.903-12.903V141.934C800,134.808,794.225,129.03,787.097,129.03z
		 M774.193,382.096L92.418,154.837h681.775V382.096z M25.807,159.836l720.486,240.162L25.807,640.16V159.836z"/>
	<path fill="#F2A643" d="M193.719,513.571c-7.667,0-13.903-6.237-13.903-13.903v-4.234c-53.024-6.924-92.9-52.28-92.9-105.868
		c0-47.293,31.722-89.482,77.141-102.597c1.259-0.363,2.556-0.547,3.855-0.547c6.158,0,11.651,4.132,13.358,10.049
		c2.125,7.365-2.138,15.087-9.502,17.214c-33.588,9.696-57.046,40.899-57.046,75.88c0,38.521,27.305,71.034,65.093,77.756v-31.576
		l-22.51-22.51c-5.42-5.42-5.42-14.241,0-19.663c2.626-2.625,6.118-4.071,9.831-4.071s7.205,1.446,9.832,4.071l2.845,2.846V348.28
		c0-7.666,6.237-13.903,13.903-13.903c7.667,0,13.903,6.237,13.903,13.903v7.286l2.845-2.845c2.626-2.625,6.117-4.071,9.831-4.071
		s7.205,1.446,9.832,4.071c5.42,5.42,5.42,14.241,0,19.663l-22.509,22.509v72.43c37.787-6.722,65.091-39.235,65.091-77.756
		c0-34.982-23.458-66.185-57.044-75.88c-7.365-2.126-11.627-9.849-9.502-17.214c1.708-5.917,7.202-10.049,13.36-10.049
		c1.298,0,2.595,0.184,3.853,0.546c45.419,13.114,77.14,55.304,77.14,102.597c0,53.588-39.873,98.944-92.895,105.866v4.234
		C207.622,507.334,201.385,513.571,193.719,513.571z"/>
	<path fill="#F2A643" d="M299.517,389.567c0-46.851-31.424-88.645-76.417-101.636c-6.837-1.97-13.999,1.972-15.976,8.819
		c-1.975,6.846,1.971,13.999,8.819,15.976c34.013,9.818,57.767,41.417,57.767,76.841c0,39.716-29.098,72.75-67.091,78.94v-38.514
		c0,0,0-0.013,0-0.018v-35.498l22.802-22.802c5.039-5.041,5.039-13.209,0-18.249c-5.041-5.038-13.209-5.038-18.249,0l-4.552,4.552
		v-9.7c0-7.127-5.775-12.903-12.903-12.903c-7.127,0-12.903,5.775-12.903,12.903v40.843v0.017v9.691l-4.552-4.552
		c-5.041-5.038-13.209-5.038-18.249,0c-5.039,5.041-5.039,13.209,0,18.249l22.803,22.803v33.175
		c-37.994-6.19-67.093-39.224-67.093-78.94c0-35.423,23.756-67.022,57.769-76.841c6.846-1.977,10.794-9.13,8.819-15.976
		c-1.975-6.846-9.135-10.791-15.976-8.819c-44.993,12.991-76.418,54.785-76.418,101.636c0,53.969,40.628,98.598,92.9,104.986v5.116
		c0,7.128,5.775,12.903,12.903,12.903s12.903-5.775,12.903-12.903v-5.116C258.889,488.165,299.517,443.534,299.517,389.567z"/>
</g>
</svg>
