<?xml version="1.0" encoding="utf-8"?>
<!-- Generator: Adobe Illustrator 16.0.0, SVG Export Plug-In . SVG Version: 6.00 Build 0)  -->
<!DOCTYPE svg PUBLIC "-//W3C//DTD SVG 1.1//EN" "http://www.w3.org/Graphics/SVG/1.1/DTD/svg11.dtd">
<svg version="1.1" id="Capa_1" xmlns="http://www.w3.org/2000/svg" xmlns:xlink="http://www.w3.org/1999/xlink" x="0px" y="0px"
	 width="800px" height="800px" viewBox="0 0 800 800" enable-background="new 0 0 800 800" xml:space="preserve">
<g>
	<path fill="#FFE000" d="M582.677,474.118l0.546-1.37c9.232-23.172,13.914-47.647,13.914-72.748s-4.682-49.576-13.914-72.748
		l-0.546-1.37h192.517v148.236H582.677z"/>
	<path fill="#FFE000" d="M774.193,326.882H584.151c9.019,22.634,13.985,47.307,13.985,73.118s-4.967,50.484-13.985,73.118h190.042
		V326.882z"/>
	<path fill="#FFE000" d="M76.419,487.021v-1c0-6.563-5.34-11.903-11.903-11.903H24.807V325.882h192.519l-0.546,1.37
		c-9.233,23.172-13.915,47.648-13.915,72.748s4.682,49.575,13.915,72.748l0.546,1.37H116.129c-6.563,0-11.903,5.34-11.903,11.903v1
		H76.419z"/>
	<path fill="#FFE000" d="M116.129,473.118h99.722c-9.019-22.634-13.986-47.307-13.986-73.118s4.967-50.484,13.986-73.118H25.807
		v146.236h38.709c7.126,0,12.903,5.775,12.903,12.903h25.806C103.226,478.894,109.003,473.118,116.129,473.118z"/>
	<path fill="#ED1F34" d="M24.807,646.161V497.925h39.709c6.563,0,11.903-5.34,11.903-11.903v-1h27.806v1
		c0,6.563,5.34,11.903,11.903,11.903h112.825l0.289,0.499c35.233,60.889,100.664,98.713,170.757,98.713
		c70.093,0,135.523-37.824,170.758-98.713l0.288-0.499h204.147v148.236H24.807z"/>
	<path fill="#ED1F34" d="M571.623,498.925c-34.29,59.257-98.377,99.212-171.623,99.212c-73.245,0-137.333-39.955-171.623-99.212
		H116.129c-7.126,0-12.903-5.775-12.903-12.903H77.419c0,7.128-5.777,12.903-12.903,12.903H25.807v146.236h748.387V498.925H571.623z
		"/>
	<path fill="#259245" d="M571.046,302.075l-0.288-0.499C535.525,240.688,470.095,202.863,400,202.863
		c-70.095,0-135.525,37.825-170.757,98.713l-0.289,0.499H24.807V153.839h750.387v148.236H571.046z"/>
	<path fill="#259245" d="M228.377,301.075c34.288-59.257,98.376-99.212,171.623-99.212s137.335,39.955,171.623,99.212h202.57
		V154.839H25.807v146.236H228.377z"/>
	<path d="M787.097,129.032H12.903C5.777,129.032,0,134.808,0,141.936v516.129c0,7.128,5.777,12.903,12.903,12.903h774.193
		c7.128,0,12.903-5.775,12.903-12.903V141.936C800,134.808,794.225,129.032,787.097,129.032z M774.193,154.839v146.236h-202.57
		c-34.29-59.257-98.377-99.212-171.623-99.212c-73.245,0-137.333,39.955-171.623,99.212H25.807V154.839H774.193z M400,572.33
		c-95.022,0-172.33-77.308-172.33-172.33c0-95.023,77.308-172.33,172.33-172.33S572.33,304.977,572.33,400
		C572.33,495.022,495.022,572.33,400,572.33z M598.137,400c0-25.812-4.967-50.484-13.985-73.118h190.042v146.236H584.151
		C593.17,450.484,598.137,425.812,598.137,400z M25.807,645.161V498.925h38.709c7.126,0,12.903-5.775,12.903-12.903
		s-5.777-12.903-12.903-12.903H25.807V326.882h190.044c-9.019,22.634-13.986,47.307-13.986,73.118s4.967,50.484,13.986,73.118
		h-99.722c-7.126,0-12.903,5.775-12.903,12.903s5.777,12.903,12.903,12.903h112.248c34.288,59.257,98.376,99.212,171.623,99.212
		s137.335-39.955,171.623-99.212h202.57v146.236H25.807z"/>
	<polygon fill="#164FCE" points="411.076,347.408 400,313.318 388.924,347.408 	"/>
	<polygon fill="#164FCE" points="450.95,470.128 439.874,436.038 421.953,449.06 	"/>
	<polygon fill="#164FCE" points="482.439,373.215 446.596,373.215 453.441,394.283 	"/>
	<polygon fill="#164FCE" points="353.404,373.215 317.563,373.215 346.559,394.283 	"/>
	<polygon fill="#164FCE" points="378.047,449.06 360.126,436.038 349.048,470.13 	"/>
	<polygon fill="#164FCE" points="419.462,373.215 380.538,373.215 368.511,410.231 400,433.109 431.489,410.231 	"/>
	<path fill="#164FCE" d="M400,573.33c-95.575,0-173.33-77.756-173.33-173.33c0-95.575,77.755-173.33,173.33-173.33
		c95.574,0,173.33,77.755,173.33,173.33C573.33,495.574,495.574,573.33,400,573.33z M400,486.066
		c-6.563,0-11.903,5.34-11.903,11.903v30.467c0,6.563,5.34,11.903,11.903,11.903c6.562,0,11.901-5.34,11.903-11.903V497.97
		C411.903,491.406,406.563,486.066,400,486.066z M277.85,348.406c-5.173,0-9.723,3.306-11.321,8.226
		c-1.599,4.92,0.139,10.269,4.324,13.308l68.496,49.768l-26.163,80.523c-1.599,4.921,0.139,10.269,4.324,13.308
		c2.048,1.488,4.467,2.274,6.997,2.274s4.949-0.786,6.996-2.273L400,463.771l68.498,49.769c2.047,1.487,4.466,2.273,6.995,2.273
		c2.53,0,4.95-0.786,6.997-2.273c4.186-3.04,5.924-8.388,4.324-13.308l-26.165-80.524l68.499-49.768
		c4.186-3.04,5.923-8.387,4.324-13.308s-6.147-8.226-11.32-8.226h-84.668l-26.164-80.522c-1.6-4.92-6.148-8.226-11.32-8.226
		c-5.174,0-9.723,3.306-11.32,8.226l-26.164,80.522H277.85z M493.179,418.373c-5.175,0-9.726,3.306-11.322,8.226
		c-0.983,3.023-0.729,6.248,0.714,9.081s3.903,4.935,6.927,5.917l28.976,9.416c1.197,0.389,2.437,0.586,3.682,0.586
		c5.172,0,9.72-3.307,11.316-8.229c0.983-3.024,0.729-6.249-0.714-9.082s-3.903-4.934-6.927-5.915l-28.976-9.416
		C495.66,418.569,494.423,418.373,493.179,418.373z M306.828,418.366c-1.246,0-2.484,0.197-3.682,0.587l-28.976,9.417
		c-3.024,0.982-5.485,3.083-6.928,5.915c-1.443,2.833-1.696,6.058-0.712,9.08c1.598,4.923,6.146,8.23,11.317,8.23
		c1.245,0,2.483-0.197,3.681-0.587l28.975-9.415c3.024-0.982,5.485-3.084,6.928-5.916c1.443-2.833,1.697-6.059,0.714-9.083
		C316.547,421.673,311.998,418.366,306.828,418.366z M475.504,284.188c-3.804,0-7.406,1.834-9.639,4.907l-17.91,24.649
		c-1.869,2.572-2.624,5.718-2.127,8.858s2.188,5.899,4.761,7.768c2.048,1.489,4.463,2.276,6.985,2.276
		c3.803,0,7.406-1.835,9.639-4.909l17.91-24.648c1.869-2.572,2.625-5.719,2.128-8.858c-0.497-3.14-2.188-5.899-4.761-7.768
		C480.442,284.975,478.026,284.188,475.504,284.188z M324.497,284.187c-2.522,0-4.938,0.787-6.985,2.275
		c-5.31,3.859-6.491,11.318-2.634,16.627l17.907,24.648c2.233,3.074,5.837,4.909,9.641,4.909c2.522,0,4.938-0.787,6.985-2.276
		c5.311-3.858,6.493-11.317,2.636-16.626l-17.908-24.649C331.905,286.022,328.301,284.187,324.497,284.187z"/>
	<path fill="#164FCE" d="M400,227.67c-95.022,0-172.33,77.307-172.33,172.33c0,95.022,77.308,172.33,172.33,172.33
		S572.33,495.022,572.33,400C572.33,304.977,495.022,227.67,400,227.67z M483.078,285.653c5.767,4.189,7.043,12.258,2.854,18.023
		l-17.909,24.648c-2.525,3.477-6.46,5.321-10.448,5.321c-2.631,0-5.283-0.802-7.573-2.467c-5.767-4.189-7.044-12.258-2.854-18.023
		l17.91-24.649C469.247,282.739,477.316,281.468,483.078,285.653z M314.068,303.677c-4.189-5.767-2.909-13.834,2.855-18.023
		c5.767-4.192,13.836-2.909,18.023,2.854l17.908,24.649c4.188,5.767,2.909,13.834-2.856,18.023c-2.29,1.666-4.944,2.467-7.573,2.467
		c-3.989,0-7.924-1.844-10.45-5.321L314.068,303.677z M273.861,427.419l28.976-9.417c6.776-2.203,14.058,1.506,16.26,8.284
		c2.202,6.777-1.505,14.057-8.284,16.259l-28.975,9.415c-1.325,0.431-2.668,0.636-3.99,0.636c-5.44,0-10.498-3.467-12.268-8.921
		C263.374,436.898,267.083,429.621,273.861,427.419z M400,541.34c-7.128,0-12.903-5.776-12.903-12.903V497.97
		c0-7.126,5.777-12.903,12.903-12.903c7.128,0,12.903,5.777,12.903,12.903v30.467C412.901,535.563,407.126,541.34,400,541.34z
		 M487.766,499.923c1.728,5.315-0.165,11.142-4.688,14.426c-4.523,3.286-10.646,3.286-15.168,0L400,465.008l-67.91,49.341
		c-2.261,1.643-4.923,2.465-7.584,2.465s-5.323-0.822-7.584-2.465c-4.522-3.284-6.415-9.11-4.688-14.426l25.938-79.833
		l-67.907-49.341c-4.523-3.284-6.416-9.109-4.688-14.426c1.727-5.317,6.682-8.917,12.272-8.917h83.939l25.939-79.831
		c1.727-5.318,6.682-8.917,12.271-8.917c5.592,0,10.543,3.599,12.271,8.917l25.939,79.831h83.941c5.59,0,10.544,3.6,12.271,8.917
		c1.728,5.316-0.165,11.142-4.688,14.426l-67.911,49.341L487.766,499.923z M534.422,443.679c-1.77,5.453-6.83,8.92-12.268,8.92
		c-1.323,0-2.667-0.205-3.99-0.635l-28.976-9.416c-6.776-2.202-10.487-9.482-8.283-16.258c2.2-6.778,9.489-10.481,16.258-8.284
		l28.976,9.416C532.915,429.622,536.625,436.901,534.422,443.679z"/>
	<path fill="#FFE000" d="M342.426,333.646c2.629,0,5.283-0.802,7.573-2.467c5.766-4.189,7.044-12.256,2.856-18.023l-17.908-24.648
		c-4.189-5.766-12.257-7.047-18.023-2.854c-5.765,4.189-7.043,12.256-2.855,18.023l17.907,24.648
		C334.5,331.8,338.435,333.646,342.426,333.646z"/>
	<path fill="#FFE000" d="M277.846,452.596c1.321,0,2.665-0.205,3.99-0.635l28.976-9.416c6.776-2.202,10.485-9.481,8.283-16.259
		c-2.202-6.778-9.482-10.489-16.26-8.284l-28.975,9.417c-6.777,2.202-10.486,9.48-8.284,16.258
		C267.348,449.13,272.406,452.596,277.846,452.596z"/>
	<path fill="#FFE000" d="M412.903,497.97c0-7.126-5.775-12.903-12.903-12.903c-7.126,0-12.903,5.777-12.903,12.903v30.467
		c0,7.127,5.775,12.903,12.903,12.903c7.126,0,12.903-5.776,12.903-12.903V497.97z"/>
	<path fill="#FFE000" d="M526.137,427.42l-28.976-9.416c-6.77-2.195-14.058,1.506-16.258,8.284
		c-2.202,6.775,1.507,14.056,8.284,16.258l28.975,9.416c1.325,0.431,2.669,0.635,3.99,0.635c5.438,0,10.498-3.467,12.269-8.92
		C536.625,436.901,532.915,429.622,526.137,427.42z"/>
	<path fill="#FFE000" d="M447.145,313.156c-4.188,5.765-2.91,13.834,2.854,18.023c2.29,1.666,4.942,2.467,7.573,2.467
		c3.988,0,7.923-1.844,10.448-5.321l17.91-24.648c4.188-5.766,2.911-13.834-2.854-18.023c-5.762-4.188-13.83-2.915-18.023,2.854
		L447.145,313.156z"/>
	<path fill="#FFE000" d="M529.736,370.749c4.522-3.284,6.415-9.109,4.688-14.426c-1.727-5.317-6.682-8.917-12.271-8.917h-83.941
		l-25.939-79.831c-1.729-5.318-6.682-8.917-12.271-8.917s-10.545,3.599-12.271,8.917l-25.939,79.831H277.85
		c-5.59,0-10.544,3.6-12.272,8.917c-1.727,5.316,0.165,11.142,4.688,14.426l67.907,49.341l-25.938,79.833
		c-1.728,5.315,0.165,11.142,4.688,14.426c2.261,1.643,4.923,2.465,7.584,2.465s5.323-0.822,7.584-2.465L400,465.008l67.91,49.341
		c4.523,3.286,10.646,3.286,15.168,0c4.522-3.284,6.415-9.11,4.688-14.426l-25.938-79.833L529.736,370.749z M482.439,373.215
		l-28.998,21.068l-6.846-21.068H482.439z M439.874,436.038l11.076,34.089l-28.997-21.069L439.874,436.038z M400,313.318
		l11.076,34.088h-22.152L400,313.318z M378.047,449.06l-28.999,21.07l11.076-34.09L378.047,449.06z M317.563,373.215h35.842
		l-6.846,21.068L317.563,373.215z M368.511,410.231l12.027-37.019h38.924l12.027,37.019L400,433.109L368.511,410.231z"/>
</g>
</svg>
