<?xml version="1.0" encoding="utf-8"?>
<!-- Generator: Adobe Illustrator 16.0.0, SVG Export Plug-In . SVG Version: 6.00 Build 0)  -->
<!DOCTYPE svg PUBLIC "-//W3C//DTD SVG 1.1//EN" "http://www.w3.org/Graphics/SVG/1.1/DTD/svg11.dtd">
<svg version="1.1" id="Capa_1" xmlns="http://www.w3.org/2000/svg" xmlns:xlink="http://www.w3.org/1999/xlink" x="0px" y="0px"
	 width="800px" height="800px" viewBox="0 0 800 800" enable-background="new 0 0 800 800" xml:space="preserve">
<g>
	<path fill="#103B9B" d="M24.807,646.161v-91.322c0-6.563-5.34-11.903-11.903-11.903h-1v-27.807h1
		c6.563,0,11.903-5.34,11.903-11.903V153.839h750.387v492.322H24.807z M400,530.032c-13.678,0-24.807,11.128-24.807,24.807
		s11.128,24.807,24.807,24.807c13.679,0,24.807-11.128,24.807-24.807S413.679,530.032,400,530.032z M477.396,509.282
		c-4.328,0-8.608,1.151-12.38,3.329c-5.738,3.313-9.843,8.662-11.558,15.063s-0.834,13.085,2.479,18.823
		c4.419,7.653,12.659,12.407,21.507,12.407c4.327,0,8.607-1.15,12.378-3.328c5.738-3.313,9.843-8.662,11.558-15.063
		s0.835-13.085-2.479-18.823C494.483,514.037,486.242,509.282,477.396,509.282z M322.604,509.282
		c-8.847,0-17.088,4.755-21.506,12.408c-3.314,5.738-4.194,12.423-2.479,18.823c1.715,6.4,5.82,11.75,11.558,15.063
		c3.77,2.178,8.05,3.328,12.378,3.328c8.847,0,17.088-4.754,21.507-12.407c3.314-5.738,4.194-12.424,2.479-18.824
		c-1.715-6.399-5.819-11.749-11.557-15.062C331.213,510.434,326.933,509.282,322.604,509.282z M534.116,452.608
		c-8.847,0-17.087,4.755-21.505,12.408c-3.313,5.738-4.193,12.424-2.479,18.824s5.819,11.749,11.558,15.061
		c3.771,2.178,8.053,3.329,12.381,3.329c8.847,0,17.087-4.755,21.505-12.408c6.839-11.846,2.766-27.047-9.079-33.885
		C542.726,453.76,538.445,452.608,534.116,452.608z M265.883,452.608c-4.328,0-8.609,1.151-12.38,3.329
		c-5.738,3.312-9.842,8.66-11.557,15.061s-0.835,13.086,2.478,18.824c4.418,7.653,12.658,12.408,21.505,12.408
		c4.328,0,8.609-1.151,12.38-3.329c5.738-3.312,9.842-8.66,11.557-15.061s0.835-13.086-2.478-18.824
		C282.97,457.363,274.73,452.608,265.883,452.608z M554.839,375.193c-13.679,0-24.807,11.128-24.807,24.807
		c0,13.679,11.128,24.807,24.807,24.807s24.807-11.128,24.807-24.807C579.646,386.322,568.518,375.193,554.839,375.193z
		 M245.161,375.193c-13.678,0-24.806,11.128-24.806,24.807c0,13.679,11.128,24.807,24.806,24.807s24.807-11.128,24.807-24.807
		C269.968,386.322,258.839,375.193,245.161,375.193z M534.07,297.77c-4.328,0-8.608,1.151-12.38,3.329
		c-5.738,3.312-9.843,8.661-11.558,15.061c-1.715,6.4-0.835,13.086,2.479,18.825c4.418,7.653,12.658,12.408,21.506,12.408
		c4.328,0,8.608-1.151,12.38-3.329c5.737-3.312,9.842-8.661,11.557-15.061c1.716-6.4,0.835-13.086-2.478-18.825
		C551.158,302.524,542.918,297.77,534.07,297.77z M265.928,297.77c-8.847,0-17.087,4.754-21.505,12.408
		c-3.313,5.739-4.193,12.424-2.478,18.825c1.715,6.4,5.819,11.749,11.557,15.061c3.771,2.178,8.052,3.329,12.38,3.329
		c8.847,0,17.087-4.754,21.505-12.408c6.838-11.846,2.766-27.047-9.079-33.885C274.537,298.92,270.256,297.77,265.928,297.77z
		 M477.444,241.095c-8.848,0-17.089,4.754-21.507,12.408c-3.313,5.738-4.194,12.423-2.479,18.823s5.819,11.75,11.558,15.063
		c3.771,2.178,8.052,3.329,12.38,3.329c8.847,0,17.088-4.754,21.506-12.408c3.313-5.738,4.194-12.423,2.479-18.823
		c-1.716-6.4-5.82-11.75-11.559-15.063C486.052,242.246,481.771,241.095,477.444,241.095z M322.556,241.094
		c-4.328,0-8.608,1.151-12.378,3.329c-5.738,3.313-9.843,8.662-11.558,15.063c-1.715,6.401-0.835,13.085,2.479,18.822
		c4.418,7.654,12.659,12.408,21.506,12.408c4.328,0,8.609-1.151,12.38-3.329c5.738-3.312,9.842-8.661,11.557-15.061
		s0.834-13.085-2.479-18.824C339.644,245.848,331.403,241.094,322.556,241.094z M400,220.355c-13.678,0-24.807,11.128-24.807,24.806
		c0,13.679,11.128,24.807,24.807,24.807c13.679,0,24.807-11.128,24.807-24.807C424.807,231.483,413.679,220.355,400,220.355z"/>
	<path fill="#103B9B" d="M25.807,554.839v90.322h748.387V154.839H25.807v348.387c0,7.128-5.777,12.903-12.903,12.903v25.807
		C20.029,541.936,25.807,547.711,25.807,554.839z M278.81,499.768c-12.342,7.128-28.126,2.899-35.252-9.445
		c-7.126-12.344-2.897-28.127,9.445-35.251c12.342-7.128,28.125-2.899,35.252,9.445C295.381,476.86,291.152,492.644,278.81,499.768z
		 M580.646,400c0,14.252-11.555,25.807-25.807,25.807S529.032,414.252,529.032,400s11.555-25.807,25.807-25.807
		S580.646,385.748,580.646,400z M521.19,300.232c12.343-7.128,28.126-2.899,35.252,9.445c7.126,12.344,2.896,28.127-9.445,35.252
		c-12.343,7.127-28.126,2.899-35.252-9.445S508.848,307.356,521.19,300.232z M511.745,464.517
		c7.126-12.345,22.909-16.573,35.252-9.445c12.343,7.126,16.571,22.907,9.445,35.251c-7.126,12.345-22.909,16.573-35.252,9.445
		C508.848,492.644,504.619,476.86,511.745,464.517z M455.071,253.003c7.126-12.342,22.909-16.573,35.251-9.445
		c12.343,7.126,16.573,22.909,9.445,35.252c-7.126,12.344-22.909,16.573-35.252,9.445
		C452.174,281.129,447.943,265.345,455.071,253.003z M464.516,511.745c12.343-7.128,28.126-2.898,35.252,9.445
		c7.126,12.343,2.897,28.126-9.445,35.252c-12.342,7.128-28.125,2.896-35.251-9.445
		C447.943,534.654,452.174,518.871,464.516,511.745z M400,219.355c14.252,0,25.807,11.554,25.807,25.806
		S414.252,270.968,400,270.968s-25.807-11.555-25.807-25.807S385.748,219.355,400,219.355z M400,529.032
		c14.252,0,25.807,11.555,25.807,25.807S414.252,580.646,400,580.646s-25.807-11.555-25.807-25.807S385.748,529.032,400,529.032z
		 M309.678,243.556c12.342-7.128,28.125-2.897,35.251,9.445c7.126,12.344,2.897,28.127-9.444,35.251
		c-12.343,7.128-28.126,2.899-35.252-9.445C293.104,266.467,297.335,250.682,309.678,243.556z M300.232,521.19
		c7.126-12.344,22.909-16.573,35.252-9.445c12.342,7.126,16.572,22.908,9.444,35.252c-7.126,12.342-22.909,16.573-35.251,9.445
		C297.335,549.316,293.104,533.533,300.232,521.19z M243.556,309.677c7.126-12.344,22.909-16.573,35.251-9.445
		c12.342,7.126,16.571,22.907,9.445,35.251s-22.909,16.573-35.251,9.445C240.659,337.805,236.43,322.021,243.556,309.677z
		 M245.161,374.193c14.252,0,25.807,11.555,25.807,25.807s-11.555,25.807-25.807,25.807S219.355,414.252,219.355,400
		S230.909,374.193,245.161,374.193z"/>
	<circle fill="#FFE000" cx="400" cy="245.161" r="25.806"/>
	<circle fill="#FFE000" cx="322.581" cy="265.906" r="25.807"/>
	<circle fill="#FFE000" cx="265.906" cy="322.581" r="25.806"/>
	<circle fill="#FFE000" cx="245.161" cy="400" r="25.807"/>
	<circle fill="#FFE000" cx="265.906" cy="477.419" r="25.806"/>
	<circle fill="#FFE000" cx="322.581" cy="534.094" r="25.807"/>
	<circle fill="#FFE000" cx="400" cy="554.839" r="25.807"/>
	<circle fill="#FFE000" cx="477.419" cy="534.094" r="25.807"/>
	<circle fill="#FFE000" cx="534.094" cy="477.419" r="25.806"/>
	<circle fill="#FFE000" cx="554.839" cy="400" r="25.807"/>
	<circle fill="#FFE000" cx="534.094" cy="322.581" r="25.806"/>
	<circle fill="#FFE000" cx="477.419" cy="265.906" r="25.807"/>
	<path d="M787.097,129.032H12.903C5.777,129.032,0,134.808,0,141.936v361.29c0,7.128,5.777,12.903,12.903,12.903
		s12.903-5.775,12.903-12.903V154.839h748.387v490.322H25.807v-90.322c0-7.128-5.777-12.903-12.903-12.903S0,547.711,0,554.839
		v103.226c0,7.128,5.777,12.903,12.903,12.903h774.193c7.128,0,12.903-5.775,12.903-12.903V141.936
		C800,134.808,794.225,129.032,787.097,129.032z"/>
</g>
</svg>
