<?xml version="1.0" encoding="utf-8"?>
<!-- Generator: Adobe Illustrator 16.0.0, SVG Export Plug-In . SVG Version: 6.00 Build 0)  -->
<!DOCTYPE svg PUBLIC "-//W3C//DTD SVG 1.1//EN" "http://www.w3.org/Graphics/SVG/1.1/DTD/svg11.dtd">
<svg version="1.1" id="Capa_1" xmlns="http://www.w3.org/2000/svg" xmlns:xlink="http://www.w3.org/1999/xlink" x="0px" y="0px"
	 width="800px" height="800px" viewBox="0 0 800 800" enable-background="new 0 0 800 800" xml:space="preserve">
<g>
	<polygon fill="#103B9B" points="317.839,154.839 241.291,154.839 241.291,205.872 	"/>
	<path fill="#103B9B" d="M76.419,659.064v-1c0-6.563-5.34-11.903-11.903-11.903H24.807V399h50.6l97.206-64.805V399h67.678v-64.805
		L337.497,399H399v-40.335l-80.787-53.858H399v-67.678h-80.787L399,183.271v-29.432h376.193v492.322H116.129
		c-6.563,0-11.903,5.34-11.903,11.903v1H76.419z M481.438,508.885c27.447,33.908,68.31,53.356,112.108,53.356
		c43.797,0,84.658-19.448,112.108-53.356l1.218-1.504l4.246,15.129c1.437,5.117,6.146,8.691,11.453,8.69
		c1.084,0,2.169-0.149,3.225-0.445c6.318-1.774,10.017-8.358,8.244-14.677l-11.375-40.541c-1.33-4.738-5.352-8.124-10.246-8.625
		c-0.405-0.042-0.815-0.063-1.221-0.063c-4.461,0-8.508,2.463-10.563,6.427c-20.827,40.19-61.861,65.157-107.088,65.157
		s-86.26-24.967-107.089-65.157c-2.055-3.964-6.103-6.426-10.566-6.426c-0.404,0-0.813,0.021-1.217,0.063
		c-4.895,0.502-8.916,3.888-10.245,8.625l-11.376,40.541c-1.772,6.318,1.925,12.904,8.242,14.679
		c1.053,0.295,2.137,0.445,3.22,0.445c5.309,0,10.021-3.573,11.457-8.69l4.246-15.131L481.438,508.885z M507.527,237.76
		c-6.563,0-11.903,5.34-11.903,11.903v146.829c0,15.835,2.365,30.825,7.031,44.556c0.175,0.615,0.344,1.103,0.532,1.539
		c7.79,21.925,21.234,40.5,39.984,55.272c23.251,18.316,46.539,24.219,47.52,24.461c0.936,0.23,1.897,0.348,2.857,0.348
		s1.921-0.117,2.857-0.348c0.979-0.242,24.268-6.145,47.519-24.461c18.68-14.715,32.095-33.208,39.875-54.965v-0.032l0.097-0.222
		c0.199-0.459,0.372-0.961,0.542-1.573c4.673-13.774,7.034-28.752,7.034-44.572V249.664c0-6.563-5.34-11.903-11.902-11.903H507.527z
		"/>
	<path fill="#103B9B" d="M116.129,645.161h658.064V154.839H400v28.967l-78.484,52.323H400v16.129v37.419v16.129h-78.484L400,358.13
		v14.551V400h-62.806l-95.904-63.937V400h-16.129h-37.419h-16.129v-63.937L75.709,400H54.773H25.807v245.161h38.709
		c7.126,0,12.903,5.777,12.903,12.903h25.806C103.226,650.938,109.003,645.161,116.129,645.161z M494.624,249.664
		c0-7.126,5.776-12.903,12.903-12.903H679.57c7.126,0,12.902,5.777,12.902,12.903v146.832c0,17.092-2.697,31.954-7.07,44.839
		c-0.162,0.583-0.353,1.165-0.603,1.736c0,0.001-0.002,0.003-0.003,0.005c-9.359,26.283-25.728,44.126-40.253,55.568
		c-23.422,18.451-46.911,24.402-47.898,24.646c-1.018,0.251-2.057,0.377-3.097,0.377c-1.041,0-2.079-0.126-3.098-0.377
		c-0.987-0.244-24.477-6.195-47.898-24.646c-14.541-11.456-30.93-29.327-40.283-55.661c-0.229-0.531-0.408-1.07-0.562-1.614
		c-4.382-12.896-7.084-27.77-7.084-44.877V249.664z M452.093,515.808l11.376-40.541c1.431-5.101,5.835-8.809,11.106-9.35
		c5.273-0.539,10.335,2.195,12.772,6.898c20.656,39.857,61.35,64.617,106.201,64.617s85.545-24.76,106.2-64.617
		c2.438-4.703,7.506-7.44,12.772-6.898c5.27,0.54,9.676,4.249,11.107,9.35l11.375,40.541c1.925,6.86-2.076,13.983-8.938,15.91
		c-6.866,1.925-13.983-2.076-15.91-8.938l-3.724-13.267c-27.272,33.689-68.397,53.728-112.886,53.728s-85.614-20.036-112.886-53.728
		l-3.724,13.269c-1.927,6.86-9.049,10.86-15.91,8.938C454.17,529.793,450.168,522.67,452.093,515.808z"/>
	<polygon fill="#103B9B" points="25.807,305.807 25.807,349.528 91.388,305.807 	"/>
	<polygon fill="#103B9B" points="25.807,192.408 25.807,236.129 91.388,236.129 	"/>
	<polygon fill="#103B9B" points="171.613,154.839 95.064,154.839 171.613,205.872 	"/>
	<polygon fill="#ED1F34" points="258.709,305.807 400,400 400,372.681 299.924,305.807 	"/>
	<polygon fill="#ED1F34" points="154.193,236.129 32.258,154.839 25.807,154.839 25.807,178.493 112.055,236.129 	"/>
	<polygon fill="#ED1F34" points="241.291,236.129 258.709,236.129 380.646,154.839 338.776,154.839 241.291,219.836 	"/>
	<polygon fill="#ED1F34" points="171.613,322.107 171.613,305.807 154.193,305.807 25.807,391.398 25.807,400 54.773,400 	"/>
	<polygon fill="#FFFFFF" points="225.161,289.677 225.161,400 241.291,400 241.291,336.063 337.194,400 400,400 258.709,305.807 
		299.924,305.807 400,372.681 400,358.13 321.516,305.807 400,305.807 400,289.677 	"/>
	<polygon fill="#FFFFFF" points="225.161,252.258 400,252.258 400,236.129 321.516,236.129 400,183.806 400,154.839 
		380.646,154.839 258.709,236.129 241.291,236.129 241.291,219.836 338.776,154.839 317.839,154.839 241.291,205.872 
		241.291,154.839 225.161,154.839 	"/>
	<polygon fill="#FFFFFF" points="187.742,252.258 187.742,154.839 171.613,154.839 171.613,205.872 95.064,154.839 32.258,154.839 
		154.193,236.129 112.055,236.129 25.807,178.493 25.807,192.408 91.388,236.129 25.807,236.129 25.807,252.258 	"/>
	<polygon fill="#FFFFFF" points="171.613,305.807 171.613,322.107 54.773,400 75.709,400 171.613,336.063 171.613,400 187.742,400 
		187.742,289.677 25.807,289.677 25.807,305.807 91.388,305.807 25.807,349.528 25.807,391.398 154.193,305.807 	"/>
	<polygon fill="#ED1F34" points="187.742,289.677 187.742,400 225.161,400 225.161,289.677 400,289.677 400,252.258 
		225.161,252.258 225.161,154.839 187.742,154.839 187.742,252.258 25.807,252.258 25.807,289.677 	"/>
	<path fill="#3DB4EA" d="M537.547,361.282c16.936,0,26.164,4.43,33.581,7.991c6.343,3.045,11.352,5.449,22.414,5.449
		c11.062,0,16.072-2.405,22.415-5.449c7.417-3.56,16.646-7.991,33.583-7.991c6.842,0,12.411,0.729,17.127,1.827V262.567H520.43
		v100.54C525.143,362.011,530.71,361.282,537.547,361.282z M549.001,303.678v-14.748c0-7.126,5.777-12.903,12.903-12.903
		s12.903,5.777,12.903,12.903v1.844h31.95c17.278,0,31.336,14.058,31.336,31.336v18.433c0,7.126-5.777,12.903-12.903,12.903h-44.854
		c-17.278,0-31.336-14.058-31.336-31.336L549.001,303.678L549.001,303.678z"/>
	<path fill="#103B9B" d="M593.538,434.838c-11.289,0-16.389-2.447-22.845-5.547c-7.325-3.518-16.438-7.894-33.15-7.894
		c-5.208,0-9.906,0.408-14.36,1.247l-0.958,0.181l-0.205-0.953c-1.719-7.999-2.591-16.536-2.591-25.375v-7.042l0.621-0.254
		c3.943-1.616,8.793-3.111,17.495-3.111c11.292,0,16.391,2.448,22.847,5.547c7.323,3.516,16.437,7.892,33.149,7.892
		c16.705,0,25.821-4.375,33.146-7.89c6.461-3.102,11.56-5.549,22.84-5.549c8.717,0,13.569,1.497,17.516,3.115l0.621,0.254v7.038
		c0,8.837-0.872,17.375-2.593,25.377l-0.205,0.953l-0.958-0.181c-4.453-0.841-9.154-1.249-14.371-1.249
		c-16.704,0-25.82,4.375-33.146,7.891C609.929,432.39,604.83,434.838,593.538,434.838z"/>
	<path fill="#103B9B" d="M627.124,392.539c-7.417,3.56-16.646,7.991-33.583,7.991c-16.936,0-26.166-4.43-33.582-7.991
		c-6.344-3.045-11.352-5.449-22.414-5.449c-7.894,0-12.703,1.229-17.116,3.037v6.371c0,9.151,0.925,17.518,2.568,25.165
		c4.095-0.771,8.858-1.265,14.546-1.265c16.935,0,26.164,4.43,33.581,7.991c6.344,3.045,11.352,5.449,22.414,5.449
		c11.064,0,16.072-2.404,22.415-5.449c7.417-3.56,16.647-7.991,33.583-7.991c5.693,0,10.459,0.493,14.557,1.267
		c1.645-7.649,2.57-16.016,2.57-25.167v-6.367c-4.416-1.81-9.227-3.04-17.127-3.04C638.478,387.088,633.468,389.493,627.124,392.539
		z"/>
	<path fill="#103B9B" d="M593.244,498.28c-10.054-3.221-44.259-16.443-62.307-51.364l-0.68-1.316l1.475-0.139
		c1.874-0.176,3.775-0.261,5.813-0.261c11.293,0,16.392,2.448,22.847,5.548c7.328,3.517,16.443,7.893,33.149,7.893
		c16.704,0,25.82-4.375,33.145-7.89c6.469-3.104,11.567-5.551,22.854-5.553c2.05,0,3.954,0.086,5.823,0.264l1.474,0.14l-0.68,1.314
		c-18.05,34.922-52.251,48.144-62.304,51.364l-0.305,0.098L593.244,498.28z"/>
	<path fill="#103B9B" d="M627.124,451.649c-7.417,3.56-16.646,7.991-33.583,7.991c-16.936,0-26.164-4.431-33.582-7.991
		c-6.344-3.046-11.352-5.449-22.414-5.449c-2.125,0-4.012,0.097-5.719,0.257c17.791,34.424,51.225,47.508,61.723,50.871
		c10.498-3.363,43.929-16.449,61.72-50.871c-1.71-0.162-3.601-0.259-5.729-0.259C638.476,446.2,633.468,448.605,627.124,451.649z"/>
	<path fill="#FFFFFF" d="M502.27,442.985c-0.189-0.535-0.377-1.072-0.562-1.614C501.861,441.915,502.04,442.453,502.27,442.985z"/>
	<path fill="#FFFFFF" d="M684.8,443.071c0.25-0.571,0.44-1.153,0.603-1.736c-0.198,0.585-0.399,1.165-0.605,1.743
		C684.797,443.074,684.798,443.072,684.8,443.071z"/>
	<path fill="#FFFFFF" d="M615.957,428.386c-6.344,3.045-11.352,5.448-22.416,5.448c-11.062,0-16.072-2.403-22.413-5.448
		c-7.417-3.56-16.647-7.991-33.581-7.991c-5.689,0-10.452,0.493-14.547,1.264c1.998,9.298,5.067,17.521,8.828,24.799
		c1.707-0.162,3.594-0.257,5.719-0.257c11.063,0,16.07,2.403,22.414,5.449c7.416,3.56,16.646,7.991,33.582,7.991
		c16.937,0,26.166-4.431,33.583-7.991c6.344-3.046,11.352-5.449,22.416-5.449c2.13,0,4.019,0.097,5.729,0.258
		c3.761-7.277,6.83-15.501,8.827-24.798c-4.098-0.772-8.863-1.266-14.556-1.266C632.604,420.395,623.374,424.826,615.957,428.386z"
		/>
	<path fill="#FFFFFF" d="M615.957,369.273c-6.344,3.045-11.354,5.449-22.416,5.449c-11.062,0-16.072-2.405-22.413-5.449
		c-7.417-3.56-16.646-7.991-33.581-7.991c-6.837,0-12.402,0.729-17.117,1.825v27.018c4.413-1.808,9.224-3.036,17.117-3.036
		c11.063,0,16.07,2.405,22.414,5.448c7.416,3.56,16.646,7.992,33.582,7.992c16.937,0,26.166-4.43,33.583-7.992
		c6.343-3.045,11.354-5.448,22.415-5.448c7.9,0,12.711,1.228,17.127,3.04v-27.019c-4.715-1.096-10.284-1.827-17.127-1.827
		C632.604,361.282,623.374,365.712,615.957,369.273z"/>
	<path fill="#F2A643" d="M593.55,564.239c-43.759,0-84.628-19.148-112.441-52.608l-3.204,11.42
		c-1.679,5.976-7.183,10.15-13.382,10.15c-0.001,0,0,0,0,0c-1.267,0-2.532-0.176-3.763-0.521c-3.575-1.003-6.546-3.339-8.364-6.577
		s-2.267-6.991-1.262-10.568l11.375-40.54c1.553-5.534,6.251-9.489,11.969-10.075c0.471-0.048,0.948-0.072,1.42-0.072
		c5.213,0,9.941,2.876,12.342,7.506c20.483,39.524,60.837,64.078,105.313,64.078s84.829-24.554,105.313-64.078
		c2.4-4.63,7.128-7.507,12.338-7.507c0.474,0,0.952,0.025,1.425,0.073c5.718,0.588,10.415,4.543,11.968,10.075l11.375,40.54
		c1.004,3.576,0.555,7.329-1.265,10.567c-1.819,3.237-4.79,5.573-8.365,6.576c-1.231,0.345-2.498,0.52-3.765,0.52
		c-6.2,0-11.702-4.174-13.379-10.149l-3.204-11.418C678.179,545.09,637.31,564.239,593.55,564.239z"/>
	<path fill="#F2A643" d="M461.03,531.718c6.859,1.925,13.983-2.076,15.911-8.938l3.723-13.268
		c27.272,33.69,68.396,53.727,112.886,53.727s85.614-20.036,112.887-53.727l3.723,13.266c1.925,6.861,9.043,10.861,15.91,8.938
		c6.861-1.925,10.863-9.048,8.938-15.91l-11.375-40.54c-1.432-5.102-5.836-8.809-11.107-9.351
		c-5.268-0.542-10.334,2.195-12.772,6.898c-20.655,39.857-61.349,64.618-106.2,64.618s-85.545-24.761-106.2-64.618
		c-2.438-4.703-7.5-7.438-12.772-6.898c-5.27,0.54-9.676,4.249-11.107,9.351l-11.375,40.54
		C450.168,522.67,454.17,529.793,461.03,531.718z"/>
	<path fill="#FFFFFF" d="M574.808,322.111c0,3.049,2.481,5.53,5.529,5.53h31.952v-5.53c0-3.048-2.48-5.529-5.529-5.529h-31.95v5.529
		H574.808z"/>
	<path d="M580.337,353.447h44.855c7.126,0,12.903-5.777,12.903-12.903v-18.433c0-17.278-14.058-31.336-31.336-31.336h-31.95v-1.844
		c0-7.126-5.777-12.903-12.903-12.903s-12.903,5.777-12.903,12.903v14.748v18.433C549.001,339.391,563.059,353.447,580.337,353.447z
		 M612.289,322.111v5.53h-31.952c-3.048,0-5.529-2.481-5.529-5.53v-5.529h31.95C609.809,316.582,612.289,319.063,612.289,322.111z"
		/>
	<path d="M502.27,442.985c9.354,26.332,25.742,44.204,40.283,55.66c23.422,18.452,46.911,24.403,47.898,24.647
		c1.018,0.251,2.057,0.377,3.098,0.377c1.04,0,2.078-0.126,3.097-0.377c0.987-0.244,24.477-6.195,47.898-24.647
		c14.523-11.442,30.894-29.285,40.253-55.567c0.204-0.577,0.405-1.158,0.605-1.743c4.373-12.888,7.07-27.749,7.07-44.839V249.664
		c0-7.126-5.776-12.903-12.902-12.903H507.527c-7.127,0-12.903,5.777-12.903,12.903v146.832c0,17.11,2.702,31.983,7.084,44.877
		C501.893,441.913,502.078,442.451,502.27,442.985z M666.667,262.567v100.542v27.02v6.367c0,9.151-0.926,17.519-2.57,25.167
		c-1.998,9.295-5.067,17.521-8.828,24.798c-17.791,34.423-51.222,47.508-61.72,50.872c-10.498-3.364-43.93-16.449-61.723-50.872
		c-3.761-7.277-6.83-15.501-8.827-24.798c-1.644-7.649-2.569-16.016-2.569-25.165v-6.371v-27.018V262.568h146.237V262.567z"/>
	<path d="M787.097,129.032H12.903C5.777,129.032,0,134.81,0,141.936v516.129c0,7.126,5.777,12.903,12.903,12.903h51.613
		c7.126,0,12.903-5.777,12.903-12.903s-5.777-12.903-12.903-12.903H25.807V400v-8.602v-41.87v-43.721v-16.129v-37.419v-16.129
		v-43.721v-13.917v-23.652h6.451h62.806h76.549h16.129h37.419h16.129h76.548h20.938h41.869H400h374.193v490.322H116.129
		c-7.126,0-12.903,5.777-12.903,12.903s5.777,12.903,12.903,12.903h670.968c7.126,0,12.903-5.777,12.903-12.903V141.936
		C800,134.81,794.223,129.032,787.097,129.032z"/>
</g>
</svg>
