<?xml version="1.0" encoding="utf-8"?>
<!-- Generator: Adobe Illustrator 16.0.0, SVG Export Plug-In . SVG Version: 6.00 Build 0)  -->
<!DOCTYPE svg PUBLIC "-//W3C//DTD SVG 1.1//EN" "http://www.w3.org/Graphics/SVG/1.1/DTD/svg11.dtd">
<svg version="1.1" id="Capa_1" xmlns="http://www.w3.org/2000/svg" xmlns:xlink="http://www.w3.org/1999/xlink" x="0px" y="0px"
	 width="800px" height="800px" viewBox="0 0 800 800" enable-background="new 0 0 800 800" xml:space="preserve">
<g>
	<rect x="25.807" y="469.678" fill="#FFFFFF" width="209.708" height="175.483"/>
	<rect x="374.87" y="154.839" fill="#FFFFFF" width="399.323" height="175.484"/>
	<rect x="25.807" y="154.839" fill="#FFFFFF" width="209.708" height="175.484"/>
	<rect x="374.87" y="469.678" fill="#FFFFFF" width="399.323" height="175.483"/>
	<polygon fill="#164FCE" points="354.515,646.161 354.515,449.322 775.193,449.322 775.193,470.678 375.87,470.678 375.87,646.161 	
		"/>
	<polygon fill="#164FCE" points="374.87,469.678 774.193,469.678 774.193,450.322 355.515,450.322 355.515,645.161 374.87,645.161 	
		"/>
	<polygon fill="#164FCE" points="354.515,350.677 354.515,153.839 375.87,153.839 375.87,329.323 775.193,329.323 775.193,350.677 	
		"/>
	<polygon fill="#164FCE" points="374.87,154.839 355.515,154.839 355.515,349.677 774.193,349.677 774.193,330.323 374.87,330.323 	
		"/>
	<path fill="#164FCE" d="M234.515,646.161V470.678H24.807v-21.355h39.709c6.563,0,11.903-5.34,11.903-11.903v-1h27.806v1
		c0,6.563,5.34,11.903,11.903,11.903H255.87v196.839H234.515z"/>
	<path fill="#164FCE" d="M235.515,645.161h19.355V450.322H116.129c-7.126,0-12.903-5.777-12.903-12.903H77.419
		c0,7.126-5.777,12.903-12.903,12.903H25.807v19.355h209.708V645.161z"/>
	<polygon fill="#164FCE" points="24.807,350.677 24.807,329.323 234.515,329.323 234.515,153.839 255.87,153.839 255.87,350.677 	
		"/>
	<polygon fill="#164FCE" points="235.515,330.323 25.807,330.323 25.807,349.677 254.87,349.677 254.87,154.839 235.515,154.839 	
		"/>
	<path fill="#ED1F34" d="M279.676,646.161V437.419c0-6.563-5.34-11.902-11.903-11.902H116.129c-6.563,0-11.903,5.339-11.903,11.902
		v1H76.419v-1c0-6.563-5.34-11.902-11.903-11.902H24.807v-51.033h242.966c6.563,0,11.903-5.34,11.903-11.903V153.839h51.032v208.742
		c0,6.563,5.34,11.903,11.903,11.903h432.582v51.033H342.611c-6.563,0-11.903,5.339-11.903,11.902v208.742H279.676z"/>
	<path fill="#ED1F34" d="M116.129,424.517h151.644c7.126,0,12.903,5.776,12.903,12.902v207.742h49.032V437.419
		c0-7.126,5.777-12.902,12.903-12.902h431.582v-49.033H342.611c-7.126,0-12.903-5.777-12.903-12.903V154.839h-49.032v207.742
		c0,7.126-5.777,12.903-12.903,12.903H25.807v49.033h38.709c7.126,0,12.903,5.776,12.903,12.902h25.806
		C103.226,430.293,109.003,424.517,116.129,424.517z"/>
	<path d="M787.097,129.032H12.903C5.777,129.032,0,134.81,0,141.936v516.129c0,7.126,5.777,12.903,12.903,12.903h774.193
		c7.126,0,12.903-5.777,12.903-12.903V141.936C800,134.81,794.223,129.032,787.097,129.032z M254.87,349.677H25.807v-19.354V154.839
		h209.708h19.355V349.677z M25.807,469.678v-19.355h38.709c7.126,0,12.903-5.777,12.903-12.903s-5.777-12.902-12.903-12.902H25.807
		v-49.033h241.966c7.126,0,12.903-5.777,12.903-12.903V154.839h49.032v207.742c0,7.126,5.777,12.903,12.903,12.903h431.582v49.033
		H342.611c-7.126,0-12.903,5.776-12.903,12.902v207.742h-49.032V437.419c0-7.126-5.777-12.902-12.903-12.902H116.129
		c-7.126,0-12.903,5.776-12.903,12.902s5.777,12.903,12.903,12.903H254.87v194.839h-19.355H25.807V469.678z M774.193,330.323v19.354
		H355.515V154.839h19.355h399.323V330.323z M355.515,450.322h418.679v19.355v175.483H374.87h-19.355V450.322z"/>
</g>
</svg>
