<?xml version="1.0" encoding="utf-8"?>
<!-- Generator: Adobe Illustrator 16.0.0, SVG Export Plug-In . SVG Version: 6.00 Build 0)  -->
<!DOCTYPE svg PUBLIC "-//W3C//DTD SVG 1.1//EN" "http://www.w3.org/Graphics/SVG/1.1/DTD/svg11.dtd">
<svg version="1.1" id="Capa_1" xmlns="http://www.w3.org/2000/svg" xmlns:xlink="http://www.w3.org/1999/xlink" x="0px" y="0px"
	 width="800px" height="800px" viewBox="0 0 800 800" enable-background="new 0 0 800 800" xml:space="preserve">
<g>
	<path fill="#3DB4EA" d="M695.775,659.064l-0.001-0.999c-0.005-6.56-5.345-11.896-11.903-11.896H24.807V411.903L400,411.912
		c3.18,0,6.169-1.238,8.418-3.487c2.247-2.248,3.485-5.236,3.485-8.416V153.847h363.29V646.17h-39.709
		c-6.559,0-11.898,5.336-11.903,11.896l-0.001,0.999H695.775z M517.5,287.462c-6.563,0-11.903,5.34-11.903,11.903v114.518
		c0,53.104,43.553,85.497,84.312,98.104c0.514,0.163,1.063,0.292,1.688,0.396l0.35,0.053c0.615,0.083,1.123,0.121,1.602,0.121
		c0.481,0,0.988-0.038,1.595-0.12l0.289-0.043c0.687-0.113,1.236-0.242,1.747-0.405c40.635-12.569,84.036-44.79,84.317-97.589
		l-0.002-115.034c0-6.563-5.34-11.903-11.903-11.903H517.5z"/>
	<path fill="#3DB4EA" d="M735.484,645.17h38.709V154.847h-361.29v245.162c0,3.422-1.359,6.704-3.778,9.123
		c-2.421,2.421-5.701,3.78-9.125,3.78l-374.193-0.009V645.17h658.064c7.124,0,12.898,5.772,12.903,12.895h25.807
		C722.586,650.942,728.359,645.17,735.484,645.17z M682.496,413.881c0,53.654-43.89,86.339-85.015,99.061
		c-0.589,0.188-1.199,0.325-1.82,0.428c-0.129,0.021-0.257,0.042-0.386,0.059c-0.565,0.076-1.141,0.129-1.729,0.129
		c-0.589,0-1.161-0.053-1.729-0.129c-0.129-0.017-0.256-0.038-0.385-0.059c-0.621-0.103-1.232-0.239-1.82-0.427
		c-41.126-12.721-85.016-45.405-85.016-99.06V299.365c0-7.126,5.775-12.903,12.903-12.903h152.09
		c7.128,0,12.903,5.777,12.903,12.903v114.516H682.496z"/>
	<polygon fill="#103B9B" points="318.213,237.138 388.097,190.548 388.097,237.138 	"/>
	<polygon fill="#103B9B" points="387.097,236.138 387.097,192.417 321.516,236.138 	"/>
	<polygon fill="#103B9B" points="240.291,153.847 321.141,153.847 240.291,207.748 	"/>
	<polygon fill="#103B9B" points="317.838,154.847 241.291,154.847 241.291,205.879 	"/>
	<polygon fill="#103B9B" points="318.213,304.815 388.097,304.815 388.097,351.403 	"/>
	<polygon fill="#103B9B" points="387.097,349.535 387.097,305.815 321.516,305.815 	"/>
	<polygon fill="#103B9B" points="91.763,153.847 172.613,153.847 172.613,207.748 	"/>
	<polygon fill="#103B9B" points="171.613,154.847 95.066,154.847 171.613,205.879 	"/>
	<polygon fill="#103B9B" points="91.77,388.099 172.613,334.204 172.613,388.1 	"/>
	<polygon fill="#103B9B" points="95.073,387.099 171.613,387.1 171.613,336.072 	"/>
	<polygon fill="#103B9B" points="240.291,388.102 240.291,334.204 321.141,388.104 	"/>
	<polygon fill="#103B9B" points="241.291,387.102 317.838,387.104 241.291,336.072 	"/>
	<polygon fill="#103B9B" points="24.807,237.138 24.807,190.548 94.69,237.138 	"/>
	<polygon fill="#103B9B" points="25.807,192.417 25.807,236.138 91.388,236.138 	"/>
	<polygon fill="#103B9B" points="24.807,304.815 94.69,304.815 24.807,351.403 	"/>
	<polygon fill="#103B9B" points="25.807,305.815 25.807,349.535 91.388,305.815 	"/>
	<polygon fill="#ED1F34" points="241.291,236.138 258.709,236.138 380.646,154.847 338.775,154.847 241.291,219.845 	"/>
	<polygon fill="#ED1F34" points="258.709,305.815 380.646,387.105 387.097,387.105 387.097,364.067 299.926,305.815 	"/>
	<polygon fill="#ED1F34" points="171.613,322.114 171.613,305.815 154.193,305.815 32.27,387.097 74.139,387.099 	"/>
	<polygon fill="#ED1F34" points="154.193,236.138 32.26,154.847 25.807,154.847 25.807,178.5 112.055,236.138 	"/>
	<polygon fill="#FFFFFF" points="225.161,289.686 225.161,387.102 241.291,387.102 241.291,336.072 317.838,387.104 
		380.646,387.105 258.709,305.815 299.926,305.815 387.097,364.067 387.097,349.535 321.516,305.815 387.097,305.815 
		387.097,289.686 	"/>
	<polygon fill="#FFFFFF" points="187.742,252.267 187.742,154.847 171.613,154.847 171.613,205.879 95.066,154.847 32.26,154.847 
		154.193,236.138 112.055,236.138 25.807,178.5 25.807,192.417 91.388,236.138 25.807,236.138 25.807,252.267 	"/>
	<polygon fill="#FFFFFF" points="225.161,252.267 387.097,252.267 387.097,236.138 321.516,236.138 387.097,192.417 
		387.097,154.847 380.646,154.847 258.709,236.138 241.291,236.138 241.291,219.845 338.775,154.847 317.838,154.847 
		241.291,205.879 241.291,154.847 225.161,154.847 	"/>
	<polygon fill="#FFFFFF" points="171.613,305.815 171.613,322.114 74.139,387.099 95.073,387.099 171.613,336.072 171.613,387.1 
		187.742,387.1 187.742,289.686 25.807,289.686 25.807,305.815 91.388,305.815 25.807,349.535 25.807,387.097 32.27,387.097 
		154.193,305.815 	"/>
	<polygon fill="#ED1F34" points="187.742,289.686 187.742,387.1 225.161,387.102 225.161,289.686 387.097,289.686 387.097,252.267 
		225.161,252.267 225.161,154.847 187.742,154.847 187.742,252.267 25.807,252.267 25.807,289.686 	"/>
	<path fill="#FFFFFF" d="M531.632,426.783c5.719,29.544,30.491,46.402,49.014,55.063v-55.063H531.632z"/>
	<polygon fill="#FFFFFF" points="606.451,353.608 606.451,400.977 656.689,400.977 656.689,353.608 	"/>
	<polygon fill="#FFFFFF" points="580.646,353.608 580.646,353.608 530.407,353.608 530.407,400.977 580.646,400.977 	"/>
	<path fill="#FFFFFF" d="M606.451,426.783v55.063c18.522-8.658,43.295-25.519,49.014-55.063H606.451z"/>
	<path fill="#ED1F34" d="M589.615,512.941c0.589,0.188,1.199,0.325,1.82,0.427c-0.567-0.095-1.134-0.214-1.689-0.386
		C589.703,512.971,589.658,512.955,589.615,512.941z"/>
	<path fill="#ED1F34" d="M595.277,513.428c-0.573,0.077-1.15,0.129-1.729,0.129C594.137,513.557,594.71,513.504,595.277,513.428z"/>
	<path fill="#ED1F34" d="M595.661,513.369c0.621-0.103,1.231-0.239,1.82-0.428c-0.043,0.014-0.088,0.029-0.131,0.043
		C596.795,513.154,596.23,513.274,595.661,513.369z"/>
	<path fill="#ED1F34" d="M593.549,513.557c-0.578,0-1.155-0.052-1.729-0.129C592.387,513.504,592.96,513.557,593.549,513.557z"/>
	<path fill="#ED1F34" d="M593.223,488.024c-4.389-1.517-8.763-3.291-13.001-5.272l-0.576-0.27v-54.699h-48.839l-0.156-0.81
		c-0.825-4.259-1.243-8.664-1.243-13.093v-13.904h50.238v-45.368h-50.238v-43.342h128.282v43.342h-50.238v45.368h50.238v13.904
		c0,4.429-0.418,8.834-1.243,13.093l-0.156,0.81h-48.839v54.699l-0.576,0.27c-4.247,1.985-8.62,3.76-13,5.272l-0.326,0.112
		L593.223,488.024z"/>
	<path fill="#ED1F34" d="M655.465,426.783c0.786-4.06,1.225-8.351,1.225-12.902v-12.904h-50.238v-47.368l0,0h50.238v-41.342H530.407
		v41.342h50.238l0,0v47.368h-50.238v12.904c0,4.552,0.438,8.843,1.225,12.902h49.014v55.063c4.893,2.288,9.352,4.006,12.903,5.233
		c3.551-1.227,8.01-2.945,12.902-5.233v-55.063H655.465z"/>
	<path d="M669.593,286.46H517.504c-7.128,0-12.903,5.777-12.903,12.903v114.518c0,53.654,43.89,86.34,85.015,99.061
		c0.043,0.014,0.088,0.029,0.131,0.041c0.556,0.172,1.12,0.291,1.689,0.386c0.129,0.021,0.257,0.041,0.386,0.058
		c0.572,0.078,1.15,0.13,1.729,0.13s1.154-0.052,1.729-0.13c0.129-0.017,0.256-0.037,0.385-0.058
		c0.568-0.095,1.134-0.214,1.689-0.386c0.043-0.014,0.088-0.029,0.131-0.043c41.125-12.721,85.016-45.405,85.016-99.061V299.362
		C682.496,292.237,676.721,286.46,669.593,286.46z M606.451,481.846c-4.893,2.288-9.352,4.006-12.902,5.233
		c-3.552-1.227-8.011-2.945-12.903-5.233c-18.522-8.658-43.295-25.519-49.014-55.063c-0.786-4.06-1.225-8.351-1.225-12.902v-12.904
		v-47.368v-41.342h126.282v41.342v47.368v12.904c0,4.552-0.438,8.843-1.225,12.902C649.746,456.327,624.974,473.188,606.451,481.846
		z"/>
	<path d="M787.097,129.041H400.334c-0.112-0.003-0.221-0.018-0.334-0.018s-0.222,0.014-0.334,0.018H12.903
		C5.775,129.041,0,134.818,0,141.944v516.129c0,7.126,5.775,12.903,12.903,12.903h670.968c7.128,0,12.903-5.777,12.903-12.903
		c0-0.004,0-0.005,0-0.009c-0.005-7.122-5.779-12.895-12.903-12.895H25.807V412.903L400,412.912c3.422,0,6.703-1.359,9.125-3.78
		c2.419-2.419,3.778-5.701,3.778-9.123V154.847h361.29V645.17h-38.709c-7.125,0-12.898,5.772-12.903,12.895c0,0.004,0,0.005,0,0.009
		c0,7.126,5.775,12.903,12.903,12.903h51.612c7.128,0,12.903-5.777,12.903-12.903V141.944
		C800,134.818,794.225,129.041,787.097,129.041z M25.807,387.097v-37.562v-43.721v-16.129v-37.419v-16.129v-43.721v-13.917v-23.651
		h6.453h62.806h76.547h16.129h37.419h16.129h76.547h20.938h41.868h6.453v37.569v43.719v16.129v37.419v16.129v43.721v14.532v23.039
		h-6.451l-62.808-0.002l-76.547-0.001h-16.129h-37.419h-16.129l-76.54-0.002H74.139H32.27h-6.463V387.097z"/>
</g>
</svg>
