<?xml version="1.0" encoding="utf-8"?>
<!-- Generator: Adobe Illustrator 16.0.0, SVG Export Plug-In . SVG Version: 6.00 Build 0)  -->
<!DOCTYPE svg PUBLIC "-//W3C//DTD SVG 1.1//EN" "http://www.w3.org/Graphics/SVG/1.1/DTD/svg11.dtd">
<svg version="1.1" id="Capa_1" xmlns="http://www.w3.org/2000/svg" xmlns:xlink="http://www.w3.org/1999/xlink" x="0px" y="0px"
	 width="800px" height="800px" viewBox="0 0 800 800" enable-background="new 0 0 800 800" xml:space="preserve">
<g>
	<rect x="355.945" y="154.839" fill="#FFFFFF" width="418.248" height="194.838"/>
	<path fill="#FFFFFF" d="M64.516,450.322H25.807v194.839H254.87V450.322H116.129c-7.127,0-12.903-5.777-12.903-12.903H77.419
		C77.419,444.545,71.644,450.322,64.516,450.322z"/>
	<rect x="25.807" y="154.839" fill="#FFFFFF" width="229.493" height="194.838"/>
	<rect x="355.515" y="450.322" fill="#FFFFFF" width="418.679" height="194.839"/>
	<path fill="#164FCE" d="M279.676,646.161V437.419c0-6.563-5.34-11.902-11.903-11.902H116.129c-6.563,0-11.903,5.339-11.903,11.902
		v1H76.419v-1c0-6.563-5.34-11.902-11.903-11.902H24.807v-51.033h243.396c6.563,0,11.903-5.34,11.903-11.903V153.839h51.032v208.742
		c0,6.563,5.34,11.903,11.903,11.903h432.151v51.033H342.611c-6.563,0-11.903,5.339-11.903,11.902v208.742H279.676z"/>
	<path fill="#164FCE" d="M281.106,154.839v207.742c0,7.126-5.776,12.903-12.903,12.903H25.807v49.033h38.709
		c7.128,0,12.903,5.776,12.903,12.902h25.806c0-7.126,5.776-12.902,12.903-12.902h151.644c7.128,0,12.903,5.776,12.903,12.902
		v207.742h49.032V437.419c0-7.126,5.776-12.902,12.903-12.902h431.582v-49.033H343.042c-7.128,0-12.903-5.777-12.903-12.903V154.839
		H281.106z"/>
	<path d="M787.097,129.032H12.903C5.775,129.032,0,134.81,0,141.936v516.129c0,7.126,5.775,12.903,12.903,12.903h774.193
		c7.128,0,12.903-5.777,12.903-12.903V141.936C800,134.81,794.225,129.032,787.097,129.032z M774.193,349.677H355.945V154.839
		h418.248V349.677z M343.042,375.484h431.151v49.033H342.611c-7.127,0-12.903,5.776-12.903,12.902v207.742h-49.032V437.419
		c0-7.126-5.775-12.902-12.903-12.902H116.129c-7.127,0-12.903,5.776-12.903,12.902s5.776,12.903,12.903,12.903H254.87v194.839
		H25.807V450.322h38.709c7.128,0,12.903-5.777,12.903-12.903s-5.775-12.902-12.903-12.902H25.807v-49.033h242.396
		c7.127,0,12.903-5.777,12.903-12.903V154.839h49.032v207.742C330.139,369.707,335.914,375.484,343.042,375.484z M255.3,349.677
		H25.807V154.839H255.3V349.677z M355.515,645.161V450.322h418.679v194.839H355.515z"/>
</g>
</svg>
