<?xml version="1.0" encoding="utf-8"?>
<!-- Generator: Adobe Illustrator 16.0.0, SVG Export Plug-In . SVG Version: 6.00 Build 0)  -->
<!DOCTYPE svg PUBLIC "-//W3C//DTD SVG 1.1//EN" "http://www.w3.org/Graphics/SVG/1.1/DTD/svg11.dtd">
<svg version="1.1" id="Capa_1" xmlns="http://www.w3.org/2000/svg" xmlns:xlink="http://www.w3.org/1999/xlink" x="0px" y="0px"
	 width="800px" height="800px" viewBox="0 0 800 800" enable-background="new 0 0 800 800" xml:space="preserve">
<g>
	<path fill="#ED1F34" d="M695.774,259.925v-1c0-6.563-5.34-11.903-11.903-11.903H24.807v-93.183h750.387v93.183h-39.709
		c-6.563,0-11.903,5.34-11.903,11.903v1H695.774z"/>
	<path fill="#ED1F34" d="M683.871,246.021c7.126,0,12.903,5.775,12.903,12.903h25.807c0-7.128,5.776-12.903,12.903-12.903h38.709
		v-91.183H25.807v91.183H683.871z"/>
	<rect x="24.807" y="552.979" fill="#ED1F34" width="750.387" height="93.183"/>
	<rect x="25.807" y="553.979" fill="#ED1F34" width="748.387" height="91.183"/>
	<path fill="#FFFFFF" d="M683.871,271.828H25.807v256.344h748.387V271.828h-38.709c-7.127,0-12.903-5.775-12.903-12.903h-25.807
		C696.774,266.053,690.997,271.828,683.871,271.828z M400,508.387c-59.765,0-108.387-48.622-108.387-108.387
		c0-59.764,48.623-108.387,108.387-108.387S508.387,340.236,508.387,400C508.387,459.765,459.765,508.387,400,508.387z"/>
	<path fill="#F2A643" d="M400,317.419c-45.534,0-82.581,37.044-82.581,82.581c0,12.277,2.714,23.926,7.539,34.408h25.459
		c-1.419-3.637-2.228-7.578-2.228-11.712V386.67c0-7.127,5.777-12.903,12.903-12.903s12.903,5.775,12.903,12.903v36.026
		c0,3.612,2.938,6.551,6.551,6.551c3.613,0,6.552-2.938,6.552-6.551V357.85c0-7.128,5.777-12.903,12.903-12.903
		s12.903,5.775,12.903,12.903v64.847c0,3.612,2.938,6.551,6.551,6.551c3.613,0,6.552-2.938,6.552-6.551V386.67
		c0-7.127,5.777-12.903,12.903-12.903s12.903,5.775,12.903,12.903v36.026c0,4.134-0.809,8.073-2.229,11.712h25.459
		c4.826-10.482,7.539-22.131,7.539-34.408C482.581,354.464,445.535,317.419,400,317.419z"/>
	<path fill="#164FCE" d="M399.998,483.581c-32.503,0-62.315-19.138-75.949-48.755l-0.653-1.418h27.702l0.249,0.637
		c4.671,11.968,16.405,20.009,29.198,20.009c6.83,0,13.349-2.199,18.852-6.359l0.603-0.456l0.603,0.456
		c5.506,4.16,12.025,6.359,18.853,6.359c12.794,0,24.527-8.041,29.196-20.009l0.248-0.637h27.702l-0.653,1.418
		C462.314,464.443,432.502,483.581,399.998,483.581z"/>
	<path fill="#164FCE" d="M419.455,455.054c-7.307,0-14.032-2.464-19.455-6.562c-5.423,4.1-12.148,6.562-19.455,6.562
		c-13.708,0-25.422-8.583-30.13-20.646h-25.458c13.073,28.399,41.783,48.173,75.041,48.173s61.969-19.773,75.042-48.173h-25.457
		C444.877,446.471,433.161,455.054,419.455,455.054z"/>
	<path fill="#B21727" d="M380.545,455.054c7.307,0,14.032-2.464,19.455-6.562c5.423,4.1,12.148,6.562,19.455,6.562
		c13.708,0,25.422-8.583,30.129-20.646c1.42-3.637,2.229-7.578,2.229-11.712V386.67c0-7.127-5.777-12.903-12.903-12.903
		s-12.903,5.775-12.903,12.903v36.026c0,3.612-2.938,6.551-6.551,6.551c-3.613,0-6.552-2.938-6.552-6.551V357.85
		c0-7.128-5.777-12.903-12.903-12.903s-12.903,5.775-12.903,12.903v64.847c0,3.612-2.938,6.551-6.552,6.551
		c-3.612,0-6.551-2.938-6.551-6.551V386.67c0-7.127-5.777-12.903-12.903-12.903s-12.903,5.775-12.903,12.903v36.026
		c0,4.134,0.809,8.073,2.228,11.712C355.123,446.471,366.839,455.054,380.545,455.054z"/>
	<path d="M400,291.613c-59.765,0-108.387,48.623-108.387,108.387c0,59.765,48.623,108.387,108.387,108.387
		S508.387,459.765,508.387,400C508.387,340.236,459.765,291.613,400,291.613z M475.042,434.408
		c-13.074,28.399-41.784,48.173-75.042,48.173s-61.968-19.773-75.042-48.173c-4.825-10.482-7.539-22.131-7.539-34.408
		c0-45.536,37.047-82.581,82.581-82.581c45.535,0,82.581,37.044,82.581,82.581C482.581,412.277,479.867,423.926,475.042,434.408z"/>
	<path d="M787.097,129.032H12.903C5.777,129.032,0,134.808,0,141.936v516.129c0,7.128,5.777,12.903,12.903,12.903h774.193
		c7.126,0,12.903-5.775,12.903-12.903V141.936C800,134.808,794.223,129.032,787.097,129.032z M774.193,154.839v91.183h-38.709
		c-7.127,0-12.903,5.775-12.903,12.903s5.776,12.903,12.903,12.903h38.709v256.344H25.807V271.828h658.064
		c7.126,0,12.903-5.775,12.903-12.903s-5.777-12.903-12.903-12.903H25.807v-91.183H774.193z M25.807,645.161v-91.183h748.387v91.183
		H25.807z"/>
</g>
</svg>
