<?xml version="1.0" encoding="utf-8"?>
<!-- Generator: Adobe Illustrator 16.0.0, SVG Export Plug-In . SVG Version: 6.00 Build 0)  -->
<!DOCTYPE svg PUBLIC "-//W3C//DTD SVG 1.1//EN" "http://www.w3.org/Graphics/SVG/1.1/DTD/svg11.dtd">
<svg version="1.1" id="Capa_1" xmlns="http://www.w3.org/2000/svg" xmlns:xlink="http://www.w3.org/1999/xlink" x="0px" y="0px"
	 width="800px" height="800px" viewBox="0 0 800 800" enable-background="new 0 0 800 800" xml:space="preserve">
<g>
	<rect x="25.807" y="332.043" fill="#FFFFFF" width="748.387" height="135.914"/>
	<rect x="24.807" y="492.764" fill="#164FCE" width="750.387" height="153.397"/>
	<rect x="25.807" y="493.764" fill="#164FCE" width="748.387" height="151.397"/>
	<path fill="#259245" d="M24.807,307.236V153.839h659.064c6.563,0,11.903-5.34,11.903-11.903v-1h27.807v1
		c0,6.563,5.34,11.903,11.903,11.903h39.709v153.397H24.807z"/>
	<path fill="#259245" d="M683.871,154.839H25.807v151.397h748.387V154.839h-38.709c-7.128,0-12.903-5.775-12.903-12.903h-25.807
		C696.774,149.063,690.999,154.839,683.871,154.839z"/>
	<path d="M787.097,129.032h-51.612c-7.128,0-12.903,5.775-12.903,12.903s5.775,12.903,12.903,12.903h38.709v151.397H25.807V154.839
		h658.064c7.128,0,12.903-5.775,12.903-12.903s-5.775-12.903-12.903-12.903H12.903C5.775,129.032,0,134.808,0,141.936v516.129
		c0,7.128,5.775,12.903,12.903,12.903h774.193c7.128,0,12.903-5.775,12.903-12.903V141.936
		C800,134.808,794.225,129.032,787.097,129.032z M25.807,332.043h748.387v135.914H25.807V332.043z M25.807,645.161V493.764h748.387
		v151.397H25.807z"/>
</g>
</svg>
