<?xml version="1.0" encoding="utf-8"?>
<!-- Generator: Adobe Illustrator 16.0.0, SVG Export Plug-In . SVG Version: 6.00 Build 0)  -->
<!DOCTYPE svg PUBLIC "-//W3C//DTD SVG 1.1//EN" "http://www.w3.org/Graphics/SVG/1.1/DTD/svg11.dtd">
<svg version="1.1" id="Capa_1" xmlns="http://www.w3.org/2000/svg" xmlns:xlink="http://www.w3.org/1999/xlink" x="0px" y="0px"
	 width="800px" height="800px" viewBox="0 0 800 800" enable-background="new 0 0 800 800" xml:space="preserve">
<g>
	<path fill="#FFFFFF" d="M25.807,335.914h310.107V154.839H25.807V335.914z M146.236,232.473h21.721v-21.72
		c0-7.126,5.775-12.903,12.903-12.903c7.127,0,12.903,5.777,12.903,12.903v21.72h21.72c7.128,0,12.903,5.777,12.903,12.903
		s-5.775,12.903-12.903,12.903h-21.72V280c0,7.126-5.776,12.903-12.903,12.903c-7.128,0-12.903-5.777-12.903-12.903v-21.721h-21.721
		c-7.127,0-12.903-5.777-12.903-12.903S139.109,232.473,146.236,232.473z"/>
	<path fill="#FFFFFF" d="M464.086,335.914h219.785c7.128,0,12.903,5.777,12.903,12.903h25.807c0-7.126,5.775-12.903,12.903-12.903
		h38.709V154.839H464.086V335.914z M584.516,232.473h21.721v-21.72c0-7.126,5.775-12.903,12.903-12.903s12.903,5.777,12.903,12.903
		v21.72h21.721c7.128,0,12.903,5.777,12.903,12.903s-5.775,12.903-12.903,12.903h-21.721V280c0,7.126-5.775,12.903-12.903,12.903
		s-12.903-5.777-12.903-12.903v-21.721h-21.721c-7.127,0-12.902-5.777-12.902-12.903S577.389,232.473,584.516,232.473z"/>
	<path fill="#FFFFFF" d="M774.193,464.086H464.086v181.075h310.107V464.086z M653.764,567.527h-21.721v21.72
		c0,7.126-5.775,12.903-12.903,12.903s-12.903-5.777-12.903-12.903v-21.72h-21.721c-7.127,0-12.902-5.777-12.902-12.903
		s5.775-12.903,12.902-12.903h21.721V520c0-7.126,5.775-12.903,12.903-12.903s12.903,5.777,12.903,12.903v21.721h21.721
		c7.128,0,12.903,5.777,12.903,12.903S660.892,567.527,653.764,567.527z"/>
	<path fill="#FFFFFF" d="M335.914,464.086H25.807v181.075h310.107V464.086z M215.484,567.527h-21.72v21.72
		c0,7.126-5.776,12.903-12.903,12.903c-7.128,0-12.903-5.777-12.903-12.903v-21.72h-21.721c-7.127,0-12.903-5.777-12.903-12.903
		s5.775-12.903,12.903-12.903h21.721V520c0-7.126,5.775-12.903,12.903-12.903c7.127,0,12.903,5.777,12.903,12.903v21.721h21.72
		c7.128,0,12.903,5.777,12.903,12.903S222.612,567.527,215.484,567.527z"/>
	<path fill="#ED1F34" d="M360.721,646.161V451.183c0-6.563-5.34-11.903-11.903-11.903H24.807V360.72h324.011
		c6.563,0,11.903-5.34,11.903-11.903V153.839h78.559v194.979c0,6.563,5.34,11.903,11.903,11.903h232.688
		c6.563,0,11.903-5.34,11.903-11.903v-1h27.807v1c0,6.563,5.34,11.903,11.903,11.903h39.709v78.559H451.183
		c-6.563,0-11.903,5.34-11.903,11.903v194.979H360.721z"/>
	<path fill="#ED1F34" d="M696.774,348.817c0,7.126-5.775,12.903-12.903,12.903H451.183c-7.128,0-12.903-5.777-12.903-12.903V154.839
		h-76.559v193.979c0,7.126-5.775,12.903-12.903,12.903H25.807v76.559h323.011c7.128,0,12.903,5.777,12.903,12.903v193.979h76.559
		V451.183c0-7.126,5.775-12.903,12.903-12.903h323.011V361.72h-38.709c-7.128,0-12.903-5.777-12.903-12.903l0,0H696.774
		L696.774,348.817z"/>
	<path fill="#ED1F34" d="M215.484,541.721h-21.72V520c0-7.126-5.776-12.903-12.903-12.903c-7.128,0-12.903,5.777-12.903,12.903
		v21.721h-21.721c-7.127,0-12.903,5.777-12.903,12.903s5.775,12.903,12.903,12.903h21.721v21.72c0,7.126,5.775,12.903,12.903,12.903
		c7.127,0,12.903-5.777,12.903-12.903v-21.72h21.72c7.128,0,12.903-5.777,12.903-12.903S222.612,541.721,215.484,541.721z"/>
	<path fill="#ED1F34" d="M146.236,258.279h21.721V280c0,7.126,5.775,12.903,12.903,12.903c7.127,0,12.903-5.777,12.903-12.903
		v-21.721h21.72c7.128,0,12.903-5.777,12.903-12.903s-5.775-12.903-12.903-12.903h-21.72v-21.72c0-7.126-5.776-12.903-12.903-12.903
		c-7.128,0-12.903,5.777-12.903,12.903v21.72h-21.721c-7.127,0-12.903,5.777-12.903,12.903S139.109,258.279,146.236,258.279z"/>
	<path fill="#ED1F34" d="M653.764,541.721h-21.721V520c0-7.126-5.775-12.903-12.903-12.903s-12.903,5.777-12.903,12.903v21.721
		h-21.721c-7.127,0-12.902,5.777-12.902,12.903s5.775,12.903,12.902,12.903h21.721v21.72c0,7.126,5.775,12.903,12.903,12.903
		s12.903-5.777,12.903-12.903v-21.72h21.721c7.128,0,12.903-5.777,12.903-12.903S660.892,541.721,653.764,541.721z"/>
	<path fill="#ED1F34" d="M584.516,258.279h21.721V280c0,7.126,5.775,12.903,12.903,12.903s12.903-5.777,12.903-12.903v-21.721
		h21.721c7.128,0,12.903-5.777,12.903-12.903s-5.775-12.903-12.903-12.903h-21.721v-21.72c0-7.126-5.775-12.903-12.903-12.903
		s-12.903,5.777-12.903,12.903v21.72h-21.721c-7.127,0-12.902,5.777-12.902,12.903S577.389,258.279,584.516,258.279z"/>
	<path d="M787.097,129.032H12.903C5.775,129.032,0,134.81,0,141.936v516.129c0,7.126,5.775,12.903,12.903,12.903h774.193
		c7.128,0,12.903-5.777,12.903-12.903V141.936C800,134.81,794.225,129.032,787.097,129.032z M774.193,335.914h-38.709
		c-7.128,0-12.903,5.777-12.903,12.903l0,0c0,7.126,5.775,12.903,12.903,12.903h38.709v76.559H451.183
		c-7.128,0-12.903,5.777-12.903,12.903v193.979h-76.559V451.183c0-7.126-5.775-12.903-12.903-12.903H25.807V361.72h323.011
		c7.128,0,12.903-5.777,12.903-12.903V154.839h76.559v193.979c0,7.126,5.775,12.903,12.903,12.903h232.688
		c7.128,0,12.903-5.777,12.903-12.903l0,0c0-7.126-5.775-12.903-12.903-12.903H464.086V154.839h310.107V335.914z M335.914,335.914
		H25.807V154.839h310.107V335.914z M25.807,464.086h310.107v181.075H25.807V464.086z M464.086,464.086h310.107v181.075H464.086
		V464.086z"/>
</g>
</svg>
