<?xml version="1.0" encoding="utf-8"?>
<!-- Generator: Adobe Illustrator 16.0.0, SVG Export Plug-In . SVG Version: 6.00 Build 0)  -->
<!DOCTYPE svg PUBLIC "-//W3C//DTD SVG 1.1//EN" "http://www.w3.org/Graphics/SVG/1.1/DTD/svg11.dtd">
<svg version="1.1" id="Capa_1" xmlns="http://www.w3.org/2000/svg" xmlns:xlink="http://www.w3.org/1999/xlink" x="0px" y="0px"
	 width="800px" height="800px" viewBox="0 0 800 800" enable-background="new 0 0 800 800" xml:space="preserve">
<g>
	<path fill="#FFE000" d="M695.774,487.021v-1c0-6.563-5.34-11.903-11.903-11.903H24.807V325.882h750.387v148.236h-39.709
		c-6.563,0-11.903,5.34-11.903,11.903v1H695.774z M399.998,333.045c-4.898,0-9.365,3.072-11.116,7.645l-12.496,32.625l-34.89,1.802
		c-4.89,0.252-9.193,3.552-10.707,8.21c-1.515,4.658,0.027,9.855,3.835,12.933l27.168,21.964l-9.067,33.74
		c-1.271,4.729,0.537,9.841,4.5,12.718c2.048,1.489,4.469,2.275,7,2.275c2.309,0,4.553-0.666,6.488-1.925L400,445.982l29.283,19.05
		c1.935,1.259,4.179,1.925,6.49,1.925c2.529,0,4.949-0.787,6.997-2.274c3.962-2.878,5.771-7.988,4.499-12.719l-9.066-33.74
		l27.167-21.964c3.81-3.078,5.351-8.275,3.836-12.933c-1.513-4.659-5.815-7.958-10.706-8.21l-34.89-1.802l-12.496-32.624
		C409.363,336.117,404.896,333.045,399.998,333.045z"/>
	<path fill="#FFE000" d="M735.484,473.118h38.709V326.882H25.807v146.236h658.064c7.126,0,12.903,5.775,12.903,12.903h25.807
		C722.581,478.894,728.357,473.118,735.484,473.118z M465.999,397.038l-26.661,21.555l8.897,33.111
		c1.387,5.161-0.552,10.646-4.877,13.787c-2.257,1.64-4.919,2.466-7.585,2.466c-2.445,0-4.892-0.691-7.035-2.087L400,447.176
		l-28.741,18.694c-4.48,2.916-10.295,2.765-14.62-0.379c-4.325-3.141-6.265-8.626-4.878-13.787l8.898-33.111l-26.662-21.555
		c-4.158-3.36-5.812-8.936-4.158-14.02c1.652-5.084,6.268-8.625,11.606-8.9l34.24-1.769l12.263-32.017
		c1.911-4.991,6.705-8.287,12.05-8.287c5.346,0,10.139,3.296,12.05,8.287l12.264,32.017l34.24,1.769
		c5.338,0.275,9.954,3.816,11.605,8.9C471.811,388.102,470.157,393.677,465.999,397.038z"/>
	<path fill="#333333" d="M406.489,421.805c-1.935-1.259-4.179-1.925-6.489-1.925c-2.31,0-4.554,0.666-6.49,1.925l-9.724,6.328
		l3.011-11.205c1.22-4.543-0.355-9.389-4.012-12.345l-9.021-7.293l11.584-0.599c4.698-0.245,8.82-3.24,10.501-7.631l4.15-10.834
		l4.149,10.833c1.683,4.393,5.805,7.389,10.502,7.631l11.585,0.599l-9.021,7.293c-3.658,2.957-5.233,7.802-4.013,12.345
		l3.011,11.205L406.489,421.805z"/>
	<path fill="#333333" d="M407.035,420.967l7.535,4.903l-2.333-8.683c-1.324-4.928,0.38-10.174,4.35-13.382l6.99-5.652l-8.978-0.464
		c-5.096-0.263-9.559-3.506-11.384-8.272L400,381.022l-3.216,8.396c-1.825,4.766-6.288,8.007-11.384,8.272l-8.978,0.464l6.99,5.652
		c3.97,3.208,5.673,8.454,4.35,13.382l-2.333,8.683l7.535-4.903c2.139-1.392,4.587-2.087,7.035-2.087
		S404.896,419.575,407.035,420.967z"/>
	<path d="M458.553,374.118l-34.239-1.769l-12.264-32.017c-1.911-4.991-6.704-8.287-12.05-8.287s-10.139,3.296-12.05,8.287
		l-12.264,32.017l-34.239,1.769c-5.339,0.275-9.955,3.816-11.606,8.9s0.002,10.66,4.158,14.02l26.661,21.555l-8.897,33.111
		c-1.387,5.161,0.552,10.646,4.877,13.787c4.324,3.144,10.139,3.295,14.62,0.379l28.742-18.694l28.741,18.694
		c2.144,1.396,4.59,2.087,7.035,2.087c2.666,0,5.328-0.824,7.585-2.466c4.325-3.141,6.265-8.626,4.878-13.787l-8.898-33.111
		l26.661-21.555c4.158-3.36,5.813-8.936,4.158-14.02S463.892,374.393,458.553,374.118z M385.428,425.868l2.333-8.683
		c1.325-4.928-0.38-10.173-4.349-13.382l-6.99-5.651l8.977-0.465c5.096-0.263,9.559-3.506,11.385-8.271l3.215-8.396l3.216,8.396
		c1.825,4.766,6.288,8.007,11.384,8.271l8.978,0.465l-6.99,5.651c-3.969,3.209-5.672,8.454-4.35,13.382l2.333,8.683l-7.535-4.903
		c-2.139-1.392-4.587-2.086-7.035-2.086s-4.896,0.694-7.034,2.086L385.428,425.868z"/>
	<path fill="#259245" d="M24.807,646.161V497.925h659.064c6.563,0,11.903-5.34,11.903-11.903v-1h27.807v1
		c0,6.563,5.34,11.903,11.903,11.903h39.709v148.236H24.807z"/>
	<path fill="#259245" d="M735.484,498.925c-7.127,0-12.903-5.775-12.903-12.903h-25.807c0,7.128-5.777,12.903-12.903,12.903H25.807
		v146.236h748.387V498.925H735.484z"/>
	<rect x="24.807" y="153.839" fill="#ED1F34" width="750.387" height="148.236"/>
	<rect x="25.807" y="154.839" fill="#ED1F34" width="748.387" height="146.236"/>
	<path d="M787.097,129.032H12.903C5.777,129.032,0,134.808,0,141.936v516.129c0,7.128,5.777,12.903,12.903,12.903h774.193
		c7.126,0,12.903-5.775,12.903-12.903V141.936C800,134.808,794.223,129.032,787.097,129.032z M774.193,154.839v146.236H25.807
		V154.839H774.193z M25.807,645.161V498.925h658.064c7.126,0,12.903-5.775,12.903-12.903s-5.777-12.903-12.903-12.903H25.807
		V326.882h748.387v146.236h-38.709c-7.127,0-12.903,5.775-12.903,12.903s5.776,12.903,12.903,12.903h38.709v146.236H25.807z"/>
</g>
</svg>
