<?xml version="1.0" encoding="utf-8"?>
<!-- Generator: Adobe Illustrator 16.0.0, SVG Export Plug-In . SVG Version: 6.00 Build 0)  -->
<!DOCTYPE svg PUBLIC "-//W3C//DTD SVG 1.1//EN" "http://www.w3.org/Graphics/SVG/1.1/DTD/svg11.dtd">
<svg version="1.1" id="Capa_1" xmlns="http://www.w3.org/2000/svg" xmlns:xlink="http://www.w3.org/1999/xlink" x="0px" y="0px"
	 width="800px" height="800px" viewBox="0 0 800 800" enable-background="new 0 0 800 800" xml:space="preserve">
<g>
	<path fill="#FFFFFF" d="M116.129,473.118H356.79l26.333-17.669l-4.347-8.138H229.304c-7.126,0-12.903-5.777-12.903-12.903
		s5.777-12.903,12.903-12.903h11.183v-80.017c-3.129-2.355-5.161-6.089-5.161-10.306c0-7.126,5.777-12.903,12.903-12.903h9.462
		v-66.355c0-7.126,5.777-12.903,12.903-12.903h53.333c7.126,0,12.903,5.777,12.903,12.903v66.355h17.577V210.753
		c0-7.126,5.777-12.903,12.903-12.903h65.377c7.128,0,12.903,5.777,12.903,12.903V318.28h17.575v-66.355
		c0-7.126,5.775-12.903,12.903-12.903h53.334c7.127,0,12.902,5.777,12.902,12.903v66.355h9.463c7.128,0,12.903,5.777,12.903,12.903
		c0,4.217-2.032,7.95-5.161,10.306v80.017h11.185c7.127,0,12.903,5.777,12.903,12.903s-5.776,12.903-12.903,12.903H421.224
		l-4.347,8.138l26.333,17.669h330.983V154.839H25.807v318.279h38.709c7.126,0,12.903,5.777,12.903,12.903h25.806
		C103.226,478.896,109.003,473.118,116.129,473.118z"/>
	<path fill="#ED1F34" d="M24.807,646.161V497.925h39.709c6.563,0,11.903-5.34,11.903-11.903v-1h27.806v1
		c0,6.563,5.34,11.903,11.903,11.903h240.965l31.002,20.803v41.412h-10.462c-6.563,0-11.903,5.34-11.903,11.903
		s5.34,11.903,11.903,11.903h10.462v10.603h-10.462c-6.563,0-11.903,5.34-11.903,11.902c0,6.563,5.34,11.903,11.903,11.903H400
		c6.563,0,11.903-5.34,11.903-11.903v-87.724l31.002-20.803h332.288v148.236H24.807z"/>
	<path fill="#ED1F34" d="M443.21,498.925l-30.307,20.336v87.19c0,7.126-5.775,12.903-12.903,12.903h-22.365
		c-7.126,0-12.903-5.777-12.903-12.903s5.777-12.902,12.903-12.902h9.462v-8.603h-9.462c-7.126,0-12.903-5.777-12.903-12.903
		s5.777-12.903,12.903-12.903h9.462v-39.879l-30.307-20.336H116.129c-7.126,0-12.903-5.777-12.903-12.903H77.419
		c0,7.126-5.777,12.903-12.903,12.903H25.807v146.236h748.387V498.925H443.21z"/>
	<polygon points="383.874,486.021 400,496.841 416.124,486.021 400,475.202 	"/>
	<path d="M347.814,486.021c0-4.301,2.144-8.318,5.713-10.715l3.263-2.188H116.129c-7.126,0-12.903,5.777-12.903,12.903
		s5.777,12.903,12.903,12.903H356.79l-3.263-2.188C349.956,494.34,347.814,490.322,347.814,486.021z"/>
	<path fill="#ED1F34" d="M433.372,422.505l0.391-1.29c1.639-5.41-0.796-11.271-5.788-13.937c-1.72-0.918-3.65-1.402-5.583-1.402
		c-3.315,0-6.505,1.395-8.752,3.826l-1.734,1.877v-28.783c0-6.563-5.34-11.903-11.903-11.903s-11.903,5.34-11.903,11.903v28.785
		l-1.734-1.877c-2.248-2.433-5.439-3.827-8.756-3.827c-1.933,0-3.862,0.484-5.58,1.401c-4.993,2.665-7.428,8.526-5.789,13.937
		l0.391,1.29H265.295v-79.419h5.301c6.563,0,11.903-5.34,11.903-11.903v-67.355h29.527v67.355c0,6.563,5.34,11.903,11.903,11.903
		h43.382c6.563,0,11.903-5.34,11.903-11.903V222.656h41.57v108.527c0,6.563,5.34,11.903,11.903,11.903h43.382
		c6.563,0,11.903-5.34,11.903-11.903v-67.355h29.527v67.355c0,6.563,5.34,11.903,11.903,11.903h5.301l0.002,79.419H433.372z"/>
	<path fill="#ED1F34" d="M533.705,344.086h-4.301c-7.128,0-12.903-5.777-12.903-12.903v-66.355h-27.527v66.355
		c0,7.126-5.775,12.903-12.903,12.903h-43.382c-7.128,0-12.903-5.777-12.903-12.903V223.656h-39.57v107.527
		c0,7.126-5.777,12.903-12.903,12.903H323.93c-7.126,0-12.903-5.777-12.903-12.903v-66.355H283.5v66.355
		c0,7.126-5.777,12.903-12.903,12.903h-4.301v77.419h98.988c-1.748-5.771,0.752-12.161,6.274-15.108
		c5.289-2.824,11.652-1.579,15.541,2.629v-26.229c0-7.126,5.777-12.903,12.903-12.903c7.128,0,12.903,5.777,12.903,12.903v26.228
		c3.886-4.206,10.245-5.453,15.54-2.627c5.521,2.947,8.022,9.338,6.274,15.108h98.987v-77.419H533.705z"/>
	<path d="M366.252,423.855c-0.407-0.764-0.728-1.552-0.971-2.351h-98.988v-77.419h4.301c7.126,0,12.903-5.777,12.903-12.903v-66.355
		h27.527v66.355c0,7.126,5.777,12.903,12.903,12.903h43.384c7.126,0,12.903-5.777,12.903-12.903V223.656h39.57v107.527
		c0,7.126,5.775,12.903,12.903,12.903h43.382c7.128,0,12.903-5.777,12.903-12.903v-66.355h27.527v66.355
		c0,7.126,5.775,12.903,12.903,12.903h4.301v77.419h-98.986c-0.243,0.799-0.563,1.587-0.971,2.351l-12.524,23.456h149.473
		c7.127,0,12.903-5.777,12.903-12.903s-5.776-12.903-12.903-12.903h-11.185v-80.017c3.129-2.355,5.161-6.089,5.161-10.306
		c0-7.126-5.775-12.903-12.903-12.903h-9.463v-66.355c0-7.126-5.775-12.903-12.902-12.903H476.07
		c-7.128,0-12.903,5.777-12.903,12.903v66.355h-17.575V210.753c0-7.126-5.775-12.903-12.903-12.903h-65.377
		c-7.126,0-12.903,5.777-12.903,12.903V318.28h-17.575v-66.355c0-7.126-5.777-12.903-12.903-12.903h-53.333
		c-7.126,0-12.903,5.777-12.903,12.903v66.355h-9.462c-7.126,0-12.903,5.777-12.903,12.903c0,4.217,2.032,7.95,5.162,10.306v80.017
		h-11.183c-7.126,0-12.903,5.777-12.903,12.903s5.777,12.903,12.903,12.903h149.473L366.252,423.855z"/>
	<path d="M400,369.893c-7.126,0-12.903,5.777-12.903,12.903v26.229c0.733,0.793,1.387,1.68,1.92,2.676L400,432.271l10.983-20.569
		c0.533-0.998,1.187-1.885,1.92-2.678v-26.228C412.903,375.67,407.128,369.893,400,369.893z"/>
	<path fill="#FFE000" d="M421.224,447.312l12.524-23.456c0.407-0.764,0.728-1.552,0.971-2.351
		c1.747-5.771-0.754-12.161-6.275-15.108c-5.297-2.828-11.653-1.579-15.54,2.627c-0.733,0.793-1.389,1.682-1.92,2.678L400,432.271
		l-10.983-20.569c-0.531-0.996-1.187-1.883-1.92-2.676c-3.888-4.208-10.25-5.453-15.541-2.629
		c-5.522,2.947-8.021,9.338-6.274,15.108c0.243,0.799,0.563,1.587,0.971,2.351l12.524,23.456l4.346,8.138l-26.332,17.669
		l-3.263,2.188c-3.571,2.396-5.713,6.415-5.713,10.715s2.144,8.318,5.713,10.715l3.263,2.188l30.307,20.336v39.879h-9.462
		c-7.126,0-12.903,5.777-12.903,12.903s5.777,12.903,12.903,12.903h9.462v8.603h-9.462c-7.126,0-12.903,5.776-12.903,12.902
		s5.777,12.903,12.903,12.903H400c7.128,0,12.903-5.777,12.903-12.903v-87.19l30.307-20.336l3.263-2.188
		c3.571-2.396,5.713-6.415,5.713-10.715s-2.142-8.318-5.713-10.715l-3.263-2.188l-26.333-17.669L421.224,447.312z M400,496.841
		l-16.126-10.819L400,475.202l16.124,10.819L400,496.841z"/>
	<path d="M787.097,129.032H12.903C5.777,129.032,0,134.81,0,141.936v516.129c0,7.126,5.777,12.903,12.903,12.903h774.193
		c7.128,0,12.903-5.777,12.903-12.903V141.936C800,134.81,794.225,129.032,787.097,129.032z M25.807,645.161V498.925h38.709
		c7.126,0,12.903-5.777,12.903-12.903s-5.777-12.903-12.903-12.903H25.807V154.839h748.387v318.279H443.21l3.263,2.188
		c3.571,2.396,5.713,6.415,5.713,10.715s-2.142,8.318-5.713,10.715l-3.263,2.188h330.983v146.236H25.807z"/>
</g>
</svg>
