<?xml version="1.0" encoding="utf-8"?>
<!-- Generator: Adobe Illustrator 16.0.0, SVG Export Plug-In . SVG Version: 6.00 Build 0)  -->
<!DOCTYPE svg PUBLIC "-//W3C//DTD SVG 1.1//EN" "http://www.w3.org/Graphics/SVG/1.1/DTD/svg11.dtd">
<svg version="1.1" id="Capa_1" xmlns="http://www.w3.org/2000/svg" xmlns:xlink="http://www.w3.org/1999/xlink" x="0px" y="0px"
	 width="800px" height="800px" viewBox="0 0 800 800" enable-background="new 0 0 800 800" xml:space="preserve">
<g>
	<rect x="312.551" y="326.882" fill="#FFFFFF" width="461.643" height="31.535"/>
	<rect x="312.551" y="212.181" fill="#FFFFFF" width="461.643" height="31.553"/>
	<path fill="#FFFFFF" d="M490.322,543.363c0,7.126-5.777,12.903-12.903,12.903H25.807v31.553h748.387v-31.553H529.032
		c-7.126,0-12.903-5.777-12.903-12.903l0,0H490.322L490.322,543.363z"/>
	<path fill="#FFFFFF" d="M25.807,441.583v31.535h554.839c7.126,0,12.903,5.777,12.903,12.903h25.806
		c0-7.126,5.777-12.903,12.903-12.903h141.936v-31.535H25.807z"/>
	<rect x="24.807" y="612.626" fill="#3DB4EA" width="750.387" height="33.535"/>
	<rect x="25.807" y="613.626" fill="#3DB4EA" width="748.387" height="31.535"/>
	<path fill="#3DB4EA" d="M489.322,544.363v-1c0-6.563-5.34-11.903-11.903-11.903H24.807v-33.535h555.839
		c6.563,0,11.903-5.34,11.903-11.903v-1h27.806v1c0,6.563,5.34,11.903,11.903,11.903h142.936v33.535H529.032
		c-6.563,0-11.903,5.34-11.903,11.903v1H489.322z"/>
	<path fill="#3DB4EA" d="M580.646,498.925H25.807v31.535h451.612c7.126,0,12.903,5.777,12.903,12.903h25.807
		c0-7.126,5.777-12.903,12.903-12.903h245.161v-31.535H632.258c-7.126,0-12.903-5.777-12.903-12.903h-25.806
		C593.549,493.147,587.771,498.925,580.646,498.925z"/>
	<rect x="24.807" y="325.882" fill="#3DB4EA" width="90.895" height="90.895"/>
	<rect x="25.807" y="326.882" fill="#3DB4EA" width="88.895" height="88.895"/>
	<path fill="#3DB4EA" d="M196.85,244.733v-90.895h487.021c6.563,0,11.903-5.34,11.903-11.903v-1h27.807v1
		c0,6.563,5.34,11.903,11.903,11.903h39.709v33.535H299.647c-6.563,0-11.903,5.34-11.903,11.903v45.456H196.85z"/>
	<path fill="#3DB4EA" d="M683.871,154.839H197.85v88.895h88.895v-44.456c0-7.126,5.777-12.903,12.903-12.903h474.546v-31.535
		h-38.709c-7.127,0-12.903-5.777-12.903-12.903h-25.807C696.774,149.062,690.997,154.839,683.871,154.839z"/>
	<rect x="24.807" y="153.839" fill="#3DB4EA" width="90.895" height="90.895"/>
	<rect x="25.807" y="154.839" fill="#3DB4EA" width="88.895" height="88.895"/>
	<path fill="#3DB4EA" d="M196.85,416.776v-90.895h90.895v45.438c0,6.563,5.34,11.903,11.903,11.903h475.546v33.553H196.85z"/>
	<path fill="#3DB4EA" d="M299.647,384.224c-7.126,0-12.903-5.777-12.903-12.903v-44.438H197.85v88.895h576.344v-31.553H299.647z"/>
	<rect x="311.551" y="268.54" fill="#3DB4EA" width="463.643" height="33.535"/>
	<rect x="312.551" y="269.54" fill="#3DB4EA" width="461.643" height="31.535"/>
	<path fill="#FFFFFF" d="M140.507,154.839v101.798c0,7.126-5.777,12.903-12.903,12.903H25.807v31.535h101.798
		c7.126,0,12.903,5.777,12.903,12.903v101.798h31.536V313.979c0-7.126,5.777-12.903,12.903-12.903h101.798V269.54H184.946
		c-7.126,0-12.903-5.777-12.903-12.903V154.839H140.507z"/>
	<path d="M787.097,129.032h-51.612c-7.127,0-12.903,5.777-12.903,12.903s5.776,12.903,12.903,12.903h38.709v31.535H299.647
		c-7.126,0-12.903,5.777-12.903,12.903v44.456H197.85v-88.895h486.021c7.126,0,12.903-5.777,12.903-12.903
		s-5.777-12.903-12.903-12.903H12.903C5.777,129.032,0,134.81,0,141.936v516.129c0,7.126,5.777,12.903,12.903,12.903h774.193
		c7.126,0,12.903-5.777,12.903-12.903V141.936C800,134.81,794.223,129.032,787.097,129.032z M184.946,269.54h101.798v31.535H184.946
		c-7.126,0-12.903,5.777-12.903,12.903v101.798h-31.536V313.979c0-7.126-5.777-12.903-12.903-12.903H25.807V269.54h101.798
		c7.126,0,12.903-5.777,12.903-12.903V154.839h31.536v101.798C172.043,263.763,177.82,269.54,184.946,269.54z M632.258,473.118
		c-7.126,0-12.903,5.777-12.903,12.903s5.777,12.903,12.903,12.903h141.936v31.535H529.032c-7.126,0-12.903,5.777-12.903,12.903l0,0
		c0,7.126,5.777,12.903,12.903,12.903h245.161v31.553H25.807v-31.553h451.612c7.126,0,12.903-5.777,12.903-12.903l0,0
		c0-7.126-5.777-12.903-12.903-12.903H25.807v-31.535h554.839c7.126,0,12.903-5.777,12.903-12.903s-5.777-12.903-12.903-12.903
		H25.807v-31.535h748.387v31.535H632.258z M114.701,326.882v88.895H25.807v-88.895H114.701z M197.85,415.776v-88.895h88.895v44.438
		c0,7.126,5.777,12.903,12.903,12.903h474.546v31.553H197.85z M312.551,358.417v-31.535h461.643v31.535H312.551z M312.551,301.075
		V269.54h461.643v31.535H312.551z M312.551,243.733v-31.553h461.643v31.553H312.551z M114.701,243.733H25.807v-88.895h88.895
		V243.733z M25.807,645.161v-31.535h748.387v31.535H25.807z"/>
</g>
</svg>
