<?xml version="1.0" encoding="utf-8"?>
<!-- Generator: Adobe Illustrator 16.0.0, SVG Export Plug-In . SVG Version: 6.00 Build 0)  -->
<!DOCTYPE svg PUBLIC "-//W3C//DTD SVG 1.1//EN" "http://www.w3.org/Graphics/SVG/1.1/DTD/svg11.dtd">
<svg version="1.1" id="Capa_1" xmlns="http://www.w3.org/2000/svg" xmlns:xlink="http://www.w3.org/1999/xlink" x="0px" y="0px"
	 width="800px" height="800px" viewBox="0 0 800 800" enable-background="new 0 0 800 800" xml:space="preserve">
<g>
	<path fill="#ED1F34" d="M24.807,646.161V411.903h179.995l0.083,0.91c2.094,23.124,9.969,45.566,22.772,64.899
		c2.212,3.341,5.926,5.334,9.938,5.334c2.336,0,4.604-0.686,6.559-1.981c0.1-0.066,0.195-0.14,0.291-0.213l0.944-0.701l0.603,0.739
		c5.467,6.698,11.637,12.868,18.336,18.337l0.738,0.603l-0.7,0.943c-0.073,0.096-0.146,0.19-0.214,0.293
		c-3.624,5.472-2.12,12.873,3.353,16.496c23.091,15.291,49.964,23.373,77.713,23.373c72.179,0,133.817-56.278,140.327-128.122
		l0.083-0.91h197.383c6.563,0,11.903-5.34,11.903-11.903v-1h27.807v1c0,6.563,5.34,11.903,11.903,11.903h40.569v234.258H24.807z"/>
	<path fill="#ED1F34" d="M734.624,412.903c-7.128,0-12.903-5.777-12.903-12.903h-25.807c0,7.126-5.775,12.903-12.903,12.903h-196.47
		c-6.545,72.235-67.411,129.032-141.323,129.032c-27.946,0-55.01-8.14-78.266-23.539c-5.942-3.935-7.568-11.941-3.633-17.884
		c0.119-0.179,0.251-0.341,0.376-0.511c-6.765-5.521-12.958-11.715-18.479-18.479c-0.17,0.126-0.332,0.258-0.511,0.377
		c-5.939,3.937-13.948,2.309-17.882-3.634c-13.015-19.652-20.822-42.031-22.935-65.362H25.807v232.258h748.387V412.903H734.624z"/>
	<path fill="#FFFFFF" d="M734.624,387.097h39.569V154.839H25.807v232.258h178.09c6.544-72.235,67.41-129.032,141.323-129.032
		c73.911,0,134.778,56.797,141.323,129.032h196.468c7.128,0,12.903,5.777,12.903,12.903h25.807
		C721.721,392.874,727.496,387.097,734.624,387.097z"/>
	<path d="M787.097,129.032H12.903C5.777,129.032,0,134.81,0,141.936v516.129c0,7.126,5.777,12.903,12.903,12.903h774.193
		c7.128,0,12.903-5.777,12.903-12.903V141.936C800,134.81,794.225,129.032,787.097,129.032z M25.807,645.161V412.903h178.082
		c2.113,23.331,9.918,45.71,22.935,65.362c3.935,5.942,11.943,7.568,17.882,3.634c0.179-0.119,0.34-0.251,0.511-0.377
		c5.511-4.048,6.94-11.743,3.123-17.505c-12.592-19.015-19.248-41.151-19.248-64.018c0-64.034,52.095-116.129,116.129-116.129
		S461.349,335.966,461.349,400S409.254,516.129,345.22,516.129c-22.864,0-45.001-6.656-64.017-19.25
		c-5.764-3.815-13.457-2.388-17.505,3.123c-0.125,0.17-0.258,0.332-0.377,0.511c-3.935,5.942-2.309,13.947,3.634,17.884
		c23.253,15.399,50.317,23.539,78.264,23.539c73.912,0,134.778-56.797,141.323-129.032h196.47c7.128,0,12.903-5.777,12.903-12.903
		s-5.775-12.903-12.903-12.903h-196.47c-6.545-72.235-67.411-129.032-141.323-129.032c-73.911,0-134.778,56.797-141.323,129.032
		H25.807V154.839h748.387v232.258h-39.569c-7.128,0-12.903,5.777-12.903,12.903s5.775,12.903,12.903,12.903h39.569v232.258H25.807z"
		/>
	<path fill="#FFFFFF" d="M263.695,500.002c4.048-5.513,11.742-6.938,17.505-3.123c19.016,12.594,41.153,19.25,64.017,19.25
		c64.035,0,116.129-52.095,116.129-116.129H229.089c0,22.866,6.656,45.003,19.249,64.018c3.817,5.763,2.388,13.457-3.123,17.505
		C250.737,488.287,256.929,494.48,263.695,500.002z"/>
	<path fill="#ED1F34" d="M228.089,401v-1c0-64.585,52.544-117.129,117.129-117.129S462.347,335.415,462.348,400v1H228.089z"/>
	<path fill="#ED1F34" d="M345.218,283.871c-64.034,0-116.129,52.095-116.129,116.129h232.259
		C461.347,335.966,409.253,283.871,345.218,283.871z"/>
</g>
</svg>
