<?xml version="1.0" encoding="utf-8"?>
<!-- Generator: Adobe Illustrator 16.0.0, SVG Export Plug-In . SVG Version: 6.00 Build 0)  -->
<!DOCTYPE svg PUBLIC "-//W3C//DTD SVG 1.1//EN" "http://www.w3.org/Graphics/SVG/1.1/DTD/svg11.dtd">
<svg version="1.1" id="Capa_1" xmlns="http://www.w3.org/2000/svg" xmlns:xlink="http://www.w3.org/1999/xlink" x="0px" y="0px"
	 width="800px" height="800px" viewBox="0 0 800 800" enable-background="new 0 0 800 800" xml:space="preserve">
<g>
	<path fill="#ED1F34" d="M24.807,646.161V153.839h659.064c6.563,0,11.903-5.34,11.903-11.903v-1h27.807v1
		c0,6.563,5.34,11.903,11.903,11.903h39.709v492.322H24.807z M554.839,603.15c-6.563,0-11.903,5.34-11.903,11.903
		s5.34,11.903,11.903,11.903s11.903-5.34,11.903-11.903S561.402,603.15,554.839,603.15z M400,603.15
		c-6.563,0-11.903,5.34-11.903,11.903s5.34,11.903,11.903,11.903s11.903-5.34,11.903-11.903S406.563,603.15,400,603.15z
		 M245.161,603.15c-6.563,0-11.903,5.34-11.903,11.903s5.34,11.903,11.903,11.903s11.903-5.34,11.903-11.903
		S251.725,603.15,245.161,603.15z M98.925,216.054c-6.563,0-11.903,5.34-11.903,11.903v344.086c0,6.563,5.34,11.903,11.903,11.903
		h602.15c6.563,0,11.903-5.34,11.903-11.903V227.957c0-6.563-5.34-11.903-11.903-11.903H98.925z M554.839,173.043
		c-6.563,0-11.903,5.34-11.903,11.903s5.34,11.903,11.903,11.903s11.903-5.34,11.903-11.903S561.402,173.043,554.839,173.043z
		 M400,173.043c-6.563,0-11.903,5.34-11.903,11.903s5.34,11.903,11.903,11.903s11.903-5.34,11.903-11.903
		S406.563,173.043,400,173.043z M245.161,173.043c-6.563,0-11.903,5.34-11.903,11.903s5.34,11.903,11.903,11.903
		s11.903-5.34,11.903-11.903S251.725,173.043,245.161,173.043z"/>
	<path fill="#ED1F34" d="M24.807,646.161V153.839h659.064c6.563,0,11.903-5.34,11.903-11.903v-1h27.807v1
		c0,6.563,5.34,11.903,11.903,11.903h39.709v492.322H24.807z M554.839,603.15c-6.563,0-11.903,5.34-11.903,11.903
		s5.34,11.903,11.903,11.903s11.903-5.34,11.903-11.903S561.402,603.15,554.839,603.15z M400,603.15
		c-6.563,0-11.903,5.34-11.903,11.903s5.34,11.903,11.903,11.903s11.903-5.34,11.903-11.903S406.563,603.15,400,603.15z
		 M245.161,603.15c-6.563,0-11.903,5.34-11.903,11.903s5.34,11.903,11.903,11.903s11.903-5.34,11.903-11.903
		S251.725,603.15,245.161,603.15z M98.925,216.054c-6.563,0-11.903,5.34-11.903,11.903v344.086c0,6.563,5.34,11.903,11.903,11.903
		h602.15c6.563,0,11.903-5.34,11.903-11.903V227.957c0-6.563-5.34-11.903-11.903-11.903H98.925z M554.839,173.043
		c-6.563,0-11.903,5.34-11.903,11.903s5.34,11.903,11.903,11.903s11.903-5.34,11.903-11.903S561.402,173.043,554.839,173.043z
		 M400,173.043c-6.563,0-11.903,5.34-11.903,11.903s5.34,11.903,11.903,11.903s11.903-5.34,11.903-11.903
		S406.563,173.043,400,173.043z M245.161,173.043c-6.563,0-11.903,5.34-11.903,11.903s5.34,11.903,11.903,11.903
		s11.903-5.34,11.903-11.903S251.725,173.043,245.161,173.043z"/>
	<path fill="#ED1F34" d="M683.871,154.839H25.807v490.322h748.387V154.839h-38.709c-7.127,0-12.903-5.775-12.903-12.903h-25.807
		C696.774,149.063,690.997,154.839,683.871,154.839z M554.839,172.043c7.126,0,12.903,5.775,12.903,12.903
		s-5.777,12.903-12.903,12.903s-12.903-5.775-12.903-12.903S547.713,172.043,554.839,172.043z M400,172.043
		c7.126,0,12.903,5.775,12.903,12.903S407.126,197.85,400,197.85s-12.903-5.775-12.903-12.903S392.874,172.043,400,172.043z
		 M245.161,172.043c7.126,0,12.903,5.775,12.903,12.903s-5.777,12.903-12.903,12.903s-12.903-5.775-12.903-12.903
		S238.035,172.043,245.161,172.043z M245.161,627.957c-7.126,0-12.903-5.775-12.903-12.903s5.777-12.903,12.903-12.903
		s12.903,5.775,12.903,12.903S252.287,627.957,245.161,627.957z M400,627.957c-7.126,0-12.903-5.775-12.903-12.903
		S392.874,602.15,400,602.15s12.903,5.775,12.903,12.903S407.126,627.957,400,627.957z M554.839,627.957
		c-7.126,0-12.903-5.775-12.903-12.903s5.777-12.903,12.903-12.903s12.903,5.775,12.903,12.903S561.965,627.957,554.839,627.957z
		 M701.075,215.054c7.126,0,12.903,5.775,12.903,12.903v344.086c0,7.128-5.777,12.903-12.903,12.903H98.925
		c-7.126,0-12.903-5.775-12.903-12.903V227.957c0-7.128,5.777-12.903,12.903-12.903H701.075z"/>
	<path fill="#FFE000" d="M117.74,560.14l224.382-128.219l0.497,0.867c11.767,20.546,33.754,33.309,57.381,33.309
		c23.628,0,45.614-12.763,57.381-33.309l0.497-0.867L682.26,560.14H117.74z"/>
	<path fill="#FFE000" d="M400,467.097c-24.939,0-46.684-13.617-58.249-33.812L121.505,559.14h556.989L458.249,433.285
		C446.684,453.479,424.939,467.097,400,467.097z"/>
	<path fill="#FFE000" d="M457.381,367.212c-11.767-20.545-33.753-33.309-57.381-33.309c-23.627,0-45.615,12.763-57.381,33.309
		l-0.497,0.867L117.74,239.86h564.52L457.878,368.079L457.381,367.212z"/>
	<path fill="#FFE000" d="M341.751,366.715c11.565-20.194,33.31-33.812,58.249-33.812s46.684,13.617,58.249,33.812L678.494,240.86
		H121.505L341.751,366.715z"/>
	<path fill="#259245" d="M110.828,560.14V239.86h10.943l221.345,126.483l-0.498,0.869c-5.702,9.957-8.715,21.295-8.715,32.788
		c0,11.493,3.014,22.831,8.715,32.788l0.498,0.869L121.771,560.14H110.828z M174.624,356.675
		c-16.307,8.469-26.413,25.022-26.413,43.325s10.106,34.856,26.413,43.325c16.307-8.469,26.414-25.022,26.414-43.325
		S190.931,365.144,174.624,356.675z"/>
	<path fill="#259245" d="M332.903,400c0-12.117,3.229-23.474,8.848-33.285L121.505,240.86h-9.677V559.14h9.677l220.246-125.854
		C336.133,423.474,332.903,412.117,332.903,400z M174.624,444.449C158.39,436.224,147.21,419.412,147.21,400
		c0-19.412,11.179-36.224,27.413-44.449c16.234,8.226,27.414,25.038,27.414,44.449C202.037,419.412,190.857,436.224,174.624,444.449
		z"/>
	<path fill="#259245" d="M678.229,560.14L456.884,433.657l0.497-0.869c5.702-9.957,8.716-21.295,8.716-32.788
		c0-11.493-3.014-22.831-8.716-32.788l-0.497-0.869L678.229,239.86h10.943V560.14H678.229z"/>
	<path fill="#259245" d="M467.097,400c0,12.117-3.229,23.474-8.848,33.285L678.494,559.14h9.678V240.86h-9.678L458.249,366.715
		C463.867,376.526,467.097,387.883,467.097,400z"/>
	<path d="M787.097,129.032h-51.612c-7.127,0-12.903,5.775-12.903,12.903s5.776,12.903,12.903,12.903h38.709v490.322H25.807V154.839
		h658.064c7.126,0,12.903-5.775,12.903-12.903s-5.777-12.903-12.903-12.903H12.903C5.777,129.032,0,134.808,0,141.936v516.129
		c0,7.128,5.777,12.903,12.903,12.903h774.193c7.126,0,12.903-5.775,12.903-12.903V141.936
		C800,134.808,794.223,129.032,787.097,129.032z"/>
	<path fill="#ED1F34" d="M341.751,433.285c11.565,20.194,33.31,33.812,58.249,33.812s46.684-13.617,58.249-33.812
		c5.618-9.812,8.848-21.168,8.848-33.285s-3.229-23.474-8.848-33.285c-11.565-20.194-33.31-33.812-58.249-33.812
		s-46.684,13.617-58.249,33.812c-5.618,9.812-8.848,21.168-8.848,33.285S336.133,423.474,341.751,433.285z M400,365.591
		c18.973,0,34.408,15.436,34.408,34.409S418.973,434.408,400,434.408S365.592,418.973,365.592,400S381.027,365.591,400,365.591z"/>
	<path fill="#FFE000" d="M400,435.408c-19.524,0-35.408-15.884-35.408-35.408s15.884-35.409,35.408-35.409
		c19.524,0,35.408,15.884,35.408,35.409S419.524,435.408,400,435.408z"/>
	<path fill="#FFE000" d="M365.592,400c0,18.973,15.436,34.408,34.408,34.408s34.408-15.436,34.408-34.408
		S418.973,365.591,400,365.591S365.592,381.027,365.592,400z"/>
	<path fill="#FFE000" d="M174.624,355.551C158.39,363.776,147.21,380.588,147.21,400c0,19.412,11.179,36.224,27.413,44.449
		c16.234-8.226,27.414-25.037,27.414-44.449C202.037,380.588,190.857,363.776,174.624,355.551z"/>
	<path d="M86.021,227.957v344.086c0,7.128,5.777,12.903,12.903,12.903h602.15c7.126,0,12.903-5.775,12.903-12.903V227.957
		c0-7.128-5.777-12.903-12.903-12.903H98.925C91.799,215.054,86.021,220.829,86.021,227.957z M688.172,240.86V559.14h-9.678H121.505
		h-9.677V240.86h9.677h556.989H688.172z"/>
	<circle fill="#FFE000" cx="245.161" cy="184.946" r="12.903"/>
	<circle fill="#FFE000" cx="400" cy="184.946" r="12.903"/>
	<circle fill="#FFE000" cx="554.839" cy="184.946" r="12.903"/>
	<circle fill="#FFE000" cx="245.161" cy="615.054" r="12.903"/>
	<circle fill="#FFE000" cx="400" cy="615.054" r="12.903"/>
	<circle fill="#FFE000" cx="554.839" cy="615.054" r="12.903"/>
</g>
</svg>
