<?xml version="1.0" encoding="utf-8"?>
<!-- Generator: Adobe Illustrator 16.0.0, SVG Export Plug-In . SVG Version: 6.00 Build 0)  -->
<!DOCTYPE svg PUBLIC "-//W3C//DTD SVG 1.1//EN" "http://www.w3.org/Graphics/SVG/1.1/DTD/svg11.dtd">
<svg version="1.1" id="Capa_1" xmlns="http://www.w3.org/2000/svg" xmlns:xlink="http://www.w3.org/1999/xlink" x="0px" y="0px"
	 width="800px" height="800px" viewBox="0 0 800 800" enable-background="new 0 0 800 800" xml:space="preserve">
<g>
	<path fill="#ED1F34" d="M24.807,646.161V153.839h39.709c6.563,0,11.903-5.34,11.903-11.903v-1h27.806v1
		c0,6.563,5.34,11.903,11.903,11.903h659.064v349.387c0,6.563,5.34,11.903,11.903,11.903h1v27.807h-1
		c-6.563,0-11.903,5.34-11.903,11.903v91.322H24.807z M734.484,605.451V194.548H65.516v410.903H734.484z"/>
	<path fill="#ED1F34" d="M774.193,503.226V154.839H116.129c-7.126,0-12.903-5.775-12.903-12.903H77.419
		c0,7.128-5.777,12.903-12.903,12.903H25.807v490.322h748.387v-90.322c0-7.128,5.775-12.903,12.903-12.903v-25.807
		C779.969,516.129,774.193,510.354,774.193,503.226z M735.484,606.451H64.516V193.548h670.968V606.451z"/>
	<path fill="#103B9B" d="M63.516,607.451V192.548h672.968v414.903H63.516z M399.999,247.021c-1.859,0-3.72,0.445-5.379,1.286
		C336.927,277.54,301.088,335.665,301.088,400c0,64.334,35.839,122.459,93.53,151.693c1.661,0.841,3.521,1.285,5.38,1.285
		c1.86,0,3.721-0.444,5.381-1.285c57.691-29.231,93.53-87.357,93.53-151.693c0-64.334-35.839-122.46-93.531-151.693
		C403.719,247.466,401.858,247.021,399.999,247.021z"/>
	<path fill="#103B9B" d="M64.516,606.451h670.968V193.548H64.516V606.451z M394.168,247.415c3.666-1.858,7.996-1.858,11.662,0
		c58.029,29.404,94.079,87.869,94.079,152.585s-36.049,123.183-94.078,152.585c-1.833,0.929-3.834,1.394-5.833,1.394
		s-3.998-0.465-5.832-1.394c-58.028-29.404-94.078-87.869-94.078-152.585S336.14,276.817,394.168,247.415z"/>
	<path d="M774.193,554.839v90.322H25.807V154.839h38.709c7.126,0,12.903-5.775,12.903-12.903s-5.777-12.903-12.903-12.903H12.903
		C5.777,129.032,0,134.808,0,141.936v516.129c0,7.128,5.777,12.903,12.903,12.903h774.193c7.128,0,12.903-5.775,12.903-12.903
		V554.839c0-7.128-5.775-12.903-12.903-12.903S774.193,547.711,774.193,554.839z"/>
	<path d="M116.129,154.839h658.064v348.387c0,7.128,5.775,12.903,12.903,12.903S800,510.354,800,503.226v-361.29
		c0-7.128-5.775-12.903-12.903-12.903H116.129c-7.126,0-12.903,5.775-12.903,12.903S109.003,154.839,116.129,154.839z"/>
	<path fill="#3DB4EA" d="M474.103,400c0-52.736-28.226-100.599-74.103-126.446c-45.877,25.848-74.103,73.71-74.103,126.446H474.103z
		"/>
	<path fill="#164FCE" d="M341.202,464.946h117.597c9.908-19.761,15.306-41.888,15.306-64.946H325.897
		C325.897,423.059,331.293,445.186,341.202,464.946z"/>
	<path fill="#FFE000" d="M400,526.446c25.818-14.546,46.046-36.065,58.798-61.5H341.201C353.954,490.381,374.182,511.9,400,526.446z
		"/>
	<path fill="#ED1F34" d="M400,554.979c-2.173,0-4.346-0.52-6.284-1.502c-58.367-29.573-94.625-88.383-94.625-153.477
		c0-65.093,36.259-123.901,94.627-153.477c1.938-0.982,4.111-1.501,6.283-1.501c2.172,0,4.345,0.52,6.283,1.501
		C464.651,276.096,500.91,334.905,500.91,400c0,65.092-36.259,123.9-94.626,153.477C404.344,554.459,402.171,554.979,400,554.979z
		 M400,274.703c-45.107,25.645-73.103,73.603-73.103,125.297c0,22.363,5.255,44.666,15.199,64.498
		c12.797,25.524,32.812,46.537,57.904,60.799c25.09-14.262,45.104-35.274,57.904-60.799c9.942-19.832,15.198-42.135,15.198-64.498
		C473.103,348.305,445.107,300.348,400,274.703z"/>
	<path fill="#ED1F34" d="M394.168,552.585c1.832,0.929,3.833,1.394,5.832,1.394s3.998-0.465,5.832-1.394
		C463.86,523.181,499.91,464.716,499.91,400s-36.048-123.183-94.078-152.585c-3.666-1.858-7.996-1.858-11.662,0
		c-58.029,29.404-94.079,87.869-94.079,152.585S336.14,523.183,394.168,552.585z M400,273.554
		c45.877,25.848,74.103,73.71,74.103,126.446c0,23.059-5.397,45.186-15.305,64.946c-12.754,25.435-32.981,46.954-58.798,61.5
		c-25.818-14.546-46.046-36.065-58.798-61.5c-9.907-19.761-15.305-41.888-15.305-64.946
		C325.897,347.264,354.123,299.401,400,273.554z"/>
</g>
</svg>
