<?xml version="1.0" encoding="utf-8"?>
<!-- Generator: Adobe Illustrator 16.0.0, SVG Export Plug-In . SVG Version: 6.00 Build 0)  -->
<!DOCTYPE svg PUBLIC "-//W3C//DTD SVG 1.1//EN" "http://www.w3.org/Graphics/SVG/1.1/DTD/svg11.dtd">
<svg version="1.1" id="Capa_1" xmlns="http://www.w3.org/2000/svg" xmlns:xlink="http://www.w3.org/1999/xlink" x="0px" y="0px"
	 width="800px" height="800px" viewBox="0 0 800 800" enable-background="new 0 0 800 800" xml:space="preserve">
<g>
	<path fill="#FFFFFF" d="M445.089,422.645c9.807-16.477,9.807-37.205,0-53.681l-26.84,26.84L445.089,422.645z"/>
	<path fill="#FFFFFF" d="M373.159,440.895c16.476,9.805,37.206,9.805,53.683,0L400,414.053L373.159,440.895z"/>
	<path fill="#FFFFFF" d="M354.911,368.962c-9.807,16.477-9.807,37.204,0,53.681l26.84-26.84L354.911,368.962z"/>
	<path fill="#FFFFFF" d="M504.086,245.161v-90.322H295.914v490.322h208.172V296.774c0-7.128,5.775-12.903,12.903-12.903v-25.807
		C509.861,258.064,504.086,252.289,504.086,245.161z M455.354,451.155c-14.786,14.785-34.445,22.927-55.354,22.927
		s-40.567-8.142-55.354-22.927c-30.52-30.522-30.52-80.182,0-110.706c5.041-5.038,13.21-5.038,18.249,0l37.103,37.103l37.104-37.103
		c5.04-5.038,13.209-5.038,18.248,0C485.873,370.973,485.873,420.633,455.354,451.155z"/>
	<path fill="#3DB4EA" d="M528.893,646.161V296.774c0-6.563-5.34-11.903-11.903-11.903h-1v-27.807h1
		c6.563,0,11.903-5.34,11.903-11.903v-91.322h246.301v492.322H528.893z"/>
	<path fill="#3DB4EA" d="M529.893,245.161c0,7.128-5.775,12.903-12.903,12.903v25.807c7.128,0,12.903,5.775,12.903,12.903v348.387
		h244.301V154.839H529.893V245.161z"/>
	<rect x="24.807" y="153.839" fill="#3DB4EA" width="246.301" height="492.322"/>
	<rect x="25.807" y="154.839" fill="#3DB4EA" width="244.301" height="490.322"/>
	<path d="M787.097,129.032H12.903C5.775,129.032,0,134.808,0,141.936v516.129c0,7.128,5.775,12.903,12.903,12.903h774.193
		c7.128,0,12.903-5.775,12.903-12.903V141.936C800,134.808,794.225,129.032,787.097,129.032z M774.193,645.161H529.893V296.774
		c0-7.128-5.775-12.903-12.903-12.903s-12.903,5.775-12.903,12.903v348.387H295.914V154.839h208.172v90.322
		c0,7.128,5.775,12.903,12.903,12.903s12.903-5.775,12.903-12.903v-90.322h244.301V645.161z M25.807,154.839h244.301v490.322H25.807
		V154.839z"/>
	<path fill="#D9D9D9" d="M362.897,358.699c-3.148,3.148-5.807,6.602-7.986,10.263l26.84,26.84l-26.84,26.84
		c2.18,3.661,4.838,7.115,7.986,10.263c3.148,3.148,6.601,5.806,10.262,7.987L400,414.051l26.841,26.842
		c3.661-2.18,7.113-4.839,10.262-7.987s5.807-6.602,7.986-10.263l-26.84-26.84l26.84-26.84c-2.18-3.661-4.838-7.116-7.986-10.263
		c-5.039-5.041-5.039-13.209,0-18.249L400,377.554l-37.103-37.103C367.935,345.49,367.935,353.659,362.897,358.699z"/>
	<path fill="#259245" d="M437.103,340.451c-5.039,5.041-5.039,13.209,0,18.249c3.148,3.148,5.807,6.602,7.986,10.263
		c9.807,16.477,9.807,37.204,0,53.681c-2.18,3.661-4.838,7.115-7.986,10.263c-3.148,3.148-6.601,5.806-10.262,7.987
		c-16.476,9.805-37.206,9.805-53.683,0c-3.661-2.18-7.114-4.839-10.263-7.987s-5.807-6.602-7.986-10.263
		c-9.807-16.477-9.807-37.204,0-53.681c2.18-3.661,4.838-7.116,7.986-10.263c5.039-5.041,5.039-13.209,0-18.249
		c-5.041-5.038-13.209-5.038-18.249,0c-30.52,30.522-30.52,80.182,0,110.707c14.786,14.785,34.445,22.926,55.354,22.926
		s40.567-8.141,55.354-22.926c30.52-30.522,30.52-80.183,0-110.707C450.313,335.413,442.144,335.413,437.103,340.451z"/>
</g>
</svg>
