<?xml version="1.0" encoding="utf-8"?>
<!-- Generator: Adobe Illustrator 16.0.0, SVG Export Plug-In . SVG Version: 6.00 Build 0)  -->
<!DOCTYPE svg PUBLIC "-//W3C//DTD SVG 1.1//EN" "http://www.w3.org/Graphics/SVG/1.1/DTD/svg11.dtd">
<svg version="1.1" id="Capa_1" xmlns="http://www.w3.org/2000/svg" xmlns:xlink="http://www.w3.org/1999/xlink" x="0px" y="0px"
	 width="800px" height="800px" viewBox="0 0 800 800" enable-background="new 0 0 800 800" xml:space="preserve">
<g>
	<rect x="476.129" y="154.839" fill="#FFFFFF" width="298.064" height="169.032"/>
	<rect x="25.807" y="476.129" fill="#FFFFFF" width="298.064" height="169.032"/>
	<rect x="25.807" y="154.839" fill="#FFFFFF" width="298.064" height="169.032"/>
	<path fill="#FFFFFF" d="M774.193,476.129h-38.709c-7.128,0-12.903-5.777-12.903-12.903l0,0h-25.807l0,0
		c0,7.126-5.775,12.903-12.903,12.903H476.129v169.032h298.064V476.129z"/>
	<path fill="#ED1F34" d="M348.678,646.161V463.226c0-6.563-5.34-11.903-11.903-11.903H24.807V348.677h311.968
		c6.563,0,11.903-5.34,11.903-11.903V153.839h102.645v182.936c0,6.563,5.34,11.903,11.903,11.903h311.968v102.645h-39.709
		c-6.563,0-11.903,5.34-11.903,11.903v1h-27.807v-1c0-6.563-5.34-11.903-11.903-11.903H463.226c-6.563,0-11.903,5.34-11.903,11.903
		v182.936H348.678z M388.097,411.903v132.13l-0.532,0.281c-3.917,2.072-6.35,6.104-6.35,10.524c0,6.563,5.34,11.903,11.903,11.903
		h13.764c6.563,0,11.903-5.34,11.903-11.903c0-4.42-2.433-8.452-6.35-10.524l-0.532-0.281v-132.13h132.13l0.281,0.532
		c2.072,3.917,6.104,6.35,10.524,6.35c6.563,0,11.903-5.34,11.903-11.903v-13.764c0-6.563-5.34-11.903-11.903-11.903
		c-4.42,0-8.453,2.433-10.524,6.35l-0.281,0.532h-132.13v-132.13l0.532-0.281c3.917-2.072,6.35-6.104,6.35-10.524
		c0-6.563-5.34-11.903-11.903-11.903h-13.764c-6.563,0-11.903,5.34-11.903,11.903c0,4.42,2.433,8.453,6.35,10.524l0.532,0.281
		v132.13h-132.13l-0.282-0.532c-2.071-3.917-6.104-6.35-10.524-6.35c-6.563,0-11.903,5.34-11.903,11.903v13.764
		c0,6.563,5.34,11.903,11.903,11.903c4.42,0,8.453-2.433,10.524-6.35l0.281-0.532H388.097z"/>
	<path fill="#ED1F34" d="M735.484,450.322h38.709V349.677H463.226c-7.128,0-12.903-5.777-12.903-12.903V154.839H349.678v181.936
		c0,7.126-5.775,12.903-12.903,12.903H25.807v100.645h310.968c7.128,0,12.903,5.777,12.903,12.903v181.936h100.645V463.226
		c0-7.126,5.775-12.903,12.903-12.903h220.646c7.128,0,12.903,5.777,12.903,12.903h25.807
		C722.581,456.1,728.356,450.322,735.484,450.322z M567.742,406.882c0,7.126-5.775,12.903-12.903,12.903
		c-4.951,0-9.244-2.791-11.408-6.882H412.903v130.527c4.091,2.164,6.882,6.457,6.882,11.408c0,7.126-5.775,12.903-12.903,12.903
		h-13.764c-7.128,0-12.903-5.777-12.903-12.903c0-4.95,2.791-9.244,6.882-11.408V412.903H256.569
		c-2.164,4.091-6.457,6.882-11.408,6.882c-7.127,0-12.903-5.777-12.903-12.903v-13.764c0-7.126,5.776-12.903,12.903-12.903
		c4.952,0,9.244,2.791,11.408,6.882h130.527V256.569c-4.091-2.164-6.882-6.457-6.882-11.408c0-7.126,5.775-12.903,12.903-12.903
		h13.764c7.128,0,12.903,5.777,12.903,12.903c0,4.95-2.791,9.244-6.882,11.408v130.527h130.527
		c2.164-4.091,6.457-6.882,11.408-6.882c7.128,0,12.903,5.777,12.903,12.903V406.882L567.742,406.882z"/>
	<path d="M787.097,129.032H12.903C5.775,129.032,0,134.81,0,141.936v516.129c0,7.126,5.775,12.903,12.903,12.903h774.193
		c7.128,0,12.903-5.777,12.903-12.903V141.936C800,134.81,794.225,129.032,787.097,129.032z M774.193,323.871H476.129V154.839
		h298.064V323.871z M323.871,323.871H25.807V154.839h298.064V323.871z M25.807,476.129h298.064v169.032H25.807V476.129z
		 M476.129,476.129h207.742c7.128,0,12.903-5.777,12.903-12.903l0,0c0-7.126-5.775-12.903-12.903-12.903H463.226
		c-7.128,0-12.903,5.777-12.903,12.903v181.936H349.678V463.226c0-7.126-5.775-12.903-12.903-12.903H25.807V349.677h310.968
		c7.128,0,12.903-5.777,12.903-12.903V154.839h100.645v181.936c0,7.126,5.775,12.903,12.903,12.903h310.968v100.645h-38.709
		c-7.128,0-12.903,5.777-12.903,12.903l0,0c0,7.126,5.775,12.903,12.903,12.903h38.709v169.032H476.129V476.129z"/>
	<path fill="#FFE000" d="M554.839,380.215c-4.951,0-9.244,2.791-11.408,6.882H412.903V256.569c4.091-2.164,6.882-6.457,6.882-11.408
		c0-7.126-5.775-12.903-12.903-12.903h-13.764c-7.128,0-12.903,5.777-12.903,12.903c0,4.95,2.791,9.244,6.882,11.408v130.527
		H256.569c-2.164-4.091-6.457-6.882-11.408-6.882c-7.127,0-12.903,5.777-12.903,12.903v13.764c0,7.126,5.776,12.903,12.903,12.903
		c4.952,0,9.244-2.791,11.408-6.882h130.527v130.527c-4.091,2.164-6.882,6.457-6.882,11.408c0,7.126,5.775,12.903,12.903,12.903
		h13.764c7.128,0,12.903-5.777,12.903-12.903c0-4.95-2.791-9.244-6.882-11.408V412.903h130.527
		c2.164,4.091,6.457,6.882,11.408,6.882c7.128,0,12.903-5.777,12.903-12.903v-13.764
		C567.742,385.992,561.967,380.215,554.839,380.215z"/>
</g>
</svg>
