<?xml version="1.0" encoding="utf-8"?>
<!-- Generator: Adobe Illustrator 16.0.0, SVG Export Plug-In . SVG Version: 6.00 Build 0)  -->
<!DOCTYPE svg PUBLIC "-//W3C//DTD SVG 1.1//EN" "http://www.w3.org/Graphics/SVG/1.1/DTD/svg11.dtd">
<svg version="1.1" id="Capa_1" xmlns="http://www.w3.org/2000/svg" xmlns:xlink="http://www.w3.org/1999/xlink" x="0px" y="0px"
	 width="800px" height="800px" viewBox="0 0 800 800" enable-background="new 0 0 800 800" xml:space="preserve">
<g>
	<path fill="#259245" d="M282.871,646.161V411.903h401c6.563,0,11.903-5.34,11.903-11.903v-1h27.807v1
		c0,6.563,5.34,11.903,11.903,11.903h39.709v234.258H282.871z"/>
	<path fill="#259245" d="M774.193,412.903h-38.709c-7.127,0-12.903-5.775-12.903-12.903h-25.807c0,7.126-5.777,12.903-12.903,12.903
		h-400v232.258h490.322V412.903z"/>
	<path fill="#FFE000" d="M695.774,401v-1c0-6.563-5.34-11.903-11.903-11.903h-401V153.839h492.322v234.258h-39.709
		c-6.563,0-11.903,5.34-11.903,11.903v1H695.774z"/>
	<path fill="#FFE000" d="M722.581,400c0-7.128,5.776-12.903,12.903-12.903h38.709V154.839H283.871v232.258h400
		c7.126,0,12.903,5.775,12.903,12.903l0,0H722.581L722.581,400z"/>
	<path fill="#ED1F34" d="M24.807,646.161V153.839h234.258v492.322H24.807z M171.219,465.034c1.936,1.259,4.179,1.925,6.488,1.925
		c2.531,0,4.952-0.787,7-2.274c3.962-2.878,5.77-7.989,4.5-12.719l-9.067-33.741l27.167-21.965c3.808-3.082,5.35-8.28,3.836-12.937
		c-1.513-4.659-5.815-7.958-10.707-8.21l-34.889-1.8l-12.495-32.625c-1.751-4.572-6.218-7.645-11.116-7.645
		c-4.897,0-9.365,3.073-11.118,7.647l-12.496,32.625l-34.889,1.8c-4.891,0.252-9.193,3.552-10.707,8.21
		c-1.513,4.657,0.029,9.854,3.836,12.934l27.167,21.966l-9.067,33.739c-1.271,4.73,0.538,9.842,4.499,12.718
		c2.047,1.489,4.466,2.275,6.998,2.275c2.311,0,4.555-0.666,6.489-1.925l29.287-19.05L171.219,465.034z"/>
	<path fill="#ED1F34" d="M258.064,154.839H25.807v490.322h232.258V154.839z M207.935,397.038l-26.662,21.556l8.898,33.112
		c1.386,5.161-0.552,10.646-4.877,13.787c-4.324,3.142-10.139,3.295-14.621,0.379l-28.738-18.696l-28.742,18.694
		c-2.144,1.396-4.59,2.087-7.035,2.087c-2.667,0-5.328-0.824-7.585-2.466c-4.325-3.141-6.264-8.624-4.877-13.787l8.898-33.111
		l-26.661-21.557c-4.157-3.362-5.81-8.936-4.159-14.02c1.652-5.083,6.268-8.624,11.606-8.899l34.24-1.767l12.263-32.017
		c1.913-4.993,6.707-8.289,12.052-8.289s10.139,3.296,12.05,8.287l12.262,32.018l34.24,1.767c5.338,0.275,9.955,3.816,11.606,8.9
		C213.746,388.1,212.091,393.674,207.935,397.038z"/>
	<path d="M787.097,129.032H12.903C5.777,129.032,0,134.81,0,141.936v516.129c0,7.128,5.777,12.903,12.903,12.903h774.193
		c7.126,0,12.903-5.775,12.903-12.903V141.936C800,134.81,794.225,129.032,787.097,129.032z M283.871,412.903h400
		c7.126,0,12.903-5.775,12.903-12.903l0,0c0-7.128-5.777-12.903-12.903-12.903h-400V154.839h490.322v232.258h-38.709
		c-7.127,0-12.903,5.775-12.903,12.903l0,0c0,7.126,5.776,12.903,12.903,12.903h38.709v232.258H283.871V412.903z M25.807,154.839
		h232.258v490.322H25.807V154.839z"/>
	<path fill="#333333" d="M148.425,421.805c-1.936-1.259-4.18-1.924-6.489-1.924c-2.31,0-4.555,0.665-6.492,1.925l-9.725,6.326
		l3.01-11.204c1.221-4.542-0.353-9.387-4.011-12.345l-9.02-7.293l11.584-0.599c4.698-0.245,8.82-3.24,10.502-7.631l4.149-10.834
		l4.15,10.833c1.682,4.393,5.804,7.389,10.501,7.631l11.584,0.599l-9.02,7.293c-3.658,2.958-5.232,7.803-4.011,12.345l3.011,11.205
		L148.425,421.805z"/>
	<path fill="#333333" d="M148.97,420.967l7.536,4.903l-2.333-8.683c-1.325-4.928,0.38-10.174,4.348-13.382l6.99-5.652l-8.978-0.464
		c-5.096-0.263-9.559-3.506-11.384-8.272l-3.216-8.396l-3.215,8.396c-1.825,4.766-6.288,8.007-11.384,8.272l-8.977,0.464l6.99,5.652
		c3.967,3.208,5.672,8.454,4.348,13.382l-2.333,8.683l7.537-4.903C139.178,418.186,144.693,418.186,148.97,420.967z"/>
	<path d="M212.093,383.016c-1.651-5.084-6.268-8.625-11.606-8.9l-34.24-1.767l-12.262-32.017c-1.911-4.993-6.705-8.289-12.05-8.289
		s-10.139,3.296-12.05,8.287l-12.263,32.018l-34.24,1.767c-5.338,0.275-9.955,3.816-11.606,8.9
		c-1.652,5.084,0.002,10.658,4.158,14.02l26.662,21.557l-8.898,33.111c-1.387,5.163,0.552,10.646,4.877,13.788
		c2.257,1.64,4.918,2.465,7.585,2.465c2.443,0,4.892-0.691,7.035-2.087l28.74-18.692l28.741,18.694
		c4.482,2.916,10.297,2.763,14.621-0.379c4.325-3.141,6.264-8.626,4.877-13.787l-8.898-33.111l26.662-21.557
		C212.091,393.674,213.746,388.1,212.093,383.016z M127.363,425.868l2.333-8.683c1.325-4.928-0.38-10.173-4.348-13.382l-6.99-5.651
		l8.977-0.465c5.096-0.263,9.559-3.506,11.384-8.271l3.215-8.396l3.215,8.396c1.826,4.766,6.288,8.007,11.384,8.271l8.977,0.465
		l-6.99,5.651c-3.967,3.209-5.672,8.454-4.347,13.382l2.333,8.683l-7.535-4.903c-4.277-2.781-9.793-2.781-14.071,0L127.363,425.868z
		"/>
</g>
</svg>
