<?xml version="1.0" encoding="utf-8"?>
<!-- Generator: Adobe Illustrator 16.0.0, SVG Export Plug-In . SVG Version: 6.00 Build 0)  -->
<!DOCTYPE svg PUBLIC "-//W3C//DTD SVG 1.1//EN" "http://www.w3.org/Graphics/SVG/1.1/DTD/svg11.dtd">
<svg version="1.1" id="Capa_1" xmlns="http://www.w3.org/2000/svg" xmlns:xlink="http://www.w3.org/1999/xlink" x="0px" y="0px"
	 width="800px" height="800px" viewBox="0 0 800 800" enable-background="new 0 0 800 800" xml:space="preserve">
<g>
	<path fill="#259245" d="M773.193,399.998c0-5.076-3.224-9.598-8.022-11.252L89.577,155.782l0.326-1.945h685.291v246.161H773.193z"
		/>
	<path fill="#259245" d="M774.193,399.998V154.837H89.903L765.497,387.8C770.701,389.595,774.193,394.493,774.193,399.998z"/>
	<path fill="#259245" d="M683.871,645.159h90.322V399.998c0,5.506-3.492,10.404-8.696,12.198L89.903,645.159h542.355
		c7.128,0,12.903,5.775,12.903,12.903h25.807C670.968,650.935,676.743,645.159,683.871,645.159z"/>
	<path fill="#FFE000" d="M102.939,612.345l303.663-202.442c3.319-2.212,5.301-5.914,5.301-9.904c0-3.989-1.981-7.691-5.301-9.903
		L102.939,187.652l0.881-1.777l620.955,214.124L103.82,614.122L102.939,612.345z"/>
	<path fill="#FFE000" d="M103.494,186.82l303.663,202.443c3.591,2.393,5.746,6.421,5.746,10.735s-2.155,8.344-5.746,10.736
		L103.494,613.177l618.214-213.179L103.494,186.82z"/>
	<path fill="#FFFFFF" d="M3.883,667.281c0.078,0.075,0.16,0.146,0.239,0.22c-0.01-0.009-0.017-0.019-0.027-0.027
		C4.026,667.41,3.952,667.348,3.883,667.281z"/>
	<path fill="#FFFFFF" d="M6.424,130.787c-0.138,0.079-0.274,0.158-0.408,0.243c0.105-0.065,0.213-0.125,0.318-0.188
		C6.366,130.823,6.395,130.804,6.424,130.787z"/>
	<path fill="#FFFFFF" d="M5.416,131.438c-0.146,0.105-0.292,0.208-0.434,0.318c0.129-0.102,0.263-0.194,0.396-0.289
		C5.392,131.457,5.404,131.446,5.416,131.438z"/>
	<path fill="#FFFFFF" d="M1.351,136.213c-0.072,0.148-0.148,0.294-0.215,0.447c0.067-0.15,0.141-0.297,0.215-0.444
		C1.349,136.217,1.349,136.213,1.351,136.213z"/>
	<path fill="#FFFFFF" d="M7.503,130.226c-0.134,0.064-0.27,0.124-0.403,0.191c0.076-0.038,0.155-0.072,0.232-0.108
		C7.389,130.281,7.446,130.252,7.503,130.226z"/>
	<path fill="#FFFFFF" d="M4.471,132.181c-0.158,0.136-0.314,0.275-0.468,0.42c0.139-0.134,0.286-0.26,0.43-0.386
		C4.446,132.205,4.458,132.191,4.471,132.181z"/>
	<path fill="#FFFFFF" d="M3.587,133.02c-0.165,0.174-0.329,0.351-0.485,0.535c0.034-0.04,0.07-0.076,0.105-0.115
		C3.331,133.297,3.457,133.156,3.587,133.02z"/>
	<path fill="#FFFFFF" d="M8.661,129.758c-0.148,0.052-0.296,0.103-0.442,0.16c0.055-0.021,0.112-0.038,0.167-0.061
		C8.479,129.825,8.569,129.791,8.661,129.758z"/>
	<path fill="#FFFFFF" d="M2.347,134.527c0.134-0.189,0.273-0.375,0.417-0.558C2.62,134.154,2.479,134.336,2.347,134.527z"/>
	<path fill="#FFFFFF" d="M11.807,129.084c0.205-0.018,0.411-0.026,0.616-0.035C12.217,129.058,12.012,129.066,11.807,129.084z"/>
	<path fill="#FFFFFF" d="M9.899,129.396c-0.176,0.043-0.349,0.084-0.523,0.134c0.06-0.017,0.12-0.029,0.181-0.044
		C9.67,129.454,9.786,129.424,9.899,129.396z"/>
	<path fill="#FFFFFF" d="M1.693,135.558c0.102-0.177,0.208-0.349,0.316-0.521C1.901,135.208,1.794,135.381,1.693,135.558z"/>
	<path fill="#FFFFFF" d="M0.313,660.862c0.031,0.134,0.067,0.268,0.102,0.402c-0.01-0.04-0.019-0.079-0.029-0.119
		C0.363,661.05,0.334,660.958,0.313,660.862z"/>
	<path fill="#FFFFFF" d="M7.083,669.57c0.084,0.044,0.17,0.081,0.256,0.123c-0.063-0.031-0.129-0.063-0.193-0.094
		C7.126,669.588,7.104,669.581,7.083,669.57z"/>
	<path fill="#FFFFFF" d="M10.715,670.767c0.136,0.023,0.272,0.045,0.41,0.063c-0.019-0.002-0.038-0.007-0.057-0.011
		C10.949,670.805,10.83,670.787,10.715,670.767z"/>
	<path fill="#FFFFFF" d="M12.915,670.968c-0.036,0-0.072-0.007-0.11-0.007c-0.009,0-0.017,0-0.024,0
		c0.041,0,0.081,0.009,0.122,0.009c0.014,0,0.027-0.004,0.04-0.004h-0.003C12.931,670.966,12.922,670.968,12.915,670.968z"/>
	<path fill="#FFFFFF" d="M0.091,659.541c0.019,0.17,0.048,0.34,0.074,0.511c-0.015-0.095-0.027-0.191-0.04-0.286
		C0.115,659.69,0.1,659.616,0.091,659.541z"/>
	<path fill="#FFFFFF" d="M0.007,658.213c0.002,0.211,0.014,0.425,0.027,0.636c-0.012-0.188-0.021-0.375-0.024-0.561
		C0.01,658.263,0.007,658.238,0.007,658.213z"/>
	<path fill="#FFFFFF" d="M0.165,139.945c-0.027,0.17-0.055,0.341-0.074,0.511c0.008-0.076,0.024-0.148,0.034-0.224
		C0.138,140.136,0.15,140.041,0.165,139.945z"/>
	<path fill="#FFFFFF" d="M0.805,137.479c-0.031,0.084-0.07,0.162-0.1,0.248c-0.014,0.041-0.022,0.084-0.036,0.127
		c0.036-0.11,0.081-0.218,0.12-0.327C0.795,137.511,0.8,137.495,0.805,137.479z"/>
	<path fill="#FFFFFF" d="M0.415,138.732c-0.034,0.134-0.072,0.269-0.102,0.403c0.021-0.097,0.05-0.188,0.072-0.284
		C0.396,138.811,0.404,138.771,0.415,138.732z"/>
	<path fill="#FFFFFF" d="M0.034,141.147c-0.014,0.213-0.024,0.425-0.027,0.637c0-0.026,0.003-0.05,0.003-0.076
		C0.014,141.522,0.024,141.335,0.034,141.147z"/>
	<path fill="#FFFFFF" d="M10.574,129.249c0.208-0.038,0.417-0.067,0.626-0.095C10.99,129.184,10.782,129.211,10.574,129.249z"/>
	<path fill="#FFFFFF" d="M2.767,666.03c-0.09-0.113-0.176-0.23-0.26-0.348C2.591,665.8,2.677,665.917,2.767,666.03z"/>
	<path fill="#FFFFFF" d="M9.001,670.362c-0.005-0.002-0.01-0.004-0.016-0.005C8.991,670.358,8.996,670.36,9.001,670.362z"/>
	<path fill="#FFFFFF" d="M0.706,662.27c0.017,0.048,0.043,0.089,0.06,0.138c-0.031-0.09-0.067-0.176-0.096-0.266
		C0.683,662.185,0.691,662.228,0.706,662.27z"/>
	<path fill="#FFFFFF" d="M1.543,664.186c-0.005-0.01-0.011-0.022-0.018-0.034C1.533,664.162,1.538,664.176,1.543,664.186z"/>
	<path fill="#FFFFFF" d="M5.507,668.637c-0.047-0.033-0.09-0.074-0.136-0.108C5.419,668.563,5.46,668.603,5.507,668.637z"/>
	<path fill="#FFFFFF" d="M774.193,399.998c0-5.505-3.492-10.403-8.696-12.198L89.903,154.837H55.52l47.974,31.983l618.214,213.178
		L103.494,613.177L55.52,645.159h34.383l675.594-232.963C770.701,410.402,774.193,405.504,774.193,399.998z"/>
	<polygon fill="#ED1F34" points="24.807,164.175 378.541,399.998 24.807,635.821 	"/>
	<polygon fill="#ED1F34" points="25.807,166.044 25.807,633.953 376.738,399.998 	"/>
	<path d="M787.097,129.03H12.903c-0.002,0-0.003,0-0.007,0c-0.158,0-0.315,0.014-0.473,0.021c-0.207,0.007-0.411,0.015-0.616,0.034
		c-0.072,0.005-0.146,0.005-0.22,0.012c-0.07,0.007-0.138,0.022-0.206,0.031c-0.061,0.007-0.121,0.019-0.181,0.028
		c-0.21,0.029-0.42,0.057-0.626,0.095c-0.072,0.014-0.146,0.021-0.218,0.034c-0.155,0.031-0.305,0.076-0.456,0.112
		c-0.114,0.027-0.229,0.059-0.342,0.088c-0.061,0.015-0.121,0.029-0.181,0.044c-0.078,0.022-0.155,0.038-0.232,0.061
		c-0.164,0.05-0.322,0.112-0.483,0.168c-0.091,0.033-0.182,0.067-0.275,0.1c-0.055,0.021-0.112,0.038-0.167,0.061
		c-0.086,0.034-0.173,0.062-0.258,0.096c-0.157,0.065-0.305,0.141-0.458,0.211c-0.057,0.028-0.114,0.055-0.17,0.083
		c-0.078,0.036-0.155,0.071-0.232,0.108c-0.095,0.048-0.192,0.091-0.286,0.141c-0.132,0.072-0.26,0.153-0.389,0.229
		c-0.029,0.017-0.059,0.036-0.089,0.055c-0.107,0.063-0.213,0.122-0.318,0.188c-0.096,0.062-0.194,0.117-0.289,0.181
		c-0.106,0.072-0.207,0.151-0.312,0.227c-0.014,0.009-0.026,0.019-0.038,0.029c-0.133,0.096-0.267,0.189-0.396,0.289
		c-0.089,0.069-0.179,0.134-0.267,0.206c-0.084,0.071-0.162,0.146-0.244,0.219c-0.014,0.01-0.026,0.024-0.038,0.034
		c-0.145,0.126-0.289,0.251-0.43,0.386c-0.071,0.067-0.145,0.129-0.213,0.198c-0.071,0.072-0.134,0.15-0.203,0.222
		c-0.131,0.136-0.256,0.277-0.38,0.418c-0.034,0.04-0.072,0.076-0.105,0.115c-0.048,0.057-0.103,0.108-0.149,0.165
		c-0.067,0.081-0.124,0.168-0.188,0.251c-0.143,0.183-0.284,0.367-0.417,0.558c-0.057,0.081-0.117,0.158-0.172,0.239
		c-0.002,0.003-0.005,0.005-0.007,0.008c-0.024,0.036-0.042,0.072-0.065,0.108c-0.033,0.048-0.061,0.102-0.091,0.151
		c-0.108,0.172-0.215,0.344-0.316,0.521c-0.061,0.105-0.123,0.208-0.179,0.313c-0.06,0.112-0.108,0.227-0.165,0.342v0.002
		c-0.074,0.148-0.146,0.296-0.215,0.446c-0.054,0.117-0.108,0.234-0.159,0.354c-0.063,0.153-0.113,0.31-0.172,0.466
		c-0.005,0.016-0.01,0.031-0.016,0.046c-0.044,0.108-0.087,0.217-0.124,0.327c-0.038,0.113-0.079,0.227-0.114,0.344
		c-0.053,0.177-0.093,0.356-0.139,0.535c-0.01,0.04-0.019,0.079-0.029,0.121c-0.024,0.095-0.052,0.188-0.072,0.284
		c-0.021,0.095-0.045,0.188-0.064,0.282c-0.034,0.175-0.057,0.353-0.084,0.528c-0.016,0.096-0.028,0.191-0.04,0.287
		c-0.01,0.076-0.026,0.148-0.035,0.224c-0.008,0.072-0.021,0.141-0.027,0.213c-0.016,0.16-0.019,0.32-0.029,0.479
		c-0.012,0.188-0.021,0.375-0.024,0.561c0,0.026-0.003,0.05-0.003,0.076C0.007,141.834,0,141.884,0,141.934v0.045
		c0,0,0,0.026,0,0.04v515.96c0,0.014,0,0.027,0,0.027v0.059c0,0.05,0.007,0.1,0.007,0.149c0,0.026,0.003,0.05,0.003,0.076
		c0.003,0.186,0.012,0.373,0.024,0.561c0.011,0.16,0.014,0.32,0.029,0.479c0.007,0.072,0.019,0.141,0.028,0.213
		c0.008,0.076,0.024,0.15,0.034,0.226c0.012,0.095,0.026,0.191,0.04,0.286c0.028,0.177,0.05,0.353,0.084,0.527
		c0.019,0.095,0.043,0.188,0.063,0.282c0.021,0.097,0.05,0.188,0.072,0.284c0.01,0.04,0.019,0.079,0.029,0.119
		c0.046,0.179,0.086,0.357,0.14,0.535c0.034,0.115,0.076,0.229,0.113,0.344c0.031,0.09,0.065,0.176,0.096,0.265
		c0.007,0.021,0.016,0.042,0.022,0.063c0.062,0.172,0.119,0.344,0.188,0.514c0.112,0.272,0.243,0.535,0.372,0.797
		c0.057,0.115,0.105,0.232,0.167,0.346c0.005,0.009,0.009,0.018,0.012,0.026c0.005,0.01,0.01,0.022,0.017,0.034
		c0.172,0.318,0.361,0.624,0.559,0.926c0.024,0.036,0.042,0.073,0.065,0.108c0.002,0.001,0.003,0.005,0.005,0.008
		c0.105,0.157,0.222,0.304,0.332,0.455c0.086,0.116,0.17,0.233,0.26,0.347c0.105,0.133,0.208,0.266,0.318,0.393
		c0.098,0.117,0.203,0.224,0.305,0.336c0.162,0.177,0.322,0.355,0.494,0.522c0.069,0.067,0.143,0.128,0.212,0.193
		c0.01,0.008,0.017,0.019,0.027,0.027c0.122,0.113,0.246,0.227,0.374,0.335c0.26,0.222,0.528,0.432,0.805,0.635
		c0.024,0.018,0.046,0.038,0.07,0.056c0.046,0.034,0.089,0.073,0.136,0.108c0.042,0.029,0.084,0.057,0.126,0.086
		c0.389,0.267,0.793,0.509,1.213,0.732c0.077,0.041,0.158,0.076,0.237,0.115c0.021,0.011,0.043,0.02,0.063,0.029
		c0.064,0.031,0.127,0.063,0.193,0.093c0.275,0.133,0.552,0.257,0.836,0.368c0.133,0.052,0.265,0.099,0.397,0.145
		c0.138,0.05,0.272,0.106,0.411,0.151c0.005,0.002,0.011,0.004,0.016,0.006c0.191,0.06,0.391,0.104,0.585,0.156
		c0.136,0.036,0.272,0.072,0.41,0.104c0.237,0.056,0.477,0.101,0.717,0.144c0.117,0.019,0.234,0.036,0.353,0.053
		c0.019,0.002,0.038,0.007,0.057,0.011c0.11,0.016,0.219,0.036,0.331,0.048c0.437,0.049,0.879,0.076,1.328,0.081
		c0.009,0,0.017,0,0.024,0c0.036,0,0.072,0.007,0.11,0.007c0.007,0,0.016-0.002,0.024-0.002h0.005h619.318
		c7.128,0,12.903-5.775,12.903-12.903c0-7.127-5.775-12.903-12.903-12.903H89.903H55.52l47.974-31.982l303.663-202.442
		c3.591-2.394,5.746-6.422,5.746-10.736s-2.155-8.344-5.746-10.735L103.494,186.82L55.52,154.837h34.383h684.291v245.161v245.161
		h-90.322c-7.128,0-12.903,5.775-12.903,12.903s5.775,12.903,12.903,12.903h103.226c7.128,0,12.903-5.775,12.903-12.903V141.934
		C800,134.806,794.225,129.03,787.097,129.03z M25.807,166.044l350.932,233.954L25.807,633.953V166.044z"/>
</g>
</svg>
