<?xml version="1.0" encoding="utf-8"?>
<!-- Generator: Adobe Illustrator 16.0.0, SVG Export Plug-In . SVG Version: 6.00 Build 0)  -->
<!DOCTYPE svg PUBLIC "-//W3C//DTD SVG 1.1//EN" "http://www.w3.org/Graphics/SVG/1.1/DTD/svg11.dtd">
<svg version="1.1" id="Capa_1" xmlns="http://www.w3.org/2000/svg" xmlns:xlink="http://www.w3.org/1999/xlink" x="0px" y="0px"
	 width="800px" height="800px" viewBox="0 0 800 800" enable-background="new 0 0 800 800" xml:space="preserve">
<g>
	<rect x="412.903" y="154.847" fill="#FFFFFF" width="361.29" height="51.613"/>
	<rect x="411.903" y="205.46" fill="#ED1F34" width="363.29" height="66.517"/>
	<rect x="412.903" y="206.46" fill="#ED1F34" width="361.29" height="64.517"/>
	<rect x="411.903" y="269.977" fill="#103B9B" width="363.29" height="66.516"/>
	<rect x="412.903" y="270.977" fill="#103B9B" width="361.29" height="64.516"/>
	<rect x="412.903" y="335.493" fill="#FFFFFF" width="361.29" height="64.516"/>
	<path fill="#ED1F34" d="M24.807,465.524v-53.621L400,411.912c3.179,0,6.169-1.238,8.418-3.485c2.247-2.251,3.485-5.241,3.485-8.418
		v-1h363.29v66.516H24.807z"/>
	<path fill="#ED1F34" d="M774.193,400.009h-361.29l0,0c0,3.422-1.359,6.702-3.778,9.125c-2.421,2.419-5.701,3.778-9.125,3.778
		l-374.193-0.009v51.621h748.387V400.009z"/>
	<rect x="24.807" y="463.524" fill="#103B9B" width="750.387" height="66.517"/>
	<rect x="25.807" y="464.524" fill="#103B9B" width="748.387" height="64.517"/>
	<rect x="25.807" y="529.041" fill="#FFFFFF" width="748.387" height="64.516"/>
	<path fill="#ED1F34" d="M695.774,659.073v-1c0-6.563-5.34-11.903-11.903-11.903H24.807v-53.613h750.387v53.613h-39.709
		c-6.563,0-11.903,5.34-11.903,11.903v1H695.774z"/>
	<path fill="#ED1F34" d="M735.484,645.17h38.709v-51.613H25.807v51.613h658.064c7.128,0,12.903,5.775,12.903,12.903h25.807
		C722.581,650.945,728.356,645.17,735.484,645.17z"/>
	<polygon fill="#103B9B" points="240.291,153.847 321.141,153.847 240.291,207.748 	"/>
	<polygon fill="#103B9B" points="317.838,154.847 241.291,154.847 241.291,205.879 	"/>
	<polygon fill="#103B9B" points="387.097,192.417 321.516,236.138 387.097,236.138 	"/>
	<polygon fill="#103B9B" points="91.763,153.847 172.613,153.847 172.613,207.748 	"/>
	<polygon fill="#103B9B" points="171.613,154.847 95.066,154.847 171.613,205.879 	"/>
	<polygon fill="#103B9B" points="24.807,237.138 24.807,190.548 94.69,237.138 	"/>
	<polygon fill="#103B9B" points="25.807,192.417 25.807,236.138 91.388,236.138 	"/>
	<polygon fill="#103B9B" points="24.807,304.815 94.69,304.815 24.807,351.403 	"/>
	<polygon fill="#103B9B" points="91.388,305.815 25.807,305.815 25.807,349.535 	"/>
	<polygon fill="#103B9B" points="318.213,304.815 388.097,304.815 388.097,351.403 	"/>
	<polygon fill="#103B9B" points="387.097,349.535 387.097,305.815 321.516,305.815 	"/>
	<polygon fill="#103B9B" points="240.291,388.102 240.291,334.204 321.141,388.104 	"/>
	<polygon fill="#103B9B" points="241.291,387.102 317.838,387.104 241.291,336.072 	"/>
	<polygon fill="#103B9B" points="91.77,388.099 172.613,334.204 172.613,388.1 	"/>
	<polygon fill="#103B9B" points="95.073,387.099 171.613,387.1 171.613,336.072 	"/>
	<polygon fill="#FFFFFF" points="387.097,192.417 387.097,154.847 380.646,154.847 258.709,236.138 241.291,236.138 
		241.291,219.845 338.775,154.847 317.838,154.847 241.291,205.879 241.291,154.847 225.161,154.847 225.161,252.267 
		387.097,252.267 387.097,236.138 321.516,236.138 	"/>
	<polygon fill="#ED1F34" points="112.055,236.138 154.193,236.138 32.258,154.847 25.807,154.847 25.807,178.5 	"/>
	<polygon fill="#ED1F34" points="241.291,219.845 241.291,236.138 258.709,236.138 380.646,154.847 338.775,154.847 	"/>
	<polygon fill="#ED1F34" points="171.613,322.114 171.613,305.815 154.193,305.815 32.27,387.097 74.139,387.099 	"/>
	<polygon fill="#ED1F34" points="299.924,305.815 258.709,305.815 380.646,387.105 387.097,387.105 387.097,364.067 	"/>
	<polygon fill="#FFFFFF" points="187.742,289.686 25.807,289.686 25.807,305.815 91.388,305.815 25.807,349.535 25.807,387.097 
		32.27,387.097 154.193,305.815 171.613,305.815 171.613,322.114 74.139,387.099 95.073,387.099 171.613,336.072 171.613,387.1 
		187.742,387.1 	"/>
	<polygon fill="#FFFFFF" points="187.742,252.267 187.742,154.847 171.613,154.847 171.613,205.879 95.066,154.847 32.258,154.847 
		154.193,236.138 112.055,236.138 25.807,178.5 25.807,192.417 91.388,236.138 25.807,236.138 25.807,252.267 	"/>
	<polygon fill="#FFFFFF" points="225.161,289.686 225.161,387.102 241.291,387.102 241.291,336.072 317.838,387.104 
		380.646,387.105 258.709,305.815 299.924,305.815 387.097,364.067 387.097,349.535 321.516,305.815 387.097,305.815 
		387.097,289.686 	"/>
	<polygon fill="#ED1F34" points="225.161,252.267 225.161,154.847 187.742,154.847 187.742,252.267 25.807,252.267 25.807,289.686 
		187.742,289.686 187.742,387.1 225.161,387.102 225.161,289.686 387.097,289.686 387.097,252.267 	"/>
	<path d="M787.097,129.041H400.334c-0.112-0.002-0.221-0.018-0.334-0.018s-0.222,0.014-0.334,0.018H12.903
		C5.775,129.041,0,134.816,0,141.944v516.129c0,7.128,5.775,12.903,12.903,12.903h670.968c7.128,0,12.903-5.775,12.903-12.903l0,0
		c0-7.128-5.775-12.903-12.903-12.903H25.807v-51.613v-64.516v-64.517v-51.621L400,412.912c3.422,0,6.703-1.359,9.125-3.778
		c2.419-2.421,3.778-5.702,3.778-9.125l0,0v-64.516v-64.516V206.46v-51.613h361.29v51.613v64.517v64.516v64.516v64.516v64.517
		v64.516v51.613h-38.709c-7.128,0-12.903,5.775-12.903,12.903l0,0c0,7.128,5.775,12.903,12.903,12.903h51.612
		c7.128,0,12.903-5.775,12.903-12.903V141.944C800,134.816,794.225,129.041,787.097,129.041z M387.097,252.267v37.419v16.129v43.72
		v14.533v23.038h-6.451l-62.808-0.002l-76.547-0.001h-16.129h-37.419h-16.129l-76.54-0.002H74.139l-41.869-0.003h-6.463v-37.562
		v-43.72v-16.129v-37.419v-16.129v-43.721V178.5v-23.653h6.451h62.806h76.549h16.129h37.419h16.129h76.547h20.938h41.868h6.453
		v37.569v43.721V252.267z"/>
</g>
</svg>
