<?xml version="1.0" encoding="utf-8"?>
<!-- Generator: Adobe Illustrator 16.0.0, SVG Export Plug-In . SVG Version: 6.00 Build 0)  -->
<!DOCTYPE svg PUBLIC "-//W3C//DTD SVG 1.1//EN" "http://www.w3.org/Graphics/SVG/1.1/DTD/svg11.dtd">
<svg version="1.1" id="Capa_1" xmlns="http://www.w3.org/2000/svg" xmlns:xlink="http://www.w3.org/1999/xlink" x="0px" y="0px"
	 width="800px" height="800px" viewBox="0 0 800 800" enable-background="new 0 0 800 800" xml:space="preserve">
<g>
	<path fill="#ED1F34" d="M24.807,646.161V153.839h607.451c6.563,0,11.903-5.34,11.903-11.903v-1h27.807v1
		c0,6.563,5.34,11.903,11.903,11.903h91.322v492.322H24.807z M476.637,574.556c1.842,2.534,4.674,4.27,7.77,4.76
		c0.609,0.098,1.234,0.147,1.861,0.147c2.53,0,4.949-0.786,6.996-2.274c33.705-24.491,41.203-71.837,16.713-105.542
		c-14.169-19.507-37.039-31.152-61.18-31.152c-16.024,0-31.364,4.992-44.36,14.436c-2.573,1.869-4.264,4.629-4.761,7.77
		c-0.498,3.142,0.258,6.287,2.126,8.857l14.233,19.592l-0.19,0.505c-5.587,14.771-3.362,31.243,5.95,44.062
		c8.786,12.091,22.967,19.31,37.934,19.312c0.709,0,1.418-0.016,2.124-0.05l0.54-0.026L476.637,574.556z M323.84,455.37
		c-14.962,0-29.139,7.22-37.924,19.313c-9.311,12.815-11.536,29.287-5.95,44.062l0.19,0.505l-14.233,19.592
		c-1.869,2.572-2.624,5.718-2.127,8.857c0.499,3.142,2.19,5.9,4.762,7.77c12.995,9.442,28.334,14.434,44.358,14.434
		c24.137,0,47.009-11.646,61.182-31.151c11.862-16.327,16.657-36.298,13.502-56.234c-3.156-19.933-13.888-37.443-30.217-49.307
		c-2.048-1.489-4.464-2.276-6.986-2.276c-3.804,0-7.407,1.835-9.64,4.909l-14.242,19.603l-0.539-0.025
		C325.262,455.387,324.551,455.37,323.84,455.37z M231.09,326.819c-5.169,0-9.716,3.307-11.315,8.229
		c-6.238,19.192-4.626,39.666,4.537,57.651c9.164,17.982,24.782,31.321,43.975,37.559c7.58,2.464,15.44,3.714,23.361,3.715
		c32.824,0,61.697-20.988,71.849-52.228c0.983-3.023,0.729-6.248-0.714-9.081c-1.444-2.833-3.904-4.935-6.928-5.917l-23.032-7.484
		l-0.143-0.521c-4.164-15.235-15.646-27.253-30.712-32.148c-4.697-1.527-9.569-2.301-14.48-2.301
		c-10.597,0-20.987,3.645-29.257,10.262l-0.421,0.337l-23.037-7.485C233.575,327.017,232.336,326.819,231.09,326.819z
		 M478.094,417.383c8.27,6.618,18.66,10.263,29.258,10.263c4.91,0,9.781-0.774,14.479-2.302
		c15.067-4.896,26.549-16.913,30.713-32.148l0.143-0.521l23.03-7.484c2.98-0.969,5.506-3.126,6.928-5.917
		c1.444-2.836,1.697-6.06,0.712-9.079c-10.147-31.241-39.021-52.23-71.847-52.23c-7.916,0-15.776,1.25-23.363,3.715
		c-39.622,12.874-61.383,55.584-48.51,95.21c0.984,3.025,3.085,5.485,5.917,6.927c1.665,0.849,3.534,1.297,5.405,1.297
		c1.251,0,2.488-0.196,3.678-0.582l23.036-7.486L478.094,417.383z M414.333,220.537c-41.664,0-75.56,33.896-75.56,75.559
		s33.896,75.559,75.56,75.559c6.563,0,11.903-5.34,11.903-11.903v-24.216l0.451-0.296c13.203-8.667,21.085-23.301,21.085-39.144
		c0-15.841-7.882-30.474-21.085-39.143l-0.451-0.296V232.44C426.236,225.877,420.896,220.537,414.333,220.537z"/>
	<path fill="#ED1F34" d="M632.258,154.839H25.807v490.322h748.387V154.839h-90.322c-7.128,0-12.903-5.775-12.903-12.903h-25.807
		C645.161,149.063,639.386,154.839,632.258,154.839z M414.333,219.537c7.128,0,12.903,5.775,12.903,12.903v23.677
		c13.311,8.74,21.536,23.633,21.536,39.979c0,16.346-8.224,31.24-21.536,39.979v23.677c0,7.127-5.775,12.903-12.903,12.903
		c-42.214,0-76.56-34.345-76.56-76.559C337.773,253.882,372.119,219.537,414.333,219.537z M223.42,393.153
		c-9.284-18.221-10.918-38.966-4.597-58.414c2.202-6.778,9.481-10.488,16.258-8.284l22.524,7.319
		c8.42-6.737,18.925-10.481,29.882-10.481c5.013,0,9.989,0.79,14.789,2.35c15.546,5.051,27.169,17.474,31.368,32.836l22.519,7.317
		c6.777,2.202,10.486,9.483,8.284,16.258c-10.285,31.651-39.541,52.918-72.798,52.918c-0.001,0,0,0-0.001,0
		c-8.021-0.001-15.985-1.266-23.67-3.764C248.528,424.888,232.706,411.372,223.42,393.153z M374.906,539.339
		c-14.361,19.765-37.535,31.563-61.991,31.563c-16.235,0-31.778-5.057-44.946-14.625c-2.769-2.012-4.625-5.041-5.162-8.422
		c-0.535-3.379,0.294-6.833,2.306-9.602l13.917-19.155c-5.631-14.896-3.53-31.78,6.077-45.003
		c9.398-12.938,24.899-20.417,40.915-19.675l13.925-19.166c4.188-5.765,12.257-7.047,18.023-2.854
		c16.544,12.019,27.419,29.763,30.617,49.959C391.783,502.56,386.925,522.796,374.906,539.339z M493.852,577.997
		c-2.218,1.612-4.876,2.466-7.584,2.466c-0.673,0-1.346-0.052-2.018-0.16c-3.381-0.535-6.411-2.392-8.422-5.159l-13.927-19.168
		c-0.723,0.035-1.447,0.051-2.17,0.051c-0.002,0-0.002,0-0.003,0c-15.286-0.002-29.769-7.374-38.742-19.724
		c-9.609-13.227-11.71-30.109-6.077-45.003l-13.916-19.155c-2.012-2.767-2.841-6.221-2.306-9.602s2.392-6.41,5.161-8.422
		c13.17-9.57,28.712-14.627,44.948-14.627c24.457,0,47.632,11.799,61.988,31.564C535.6,505.21,528.004,553.182,493.852,577.997z
		 M583.535,379.728c-1.553,3.049-4.256,5.356-7.51,6.414l-22.517,7.317c-4.199,15.361-15.823,27.785-31.368,32.836
		c-4.801,1.561-9.777,2.351-14.789,2.351c-10.958,0-21.464-3.744-29.883-10.481l-22.523,7.319c-3.25,1.056-6.796,0.779-9.846-0.774
		c-3.051-1.554-5.355-4.256-6.414-7.51c-13.044-40.15,9.005-83.425,49.152-96.47c7.688-2.498,15.651-3.764,23.672-3.764
		c33.26,0,62.516,21.266,72.798,52.92C585.368,373.137,585.089,376.678,583.535,379.728z"/>
	<path d="M787.097,129.032H683.871c-7.128,0-12.903,5.775-12.903,12.903s5.775,12.903,12.903,12.903h90.322v490.322H25.807V154.839
		h606.451c7.128,0,12.903-5.775,12.903-12.903s-5.775-12.903-12.903-12.903H12.903C5.777,129.032,0,134.808,0,141.936v516.129
		c0,7.128,5.777,12.903,12.903,12.903h774.193c7.128,0,12.903-5.775,12.903-12.903V141.936
		C800,134.808,794.225,129.032,787.097,129.032z"/>
	<path fill="#FFFFFF" d="M401.43,345.189v-16.811c0-5.209,3.133-9.91,7.943-11.912c8.256-3.438,13.591-11.434,13.591-20.368
		s-5.335-16.929-13.591-20.367c-4.811-2.002-7.943-6.703-7.943-11.912v-16.812c-21.757,5.722-37.85,25.562-37.85,49.091
		C363.58,319.626,379.673,339.465,401.43,345.189z"/>
	<path d="M414.333,372.655c7.128,0,12.903-5.775,12.903-12.903v-23.677c13.311-8.74,21.536-23.633,21.536-39.979
		c0-16.346-8.224-31.239-21.536-39.979V232.44c0-7.128-5.775-12.903-12.903-12.903c-42.214,0-76.56,34.345-76.56,76.559
		C337.773,338.311,372.119,372.655,414.333,372.655z M401.43,247.006v16.812c0,5.21,3.133,9.91,7.943,11.913
		c8.258,3.438,13.591,11.432,13.591,20.366s-5.336,16.931-13.591,20.368c-4.811,2.003-7.943,6.703-7.943,11.913v16.81
		c-21.757-5.722-37.85-25.562-37.85-49.091C363.58,272.568,379.673,252.728,401.43,247.006z"/>
	<path fill="#FFFFFF" d="M275.95,406.663c5.108,1.66,10.39,2.5,15.697,2.501c17.613,0,33.533-8.999,42.699-23.325l-16.002-5.199
		c-4.955-1.61-8.456-6.044-8.874-11.236c-0.717-8.914-6.672-16.456-15.169-19.219c-2.223-0.723-4.514-1.087-6.814-1.087
		c-6.441,0-12.549,2.814-16.755,7.72c-3.391,3.957-8.828,5.488-13.784,3.874l-16.005-5.199c-0.525,8.892,1.319,17.798,5.469,25.944
		C252.569,393.514,263.059,402.475,275.95,406.663z"/>
	<path d="M291.647,434.972C291.649,434.972,291.647,434.972,291.647,434.972c33.259,0,62.515-21.267,72.8-52.919
		c2.202-6.775-1.505-14.056-8.284-16.258l-22.519-7.317c-4.197-15.362-15.822-27.785-31.368-32.836
		c-4.802-1.56-9.777-2.35-14.789-2.35c-10.958,0-21.462,3.744-29.882,10.481l-22.524-7.319c-6.776-2.202-14.056,1.505-16.258,8.284
		c-6.319,19.448-4.687,40.192,4.597,58.414c9.283,18.221,25.108,31.735,44.556,38.054
		C275.663,433.705,283.626,434.97,291.647,434.972z M240.944,355.493l16.005,5.199c4.957,1.614,10.393,0.083,13.784-3.874
		c4.207-4.907,10.314-7.72,16.755-7.72c2.3,0,4.593,0.365,6.814,1.087c8.497,2.761,14.451,10.305,15.169,19.219
		c0.418,5.194,3.919,9.627,8.874,11.236l16.002,5.199c-9.167,14.324-25.088,23.326-42.7,23.326
		c-5.308-0.002-10.589-0.842-15.697-2.502c-12.893-4.188-23.382-13.149-29.536-25.227
		C242.264,373.291,240.42,364.384,240.944,355.493z"/>
	<path fill="#FFFFFF" d="M363.095,486.4c-1.43-9.029-5.173-17.318-10.824-24.203l-9.893,13.611
		c-3.063,4.216-8.354,6.175-13.429,4.969c-1.665-0.396-3.382-0.599-5.104-0.599c-7.158,0-13.668,3.313-17.862,9.086
		c-5.253,7.229-5.635,16.833-0.976,24.468c2.715,4.447,2.487,10.091-0.575,14.306l-9.891,13.613
		c5.812,2.271,12.012,3.444,18.373,3.444c16.223,0,31.592-7.822,41.112-20.924C361.996,513.204,365.217,499.79,363.095,486.4z"/>
	<path d="M357.967,432.402c-5.768-4.192-13.836-2.909-18.023,2.854l-13.926,19.166c-16.015-0.744-31.514,6.736-40.915,19.675
		c-9.607,13.225-11.708,30.107-6.077,45.003l-13.917,19.155c-2.011,2.768-2.841,6.223-2.306,9.602
		c0.535,3.381,2.392,6.41,5.162,8.421c13.17,9.569,28.71,14.626,44.946,14.626c24.456,0,47.632-11.797,61.99-31.563
		c12.019-16.543,16.877-36.779,13.679-56.977C385.385,462.166,374.512,444.422,357.967,432.402z M312.913,545.096
		c-6.358,0-12.559-1.173-18.372-3.444l9.891-13.613c3.063-4.215,3.29-9.858,0.575-14.306c-4.659-7.635-4.277-17.238,0.976-24.468
		c4.194-5.773,10.706-9.086,17.862-9.086c1.721,0,3.439,0.201,5.104,0.599c5.072,1.206,10.364-0.753,13.429-4.969l9.893-13.611
		c5.649,6.885,9.394,15.174,10.824,24.203c2.122,13.39-1.099,26.804-9.068,37.771C344.508,537.273,329.137,545.096,312.913,545.096z
		"/>
	<path fill="#FFFFFF" d="M489.91,486.228c-9.52-13.103-24.89-20.925-41.111-20.925c-6.359,0-12.562,1.175-18.373,3.445l9.891,13.614
		c3.063,4.215,3.29,9.857,0.575,14.306c-4.659,7.635-4.275,17.238,0.974,24.466c4.134,5.689,10.813,9.084,17.866,9.086h0.002
		c1.719,0,3.436-0.201,5.101-0.599c0.993-0.238,1.998-0.352,2.989-0.352c4.07,0,7.978,1.931,10.438,5.319l9.882,13.601
		C502.383,530.773,503.74,505.263,489.91,486.228z"/>
	<path d="M448.797,439.496c-16.236,0-31.778,5.056-44.948,14.627c-2.769,2.011-4.625,5.041-5.161,8.422
		c-0.537,3.38,0.294,6.835,2.305,9.602l13.917,19.155c-5.631,14.894-3.532,31.777,6.077,45.003
		c8.974,12.349,23.456,19.721,38.742,19.723c0.001,0,0.001,0,0.003,0c0.723,0,1.447-0.017,2.17-0.05l13.927,19.167
		c2.011,2.769,5.041,4.625,8.422,5.16c0.672,0.108,1.345,0.16,2.018,0.16c2.708,0,5.366-0.854,7.584-2.466
		c34.153-24.815,41.749-72.788,16.936-106.937C496.429,451.295,473.254,439.496,448.797,439.496z M467.822,529.271
		c-0.99,0-1.995,0.113-2.988,0.351c-1.665,0.396-3.382,0.599-5.101,0.599h-0.002c-7.054-0.001-13.73-3.397-17.866-9.085
		c-5.251-7.228-5.633-16.831-0.975-24.467c2.715-4.447,2.488-10.09-0.574-14.305l-9.891-13.614
		c5.812-2.271,12.012-3.446,18.372-3.446c16.224,0,31.593,7.823,41.112,20.926c13.83,19.033,12.473,44.546-1.766,61.963l-9.882-13.6
		C475.801,531.202,471.894,529.271,467.822,529.271z"/>
	<path fill="#FFFFFF" d="M511.51,342.768c-5.308,0-10.59,0.841-15.697,2.501c-22.376,7.272-36.271,28.707-34.992,51.167l15.99-5.196
		c1.311-0.425,2.654-0.631,3.984-0.631c3.702,0,7.303,1.597,9.798,4.504c4.206,4.909,10.313,7.722,16.755,7.722
		c2.301,0,4.594-0.367,6.815-1.088c8.497-2.76,14.451-10.306,15.169-19.221c0.418-5.196,3.917-9.627,8.874-11.236l16.001-5.199
		C545.044,351.771,529.125,342.768,511.51,342.768z"/>
	<path d="M511.51,316.962c-8.021,0-15.984,1.266-23.672,3.764c-40.147,13.044-62.196,56.32-49.152,96.469
		c1.057,3.256,3.363,5.956,6.414,7.51c3.05,1.554,6.596,1.831,9.846,0.774l22.523-7.319c8.42,6.738,18.925,10.481,29.883,10.481
		c5.012,0,9.988-0.789,14.789-2.35c15.545-5.052,27.169-17.475,31.368-32.836l22.517-7.317c3.256-1.057,5.957-3.364,7.51-6.414
		c1.554-3.05,1.833-6.591,0.774-9.846C574.025,338.229,544.77,316.962,511.51,316.962z M529.335,382.531
		c-0.718,8.915-6.672,16.459-15.169,19.221c-2.221,0.721-4.515,1.087-6.814,1.087c-6.441,0-12.549-2.815-16.756-7.722
		c-2.494-2.907-6.095-4.504-9.798-4.504c-1.329,0-2.675,0.207-3.984,0.631l-15.989,5.196c-1.28-22.462,12.615-43.897,34.991-51.167
		c5.108-1.66,10.39-2.501,15.697-2.501c17.614,0,33.533,9.001,42.7,23.326l-16.002,5.199
		C533.253,372.903,529.753,377.335,529.335,382.531z"/>
</g>
</svg>
