<?xml version="1.0" encoding="utf-8"?>
<!-- Generator: Adobe Illustrator 16.0.0, SVG Export Plug-In . SVG Version: 6.00 Build 0)  -->
<!DOCTYPE svg PUBLIC "-//W3C//DTD SVG 1.1//EN" "http://www.w3.org/Graphics/SVG/1.1/DTD/svg11.dtd">
<svg version="1.1" id="Capa_1" xmlns="http://www.w3.org/2000/svg" xmlns:xlink="http://www.w3.org/1999/xlink" x="0px" y="0px"
	 width="800px" height="800px" viewBox="0 0 800 800" enable-background="new 0 0 800 800" xml:space="preserve">
<g>
	<path fill="#FFFFFF" d="M400,421.505c11.859,0,21.506-9.646,21.506-21.505c0-11.859-9.646-21.505-21.506-21.505
		s-21.506,9.646-21.506,21.505C378.494,411.859,388.141,421.505,400,421.505z"/>
	<path fill="#FFFFFF" d="M64.516,326.882H25.807v146.236h748.387V326.882H116.129c-7.126,0-12.903-5.777-12.903-12.903H77.419
		C77.419,321.104,71.642,326.882,64.516,326.882z M400,352.688c26.089,0,47.312,21.224,47.312,47.312
		c0,26.089-21.223,47.312-47.312,47.312S352.688,426.089,352.688,400C352.688,373.912,373.911,352.688,400,352.688z"/>
	<path fill="#164FCE" d="M400,447.312c26.089,0,47.312-21.223,47.312-47.312c0-26.088-21.223-47.312-47.312-47.312
		S352.688,373.912,352.688,400C352.688,426.089,373.911,447.312,400,447.312z M400,378.495c11.859,0,21.506,9.646,21.506,21.505
		c0,11.859-9.646,21.505-21.506,21.505s-21.506-9.646-21.506-21.505C378.494,388.141,388.141,378.495,400,378.495z"/>
	<path fill="#FF7900" d="M76.419,314.979v-1c0-6.563-5.34-11.903-11.903-11.903H24.807V153.839h750.387v148.236H116.129
		c-6.563,0-11.903,5.34-11.903,11.903v1H76.419z"/>
	<path fill="#FF7900" d="M64.516,301.075c7.126,0,12.903,5.777,12.903,12.903h25.806c0-7.126,5.777-12.903,12.903-12.903h658.064
		V154.839H25.807v146.236H64.516z"/>
	<rect x="24.807" y="497.925" fill="#259245" width="750.387" height="148.236"/>
	<rect x="25.807" y="498.925" fill="#259245" width="748.387" height="146.236"/>
	<path d="M787.097,129.032H12.903C5.777,129.032,0,134.81,0,141.936v516.129c0,7.126,5.777,12.903,12.903,12.903h774.193
		c7.126,0,12.903-5.777,12.903-12.903V141.936C800,134.81,794.223,129.032,787.097,129.032z M774.193,154.839v146.236H116.129
		c-7.126,0-12.903,5.777-12.903,12.903s5.777,12.903,12.903,12.903h658.064v146.236H25.807V326.882h38.709
		c7.126,0,12.903-5.777,12.903-12.903s-5.777-12.903-12.903-12.903H25.807V154.839H774.193z M25.807,645.161V498.925h748.387
		v146.236H25.807z"/>
</g>
</svg>
