<?xml version="1.0" encoding="utf-8"?>
<!-- Generator: Adobe Illustrator 16.0.0, SVG Export Plug-In . SVG Version: 6.00 Build 0)  -->
<!DOCTYPE svg PUBLIC "-//W3C//DTD SVG 1.1//EN" "http://www.w3.org/Graphics/SVG/1.1/DTD/svg11.dtd">
<svg version="1.1" id="Capa_1" xmlns="http://www.w3.org/2000/svg" xmlns:xlink="http://www.w3.org/1999/xlink" x="0px" y="0px"
	 width="800px" height="800px" viewBox="0 0 800 800" enable-background="new 0 0 800 800" xml:space="preserve">
<g>
	<path fill="#ED1F34" d="M435.914,351.616c-5.342-4.715-13.498-4.208-18.213,1.134c-4.717,5.342-4.21,13.497,1.133,18.212
		c6.13,5.411,9.643,13.196,9.643,21.361c0,11.056-6.347,20.639-15.575,25.354v-32.955c0-7.126-5.775-12.903-12.903-12.903
		s-12.903,5.777-12.903,12.903v32.955c-9.228-4.716-15.575-14.299-15.575-25.354c0-8.165,3.516-15.95,9.644-21.361
		c5.342-4.715,5.85-12.871,1.132-18.212c-4.717-5.342-12.87-5.849-18.212-1.134c-11.675,10.307-18.371,25.144-18.371,40.707
		c0,25.614,17.837,47.128,41.741,52.806c1.345,5.688,6.444,9.923,12.543,9.923c6.1,0,11.199-4.237,12.544-9.923
		c23.902-5.678,41.741-27.191,41.741-52.806C454.285,376.76,447.589,361.923,435.914,351.616z"/>
	<path fill="#259245" d="M739.442,314.979v-6.161c0-6.563-5.34-11.903-11.903-11.903s-11.903,5.34-11.903,11.903v6.161H679.89
		v-6.161c0-6.563-5.34-11.903-11.903-11.903s-11.903,5.34-11.903,11.903v6.161h-35.746v-6.161c0-6.563-5.34-11.903-11.903-11.903
		s-11.903,5.34-11.903,11.903v6.161h-35.748v-6.161c0-6.563-5.34-11.903-11.903-11.903s-11.903,5.34-11.903,11.903v6.161h-35.746
		v-6.161c0-6.563-5.34-11.903-11.903-11.903s-11.903,5.34-11.903,11.903v6.161h-35.746v-6.161c0-6.563-5.34-11.903-11.903-11.903
		s-11.902,5.34-11.902,11.903v6.161h-35.747v-6.161c0-6.563-5.34-11.903-11.903-11.903c-6.563,0-11.902,5.34-11.902,11.903v6.161
		h-35.747v-6.161c0-6.563-5.34-11.903-11.903-11.903c-6.563,0-11.902,5.34-11.902,11.903v6.161h-35.747v-6.161
		c0-6.563-5.34-11.903-11.903-11.903s-11.903,5.34-11.903,11.903v6.161h-35.748v-6.161c0-6.563-5.339-11.903-11.903-11.903
		s-11.903,5.34-11.903,11.903v6.161h-35.747v-6.161c0-6.563-5.34-11.903-11.903-11.903c-6.563,0-11.903,5.34-11.903,11.903v6.161
		H84.359v-6.161c0-6.563-5.34-11.903-11.903-11.903s-11.903,5.34-11.903,11.903v6.161H24.807v-161.14h750.387v161.14H739.442z"/>
	<path fill="#259245" d="M25.807,313.979h33.746v-5.161c0-7.126,5.775-12.903,12.903-12.903c7.127,0,12.903,5.777,12.903,12.903
		v5.161h33.746v-5.161c0-7.126,5.775-12.903,12.903-12.903c7.127,0,12.903,5.777,12.903,12.903v5.161h33.747v-5.161
		c0-7.126,5.775-12.903,12.903-12.903c7.127,0,12.903,5.777,12.903,12.903v5.161h33.748v-5.161c0-7.126,5.775-12.903,12.903-12.903
		s12.903,5.777,12.903,12.903v5.161h33.747v-5.161c0-7.126,5.775-12.903,12.902-12.903c7.128,0,12.903,5.777,12.903,12.903v5.161
		h33.747v-5.161c0-7.126,5.775-12.903,12.902-12.903c7.128,0,12.903,5.777,12.903,12.903v5.161h33.747v-5.161
		c0-7.126,5.775-12.903,12.902-12.903c7.128,0,12.903,5.777,12.903,12.903v5.161h33.746v-5.161c0-7.126,5.776-12.903,12.903-12.903
		c7.128,0,12.903,5.777,12.903,12.903v5.161h33.746v-5.161c0-7.126,5.775-12.903,12.903-12.903s12.903,5.777,12.903,12.903v5.161
		h33.748v-5.161c0-7.126,5.775-12.903,12.903-12.903s12.903,5.777,12.903,12.903v5.161h33.746v-5.161
		c0-7.126,5.775-12.903,12.903-12.903s12.903,5.777,12.903,12.903v5.161h33.746v-5.161c0-7.126,5.775-12.903,12.903-12.903
		s12.903,5.777,12.903,12.903v5.161h33.751v-159.14H25.807V313.979z"/>
	<path fill="#ED1F34" d="M24.807,646.161v-161.14h35.746v6.161c0,6.563,5.34,11.903,11.903,11.903s11.903-5.34,11.903-11.903v-6.161
		h35.746v6.161c0,6.563,5.34,11.903,11.903,11.903c6.563,0,11.903-5.34,11.903-11.903v-6.161h35.751v6.161
		c0,6.563,5.34,11.903,11.903,11.903s11.903-5.34,11.903-11.903v-6.161h35.748v6.161c0,6.563,5.34,11.903,11.903,11.903
		c6.563,0,11.903-5.34,11.903-11.903v-6.161h35.747v6.161c0,6.563,5.34,11.903,11.903,11.903s11.903-5.34,11.903-11.903v-6.161
		h35.746v6.161c0,6.563,5.34,11.903,11.903,11.903s11.903-5.34,11.903-11.903v-6.161h35.746v6.161
		c0,6.563,5.34,11.903,11.903,11.903s11.903-5.34,11.903-11.903v-6.161h35.746v6.161c0,6.563,5.34,11.903,11.903,11.903
		c6.563,0,11.902-5.34,11.902-11.903v-6.161h35.747v6.161c0,6.563,5.34,11.903,11.903,11.903s11.902-5.34,11.902-11.903v-6.161
		h35.748v6.161c0,6.563,5.34,11.903,11.903,11.903s11.903-5.34,11.903-11.903v-6.161h35.746v6.161
		c0,6.563,5.34,11.903,11.903,11.903s11.903-5.34,11.903-11.903v-6.161h35.746v6.161c0,6.563,5.34,11.903,11.903,11.903
		s11.903-5.34,11.903-11.903v-6.161h35.746v161.14H24.807z"/>
	<path fill="#ED1F34" d="M740.447,491.183c0,7.126-5.775,12.903-12.903,12.903s-12.903-5.777-12.903-12.903v-5.161h-33.746v5.161
		c0,7.126-5.775,12.903-12.903,12.903s-12.903-5.777-12.903-12.903v-5.161h-33.746v5.161c0,7.126-5.775,12.903-12.903,12.903
		s-12.903-5.777-12.903-12.903v-5.161h-33.748v5.161c0,7.126-5.775,12.903-12.902,12.903c-7.128,0-12.903-5.777-12.903-12.903
		v-5.161h-33.747v5.161c0,7.126-5.775,12.903-12.902,12.903c-7.128,0-12.903-5.777-12.903-12.903v-5.161h-33.746v5.161
		c0,7.126-5.776,12.903-12.903,12.903c-7.128,0-12.903-5.777-12.903-12.903v-5.161H383.13v5.161c0,7.126-5.775,12.903-12.903,12.903
		s-12.903-5.777-12.903-12.903v-5.161h-33.746v5.161c0,7.126-5.775,12.903-12.903,12.903s-12.903-5.777-12.903-12.903v-5.161
		h-33.747v5.161c0,7.126-5.775,12.903-12.903,12.903c-7.128,0-12.903-5.777-12.903-12.903v-5.161H204.47v5.161
		c0,7.126-5.775,12.903-12.903,12.903s-12.903-5.777-12.903-12.903v-5.161h-33.751v5.161c0,7.126-5.775,12.903-12.903,12.903
		c-7.128,0-12.903-5.777-12.903-12.903v-5.161H85.359v5.161c0,7.126-5.776,12.903-12.903,12.903
		c-7.128,0-12.903-5.777-12.903-12.903v-5.161H25.807v159.14h748.387v-159.14h-33.746V491.183z"/>
	<path fill="#FFFFFF" d="M740.447,308.817c0-7.126-5.775-12.903-12.903-12.903s-12.903,5.777-12.903,12.903v5.161h-33.746v-5.161
		c0-7.126-5.775-12.903-12.903-12.903s-12.903,5.777-12.903,12.903v5.161h-33.746v-5.161c0-7.126-5.775-12.903-12.903-12.903
		s-12.903,5.777-12.903,12.903v5.161h-33.748v-5.161c0-7.126-5.775-12.903-12.902-12.903c-7.128,0-12.903,5.777-12.903,12.903v5.161
		h-33.747v-5.161c0-7.126-5.775-12.903-12.902-12.903c-7.128,0-12.903,5.777-12.903,12.903v5.161h-33.746v-5.161
		c0-7.126-5.776-12.903-12.903-12.903c-7.128,0-12.903,5.777-12.903,12.903v5.161H383.13v-5.161c0-7.126-5.775-12.903-12.903-12.903
		s-12.903,5.777-12.903,12.903v5.161h-33.746v-5.161c0-7.126-5.775-12.903-12.903-12.903s-12.903,5.777-12.903,12.903v5.161h-33.747
		v-5.161c0-7.126-5.775-12.903-12.903-12.903c-7.128,0-12.903,5.777-12.903,12.903v5.161H204.47v-5.161
		c0-7.126-5.775-12.903-12.903-12.903s-12.903,5.777-12.903,12.903v5.161h-33.751v-5.161c0-7.126-5.775-12.903-12.903-12.903
		c-7.128,0-12.903,5.777-12.903,12.903v5.161H85.359v-5.161c0-7.126-5.776-12.903-12.903-12.903
		c-7.128,0-12.903,5.777-12.903,12.903v5.161H25.807v172.043h33.746v5.161c0,7.126,5.775,12.903,12.903,12.903
		c7.127,0,12.903-5.777,12.903-12.903v-5.161h33.746v5.161c0,7.126,5.775,12.903,12.903,12.903c7.127,0,12.903-5.777,12.903-12.903
		v-5.161h33.747v5.161c0,7.126,5.775,12.903,12.903,12.903c7.127,0,12.903-5.777,12.903-12.903v-5.161h33.748v5.161
		c0,7.126,5.775,12.903,12.903,12.903s12.903-5.777,12.903-12.903v-5.161h33.747v5.161c0,7.126,5.775,12.903,12.902,12.903
		c7.128,0,12.903-5.777,12.903-12.903v-5.161h33.747v5.161c0,7.126,5.775,12.903,12.902,12.903c7.128,0,12.903-5.777,12.903-12.903
		v-5.161h33.747v5.161c0,7.126,5.775,12.903,12.902,12.903c7.128,0,12.903-5.777,12.903-12.903v-5.161h33.746v5.161
		c0,7.126,5.776,12.903,12.903,12.903c7.128,0,12.903-5.777,12.903-12.903v-5.161h33.746v5.161c0,7.126,5.775,12.903,12.903,12.903
		s12.903-5.777,12.903-12.903v-5.161h33.748v5.161c0,7.126,5.775,12.903,12.903,12.903s12.903-5.777,12.903-12.903v-5.161h33.746
		v5.161c0,7.126,5.775,12.903,12.903,12.903s12.903-5.777,12.903-12.903v-5.161h33.746v5.161c0,7.126,5.775,12.903,12.903,12.903
		s12.903-5.777,12.903-12.903v-5.161h33.751V313.979h-33.746V308.817z M412.544,445.13c-1.346,5.688-6.445,9.924-12.544,9.924
		s-11.198-4.237-12.544-9.924c-23.901-5.677-41.741-27.19-41.741-52.805c0-15.563,6.696-30.4,18.371-40.707
		c5.34-4.716,13.495-4.208,18.213,1.134c4.717,5.342,4.21,13.497-1.133,18.212c-6.13,5.411-9.643,13.196-9.643,21.361
		c0,11.056,6.347,20.638,15.575,25.354v-32.956c0-7.126,5.775-12.903,12.903-12.903s12.903,5.777,12.903,12.903v32.956
		c9.228-4.717,15.575-14.299,15.575-25.354c0-8.165-3.516-15.95-9.644-21.361c-5.342-4.716-5.85-12.871-1.132-18.212
		c4.714-5.342,12.869-5.85,18.212-1.134c11.675,10.307,18.371,25.144,18.371,40.707C454.285,417.939,436.445,439.451,412.544,445.13
		z"/>
	<path d="M787.097,129.032H12.903C5.775,129.032,0,134.81,0,141.936v516.129c0,7.126,5.775,12.903,12.903,12.903h774.193
		c7.128,0,12.903-5.777,12.903-12.903V141.936C800,134.81,794.225,129.032,787.097,129.032z M774.193,313.979v172.043v159.14H25.807
		v-159.14V313.979v-159.14h748.387V313.979z"/>
</g>
</svg>
