<?xml version="1.0" encoding="utf-8"?>
<!-- Generator: Adobe Illustrator 16.0.0, SVG Export Plug-In . SVG Version: 6.00 Build 0)  -->
<!DOCTYPE svg PUBLIC "-//W3C//DTD SVG 1.1//EN" "http://www.w3.org/Graphics/SVG/1.1/DTD/svg11.dtd">
<svg version="1.1" id="Capa_1" xmlns="http://www.w3.org/2000/svg" xmlns:xlink="http://www.w3.org/1999/xlink" x="0px" y="0px"
	 width="800px" height="800px" viewBox="0 0 800 800" enable-background="new 0 0 800 800" xml:space="preserve">
<g>
	<path fill="#FFFFFF" d="M167.742,473.118h606.451V326.882H25.807v146.236h90.322c7.126,0,12.903,5.777,12.903,12.903h25.807
		C154.839,478.896,160.616,473.118,167.742,473.118z M432.688,397.13c0-7.126,5.775-12.903,12.903-12.903
		c7.127,0,12.902,5.777,12.902,12.903v12.406h12.043v-43.945c0-7.126,5.776-12.903,12.903-12.903
		c7.128,0,12.903,5.777,12.903,12.903v43.945h12.043V390.89c0-7.126,5.775-12.903,12.903-12.903s12.903,5.777,12.903,12.903v18.646
		h12.903c7.128,0,12.903,5.777,12.903,12.903s-5.775,12.903-12.903,12.903H445.592c-7.128,0-12.903-5.777-12.903-12.903V397.13z
		 M240,422.439c0-7.126,5.777-12.903,12.903-12.903h67.957V366.12c0-7.126,5.777-12.903,12.903-12.903s12.903,5.777,12.903,12.903
		v43.417h12.043V378.6c0-7.126,5.777-12.903,12.903-12.903s12.903,5.777,12.903,12.903v43.84c0,7.126-5.777,12.903-12.903,12.903
		H265.772c-0.478,6.689-6.058,11.969-12.869,11.969c-7.126,0-12.903-5.777-12.903-12.903V422.439z"/>
	<rect x="24.807" y="153.839" fill="#ED1F34" width="750.387" height="148.236"/>
	<rect x="25.807" y="154.839" fill="#ED1F34" width="748.387" height="146.236"/>
	<path fill="#333333" d="M24.807,646.161V497.925h91.322c6.563,0,11.903-5.34,11.903-11.903v-1h27.807v1
		c0,6.563,5.34,11.903,11.903,11.903h607.451v148.236H24.807z"/>
	<path fill="#333333" d="M167.742,498.925c-7.126,0-12.903-5.777-12.903-12.903h-25.807c0,7.126-5.777,12.903-12.903,12.903H25.807
		v146.236h748.387V498.925H167.742z"/>
	<path d="M787.097,129.032H12.903C5.777,129.032,0,134.81,0,141.936v516.129c0,7.126,5.777,12.903,12.903,12.903h774.193
		c7.128,0,12.903-5.777,12.903-12.903V141.936C800,134.81,794.225,129.032,787.097,129.032z M774.193,154.839v146.236H25.807
		V154.839H774.193z M25.807,645.161V498.925h90.322c7.126,0,12.903-5.777,12.903-12.903s-5.777-12.903-12.903-12.903H25.807V326.882
		h748.387v146.236H167.742c-7.126,0-12.903,5.777-12.903,12.903s5.777,12.903,12.903,12.903h606.451v146.236H25.807z"/>
	<path fill="#259245" d="M252.903,447.312c6.811,0,12.391-5.278,12.869-11.969h105.841c7.126,0,12.903-5.777,12.903-12.903V378.6
		c0-7.126-5.777-12.903-12.903-12.903s-12.903,5.777-12.903,12.903v30.937h-12.043V366.12c0-7.126-5.777-12.903-12.903-12.903
		s-12.903,5.777-12.903,12.903v43.417h-67.957c-7.126,0-12.903,5.777-12.903,12.903v11.969
		C240,441.534,245.777,447.312,252.903,447.312z"/>
	<path fill="#259245" d="M445.592,435.343h101.505c7.128,0,12.903-5.777,12.903-12.903s-5.775-12.903-12.903-12.903h-12.903V390.89
		c0-7.126-5.775-12.903-12.903-12.903s-12.903,5.777-12.903,12.903v18.646h-12.043v-43.945c0-7.126-5.775-12.903-12.903-12.903
		c-7.127,0-12.903,5.777-12.903,12.903v43.945h-12.043V397.13c0-7.126-5.775-12.903-12.902-12.903
		c-7.128,0-12.903,5.777-12.903,12.903v25.309C432.688,429.567,438.464,435.343,445.592,435.343z"/>
</g>
</svg>
