<?xml version="1.0" encoding="utf-8"?>
<!-- Generator: Adobe Illustrator 16.0.0, SVG Export Plug-In . SVG Version: 6.00 Build 0)  -->
<!DOCTYPE svg PUBLIC "-//W3C//DTD SVG 1.1//EN" "http://www.w3.org/Graphics/SVG/1.1/DTD/svg11.dtd">
<svg version="1.1" id="Capa_1" xmlns="http://www.w3.org/2000/svg" xmlns:xlink="http://www.w3.org/1999/xlink" x="0px" y="0px"
	 width="800px" height="800px" viewBox="0 0 800 800" enable-background="new 0 0 800 800" xml:space="preserve">
<g>
	<path fill="#ED1F34" d="M24.807,646.161V153.839h659.064c6.563,0,11.903-5.34,11.903-11.903v-1h27.807v1
		c0,6.563,5.34,11.903,11.903,11.903h39.709v492.322H24.807z M287.648,308.471c21.076,16.524,48.143,25.625,76.216,25.625h1.454
		l-2.126,35.779L289.93,420.78c-12.456,8.655-16.144,25.659-8.396,38.711l0.156,0.256l57.209,91.116l-21.937,20.572
		c-4.787,4.49-5.029,12.039-0.54,16.827c2.274,2.425,5.359,3.76,8.686,3.76c3.035,0,5.925-1.144,8.139-3.221l39.401-36.953
		c4.788-4.49,5.03-12.039,0.54-16.826c-0.332-0.354-0.707-0.697-1.18-1.081l-0.44-0.358l0.081-0.561
		c3.833-26.545-1.903-54.668-16.153-79.187l-0.535-0.921l32.051-16.05l80.718,37.996c3.896,1.833,8.051,2.763,12.351,2.763
		c10.511,0,20.232-5.689,25.371-14.848l0.141-0.259L555.9,367.41l28.784,8.71c1.125,0.34,2.286,0.513,3.451,0.513
		c5.197,0,9.881-3.479,11.389-8.459c1.9-6.282-1.661-12.939-7.939-14.841l-51.705-15.646c-1.125-0.34-2.286-0.513-3.45-0.513
		c-5.199,0-9.882,3.478-11.39,8.458c-0.139,0.456-0.248,0.952-0.347,1.563l-0.09,0.559l-0.526,0.21
		c-24.903,9.953-46.389,28.983-60.498,53.583l-0.529,0.924l-29.926-19.731l-7.453-88.9c-1.253-14.931-13.978-26.627-28.969-26.627
		l-0.368,0.001l-107.806,3.994l-6.849-29.282c-1.267-5.414-6.028-9.195-11.578-9.195c-0.911,0-1.827,0.106-2.723,0.316
		c-3.096,0.724-5.725,2.61-7.402,5.312c-1.677,2.701-2.202,5.894-1.479,8.99l12.301,52.601c1.265,5.413,6.026,9.194,11.579,9.194
		c0.907,0,1.823-0.106,2.722-0.316c0.481-0.114,0.981-0.272,1.573-0.5l0.529-0.203L287.648,308.471z"/>
	<path fill="#ED1F34" d="M683.871,154.839H25.807v490.322h748.387V154.839h-38.709c-7.127,0-12.903-5.777-12.903-12.903h-25.807
		C696.774,149.062,690.997,154.839,683.871,154.839z M600.481,368.463c-1.688,5.574-6.808,9.17-12.346,9.17
		c-1.238,0-2.496-0.179-3.741-0.556l-27.995-8.472l-49.922,94.378c-0.05,0.095-0.102,0.188-0.153,0.282
		c-5.316,9.475-15.372,15.358-26.243,15.358c-4.447,0-8.747-0.962-12.776-2.858l-80.278-37.789l-30.665,15.356
		c14.502,24.953,20.113,53.275,16.278,79.832c0.444,0.361,0.876,0.745,1.278,1.173c4.874,5.197,4.613,13.364-0.585,18.24
		l-39.401,36.953c-2.489,2.335-5.661,3.491-8.823,3.491c-3.441,0-6.875-1.368-9.415-4.076c-4.873-5.197-4.612-13.364,0.585-18.24
		l21.336-20.009l-56.773-90.422c-0.057-0.091-0.112-0.183-0.167-0.273c-8.015-13.502-4.199-31.09,8.685-40.043l72.863-50.629
		l2.034-34.235c-0.131,0-0.262,0-0.393,0c-28.583,0-55.859-9.394-76.833-25.837c-0.55,0.211-1.115,0.401-1.705,0.54
		c-0.988,0.23-1.977,0.342-2.949,0.342c-5.86,0-11.163-4.015-12.553-9.966l-12.301-52.601c-1.623-6.938,2.688-13.88,9.626-15.502
		c6.937-1.625,13.878,2.686,15.502,9.625l6.662,28.48l106.696-3.955c0.106-0.003,0.213-0.007,0.319-0.009l0.372-0.001
		c15.508,0,28.669,12.1,29.965,27.544l7.413,88.417l28.632,18.877c14.358-25.035,36.079-44.056,60.994-54.014
		c0.091-0.564,0.206-1.13,0.377-1.693c2.064-6.821,9.27-10.675,16.087-8.612l51.705,15.646
		C598.689,354.439,602.545,361.643,600.481,368.463z"/>
	<path d="M787.097,129.032h-51.612c-7.127,0-12.903,5.777-12.903,12.903s5.776,12.903,12.903,12.903h38.709v490.322H25.807V154.839
		h658.064c7.126,0,12.903-5.777,12.903-12.903s-5.777-12.903-12.903-12.903H12.903C5.777,129.032,0,134.81,0,141.936v516.129
		c0,7.126,5.777,12.903,12.903,12.903h774.193c7.126,0,12.903-5.777,12.903-12.903V141.936
		C800,134.81,794.223,129.032,787.097,129.032z"/>
	<path fill="#FFFFFF" d="M483.311,417.121c-1.314,2.484-2.567,5.108-3.722,7.798c-1.507,3.51-4.494,6.169-8.153,7.266
		c-3.657,1.098-7.616,0.514-10.804-1.589l-45.996-30.327c-3.304-2.178-5.425-5.751-5.755-9.695l-7.937-94.66
		c-0.183-2.166-2.02-3.868-4.196-3.894l-84.865,3.145c16.061,9.712,35.6,14.81,55.986,14.053c2.796-0.105,5.694-0.332,8.616-0.676
		c3.795-0.447,7.589,0.807,10.367,3.429c2.778,2.62,4.251,6.338,4.025,10.15l-3.267,54.997c-0.234,3.95-2.268,7.573-5.518,9.831
		l-78.01,54.204c-1.792,1.246-2.34,3.681-1.272,5.585l45.199,71.989c0.418-18.778-4.984-38.245-15.87-55.583
		c-1.491-2.373-3.138-4.771-4.893-7.125c-2.284-3.061-3.093-6.976-2.214-10.692c0.881-3.716,3.363-6.851,6.776-8.561l49.263-24.67
		c3.536-1.771,7.692-1.823,11.272-0.137l85.947,40.457c0.566,0.267,1.167,0.401,1.786,0.401c1.19,0,2.771-0.551,3.686-2.087
		l39.747-75.142C507.04,384.614,492.881,399.026,483.311,417.121z"/>
	<path d="M591.867,352.375l-51.704-15.646c-6.817-2.063-14.022,1.792-16.087,8.612c-0.171,0.563-0.286,1.129-0.377,1.693
		c-24.916,9.958-46.636,28.979-60.995,54.014l-28.631-18.877l-7.413-88.417c-1.296-15.446-14.457-27.544-29.965-27.544l-0.372,0.001
		c-0.106,0.002-0.213,0.003-0.32,0.009l-106.695,3.955l-6.662-28.48c-1.623-6.94-8.566-11.25-15.503-9.626
		c-6.938,1.623-11.248,8.564-9.625,15.503l12.301,52.601c1.392,5.951,6.694,9.966,12.552,9.966c0.972,0,1.961-0.11,2.949-0.342
		c0.59-0.138,1.155-0.329,1.705-0.54c20.974,16.444,48.25,25.837,76.833,25.837c0.131,0,0.262,0,0.392,0l-2.033,34.235
		l-72.864,50.629c-12.886,8.953-16.7,26.541-8.685,40.043c0.055,0.091,0.11,0.183,0.167,0.273l56.772,90.422l-21.335,20.009
		c-5.197,4.876-5.459,13.041-0.585,18.24c2.541,2.708,5.974,4.076,9.414,4.076c3.164,0,6.335-1.156,8.824-3.491l39.408-36.955
		c5.198-4.876,5.459-13.041,0.585-18.24c-0.402-0.43-0.834-0.812-1.278-1.173c3.835-26.557-1.776-54.877-16.278-79.831
		l30.665-15.357l80.278,37.79c4.029,1.896,8.329,2.857,12.776,2.857c10.871,0,20.927-5.884,26.243-15.358
		c0.052-0.093,0.104-0.188,0.153-0.282l49.922-94.377l27.994,8.471c1.246,0.377,2.505,0.556,3.742,0.556
		c5.538,0,10.658-3.594,12.346-9.17C602.545,361.643,598.689,354.439,591.867,352.375z M480.079,452.817
		c-0.619,0-1.22-0.135-1.786-0.401l-85.947-40.457c-3.58-1.687-7.736-1.637-11.272,0.137l-49.263,24.67
		c-3.415,1.71-5.896,4.845-6.776,8.561c-0.881,3.717-0.07,7.632,2.214,10.692c1.757,2.354,3.403,4.752,4.893,7.125
		c10.886,17.336,16.286,36.805,15.87,55.583l-45.199-71.989c-1.068-1.904-0.521-4.337,1.272-5.585l78.01-54.204
		c3.25-2.259,5.283-5.88,5.518-9.831l3.267-54.997c0.226-3.813-1.247-7.53-4.025-10.15s-6.572-3.876-10.367-3.429
		c-2.922,0.344-5.82,0.573-8.616,0.676c-20.387,0.757-39.926-4.341-55.986-14.053l84.865-3.145c2.177,0.026,4.014,1.728,4.196,3.894
		l7.937,94.66c0.33,3.943,2.451,7.517,5.755,9.695l45.996,30.328c3.189,2.102,7.146,2.686,10.804,1.588
		c3.659-1.097,6.645-3.758,8.153-7.266c1.154-2.689,2.407-5.313,3.722-7.798c9.57-18.095,23.729-32.507,40.201-41.534
		l-39.747,75.142C482.851,452.265,481.271,452.817,480.079,452.817z"/>
</g>
</svg>
