<?xml version="1.0" encoding="utf-8"?>
<!-- Generator: Adobe Illustrator 16.0.0, SVG Export Plug-In . SVG Version: 6.00 Build 0)  -->
<!DOCTYPE svg PUBLIC "-//W3C//DTD SVG 1.1//EN" "http://www.w3.org/Graphics/SVG/1.1/DTD/svg11.dtd">
<svg version="1.1" id="Capa_1" xmlns="http://www.w3.org/2000/svg" xmlns:xlink="http://www.w3.org/1999/xlink" x="0px" y="0px"
	 width="800px" height="800px" viewBox="0 0 800 800" enable-background="new 0 0 800 800" xml:space="preserve">
<g>
	<polygon fill="#FFFFFF" points="325.504,356.989 334.443,372.473 343.383,356.989 	"/>
	<polygon fill="#FFFFFF" points="474.496,443.011 465.557,427.527 456.617,443.011 	"/>
	<polygon fill="#FFFFFF" points="325.504,443.011 343.383,443.011 334.443,427.527 	"/>
	<polygon fill="#FFFFFF" points="400,313.979 391.061,329.462 408.939,329.462 	"/>
	<polygon fill="#FFFFFF" points="375.167,443.011 424.833,443.011 449.665,400 424.833,356.989 375.167,356.989 350.336,400 	"/>
	<polygon fill="#FFFFFF" points="400,486.021 408.939,470.538 391.061,470.538 	"/>
	<polygon fill="#FFFFFF" points="456.617,356.989 465.557,372.473 474.496,356.989 	"/>
	<path fill="#FFFFFF" d="M632.258,247.742H25.807v304.516h748.387V247.742h-90.322c-7.126,0-12.903-5.777-12.903-12.903h-25.807
		C645.161,241.965,639.384,247.742,632.258,247.742z M510.256,449.893c2.458,4.258,2.458,9.505,0,13.764
		c-2.459,4.258-7.003,6.882-11.92,6.882h-57.61l-28.805,49.892c-2.459,4.259-7.002,6.882-11.919,6.882s-9.461-2.623-11.919-6.882
		l-28.806-49.892h-57.61c-4.917,0-9.46-2.624-11.919-6.882c-2.458-4.259-2.458-9.506,0-13.764L318.553,400l-28.805-49.893
		c-2.458-4.258-2.458-9.505,0-13.763c2.458-4.258,7.002-6.882,11.919-6.882h57.61l28.806-49.893
		c2.458-4.258,7.002-6.882,11.919-6.882s9.46,2.624,11.919,6.882l28.805,49.893h57.61c4.917,0,9.461,2.624,11.92,6.882
		c2.458,4.258,2.458,9.505,0,13.763L481.45,400L510.256,449.893z"/>
	<path fill="#164FCE" d="M510.256,336.344c-2.459-4.258-7.003-6.882-11.92-6.882h-57.61l-28.805-49.893
		c-2.459-4.258-7.002-6.882-11.919-6.882s-9.461,2.624-11.919,6.882l-28.806,49.893h-57.61c-4.917,0-9.46,2.624-11.919,6.882
		c-2.458,4.258-2.458,9.505,0,13.763L318.553,400l-28.805,49.893c-2.458,4.258-2.458,9.505,0,13.764
		c2.458,4.258,7.002,6.882,11.919,6.882h57.61l28.806,49.892c2.458,4.259,7.002,6.882,11.919,6.882s9.46-2.623,11.919-6.882
		l28.805-49.892h57.61c4.917,0,9.461-2.624,11.92-6.882c2.458-4.259,2.458-9.506,0-13.764L481.45,400l28.806-49.893
		C512.714,345.85,512.714,340.602,510.256,336.344z M400,313.979l8.939,15.484h-17.879L400,313.979z M424.833,356.989L449.665,400
		l-24.832,43.011h-49.666L350.335,400l24.832-43.011H424.833z M325.504,356.989h17.879l-8.939,15.484L325.504,356.989z
		 M325.504,443.011l8.939-15.483l8.939,15.483H325.504z M400,486.021l-8.939-15.483h17.879L400,486.021z M474.496,443.011h-17.879
		l8.939-15.483L474.496,443.011z M456.617,356.989h17.879l-8.939,15.484L456.617,356.989z"/>
	<path fill="#164FCE" d="M644.161,235.839v-1c0-6.563-5.34-11.903-11.903-11.903H24.807v-69.097h750.387v69.097h-91.322
		c-6.563,0-11.903,5.34-11.903,11.903v1H644.161z"/>
	<path fill="#164FCE" d="M632.258,221.936c7.126,0,12.903,5.777,12.903,12.903h25.807c0-7.126,5.777-12.903,12.903-12.903h90.322
		v-67.097H25.807v67.097H632.258z"/>
	<rect x="24.807" y="577.064" fill="#164FCE" width="750.387" height="69.097"/>
	<rect x="25.807" y="578.064" fill="#164FCE" width="748.387" height="67.097"/>
	<path d="M787.097,129.032H12.903C5.777,129.032,0,134.81,0,141.936v516.129c0,7.126,5.777,12.903,12.903,12.903h774.193
		c7.126,0,12.903-5.777,12.903-12.903V141.936C800,134.81,794.223,129.032,787.097,129.032z M774.193,154.839v67.097h-90.322
		c-7.126,0-12.903,5.777-12.903,12.903s5.777,12.903,12.903,12.903h90.322v304.516H25.807V247.742h606.451
		c7.126,0,12.903-5.777,12.903-12.903s-5.777-12.903-12.903-12.903H25.807v-67.097H774.193z M25.807,645.161v-67.097h748.387v67.097
		H25.807z"/>
</g>
</svg>
