<?xml version="1.0" encoding="utf-8"?>
<!-- Generator: Adobe Illustrator 16.0.0, SVG Export Plug-In . SVG Version: 6.00 Build 0)  -->
<!DOCTYPE svg PUBLIC "-//W3C//DTD SVG 1.1//EN" "http://www.w3.org/Graphics/SVG/1.1/DTD/svg11.dtd">
<svg version="1.1" id="Capa_1" xmlns="http://www.w3.org/2000/svg" xmlns:xlink="http://www.w3.org/1999/xlink" x="0px" y="0px"
	 width="800px" height="800px" viewBox="0 0 800 800" enable-background="new 0 0 800 800" xml:space="preserve">
<g>
	<path fill="#FFFFFF" d="M516.129,554.839v-400H283.871v490.322h232.258v-38.71c0-7.127,5.777-12.902,12.903-12.902v-25.807
		C521.906,567.742,516.129,561.967,516.129,554.839z"/>
	<rect x="24.807" y="153.839" fill="#FF7900" width="234.258" height="492.322"/>
	<rect x="25.807" y="154.839" fill="#FF7900" width="232.258" height="490.322"/>
	<path fill="#259245" d="M540.936,646.161v-39.71c0-6.563-5.34-11.902-11.903-11.902h-1v-27.807h1
		c6.563,0,11.903-5.34,11.903-11.903v-401h234.258v492.322H540.936z"/>
	<path fill="#259245" d="M541.936,554.839c0,7.128-5.777,12.903-12.903,12.903v25.807c7.126,0,12.903,5.775,12.903,12.902v38.71
		h232.258V154.839H541.936V554.839z"/>
	<path d="M787.097,129.032H12.903C5.777,129.032,0,134.808,0,141.936v516.129c0,7.128,5.777,12.903,12.903,12.903h774.193
		c7.126,0,12.903-5.775,12.903-12.903V141.936C800,134.808,794.223,129.032,787.097,129.032z M774.193,645.161H541.936v-38.71
		c0-7.127-5.777-12.902-12.903-12.902s-12.903,5.775-12.903,12.902v38.71H283.871V154.839h232.258v400
		c0,7.128,5.777,12.903,12.903,12.903s12.903-5.775,12.903-12.903v-400h232.258V645.161z M25.807,154.839h232.258v490.322H25.807
		V154.839z"/>
</g>
</svg>
