<?xml version="1.0" encoding="utf-8"?>
<!-- Generator: Adobe Illustrator 16.0.0, SVG Export Plug-In . SVG Version: 6.00 Build 0)  -->
<!DOCTYPE svg PUBLIC "-//W3C//DTD SVG 1.1//EN" "http://www.w3.org/Graphics/SVG/1.1/DTD/svg11.dtd">
<svg version="1.1" id="Capa_1" xmlns="http://www.w3.org/2000/svg" xmlns:xlink="http://www.w3.org/1999/xlink" x="0px" y="0px"
	 width="800px" height="800px" viewBox="0 0 800 800" enable-background="new 0 0 800 800" xml:space="preserve">
<g>
	<polygon fill="#FFFFFF" points="400,460.479 122.977,645.161 677.023,645.161 	"/>
	<path fill="#FFFFFF" d="M108.427,533.901L309.28,400L25.807,211.016V588.98l39.676-26.451c5.927-3.952,13.941-2.351,17.893,3.578
		l21.473-14.315C100.896,545.865,102.498,537.853,108.427,533.901z"/>
	<polygon fill="#FFFFFF" points="774.193,211.016 490.72,400 774.193,588.982 	"/>
	<path fill="#FFFFFF" d="M400,339.52l277.023-184.681H122.977L400,339.52z M365.533,184.824h68.934c5.07,0,9.671,2.969,11.76,7.59
		c4.744,10.501,7.253,22.534,7.253,34.797c0,51.09-45.552,75.553-47.49,76.568c-1.876,0.982-3.934,1.475-5.989,1.475
		s-4.115-0.492-5.989-1.475c-1.938-1.017-47.49-25.478-47.49-76.568c0-12.261,2.508-24.294,7.253-34.797
		C355.862,187.793,360.463,184.824,365.533,184.824z"/>
	<path fill="#ED1F34" d="M399.414,277.874c-10.49-7.585-28.087-24.253-28.087-50.664c0-5.827,0.76-11.497,2.258-16.851l0.204-0.73
		h52.422l0.204,0.73c1.498,5.354,2.258,11.024,2.258,16.851c0,26.407-17.598,43.077-28.087,50.663L400,278.297L399.414,277.874z"/>
	<path fill="#ED1F34" d="M400,277.063c9.723-7.032,27.673-23.572,27.673-49.853c0-5.734-0.757-11.35-2.221-16.582h-50.904
		c-1.464,5.232-2.221,10.847-2.221,16.582C372.327,253.492,390.278,270.034,400,277.063z"/>
	<path d="M394.011,303.78c1.876,0.982,3.934,1.475,5.989,1.475s4.115-0.492,5.989-1.475c1.938-1.017,47.49-25.478,47.49-76.568
		c0-12.261-2.509-24.294-7.253-34.797c-2.089-4.621-6.689-7.59-11.76-7.59h-68.934c-5.07,0-9.671,2.969-11.76,7.59
		c-4.745,10.501-7.253,22.534-7.253,34.797C346.521,278.302,392.072,302.763,394.011,303.78z M374.548,210.63h50.904
		c1.464,5.232,2.221,10.848,2.221,16.582c0,26.28-17.95,42.822-27.673,49.853c-9.722-7.031-27.673-23.572-27.673-49.853
		C372.327,221.478,373.084,215.862,374.548,210.63z"/>
	<path fill="#ED1F34" d="M723.239,646.161L406.601,435.068c-1.962-1.308-4.244-1.999-6.602-1.999s-4.641,0.691-6.604,1.999
		L76.757,646.161h-51.95v-26.7l54.438-36.29c2.645-1.763,4.445-4.451,5.069-7.568c0.624-3.118-0.004-6.291-1.768-8.937l-0.555-0.832
		l23.137-15.426l0.555,0.832c2.213,3.32,5.919,5.303,9.916,5.303c2.35-0.001,4.629-0.692,6.589-2.001l216.956-144.64
		c3.319-2.212,5.301-5.914,5.301-9.904c0-3.989-1.981-7.691-5.301-9.903L24.807,180.537v-26.698h51.95l316.643,211.093
		c1.963,1.308,4.246,2,6.603,2s4.64-0.691,6.603-2l316.639-211.093h51.95v26.698l-314.336,209.56
		c-3.319,2.21-5.301,5.913-5.301,9.903c0,3.988,1.981,7.69,5.301,9.903l314.336,209.558v26.7H723.239z"/>
	<path fill="#ED1F34" d="M774.193,619.996L460.303,410.735c-3.591-2.394-5.746-6.421-5.746-10.735c0-4.315,2.155-8.344,5.746-10.735
		l313.891-209.263v-25.163h-50.647L407.159,365.764c-2.168,1.445-4.663,2.167-7.157,2.167c-2.495,0-4.989-0.723-7.157-2.167
		L76.454,154.839H25.807v25.163l313.891,209.261c3.591,2.393,5.746,6.421,5.746,10.735s-2.155,8.344-5.746,10.736l-216.955,144.64
		c-2.199,1.467-4.686,2.168-7.145,2.169c-4.17,0-8.262-2.018-10.748-5.748l0,0l-21.473,14.316l0,0
		c3.954,5.929,2.351,13.94-3.578,17.892l-53.992,35.993v25.165h50.647l316.387-210.925c4.336-2.89,9.98-2.89,14.314,0
		l316.387,210.925h50.651V619.996z"/>
	<path d="M800,613.007V186.992c0-0.014,0-0.026,0-0.04v-45.017c0-7.126-5.775-12.903-12.903-12.903h-67.379
		c-0.009,0-0.018,0-0.025,0H80.322c-0.017,0-0.033,0-0.048,0h-67.37C5.775,129.032,0,134.808,0,141.936v45.019
		c0,0.014,0,0.026,0,0.04v426.013c0,0.014,0,0.025,0,0.039v45.019c0,7.126,5.775,12.903,12.903,12.903h67.37
		c0.017,0,0.033,0,0.048,0h639.283c0.009,0,0.016,0.002,0.024,0.002c0.008,0,0.019-0.002,0.027-0.002h67.44
		c7.128,0,12.903-5.777,12.903-12.903v-45.019C800,613.032,800,613.021,800,613.007z M723.546,645.161L407.159,434.236
		c-4.336-2.89-9.98-2.89-14.314,0L76.454,645.161H25.807v-25.163l53.99-35.993c5.929-3.951,7.532-11.964,3.579-17.893l0,0
		c-3.954-5.928-11.966-7.53-17.893-3.578l-39.676,26.448V211.016L309.28,400L108.427,533.901
		c-5.929,3.951-7.532,11.964-3.579,17.893l0,0c2.486,3.729,6.577,5.748,10.748,5.748c2.46,0,4.946-0.702,7.145-2.17l216.955-144.638
		c3.591-2.394,5.746-6.422,5.746-10.736s-2.155-8.344-5.746-10.735L25.807,180.002v-25.163h50.647l316.387,210.925
		c2.168,1.445,4.663,2.167,7.157,2.167c2.495,0,4.989-0.723,7.157-2.167l316.391-210.925h50.647v25.163L460.303,389.263
		c-3.591,2.393-5.746,6.421-5.746,10.735s2.155,8.344,5.746,10.736l313.891,209.262v25.165H723.546z M400,460.479l277.023,184.683
		H122.977L400,460.479z M400,339.52L122.977,154.839h554.047L400,339.52z M774.193,211.016V588.98L490.72,400L774.193,211.016z"/>
</g>
</svg>
