<?xml version="1.0" encoding="utf-8"?>
<!-- Generator: Adobe Illustrator 16.0.0, SVG Export Plug-In . SVG Version: 6.00 Build 0)  -->
<!DOCTYPE svg PUBLIC "-//W3C//DTD SVG 1.1//EN" "http://www.w3.org/Graphics/SVG/1.1/DTD/svg11.dtd">
<svg version="1.1" id="Capa_1" xmlns="http://www.w3.org/2000/svg" xmlns:xlink="http://www.w3.org/1999/xlink" x="0px" y="0px"
	 width="800px" height="800px" viewBox="0 0 800 800" enable-background="new 0 0 800 800" xml:space="preserve">
<g>
	<path fill="#FFFFFF" d="M774.193,326.882H313.585l93.572,62.383c3.589,2.393,5.746,6.422,5.746,10.735
		c0,4.313-2.155,8.342-5.746,10.735l-93.572,62.383h460.608V326.882z"/>
	<path fill="#259245" d="M644.161,659.064v-1c0-6.563-5.34-11.903-11.903-11.903H52.217l222.355-148.236h500.621v148.236h-91.322
		c-6.563,0-11.903,5.34-11.903,11.903v1H644.161z"/>
	<path fill="#259245" d="M683.871,645.161h90.322V498.925H274.875L55.52,645.161h576.738c7.126,0,12.903,5.777,12.903,12.903h25.807
		C670.968,650.938,676.745,645.161,683.871,645.161z"/>
	<polygon fill="#333333" points="274.572,302.075 52.217,153.839 775.193,153.839 775.193,302.075 	"/>
	<polygon fill="#333333" points="274.875,301.075 774.193,301.075 774.193,154.839 55.52,154.839 	"/>
	<path fill="#ED1F34" d="M24.807,164.177L378.541,400L24.807,635.822V164.177z M128.156,420.593l-2.279,37.76l28.102-25.326
		l28.102,25.326l-2.281-37.762l37.321-6.182l-30.943-21.761l18.438-33.031l-36.306,10.626l-14.331-35.01l-14.331,35.012
		l-36.306-10.626l18.437,33.032l-30.943,21.76L128.156,420.593z"/>
	<path fill="#ED1F34" d="M376.738,400L25.807,166.045v467.909L376.738,400z M101.278,357.973l37.786,11.059l14.915-36.438
		l14.915,36.437l37.786-11.059l-19.189,34.377l32.205,22.648l-38.842,6.433l2.374,39.302l-29.247-26.359l-29.248,26.359l2.373-39.3
		l-38.842-6.434l32.205-22.647L101.278,357.973z"/>
	<polygon fill="#FFFFFF" points="127.105,421.432 124.731,460.731 153.979,434.372 183.226,460.731 180.852,421.432 
		219.695,414.998 187.489,392.351 206.679,357.973 168.893,369.03 153.979,332.594 139.064,369.03 101.278,357.973 120.468,392.351 
		88.262,414.998 	"/>
	<path d="M787.097,129.032H12.903C5.777,129.032,0,134.81,0,141.936v516.129c0,7.126,5.777,12.903,12.903,12.903h619.354
		c7.126,0,12.903-5.777,12.903-12.903s-5.777-12.903-12.903-12.903H55.52l219.355-146.236h499.318v146.236h-90.322
		c-7.126,0-12.903,5.777-12.903,12.903s5.777,12.903,12.903,12.903h103.226c7.126,0,12.903-5.777,12.903-12.903V141.936
		C800,134.81,794.223,129.032,787.097,129.032z M774.193,301.075H274.875L55.52,154.839h718.673V301.075z M25.807,166.045
		L376.738,400L25.807,633.954V166.045z M407.157,410.735c3.589-2.394,5.746-6.423,5.746-10.735c0-4.313-2.155-8.342-5.746-10.735
		l-93.572-62.383h460.608v146.236H313.585L407.157,410.735z"/>
</g>
</svg>
