<?xml version="1.0" encoding="utf-8"?>
<!-- Generator: Adobe Illustrator 16.0.0, SVG Export Plug-In . SVG Version: 6.00 Build 0)  -->
<!DOCTYPE svg PUBLIC "-//W3C//DTD SVG 1.1//EN" "http://www.w3.org/Graphics/SVG/1.1/DTD/svg11.dtd">
<svg version="1.1" id="Capa_1" xmlns="http://www.w3.org/2000/svg" xmlns:xlink="http://www.w3.org/1999/xlink" x="0px" y="0px"
	 width="800px" height="800px" viewBox="0 0 800 800" enable-background="new 0 0 800 800" xml:space="preserve">
<g>
	<polygon fill="#3DB4EA" points="114.682,268.241 98.82,286.446 114.682,304.652 130.544,286.446 	"/>
	<polygon fill="#3DB4EA" points="114.682,343.938 98.82,362.144 114.682,380.349 130.544,362.144 	"/>
	<polygon fill="#3DB4EA" points="114.682,495.334 98.82,513.543 114.682,531.751 130.544,513.543 	"/>
	<polygon fill="#3DB4EA" points="114.682,419.632 98.82,437.839 114.682,456.047 130.544,437.839 	"/>
	<path fill="#3DB4EA" d="M644.161,659.064v-1c0-6.563-5.34-11.903-11.903-11.903H24.807V153.839h750.387v492.322h-91.322
		c-6.563,0-11.903,5.34-11.903,11.903v1H644.161z M138.681,597.066c2.262,2.597,5.535,4.086,8.98,4.086
		c2.872,0,5.647-1.04,7.814-2.928c4.949-4.313,5.468-11.847,1.157-16.795l-26.164-30.032l26.164-30.033
		c3.883-4.457,3.883-11.18,0-15.637l-26.164-30.034l26.164-30.035c3.883-4.457,3.882-11.18-0.002-15.637l-26.162-30.028
		l26.162-30.028c3.885-4.458,3.886-11.181,0.002-15.64l-26.164-30.03l26.164-30.03c3.884-4.458,3.883-11.182-0.002-15.639
		l-26.162-30.032l26.162-30.028c4.311-4.95,3.793-12.484-1.155-16.795c-2.168-1.89-4.943-2.93-7.815-2.93
		c-3.445,0-6.717,1.489-8.977,4.085l-24.002,27.548l-24.002-27.548c-2.261-2.596-5.533-4.084-8.979-4.084
		c-2.872,0-5.646,1.04-7.813,2.929c-2.398,2.089-3.839,4.987-4.058,8.159s0.813,6.239,2.902,8.636l26.162,30.028L72.73,278.623
		c-3.884,4.458-3.885,11.182-0.002,15.64l26.164,30.03l-26.164,30.03c-3.883,4.458-3.882,11.182,0.002,15.64l26.162,30.028
		L72.73,430.019c-3.884,4.457-3.885,11.18-0.002,15.637l26.164,30.035l-26.164,30.033c-3.882,4.457-3.882,11.18,0,15.639
		l26.164,30.032L72.728,581.43c-4.31,4.949-3.791,12.483,1.157,16.795c2.168,1.888,4.944,2.928,7.814,2.928
		c3.445,0,6.718-1.489,8.98-4.086l24-27.549L138.681,597.066z M575.971,334.667c-6.563,0-11.903,5.34-11.903,11.903
		c0,52.836-42.985,95.821-95.821,95.821c-3.837,0-7.458,1.863-9.687,4.985l-41.166,57.633c-3.815,5.34-2.574,12.789,2.766,16.604
		c2.034,1.45,4.423,2.217,6.908,2.217c3.843,0,7.468-1.863,9.697-4.985l37.72-52.809l0.479-0.026
		c41.516-2.311,78.269-25.595,98.315-62.287l0.285-0.521h46.024c6.563,0,11.903-5.34,11.903-11.903s-5.34-11.903-11.903-11.903
		h-36.323l0.346-1.264c1.693-6.181,2.892-12.495,3.562-18.767l0.096-0.894h68.449c6.564,0,11.905-5.339,11.905-11.901
		c0-6.563-5.34-11.903-11.903-11.903H575.971z M316.898,379.396c-6.563,0-11.903,5.34-11.903,11.903s5.34,11.903,11.903,11.903
		l46.031,0.002l0.284,0.521c12.354,22.68,32.025,41.046,55.39,51.714c1.564,0.717,3.225,1.08,4.936,1.08
		c4.651,0,8.904-2.732,10.835-6.962c1.321-2.894,1.438-6.127,0.326-9.106c-1.111-2.979-3.316-5.347-6.209-6.666
		c-34.062-15.555-56.07-49.789-56.07-87.218c0-6.563-5.34-11.903-11.903-11.903h-79.749c-6.563,0-11.903,5.34-11.903,11.903
		c0,6.563,5.34,11.903,11.903,11.903h68.443l0.097,0.893c0.678,6.266,1.885,12.58,3.587,18.767l0.348,1.265H316.898z
		 M468.244,276.171c-38.817,0-70.397,31.58-70.397,70.397c0,38.818,31.58,70.398,70.397,70.398s70.398-31.581,70.398-70.398
		C538.643,307.751,507.062,276.171,468.244,276.171z"/>
	<path fill="#3DB4EA" d="M683.871,645.161h90.322V154.839H25.807v490.322h606.451c7.128,0,12.903,5.777,12.903,12.903h25.807
		C670.968,650.938,676.743,645.161,683.871,645.161z M468.244,275.171c39.369,0,71.398,32.029,71.398,71.397
		c0,39.369-32.029,71.398-71.398,71.398c-39.368,0-71.397-32.03-71.397-71.398C396.847,307.2,428.876,275.171,468.244,275.171z
		 M157.387,580.772c4.681,5.373,4.12,13.522-1.254,18.206c-2.445,2.13-5.466,3.174-8.471,3.174c-3.601,0-7.183-1.499-9.734-4.429
		l-23.246-26.684l-23.247,26.684c-2.551,2.929-6.133,4.429-9.734,4.429c-3.007,0-6.025-1.044-8.471-3.174
		c-5.373-4.682-5.934-12.831-1.254-18.206l25.591-29.378l-25.591-29.376c-4.232-4.859-4.232-12.094,0-16.952l25.591-29.376
		l-25.591-29.378c-4.232-4.858-4.232-12.093,0.002-16.951l25.589-29.372l-25.589-29.371c-4.234-4.859-4.234-12.095-0.002-16.953
		l25.591-29.373l-25.591-29.373c-4.232-4.858-4.232-12.094,0.002-16.953l25.589-29.371l-25.589-29.371
		c-4.683-5.373-4.123-13.522,1.252-18.206c5.371-4.682,13.524-4.121,18.204,1.252l23.249,26.682l23.248-26.682
		c4.68-5.376,12.833-5.934,18.204-1.252c5.373,4.681,5.934,12.831,1.252,18.206l-25.589,29.371l25.589,29.375
		c4.234,4.858,4.234,12.095,0.002,16.953l-25.591,29.373l25.591,29.373c4.232,4.858,4.232,12.095-0.002,16.953l-25.589,29.371
		l25.589,29.371c4.234,4.858,4.234,12.093,0.002,16.951l-25.591,29.378l25.591,29.377c4.232,4.858,4.232,12.093,0,16.951
		l-25.591,29.376L157.387,580.772z M316.898,404.203c-7.128,0-12.903-5.777-12.903-12.903s5.775-12.903,12.903-12.903h35.033
		c-1.695-6.163-2.92-12.483-3.617-18.925h-67.545c-7.128,0-12.903-5.777-12.903-12.903c0-7.126,5.775-12.903,12.903-12.903h79.749
		c7.128,0,12.903,5.777,12.903,12.903c0,37.04,21.779,70.916,55.485,86.308c6.483,2.959,9.339,10.613,6.378,17.098
		c-2.166,4.744-6.847,7.547-11.745,7.547c-1.793,0-3.615-0.375-5.351-1.17c-24.208-11.054-43.575-29.606-55.853-52.146h-45.438
		V404.203z M655.718,359.472h-67.551c-0.691,6.476-1.911,12.793-3.591,18.925h35.013c7.128,0,12.903,5.777,12.903,12.903
		s-5.775,12.903-12.903,12.903h-45.432c-19.463,35.623-56.348,60.425-99.138,62.806l-37.441,52.418
		c-2.518,3.525-6.484,5.404-10.511,5.404c-2.596,0-5.215-0.781-7.489-2.403c-5.798-4.143-7.141-12.201-2.998-17.999l41.166-57.633
		c2.421-3.392,6.333-5.404,10.5-5.404c52.285,0,94.821-42.538,94.821-94.821c0-7.126,5.775-12.903,12.903-12.903h79.749
		c7.128,0,12.903,5.777,12.903,12.903S662.844,359.472,655.718,359.472z"/>
	<path d="M787.097,129.032H12.903C5.775,129.032,0,134.81,0,141.936v516.129c0,7.126,5.775,12.903,12.903,12.903h619.354
		c7.128,0,12.903-5.777,12.903-12.903s-5.775-12.903-12.903-12.903H25.807V154.839h748.387v490.322h-90.322
		c-7.128,0-12.903,5.777-12.903,12.903s5.775,12.903,12.903,12.903h103.226c7.128,0,12.903-5.777,12.903-12.903V141.936
		C800,134.81,794.225,129.032,787.097,129.032z"/>
	<path fill="#FFE000" d="M468.244,417.967c39.369,0,71.398-32.03,71.398-71.398c0-39.368-32.029-71.397-71.398-71.397
		c-39.368,0-71.397,32.029-71.397,71.397C396.847,385.937,428.876,417.967,468.244,417.967z"/>
	<path fill="#FFE000" d="M418.188,456.35c1.737,0.793,3.558,1.17,5.351,1.17c4.898,0,9.579-2.803,11.745-7.548
		c2.961-6.482,0.105-14.137-6.378-17.098c-33.706-15.392-55.485-49.268-55.485-86.307c0-7.126-5.775-12.903-12.903-12.903h-79.749
		c-7.128,0-12.903,5.777-12.903,12.903s5.775,12.903,12.903,12.903h67.545c0.697,6.441,1.924,12.762,3.617,18.925h-35.033
		c-7.128,0-12.903,5.777-12.903,12.903s5.775,12.903,12.903,12.903h45.438C374.615,426.742,393.98,445.296,418.188,456.35z"/>
	<path fill="#FFE000" d="M655.718,333.666h-79.749c-7.128,0-12.903,5.777-12.903,12.903c0,52.286-42.537,94.821-94.821,94.821
		c-4.167,0-8.077,2.014-10.5,5.404l-41.166,57.633c-4.143,5.8-2.799,13.857,2.999,17.999c2.272,1.624,4.893,2.403,7.488,2.403
		c4.028,0,7.993-1.879,10.511-5.403l37.441-52.419c42.791-2.381,79.673-27.183,99.138-62.806h45.432
		c7.128,0,12.903-5.777,12.903-12.903c0-7.126-5.775-12.903-12.903-12.903h-35.013c1.68-6.132,2.899-12.449,3.591-18.925h67.551
		c7.128,0,12.903-5.777,12.903-12.903S662.844,333.666,655.718,333.666z"/>
	<path fill="#FFE000" d="M157.387,505.066l-25.591-29.376l25.591-29.378c4.232-4.858,4.232-12.093-0.002-16.951l-25.589-29.372
		l25.589-29.371c4.234-4.859,4.234-12.095,0.002-16.953l-25.591-29.373l25.591-29.373c4.232-4.858,4.232-12.094-0.002-16.953
		l-25.589-29.371l25.589-29.371c4.683-5.373,4.123-13.522-1.252-18.206c-5.371-4.682-13.524-4.122-18.204,1.252l-23.248,26.682
		l-23.249-26.682c-4.679-5.373-12.833-5.934-18.204-1.252c-5.373,4.681-5.934,12.831-1.252,18.206l25.589,29.371L71.979,277.97
		c-4.234,4.858-4.234,12.095-0.002,16.953l25.591,29.373l-25.591,29.373c-4.232,4.858-4.232,12.095,0.002,16.953l25.589,29.371
		l-25.589,29.371c-4.234,4.858-4.234,12.093-0.002,16.951l25.591,29.378l-25.591,29.373c-4.232,4.858-4.232,12.093,0,16.952
		l25.591,29.376l-25.591,29.378c-4.681,5.373-4.12,13.522,1.254,18.206c2.446,2.13,5.464,3.174,8.471,3.174
		c3.601,0,7.183-1.5,9.734-4.429l23.247-26.684l23.246,26.684c2.552,2.93,6.133,4.429,9.734,4.429c3.005,0,6.027-1.044,8.471-3.174
		c5.373-4.682,5.934-12.831,1.254-18.206l-25.591-29.378l25.591-29.376C161.619,517.159,161.619,509.925,157.387,505.066z
		 M98.82,286.446l15.862-18.206l15.862,18.206l-15.862,18.206L98.82,286.446z M98.82,362.144l15.862-18.206l15.862,18.206
		l-15.862,18.206L98.82,362.144z M98.82,437.839l15.862-18.205l15.862,18.205l-15.862,18.208L98.82,437.839z M98.82,513.543
		l15.862-18.207l15.862,18.207l-15.862,18.208L98.82,513.543z"/>
</g>
</svg>
