<?xml version="1.0" encoding="utf-8"?>
<!-- Generator: Adobe Illustrator 16.0.0, SVG Export Plug-In . SVG Version: 6.00 Build 0)  -->
<!DOCTYPE svg PUBLIC "-//W3C//DTD SVG 1.1//EN" "http://www.w3.org/Graphics/SVG/1.1/DTD/svg11.dtd">
<svg version="1.1" id="Capa_1" xmlns="http://www.w3.org/2000/svg" xmlns:xlink="http://www.w3.org/1999/xlink" x="0px" y="0px"
	 width="800px" height="800px" viewBox="0 0 800 800" enable-background="new 0 0 800 800" xml:space="preserve">
<g>
	<path fill="#259245" d="M24.807,646.161V516.158h242.201l-35.426,35.426c-4.64,4.641-4.64,12.192,0,16.834
		c2.25,2.247,5.239,3.485,8.418,3.485s6.168-1.238,8.418-3.485l52.261-52.26h33.976l0.292,0.479
		c0.328,0.537,0.653,1.069,0.972,1.579c19.976,32.055,44.53,51.967,64.081,51.967s44.104-19.912,64.08-51.966
		c0.248-0.397,1.267-2.059,1.267-2.059h33.975l52.261,52.26c2.249,2.247,5.239,3.485,8.418,3.485s6.169-1.238,8.418-3.485
		c4.641-4.641,4.641-12.192,0-16.834l-35.426-35.426h242.201v130.003H24.807z"/>
	<path fill="#259245" d="M535.406,517.158l33.719,33.719c5.039,5.04,5.039,13.209,0,18.248c-2.521,2.519-5.823,3.778-9.125,3.778
		s-6.604-1.26-9.125-3.778l-51.968-51.967h-33.001c-0.33,0.538-0.657,1.075-0.978,1.588c-20.156,32.344-45.035,52.437-64.929,52.437
		s-44.772-20.093-64.929-52.437c-0.32-0.513-0.647-1.048-0.978-1.588h-33.001l-51.968,51.967c-2.521,2.519-5.823,3.778-9.125,3.778
		s-6.604-1.26-9.125-3.778c-5.039-5.041-5.039-13.209,0-18.248l33.719-33.719H25.807v128.003h748.387V517.158H535.406z"/>
	<path fill="#333333" d="M532.99,283.842l35.426-35.426c4.641-4.641,4.641-12.192,0-16.834c-2.248-2.248-5.237-3.485-8.416-3.485
		c-3.18,0-6.169,1.238-8.418,3.486l-52.261,52.26h-33.977l-0.292-0.479c-0.328-0.538-0.653-1.069-0.972-1.579
		c-19.977-32.055-44.53-51.967-64.081-51.967c-19.55,0-44.105,19.912-64.082,51.965c-0.254,0.407-1.266,2.06-1.266,2.06h-33.975
		l-52.26-52.26c-2.248-2.248-5.237-3.485-8.417-3.485c-3.18,0-6.169,1.238-8.418,3.486c-4.64,4.64-4.64,12.192,0,16.834
		l35.426,35.426H24.807V153.839h750.387v130.003H532.99z"/>
	<path fill="#333333" d="M264.594,282.842l-33.719-33.719c-5.039-5.041-5.039-13.209,0-18.249c5.041-5.038,13.209-5.038,18.249,0
		l51.967,51.967h33.001c0.33-0.539,0.657-1.076,0.978-1.588c20.158-32.344,45.037-52.437,64.931-52.437s44.772,20.093,64.929,52.437
		c0.32,0.513,0.647,1.047,0.978,1.588h33.001l51.968-51.967c5.041-5.038,13.209-5.038,18.248,0c5.039,5.041,5.039,13.209,0,18.249
		l-33.719,33.719h238.789V154.839H25.807v128.003H264.594z"/>
	<path fill="#ED1F34" d="M695.774,475.159v-1c0-6.563-5.34-11.903-11.903-11.903H488.948l0.364-1.274
		c5.715-20,8.612-40.517,8.612-60.979c0-20.469-2.898-40.985-8.614-60.979l-0.364-1.275h286.247v124.506h-39.709
		c-6.563,0-11.903,5.341-11.903,11.905v1H695.774z"/>
	<path fill="#ED1F34" d="M735.484,461.254h38.709V338.748H490.272c5.084,17.784,8.652,38.4,8.652,61.254
		c0,22.854-3.568,43.468-8.65,61.254h193.597c7.128,0,12.903,5.775,12.903,12.903h25.807
		C722.581,467.029,728.356,461.254,735.484,461.254z"/>
	<path fill="#ED1F34" d="M24.807,462.253V337.746h286.247l-0.364,1.275c-5.716,19.996-8.614,40.513-8.614,60.979
		c0,20.465,2.897,40.98,8.612,60.979l0.364,1.274H24.807z"/>
	<path fill="#ED1F34" d="M25.807,338.746v122.507h283.919c-5.082-17.784-8.65-38.4-8.65-61.253s3.568-43.468,8.652-61.254H25.807z"
		/>
	<path fill="#FFFFFF" d="M477.407,304.344l21.5-21.502h-33.001C469.376,288.528,473.392,295.75,477.407,304.344z"/>
	<path fill="#FFFFFF" d="M322.593,304.344c4.016-8.594,8.031-15.816,11.501-21.502h-33.001L322.593,304.344z"/>
	<polygon fill="#FFFFFF" points="25.807,312.939 294.691,312.939 264.594,282.842 25.807,282.842 	"/>
	<polygon fill="#FFFFFF" points="505.31,312.939 774.193,312.939 774.193,282.842 535.406,282.842 	"/>
	<polygon fill="#FFFFFF" points="294.691,487.061 25.807,487.061 25.807,517.158 264.594,517.158 	"/>
	<path fill="#FFFFFF" d="M774.193,487.061h-38.709c-7.128,0-12.903-5.775-12.903-12.903l0,0h-25.807l0,0
		c0,7.128-5.775,12.903-12.903,12.903H505.31l30.097,30.098h238.787V487.061z"/>
	<path fill="#FFFFFF" d="M477.407,495.657c-4.016,8.594-8.031,15.814-11.501,21.501h33.001L477.407,495.657z"/>
	<path fill="#ED1F34" d="M386.504,540.341c-11.353-8.345-28.188-27.222-41.394-55.178l-0.193-0.409l0.18-0.415
		c11.628-26.826,17.774-55.99,17.774-84.339c0-28.353-6.146-57.516-17.774-84.338l-0.18-0.416l0.193-0.41
		c13.202-27.953,30.039-46.831,41.394-55.178l1.592-1.17v283.023L386.504,540.341z"/>
	<path fill="#FFFFFF" d="M322.593,495.657l-21.5,21.501h33.001C330.624,511.472,326.608,504.249,322.593,495.657z"/>
	<path fill="#ED1F34" d="M411.903,258.488l1.593,1.17c11.353,8.345,28.188,27.223,41.394,55.178l0.193,0.41l-0.18,0.415
		c-11.628,26.826-17.774,55.989-17.774,84.339c0,28.349,6.146,57.513,17.774,84.341l0.18,0.415l-0.193,0.409
		c-13.202,27.954-30.039,46.832-41.395,55.178l-1.592,1.171V258.488z"/>
	<path d="M787.097,129.032H12.903C5.775,129.032,0,134.808,0,141.936v516.129c0,7.128,5.775,12.903,12.903,12.903h774.193
		c7.128,0,12.903-5.775,12.903-12.903V141.936C800,134.808,794.225,129.032,787.097,129.032z M774.193,154.839v128.003v30.097
		H505.31l30.097-30.097l33.719-33.719c5.039-5.041,5.039-13.209,0-18.249c-5.041-5.038-13.209-5.038-18.248,0l-51.968,51.967
		l-21.502,21.502c-4.016-8.594-8.031-15.816-11.501-21.502c-0.33-0.539-0.657-1.076-0.978-1.588
		c-20.156-32.344-45.035-52.437-64.929-52.437s-44.772,20.093-64.929,52.437c-0.32,0.513-0.647,1.047-0.978,1.588
		c-3.47,5.686-7.485,12.908-11.501,21.502l-21.5-21.502l-51.968-51.967c-5.041-5.038-13.209-5.038-18.249,0
		c-5.039,5.041-5.039,13.209,0,18.249l33.719,33.719l30.097,30.097H25.807v-30.097V154.839H774.193z M473.118,400
		c0,32.535-8.124,61.432-19.133,84.736c-12.515,26.493-28.75,45.734-41.082,54.799c-5.181,3.808-9.676,5.841-12.903,5.841
		s-7.723-2.033-12.903-5.841c-12.332-9.064-28.569-28.306-41.082-54.799c-11.009-23.305-19.133-52.201-19.133-84.736
		s8.124-61.432,19.133-84.736c12.515-26.493,28.75-45.734,41.082-54.799c5.181-3.807,9.676-5.841,12.903-5.841
		s7.723,2.034,12.903,5.841c12.332,9.065,28.569,28.306,41.082,54.799C464.994,338.568,473.118,367.465,473.118,400z
		 M309.726,461.254H25.807V338.748h283.921c-5.084,17.784-8.652,38.4-8.652,61.252S304.644,443.469,309.726,461.254z
		 M25.807,645.161V517.158v-30.098h268.884l-30.097,30.098l-33.719,33.719c-5.039,5.04-5.039,13.209,0,18.248
		c2.521,2.519,5.823,3.778,9.125,3.778s6.604-1.26,9.125-3.778l51.968-51.967l21.5-21.501c4.016,8.594,8.031,15.814,11.501,21.501
		c0.33,0.538,0.657,1.075,0.978,1.588c20.156,32.344,45.035,52.437,64.929,52.437s44.772-20.093,64.929-52.437
		c0.32-0.513,0.647-1.048,0.978-1.588c3.47-5.687,7.485-12.907,11.501-21.501l21.5,21.501l51.968,51.967
		c2.521,2.519,5.823,3.778,9.125,3.778s6.604-1.26,9.125-3.778c5.039-5.041,5.039-13.209,0-18.248l-33.719-33.719l-30.097-30.098
		h178.562c7.128,0,12.903-5.775,12.903-12.903l0,0c0-7.128-5.775-12.903-12.903-12.903H490.274
		c5.084-17.784,8.65-38.399,8.65-61.254c0-22.854-3.568-43.468-8.652-61.254h283.921v122.507h-38.709
		c-7.128,0-12.903,5.775-12.903,12.902l0,0c0,7.128,5.775,12.903,12.903,12.903h38.709v30.098v128.005H25.807z"/>
	<path fill="#ED1F34" d="M387.097,260.464c-12.332,9.065-28.569,28.306-41.082,54.799c10.622,24.502,17.856,53.557,17.856,84.736
		c0,31.18-7.236,60.235-17.856,84.736c12.515,26.493,28.75,45.734,41.082,54.799V260.464z"/>
	<path fill="#ED1F34" d="M436.129,400c0-31.179,7.236-60.236,17.856-84.736c-12.515-26.493-28.75-45.734-41.082-54.799v279.073
		c12.332-9.064,28.569-28.306,41.082-54.799C443.365,460.235,436.129,431.18,436.129,400z"/>
	<path fill="#333333" d="M453.067,485.134C441.332,458.06,435.129,428.62,435.129,400c0-28.624,6.203-58.063,17.938-85.134
		l0.879-2.026l0.943,1.997c12.579,26.63,19.229,56.079,19.229,85.164c0,29.085-6.649,58.534-19.229,85.163l-0.943,1.997
		L453.067,485.134z"/>
	<path fill="#333333" d="M453.985,315.264c-10.622,24.502-17.856,53.557-17.856,84.736c0,31.18,7.236,60.235,17.856,84.736
		c11.009-23.305,19.133-52.201,19.133-84.736S464.994,338.568,453.985,315.264z"/>
	<path fill="#333333" d="M345.11,485.163c-12.58-26.629-19.229-56.078-19.229-85.163c0-29.084,6.649-58.534,19.229-85.164
		l0.943-1.997l0.878,2.026c11.736,27.074,17.939,56.513,17.939,85.134c0,28.62-6.203,58.06-17.939,85.134l-0.878,2.026
		L345.11,485.163z"/>
	<path fill="#333333" d="M363.871,400c0-31.179-7.236-60.236-17.856-84.736c-11.009,23.305-19.133,52.201-19.133,84.736
		s8.124,61.432,19.133,84.736C356.635,460.235,363.871,431.18,363.871,400z"/>
	<path fill="#FFFFFF" d="M412.903,260.464c-5.181-3.807-9.676-5.841-12.903-5.841s-7.723,2.034-12.903,5.841v279.073
		c5.181,3.808,9.676,5.841,12.903,5.841s7.723-2.033,12.903-5.841V260.464z"/>
</g>
</svg>
