<?xml version="1.0" encoding="utf-8"?>
<!-- Generator: Adobe Illustrator 16.0.0, SVG Export Plug-In . SVG Version: 6.00 Build 0)  -->
<!DOCTYPE svg PUBLIC "-//W3C//DTD SVG 1.1//EN" "http://www.w3.org/Graphics/SVG/1.1/DTD/svg11.dtd">
<svg version="1.1" id="Capa_1" xmlns="http://www.w3.org/2000/svg" xmlns:xlink="http://www.w3.org/1999/xlink" x="0px" y="0px"
	 width="800px" height="800px" viewBox="0 0 800 800" enable-background="new 0 0 800 800" xml:space="preserve">
<g>
	<path fill="#ED1F34" d="M658.057,403.58c-29.552,0-43.37-6.632-59.37-14.312c-16.271-7.808-34.705-16.654-69.67-16.654
		c-9.515,0-18.19,0.653-26.521,1.997l-0.951,0.153l-0.188-0.945c-9.617-48.152-52.248-83.101-101.368-83.101
		c-49.121,0-91.752,34.95-101.367,83.103l-0.188,0.945l-0.951-0.153c-8.341-1.345-17.018-1.999-26.527-1.999
		c-34.964,0-53.397,8.849-69.662,16.656c-16.001,7.68-29.816,14.311-59.361,14.311c-29.548,0-43.364-6.632-59.362-14.312
		c-14.032-6.734-29.936-14.367-56.833-16.222l-0.931-0.064V153.836h750.387v219.146l-0.932,0.064
		c-26.9,1.855-42.804,9.488-56.835,16.222C701.421,396.949,687.604,403.58,658.057,403.58z M294.52,204.885
		c-6.562,0-11.901,5.34-11.901,11.903s5.339,11.903,11.903,11.903h72.629l25.018,21.813c2.167,1.89,4.945,2.931,7.822,2.931
		c2.875,0,5.652-1.041,7.821-2.931l25.02-21.813h72.629c6.563,0,11.903-5.34,11.903-11.903s-5.34-11.903-11.903-11.903h-77.088
		c-2.877,0-5.655,1.041-7.823,2.931l-20.561,17.923l-20.559-17.923c-2.167-1.89-4.945-2.931-7.822-2.931H294.52z"/>
	<path fill="#ED1F34" d="M141.932,402.58c29.319,0,43.041-6.587,58.927-14.211c16.361-7.854,34.903-16.755,70.096-16.755
		c10.185,0,18.939,0.762,26.687,2.011c9.541-47.784,51.799-83.907,102.348-83.907c50.548,0,92.806,36.123,102.349,83.905
		c7.745-1.249,16.499-2.009,26.68-2.009c35.196,0,53.741,8.901,70.103,16.753c15.89,7.626,29.613,14.213,58.938,14.213
		c29.323,0,43.045-6.587,58.937-14.213c14.234-6.832,30.134-14.451,57.199-16.318V154.836H25.806v217.212
		c27.063,1.867,42.961,9.486,57.196,16.318C98.89,395.993,112.611,402.58,141.932,402.58z M294.52,203.885h77.089
		c3.117,0,6.13,1.128,8.479,3.177l19.901,17.35l19.903-17.35c2.351-2.049,5.362-3.177,8.48-3.177h77.088
		c7.126,0,12.903,5.777,12.903,12.903s-5.777,12.903-12.903,12.903h-72.254l-24.737,21.567c-2.43,2.118-5.454,3.177-8.479,3.177
		s-6.049-1.058-8.479-3.177l-24.735-21.567h-72.255c-7.126,0-12.903-5.777-12.903-12.903S287.394,203.885,294.52,203.885z"/>
	<path fill="#FFE000" d="M399.984,403.58c-29.552,0-43.366-6.631-59.362-14.31c-5.339-2.563-11.39-5.468-18.31-8.076l-0.778-0.293
		l0.146-0.818c6.78-37.987,39.714-65.559,78.309-65.559c38.593,0,71.527,27.57,78.311,65.556l0.146,0.818l-0.778,0.293
		c-6.905,2.6-12.968,5.51-18.317,8.077C443.353,396.948,429.536,403.58,399.984,403.58z"/>
	<path fill="#FFE000" d="M399.989,315.524c-38.602,0-70.766,27.991-77.324,64.735c6.783,2.556,12.728,5.392,18.39,8.11
		c15.888,7.626,29.609,14.211,58.93,14.211c29.322,0,43.046-6.587,58.934-14.213c5.664-2.718,11.609-5.555,18.397-8.111
		C470.754,343.511,438.59,315.524,399.989,315.524z"/>
	<path d="M399.989,289.718c-50.548,0-92.806,36.123-102.347,83.907c9.76,1.574,17.875,3.939,25.023,6.632
		c6.559-36.744,38.725-64.734,77.324-64.734c38.601,0,70.765,27.989,77.325,64.731c7.147-2.692,15.263-5.056,25.022-6.63
		C492.796,325.839,450.538,289.718,399.989,289.718z"/>
	<path fill="#103B9B" d="M76.416,659.066v-1c0-6.563-5.34-11.903-11.903-11.903H24.804V534.467l1.079,0.085
		c21.095,1.672,33.377,7.567,46.38,13.81c16.27,7.809,34.704,16.656,69.667,16.656s53.396-8.849,69.661-16.655
		c16.004-7.681,29.819-14.312,59.363-14.312c29.555,0,43.369,6.632,59.365,14.311c16.268,7.808,34.703,16.656,69.666,16.656
		c34.97,0,53.403-8.849,69.668-16.656c16.002-7.68,29.817-14.311,59.364-14.311c29.557,0,43.373,6.632,59.37,14.311
		c16.267,7.808,34.703,16.656,69.671,16.656c34.965,0,53.399-8.847,69.664-16.651c13.01-6.246,25.292-12.143,46.394-13.814
		l1.079-0.085v111.696H116.126c-6.563,0-11.903,5.34-11.905,11.903l0,1H76.416z"/>
	<path fill="#103B9B" d="M116.126,645.163h658.068V535.549c-20.827,1.65-32.684,7.307-46.034,13.716
		c-16.361,7.852-34.906,16.753-70.103,16.753c-35.195,0-53.741-8.901-70.104-16.755c-15.89-7.627-29.613-14.212-58.938-14.212
		c-29.322,0-43.044,6.587-58.932,14.212c-16.36,7.854-34.906,16.755-70.101,16.755c-35.193,0-53.736-8.901-70.099-16.755
		c-15.888-7.627-29.609-14.212-58.932-14.212c-29.319,0-43.041,6.587-58.928,14.212c-16.361,7.854-34.903,16.755-70.095,16.755
		c-35.194,0-53.736-8.901-70.099-16.755c-13.348-6.407-25.204-12.063-46.027-13.714v109.614h38.708
		c7.126,0,12.903,5.777,12.903,12.903h25.806C103.223,650.938,109,645.163,116.126,645.163z"/>
	<path fill="#103B9B" d="M658.057,472.396c-29.549,0-43.366-6.632-59.365-14.311c-16.271-7.809-34.706-16.657-69.675-16.657
		c-34.965,0-53.4,8.849-69.667,16.655c-16.002,7.681-29.818,14.313-59.367,14.313c-29.55,0-43.366-6.632-59.362-14.312
		c-16.266-7.808-34.701-16.656-69.666-16.656c-34.963,0-53.397,8.849-69.661,16.655c-16.003,7.682-29.818,14.313-59.362,14.313
		c-29.541,0-43.357-6.63-59.355-14.308c-14.041-6.738-29.943-14.371-56.843-16.227l-0.931-0.064v-44.962l1.079,0.085
		c21.094,1.671,33.377,7.567,46.381,13.809c16.27,7.809,34.704,16.656,69.666,16.656c34.963,0,53.397-8.849,69.661-16.655
		c16.005-7.682,29.82-14.312,59.363-14.312c29.549,0,43.366,6.631,59.363,14.31c16.269,7.809,34.704,16.657,69.667,16.657
		c34.97,0,53.403-8.849,69.668-16.656c16.003-7.681,29.818-14.311,59.365-14.311c29.551,0,43.368,6.631,59.368,14.311
		c16.268,7.808,34.704,16.656,69.673,16.656c34.968,0,53.403-8.849,69.669-16.655c13.005-6.242,25.288-12.138,46.388-13.81
		l1.079-0.085v44.962l-0.932,0.064c-26.903,1.855-42.805,9.488-56.835,16.222C701.417,465.767,687.601,472.396,658.057,472.396z"/>
	<path fill="#103B9B" d="M141.932,471.396c29.319,0,43.041-6.588,58.927-14.213c16.361-7.854,34.903-16.755,70.096-16.755
		c35.193,0,53.737,8.901,70.099,16.755c15.888,7.627,29.609,14.213,58.93,14.213c29.322,0,43.046-6.588,58.934-14.214
		c16.361-7.853,34.907-16.754,70.101-16.754c35.196,0,53.742,8.901,70.103,16.754c15.89,7.626,29.613,14.214,58.938,14.214
		c29.323,0,43.045-6.588,58.937-14.214c14.234-6.832,30.134-14.451,57.199-16.318v-42.946c-20.827,1.65-32.684,7.306-46.034,13.714
		c-16.36,7.853-34.906,16.754-70.102,16.754c-35.196,0-53.742-8.901-70.104-16.755c-15.89-7.626-29.613-14.212-58.937-14.212
		c-29.322,0-43.045,6.587-58.933,14.212c-16.36,7.854-34.906,16.755-70.101,16.755c-35.193,0-53.736-8.901-70.099-16.755
		c-15.888-7.626-29.609-14.212-58.932-14.212c-29.319,0-43.041,6.587-58.928,14.212c-16.361,7.854-34.903,16.755-70.096,16.755
		c-35.194,0-53.736-8.901-70.099-16.755c-13.349-6.407-25.204-12.063-46.027-13.713v42.946c27.063,1.867,42.961,9.486,57.196,16.318
		C98.89,464.809,112.611,471.396,141.932,471.396z"/>
	<path fill="#103B9B" d="M658.057,541.212c-29.549,0-43.366-6.632-59.365-14.311c-16.271-7.809-34.706-16.657-69.675-16.657
		c-34.965,0-53.4,8.849-69.667,16.655c-16.002,7.681-29.818,14.313-59.367,14.313c-29.55,0-43.366-6.632-59.362-14.312
		c-16.266-7.808-34.701-16.656-69.666-16.656c-34.963,0-53.397,8.849-69.661,16.655c-16.003,7.682-29.818,14.313-59.362,14.313
		c-29.541,0-43.357-6.63-59.355-14.308c-14.042-6.739-29.945-14.372-56.843-16.227l-0.931-0.064v-44.962l1.079,0.085
		c21.094,1.672,33.377,7.567,46.381,13.81c16.27,7.809,34.704,16.656,69.666,16.656c34.963,0,53.397-8.849,69.661-16.655
		c16.004-7.681,29.819-14.312,59.363-14.312c29.554,0,43.369,6.632,59.364,14.311c16.268,7.808,34.703,16.656,69.666,16.656
		c34.97,0,53.403-8.849,69.668-16.656c16.001-7.68,29.817-14.311,59.365-14.311c29.556,0,43.371,6.632,59.369,14.311
		c16.267,7.808,34.703,16.656,69.672,16.656c34.968,0,53.403-8.849,69.669-16.655c13.005-6.242,25.288-12.139,46.388-13.811
		l1.079-0.085v44.962l-0.932,0.064c-26.903,1.855-42.805,9.488-56.835,16.222C701.417,534.582,687.601,541.212,658.057,541.212z"/>
	<path fill="#103B9B" d="M141.932,540.212c29.319,0,43.041-6.588,58.927-14.213c16.361-7.854,34.903-16.755,70.096-16.755
		c35.193,0,53.737,8.901,70.099,16.755c15.888,7.627,29.609,14.213,58.93,14.213c29.322,0,43.046-6.588,58.934-14.214
		c16.361-7.853,34.907-16.754,70.101-16.754c35.196,0,53.742,8.901,70.103,16.754c15.89,7.626,29.613,14.214,58.938,14.214
		c29.323,0,43.045-6.588,58.937-14.214c14.234-6.832,30.134-14.451,57.199-16.318v-42.946c-20.827,1.65-32.684,7.307-46.034,13.715
		c-16.36,7.853-34.906,16.754-70.102,16.754c-35.196,0-53.742-8.901-70.104-16.755c-15.89-7.627-29.613-14.212-58.937-14.212
		c-29.322,0-43.045,6.587-58.933,14.212c-16.36,7.854-34.906,16.755-70.101,16.755c-35.193,0-53.736-8.901-70.099-16.755
		c-15.888-7.627-29.609-14.212-58.932-14.212c-29.319,0-43.041,6.587-58.928,14.212c-16.361,7.854-34.903,16.755-70.096,16.755
		c-35.194,0-53.736-8.901-70.099-16.755c-13.349-6.407-25.204-12.063-46.027-13.714v42.946c27.063,1.866,42.961,9.486,57.196,16.318
		C98.89,533.624,112.611,540.212,141.932,540.212z"/>
	<path fill="#FFFFFF" d="M141.932,566.018c35.192,0,53.735-8.901,70.096-16.755c15.888-7.627,29.608-14.212,58.928-14.212
		c29.321,0,43.044,6.587,58.932,14.212c16.36,7.854,34.904,16.755,70.099,16.755c35.195,0,53.739-8.901,70.101-16.755
		c15.888-7.627,29.609-14.212,58.932-14.212c29.324,0,43.046,6.587,58.938,14.212c16.36,7.854,34.906,16.755,70.104,16.755
		c35.195,0,53.741-8.901,70.103-16.753c13.35-6.407,25.207-12.063,46.034-13.716V509.68c-27.065,1.867-42.965,9.486-57.2,16.318
		c-15.889,7.626-29.612,14.214-58.937,14.214s-43.048-6.588-58.937-14.214c-16.361-7.853-34.907-16.754-70.103-16.754
		c-35.194,0-53.738,8.901-70.101,16.754c-15.888,7.626-29.611,14.214-58.934,14.214c-29.32,0-43.042-6.588-58.93-14.213
		c-16.361-7.854-34.905-16.755-70.099-16.755c-35.192,0-53.735,8.901-70.096,16.755c-15.888,7.627-29.608,14.213-58.926,14.213
		c-29.321,0-43.042-6.588-58.93-14.213c-14.235-6.831-30.133-14.451-57.196-16.317v25.869c20.824,1.65,32.681,7.307,46.027,13.714
		C88.196,557.116,106.738,566.018,141.932,566.018z"/>
	<path fill="#FFFFFF" d="M141.932,497.202c35.192,0,53.735-8.901,70.096-16.755c15.888-7.627,29.608-14.212,58.928-14.212
		c29.321,0,43.044,6.587,58.932,14.212c16.36,7.854,34.904,16.755,70.099,16.755c35.195,0,53.739-8.901,70.101-16.755
		c15.888-7.627,29.609-14.212,58.932-14.212c29.324,0,43.046,6.587,58.938,14.212c16.36,7.854,34.906,16.755,70.104,16.755
		c35.195,0,53.741-8.901,70.103-16.754c13.35-6.406,25.207-12.063,46.034-13.715v-25.869c-27.065,1.867-42.965,9.486-57.2,16.318
		c-15.889,7.626-29.612,14.214-58.937,14.214s-43.048-6.588-58.937-14.214c-16.361-7.853-34.907-16.754-70.103-16.754
		c-35.194,0-53.738,8.901-70.101,16.754c-15.888,7.626-29.611,14.214-58.934,14.214c-29.32,0-43.042-6.588-58.93-14.213
		c-16.361-7.854-34.905-16.755-70.099-16.755c-35.192,0-53.735,8.901-70.096,16.755c-15.888,7.627-29.608,14.213-58.926,14.213
		c-29.321,0-43.042-6.588-58.93-14.213c-14.235-6.831-30.133-14.451-57.196-16.317v25.869c20.824,1.65,32.681,7.307,46.027,13.714
		C88.196,488.301,106.738,497.202,141.932,497.202z"/>
	<path fill="#FFFFFF" d="M141.932,428.387c35.192,0,53.735-8.901,70.096-16.756c15.888-7.626,29.608-14.211,58.928-14.211
		c29.321,0,43.044,6.587,58.932,14.211c16.36,7.854,34.904,16.756,70.099,16.756c35.195,0,53.739-8.901,70.101-16.756
		c15.888-7.626,29.609-14.211,58.932-14.211c29.324,0,43.046,6.587,58.938,14.211c16.36,7.854,34.906,16.756,70.104,16.756
		c35.195,0,53.741-8.901,70.103-16.754c13.35-6.406,25.207-12.063,46.034-13.714v-25.87c-27.065,1.867-42.965,9.486-57.2,16.318
		c-15.889,7.626-29.612,14.213-58.937,14.213s-43.048-6.587-58.937-14.213c-16.361-7.852-34.907-16.753-70.103-16.753
		c-10.182,0-18.935,0.762-26.68,2.009c-9.76,1.574-17.877,3.938-25.023,6.63c-6.787,2.557-12.732,5.394-18.397,8.112
		c-15.888,7.626-29.611,14.213-58.934,14.213c-29.32,0-43.042-6.586-58.93-14.211c-5.662-2.718-11.606-5.553-18.39-8.11
		c-7.146-2.694-15.264-5.058-25.023-6.632c-7.747-1.25-16.502-2.011-26.687-2.011c-35.192,0-53.735,8.901-70.096,16.755
		c-15.888,7.626-29.608,14.211-58.926,14.211c-29.321,0-43.042-6.587-58.93-14.211c-14.234-6.832-30.133-14.452-57.196-16.318
		v25.869c20.824,1.65,32.681,7.307,46.027,13.713C88.196,419.485,106.738,428.387,141.932,428.387z"/>
	<path d="M787.097,129.031H12.903C5.777,129.031,0,134.808,0,141.934v516.133c0,7.126,5.777,12.903,12.903,12.903h51.612
		c7.125,0,12.903-5.777,12.903-12.903l0,0c0-7.126-5.777-12.902-12.903-12.902H25.806V535.549V509.68v-42.946v-25.869v-42.946
		v-25.87V154.836h748.389v217.212v25.87v42.946v25.869v42.946v25.869v109.614H116.126c-7.126,0-12.903,5.777-12.903,12.903l0,0
		c0,7.126,5.777,12.903,12.903,12.903h670.971c7.126,0,12.903-5.777,12.903-12.903V141.934
		C800,134.808,794.223,129.031,787.097,129.031z"/>
	<path d="M294.52,229.69h72.255l24.735,21.567c2.431,2.118,5.454,3.177,8.479,3.177c3.024,0,6.051-1.06,8.479-3.177l24.737-21.567
		h72.255c7.126,0,12.902-5.777,12.902-12.903s-5.776-12.903-12.902-12.903h-77.089c-3.117,0-6.13,1.128-8.48,3.177l-19.901,17.35
		l-19.901-17.35c-2.35-2.047-5.362-3.177-8.479-3.177H294.52c-7.125,0-12.903,5.777-12.903,12.903
		C281.617,223.913,287.394,229.69,294.52,229.69z"/>
</g>
</svg>
