<?xml version="1.0" encoding="utf-8"?>
<!-- Generator: Adobe Illustrator 16.0.0, SVG Export Plug-In . SVG Version: 6.00 Build 0)  -->
<!DOCTYPE svg PUBLIC "-//W3C//DTD SVG 1.1//EN" "http://www.w3.org/Graphics/SVG/1.1/DTD/svg11.dtd">
<svg version="1.1" id="Capa_1" xmlns="http://www.w3.org/2000/svg" xmlns:xlink="http://www.w3.org/1999/xlink" x="0px" y="0px"
	 width="800px" height="800px" viewBox="0 0 800 800" enable-background="new 0 0 800 800" xml:space="preserve">
<g>
	<path fill="#103B9B" d="M24.807,646.161V153.839h659.064c6.563,0,11.903-5.34,11.903-11.903v-1h27.807v1
		c0,6.563,5.34,11.903,11.903,11.903h39.709v492.322H24.807z M294.943,415.056c-3.888,0-7.538,1.908-9.763,5.104
		c-2.688,3.861-2.847,8.956-0.404,12.979L369.221,572.2c2.147,3.53,6.046,5.725,10.176,5.725c14.427,0,26.877-9.791,30.276-23.809
		l0.169-0.696l0.713-0.064c26.015-2.335,49.914-12.969,69.115-30.753c21.612-20.016,34.839-47.16,37.244-76.433
		c0.205-2.512-0.374-4.976-1.677-7.124l-63.958-105.889c-1.305-2.159-3.222-3.821-5.543-4.804
		c-14.504-6.146-29.901-9.263-45.766-9.263c-14.118,0-27.956,2.499-41.129,7.427c-3.152,1.178-5.668,3.649-6.903,6.78
		c-1.234,3.13-1.083,6.653,0.415,9.666c3.503,7.045,5.279,14.625,5.279,22.53c0,27.967-22.753,50.721-50.72,50.721
		c-3.225,0-6.489-0.316-9.701-0.939C296.465,415.13,295.701,415.056,294.943,415.056z M585.599,263.089
		c-7.304,0-13.729,4.671-15.987,11.624c-1.389,4.271-1.03,8.828,1.009,12.83s5.515,6.97,9.786,8.358
		c1.691,0.55,3.441,0.829,5.201,0.829c7.304,0,13.729-4.671,15.987-11.624c2.865-8.818-1.978-18.323-10.795-21.188
		C589.108,263.367,587.358,263.089,585.599,263.089z M214.4,263.089c-1.76,0-3.509,0.278-5.2,0.828
		c-4.271,1.388-7.747,4.356-9.786,8.358c-2.039,4.002-2.397,8.559-1.009,12.83c2.258,6.952,8.684,11.623,15.988,11.623
		c1.76,0,3.509-0.278,5.2-0.828c4.272-1.388,7.748-4.356,9.787-8.358s2.397-8.559,1.009-12.83
		C228.13,267.76,221.705,263.089,214.4,263.089z M512.122,244.356c-8.049,0-14.987,5.749-16.499,13.669
		c-1.737,9.108,4.26,17.932,13.368,19.669c1.048,0.2,2.114,0.301,3.172,0.301c8.048,0,14.986-5.748,16.497-13.668
		c0.842-4.412-0.085-8.888-2.609-12.604c-2.525-3.715-6.346-6.225-10.758-7.066C514.245,244.457,513.179,244.356,512.122,244.356z
		 M287.878,244.356c-1.057,0-2.124,0.101-3.171,0.301c-9.109,1.738-15.106,10.562-13.368,19.67
		c1.511,7.92,8.45,13.668,16.498,13.668c1.057,0,2.124-0.101,3.172-0.301c9.108-1.738,15.105-10.562,13.368-19.669
		C302.865,250.104,295.927,244.356,287.878,244.356z M436.895,234.979c-8.848,0-16.213,6.924-16.769,15.764
		c-0.282,4.484,1.198,8.809,4.17,12.179c2.971,3.37,7.077,5.381,11.561,5.663c0.359,0.022,0.717,0.034,1.072,0.034
		c8.847,0,16.213-6.924,16.77-15.765c0.582-9.255-6.476-17.259-15.73-17.841C437.607,234.99,437.251,234.979,436.895,234.979z
		 M363.104,234.979c-0.355,0-0.713,0.011-1.073,0.034c-4.484,0.282-8.589,2.293-11.56,5.663c-2.971,3.37-4.452,7.695-4.17,12.178
		c0.555,8.84,7.921,15.765,16.77,15.765c0.355,0,0.713-0.011,1.072-0.034c4.483-0.282,8.589-2.293,11.56-5.663
		c2.971-3.37,4.452-7.695,4.17-12.178C379.316,241.903,371.951,234.979,363.104,234.979z"/>
	<path fill="#103B9B" d="M683.871,154.839H25.807v490.322h748.387V154.839h-38.709c-7.127,0-12.903-5.777-12.903-12.903h-25.807
		C696.774,149.062,690.997,154.839,683.871,154.839z M419.128,250.681c0.617-9.822,9.08-17.284,18.902-16.666
		c9.821,0.618,17.283,9.081,16.666,18.902c-0.618,9.822-9.081,17.283-18.902,16.666C425.972,268.965,418.51,260.502,419.128,250.681
		z M361.968,234.015c9.822-0.618,18.285,6.844,18.902,16.666c0.618,9.822-6.844,18.285-16.665,18.902
		c-9.822,0.617-18.285-6.844-18.902-16.666C344.685,243.095,352.146,234.632,361.968,234.015z M219.902,296.852
		c-9.357,3.04-19.408-2.08-22.448-11.438s2.08-19.408,11.438-22.448s19.408,2.08,22.448,11.438
		C234.381,283.761,229.259,293.812,219.902,296.852z M270.357,264.515c-1.844-9.666,4.497-18.996,14.163-20.84
		s18.995,4.497,20.84,14.163c1.844,9.666-4.497,18.995-14.163,20.839C281.531,280.521,272.201,274.18,270.357,264.515z
		 M517.91,446.252c-2.425,29.521-15.763,56.896-37.561,77.084c-19.304,17.879-43.732,28.685-69.705,31.016
		c-3.415,14.084-16.129,24.573-31.248,24.573c-4.508,0-8.688-2.354-11.03-6.206l-84.445-139.061
		c-2.649-4.364-2.478-9.88,0.438-14.069c2.917-4.189,8.024-6.27,13.043-5.296c3.151,0.611,6.352,0.921,9.511,0.921
		c27.416,0,49.72-22.304,49.72-49.721c0-7.747-1.74-15.178-5.175-22.085c-1.626-3.271-1.789-7.08-0.449-10.478
		c1.341-3.399,4.059-6.07,7.482-7.35c13.285-4.97,27.239-7.491,41.479-7.491c16,0,31.528,3.143,46.156,9.342
		c2.501,1.06,4.604,2.883,6.009,5.208l63.957,105.887C517.497,440.845,518.132,443.549,517.91,446.252z M529.643,264.515
		c-1.844,9.665-11.174,16.007-20.839,14.162c-9.666-1.844-16.007-11.174-14.163-20.839c1.845-9.666,11.175-16.007,20.84-14.163
		S531.487,254.849,529.643,264.515z M602.546,285.414c-3.04,9.357-13.091,14.479-22.448,11.438
		c-9.357-3.04-14.479-13.091-11.438-22.448c3.04-9.357,13.091-14.479,22.448-11.438
		C600.465,266.006,605.586,276.057,602.546,285.414z"/>
	<path d="M787.097,129.032h-51.612c-7.127,0-12.903,5.777-12.903,12.903s5.776,12.903,12.903,12.903h38.709v490.322H25.807V154.839
		h658.064c7.126,0,12.903-5.777,12.903-12.903s-5.777-12.903-12.903-12.903H12.903C5.777,129.032,0,134.81,0,141.936v516.129
		c0,7.126,5.777,12.903,12.903,12.903h774.193c7.126,0,12.903-5.777,12.903-12.903V141.936
		C800,134.81,794.223,129.032,787.097,129.032z"/>
	<circle fill="#FFFFFF" cx="363.087" cy="251.799" r="17.818"/>
	<circle fill="#FFFFFF" cx="287.859" cy="261.177" r="17.817"/>
	<circle fill="#FFFFFF" cx="214.398" cy="279.909" r="17.815"/>
	<circle fill="#FFFFFF" cx="436.914" cy="251.799" r="17.818"/>
	<circle fill="#FFFFFF" cx="512.141" cy="261.177" r="17.817"/>
	<circle fill="#FFFFFF" cx="585.602" cy="279.909" r="17.815"/>
	<path fill="#F2A643" d="M316.447,439.429l1.488-0.222c36.204-5.392,63.506-37.082,63.506-73.714c0-6.53-0.835-12.976-2.484-19.159
		l-0.269-1.008l1.019-0.226c6.608-1.464,13.427-2.207,20.265-2.207c11.257,0,22.247,1.971,32.664,5.857l0.326,0.122l59.841,99.075
		l-0.044,0.346c-2.838,22.368-13.841,43.027-30.982,58.174c-17.191,15.19-39.138,23.557-61.795,23.557l-0.433-0.013
		c-0.249-0.009-0.499-0.017-0.749-0.02l-0.153-0.001c-3.154,0-6.126,1.219-8.369,3.433c-2.25,2.222-3.541,5.31-3.541,8.472v4.882
		c0,1.35-0.372,2.672-1.076,3.823l-0.856,1.4L316.447,439.429z"/>
	<path fill="#F2A643" d="M432.287,349.688c-10.311-3.847-21.163-5.794-32.314-5.794c-6.791,0-13.495,0.731-20.049,2.183
		c1.675,6.283,2.518,12.774,2.518,19.417c0,37.85-27.991,69.287-64.358,74.703l66.728,109.882c0.588-0.962,0.929-2.094,0.929-3.302
		v-4.882c0-3.451,1.384-6.76,3.838-9.184c2.457-2.425,5.745-3.763,9.234-3.72c0.29,0.003,0.579,0.014,0.868,0.023l0.303,0.009
		c46.435,0,85.992-35.198,91.785-80.856L432.287,349.688z"/>
	<path d="M452.138,332.638c-1.405-2.326-3.508-4.148-6.01-5.208c-14.627-6.199-30.155-9.342-46.155-9.342
		c-14.238,0-28.194,2.52-41.479,7.491c-3.422,1.28-6.141,3.952-7.482,7.35c-1.34,3.399-1.177,7.207,0.449,10.477
		c3.434,6.908,5.175,14.338,5.175,22.085c0,27.417-22.304,49.72-49.721,49.72c-3.158,0-6.358-0.31-9.51-0.921
		c-5.019-0.972-10.126,1.107-13.042,5.296c-2.916,4.189-3.088,9.707-0.439,14.07l84.446,139.061
		c2.34,3.852,6.522,6.205,11.029,6.205c15.119,0,27.833-10.489,31.249-24.572c25.973-2.332,50.401-13.138,69.704-31.017
		c21.798-20.188,35.137-47.563,37.561-77.084c0.222-2.702-0.413-5.407-1.814-7.727L452.138,332.638z M399.984,529.021l-0.303-0.008
		c-0.289-0.011-0.578-0.02-0.869-0.024c-3.488-0.043-6.776,1.294-9.233,3.72c-2.456,2.424-3.838,5.732-3.838,9.184v4.883
		c0,1.209-0.341,2.34-0.929,3.301l-66.728-109.882c36.368-5.414,64.358-36.852,64.358-74.703c0-6.641-0.844-13.132-2.518-19.417
		c6.554-1.452,13.258-2.183,20.049-2.183c11.151,0,22.004,1.948,32.314,5.794l59.482,98.477
		C485.977,493.823,446.419,529.021,399.984,529.021z"/>
</g>
</svg>
