<?xml version="1.0" encoding="utf-8"?>
<!-- Generator: Adobe Illustrator 16.0.0, SVG Export Plug-In . SVG Version: 6.00 Build 0)  -->
<!DOCTYPE svg PUBLIC "-//W3C//DTD SVG 1.1//EN" "http://www.w3.org/Graphics/SVG/1.1/DTD/svg11.dtd">
<svg version="1.1" id="Capa_1" xmlns="http://www.w3.org/2000/svg" xmlns:xlink="http://www.w3.org/1999/xlink" x="0px" y="0px"
	 width="800px" height="800px" viewBox="0 0 800 800" enable-background="new 0 0 800 800" xml:space="preserve">
<g>
	<path fill="#FFFFFF" d="M696.774,313.979c0,7.126-5.775,12.903-12.903,12.903h-400v146.236h490.322V326.882h-38.709
		c-7.128,0-12.903-5.777-12.903-12.903l0,0H696.774L696.774,313.979z"/>
	<path fill="#259245" d="M695.774,314.979v-1c0-6.563-5.34-11.903-11.903-11.903H274.572L52.217,153.839h722.976v148.236h-39.709
		c-6.563,0-11.903,5.34-11.903,11.903v1H695.774z"/>
	<path fill="#259245" d="M274.875,301.075h408.996c7.128,0,12.903,5.777,12.903,12.903h25.807c0-7.126,5.775-12.903,12.903-12.903
		h38.709V154.839H55.52L274.875,301.075z"/>
	<polygon fill="#ED1F34" points="52.217,646.161 274.572,497.925 775.193,497.925 775.193,646.161 	"/>
	<polygon fill="#ED1F34" points="274.875,498.925 55.52,645.161 774.193,645.161 774.193,498.925 	"/>
	<polygon fill="#333333" points="24.807,164.175 259.064,320.348 259.064,479.65 24.807,635.822 	"/>
	<polygon fill="#333333" points="258.064,479.115 258.064,320.883 25.807,166.044 25.807,633.954 	"/>
	<path d="M787.097,129.032H12.903c-0.007,0-0.012,0-0.019,0c-0.43,0-0.86,0.021-1.289,0.065c-0.213,0.021-0.421,0.063-0.631,0.095
		c-0.201,0.031-0.404,0.052-0.604,0.091c-0.291,0.059-0.573,0.138-0.855,0.215c-0.119,0.033-0.239,0.055-0.358,0.091
		c-0.261,0.079-0.513,0.177-0.767,0.271c-0.141,0.054-0.282,0.097-0.422,0.155c-0.211,0.087-0.413,0.19-0.617,0.289
		c-0.177,0.084-0.356,0.162-0.53,0.255c-0.156,0.084-0.303,0.179-0.456,0.268c-0.213,0.126-0.427,0.246-0.633,0.386
		c-0.106,0.07-0.205,0.151-0.308,0.225c-0.237,0.17-0.477,0.339-0.704,0.527c-0.074,0.06-0.141,0.129-0.213,0.191
		c-0.241,0.209-0.483,0.419-0.712,0.648c-0.11,0.11-0.208,0.23-0.313,0.344c-0.177,0.191-0.358,0.375-0.524,0.578
		c-0.274,0.332-0.53,0.679-0.771,1.039c-0.003,0.003-0.007,0.008-0.008,0.012c-0.033,0.048-0.057,0.1-0.09,0.15
		c-0.198,0.306-0.389,0.619-0.563,0.943c-0.065,0.122-0.117,0.248-0.179,0.37c-0.126,0.255-0.251,0.509-0.361,0.772
		c-0.072,0.176-0.129,0.353-0.193,0.528c-0.079,0.217-0.162,0.432-0.229,0.655c-0.067,0.222-0.117,0.446-0.172,0.669
		c-0.044,0.184-0.096,0.363-0.132,0.551c-0.055,0.275-0.089,0.552-0.127,0.827c-0.019,0.143-0.044,0.281-0.06,0.425
		c-0.035,0.354-0.048,0.709-0.053,1.063c0,0.067-0.009,0.134-0.009,0.203v0.04c0,0.016,0,0.033,0,0.048v515.95
		c0,0.017,0,0.032,0,0.048v0.04c0,0.068,0.009,0.136,0.01,0.203c0.005,0.354,0.019,0.708,0.053,1.063
		c0.014,0.143,0.042,0.282,0.061,0.425c0.036,0.277,0.072,0.555,0.127,0.828c0.036,0.186,0.088,0.366,0.133,0.551
		c0.055,0.224,0.105,0.447,0.172,0.669c0.067,0.224,0.15,0.438,0.229,0.655c0.063,0.178,0.12,0.354,0.192,0.528
		c0.108,0.264,0.236,0.518,0.361,0.772c0.061,0.124,0.114,0.249,0.179,0.37c0.172,0.323,0.363,0.637,0.563,0.942
		c0.033,0.05,0.057,0.1,0.089,0.149c0.002,0.004,0.005,0.008,0.009,0.011c0.277,0.415,0.583,0.809,0.905,1.188
		c0.102,0.12,0.21,0.231,0.316,0.347c0.222,0.243,0.453,0.479,0.693,0.702c0.136,0.128,0.27,0.253,0.411,0.374
		c0.253,0.218,0.518,0.421,0.787,0.619c0.117,0.086,0.23,0.179,0.349,0.262c0.387,0.265,0.79,0.506,1.206,0.728
		c0.103,0.055,0.21,0.1,0.315,0.151c0.332,0.165,0.669,0.318,1.017,0.456c0.134,0.053,0.269,0.1,0.404,0.147
		c0.329,0.117,0.664,0.221,1.005,0.312c0.139,0.036,0.275,0.074,0.415,0.106c0.349,0.081,0.705,0.144,1.065,0.194
		c0.131,0.02,0.258,0.045,0.389,0.061c0.444,0.05,0.895,0.077,1.352,0.081c0.036,0,0.072,0.007,0.11,0.007
		c0.009,0,0.016-0.002,0.024-0.002h774.156c7.128,0,12.903-5.777,12.903-12.903V141.929
		C800,134.808,794.225,129.032,787.097,129.032z M774.193,301.075h-38.709c-7.128,0-12.903,5.777-12.903,12.903l0,0
		c0,7.126,5.775,12.903,12.903,12.903h38.709v146.236H283.871V326.882h400c7.128,0,12.903-5.777,12.903-12.903l0,0
		c0-7.126-5.775-12.903-12.903-12.903H274.875L55.52,154.839h718.673V301.075z M258.064,320.883v158.232L25.807,633.954v-467.91
		L258.064,320.883z M55.52,645.161l219.355-146.236h499.318v146.236H55.52z"/>
</g>
</svg>
