<?xml version="1.0" encoding="utf-8"?>
<!-- Generator: Adobe Illustrator 16.0.0, SVG Export Plug-In . SVG Version: 6.00 Build 0)  -->
<!DOCTYPE svg PUBLIC "-//W3C//DTD SVG 1.1//EN" "http://www.w3.org/Graphics/SVG/1.1/DTD/svg11.dtd">
<svg version="1.1" id="Capa_1" xmlns="http://www.w3.org/2000/svg" xmlns:xlink="http://www.w3.org/1999/xlink" x="0px" y="0px"
	 width="800px" height="800px" viewBox="0 0 800 800" enable-background="new 0 0 800 800" xml:space="preserve">
<g>
	<path d="M25.807,554.839v-400h606.451c7.126,0,12.903-5.777,12.903-12.903s-5.777-12.903-12.903-12.903H12.903
		C5.777,129.032,0,134.81,0,141.936v412.903c0,7.126,5.777,12.903,12.903,12.903S25.807,561.965,25.807,554.839z"/>
	<path d="M787.097,129.032H683.871c-7.126,0-12.903,5.777-12.903,12.903s5.777,12.903,12.903,12.903h90.322v490.322H25.807v-38.71
		c0-7.126-5.777-12.902-12.903-12.902S0,599.325,0,606.451v51.613c0,7.126,5.777,12.903,12.903,12.903h774.193
		c7.126,0,12.903-5.777,12.903-12.903V141.936C800,134.81,794.223,129.032,787.097,129.032z"/>
</g>
<g>
	<path fill="#ED1F34" d="M23.807,647.161v-40.71c0-6.012-4.891-10.902-10.903-10.902h-2v-29.807h2
		c6.012,0,10.903-4.892,10.903-10.903v-402h608.451c6.012,0,10.903-4.891,10.903-10.903v-2h29.807v2
		c0,6.012,4.892,10.903,10.903,10.903h92.322v494.322H23.807z M364.292,535.297c7.442,1.966,15.176,3.321,22.985,4.028l1.819,0.166
		v15.917c0,6.012,4.891,10.903,10.903,10.903c6.012,0,10.903-4.892,10.903-10.903v-15.917l1.819-0.166
		c7.803-0.707,15.536-2.063,22.986-4.028l1.764-0.467l5.437,14.935c1.564,4.293,5.682,7.178,10.247,7.178
		c1.27,0,2.524-0.223,3.729-0.66c5.648-2.058,8.571-8.327,6.516-13.977l-5.444-14.957l1.646-0.78
		c6.973-3.297,13.76-7.233,20.174-11.701l1.5-1.045l10.267,12.235c2.078,2.475,5.126,3.895,8.361,3.895
		c2.556,0,5.042-0.905,7.002-2.549c2.231-1.872,3.601-4.501,3.854-7.402c0.253-2.902-0.639-5.729-2.51-7.96l-10.264-12.231
		l1.285-1.295c5.392-5.433,10.431-11.444,14.979-17.869l1.055-1.487l13.834,7.987c1.657,0.957,3.538,1.463,5.44,1.463
		c3.889,0,7.511-2.09,9.453-5.453c1.457-2.523,1.844-5.461,1.09-8.273c-0.754-2.813-2.558-5.165-5.08-6.62l-13.802-7.968l0.77-1.66
		c3.271-7.056,5.963-14.428,8.001-21.912l0.479-1.762l15.668,2.764c0.636,0.11,1.278,0.166,1.907,0.166
		c5.292,0,9.802-3.79,10.723-9.013c0.505-2.868-0.137-5.761-1.808-8.146c-1.67-2.385-4.169-3.978-7.038-4.484l-15.685-2.764
		l0.153-1.819c0.352-4.238,0.523-8.054,0.523-11.663c0-3.632-0.173-7.446-0.527-11.662l-0.154-1.82l15.687-2.766
		c2.868-0.505,5.367-2.098,7.038-4.483c1.671-2.385,2.313-5.278,1.808-8.147c-0.92-5.221-5.431-9.011-10.726-9.011
		c-0.633,0-1.274,0.056-1.907,0.167l-15.665,2.762l-0.479-1.762c-2.037-7.478-4.729-14.85-8.002-21.912l-0.77-1.658l13.803-7.969
		c5.206-3.006,6.996-9.687,3.99-14.894c-1.941-3.364-5.564-5.454-9.453-5.454c-1.901,0-3.783,0.506-5.44,1.463l-13.837,7.988
		l-1.053-1.489c-4.546-6.424-9.586-12.436-14.979-17.868l-1.285-1.296l10.265-12.231c3.863-4.604,3.261-11.495-1.345-15.36
		c-1.961-1.645-4.448-2.55-7.003-2.55c-3.235,0-6.281,1.419-8.356,3.895l-10.27,12.237l-1.5-1.046
		c-6.412-4.468-13.199-8.405-20.173-11.703l-1.646-0.779l5.443-14.957c2.056-5.65-0.867-11.919-6.516-13.977
		c-1.207-0.438-2.462-0.661-3.73-0.661c-4.565,0-8.683,2.884-10.245,7.178l-5.438,14.934l-1.765-0.467
		c-7.447-1.967-15.181-3.323-22.984-4.029l-1.82-0.165V244.59c0-6.012-4.892-10.903-10.903-10.903
		c-6.012,0-10.903,4.891-10.903,10.903v15.918l-1.819,0.165c-7.796,0.705-15.529,2.061-22.985,4.029l-1.766,0.466l-5.436-14.933
		c-1.563-4.293-5.68-7.178-10.246-7.178c-1.269,0-2.523,0.222-3.729,0.661c-5.649,2.057-8.572,8.326-6.515,13.975l5.444,14.958
		l-1.648,0.779c-6.974,3.298-13.76,7.235-20.172,11.702l-1.5,1.046l-10.269-12.236c-2.077-2.476-5.124-3.896-8.359-3.896
		c-2.554,0-5.041,0.906-7.001,2.551c-2.232,1.872-3.6,4.5-3.854,7.401c-0.253,2.901,0.638,5.728,2.509,7.959l10.265,12.231
		l-1.287,1.296c-5.388,5.429-10.427,11.44-14.979,17.868l-1.053,1.489l-13.835-7.988c-1.658-0.958-3.539-1.464-5.439-1.464
		c-3.89,0-7.512,2.09-9.454,5.455c-3.006,5.206-1.216,11.887,3.99,14.894l13.803,7.969l-0.77,1.659
		c-3.271,7.051-5.963,14.423-8.002,21.912l-0.479,1.761l-15.666-2.761c-0.633-0.112-1.275-0.168-1.909-0.168
		c-5.292,0-9.801,3.79-10.721,9.012c-0.505,2.869,0.136,5.762,1.807,8.147c1.67,2.386,4.17,3.978,7.038,4.483l15.685,2.766
		l-0.151,1.818c-0.353,4.241-0.525,8.056-0.525,11.664c0,3.587,0.172,7.402,0.525,11.664l0.15,1.818l-15.684,2.764
		c-5.92,1.044-9.888,6.71-8.844,12.631c0.92,5.223,5.429,9.013,10.722,9.013c0.637,0,1.28-0.056,1.909-0.167l15.665-2.763
		l0.479,1.762c2.038,7.482,4.729,14.854,8.002,21.912l0.77,1.66l-13.803,7.968c-2.518,1.453-4.32,3.805-5.075,6.621
		c-0.754,2.816-0.37,5.755,1.084,8.272c1.942,3.363,5.564,5.453,9.454,5.453c1.901,0,3.782-0.506,5.439-1.463l13.835-7.987
		l1.053,1.487c4.549,6.426,9.588,12.438,14.979,17.869l1.287,1.295l-10.265,12.231c-3.864,4.605-3.26,11.496,1.345,15.362
		c1.96,1.644,4.447,2.549,7.001,2.549c3.237,0,6.284-1.42,8.36-3.895l10.268-12.235l1.5,1.045
		c6.409,4.466,13.197,8.402,20.173,11.701l1.648,0.779l-5.445,14.958c-2.056,5.649,0.867,11.919,6.516,13.977
		c1.205,0.438,2.459,0.66,3.729,0.66c4.565,0,8.683-2.885,10.247-7.18l5.436-14.933L364.292,535.297z"/>
	<path fill="#ED1F34" d="M24.807,646.161v-39.71c0-6.563-5.34-11.902-11.903-11.902h-1v-27.807h1c6.563,0,11.903-5.34,11.903-11.903
		v-401h607.451c6.563,0,11.903-5.34,11.903-11.903v-1h27.807v1c0,6.563,5.34,11.903,11.903,11.903h91.322v492.322H24.807z
		 M364.037,536.264c7.497,1.98,15.286,3.346,23.15,4.058l0.91,0.083v15.004c0,6.563,5.34,11.903,11.903,11.903
		s11.903-5.34,11.903-11.903v-15.004l0.91-0.083c7.857-0.712,15.646-2.077,23.15-4.058l0.882-0.233l5.124,14.076
		c1.707,4.687,6.202,7.836,11.187,7.836c1.385,0,2.755-0.242,4.071-0.721c6.166-2.246,9.357-9.091,7.113-15.258l-5.133-14.102
		l0.823-0.39c7.025-3.322,13.861-7.288,20.317-11.785l0.75-0.522l9.68,11.535c2.269,2.702,5.596,4.252,9.127,4.252
		c2.791,0,5.505-0.988,7.645-2.783c2.437-2.044,3.931-4.914,4.208-8.081c0.276-3.168-0.696-6.254-2.74-8.689l-9.677-11.532
		l0.643-0.647c5.429-5.47,10.504-11.523,15.085-17.995l0.527-0.744l13.045,7.532c1.81,1.045,3.864,1.597,5.94,1.597
		c4.245,0,8.199-2.281,10.319-5.953c1.59-2.754,2.013-5.962,1.189-9.032c-0.822-3.071-2.792-5.639-5.546-7.228l-13.01-7.511
		l0.385-0.83c3.293-7.103,6.005-14.527,8.059-22.07l0.239-0.881l14.769,2.604c0.692,0.12,1.394,0.182,2.081,0.182
		c5.778,0,10.702-4.138,11.707-9.839c0.552-3.131-0.148-6.289-1.973-8.894c-1.823-2.604-4.553-4.343-7.684-4.896l-14.785-2.605
		l0.076-0.909c0.354-4.264,0.527-8.106,0.527-11.747c0-3.661-0.174-7.502-0.531-11.746l-0.077-0.91l14.787-2.607
		c3.131-0.552,5.859-2.29,7.684-4.895s2.524-5.763,1.973-8.894c-1.004-5.701-5.929-9.838-11.71-9.838
		c-0.692,0-1.392,0.062-2.08,0.182l-14.767,2.603l-0.239-0.88c-2.052-7.534-4.764-14.959-8.06-22.07l-0.385-0.829l13.011-7.511
		c5.684-3.282,7.638-10.576,4.356-16.26c-2.12-3.672-6.074-5.954-10.319-5.954c-2.076,0-4.131,0.552-5.94,1.597l-13.047,7.532
		l-0.526-0.744c-4.578-6.469-9.653-12.523-15.085-17.995l-0.643-0.648l9.678-11.532c4.219-5.027,3.56-12.55-1.468-16.77
		c-2.141-1.795-4.856-2.784-7.646-2.784c-3.532,0-6.857,1.55-9.123,4.252l-9.681,11.536l-0.75-0.523
		c-6.457-4.499-13.292-8.464-20.317-11.786l-0.823-0.39l5.132-14.101c2.245-6.168-0.946-13.012-7.113-15.258
		c-1.316-0.479-2.687-0.721-4.072-0.721c-4.984,0-9.479,3.148-11.185,7.835l-5.125,14.076l-0.882-0.233
		c-7.499-1.981-15.288-3.347-23.15-4.058l-0.91-0.083V244.59c0-6.563-5.34-11.903-11.903-11.903s-11.903,5.34-11.903,11.903v15.004
		l-0.91,0.083c-7.854,0.71-15.643,2.076-23.15,4.058l-0.883,0.233l-5.124-14.075c-1.706-4.687-6.201-7.835-11.186-7.835
		c-1.386,0-2.755,0.243-4.071,0.721c-6.167,2.246-9.358,9.09-7.113,15.257l5.132,14.102l-0.824,0.39
		c-7.023,3.322-13.859,7.287-20.316,11.786l-0.75,0.523l-9.681-11.536c-2.268-2.703-5.594-4.253-9.125-4.253
		c-2.789,0-5.504,0.989-7.644,2.785c-2.436,2.043-3.93,4.913-4.207,8.081c-0.277,3.167,0.696,6.253,2.739,8.689l9.678,11.532
		l-0.644,0.648c-5.425,5.466-10.501,11.521-15.085,17.995l-0.526,0.744l-13.046-7.532c-1.81-1.045-3.863-1.598-5.939-1.598
		c-4.246,0-8.2,2.282-10.32,5.955c-3.282,5.684-1.328,12.978,4.356,16.26l13.011,7.511l-0.385,0.83
		c-3.295,7.104-6.006,14.53-8.06,22.07l-0.24,0.88l-14.767-2.603c-0.689-0.122-1.39-0.184-2.083-0.184
		c-5.778,0-10.702,4.138-11.706,9.839c-0.552,3.131,0.148,6.29,1.973,8.895c1.824,2.604,4.552,4.343,7.683,4.895l14.786,2.607
		l-0.076,0.909c-0.355,4.268-0.528,8.11-0.528,11.747c0,3.615,0.173,7.458,0.528,11.747l0.075,0.909l-14.786,2.605
		c-6.463,1.14-10.795,7.326-9.656,13.789c1.004,5.701,5.928,9.839,11.707,9.839c0.698,0,1.398-0.062,2.082-0.182l14.767-2.604
		l0.24,0.881c2.052,7.537,4.764,14.963,8.06,22.07l0.385,0.83l-13.011,7.511c-5.684,3.281-7.638,10.575-4.356,16.26
		c2.12,3.672,6.075,5.953,10.32,5.953c2.076,0,4.13-0.552,5.939-1.597l13.046-7.532l0.527,0.744
		c4.58,6.47,9.655,12.524,15.084,17.995l0.644,0.647l-9.678,11.532c-4.218,5.027-3.56,12.55,1.468,16.771
		c2.141,1.795,4.856,2.783,7.645,2.783c3.533,0,6.86-1.55,9.126-4.252l9.68-11.535l0.75,0.522
		c6.456,4.498,13.292,8.463,20.318,11.785l0.824,0.39l-5.133,14.102c-2.245,6.167,0.946,13.012,7.113,15.258
		c1.316,0.479,2.687,0.721,4.071,0.721c4.983,0,9.479-3.149,11.187-7.837l5.124-14.075L364.037,536.264z"/>
	<path fill="#ED1F34" d="M683.871,154.839c-7.126,0-12.903-5.777-12.903-12.903h-25.807c0,7.126-5.777,12.903-12.903,12.903H25.807
		v400c0,7.126-5.777,12.903-12.903,12.903v25.807c7.126,0,12.903,5.776,12.903,12.902v38.71h748.387V154.839H683.871z M541.936,400
		c0,3.988-0.206,7.926-0.531,11.83l13.887,2.447c7.018,1.237,11.704,7.93,10.467,14.947c-1.104,6.261-6.549,10.665-12.691,10.665
		c-0.745,0-1.498-0.065-2.255-0.197l-13.869-2.445c-2.094,7.688-4.818,15.116-8.116,22.229l12.218,7.054
		c6.172,3.563,8.286,11.454,4.723,17.626c-2.39,4.139-6.727,6.453-11.186,6.453c-2.188,0-4.408-0.558-6.44-1.73l-12.256-7.076
		c-4.567,6.451-9.637,12.524-15.191,18.121l9.091,10.833c4.58,5.459,3.869,13.599-1.592,18.179c-2.417,2.028-5.36,3.018-8.287,3.018
		c-3.684,0-7.339-1.567-9.893-4.609l-9.093-10.835c-6.455,4.497-13.29,8.478-20.461,11.869l4.821,13.245
		c2.438,6.698-1.016,14.101-7.711,16.539c-1.457,0.529-2.947,0.781-4.413,0.781c-5.27,0-10.218-3.254-12.126-8.494l-4.812-13.218
		c-7.546,1.992-15.336,3.364-23.315,4.087v14.091c0,7.126-5.777,12.903-12.903,12.903s-12.903-5.777-12.903-12.903v-14.091
		c-7.978-0.723-15.77-2.094-23.315-4.087l-4.812,13.218c-1.908,5.238-6.856,8.494-12.126,8.494c-1.466,0-2.956-0.252-4.413-0.781
		c-6.695-2.438-10.148-9.843-7.711-16.539l4.821-13.245c-7.173-3.392-14.008-7.372-20.462-11.869l-9.092,10.835
		c-2.552,3.042-6.209,4.609-9.893,4.609c-2.927,0-5.87-0.991-8.288-3.018c-5.459-4.582-6.171-12.722-1.591-18.179l9.091-10.833
		c-5.555-5.597-10.624-11.668-15.191-18.121l-12.256,7.076c-2.032,1.173-4.251,1.73-6.439,1.73c-4.459,0-8.797-2.314-11.187-6.453
		c-3.563-6.172-1.448-14.063,4.723-17.626l12.219-7.054c-3.298-7.114-6.023-14.54-8.117-22.229l-13.868,2.445
		c-0.757,0.134-1.512,0.197-2.256,0.197c-6.144,0-11.588-4.405-12.691-10.665c-1.237-7.018,3.45-13.71,10.467-14.947l13.887-2.447
		c-0.324-3.906-0.532-7.844-0.532-11.83s0.207-7.926,0.532-11.83l-13.887-2.448c-7.018-1.237-11.704-7.93-10.467-14.947
		c1.237-7.019,7.933-11.706,14.947-10.467l13.868,2.445c2.094-7.689,4.819-15.116,8.117-22.228l-12.219-7.054
		c-6.171-3.563-8.286-11.455-4.723-17.625c3.563-6.171,11.455-8.288,17.626-4.723l12.256,7.076
		c4.568-6.452,9.636-12.525,15.191-18.122l-9.091-10.833c-4.58-5.459-3.869-13.599,1.591-18.178
		c5.458-4.58,13.597-3.869,18.178,1.591l9.093,10.835c6.455-4.498,13.29-8.479,20.461-11.87l-4.82-13.245
		c-2.438-6.698,1.015-14.101,7.711-16.539c6.697-2.438,14.101,1.015,16.538,7.711l4.812,13.218
		c7.546-1.992,15.336-3.365,23.315-4.087V244.59c0-7.126,5.777-12.903,12.903-12.903s12.903,5.777,12.903,12.903v14.091
		c7.978,0.722,15.77,2.094,23.315,4.087l4.813-13.218c2.438-6.698,9.839-10.149,16.538-7.711c6.696,2.438,10.148,9.843,7.711,16.539
		l-4.82,13.245c7.172,3.391,14.007,7.372,20.461,11.87l9.093-10.835c4.579-5.46,12.719-6.169,18.178-1.591
		c5.459,4.582,6.171,12.721,1.591,18.178l-9.091,10.833c5.556,5.597,10.624,11.668,15.191,18.122l12.257-7.076
		c6.173-3.563,14.063-1.449,17.626,4.723c3.563,6.171,1.448,14.063-4.723,17.625l-12.219,7.054
		c3.298,7.114,6.023,14.539,8.117,22.228l13.868-2.445c7.022-1.234,13.712,3.449,14.947,10.467
		c1.237,7.018-3.449,13.71-10.467,14.947L541.4,388.17C541.729,392.074,541.936,396.012,541.936,400z"/>
	<path fill="#ED1F34" d="M400,517.129c-13.709,0-27.151-2.363-39.957-7.024l-0.051-0.012l-0.066-0.031
		c-0.039-0.012-0.074-0.023-0.109-0.037C313.802,493.179,282.871,448.96,282.871,400c0-48.946,30.918-93.161,76.936-110.024
		l0.17-0.058c12.825-4.677,26.29-7.049,40.022-7.049s27.198,2.372,40.022,7.049l0.099,0.041
		c46.089,16.88,77.008,61.095,77.008,110.042c0,48.959-30.93,93.178-76.966,110.033l-0.128,0.04
		C427.198,514.758,413.732,517.129,400,517.129z M343.565,469.185c15.896,12.989,35.917,20.138,56.435,20.138
		s40.539-7.148,56.436-20.138c-2.152-38.359-23.206-72.898-56.436-92.583C366.771,396.287,345.717,430.825,343.565,469.185z
		 M318.813,362.815c-5.398,11.736-8.135,24.244-8.135,37.185c0,13.837,3.252,27.575,9.427,39.902
		c7.716-29.746,25.131-56.538,49.334-75.881c-9.143-2.291-18.53-3.451-27.933-3.451C333.867,360.57,326.235,361.325,318.813,362.815
		z M430.562,364.021c24.203,19.342,41.617,46.133,49.334,75.881c6.175-12.327,9.427-26.065,9.427-39.902
		c0-12.941-2.736-25.449-8.135-37.185c-7.43-1.49-15.062-2.245-22.693-2.245C449.093,360.57,439.706,361.73,430.562,364.021z
		 M341.506,332.764c20.307,0,39.984,4.228,58.494,12.568c18.51-8.34,38.188-12.568,58.494-12.568c0.074,0,0.148,0,0.223,0.001
		c-16.306-14.263-37.051-22.087-58.717-22.087c-21.667,0-42.412,7.824-58.717,22.087
		C341.357,332.764,341.432,332.764,341.506,332.764z"/>
	<path fill="#ED1F34" d="M439.847,290.915c-0.043-0.016-0.086-0.026-0.129-0.042c-0.014-0.005-0.024-0.012-0.038-0.016
		c-12.387-4.518-25.749-6.988-39.68-6.988s-27.293,2.471-39.68,6.988c-0.014,0.005-0.024,0.012-0.038,0.016
		c-0.043,0.016-0.086,0.026-0.131,0.042c-44.465,16.294-76.28,59.043-76.28,109.085c0,50.053,31.829,92.809,76.312,109.094
		c0.032,0.013,0.066,0.02,0.1,0.031c0.014,0.005,0.024,0.013,0.038,0.016c12.387,4.518,25.749,6.988,39.68,6.988
		s27.293-2.471,39.68-6.988c0.014-0.005,0.024-0.012,0.038-0.016c0.033-0.012,0.067-0.019,0.102-0.031
		c44.479-16.285,76.31-59.041,76.31-109.094C516.129,349.958,484.313,307.208,439.847,290.915z M400,309.677
		c23.693,0,45.271,9.182,61.4,24.16c-0.971-0.019-1.931-0.074-2.906-0.074c-20.85,0-40.643,4.556-58.494,12.666
		c-17.852-8.11-37.645-12.666-58.494-12.666c-0.975,0-1.936,0.053-2.906,0.074C354.729,318.859,376.307,309.677,400,309.677z
		 M309.678,400c0-13.595,3.038-26.488,8.44-38.064c7.556-1.552,15.379-2.366,23.388-2.366c10.422,0,20.52,1.402,30.135,3.99
		c-25.134,19.511-43.573,47.251-51.205,79.148C313.578,429.983,309.678,415.439,309.678,400z M400,490.322
		c-21.809,0-41.836-7.77-57.461-20.687c2.078-40.166,24.663-74.984,57.461-94.195c32.798,19.21,55.383,54.029,57.461,94.195
		C441.836,482.553,421.809,490.322,400,490.322z M479.564,442.708c-7.632-31.897-26.071-59.639-51.205-79.148
		c9.617-2.587,19.713-3.99,30.135-3.99c8.009,0,15.832,0.815,23.388,2.366c5.402,11.577,8.44,24.468,8.44,38.064
		C490.322,415.439,486.422,429.983,479.564,442.708z"/>
	<path fill="#FFE000" d="M565.758,370.773c-1.236-7.018-7.926-11.701-14.946-10.467l-13.869,2.445
		c-2.094-7.688-4.818-15.116-8.116-22.228l12.218-7.054c6.172-3.563,8.286-11.455,4.723-17.626
		c-3.563-6.171-11.452-8.286-17.626-4.722l-12.256,7.076c-4.567-6.452-9.636-12.525-15.191-18.122l9.091-10.833
		c4.58-5.459,3.869-13.598-1.592-18.178c-5.46-4.58-13.598-3.869-18.178,1.591l-9.093,10.835
		c-6.455-4.497-13.29-8.478-20.461-11.869l4.82-13.246c2.438-6.698-1.015-14.101-7.711-16.539c-6.7-2.438-14.101,1.015-16.538,7.711
		l-4.812,13.218c-7.546-1.992-15.336-3.365-23.315-4.088v-14.09c0-7.126-5.777-12.903-12.903-12.903s-12.903,5.777-12.903,12.903
		v14.09c-7.978,0.723-15.77,2.094-23.315,4.088l-4.813-13.218c-2.438-6.696-9.842-10.15-16.538-7.711
		c-6.696,2.438-10.148,9.843-7.711,16.539l4.82,13.246c-7.172,3.391-14.008,7.372-20.461,11.869l-9.092-10.835
		c-4.582-5.458-12.721-6.171-18.179-1.591c-5.458,4.582-6.171,12.721-1.591,18.178l9.091,10.833
		c-5.556,5.597-10.624,11.668-15.192,18.122l-12.256-7.076c-6.171-3.565-14.063-1.449-17.626,4.722
		c-3.563,6.171-1.448,14.063,4.723,17.626l12.219,7.054c-3.298,7.114-6.023,14.54-8.117,22.228l-13.868-2.445
		c-7.014-1.239-13.71,3.448-14.947,10.467c-1.237,7.018,3.45,13.71,10.467,14.947l13.887,2.448
		c-0.323,3.906-0.532,7.844-0.532,11.83c0,3.986,0.207,7.926,0.532,11.83l-13.887,2.448c-7.018,1.237-11.704,7.93-10.467,14.947
		c1.104,6.261,6.548,10.665,12.691,10.665c0.744,0,1.499-0.065,2.256-0.198l13.868-2.444c2.094,7.688,4.819,15.115,8.117,22.228
		l-12.219,7.054c-6.171,3.563-8.285,11.455-4.723,17.626c2.39,4.14,6.727,6.453,11.187,6.453c2.188,0,4.408-0.558,6.439-1.73
		l12.256-7.076c4.568,6.451,9.636,12.524,15.192,18.121l-9.091,10.834c-4.58,5.459-3.869,13.598,1.591,18.178
		c2.417,2.028,5.361,3.018,8.287,3.018c3.683,0,7.34-1.567,9.893-4.609l9.093-10.835c6.455,4.497,13.29,8.479,20.461,11.869
		l-4.82,13.246c-2.438,6.697,1.015,14.101,7.711,16.538c1.457,0.53,2.947,0.781,4.413,0.781c5.27,0,10.218-3.254,12.125-8.494
		l4.813-13.218c7.546,1.992,15.336,3.365,23.315,4.088v14.09c0,7.126,5.776,12.903,12.903,12.903
		c7.126,0,12.902-5.777,12.902-12.903v-14.09c7.979-0.723,15.77-2.094,23.315-4.088l4.813,13.218
		c1.908,5.239,6.855,8.494,12.125,8.494c1.466,0,2.956-0.251,4.413-0.781c6.696-2.438,10.149-9.843,7.711-16.538l-4.82-13.246
		c7.173-3.391,14.008-7.372,20.461-11.869l9.093,10.835c2.553,3.042,6.209,4.609,9.893,4.609c2.926,0,5.87-0.991,8.287-3.018
		c5.459-4.582,6.171-12.721,1.591-18.178l-9.09-10.834c5.555-5.597,10.623-11.668,15.191-18.121l12.256,7.076
		c2.032,1.173,4.251,1.73,6.439,1.73c4.459,0,8.797-2.315,11.187-6.453c3.563-6.171,1.448-14.063-4.723-17.626l-12.219-7.054
		c3.298-7.114,6.023-14.539,8.117-22.228l13.868,2.444c0.757,0.134,1.511,0.198,2.256,0.198c6.144,0,11.589-4.406,12.691-10.665
		c1.237-7.018-3.449-13.71-10.467-14.947l-13.888-2.448c0.323-3.905,0.532-7.844,0.532-11.83c0-3.986-0.207-7.926-0.532-11.83
		l13.888-2.448C562.309,384.483,566.995,377.791,565.758,370.773z M439.819,509.094c-0.032,0.013-0.067,0.02-0.102,0.031
		c-0.014,0.005-0.024,0.013-0.038,0.016c-12.387,4.518-25.749,6.988-39.68,6.988s-27.293-2.471-39.68-6.988
		c-0.014-0.005-0.024-0.012-0.038-0.016c-0.033-0.012-0.067-0.019-0.1-0.031C315.7,492.809,283.871,450.053,283.871,400
		c0-50.042,31.815-92.792,76.282-109.085c0.043-0.016,0.086-0.026,0.131-0.042c0.014-0.005,0.023-0.012,0.037-0.016
		c12.388-4.518,25.75-6.988,39.681-6.988c13.93,0,27.293,2.471,39.68,6.988c0.014,0.005,0.024,0.012,0.038,0.016
		c0.043,0.016,0.086,0.026,0.129,0.042c44.465,16.294,76.28,59.043,76.28,109.085C516.129,450.053,484.299,492.809,439.819,509.094z
		"/>
	<path fill="#FFE000" d="M400,375.441c-32.798,19.21-55.383,54.029-57.461,94.195c15.625,12.917,35.652,20.687,57.461,20.687
		s41.836-7.77,57.461-20.687C455.383,429.47,432.798,394.651,400,375.441z"/>
	<path fill="#FFE000" d="M458.494,359.57c-10.422,0-20.52,1.402-30.135,3.99c25.134,19.511,43.573,47.251,51.205,79.148
		c6.857-12.725,10.758-27.269,10.758-42.708c0-13.595-3.038-26.488-8.44-38.064C474.326,360.385,466.503,359.57,458.494,359.57z"/>
	<path fill="#FFE000" d="M400,346.429c17.852-8.11,37.645-12.666,58.494-12.666c0.975,0,1.936,0.053,2.906,0.074
		c-16.129-14.978-37.707-24.16-61.4-24.16s-45.271,9.182-61.4,24.16c0.971-0.019,1.931-0.074,2.906-0.074
		C362.355,333.764,382.148,338.319,400,346.429z"/>
	<path fill="#FFE000" d="M371.641,363.56c-9.617-2.587-19.713-3.99-30.135-3.99c-8.009,0-15.832,0.815-23.388,2.366
		c-5.402,11.577-8.44,24.468-8.44,38.064c0,15.439,3.9,29.983,10.758,42.708C328.067,410.811,346.507,383.069,371.641,363.56z"/>
</g>
</svg>
