<?xml version="1.0" encoding="utf-8"?>
<!-- Generator: Adobe Illustrator 16.0.0, SVG Export Plug-In . SVG Version: 6.00 Build 0)  -->
<!DOCTYPE svg PUBLIC "-//W3C//DTD SVG 1.1//EN" "http://www.w3.org/Graphics/SVG/1.1/DTD/svg11.dtd">
<svg version="1.1" id="Capa_1" xmlns="http://www.w3.org/2000/svg" xmlns:xlink="http://www.w3.org/1999/xlink" x="0px" y="0px"
	 width="800px" height="800px" viewBox="0 0 800 800" enable-background="new 0 0 800 800" xml:space="preserve">
<g>
	<path fill="#ED1F34" d="M24.807,646.161v-93.183h39.709c6.563,0,11.903-5.34,11.903-11.903v-1h27.806v1
		c0,6.563,5.34,11.903,11.903,11.903h659.064v93.183H24.807z"/>
	<path fill="#ED1F34" d="M116.129,553.979c-7.126,0-12.903-5.775-12.903-12.903H77.419c0,7.128-5.777,12.903-12.903,12.903H25.807
		v91.183h748.387v-91.183H116.129z"/>
	<rect x="24.807" y="153.839" fill="#ED1F34" width="750.387" height="93.183"/>
	<rect x="25.807" y="154.839" fill="#ED1F34" width="748.387" height="91.183"/>
	<path fill="#103B9B" d="M76.419,542.075v-1c0-6.563-5.34-11.903-11.903-11.903H24.807V270.828h750.387v258.344H116.129
		c-6.563,0-11.903,5.34-11.903,11.903v1H76.419z M400,305.516c-52.098,0-94.483,42.385-94.483,94.484s42.385,94.483,94.483,94.483
		c52.099,0,94.484-42.385,94.484-94.483S452.099,305.516,400,305.516z"/>
	<path fill="#103B9B" d="M116.129,528.172h658.064V271.828H25.807v256.344h38.709c7.126,0,12.903,5.775,12.903,12.903h25.806
		C103.226,533.947,109.003,528.172,116.129,528.172z M400,304.516c52.65,0,95.484,42.833,95.484,95.484S452.65,495.483,400,495.483
		S304.517,452.65,304.517,400S347.35,304.516,400,304.516z"/>
	<path fill="#FFFFFF" d="M400,495.483c52.65,0,95.484-42.833,95.484-95.483S452.65,304.516,400,304.516S304.517,347.35,304.517,400
		S347.35,495.483,400,495.483z"/>
	<path d="M787.097,129.032H12.903C5.777,129.032,0,134.808,0,141.936v516.129c0,7.128,5.777,12.903,12.903,12.903h774.193
		c7.126,0,12.903-5.775,12.903-12.903V141.936C800,134.808,794.223,129.032,787.097,129.032z M774.193,154.839v91.183H25.807
		v-91.183H774.193z M25.807,645.161v-91.183h38.709c7.126,0,12.903-5.775,12.903-12.903s-5.777-12.903-12.903-12.903H25.807V271.828
		h748.387v256.344H116.129c-7.126,0-12.903,5.775-12.903,12.903s5.777,12.903,12.903,12.903h658.064v91.183H25.807z"/>
</g>
</svg>
