<?xml version="1.0" encoding="utf-8"?>
<!-- Generator: Adobe Illustrator 16.0.0, SVG Export Plug-In . SVG Version: 6.00 Build 0)  -->
<!DOCTYPE svg PUBLIC "-//W3C//DTD SVG 1.1//EN" "http://www.w3.org/Graphics/SVG/1.1/DTD/svg11.dtd">
<svg version="1.1" id="Capa_1" xmlns="http://www.w3.org/2000/svg" xmlns:xlink="http://www.w3.org/1999/xlink" x="0px" y="0px"
	 width="800px" height="800px" viewBox="0 0 800 800" enable-background="new 0 0 800 800" xml:space="preserve">
<g>
	<path fill="#FFFFFF" d="M683.871,451.613h90.322V348.387H25.807v103.226h606.451c7.126,0,12.903,5.776,12.903,12.903h25.807
		C670.968,457.39,676.745,451.613,683.871,451.613z"/>
	<rect x="24.807" y="153.839" fill="#B21727" width="750.387" height="169.742"/>
	<rect x="25.807" y="154.839" fill="#B21727" width="748.387" height="167.742"/>
	<path fill="#B21727" d="M24.807,646.161V476.419h607.451c6.563,0,11.903-5.34,11.903-11.902v-1h27.807v1
		c0,6.563,5.34,11.902,11.903,11.902h91.322v169.742H24.807z"/>
	<path fill="#B21727" d="M683.871,477.419c-7.126,0-12.903-5.776-12.903-12.902h-25.807c0,7.126-5.777,12.902-12.903,12.902H25.807
		v167.742h748.387V477.419H683.871z"/>
	<path d="M787.097,129.032H12.903C5.777,129.032,0,134.81,0,141.936v516.129c0,7.126,5.777,12.903,12.903,12.903h774.193
		c7.126,0,12.903-5.777,12.903-12.903V141.936C800,134.81,794.223,129.032,787.097,129.032z M774.193,154.839v167.742H25.807
		V154.839H774.193z M25.807,645.161V477.419h606.451c7.126,0,12.903-5.776,12.903-12.902c0-7.127-5.777-12.903-12.903-12.903H25.807
		V348.387h748.387v103.226h-90.322c-7.126,0-12.903,5.776-12.903,12.903c0,7.126,5.777,12.902,12.903,12.902h90.322v167.742H25.807z
		"/>
</g>
</svg>
