<?xml version="1.0" encoding="utf-8"?>
<!-- Generator: Adobe Illustrator 16.0.0, SVG Export Plug-In . SVG Version: 6.00 Build 0)  -->
<!DOCTYPE svg PUBLIC "-//W3C//DTD SVG 1.1//EN" "http://www.w3.org/Graphics/SVG/1.1/DTD/svg11.dtd">
<svg version="1.1" id="Capa_1" xmlns="http://www.w3.org/2000/svg" xmlns:xlink="http://www.w3.org/1999/xlink" x="0px" y="0px"
	 width="800px" height="800px" viewBox="0 0 800 800" enable-background="new 0 0 800 800" xml:space="preserve">
<g>
	<path fill="#ED1F34" d="M24.807,646.161v-93.183h39.709c6.563,0,11.903-5.34,11.903-11.903v-1h27.806v1
		c0,6.563,5.34,11.903,11.903,11.903h659.064v93.183H24.807z"/>
	<path fill="#ED1F34" d="M116.129,553.979c-7.126,0-12.903-5.777-12.903-12.903H77.419c0,7.126-5.777,12.903-12.903,12.903H25.807
		v91.183h748.387v-91.183H116.129z"/>
	<rect x="24.807" y="153.839" fill="#ED1F34" width="750.387" height="93.183"/>
	<rect x="25.807" y="154.839" fill="#ED1F34" width="748.387" height="91.183"/>
	<path fill="#FFFFFF" d="M116.129,528.172h658.064V271.828H25.807v256.344h38.709c7.126,0,12.903,5.777,12.903,12.903h25.806
		C103.226,533.949,109.003,528.172,116.129,528.172z M321.64,441.1l66.775-136.241c2.166-4.421,6.661-7.224,11.585-7.224
		s9.419,2.803,11.585,7.224l66.376,135.426c1.111,1.907,1.75,4.125,1.75,6.492c0,7.126-5.775,12.903-12.903,12.903
		c-0.016,0-25.324,0-53.904,0v29.781c0,7.126-5.775,12.903-12.903,12.903c-7.126,0-12.903-5.777-12.903-12.903V459.68
		c-28.574,0-53.872,0-53.872,0c-4.454,0-8.593-2.297-10.948-6.076C319.921,449.823,319.679,445.1,321.64,441.1z"/>
	<path d="M787.097,129.032H12.903C5.777,129.032,0,134.81,0,141.936v516.129c0,7.126,5.777,12.903,12.903,12.903h774.193
		c7.128,0,12.903-5.777,12.903-12.903V141.936C800,134.81,794.225,129.032,787.097,129.032z M774.193,154.839v91.183H25.807v-91.183
		H774.193z M25.807,645.161v-91.183h38.709c7.126,0,12.903-5.777,12.903-12.903s-5.777-12.903-12.903-12.903H25.807V271.828h748.387
		v256.344H116.129c-7.126,0-12.903,5.777-12.903,12.903s5.777,12.903,12.903,12.903h658.064v91.183H25.807z"/>
	<path fill="#259245" d="M411.903,434.875v-30.78c0-6.563-5.34-11.903-11.903-11.903s-11.903,5.34-11.903,11.903v30.78h-35.781
		L400,337.585l47.684,97.29H411.903z"/>
	<path fill="#259245" d="M387.097,404.095c0-7.126,5.777-12.903,12.903-12.903c7.128,0,12.903,5.777,12.903,12.903v29.78h33.177
		L400,339.857l-46.08,94.018h33.177V404.095z"/>
	<path d="M333.227,459.682c0,0,25.296,0,53.872,0v29.78c0,7.127,5.777,12.903,12.903,12.903c7.128,0,12.903-5.776,12.903-12.903
		v-29.78c28.579,0,53.889,0,53.904,0c7.128,0,12.903-5.777,12.903-12.903c0-2.367-0.637-4.587-1.75-6.493L411.587,304.86
		c-2.168-4.422-6.661-7.224-11.585-7.224s-9.42,2.802-11.586,7.224l-66.774,136.241c-1.962,4-1.721,8.726,0.637,12.505
		C324.635,457.387,328.772,459.682,333.227,459.682z M400,339.857l46.08,94.018h-33.177v-29.78c0-7.126-5.775-12.903-12.903-12.903
		c-7.126,0-12.903,5.777-12.903,12.903v29.78H353.92L400,339.857z"/>
</g>
</svg>
