<?xml version="1.0" encoding="utf-8"?>
<!-- Generator: Adobe Illustrator 16.0.0, SVG Export Plug-In . SVG Version: 6.00 Build 0)  -->
<!DOCTYPE svg PUBLIC "-//W3C//DTD SVG 1.1//EN" "http://www.w3.org/Graphics/SVG/1.1/DTD/svg11.dtd">
<svg version="1.1" id="Capa_1" xmlns="http://www.w3.org/2000/svg" xmlns:xlink="http://www.w3.org/1999/xlink" x="0px" y="0px"
	 width="800px" height="800px" viewBox="0 0 800 800" enable-background="new 0 0 800 800" xml:space="preserve">
<g>
	<path fill="#FFFFFF" d="M167.742,473.118h606.451V326.882H25.807v146.236h90.322c7.126,0,12.903,5.775,12.903,12.903h25.807
		C154.839,478.894,160.616,473.118,167.742,473.118z M357.303,412.111l29.794-33.894v-12.626c0-7.127,5.777-12.903,12.903-12.903
		c7.128,0,12.903,5.776,12.903,12.903v12.626l29.794,33.894c4.477,5.093,4.25,12.78-0.521,17.599
		c-11.236,11.35-26.216,17.602-42.177,17.602c-15.962,0-30.942-6.252-42.178-17.602
		C353.053,424.892,352.826,417.204,357.303,412.111z"/>
	<path fill="#259245" d="M695.774,659.064v-1c0-6.563-5.34-11.903-11.903-11.903H24.807V497.925h91.322
		c6.563,0,11.903-5.34,11.903-11.903v-1h27.807v1c0,6.563,5.34,11.903,11.903,11.903h607.451v148.236h-39.709
		c-6.563,0-11.903,5.34-11.903,11.903v1H695.774z"/>
	<path fill="#259245" d="M735.484,645.161h38.709V498.925H167.742c-7.126,0-12.903-5.775-12.903-12.903h-25.807
		c0,7.128-5.777,12.903-12.903,12.903H25.807v146.236h658.064c7.128,0,12.903,5.775,12.903,12.903h25.807
		C722.581,650.937,728.356,645.161,735.484,645.161z"/>
	<rect x="24.807" y="153.839" fill="#103B9B" width="750.387" height="148.236"/>
	<rect x="25.807" y="154.839" fill="#103B9B" width="748.387" height="146.236"/>
	<path d="M787.097,129.032H12.903C5.777,129.032,0,134.808,0,141.936v516.129c0,7.128,5.777,12.903,12.903,12.903h670.968
		c7.128,0,12.903-5.775,12.903-12.903s-5.775-12.903-12.903-12.903H25.807V498.925h90.322c7.126,0,12.903-5.775,12.903-12.903
		s-5.777-12.903-12.903-12.903H25.807V326.882h748.387v146.236H167.742c-7.126,0-12.903,5.775-12.903,12.903
		s5.777,12.903,12.903,12.903h606.451v146.236h-38.709c-7.128,0-12.903,5.775-12.903,12.903s5.775,12.903,12.903,12.903h51.612
		c7.128,0,12.903-5.775,12.903-12.903V141.936C800,134.808,794.225,129.032,787.097,129.032z M774.193,154.839v146.236H25.807
		V154.839H774.193z"/>
	<path fill="#333333" d="M400,422.505c-5.023,0-9.854-1.046-14.358-3.107l-1.223-0.56L400,401.11l15.581,17.728l-1.222,0.56
		C409.858,421.459,405.027,422.505,400,422.505z"/>
	<path fill="#333333" d="M413.942,418.488L400,402.625l-13.942,15.863c4.318,1.977,9.05,3.017,13.942,3.017
		S409.624,420.467,413.942,418.488z"/>
	<path d="M400,447.312c15.961,0,30.94-6.252,42.178-17.602c4.77-4.818,4.996-12.506,0.521-17.599l-29.796-33.894v-12.626
		c0-7.127-5.775-12.903-12.903-12.903c-7.126,0-12.903,5.776-12.903,12.903v12.626l-29.794,33.894
		c-4.477,5.093-4.248,12.78,0.52,17.599C369.058,441.06,384.038,447.312,400,447.312z M400,402.625l13.942,15.863
		c-4.32,1.977-9.05,3.017-13.942,3.017s-9.624-1.038-13.942-3.017L400,402.625z"/>
</g>
</svg>
