<?xml version="1.0" encoding="utf-8"?>
<!-- Generator: Adobe Illustrator 16.0.0, SVG Export Plug-In . SVG Version: 6.00 Build 0)  -->
<!DOCTYPE svg PUBLIC "-//W3C//DTD SVG 1.1//EN" "http://www.w3.org/Graphics/SVG/1.1/DTD/svg11.dtd">
<svg version="1.1" id="Capa_1" xmlns="http://www.w3.org/2000/svg" xmlns:xlink="http://www.w3.org/1999/xlink" x="0px" y="0px"
	 width="800px" height="800px" viewBox="0 0 800 800" enable-background="new 0 0 800 800" xml:space="preserve">
<g>
	<rect x="25.807" y="577.122" fill="#FFFFFF" width="748.387" height="21.123"/>
	<path fill="#FFFFFF" d="M293.901,201.755h-38.709v21.124h519.002v-21.124h-428.68c-7.127,0-12.903-5.775-12.903-12.903h-25.806
		C306.805,195.978,301.029,201.755,293.901,201.755z"/>
	<path fill="#FFFFFF" d="M116.129,483.275H25.807v21.124h748.387v-21.124H167.742c-7.128,0-12.903-5.775-12.903-12.903h-25.807
		C129.032,477.5,123.257,483.275,116.129,483.275z"/>
	<path fill="#FFFFFF" d="M25.807,389.445v21.109h658.064c7.128,0,12.903,5.775,12.903,12.903l0,0h25.807l0,0
		c0-7.128,5.775-12.903,12.903-12.903h38.709v-21.109H25.807z"/>
	<rect x="255.191" y="295.599" fill="#FFFFFF" width="519.002" height="21.11"/>
	<rect x="24.807" y="529.207" fill="#ED1F34" width="750.387" height="23.11"/>
	<rect x="25.807" y="530.207" fill="#ED1F34" width="748.387" height="21.11"/>
	<path fill="#ED1F34" d="M128.032,471.374v-1c0-6.563-5.34-11.903-11.903-11.903H24.807v-23.109h659.064
		c6.563,0,11.903-5.34,11.903-11.903v-1h27.807v1c0,6.563,5.34,11.903,11.903,11.903h39.709v23.109H167.742
		c-6.563,0-11.903,5.34-11.903,11.903v1H128.032z"/>
	<path fill="#ED1F34" d="M683.871,436.361H25.807v21.109h90.322c7.128,0,12.903,5.775,12.903,12.903l0,0h25.807l0,0
		c0-7.128,5.775-12.903,12.903-12.903h606.451v-21.109h-38.709c-7.128,0-12.903-5.775-12.903-12.903h-25.807
		C696.774,430.584,690.999,436.361,683.871,436.361z"/>
	<rect x="24.807" y="623.052" fill="#ED1F34" width="750.387" height="23.109"/>
	<rect x="25.807" y="624.052" fill="#ED1F34" width="748.387" height="21.109"/>
	<rect x="254.191" y="341.515" fill="#ED1F34" width="521.002" height="23.124"/>
	<rect x="255.191" y="342.515" fill="#ED1F34" width="519.002" height="21.124"/>
	<rect x="254.191" y="247.685" fill="#ED1F34" width="521.002" height="23.11"/>
	<rect x="255.191" y="248.685" fill="#ED1F34" width="519.002" height="21.11"/>
	<path fill="#ED1F34" d="M305.805,189.852v-1c0-6.563-5.34-11.903-11.904-11.903h-39.709v-23.109h521.002v23.109h-429.68
		c-6.563,0-11.903,5.34-11.903,11.903v1H305.805z"/>
	<path fill="#ED1F34" d="M255.191,175.948h38.709c7.128,0,12.904,5.775,12.904,12.903l0,0h25.806l0,0
		c0-7.128,5.776-12.903,12.903-12.903h428.68v-21.109H255.191V175.948z"/>
	<path fill="#164FCE" d="M24.807,364.639v-210.8h205.578v210.8H24.807z M156.881,324.271c1.935,1.26,4.18,1.925,6.491,1.925
		c2.528,0,4.947-0.787,6.996-2.274c3.963-2.879,5.771-7.99,4.499-12.719l-9.068-33.74l27.167-21.968
		c3.808-3.079,5.349-8.276,3.836-12.933c-1.513-4.659-5.815-7.958-10.706-8.21l-34.888-1.8l-12.496-32.625
		c-1.751-4.573-6.218-7.645-11.116-7.645s-9.365,3.072-11.116,7.645l-12.496,32.627l-34.888,1.8
		c-4.891,0.252-9.193,3.552-10.707,8.21c-1.513,4.657,0.028,9.854,3.836,12.934l27.167,21.965l-9.068,33.74
		c-1.272,4.729,0.536,9.84,4.5,12.719c2.047,1.487,4.467,2.273,6.998,2.273c2.309,0,4.553-0.666,6.49-1.924l29.285-19.049
		L156.881,324.271z"/>
	<path fill="#164FCE" d="M25.807,363.639h203.578v-208.8H25.807V363.639z M57.438,242.255c1.651-5.083,6.268-8.625,11.606-8.9
		l34.238-1.767l12.263-32.019c1.911-4.991,6.703-8.287,12.05-8.287s10.139,3.296,12.05,8.287l12.263,32.017l34.238,1.767
		c5.34,0.275,9.955,3.816,11.606,8.9c1.652,5.084-0.001,10.658-4.158,14.02l-26.661,21.559l8.899,33.112
		c1.389,5.161-0.552,10.646-4.877,13.788c-2.257,1.639-4.917,2.465-7.583,2.465c-2.445,0-4.893-0.692-7.037-2.087l-28.74-18.694
		l-28.74,18.694c-4.482,2.913-10.295,2.763-14.62-0.378c-4.325-3.142-6.266-8.626-4.877-13.788l8.899-33.112l-26.661-21.557
		C57.44,252.914,55.787,247.339,57.438,242.255z"/>
	<path fill="#FFFFFF" d="M111.009,263.043c3.969,3.208,5.672,8.454,4.348,13.381l-2.333,8.683l7.536-4.903
		c2.139-1.392,4.588-2.087,7.037-2.087s4.898,0.695,7.037,2.087l7.536,4.903l-2.333-8.683c-1.325-4.927,0.38-10.173,4.347-13.381
		l6.99-5.652l-8.977-0.464c-5.096-0.263-9.559-3.506-11.384-8.272l-3.215-8.396l-3.215,8.396c-1.827,4.766-6.289,8.007-11.384,8.272
		l-8.977,0.464L111.009,263.043z"/>
	<path d="M61.597,256.275l26.661,21.557l-8.899,33.112c-1.389,5.161,0.552,10.646,4.877,13.788
		c4.325,3.141,10.138,3.291,14.62,0.378l28.74-18.694l28.74,18.694c2.144,1.395,4.592,2.087,7.037,2.087
		c2.667,0,5.328-0.824,7.583-2.465c4.325-3.142,6.266-8.626,4.877-13.788l-8.899-33.112l26.661-21.557
		c4.157-3.362,5.81-8.936,4.158-14.02c-1.651-5.083-6.268-8.625-11.606-8.9l-34.238-1.767l-12.263-32.019
		c-1.911-4.991-6.703-8.287-12.05-8.287s-10.139,3.296-12.05,8.287l-12.263,32.017l-34.238,1.767
		c-5.34,0.275-9.955,3.816-11.606,8.9C55.787,247.338,57.44,252.914,61.597,256.275z M124.38,248.655l3.215-8.396l3.215,8.396
		c1.827,4.766,6.289,8.007,11.384,8.272l8.977,0.464l-6.99,5.652c-3.969,3.208-5.672,8.454-4.348,13.381l2.333,8.683l-7.536-4.903
		c-2.139-1.392-4.588-2.087-7.037-2.087s-4.898,0.695-7.037,2.087l-7.536,4.903l2.333-8.683c1.325-4.927-0.38-10.173-4.347-13.381
		l-6.99-5.652l8.977-0.464C118.092,256.664,122.553,253.421,124.38,248.655z"/>
	<path d="M787.097,129.032H12.903C5.775,129.032,0,134.808,0,141.936v516.129c0,7.128,5.775,12.903,12.903,12.903h774.193
		c7.128,0,12.903-5.775,12.903-12.903V141.936C800,134.808,794.225,129.032,787.097,129.032z M774.193,175.948h-428.68
		c-7.127,0-12.903,5.775-12.903,12.903l0,0c0,7.128,5.776,12.903,12.903,12.903h428.68v21.124H255.191v-21.124h38.709
		c7.128,0,12.904-5.775,12.904-12.903l0,0c0-7.128-5.775-12.903-12.904-12.903h-38.709v-21.109h519.002V175.948z M735.484,410.555
		c-7.128,0-12.903,5.775-12.903,12.903l0,0c0,7.128,5.775,12.903,12.903,12.903h38.709v21.109H167.742
		c-7.128,0-12.903,5.775-12.903,12.903l0,0c0,7.126,5.775,12.903,12.903,12.903h606.451V504.4H25.807v-21.123h90.322
		c7.128,0,12.903-5.775,12.903-12.903l0,0c0-7.128-5.775-12.903-12.903-12.903H25.807v-21.109h658.064
		c7.128,0,12.903-5.775,12.903-12.903l0,0c0-7.128-5.775-12.903-12.903-12.903H25.807v-21.109h748.387v21.109H735.484
		L735.484,410.555z M774.193,577.122v21.123H25.807v-21.123H774.193L774.193,577.122z M25.807,551.315v-21.109h748.387v21.109
		H25.807z M255.191,363.639v-21.124h519.002v21.124H255.191z M255.191,316.709v-21.11h519.002v21.11H255.191z M255.191,269.793
		v-21.11h519.002v21.11H255.191z M229.385,363.639H25.807v-208.8h203.578V363.639z M25.807,645.161v-21.109h748.387v21.109H25.807z"
		/>
</g>
</svg>
