<?xml version="1.0" encoding="utf-8"?>
<!-- Generator: Adobe Illustrator 16.0.0, SVG Export Plug-In . SVG Version: 6.00 Build 0)  -->
<!DOCTYPE svg PUBLIC "-//W3C//DTD SVG 1.1//EN" "http://www.w3.org/Graphics/SVG/1.1/DTD/svg11.dtd">
<svg version="1.1" id="Capa_1" xmlns="http://www.w3.org/2000/svg" xmlns:xlink="http://www.w3.org/1999/xlink" x="0px" y="0px"
	 width="800px" height="800px" viewBox="0 0 800 800" enable-background="new 0 0 800 800" xml:space="preserve">
<g>
	<path fill="#333333" d="M695.774,487.021v-1c0-6.563-5.34-11.903-11.903-11.903H24.807V325.882h750.387v148.236h-39.709
		c-6.563,0-11.903,5.34-11.903,11.903v1H695.774z M381.655,348.527c-28.383,0-51.474,23.091-51.474,51.473
		c0,28.382,23.091,51.473,51.474,51.473c10.961,0,21.427-3.403,30.267-9.842c2.57-1.872,4.258-4.633,4.751-7.774
		s-0.266-6.286-2.139-8.856c-2.231-3.065-5.832-4.895-9.631-4.895c-2.527,0-4.948,0.789-6.998,2.282
		c-4.74,3.453-10.359,5.279-16.25,5.279c-15.255,0-27.667-12.411-27.667-27.667c0-15.255,12.412-27.667,27.667-27.667
		c5.891,0,11.51,1.825,16.248,5.277c2.051,1.494,4.472,2.284,6.999,2.284c3.798,0,7.397-1.831,9.63-4.896
		c3.865-5.305,2.694-12.766-2.611-16.631C403.081,351.93,392.615,348.527,381.655,348.527z M440.592,386.258
		c-7.577,0-13.742,6.165-13.742,13.742c0,7.576,6.165,13.74,13.742,13.74s13.742-6.164,13.742-13.74
		C454.334,392.422,448.169,386.258,440.592,386.258z"/>
	<path fill="#333333" d="M735.484,473.118h38.709V326.882H25.807v146.236h658.064c7.126,0,12.903,5.775,12.903,12.903h25.807
		C722.581,478.894,728.357,473.118,735.484,473.118z M412.511,442.439c-9.012,6.563-19.682,10.033-30.855,10.033
		c-28.935,0-52.474-23.54-52.474-52.473s23.539-52.473,52.474-52.473c11.176,0,21.844,3.47,30.854,10.032
		c5.76,4.196,7.027,12.269,2.831,18.028c-4.194,5.76-12.263,7.03-18.026,2.832c-4.566-3.327-9.982-5.085-15.659-5.085
		c-14.705,0-26.667,11.962-26.667,26.667c0,14.705,11.962,26.667,26.667,26.667c5.677,0,11.093-1.759,15.661-5.088
		c5.76-4.194,13.832-2.928,18.026,2.832C419.539,430.171,418.271,438.243,412.511,442.439z M440.592,414.74
		c-8.141,0-14.742-6.6-14.742-14.74c0-8.141,6.6-14.742,14.742-14.742c8.141,0,14.742,6.6,14.742,14.742
		S448.734,414.74,440.592,414.74z"/>
	<path fill="#FFFFFF" d="M397.316,421.579c-4.568,3.329-9.984,5.088-15.661,5.088c-14.705,0-26.667-11.962-26.667-26.667
		c0-14.705,11.962-26.667,26.667-26.667c5.677,0,11.093,1.758,15.659,5.085c5.764,4.196,13.834,2.926,18.026-2.832
		c4.196-5.76,2.929-13.831-2.831-18.028c-9.011-6.562-19.679-10.032-30.854-10.032c-28.935,0-52.474,23.541-52.474,52.473
		s23.539,52.473,52.474,52.473c11.174,0,21.844-3.47,30.855-10.033c5.761-4.196,7.028-12.269,2.832-18.028
		S403.076,417.383,397.316,421.579z"/>
	<circle fill="#FFFFFF" cx="440.592" cy="400" r="14.742"/>
	<path fill="#259245" d="M24.807,646.161V497.925h659.064c6.563,0,11.903-5.34,11.903-11.903v-1h27.807v1
		c0,6.563,5.34,11.903,11.903,11.903h39.709v148.236H24.807z"/>
	<path fill="#259245" d="M735.484,498.925c-7.127,0-12.903-5.775-12.903-12.903h-25.807c0,7.128-5.777,12.903-12.903,12.903H25.807
		v146.236h748.387V498.925H735.484z"/>
	<rect x="24.807" y="153.839" fill="#ED1F34" width="750.387" height="148.236"/>
	<rect x="25.807" y="154.839" fill="#ED1F34" width="748.387" height="146.236"/>
	<path d="M787.097,129.032H12.903C5.777,129.032,0,134.808,0,141.936v516.129c0,7.128,5.777,12.903,12.903,12.903h774.193
		c7.126,0,12.903-5.775,12.903-12.903V141.936C800,134.808,794.223,129.032,787.097,129.032z M774.193,154.839v146.236H25.807
		V154.839H774.193z M25.807,645.161V498.925h658.064c7.126,0,12.903-5.775,12.903-12.903s-5.777-12.903-12.903-12.903H25.807
		V326.882h748.387v146.236h-38.709c-7.127,0-12.903,5.775-12.903,12.903s5.776,12.903,12.903,12.903h38.709v146.236H25.807z"/>
</g>
</svg>
