<?xml version="1.0" encoding="iso-8859-1"?>
<!-- Generator: Adobe Illustrator 19.0.0, SVG Export Plug-In . SVG Version: 6.00 Build 0)  -->
<svg version="1.1" id="Capa_1" xmlns="http://www.w3.org/2000/svg" xmlns:xlink="http://www.w3.org/1999/xlink" x="0px" y="0px"
	 viewBox="0 0 465 465" style="enable-background:new 0 0 465 465;" xml:space="preserve">
<g>
	<path style="fill:#ED1F34;" d="M397.5,240c-4.142,0-7.5-3.358-7.5-7.5h-15c0,4.142-3.358,7.5-7.5,7.5H15v135h435V240H397.5z"/>
	<path style="fill:#103B9B;" d="M397.5,225H450V90H15v135h352.5c4.142,0,7.5,3.358,7.5,7.5h15C390,228.358,393.358,225,397.5,225z
		 M204.103,198.43c-1.425,1.733-3.55,2.737-5.793,2.737h-83.333c-2.243,0-4.369-1.004-5.793-2.737
		c-0.478-0.582-11.707-14.44-11.707-31.93c0-19.115,15.551-34.667,34.667-34.667c6.049,0,11.888,1.617,17,4.503v-15.003
		c0-4.142,3.358-7.5,7.5-7.5s7.5,3.358,7.5,7.5v15.003c5.112-2.885,10.952-4.503,17-4.503c19.115,0,34.667,15.551,34.667,34.667
		C215.809,183.99,204.581,197.848,204.103,198.43z"/>
	<path d="M457.5,75H7.5C3.358,75,0,78.358,0,82.5v300c0,4.142,3.358,7.5,7.5,7.5h450c4.142,0,7.5-3.358,7.5-7.5v-300
		C465,78.358,461.642,75,457.5,75z M15,375V240h352.5c4.142,0,7.5-3.358,7.5-7.5s-3.358-7.5-7.5-7.5H15V90h435v135h-52.5
		c-4.142,0-7.5,3.358-7.5,7.5s3.358,7.5,7.5,7.5H450v135H15z"/>
	<path style="fill:#FFE000;" d="M181.143,146.833c-7.518,0-14.481,4.382-17.74,11.164c-0.015,0.031-0.036,0.058-0.051,0.089
		c-0.143,0.287-0.297,0.566-0.474,0.83c-0.002,0.004-0.004,0.008-0.007,0.011c-0.175,0.261-0.371,0.506-0.577,0.742
		c-0.054,0.062-0.11,0.122-0.166,0.182c-0.183,0.197-0.376,0.385-0.579,0.561c-0.034,0.029-0.064,0.061-0.098,0.089
		c-0.238,0.199-0.49,0.38-0.752,0.549c-0.057,0.036-0.115,0.07-0.172,0.104c-0.23,0.14-0.468,0.268-0.713,0.383
		c-0.047,0.022-0.092,0.046-0.14,0.067c-0.29,0.129-0.589,0.24-0.898,0.331c-0.045,0.013-0.091,0.023-0.137,0.035
		c-0.26,0.072-0.526,0.129-0.797,0.172c-0.079,0.013-0.157,0.026-0.236,0.036c-0.316,0.041-0.636,0.069-0.963,0.069
		s-0.647-0.028-0.963-0.069c-0.079-0.01-0.158-0.023-0.236-0.036c-0.271-0.044-0.537-0.101-0.797-0.172
		c-0.045-0.013-0.092-0.022-0.137-0.035c-0.308-0.091-0.607-0.202-0.897-0.331c-0.048-0.021-0.094-0.046-0.141-0.068
		c-0.245-0.115-0.481-0.242-0.711-0.381c-0.058-0.035-0.117-0.069-0.175-0.106c-0.261-0.168-0.512-0.349-0.75-0.547
		c-0.035-0.03-0.068-0.063-0.102-0.093c-0.202-0.175-0.392-0.361-0.574-0.556c-0.057-0.061-0.114-0.122-0.169-0.186
		c-0.205-0.235-0.4-0.479-0.575-0.739c-0.004-0.005-0.006-0.011-0.01-0.016c-0.176-0.263-0.329-0.54-0.471-0.825
		c-0.016-0.031-0.036-0.059-0.052-0.09c-3.259-6.782-10.222-11.164-17.74-11.164c-10.844,0-19.667,8.822-19.667,19.667
		c0,8.31,3.935,15.801,6.39,19.667h75.554c2.455-3.865,6.39-11.357,6.39-19.667C200.809,155.656,191.987,146.833,181.143,146.833z"
		/>
	<path d="M181.143,131.833c-6.048,0-11.888,1.617-17,4.503v-15.003c0-4.142-3.358-7.5-7.5-7.5s-7.5,3.358-7.5,7.5v15.003
		c-5.112-2.885-10.951-4.503-17-4.503c-19.115,0-34.667,15.551-34.667,34.667c0,17.49,11.229,31.348,11.707,31.93
		c1.425,1.733,3.55,2.737,5.793,2.737h83.333c2.243,0,4.369-1.004,5.793-2.737c0.478-0.582,11.707-14.44,11.707-31.93
		C215.809,147.385,200.258,131.833,181.143,131.833z M118.866,186.167c-2.455-3.865-6.39-11.357-6.39-19.667
		c0-10.844,8.822-19.667,19.667-19.667c7.518,0,14.481,4.382,17.74,11.164c0.015,0.032,0.036,0.059,0.052,0.09
		c0.142,0.285,0.296,0.562,0.471,0.825c0.004,0.005,0.006,0.011,0.01,0.016c0.175,0.26,0.37,0.504,0.575,0.739
		c0.055,0.063,0.112,0.124,0.169,0.186c0.182,0.195,0.373,0.381,0.574,0.556c0.035,0.03,0.067,0.064,0.102,0.093
		c0.237,0.198,0.489,0.379,0.75,0.547c0.057,0.037,0.116,0.071,0.175,0.106c0.229,0.139,0.466,0.266,0.711,0.381
		c0.047,0.022,0.093,0.047,0.141,0.068c0.29,0.128,0.589,0.239,0.897,0.331c0.045,0.013,0.091,0.023,0.137,0.035
		c0.26,0.072,0.526,0.129,0.797,0.172c0.079,0.013,0.157,0.026,0.236,0.036c0.316,0.041,0.636,0.069,0.963,0.069
		s0.647-0.028,0.963-0.069c0.079-0.01,0.158-0.023,0.236-0.036c0.271-0.044,0.537-0.101,0.797-0.172
		c0.045-0.013,0.092-0.022,0.137-0.035c0.308-0.091,0.607-0.202,0.898-0.331c0.047-0.021,0.093-0.045,0.14-0.067
		c0.246-0.115,0.483-0.243,0.713-0.383c0.057-0.035,0.115-0.068,0.172-0.104c0.262-0.169,0.514-0.35,0.752-0.549
		c0.034-0.028,0.065-0.06,0.098-0.089c0.203-0.176,0.396-0.364,0.579-0.561c0.056-0.06,0.111-0.12,0.166-0.182
		c0.206-0.236,0.402-0.481,0.577-0.742c0.002-0.004,0.004-0.008,0.007-0.011c0.177-0.264,0.332-0.544,0.474-0.83
		c0.015-0.031,0.036-0.058,0.051-0.089c3.258-6.782,10.222-11.164,17.74-11.164c10.844,0,19.667,8.822,19.667,19.667
		c0,8.31-3.935,15.801-6.39,19.667H118.866z"/>
</g>
<g>
</g>
<g>
</g>
<g>
</g>
<g>
</g>
<g>
</g>
<g>
</g>
<g>
</g>
<g>
</g>
<g>
</g>
<g>
</g>
<g>
</g>
<g>
</g>
<g>
</g>
<g>
</g>
<g>
</g>
</svg>
