<?xml version="1.0" encoding="iso-8859-1"?>
<!-- Generator: Adobe Illustrator 19.0.0, SVG Export Plug-In . SVG Version: 6.00 Build 0)  -->
<svg version="1.1" id="Capa_1" xmlns="http://www.w3.org/2000/svg" xmlns:xlink="http://www.w3.org/1999/xlink" x="0px" y="0px"
	 viewBox="0 0 465 465" style="enable-background:new 0 0 465 465;" xml:space="preserve">
<g>
	<path style="fill:#259245;" d="M67.5,190H15v85h435v-85H97.5c-4.142,0-7.5-3.358-7.5-7.5H75C75,186.642,71.642,190,67.5,190z"/>
	<rect x="15" y="290" style="fill:#ED1F34;" width="435" height="85"/>
	<path style="fill:#FFE000;" d="M67.5,175c4.142,0,7.5,3.358,7.5,7.5h15c0-4.142,3.358-7.5,7.5-7.5H450V90H15v85H67.5z"/>
	<path d="M457.5,75H7.5C3.358,75,0,78.358,0,82.5v300c0,4.142,3.358,7.5,7.5,7.5h450c4.142,0,7.5-3.358,7.5-7.5v-300
		C465,78.358,461.642,75,457.5,75z M450,90v85H97.5c-4.142,0-7.5,3.358-7.5,7.5s3.358,7.5,7.5,7.5H450v85H15v-85h52.5
		c4.142,0,7.5-3.358,7.5-7.5s-3.358-7.5-7.5-7.5H15V90H450z M15,375v-85h435v85H15z"/>
</g>
<g>
</g>
<g>
</g>
<g>
</g>
<g>
</g>
<g>
</g>
<g>
</g>
<g>
</g>
<g>
</g>
<g>
</g>
<g>
</g>
<g>
</g>
<g>
</g>
<g>
</g>
<g>
</g>
<g>
</g>
</svg>
