<?xml version="1.0" encoding="iso-8859-1"?>
<!-- Generator: Adobe Illustrator 19.0.0, SVG Export Plug-In . SVG Version: 6.00 Build 0)  -->
<svg version="1.1" id="Capa_1" xmlns="http://www.w3.org/2000/svg" xmlns:xlink="http://www.w3.org/1999/xlink" x="0px" y="0px"
	 viewBox="0 0 465 465" style="enable-background:new 0 0 465 465;" xml:space="preserve">
<g>
	<path style="fill:#048B7D;" d="M15,142.5V375h435V90H15v22.5c0,4.143-3.357,7.5-7.5,7.5v15C11.643,135,15,138.357,15,142.5z
		 M293.129,330.317c-16.238,16.102-37.771,24.969-60.629,24.969s-44.391-8.867-60.629-24.969c-2.158-2.141-2.813-5.371-1.655-8.182
		s3.896-4.645,6.936-4.645h110.697c3.039,0,5.778,1.834,6.936,4.645S295.287,328.177,293.129,330.317z M306.457,309.893H158.543
		c-4.143,0-7.5-3.357-7.5-7.5s3.357-7.5,7.5-7.5h147.914c4.143,0,7.5,3.357,7.5,7.5S310.6,309.893,306.457,309.893z
		 M299.383,169.543c5.251-1.706,10.891,1.168,12.597,6.419c1.706,5.251-1.167,10.891-6.419,12.597
		c-5.251,1.707-10.891-1.167-12.597-6.418C291.258,176.89,294.132,171.25,299.383,169.543z M267.656,143.387
		c3.246-4.468,9.499-5.458,13.967-2.212c4.468,3.246,5.458,9.5,2.212,13.967c-3.246,4.468-9.499,5.458-13.967,2.212
		C265.4,154.108,264.41,147.855,267.656,143.387z M232.5,117.213c8.284,0,15,6.716,15,15s-6.716,15-15,15s-15-6.716-15-15
		S224.216,117.213,232.5,117.213z M183.377,141.175c4.468-3.246,10.721-2.255,13.967,2.212c3.246,4.468,2.255,10.721-2.212,13.967
		c-4.468,3.246-10.721,2.255-13.967-2.212C177.919,150.674,178.91,144.421,183.377,141.175z M153.02,175.962
		c1.706-5.251,7.346-8.125,12.597-6.419c5.251,1.707,8.125,7.347,6.419,12.598c-1.706,5.251-7.346,8.125-12.597,6.418
		C154.187,186.853,151.314,181.213,153.02,175.962z M143.775,229.192c0.087-2.225,1.158-4.296,2.924-5.653
		c8.258-6.346,19.199-9.84,30.809-9.84c7.477,0,15.076,1.425,22.338,4.161c2.322-20.035,13.376-37.059,29.472-44.601
		c2.018-0.945,4.348-0.945,6.365,0c16.096,7.542,27.149,24.565,29.472,44.601c7.263-2.736,14.861-4.161,22.338-4.161
		c11.609,0,22.551,3.494,30.809,9.84c1.766,1.357,2.837,3.429,2.924,5.653c0.786,20.063-12.126,39.968-32.896,50.712
		c-9.346,4.835-19.576,7.391-29.585,7.391c-0.001,0-0.002,0-0.003,0c-9.579-0.001-18.703-2.38-26.24-6.775
		c-7.537,4.396-16.661,6.775-26.24,6.775c-10.011,0-20.242-2.556-29.588-7.391C155.901,269.16,142.989,249.255,143.775,229.192z"/>
	<path d="M457.5,75H7.5C3.357,75,0,78.357,0,82.5v30c0,4.143,3.357,7.5,7.5,7.5s7.5-3.357,7.5-7.5V90h435v285H15V142.5
		c0-4.143-3.357-7.5-7.5-7.5S0,138.357,0,142.5v240c0,4.143,3.357,7.5,7.5,7.5h450c4.143,0,7.5-3.357,7.5-7.5v-300
		C465,78.357,461.643,75,457.5,75z"/>
	<path style="fill:#FFFFFF;" d="M183.564,266.582c7.225,3.737,15.072,5.713,22.695,5.713c8.322,0,16.019-2.392,21.67-6.735
		c1.348-1.035,2.959-1.553,4.57-1.553s3.223,0.518,4.57,1.553c5.65,4.343,13.347,6.734,21.671,6.735c0,0,0.001,0,0.002,0
		c7.621,0,15.468-1.976,22.692-5.713c14.063-7.275,23.6-20.257,24.713-33.169c-5.24-3.059-11.731-4.714-18.656-4.714
		c-7.623,0-15.472,1.976-22.697,5.713c-1,0.518-1.991,1.07-2.946,1.644c-2.389,1.437-5.376,1.428-7.759-0.022
		c-2.381-1.448-3.762-4.098-3.587-6.879c0.07-1.118,0.106-2.254,0.106-3.375c0-15.837-7.151-30.272-18.109-37.192
		c-10.958,6.92-18.109,21.355-18.109,37.192c0,1.121,0.036,2.257,0.106,3.375c0.175,2.781-1.206,5.431-3.587,6.879
		c-2.382,1.45-5.369,1.459-7.759,0.022c-0.955-0.573-1.946-1.126-2.946-1.644c-7.226-3.737-15.074-5.713-22.697-5.713
		c-6.925,0-13.416,1.655-18.656,4.714C159.965,246.325,169.501,259.307,183.564,266.582z"/>
	<path d="M176.672,279.904c9.346,4.835,19.577,7.391,29.588,7.391c9.579,0,18.703-2.379,26.24-6.775
		c7.537,4.396,16.661,6.774,26.24,6.775c0.001,0,0.002,0,0.003,0c10.009,0,20.239-2.556,29.585-7.391
		c20.771-10.744,33.683-30.649,32.896-50.712c-0.087-2.225-1.158-4.296-2.924-5.653c-8.258-6.346-19.199-9.84-30.809-9.84
		c-7.477,0-15.075,1.425-22.338,4.161c-2.322-20.035-13.376-37.059-29.472-44.601c-2.018-0.945-4.348-0.945-6.365,0
		c-16.096,7.542-27.149,24.565-29.472,44.601c-7.262-2.736-14.861-4.161-22.338-4.161c-11.609,0-22.551,3.494-30.809,9.84
		c-1.766,1.357-2.837,3.429-2.924,5.653C142.989,249.255,155.901,269.16,176.672,279.904z M200.205,234.412
		c1,0.518,1.991,1.07,2.946,1.644c2.39,1.437,5.377,1.428,7.759-0.022c2.381-1.448,3.762-4.098,3.587-6.879
		c-0.07-1.118-0.106-2.254-0.106-3.375c0-15.837,7.151-30.272,18.109-37.192c10.958,6.92,18.109,21.355,18.109,37.192
		c0,1.121-0.036,2.257-0.106,3.375c-0.175,2.781,1.206,5.431,3.587,6.879c2.383,1.45,5.37,1.459,7.759,0.022
		c0.955-0.573,1.946-1.126,2.946-1.644c7.226-3.737,15.074-5.713,22.697-5.713c6.925,0,13.416,1.655,18.656,4.714
		c-1.113,12.912-10.649,25.894-24.713,33.169c-7.225,3.737-15.071,5.713-22.692,5.713c-0.001,0-0.002,0-0.002,0
		c-8.324-0.001-16.021-2.393-21.671-6.735c-1.348-1.035-2.959-1.553-4.57-1.553s-3.223,0.518-4.57,1.553
		c-5.651,4.344-13.348,6.735-21.67,6.735c-7.623,0-15.471-1.976-22.695-5.713c-14.063-7.275-23.6-20.257-24.713-33.169
		c5.24-3.059,11.731-4.714,18.656-4.714C185.131,228.699,192.979,230.675,200.205,234.412z"/>
	<circle style="fill:#FFE610;" cx="232.5" cy="132.213" r="15"/>
	<circle style="fill:#FFE610;" cx="189.255" cy="149.265" r="9.999"/>
	<circle style="fill:#FFE610;" cx="162.528" cy="179.051" r="9.997"/>
	<circle style="fill:#FFE610;" cx="302.472" cy="179.051" r="9.997"/>
	<circle style="fill:#FFE610;" cx="275.745" cy="149.265" r="9.999"/>
	<path style="fill:#FFFFFF;" d="M232.5,340.286c11.459,0,22.515-2.699,32.435-7.795h-64.869
		C209.985,337.587,221.041,340.286,232.5,340.286z"/>
	<path d="M287.849,317.491H177.151c-3.039,0-5.778,1.834-6.936,4.645s-0.503,6.041,1.655,8.182
		c16.238,16.102,37.771,24.969,60.629,24.969s44.391-8.867,60.629-24.969c2.158-2.141,2.813-5.371,1.655-8.182
		S290.888,317.491,287.849,317.491z M232.5,340.286c-11.459,0-22.515-2.699-32.435-7.795h64.869
		C255.015,337.587,243.959,340.286,232.5,340.286z"/>
	<path d="M306.457,294.893H158.543c-4.143,0-7.5,3.357-7.5,7.5s3.357,7.5,7.5,7.5h147.914c4.143,0,7.5-3.357,7.5-7.5
		S310.6,294.893,306.457,294.893z"/>
</g>
<g>
</g>
<g>
</g>
<g>
</g>
<g>
</g>
<g>
</g>
<g>
</g>
<g>
</g>
<g>
</g>
<g>
</g>
<g>
</g>
<g>
</g>
<g>
</g>
<g>
</g>
<g>
</g>
<g>
</g>
</svg>
