<?xml version="1.0" encoding="iso-8859-1"?>
<!-- Generator: Adobe Illustrator 19.0.0, SVG Export Plug-In . SVG Version: 6.00 Build 0)  -->
<svg version="1.1" id="Capa_1" xmlns="http://www.w3.org/2000/svg" xmlns:xlink="http://www.w3.org/1999/xlink" x="0px" y="0px"
	 viewBox="0 0 465 465" style="enable-background:new 0 0 465 465;" xml:space="preserve">
<g>
	<path style="fill:#ED1F34;" d="M165,142.5V225h285V90H165v22.5c0,4.143-3.357,7.5-7.5,7.5v15C161.643,135,165,138.357,165,142.5z"
		/>
	<rect x="165" y="240" style="fill:#259245;" width="285" height="135"/>
	<path style="fill:#FFFFFF;" d="M150,142.5c0-4.143,3.357-7.5,7.5-7.5v-15c-4.143,0-7.5-3.357-7.5-7.5V90H15v285h135V142.5z"/>
	<path d="M457.5,75H7.5C3.357,75,0,78.357,0,82.5v300c0,4.143,3.357,7.5,7.5,7.5h450c4.143,0,7.5-3.357,7.5-7.5v-300
		C465,78.357,461.643,75,457.5,75z M15,90h135v22.5c0,4.143,3.357,7.5,7.5,7.5s7.5-3.357,7.5-7.5V90h285v135H165v-82.5
		c0-4.143-3.357-7.5-7.5-7.5s-7.5,3.357-7.5,7.5V375H15V90z M165,240h285v135H165V240z"/>
</g>
<g>
</g>
<g>
</g>
<g>
</g>
<g>
</g>
<g>
</g>
<g>
</g>
<g>
</g>
<g>
</g>
<g>
</g>
<g>
</g>
<g>
</g>
<g>
</g>
<g>
</g>
<g>
</g>
<g>
</g>
</svg>
