<?xml version="1.0" encoding="iso-8859-1"?>
<!-- Generator: Adobe Illustrator 19.0.0, SVG Export Plug-In . SVG Version: 6.00 Build 0)  -->
<svg version="1.1" id="Capa_1" xmlns="http://www.w3.org/2000/svg" xmlns:xlink="http://www.w3.org/1999/xlink" x="0px" y="0px"
	 viewBox="0 0 465 465" style="enable-background:new 0 0 465 465;" xml:space="preserve">
<g>
	<path style="fill:#FFE000;" d="M300,112.5V90H165v285h135V142.5c0-4.143,3.357-7.5,7.5-7.5v-15C303.357,120,300,116.643,300,112.5z
		 M288,259.563c0,4.143-3.357,7.5-7.5,7.5s-7.5-3.357-7.5-7.5v-2.5h-15.938V273h2.5c4.143,0,7.5,3.357,7.5,7.5s-3.357,7.5-7.5,7.5
		h-48.125c-4.143,0-7.5-3.357-7.5-7.5s3.357-7.5,7.5-7.5h2.5v-15.938H198v2.5c0,4.143-3.357,7.5-7.5,7.5s-7.5-3.357-7.5-7.5v-48.125
		c0-4.143,3.357-7.5,7.5-7.5s7.5,3.357,7.5,7.5v2.5h15.938V198h-2.5c-4.143,0-7.5-3.357-7.5-7.5s3.357-7.5,7.5-7.5h48.125
		c4.143,0,7.5,3.357,7.5,7.5s-3.357,7.5-7.5,7.5h-2.5v15.938H273v-2.5c0-4.143,3.357-7.5,7.5-7.5s7.5,3.357,7.5,7.5V259.563z"/>
	<rect x="15" y="90" style="fill:#164FCE;" width="135" height="285"/>
	<path style="fill:#164FCE;" d="M315,112.5c0,4.143-3.357,7.5-7.5,7.5v15c4.143,0,7.5,3.357,7.5,7.5V375h135V90H315V112.5z"/>
	<path d="M457.5,75H7.5C3.357,75,0,78.357,0,82.5v300c0,4.143,3.357,7.5,7.5,7.5h450c4.143,0,7.5-3.357,7.5-7.5v-300
		C465,78.357,461.643,75,457.5,75z M450,375H315V142.5c0-4.143-3.357-7.5-7.5-7.5s-7.5,3.357-7.5,7.5V375H165V90h135v22.5
		c0,4.143,3.357,7.5,7.5,7.5s7.5-3.357,7.5-7.5V90h135V375z M15,90h135v285H15V90z"/>
	<path style="fill:#FFFFFF;" d="M273,228.938h-23.438c-4.143,0-7.5-3.357-7.5-7.5V198h-13.125v23.438c0,4.143-3.357,7.5-7.5,7.5H198
		v13.125h23.438c4.143,0,7.5,3.357,7.5,7.5V273h13.125v-23.438c0-4.143,3.357-7.5,7.5-7.5H273V228.938z"/>
	<path style="fill:#ED1F34;" d="M280.5,203.938c-4.143,0-7.5,3.357-7.5,7.5v2.5h-15.938V198h2.5c4.143,0,7.5-3.357,7.5-7.5
		s-3.357-7.5-7.5-7.5h-48.125c-4.143,0-7.5,3.357-7.5,7.5s3.357,7.5,7.5,7.5h2.5v15.938H198v-2.5c0-4.143-3.357-7.5-7.5-7.5
		s-7.5,3.357-7.5,7.5v48.125c0,4.143,3.357,7.5,7.5,7.5s7.5-3.357,7.5-7.5v-2.5h15.938V273h-2.5c-4.143,0-7.5,3.357-7.5,7.5
		s3.357,7.5,7.5,7.5h48.125c4.143,0,7.5-3.357,7.5-7.5s-3.357-7.5-7.5-7.5h-2.5v-15.938H273v2.5c0,4.143,3.357,7.5,7.5,7.5
		s7.5-3.357,7.5-7.5v-48.125C288,207.295,284.643,203.938,280.5,203.938z M242.063,249.563V273h-13.125v-23.438
		c0-4.143-3.357-7.5-7.5-7.5H198v-13.125h23.438c4.143,0,7.5-3.357,7.5-7.5V198h13.125v23.438c0,4.143,3.357,7.5,7.5,7.5H273v13.125
		h-23.438C245.42,242.063,242.063,245.42,242.063,249.563z"/>
</g>
<g>
</g>
<g>
</g>
<g>
</g>
<g>
</g>
<g>
</g>
<g>
</g>
<g>
</g>
<g>
</g>
<g>
</g>
<g>
</g>
<g>
</g>
<g>
</g>
<g>
</g>
<g>
</g>
<g>
</g>
</svg>
