<?xml version="1.0" encoding="iso-8859-1"?>
<!-- Generator: Adobe Illustrator 19.0.0, SVG Export Plug-In . SVG Version: 6.00 Build 0)  -->
<svg version="1.1" id="Capa_1" xmlns="http://www.w3.org/2000/svg" xmlns:xlink="http://www.w3.org/1999/xlink" x="0px" y="0px"
	 viewBox="0 0 465 465" style="enable-background:new 0 0 465 465;" xml:space="preserve">
<g>
	<path style="fill:#333333;" d="M145.308,175c3.789-39.812,37.405-71.059,78.192-71.059s74.402,31.247,78.192,71.059H450V90H15v85
		H145.308z"/>
	<path style="fill:#333333;" d="M223.5,118.941c-32.508,0-59.376,24.536-63.101,56.059h14.051
		c3.626-23.813,24.24-42.117,49.05-42.117s45.424,18.304,49.05,42.117h14.051C282.876,143.478,256.008,118.941,223.5,118.941z"/>
	<path style="fill:#259245;" d="M427.5,290c-4.142,0-7.5-3.357-7.5-7.5h-15c0,4.143-3.358,7.5-7.5,7.5H15v85h435v-85H427.5z"/>
	<path style="fill:#ED1F34;" d="M223.5,103.941c-40.787,0-74.402,31.247-78.192,71.059h15.091
		c3.725-31.522,30.593-56.059,63.101-56.059s59.376,24.536,63.101,56.059h15.091C297.902,135.188,264.287,103.941,223.5,103.941z"/>
	<path style="fill:#ED1F34;" d="M223.5,132.883c-24.81,0-45.424,18.304-49.05,42.117h98.101
		C268.924,151.187,248.31,132.883,223.5,132.883z"/>
	<path style="fill:#ED1F34;" d="M427.5,275H450v-85H15v85h382.5c4.142,0,7.5,3.357,7.5,7.5h15C420,278.357,423.358,275,427.5,275z"
		/>
	<path d="M457.5,75H7.5C3.358,75,0,78.357,0,82.5v300c0,4.143,3.358,7.5,7.5,7.5h450c4.142,0,7.5-3.357,7.5-7.5v-300
		C465,78.357,461.642,75,457.5,75z M450,90v85H301.692h-15.091H272.55H174.45h-14.051h-15.091H15V90H450z M15,375v-85h382.5
		c4.142,0,7.5-3.357,7.5-7.5s-3.358-7.5-7.5-7.5H15v-85h435v85h-22.5c-4.142,0-7.5,3.357-7.5,7.5s3.358,7.5,7.5,7.5H450v85H15z"/>
</g>
<g>
</g>
<g>
</g>
<g>
</g>
<g>
</g>
<g>
</g>
<g>
</g>
<g>
</g>
<g>
</g>
<g>
</g>
<g>
</g>
<g>
</g>
<g>
</g>
<g>
</g>
<g>
</g>
<g>
</g>
</svg>
