<?xml version="1.0" encoding="iso-8859-1"?>
<!-- Generator: Adobe Illustrator 19.0.0, SVG Export Plug-In . SVG Version: 6.00 Build 0)  -->
<svg version="1.1" id="Capa_1" xmlns="http://www.w3.org/2000/svg" xmlns:xlink="http://www.w3.org/1999/xlink" x="0px" y="0px"
	 viewBox="0 0 465 465" style="enable-background:new 0 0 465 465;" xml:space="preserve">
<g>
	<rect x="240" y="190" style="fill:#FFFFFF;" width="210" height="18.33"/>
	<rect x="240" y="123.33" style="fill:#FFFFFF;" width="210" height="18.34"/>
	<rect x="240" y="256.67" style="fill:#FFFFFF;" width="210" height="18.33"/>
	<path style="fill:#FFFFFF;" d="M420,349.17c0-4.143,3.357-7.5,7.5-7.5H450v-18.34H15v18.34h382.5c4.143,0,7.5,3.357,7.5,7.5l0,0
		H420L420,349.17z"/>
	<path style="fill:#103B9B;" d="M15,275h22.5c4.143,0,7.5,3.357,7.5,7.5h15c0-4.143,3.357-7.5,7.5-7.5H225V90H15V275z
		 M201.411,182.5c0,21.71-17.662,39.372-39.372,39.372s-39.372-17.662-39.372-39.372s17.662-39.372,39.372-39.372
		S201.411,160.79,201.411,182.5z M105.439,115.653c11.307,0,22.481,2.886,32.347,8.352c2.493,1.219,4.211,3.779,4.211,6.742
		c0,4.131-3.34,7.482-7.466,7.5c-0.146,0.003-0.276-0.003-0.415-0.009c-0.73-0.035-1.466-0.056-2.206-0.056
		c-24.438,0-44.321,19.882-44.321,44.32s19.883,44.321,44.321,44.321c0.74,0,1.476-0.021,2.206-0.056
		c3.482-0.184,6.606,2.075,7.568,5.417s-0.5,6.907-3.531,8.611c-9.954,5.598-21.267,8.557-32.714,8.557
		c-36.861,0-66.851-29.989-66.851-66.851S68.578,115.653,105.439,115.653z"/>
	<path style="fill:#ED1F34;" d="M427.5,356.67c-4.143,0-7.5-3.357-7.5-7.5h-15c0,4.143-3.357,7.5-7.5,7.5H15V375h435v-18.33H427.5z"
		/>
	<path style="fill:#ED1F34;" d="M37.5,290H15v18.33h435V290H67.5c-4.143,0-7.5-3.357-7.5-7.5H45C45,286.643,41.643,290,37.5,290z"/>
	<rect x="240" y="223.33" style="fill:#ED1F34;" width="210" height="18.34"/>
	<rect x="240" y="156.67" style="fill:#ED1F34;" width="210" height="18.33"/>
	<rect x="240" y="90" style="fill:#ED1F34;" width="210" height="18.33"/>
	<path d="M457.5,75H7.5C3.357,75,0,78.357,0,82.5v300c0,4.143,3.357,7.5,7.5,7.5h450c4.143,0,7.5-3.357,7.5-7.5v-300
		C465,78.357,461.643,75,457.5,75z M240,275v-18.33h210V275H240z M240,241.67v-18.34h210v18.34H240z M240,208.33V190h210v18.33H240z
		 M240,175v-18.33h210V175H240z M240,141.67v-18.34h210v18.34H240z M450,108.33H240V90h210V108.33z M225,275H67.5
		c-4.143,0-7.5,3.357-7.5,7.5s3.357,7.5,7.5,7.5H450v18.33H15V290h22.5c4.143,0,7.5-3.357,7.5-7.5s-3.357-7.5-7.5-7.5H15V90h210V275
		z M15,375v-18.33h382.5c4.143,0,7.5-3.357,7.5-7.5l0,0c0-4.143-3.357-7.5-7.5-7.5H15v-18.34h435v18.34h-22.5
		c-4.143,0-7.5,3.357-7.5,7.5l0,0c0,4.143,3.357,7.5,7.5,7.5H450V375H15z"/>
	<path style="fill:#FFE000;" d="M137.667,182.5c0,13.438,10.934,24.372,24.372,24.372s24.372-10.934,24.372-24.372
		s-10.934-24.372-24.372-24.372S137.667,169.062,137.667,182.5z"/>
	<path d="M122.667,182.5c0,21.71,17.662,39.372,39.372,39.372s39.372-17.662,39.372-39.372s-17.662-39.372-39.372-39.372
		S122.667,160.79,122.667,182.5z M186.411,182.5c0,13.438-10.934,24.372-24.372,24.372s-24.372-10.934-24.372-24.372
		s10.934-24.372,24.372-24.372S186.411,169.062,186.411,182.5z"/>
	<path style="fill:#FFE000;" d="M103.012,234.298c-18.136-10.16-30.423-29.57-30.423-51.795s12.286-41.634,30.423-51.794
		c-27.469,1.271-49.423,24.018-49.423,51.794C53.589,210.28,75.543,233.026,103.012,234.298z"/>
	<path d="M105.439,249.354c11.447,0,22.76-2.959,32.714-8.557c3.031-1.704,4.493-5.27,3.531-8.611s-4.086-5.601-7.568-5.417
		c-0.73,0.035-1.466,0.056-2.206,0.056c-24.438,0-44.321-19.883-44.321-44.321s19.883-44.32,44.321-44.32
		c0.74,0,1.476,0.021,2.206,0.056c0.139,0.006,0.27,0.012,0.415,0.009c4.126-0.018,7.466-3.369,7.466-7.5
		c0-2.963-1.718-5.523-4.211-6.742c-9.865-5.466-21.04-8.352-32.347-8.352c-36.861,0-66.851,29.988-66.851,66.85
		S68.578,249.354,105.439,249.354z M103.012,130.709c-18.137,10.16-30.423,29.569-30.423,51.794s12.287,41.635,30.423,51.795
		c-27.469-1.271-49.423-24.018-49.423-51.795C53.589,154.727,75.543,131.98,103.012,130.709z"/>
</g>
<g>
</g>
<g>
</g>
<g>
</g>
<g>
</g>
<g>
</g>
<g>
</g>
<g>
</g>
<g>
</g>
<g>
</g>
<g>
</g>
<g>
</g>
<g>
</g>
<g>
</g>
<g>
</g>
<g>
</g>
</svg>
