<?xml version="1.0" encoding="iso-8859-1"?>
<!-- Generator: Adobe Illustrator 19.0.0, SVG Export Plug-In . SVG Version: 6.00 Build 0)  -->
<svg version="1.1" id="Capa_1" xmlns="http://www.w3.org/2000/svg" xmlns:xlink="http://www.w3.org/1999/xlink" x="0px" y="0px"
	 viewBox="0 0 465 465" style="enable-background:new 0 0 465 465;" xml:space="preserve">
<g>
	<path style="fill:#ED1F34;" d="M15,375h435V90H15V375z M70,152.5c0-4.142,3.358-7.5,7.5-7.5h30c4.142,0,7.5,3.358,7.5,7.5h15
		c0-4.142,3.358-7.5,7.5-7.5h250c4.142,0,7.5,3.358,7.5,7.5v160c0,4.142-3.358,7.5-7.5,7.5h-310c-4.142,0-7.5-3.358-7.5-7.5V152.5z"
		/>
	<path style="fill:#278A2A;" d="M107.5,160H85v145h295V160H137.5c-4.142,0-7.5-3.358-7.5-7.5h-15C115,156.642,111.642,160,107.5,160
		z M245.268,175c9.704,0,19.296,2.472,27.769,7.153c2.496,1.218,4.215,3.78,4.215,6.744c0,4.135-3.345,7.488-7.477,7.5
		c-0.13,0-0.27-0.002-0.405-0.009c-0.597-0.029-1.197-0.046-1.801-0.046c-19.937,0-36.157,16.22-36.157,36.156
		c0,19.937,16.22,36.157,36.157,36.157c0.604,0,1.204-0.017,1.801-0.046c3.472-0.166,6.607,2.074,7.57,5.416
		c0.962,3.342-0.5,6.907-3.531,8.612c-8.563,4.815-18.293,7.36-28.14,7.36c-31.706,0-57.5-25.795-57.5-57.5
		C187.768,200.794,213.562,175,245.268,175z"/>
	<path d="M77.5,320h310c4.142,0,7.5-3.358,7.5-7.5v-160c0-4.142-3.358-7.5-7.5-7.5h-250c-4.142,0-7.5,3.358-7.5,7.5
		s3.358,7.5,7.5,7.5H380v145H85V160h22.5c4.142,0,7.5-3.358,7.5-7.5s-3.358-7.5-7.5-7.5h-30c-4.142,0-7.5,3.358-7.5,7.5v160
		C70,316.642,73.358,320,77.5,320z"/>
	<path style="fill:#FFFFFF;" d="M238.287,274.427c-13.218-9.259-21.875-24.6-21.875-41.927c0-17.325,8.659-32.668,21.875-41.926
		c-20.125,3.34-35.519,20.869-35.519,41.926C202.768,253.557,218.162,271.087,238.287,274.427z"/>
	<path d="M245.268,290c9.847,0,19.578-2.545,28.14-7.36c3.031-1.705,4.493-5.27,3.531-8.612c-0.962-3.342-4.098-5.582-7.57-5.416
		c-0.597,0.029-1.197,0.046-1.801,0.046c-19.937,0-36.157-16.22-36.157-36.157c0-19.937,16.22-36.156,36.157-36.156
		c0.604,0,1.204,0.017,1.801,0.046c0.136,0.007,0.275,0.009,0.405,0.009c4.132-0.012,7.477-3.365,7.477-7.5
		c0-2.964-1.72-5.527-4.215-6.744c-8.472-4.681-18.064-7.153-27.769-7.153c-31.706,0-57.5,25.794-57.5,57.5
		C187.768,264.205,213.562,290,245.268,290z M238.287,190.573c-13.216,9.259-21.875,24.601-21.875,41.926
		c0,17.327,8.657,32.669,21.875,41.927c-20.125-3.34-35.519-20.87-35.519-41.927C202.768,211.442,218.162,193.913,238.287,190.573z"
		/>
	<path d="M457.5,75H7.5C3.358,75,0,78.358,0,82.5v300c0,4.142,3.358,7.5,7.5,7.5h450c4.142,0,7.5-3.358,7.5-7.5v-300
		C465,78.358,461.642,75,457.5,75z M450,375H15V90h435V375z"/>
</g>
<g>
</g>
<g>
</g>
<g>
</g>
<g>
</g>
<g>
</g>
<g>
</g>
<g>
</g>
<g>
</g>
<g>
</g>
<g>
</g>
<g>
</g>
<g>
</g>
<g>
</g>
<g>
</g>
<g>
</g>
</svg>
