<?xml version="1.0" encoding="iso-8859-1"?>
<!-- Generator: Adobe Illustrator 19.0.0, SVG Export Plug-In . SVG Version: 6.00 Build 0)  -->
<svg version="1.1" id="Capa_1" xmlns="http://www.w3.org/2000/svg" xmlns:xlink="http://www.w3.org/1999/xlink" x="0px" y="0px"
	 viewBox="0 0 465 465" style="enable-background:new 0 0 465 465;" xml:space="preserve">
<g>
	<path style="fill:#FFE000;" d="M300,375V90H165v232.5c0,4.142-3.358,7.5-7.5,7.5v15c4.142,0,7.5,3.358,7.5,7.5V375H300z"/>
	<rect x="315" y="90" style="fill:#ED1F34;" width="135" height="285"/>
	<path style="fill:#259245;" d="M150,322.5V90H15v285h135v-22.5c0-4.142,3.358-7.5,7.5-7.5v-15C153.358,330,150,326.642,150,322.5z"
		/>
	<path d="M457.5,75H7.5C3.358,75,0,78.358,0,82.5v300c0,4.142,3.358,7.5,7.5,7.5h450c4.143,0,7.5-3.358,7.5-7.5v-300
		C465,78.358,461.643,75,457.5,75z M450,375H315V90h135V375z M157.5,345c-4.142,0-7.5,3.358-7.5,7.5V375H15V90h135v232.5
		c0,4.142,3.358,7.5,7.5,7.5s7.5-3.358,7.5-7.5V90h135v285H165v-22.5C165,348.358,161.642,345,157.5,345z"/>
</g>
<g>
</g>
<g>
</g>
<g>
</g>
<g>
</g>
<g>
</g>
<g>
</g>
<g>
</g>
<g>
</g>
<g>
</g>
<g>
</g>
<g>
</g>
<g>
</g>
<g>
</g>
<g>
</g>
<g>
</g>
</svg>
