<?xml version="1.0" encoding="iso-8859-1"?>
<!-- Generator: Adobe Illustrator 19.0.0, SVG Export Plug-In . SVG Version: 6.00 Build 0)  -->
<svg version="1.1" id="Capa_1" xmlns="http://www.w3.org/2000/svg" xmlns:xlink="http://www.w3.org/1999/xlink" x="0px" y="0px"
	 viewBox="0 0 465 465" style="enable-background:new 0 0 465 465;" xml:space="preserve">
<g>
	<path style="fill:#ED1F34;" d="M240,292.5c0,4.142-3.357,7.5-7.5,7.5v15c4.143,0,7.5,3.358,7.5,7.5V375h210V90H240V292.5z"/>
	<path style="fill:#FFFFFF;" d="M225,292.5V90H15v285h210v-52.5c0-4.142,3.358-7.5,7.5-7.5v-15C228.358,300,225,296.642,225,292.5z
		 M87.75,150.125H75.125v12.625c0,4.142-3.358,7.5-7.5,7.5s-7.5-3.358-7.5-7.5v-12.625H47.5c-4.142,0-7.5-3.358-7.5-7.5
		s3.358-7.5,7.5-7.5h12.625V122.5c0-4.142,3.358-7.5,7.5-7.5s7.5,3.358,7.5,7.5v12.625H87.75c4.142,0,7.5,3.358,7.5,7.5
		S91.892,150.125,87.75,150.125z"/>
	<path style="fill:#999999;" d="M87.75,135.125H75.125V122.5c0-4.142-3.358-7.5-7.5-7.5s-7.5,3.358-7.5,7.5v12.625H47.5
		c-4.142,0-7.5,3.358-7.5,7.5s3.358,7.5,7.5,7.5h12.625v12.625c0,4.142,3.358,7.5,7.5,7.5s7.5-3.358,7.5-7.5v-12.625H87.75
		c4.142,0,7.5-3.358,7.5-7.5S91.892,135.125,87.75,135.125z"/>
	<path d="M457.5,75H7.5C3.358,75,0,78.358,0,82.5v300c0,4.142,3.358,7.5,7.5,7.5h450c4.143,0,7.5-3.358,7.5-7.5v-300
		C465,78.358,461.643,75,457.5,75z M450,375H240v-52.5c0-4.142-3.357-7.5-7.5-7.5c-4.142,0-7.5,3.358-7.5,7.5V375H15V90h210v202.5
		c0,4.142,3.358,7.5,7.5,7.5c4.143,0,7.5-3.358,7.5-7.5V90h210V375z"/>
</g>
<g>
</g>
<g>
</g>
<g>
</g>
<g>
</g>
<g>
</g>
<g>
</g>
<g>
</g>
<g>
</g>
<g>
</g>
<g>
</g>
<g>
</g>
<g>
</g>
<g>
</g>
<g>
</g>
<g>
</g>
</svg>
