<?xml version="1.0" encoding="iso-8859-1"?>
<!-- Generator: Adobe Illustrator 19.0.0, SVG Export Plug-In . SVG Version: 6.00 Build 0)  -->
<svg version="1.1" id="Capa_1" xmlns="http://www.w3.org/2000/svg" xmlns:xlink="http://www.w3.org/1999/xlink" x="0px" y="0px"
	 viewBox="0 0 465 465" style="enable-background:new 0 0 465 465;" xml:space="preserve">
<g>
	<path style="fill:#103B9B;" d="M384.43,130.978c3.611-2.031,8.184-0.748,10.214,2.862l13.075-7.351
		c-2.03-3.611-0.749-8.183,2.862-10.213L450,94.113V90H15v248.679L384.43,130.978z M68.266,174.734h14.989
		c2.99-14.672,14.573-26.255,29.245-29.245V130.5c0-4.142,3.358-7.5,7.5-7.5s7.5,3.358,7.5,7.5v14.989
		c14.672,2.99,26.255,14.573,29.245,29.245h14.989c4.142,0,7.5,3.358,7.5,7.5s-3.358,7.5-7.5,7.5h-14.989
		c-2.99,14.672-14.573,26.255-29.245,29.245v14.989c0,4.142-3.358,7.5-7.5,7.5s-7.5-3.358-7.5-7.5V218.98
		c-14.672-2.99-26.255-14.573-29.245-29.245H68.266c-4.142,0-7.5-3.358-7.5-7.5S64.124,174.734,68.266,174.734z"/>
	<polygon style="fill:#103B9B;" points="15,371.929 15,375 450,375 450,228.862 	"/>
	<polygon style="fill:#FFFFFF;" points="15,355.888 15,356.138 450,213.072 450,161.842 16.965,354.783 	"/>
	<path d="M465,218.36V98.393c0-0.005,0-0.009,0-0.014V82.5c0-4.142-3.357-7.5-7.5-7.5H7.5C3.358,75,0,78.358,0,82.5v269.103
		c0,0.007,0,0.013,0,0.02v14.969c0,0.014,0,0.028,0,0.042V382.5c0,4.142,3.358,7.5,7.5,7.5h450c4.143,0,7.5-3.358,7.5-7.5V218.423
		C465,218.402,465,218.381,465,218.36z M450,90v4.113l-39.42,22.163c-3.61,2.03-4.891,6.602-2.862,10.213c0,0,0,0,0,0
		c1.376,2.448,3.922,3.826,6.544,3.826c1.244,0,2.507-0.311,3.669-0.964L450,111.321v50.521v51.23L15,356.138v-0.251l1.965-1.104
		l374.817-210.73c3.61-2.03,4.892-6.603,2.862-10.213l0,0c-2.03-3.61-6.603-4.893-10.214-2.862L15,338.679V90H450z M15,375v-3.072
		l435-143.067V375H15z"/>
	<path style="fill:#FF7900;" d="M394.644,133.839c2.029,3.611,0.748,8.184-2.862,10.213L16.965,354.783L450,161.842v-50.521
		l-32.068,18.03c-1.162,0.653-2.425,0.964-3.669,0.964c-2.622,0-5.168-1.377-6.544-3.826c0,0,0,0,0,0L394.644,133.839
		L394.644,133.839z"/>
	<path style="fill:#FFFFFF;" d="M120,204.734c12.407,0,22.5-10.093,22.5-22.5s-10.093-22.5-22.5-22.5s-22.5,10.093-22.5,22.5
		S107.593,204.734,120,204.734z"/>
	<path d="M68.266,189.734h14.989c2.99,14.672,14.573,26.255,29.245,29.245v14.989c0,4.142,3.358,7.5,7.5,7.5s7.5-3.358,7.5-7.5
		V218.98c14.672-2.99,26.255-14.573,29.245-29.245h14.989c4.142,0,7.5-3.358,7.5-7.5s-3.358-7.5-7.5-7.5h-14.989
		c-2.99-14.672-14.573-26.255-29.245-29.245V130.5c0-4.142-3.358-7.5-7.5-7.5s-7.5,3.358-7.5,7.5v14.989
		c-14.672,2.99-26.255,14.573-29.245,29.245H68.266c-4.142,0-7.5,3.358-7.5,7.5S64.124,189.734,68.266,189.734z M120,159.734
		c12.407,0,22.5,10.093,22.5,22.5s-10.093,22.5-22.5,22.5s-22.5-10.093-22.5-22.5S107.593,159.734,120,159.734z"/>
</g>
<g>
</g>
<g>
</g>
<g>
</g>
<g>
</g>
<g>
</g>
<g>
</g>
<g>
</g>
<g>
</g>
<g>
</g>
<g>
</g>
<g>
</g>
<g>
</g>
<g>
</g>
<g>
</g>
<g>
</g>
</svg>
