<?xml version="1.0" encoding="iso-8859-1"?>
<!-- Generator: Adobe Illustrator 19.0.0, SVG Export Plug-In . SVG Version: 6.00 Build 0)  -->
<svg version="1.1" id="Capa_1" xmlns="http://www.w3.org/2000/svg" xmlns:xlink="http://www.w3.org/1999/xlink" x="0px" y="0px"
	 viewBox="0 0 465 465" style="enable-background:new 0 0 465 465;" xml:space="preserve">
<g>
	<path style="fill:#103B9B;" d="M15,195.25h180.25V90H15V195.25z M95.236,135.125h19.778c4.17,0,7.563-3.393,7.563-7.563
		S119.184,120,115.014,120H95.236c-4.142,0-7.5-3.358-7.5-7.5s3.358-7.5,7.5-7.5h19.778c12.441,0,22.563,10.122,22.563,22.563
		s-10.122,22.563-22.563,22.563H95.236c-4.17,0-7.563,3.393-7.563,7.563s3.393,7.563,7.563,7.563h34.84c4.142,0,7.5,3.358,7.5,7.5
		s-3.358,7.5-7.5,7.5h-34.84c-12.441,0-22.563-10.122-22.563-22.563S82.795,135.125,95.236,135.125z"/>
	<path style="fill:#103B9B;" d="M427.5,195.25H450V90H269.75v105.25H397.5c4.142,0,7.5,3.358,7.5,7.5h15
		C420,198.608,423.358,195.25,427.5,195.25z M349.986,165.25h34.84c4.142,0,7.5,3.358,7.5,7.5s-3.358,7.5-7.5,7.5h-34.84
		c-12.441,0-22.563-10.122-22.563-22.563s10.122-22.563,22.563-22.563h19.778c4.17,0,7.563-3.393,7.563-7.563
		S373.934,120,369.764,120h-19.778c-4.142,0-7.5-3.358-7.5-7.5s3.358-7.5,7.5-7.5h19.778c12.441,0,22.563,10.122,22.563,22.563
		s-10.122,22.563-22.563,22.563h-19.778c-4.17,0-7.563,3.393-7.563,7.563S345.816,165.25,349.986,165.25z"/>
	<path style="fill:#103B9B;" d="M195.25,269.75H15V375h180.25V269.75z M130.077,360h-34.84c-12.441,0-22.563-10.122-22.563-22.563
		s10.122-22.563,22.563-22.563h19.778c4.17,0,7.563-3.393,7.563-7.563s-3.393-7.563-7.563-7.563H95.236c-4.142,0-7.5-3.358-7.5-7.5
		s3.358-7.5,7.5-7.5h19.778c12.441,0,22.563,10.122,22.563,22.563s-10.122,22.563-22.563,22.563H95.236
		c-4.17,0-7.563,3.393-7.563,7.563S91.066,345,95.236,345h34.84c4.142,0,7.5,3.358,7.5,7.5S134.219,360,130.077,360z"/>
	<path style="fill:#103B9B;" d="M450,269.75H269.75V375H450V269.75z M349.986,345h34.84c4.142,0,7.5,3.358,7.5,7.5
		s-3.358,7.5-7.5,7.5h-34.84c-12.441,0-22.563-10.122-22.563-22.563s10.122-22.563,22.563-22.563h19.778
		c4.17,0,7.563-3.393,7.563-7.563s-3.393-7.563-7.563-7.563h-19.778c-4.142,0-7.5-3.358-7.5-7.5s3.358-7.5,7.5-7.5h19.778
		c12.441,0,22.563,10.122,22.563,22.563s-10.122,22.563-22.563,22.563h-19.778c-4.17,0-7.563,3.393-7.563,7.563
		S345.816,345,349.986,345z"/>
	<path style="fill:#FFFFFF;" d="M254.75,375V262.25c0-4.142,3.358-7.5,7.5-7.5H450v-44.5h-22.5c-4.142,0-7.5-3.358-7.5-7.5h-15
		c0,4.142-3.358,7.5-7.5,7.5H262.25c-4.142,0-7.5-3.358-7.5-7.5V90h-44.5v112.75c0,4.142-3.358,7.5-7.5,7.5H15v44.5h187.75
		c4.142,0,7.5,3.358,7.5,7.5V375H254.75z"/>
	<path style="fill:#FFFFFF;" d="M130.077,345h-34.84c-4.17,0-7.563-3.393-7.563-7.563s3.393-7.563,7.563-7.563h19.778
		c12.441,0,22.563-10.122,22.563-22.563s-10.122-22.563-22.563-22.563H95.236c-4.142,0-7.5,3.358-7.5,7.5s3.358,7.5,7.5,7.5h19.778
		c4.17,0,7.563,3.393,7.563,7.563s-3.393,7.563-7.563,7.563H95.236c-12.441,0-22.563,10.122-22.563,22.563S82.795,360,95.236,360
		h34.84c4.142,0,7.5-3.358,7.5-7.5S134.219,345,130.077,345z"/>
	<path style="fill:#FFFFFF;" d="M95.236,180.25h34.84c4.142,0,7.5-3.358,7.5-7.5s-3.358-7.5-7.5-7.5h-34.84
		c-4.17,0-7.563-3.393-7.563-7.563s3.393-7.563,7.563-7.563h19.778c12.441,0,22.563-10.122,22.563-22.563S127.455,105,115.014,105
		H95.236c-4.142,0-7.5,3.358-7.5,7.5s3.358,7.5,7.5,7.5h19.778c4.17,0,7.563,3.393,7.563,7.563s-3.393,7.563-7.563,7.563H95.236
		c-12.441,0-22.563,10.122-22.563,22.563S82.795,180.25,95.236,180.25z"/>
	<path style="fill:#FFFFFF;" d="M349.986,329.875h19.778c12.441,0,22.563-10.122,22.563-22.563s-10.122-22.563-22.563-22.563
		h-19.778c-4.142,0-7.5,3.358-7.5,7.5s3.358,7.5,7.5,7.5h19.778c4.17,0,7.563,3.393,7.563,7.563s-3.393,7.563-7.563,7.563h-19.778
		c-12.441,0-22.563,10.122-22.563,22.563S337.545,360,349.986,360h34.84c4.142,0,7.5-3.358,7.5-7.5s-3.358-7.5-7.5-7.5h-34.84
		c-4.17,0-7.563-3.393-7.563-7.563S345.816,329.875,349.986,329.875z"/>
	<path style="fill:#FFFFFF;" d="M349.986,150.125h19.778c12.441,0,22.563-10.122,22.563-22.563S382.205,105,369.764,105h-19.778
		c-4.142,0-7.5,3.358-7.5,7.5s3.358,7.5,7.5,7.5h19.778c4.17,0,7.563,3.393,7.563,7.563s-3.393,7.563-7.563,7.563h-19.778
		c-12.441,0-22.563,10.122-22.563,22.563s10.122,22.563,22.563,22.563h34.84c4.142,0,7.5-3.358,7.5-7.5s-3.358-7.5-7.5-7.5h-34.84
		c-4.17,0-7.563-3.393-7.563-7.563S345.816,150.125,349.986,150.125z"/>
	<path d="M457.5,75H7.5C3.358,75,0,78.358,0,82.5v300c0,4.142,3.358,7.5,7.5,7.5h450c4.142,0,7.5-3.358,7.5-7.5v-300
		C465,78.358,461.642,75,457.5,75z M195.25,195.25H15V90h180.25V195.25z M15,269.75h180.25V375H15V269.75z M202.75,254.75H15v-44.5
		h187.75c4.142,0,7.5-3.358,7.5-7.5V90h44.5v112.75c0,4.142,3.358,7.5,7.5,7.5H397.5c4.142,0,7.5-3.358,7.5-7.5s-3.358-7.5-7.5-7.5
		H269.75V90H450v105.25h-22.5c-4.142,0-7.5,3.358-7.5,7.5s3.358,7.5,7.5,7.5H450v44.5H262.25c-4.142,0-7.5,3.358-7.5,7.5V375h-44.5
		V262.25C210.25,258.108,206.893,254.75,202.75,254.75z M269.75,269.75H450V375H269.75V269.75z"/>
</g>
<g>
</g>
<g>
</g>
<g>
</g>
<g>
</g>
<g>
</g>
<g>
</g>
<g>
</g>
<g>
</g>
<g>
</g>
<g>
</g>
<g>
</g>
<g>
</g>
<g>
</g>
<g>
</g>
<g>
</g>
</svg>
