<?xml version="1.0" encoding="iso-8859-1"?>
<!-- Generator: Adobe Illustrator 19.0.0, SVG Export Plug-In . SVG Version: 6.00 Build 0)  -->
<svg version="1.1" id="Capa_1" xmlns="http://www.w3.org/2000/svg" xmlns:xlink="http://www.w3.org/1999/xlink" x="0px" y="0px"
	 viewBox="0 0 465 465" style="enable-background:new 0 0 465 465;" xml:space="preserve">
<g>
	<path style="fill:#ED1F34;" d="M37.5,150c4.142,0,7.5,3.357,7.5,7.5h15c0-4.143,3.358-7.5,7.5-7.5H450V90H15v60H37.5z"/>
	<path style="fill:#103B9B;" d="M37.5,165H15v60h435v-60H67.5c-4.142,0-7.5-3.357-7.5-7.5H45C45,161.643,41.642,165,37.5,165z"/>
	<rect x="15" y="240" style="fill:#FFE000;" width="435" height="60"/>
	<rect x="15" y="315" style="fill:#259245;" width="435" height="60"/>
	<path d="M457.5,75H7.5C3.358,75,0,78.357,0,82.5v300c0,4.143,3.358,7.5,7.5,7.5h450c4.143,0,7.5-3.357,7.5-7.5v-300
		C465,78.357,461.643,75,457.5,75z M450,90v60H67.5c-4.142,0-7.5,3.357-7.5,7.5s3.358,7.5,7.5,7.5H450v60H15v-60h22.5
		c4.142,0,7.5-3.357,7.5-7.5s-3.358-7.5-7.5-7.5H15V90H450z M450,240v60H15v-60H450z M15,375v-60h435v60H15z"/>
</g>
<g>
</g>
<g>
</g>
<g>
</g>
<g>
</g>
<g>
</g>
<g>
</g>
<g>
</g>
<g>
</g>
<g>
</g>
<g>
</g>
<g>
</g>
<g>
</g>
<g>
</g>
<g>
</g>
<g>
</g>
</svg>
