<?xml version="1.0" encoding="iso-8859-1"?>
<!-- Generator: Adobe Illustrator 19.0.0, SVG Export Plug-In . SVG Version: 6.00 Build 0)  -->
<svg version="1.1" id="Capa_1" xmlns="http://www.w3.org/2000/svg" xmlns:xlink="http://www.w3.org/1999/xlink" x="0px" y="0px"
	 viewBox="0 0 465 465" style="enable-background:new 0 0 465 465;" xml:space="preserve">
<g>
	<path style="fill:#259245;" d="M15,375h435V90H15V375z M189.306,164.887c0.96-2.955,3.643-5.012,6.746-5.173l21.638-1.118
		l7.75-20.234c1.111-2.901,3.896-4.817,7.004-4.817s5.893,1.916,7.004,4.817l7.75,20.234l21.638,1.118
		c3.104,0.161,5.786,2.218,6.746,5.172c0.96,2.955-0.001,6.196-2.417,8.15l-16.849,13.623l5.623,20.925
		c0.807,3-0.321,6.188-2.835,8.014c-2.515,1.826-5.894,1.912-8.498,0.219l-18.162-11.814l-18.162,11.814
		c-1.246,0.81-2.669,1.213-4.09,1.213c-1.55,0-3.097-0.479-4.408-1.433c-2.514-1.826-3.642-5.013-2.835-8.014l5.624-20.924
		l-16.85-13.623C189.307,171.083,188.346,167.842,189.306,164.887z M127.519,171.093c1.424-3.25,4.934-5.058,8.401-4.333
		c3.474,0.724,5.964,3.783,5.969,7.331c0.065,44.272,33.059,82.695,76.745,89.375c3.999,0.612,6.765,4.277,6.309,8.263
		c2.476,0.188,4.977,0.283,7.5,0.283c2.563,0,5.102-0.099,7.615-0.292c-0.461-3.985,2.3-7.654,6.299-8.271
		c44.343-6.834,76.574-44.414,76.641-89.357c0.005-3.547,2.495-6.606,5.969-7.331c3.47-0.723,6.978,1.083,8.401,4.333
		c6.354,14.507,9.575,29.938,9.575,45.861c0,63.136-51.364,114.5-114.5,114.5s-114.5-51.364-114.5-114.5
		C117.943,201.031,121.165,185.601,127.519,171.093z"/>
	<path d="M457.5,75H7.5C3.357,75,0,78.358,0,82.5v300c0,4.142,3.357,7.5,7.5,7.5h450c4.143,0,7.5-3.358,7.5-7.5v-300
		C465,78.358,461.643,75,457.5,75z M450,375H15V90h435V375z"/>
	<path style="fill:#FFE000;" d="M221.797,178.063c2.307,1.865,3.297,4.914,2.527,7.779l-1.808,6.725l5.837-3.797
		c1.243-0.809,2.667-1.213,4.09-1.213s2.847,0.404,4.09,1.213l5.838,3.797l-1.808-6.726c-0.77-2.864,0.221-5.914,2.527-7.778
		l5.415-4.379l-6.954-0.359c-2.963-0.153-5.556-2.038-6.617-4.808l-2.491-6.504l-2.491,6.504c-1.062,2.77-3.654,4.654-6.617,4.808
		l-6.954,0.359L221.797,178.063z"/>
	<path d="M191.723,173.037l16.85,13.623l-5.624,20.924c-0.807,3.001,0.321,6.188,2.835,8.014c1.312,0.953,2.858,1.433,4.408,1.433
		c1.421,0,2.844-0.403,4.09-1.213l18.162-11.814l18.162,11.814c2.604,1.693,5.983,1.606,8.498-0.219
		c2.514-1.827,3.642-5.014,2.835-8.014l-5.623-20.925l16.849-13.623c2.416-1.954,3.377-5.195,2.417-8.15
		c-0.96-2.955-3.643-5.012-6.746-5.172l-21.638-1.118l-7.75-20.234c-1.111-2.901-3.896-4.817-7.004-4.817s-5.893,1.916-7.004,4.817
		l-7.75,20.234l-21.638,1.118c-3.104,0.161-5.786,2.218-6.746,5.173C188.346,167.842,189.307,171.083,191.723,173.037z
		 M229.952,168.518l2.491-6.504l2.491,6.504c1.062,2.77,3.654,4.654,6.617,4.808l6.954,0.359l-5.415,4.379
		c-2.307,1.865-3.297,4.914-2.527,7.778l1.808,6.726l-5.838-3.797c-1.243-0.809-2.667-1.213-4.09-1.213s-2.847,0.404-4.09,1.213
		l-5.837,3.797l1.808-6.725c0.77-2.865-0.221-5.914-2.527-7.779l-5.416-4.379l6.954-0.359
		C226.298,173.172,228.891,171.288,229.952,168.518z"/>
	<path style="fill:#FFE000;" d="M216.366,278.293c-24.65-3.77-47.27-16.272-63.691-35.207c-8.543-9.849-15.115-21.122-19.485-33.201
		c-0.164,2.342-0.246,4.699-0.246,7.068c0,54.865,44.636,99.5,99.5,99.5s99.5-44.635,99.5-99.5c0-2.37-0.082-4.727-0.246-7.07
		c-4.364,12.062-10.924,23.319-19.447,33.157c-16.396,18.924-38.985,31.437-63.607,35.231c-4.097,0.634-7.923-2.176-8.555-6.27
		c-0.015-0.095-0.018-0.189-0.029-0.285c-2.513,0.193-5.052,0.292-7.615,0.292c-2.523,0-5.025-0.096-7.5-0.283
		c-0.011,0.095-0.014,0.19-0.029,0.285C224.288,276.108,220.464,278.92,216.366,278.293z"/>
	<path d="M232.443,331.455c63.136,0,114.5-51.364,114.5-114.5c0-15.923-3.222-31.354-9.575-45.861
		c-1.424-3.25-4.932-5.056-8.401-4.333c-3.474,0.724-5.964,3.783-5.969,7.331c-0.066,44.943-32.298,82.523-76.641,89.357
		c-3.999,0.616-6.76,4.286-6.299,8.271c0.011,0.095,0.015,0.189,0.029,0.285c0.632,4.094,4.458,6.904,8.555,6.27
		c24.622-3.795,47.211-16.307,63.607-35.231c8.523-9.838,15.083-21.096,19.447-33.157c0.164,2.343,0.246,4.7,0.246,7.07
		c0,54.865-44.636,99.5-99.5,99.5s-99.5-44.635-99.5-99.5c0-2.37,0.082-4.727,0.246-7.068c4.37,12.079,10.942,23.352,19.485,33.201
		c16.422,18.934,39.041,31.437,63.691,35.207c4.098,0.627,7.922-2.185,8.548-6.28c0.015-0.095,0.018-0.19,0.029-0.285
		c0.456-3.985-2.31-7.651-6.309-8.263c-43.687-6.68-76.68-45.103-76.745-89.375c-0.005-3.547-2.495-6.606-5.969-7.331
		c-3.468-0.725-6.978,1.083-8.401,4.333c-6.354,14.507-9.575,29.938-9.575,45.861C117.943,280.09,169.308,331.455,232.443,331.455z"
		/>
</g>
<g>
</g>
<g>
</g>
<g>
</g>
<g>
</g>
<g>
</g>
<g>
</g>
<g>
</g>
<g>
</g>
<g>
</g>
<g>
</g>
<g>
</g>
<g>
</g>
<g>
</g>
<g>
</g>
<g>
</g>
</svg>
