<?xml version="1.0" encoding="iso-8859-1"?>
<!-- Generator: Adobe Illustrator 19.0.0, SVG Export Plug-In . SVG Version: 6.00 Build 0)  -->
<svg version="1.1" id="Capa_1" xmlns="http://www.w3.org/2000/svg" xmlns:xlink="http://www.w3.org/1999/xlink" x="0px" y="0px"
	 viewBox="0 0 465 465" style="enable-background:new 0 0 465 465;" xml:space="preserve">
<g>
	<path style="fill:#3DB4EA;" d="M67.5,90H15v285h435V90H97.5c-4.142,0-7.5-3.357-7.5-7.5H75C75,86.643,71.642,90,67.5,90z
		 M295,210.5c0-4.143,3.357-7.5,7.5-7.5h9.35c4.143,0,7.5,3.357,7.5,7.5c0,3.143-1.934,5.829-4.675,6.945v67.776
		c2.741,1.116,4.675,3.803,4.675,6.945c0,4.143-3.357,7.5-7.5,7.5h-9.35c-4.143,0-7.5-3.357-7.5-7.5
		c0-3.143,1.934-5.829,4.675-6.945v-67.776C296.934,216.329,295,213.643,295,210.5z M186.325,161v-13.167c0-4.143,3.358-7.5,7.5-7.5
		s7.5,3.357,7.5,7.5v3.236L225,144.336V141c0-4.143,3.358-7.5,7.5-7.5c4.143,0,7.5,3.357,7.5,7.5v3.336l23.675,6.733v-3.236
		c0-4.143,3.357-7.5,7.5-7.5s7.5,3.357,7.5,7.5V161v21c0,4.143-3.357,7.5-7.5,7.5h-77.35c-4.142,0-7.5-3.357-7.5-7.5V161z
		 M180.325,210.5c0-4.143,3.358-7.5,7.5-7.5h89.35c4.143,0,7.5,3.357,7.5,7.5v68.825c0,28.77-23.405,52.175-52.175,52.175
		c-28.769,0-52.175-23.405-52.175-52.175V210.5z M145.651,210.5c0-4.143,3.358-7.5,7.5-7.5h9.349c4.142,0,7.5,3.357,7.5,7.5
		c0,3.142-1.934,5.829-4.675,6.945v67.776c2.741,1.116,4.675,3.803,4.675,6.945c0,4.143-3.358,7.5-7.5,7.5h-9.349
		c-4.142,0-7.5-3.357-7.5-7.5c0-3.142,1.934-5.829,4.674-6.945v-67.777C147.585,216.329,145.651,213.642,145.651,210.5z"/>
	<path style="fill:#ED1F34;" d="M232.5,316.5c20.498,0,37.175-16.677,37.175-37.175V218h-74.35v61.325
		C195.325,299.823,212.002,316.5,232.5,316.5z M212.825,235.5h39.35v43.825c0,10.849-8.826,19.675-19.675,19.675
		s-19.675-8.826-19.675-19.675V235.5z"/>
	<path style="fill:#3DB4EA;" d="M232.5,299c10.849,0,19.675-8.826,19.675-19.675V235.5h-39.35v43.825
		C212.825,290.174,221.651,299,232.5,299z"/>
	<path d="M232.5,331.5c28.77,0,52.175-23.405,52.175-52.175V210.5c0-4.143-3.357-7.5-7.5-7.5h-89.35c-4.142,0-7.5,3.357-7.5,7.5
		v68.825C180.325,308.095,203.731,331.5,232.5,331.5z M195.325,218h74.35v61.325c0,20.498-16.677,37.175-37.175,37.175
		s-37.175-16.677-37.175-37.175V218z"/>
	<polygon style="fill:#F2A643;" points="201.325,174.5 263.675,174.5 263.675,166.664 232.5,157.798 201.325,166.664 	"/>
	<path d="M193.825,189.5h77.35c4.143,0,7.5-3.357,7.5-7.5v-21v-13.167c0-4.143-3.357-7.5-7.5-7.5s-7.5,3.357-7.5,7.5v3.236
		L240,144.336V141c0-4.143-3.357-7.5-7.5-7.5c-4.142,0-7.5,3.357-7.5,7.5v3.336l-23.675,6.733v-3.236c0-4.143-3.358-7.5-7.5-7.5
		s-7.5,3.357-7.5,7.5V161v21C186.325,186.143,189.683,189.5,193.825,189.5z M232.5,157.798l31.175,8.866v7.836h-62.35v-7.836
		L232.5,157.798z"/>
	<path style="fill:#333333;" d="M145.651,292.167c0,4.143,3.358,7.5,7.5,7.5h9.349c4.142,0,7.5-3.357,7.5-7.5
		c0-3.142-1.934-5.829-4.675-6.945v-67.776c2.741-1.116,4.675-3.803,4.675-6.945c0-4.143-3.358-7.5-7.5-7.5h-9.349
		c-4.142,0-7.5,3.357-7.5,7.5c0,3.142,1.934,5.829,4.674,6.945v67.777C147.585,286.338,145.651,289.025,145.651,292.167z"/>
	<path style="fill:#333333;" d="M295,292.167c0,4.143,3.357,7.5,7.5,7.5h9.35c4.143,0,7.5-3.357,7.5-7.5
		c0-3.143-1.934-5.829-4.675-6.945v-67.776c2.741-1.116,4.675-3.803,4.675-6.945c0-4.143-3.357-7.5-7.5-7.5h-9.35
		c-4.143,0-7.5,3.357-7.5,7.5c0,3.143,1.934,5.829,4.675,6.945v67.776C296.934,286.338,295,289.024,295,292.167z"/>
	<path d="M457.5,75h-360c-4.142,0-7.5,3.357-7.5,7.5s3.358,7.5,7.5,7.5H450v285H15V90h52.5c4.142,0,7.5-3.357,7.5-7.5
		S71.642,75,67.5,75h-60C3.358,75,0,78.357,0,82.5v300c0,4.143,3.358,7.5,7.5,7.5h450c4.143,0,7.5-3.357,7.5-7.5v-300
		C465,78.357,461.643,75,457.5,75z"/>
</g>
<g>
</g>
<g>
</g>
<g>
</g>
<g>
</g>
<g>
</g>
<g>
</g>
<g>
</g>
<g>
</g>
<g>
</g>
<g>
</g>
<g>
</g>
<g>
</g>
<g>
</g>
<g>
</g>
<g>
</g>
</svg>
