<?xml version="1.0" encoding="iso-8859-1"?>
<!-- Generator: Adobe Illustrator 19.0.0, SVG Export Plug-In . SVG Version: 6.00 Build 0)  -->
<svg version="1.1" id="Capa_1" xmlns="http://www.w3.org/2000/svg" xmlns:xlink="http://www.w3.org/1999/xlink" x="0px" y="0px"
	 viewBox="0 0 465 465" style="enable-background:new 0 0 465 465;" xml:space="preserve">
<g>
	<path style="fill:#3DB4EA;" d="M15,142.5V375h435V90H15v22.5c0,4.142-3.358,7.5-7.5,7.5v15C11.642,135,15,138.358,15,142.5z
		 M280.213,215.794c-1.694-2.604-1.607-5.984,0.22-8.498c1.826-2.514,5.015-3.64,8.014-2.835l19.246,5.172l12.53-15.497
		c1.954-2.416,5.195-3.375,8.149-2.417c2.955,0.96,5.012,3.643,5.173,6.746l1.028,19.902l18.61,7.128
		c2.901,1.111,4.817,3.897,4.817,7.004s-1.916,5.893-4.817,7.004l-18.61,7.128l-1.028,19.902c-0.161,3.103-2.218,5.786-5.173,6.746
		c-0.762,0.248-1.543,0.368-2.316,0.368c-2.225,0-4.383-0.992-5.833-2.785l-12.53-15.497l-19.246,5.172
		c-3.001,0.806-6.188-0.321-8.014-2.835c-1.827-2.514-1.914-5.893-0.22-8.498l10.866-16.706L280.213,215.794z M191.72,136.628
		c0.96-2.955,3.643-5.012,6.746-5.173l19.902-1.028l7.128-18.61c1.111-2.901,3.897-4.817,7.004-4.817s5.893,1.916,7.004,4.817
		l7.128,18.61l19.902,1.028c3.103,0.161,5.786,2.218,6.746,5.173c0.96,2.955-0.001,6.196-2.417,8.149l-15.497,12.53l5.172,19.246
		c0.806,3.001-0.321,6.188-2.835,8.014c-1.312,0.953-2.859,1.433-4.409,1.433c-1.421,0-2.843-0.403-4.089-1.213L232.5,173.921
		l-16.706,10.866c-2.605,1.695-5.984,1.607-8.498-0.22c-2.514-1.826-3.641-5.013-2.835-8.014l5.172-19.246l-15.497-12.53
		C191.721,142.824,190.76,139.583,191.72,136.628z M194.138,320.222l15.497-12.53l-5.172-19.246
		c-0.806-3.001,0.321-6.188,2.835-8.014c2.513-1.827,5.893-1.914,8.498-0.22l16.706,10.866l16.706-10.866
		c2.605-1.694,5.985-1.606,8.498,0.22c2.514,1.826,3.641,5.013,2.835,8.014l-5.172,19.246l15.497,12.53
		c2.417,1.954,3.378,5.195,2.417,8.149c-0.96,2.955-3.643,5.012-6.746,5.173l-19.902,1.028l-7.128,18.61
		c-1.111,2.901-3.897,4.817-7.004,4.817s-5.893-1.916-7.004-4.817l-7.128-18.61l-19.902-1.028c-3.103-0.161-5.786-2.218-6.746-5.173
		C190.76,325.417,191.721,322.176,194.138,320.222z M111.817,225.496l18.61-7.128l1.028-19.902c0.161-3.103,2.218-5.786,5.173-6.746
		c2.953-0.959,6.196,0.001,8.149,2.417l12.53,15.497l19.246-5.172c3.001-0.806,6.188,0.321,8.014,2.835
		c1.827,2.514,1.914,5.893,0.22,8.498L173.921,232.5l10.866,16.706c1.694,2.604,1.607,5.984-0.22,8.498
		c-1.826,2.514-5.014,3.641-8.014,2.835l-19.246-5.172l-12.53,15.497c-1.45,1.793-3.608,2.785-5.833,2.785
		c-0.773,0-1.554-0.12-2.316-0.368c-2.955-0.96-5.012-3.643-5.173-6.746l-1.028-19.902l-18.61-7.128
		c-2.901-1.111-4.817-3.897-4.817-7.004S108.916,226.607,111.817,225.496z"/>
	<path d="M457.5,75H7.5C3.358,75,0,78.358,0,82.5v30c0,4.142,3.358,7.5,7.5,7.5s7.5-3.358,7.5-7.5V90h435v285H15V142.5
		c0-4.142-3.358-7.5-7.5-7.5S0,138.358,0,142.5v240c0,4.142,3.358,7.5,7.5,7.5h450c4.142,0,7.5-3.358,7.5-7.5v-300
		C465,78.358,461.642,75,457.5,75z"/>
	<path style="fill:#FFFFFF;" d="M222.859,148.711c2.307,1.865,3.297,4.914,2.528,7.779l-1.356,5.046l4.38-2.849
		c1.243-0.809,2.666-1.213,4.089-1.213s2.846,0.404,4.089,1.213l4.38,2.849l-1.356-5.046c-0.77-2.865,0.221-5.914,2.528-7.779
		l4.063-3.285l-5.218-0.27c-2.962-0.153-5.556-2.038-6.617-4.808l-1.869-4.88l-1.869,4.88c-1.061,2.77-3.655,4.654-6.617,4.808
		l-5.218,0.27L222.859,148.711z"/>
	<path d="M194.138,144.778l15.497,12.53l-5.172,19.246c-0.806,3.001,0.321,6.188,2.835,8.014c2.514,1.827,5.893,1.915,8.498,0.22
		l16.706-10.866l16.706,10.866c1.246,0.81,2.668,1.213,4.089,1.213c1.55,0,3.097-0.479,4.409-1.433
		c2.514-1.826,3.641-5.013,2.835-8.014l-5.172-19.246l15.497-12.53c2.417-1.954,3.378-5.195,2.417-8.149
		c-0.96-2.955-3.643-5.012-6.746-5.173l-19.902-1.028l-7.128-18.61c-1.111-2.901-3.897-4.817-7.004-4.817s-5.893,1.916-7.004,4.817
		l-7.128,18.61l-19.902,1.028c-3.103,0.161-5.786,2.218-6.746,5.173C190.76,139.583,191.721,142.824,194.138,144.778z
		 M230.631,140.349l1.869-4.88l1.869,4.88c1.061,2.77,3.655,4.654,6.617,4.808l5.218,0.27l-4.063,3.285
		c-2.307,1.865-3.297,4.914-2.528,7.779l1.356,5.046l-4.38-2.849c-1.243-0.809-2.666-1.213-4.089-1.213s-2.846,0.404-4.089,1.213
		l-4.38,2.849l1.356-5.046c0.77-2.865-0.221-5.914-2.528-7.779l-4.063-3.285l5.218-0.27
		C226.976,145.003,229.57,143.119,230.631,140.349z"/>
	<path style="fill:#FFFFFF;" d="M140.349,234.369c2.77,1.061,4.654,3.655,4.808,6.617l0.27,5.218l3.285-4.063
		c1.865-2.307,4.912-3.297,7.779-2.528l5.046,1.356l-2.849-4.38c-1.617-2.486-1.617-5.692,0-8.179l2.849-4.38l-5.046,1.356
		c-2.866,0.769-5.915-0.221-7.779-2.528l-3.285-4.063l-0.27,5.218c-0.153,2.962-2.038,5.556-4.808,6.617l-4.88,1.869
		L140.349,234.369z"/>
	<path d="M111.817,239.504l18.61,7.128l1.028,19.902c0.161,3.103,2.218,5.786,5.173,6.746c0.762,0.248,1.543,0.368,2.316,0.368
		c2.225,0,4.383-0.992,5.833-2.785l12.53-15.497l19.246,5.172c3,0.806,6.188-0.321,8.014-2.835c1.827-2.514,1.914-5.893,0.22-8.498
		L173.921,232.5l10.866-16.706c1.694-2.604,1.607-5.984-0.22-8.498c-1.826-2.514-5.013-3.641-8.014-2.835l-19.246,5.172
		l-12.53-15.497c-1.953-2.417-5.196-3.377-8.149-2.417c-2.955,0.96-5.012,3.643-5.173,6.746l-1.028,19.902l-18.61,7.128
		c-2.901,1.111-4.817,3.897-4.817,7.004S108.916,238.393,111.817,239.504z M145.156,224.014l0.27-5.218l3.285,4.063
		c1.864,2.307,4.913,3.296,7.779,2.528l5.046-1.356l-2.849,4.38c-1.617,2.486-1.617,5.692,0,8.179l2.849,4.38l-5.046-1.356
		c-2.867-0.769-5.914,0.221-7.779,2.528l-3.285,4.063l-0.27-5.218c-0.153-2.962-2.038-5.556-4.808-6.617l-4.88-1.869l4.88-1.869
		C143.119,229.57,145.003,226.976,145.156,224.014z"/>
	<path style="fill:#FFFFFF;" d="M228.411,306.313l-4.38-2.849l1.356,5.046c0.77,2.865-0.221,5.914-2.528,7.779l-4.063,3.285
		l5.218,0.27c2.962,0.153,5.556,2.038,6.617,4.808l1.869,4.88l1.869-4.88c1.061-2.77,3.655-4.654,6.617-4.808l5.218-0.27
		l-4.063-3.285c-2.307-1.865-3.297-4.914-2.528-7.779l1.356-5.046l-4.38,2.849C234.103,307.931,230.897,307.931,228.411,306.313z"/>
	<path d="M198.466,333.544l19.902,1.028l7.128,18.61c1.111,2.901,3.897,4.817,7.004,4.817s5.893-1.916,7.004-4.817l7.128-18.61
		l19.902-1.028c3.103-0.161,5.786-2.218,6.746-5.173c0.96-2.955-0.001-6.196-2.417-8.149l-15.497-12.53l5.172-19.246
		c0.806-3.001-0.321-6.188-2.835-8.014c-2.513-1.826-5.892-1.914-8.498-0.22L232.5,291.079l-16.706-10.866
		c-2.604-1.694-5.984-1.607-8.498,0.22c-2.514,1.826-3.641,5.013-2.835,8.014l5.172,19.246l-15.497,12.53
		c-2.417,1.954-3.378,5.195-2.417,8.149C192.68,331.327,195.363,333.384,198.466,333.544z M240.97,303.464l-1.356,5.046
		c-0.77,2.865,0.221,5.914,2.528,7.779l4.063,3.285l-5.218,0.27c-2.962,0.153-5.556,2.038-6.617,4.808l-1.869,4.88l-1.869-4.88
		c-1.061-2.77-3.655-4.654-6.617-4.808l-5.218-0.27l4.063-3.285c2.307-1.865,3.297-4.914,2.528-7.779l-1.356-5.046l4.38,2.849
		c2.486,1.617,5.692,1.617,8.179,0L240.97,303.464z"/>
	<path style="fill:#FFFFFF;" d="M303.464,224.03l2.849,4.38c1.617,2.486,1.617,5.692,0,8.179l-2.849,4.38l5.046-1.356
		c0.645-0.173,1.299-0.257,1.946-0.257c2.231,0,4.387,0.997,5.833,2.785l3.285,4.063l0.27-5.218
		c0.153-2.962,2.038-5.556,4.808-6.617l4.88-1.869l-4.88-1.869c-2.77-1.061-4.654-3.655-4.808-6.617l-0.27-5.218l-3.285,4.063
		c-1.864,2.307-4.911,3.297-7.779,2.528L303.464,224.03z"/>
	<path d="M280.433,257.703c1.826,2.514,5.013,3.641,8.014,2.835l19.246-5.172l12.53,15.497c1.45,1.793,3.608,2.785,5.833,2.785
		c0.773,0,1.555-0.12,2.316-0.368c2.955-0.96,5.012-3.643,5.173-6.746l1.028-19.902l18.61-7.128
		c2.901-1.111,4.817-3.897,4.817-7.004s-1.916-5.893-4.817-7.004l-18.61-7.128l-1.028-19.902c-0.161-3.103-2.218-5.786-5.173-6.746
		c-2.954-0.958-6.195,0.001-8.149,2.417l-12.53,15.497l-19.246-5.172c-2.999-0.805-6.188,0.321-8.014,2.835
		c-1.827,2.514-1.914,5.893-0.22,8.498l10.866,16.706l-10.866,16.706C278.519,251.81,278.606,255.189,280.433,257.703z
		 M316.289,222.859l3.285-4.063l0.27,5.218c0.153,2.962,2.038,5.556,4.808,6.617l4.88,1.869l-4.88,1.869
		c-2.77,1.061-4.654,3.655-4.808,6.617l-0.27,5.218l-3.285-4.063c-1.445-1.788-3.602-2.785-5.833-2.785
		c-0.647,0-1.302,0.084-1.946,0.257l-5.046,1.356l2.849-4.38c1.617-2.486,1.617-5.692,0-8.179l-2.849-4.38l5.046,1.356
		C311.378,226.156,314.425,225.166,316.289,222.859z"/>
</g>
<g>
</g>
<g>
</g>
<g>
</g>
<g>
</g>
<g>
</g>
<g>
</g>
<g>
</g>
<g>
</g>
<g>
</g>
<g>
</g>
<g>
</g>
<g>
</g>
<g>
</g>
<g>
</g>
<g>
</g>
</svg>
