<?xml version="1.0" encoding="iso-8859-1"?>
<!-- Generator: Adobe Illustrator 19.0.0, SVG Export Plug-In . SVG Version: 6.00 Build 0)  -->
<svg version="1.1" id="Capa_1" xmlns="http://www.w3.org/2000/svg" xmlns:xlink="http://www.w3.org/1999/xlink" x="0px" y="0px"
	 viewBox="0 0 465 465" style="enable-background:new 0 0 465 465;" xml:space="preserve">
<g>
	<path style="fill:#FFE000;" d="M300,375V90H165v202.5c0,4.142-3.357,7.5-7.5,7.5v15c4.143,0,7.5,3.358,7.5,7.5V375H300z
		 M180,213.585c0-12.166,9.897-22.063,22.063-22.063c9.533,0,17.671,6.078,20.747,14.563H225v-18.758h-0.867
		c-4.143,0-7.5-3.358-7.5-7.5s3.357-7.5,7.5-7.5h8.367c4.143,0,7.5,3.358,7.5,7.5v26.258h2.19
		c3.076-8.484,11.214-14.563,20.747-14.563c12.165,0,22.063,9.897,22.063,22.063v62.002c0,3.009-1.798,5.727-4.567,6.903
		c-0.945,0.402-1.942,0.597-2.931,0.597c-1.906,0-3.782-0.726-5.209-2.102l-25.186-24.292L240,260.513v24.66
		c0,4.142-3.357,7.5-7.5,7.5s-7.5-3.358-7.5-7.5v-24.66l-7.107-3.818l-25.186,24.292c-1.427,1.375-3.303,2.102-5.209,2.102
		c-0.988,0-1.985-0.195-2.931-0.597c-2.77-1.176-4.567-3.894-4.567-6.903V213.585z"/>
	<rect x="315" y="90" style="fill:#ED1F34;" width="135" height="285"/>
	<path style="fill:#164FCE;" d="M150,292.5V90H15v285h135v-52.5c0-4.142,3.357-7.5,7.5-7.5v-15C153.357,300,150,296.642,150,292.5z"
		/>
	<path d="M457.5,75H7.5C3.357,75,0,78.358,0,82.5v300c0,4.142,3.357,7.5,7.5,7.5h450c4.143,0,7.5-3.358,7.5-7.5v-300
		C465,78.358,461.643,75,457.5,75z M450,375H315V90h135V375z M157.5,315c-4.143,0-7.5,3.358-7.5,7.5V375H15V90h135v202.5
		c0,4.142,3.357,7.5,7.5,7.5s7.5-3.358,7.5-7.5V90h135v285H165v-52.5C165,318.358,161.643,315,157.5,315z"/>
	<path style="fill:#F2A643;" d="M209.124,213.585c0-3.894-3.168-7.063-7.062-7.063c-3.895,0-7.063,3.168-7.063,7.063v44.349
		l14.124-13.623V213.585z"/>
	<path d="M184.567,282.49c0.945,0.402,1.942,0.597,2.931,0.597c1.906,0,3.782-0.727,5.209-2.102l25.186-24.292l7.107,3.818v24.66
		c0,4.142,3.357,7.5,7.5,7.5s7.5-3.358,7.5-7.5v-24.66l7.107-3.818l25.186,24.292c1.427,1.375,3.303,2.102,5.209,2.102
		c0.988,0,1.985-0.195,2.931-0.597c2.77-1.176,4.567-3.894,4.567-6.903v-62.002c0-12.166-9.897-22.063-22.063-22.063
		c-9.533,0-17.671,6.078-20.747,14.563H240v-26.258c0-4.142-3.357-7.5-7.5-7.5h-8.367c-4.143,0-7.5,3.358-7.5,7.5s3.357,7.5,7.5,7.5
		H225v18.758h-2.19c-3.076-8.484-11.214-14.563-20.747-14.563c-12.165,0-22.063,9.897-22.063,22.063v62.002
		C180,278.596,181.798,281.314,184.567,282.49z M195,213.585c0-3.894,3.168-7.063,7.063-7.063c3.894,0,7.062,3.168,7.062,7.063
		v30.726L195,257.934V213.585z M270,213.585v44.349l-14.124-13.623v-30.726c0-3.894,3.168-7.063,7.062-7.063
		C266.832,206.523,270,209.691,270,213.585z M240.876,243.014l-8.376,4.5l-8.376-4.5v-21.928h16.752V243.014z"/>
	<path style="fill:#F2A643;" d="M255.876,213.585v30.726L270,257.934v-44.349c0-3.894-3.168-7.063-7.063-7.063
		C259.044,206.523,255.876,209.691,255.876,213.585z"/>
	<polygon style="fill:#ED1F34;" points="224.124,221.085 224.124,243.014 232.5,247.514 240.876,243.014 240.876,221.085 	"/>
</g>
<g>
</g>
<g>
</g>
<g>
</g>
<g>
</g>
<g>
</g>
<g>
</g>
<g>
</g>
<g>
</g>
<g>
</g>
<g>
</g>
<g>
</g>
<g>
</g>
<g>
</g>
<g>
</g>
<g>
</g>
</svg>
