<?xml version="1.0" encoding="iso-8859-1"?>
<!-- Generator: Adobe Illustrator 19.0.0, SVG Export Plug-In . SVG Version: 6.00 Build 0)  -->
<svg version="1.1" id="Capa_1" xmlns="http://www.w3.org/2000/svg" xmlns:xlink="http://www.w3.org/1999/xlink" x="0px" y="0px"
	 viewBox="0 0 465 465" style="enable-background:new 0 0 465 465;" xml:space="preserve">
<g>
	<path style="fill:#ED1F34;" d="M427.5,225H450V90H15v135h382.5c4.142,0,7.5,3.358,7.5,7.5h15C420,228.358,423.358,225,427.5,225z"
		/>
	<path style="fill:#FFFFFF;" d="M427.5,240c-4.142,0-7.5-3.358-7.5-7.5h-15c0,4.142-3.358,7.5-7.5,7.5H15v135h435V240H427.5z"/>
	<path d="M457.5,75H7.5C3.358,75,0,78.358,0,82.5v300c0,4.142,3.358,7.5,7.5,7.5h450c4.142,0,7.5-3.358,7.5-7.5v-300
		C465,78.358,461.642,75,457.5,75z M15,375V240h382.5c4.142,0,7.5-3.358,7.5-7.5s-3.358-7.5-7.5-7.5H15V90h435v135h-22.5
		c-4.142,0-7.5,3.358-7.5,7.5s3.358,7.5,7.5,7.5H450v135H15z"/>
</g>
<g>
</g>
<g>
</g>
<g>
</g>
<g>
</g>
<g>
</g>
<g>
</g>
<g>
</g>
<g>
</g>
<g>
</g>
<g>
</g>
<g>
</g>
<g>
</g>
<g>
</g>
<g>
</g>
<g>
</g>
</svg>
