<?xml version="1.0" encoding="iso-8859-1"?>
<!-- Generator: Adobe Illustrator 19.0.0, SVG Export Plug-In . SVG Version: 6.00 Build 0)  -->
<svg version="1.1" id="Capa_1" xmlns="http://www.w3.org/2000/svg" xmlns:xlink="http://www.w3.org/1999/xlink" x="0px" y="0px"
	 viewBox="0 0 465 465" style="enable-background:new 0 0 465 465;" xml:space="preserve">
<g>
	<path style="fill:#103B9B;" d="M300,322.5V90H165v285h135v-22.5c0-4.143,3.358-7.5,7.5-7.5v-15C303.358,330,300,326.643,300,322.5z
		"/>
	<path style="fill:#ED1F34;" d="M315,322.5c0,4.143-3.358,7.5-7.5,7.5v15c4.142,0,7.5,3.357,7.5,7.5V375h135V90H315V322.5z"/>
	<path style="fill:#ED1F34;" d="M150,90H15v285h135V90z M75,139.565c0-4.143,3.358-7.5,7.5-7.5s7.5,3.357,7.5,7.5v9.271
		c0,4.143-3.358,7.5-7.5,7.5s-7.5-3.357-7.5-7.5V139.565z M82.5,166.337c9.925,0,18,8.075,18,18s-8.075,18-18,18s-18-8.075-18-18
		S72.575,166.337,82.5,166.337z M50,325.435c0,4.143-3.358,7.5-7.5,7.5s-7.5-3.357-7.5-7.5v-80.473c0-4.143,3.358-7.5,7.5-7.5
		s7.5,3.357,7.5,7.5V325.435z M97.5,332.337h-30c-4.142,0-7.5-3.357-7.5-7.5s3.358-7.5,7.5-7.5h30c4.142,0,7.5,3.357,7.5,7.5
		S101.642,332.337,97.5,332.337z M82.5,307.337c-12.407,0-22.5-10.094-22.5-22.5s10.093-22.5,22.5-22.5s22.5,10.094,22.5,22.5
		S94.907,307.337,82.5,307.337z M97.5,252.336h-30c-4.142,0-7.5-3.357-7.5-7.5s3.358-7.5,7.5-7.5h30c4.142,0,7.5,3.357,7.5,7.5
		S101.642,252.336,97.5,252.336z M82.5,227.336c-18.946,0-35.913-12.698-41.261-30.881c-1.169-3.974,1.105-8.143,5.079-9.312
		c3.973-1.169,8.143,1.105,9.312,5.079c3.483,11.843,14.532,20.113,26.87,20.113s23.388-8.271,26.871-20.113
		c1.168-3.975,5.338-6.249,9.312-5.079c3.974,1.169,6.248,5.338,5.079,9.312C118.414,214.638,101.446,227.336,82.5,227.336z
		 M122.5,332.935c-4.142,0-7.5-3.357-7.5-7.5v-80.473c0-4.143,3.358-7.5,7.5-7.5s7.5,3.357,7.5,7.5v80.473
		C130,329.577,126.642,332.935,122.5,332.935z"/>
	<path d="M457.5,75H7.5C3.358,75,0,78.357,0,82.5v300c0,4.143,3.358,7.5,7.5,7.5h450c4.142,0,7.5-3.357,7.5-7.5v-300
		C465,78.357,461.642,75,457.5,75z M450,375H315v-22.5c0-4.143-3.358-7.5-7.5-7.5s-7.5,3.357-7.5,7.5V375H165V90h135v232.5
		c0,4.143,3.358,7.5,7.5,7.5s7.5-3.357,7.5-7.5V90h135V375z M15,90h135v285H15V90z"/>
	<path style="fill:#FFE000;" d="M118.682,187.144c-3.974-1.17-8.143,1.104-9.312,5.079c-3.483,11.843-14.533,20.113-26.871,20.113
		s-23.387-8.271-26.87-20.113c-1.168-3.974-5.338-6.248-9.312-5.079c-3.974,1.169-6.248,5.338-5.079,9.312
		c5.348,18.183,22.315,30.881,41.261,30.881c18.946,0,35.914-12.698,41.261-30.881C124.93,192.481,122.656,188.313,118.682,187.144z
		"/>
	<path style="fill:#FFE000;" d="M82.5,202.337c9.925,0,18-8.075,18-18s-8.075-18-18-18s-18,8.075-18,18S72.575,202.337,82.5,202.337
		z"/>
	<path style="fill:#FFE000;" d="M122.5,237.462c-4.142,0-7.5,3.357-7.5,7.5v80.473c0,4.143,3.358,7.5,7.5,7.5s7.5-3.357,7.5-7.5
		v-80.473C130,240.819,126.642,237.462,122.5,237.462z"/>
	<path style="fill:#FFE000;" d="M42.5,237.462c-4.142,0-7.5,3.357-7.5,7.5v80.473c0,4.143,3.358,7.5,7.5,7.5s7.5-3.357,7.5-7.5
		v-80.473C50,240.819,46.642,237.462,42.5,237.462z"/>
	<path style="fill:#FFE000;" d="M82.5,156.337c4.142,0,7.5-3.357,7.5-7.5v-9.271c0-4.143-3.358-7.5-7.5-7.5s-7.5,3.357-7.5,7.5
		v9.271C75,152.979,78.358,156.337,82.5,156.337z"/>
	<path style="fill:#FFE000;" d="M82.5,262.337c-12.407,0-22.5,10.094-22.5,22.5s10.093,22.5,22.5,22.5s22.5-10.094,22.5-22.5
		S94.907,262.337,82.5,262.337z"/>
	<path style="fill:#FFE000;" d="M97.5,317.337h-30c-4.142,0-7.5,3.357-7.5,7.5s3.358,7.5,7.5,7.5h30c4.142,0,7.5-3.357,7.5-7.5
		S101.642,317.337,97.5,317.337z"/>
	<path style="fill:#FFE000;" d="M97.5,237.336h-30c-4.142,0-7.5,3.357-7.5,7.5s3.358,7.5,7.5,7.5h30c4.142,0,7.5-3.357,7.5-7.5
		S101.642,237.336,97.5,237.336z"/>
</g>
<g>
</g>
<g>
</g>
<g>
</g>
<g>
</g>
<g>
</g>
<g>
</g>
<g>
</g>
<g>
</g>
<g>
</g>
<g>
</g>
<g>
</g>
<g>
</g>
<g>
</g>
<g>
</g>
<g>
</g>
</svg>
