<?xml version="1.0" encoding="iso-8859-1"?>
<!-- Generator: Adobe Illustrator 19.0.0, SVG Export Plug-In . SVG Version: 6.00 Build 0)  -->
<svg version="1.1" id="Capa_1" xmlns="http://www.w3.org/2000/svg" xmlns:xlink="http://www.w3.org/1999/xlink" x="0px" y="0px"
	 viewBox="0 0 465 465" style="enable-background:new 0 0 465 465;" xml:space="preserve">
<g>
	<path style="fill:#FFE000;" d="M37.5,90H15v285h435V90H67.5c-4.143,0-7.5-3.358-7.5-7.5H45C45,86.642,41.643,90,37.5,90z
		 M427.5,112.5v240h-390v-240H427.5z"/>
	<path style="fill:#ED1F34;" d="M37.5,352.5h390v-240h-390V352.5z M140.864,177.407h10h46.47c4.143,0,7.5,3.358,7.5,7.5
		c0,7.654,3.126,14.591,8.166,19.605v-42.918h-4.5c-4.143,0-7.5-3.358-7.5-7.5s3.357-7.5,7.5-7.5h12c4.143,0,7.5,3.358,7.5,7.5
		v58.108c1.465,0.241,2.967,0.372,4.5,0.372s3.035-0.131,4.5-0.372v-58.108c0-4.142,3.357-7.5,7.5-7.5h12c4.143,0,7.5,3.358,7.5,7.5
		s-3.357,7.5-7.5,7.5H252v42.918c5.04-5.014,8.166-11.951,8.166-19.605c0-4.142,3.357-7.5,7.5-7.5h46.47h10
		c4.143,0,7.5,3.358,7.5,7.5s-3.357,7.5-7.5,7.5h-2.816c-3.004,35.98-27.425,66.457-61.52,77.359
		c1.854,3.952,2.845,8.305,2.845,12.785v28.355c0,4.142-3.357,7.5-7.5,7.5h-45.289c-4.143,0-7.5-3.358-7.5-7.5v-28.355
		c0-4.48,0.991-8.833,2.845-12.785c-34.095-10.902-58.516-41.379-61.52-77.359h-2.816c-4.143,0-7.5-3.358-7.5-7.5
		S136.722,177.407,140.864,177.407z"/>
	<path d="M457.5,75h-390c-4.143,0-7.5,3.358-7.5,7.5s3.357,7.5,7.5,7.5H450v285H15V90h22.5c4.143,0,7.5-3.358,7.5-7.5
		S41.643,75,37.5,75h-30C3.357,75,0,78.358,0,82.5v300c0,4.142,3.357,7.5,7.5,7.5h450c4.143,0,7.5-3.358,7.5-7.5v-300
		C465,78.358,461.643,75,457.5,75z"/>
	<path style="fill:#FFE000;" d="M219.268,257.84c2.861,0.516,5.167,2.639,5.917,5.449c0.749,2.81-0.193,5.799-2.419,7.671
		c-3.438,2.893-5.41,7.118-5.41,11.591v20.855h30.289v-20.855c0-4.473-1.972-8.698-5.41-11.591
		c-2.226-1.872-3.168-4.861-2.419-7.671c0.75-2.81,3.056-4.933,5.917-5.449c32.805-5.91,57.247-32.833,60.528-65.433h-31.755
		c-3.555,19.961-21.038,35.166-42.006,35.166s-38.451-15.205-42.006-35.166h-31.755C162.021,225.007,186.463,251.93,219.268,257.84z
		"/>
	<path d="M140.864,192.407h2.816c3.004,35.98,27.425,66.457,61.52,77.359c-1.854,3.952-2.845,8.305-2.845,12.785v28.355
		c0,4.142,3.357,7.5,7.5,7.5h45.289c4.143,0,7.5-3.358,7.5-7.5v-28.355c0-4.48-0.991-8.833-2.845-12.785
		c34.095-10.902,58.516-41.379,61.52-77.359h2.816c4.143,0,7.5-3.358,7.5-7.5s-3.357-7.5-7.5-7.5h-10h-46.47
		c-4.143,0-7.5,3.358-7.5,7.5c0,7.654-3.126,14.591-8.166,19.605v-42.918h4.5c4.143,0,7.5-3.358,7.5-7.5s-3.357-7.5-7.5-7.5h-12
		c-4.143,0-7.5,3.358-7.5,7.5v58.108c-1.465,0.241-2.967,0.372-4.5,0.372s-3.035-0.131-4.5-0.372v-58.108c0-4.142-3.357-7.5-7.5-7.5
		h-12c-4.143,0-7.5,3.358-7.5,7.5s3.357,7.5,7.5,7.5h4.5v42.918c-5.04-5.014-8.166-11.951-8.166-19.605c0-4.142-3.357-7.5-7.5-7.5
		h-46.47h-10c-4.143,0-7.5,3.358-7.5,7.5S136.722,192.407,140.864,192.407z M190.494,192.407
		c3.555,19.961,21.038,35.166,42.006,35.166s38.451-15.205,42.006-35.166h31.755c-3.281,32.601-27.724,59.523-60.528,65.433
		c-2.861,0.516-5.167,2.639-5.917,5.449c-0.749,2.81,0.193,5.799,2.419,7.671c3.438,2.893,5.41,7.118,5.41,11.591v20.855h-30.289
		v-20.855c0-4.473,1.972-8.698,5.41-11.591c2.226-1.872,3.168-4.861,2.419-7.671c-0.75-2.81-3.056-4.933-5.917-5.449
		c-32.805-5.91-57.247-32.833-60.528-65.433H190.494z"/>
</g>
<g>
</g>
<g>
</g>
<g>
</g>
<g>
</g>
<g>
</g>
<g>
</g>
<g>
</g>
<g>
</g>
<g>
</g>
<g>
</g>
<g>
</g>
<g>
</g>
<g>
</g>
<g>
</g>
<g>
</g>
</svg>
