<?xml version="1.0" encoding="iso-8859-1"?>
<!-- Generator: Adobe Illustrator 19.0.0, SVG Export Plug-In . SVG Version: 6.00 Build 0)  -->
<svg version="1.1" id="Capa_1" xmlns="http://www.w3.org/2000/svg" xmlns:xlink="http://www.w3.org/1999/xlink" x="0px" y="0px"
	 viewBox="0 0 465 465" style="enable-background:new 0 0 465 465;" xml:space="preserve">
<g>
	<polygon style="fill:#103B9B;" points="99.75,90 55.256,90 99.75,119.663 	"/>
	<polygon style="fill:#103B9B;" points="15,111.837 15,137.25 53.119,137.25 	"/>
	<polygon style="fill:#103B9B;" points="184.744,90 140.25,90 140.25,119.663 	"/>
	<polygon style="fill:#103B9B;" points="15,177.75 15,203.163 53.119,177.75 	"/>
	<path style="fill:#103B9B;" d="M450,322.5V90H232.5v16.837l-45.619,30.413H232.5v9.375v21.75v9.375h-45.619l45.619,30.413v8.458
		V232.5h-36.506l-55.744-37.163V232.5h-9.375h-21.75H99.75v-37.163L44.006,232.5H31.837H15V375h435v-22.5c0-4.142,3.357-7.5,7.5-7.5
		v-15C453.357,330,450,326.642,450,322.5z M402.5,235.521c0,30.935-15.149,49.363-27.858,59.375
		c-13.615,10.725-27.268,14.184-27.842,14.326c-0.591,0.146-1.195,0.219-1.8,0.219s-1.209-0.073-1.8-0.219
		c-0.574-0.142-14.227-3.601-27.842-14.326c-12.709-10.012-27.858-28.44-27.858-59.375v-75.345c0-4.142,3.357-7.5,7.5-7.5h100
		c4.143,0,7.5,3.358,7.5,7.5V235.521z"/>
	<polygon style="fill:#FFFFFF;" points="150.375,137.25 140.25,137.25 140.25,127.78 196.914,90 184.744,90 140.25,119.663 
		140.25,90 130.875,90 130.875,146.625 232.5,146.625 232.5,137.25 186.881,137.25 232.5,106.837 232.5,90 221.25,90 	"/>
	<polygon style="fill:#ED1F34;" points="150.375,177.75 232.5,232.5 232.5,216.621 174.331,177.75 	"/>
	<polygon style="fill:#ED1F34;" points="89.625,137.25 18.75,90 15,90 15,103.749 65.132,137.25 	"/>
	<polygon style="fill:#ED1F34;" points="99.75,177.75 89.625,177.75 15,227.5 15,232.5 31.837,232.5 99.75,187.225 	"/>
	<polygon style="fill:#ED1F34;" points="140.25,137.25 150.375,137.25 221.25,90 196.914,90 140.25,127.78 	"/>
	<polygon style="fill:#FFFFFF;" points="109.125,168.375 15,168.375 15,177.75 53.119,177.75 15,203.163 15,227.5 89.625,177.75 
		99.75,177.75 99.75,187.225 31.837,232.5 44.006,232.5 99.75,195.337 99.75,232.5 109.125,232.5 	"/>
	<polygon style="fill:#FFFFFF;" points="109.125,146.625 109.125,90 99.75,90 99.75,119.663 55.256,90 18.75,90 89.625,137.25 
		65.132,137.25 15,103.749 15,111.837 53.119,137.25 15,137.25 15,146.625 	"/>
	<polygon style="fill:#FFFFFF;" points="130.875,168.375 130.875,232.5 140.25,232.5 140.25,195.337 195.994,232.5 232.5,232.5 
		150.375,177.75 174.331,177.75 232.5,216.621 232.5,208.163 186.881,177.75 232.5,177.75 232.5,168.375 	"/>
	<polygon style="fill:#ED1F34;" points="130.875,146.625 130.875,90 109.125,90 109.125,146.625 15,146.625 15,168.375 
		109.125,168.375 109.125,232.5 130.875,232.5 130.875,168.375 232.5,168.375 232.5,146.625 	"/>
	<path style="fill:#3DB4EA;" d="M326.5,190.175c0-4.142,3.357-7.5,7.5-7.5s7.5,3.358,7.5,7.5v45.345h7v-45.345
		c0-4.142,3.357-7.5,7.5-7.5s7.5,3.358,7.5,7.5v45.345h24l0,0v-67.845h-85v67.845l0,0h24V190.175z"/>
	<path style="fill:#BF2300;" d="M345,294.131c8.454-2.708,42.5-16.25,42.5-58.611h-24v26.421c0,4.142-3.357,7.5-7.5,7.5
		s-7.5-3.358-7.5-7.5v-26.421h-7v26.421c0,4.142-3.357,7.5-7.5,7.5s-7.5-3.358-7.5-7.5v-26.421h-24
		C302.5,277.881,336.546,291.423,345,294.131z"/>
	<path d="M395,152.675H295c-4.143,0-7.5,3.358-7.5,7.5v75.345c0,30.935,15.149,49.363,27.858,59.375
		c13.615,10.725,27.268,14.184,27.842,14.326c0.591,0.146,1.195,0.219,1.8,0.219s1.209-0.073,1.8-0.219
		c0.574-0.142,14.227-3.601,27.842-14.326c12.709-10.012,27.858-28.44,27.858-59.375v-75.345
		C402.5,156.033,399.143,152.675,395,152.675z M302.5,235.521v-67.845h85v67.845l0,0c0,42.361-34.046,55.902-42.5,58.611
		C336.546,291.423,302.5,277.881,302.5,235.521L302.5,235.521z"/>
	<path d="M334,182.675c-4.143,0-7.5,3.358-7.5,7.5v45.345v26.421c0,4.142,3.357,7.5,7.5,7.5s7.5-3.358,7.5-7.5v-26.421v-45.345
		C341.5,186.033,338.143,182.675,334,182.675z"/>
	<path style="fill:#134923;" d="M356,182.675c-4.143,0-7.5,3.358-7.5,7.5v45.345v26.421c0,4.142,3.357,7.5,7.5,7.5
		s7.5-3.358,7.5-7.5v-26.421v-45.345C363.5,186.033,360.143,182.675,356,182.675z"/>
	<path d="M450,352.5V375H15V232.5v-5v-24.337V177.75v-9.375v-21.75v-9.375v-25.413v-8.089V90h3.75h36.506H99.75h9.375h21.75h9.375
		h44.494h12.17h24.336h11.25H450v232.5c0,4.142,3.357,7.5,7.5,7.5s7.5-3.358,7.5-7.5v-240c0-4.142-3.357-7.5-7.5-7.5H7.5
		C3.358,75,0,78.358,0,82.5v300c0,4.142,3.358,7.5,7.5,7.5h450c4.143,0,7.5-3.358,7.5-7.5v-30c0-4.142-3.357-7.5-7.5-7.5
		S450,348.358,450,352.5z"/>
</g>
<g>
</g>
<g>
</g>
<g>
</g>
<g>
</g>
<g>
</g>
<g>
</g>
<g>
</g>
<g>
</g>
<g>
</g>
<g>
</g>
<g>
</g>
<g>
</g>
<g>
</g>
<g>
</g>
<g>
</g>
</svg>
