<?xml version="1.0" encoding="iso-8859-1"?>
<!-- Generator: Adobe Illustrator 19.0.0, SVG Export Plug-In . SVG Version: 6.00 Build 0)  -->
<svg version="1.1" id="Capa_1" xmlns="http://www.w3.org/2000/svg" xmlns:xlink="http://www.w3.org/1999/xlink" x="0px" y="0px"
	 viewBox="0 0 465 465" style="enable-background:new 0 0 465 465;" xml:space="preserve">
<g>
	<polygon style="fill:#ED1F34;" points="257.224,272.865 252.654,258.799 245.259,264.171 	"/>
	<polygon style="fill:#ED1F34;" points="232.499,196.771 227.929,210.836 237.069,210.836 	"/>
	<polygon style="fill:#ED1F34;" points="247.78,243.799 241.943,225.836 223.055,225.836 217.219,243.799 232.499,254.901 	"/>
	<polygon style="fill:#ED1F34;" points="272.504,225.836 257.715,225.836 260.54,234.529 	"/>
	<path style="fill:#ED1F34;" d="M15,352.5V375h435V90H15v232.5c0,4.142-3.358,7.5-7.5,7.5v15C11.642,345,15,348.358,15,352.5z
		 M169.413,210.836h42.744l13.209-40.654c1.004-3.09,3.884-5.182,7.133-5.182s6.129,2.092,7.133,5.182l13.209,40.654h42.746
		c3.249,0,6.129,2.092,7.133,5.183c1.004,3.09-0.096,6.475-2.725,8.385l-34.582,25.125l13.209,40.653
		c1.004,3.09-0.096,6.476-2.725,8.386c-1.314,0.955-2.861,1.432-4.408,1.432s-3.094-0.478-4.408-1.432l-34.583-25.126
		l-34.582,25.125c-2.628,1.91-6.188,1.91-8.816,0c-2.629-1.91-3.729-5.295-2.725-8.385l13.209-40.653l-31.432-22.837
		c-4.541-3.299-6.24-4.534-6.24-8.355C161.913,214.194,165.271,210.836,169.413,210.836z"/>
	<polygon style="fill:#ED1F34;" points="212.345,258.799 207.774,272.864 219.739,264.171 	"/>
	<path style="fill:#ED1F34;" d="M207.283,225.836h-14.788c3.66,2.659,7.698,5.593,11.964,8.692L207.283,225.836z"/>
	<path d="M457.5,75H7.5C3.358,75,0,78.358,0,82.5v240c0,4.142,3.358,7.5,7.5,7.5s7.5-3.358,7.5-7.5V90h435v285H15v-22.5
		c0-4.142-3.358-7.5-7.5-7.5S0,348.358,0,352.5v30c0,4.142,3.358,7.5,7.5,7.5h450c4.142,0,7.5-3.358,7.5-7.5v-300
		C465,78.358,461.642,75,457.5,75z"/>
	<path style="fill:#134923;" d="M168.153,226.691l31.432,22.837l-13.209,40.653c-1.004,3.09,0.096,6.476,2.725,8.385
		c2.628,1.91,6.188,1.91,8.816,0l34.582-25.125l34.583,25.126c1.314,0.955,2.861,1.432,4.408,1.432s3.094-0.478,4.408-1.432
		c2.629-1.91,3.729-5.295,2.725-8.386l-13.209-40.653l34.582-25.125c2.629-1.91,3.729-5.295,2.725-8.385
		c-1.004-3.09-3.884-5.183-7.133-5.183h-42.746l-13.209-40.654c-1.004-3.09-3.884-5.182-7.133-5.182s-6.129,2.092-7.133,5.182
		l-13.209,40.654h-42.744c-4.142,0-7.5,3.358-7.5,7.5C161.913,222.157,163.612,223.392,168.153,226.691z M272.504,225.836
		l-11.964,8.693l-2.825-8.693H272.504z M257.224,272.865l-11.965-8.693l7.395-5.372L257.224,272.865z M232.499,196.771l4.57,14.065
		h-9.141L232.499,196.771z M223.055,225.836h18.888l5.837,17.963l-15.281,11.102l-15.28-11.102L223.055,225.836z M212.345,258.799
		l7.395,5.373l-11.965,8.693L212.345,258.799z M207.283,225.836l-2.824,8.692c-4.266-3.099-8.304-6.033-11.964-8.692H207.283z"/>
</g>
<g>
</g>
<g>
</g>
<g>
</g>
<g>
</g>
<g>
</g>
<g>
</g>
<g>
</g>
<g>
</g>
<g>
</g>
<g>
</g>
<g>
</g>
<g>
</g>
<g>
</g>
<g>
</g>
<g>
</g>
</svg>
