<?xml version="1.0" encoding="iso-8859-1"?>
<!-- Generator: Adobe Illustrator 19.0.0, SVG Export Plug-In . SVG Version: 6.00 Build 0)  -->
<svg version="1.1" id="Capa_1" xmlns="http://www.w3.org/2000/svg" xmlns:xlink="http://www.w3.org/1999/xlink" x="0px" y="0px"
	 viewBox="0 0 465 465" style="enable-background:new 0 0 465 465;" xml:space="preserve">
<g>
	<path style="fill:#333333;" d="M236.66,226.259c2.086,1.391,3.34,3.732,3.34,6.24s-1.253,4.85-3.34,6.24L182.271,275H450v-85
		H182.271L236.66,226.259z"/>
	<polygon style="fill:#FFE000;" points="32.271,375 450,375 450,290 159.771,290 	"/>
	<path style="fill:#048B7D;" d="M397.5,90H32.271l127.5,85H450V90h-22.5c-4.142,0-7.5-3.357-7.5-7.5h-15
		C405,86.642,401.642,90,397.5,90z"/>
	<polygon style="fill:#FFFFFF;" points="159.771,290 450,290 450,275 182.271,275 	"/>
	<polygon style="fill:#FFFFFF;" points="182.271,190 450,190 450,175 159.771,175 	"/>
	<polygon style="fill:#ED1F34;" points="52,209.607 46.989,214.618 56.519,214.126 	"/>
	<path style="fill:#ED1F34;" d="M15,368.486L218.979,232.5L15,96.513V368.486z M117.657,189.736c2.929-2.928,7.678-2.928,10.606,0
		c2.929,2.93,2.929,7.678,0,10.607l-13.782,13.782L142,215.547L112.5,239.4v9.492l15.763,15.764c2.929,2.93,2.929,7.678,0,10.607
		c-1.464,1.464-3.384,2.196-5.303,2.196c-1.421,0-2.84-0.403-4.076-1.206l1.535,5.714L85.5,259.253l-34.919,22.714l1.535-5.714
		c-1.236,0.803-2.656,1.206-4.076,1.206c-1.919,0-3.839-0.732-5.303-2.196c-2.929-2.93-2.929-7.678,0-10.607L58.5,248.892V239.4
		l-20.162-16.302c-1.287,0.902-2.791,1.361-4.298,1.361c-1.919,0-3.839-0.732-5.303-2.196c-2.929-2.93-2.929-7.678,0-10.607
		l12.835-12.835c-1.682-2.873-1.299-6.62,1.165-9.085c2.929-2.928,7.678-2.928,10.606,0l19.031,19.031l13.126-34.27l13.126,34.27
		L117.657,189.736z"/>
	<path style="fill:#FFE000;" d="M64.891,222.498l-8.372-8.372l-9.53,0.492l-7.645,7.646c-0.314,0.314-0.653,0.588-1.005,0.835
		L58.5,239.4v-16.902H64.891z"/>
	<polygon style="fill:#FFE000;" points="112.5,222.498 112.5,239.4 142,215.547 114.481,214.126 106.109,222.498 	"/>
	<path style="fill:#FFE000;" d="M97.733,255.339H73.267l-19.923,19.924c-0.38,0.381-0.793,0.709-1.227,0.99l-1.535,5.714
		L85.5,259.253l34.919,22.714l-1.535-5.714c-0.434-0.281-0.846-0.609-1.227-0.99L97.733,255.339z"/>
	<polygon style="fill:#FFE000;" points="85.5,174.498 72.374,208.767 85.5,221.892 98.626,208.767 	"/>
	<polygon style="fill:#FFFFFF;" points="106.109,222.498 96.107,232.5 112.5,248.892 112.5,239.4 112.5,222.498 	"/>
	<polygon style="fill:#FFFFFF;" points="74.893,232.5 64.891,222.498 58.5,222.498 58.5,239.4 58.5,248.892 	"/>
	<polygon style="fill:#FFFFFF;" points="85.5,243.107 73.267,255.339 97.733,255.339 	"/>
	<path d="M72.374,208.767l-19.031-19.031c-2.929-2.928-7.678-2.928-10.606,0c-2.464,2.465-2.847,6.212-1.165,9.085l-12.835,12.835
		c-2.929,2.93-2.929,7.678,0,10.607c1.464,1.464,3.384,2.196,5.303,2.196c1.507,0,3.011-0.459,4.298-1.361
		c0.352-0.247,0.691-0.521,1.005-0.835l7.645-7.646L52,209.607l4.519,4.519l8.372,8.372L74.893,232.5L58.5,248.892l-15.763,15.764
		c-2.929,2.93-2.929,7.678,0,10.607c1.464,1.464,3.384,2.196,5.303,2.196c1.421,0,2.84-0.403,4.076-1.206
		c0.434-0.281,0.846-0.609,1.227-0.99l19.923-19.924L85.5,243.107l12.233,12.232l19.923,19.924c0.38,0.381,0.793,0.709,1.227,0.99
		c1.236,0.803,2.656,1.206,4.076,1.206c1.919,0,3.839-0.732,5.303-2.196c2.929-2.93,2.929-7.678,0-10.607L112.5,248.892
		L96.107,232.5l10.002-10.002l8.372-8.372l13.782-13.782c2.929-2.93,2.929-7.678,0-10.607c-2.929-2.928-7.678-2.928-10.606,0
		l-19.031,19.031L85.5,221.892L72.374,208.767z"/>
	<path d="M457.5,75h-30c-4.142,0-7.5,3.357-7.5,7.5s3.358,7.5,7.5,7.5H450v85v15v85v15v85H32.271l127.5-85l22.5-15l54.39-36.26
		c2.086-1.391,3.34-3.732,3.34-6.24s-1.253-4.85-3.34-6.24L182.271,190l-22.5-15l-127.5-85H397.5c4.142,0,7.5-3.357,7.5-7.5
		s-3.358-7.5-7.5-7.5H7.5c-0.003,0-0.006,0-0.009,0c-0.252,0.001-0.503,0.013-0.753,0.038c-0.095,0.01-0.188,0.029-0.282,0.043
		c-0.146,0.021-0.292,0.037-0.436,0.066c-0.163,0.032-0.32,0.077-0.479,0.12c-0.075,0.02-0.152,0.035-0.226,0.058
		c-0.149,0.046-0.292,0.101-0.437,0.155c-0.084,0.031-0.17,0.058-0.253,0.093c-0.121,0.05-0.237,0.108-0.354,0.165
		c-0.104,0.05-0.21,0.096-0.312,0.15C3.87,75.936,3.787,75.991,3.7,76.042c-0.126,0.073-0.253,0.146-0.375,0.228
		c-0.059,0.039-0.115,0.085-0.173,0.126c-0.14,0.101-0.28,0.2-0.414,0.311c-0.043,0.035-0.083,0.075-0.125,0.112
		c-0.141,0.121-0.28,0.242-0.413,0.375c-0.073,0.072-0.138,0.152-0.207,0.228c-0.094,0.102-0.191,0.199-0.28,0.308
		c-0.16,0.193-0.309,0.396-0.449,0.605c-0.001,0.002-0.003,0.004-0.005,0.006c-0.016,0.024-0.028,0.05-0.044,0.074
		c-0.119,0.183-0.232,0.368-0.335,0.562c-0.036,0.068-0.066,0.139-0.1,0.207c-0.074,0.151-0.149,0.302-0.213,0.457
		c-0.041,0.1-0.074,0.201-0.111,0.302c-0.046,0.128-0.095,0.255-0.135,0.386c-0.039,0.128-0.068,0.258-0.099,0.387
		c-0.026,0.107-0.056,0.213-0.078,0.321c-0.032,0.16-0.052,0.321-0.073,0.481c-0.011,0.083-0.026,0.164-0.035,0.247
		c-0.02,0.206-0.028,0.412-0.031,0.619C0.005,82.421,0,82.459,0,82.5v0.023c0,0.01,0,0.019,0,0.028v299.896c0,0.01,0,0.019,0,0.028
		v0.023c0,0.04,0.005,0.078,0.006,0.117c0.003,0.207,0.011,0.413,0.031,0.619c0.008,0.083,0.024,0.164,0.035,0.247
		c0.021,0.16,0.042,0.321,0.073,0.48c0.022,0.109,0.052,0.215,0.078,0.322c0.032,0.129,0.061,0.259,0.099,0.387
		c0.039,0.131,0.088,0.257,0.135,0.385c0.037,0.101,0.069,0.203,0.111,0.303c0.064,0.155,0.138,0.306,0.213,0.456
		c0.034,0.069,0.064,0.14,0.1,0.208c0.103,0.193,0.216,0.379,0.335,0.562c0.016,0.024,0.028,0.05,0.044,0.074
		c0.001,0.002,0.003,0.004,0.004,0.006c0.162,0.241,0.34,0.471,0.528,0.691c0.058,0.069,0.12,0.133,0.181,0.199
		c0.13,0.143,0.265,0.28,0.406,0.412c0.078,0.073,0.155,0.146,0.236,0.215c0.149,0.128,0.304,0.248,0.463,0.364
		c0.067,0.049,0.131,0.102,0.199,0.148c0.226,0.154,0.46,0.295,0.702,0.424c0.059,0.031,0.119,0.057,0.179,0.087
		c0.194,0.097,0.392,0.187,0.595,0.267c0.077,0.03,0.155,0.058,0.233,0.085c0.192,0.068,0.387,0.129,0.586,0.182
		c0.08,0.021,0.159,0.043,0.239,0.062c0.204,0.047,0.411,0.084,0.621,0.113c0.075,0.011,0.15,0.026,0.225,0.034
		c0.258,0.029,0.52,0.046,0.786,0.048c0.021,0,0.042,0.004,0.064,0.004c0.005,0,0.009-0.001,0.014-0.001H457.5
		c4.142,0,7.5-3.357,7.5-7.5v-300C465,78.357,461.642,75,457.5,75z M218.979,232.5L15,368.486V96.513L218.979,232.5z"/>
</g>
<g>
</g>
<g>
</g>
<g>
</g>
<g>
</g>
<g>
</g>
<g>
</g>
<g>
</g>
<g>
</g>
<g>
</g>
<g>
</g>
<g>
</g>
<g>
</g>
<g>
</g>
<g>
</g>
<g>
</g>
</svg>
