<?xml version="1.0" encoding="iso-8859-1"?>
<!-- Generator: Adobe Illustrator 19.0.0, SVG Export Plug-In . SVG Version: 6.00 Build 0)  -->
<svg version="1.1" id="Capa_1" xmlns="http://www.w3.org/2000/svg" xmlns:xlink="http://www.w3.org/1999/xlink" x="0px" y="0px"
	 viewBox="0 0 465 465" style="enable-background:new 0 0 465 465;" xml:space="preserve">
<g>
	<path style="fill:#259245;" d="M258.555,204.557l53.192,2.748c3.103,0.16,5.786,2.217,6.746,5.172
		c0.96,2.955-0.001,6.196-2.417,8.15l-41.417,33.489l7.628,28.384H450v-100H250.107L258.555,204.557z"/>
	<path style="fill:#259245;" d="M190.342,254.116l-41.417-33.489c-2.417-1.954-3.378-5.195-2.417-8.15
		c0.96-2.955,3.643-5.012,6.746-5.172l53.192-2.748l8.448-22.057H15v100h167.714L190.342,254.116z"/>
	<path style="fill:#ED1F34;" d="M93.047,375H450v-92.5H282.286l6.195,23.053c0.806,3.001-0.321,6.188-2.835,8.014
		c-1.312,0.953-2.859,1.432-4.409,1.432c-1.42,0-2.843-0.403-4.089-1.213L232.5,284.745l-44.648,29.042
		c-2.604,1.694-5.984,1.607-8.498-0.219c-2.514-1.826-3.641-5.013-2.835-8.014l6.195-23.053H15V375h42.5c4.142,0,7.5,3.358,7.5,7.5
		h20.547C85.547,378.358,88.905,375,93.047,375z"/>
	<path style="fill:#FFE000;" d="M225.496,154.817c1.111-2.902,3.897-4.817,7.004-4.817s5.893,1.916,7.004,4.817l10.603,27.683H450
		V90H15v92.5h199.893L225.496,154.817z"/>
	<path d="M457.5,75H7.5C3.358,75,0,78.358,0,82.5v300c0,4.142,3.358,7.5,7.5,7.5h50c4.142,0,7.5-3.358,7.5-7.5s-3.358-7.5-7.5-7.5
		H15v-92.5v-100V90h435v92.5v100V375H93.047c-4.142,0-7.5,3.358-7.5,7.5s3.358,7.5,7.5,7.5H457.5c4.142,0,7.5-3.358,7.5-7.5v-300
		C465,78.358,461.642,75,457.5,75z"/>
	<path style="fill:#FFFFFF;" d="M261.433,245.519l29.985-24.244l-38.509-1.99c-2.962-0.153-5.556-2.038-6.617-4.807L232.5,178.469
		l-13.792,36.009c-1.061,2.77-3.655,4.654-6.617,4.807l-38.509,1.99l29.985,24.244c2.306,1.865,3.297,4.914,2.527,7.779
		l-10.007,37.239l32.323-21.025c1.243-0.809,2.666-1.213,4.089-1.213s2.846,0.404,4.089,1.213l32.323,21.025l-10.007-37.239
		C258.136,250.433,259.126,247.384,261.433,245.519z"/>
	<path d="M316.075,220.627c2.417-1.954,3.378-5.195,2.417-8.15c-0.96-2.955-3.643-5.012-6.746-5.172l-53.192-2.748l-8.448-22.057
		l-10.603-27.683c-1.111-2.902-3.897-4.817-7.004-4.817s-5.893,1.916-7.004,4.817L214.893,182.5l-8.448,22.057l-53.192,2.748
		c-3.103,0.16-5.786,2.217-6.746,5.172c-0.96,2.955,0.001,6.196,2.417,8.15l41.417,33.489l-7.628,28.384l-6.195,23.053
		c-0.806,3.001,0.321,6.188,2.835,8.014c2.513,1.826,5.893,1.914,8.498,0.219l44.648-29.042l44.648,29.042
		c1.246,0.81,2.668,1.213,4.089,1.213c1.55,0,3.097-0.479,4.409-1.432c2.514-1.826,3.641-5.013,2.835-8.014l-6.195-23.053
		l-7.628-28.384L316.075,220.627z M268.913,290.536l-32.323-21.025c-1.243-0.809-2.666-1.213-4.089-1.213s-2.846,0.404-4.089,1.213
		l-32.323,21.025l10.007-37.239c0.77-2.865-0.221-5.914-2.527-7.779l-29.985-24.244l38.509-1.99
		c2.962-0.153,5.556-2.038,6.617-4.807l13.792-36.009l13.792,36.009c1.061,2.77,3.655,4.654,6.617,4.807l38.509,1.99l-29.985,24.244
		c-2.306,1.865-3.297,4.914-2.527,7.779L268.913,290.536z"/>
</g>
<g>
</g>
<g>
</g>
<g>
</g>
<g>
</g>
<g>
</g>
<g>
</g>
<g>
</g>
<g>
</g>
<g>
</g>
<g>
</g>
<g>
</g>
<g>
</g>
<g>
</g>
<g>
</g>
<g>
</g>
</svg>
