<?xml version="1.0" encoding="iso-8859-1"?>
<!-- Generator: Adobe Illustrator 19.0.0, SVG Export Plug-In . SVG Version: 6.00 Build 0)  -->
<svg version="1.1" id="Capa_1" xmlns="http://www.w3.org/2000/svg" xmlns:xlink="http://www.w3.org/1999/xlink" x="0px" y="0px"
	 viewBox="0 0 465 465" style="enable-background:new 0 0 465 465;" xml:space="preserve">
<g>
	<path style="fill:#164FCE;" d="M384.13,190h-29.185v25.833c0,4.142-3.358,7.5-7.5,7.5h-29.185v18.333h29.185
		c4.142,0,7.5,3.358,7.5,7.5V275h29.185H450v-85H384.13z"/>
	<path style="fill:#164FCE;" d="M37.5,190H15v85h246.685v-18.333H232.5c-4.142,0-7.5-3.358-7.5-7.5v-33.333
		c0-4.142,3.358-7.5,7.5-7.5h29.185V190H67.5c-4.142,0-7.5-3.358-7.5-7.5H45C45,186.642,41.642,190,37.5,190z"/>
	<path style="fill:#F2A643;" d="M371.739,356.667h-29.185c-4.142,0-7.5-3.358-7.5-7.5v-25.833H305.87c-4.142,0-7.5-3.358-7.5-7.5
		V290h-29.185H15v85h356.739V356.667z"/>
	<path style="fill:#F2A643;" d="M450,341.667V290h-58.37v18.333h29.185c4.142,0,7.5,3.358,7.5,7.5v25.833H450z"/>
	<path style="fill:#ED1F34;" d="M15,175h22.5c4.142,0,7.5,3.358,7.5,7.5h15c0-4.142,3.358-7.5,7.5-7.5h201.685h29.185v-25.833
		c0-4.142,3.358-7.5,7.5-7.5h29.185v-25.833c0-4.142,3.358-7.5,7.5-7.5l29.185,0V90H15V175z"/>
	<path style="fill:#ED1F34;" d="M428.315,123.333v25.833c0,4.142-3.358,7.5-7.5,7.5H391.63V175H450v-51.667H428.315z"/>
	<path style="fill:#FFFFFF;" d="M450,375v-18.333h-29.185c-4.142,0-7.5-3.358-7.5-7.5v-25.833H384.13c-4.142,0-7.5-3.358-7.5-7.5
		V290h-29.185c-4.142,0-7.5-3.358-7.5-7.5v-25.833h-29.185c-4.142,0-7.5-3.358-7.5-7.5v-33.333c0-4.142,3.358-7.5,7.5-7.5h29.185
		V182.5c0-4.142,3.358-7.5,7.5-7.5h29.185v-25.833c0-4.142,3.358-7.5,7.5-7.5h29.185v-25.833c0-4.142,3.358-7.5,7.5-7.5H450V90
		h-63.261v25.833c0,4.142-3.358,7.5-7.5,7.5l-29.185,0v25.833c0,4.142-3.358,7.5-7.5,7.5H313.37V182.5c0,4.142-3.358,7.5-7.5,7.5
		h-29.185v25.833c0,4.142-3.358,7.5-7.5,7.5H240v18.333h29.185c4.142,0,7.5,3.358,7.5,7.5V275h29.185c4.142,0,7.5,3.358,7.5,7.5
		v25.833h29.185c4.142,0,7.5,3.358,7.5,7.5v25.833h29.185c4.142,0,7.5,3.358,7.5,7.5V375H450z"/>
	<path d="M457.5,75H7.5C3.358,75,0,78.358,0,82.5v300c0,4.142,3.358,7.5,7.5,7.5h450c4.142,0,7.5-3.358,7.5-7.5v-300
		C465,78.358,461.642,75,457.5,75z M371.739,108.333l-29.185,0c-4.142,0-7.5,3.358-7.5,7.5v25.833H305.87
		c-4.142,0-7.5,3.358-7.5,7.5V175h-29.185H67.5c-4.142,0-7.5,3.358-7.5,7.5s3.358,7.5,7.5,7.5h194.185v18.333H232.5
		c-4.142,0-7.5,3.358-7.5,7.5v33.333c0,4.142,3.358,7.5,7.5,7.5h29.185V275H15v-85h22.5c4.142,0,7.5-3.358,7.5-7.5
		s-3.358-7.5-7.5-7.5H15V90h356.739V108.333z M15,290h254.185h29.185v25.833c0,4.142,3.358,7.5,7.5,7.5h29.185v25.833
		c0,4.142,3.358,7.5,7.5,7.5h29.185V375H15V290z M379.239,341.667h-29.185v-25.833c0-4.142-3.358-7.5-7.5-7.5H313.37V282.5
		c0-4.142-3.358-7.5-7.5-7.5h-29.185v-25.833c0-4.142-3.358-7.5-7.5-7.5H240v-18.333h29.185c4.142,0,7.5-3.358,7.5-7.5V190h29.185
		c4.142,0,7.5-3.358,7.5-7.5v-25.833h29.185c4.142,0,7.5-3.358,7.5-7.5v-25.833l29.185,0c4.142,0,7.5-3.358,7.5-7.5V90H450v18.333
		h-29.185c-4.142,0-7.5,3.358-7.5,7.5v25.833H384.13c-4.142,0-7.5,3.358-7.5,7.5V175h-29.185c-4.142,0-7.5,3.358-7.5,7.5v25.833
		h-29.185c-4.142,0-7.5,3.358-7.5,7.5v33.333c0,4.142,3.358,7.5,7.5,7.5h29.185V282.5c0,4.142,3.358,7.5,7.5,7.5h29.185v25.833
		c0,4.142,3.358,7.5,7.5,7.5h29.185v25.833c0,4.142,3.358,7.5,7.5,7.5H450V375h-63.261v-25.833
		C386.739,345.024,383.381,341.667,379.239,341.667z M420.815,308.333H391.63V290H450v51.667h-21.685v-25.833
		C428.315,311.691,424.958,308.333,420.815,308.333z M384.13,275h-29.185v-25.833c0-4.142-3.358-7.5-7.5-7.5h-29.185v-18.333h29.185
		c4.142,0,7.5-3.358,7.5-7.5V190h29.185H450v85H384.13z M391.63,175v-18.333h29.185c4.142,0,7.5-3.358,7.5-7.5v-25.833H450V175
		H391.63z"/>
</g>
<g>
</g>
<g>
</g>
<g>
</g>
<g>
</g>
<g>
</g>
<g>
</g>
<g>
</g>
<g>
</g>
<g>
</g>
<g>
</g>
<g>
</g>
<g>
</g>
<g>
</g>
<g>
</g>
<g>
</g>
</svg>
