<?xml version="1.0" encoding="iso-8859-1"?>
<!-- Generator: Adobe Illustrator 19.0.0, SVG Export Plug-In . SVG Version: 6.00 Build 0)  -->
<svg version="1.1" id="Capa_1" xmlns="http://www.w3.org/2000/svg" xmlns:xlink="http://www.w3.org/1999/xlink" x="0px" y="0px"
	 viewBox="0 0 465.012 465.012" style="enable-background:new 0 0 465.012 465.012;" xml:space="preserve">
<g>
	<path style="fill:#164FCE;" d="M15,90v197.371L311.042,90H15z M129.329,167h-4.883c-1.057,5.638-3.274,10.87-6.405,15.435
		l3.461,3.461c2.929,2.93,2.929,7.678,0,10.607c-1.465,1.464-3.385,2.196-5.304,2.196s-3.839-0.732-5.304-2.196l-3.461-3.461
		c-4.564,3.13-9.796,5.348-15.434,6.404v4.883c0,4.143-3.357,7.5-7.5,7.5s-7.5-3.357-7.5-7.5v-4.883
		c-5.638-1.057-10.871-3.274-15.435-6.405l-3.46,3.461c-1.465,1.465-3.385,2.197-5.304,2.197s-3.839-0.732-5.303-2.196
		c-2.93-2.929-2.93-7.678-0.001-10.606l3.461-3.462c-3.131-4.563-5.349-9.796-6.405-15.435h-4.883c-4.143,0-7.5-3.357-7.5-7.5
		s3.357-7.5,7.5-7.5h4.883c1.057-5.638,3.274-10.87,6.405-15.435l-3.46-3.46c-2.929-2.93-2.929-7.678,0-10.607
		c2.93-2.928,7.678-2.928,10.607,0l3.46,3.46c4.564-3.13,9.796-5.348,15.434-6.404v-4.882c0-4.143,3.357-7.5,7.5-7.5
		s7.5,3.357,7.5,7.5v4.882c5.638,1.057,10.871,3.274,15.435,6.405l3.461-3.461c2.929-2.928,7.678-2.929,10.606,0.001
		c2.929,2.929,2.929,7.678-0.001,10.606l-3.46,3.46c3.13,4.564,5.348,9.796,6.405,15.435h4.883c4.143,0,7.5,3.357,7.5,7.5
		S133.472,167,129.329,167z"/>
	<path style="fill:#164FCE;" d="M110.151,159.5c0-14.145-11.507-25.651-25.651-25.651S58.849,145.356,58.849,159.5
		s11.507,25.651,25.651,25.651S110.151,173.645,110.151,159.5z M84.5,177c-9.649,0-17.5-7.851-17.5-17.5S74.851,142,84.5,142
		s17.5,7.851,17.5,17.5S94.149,177,84.5,177z"/>
	<path style="fill:#FFE610;" d="M84.5,142c-9.649,0-17.5,7.851-17.5,17.5S74.851,177,84.5,177s17.5-7.851,17.5-17.5
		S94.149,142,84.5,142z"/>
	<path style="fill:#259245;" d="M427.807,375.01h22.205V177.648L153.958,375.01h243.848c4.143,0,7.5,3.357,7.5,7.5h15
		C420.307,378.368,423.664,375.01,427.807,375.01z"/>
	<polygon style="fill:#FFFFFF;" points="450.012,156.617 122.41,375.01 153.958,375.01 450.012,177.648 	"/>
	<polygon style="fill:#FFFFFF;" points="311.042,90 15,287.372 15,308.404 342.592,90 	"/>
	<polygon style="fill:#ED1F34;" points="450.012,90 369.632,90 15,326.431 15,375.01 95.368,375.01 450.012,138.589 	"/>
	<path d="M465.012,82.5c0-4.143-3.357-7.5-7.5-7.5H7.5C3.357,75,0,78.358,0,82.5v300.01c0,4.143,3.357,7.5,7.5,7.5h90.129
		c0.005,0,0.011,0.001,0.016,0.001c0.004,0,0.009-0.001,0.014-0.001h300.147c4.143,0,7.5-3.357,7.5-7.5l0,0
		c0-4.143-3.357-7.5-7.5-7.5H153.958H122.41l327.602-218.394v21.031V375.01h-22.205c-4.143,0-7.5,3.357-7.5,7.5l0,0
		c0,4.143,3.357,7.5,7.5,7.5h29.705c4.143,0,7.5-3.357,7.5-7.5V82.5z M15,308.404v-21.032V90h296.042h31.549L15,308.404z M15,375.01
		v-48.579L369.632,90h80.38v48.589L95.368,375.01H15z"/>
	<path style="fill:#FFE610;" d="M129.329,152h-4.883c-1.057-5.639-3.274-10.87-6.405-15.435l3.46-3.46
		c2.93-2.929,2.93-7.678,0.001-10.606c-2.929-2.93-7.678-2.929-10.606-0.001l-3.461,3.461c-4.564-3.131-9.797-5.349-15.435-6.405
		v-4.882c0-4.143-3.357-7.5-7.5-7.5s-7.5,3.357-7.5,7.5v4.882c-5.638,1.057-10.87,3.274-15.434,6.404l-3.46-3.46
		c-2.93-2.928-7.678-2.928-10.607,0c-2.929,2.93-2.929,7.678,0,10.607l3.46,3.46c-3.13,4.564-5.348,9.797-6.405,15.435h-4.883
		c-4.143,0-7.5,3.357-7.5,7.5s3.357,7.5,7.5,7.5h4.883c1.057,5.639,3.275,10.871,6.405,15.435l-3.461,3.462
		c-2.929,2.929-2.929,7.678,0.001,10.606c1.464,1.464,3.384,2.196,5.303,2.196s3.839-0.732,5.304-2.197l3.46-3.461
		c4.564,3.131,9.796,5.349,15.435,6.405v4.883c0,4.143,3.357,7.5,7.5,7.5s7.5-3.357,7.5-7.5v-4.883
		c5.638-1.057,10.87-3.274,15.434-6.404l3.461,3.461c1.465,1.464,3.385,2.196,5.304,2.196s3.839-0.732,5.304-2.196
		c2.929-2.93,2.929-7.678,0-10.607l-3.461-3.461c3.13-4.564,5.348-9.797,6.405-15.435h4.883c4.143,0,7.5-3.357,7.5-7.5
		S133.472,152,129.329,152z M84.5,185.152c-14.145,0-25.651-11.507-25.651-25.651s11.507-25.651,25.651-25.651
		s25.651,11.507,25.651,25.651S98.645,185.152,84.5,185.152z"/>
</g>
<g>
</g>
<g>
</g>
<g>
</g>
<g>
</g>
<g>
</g>
<g>
</g>
<g>
</g>
<g>
</g>
<g>
</g>
<g>
</g>
<g>
</g>
<g>
</g>
<g>
</g>
<g>
</g>
<g>
</g>
</svg>
