<?xml version="1.0" encoding="utf-8"?>
<!-- Generator: Adobe Illustrator 16.0.0, SVG Export Plug-In . SVG Version: 6.00 Build 0)  -->
<!DOCTYPE svg PUBLIC "-//W3C//DTD SVG 1.1//EN" "http://www.w3.org/Graphics/SVG/1.1/DTD/svg11.dtd">
<svg version="1.1" id="Capa_1" xmlns="http://www.w3.org/2000/svg" xmlns:xlink="http://www.w3.org/1999/xlink" x="0px" y="0px"
	 width="800px" height="800px" viewBox="0 0 800 800" enable-background="new 0 0 800 800" xml:space="preserve">
<g>
	<path fill="#103B9B" d="M695.774,375.193v-1c0-6.563-5.34-11.903-11.903-11.903H24.807V153.839h750.387v208.452h-39.709
		c-6.563,0-11.903,5.339-11.903,11.903v1H695.774z"/>
	<path fill="#103B9B" d="M683.871,361.291c7.128,0,12.903,5.777,12.903,12.903h25.807c0-7.126,5.775-12.903,12.903-12.903h38.709
		V154.839H25.807v206.452H683.871z"/>
	<path fill="#103B9B" d="M24.807,646.161V437.71h750.387v208.451H24.807z M206.452,586.052l8.788-28.128l21.673,19.965l-6.455-28.75
		l28.75,6.454l-19.966-21.673l28.125-8.786l-28.125-8.786l19.964-21.671l-28.75,6.452l6.454-28.75l-21.673,19.964l-8.786-28.126
		l-8.786,28.128l-21.672-19.964l6.452,28.75l-28.75-6.453l19.964,21.672l-28.125,8.786l28.125,8.786l-19.964,21.673l28.75-6.454
		l-6.452,28.75l21.672-19.965L206.452,586.052z"/>
	<path fill="#103B9B" d="M25.807,438.71v206.451h748.387V438.71H25.807z M262.113,557.27l-30.333-6.81l6.81,30.333l-22.866-21.063
		l-9.271,29.676l-9.27-29.674l-22.865,21.063l6.808-30.333l-30.333,6.81l21.063-22.866l-29.674-9.27l29.674-9.27l-21.063-22.865
		l30.333,6.809l-6.808-30.333l22.865,21.063l9.27-29.676l9.27,29.675l22.866-21.063l-6.809,30.333L262.111,493l-21.063,22.864
		l29.674,9.27l-29.674,9.27L262.113,557.27z"/>
	<polygon fill="#FFFFFF" points="241.049,515.864 262.113,493 231.778,499.808 238.587,469.475 215.721,490.538 206.452,460.863 
		197.182,490.538 174.316,469.475 181.125,499.808 150.791,493 171.854,515.864 142.18,525.134 171.854,534.405 150.791,557.27 
		181.125,550.462 174.316,580.795 197.182,559.731 206.452,589.405 215.721,559.731 238.587,580.795 231.778,550.462 
		262.113,557.27 241.049,534.405 270.724,525.134 	"/>
	<path fill="#FFE000" d="M24.807,413.903v-27.807h659.064c6.563,0,11.903-5.34,11.903-11.903v-1h27.807v1
		c0,6.563,5.34,11.903,11.903,11.903h39.709v27.807H24.807z"/>
	<path fill="#FFE000" d="M683.871,387.097H25.807v25.807h748.387v-25.807h-38.709c-7.128,0-12.903-5.777-12.903-12.903h-25.807
		C696.774,381.319,690.999,387.097,683.871,387.097z"/>
	<path d="M787.097,129.032H12.903C5.777,129.032,0,134.81,0,141.936v516.129c0,7.126,5.777,12.903,12.903,12.903h774.193
		c7.128,0,12.903-5.777,12.903-12.903V141.936C800,134.81,794.225,129.032,787.097,129.032z M774.193,154.839v206.452h-38.709
		c-7.128,0-12.903,5.777-12.903,12.903s5.775,12.903,12.903,12.903h38.709v25.807H25.807v-25.807h658.064
		c7.128,0,12.903-5.777,12.903-12.903s-5.775-12.903-12.903-12.903H25.807V154.839H774.193z M25.807,645.161V438.71h748.387v206.451
		H25.807z"/>
</g>
</svg>
