<?xml version="1.0" encoding="utf-8"?>
<!-- Generator: Adobe Illustrator 16.0.0, SVG Export Plug-In . SVG Version: 6.00 Build 0)  -->
<!DOCTYPE svg PUBLIC "-//W3C//DTD SVG 1.1//EN" "http://www.w3.org/Graphics/SVG/1.1/DTD/svg11.dtd">
<svg version="1.1" id="Capa_1" xmlns="http://www.w3.org/2000/svg" xmlns:xlink="http://www.w3.org/1999/xlink" x="0px" y="0px"
	 width="800px" height="800px" viewBox="0 0 800 800" enable-background="new 0 0 800 800" xml:space="preserve">
<g>
	<path fill="#FFFFFF" d="M735.484,645.161h38.709V154.839H57.818l455.283,285.109c4.877,3.054,7.141,8.969,5.553,14.498
		c-1.588,5.531-6.646,9.341-12.4,9.341H282.525L463.9,645.161h219.971c7.128,0,12.903,5.777,12.903,12.903h25.807
		C722.581,650.938,728.356,645.161,735.484,645.161z"/>
	<path fill="#103B9B" d="M24.807,646.161V163.434L464.82,438.981H251.375c-4.833,0-9.149,2.885-10.997,7.349
		c-1.85,4.464-0.837,9.556,2.579,12.972l186.86,186.859H24.807z M350.275,613.213l-207.181-207.18h207.031L57.753,222.942v390.271
		H350.275z"/>
	<path fill="#103B9B" d="M25.807,645.161h401.597L242.25,460.009c-3.69-3.69-4.793-9.24-2.796-14.062
		c1.996-4.82,6.703-7.966,11.921-7.966h209.963L25.807,165.24V645.161z M353.606,407.033H145.509l207.181,207.18H56.753V221.136
		L353.606,407.033z"/>
	<polygon fill="#ED1F34" points="55.753,615.213 55.753,219.33 357.087,408.033 147.923,408.033 355.104,615.213 	"/>
	<polygon fill="#ED1F34" points="352.689,614.213 145.509,407.033 353.606,407.033 56.753,221.136 56.753,614.213 	"/>
	<path d="M787.097,129.032H12.903c-0.064,0-0.124,0.009-0.188,0.009c-0.246,0.003-0.492,0.019-0.738,0.038
		c-0.192,0.014-0.385,0.026-0.576,0.048c-0.203,0.024-0.403,0.059-0.604,0.093c-0.225,0.038-0.451,0.072-0.673,0.121
		c-0.16,0.034-0.318,0.081-0.478,0.122c-0.25,0.065-0.497,0.129-0.74,0.208c-0.145,0.046-0.286,0.105-0.428,0.157
		c-0.246,0.089-0.491,0.179-0.729,0.282c-0.16,0.07-0.315,0.151-0.473,0.227c-0.21,0.102-0.422,0.201-0.626,0.313
		c-0.189,0.105-0.372,0.224-0.558,0.339c-0.162,0.102-0.325,0.196-0.483,0.305c-0.205,0.139-0.399,0.294-0.595,0.445
		c-0.13,0.102-0.263,0.198-0.391,0.303c-0.189,0.158-0.368,0.329-0.548,0.499c-0.127,0.119-0.256,0.236-0.379,0.36
		c-0.155,0.157-0.299,0.325-0.447,0.492c-0.139,0.157-0.279,0.313-0.411,0.477c-0.117,0.146-0.227,0.3-0.337,0.451
		c-0.148,0.201-0.294,0.404-0.43,0.616c-0.035,0.052-0.072,0.098-0.107,0.151c-0.057,0.091-0.102,0.188-0.156,0.281
		c-0.134,0.225-0.263,0.454-0.384,0.689c-0.081,0.157-0.153,0.313-0.227,0.472c-0.104,0.222-0.201,0.445-0.291,0.674
		c-0.072,0.181-0.136,0.363-0.199,0.545c-0.072,0.208-0.14,0.418-0.202,0.631c-0.06,0.21-0.112,0.42-0.162,0.629
		c-0.044,0.193-0.088,0.386-0.124,0.582c-0.043,0.237-0.077,0.473-0.108,0.71c-0.022,0.177-0.045,0.354-0.061,0.535
		c-0.022,0.258-0.033,0.517-0.038,0.774C0.014,141.717,0,141.825,0,141.936v516.129c0,7.126,5.775,12.903,12.903,12.903h670.968
		c7.128,0,12.903-5.777,12.903-12.903s-5.775-12.903-12.903-12.903H463.9L282.525,463.787h223.729c5.755,0,10.813-3.812,12.4-9.341
		c1.59-5.531-0.676-11.444-5.553-14.498L57.818,154.839h716.375v490.322h-38.709c-7.128,0-12.903,5.777-12.903,12.903
		s5.775,12.903,12.903,12.903h51.612c7.128,0,12.903-5.777,12.903-12.903V141.936C800,134.81,794.225,129.032,787.097,129.032z
		 M251.374,437.98c-5.218,0-9.925,3.143-11.92,7.966c-1.998,4.82-0.895,10.37,2.795,14.061l185.155,185.154H25.807V165.24
		l435.53,272.741L251.374,437.98L251.374,437.98z"/>
</g>
</svg>
