<?xml version="1.0" encoding="utf-8"?>
<!-- Generator: Adobe Illustrator 16.0.0, SVG Export Plug-In . SVG Version: 6.00 Build 0)  -->
<!DOCTYPE svg PUBLIC "-//W3C//DTD SVG 1.1//EN" "http://www.w3.org/Graphics/SVG/1.1/DTD/svg11.dtd">
<svg version="1.1" id="Capa_1" xmlns="http://www.w3.org/2000/svg" xmlns:xlink="http://www.w3.org/1999/xlink" x="0px" y="0px"
	 width="800px" height="800px" viewBox="0 0 800 800" enable-background="new 0 0 800 800" xml:space="preserve">
<g>
	<polygon fill="#103B9B" points="24.807,237.129 24.807,190.539 94.69,237.129 	"/>
	<polygon fill="#103B9B" points="25.807,192.408 25.807,236.129 91.388,236.129 	"/>
	<polygon fill="#103B9B" points="24.807,304.807 94.69,304.807 24.807,351.396 	"/>
	<polygon fill="#103B9B" points="25.807,305.807 25.807,349.528 91.388,305.807 	"/>
	<polygon fill="#103B9B" points="240.291,153.839 321.142,153.839 240.291,207.741 	"/>
	<polygon fill="#103B9B" points="317.839,154.839 241.291,154.839 241.291,205.872 	"/>
	<polygon fill="#103B9B" points="91.761,153.839 172.613,153.839 172.613,207.741 	"/>
	<polygon fill="#103B9B" points="171.613,154.839 95.064,154.839 171.613,205.872 	"/>
	<path fill="#103B9B" d="M128.032,659.064v-1c0-6.563-5.34-11.903-11.903-11.903H24.807V399h50.6l97.206-64.805V399h67.678v-64.805
		L337.497,399H399v-40.335l-80.787-53.858H399v-67.678h-80.787L399,183.271v-29.432h376.193v39.709
		c0,6.563,5.34,11.903,11.903,11.903h1v27.806h-1c-6.563,0-11.903,5.34-11.903,11.903v401H167.742
		c-6.563,0-11.903,5.34-11.903,11.903v1H128.032z M593.549,530.032c-13.679,0-24.807,11.128-24.807,24.807
		s11.128,24.807,24.807,24.807c13.678,0,24.806-11.128,24.806-24.807S607.227,530.032,593.549,530.032z M516.129,349.387
		c-13.679,0-24.807,11.128-24.807,24.806S502.45,399,516.129,399s24.807-11.128,24.807-24.807S529.808,349.387,516.129,349.387z
		 M670.968,284.871c-13.679,0-24.807,11.128-24.807,24.806s11.128,24.807,24.807,24.807s24.807-11.128,24.807-24.807
		S684.646,284.871,670.968,284.871z M593.549,220.355c-13.679,0-24.807,11.128-24.807,24.806s11.128,24.807,24.807,24.807
		c13.678,0,24.806-11.128,24.806-24.807S607.227,220.355,593.549,220.355z"/>
	<path fill="#103B9B" d="M774.193,193.548v-38.709H400v28.967l-78.484,52.323H400v16.129v37.419v16.129h-78.484L400,358.13v14.551
		V400h-62.806l-95.904-63.937V400h-16.129h-37.419h-16.129v-63.937L75.709,400H54.773H25.807v245.161h90.322
		c7.128,0,12.903,5.777,12.903,12.903h25.807c0-7.126,5.775-12.903,12.903-12.903h606.451v-400c0-7.126,5.775-12.903,12.903-12.903
		v-25.806C779.969,206.452,774.193,200.674,774.193,193.548z M516.129,400c-14.252,0-25.807-11.554-25.807-25.807
		c0-14.252,11.555-25.806,25.807-25.806s25.807,11.554,25.807,25.806C541.936,388.446,530.381,400,516.129,400z M593.549,580.646
		c-14.252,0-25.807-11.555-25.807-25.807s11.555-25.807,25.807-25.807s25.806,11.555,25.806,25.807S607.801,580.646,593.549,580.646
		z M593.549,270.968c-14.252,0-25.807-11.555-25.807-25.807s11.555-25.806,25.807-25.806s25.806,11.554,25.806,25.806
		S607.801,270.968,593.549,270.968z M670.968,335.484c-14.252,0-25.807-11.554-25.807-25.807c0-14.252,11.555-25.806,25.807-25.806
		s25.807,11.554,25.807,25.806C696.774,323.93,685.22,335.484,670.968,335.484z"/>
	<polygon fill="#FFFFFF" points="224.161,253.258 224.161,153.839 242.291,153.839 242.291,204.003 317.536,153.839 
		342.079,153.839 242.291,220.372 242.291,235.129 258.407,235.129 380.343,153.839 401,153.839 401,184.341 324.818,235.129 
		401,235.129 401,253.258 	"/>
	<polygon fill="#FFFFFF" points="258.709,236.129 241.291,236.129 241.291,219.836 338.776,154.839 317.839,154.839 
		241.291,205.872 241.291,154.839 225.161,154.839 225.161,252.258 400,252.258 400,236.129 321.516,236.129 400,183.806 
		400,154.839 380.646,154.839 	"/>
	<polygon fill="#ED1F34" points="111.752,237.129 24.807,179.028 24.807,153.839 32.561,153.839 157.496,237.129 	"/>
	<polygon fill="#ED1F34" points="154.193,236.129 32.258,154.839 25.807,154.839 25.807,178.493 112.055,236.129 	"/>
	<polygon fill="#ED1F34" points="255.407,304.807 300.229,304.807 401,372.146 401,401.868 	"/>
	<polygon fill="#ED1F34" points="258.709,305.807 400,400 400,372.681 299.926,305.807 	"/>
	<polygon fill="#ED1F34" points="240.291,237.129 240.291,219.301 338.474,153.839 383.948,153.839 259.012,237.129 	"/>
	<polygon fill="#ED1F34" points="241.291,236.129 258.709,236.129 380.646,154.839 338.776,154.839 241.291,219.836 	"/>
	<polygon fill="#ED1F34" points="24.807,401 24.807,390.863 153.891,304.807 172.613,304.807 172.613,322.643 55.076,401 	"/>
	<polygon fill="#ED1F34" points="171.613,305.807 154.193,305.807 25.807,391.398 25.807,400 54.773,400 171.613,322.107 	"/>
	<polygon fill="#FFFFFF" points="24.807,253.258 24.807,235.129 88.085,235.129 24.807,192.943 24.807,176.622 112.358,235.129 
		150.891,235.129 28.955,153.839 95.367,153.839 170.613,204.003 170.613,153.839 188.742,153.839 188.742,253.258 	"/>
	<polygon fill="#FFFFFF" points="187.742,252.258 187.742,154.839 171.613,154.839 171.613,205.872 95.064,154.839 32.258,154.839 
		154.193,236.129 112.055,236.129 25.807,178.493 25.807,192.408 91.388,236.129 25.807,236.129 25.807,252.258 	"/>
	<polygon fill="#FFFFFF" points="336.892,401 242.291,337.932 242.291,401 224.161,401 224.161,288.677 401,288.677 401,306.807 
		324.818,306.807 401,357.595 401,374.552 299.623,306.807 262.012,306.807 403.303,401 	"/>
	<polygon fill="#FFFFFF" points="225.161,289.677 225.161,400 241.291,400 241.291,336.063 337.194,400 400,400 258.709,305.807 
		299.926,305.807 400,372.681 400,358.13 321.516,305.807 400,305.807 400,289.677 	"/>
	<polygon fill="#FFFFFF" points="170.613,401 170.613,337.932 76.012,401 51.471,401 170.613,321.572 170.613,306.807 
		154.496,306.807 24.807,393.267 24.807,348.993 88.085,306.807 24.807,306.807 24.807,288.677 188.742,288.677 188.742,401 	"/>
	<polygon fill="#FFFFFF" points="187.742,289.677 25.807,289.677 25.807,305.807 91.388,305.807 25.807,349.528 25.807,391.398 
		154.193,305.807 171.613,305.807 171.613,322.107 54.773,400 75.709,400 171.613,336.063 171.613,400 187.742,400 	"/>
	<polygon fill="#ED1F34" points="186.742,401 186.742,290.677 24.807,290.677 24.807,251.258 186.742,251.258 186.742,153.839 
		226.161,153.839 226.161,251.258 401,251.258 401,290.677 226.161,290.677 226.161,401 	"/>
	<polygon fill="#ED1F34" points="225.161,252.258 225.161,154.839 187.742,154.839 187.742,252.258 25.807,252.258 25.807,289.677 
		187.742,289.677 187.742,400 225.161,400 225.161,289.677 400,289.677 400,252.258 	"/>
	<circle fill="#ED1F34" cx="593.549" cy="245.161" r="25.806"/>
	<circle fill="#ED1F34" cx="593.549" cy="554.839" r="25.807"/>
	<circle fill="#ED1F34" cx="670.968" cy="309.677" r="25.806"/>
	<circle fill="#ED1F34" cx="516.129" cy="374.194" r="25.806"/>
	<path d="M774.193,245.161v400H167.742c-7.128,0-12.903,5.777-12.903,12.903s5.775,12.903,12.903,12.903h619.354
		c7.128,0,12.903-5.777,12.903-12.903V245.161c0-7.126-5.775-12.903-12.903-12.903S774.193,238.035,774.193,245.161z"/>
	<path d="M116.129,645.161H25.807V400v-8.602v-41.87v-43.721v-16.129v-37.419v-16.129v-43.721v-13.917v-23.652h6.451h62.806h76.549
		h16.129h37.419h16.129h76.548h20.938h41.869H400h374.193v38.709c0,7.126,5.775,12.903,12.903,12.903S800,200.674,800,193.548
		v-51.613c0-7.126-5.775-12.903-12.903-12.903H12.903C5.775,129.032,0,134.81,0,141.936v516.129c0,7.126,5.775,12.903,12.903,12.903
		h103.226c7.128,0,12.903-5.777,12.903-12.903S123.257,645.161,116.129,645.161z"/>
</g>
</svg>
