<?xml version="1.0" encoding="utf-8"?>
<!-- Generator: Adobe Illustrator 16.0.0, SVG Export Plug-In . SVG Version: 6.00 Build 0)  -->
<!DOCTYPE svg PUBLIC "-//W3C//DTD SVG 1.1//EN" "http://www.w3.org/Graphics/SVG/1.1/DTD/svg11.dtd">
<svg version="1.1" id="Capa_1" xmlns="http://www.w3.org/2000/svg" xmlns:xlink="http://www.w3.org/1999/xlink" x="0px" y="0px"
	 width="800px" height="800px" viewBox="0 0 800 800" enable-background="new 0 0 800 800" xml:space="preserve">
<g>
	<path fill="#FFFFFF" d="M683.871,326.882H25.807v146.236h748.387V326.882h-38.709c-7.128,0-12.903-5.775-12.903-12.903h-25.807
		C696.774,321.106,690.999,326.882,683.871,326.882z M444.731,451.613c-0.034,0-89.43,0-89.43,0c-4.611,0-8.869-2.461-11.175-6.452
		c-2.305-3.991-2.305-8.912,0-12.903l44.699-77.419c2.305-3.992,6.563-6.452,11.174-6.452s8.869,2.46,11.174,6.452l44.26,76.659
		c1.391,2.059,2.201,4.542,2.201,7.212C457.635,445.838,451.859,451.613,444.731,451.613z"/>
	<rect x="24.807" y="497.925" fill="#164FCE" width="750.387" height="148.236"/>
	<rect x="25.807" y="498.925" fill="#164FCE" width="748.387" height="146.236"/>
	<path fill="#164FCE" d="M695.774,314.979v-1c0-6.563-5.34-11.903-11.903-11.903H24.807V153.839h750.387v148.236h-39.709
		c-6.563,0-11.903,5.34-11.903,11.903v1H695.774z"/>
	<path fill="#164FCE" d="M683.871,301.075c7.128,0,12.903,5.775,12.903,12.903h25.807c0-7.128,5.775-12.903,12.903-12.903h38.709
		V154.839H25.807v146.236H683.871z"/>
	<path d="M787.097,129.032H12.903C5.777,129.032,0,134.808,0,141.936v516.129c0,7.128,5.777,12.903,12.903,12.903h774.193
		c7.128,0,12.903-5.775,12.903-12.903V141.936C800,134.808,794.225,129.032,787.097,129.032z M774.193,154.839v146.236h-38.709
		c-7.128,0-12.903,5.775-12.903,12.903s5.775,12.903,12.903,12.903h38.709v146.236H25.807V326.882h658.064
		c7.128,0,12.903-5.775,12.903-12.903s-5.775-12.903-12.903-12.903H25.807V154.839H774.193z M25.807,645.161V498.925h748.387
		v146.236H25.807z"/>
	<polygon fill="#259245" points="375.918,426.807 400,385.097 424.081,426.807 	"/>
	<polygon fill="#259245" points="377.65,425.807 422.349,425.807 400,387.097 	"/>
	<path d="M411.174,354.839c-2.305-3.992-6.563-6.452-11.174-6.452s-8.869,2.46-11.174,6.452l-44.699,77.419
		c-2.305,3.991-2.305,8.912,0,12.903c2.306,3.991,6.563,6.452,11.175,6.452c0,0,89.396,0,89.43,0
		c7.128,0,12.903-5.775,12.903-12.903c0-2.672-0.813-5.153-2.201-7.212L411.174,354.839z M377.65,425.807l22.35-38.71l22.349,38.71
		H377.65z"/>
</g>
</svg>
