<?xml version="1.0" encoding="utf-8"?>
<!-- Generator: Adobe Illustrator 16.0.0, SVG Export Plug-In . SVG Version: 6.00 Build 0)  -->
<!DOCTYPE svg PUBLIC "-//W3C//DTD SVG 1.1//EN" "http://www.w3.org/Graphics/SVG/1.1/DTD/svg11.dtd">
<svg version="1.1" id="Capa_1" xmlns="http://www.w3.org/2000/svg" xmlns:xlink="http://www.w3.org/1999/xlink" x="0px" y="0px"
	 width="800px" height="800px" viewBox="0 0 800 800" enable-background="new 0 0 800 800" xml:space="preserve">
<g>
	<path fill="#FFFFFF" d="M774.193,326.882H25.807v146.236h748.387V326.882z M400,447.312c-26.087,0-47.312-21.225-47.312-47.312
		s21.225-47.312,47.312-47.312s47.312,21.225,47.312,47.312S426.087,447.312,400,447.312z"/>
	<path fill="#FF7900" d="M400,352.688c-26.087,0-47.312,21.225-47.312,47.312s21.225,47.312,47.312,47.312
		s47.312-21.225,47.312-47.312S426.087,352.688,400,352.688z"/>
	<rect x="24.807" y="497.925" fill="#259245" width="750.387" height="148.236"/>
	<rect x="25.807" y="498.925" fill="#259245" width="748.387" height="146.236"/>
	<path fill="#FF7900" d="M24.807,302.075V153.839h659.064c6.563,0,11.903-5.34,11.903-11.903v-1h27.807v1
		c0,6.563,5.34,11.903,11.903,11.903h39.709v148.236H24.807z"/>
	<path fill="#FF7900" d="M683.871,154.839H25.807v146.236h748.387V154.839h-38.709c-7.128,0-12.903-5.777-12.903-12.903h-25.807
		C696.774,149.062,690.999,154.839,683.871,154.839z"/>
	<path d="M787.097,129.032h-51.612c-7.128,0-12.903,5.777-12.903,12.903s5.775,12.903,12.903,12.903h38.709v146.236H25.807V154.839
		h658.064c7.128,0,12.903-5.777,12.903-12.903s-5.775-12.903-12.903-12.903H12.903C5.775,129.032,0,134.81,0,141.936v516.129
		c0,7.126,5.775,12.903,12.903,12.903h774.193c7.128,0,12.903-5.777,12.903-12.903V141.936
		C800,134.81,794.225,129.032,787.097,129.032z M25.807,326.882h748.387v146.236H25.807V326.882z M25.807,645.161V498.925h748.387
		v146.236H25.807z"/>
</g>
</svg>
