<?xml version="1.0" encoding="utf-8"?>
<!-- Generator: Adobe Illustrator 16.0.0, SVG Export Plug-In . SVG Version: 6.00 Build 0)  -->
<!DOCTYPE svg PUBLIC "-//W3C//DTD SVG 1.1//EN" "http://www.w3.org/Graphics/SVG/1.1/DTD/svg11.dtd">
<svg version="1.1" id="Capa_1" xmlns="http://www.w3.org/2000/svg" xmlns:xlink="http://www.w3.org/1999/xlink" x="0px" y="0px"
	 width="800px" height="800px" viewBox="0 0 800 800" enable-background="new 0 0 800 800" xml:space="preserve">
<g>
	<path fill="#FFE000" d="M24.807,646.17V411.903L400,411.912c3.18,0,6.169-1.238,8.418-3.487c2.247-2.248,3.485-5.236,3.485-8.416
		V153.847h363.29v39.71c0,6.563,5.34,11.903,11.903,11.903h1v27.807h-1c-6.563,0-11.903,5.34-11.903,11.903v401H24.807z"/>
	<path fill="#FFE000" d="M774.193,193.557v-38.71h-361.29v245.162c0,3.422-1.359,6.704-3.778,9.123
		c-2.421,2.421-5.701,3.78-9.125,3.78l-374.193-0.009V645.17h748.387v-400c0-7.126,5.775-12.903,12.903-12.903V206.46
		C779.969,206.46,774.193,200.683,774.193,193.557z"/>
	<polygon fill="#103B9B" points="240.291,153.847 321.141,153.847 240.291,207.748 	"/>
	<polygon fill="#103B9B" points="317.838,154.847 241.291,154.847 241.291,205.879 	"/>
	<polygon fill="#103B9B" points="318.213,237.138 388.097,190.548 388.097,237.138 	"/>
	<polygon fill="#103B9B" points="387.097,236.138 387.097,192.417 321.516,236.138 	"/>
	<polygon fill="#103B9B" points="318.213,304.815 388.097,304.815 388.097,351.403 	"/>
	<polygon fill="#103B9B" points="387.097,349.535 387.097,305.815 321.516,305.815 	"/>
	<polygon fill="#103B9B" points="171.613,154.847 95.066,154.847 171.613,205.879 	"/>
	<polygon fill="#103B9B" points="24.807,237.138 24.807,190.548 94.69,237.138 	"/>
	<polygon fill="#103B9B" points="25.807,192.417 25.807,236.138 91.388,236.138 	"/>
	<polygon fill="#103B9B" points="240.291,388.102 240.291,334.204 321.141,388.104 	"/>
	<polygon fill="#103B9B" points="241.291,387.102 317.838,387.104 241.291,336.072 	"/>
	<polygon fill="#103B9B" points="24.807,304.815 94.69,304.815 24.807,351.403 	"/>
	<polygon fill="#103B9B" points="25.807,305.815 25.807,349.535 91.388,305.815 	"/>
	<polygon fill="#103B9B" points="91.77,388.099 172.613,334.204 172.613,388.1 	"/>
	<polygon fill="#103B9B" points="95.073,387.099 171.613,387.1 171.613,336.072 	"/>
	<polygon fill="#ED1F34" points="111.752,237.138 24.807,179.035 24.807,153.847 32.561,153.847 157.496,237.138 	"/>
	<polygon fill="#ED1F34" points="112.055,236.138 154.193,236.138 32.258,154.847 25.807,154.847 25.807,178.5 	"/>
	<polygon fill="#ED1F34" points="240.291,237.138 240.291,219.31 338.473,153.847 383.948,153.847 259.012,237.138 	"/>
	<polygon fill="#ED1F34" points="241.291,236.138 258.709,236.138 380.646,154.847 338.775,154.847 241.291,219.845 	"/>
	<polygon fill="#ED1F34" points="258.709,305.815 380.646,387.105 387.097,387.105 387.097,364.067 299.924,305.815 	"/>
	<polygon fill="#ED1F34" points="28.967,388.097 153.891,304.815 172.613,304.815 172.613,322.649 74.441,388.099 	"/>
	<polygon fill="#ED1F34" points="171.613,305.815 154.193,305.815 32.27,387.097 74.139,387.099 171.613,322.114 	"/>
	<path fill="#FFFFFF" d="M245.189,289.686c-4.222,8.724-11.303,15.806-20.028,20.027v77.389h16.129v-51.03l76.547,51.031
		l62.808,0.002l-121.936-81.291h41.214l87.173,58.252v-14.532l-65.581-43.721h65.581v-16.129H245.189V289.686z"/>
	<path fill="#FFFFFF" d="M187.742,309.713c-8.725-4.222-15.806-11.303-20.028-20.027H25.807v16.129h65.581l-65.581,43.72v37.562
		h6.463l121.923-81.283h17.419v16.301l-97.474,64.982h20.934l76.54-51.026v51.028h16.129V309.713z"/>
	<path fill="#FFFFFF" d="M225.161,232.239c8.725,4.222,15.806,11.303,20.028,20.027h141.908v-16.129h-65.581l65.581-43.721v-37.569
		h-6.451l-121.936,81.291h-17.419v-16.292l97.485-64.998h-20.938l-76.547,51.032v-51.032h-16.129V232.239z"/>
	<path fill="#FFFFFF" d="M112.055,236.138L25.807,178.5v13.917l65.581,43.721H25.807v16.129h141.908
		c4.222-8.724,11.303-15.806,20.028-20.027v-77.392h-16.129v51.032l-76.547-51.032H32.258l121.936,81.291H112.055z"/>
	<path fill="#ED1F34" d="M224.726,233.139c-5.723-2.769-11.871-4.173-18.274-4.173s-12.551,1.404-18.274,4.173l-1.436,0.695v-79.987
		h39.419v79.987L224.726,233.139z M206.452,180.503c-6.563,0-11.903,5.34-11.903,11.903s5.34,11.903,11.903,11.903
		s11.903-5.339,11.903-11.903S213.015,180.503,206.452,180.503z"/>
	<path fill="#ED1F34" d="M187.742,232.239c5.657-2.737,12.003-4.273,18.709-4.273c6.706,0,13.053,1.536,18.709,4.273v-77.392
		h-37.419V232.239z M206.452,179.503c7.126,0,12.903,5.777,12.903,12.903s-5.777,12.903-12.903,12.903s-12.903-5.777-12.903-12.903
		S199.326,179.503,206.452,179.503z"/>
	<path fill="#ED1F34" d="M243.594,290.686l0.694-1.436c2.77-5.724,4.174-11.873,4.174-18.274c0-6.402-1.404-12.55-4.174-18.274
		l-0.694-1.436h144.502v39.419H243.594z M318.71,259.073c-6.563,0-11.903,5.34-11.903,11.903s5.34,11.903,11.903,11.903
		s11.903-5.339,11.903-11.903S325.273,259.073,318.71,259.073z"/>
	<path fill="#ED1F34" d="M245.189,252.267c2.737,5.657,4.273,12.003,4.273,18.71c0,6.706-1.537,13.053-4.273,18.709h141.908v-37.419
		H245.189z M318.71,258.073c7.126,0,12.903,5.777,12.903,12.903s-5.777,12.903-12.903,12.903s-12.903-5.777-12.903-12.903
		S311.584,258.073,318.71,258.073z"/>
	<path fill="#ED1F34" d="M24.807,290.686v-39.419h144.502l-0.694,1.436c-2.77,5.723-4.174,11.872-4.174,18.274
		s1.404,12.551,4.174,18.274l0.694,1.436H24.807z M94.193,259.073c-6.563,0-11.903,5.34-11.903,11.903s5.339,11.903,11.903,11.903
		s11.903-5.339,11.903-11.903S100.757,259.073,94.193,259.073z"/>
	<path fill="#ED1F34" d="M167.714,289.686c-2.737-5.657-4.273-12.003-4.273-18.709c0-6.707,1.536-13.053,4.273-18.71H25.807v37.419
		H167.714z M94.193,283.879c-7.126,0-12.903-5.777-12.903-12.903s5.777-12.903,12.903-12.903s12.903,5.777,12.903,12.903
		S101.319,283.879,94.193,283.879z"/>
	<path fill="#ED1F34" d="M186.742,388.1v-79.981l1.436,0.695c5.724,2.77,11.872,4.174,18.274,4.174s12.55-1.404,18.274-4.174
		l1.436-0.695V388.1H186.742z M206.452,337.642c-6.563,0-11.903,5.34-11.903,11.903s5.34,11.903,11.903,11.903
		s11.903-5.34,11.903-11.903S213.015,337.642,206.452,337.642z"/>
	<path fill="#ED1F34" d="M225.161,309.713c-5.657,2.737-12.003,4.274-18.709,4.274c-6.707,0-13.053-1.537-18.709-4.274V387.1h37.419
		V309.713z M206.452,362.448c-7.126,0-12.903-5.777-12.903-12.903s5.777-12.903,12.903-12.903s12.903,5.777,12.903,12.903
		S213.578,362.448,206.452,362.448z"/>
	<path fill="#164FCE" d="M163.441,270.977c0,6.706,1.536,13.053,4.273,18.709c4.222,8.724,11.303,15.806,20.028,20.027
		c5.657,2.737,12.003,4.274,18.709,4.274c6.706,0,13.053-1.537,18.709-4.274c8.725-4.222,15.806-11.303,20.028-20.027
		c2.737-5.657,4.273-12.003,4.273-18.709c0-6.707-1.537-13.053-4.273-18.71c-4.222-8.724-11.303-15.806-20.028-20.027
		c-5.657-2.737-12.003-4.273-18.709-4.273c-6.707,0-13.053,1.536-18.709,4.273c-8.725,4.222-15.806,11.303-20.028,20.027
		C164.977,257.923,163.441,264.27,163.441,270.977z M206.452,245.17c14.252,0,25.806,11.555,25.806,25.807
		s-11.554,25.806-25.806,25.806s-25.807-11.554-25.807-25.806C180.645,256.723,192.2,245.17,206.452,245.17z"/>
	<path fill="#FFE000" d="M206.452,297.783c-14.781,0-26.807-12.025-26.807-26.806c0-14.781,12.025-26.807,26.807-26.807
		c14.781,0,26.806,12.025,26.806,26.807C233.258,285.757,221.232,297.783,206.452,297.783z"/>
	<circle fill="#FFE000" cx="206.452" cy="270.976" r="25.806"/>
	<circle fill="#FFE000" cx="206.452" cy="192.406" r="12.903"/>
	<circle fill="#FFE000" cx="94.193" cy="270.976" r="12.903"/>
	<circle fill="#FFE000" cx="318.71" cy="270.976" r="12.903"/>
	<circle fill="#FFE000" cx="206.452" cy="349.545" r="12.903"/>
	<path d="M774.193,245.17v400H25.807V412.903L400,412.912c3.422,0,6.703-1.359,9.125-3.78c2.419-2.419,3.778-5.701,3.778-9.123
		V154.847h361.29v38.71c0,7.126,5.775,12.903,12.903,12.903S800,200.683,800,193.557v-51.613c0-7.126-5.775-12.903-12.903-12.903
		H400.334c-0.112-0.003-0.221-0.018-0.334-0.018s-0.222,0.014-0.334,0.018H12.903C5.775,129.041,0,134.818,0,141.944v516.129
		c0,7.126,5.775,12.903,12.903,12.903h774.193c7.128,0,12.903-5.777,12.903-12.903V245.17c0-7.126-5.775-12.903-12.903-12.903
		S774.193,238.044,774.193,245.17z M32.258,154.847h62.806h76.549h16.129h37.419h16.129h76.547h20.938h41.868h6.453v37.569v43.719
		v16.129v37.419v16.129v43.721v14.532v23.039h-6.451l-62.808-0.002l-76.547-0.001h-16.129h-37.419h-16.129l-76.54-0.002H74.139
		h-41.87h-6.462v-37.562v-43.721v-16.129v-37.419v-16.129v-43.721v-13.917v-23.654H32.258z"/>
</g>
</svg>
