<?xml version="1.0" encoding="utf-8"?>
<!-- Generator: Adobe Illustrator 16.0.0, SVG Export Plug-In . SVG Version: 6.00 Build 0)  -->
<!DOCTYPE svg PUBLIC "-//W3C//DTD SVG 1.1//EN" "http://www.w3.org/Graphics/SVG/1.1/DTD/svg11.dtd">
<svg version="1.1" id="Capa_1" xmlns="http://www.w3.org/2000/svg" xmlns:xlink="http://www.w3.org/1999/xlink" x="0px" y="0px"
	 width="800px" height="800px" viewBox="0 0 800 800" enable-background="new 0 0 800 800" xml:space="preserve">
<g>
	<path fill="#FFFFFF" d="M550.538,554.839v-400H249.462v490.322h301.076v-38.71c0-7.127,5.775-12.902,12.902-12.902v-25.807
		C556.313,567.742,550.538,561.967,550.538,554.839z M498.959,515.722c-0.009,0-0.022,0.001-0.034,0h-86.021v50.332
		c0,7.128-5.775,12.903-12.903,12.903s-12.903-5.775-12.903-12.903v-50.332h-86.021c-4.217,0-8.168-2.062-10.582-5.521
		c-2.412-3.46-2.982-7.879-1.528-11.838l98.924-268.871c1.868-5.076,6.703-8.447,12.11-8.447s10.242,3.372,12.11,8.447l98.6,267.986
		c0.741,1.626,1.152,3.436,1.152,5.341C511.862,509.944,506.085,515.722,498.959,515.722z"/>
	<path fill="#259245" d="M575.344,646.161v-39.71c0-6.563-5.34-11.902-11.903-11.902h-1v-27.807h1
		c6.563,0,11.903-5.34,11.903-11.903v-401h199.85v492.322H575.344z"/>
	<path fill="#259245" d="M576.344,554.839c0,7.128-5.775,12.903-12.903,12.903v25.807c7.128,0,12.903,5.775,12.903,12.902v38.71
		h197.85V154.839h-197.85V554.839z"/>
	<rect x="24.807" y="153.839" fill="#259245" width="199.849" height="492.322"/>
	<rect x="25.807" y="154.839" fill="#259245" width="197.849" height="490.322"/>
	<path d="M787.097,129.032H12.903C5.775,129.032,0,134.808,0,141.936v516.129c0,7.128,5.775,12.903,12.903,12.903h774.193
		c7.128,0,12.903-5.775,12.903-12.903V141.936C800,134.808,794.225,129.032,787.097,129.032z M774.193,645.161h-197.85v-38.71
		c0-7.127-5.775-12.902-12.903-12.902c-7.127,0-12.902,5.775-12.902,12.902v38.71H249.462V154.839h301.076v400
		c0,7.128,5.775,12.903,12.902,12.903c7.128,0,12.903-5.775,12.903-12.903v-400h197.85V645.161z M25.807,154.839h197.849v490.322
		H25.807V154.839z"/>
	<path fill="#259245" d="M411.903,490.915v-51.333c0-6.563-5.34-11.903-11.903-11.903s-11.903,5.34-11.903,11.903v51.333h-69.959
		L400,268.419l81.862,222.496H411.903z"/>
	<path fill="#259245" d="M480.429,489.915L400,271.315l-80.429,218.6h67.525v-50.333c0-7.128,5.775-12.903,12.903-12.903
		s12.903,5.775,12.903,12.903v50.333H480.429z"/>
	<path d="M412.11,229.492c-1.868-5.075-6.703-8.447-12.11-8.447s-10.242,3.372-12.11,8.447l-98.924,268.871
		c-1.456,3.959-0.886,8.378,1.528,11.838c2.414,3.46,6.365,5.521,10.582,5.521h86.021v50.333c0,7.127,5.775,12.903,12.903,12.903
		s12.903-5.776,12.903-12.903v-50.333h86.021c0.012,0.001,0.025,0,0.034,0c7.128,0,12.903-5.775,12.903-12.903
		c0-1.904-0.411-3.715-1.152-5.341L412.11,229.492z M400,426.679c-7.128,0-12.903,5.775-12.903,12.903v50.333h-67.525L400,271.315
		l80.429,218.6h-67.525v-50.333C412.903,432.454,407.128,426.679,400,426.679z"/>
</g>
</svg>
