<?xml version="1.0" encoding="utf-8"?>
<!-- Generator: Adobe Illustrator 16.0.0, SVG Export Plug-In . SVG Version: 6.00 Build 0)  -->
<!DOCTYPE svg PUBLIC "-//W3C//DTD SVG 1.1//EN" "http://www.w3.org/Graphics/SVG/1.1/DTD/svg11.dtd">
<svg version="1.1" id="Capa_1" xmlns="http://www.w3.org/2000/svg" xmlns:xlink="http://www.w3.org/1999/xlink" x="0px" y="0px"
	 width="800px" height="800px" viewBox="0 0 800 800" enable-background="new 0 0 800 800" xml:space="preserve">
<g>
	<path fill="#ED1F34" d="M24.807,646.161v-91.322c0-6.563-5.34-11.903-11.903-11.903h-1v-27.807h1
		c6.563,0,11.903-5.34,11.903-11.903V153.839h750.387v492.322H24.807z M400,185.464c-105.119,0-190.639,85.521-190.639,190.641
		c0,81.347,51.739,153.812,128.747,180.318l0.705,0.242l-1.936,45.461c-0.137,3.226,1.065,6.413,3.298,8.744
		c2.234,2.33,5.367,3.667,8.594,3.667h102.555c6.536-0.033,11.843-5.36,11.843-11.903c0-0.463-0.026-0.931-0.079-1.39l-1.901-44.579
		l0.706-0.242c77.007-26.506,128.746-98.97,128.746-180.318C590.639,270.985,505.118,185.464,400,185.464z"/>
	<path fill="#ED1F34" d="M25.807,554.839v90.322h748.387V154.839H25.807v348.387c0,7.128-5.777,12.903-12.903,12.903v25.807
		C20.029,541.936,25.807,547.711,25.807,554.839z M400,184.464c105.671,0,191.639,85.97,191.639,191.641
		c0,83.9-54.198,155.372-129.421,181.263l1.863,43.762c0.057,0.494,0.086,0.995,0.086,1.504c0,7.128-5.777,12.903-12.903,12.903
		c-0.014-0.002-0.024-0.002-0.034,0H348.77c-3.517,0-6.882-1.437-9.316-3.976c-2.435-2.541-3.725-5.963-3.575-9.479l1.904-44.715
		c-75.222-25.892-129.421-97.363-129.421-181.263C208.361,270.433,294.33,184.464,400,184.464z"/>
	<path fill="#ED1F34" d="M459.046,506.304l1.159,0.129c0.465,0.052,0.883,0.095,1.288,0.095c2.53,0,4.95-0.786,6.998-2.274
		c3.962-2.878,5.77-7.989,4.499-12.719l-17.029-63.364l51.02-41.252c3.808-3.078,5.349-8.275,3.836-12.933
		c-1.513-4.659-5.815-7.958-10.706-8.21l-47.152-2.437l-4.264-100.139c-0.273-6.391-5.497-11.396-11.893-11.396h-73.599
		c-6.396,0-11.62,5.006-11.892,11.396l-4.264,100.139l-47.152,2.437c-4.891,0.252-9.193,3.552-10.707,8.21
		c-1.515,4.658,0.026,9.855,3.835,12.933l51.02,41.252l-17.029,63.364c-1.271,4.729,0.538,9.84,4.5,12.719
		c2.036,1.48,4.45,2.264,6.981,2.264c0.435,0,0.874-0.024,1.306-0.071l1.157-0.126l-1.081,25.413l-1.309-0.52
		c-30.71-12.205-56.931-33.085-75.828-60.38c-19.345-27.943-29.57-60.701-29.57-94.73c0-91.993,74.841-166.834,166.833-166.834
		c91.991,0,166.832,74.841,166.832,166.834c0,34.029-10.226,66.786-29.57,94.729c-18.896,27.295-45.117,48.175-75.828,60.381
		l-1.309,0.52L459.046,506.304z"/>
	<path fill="#ED1F34" d="M330.927,505.062c-4.325-3.142-6.265-8.626-4.878-13.787l16.86-62.736l-50.514-40.843
		c-4.158-3.36-5.812-8.936-4.158-14.02c1.652-5.084,6.268-8.625,11.606-8.9l46.243-2.39l4.226-99.229
		c0.294-6.906,5.979-12.354,12.891-12.354h73.599c6.913,0,12.597,5.448,12.892,12.354l4.225,99.229l46.244,2.39
		c5.338,0.275,9.954,3.816,11.605,8.9s-0.002,10.66-4.158,14.02l-50.514,40.843l16.86,62.736c1.387,5.161-0.552,10.646-4.877,13.787
		c-2.256,1.64-4.919,2.466-7.586,2.466c-0.466,0-0.933-0.049-1.398-0.101l0.974,22.856c61.311-24.368,104.768-84.293,104.768-154.18
		c0-91.441-74.392-165.834-165.832-165.834c-91.441,0-165.833,74.392-165.833,165.834c0,69.887,43.458,129.814,104.767,154.18
		l0.972-22.844C336.788,507.78,333.578,506.99,330.927,505.062z"/>
	<path fill="#FFFFFF" d="M337.782,557.368l1.153-27.083c-61.312-24.368-104.768-84.293-104.768-154.18
		c0-91.441,74.392-165.834,165.832-165.834s165.832,74.391,165.832,165.834c0,69.887-43.458,129.812-104.768,154.18l1.153,27.083
		c75.223-25.892,129.421-97.363,129.421-181.263c0-105.67-85.968-191.641-191.639-191.641c-105.67,0-191.639,85.97-191.639,191.641
		C208.361,460.004,262.56,531.477,337.782,557.368z"/>
	<path fill="#B3B3B3" d="M411.116,301.118c-1.751-4.573-6.219-7.645-11.116-7.645c-4.898,0-9.365,3.072-11.116,7.645l-15.09,39.397
		l-1.933-0.4l2.747-64.505h50.784l2.747,64.505l-1.933,0.4L411.116,301.118z"/>
	<path fill="#B3B3B3" d="M400,292.473c5.346,0,10.139,3.296,12.05,8.287l15.09,39.396l-2.706-63.548h-48.867l-2.706,63.548
		l15.09-39.396C389.861,295.77,394.654,292.473,400,292.473z"/>
	<polygon fill="#B3B3B3" points="361.191,590.729 365.424,491.316 400,468.826 434.576,491.316 438.81,590.729 	"/>
	<polygon fill="#B3B3B3" points="400,470.02 366.401,491.874 362.234,589.729 437.766,589.729 433.599,491.874 	"/>
	<path d="M460.091,507.427c0.465,0.05,0.931,0.101,1.399,0.101c2.666,0,5.329-0.824,7.585-2.466
		c4.325-3.142,6.265-8.626,4.878-13.787l-16.86-62.736l50.514-40.843c4.158-3.36,5.812-8.936,4.158-14.02
		c-1.652-5.084-6.268-8.625-11.606-8.9l-46.243-2.39l-4.226-99.229c-0.294-6.906-5.979-12.354-12.892-12.354H363.2
		c-6.913,0-12.598,5.448-12.892,12.354l-4.226,99.229l-46.243,2.39c-5.338,0.275-9.954,3.816-11.606,8.9
		c-1.651,5.084,0.002,10.66,4.158,14.02l50.514,40.843l-16.86,62.736c-1.387,5.161,0.552,10.646,4.877,13.787
		c2.651,1.927,5.861,2.718,8.982,2.378l-0.972,22.844l-1.153,27.083l-1.904,44.716c-0.149,3.515,1.143,6.937,3.575,9.478
		c2.435,2.539,5.8,3.976,9.316,3.976h102.46c0.011-0.001,0.021-0.001,0.034,0c7.126,0,12.903-5.775,12.903-12.903
		c0-0.509-0.029-1.01-0.086-1.503l-1.863-43.763l-1.152-27.083L460.091,507.427z M375.566,276.611h48.867l2.706,63.547
		l-15.09-39.396c-1.911-4.991-6.704-8.288-12.05-8.288s-10.139,3.296-12.05,8.288l-15.09,39.396L375.566,276.611z M362.234,589.729
		l4.167-97.855L400,470.02l33.599,21.854l4.167,97.855H362.234z M434.34,413.75c-3.969,3.209-5.672,8.454-4.35,13.381l10.295,38.308
		l-33.25-21.628c-2.139-1.392-4.587-2.087-7.035-2.087s-4.896,0.695-7.035,2.087l-33.25,21.628l10.295-38.308
		c1.324-4.927-0.381-10.172-4.35-13.381l-30.844-24.939l39.613-2.046c5.096-0.263,9.559-3.506,11.384-8.271l14.188-37.041
		l14.188,37.041c1.825,4.765,6.288,8.007,11.384,8.271l39.613,2.046L434.34,413.75z"/>
	<path d="M787.097,129.032H12.903C5.777,129.032,0,134.808,0,141.936v361.29c0,7.128,5.777,12.903,12.903,12.903
		s12.903-5.775,12.903-12.903V154.839h748.387v490.322H25.807v-90.322c0-7.128-5.777-12.903-12.903-12.903S0,547.711,0,554.839
		v103.226c0,7.128,5.777,12.903,12.903,12.903h774.193c7.126,0,12.903-5.775,12.903-12.903V141.936
		C800,134.808,794.223,129.032,787.097,129.032z"/>
	<path fill="#FFFFFF" d="M406.486,444.648c-1.936-1.259-4.18-1.925-6.49-1.925c-2.31,0-4.553,0.666-6.489,1.925l-35.44,23.052
		l10.973-40.829c1.22-4.541-0.354-9.387-4.012-12.344l-32.875-26.581l42.221-2.181c4.697-0.244,8.82-3.239,10.501-7.631
		l15.123-39.479l15.122,39.479c1.683,4.393,5.805,7.388,10.502,7.631l42.218,2.181l-32.875,26.581
		c-3.658,2.958-5.233,7.804-4.012,12.344l10.973,40.829L406.486,444.648z"/>
	<path fill="#FFFFFF" d="M425.57,386.765c-5.096-0.263-9.559-3.506-11.384-8.271l-14.188-37.041l-14.188,37.041
		c-1.825,4.765-6.288,8.007-11.384,8.271l-39.613,2.046l30.845,24.939c3.969,3.209,5.672,8.454,4.349,13.381l-10.295,38.308
		l33.251-21.628c2.139-1.392,4.587-2.087,7.034-2.087c2.448,0,4.896,0.695,7.035,2.087l33.251,21.628l-10.295-38.308
		c-1.325-4.927,0.38-10.172,4.349-13.381l30.845-24.939L425.57,386.765z"/>
</g>
</svg>
