<?xml version="1.0" encoding="utf-8"?>
<!-- Generator: Adobe Illustrator 16.0.0, SVG Export Plug-In . SVG Version: 6.00 Build 0)  -->
<!DOCTYPE svg PUBLIC "-//W3C//DTD SVG 1.1//EN" "http://www.w3.org/Graphics/SVG/1.1/DTD/svg11.dtd">
<svg version="1.1" id="Capa_1" xmlns="http://www.w3.org/2000/svg" xmlns:xlink="http://www.w3.org/1999/xlink" x="0px" y="0px"
	 width="800px" height="800px" viewBox="0 0 800 800" enable-background="new 0 0 800 800" xml:space="preserve">
<g>
	<rect x="25.807" y="154.839" fill="#103B9B" width="748.387" height="61.94"/>
	<rect x="24.807" y="582.221" fill="#103B9B" width="750.387" height="63.94"/>
	<rect x="25.807" y="583.221" fill="#103B9B" width="748.387" height="61.94"/>
	<rect x="25.807" y="553.979" fill="#FFFFFF" width="748.387" height="29.242"/>
	<path fill="#ED1F34" d="M683.871,271.828H25.807v256.344h748.387V271.828h-38.709c-7.128,0-12.903-5.775-12.903-12.903h-25.807
		C696.774,266.053,690.999,271.828,683.871,271.828z M210.753,495.483c-52.65,0-95.484-42.833-95.484-95.483
		s42.833-95.484,95.484-95.484c52.65,0,95.483,42.833,95.483,95.484S263.403,495.483,210.753,495.483z"/>
	<path fill="#FFFFFF" d="M210.753,304.516c-52.65,0-95.484,42.833-95.484,95.484s42.833,95.483,95.484,95.483
		c52.65,0,95.483-42.833,95.483-95.483S263.403,304.516,210.753,304.516z M290.099,375.623c1.651,5.084-0.002,10.66-4.159,14.02
		l-31.929,25.815l10.656,39.654c1.388,5.163-0.552,10.646-4.877,13.787c-2.257,1.64-4.917,2.466-7.583,2.466
		c-2.445,0-4.893-0.691-7.037-2.087l-34.417-22.388l-34.419,22.388c-4.482,2.913-10.297,2.763-14.621-0.379
		c-4.325-3.141-6.266-8.624-4.877-13.787l10.657-39.654l-31.928-25.815c-4.157-3.36-5.81-8.936-4.159-14.02
		c1.652-5.083,6.268-8.625,11.606-8.899l41.004-2.118l14.686-38.345c1.912-4.991,6.703-8.288,12.05-8.288
		c5.347,0,10.138,3.296,12.05,8.288l14.686,38.345l41.004,2.118C283.833,366.999,288.447,370.54,290.099,375.623z"/>
	<path fill="#ED1F34" d="M216.391,381.674l-5.638-14.723l-5.638,14.723c-1.825,4.766-6.287,8.007-11.384,8.272l-15.742,0.814
		l12.258,9.911c3.969,3.208,5.672,8.454,4.347,13.382l-4.091,15.226l13.214-8.595c2.14-1.393,4.588-2.088,7.037-2.088
		s4.896,0.695,7.037,2.088l13.215,8.595l-4.091-15.226c-1.325-4.928,0.38-10.174,4.347-13.382l12.258-9.911l-15.742-0.814
		C222.679,389.681,218.216,386.438,216.391,381.674z"/>
	<path d="M222.803,326.261c-1.912-4.991-6.703-8.288-12.05-8.288c-5.347,0-10.139,3.296-12.05,8.288l-14.686,38.345l-41.004,2.118
		c-5.34,0.275-9.955,3.816-11.606,8.899c-1.651,5.084,0.002,10.66,4.159,14.02l31.929,25.815l-10.656,39.654
		c-1.389,5.163,0.552,10.646,4.877,13.787c4.323,3.142,10.138,3.292,14.62,0.379l34.419-22.388l34.419,22.388
		c2.144,1.396,4.592,2.087,7.037,2.087c2.667,0,5.328-0.824,7.583-2.466c4.325-3.141,6.266-8.624,4.877-13.787l-10.656-39.654
		l31.93-25.815c4.156-3.36,5.81-8.936,4.158-14.02c-1.652-5.083-6.268-8.625-11.606-8.899l-41.005-2.118L222.803,326.261z
		 M231.26,400.67c-3.969,3.208-5.672,8.453-4.348,13.381l4.091,15.226l-13.215-8.595c-2.14-1.393-4.588-2.088-7.036-2.088
		c-2.448,0-4.896,0.695-7.037,2.088l-13.215,8.595l4.091-15.226c1.325-4.928-0.38-10.173-4.348-13.381l-12.258-9.912l15.742-0.813
		c5.098-0.264,9.561-3.506,11.384-8.272l5.638-14.724l5.638,14.724c1.826,4.766,6.287,8.007,11.384,8.272l15.742,0.813
		L231.26,400.67z"/>
	<path fill="#FFFFFF" d="M25.807,246.021h658.064c7.128,0,12.903,5.775,12.903,12.903h25.807c0-7.128,5.775-12.903,12.903-12.903
		h38.709v-29.242H25.807V246.021z"/>
	<path d="M787.097,129.032H12.903C5.775,129.032,0,134.808,0,141.936v516.129c0,7.128,5.775,12.903,12.903,12.903h774.193
		c7.128,0,12.903-5.775,12.903-12.903V141.936C800,134.808,794.225,129.032,787.097,129.032z M774.193,154.839v61.94v29.242h-38.709
		c-7.128,0-12.903,5.775-12.903,12.903s5.775,12.903,12.903,12.903h38.709v256.344H25.807V271.828h658.064
		c7.128,0,12.903-5.775,12.903-12.903s-5.775-12.903-12.903-12.903H25.807v-29.242v-61.94H774.193z M25.807,645.161v-61.94v-29.242
		h748.387v29.242v61.94H25.807z"/>
</g>
</svg>
