<?xml version="1.0" encoding="utf-8"?>
<!-- Generator: Adobe Illustrator 16.0.0, SVG Export Plug-In . SVG Version: 6.00 Build 0)  -->
<!DOCTYPE svg PUBLIC "-//W3C//DTD SVG 1.1//EN" "http://www.w3.org/Graphics/SVG/1.1/DTD/svg11.dtd">
<svg version="1.1" id="Capa_1" xmlns="http://www.w3.org/2000/svg" xmlns:xlink="http://www.w3.org/1999/xlink" x="0px" y="0px"
	 width="800px" height="800px" viewBox="0 0 800 800" enable-background="new 0 0 800 800" xml:space="preserve">
<g>
	<rect x="25.807" y="615.054" fill="#FFFFFF" width="748.387" height="30.107"/>
	<rect x="25.807" y="154.839" fill="#FFFFFF" width="748.387" height="30.107"/>
	<rect x="24.807" y="183.946" fill="#ED1F34" width="750.387" height="32.107"/>
	<rect x="25.807" y="184.946" fill="#ED1F34" width="748.387" height="30.107"/>
	<path fill="#FFFFFF" d="M116.129,559.14h658.064V240.86H25.807V559.14h38.709c7.126,0,12.903,5.777,12.903,12.903h25.806
		C103.226,564.917,109.003,559.14,116.129,559.14z M480.693,351.162c0.275-5.338,3.816-9.954,8.899-11.606
		c5.083-1.648,10.66,0.001,14.021,4.158l17.049,21.091l26.192-7.04c5.157-1.387,10.646,0.551,13.787,4.876
		c3.142,4.325,3.293,10.138,0.379,14.62l-14.789,22.737l14.322,22.021c1.624,2.157,2.586,4.842,2.586,7.751
		c0,7.049-5.651,12.777-12.671,12.901c-1.202,0.027-2.415-0.119-3.614-0.44l-26.192-7.04l-17.049,21.091
		c-2.493,3.085-6.208,4.791-10.035,4.791c-1.33,0-2.676-0.206-3.985-0.633c-5.083-1.651-8.624-6.268-8.899-11.606l-1.398-27.086
		l-25.325-9.701c-4.991-1.914-8.287-6.705-8.287-12.05s3.296-10.137,8.287-12.05l25.325-9.702L480.693,351.162z M370.228,266.667
		c36.722,0,72.122,15.358,97.265,42.163c2.482,2.352,4.033,5.681,4.033,9.371c0,7.039-5.635,12.761-12.641,12.902
		c-2.131,0.063-4.311-0.43-6.312-1.485c-11.505-6.061-23.956-9.135-37.005-9.135c-43.847,0-79.521,35.673-79.521,79.52
		c0,43.847,35.674,79.52,79.521,79.52c13.049,0,25.5-3.074,37.005-9.135c5.557-2.929,12.427-1.429,16.253,3.563
		c3.826,4.987,3.499,12.009-0.772,16.621c-25.174,27.176-60.831,42.763-97.826,42.763c-73.521,0-133.333-59.813-133.333-133.333
		C236.895,326.479,296.707,266.667,370.228,266.667z"/>
	<path fill="#ED1F34" d="M24.807,616.054v-32.107h39.709c6.563,0,11.903-5.34,11.903-11.903v-1h27.806v1
		c0,6.563,5.34,11.903,11.903,11.903h659.064v32.107H24.807z"/>
	<path fill="#ED1F34" d="M774.193,584.946H116.129c-7.126,0-12.903-5.777-12.903-12.903H77.419c0,7.126-5.777,12.903-12.903,12.903
		H25.807v30.107h748.387V584.946z"/>
	<path d="M787.097,129.032H12.903C5.777,129.032,0,134.81,0,141.936v516.129c0,7.126,5.777,12.903,12.903,12.903h774.193
		c7.128,0,12.903-5.777,12.903-12.903V141.936C800,134.81,794.225,129.032,787.097,129.032z M774.193,154.839v30.107v30.107H25.807
		v-30.107v-30.107H774.193z M25.807,645.161v-30.107v-30.107h38.709c7.126,0,12.903-5.777,12.903-12.903
		s-5.777-12.903-12.903-12.903H25.807V240.86h748.387V559.14H116.129c-7.126,0-12.903,5.777-12.903,12.903
		s5.777,12.903,12.903,12.903h658.064v30.107v30.107H25.807z"/>
	<path fill="#ED1F34" d="M370.228,508.527c-59.843,0-108.528-48.686-108.528-108.527s48.685-108.527,108.527-108.527
		c9.426,0,18.848,1.246,28.004,3.704l-0.093,1.952C347.786,305.633,311.24,348.896,311.24,400
		c0,51.105,36.546,94.369,86.898,102.871l0.093,1.952C389.076,507.281,379.654,508.527,370.228,508.527z"/>
	<path fill="#ED1F34" d="M370.228,507.527c9.434,0,18.76-1.258,27.744-3.67C348.241,495.46,310.24,452.084,310.24,400
		c0-52.084,38.001-95.458,87.731-103.857c-8.985-2.412-18.313-3.669-27.745-3.669c-59.29,0-107.527,48.237-107.527,107.527
		C262.699,459.289,310.937,507.527,370.228,507.527z"/>
	<path d="M370.228,533.333c36.995,0,72.652-15.587,97.826-42.765c4.271-4.612,4.599-11.633,0.772-16.621
		c-3.828-4.989-10.696-6.491-16.253-3.563c-11.505,6.061-23.956,9.135-37.005,9.135c-43.847,0-79.521-35.673-79.521-79.52
		s35.674-79.52,79.521-79.52c13.049,0,25.5,3.074,37.005,9.135c2.001,1.055,4.181,1.548,6.312,1.485
		c7.004-0.141,12.641-5.863,12.641-12.901c0-3.69-1.549-7.02-4.033-9.371c-25.143-26.803-60.543-42.161-97.265-42.161
		c-73.521,0-133.333,59.813-133.333,133.333C236.895,473.521,296.707,533.333,370.228,533.333z M370.228,292.473
		c9.434,0,18.76,1.258,27.746,3.669c-49.731,8.397-87.731,51.773-87.731,103.857c0,52.084,38,95.458,87.731,103.857
		c-8.986,2.412-18.311,3.67-27.744,3.67c-59.289,0-107.527-48.238-107.527-107.527C262.703,340.71,310.937,292.473,370.228,292.473z
		"/>
	<path fill="#ED1F34" d="M503.636,412.09c-0.243-4.699-3.237-8.821-7.63-10.502L491.861,400l4.145-1.587
		c4.392-1.681,7.387-5.804,7.63-10.502l0.23-4.428l2.785,3.447c2.271,2.809,5.645,4.42,9.258,4.42c1.04,0,2.079-0.137,3.086-0.408
		l4.284-1.154l-2.418,3.723c-2.565,3.942-2.565,9.037-0.001,12.98l2.42,3.724l-4.286-1.155c-1.005-0.27-2.042-0.406-3.081-0.406
		c-3.616,0-6.992,1.61-9.263,4.419l-2.784,3.445L503.636,412.09z"/>
	<path fill="#ED1F34" d="M504.635,412.038l0.095,1.819l1.144-1.415c3.209-3.97,8.46-5.669,13.382-4.35l1.764,0.476l-0.996-1.533
		c-2.782-4.277-2.782-9.793,0-14.07l0.996-1.533l-1.764,0.475c-4.927,1.323-10.173-0.38-13.382-4.35l-1.144-1.416l-0.095,1.82
		c-0.264,5.096-3.504,9.559-8.271,11.384L494.656,400l1.707,0.654C501.131,402.479,504.371,406.941,504.635,412.038z"/>
	<path d="M445.685,400c0,5.346,3.296,10.137,8.287,12.05l25.324,9.701l1.399,27.087c0.275,5.339,3.815,9.954,8.899,11.606
		c1.312,0.426,2.654,0.633,3.984,0.633c3.828,0,7.543-1.707,10.035-4.792l17.05-21.09l26.191,7.04
		c1.198,0.321,2.411,0.468,3.615,0.44c7.02-0.124,12.671-5.854,12.671-12.902c0-2.909-0.962-5.593-2.586-7.75l-14.322-22.021
		l14.788-22.737c2.915-4.48,2.764-10.295-0.378-14.62s-8.63-6.263-13.788-4.876l-26.191,7.04l-17.05-21.091
		c-3.359-4.156-8.938-5.808-14.02-4.158c-5.084,1.652-8.624,6.268-8.899,11.606l-1.398,27.086l-25.325,9.702
		C448.98,389.863,445.685,394.655,445.685,400z M496.365,399.346c4.767-1.825,8.006-6.288,8.271-11.384l0.095-1.82l1.144,1.416
		c3.209,3.969,8.454,5.671,13.382,4.35l1.764-0.475l-0.996,1.533c-2.782,4.277-2.782,9.792,0,14.07l0.996,1.533l-1.764-0.476
		c-4.922-1.321-10.173,0.38-13.382,4.35l-1.144,1.415l-0.095-1.819c-0.264-5.097-3.505-9.56-8.272-11.384L494.658,400
		L496.365,399.346z"/>
</g>
</svg>
