<?xml version="1.0" encoding="utf-8"?>
<!-- Generator: Adobe Illustrator 16.0.0, SVG Export Plug-In . SVG Version: 6.00 Build 0)  -->
<!DOCTYPE svg PUBLIC "-//W3C//DTD SVG 1.1//EN" "http://www.w3.org/Graphics/SVG/1.1/DTD/svg11.dtd">
<svg version="1.1" id="Capa_1" xmlns="http://www.w3.org/2000/svg" xmlns:xlink="http://www.w3.org/1999/xlink" x="0px" y="0px"
	 width="800px" height="800px" viewBox="0 0 800 800" enable-background="new 0 0 800 800" xml:space="preserve">
<g>
	<rect x="24.807" y="153.839" fill="#ED1F34" width="211.708" height="177.484"/>
	<rect x="25.807" y="154.839" fill="#ED1F34" width="209.708" height="175.484"/>
	<rect x="373.87" y="153.839" fill="#ED1F34" width="401.323" height="177.484"/>
	<rect x="374.87" y="154.839" fill="#ED1F34" width="399.323" height="175.484"/>
	<rect x="373.87" y="468.678" fill="#ED1F34" width="401.323" height="177.483"/>
	<rect x="374.87" y="469.678" fill="#ED1F34" width="399.323" height="175.483"/>
	<rect x="24.807" y="468.678" fill="#ED1F34" width="211.708" height="177.483"/>
	<rect x="25.807" y="469.678" fill="#ED1F34" width="209.708" height="175.483"/>
	<polygon fill="#FFFFFF" points="374.87,154.839 355.515,154.839 355.515,349.677 774.193,349.677 774.193,330.323 374.87,330.323 	
		"/>
	<path fill="#FFFFFF" d="M235.515,330.323H25.807v19.354h38.709c7.126,0,12.903,5.777,12.903,12.903h25.806
		c0-7.126,5.777-12.903,12.903-12.903H254.87V154.839h-19.355V330.323z"/>
	<polygon fill="#FFFFFF" points="235.515,645.161 254.87,645.161 254.87,450.322 25.807,450.322 25.807,469.678 235.515,469.678 	
		"/>
	<polygon fill="#FFFFFF" points="374.87,469.678 774.193,469.678 774.193,450.322 355.515,450.322 355.515,645.161 374.87,645.161 	
		"/>
	<path fill="#164FCE" d="M279.676,646.161V437.419c0-6.563-5.34-11.902-11.903-11.902H24.807v-51.033h39.709
		c6.563,0,11.903-5.34,11.903-11.903v-1h27.806v1c0,6.563,5.34,11.903,11.903,11.903h151.644c6.563,0,11.903-5.34,11.903-11.903
		V153.839h51.032v208.742c0,6.563,5.34,11.903,11.903,11.903h432.582v51.033H342.611c-6.563,0-11.903,5.339-11.903,11.902v208.742
		H279.676z"/>
	<path fill="#164FCE" d="M64.516,375.484H25.807v49.033h241.966c7.126,0,12.903,5.776,12.903,12.902v207.742h49.032V437.419
		c0-7.126,5.777-12.902,12.903-12.902h431.582v-49.033H342.611c-7.126,0-12.903-5.777-12.903-12.903V154.839h-49.032v207.742
		c0,7.126-5.777,12.903-12.903,12.903H116.129c-7.126,0-12.903-5.777-12.903-12.903H77.419
		C77.419,369.707,71.642,375.484,64.516,375.484z"/>
	<path d="M787.097,129.032H12.903C5.777,129.032,0,134.81,0,141.936v516.129c0,7.126,5.777,12.903,12.903,12.903h774.193
		c7.128,0,12.903-5.777,12.903-12.903V141.936C800,134.81,794.225,129.032,787.097,129.032z M254.87,349.677H116.129
		c-7.126,0-12.903,5.777-12.903,12.903s5.777,12.903,12.903,12.903h151.644c7.126,0,12.903-5.777,12.903-12.903V154.839h49.032
		v207.742c0,7.126,5.777,12.903,12.903,12.903h431.582v49.033H342.611c-7.126,0-12.903,5.776-12.903,12.902v207.742h-49.032V437.419
		c0-7.126-5.777-12.902-12.903-12.902H25.807v-49.033h38.709c7.126,0,12.903-5.777,12.903-12.903s-5.777-12.903-12.903-12.903
		H25.807v-19.354V154.839h209.708h19.355V349.677z M774.193,330.323v19.354H355.515V154.839h19.355h399.323V330.323z
		 M25.807,469.678v-19.355H254.87v194.839h-19.355H25.807V469.678z M355.515,450.322h418.679v19.355v175.483H374.87h-19.355V450.322
		z"/>
</g>
</svg>
