<?xml version="1.0" encoding="utf-8"?>
<!-- Generator: Adobe Illustrator 16.0.0, SVG Export Plug-In . SVG Version: 6.00 Build 0)  -->
<!DOCTYPE svg PUBLIC "-//W3C//DTD SVG 1.1//EN" "http://www.w3.org/Graphics/SVG/1.1/DTD/svg11.dtd">
<svg version="1.1" id="Capa_1" xmlns="http://www.w3.org/2000/svg" xmlns:xlink="http://www.w3.org/1999/xlink" x="0px" y="0px"
	 width="800px" height="800px" viewBox="0 0 800 800" enable-background="new 0 0 800 800" xml:space="preserve">
<g>
	<rect x="283.871" y="154.839" fill="#FFFFFF" width="490.322" height="146.236"/>
	<path fill="#259245" d="M282.871,646.161V497.925h41.104c6.563,0,11.902-5.34,11.902-11.903v-1h27.807v1
		c0,6.563,5.34,11.903,11.903,11.903h399.606v148.236H282.871z"/>
	<path fill="#259245" d="M774.193,498.925H375.587c-7.126,0-12.903-5.777-12.903-12.903h-25.807c0,7.126-5.776,12.903-12.902,12.903
		h-40.104v146.236h490.322V498.925z"/>
	<path fill="#ED1F34" d="M24.807,646.161V153.839h234.258v160.14c0,6.563,5.34,11.903,11.903,11.903h504.226v148.236H375.587
		c-6.563,0-11.903,5.34-11.903,11.903v1h-27.807v-1c0-6.563-5.339-11.903-11.902-11.903h-53.007c-6.563,0-11.903,5.34-11.903,11.903
		v160.14H24.807z M165.347,322.395c2.247,2.249,5.236,3.487,8.417,3.487s6.169-1.238,8.416-3.486
		c2.249-2.248,3.487-5.237,3.487-8.417s-1.238-6.169-3.486-8.417l-23.411-23.412l23.411-23.411c2.248-2.248,3.486-5.236,3.486-8.416
		c0-3.179-1.238-6.168-3.486-8.417c-2.248-2.248-5.236-3.486-8.416-3.486c-3.18,0-6.168,1.238-8.417,3.486l-23.412,23.412
		l-23.412-23.412c-2.248-2.248-5.236-3.486-8.416-3.486c-3.18,0-6.169,1.238-8.417,3.486c-2.248,2.248-3.486,5.236-3.486,8.416
		c0,3.18,1.238,6.169,3.486,8.417l23.412,23.411l-23.412,23.412c-2.248,2.248-3.486,5.236-3.486,8.416s1.238,6.168,3.486,8.417
		c2.247,2.249,5.236,3.487,8.417,3.487c3.181,0,6.169-1.238,8.416-3.486l23.412-23.412L165.347,322.395z"/>
	<path fill="#ED1F34" d="M375.587,473.118h398.606V326.882H270.968c-7.126,0-12.903-5.777-12.903-12.903v-159.14H25.807v490.322
		h232.258v-159.14c0-7.126,5.777-12.903,12.903-12.903h53.007c7.126,0,12.902,5.777,12.902,12.903h25.807
		C362.684,478.896,368.459,473.118,375.587,473.118z M182.887,304.855c5.039,5.039,5.039,13.209,0,18.247
		c-2.519,2.521-5.822,3.78-9.123,3.78c-3.302,0-6.605-1.259-9.124-3.78l-22.705-22.705l-22.705,22.705
		c-2.519,2.521-5.822,3.78-9.124,3.78c-3.301,0-6.604-1.259-9.124-3.78c-5.039-5.039-5.039-13.209,0-18.247l22.705-22.705
		l-22.705-22.704c-5.039-5.04-5.039-13.21,0-18.247c5.04-5.039,13.209-5.039,18.247,0l22.705,22.705l22.705-22.705
		c5.039-5.039,13.209-5.039,18.247,0c5.039,5.039,5.039,13.209,0,18.247l-22.704,22.704L182.887,304.855z"/>
	<path d="M787.097,129.032H12.903C5.777,129.032,0,134.81,0,141.936v516.129c0,7.126,5.777,12.903,12.903,12.903h774.193
		c7.128,0,12.903-5.777,12.903-12.903V141.936C800,134.81,794.225,129.032,787.097,129.032z M283.871,498.925h40.104
		c7.126,0,12.902-5.777,12.902-12.903s-5.776-12.903-12.902-12.903h-53.007c-7.126,0-12.903,5.777-12.903,12.903v159.14H25.807
		V154.839h232.258v159.14c0,7.126,5.777,12.903,12.903,12.903h503.226v146.236H375.587c-7.126,0-12.903,5.777-12.903,12.903
		s5.777,12.903,12.903,12.903h398.606v146.236H283.871V498.925z M774.193,301.075H283.871V154.839h490.322V301.075z"/>
	<path fill="#FFFFFF" d="M182.887,241.199c-5.039-5.039-13.209-5.039-18.247,0l-22.705,22.705l-22.705-22.705
		c-5.039-5.039-13.209-5.039-18.247,0c-5.039,5.039-5.039,13.209,0,18.247l22.705,22.704l-22.705,22.705
		c-5.039,5.039-5.039,13.209,0,18.247c2.519,2.521,5.822,3.78,9.124,3.78c3.302,0,6.605-1.259,9.124-3.78l22.705-22.705
		l22.705,22.705c2.519,2.521,5.822,3.78,9.124,3.78c3.301,0,6.604-1.259,9.123-3.78c5.039-5.039,5.039-13.209,0-18.247
		l-22.704-22.705l22.704-22.704C187.926,254.409,187.926,246.236,182.887,241.199z"/>
</g>
</svg>
