<?xml version="1.0" encoding="utf-8"?>
<!-- Generator: Adobe Illustrator 16.0.0, SVG Export Plug-In . SVG Version: 6.00 Build 0)  -->
<!DOCTYPE svg PUBLIC "-//W3C//DTD SVG 1.1//EN" "http://www.w3.org/Graphics/SVG/1.1/DTD/svg11.dtd">
<svg version="1.1" id="Capa_1" xmlns="http://www.w3.org/2000/svg" xmlns:xlink="http://www.w3.org/1999/xlink" x="0px" y="0px"
	 width="800px" height="800px" viewBox="0 0 800 800" enable-background="new 0 0 800 800" xml:space="preserve">
<g>
	<path fill="#103B9B" d="M365.225,442.474c-0.576-1.795-1.585-3.447-2.918-4.778l-0.708-0.707L401,397.586v149.963l-1.952,0.306
		L365.225,442.474z"/>
	<path fill="#103B9B" d="M366.177,442.168L400,547.549V400l-36.987,36.987C364.444,438.417,365.54,440.185,366.177,442.168z"/>
	<path fill="#103B9B" d="M397.586,399h149.963l0.306,1.952l-105.381,33.823c-1.793,0.576-3.445,1.585-4.779,2.919l-0.707,0.707
		L397.586,399z"/>
	<path fill="#103B9B" d="M436.987,436.987c1.432-1.432,3.198-2.527,5.181-3.164L547.549,400H400L436.987,436.987z"/>
	<path fill="#103B9B" d="M695.774,659.064v-1c0-6.563-5.34-11.903-11.903-11.903H24.807V153.839h750.387v492.322h-39.709
		c-6.563,0-11.903,5.34-11.903,11.903v1H695.774z M400,198.328c-5.194,0-9.749,3.322-11.335,8.265l-44.24,137.832l-137.831,44.24
		c-4.944,1.587-8.266,6.142-8.266,11.335c0,5.194,3.322,9.749,8.265,11.335l137.832,44.24l44.24,137.831
		c1.586,4.944,6.141,8.266,11.335,8.266c5.194,0,9.749-3.321,11.335-8.266l44.24-137.831l137.831-44.24
		c4.944-1.586,8.266-6.142,8.266-11.335s-3.321-9.749-8.266-11.335l-137.831-44.24l-44.24-137.831
		C409.749,201.65,405.194,198.328,400,198.328z M242.173,443.517c-1.34,0-2.666,0.228-3.942,0.677
		c-6.194,2.177-9.464,8.983-7.289,15.174c17.848,50.834,58.854,91.841,109.69,109.692c1.276,0.448,2.603,0.676,3.944,0.676
		c5.045,0,9.559-3.199,11.23-7.962c1.054-3.001,0.876-6.232-0.499-9.099s-3.785-5.023-6.783-6.076
		c-44.085-15.483-79.644-51.041-95.12-95.117C251.732,446.718,247.219,443.517,242.173,443.517z M557.83,443.514
		c-5.047,0-9.561,3.2-11.231,7.964c-15.479,44.079-51.037,79.637-95.119,95.117c-6.193,2.176-9.462,8.984-7.286,15.177
		c1.674,4.762,6.187,7.962,11.23,7.962c1.341,0,2.668-0.228,3.943-0.676c50.834-17.849,91.84-58.855,109.69-109.691
		c2.177-6.19-1.092-12.998-7.285-15.177C560.497,443.741,559.17,443.514,557.83,443.514z M344.578,230.266
		c-1.34,0-2.668,0.228-3.946,0.676c-50.833,17.849-91.839,58.855-109.689,109.693c-1.054,3-0.877,6.229,0.5,9.096
		c1.376,2.866,3.788,5.025,6.789,6.08c1.274,0.449,2.601,0.676,3.942,0.676c5.046,0,9.559-3.201,11.23-7.964
		c15.479-44.083,51.038-79.642,95.119-95.119c3-1.054,5.41-3.213,6.787-6.08s1.554-6.097,0.5-9.096
		C354.135,233.465,349.622,230.266,344.578,230.266z M455.424,230.263c-5.046,0-9.56,3.2-11.23,7.962
		c-1.054,3.001-0.877,6.232,0.499,9.098s3.786,5.024,6.787,6.077c44.084,15.48,79.643,51.039,95.119,95.118
		c1.672,4.764,6.185,7.965,11.23,7.965c1.34,0,2.666-0.228,3.941-0.676c3.001-1.054,5.411-3.213,6.788-6.079
		c1.377-2.866,1.555-6.096,0.501-9.095c-17.849-50.835-58.854-91.842-109.689-109.694
		C458.092,230.491,456.765,230.263,455.424,230.263z"/>
	<path fill="#103B9B" d="M735.484,645.161h38.709V154.839H25.807v490.322h658.064c7.128,0,12.903,5.775,12.903,12.903h25.807
		C722.581,650.937,728.356,645.161,735.484,645.161z M443.25,237.894c2.358-6.722,9.724-10.26,16.451-7.898
		c51.119,17.951,92.354,59.187,110.302,110.306c2.362,6.723-1.177,14.086-7.9,16.449c-1.413,0.497-2.856,0.733-4.273,0.733
		c-5.327,0-10.311-3.322-12.174-8.633c-15.377-43.795-50.708-79.126-94.507-94.506C444.423,251.984,440.888,244.619,443.25,237.894z
		 M229.999,340.303c17.949-51.119,59.183-92.356,110.302-110.305c6.73-2.36,14.089,1.177,16.451,7.898
		c2.362,6.723-1.175,14.088-7.898,16.451c-43.799,15.379-79.128,50.711-94.507,94.507c-1.863,5.311-6.847,8.633-12.174,8.633
		c-1.417,0-2.861-0.235-4.273-0.733C231.174,354.39,227.635,347.026,229.999,340.303z M356.75,562.104
		c-1.863,5.309-6.849,8.631-12.174,8.631c-1.418,0-2.861-0.235-4.275-0.732c-51.119-17.951-92.354-59.187-110.302-110.304
		c-2.362-6.724,1.177-14.087,7.9-16.449c6.718-2.364,14.088,1.177,16.449,7.9c15.377,43.795,50.708,79.122,94.507,94.505
		C355.577,548.014,359.112,555.379,356.75,562.104z M570.001,459.697c-17.949,51.117-59.183,92.354-110.302,110.304
		c-1.414,0.497-2.858,0.732-4.275,0.732c-5.326,0-10.309-3.322-12.174-8.631c-2.362-6.724,1.175-14.089,7.898-16.451
		c43.799-15.381,79.128-50.709,94.507-94.505c2.358-6.724,9.729-10.263,16.449-7.9C568.826,445.61,572.365,452.974,570.001,459.697z
		 M593.712,412.287L456.37,456.37l-44.083,137.342c-1.713,5.34-6.68,8.96-12.287,8.96c-5.606,0-10.574-3.62-12.287-8.96
		L343.63,456.37l-137.342-44.083c-5.34-1.713-8.96-6.68-8.96-12.287c0-5.607,3.62-10.574,8.96-12.288L343.63,343.63l44.083-137.342
		c1.713-5.34,6.681-8.96,12.287-8.96c5.607,0,10.574,3.62,12.287,8.96L456.37,343.63l137.342,44.083
		c5.34,1.714,8.96,6.681,8.96,12.288C602.672,405.607,599.051,410.574,593.712,412.287z"/>
	<path fill="#103B9B" d="M252.451,401l-0.306-1.952l105.381-33.824c1.792-0.575,3.444-1.584,4.779-2.918l0.707-0.707L402.414,401
		H252.451z"/>
	<path fill="#103B9B" d="M357.832,366.176L252.451,400H400l-36.987-36.987C361.581,364.444,359.814,365.54,357.832,366.176z"/>
	<path fill="#103B9B" d="M399,252.451l1.952-0.306l33.823,105.381c0.575,1.793,1.585,3.446,2.919,4.779l0.707,0.707L399,402.414
		V252.451z"/>
	<path fill="#103B9B" d="M433.823,357.832L400,252.451V400l36.987-36.987C435.557,361.583,434.46,359.816,433.823,357.832z"/>
	<path d="M787.097,129.032H12.903C5.775,129.032,0,134.808,0,141.936v516.129c0,7.128,5.775,12.903,12.903,12.903h670.968
		c7.128,0,12.903-5.775,12.903-12.903s-5.775-12.903-12.903-12.903H25.807V154.839h748.387v490.322h-38.709
		c-7.128,0-12.903,5.775-12.903,12.903s5.775,12.903,12.903,12.903h51.612c7.128,0,12.903-5.775,12.903-12.903V141.936
		C800,134.808,794.225,129.032,787.097,129.032z"/>
	<path fill="#FFFFFF" d="M593.712,387.713L456.37,343.63l-44.083-137.342c-1.713-5.34-6.68-8.96-12.287-8.96
		c-5.606,0-10.574,3.62-12.287,8.96L343.63,343.63l-137.342,44.083c-5.34,1.713-8.96,6.68-8.96,12.287
		c0,5.607,3.62,10.574,8.96,12.287L343.63,456.37l44.083,137.342c1.713,5.34,6.681,8.96,12.287,8.96
		c5.607,0,10.574-3.62,12.287-8.96L456.37,456.37l137.342-44.083c5.34-1.713,8.96-6.68,8.96-12.287
		C602.672,394.393,599.051,389.426,593.712,387.713z M442.168,433.823c-1.982,0.637-3.749,1.732-5.181,3.164L400,400v147.549
		l-33.823-105.381c-0.637-1.982-1.732-3.751-3.162-5.181L400,400H252.451l105.381-33.824c1.982-0.636,3.749-1.732,5.181-3.164
		L400,400V252.451l33.823,105.381c0.637,1.982,1.733,3.751,3.163,5.181L400,400h147.549L442.168,433.823z"/>
	<path fill="#FFFFFF" d="M451.146,254.345c43.799,15.379,79.128,50.711,94.507,94.507c1.863,5.311,6.848,8.633,12.174,8.633
		c1.418,0,2.861-0.236,4.273-0.733c6.724-2.36,10.263-9.724,7.9-16.449c-17.949-51.119-59.183-92.356-110.302-110.305
		c-6.726-2.362-14.091,1.177-16.451,7.898C440.888,244.619,444.423,251.984,451.146,254.345z"/>
	<path fill="#FFFFFF" d="M237.897,356.75c1.413,0.497,2.856,0.733,4.274,0.733c5.326,0,10.31-3.322,12.173-8.633
		c15.377-43.795,50.708-79.126,94.507-94.506c6.724-2.36,10.261-9.726,7.898-16.451c-2.36-6.722-9.719-10.259-16.45-7.898
		c-51.12,17.951-92.355,59.186-110.302,110.305C227.635,347.026,231.174,354.39,237.897,356.75z"/>
	<path fill="#FFFFFF" d="M562.103,443.25c-6.719-2.362-14.089,1.177-16.449,7.9c-15.377,43.795-50.708,79.122-94.507,94.505
		c-6.724,2.36-10.261,9.726-7.898,16.45c1.865,5.31,6.848,8.632,12.174,8.632c1.418,0,2.861-0.235,4.275-0.732
		c51.119-17.951,92.354-59.187,110.302-110.304C572.365,452.974,568.826,445.61,562.103,443.25z"/>
	<path fill="#FFFFFF" d="M348.854,545.653c-43.799-15.381-79.128-50.71-94.507-94.505c-2.359-6.724-9.729-10.264-16.449-7.9
		c-6.723,2.36-10.262,9.724-7.9,16.449c17.949,51.117,59.183,92.354,110.301,110.304c1.415,0.497,2.858,0.732,4.275,0.732
		c5.325,0,10.311-3.322,12.174-8.631C359.112,555.379,355.577,548.014,348.854,545.653z"/>
</g>
</svg>
