<?xml version="1.0" encoding="utf-8"?>
<!-- Generator: Adobe Illustrator 16.0.0, SVG Export Plug-In . SVG Version: 6.00 Build 0)  -->
<!DOCTYPE svg PUBLIC "-//W3C//DTD SVG 1.1//EN" "http://www.w3.org/Graphics/SVG/1.1/DTD/svg11.dtd">
<svg version="1.1" id="Capa_1" xmlns="http://www.w3.org/2000/svg" xmlns:xlink="http://www.w3.org/1999/xlink" x="0px" y="0px"
	 width="800px" height="800px" viewBox="0 0 800 800" enable-background="new 0 0 800 800" xml:space="preserve">
<g>
	<path fill="#134923" d="M196.85,646.161V153.839h578.344v91.322c0,6.563,5.34,11.903,11.903,11.903h1v27.807h-1
		c-6.563,0-11.903,5.34-11.903,11.903v349.387H196.85z M429.227,277.592c-1.083,0-2.164,0.149-3.213,0.442
		c-23.182,6.495-44.455,18.948-61.521,36.013c-26.619,26.619-41.278,62.011-41.278,99.656c0,37.645,14.66,73.035,41.278,99.654
		c26.622,26.619,62.014,41.279,99.657,41.279c37.646,0,73.039-14.66,99.658-41.279c17.065-17.068,29.519-38.342,36.011-61.522
		c1.497-5.34-0.848-10.942-5.7-13.625c-1.76-0.973-3.749-1.487-5.755-1.487c-3.352,0-6.566,1.423-8.82,3.902
		c-1.165,1.285-2.294,2.474-3.452,3.632c-19.03,19.03-44.333,29.511-71.248,29.511c-26.912,0-52.216-10.481-71.248-29.513
		c-19.001-19.001-29.465-44.303-29.464-71.248c0-26.944,10.465-52.247,29.466-71.247c1.133-1.132,2.32-2.262,3.63-3.452
		c4.106-3.729,5.1-9.721,2.415-14.573C437.546,279.946,433.555,277.592,429.227,277.592z M567.983,395.712
		c2.118,3.676,6.068,5.96,10.31,5.96c0.621,0,1.248-0.05,1.864-0.147c4.837-0.766,8.769-4.5,9.784-9.292l8.642-40.805l40.808-8.643
		c4.792-1.015,8.525-4.946,9.291-9.782c0.766-4.837-1.57-9.729-5.813-12.175L606.729,300l4.39-41.478
		c0.515-4.87-2.07-9.635-6.433-11.858c-1.666-0.849-3.533-1.297-5.4-1.297c-2.951,0-5.783,1.088-7.976,3.064l-30.977,27.931
		l-38.092-16.993c-1.538-0.686-3.169-1.034-4.849-1.034c-3.18,0-6.169,1.239-8.418,3.488c-3.462,3.463-4.448,8.795-2.454,13.267
		l16.995,38.092l-27.934,30.976c-3.277,3.635-3.986,9.01-1.764,13.375c2.042,4.009,6.107,6.5,10.609,6.5
		c0.415,0,0.835-0.022,1.249-0.066l41.479-4.39L567.983,395.712z"/>
	<path fill="#134923" d="M774.193,245.161v-90.322H197.85v490.322h576.344V296.774c0-7.126,5.775-12.903,12.903-12.903v-25.807
		C779.969,258.064,774.193,252.287,774.193,245.161z M600.781,452.104c-6.539,23.347-19.08,44.771-36.267,61.96
		c-26.808,26.808-62.452,41.572-100.365,41.572c-37.911,0-73.555-14.765-100.364-41.572c-26.808-26.808-41.571-62.45-41.571-100.361
		s14.764-73.555,41.571-100.363c17.187-17.186,38.611-29.728,61.959-36.269c5.768-1.614,11.878,0.946,14.772,6.18
		c2.896,5.235,1.813,11.774-2.617,15.797c-1.297,1.178-2.474,2.297-3.596,3.418c-38.897,38.896-38.897,102.185-0.002,141.081
		c18.843,18.842,43.896,29.22,70.541,29.22c26.646,0,51.699-10.376,70.541-29.218c1.118-1.119,2.237-2.294,3.419-3.598
		c4.025-4.429,10.563-5.513,15.799-2.617C599.837,440.229,602.396,446.343,600.781,452.104z M649.669,333.16
		c-0.835,5.28-4.84,9.497-10.071,10.604l-40.171,8.508l-8.507,40.168c-1.108,5.23-5.325,9.235-10.605,10.071
		c-0.676,0.107-1.351,0.16-2.021,0.16c-4.559,0-8.85-2.422-11.176-6.46l-20.502-35.573l-40.833,4.322
		c-5.301,0.559-10.428-2.211-12.854-6.975c-2.426-4.764-1.666-10.529,1.913-14.498l27.497-30.493l-16.729-37.499
		c-2.178-4.883-1.118-10.602,2.66-14.381c3.781-3.781,9.496-4.839,14.381-2.66l37.498,16.728l30.493-27.496
		c3.971-3.579,9.734-4.342,14.5-1.915c4.764,2.428,7.535,7.539,6.973,12.855l-4.321,40.831l35.575,20.504
		C648,322.632,650.505,327.881,649.669,333.16z"/>
	<rect x="25.807" y="154.839" fill="#FFFFFF" width="146.236" height="490.322"/>
	<path fill="#FFFFFF" d="M416.054,461.793c-36.781-36.781-45.928-90.896-27.441-136.296c-2.266,1.941-4.463,3.971-6.577,6.087
		c-21.934,21.934-34.015,51.097-34.015,82.116c0,31.02,12.079,60.182,34.015,82.115c21.934,21.936,51.097,34.015,82.114,34.015
		c31.02,0,60.183-12.079,82.114-34.014c2.082-2.081,4.079-4.237,5.991-6.465c-14.854,6.053-30.891,9.222-47.413,9.222
		C471.303,498.572,439.771,485.511,416.054,461.793z"/>
	<path d="M594.602,437.333c-5.235-2.896-11.773-1.812-15.799,2.617c-1.184,1.303-2.301,2.479-3.419,3.598
		c-18.842,18.842-43.895,29.218-70.541,29.218c-26.646,0-51.698-10.378-70.541-29.22c-38.896-38.896-38.896-102.185,0.002-141.081
		c1.122-1.122,2.299-2.242,3.596-3.418c4.429-4.022,5.513-10.562,2.617-15.797c-2.895-5.234-9.005-7.795-14.772-6.18
		c-23.346,6.541-44.771,19.083-61.959,36.268c-26.808,26.808-41.571,62.452-41.571,100.363c0,37.912,14.764,73.556,41.571,100.361
		c26.81,26.81,62.453,41.573,100.364,41.573c37.913,0,73.558-14.766,100.365-41.573c17.187-17.187,29.728-38.613,36.267-61.959
		C602.396,446.343,599.837,440.229,594.602,437.333z M546.266,495.815c-21.932,21.935-51.095,34.014-82.114,34.014
		c-31.018,0-60.181-12.079-82.114-34.015c-21.934-21.934-34.015-51.096-34.015-82.115c0-31.019,12.079-60.182,34.015-82.116
		c2.114-2.116,4.312-4.146,6.577-6.087c-18.486,45.402-9.34,99.515,27.44,136.296c23.718,23.718,55.25,36.777,88.79,36.777
		c16.523,0,32.56-3.169,47.413-9.222C550.345,491.577,548.348,493.734,546.266,495.815z"/>
	<path fill="#FFFFFF" d="M587.635,317.626c-4.421-2.548-6.924-7.463-6.388-12.539l1.659-15.677l-11.708,10.557
		c-3.786,3.417-9.233,4.282-13.897,2.201l-14.396-6.423l6.422,14.397c2.078,4.661,1.217,10.107-2.2,13.897l-10.559,11.709
		l15.677-1.66c0.456-0.048,0.908-0.072,1.361-0.072c4.576,0,8.854,2.436,11.176,6.46l7.871,13.659l3.267-15.424
		c1.057-4.991,4.957-8.891,9.949-9.949l15.424-3.266L587.635,317.626z"/>
	<path d="M643.369,319.962l-35.575-20.504l4.321-40.831c0.563-5.316-2.209-10.429-6.973-12.855
		c-4.766-2.429-10.529-1.664-14.5,1.915l-30.493,27.496l-37.498-16.728c-4.886-2.182-10.6-1.122-14.381,2.66
		c-3.778,3.78-4.838,9.499-2.66,14.381l16.729,37.499l-27.498,30.493c-3.578,3.969-4.339,9.736-1.913,14.498
		c2.428,4.764,7.555,7.532,12.855,6.975l40.833-4.322l20.502,35.573c2.328,4.038,6.617,6.46,11.176,6.46
		c0.671,0,1.346-0.053,2.021-0.16c5.28-0.836,9.499-4.841,10.604-10.071l8.508-40.168l40.171-8.508
		c5.229-1.108,9.234-5.325,10.071-10.604C650.505,327.881,648,322.632,643.369,319.962z M575.923,338.713l-3.268,15.424
		l-7.871-13.658c-2.32-4.024-6.6-6.46-11.176-6.46c-0.452,0-0.904,0.024-1.36,0.072l-15.677,1.66l10.559-11.709
		c3.416-3.791,4.278-9.237,2.2-13.898l-6.423-14.396l14.396,6.422c4.664,2.082,10.111,1.216,13.898-2.201l11.707-10.556
		l-1.658,15.676c-0.539,5.075,1.966,9.989,6.388,12.539l13.658,7.873l-15.423,3.266
		C580.879,329.822,576.979,333.722,575.923,338.713z"/>
	<path d="M774.193,296.774v348.387H197.85V154.839h576.344v90.322c0,7.126,5.775,12.903,12.903,12.903S800,252.287,800,245.161
		V141.936c0-7.126-5.775-12.903-12.903-12.903H12.903C5.775,129.032,0,134.81,0,141.936v516.129c0,7.126,5.775,12.903,12.903,12.903
		h774.193c7.128,0,12.903-5.777,12.903-12.903v-361.29c0-7.126-5.775-12.903-12.903-12.903S774.193,289.648,774.193,296.774z
		 M25.807,154.839h146.236v490.322H25.807V154.839z"/>
</g>
</svg>
