<?xml version="1.0" encoding="utf-8"?>
<!-- Generator: Adobe Illustrator 16.0.0, SVG Export Plug-In . SVG Version: 6.00 Build 0)  -->
<!DOCTYPE svg PUBLIC "-//W3C//DTD SVG 1.1//EN" "http://www.w3.org/Graphics/SVG/1.1/DTD/svg11.dtd">
<svg version="1.1" id="Capa_1" xmlns="http://www.w3.org/2000/svg" xmlns:xlink="http://www.w3.org/1999/xlink" x="0px" y="0px"
	 width="800px" height="800px" viewBox="0 0 800 800" enable-background="new 0 0 800 800" xml:space="preserve">
<g>
	<path fill="#3DB4EA" d="M24.807,646.161V153.839h659.064c6.563,0,11.903-5.34,11.903-11.903v-1h27.807v1
		c0,6.563,5.34,11.903,11.903,11.903h39.709v492.322H24.807z M343.924,259.066c-77.712,0-140.935,63.224-140.935,140.936
		c0,66.763,47.423,124.847,112.761,138.111c0.789,0.159,1.591,0.24,2.382,0.24c5.629,0,10.529-4.012,11.651-9.538
		c0.024-0.119,0.04-0.239,0.056-0.359l0.175-1.17l0.947,0.096c4.287,0.433,8.649,0.652,12.964,0.652
		c4.297,0,8.659-0.22,12.965-0.652l0.946-0.095l0.175,1.168c0.016,0.12,0.032,0.24,0.056,0.362c1.12,5.522,6.022,9.533,11.655,9.533
		c0.793,0,1.593-0.08,2.379-0.239c65.336-13.263,112.759-71.346,112.759-138.109C484.859,322.29,421.636,259.066,343.924,259.066z"
		/>
	<path fill="#3DB4EA" d="M683.871,154.839H25.807v490.322h748.387V154.839h-38.709c-7.127,0-12.903-5.777-12.903-12.903h-25.807
		C696.774,149.062,690.997,154.839,683.871,154.839z M372.298,539.092c-6.992,1.412-13.796-3.096-15.212-10.078
		c-0.043-0.214-0.064-0.425-0.097-0.637c-4.296,0.432-8.653,0.657-13.065,0.657c-4.411,0-8.769-0.224-13.064-0.657
		c-0.032,0.213-0.054,0.425-0.097,0.638c-1.242,6.118-6.623,10.339-12.631,10.339c-0.852,0-1.714-0.085-2.581-0.26
		c-65.803-13.359-113.562-71.855-113.562-139.092c0-78.264,63.671-141.936,141.935-141.936c78.265,0,141.936,63.671,141.936,141.936
		C485.859,467.238,438.101,525.734,372.298,539.092z"/>
	<path d="M787.097,129.032h-51.612c-7.127,0-12.903,5.777-12.903,12.903s5.776,12.903,12.903,12.903h38.709v490.322H25.807V154.839
		h658.064c7.126,0,12.903-5.777,12.903-12.903s-5.777-12.903-12.903-12.903H12.903C5.777,129.032,0,134.81,0,141.936v516.129
		c0,7.126,5.777,12.903,12.903,12.903h774.193c7.126,0,12.903-5.777,12.903-12.903V141.936
		C800,134.81,794.223,129.032,787.097,129.032z"/>
	<path fill="#FFE000" d="M343.924,530.032c-4.362,0-8.791-0.223-13.165-0.662l-1.047-0.105l0.158-1.04
		c0.955-6.276-3.168-12.181-9.385-13.442c-54.288-11.021-93.69-59.294-93.69-114.782c0-64.585,52.543-117.129,117.128-117.129
		c64.586,0,117.13,52.544,117.13,117.129c0,55.487-39.402,103.759-93.691,114.78c-6.217,1.263-10.339,7.169-9.385,13.444l0.158,1.04
		l-1.046,0.105C352.734,529.81,348.304,530.032,343.924,530.032z"/>
	<path fill="#FFE000" d="M367.164,513.8c53.823-10.927,92.89-58.785,92.89-113.8c0-64.034-52.095-116.129-116.13-116.129
		c-64.034,0-116.128,52.095-116.128,116.129c0,55.015,39.066,102.875,92.889,113.802c6.771,1.374,11.202,7.817,10.175,14.573
		c4.296,0.432,8.653,0.657,13.064,0.657c4.412,0,8.768-0.224,13.065-0.657C355.962,521.619,360.394,515.176,367.164,513.8z"/>
	<path d="M343.924,258.064c-78.264,0-141.935,63.671-141.935,141.936c0,67.238,47.759,125.734,113.562,139.092
		c0.867,0.175,1.729,0.26,2.581,0.26c6.009,0,11.391-4.222,12.631-10.338c0.043-0.214,0.063-0.425,0.097-0.639
		c1.027-6.756-3.404-13.199-10.175-14.573c-53.824-10.927-92.889-58.787-92.889-113.802c0-64.035,52.094-116.129,116.128-116.129
		c64.035,0,116.13,52.094,116.13,116.129c0,55.014-39.066,102.875-92.89,113.8c-6.771,1.374-11.202,7.819-10.175,14.575
		c0.032,0.214,0.054,0.425,0.097,0.637c1.416,6.983,8.22,11.49,15.212,10.078c65.803-13.357,113.562-71.854,113.562-139.092
		C485.859,321.736,422.188,258.064,343.924,258.064z"/>
</g>
</svg>
