<?xml version="1.0" encoding="utf-8"?>
<!-- Generator: Adobe Illustrator 16.0.0, SVG Export Plug-In . SVG Version: 6.00 Build 0)  -->
<!DOCTYPE svg PUBLIC "-//W3C//DTD SVG 1.1//EN" "http://www.w3.org/Graphics/SVG/1.1/DTD/svg11.dtd">
<svg version="1.1" id="Capa_1" xmlns="http://www.w3.org/2000/svg" xmlns:xlink="http://www.w3.org/1999/xlink" x="0px" y="0px"
	 width="800px" height="800px" viewBox="0 0 800 800" enable-background="new 0 0 800 800" xml:space="preserve">
<g>
	<path fill="#FFFFFF" d="M25.807,387.097h361.29V154.839H25.807V387.097z M121.062,250.565c1.651-5.084,6.268-8.625,11.606-8.9
		l45.454-2.347l16.281-42.505c1.911-4.991,6.703-8.288,12.05-8.288s10.138,3.296,12.05,8.288l16.28,42.505l45.454,2.347
		c5.34,0.275,9.954,3.816,11.606,8.9c1.651,5.083-0.002,10.66-4.158,14.02l-35.395,28.618l11.814,43.957
		c1.389,5.161-0.552,10.646-4.877,13.788c-2.257,1.64-4.917,2.465-7.583,2.465c-2.445,0-4.893-0.692-7.037-2.087l-38.154-24.819
		l-38.154,24.817c-4.483,2.913-10.297,2.763-14.621-0.378c-4.325-3.142-6.266-8.626-4.877-13.788l11.814-43.957l-35.395-28.616
		C121.063,261.225,119.41,255.649,121.062,250.565z"/>
	<rect x="411.903" y="153.839" fill="#ED1F34" width="363.29" height="234.258"/>
	<rect x="412.903" y="154.839" fill="#ED1F34" width="361.29" height="232.258"/>
	<path fill="#FFFFFF" d="M774.193,645.161V412.903h-361.29v141.936c0,7.128-5.775,12.903-12.903,12.903v25.807
		c7.128,0,12.903,5.775,12.903,12.902v38.71H774.193z M508.158,508.63c1.651-5.084,6.268-8.625,11.606-8.9l45.453-2.347
		l16.28-42.505c1.912-4.99,6.703-8.287,12.051-8.287c5.347,0,10.138,3.297,12.05,8.287l16.28,42.505l45.454,2.347
		c5.34,0.275,9.954,3.816,11.605,8.9s-0.002,10.659-4.158,14.02l-35.395,28.617l11.814,43.957
		c1.389,5.162-0.553,10.646-4.878,13.788c-2.257,1.64-4.916,2.465-7.583,2.465c-2.445,0-4.894-0.691-7.037-2.087l-38.153-24.818
		l-38.154,24.817c-4.481,2.914-10.295,2.765-14.62-0.379c-4.325-3.142-6.266-8.626-4.878-13.787l11.814-43.957l-35.395-28.618
		C508.16,519.289,506.507,513.714,508.158,508.63z"/>
	<path fill="#164FCE" d="M24.807,646.161V411.903h363.29v142.936c0,6.563,5.34,11.903,11.903,11.903h1v27.807h-1
		c-6.563,0-11.903,5.339-11.903,11.902v39.71H24.807z"/>
	<path fill="#164FCE" d="M387.097,554.839V412.903H25.807v232.258h361.29v-38.71c0-7.127,5.775-12.902,12.903-12.902v-25.807
		C392.872,567.742,387.097,561.967,387.097,554.839z"/>
	<path d="M787.097,129.032H12.903C5.775,129.032,0,134.808,0,141.936v516.129c0,7.128,5.775,12.903,12.903,12.903h774.193
		c7.128,0,12.903-5.775,12.903-12.903V141.936C800,134.808,794.225,129.032,787.097,129.032z M400,593.549
		c-7.128,0-12.903,5.775-12.903,12.902v38.71H25.807V412.903h361.29v141.936c0,7.128,5.775,12.903,12.903,12.903
		s12.903-5.775,12.903-12.903V412.903h361.29v232.258h-361.29v-38.71C412.903,599.324,407.128,593.549,400,593.549z
		 M774.193,387.097h-361.29V154.839h361.29V387.097z M387.097,387.097H25.807V154.839h361.29V387.097z"/>
	<path fill="#164FCE" d="M183.367,278.412c3.969,3.208,5.672,8.454,4.348,13.381l-5.249,19.529l16.95-11.024
		c2.14-1.392,4.588-2.087,7.037-2.087s4.896,0.695,7.037,2.087l16.95,11.024l-5.249-19.529c-1.325-4.927,0.38-10.173,4.347-13.381
		l15.723-12.714l-20.189-1.041c-5.096-0.263-9.559-3.506-11.384-8.272l-7.234-18.883l-7.233,18.885
		c-1.827,4.766-6.288,8.007-11.384,8.272l-20.189,1.041L183.367,278.412z"/>
	<path d="M161.262,354.411c-2.956,0-5.782-0.918-8.172-2.655c-4.629-3.362-6.741-9.333-5.255-14.856l11.646-43.329l-34.889-28.208
		c-4.447-3.595-6.248-9.667-4.48-15.108c1.768-5.441,6.793-9.295,12.506-9.589l44.804-2.313l16.048-41.897
		c2.045-5.341,7.263-8.929,12.983-8.929s10.938,3.588,12.984,8.93l16.047,41.897l44.805,2.313
		c5.712,0.294,10.737,4.148,12.505,9.589c1.767,5.44-0.034,11.511-4.481,15.106l-34.888,28.208l11.645,43.329
		c1.486,5.523-0.626,11.494-5.255,14.856c-2.387,1.737-5.213,2.656-8.171,2.656c-2.701,0-5.322-0.778-7.582-2.249L206.452,327.7
		l-37.608,24.464C166.58,353.634,163.958,354.411,161.262,354.411z M206.45,297.212c2.699,0,5.32,0.777,7.582,2.249l14.761,9.601
		l-4.571-17.007c-1.426-5.306,0.413-10.965,4.685-14.419l13.692-11.072l-17.582-0.906c-5.486-0.285-10.3-3.784-12.266-8.913
		l-6.299-16.447l-6.299,16.445c-1.967,5.13-6.783,8.629-12.27,8.915l-17.582,0.906l13.693,11.072
		c4.271,3.455,6.11,9.115,4.685,14.419l-4.571,17.007l14.76-9.601C201.131,297.99,203.752,297.212,206.45,297.212z"/>
	<path d="M125.22,264.585l35.395,28.618L148.8,337.16c-1.388,5.161,0.552,10.646,4.877,13.788
		c4.324,3.142,10.137,3.291,14.621,0.378l38.154-24.819l38.154,24.817c2.144,1.396,4.592,2.087,7.037,2.087
		c2.667,0,5.328-0.824,7.583-2.465c4.325-3.142,6.266-8.626,4.877-13.788l-11.814-43.957l35.395-28.618
		c4.156-3.36,5.81-8.936,4.158-14.02c-1.652-5.084-6.268-8.625-11.606-8.9l-45.454-2.347l-16.28-42.505
		c-1.911-4.991-6.703-8.287-12.05-8.287s-10.139,3.296-12.05,8.287l-16.281,42.505l-45.454,2.347
		c-5.34,0.275-9.954,3.816-11.606,8.9C119.41,255.647,121.063,261.225,125.22,264.585z M199.219,256.385l7.233-18.883l7.233,18.885
		c1.827,4.766,6.288,8.007,11.384,8.272l20.189,1.041l-15.723,12.714c-3.969,3.208-5.672,8.454-4.348,13.381l5.249,19.528
		l-16.95-11.024c-2.14-1.392-4.588-2.087-7.037-2.087c-2.448,0-4.896,0.695-7.037,2.087l-16.949,11.024l5.249-19.528
		c1.325-4.927-0.38-10.173-4.348-13.381L167.642,265.7l20.189-1.041C192.931,264.394,197.392,261.151,199.219,256.385z"/>
	<path fill="#ED1F34" d="M600.04,559.2c-1.938-1.259-4.183-1.925-6.491-1.925c-2.31,0-4.555,0.666-6.492,1.926l-19.138,12.447
		l5.927-22.05c1.221-4.542-0.354-9.388-4.011-12.345L552.083,522.9l22.797-1.176c4.696-0.244,8.818-3.24,10.502-7.632l8.167-21.322
		l8.168,21.322c1.683,4.392,5.805,7.387,10.502,7.63l22.797,1.176l-17.754,14.355c-3.657,2.958-5.231,7.804-4.011,12.345
		l5.927,22.05L600.04,559.2z"/>
	<path fill="#ED1F34" d="M570.464,536.477c3.969,3.209,5.672,8.454,4.348,13.382l-5.249,19.528l16.949-11.024
		c2.141-1.392,4.589-2.087,7.037-2.087c2.447,0,4.896,0.695,7.036,2.087l16.949,11.024l-5.249-19.528
		c-1.324-4.928,0.381-10.173,4.348-13.382l15.724-12.714l-20.189-1.041c-5.096-0.264-9.559-3.506-11.384-8.271l-7.234-18.884
		l-7.233,18.885c-1.827,4.766-6.288,8.007-11.384,8.272l-20.189,1.041L570.464,536.477z"/>
	<path d="M512.316,522.649l35.395,28.618l-11.814,43.956c-1.388,5.162,0.553,10.646,4.878,13.788
		c4.325,3.144,10.139,3.293,14.62,0.378l38.154-24.818l38.153,24.817c2.144,1.396,4.592,2.087,7.037,2.087
		c2.666,0,5.328-0.824,7.583-2.466c4.325-3.142,6.266-8.626,4.878-13.787l-11.814-43.957l35.395-28.618
		c4.156-3.359,5.81-8.936,4.158-14.02s-6.268-8.624-11.606-8.899l-45.453-2.347l-16.28-42.505
		c-1.912-4.991-6.703-8.288-12.051-8.288c-5.347,0-10.138,3.297-12.05,8.288l-16.28,42.505l-45.454,2.347
		c-5.34,0.275-9.954,3.815-11.605,8.899S508.16,519.289,512.316,522.649z M586.315,514.45l7.233-18.884l7.232,18.885
		c1.827,4.766,6.288,8.007,11.384,8.272l20.189,1.041l-15.723,12.714c-3.97,3.208-5.673,8.454-4.348,13.381l5.249,19.529
		l-16.95-11.024c-2.14-1.393-4.588-2.087-7.036-2.087s-4.896,0.694-7.037,2.087l-16.949,11.024l5.249-19.529
		c1.324-4.927-0.38-10.173-4.348-13.381l-15.723-12.714l20.188-1.041C580.027,522.458,584.488,519.216,586.315,514.45z"/>
</g>
</svg>
