<?xml version="1.0" encoding="utf-8"?>
<!-- Generator: Adobe Illustrator 16.0.0, SVG Export Plug-In . SVG Version: 6.00 Build 0)  -->
<!DOCTYPE svg PUBLIC "-//W3C//DTD SVG 1.1//EN" "http://www.w3.org/Graphics/SVG/1.1/DTD/svg11.dtd">
<svg version="1.1" id="Capa_1" xmlns="http://www.w3.org/2000/svg" xmlns:xlink="http://www.w3.org/1999/xlink" x="0px" y="0px"
	 width="800px" height="800px" viewBox="0 0 800 800" enable-background="new 0 0 800 800" xml:space="preserve">
<g>
	<path fill="#333333" d="M24.807,646.161V537.635c0-6.563-5.34-11.903-11.903-11.903h-1v-27.807h1
		c6.563,0,11.903-5.34,11.903-11.903V164.175l722.978,481.986H24.807z M176.344,565.239c-10.968,0-19.891,8.923-19.891,19.891
		c0,10.969,8.923,19.892,19.891,19.892c10.968,0,19.891-8.923,19.891-19.892C196.235,574.162,187.312,565.239,176.344,565.239z
		 M207.68,472.971c-7.128,0-12.927,5.799-12.927,12.927s5.799,12.927,12.927,12.927s12.927-5.799,12.927-12.927
		S214.808,472.971,207.68,472.971z M113.67,419.002c-10.966,0-19.889,8.924-19.891,19.892c0,10.968,8.923,19.892,19.891,19.892
		c10.968,0,19.891-8.924,19.891-19.892C133.562,427.925,124.638,419.002,113.67,419.002z M239.018,366.775
		c-10.968,0-19.891,8.923-19.891,19.891c0,10.968,8.923,19.891,19.891,19.891s19.891-8.923,19.891-19.891
		C258.909,375.699,249.985,366.775,239.018,366.775z M176.344,314.548c-10.968,0-19.891,8.923-19.891,19.891
		s8.923,19.891,19.891,19.891c10.968,0,19.891-8.923,19.891-19.891S187.312,314.548,176.344,314.548z"/>
	<path fill="#333333" d="M25.807,537.635v107.526h718.675L25.807,166.044v319.978c0,7.126-5.777,12.903-12.903,12.903v25.807
		C20.029,524.731,25.807,530.507,25.807,537.635z M239.018,365.775c11.537,0,20.891,9.354,20.891,20.891
		c0,11.538-9.354,20.891-20.891,20.891s-20.891-9.354-20.891-20.891C218.126,375.129,227.479,365.775,239.018,365.775z
		 M207.68,471.971c7.692,0,13.927,6.236,13.927,13.927c0,7.692-6.235,13.927-13.927,13.927c-7.692,0-13.927-6.236-13.927-13.927
		C193.753,478.206,199.988,471.971,207.68,471.971z M176.344,313.548c11.537,0,20.891,9.354,20.891,20.891
		s-9.354,20.891-20.891,20.891c-11.538,0-20.891-9.354-20.891-20.891S164.807,313.548,176.344,313.548z M176.344,564.239
		c11.537,0,20.891,9.354,20.891,20.891c0,11.538-9.354,20.892-20.891,20.892c-11.538,0-20.891-9.354-20.891-20.892
		C155.453,573.593,164.807,564.239,176.344,564.239z M113.67,418.002c11.537,0,20.891,9.354,20.891,20.892
		s-9.354,20.892-20.891,20.892s-20.891-9.354-20.891-20.892C92.781,427.354,102.133,418.002,113.67,418.002z"/>
	<circle fill="#FFFFFF" cx="176.344" cy="334.438" r="20.891"/>
	<circle fill="#FFFFFF" cx="176.344" cy="585.13" r="20.891"/>
	<circle fill="#FFFFFF" cx="239.018" cy="386.667" r="20.891"/>
	<circle fill="#FFFFFF" cx="113.67" cy="438.894" r="20.892"/>
	<circle fill="#FFFFFF" cx="207.68" cy="485.897" r="13.927"/>
	<path fill="#ED1F34" d="M52.217,153.839h722.976v481.983L52.217,153.839z M630.328,351.267
		c21.129,2.495,37.062,20.427,37.062,41.712c0,6.564,5.34,11.904,11.903,11.904s11.903-5.34,11.903-11.904
		c0-27.475-17.351-52.313-43.175-61.804l-1.145-0.42l0.636-1.04c7.405-12.101,12.072-25.396,13.873-39.518l0.111-0.874h14.571
		c6.563,0,11.903-5.34,11.903-11.903s-5.34-11.903-11.903-11.903H539.271v-32.398c0-6.563-5.34-11.903-11.903-11.903h-17.261
		c-6.563,0-11.903,5.34-11.903,11.903s5.34,11.903,11.903,11.903h5.358v20.493h-68.094c-6.563,0-11.903,5.339-11.903,11.903
		s5.34,11.903,11.903,11.903h14.572l0.111,0.874c6.378,50.013,49.225,87.729,99.665,87.729c25.141,0,49.225-9.376,67.814-26.4
		l0.338-0.31L630.328,351.267z"/>
	<path fill="#ED1F34" d="M774.193,154.839H55.52l718.673,479.115V154.839z M679.293,405.883c-7.126,0-12.903-5.778-12.903-12.904
		c0-20.979-15.837-38.317-36.179-40.719c-18.068,16.547-42.118,26.663-68.49,26.663c-51.598,0-94.294-38.706-100.657-88.602h-13.691
		c-7.126,0-12.903-5.777-12.903-12.903c0-7.126,5.777-12.903,12.903-12.903h25.746h41.348v-18.493h-4.358
		c-7.126,0-12.903-5.777-12.903-12.903s5.777-12.903,12.903-12.903h17.261c7.126,0,12.903,5.777,12.903,12.903v31.398h110.051
		h25.746c7.127,0,12.903,5.777,12.903,12.903s-5.776,12.903-12.903,12.903h-13.69c-1.845,14.467-6.722,28-14.012,39.914
		c25.554,9.392,43.83,33.974,43.83,62.743C692.196,400.105,686.419,405.883,679.293,405.883z"/>
	<path d="M798.661,663.759c0.126-0.254,0.252-0.509,0.361-0.772c0.072-0.175,0.129-0.353,0.193-0.528
		c0.079-0.217,0.161-0.432,0.229-0.655c0.067-0.222,0.117-0.445,0.172-0.669c0.045-0.185,0.097-0.363,0.133-0.551
		c0.055-0.275,0.089-0.552,0.127-0.827c0.019-0.143,0.045-0.28,0.059-0.425c0.034-0.354,0.048-0.709,0.054-1.063
		c0.001-0.069,0.01-0.135,0.01-0.203v-0.04c0-0.015,0-0.032,0-0.048V141.936c0-7.126-5.777-12.903-12.903-12.903H12.903
		c-0.007,0-0.014,0-0.019,0c-0.43,0.002-0.86,0.021-1.289,0.065c-0.203,0.021-0.401,0.06-0.602,0.091
		c-0.212,0.031-0.425,0.055-0.633,0.096c-0.287,0.057-0.568,0.136-0.85,0.211c-0.121,0.033-0.245,0.057-0.365,0.093
		c-0.258,0.077-0.506,0.175-0.757,0.268c-0.145,0.053-0.291,0.1-0.432,0.159c-0.207,0.086-0.403,0.186-0.604,0.282
		c-0.182,0.086-0.366,0.167-0.543,0.262c-0.15,0.081-0.292,0.174-0.439,0.26c-0.218,0.127-0.437,0.253-0.648,0.394
		c-0.1,0.067-0.194,0.145-0.292,0.215c-0.243,0.174-0.485,0.346-0.717,0.537c-0.072,0.06-0.136,0.124-0.205,0.184
		c-0.246,0.212-0.49,0.425-0.721,0.656c-0.112,0.112-0.21,0.232-0.318,0.349c-0.175,0.189-0.354,0.372-0.52,0.573
		c-0.273,0.332-0.53,0.679-0.771,1.039c-0.003,0.003-0.007,0.008-0.009,0.012c-0.033,0.048-0.057,0.1-0.089,0.15
		c-0.2,0.306-0.389,0.619-0.563,0.943c-0.065,0.122-0.117,0.248-0.179,0.37c-0.125,0.255-0.251,0.509-0.361,0.772
		c-0.072,0.176-0.129,0.353-0.192,0.528c-0.079,0.217-0.162,0.432-0.229,0.655c-0.067,0.222-0.117,0.446-0.172,0.669
		c-0.045,0.184-0.097,0.363-0.133,0.551c-0.055,0.275-0.089,0.552-0.127,0.827c-0.019,0.143-0.045,0.281-0.059,0.425
		c-0.035,0.354-0.048,0.709-0.053,1.063C0.009,141.8,0,141.867,0,141.936v0.04c0,0.016,0,0.033,0,0.048v343.998
		c0,7.126,5.777,12.903,12.903,12.903s12.903-5.777,12.903-12.903V166.044l718.675,479.117H25.807V537.635
		c0-7.126-5.777-12.903-12.903-12.903S0,530.507,0,537.635v120.43c0,7.126,5.777,12.903,12.903,12.903h774.159
		c0.009,0,0.016,0.002,0.024,0.002c0.036,0,0.072-0.007,0.109-0.007c0.458-0.004,0.909-0.033,1.353-0.081
		c0.131-0.016,0.258-0.04,0.387-0.059c0.361-0.052,0.718-0.113,1.067-0.194c0.139-0.033,0.275-0.07,0.413-0.106
		c0.342-0.092,0.678-0.194,1.008-0.313c0.134-0.048,0.269-0.095,0.402-0.146c0.348-0.138,0.687-0.29,1.019-0.456
		c0.105-0.051,0.21-0.096,0.313-0.151c0.416-0.222,0.817-0.464,1.204-0.728c0.12-0.082,0.233-0.177,0.353-0.263
		c0.269-0.198,0.531-0.399,0.783-0.616c0.141-0.122,0.276-0.25,0.414-0.377c0.239-0.224,0.467-0.457,0.688-0.698
		c0.106-0.117,0.217-0.23,0.32-0.352c0.321-0.378,0.626-0.772,0.902-1.185c0.004-0.004,0.006-0.007,0.009-0.011
		c0.033-0.048,0.057-0.1,0.09-0.149c0.199-0.307,0.389-0.619,0.563-0.943C798.548,664.007,798.602,663.882,798.661,663.759z
		 M774.193,154.839v479.115L55.52,154.839H774.193z"/>
	<path fill="#FFE000" d="M561.721,354.118c-37.44,0-69.228-26.758-75.583-63.625l-0.202-1.17h151.57l-0.202,1.17
		C630.947,327.36,599.16,354.118,561.721,354.118z"/>
	<path fill="#FFE000" d="M561.721,353.118c37.344,0,68.457-27.179,74.598-62.795H487.123
		C493.263,325.939,524.377,353.118,561.721,353.118z"/>
	<path d="M648.366,330.236c7.29-11.914,12.165-25.447,14.012-39.914h13.69c7.127,0,12.903-5.777,12.903-12.903
		s-5.776-12.903-12.903-12.903h-25.746H540.271v-31.398c0-7.126-5.777-12.903-12.903-12.903h-17.261
		c-7.126,0-12.903,5.777-12.903,12.903s5.777,12.903,12.903,12.903h4.358v18.495h-41.348h-25.746
		c-7.126,0-12.903,5.777-12.903,12.903s5.777,12.903,12.903,12.903h13.691c6.362,49.896,49.06,88.602,100.657,88.602
		c26.372,0,50.422-10.116,68.49-26.663c20.344,2.401,36.179,19.74,36.179,40.719c0,7.126,5.777,12.903,12.903,12.903
		s12.903-5.777,12.903-12.903C692.196,364.208,673.92,339.628,648.366,330.236z M636.318,290.323
		c-6.141,35.616-37.256,62.795-74.598,62.795s-68.458-27.179-74.598-62.795H636.318z"/>
</g>
</svg>
