<?xml version="1.0" encoding="utf-8"?>
<!-- Generator: Adobe Illustrator 16.0.0, SVG Export Plug-In . SVG Version: 6.00 Build 0)  -->
<!DOCTYPE svg PUBLIC "-//W3C//DTD SVG 1.1//EN" "http://www.w3.org/Graphics/SVG/1.1/DTD/svg11.dtd">
<svg version="1.1" id="Capa_1" xmlns="http://www.w3.org/2000/svg" xmlns:xlink="http://www.w3.org/1999/xlink" x="0px" y="0px"
	 width="800px" height="800px" viewBox="0 0 800 800" enable-background="new 0 0 800 800" xml:space="preserve">
<g>
	<path fill="#FFFFFF" d="M400,378.495c-11.859,0-21.506,9.646-21.506,21.505c0,11.859,9.646,21.505,21.506,21.505
		s21.506-9.646,21.506-21.505C421.506,388.141,411.859,378.495,400,378.495z"/>
	<path fill="#FFFFFF" d="M683.871,473.118h90.322V326.882H25.807v146.236h606.451c7.128,0,12.903,5.775,12.903,12.903h25.807
		C670.968,478.894,676.743,473.118,683.871,473.118z M400,447.312c-26.087,0-47.312-21.225-47.312-47.312
		s21.225-47.312,47.312-47.312s47.312,21.225,47.312,47.312S426.087,447.312,400,447.312z"/>
	<path d="M400,352.688c-26.087,0-47.312,21.225-47.312,47.312s21.225,47.312,47.312,47.312s47.312-21.225,47.312-47.312
		S426.087,352.688,400,352.688z M400,421.505c-11.859,0-21.506-9.646-21.506-21.505c0-11.859,9.646-21.505,21.506-21.505
		s21.506,9.646,21.506,21.505C421.506,411.859,411.859,421.505,400,421.505z"/>
	<rect x="24.807" y="153.839" fill="#ED1F34" width="750.387" height="148.236"/>
	<rect x="25.807" y="154.839" fill="#ED1F34" width="748.387" height="146.236"/>
	<path fill="#103B9B" d="M24.807,646.161V497.925h607.451c6.563,0,11.903-5.34,11.903-11.903v-1h27.807v1
		c0,6.563,5.34,11.903,11.903,11.903h91.322v148.236H24.807z"/>
	<path fill="#103B9B" d="M683.871,498.925c-7.128,0-12.903-5.775-12.903-12.903h-25.807c0,7.128-5.775,12.903-12.903,12.903H25.807
		v146.236h748.387V498.925H683.871z"/>
	<path d="M787.097,129.032H12.903C5.775,129.032,0,134.808,0,141.936v516.129c0,7.128,5.775,12.903,12.903,12.903h774.193
		c7.128,0,12.903-5.775,12.903-12.903V141.936C800,134.808,794.225,129.032,787.097,129.032z M774.193,154.839v146.236H25.807
		V154.839H774.193z M25.807,645.161V498.925h606.451c7.128,0,12.903-5.775,12.903-12.903s-5.775-12.903-12.903-12.903H25.807
		V326.882h748.387v146.236h-90.322c-7.128,0-12.903,5.775-12.903,12.903s5.775,12.903,12.903,12.903h90.322v146.236H25.807z"/>
</g>
</svg>
