<?xml version="1.0" encoding="utf-8"?>
<!-- Generator: Adobe Illustrator 16.0.0, SVG Export Plug-In . SVG Version: 6.00 Build 0)  -->
<!DOCTYPE svg PUBLIC "-//W3C//DTD SVG 1.1//EN" "http://www.w3.org/Graphics/SVG/1.1/DTD/svg11.dtd">
<svg version="1.1" id="Capa_1" xmlns="http://www.w3.org/2000/svg" xmlns:xlink="http://www.w3.org/1999/xlink" x="0px" y="0px"
	 width="800px" height="800px" viewBox="0 0 800 800" enable-background="new 0 0 800 800" xml:space="preserve">
<g>
	<path fill="#ED1F34" d="M52.217,646.161l351.387-234.258h280.267c6.563,0,11.903-5.34,11.903-11.903v-1h27.807v1
		c0,6.563,5.34,11.903,11.903,11.903h39.709v234.258H52.217z"/>
	<path fill="#ED1F34" d="M735.484,412.903c-7.128,0-12.903-5.775-12.903-12.903h-25.807c0,7.128-5.775,12.903-12.903,12.903H403.907
		L55.52,645.161h718.673V412.903H735.484z"/>
	<path fill="#103B9B" d="M695.774,401v-1c0-6.563-5.34-11.903-11.903-11.903H403.604L52.217,153.839h722.976v234.258h-39.709
		c-6.563,0-11.903,5.34-11.903,11.903v1H695.774z"/>
	<path fill="#103B9B" d="M735.484,387.097h38.709V154.839H55.52l348.387,232.258h279.964c7.128,0,12.903,5.775,12.903,12.903h25.807
		C722.581,392.872,728.356,387.097,735.484,387.097z"/>
	<path fill="#FFFFFF" d="M150.173,460.215c33.203,0,60.215-27.013,60.215-60.215c0-33.203-27.013-60.215-60.215-60.215
		S89.958,366.797,89.958,400C89.958,433.202,116.97,460.215,150.173,460.215z M150.173,359.57c22.33,0,40.43,18.101,40.43,40.43
		c0,22.329-18.101,40.43-40.43,40.43s-40.43-18.101-40.43-40.43C109.743,377.67,127.845,359.57,150.173,359.57z"/>
	<path fill="#FFFFFF" d="M376.738,400L25.807,166.044v467.91L376.738,400z M150.173,313.979c47.432,0,86.021,38.589,86.021,86.021
		c0,47.433-38.589,86.021-86.021,86.021S64.151,447.433,64.151,400C64.151,352.568,102.741,313.979,150.173,313.979z"/>
	<path fill="#FFE000" d="M150.173,486.021c47.432,0,86.021-38.589,86.021-86.021c0-47.432-38.589-86.021-86.021-86.021
		S64.151,352.568,64.151,400C64.151,447.433,102.741,486.021,150.173,486.021z M150.173,339.785
		c33.203,0,60.215,27.012,60.215,60.215c0,33.202-27.013,60.215-60.215,60.215S89.958,433.202,89.958,400
		C89.958,366.797,116.97,339.785,150.173,339.785z"/>
	<circle fill="#FFE000" cx="150.173" cy="400" r="40.43"/>
	<path d="M787.097,129.032H12.903c-0.009,0-0.016,0.002-0.022,0.002c-0.399,0-0.796,0.022-1.192,0.058
		c-0.316,0.031-0.628,0.081-0.938,0.133c-0.127,0.022-0.258,0.034-0.385,0.058c-0.308,0.062-0.609,0.145-0.909,0.229
		c-0.102,0.028-0.205,0.046-0.306,0.078c-0.272,0.083-0.533,0.182-0.796,0.282c-0.131,0.05-0.263,0.091-0.393,0.145
		c-0.216,0.091-0.426,0.196-0.638,0.297c-0.17,0.083-0.344,0.157-0.511,0.246c-0.158,0.086-0.31,0.182-0.463,0.273
		c-0.21,0.124-0.423,0.246-0.626,0.382c-0.106,0.072-0.206,0.153-0.31,0.227c-0.237,0.17-0.475,0.337-0.702,0.525
		c-0.078,0.063-0.146,0.134-0.222,0.2c-0.239,0.206-0.478,0.413-0.704,0.64c-0.125,0.124-0.237,0.262-0.358,0.393
		c-0.162,0.175-0.329,0.342-0.481,0.53c-0.275,0.332-0.532,0.681-0.772,1.041c-0.002,0.003-0.005,0.007-0.009,0.01
		c-0.027,0.041-0.048,0.086-0.076,0.127c-0.205,0.315-0.399,0.633-0.576,0.967c-0.062,0.117-0.114,0.239-0.172,0.356
		c-0.127,0.26-0.256,0.52-0.366,0.786c-0.071,0.172-0.127,0.346-0.189,0.52c-0.081,0.22-0.164,0.439-0.232,0.664
		c-0.067,0.221-0.117,0.444-0.17,0.666c-0.045,0.184-0.097,0.366-0.134,0.552c-0.055,0.275-0.089,0.552-0.125,0.828
		c-0.019,0.143-0.045,0.282-0.061,0.425c-0.034,0.354-0.048,0.709-0.053,1.065C0.009,141.8,0,141.867,0,141.936v0.04
		c0,0.017,0,0.033,0,0.048v515.95c0,0.017,0,0.032,0,0.048v0.04c0,0.068,0.009,0.134,0.01,0.201c0.005,0.355,0.019,0.71,0.053,1.064
		c0.014,0.143,0.042,0.282,0.061,0.425c0.036,0.275,0.072,0.553,0.125,0.826c0.038,0.188,0.089,0.37,0.134,0.554
		c0.055,0.223,0.105,0.446,0.17,0.666c0.067,0.226,0.151,0.442,0.232,0.662c0.064,0.174,0.119,0.35,0.191,0.521
		c0.11,0.267,0.239,0.526,0.367,0.784c0.059,0.119,0.11,0.241,0.172,0.358c0.177,0.332,0.372,0.652,0.576,0.967
		c0.028,0.041,0.048,0.086,0.076,0.127c0.001,0.004,0.005,0.007,0.007,0.011c0.278,0.415,0.585,0.811,0.908,1.188
		c0.1,0.119,0.207,0.229,0.312,0.343c0.224,0.246,0.456,0.481,0.698,0.709c0.134,0.125,0.267,0.251,0.406,0.37
		c0.256,0.22,0.523,0.426,0.796,0.626c0.115,0.084,0.224,0.175,0.342,0.255c0.387,0.265,0.792,0.507,1.209,0.729
		c0.102,0.053,0.205,0.098,0.308,0.149c0.334,0.167,0.674,0.321,1.023,0.459c0.133,0.052,0.267,0.1,0.401,0.146
		c0.331,0.117,0.666,0.222,1.008,0.313c0.138,0.036,0.273,0.073,0.413,0.106c0.351,0.081,0.707,0.145,1.068,0.194
		c0.129,0.019,0.258,0.045,0.387,0.059c0.444,0.05,0.895,0.079,1.352,0.082c0.036,0,0.072,0.007,0.11,0.007
		c0.008,0,0.015-0.001,0.024-0.001h774.154c7.128,0,12.903-5.775,12.903-12.903V141.932
		C800,134.808,794.225,129.032,787.097,129.032z M376.738,400L25.807,633.954v-467.91L376.738,400z M55.52,645.161l348.387-232.258
		h279.964c7.128,0,12.903-5.775,12.903-12.903s-5.775-12.903-12.903-12.903H403.907L55.52,154.839h718.673v232.258h-38.709
		c-7.128,0-12.903,5.775-12.903,12.903s5.775,12.903,12.903,12.903h38.709v232.258H55.52z"/>
</g>
</svg>
