<?xml version="1.0" encoding="utf-8"?>
<!-- Generator: Adobe Illustrator 16.0.0, SVG Export Plug-In . SVG Version: 6.00 Build 0)  -->
<!DOCTYPE svg PUBLIC "-//W3C//DTD SVG 1.1//EN" "http://www.w3.org/Graphics/SVG/1.1/DTD/svg11.dtd">
<svg version="1.1" id="Capa_1" xmlns="http://www.w3.org/2000/svg" xmlns:xlink="http://www.w3.org/1999/xlink" x="0px" y="0px"
	 width="800px" height="800px" viewBox="0 0 800 800" enable-background="new 0 0 800 800" xml:space="preserve">
<g>
	<polygon fill="#103B9B" points="91.761,153.839 172.613,153.839 172.613,207.741 	"/>
	<polygon fill="#103B9B" points="171.613,154.839 95.064,154.839 171.613,205.872 	"/>
	<polygon fill="#103B9B" points="24.807,237.129 24.807,190.539 94.69,237.129 	"/>
	<polygon fill="#103B9B" points="25.807,192.408 25.807,236.129 91.388,236.129 	"/>
	<polygon fill="#103B9B" points="24.807,304.807 94.69,304.807 24.807,351.396 	"/>
	<polygon fill="#103B9B" points="25.807,305.807 25.807,349.528 91.388,305.807 	"/>
	<polygon fill="#103B9B" points="240.291,153.839 321.142,153.839 240.291,207.741 	"/>
	<polygon fill="#103B9B" points="317.839,154.839 241.291,154.839 241.291,205.872 	"/>
	<path fill="#103B9B" d="M24.807,646.161v-39.71c0-6.563-5.34-11.902-11.903-11.902h-1v-27.807h1c6.563,0,11.903-5.34,11.903-11.903
		V399h50.6l97.206-64.805V399h67.678v-64.805L337.497,399H399v-40.335l-80.787-53.858H399v-67.678h-80.787L399,183.271v-29.432
		h376.193v492.322H24.807z M493.59,415.877c0.587,0.692,1.184,1.379,1.784,2.059l0.251,0.283v12.997
		c0,24.341,4.146,46.775,12.321,66.681c0.257,0.805,0.557,1.512,0.919,2.181c7.964,18.499,19.254,34.558,33.596,47.812
		c23.312,21.542,46.785,28.509,47.773,28.795c1.077,0.313,2.192,0.472,3.314,0.472c1.123,0,2.237-0.158,3.313-0.471
		c0.989-0.287,24.46-7.253,47.774-28.796c14.348-13.259,25.641-29.324,33.564-47.749c0.399-0.745,0.698-1.449,0.928-2.174
		c8.201-19.979,12.345-42.411,12.345-66.752v-12.998l0.252-0.284c0.602-0.678,1.197-1.364,1.784-2.057l1.146-1.353l0.564,1.681
		c3.694,11.008,5.568,22.46,5.568,34.037v68.989c0,6.563,5.34,11.903,11.903,11.903s11.903-5.34,11.903-11.903V450.24
		c0-20.704-4.746-40.565-14.107-59.034l-0.229-0.452l0.229-0.452c9.361-18.464,14.107-38.326,14.107-59.034v-68.989
		c0-6.563-5.34-11.903-11.903-11.903s-11.903,5.34-11.903,11.903v68.989c0,11.576-1.874,23.028-5.568,34.037l-0.564,1.68
		l-1.146-1.351c-0.588-0.693-1.183-1.379-1.785-2.059l-0.251-0.284v-23.585c0-6.563-5.339-11.903-11.902-11.903h-39.251v-30.115
		h1.688c6.563,0,11.903-5.34,11.903-11.903s-5.34-11.903-11.903-11.903h-1.688v-4.269c0-25.79-20.981-46.771-46.771-46.771
		c-25.79,0-46.771,20.981-46.771,46.771v4.269h-1.688c-6.563,0-11.903,5.34-11.903,11.903s5.34,11.903,11.903,11.903h1.688v30.115
		h-39.25c-6.563,0-11.903,5.34-11.903,11.903v23.585l-0.251,0.284c-0.602,0.68-1.197,1.366-1.784,2.059l-1.146,1.353l-0.564-1.681
		c-3.695-11.007-5.569-22.458-5.569-34.037v-68.989c0-6.563-5.34-11.903-11.903-11.903s-11.903,5.34-11.903,11.903v68.989
		c0,20.704,4.746,40.565,14.107,59.034l0.229,0.452l-0.229,0.452c-9.361,18.464-14.107,38.326-14.107,59.034l0.002,68.991
		c0,6.563,5.34,11.902,11.903,11.902s11.903-5.34,11.903-11.902v-68.99c0-11.578,1.873-23.03,5.568-34.036l0.564-1.681
		L493.59,415.877z"/>
	<path fill="#103B9B" d="M25.807,606.451v38.71h748.387V154.839H400v28.967l-78.484,52.323H400v16.129v37.419v16.129h-78.484
		L400,358.13v14.551V400h-62.806l-95.904-63.937V400h-16.129h-37.419h-16.129v-63.937L75.709,400H54.773H25.807v154.839
		c0,7.128-5.777,12.903-12.903,12.903v25.807C20.029,593.549,25.807,599.324,25.807,606.451z M461.502,450.24
		c0-21.394,5.146-41.596,14.216-59.486c-9.068-17.891-14.216-38.094-14.216-59.486v-68.989c0-7.127,5.777-12.903,12.903-12.903
		s12.903,5.775,12.903,12.903v68.989c0,11.787,1.958,23.118,5.518,33.719c0.592-0.698,1.191-1.39,1.798-2.075v-23.207
		c0-7.128,5.776-12.903,12.903-12.903h38.25v-28.115h-0.688c-7.126,0-12.903-5.775-12.903-12.903s5.777-12.903,12.903-12.903h0.688
		v-3.269c0-26.342,21.43-47.771,47.771-47.771c26.341,0,47.771,21.43,47.771,47.771v3.269h0.688c7.126,0,12.903,5.775,12.903,12.903
		s-5.777,12.903-12.903,12.903h-0.688v28.115h38.251c7.126,0,12.902,5.775,12.902,12.903v23.207
		c0.606,0.685,1.206,1.376,1.799,2.075c3.559-10.603,5.517-21.934,5.517-33.719v-68.989c0-7.127,5.777-12.903,12.903-12.903
		s12.903,5.775,12.903,12.903v68.989c0,21.394-5.146,41.595-14.216,59.486c9.068,17.89,14.216,38.094,14.216,59.486v68.989
		c0,7.128-5.777,12.903-12.903,12.903s-12.903-5.775-12.903-12.903V450.24c0-11.787-1.958-23.117-5.517-33.719
		c-0.592,0.698-1.192,1.391-1.799,2.074v12.618c0,26.889-4.981,49.01-12.392,67.054c-0.248,0.784-0.568,1.541-0.962,2.268
		c-9.34,21.717-22.173,37.339-33.805,48.088c-23.474,21.689-47.176,28.732-48.174,29.021c-1.173,0.341-2.383,0.511-3.592,0.511
		c-1.21,0-2.419-0.17-3.593-0.511c-0.998-0.289-24.702-7.332-48.174-29.021c-11.628-10.746-24.456-26.362-33.796-48.069
		c-0.396-0.729-0.718-1.491-0.965-2.277c-7.412-18.046-12.396-40.171-12.396-67.061v-12.618c-0.605-0.685-1.206-1.376-1.798-2.074
		c-3.56,10.603-5.517,21.934-5.517,33.718v68.99c0,7.127-5.777,12.902-12.903,12.902s-12.903-5.775-12.903-12.902V450.24H461.502z"
		/>
	<polygon fill="#ED1F34" points="241.291,236.129 258.709,236.129 380.646,154.839 338.776,154.839 241.291,219.836 	"/>
	<polygon fill="#ED1F34" points="255.407,304.807 300.227,304.807 401,372.146 401,401.868 	"/>
	<polygon fill="#ED1F34" points="258.709,305.807 400,400 400,372.681 299.924,305.807 	"/>
	<polygon fill="#ED1F34" points="111.752,237.129 24.807,179.028 24.807,153.839 32.561,153.839 157.496,237.129 	"/>
	<polygon fill="#ED1F34" points="154.193,236.129 32.258,154.839 25.807,154.839 25.807,178.493 112.055,236.129 	"/>
	<polygon fill="#ED1F34" points="24.807,401 24.807,390.863 153.891,304.807 172.613,304.807 172.613,322.643 55.076,401 	"/>
	<polygon fill="#ED1F34" points="171.613,322.107 171.613,305.807 154.193,305.807 25.807,391.398 25.807,400 54.773,400 	"/>
	<polygon fill="#FFFFFF" points="187.742,252.258 187.742,154.839 171.613,154.839 171.613,205.872 95.064,154.839 32.258,154.839 
		154.193,236.129 112.055,236.129 25.807,178.493 25.807,192.408 91.388,236.129 25.807,236.129 25.807,252.258 	"/>
	<polygon fill="#FFFFFF" points="224.161,253.258 224.161,153.839 242.291,153.839 242.291,204.003 317.536,153.839 
		342.079,153.839 242.291,220.372 242.291,235.129 258.407,235.129 380.343,153.839 401,153.839 401,184.341 324.818,235.129 
		401,235.129 401,253.258 	"/>
	<polygon fill="#FFFFFF" points="225.161,252.258 400,252.258 400,236.129 321.516,236.129 400,183.806 400,154.839 
		380.646,154.839 258.709,236.129 241.291,236.129 241.291,219.836 338.776,154.839 317.839,154.839 241.291,205.872 
		241.291,154.839 225.161,154.839 	"/>
	<polygon fill="#FFFFFF" points="225.161,289.677 225.161,400 241.291,400 241.291,336.063 337.194,400 400,400 258.709,305.807 
		299.924,305.807 400,372.681 400,358.13 321.516,305.807 400,305.807 400,289.677 	"/>
	<polygon fill="#FFFFFF" points="171.613,305.807 171.613,322.107 54.773,400 75.709,400 171.613,336.063 171.613,400 187.742,400 
		187.742,289.677 25.807,289.677 25.807,305.807 91.388,305.807 25.807,349.528 25.807,391.398 154.193,305.807 	"/>
	<polygon fill="#ED1F34" points="186.742,401 186.742,290.677 24.807,290.677 24.807,251.258 186.742,251.258 186.742,153.839 
		226.161,153.839 226.161,251.258 401,251.258 401,290.677 226.161,290.677 226.161,401 	"/>
	<polygon fill="#ED1F34" points="187.742,289.677 187.742,400 225.161,400 225.161,289.677 400,289.677 400,252.258 
		225.161,252.258 225.161,154.839 187.742,154.839 187.742,252.258 25.807,252.258 25.807,289.677 	"/>
	<path fill="#259245" d="M494.624,362.913c-0.606,0.685-1.206,1.376-1.798,2.075c0.559,1.667,1.159,3.315,1.798,4.945V362.913z"/>
	<path fill="#259245" d="M694.271,364.987c-0.592-0.698-1.192-1.39-1.799-2.075v7.02
		C693.111,368.303,693.712,366.655,694.271,364.987z"/>
	<path fill="#259245" d="M699.788,450.24v68.989c0,7.128,5.777,12.903,12.903,12.903s12.903-5.775,12.903-12.903V450.24
		c0-21.394-5.146-41.596-14.216-59.486c-4.698,9.268-10.448,17.912-17.107,25.767C697.83,427.124,699.788,438.455,699.788,450.24z"
		/>
	<path fill="#259245" d="M474.405,532.133c7.126,0,12.903-5.775,12.903-12.903V450.24c0-11.787,1.958-23.117,5.518-33.719
		c-6.66-7.855-12.411-16.499-17.108-25.767c-9.068,17.89-14.216,38.094-14.216,59.486v68.989
		C461.502,526.355,467.279,532.133,474.405,532.133z"/>
	<path fill="#FFE000" d="M494.624,418.596v-48.664c-0.639-1.629-1.239-3.277-1.798-4.945c-3.56-10.603-5.518-21.934-5.518-33.718
		V262.28c0-7.128-5.777-12.903-12.903-12.903s-12.903,5.775-12.903,12.903v68.989c0,21.394,5.146,41.595,14.216,59.485
		c4.698,9.268,10.448,17.912,17.108,25.767C493.418,417.22,494.018,417.912,494.624,418.596z"/>
	<path fill="#FFE000" d="M692.473,418.596c0.606-0.684,1.206-1.376,1.799-2.074c6.659-7.855,12.411-16.499,17.107-25.767
		c9.068-17.891,14.216-38.094,14.216-59.485V262.28c0-7.128-5.777-12.903-12.903-12.903s-12.903,5.775-12.903,12.903v68.989
		c0,11.787-1.958,23.117-5.517,33.718c-0.56,1.667-1.16,3.315-1.799,4.945V418.596z"/>
	<path fill="#3DB4EA" d="M603.869,358.897c-1.437-2.509-3.762-4.404-6.546-5.338l0.318-1.948h70.023v79.605
		c0,10.675-0.908,21.025-2.699,30.763l-0.494,2.686L603.869,358.897z"/>
	<path fill="#3DB4EA" d="M604.736,358.4l59.246,103.398c1.707-9.281,2.683-19.438,2.683-30.582v-78.605h-38.25h-30.773
		C600.592,353.6,603.144,355.618,604.736,358.4z"/>
	<path fill="#3DB4EA" d="M522.161,461.936c-1.813-9.74-2.731-20.075-2.731-30.72v-79.607h70.011l0.318,1.948
		c-2.784,0.935-5.108,2.833-6.546,5.342l-60.554,105.712L522.161,461.936z"/>
	<path fill="#3DB4EA" d="M520.43,431.216c0,11.122,0.989,21.265,2.715,30.537l59.2-103.351c1.594-2.782,4.145-4.802,7.096-5.793
		h-30.76H520.43V431.216z"/>
	<path fill="#259245" d="M593.216,552.516c-9.468-3.734-41.795-18.891-60.249-57.125l-0.229-0.475l60.806-106.156l60.912,106.301
		l-0.228,0.474c-17.89,37.309-48.118,52.279-60.284,56.983l-0.364,0.141L593.216,552.516z"/>
	<path fill="#259245" d="M593.543,390.771l-59.676,104.185c18.09,37.48,49.225,52.491,59.716,56.629
		c10.735-4.151,41.755-18.969,59.743-56.483L593.543,390.771z"/>
	<path fill="#FFE000" d="M680.081,498.27c-0.315,0.766-0.639,1.517-0.962,2.268C679.513,499.811,679.833,499.052,680.081,498.27z"/>
	<path fill="#FFE000" d="M507.984,500.554c-0.325-0.753-0.648-1.509-0.965-2.277C507.268,499.064,507.589,499.824,507.984,500.554z"
		/>
	<path fill="#FFE000" d="M593.543,392.782l-59.751,104.316l-0.825-1.709c-4.942-10.237-8.577-21.493-10.806-33.452l-0.067-0.361
		l59.383-103.67c1.68-2.932,4.395-5.149,7.646-6.245l0.155-0.052h8.527l0.155,0.052c3.25,1.091,5.965,3.308,7.645,6.242
		l59.428,103.715l-0.066,0.36c-2.21,12.016-5.823,23.306-10.74,33.557l-0.823,1.716L593.543,392.782z"/>
	<path fill="#FFE000" d="M582.345,358.402l-59.2,103.351c2.357,12.655,6.115,23.656,10.723,33.201l59.676-104.184l59.781,104.331
		c4.586-9.561,8.32-20.592,10.658-33.305l-59.246-103.397c-1.593-2.782-4.145-4.8-7.095-5.791h-8.2
		C586.491,353.602,583.938,355.62,582.345,358.402z"/>
	<path d="M494.624,418.596v12.618c0,26.892,4.983,49.017,12.396,67.061c0.316,0.77,0.64,1.524,0.965,2.278
		c9.34,21.706,22.168,37.322,33.796,48.068c23.474,21.689,47.177,28.733,48.174,29.021c1.174,0.341,2.383,0.512,3.593,0.512
		c1.209,0,2.419-0.171,3.592-0.512c0.998-0.288,24.702-7.332,48.174-29.021c11.632-10.749,24.463-26.371,33.805-48.088
		c0.324-0.752,0.647-1.502,0.962-2.268c7.41-18.044,12.393-40.165,12.393-67.054v-12.618V369.93v-7.019v-23.207
		c0-7.128-5.777-12.903-12.903-12.903h-38.25v-28.115h-25.807v28.115h-43.928v-28.115h-25.807v28.115h-38.25
		c-7.127,0-12.903,5.775-12.903,12.903v23.207v7.019V418.596z M558.681,352.609h30.76h8.199h30.773h38.254v78.605
		c0,11.145-0.976,21.301-2.683,30.582c-2.338,12.713-6.073,23.744-10.658,33.305c-17.988,37.512-49.008,52.33-59.743,56.483
		c-10.489-4.138-41.626-19.148-59.716-56.63c-4.607-9.545-8.365-20.546-10.723-33.201c-1.727-9.274-2.715-19.417-2.715-30.537
		v-78.605h38.251V352.609z"/>
	<rect x="570.584" y="297.688" fill="#B3B3B3" width="45.928" height="30.115"/>
	<rect x="571.584" y="298.688" fill="#B3B3B3" width="43.928" height="28.115"/>
	<path fill="#B3B3B3" d="M570.584,273.881v-4.269c0-12.663,10.302-22.965,22.965-22.965c6.125,0,11.889,2.392,16.23,6.734
		s6.733,10.107,6.732,16.231v4.269H570.584z"/>
	<path fill="#B3B3B3" d="M593.549,247.647c-12.112,0-21.965,9.854-21.965,21.965v3.269h43.928v-3.269
		C615.513,257.502,605.66,247.647,593.549,247.647z"/>
	<path d="M571.584,272.881v-3.269c0-12.11,9.853-21.965,21.965-21.965c12.111,0,21.964,9.854,21.964,21.965v3.269h25.807v-3.269
		c0-26.342-21.43-47.771-47.771-47.771c-26.342,0-47.771,21.43-47.771,47.771v3.269H571.584z"/>
	<path fill="#259245" d="M571.584,298.688h43.928h25.807h0.688c7.126,0,12.903-5.775,12.903-12.903s-5.777-12.903-12.903-12.903
		h-0.688h-25.807h-43.928h-25.807h-0.688c-7.126,0-12.903,5.775-12.903,12.903s5.777,12.903,12.903,12.903h0.688H571.584z"/>
	<path d="M787.097,129.032H12.903C5.777,129.032,0,134.808,0,141.936v412.903c0,7.128,5.777,12.903,12.903,12.903
		s12.903-5.775,12.903-12.903V400v-8.602v-41.87v-43.721v-16.129v-37.419v-16.129v-43.721v-13.917v-23.652h6.451h62.806h76.549
		h16.129h37.419h16.129h76.548h20.938h41.869H400h374.193v490.322H25.807v-38.71c0-7.127-5.777-12.902-12.903-12.902
		S0,599.324,0,606.451v51.613c0,7.128,5.777,12.903,12.903,12.903h774.193c7.126,0,12.903-5.775,12.903-12.903V141.936
		C800,134.808,794.223,129.032,787.097,129.032z"/>
</g>
</svg>
