<?xml version="1.0" encoding="utf-8"?>
<!-- Generator: Adobe Illustrator 16.0.0, SVG Export Plug-In . SVG Version: 6.00 Build 0)  -->
<!DOCTYPE svg PUBLIC "-//W3C//DTD SVG 1.1//EN" "http://www.w3.org/Graphics/SVG/1.1/DTD/svg11.dtd">
<svg version="1.1" id="Capa_1" xmlns="http://www.w3.org/2000/svg" xmlns:xlink="http://www.w3.org/1999/xlink" x="0px" y="0px"
	 width="800px" height="800px" viewBox="0 0 800 800" enable-background="new 0 0 800 800" xml:space="preserve">
<g>
	<path fill="#259245" d="M24.807,646.161V153.839h270.244V285.5l-0.89,0.099c-58.341,6.481-102.336,55.663-102.336,114.4
		c0,58.737,43.995,107.919,102.336,114.4l0.89,0.099v40.34c0,6.563,5.34,11.903,11.903,11.903h1v27.807h-1
		c-6.563,0-11.903,5.34-11.903,11.902v39.71H24.807z"/>
	<path fill="#259245" d="M306.954,567.742c-7.126,0-12.903-5.777-12.903-12.903v-39.444C236.069,508.953,190.825,459.67,190.825,400
		c0-59.669,45.244-108.953,103.226-115.395V154.839H25.807v490.322h268.244v-38.71c0-7.126,5.777-12.902,12.903-12.902l0,0V567.742
		L306.954,567.742z"/>
	<path fill="#ED1F34" d="M318.857,646.161v-39.71c0-6.563-5.34-11.902-11.903-11.902h-1v-27.807h1
		c6.563,0,11.903-5.34,11.903-11.903v-40.34l0.89-0.099c58.341-6.481,102.336-55.663,102.336-114.4
		c0-58.738-43.995-107.919-102.336-114.4l-0.89-0.099V153.839h456.336v492.322H318.857z"/>
	<path fill="#ED1F34" d="M319.857,284.605C377.839,291.047,423.083,340.33,423.083,400s-45.244,108.953-103.226,115.395v39.444
		c0,7.126-5.777,12.903-12.903,12.903v25.807c7.126,0,12.903,5.776,12.903,12.902v38.71h454.336V154.839H319.857V284.605z"/>
	<path d="M787.097,129.032H12.903C5.777,129.032,0,134.81,0,141.936v516.129c0,7.126,5.777,12.903,12.903,12.903h774.193
		c7.126,0,12.903-5.777,12.903-12.903V141.936C800,134.81,794.223,129.032,787.097,129.032z M774.193,645.161H319.857v-38.71
		c0-7.126-5.777-12.902-12.903-12.902l0,0c-7.126,0-12.903,5.776-12.903,12.902v38.71H25.807V154.839h268.244v129.767
		C236.069,291.047,190.825,340.33,190.825,400s45.244,108.953,103.226,115.395v39.444c0,7.126,5.777,12.903,12.903,12.903l0,0
		c7.126,0,12.903-5.777,12.903-12.903v-39.444C377.839,508.953,423.083,459.67,423.083,400c0-59.669-45.244-108.953-103.226-115.395
		V154.839h454.336V645.161z M306.954,309.677c49.805,0,90.322,40.52,90.322,90.323c0,49.803-40.518,90.322-90.322,90.322
		s-90.323-40.52-90.323-90.322C216.631,350.197,257.149,309.677,306.954,309.677z"/>
	<path fill="#FFE000" d="M306.954,491.322c-50.355,0-91.323-40.967-91.323-91.322s40.967-91.323,91.323-91.323
		s91.322,40.967,91.322,91.323S357.31,491.322,306.954,491.322z"/>
	<path fill="#FFE000" d="M216.631,400c0,49.803,40.518,90.322,90.323,90.322s90.322-40.52,90.322-90.322
		c0-49.803-40.518-90.323-90.322-90.323S216.631,350.197,216.631,400z"/>
</g>
</svg>
