<?xml version="1.0" encoding="utf-8"?>
<!-- Generator: Adobe Illustrator 16.0.0, SVG Export Plug-In . SVG Version: 6.00 Build 0)  -->
<!DOCTYPE svg PUBLIC "-//W3C//DTD SVG 1.1//EN" "http://www.w3.org/Graphics/SVG/1.1/DTD/svg11.dtd">
<svg version="1.1" id="Capa_1" xmlns="http://www.w3.org/2000/svg" xmlns:xlink="http://www.w3.org/1999/xlink" x="0px" y="0px"
	 width="800px" height="800px" viewBox="0 0 800 800" enable-background="new 0 0 800 800" xml:space="preserve">
<g>
	<polygon fill="#FFFFFF" points="774.193,464.517 326.487,464.517 210.359,541.936 774.193,541.936 	"/>
	<path fill="#FFFFFF" d="M632.258,258.064H210.359l116.128,77.419h447.706v-77.419h-90.322c-7.126,0-12.903-5.775-12.903-12.903
		h-25.807C645.161,252.287,639.384,258.064,632.258,258.064z"/>
	<polygon fill="#ED1F34" points="52.217,646.161 171.346,566.742 775.193,566.742 775.193,646.161 	"/>
	<polygon fill="#ED1F34" points="171.649,567.742 55.52,645.161 774.193,645.161 774.193,567.742 	"/>
	<path fill="#ED1F34" d="M361.895,439.71l44.71-29.807c3.319-2.211,5.301-5.913,5.301-9.903c0-3.988-1.981-7.69-5.301-9.903
		l-44.71-29.806h413.299v79.419H361.895z"/>
	<path fill="#ED1F34" d="M365.197,361.291l41.962,27.974c3.589,2.393,5.746,6.42,5.746,10.735c0,4.314-2.156,8.344-5.746,10.735
		l-41.962,27.975h408.996v-77.419H365.197z"/>
	<path fill="#ED1F34" d="M644.161,246.161v-1c0-6.563-5.34-11.903-11.903-11.903H171.346L52.217,153.839h722.976v79.419h-91.322
		c-6.563,0-11.903,5.34-11.903,11.903v1H644.161z"/>
	<path fill="#ED1F34" d="M171.649,232.258h460.609c7.126,0,12.903,5.776,12.903,12.903h25.807c0-7.127,5.777-12.903,12.903-12.903
		h90.322v-77.419H55.52L171.649,232.258z"/>
	<path fill="#164FCE" d="M24.807,164.175l136.288,90.859l0.079,0.059L378.541,400L24.807,635.822V164.175z M190.958,464.031
		c1.936,1.259,4.18,1.925,6.489,1.925c2.529,0,4.949-0.786,6.998-2.274c3.962-2.878,5.771-7.989,4.5-12.719l-11.981-44.586
		l35.898-29.027c3.808-3.078,5.35-8.275,3.836-12.933c-1.513-4.659-5.815-7.958-10.707-8.21l-46.104-2.381l-16.511-43.111
		c-1.751-4.572-6.219-7.645-11.117-7.645s-9.365,3.072-11.116,7.645l-16.511,43.111l-46.105,2.381
		c-4.891,0.252-9.193,3.552-10.707,8.21c-1.514,4.658,0.028,9.855,3.835,12.933l35.898,29.026l-11.981,44.585
		c-1.271,4.729,0.537,9.841,4.5,12.718c2.047,1.488,4.467,2.274,6.998,2.274c2.31,0,4.553-0.665,6.49-1.924l38.699-25.175
		L190.958,464.031z"/>
	<path fill="#164FCE" d="M160.507,544.155c0.016-0.013,0.033-0.022,0.048-0.035L315.35,440.926c0.014-0.009,0.027-0.019,0.041-0.027
		L376.738,400l-61.348-40.898c-0.014-0.009-0.027-0.019-0.041-0.028L160.556,255.88c-0.016-0.012-0.033-0.022-0.048-0.035
		L25.807,166.044v467.91L160.507,544.155z M71.026,378.128c-4.157-3.36-5.81-8.936-4.158-14.02c1.651-5.084,6.268-8.625,11.606-8.9
		l45.456-2.348l16.278-42.503c1.912-4.991,6.705-8.287,12.05-8.287c5.346,0,10.139,3.296,12.05,8.287l16.279,42.503l45.455,2.348
		c5.339,0.275,9.955,3.816,11.606,8.9c1.652,5.084-0.001,10.66-4.158,14.02l-35.393,28.618l11.813,43.957
		c1.387,5.161-0.552,10.646-4.877,13.787c-2.257,1.64-4.919,2.466-7.585,2.466c-2.445,0-4.891-0.692-7.035-2.087l-38.154-24.821
		l-38.154,24.819c-4.48,2.913-10.295,2.765-14.62-0.379c-4.325-3.142-6.264-8.626-4.877-13.787l11.813-43.957L71.026,378.128z"/>
	<path fill="#FFFFFF" d="M133.521,405.337l-5.248,19.526l16.95-11.023c2.139-1.393,4.587-2.088,7.035-2.088
		c2.448,0,4.896,0.695,7.035,2.088l16.95,11.023l-5.248-19.526c-1.325-4.927,0.38-10.173,4.348-13.382l15.725-12.714l-20.194-1.042
		c-5.096-0.263-9.559-3.506-11.384-8.272l-7.231-18.882l-7.233,18.882c-1.825,4.766-6.288,8.007-11.384,8.272l-20.194,1.042
		l15.725,12.714C133.141,395.164,134.844,400.41,133.521,405.337z"/>
	<path d="M99.484,464.488c4.325,3.144,10.14,3.292,14.62,0.379l38.154-24.819l38.154,24.819c2.144,1.396,4.59,2.087,7.035,2.087
		c2.667,0,5.328-0.824,7.585-2.466c4.325-3.142,6.264-8.626,4.877-13.787l-11.813-43.957l35.393-28.618
		c4.157-3.36,5.81-8.936,4.159-14.02c-1.652-5.083-6.268-8.625-11.606-8.899l-45.455-2.349l-16.279-42.503
		c-1.912-4.991-6.705-8.288-12.05-8.288c-5.346,0-10.139,3.296-12.05,8.288l-16.278,42.503l-45.456,2.349
		c-5.338,0.275-9.955,3.816-11.606,8.899c-1.652,5.084,0.001,10.66,4.158,14.02l35.393,28.618l-11.813,43.957
		C93.22,455.862,95.161,461.347,99.484,464.488z M133.643,378.199c5.096-0.263,9.559-3.506,11.384-8.272l7.232-18.882l7.233,18.882
		c1.825,4.766,6.288,8.007,11.384,8.272l20.194,1.042l-15.725,12.714c-3.967,3.209-5.672,8.455-4.348,13.382l5.248,19.526
		l-16.95-11.023c-2.139-1.393-4.587-2.088-7.035-2.088c-2.448,0-4.896,0.695-7.035,2.088l-16.95,11.023l5.248-19.526
		c1.325-4.927-0.38-10.173-4.348-13.382l-15.725-12.714L133.643,378.199z"/>
	<path d="M787.097,129.032H12.903c-0.005,0-0.01,0-0.016,0c-0.434,0.002-0.865,0.022-1.295,0.065
		c-0.164,0.017-0.323,0.05-0.485,0.074c-0.251,0.036-0.502,0.063-0.75,0.113c-0.28,0.055-0.55,0.132-0.824,0.207
		c-0.129,0.034-0.261,0.06-0.389,0.1c-0.256,0.079-0.502,0.174-0.752,0.267c-0.145,0.053-0.292,0.1-0.435,0.16
		c-0.208,0.086-0.408,0.186-0.609,0.284c-0.179,0.086-0.361,0.166-0.537,0.258c-0.153,0.083-0.296,0.177-0.445,0.265
		c-0.217,0.125-0.436,0.251-0.646,0.392c-0.101,0.067-0.198,0.146-0.297,0.217c-0.241,0.174-0.482,0.344-0.712,0.535
		c-0.074,0.061-0.143,0.129-0.215,0.193c-0.243,0.208-0.482,0.417-0.71,0.645c-0.126,0.124-0.238,0.262-0.356,0.393
		c-0.162,0.175-0.329,0.342-0.481,0.53c-0.275,0.332-0.532,0.681-0.772,1.041c-0.002,0.003-0.005,0.007-0.009,0.01
		c-0.027,0.041-0.048,0.086-0.076,0.127c-0.205,0.315-0.399,0.633-0.576,0.967c-0.062,0.117-0.114,0.239-0.172,0.356
		c-0.127,0.26-0.256,0.52-0.366,0.786c-0.071,0.172-0.127,0.346-0.191,0.52c-0.079,0.22-0.164,0.439-0.232,0.664
		c-0.067,0.221-0.117,0.444-0.17,0.666c-0.044,0.184-0.096,0.366-0.134,0.552c-0.055,0.275-0.089,0.552-0.125,0.828
		c-0.019,0.143-0.044,0.282-0.06,0.425c-0.035,0.354-0.048,0.709-0.053,1.065c0,0.064-0.009,0.129-0.009,0.2v0.04
		c0,0.017,0,0.033,0,0.048v515.95c0,0.017,0,0.032,0,0.048v0.04c0,0.068,0.009,0.134,0.01,0.201c0.005,0.355,0.019,0.71,0.053,1.064
		c0.014,0.143,0.042,0.282,0.061,0.425c0.036,0.275,0.072,0.553,0.125,0.826c0.038,0.188,0.089,0.37,0.134,0.554
		c0.055,0.223,0.105,0.446,0.17,0.666c0.067,0.226,0.151,0.442,0.232,0.662c0.064,0.174,0.119,0.35,0.191,0.521
		c0.11,0.267,0.238,0.526,0.367,0.784c0.059,0.119,0.11,0.241,0.172,0.358c0.177,0.332,0.372,0.652,0.576,0.967
		c0.028,0.041,0.048,0.086,0.076,0.127c0.001,0.004,0.005,0.007,0.007,0.011c0.278,0.415,0.585,0.811,0.908,1.188
		c0.1,0.119,0.207,0.229,0.312,0.343c0.224,0.246,0.456,0.481,0.698,0.709c0.134,0.125,0.267,0.251,0.406,0.37
		c0.256,0.22,0.523,0.426,0.796,0.626c0.115,0.084,0.226,0.175,0.342,0.255c0.389,0.265,0.792,0.507,1.208,0.729
		c0.102,0.053,0.205,0.098,0.308,0.149c0.334,0.167,0.675,0.321,1.024,0.459c0.132,0.052,0.267,0.1,0.401,0.146
		c0.33,0.117,0.666,0.222,1.008,0.313c0.137,0.036,0.273,0.073,0.411,0.106c0.351,0.081,0.707,0.145,1.068,0.194
		c0.129,0.019,0.258,0.045,0.387,0.059c0.444,0.05,0.895,0.079,1.352,0.082c0.036,0,0.072,0.007,0.11,0.007
		c0.009,0,0.016-0.001,0.024-0.001h774.157c7.126,0,12.903-5.775,12.903-12.903V141.932
		C800,134.808,794.223,129.032,787.097,129.032z M774.193,232.258h-90.322c-7.126,0-12.903,5.776-12.903,12.903
		c0,7.128,5.777,12.903,12.903,12.903h90.322v77.419H326.487l-116.128-77.419h421.899c7.126,0,12.903-5.775,12.903-12.903
		c0-7.127-5.777-12.903-12.903-12.903H171.649L55.52,154.839h718.673V232.258z M25.807,166.044l134.701,89.799
		c0.016,0.012,0.033,0.022,0.048,0.035L315.35,359.073c0.014,0.008,0.027,0.019,0.041,0.027l61.348,40.898l-61.348,40.898
		c-0.014,0.009-0.027,0.019-0.041,0.027L160.556,544.12c-0.016,0.013-0.033,0.022-0.048,0.035L25.807,633.954V166.044z
		 M326.487,464.517h447.706v77.419H210.359L326.487,464.517z M365.197,438.71l41.962-27.975c3.589-2.394,5.746-6.421,5.746-10.735
		c0-4.315-2.156-8.344-5.746-10.735l-41.962-27.974h408.996v77.419H365.197z M55.52,645.161l116.129-77.419h602.544v77.419H55.52z"
		/>
</g>
</svg>
