<?xml version="1.0" encoding="utf-8"?>
<!-- Generator: Adobe Illustrator 16.0.0, SVG Export Plug-In . SVG Version: 6.00 Build 0)  -->
<!DOCTYPE svg PUBLIC "-//W3C//DTD SVG 1.1//EN" "http://www.w3.org/Graphics/SVG/1.1/DTD/svg11.dtd">
<svg version="1.1" id="Capa_1" xmlns="http://www.w3.org/2000/svg" xmlns:xlink="http://www.w3.org/1999/xlink" x="0px" y="0px"
	 width="800px" height="800px" viewBox="0 0 800 800" enable-background="new 0 0 800 800" xml:space="preserve">
<g>
	<path fill="#A10D50" d="M285.538,646.159l-0.328-1.944l51.599-17.914c4.785-1.661,8-6.18,8-11.245c0-5.066-3.215-9.585-8-11.245
		l-91.484-31.763l91.484-31.764c4.785-1.661,8-6.18,8-11.245c0-5.063-3.215-9.582-8.001-11.245l-91.48-31.755l91.48-31.761
		c4.785-1.661,7.999-6.18,7.999-11.245s-3.214-9.584-7.999-11.245l-91.485-31.762l91.485-31.767
		c4.785-1.66,7.999-6.179,7.999-11.244c0-5.063-3.214-9.583-7.999-11.245l-91.488-31.77l91.488-31.768
		c4.785-1.66,7.999-6.179,7.999-11.245c0-5.064-3.214-9.583-7.999-11.244l-91.493-31.771l91.493-31.775
		c4.785-1.661,7.999-6.18,7.999-11.245c0-5.063-3.215-9.583-7.999-11.245l-51.62-17.926l0.328-1.945h489.678v91.323
		c0,6.563,5.34,11.903,11.903,11.903h1v27.807h-1c-6.563,0-11.903,5.34-11.903,11.903v349.387H285.538z"/>
	<path fill="#A10D50" d="M774.193,245.16v-90.323H285.516l51.62,17.927c5.19,1.803,8.671,6.694,8.671,12.189
		s-3.479,10.386-8.671,12.189l-88.773,30.83l88.773,30.827c5.19,1.803,8.671,6.694,8.671,12.189s-3.48,10.388-8.671,12.189
		l-88.768,30.823l88.768,30.825c5.19,1.803,8.671,6.694,8.671,12.189s-3.48,10.388-8.671,12.189l-88.764,30.822l88.764,30.818
		c5.19,1.802,8.671,6.694,8.671,12.189s-3.48,10.388-8.671,12.189l-88.759,30.816l88.759,30.811
		c5.192,1.804,8.673,6.694,8.673,12.189s-3.479,10.388-8.672,12.189l-88.763,30.819l88.763,30.818
		c5.191,1.801,8.672,6.694,8.672,12.189s-3.48,10.388-8.672,12.189l-51.599,17.914h488.655V296.772
		c0-7.126,5.777-12.903,12.903-12.903v-25.807C779.971,258.063,774.193,252.286,774.193,245.16z"/>
	<path fill="#FFFFFF" d="M293.562,615.056L204.8,584.237c-5.19-1.801-8.671-6.694-8.671-12.189s3.48-10.388,8.671-12.188
		l88.761-30.82L204.8,498.228c-5.192-1.803-8.672-6.693-8.672-12.188s3.48-10.389,8.671-12.189l88.762-30.818L204.8,412.215
		c-5.19-1.801-8.671-6.693-8.671-12.189c0-5.495,3.479-10.386,8.671-12.189l88.768-30.823L204.8,326.188
		c-5.19-1.803-8.671-6.694-8.671-12.189s3.48-10.388,8.671-12.189l88.768-30.823l-88.769-30.825
		c-5.19-1.803-8.671-6.694-8.671-12.189c0-5.495,3.479-10.387,8.671-12.189l88.774-30.83l-86.718-30.116H25.807v490.322h181.049
		L293.562,615.056z"/>
	<path d="M774.193,296.772v348.387H285.536l51.6-17.914c5.19-1.802,8.671-6.694,8.671-12.189s-3.48-10.388-8.671-12.189
		l-88.764-30.818l88.764-30.819c5.192-1.802,8.671-6.694,8.671-12.189s-3.48-10.388-8.673-12.189l-88.759-30.811l88.759-30.816
		c5.19-1.802,8.671-6.694,8.671-12.189s-3.48-10.388-8.671-12.189l-88.764-30.818l88.764-30.821
		c5.19-1.801,8.671-6.694,8.671-12.189s-3.479-10.386-8.671-12.189l-88.768-30.825l88.768-30.823
		c5.19-1.801,8.671-6.694,8.671-12.189s-3.479-10.386-8.671-12.189l-88.772-30.827l88.772-30.83
		c5.19-1.803,8.671-6.694,8.671-12.189s-3.479-10.386-8.671-12.189l-51.62-17.927h488.679v90.323
		c0,7.126,5.777,12.903,12.903,12.903S800,252.286,800,245.16V141.934c0-7.126-5.777-12.903-12.903-12.903H12.903
		C5.777,129.031,0,134.808,0,141.934v516.129c0,7.126,5.777,12.903,12.903,12.903h196.084c0.014,0,0.029,0.004,0.043,0.004
		c0.014,0,0.027-0.004,0.04-0.004h578.026c7.126,0,12.903-5.777,12.903-12.903v-361.29c0-7.126-5.777-12.903-12.903-12.903
		S774.193,289.646,774.193,296.772z M25.807,154.837h181.049l86.718,30.116l-88.774,30.83c-5.19,1.803-8.671,6.694-8.671,12.189
		s3.479,10.386,8.671,12.189l88.769,30.825l-88.767,30.823c-5.19,1.801-8.671,6.694-8.671,12.189s3.479,10.386,8.671,12.189
		l88.767,30.825L204.8,387.836c-5.192,1.803-8.671,6.694-8.671,12.189c0,5.496,3.48,10.388,8.671,12.189l88.762,30.818
		L204.8,473.852c-5.19,1.801-8.671,6.693-8.671,12.188s3.48,10.389,8.673,12.189l88.76,30.812l-88.76,30.819
		c-5.19,1.802-8.671,6.694-8.671,12.189s3.48,10.388,8.671,12.189l88.762,30.818l-86.707,30.104H25.807V154.837z"/>
</g>
</svg>
