<?xml version="1.0" encoding="utf-8"?>
<!-- Generator: Adobe Illustrator 16.0.0, SVG Export Plug-In . SVG Version: 6.00 Build 0)  -->
<!DOCTYPE svg PUBLIC "-//W3C//DTD SVG 1.1//EN" "http://www.w3.org/Graphics/SVG/1.1/DTD/svg11.dtd">
<svg version="1.1" id="Capa_1" xmlns="http://www.w3.org/2000/svg" xmlns:xlink="http://www.w3.org/1999/xlink" x="0px" y="0px"
	 width="800px" height="800px" viewBox="0 0 800 800" enable-background="new 0 0 800 800" xml:space="preserve">
<g>
	<path fill="#FFFFFF" d="M25.807,645.161h748.387V154.839H25.807V645.161z M120.2,297.03h41.958c0.022,0,0.045,0,0.067,0h75.146
		c0.005,0,0.009,0,0.014,0h21.136c7.126,0,12.903,5.776,12.903,12.903c0,5.373-3.285,9.975-7.954,11.916
		c12.453,13.676,26.917,25.467,42.842,34.88c7.605-8.712,18.752-14.021,30.717-14.021c21.627,0,39.375,16.927,40.694,38.228
		c14.765,1.777,29.786,1.777,44.553,0c1.319-21.301,19.067-38.228,40.694-38.228c11.966,0,23.112,5.309,30.717,14.021
		c15.925-9.413,30.39-21.204,42.843-34.88c-4.67-1.941-7.954-6.543-7.954-11.916c0-7.127,5.777-12.903,12.903-12.903h96.26
		c0.045,0,0.088,0,0.133,0h41.927c7.126,0,12.903,5.776,12.903,12.903c0,7.128-5.777,12.903-12.903,12.903h-30.61
		c-7.907,52.774-32.696,102.22-70.568,140.284c-40.619,40.825-94.401,66.682-151.438,72.803c-0.466,0.051-0.933,0.076-1.394,0.076
		c-6.508,0-12.104-4.91-12.813-11.527c-0.014-0.12-0.011-0.238-0.021-0.357c-4.291,0.229-8.609,0.357-12.959,0.357
		c-4.349,0-8.665-0.129-12.958-0.357c-0.01,0.119-0.007,0.237-0.021,0.357C386.307,531.09,380.712,536,374.204,536
		c-0.461,0-0.926-0.025-1.394-0.076c-57.036-6.122-110.818-31.978-151.438-72.803c-37.872-38.064-62.662-87.51-70.569-140.284H120.2
		c-7.126,0-12.903-5.775-12.903-12.903S113.074,297.03,120.2,297.03z"/>
	<path d="M787.097,129.032H12.903C5.777,129.032,0,134.808,0,141.936v516.129c0,7.128,5.777,12.903,12.903,12.903h774.193
		c7.126,0,12.903-5.775,12.903-12.903V141.936C800,134.808,794.223,129.032,787.097,129.032z M774.193,645.161H25.807V154.839
		h748.387V645.161z"/>
	<path fill="#ED1F34" d="M399.998,525.475c-4.163,0-8.54-0.121-13.011-0.358l-1.025-0.055l0.082-1.023
		c0.514-6.472-4.135-12.084-10.584-12.776c-100.743-10.812-182.788-88.227-199.517-188.258l-0.195-1.165h55.662l0.3,0.404
		c19.358,26.112,44.87,47.66,73.778,62.315c1.66,0.842,3.521,1.288,5.381,1.287c1.502,0,2.972-0.28,4.37-0.831
		c3.166-1.249,5.649-3.797,6.814-6.991c2.294-6.285,8.312-10.507,14.975-10.507c8.804,0,15.966,7.162,15.966,15.966
		c0,1.632-0.245,3.242-0.729,4.786c-1.019,3.244-0.596,6.776,1.159,9.692c1.753,2.913,4.676,4.942,8.021,5.566
		c12.655,2.357,25.626,3.553,38.554,3.553c12.928,0,25.899-1.195,38.554-3.553c3.346-0.624,6.27-2.652,8.021-5.566
		c1.753-2.913,2.176-6.445,1.159-9.692c-0.483-1.549-0.729-3.159-0.729-4.786c0-8.804,7.162-15.966,15.966-15.966
		c6.663,0,12.681,4.222,14.975,10.507c1.166,3.195,3.649,5.743,6.813,6.991c1.398,0.552,2.869,0.831,4.371,0.831
		c1.861,0,3.722-0.445,5.379-1.287c28.909-14.657,54.422-36.205,73.779-62.315l0.3-0.404h55.661l-0.194,1.165
		c-16.729,100.031-98.773,177.445-199.518,188.258c-6.449,0.692-11.098,6.305-10.582,12.776l0.081,1.023l-1.025,0.055
		C408.475,525.357,404.218,525.475,399.998,525.475z"/>
	<path fill="#ED1F34" d="M424.43,510.268c100.679-10.806,182.107-88.587,198.638-187.429h-53.977
		c-19.472,26.264-44.974,47.83-74.13,62.611c-3.291,1.671-7.139,1.848-10.57,0.494c-3.433-1.354-6.121-4.114-7.386-7.579
		c-2.15-5.891-7.79-9.85-14.035-9.85c-8.253,0-14.966,6.713-14.966,14.966c0,1.53,0.23,3.039,0.683,4.487
		c1.103,3.521,0.646,7.346-1.256,10.506c-1.901,3.161-5.067,5.357-8.695,6.034c-12.719,2.369-25.751,3.569-38.737,3.569
		c-12.985,0-26.018-1.2-38.737-3.569c-3.626-0.677-6.792-2.872-8.694-6.034c-1.903-3.162-2.361-6.986-1.256-10.506
		c0.454-1.451,0.683-2.959,0.683-4.487c0-8.252-6.713-14.966-14.966-14.966c-6.245,0-11.885,3.958-14.035,9.85
		c-1.265,3.466-3.954,6.225-7.387,7.579c-3.43,1.354-7.277,1.177-10.57-0.494c-29.156-14.78-54.658-36.346-74.129-62.611h-53.977
		c16.53,98.842,97.961,176.624,198.638,187.429c6.966,0.748,12.025,6.907,11.474,13.85c4.291,0.229,8.609,0.357,12.958,0.357
		c4.35,0,8.666-0.129,12.959-0.357C412.404,517.175,417.464,511.016,424.43,510.268z"/>
	<path d="M120.2,322.837h30.61c7.907,52.774,32.697,102.22,70.568,140.284c40.62,40.825,94.401,66.682,151.438,72.803
		c0.468,0.051,0.933,0.076,1.394,0.076c6.509,0,12.104-4.91,12.813-11.527c0.014-0.12,0.011-0.238,0.021-0.357
		c0.553-6.942-4.507-13.101-11.473-13.85c-100.678-10.806-182.108-88.587-198.638-187.429h53.977
		c19.472,26.264,44.974,47.83,74.13,62.612c3.293,1.67,7.14,1.848,10.57,0.494c3.433-1.354,6.121-4.114,7.386-7.579
		c2.15-5.891,7.79-9.849,14.035-9.849c8.253,0,14.966,6.713,14.966,14.966c0,1.529-0.23,3.038-0.683,4.487
		c-1.103,3.522-0.646,7.346,1.256,10.507s5.066,5.358,8.695,6.034c12.719,2.369,25.751,3.57,38.737,3.57
		c12.985,0,26.018-1.201,38.737-3.57c3.626-0.676,6.792-2.871,8.694-6.034c1.903-3.162,2.361-6.987,1.256-10.507
		c-0.454-1.45-0.683-2.959-0.683-4.487c0-8.253,6.713-14.966,14.966-14.966c6.245,0,11.885,3.958,14.035,9.849
		c1.265,3.467,3.954,6.225,7.386,7.579c3.431,1.354,7.279,1.177,10.57-0.494c29.156-14.78,54.658-36.346,74.13-62.612h53.978
		c-16.53,98.842-97.962,176.625-198.638,187.429c-6.966,0.749-12.025,6.907-11.474,13.85c0.011,0.119,0.007,0.237,0.021,0.357
		c0.711,6.619,6.306,11.527,12.813,11.527c0.462,0,0.926-0.025,1.394-0.076c57.036-6.122,110.818-31.978,151.438-72.803
		c37.872-38.064,62.662-87.51,70.569-140.284h30.609c7.126,0,12.903-5.775,12.903-12.903s-5.777-12.903-12.903-12.903h-41.927
		c-0.045,0-0.088,0-0.133,0h-96.26c-7.126,0-12.902,5.775-12.902,12.903c0,5.373,3.284,9.975,7.953,11.916
		c-12.452,13.675-26.918,25.467-42.842,34.88c-7.606-8.712-18.753-14.021-30.717-14.021c-21.628,0-39.376,16.927-40.695,38.228
		c-14.765,1.777-29.786,1.777-44.552,0c-1.32-21.301-19.068-38.228-40.695-38.228c-11.966,0-23.112,5.309-30.717,14.021
		c-15.924-9.413-30.39-21.205-42.842-34.88c4.669-1.941,7.954-6.543,7.954-11.916c0-7.128-5.777-12.903-12.903-12.903h-21.141
		c-0.005,0-0.008,0-0.014,0h-75.146c-0.022,0-0.045,0-0.067,0H120.2c-7.126,0-12.903,5.775-12.903,12.903
		S113.074,322.837,120.2,322.837z"/>
</g>
</svg>
