<?xml version="1.0" encoding="utf-8"?>
<!-- Generator: Adobe Illustrator 16.0.0, SVG Export Plug-In . SVG Version: 6.00 Build 0)  -->
<!DOCTYPE svg PUBLIC "-//W3C//DTD SVG 1.1//EN" "http://www.w3.org/Graphics/SVG/1.1/DTD/svg11.dtd">
<svg version="1.1" id="Capa_1" xmlns="http://www.w3.org/2000/svg" xmlns:xlink="http://www.w3.org/1999/xlink" x="0px" y="0px"
	 width="800px" height="800px" viewBox="0 0 800 800" enable-background="new 0 0 800 800" xml:space="preserve">
<g>
	<polygon fill="#259245" points="24.807,153.839 516.82,153.839 24.807,629.98 	"/>
	<polygon fill="#259245" points="25.807,154.839 25.807,627.621 514.349,154.839 	"/>
	<path fill="#ED1F34" d="M283.18,646.161l492.013-476.142v384.82c0,6.563,5.34,11.903,11.903,11.903h1v27.807h-1
		c-6.563,0-11.903,5.34-11.903,11.902v39.71H283.18z"/>
	<path fill="#ED1F34" d="M774.193,554.839v-382.46L285.651,645.161h488.542v-38.71c0-7.127,5.777-12.902,12.903-12.902v-25.807
		C779.971,567.742,774.193,561.967,774.193,554.839z"/>
	<polygon fill="#FFE000" points="42.32,646.161 551.054,153.839 757.681,153.839 248.947,646.161 	"/>
	<polygon fill="#FFE000" points="551.458,154.839 44.792,645.161 248.542,645.161 755.209,154.839 	"/>
	<path d="M774.193,606.451v38.71H285.651l488.542-472.783v382.46c0,7.128,5.777,12.903,12.903,12.903S800,561.967,800,554.839
		V141.936c0-0.145-0.018-0.284-0.022-0.429c-0.009-0.249-0.016-0.497-0.038-0.747c-0.017-0.199-0.048-0.394-0.075-0.592
		c-0.031-0.22-0.059-0.438-0.1-0.657c-0.04-0.207-0.09-0.409-0.14-0.614c-0.05-0.203-0.098-0.408-0.156-0.609
		c-0.061-0.203-0.13-0.399-0.198-0.601c-0.068-0.198-0.138-0.396-0.217-0.593c-0.077-0.191-0.165-0.378-0.251-0.566
		c-0.09-0.194-0.179-0.391-0.279-0.58c-0.096-0.182-0.201-0.359-0.306-0.538c-0.108-0.183-0.215-0.368-0.334-0.547
		c-0.118-0.182-0.249-0.356-0.377-0.533c-0.12-0.164-0.235-0.327-0.364-0.487c-0.153-0.188-0.316-0.368-0.48-0.547
		c-0.1-0.108-0.189-0.227-0.292-0.333c-0.024-0.026-0.052-0.047-0.076-0.072c-0.174-0.177-0.359-0.341-0.544-0.508
		c-0.134-0.122-0.265-0.251-0.404-0.366c-0.158-0.133-0.328-0.251-0.493-0.377c-0.176-0.132-0.346-0.27-0.526-0.394
		c-0.113-0.077-0.236-0.143-0.352-0.215c-0.238-0.151-0.477-0.306-0.723-0.439c-0.072-0.04-0.149-0.07-0.224-0.108
		c-0.296-0.153-0.595-0.304-0.899-0.434c-0.138-0.058-0.282-0.103-0.422-0.156c-0.249-0.095-0.495-0.194-0.748-0.273
		c-0.184-0.057-0.373-0.098-0.561-0.146c-0.219-0.057-0.436-0.122-0.657-0.17c-0.174-0.036-0.353-0.055-0.53-0.084
		c-0.242-0.04-0.485-0.086-0.729-0.11c-0.16-0.019-0.323-0.021-0.485-0.033c-0.267-0.019-0.535-0.038-0.802-0.04
		c-0.032,0-0.063-0.005-0.096-0.005H12.903C5.777,129.032,0,134.808,0,141.936v516.129c0,0.145,0.017,0.284,0.022,0.429
		c0.008,0.249,0.016,0.497,0.038,0.746c0.018,0.2,0.048,0.395,0.076,0.592c0.031,0.221,0.059,0.439,0.1,0.657
		c0.04,0.207,0.089,0.41,0.139,0.614c0.05,0.203,0.098,0.408,0.157,0.609c0.06,0.203,0.129,0.4,0.198,0.601
		c0.069,0.197,0.138,0.396,0.217,0.593c0.077,0.191,0.165,0.379,0.251,0.566c0.09,0.194,0.179,0.389,0.281,0.58
		c0.096,0.183,0.201,0.359,0.304,0.538c0.108,0.183,0.215,0.368,0.334,0.547c0.119,0.183,0.25,0.356,0.376,0.534
		c0.121,0.163,0.236,0.326,0.365,0.486c0.153,0.188,0.317,0.368,0.48,0.547c0.1,0.108,0.189,0.228,0.292,0.334
		c0.024,0.026,0.052,0.045,0.076,0.07c0.191,0.194,0.396,0.377,0.599,0.558c0.12,0.108,0.235,0.226,0.359,0.327
		c0.2,0.167,0.413,0.316,0.621,0.47c0.299,0.219,0.605,0.423,0.919,0.612c0.184,0.111,0.364,0.234,0.556,0.336
		c0.182,0.1,0.37,0.179,0.556,0.267c0.199,0.098,0.394,0.199,0.6,0.285c0.167,0.07,0.339,0.122,0.508,0.186
		c0.232,0.086,0.461,0.178,0.697,0.25c0.16,0.048,0.322,0.082,0.481,0.124c0.251,0.064,0.499,0.137,0.755,0.188
		c0.189,0.037,0.382,0.058,0.575,0.087c0.229,0.036,0.454,0.079,0.687,0.102c0.411,0.042,0.824,0.063,1.237,0.063
		c0.016,0,0.031,0.002,0.046,0.002h774.193c7.126,0,12.903-5.775,12.903-12.903v-51.612c0-7.128-5.777-12.903-12.903-12.903
		S774.193,599.324,774.193,606.451z M25.807,154.839h488.542L25.807,627.621V154.839z M44.792,645.161l506.667-490.322h203.751
		L248.542,645.161H44.792z"/>
</g>
</svg>
