<?xml version="1.0" encoding="utf-8"?>
<!-- Generator: Adobe Illustrator 16.0.0, SVG Export Plug-In . SVG Version: 6.00 Build 0)  -->
<!DOCTYPE svg PUBLIC "-//W3C//DTD SVG 1.1//EN" "http://www.w3.org/Graphics/SVG/1.1/DTD/svg11.dtd">
<svg version="1.1" id="Capa_1" xmlns="http://www.w3.org/2000/svg" xmlns:xlink="http://www.w3.org/1999/xlink" x="0px" y="0px"
	 width="800px" height="800px" viewBox="0 0 800 800" enable-background="new 0 0 800 800" xml:space="preserve">
<g>
	<path fill="#ED1F34" d="M451.7,646.161l-18.504-131.087c-0.452-3.192-2.21-6.105-4.824-7.99c-2.04-1.471-4.448-2.248-6.964-2.248
		c-0.716,0-1.438,0.065-2.143,0.194c-6.411,1.173-12.893,1.768-19.265,1.768s-12.854-0.595-19.266-1.768
		c-0.706-0.129-1.428-0.194-2.145-0.194c-2.513,0-4.92,0.777-6.961,2.248c-2.616,1.887-4.374,4.8-4.824,7.99l-18.506,131.087
		H187.563L332.745,499.74c2.346-2.367,3.6-5.632,3.438-8.958c-0.161-3.326-1.723-6.455-4.286-8.583
		c-9.979-8.282-18.309-18.222-24.757-29.544c-1.657-2.909-4.479-4.996-7.744-5.726c-0.853-0.19-1.727-0.287-2.6-0.287
		c-2.461,0-4.828,0.748-6.845,2.165L24.807,635.148V457.265l259.552-24.005c3.318-0.307,6.375-2.006,8.388-4.66
		c2.013-2.655,2.824-6.057,2.224-9.334c-1.179-6.442-1.776-12.925-1.776-19.266c0-6.337,0.597-12.819,1.774-19.268
		c0.6-3.276-0.21-6.678-2.223-9.334c-2.013-2.654-5.07-4.352-8.388-4.66l-259.55-24.005V164.849l265.146,186.34
		c2.015,1.417,4.382,2.165,6.845,2.165c0.879,0,1.754-0.097,2.6-0.287c3.267-0.73,6.088-2.817,7.743-5.725
		c6.447-11.321,14.776-21.26,24.755-29.543c2.563-2.128,4.125-5.256,4.286-8.583c0.162-3.327-1.091-6.591-3.438-8.958
		l-145.182-146.42h160.736l18.509,131.086c0.45,3.192,2.208,6.105,4.823,7.991c2.04,1.471,4.447,2.249,6.96,2.248
		c0.716,0,1.438-0.065,2.143-0.194c6.416-1.173,12.898-1.768,19.266-1.768s12.851,0.595,19.267,1.767
		c0.708,0.13,1.429,0.195,2.142,0.195c2.514,0,4.922-0.778,6.963-2.249c2.615-1.887,4.373-4.8,4.822-7.991L451.7,153.839h160.736
		l-145.182,146.42c-2.347,2.367-3.6,5.631-3.438,8.957c0.16,3.327,1.723,6.455,4.286,8.583c9.979,8.282,18.308,18.222,24.757,29.544
		c1.657,2.909,4.479,4.995,7.743,5.725c0.855,0.191,1.729,0.288,2.6,0.288c2.462,0,4.829-0.749,6.846-2.165l265.145-186.34v177.883
		l-259.551,24.003c-3.317,0.307-6.374,2.006-8.387,4.661c-2.014,2.654-2.824,6.057-2.225,9.336
		c1.18,6.437,1.777,12.918,1.777,19.264c0,6.347-0.598,12.828-1.777,19.266c-0.6,3.278,0.211,6.681,2.225,9.334
		c2.011,2.656,5.067,4.355,8.387,4.662l259.551,24.005v177.885L510.049,448.81c-2.016-1.417-4.383-2.165-6.845-2.165
		c-0.873,0-1.748,0.097-2.6,0.287c-3.265,0.729-6.087,2.816-7.744,5.726c-6.448,11.321-14.777,21.261-24.757,29.544
		c-2.563,2.127-4.126,5.256-4.286,8.583c-0.162,3.326,1.091,6.591,3.438,8.957l145.182,146.42H451.7z M400,321
		c-43.561,0-79,35.439-79,79s35.439,79,79,79c31.987,0,60.614-19.08,72.932-48.609c2.526-6.059-0.347-13.043-6.403-15.568
		c-0.356-0.148-0.718-0.276-1.081-0.388l-0.867-0.267l0.182-0.89c0.886-4.345,1.335-8.813,1.335-13.276
		c0-4.464-0.449-8.932-1.335-13.278l-0.181-0.886l0.862-0.269c0.362-0.113,0.726-0.24,1.085-0.39
		c2.935-1.224,5.217-3.517,6.426-6.458c1.21-2.94,1.202-6.176-0.022-9.11C460.616,340.081,431.988,321,400,321z"/>
	<path fill="#ED1F34" d="M25.807,166.773v175.048l258.643,23.921c3.604,0.334,6.904,2.166,9.092,5.051
		c2.187,2.885,3.063,6.557,2.41,10.118c-1.167,6.388-1.758,12.809-1.758,19.088s0.592,12.7,1.76,19.086
		c0.652,3.562-0.224,7.233-2.411,10.118c-2.188,2.886-5.488,4.718-9.092,5.052L25.807,458.177v175.047l263.57-185.234
		c2.975-2.09,6.69-2.83,10.238-2.035c3.548,0.793,6.595,3.047,8.395,6.206c6.388,11.216,14.639,21.063,24.526,29.27
		c2.785,2.313,4.472,5.688,4.646,9.304c0.176,3.616-1.177,7.139-3.727,9.711L189.963,645.161h157.468l18.385-130.227
		c0.49-3.479,2.379-6.605,5.229-8.662c2.85-2.054,6.412-2.859,9.87-2.226c12.764,2.334,25.407,2.334,38.171,0
		c3.457-0.632,7.021,0.172,9.871,2.226c2.849,2.055,4.737,5.184,5.229,8.662l18.383,130.227h157.468L466.545,500.445
		c-2.549-2.57-3.902-6.094-3.727-9.71c0.175-3.616,1.861-6.992,4.646-9.304c9.888-8.207,18.139-18.055,24.526-29.27
		c1.8-3.159,4.847-5.413,8.395-6.206c3.547-0.795,7.265-0.055,10.238,2.035l263.569,185.233V458.177l-258.643-23.921
		c-3.605-0.334-6.905-2.166-9.092-5.054c-2.188-2.885-3.063-6.558-2.411-10.119c1.169-6.381,1.761-12.802,1.761-19.085
		c0-6.283-0.592-12.704-1.761-19.084c-0.651-3.562,0.223-7.234,2.411-10.12c2.187-2.885,5.486-4.719,9.092-5.053l258.643-23.919
		V166.775L510.624,352.009c-2.192,1.54-4.786,2.347-7.421,2.347c-0.94,0-1.885-0.104-2.817-0.312
		c-3.548-0.793-6.595-3.047-8.395-6.206c-6.388-11.215-14.639-21.063-24.526-29.27c-2.785-2.312-4.472-5.688-4.646-9.304
		c-0.176-3.616,1.177-7.138,3.727-9.71l143.492-144.716H452.569l-18.385,130.226c-0.49,3.479-2.379,6.606-5.228,8.663
		c-2.215,1.596-4.859,2.438-7.548,2.438c-0.772,0-1.55-0.07-2.321-0.211c-12.773-2.334-25.4-2.334-38.173,0
		c-3.456,0.633-7.02-0.172-9.868-2.226c-2.849-2.055-4.738-5.184-5.229-8.663l-18.388-130.226H189.963l143.492,144.716
		c2.549,2.57,3.902,6.094,3.727,9.71c-0.175,3.616-1.861,6.992-4.646,9.304c-9.888,8.207-18.139,18.055-24.524,29.268
		c-1.798,3.159-4.847,5.413-8.393,6.206c-0.933,0.21-1.879,0.312-2.82,0.312c-2.632,0-5.229-0.807-7.42-2.347L25.807,166.773z
		 M400,320c32.393,0,61.383,19.322,73.854,49.227c2.744,6.577-0.364,14.133-6.941,16.876c-0.388,0.162-0.78,0.299-1.172,0.421
		c0.888,4.354,1.355,8.86,1.355,13.478c0,4.615-0.468,9.123-1.355,13.477c0.394,0.121,0.784,0.26,1.172,0.421
		c6.577,2.742,9.684,10.299,6.941,16.876C461.383,460.676,432.393,480,400,480c-44.111,0-80-35.888-80-80
		C320,355.888,355.889,320,400,320z"/>
	<path fill="#FFE000" d="M50.543,646.161l242.911-170.715l0.578,0.803c3.766,5.23,7.944,10.213,12.418,14.81l0.685,0.704
		L154.039,646.161H50.543z"/>
	<path fill="#FFE000" d="M293.22,476.833L53.705,645.161h99.917l152.11-153.405C301.197,487.097,297.022,482.114,293.22,476.833z"/>
	<path fill="#FFE000" d="M24.807,366.642l245.029,22.661l-0.075,0.981c-0.248,3.238-0.374,6.506-0.374,9.714
		s0.125,6.477,0.374,9.715l0.075,0.981l-245.029,22.66V366.642z"/>
	<path fill="#FFE000" d="M25.807,367.738v64.52l242.957-22.469c-0.251-3.279-0.376-6.548-0.376-9.791
		c0-3.243,0.125-6.512,0.376-9.791L25.807,367.738z"/>
	<path fill="#FFE000" d="M50.543,153.839h65.586c6.563,0,11.903-5.341,11.903-11.905v-1h19.065v1c0,3.161,1.225,6.138,3.449,8.382
		l156.586,157.924l-0.685,0.704c-4.487,4.611-8.663,9.593-12.414,14.808l-0.578,0.803L50.543,153.839z"/>
	<path fill="#FFE000" d="M116.129,154.839H53.705l239.517,168.329c3.8-5.284,7.978-10.264,12.509-14.921L149.836,151.02
		c-2.495-2.517-3.739-5.801-3.739-9.086h-17.065C129.032,149.062,123.255,154.839,116.129,154.839z"/>
	<path fill="#FFE000" d="M410.336,269.809c-3.446-0.28-6.924-0.422-10.336-0.422c-3.412,0-6.889,0.142-10.336,0.422l-0.939,0.077
		L372.34,153.839h55.318l-16.383,116.046L410.336,269.809z"/>
	<path fill="#FFE000" d="M410.417,268.812l16.09-113.973h-53.016l16.092,113.973C396.563,268.244,403.438,268.244,410.417,268.812z"
		/>
	<path fill="#FFE000" d="M530.167,410.696l0.074-0.981c0.247-3.251,0.372-6.52,0.372-9.715c0-3.195-0.125-6.464-0.372-9.715
		l-0.074-0.981l245.026-22.66v66.713L530.167,410.696z"/>
	<path fill="#FFE000" d="M774.193,432.26v-64.52l-242.955,22.469c0.249,3.279,0.375,6.548,0.375,9.791s-0.126,6.512-0.375,9.791
		L774.193,432.26z"/>
	<path fill="#FFE000" d="M505.969,323.75c-3.766-5.231-7.943-10.213-12.418-14.808l-0.686-0.704l153.096-154.399h103.496
		L506.546,324.552L505.969,323.75z"/>
	<path fill="#FFE000" d="M506.78,323.166l239.515-168.327h-99.917l-152.11,153.405C498.803,312.901,502.979,317.884,506.78,323.166z
		"/>
	<path fill="#FFE000" d="M372.342,646.161l16.384-116.048l0.939,0.076c3.445,0.279,6.922,0.421,10.334,0.421
		c3.413,0,6.891-0.142,10.336-0.421l0.939-0.076l16.385,116.048H372.342z"/>
	<path fill="#FFE000" d="M410.417,531.187c-6.978,0.565-13.856,0.565-20.832,0l-16.092,113.975h53.016L410.417,531.187z"/>
	<path fill="#FFE000" d="M645.962,646.161l-153.094-154.4l0.685-0.704c4.479-4.602,8.656-9.583,12.416-14.808l0.577-0.803
		l242.913,170.715H645.962z"/>
	<path fill="#FFE000" d="M506.78,476.833c-3.801,5.281-7.978,10.264-12.511,14.921l152.109,153.407h99.918L506.78,476.833z"/>
	<path d="M800,446.271v-92.543c0-0.007,0-0.014,0-0.021V141.936c0-0.036-0.005-0.071-0.005-0.105
		c-0.002-0.286-0.022-0.569-0.043-0.855c-0.011-0.143-0.014-0.286-0.029-0.427c-0.029-0.277-0.079-0.552-0.126-0.826
		c-0.025-0.146-0.043-0.294-0.072-0.439c-0.05-0.237-0.118-0.471-0.183-0.707c-0.048-0.177-0.087-0.356-0.141-0.53
		c-0.059-0.184-0.133-0.363-0.199-0.545c-0.081-0.219-0.155-0.438-0.246-0.652c-0.063-0.143-0.136-0.281-0.203-0.422
		c-0.117-0.246-0.23-0.492-0.363-0.729c-0.07-0.127-0.153-0.25-0.227-0.375c-0.145-0.243-0.291-0.483-0.451-0.715
		c-0.021-0.029-0.036-0.062-0.057-0.091c-0.081-0.114-0.172-0.215-0.255-0.327c-0.147-0.196-0.294-0.394-0.454-0.582
		c-0.141-0.168-0.291-0.325-0.44-0.483c-0.134-0.143-0.265-0.286-0.404-0.421c-0.176-0.172-0.357-0.332-0.54-0.492
		c-0.129-0.112-0.257-0.225-0.391-0.333c-0.192-0.155-0.393-0.301-0.594-0.444c-0.141-0.1-0.282-0.202-0.427-0.296
		c-0.194-0.127-0.394-0.245-0.594-0.361c-0.168-0.098-0.335-0.194-0.509-0.284c-0.184-0.094-0.37-0.182-0.558-0.268
		c-0.199-0.091-0.398-0.183-0.602-0.263c-0.173-0.069-0.348-0.129-0.521-0.191c-0.222-0.078-0.445-0.155-0.673-0.22
		c-0.174-0.05-0.35-0.091-0.524-0.134c-0.229-0.055-0.456-0.112-0.69-0.155c-0.196-0.036-0.392-0.062-0.59-0.09
		c-0.214-0.029-0.427-0.062-0.642-0.081c-0.241-0.022-0.483-0.029-0.725-0.036c-0.145-0.007-0.284-0.022-0.427-0.022H167.742
		c-1.537,0-3.006,0.282-4.372,0.776c-4.537-1.631-9.805-0.657-13.457,2.964c-2.544,2.522-3.816,5.843-3.816,9.163
		c0,3.284,1.244,6.568,3.739,9.085L305.73,308.246c-4.533,4.657-8.71,9.64-12.509,14.921L53.705,154.839h62.424
		c7.126,0,12.903-5.777,12.903-12.903s-5.777-12.903-12.903-12.903H12.903c-0.138,0-0.27,0.017-0.408,0.021
		c-0.25,0.009-0.498,0.016-0.745,0.038c-0.215,0.019-0.425,0.052-0.637,0.081c-0.198,0.027-0.396,0.053-0.593,0.089
		c-0.236,0.044-0.466,0.1-0.697,0.156c-0.172,0.042-0.344,0.083-0.515,0.133c-0.232,0.067-0.459,0.145-0.687,0.224
		c-0.17,0.06-0.339,0.119-0.507,0.186c-0.21,0.084-0.417,0.177-0.621,0.272c-0.181,0.083-0.359,0.167-0.537,0.258
		c-0.181,0.095-0.356,0.195-0.533,0.298c-0.193,0.112-0.382,0.224-0.57,0.346c-0.153,0.1-0.303,0.207-0.451,0.313
		c-0.193,0.137-0.385,0.277-0.571,0.426c-0.141,0.114-0.275,0.232-0.411,0.351c-0.177,0.155-0.353,0.31-0.523,0.475
		c-0.145,0.142-0.282,0.291-0.42,0.439c-0.145,0.155-0.289,0.306-0.426,0.47c-0.155,0.188-0.305,0.387-0.455,0.586
		c-0.083,0.11-0.172,0.21-0.251,0.322c-0.021,0.029-0.036,0.062-0.057,0.091c-0.16,0.232-0.305,0.473-0.451,0.716
		c-0.076,0.125-0.157,0.248-0.228,0.375c-0.13,0.237-0.246,0.483-0.363,0.729c-0.067,0.141-0.141,0.279-0.203,0.421
		c-0.091,0.213-0.167,0.434-0.246,0.652c-0.067,0.183-0.141,0.361-0.199,0.545c-0.055,0.174-0.095,0.353-0.141,0.53
		c-0.064,0.235-0.133,0.469-0.183,0.707c-0.031,0.145-0.048,0.292-0.072,0.438c-0.048,0.275-0.096,0.551-0.125,0.826
		c-0.016,0.141-0.017,0.284-0.029,0.427c-0.021,0.286-0.041,0.569-0.043,0.855C0.005,141.865,0,141.899,0,141.936v211.771
		c0,0.007,0,0.014,0,0.021v92.543c0,0.008,0,0.015,0,0.021v211.772c0,0.036,0.005,0.07,0.005,0.105
		c0.001,0.285,0.022,0.57,0.043,0.854c0.01,0.143,0.014,0.286,0.029,0.427c0.029,0.277,0.079,0.553,0.125,0.826
		c0.026,0.146,0.043,0.294,0.072,0.438c0.05,0.237,0.119,0.472,0.182,0.707c0.048,0.177,0.088,0.356,0.141,0.53
		c0.059,0.184,0.132,0.362,0.2,0.545c0.081,0.219,0.155,0.438,0.246,0.652c0.062,0.143,0.136,0.28,0.203,0.421
		c0.117,0.246,0.231,0.492,0.363,0.729c0.07,0.128,0.153,0.25,0.227,0.375c0.145,0.243,0.291,0.483,0.451,0.716
		c0.021,0.029,0.036,0.063,0.057,0.092c0.052,0.073,0.114,0.136,0.167,0.208c0.215,0.294,0.442,0.578,0.682,0.852
		c0.117,0.132,0.234,0.263,0.354,0.391c0.213,0.226,0.437,0.44,0.666,0.648c0.131,0.12,0.258,0.244,0.394,0.357
		c0.344,0.289,0.698,0.563,1.072,0.815c0.095,0.064,0.193,0.115,0.289,0.178c0.31,0.197,0.625,0.385,0.95,0.556
		c0.139,0.072,0.282,0.136,0.425,0.205c0.294,0.141,0.592,0.271,0.896,0.39c0.145,0.056,0.287,0.108,0.434,0.159
		c0.316,0.109,0.636,0.204,0.963,0.29c0.138,0.036,0.275,0.076,0.415,0.107c0.348,0.079,0.702,0.137,1.062,0.188
		c0.121,0.017,0.239,0.041,0.359,0.055c0.463,0.052,0.931,0.081,1.406,0.083c0.012,0,0.024,0.001,0.036,0.001
		c0.003,0,0.007,0,0.012,0h428.382c0.012,0,0.024,0.002,0.036,0.002c0.009,0,0.016-0.002,0.024-0.002h345.706
		c0.004,0,0.007,0,0.012,0c0.013,0,0.022-0.001,0.035-0.001c0.477,0,0.946-0.031,1.41-0.083c0.114-0.014,0.228-0.036,0.341-0.052
		c0.366-0.05,0.728-0.111,1.084-0.192c0.133-0.031,0.262-0.067,0.393-0.102c0.335-0.088,0.664-0.186,0.987-0.298
		c0.14-0.048,0.277-0.098,0.415-0.151c0.314-0.122,0.62-0.256,0.922-0.4c0.134-0.064,0.269-0.124,0.4-0.193
		c0.341-0.179,0.671-0.375,0.993-0.581c0.079-0.052,0.161-0.093,0.24-0.146c0.379-0.256,0.74-0.535,1.09-0.829
		c0.131-0.11,0.253-0.23,0.38-0.346c0.234-0.214,0.461-0.432,0.678-0.661c0.119-0.125,0.234-0.253,0.35-0.384
		c0.24-0.274,0.468-0.561,0.685-0.856c0.054-0.072,0.113-0.134,0.165-0.208c0.021-0.029,0.036-0.063,0.057-0.091
		c0.16-0.232,0.305-0.474,0.451-0.716c0.075-0.126,0.156-0.248,0.227-0.375c0.131-0.237,0.246-0.483,0.363-0.729
		c0.067-0.142,0.142-0.279,0.203-0.422c0.091-0.213,0.167-0.434,0.246-0.652c0.067-0.182,0.141-0.361,0.199-0.545
		c0.056-0.174,0.095-0.353,0.142-0.53c0.063-0.235,0.132-0.47,0.182-0.707c0.031-0.145,0.049-0.292,0.072-0.438
		c0.049-0.275,0.097-0.551,0.126-0.826c0.016-0.141,0.018-0.283,0.029-0.427c0.021-0.285,0.041-0.569,0.043-0.854
		c0-0.036,0.005-0.07,0.005-0.105v-211.77C800,446.286,800,446.278,800,446.271z M746.295,154.839L506.78,323.166
		c-3.801-5.282-7.978-10.264-12.511-14.921l152.109-153.405H746.295z M531.238,390.209l242.955-22.471v64.52l-242.955-22.469
		c0.249-3.279,0.375-6.548,0.375-9.791C531.613,396.755,531.487,393.486,531.238,390.209z M373.493,154.839h53.016l-16.092,113.973
		c-6.979-0.566-13.854-0.566-20.832,0L373.493,154.839z M299.616,354.042c3.548-0.793,6.595-3.047,8.393-6.206
		c6.386-11.215,14.639-21.062,24.524-29.268c2.785-2.313,4.472-5.688,4.647-9.304c0.175-3.616-1.177-7.138-3.727-9.71
		L189.963,154.839h157.468l18.385,130.226c0.49,3.479,2.379,6.606,5.228,8.663c2.852,2.054,6.414,2.861,9.869,2.226
		c12.773-2.334,25.4-2.334,38.173,0c0.771,0.141,1.548,0.211,2.32,0.211c2.689,0,5.335-0.841,7.548-2.438
		c2.849-2.055,4.738-5.184,5.229-8.663l18.388-130.226h157.468L466.545,299.555c-2.549,2.57-3.902,6.094-3.727,9.71
		c0.175,3.616,1.861,6.992,4.646,9.304c9.888,8.207,18.139,18.055,24.526,29.27c1.8,3.159,4.847,5.413,8.395,6.206
		c0.933,0.21,1.877,0.312,2.817,0.312c2.633,0,5.229-0.807,7.421-2.347l263.569-185.234v175.047l-258.643,23.921
		c-3.605,0.334-6.905,2.166-9.092,5.053c-2.188,2.885-3.063,6.558-2.411,10.119c1.169,6.381,1.761,12.802,1.761,19.085
		s-0.592,12.703-1.761,19.085c-0.651,3.562,0.223,7.234,2.411,10.119c2.187,2.886,5.486,4.72,9.092,5.053l258.643,23.92v175.047
		L510.624,447.991c-2.974-2.089-6.691-2.83-10.238-2.035c-3.548,0.793-6.595,3.047-8.395,6.206
		c-6.388,11.215-14.639,21.063-24.526,29.27c-2.785,2.312-4.472,5.688-4.646,9.304c-0.176,3.616,1.177,7.138,3.727,9.71
		l143.492,144.716H452.569l-18.385-130.227c-0.49-3.479-2.379-6.605-5.229-8.662c-2.851-2.056-6.414-2.859-9.87-2.226
		c-12.764,2.334-25.407,2.334-38.171,0c-3.459-0.632-7.021,0.172-9.87,2.226c-2.85,2.055-4.738,5.184-5.23,8.662l-18.383,130.227
		H189.963l143.492-144.716c2.549-2.57,3.902-6.094,3.727-9.71c-0.175-3.616-1.861-6.992-4.646-9.304
		c-9.888-8.207-18.139-18.055-24.526-29.27c-1.8-3.159-4.847-5.413-8.395-6.206c-3.547-0.795-7.263-0.055-10.238,2.035
		L25.807,633.225V458.177l258.643-23.921c3.604-0.334,6.904-2.166,9.092-5.052c2.187-2.885,3.063-6.557,2.41-10.118
		c-1.168-6.386-1.76-12.809-1.76-19.086c0-6.278,0.592-12.7,1.76-19.086c0.652-3.562-0.224-7.233-2.41-10.118
		c-2.188-2.885-5.488-4.718-9.092-5.051L25.807,341.822V166.773l263.571,185.233c2.192,1.54,4.786,2.347,7.42,2.347
		C297.737,354.354,298.683,354.252,299.616,354.042z M646.379,645.161L494.27,491.756c4.533-4.657,8.71-9.64,12.511-14.922
		l239.515,168.327H646.379z M389.583,531.187c6.978,0.565,13.856,0.565,20.833,0l16.091,113.975h-53.016L389.583,531.187z
		 M53.705,645.161l239.517-168.328c3.8,5.281,7.978,10.264,12.511,14.921L153.621,645.161H53.705z M268.764,409.789L25.807,432.26
		v-64.52l242.957,22.469c-0.251,3.279-0.376,6.548-0.376,9.791S268.513,406.51,268.764,409.789z"/>
	<path fill="#FFE000" d="M400,455.193c-30.434,0-55.193-24.76-55.193-55.193s24.76-55.193,55.193-55.193
		c22.35,0,42.354,13.333,50.962,33.969c1.854,4.447,6.168,7.32,10.99,7.32c1.184,0,2.359-0.178,3.494-0.528l1.055-0.325l0.22,1.081
		c0.913,4.478,1.376,9.08,1.376,13.678c0,4.597-0.463,9.197-1.376,13.676l-0.22,1.082l-1.055-0.326
		c-1.138-0.352-2.315-0.529-3.5-0.529c-4.82,0-9.133,2.873-10.986,7.32C442.354,441.86,422.351,455.193,400,455.193z"/>
	<path fill="#FFE000" d="M450.039,379.161c-8.453-20.264-28.094-33.354-50.039-33.354c-29.882,0-54.193,24.311-54.193,54.193
		c0,29.882,24.312,54.193,54.193,54.193c21.945,0,41.586-13.092,50.037-33.354c2.58-6.19,9.423-9.303,15.704-7.361
		c0.888-4.355,1.355-8.861,1.355-13.477c0-4.616-0.468-9.124-1.355-13.478C459.465,388.461,452.619,385.351,450.039,379.161z"/>
	<path d="M400,480c32.393,0,61.383-19.322,73.854-49.227c2.744-6.577-0.364-14.133-6.941-16.876c-0.388-0.161-0.78-0.3-1.172-0.421
		c-6.281-1.941-13.124,1.172-15.704,7.361c-8.451,20.264-28.092,33.355-50.037,33.355c-29.882,0-54.193-24.312-54.193-54.193
		c0-29.882,24.312-54.193,54.193-54.193c21.945,0,41.586,13.092,50.037,33.354c2.58,6.19,9.426,9.3,15.704,7.361
		c0.394-0.122,0.784-0.26,1.172-0.421c6.577-2.742,9.684-10.298,6.941-16.875C461.383,339.322,432.393,320,400,320
		c-44.111,0-80,35.888-80,80C320,444.112,355.889,480,400,480z"/>
</g>
</svg>
