<?xml version="1.0" encoding="utf-8"?>
<!-- Generator: Adobe Illustrator 16.0.0, SVG Export Plug-In . SVG Version: 6.00 Build 0)  -->
<!DOCTYPE svg PUBLIC "-//W3C//DTD SVG 1.1//EN" "http://www.w3.org/Graphics/SVG/1.1/DTD/svg11.dtd">
<svg version="1.1" id="Capa_1" xmlns="http://www.w3.org/2000/svg" xmlns:xlink="http://www.w3.org/1999/xlink" x="0px" y="0px"
	 width="800px" height="800px" viewBox="0 0 800 800" enable-background="new 0 0 800 800" xml:space="preserve">
<g>
	<path fill="#FFE000" d="M24.807,517.129V411.903h39.709c6.563,0,11.903-5.34,11.903-11.903v-1h27.806v1
		c0,6.563,5.34,11.903,11.903,11.903h659.064v105.226H24.807z"/>
	<path fill="#FFE000" d="M64.516,412.903H25.807v103.226h748.387V412.903H116.129c-7.127,0-12.903-5.775-12.903-12.903H77.419
		C77.419,407.128,71.644,412.903,64.516,412.903z"/>
	<rect x="24.807" y="540.936" fill="#134923" width="750.387" height="105.226"/>
	<rect x="25.807" y="541.936" fill="#134923" width="748.387" height="103.226"/>
	<path fill="#3DB4EA" d="M76.419,401v-1c0-6.563-5.34-11.903-11.903-11.903H24.807V153.839h750.387v234.258H116.129
		c-6.563,0-11.903,5.34-11.903,11.903v1H76.419z M642.721,338.064c0,6.563,5.34,11.903,11.903,11.903s11.903-5.34,11.903-11.903
		v-38.359l27.121,27.123c2.249,2.247,5.238,3.485,8.418,3.485s6.169-1.238,8.418-3.485c4.641-4.641,4.641-12.192,0-16.834
		l-27.123-27.123h38.359c6.563,0,11.903-5.34,11.903-11.903s-5.34-11.903-11.903-11.903h-38.359l27.123-27.123
		c4.641-4.641,4.641-12.192,0-16.834c-2.248-2.248-5.237-3.485-8.417-3.485c-3.179,0-6.169,1.238-8.418,3.486l-27.122,27.123
		v-38.359c0-6.563-5.34-11.903-11.903-11.903s-11.903,5.34-11.903,11.903v38.359l-27.123-27.123
		c-2.248-2.248-5.237-3.485-8.417-3.485c-3.179,0-6.169,1.238-8.418,3.486c-4.641,4.64-4.641,12.192,0,16.834l27.123,27.123h-38.358
		c-6.563,0-11.903,5.34-11.903,11.903s5.34,11.903,11.903,11.903h38.358l-27.124,27.123c-4.641,4.641-4.641,12.192,0,16.834
		c2.248,2.247,5.237,3.485,8.418,3.485c3.18,0,6.169-1.238,8.418-3.485l27.123-27.123V338.064z"/>
	<path fill="#3DB4EA" d="M64.516,387.097c7.128,0,12.903,5.775,12.903,12.903h25.806c0-7.128,5.776-12.903,12.903-12.903h658.064
		V154.839H25.807v232.258H64.516z M587.527,258.064h35.944l-25.416-25.416c-5.039-5.041-5.039-13.209,0-18.249
		c5.041-5.038,13.21-5.038,18.249,0l25.416,25.416v-35.945c0-7.128,5.775-12.903,12.903-12.903c7.127,0,12.903,5.775,12.903,12.903
		v35.945l25.415-25.416c5.041-5.038,13.21-5.038,18.249,0c5.039,5.041,5.039,13.209,0,18.249l-25.416,25.416h35.945
		c7.128,0,12.903,5.775,12.903,12.903s-5.775,12.903-12.903,12.903h-35.945l25.416,25.416c5.039,5.041,5.039,13.209,0,18.249
		c-2.521,2.519-5.823,3.778-9.125,3.778s-6.604-1.259-9.125-3.778l-25.414-25.416v35.945c0,7.128-5.776,12.903-12.903,12.903
		c-7.128,0-12.903-5.775-12.903-12.903V302.12l-25.416,25.416c-2.521,2.519-5.824,3.778-9.125,3.778
		c-3.302,0-6.605-1.259-9.125-3.778c-5.039-5.041-5.039-13.209,0-18.249l25.417-25.416h-35.944c-7.128,0-12.903-5.775-12.903-12.903
		S580.399,258.064,587.527,258.064z"/>
	<path d="M787.097,129.032H12.903C5.775,129.032,0,134.808,0,141.936v516.129c0,7.128,5.775,12.903,12.903,12.903h774.193
		c7.128,0,12.903-5.775,12.903-12.903V141.936C800,134.808,794.225,129.032,787.097,129.032z M774.193,154.839v232.258H116.129
		c-7.127,0-12.903,5.775-12.903,12.903s5.776,12.903,12.903,12.903h658.064v103.226H25.807V412.903h38.709
		c7.128,0,12.903-5.775,12.903-12.903s-5.775-12.903-12.903-12.903H25.807V154.839H774.193z M25.807,645.161V541.936h748.387
		v103.226H25.807z"/>
	<path fill="#FFE610" d="M587.527,283.871h35.944l-25.416,25.416c-5.039,5.041-5.039,13.209,0,18.249
		c2.521,2.519,5.824,3.778,9.125,3.778c3.302,0,6.605-1.259,9.126-3.778l25.414-25.416v35.945c0,7.128,5.775,12.903,12.903,12.903
		c7.127,0,12.903-5.775,12.903-12.903V302.12l25.415,25.416c2.521,2.519,5.824,3.778,9.126,3.778c3.301,0,6.604-1.259,9.125-3.778
		c5.039-5.041,5.039-13.209,0-18.249l-25.418-25.416h35.945c7.128,0,12.903-5.775,12.903-12.903s-5.775-12.903-12.903-12.903
		h-35.945l25.416-25.416c5.039-5.041,5.039-13.209,0-18.249c-5.041-5.038-13.209-5.038-18.249,0l-25.415,25.416v-35.945
		c0-7.128-5.776-12.903-12.903-12.903c-7.128,0-12.903,5.775-12.903,12.903v35.945L616.305,214.4c-5.041-5.038-13.21-5.038-18.249,0
		c-5.039,5.041-5.039,13.209,0,18.249l25.416,25.416h-35.944c-7.128,0-12.903,5.775-12.903,12.903S580.399,283.871,587.527,283.871z
		"/>
</g>
</svg>
