<?xml version="1.0" encoding="utf-8"?>
<!-- Generator: Adobe Illustrator 16.0.0, SVG Export Plug-In . SVG Version: 6.00 Build 0)  -->
<!DOCTYPE svg PUBLIC "-//W3C//DTD SVG 1.1//EN" "http://www.w3.org/Graphics/SVG/1.1/DTD/svg11.dtd">
<svg version="1.1" id="Capa_1" xmlns="http://www.w3.org/2000/svg" xmlns:xlink="http://www.w3.org/1999/xlink" x="0px" y="0px"
	 width="800px" height="800px" viewBox="0 0 800 800" enable-background="new 0 0 800 800" xml:space="preserve">
<g>
	<path fill="#FFFFFF" d="M703.148,440.459L763.835,400L400,157.443L36.165,400L400,642.557l260.205-173.47
		c5.929-3.953,13.94-2.352,17.893,3.579l21.473-14.314C695.616,452.422,697.22,444.411,703.148,440.459z M543.785,365.951
		l-71.257,57.615l23.783,88.495c1.389,5.163-0.553,10.646-4.878,13.788c-2.257,1.64-4.917,2.465-7.583,2.465
		c-2.445,0-4.894-0.693-7.037-2.087L400,476.262l-76.813,49.965c-4.482,2.912-10.295,2.765-14.62-0.379
		c-4.325-3.142-6.267-8.624-4.878-13.787l23.783-88.496l-71.257-57.615c-4.156-3.362-5.81-8.938-4.158-14.021
		c1.652-5.084,6.268-8.623,11.606-8.898l91.511-4.728l32.776-85.572c1.911-4.991,6.703-8.287,12.05-8.287s10.139,3.296,12.05,8.287
		l32.776,85.572l91.511,4.728c5.341,0.277,9.955,3.816,11.606,8.898C549.595,357.013,547.941,362.589,543.785,365.951z"/>
	<path fill="#FFE000" d="M406.49,450.892c-1.935-1.259-4.18-1.924-6.492-1.924c-2.312,0-4.556,0.665-6.491,1.924l-57.798,37.597
		l17.896-66.587c1.222-4.543-0.353-9.389-4.011-12.347l-53.615-43.353l68.857-3.557c4.698-0.245,8.82-3.24,10.501-7.631L400,290.625
		l24.662,64.389c1.682,4.392,5.803,7.387,10.499,7.631l68.857,3.557l-53.616,43.353c-3.657,2.958-5.231,7.805-4.011,12.347
		l17.896,66.587L406.49,450.892z"/>
	<path fill="#FFE000" d="M423.729,355.372L400,293.421l-23.729,61.951c-1.825,4.766-6.286,8.007-11.384,8.272l-66.25,3.422
		l51.585,41.711c3.969,3.209,5.673,8.455,4.348,13.384l-17.218,64.065l55.609-36.173c2.139-1.392,4.588-2.086,7.036-2.086
		s4.898,0.694,7.037,2.086l55.609,36.173l-17.219-64.065c-1.324-4.929,0.381-10.175,4.348-13.384l51.586-41.711l-66.25-3.422
		C430.015,363.379,425.554,360.138,423.729,355.372z"/>
	<path d="M536.337,343.031l-91.511-4.728l-32.776-85.572c-1.911-4.991-6.703-8.288-12.05-8.288s-10.139,3.296-12.05,8.288
		l-32.776,85.572l-91.511,4.728c-5.34,0.277-9.954,3.816-11.606,8.898c-1.651,5.083,0.002,10.66,4.158,14.021l71.257,57.615
		l-23.783,88.495c-1.389,5.163,0.553,10.646,4.878,13.788c4.325,3.144,10.138,3.291,14.62,0.378L400,476.264l76.813,49.964
		c2.144,1.394,4.592,2.087,7.037,2.087c2.666,0,5.328-0.823,7.583-2.465c4.325-3.142,6.267-8.625,4.878-13.788l-23.783-88.495
		l71.257-57.615c4.156-3.362,5.81-8.938,4.158-14.021C546.292,346.846,541.678,343.307,536.337,343.031z M449.777,408.775
		c-3.969,3.209-5.672,8.455-4.348,13.384l17.218,64.065l-55.609-36.172c-2.139-1.392-4.588-2.087-7.036-2.087
		s-4.898,0.695-7.037,2.087l-55.609,36.172l17.219-64.065c1.324-4.929-0.381-10.175-4.348-13.384l-51.586-41.711l66.251-3.422
		c5.098-0.263,9.56-3.506,11.384-8.272l23.729-61.951l23.728,61.951c1.825,4.766,6.286,8.007,11.384,8.272l66.251,3.422
		L449.777,408.775z"/>
	<polygon fill="#ED1F34" points="24.807,153.839 360.686,153.839 24.807,377.758 	"/>
	<polygon fill="#ED1F34" points="357.383,154.839 25.807,154.839 25.807,375.89 	"/>
	<polygon fill="#ED1F34" points="439.314,153.839 775.193,153.839 775.193,377.758 	"/>
	<polygon fill="#ED1F34" points="774.193,375.89 774.193,154.839 442.617,154.839 	"/>
	<polygon fill="#164FCE" points="24.807,646.161 24.807,422.242 360.686,646.161 	"/>
	<polygon fill="#164FCE" points="25.807,424.11 25.807,645.161 357.383,645.161 	"/>
	<path fill="#164FCE" d="M439.314,646.161l234.649-156.435c2.646-1.764,4.445-4.451,5.069-7.569s-0.004-6.291-1.768-8.937
		l-0.555-0.832l23.137-15.424l0.555,0.832c2.212,3.32,5.919,5.303,9.916,5.303c2.349,0,4.627-0.692,6.589-2.001l58.286-38.856
		v223.919H439.314z"/>
	<path fill="#164FCE" d="M717.462,461.931c-5.925,3.953-13.94,2.352-17.892-3.579l0,0l-21.473,14.314l0,0
		c3.953,5.929,2.35,13.94-3.579,17.893L442.617,645.161h331.576V424.11L717.462,461.931z"/>
	<path d="M787.097,129.032H12.903C5.775,129.032,0,134.81,0,141.936v516.129c0,7.126,5.775,12.903,12.903,12.903h774.193
		c7.128,0,12.903-5.777,12.903-12.903V141.936C800,134.81,794.225,129.032,787.097,129.032z M774.193,375.89L442.617,154.839
		h331.576V375.89z M357.383,154.839L25.807,375.89V154.839H357.383z M25.807,424.11l331.576,221.051H25.807V424.11z
		 M442.617,645.161L674.521,490.56c5.929-3.951,7.532-11.964,3.578-17.892l0,0c-3.951-5.931-11.964-7.532-17.893-3.579L400,642.557
		L36.165,400L400,157.443L763.835,400l-60.687,40.459c-5.929,3.952-7.532,11.964-3.578,17.893l0,0
		c3.953,5.931,11.967,7.532,17.893,3.579l56.73-37.82v221.051H442.617z"/>
</g>
</svg>
