<?xml version="1.0" encoding="utf-8"?>
<!-- Generator: Adobe Illustrator 16.0.0, SVG Export Plug-In . SVG Version: 6.00 Build 0)  -->
<!DOCTYPE svg PUBLIC "-//W3C//DTD SVG 1.1//EN" "http://www.w3.org/Graphics/SVG/1.1/DTD/svg11.dtd">
<svg version="1.1" id="Capa_1" xmlns="http://www.w3.org/2000/svg" xmlns:xlink="http://www.w3.org/1999/xlink" x="0px" y="0px"
	 width="800px" height="800px" viewBox="0 0 800 800" enable-background="new 0 0 800 800" xml:space="preserve">
<g>
	<path fill="#FFFFFF" d="M735.484,473.118h38.709V326.882H254.995l75.847,63.205c2.942,2.452,4.643,6.083,4.643,9.913
		c0,3.83-1.7,7.461-4.643,9.913l-75.847,63.205h428.876c7.128,0,12.903,5.777,12.903,12.903h25.807
		C722.581,478.896,728.356,473.118,735.484,473.118z M523.907,442.439c-9.01,6.563-19.68,10.033-30.854,10.033
		c-28.933,0-52.473-23.538-52.473-52.473c0-28.934,23.54-52.473,52.473-52.473c11.173,0,21.84,3.468,30.853,10.03
		c5.762,4.194,7.03,12.265,2.834,18.026c-4.194,5.76-12.264,7.028-18.027,2.835c-4.567-3.327-9.983-5.085-15.661-5.085
		c-14.704,0-26.666,11.962-26.666,26.667c0,14.705,11.962,26.667,26.666,26.667c5.678,0,11.092-1.759,15.663-5.088
		c5.76-4.194,13.831-2.927,18.026,2.834C530.936,430.175,529.667,438.245,523.907,442.439z M551.989,414.742
		c-8.141,0-14.74-6.6-14.74-14.742s6.6-14.742,14.74-14.742c8.142,0,14.743,6.6,14.743,14.742S560.133,414.742,551.989,414.742z"/>
	<path fill="#ED1F34" d="M508.714,421.579c-4.569,3.327-9.985,5.088-15.663,5.088c-14.704,0-26.666-11.962-26.666-26.667
		c0-14.705,11.962-26.667,26.666-26.667c5.678,0,11.092,1.758,15.661,5.085c5.764,4.194,13.833,2.925,18.027-2.835
		c4.194-5.762,2.926-13.832-2.834-18.026c-9.012-6.562-19.678-10.03-30.853-10.03c-28.933,0-52.473,23.539-52.473,52.473
		c0,28.935,23.54,52.473,52.473,52.473c11.173,0,21.843-3.47,30.854-10.033c5.762-4.194,7.029-12.267,2.833-18.026
		C522.545,418.654,514.474,417.385,508.714,421.579z"/>
	<circle fill="#ED1F34" cx="551.989" cy="400" r="14.742"/>
	<path fill="#259245" d="M45.781,646.161l177.884-148.236h460.206c6.563,0,11.903-5.34,11.903-11.903v-1h27.807v1
		c0,6.563,5.34,11.903,11.903,11.903h39.709v148.236H45.781z"/>
	<path fill="#259245" d="M735.484,498.925c-7.128,0-12.903-5.777-12.903-12.903h-25.807c0,7.126-5.775,12.903-12.903,12.903H224.027
		L48.543,645.161h725.65V498.925H735.484z"/>
	<polygon fill="#333333" points="223.665,302.075 45.781,153.839 775.193,153.839 775.193,302.075 	"/>
	<polygon fill="#333333" points="224.027,301.075 774.193,301.075 774.193,154.839 48.543,154.839 	"/>
	<polygon fill="#ED1F34" points="24.807,167.35 303.986,400 24.807,632.65 	"/>
	<polygon fill="#ED1F34" points="302.424,400 25.807,169.485 25.807,630.516 	"/>
	<path d="M787.097,129.032H12.903c-0.141,0-0.277,0.017-0.418,0.021c-0.272,0.009-0.542,0.016-0.812,0.042
		c-0.229,0.022-0.453,0.06-0.678,0.095c-0.188,0.027-0.375,0.05-0.563,0.086c-0.244,0.048-0.481,0.11-0.721,0.172
		c-0.167,0.043-0.335,0.079-0.501,0.129c-0.232,0.068-0.458,0.153-0.683,0.234c-0.17,0.062-0.341,0.119-0.509,0.186
		c-0.205,0.084-0.403,0.181-0.602,0.274c-0.184,0.086-0.37,0.168-0.549,0.265c-0.177,0.093-0.346,0.198-0.518,0.299
		c-0.191,0.114-0.385,0.224-0.571,0.348c-0.16,0.106-0.31,0.222-0.464,0.335c-0.184,0.134-0.372,0.265-0.549,0.411
		c-0.165,0.134-0.318,0.279-0.477,0.421c-0.153,0.138-0.31,0.27-0.458,0.417c-0.215,0.211-0.415,0.438-0.613,0.664
		c-0.074,0.084-0.155,0.16-0.227,0.246c-0.005,0.007-0.01,0.014-0.015,0.021c-0.275,0.332-0.537,0.676-0.778,1.034
		c0,0,0,0.001-0.002,0.001c-0.235,0.349-0.452,0.712-0.653,1.084c-0.076,0.139-0.136,0.286-0.205,0.427
		c-0.117,0.236-0.235,0.47-0.339,0.712c-0.076,0.182-0.136,0.368-0.203,0.554c-0.077,0.212-0.162,0.418-0.227,0.635
		c-0.067,0.217-0.113,0.436-0.168,0.654c-0.048,0.191-0.105,0.377-0.143,0.571c-0.071,0.348-0.119,0.697-0.16,1.048
		c-0.009,0.069-0.024,0.136-0.031,0.205c-0.043,0.427-0.063,0.855-0.065,1.282c0,0.012-0.002,0.022-0.002,0.033v516.129
		c0,0.011,0.002,0.021,0.002,0.031c0,0.428,0.021,0.854,0.065,1.281c0.007,0.071,0.022,0.136,0.031,0.205
		c0.041,0.351,0.089,0.7,0.16,1.048c0.038,0.192,0.094,0.38,0.143,0.571c0.055,0.218,0.102,0.438,0.168,0.653
		c0.065,0.215,0.15,0.424,0.227,0.635c0.067,0.185,0.126,0.372,0.203,0.554c0.102,0.245,0.222,0.478,0.339,0.713
		c0.071,0.143,0.129,0.287,0.205,0.427c0.201,0.373,0.419,0.734,0.653,1.084c0,0,0,0.001,0.002,0.001
		c0.241,0.358,0.502,0.704,0.778,1.034c0.005,0.007,0.01,0.016,0.015,0.021c0.04,0.049,0.086,0.09,0.127,0.138
		c0.25,0.289,0.507,0.569,0.779,0.835c0.127,0.125,0.262,0.239,0.394,0.357c0.2,0.179,0.402,0.356,0.612,0.523
		c0.157,0.123,0.317,0.242,0.479,0.357c0.203,0.146,0.409,0.286,0.619,0.42c0.167,0.104,0.334,0.208,0.504,0.306
		c0.227,0.131,0.459,0.25,0.695,0.367c0.16,0.079,0.318,0.16,0.48,0.23c0.269,0.12,0.545,0.224,0.824,0.325
		c0.136,0.05,0.27,0.104,0.408,0.149c0.325,0.105,0.657,0.192,0.993,0.271c0.1,0.024,0.198,0.056,0.296,0.076
		c0.385,0.082,0.779,0.143,1.177,0.191c0.053,0.005,0.106,0.019,0.16,0.023c0.449,0.049,0.903,0.074,1.364,0.074h774.193
		c7.128,0,12.903-5.777,12.903-12.903V141.936C800,134.81,794.225,129.032,787.097,129.032z M25.807,169.485L302.424,400
		L25.807,630.516V169.485z M774.193,301.075H224.027L48.543,154.839h725.65V301.075z M48.543,645.161l175.484-146.236h459.844
		c7.128,0,12.903-5.777,12.903-12.903s-5.775-12.903-12.903-12.903H254.995l75.847-63.205c2.942-2.452,4.643-6.083,4.643-9.913
		c0-3.83-1.7-7.461-4.643-9.913l-75.847-63.205h519.198v146.236h-38.709c-7.128,0-12.903,5.777-12.903,12.903
		s5.775,12.903,12.903,12.903h38.709v146.236H48.543z"/>
</g>
</svg>
