<?xml version="1.0" encoding="utf-8"?>
<!-- Generator: Adobe Illustrator 16.0.0, SVG Export Plug-In . SVG Version: 6.00 Build 0)  -->
<!DOCTYPE svg PUBLIC "-//W3C//DTD SVG 1.1//EN" "http://www.w3.org/Graphics/SVG/1.1/DTD/svg11.dtd">
<svg version="1.1" id="Capa_1" xmlns="http://www.w3.org/2000/svg" xmlns:xlink="http://www.w3.org/1999/xlink" x="0px" y="0px"
	 width="800px" height="800px" viewBox="0 0 800 800" enable-background="new 0 0 800 800" xml:space="preserve">
<g>
	<polygon fill="#259245" points="24.806,153.836 538.415,153.836 24.806,496.259 	"/>
	<polygon fill="#259245" points="25.806,154.836 25.806,494.391 535.112,154.836 	"/>
	<path fill="#ED1F34" d="M261.564,646.163l513.63-342.409v251.089c0,6.563,5.339,11.902,11.901,11.902h1v27.806h-1
		c-6.563,0-11.903,5.34-11.903,11.903v39.708H261.564z"/>
	<path fill="#ED1F34" d="M774.194,554.844V305.623l-509.327,339.54h509.325v-38.708c0-7.128,5.775-12.903,12.903-12.903v-25.806
		C779.97,567.746,774.194,561.969,774.194,554.844z"/>
	<polygon fill="#FFE000" points="535.112,154.836 25.806,494.391 25.806,546.081 612.65,154.836 	"/>
	<polygon fill="#FFE000" points="187.331,645.163 264.867,645.163 774.194,305.623 774.194,253.936 	"/>
	<path fill="#333333" d="M24.806,646.163V545.546l587.542-391.709h162.847v100.634L187.634,646.163H24.806z M228.499,425.762
		c-2.357,0-4.639,0.691-6.601,1.999c-4.074,2.718-6.086,7.753-5.007,12.528l9.194,40.684l-33.464,24.896
		c-3.929,2.923-5.679,8.055-4.354,12.77c1.325,4.713,5.491,8.183,10.367,8.633l41.534,3.829l13.337,39.521
		c1.566,4.64,5.907,7.89,10.799,8.087c0.162,0.006,0.321,0.01,0.483,0.01c4.76,0,9.051-2.826,10.931-7.2l16.477-38.318l41.708-0.471
		c4.896-0.056,9.328-3.178,11.026-7.77c1.702-4.596,0.37-9.85-3.313-13.076l-31.352-27.514l12.44-39.811
		c1.459-4.674-0.142-9.854-3.984-12.888c-2.093-1.655-4.714-2.566-7.38-2.566c-2.138,0-4.241,0.578-6.081,1.673l-35.853,21.315
		l-34.018-24.136C233.362,426.521,230.98,425.762,228.499,425.762z M500.938,244.135c-2.357,0-4.64,0.691-6.601,2
		c-4.074,2.718-6.087,7.752-5.007,12.528l9.192,40.684l-33.464,24.895c-3.929,2.923-5.679,8.055-4.354,12.77
		c1.325,4.713,5.491,8.183,10.366,8.634l41.534,3.829l13.337,39.519c1.564,4.639,5.904,7.889,10.799,8.088
		c0.161,0.006,0.321,0.009,0.483,0.009c4.761,0,9.052-2.826,10.932-7.2l16.479-38.319l41.705-0.472
		c4.897-0.056,9.328-3.178,11.024-7.768c1.7-4.592,0.369-9.848-3.312-13.08l-31.351-27.509l12.44-39.81
		c1.461-4.674-0.14-9.854-3.982-12.89c-2.094-1.654-4.716-2.564-7.383-2.564c-2.138,0-4.239,0.578-6.079,1.672l-35.853,21.314
		l-34.018-24.135C505.803,244.894,503.42,244.135,500.938,244.135z"/>
	<path fill="#333333" d="M774.194,154.836H612.65L25.806,546.081v99.082h161.525l586.863-391.228V154.836z M345.866,525.305
		c-1.854,5.013-6.609,8.362-11.953,8.423l-41.057,0.463l-16.22,37.721c-2.042,4.75-6.713,7.806-11.85,7.806
		c-0.175,0-0.347-0.004-0.523-0.011c-5.342-0.215-9.997-3.702-11.707-8.767l-13.128-38.903l-40.887-3.77
		c-5.323-0.492-9.791-4.213-11.237-9.358c-1.445-5.146,0.432-10.651,4.721-13.843l32.942-24.507l-9.051-40.049
		c-1.179-5.214,0.98-10.614,5.428-13.581c4.447-2.966,10.26-2.881,14.623,0.212l33.487,23.759l35.293-20.982
		c4.596-2.733,10.396-2.35,14.593,0.968c4.194,3.313,5.911,8.868,4.318,13.971l-12.246,39.19l30.862,27.084
		C346.295,514.651,347.723,520.291,345.866,525.305z M606.352,352.099l-41.055,0.465l-16.222,37.721
		c-2.042,4.75-6.713,7.805-11.851,7.805c-0.175,0-0.348-0.003-0.524-0.01c-5.34-0.217-9.997-3.702-11.705-8.767l-13.129-38.903
		l-40.887-3.77c-5.322-0.492-9.79-4.213-11.237-9.359c-1.445-5.146,0.432-10.651,4.721-13.842l32.941-24.507l-9.049-40.049
		c-1.179-5.215,0.98-10.615,5.428-13.581c4.445-2.966,10.261-2.881,14.623,0.212l33.487,23.758l35.294-20.982
		c4.596-2.733,10.396-2.346,14.593,0.967c4.194,3.313,5.911,8.87,4.316,13.973l-12.246,39.189l30.862,27.081
		c4.017,3.527,5.445,9.165,3.59,14.178C616.45,348.689,611.697,352.038,606.352,352.099z"/>
	<path d="M774.194,606.455v38.708H264.867h-77.538H25.806v-99.082v-51.69V154.836h509.307h77.538h161.544v99.1v51.689v249.219
		c0,7.127,5.775,12.902,12.902,12.902l0,0c7.128,0,12.903-5.775,12.903-12.902v-412.91c0-7.127-5.775-12.903-12.903-12.903H12.903
		C5.775,129.031,0,134.806,0,141.934v516.133c0,7.128,5.775,12.903,12.903,12.903h774.194c7.128,0,12.903-5.775,12.903-12.903
		v-51.611c0-7.128-5.775-12.903-12.903-12.903l0,0C779.97,593.552,774.194,599.327,774.194,606.455z"/>
	<path fill="#FFFFFF" d="M288.085,497.903c-3.834-3.364-5.326-8.674-3.806-13.544l4.702-15.049l-13.552,8.057
		c-4.39,2.613-9.899,2.387-14.061-0.565l-12.856-9.122l3.475,15.377c1.125,4.979-0.79,10.15-4.884,13.197l-12.65,9.41l15.699,1.447
		c5.082,0.468,9.41,3.888,11.042,8.723l5.041,14.937l6.228-14.482c2.015-4.688,6.605-7.747,11.708-7.806l15.764-0.177
		L288.085,497.903z"/>
	<path d="M311.416,484.043l12.245-39.19c1.593-5.104-0.124-10.658-4.318-13.972c-4.195-3.316-9.998-3.699-14.592-0.967
		l-35.294,20.981l-33.487-23.758c-4.363-3.094-10.176-3.178-14.623-0.212s-6.606,8.364-5.428,13.581l9.051,40.049l-32.942,24.507
		c-4.289,3.189-6.166,8.696-4.721,13.842c1.447,5.146,5.915,8.867,11.237,9.359l40.887,3.769l13.128,38.903
		c1.71,5.063,6.364,8.553,11.707,8.768c0.176,0.007,0.348,0.01,0.523,0.01c5.136,0,9.808-3.055,11.85-7.805l16.22-37.722
		l41.058-0.463c5.343-0.06,10.099-3.409,11.953-8.423c1.856-5.013,0.428-10.65-3.589-14.176L311.416,484.043z M272.464,516.286
		l-6.228,14.482l-5.041-14.937c-1.631-4.836-5.959-8.255-11.042-8.723l-15.698-1.446l12.65-9.411
		c4.094-3.047,6.009-8.218,4.884-13.197l-3.476-15.376l12.856,9.121c4.162,2.952,9.67,3.18,14.061,0.566l13.551-8.057l-4.702,15.048
		c-1.521,4.87-0.031,10.18,3.806,13.545l11.85,10.399l-15.764,0.177C279.069,508.539,274.479,511.598,272.464,516.286z"/>
	<path fill="#FFFFFF" d="M560.524,316.279c-3.835-3.367-5.327-8.676-3.804-13.548l4.699-15.046l-13.549,8.057
		c-4.39,2.611-9.897,2.386-14.062-0.566l-12.857-9.122l3.475,15.377c1.125,4.979-0.79,10.15-4.884,13.197l-12.65,9.411l15.7,1.447
		c5.082,0.468,9.411,3.89,11.042,8.723l5.04,14.938l6.229-14.484c2.015-4.688,6.604-7.747,11.707-7.806l15.762-0.179
		L560.524,316.279z"/>
	<path d="M614.716,329.497l-30.861-27.081l12.245-39.188c1.595-5.103-0.12-10.659-4.316-13.973
		c-4.195-3.313-9.999-3.699-14.592-0.967l-35.294,20.981l-33.487-23.758c-4.363-3.093-10.178-3.178-14.623-0.212
		c-4.447,2.966-6.606,8.365-5.428,13.581l9.049,40.049l-32.941,24.507c-4.289,3.189-6.166,8.696-4.721,13.842
		c1.446,5.146,5.914,8.867,11.237,9.359l40.887,3.769l13.128,38.903c1.709,5.063,6.364,8.55,11.706,8.767
		c0.177,0.007,0.349,0.01,0.524,0.01c5.135,0,9.808-3.055,11.85-7.805l16.222-37.721l41.056-0.465
		c5.343-0.062,10.099-3.41,11.955-8.423C620.163,338.663,618.733,333.023,614.716,329.497z M544.904,334.658l-6.228,14.484
		l-5.041-14.938c-1.631-4.834-5.959-8.255-11.041-8.723l-15.7-1.447l12.65-9.411c4.094-3.047,6.009-8.218,4.884-13.197
		l-3.476-15.376l12.858,9.122c4.163,2.952,9.672,3.177,14.061,0.566l13.55-8.057l-4.7,15.046
		c-1.522,4.872-0.032,10.181,3.804,13.548l11.851,10.396l-15.763,0.179C551.509,326.911,546.919,329.972,544.904,334.658z"/>
</g>
</svg>
