<?xml version="1.0" encoding="utf-8"?>
<!-- Generator: Adobe Illustrator 16.0.0, SVG Export Plug-In . SVG Version: 6.00 Build 0)  -->
<!DOCTYPE svg PUBLIC "-//W3C//DTD SVG 1.1//EN" "http://www.w3.org/Graphics/SVG/1.1/DTD/svg11.dtd">
<svg version="1.1" id="Capa_1" xmlns="http://www.w3.org/2000/svg" xmlns:xlink="http://www.w3.org/1999/xlink" x="0px" y="0px"
	 width="800px" height="800px" viewBox="0 0 800 800" enable-background="new 0 0 800 800" xml:space="preserve">
<g>
	<path fill="#ED1F34" d="M24.807,646.161V411.903H400c6.563,0,11.903-5.34,11.903-11.903V245.161c0-6.563-5.34-11.903-11.903-11.903
		h-1v-27.806h1c6.563,0,11.903-5.34,11.903-11.903v-39.709h363.29v492.322H24.807z"/>
	<path fill="#ED1F34" d="M412.903,193.548c0,7.126-5.775,12.903-12.903,12.903v25.806c7.128,0,12.903,5.777,12.903,12.903V400
		c0,7.126-5.775,12.903-12.903,12.903H25.807v232.258h748.387V154.839h-361.29V193.548z"/>
	<path fill="#103B9B" d="M24.807,388.097V153.839h363.29v39.709c0,6.563,5.34,11.903,11.903,11.903h1v27.806h-1
		c-6.563,0-11.903,5.34-11.903,11.903v142.936H24.807z M211.021,328.212c-8.935,0-16.204,7.27-16.204,16.205
		s7.269,16.204,16.204,16.204s16.205-7.269,16.205-16.204S219.956,328.212,211.021,328.212z M236.332,266.261
		c-6.563,0-11.903,5.339-11.903,11.903s5.34,11.903,11.903,11.903s11.903-5.34,11.903-11.903S242.896,266.261,236.332,266.261z
		 M160.401,237.89c-8.935,0-16.204,7.269-16.204,16.204s7.269,16.204,16.204,16.204s16.204-7.269,16.204-16.204
		S169.336,237.89,160.401,237.89z M261.643,209.602c-8.935,0-16.205,7.27-16.205,16.205s7.27,16.204,16.205,16.204
		s16.204-7.269,16.204-16.204S270.578,209.602,261.643,209.602z M211.021,181.315c-8.935,0-16.204,7.269-16.204,16.204
		s7.269,16.205,16.204,16.205s16.205-7.27,16.205-16.205S219.956,181.315,211.021,181.315z"/>
	<path fill="#103B9B" d="M387.097,193.548v-38.709H25.807v232.258h361.29V245.161c0-7.126,5.775-12.903,12.903-12.903v-25.806
		C392.872,206.452,387.097,200.674,387.097,193.548z M211.021,180.315c9.502,0,17.205,7.702,17.205,17.204
		s-7.703,17.205-17.205,17.205s-17.204-7.703-17.204-17.205S201.521,180.315,211.021,180.315z M160.401,271.298
		c-9.502,0-17.204-7.702-17.204-17.204s7.702-17.204,17.204-17.204s17.204,7.702,17.204,17.204S169.903,271.298,160.401,271.298z
		 M211.021,361.621c-9.502,0-17.204-7.702-17.204-17.204s7.702-17.205,17.204-17.205s17.205,7.703,17.205,17.205
		S220.523,361.621,211.021,361.621z M236.332,291.067c-7.126,0-12.903-5.777-12.903-12.903s5.777-12.903,12.903-12.903
		s12.903,5.777,12.903,12.903S243.458,291.067,236.332,291.067z M261.643,243.011c-9.502,0-17.205-7.702-17.205-17.204
		s7.703-17.205,17.205-17.205s17.204,7.703,17.204,17.205S271.145,243.011,261.643,243.011z"/>
	<circle fill="#FFFFFF" cx="211.021" cy="197.519" r="17.204"/>
	<circle fill="#FFFFFF" cx="211.021" cy="344.416" r="17.204"/>
	<circle fill="#FFFFFF" cx="261.643" cy="225.806" r="17.204"/>
	<circle fill="#FFFFFF" cx="160.401" cy="254.094" r="17.204"/>
	<circle fill="#FFFFFF" cx="236.332" cy="278.164" r="12.903"/>
	<path d="M787.097,129.032H12.903C5.775,129.032,0,134.81,0,141.936v516.129c0,7.126,5.775,12.903,12.903,12.903h774.193
		c7.128,0,12.903-5.777,12.903-12.903V141.936C800,134.81,794.225,129.032,787.097,129.032z M774.193,645.161H25.807V412.903H400
		c7.128,0,12.903-5.777,12.903-12.903V245.161c0-7.126-5.775-12.903-12.903-12.903s-12.903,5.777-12.903,12.903v141.936H25.807
		V154.839h361.29v38.709c0,7.126,5.775,12.903,12.903,12.903s12.903-5.777,12.903-12.903v-38.709h361.29V645.161z"/>
</g>
</svg>
