<?xml version="1.0" encoding="utf-8"?>
<!-- Generator: Adobe Illustrator 16.0.0, SVG Export Plug-In . SVG Version: 6.00 Build 0)  -->
<!DOCTYPE svg PUBLIC "-//W3C//DTD SVG 1.1//EN" "http://www.w3.org/Graphics/SVG/1.1/DTD/svg11.dtd">
<svg version="1.1" id="Capa_1" xmlns="http://www.w3.org/2000/svg" xmlns:xlink="http://www.w3.org/1999/xlink" x="0px" y="0px"
	 width="800px" height="800px" viewBox="0 0 800 800" enable-background="new 0 0 800 800" xml:space="preserve">
<g>
	<path fill="#FFFFFF" d="M774.193,193.548v-38.709H25.807v232.258h228.968c-0.261-3.554-0.438-7.133-0.438-10.752
		c0-16.272,2.668-32.255,7.928-47.508c2.324-6.735,9.667-10.315,16.404-7.991s10.314,9.669,7.991,16.406
		c-4.325,12.54-6.517,25.693-6.517,39.093c0,3.626,0.189,7.207,0.508,10.752h30.963c0.108-20.97,4.418-41.481,12.499-59.363
		c2.088-4.621,6.688-7.591,11.759-7.591h51.226v-47.885c0-7.126,5.775-12.903,12.903-12.903s12.903,5.777,12.903,12.903v47.885
		h51.228c5.07,0,9.67,2.97,11.759,7.591c8.081,17.882,12.391,38.393,12.499,59.363h30.963c0.316-3.546,0.508-7.126,0.508-10.752
		c0-13.402-2.192-26.557-6.518-39.095c-2.324-6.737,1.254-14.082,7.991-16.406c6.739-2.323,14.082,1.256,16.404,7.991
		c5.262,15.253,7.928,31.238,7.928,47.51c0,3.62-0.179,7.198-0.438,10.752h228.967V245.161c0-7.126,5.775-12.903,12.903-12.903
		v-25.807C779.969,206.452,774.193,200.674,774.193,193.548z"/>
	<path fill="#3DB4EA" d="M24.807,646.161V411.903h234.952l0.194,0.749c9.479,36.537,32.552,67.542,64.967,87.303l0.993,0.605
		l-0.748,0.891c-0.74,0.882-1.343,1.85-1.792,2.877c-1.418,3.235-1.331,6.903,0.239,10.066l0.717,1.444h-31.571
		c-6.563,0-11.903,5.34-11.903,11.903s5.34,11.903,11.903,11.903h58.722c4.729,0,9.009-2.799,10.903-7.129
		c1.417-3.236,1.33-6.904-0.239-10.066l-0.718-1.444h77.144l-0.717,1.444c-1.567,3.162-1.655,6.83-0.239,10.066
		c1.896,4.33,6.175,7.129,10.903,7.129h58.722c6.563,0,11.903-5.34,11.903-11.903s-5.34-11.903-11.903-11.903h-31.57l0.717-1.444
		c1.568-3.163,1.655-6.831,0.239-10.065c-0.45-1.029-1.053-1.998-1.791-2.878l-0.748-0.891l0.993-0.605
		c32.415-19.762,55.487-50.766,64.967-87.303l0.194-0.749h234.953v234.258H24.807z"/>
	<path fill="#3DB4EA" d="M475.6,500.809c0.779,0.929,1.439,1.972,1.941,3.119c1.556,3.553,1.409,7.546-0.26,10.911h29.958
		c7.128,0,12.903,5.777,12.903,12.903s-5.775,12.903-12.903,12.903h-58.722c-5.125,0-9.765-3.033-11.819-7.729
		c-1.555-3.553-1.409-7.546,0.26-10.911H363.04c1.671,3.365,1.816,7.358,0.26,10.911c-2.054,4.695-6.696,7.729-11.819,7.729h-58.722
		c-7.128,0-12.903-5.777-12.903-12.903s5.775-12.903,12.903-12.903h29.958c-1.671-3.365-1.817-7.358-0.26-10.911
		c0.502-1.147,1.163-2.19,1.942-3.119c-31.916-19.456-55.797-50.837-65.415-87.905H25.807v232.258h748.387V412.903h-233.18
		C531.396,449.972,507.515,481.353,475.6,500.809z"/>
	<path fill="#3DB4EA" d="M285.865,412.903c10.352,32.237,34.006,58.548,64.473,72.479c-15.749-17.435-30.993-41.491-36.535-72.479
		H285.865z"/>
	<path fill="#3DB4EA" d="M514.135,412.903h-27.938c-5.54,30.99-20.786,55.045-36.535,72.479
		C480.129,471.451,503.783,445.141,514.135,412.903z"/>
	<path d="M774.193,245.161v141.936H545.225c-0.648,8.84-2.049,17.472-4.211,25.807h233.18v232.258H25.807V412.903h233.18
		c-2.163-8.335-3.563-16.967-4.212-25.807H25.807V154.839h748.387v38.709c0,7.126,5.775,12.903,12.903,12.903
		S800,200.674,800,193.548v-51.613c0-7.126-5.775-12.903-12.903-12.903H12.903C5.775,129.032,0,134.81,0,141.936v516.129
		c0,7.126,5.775,12.903,12.903,12.903h774.193c7.128,0,12.903-5.777,12.903-12.903V245.161c0-7.126-5.775-12.903-12.903-12.903
		S774.193,238.035,774.193,245.161z"/>
	<path d="M285.865,412.903h27.938c5.54,30.99,20.786,55.045,36.535,72.479c3.558,3.94,7.142,7.55,10.645,10.816h-26.704
		c-3.873,0-7.466,1.736-9.878,4.609c-0.779,0.929-1.439,1.972-1.941,3.119c-1.556,3.553-1.409,7.546,0.26,10.911H292.76
		c-7.127,0-12.903,5.777-12.903,12.903s5.775,12.903,12.903,12.903h58.722c5.125,0,9.765-3.033,11.819-7.729
		c1.555-3.553,1.409-7.546-0.26-10.911h73.918c-1.671,3.365-1.816,7.358-0.26,10.911c2.054,4.695,6.696,7.729,11.819,7.729h58.722
		c7.128,0,12.903-5.777,12.903-12.903s-5.775-12.903-12.903-12.903h-29.96c1.671-3.365,1.817-7.358,0.26-10.911
		c-0.502-1.147-1.162-2.19-1.941-3.119c-2.412-2.871-6.005-4.609-9.877-4.609h-26.705c3.503-3.267,7.087-6.876,10.645-10.816
		c15.749-17.435,30.993-41.491,36.535-72.479h27.938c2.649-8.251,4.418-16.89,5.215-25.807h-30.963
		c-0.107-20.97-4.418-41.481-12.498-59.363c-2.089-4.621-6.689-7.591-11.76-7.591h-51.226v-47.885
		c0-7.126-5.775-12.903-12.903-12.903s-12.903,5.777-12.903,12.903v47.885h-51.228c-5.07,0-9.671,2.97-11.759,7.591
		c-8.081,17.882-12.391,38.393-12.499,59.363h-30.963C281.447,396.014,283.215,404.652,285.865,412.903z M337.407,387.905
		c0-14.677,2.453-29.02,7.138-41.956h110.908c4.687,12.936,7.138,27.279,7.138,41.956c0,17.886-4.014,33.514-10.078,46.963
		c-14.444,32.027-40.604,51.599-52.474,59.212c-11.726-7.616-37.911-27.35-52.433-59.255
		C341.475,421.354,337.407,405.729,337.407,387.905z"/>
	<path fill="#259245" d="M514.135,412.903c-10.352,32.237-34.006,58.548-64.473,72.479c-3.56,3.94-7.142,7.55-10.645,10.816h26.705
		c3.872,0,7.465,1.736,9.877,4.609c31.915-19.456,55.797-50.837,65.414-87.905c2.162-8.335,3.563-16.967,4.211-25.807
		c0.262-3.554,0.439-7.133,0.439-10.752c0-16.272-2.669-32.256-7.928-47.51c-2.325-6.736-9.666-10.314-16.404-7.992
		c-6.737,2.324-10.314,9.669-7.992,16.406c4.325,12.54,6.518,25.693,6.518,39.095c0,3.626-0.189,7.207-0.508,10.752
		C518.553,396.014,516.784,404.652,514.135,412.903z"/>
	<path fill="#259245" d="M258.987,412.903c9.617,37.068,33.499,68.449,65.414,87.905c2.412-2.871,6.005-4.609,9.878-4.609h26.704
		c-3.503-3.267-7.087-6.876-10.645-10.816c-30.467-13.932-54.121-40.242-64.473-72.479c-2.649-8.251-4.418-16.89-5.214-25.807
		c-0.316-3.546-0.508-7.126-0.508-10.752c0-13.4,2.192-26.555,6.517-39.093c2.324-6.737-1.254-14.082-7.991-16.406
		s-14.082,1.256-16.404,7.992c-5.261,15.253-7.928,31.236-7.928,47.508c0,3.62,0.179,7.198,0.438,10.752
		C255.424,395.937,256.824,404.568,258.987,412.903z"/>
	<path fill="#FFE000" d="M452.174,435.809c-16.715-6.068-34.269-9.145-52.174-9.145c-17.855,0-35.368,3.063-52.053,9.102
		l-0.868,0.314l-0.382-0.841c-6.828-14.999-10.289-30.925-10.287-47.334c0-14.674,2.489-29.3,7.197-42.297l0.239-0.659h112.311
		l0.239,0.66c4.708,13.002,7.197,27.628,7.197,42.296c0,16.475-3.421,32.413-10.167,47.374l-0.381,0.846L452.174,435.809z"/>
	<path fill="#FFE000" d="M347.606,434.825c16.355-5.92,33.993-9.161,52.394-9.161c18.444,0,36.126,3.255,52.515,9.204
		c6.064-13.449,10.078-29.077,10.078-46.963c0-14.677-2.453-29.02-7.138-41.956H344.547c-4.687,12.936-7.138,27.279-7.138,41.956
		C337.407,405.729,341.475,421.354,347.606,434.825z"/>
	<path fill="#259245" d="M399.496,494.919c-10.942-7.104-37.99-27.143-52.799-59.68l-0.449-0.985l1.019-0.369
		c16.898-6.118,34.64-9.221,52.732-9.221c18.139,0,35.922,3.117,52.855,9.264l1.014,0.368l-0.443,0.983
		c-14.746,32.698-41.868,52.603-52.844,59.643l-0.543,0.349L399.496,494.919z"/>
	<path fill="#259245" d="M347.606,434.825c14.521,31.905,40.707,51.641,52.434,59.255c11.87-7.613,38.029-27.187,52.473-59.212
		c-16.389-5.949-34.069-9.204-52.515-9.204C381.6,425.664,363.962,428.903,347.606,434.825z"/>
</g>
</svg>
