<?xml version="1.0" encoding="utf-8"?>
<!-- Generator: Adobe Illustrator 16.0.0, SVG Export Plug-In . SVG Version: 6.00 Build 0)  -->
<!DOCTYPE svg PUBLIC "-//W3C//DTD SVG 1.1//EN" "http://www.w3.org/Graphics/SVG/1.1/DTD/svg11.dtd">
<svg version="1.1" id="Capa_1" xmlns="http://www.w3.org/2000/svg" xmlns:xlink="http://www.w3.org/1999/xlink" x="0px" y="0px"
	 width="800px" height="800px" viewBox="0 0 800 800" enable-background="new 0 0 800 800" xml:space="preserve">
<g>
	<path fill="#FFE000" d="M695.774,487.021v-1c0-6.563-5.34-11.903-11.903-11.903H213.684l65.7-65.702
		c4.64-4.641,4.64-12.192,0-16.834l-65.7-65.7h561.509v148.236h-39.709c-6.563,0-11.903,5.34-11.903,11.903v1H695.774z
		 M646.485,461.593c1.936,1.259,4.18,1.925,6.492,1.925c2.528,0,4.947-0.786,6.995-2.273c3.963-2.879,5.771-7.99,4.5-12.72
		l-8.376-31.164l25.093-20.289c3.81-3.08,5.353-8.277,3.84-12.933c-1.513-4.659-5.815-7.958-10.707-8.21l-32.226-1.664
		l-11.541-30.134c-1.751-4.573-6.219-7.645-11.116-7.645s-9.365,3.072-11.116,7.645l-11.541,30.134l-32.227,1.664
		c-4.891,0.252-9.193,3.552-10.706,8.21c-1.514,4.657,0.027,9.854,3.836,12.933l25.094,20.289l-8.377,31.164
		c-1.272,4.729,0.536,9.84,4.5,12.72c2.047,1.487,4.467,2.273,6.998,2.273c2.309,0,4.553-0.666,6.489-1.925l27.048-17.596
		L646.485,461.593z M452.077,461.593c1.936,1.259,4.18,1.925,6.491,1.925c2.528,0,4.948-0.786,6.996-2.274
		c3.963-2.878,5.771-7.989,4.499-12.719l-8.375-31.164l25.093-20.289c3.81-3.08,5.353-8.277,3.839-12.933
		c-1.513-4.659-5.815-7.958-10.706-8.21l-32.227-1.664l-11.541-30.134c-1.751-4.573-6.219-7.645-11.116-7.645
		s-9.365,3.072-11.116,7.645l-11.541,30.134l-32.226,1.664c-4.891,0.252-9.194,3.552-10.707,8.21
		c-1.513,4.658,0.028,9.855,3.836,12.933l25.095,20.289l-8.377,31.164c-1.272,4.729,0.536,9.841,4.499,12.72
		c2.048,1.487,4.468,2.273,6.999,2.273c2.309,0,4.553-0.666,6.488-1.925l27.049-17.596L452.077,461.593z"/>
	<path fill="#FFE000" d="M735.484,473.118h38.709V326.882H216.098l63.993,63.993c5.039,5.041,5.039,13.209,0,18.248l-63.993,63.995
		h467.773c7.128,0,12.903,5.775,12.903,12.903h25.807C722.581,478.894,728.356,473.118,735.484,473.118z M487.41,397.85
		l-24.587,19.879l8.206,30.536c1.389,5.163-0.552,10.646-4.877,13.788c-2.258,1.64-4.917,2.465-7.584,2.465
		c-2.444,0-4.893-0.691-7.036-2.087l-26.503-17.24l-26.504,17.24c-4.481,2.915-10.295,2.764-14.62-0.378s-6.266-8.627-4.877-13.788
		l8.208-30.536l-24.589-19.879c-4.156-3.36-5.81-8.936-4.158-14.02s6.268-8.625,11.606-8.9l31.576-1.631l11.309-29.526
		c1.911-4.991,6.703-8.288,12.05-8.288c5.348,0,10.139,3.296,12.05,8.288l11.309,29.526l31.577,1.631
		c5.34,0.275,9.954,3.816,11.605,8.9C493.224,388.914,491.566,394.489,487.41,397.85z M681.818,397.85l-24.587,19.879l8.207,30.536
		c1.388,5.163-0.553,10.646-4.878,13.788c-2.257,1.64-4.917,2.465-7.583,2.465c-2.445,0-4.894-0.691-7.037-2.087l-26.503-17.24
		l-26.503,17.24c-4.482,2.915-10.296,2.764-14.62-0.378c-4.325-3.142-6.267-8.627-4.878-13.788l8.208-30.536l-24.588-19.879
		c-4.156-3.36-5.811-8.936-4.158-14.02c1.651-5.084,6.268-8.625,11.605-8.9l31.577-1.631l11.309-29.526
		c1.911-4.991,6.702-8.288,12.05-8.288c5.347,0,10.139,3.296,12.05,8.288l11.309,29.526l31.576,1.631
		c5.341,0.275,9.955,3.816,11.606,8.9S685.975,394.489,681.818,397.85z"/>
	<path fill="#333333" d="M431.519,419.818c-1.936-1.26-4.18-1.926-6.491-1.926s-4.557,0.666-6.491,1.926l-7.488,4.872l2.319-8.63
		c1.221-4.543-0.354-9.389-4.011-12.345l-6.947-5.618l8.922-0.458c4.697-0.245,8.82-3.24,10.502-7.631l3.194-8.344l3.194,8.344
		c1.681,4.393,5.803,7.388,10.502,7.631l8.922,0.458l-6.946,5.618c-3.657,2.958-5.231,7.803-4.011,12.345l2.319,8.632
		L431.519,419.818z"/>
	<path fill="#333333" d="M437.364,422.43l-1.642-6.109c-1.324-4.928,0.381-10.174,4.348-13.382l4.916-3.976l-6.314-0.325
		c-5.098-0.264-9.561-3.506-11.384-8.272l-2.261-5.905l-2.261,5.905c-1.825,4.766-6.286,8.007-11.384,8.272l-6.314,0.325
		l4.917,3.976c3.969,3.208,5.672,8.454,4.348,13.382l-1.642,6.107l5.299-3.447c2.139-1.393,4.589-2.088,7.037-2.088
		s4.897,0.695,7.036,2.088L437.364,422.43z"/>
	<path d="M479.962,374.93l-31.576-1.631l-11.309-29.526c-1.911-4.991-6.703-8.288-12.05-8.288c-5.348,0-10.139,3.296-12.05,8.288
		l-11.309,29.526l-31.577,1.631c-5.34,0.275-9.954,3.816-11.605,8.9c-1.652,5.084,0.001,10.66,4.158,14.02l24.588,19.879
		l-8.208,30.536c-1.389,5.161,0.553,10.646,4.878,13.788s10.138,3.293,14.62,0.378l26.503-17.24l26.503,17.24
		c2.144,1.396,4.592,2.087,7.037,2.087c2.666,0,5.328-0.824,7.583-2.465c4.325-3.142,6.267-8.625,4.878-13.788l-8.206-30.536
		l24.586-19.879c4.156-3.36,5.811-8.936,4.158-14.02C489.913,378.746,485.301,375.205,479.962,374.93z M417.99,418.98l-5.299,3.447
		l1.642-6.107c1.324-4.928-0.38-10.174-4.348-13.382l-4.917-3.976l6.314-0.325c5.098-0.263,9.56-3.506,11.384-8.271l2.261-5.905
		l2.261,5.905c1.825,4.766,6.286,8.007,11.384,8.271l6.314,0.325l-4.916,3.976c-3.969,3.208-5.672,8.454-4.348,13.382l1.642,6.109
		l-5.301-3.449c-2.139-1.393-4.588-2.088-7.036-2.088S420.129,417.59,417.99,418.98z"/>
	<path fill="#333333" d="M625.927,419.818c-1.935-1.26-4.18-1.926-6.491-1.926c-2.313,0-4.557,0.666-6.49,1.926l-7.488,4.871
		l2.318-8.629c1.222-4.543-0.353-9.389-4.011-12.345l-6.947-5.618l8.922-0.458c4.697-0.245,8.82-3.24,10.502-7.631l3.194-8.344
		l3.194,8.344c1.681,4.393,5.803,7.388,10.502,7.631l8.922,0.458l-6.945,5.618c-3.658,2.958-5.232,7.803-4.011,12.345l2.317,8.632
		L625.927,419.818z"/>
	<path fill="#333333" d="M631.772,422.43l-1.641-6.109c-1.325-4.928,0.38-10.174,4.348-13.382l4.915-3.976l-6.314-0.325
		c-5.098-0.264-9.561-3.506-11.384-8.272l-2.261-5.905l-2.261,5.905c-1.825,4.766-6.286,8.007-11.384,8.272l-6.314,0.325
		l4.917,3.976c3.97,3.208,5.673,8.454,4.348,13.382l-1.641,6.107l5.299-3.447c2.138-1.393,4.588-2.088,7.036-2.088
		s4.898,0.695,7.037,2.088L631.772,422.43z"/>
	<path d="M674.371,374.93l-31.577-1.631l-11.309-29.526c-1.911-4.991-6.702-8.288-12.05-8.288c-5.347,0-10.139,3.296-12.05,8.288
		l-11.309,29.526l-31.576,1.631c-5.341,0.275-9.955,3.816-11.606,8.9s0.002,10.66,4.158,14.02l24.589,19.879l-8.208,30.536
		c-1.389,5.161,0.552,10.646,4.877,13.788s10.139,3.293,14.62,0.378l26.503-17.24l26.504,17.24c2.144,1.396,4.592,2.087,7.036,2.087
		c2.667,0,5.328-0.824,7.584-2.465c4.325-3.142,6.266-8.625,4.877-13.788l-8.206-30.536l24.586-19.879
		c4.157-3.36,5.811-8.936,4.159-14.02C684.321,378.746,679.709,375.205,674.371,374.93z M612.399,418.98l-5.299,3.447l1.641-6.107
		c1.325-4.928-0.38-10.174-4.347-13.382l-4.918-3.976l6.314-0.325c5.098-0.263,9.561-3.506,11.384-8.271l2.261-5.905l2.261,5.905
		c1.825,4.766,6.286,8.007,11.384,8.271l6.314,0.325l-4.915,3.976c-3.97,3.208-5.673,8.454-4.348,13.382l1.642,6.109l-5.301-3.449
		c-2.139-1.393-4.589-2.088-7.037-2.088S614.538,417.59,612.399,418.98z"/>
	<path fill="#259245" d="M41.641,646.161l148.236-148.236h493.994c6.563,0,11.903-5.34,11.903-11.903v-1h27.807v1
		c0,6.563,5.34,11.903,11.903,11.903h39.709v148.236H41.641z"/>
	<path fill="#259245" d="M735.484,498.925c-7.128,0-12.903-5.775-12.903-12.903h-25.807c0,7.128-5.775,12.903-12.903,12.903h-493.58
		L44.055,645.161h730.138V498.925H735.484z"/>
	<polygon fill="#259245" points="189.877,302.075 41.641,153.839 775.193,153.839 775.193,302.075 	"/>
	<polygon fill="#259245" points="190.292,301.075 774.193,301.075 774.193,154.839 44.055,154.839 	"/>
	<polygon fill="#ED1F34" points="24.807,170.673 254.135,400 24.807,629.327 	"/>
	<polygon fill="#ED1F34" points="252.721,400 25.807,173.087 25.807,626.913 	"/>
	<path d="M787.097,129.032H12.903c-0.104,0-0.203,0.014-0.306,0.016c-0.32,0.008-0.639,0.017-0.958,0.048
		c-0.229,0.022-0.449,0.064-0.674,0.098c-0.191,0.029-0.384,0.05-0.575,0.088c-0.239,0.046-0.471,0.112-0.706,0.172
		c-0.173,0.045-0.349,0.083-0.521,0.134c-0.226,0.069-0.442,0.151-0.663,0.232c-0.177,0.063-0.356,0.122-0.53,0.194
		c-0.203,0.084-0.399,0.181-0.597,0.275c-0.184,0.088-0.37,0.17-0.55,0.265c-0.186,0.1-0.361,0.212-0.542,0.32
		c-0.182,0.108-0.366,0.211-0.543,0.33c-0.191,0.127-0.37,0.269-0.552,0.406c-0.155,0.115-0.313,0.224-0.463,0.346
		c-0.279,0.229-0.544,0.473-0.802,0.724c-0.046,0.045-0.096,0.084-0.143,0.129c-0.048,0.048-0.089,0.103-0.136,0.151
		c-0.248,0.254-0.49,0.516-0.716,0.791c-0.132,0.162-0.248,0.331-0.372,0.498c-0.127,0.172-0.261,0.339-0.38,0.518
		c-0.127,0.189-0.239,0.389-0.356,0.585c-0.098,0.167-0.201,0.327-0.292,0.498c-0.106,0.199-0.196,0.402-0.292,0.607
		c-0.084,0.179-0.174,0.354-0.25,0.539c-0.083,0.198-0.149,0.401-0.22,0.604c-0.07,0.194-0.145,0.389-0.206,0.588
		c-0.062,0.205-0.107,0.411-0.159,0.616c-0.05,0.203-0.108,0.401-0.148,0.609c-0.048,0.243-0.077,0.487-0.112,0.731
		c-0.024,0.174-0.057,0.342-0.074,0.518C0.022,141.085,0,141.516,0,141.944v516.111c0,0.429,0.022,0.858,0.063,1.285
		c0.018,0.176,0.05,0.345,0.074,0.519c0.034,0.244,0.063,0.488,0.112,0.73c0.041,0.207,0.098,0.404,0.148,0.609
		c0.052,0.205,0.096,0.411,0.158,0.616c0.06,0.197,0.136,0.392,0.207,0.588c0.072,0.201,0.139,0.404,0.22,0.604
		c0.076,0.183,0.165,0.358,0.25,0.537c0.095,0.203,0.186,0.408,0.292,0.609c0.091,0.17,0.196,0.33,0.294,0.497
		c0.117,0.196,0.227,0.394,0.356,0.585c0.119,0.179,0.253,0.346,0.38,0.518c0.124,0.167,0.239,0.336,0.372,0.497
		c0.226,0.275,0.468,0.537,0.716,0.792c0.048,0.048,0.088,0.103,0.136,0.151c0.047,0.045,0.097,0.084,0.143,0.129
		c0.258,0.251,0.523,0.495,0.802,0.725c0.151,0.123,0.31,0.23,0.464,0.347c0.183,0.137,0.361,0.277,0.552,0.404
		c0.179,0.119,0.365,0.225,0.549,0.332c0.179,0.108,0.353,0.219,0.537,0.318c0.186,0.101,0.377,0.183,0.564,0.272
		c0.193,0.091,0.382,0.186,0.58,0.269c0.184,0.075,0.372,0.136,0.559,0.202c0.21,0.078,0.418,0.157,0.633,0.223
		c0.186,0.057,0.375,0.098,0.561,0.145c0.22,0.055,0.438,0.116,0.662,0.161c0.22,0.043,0.441,0.07,0.663,0.104
		c0.194,0.027,0.387,0.063,0.583,0.084c0.423,0.038,0.849,0.061,1.273,0.061h774.193c7.128,0,12.903-5.775,12.903-12.903V141.936
		C800,134.808,794.225,129.032,787.097,129.032z M25.807,173.087L252.721,400L25.807,626.913V173.087z M774.193,301.075H190.292
		L44.055,154.839h730.138V301.075z M44.055,645.161l146.236-146.236h493.58c7.128,0,12.903-5.775,12.903-12.903
		s-5.775-12.903-12.903-12.903H216.098l63.993-63.993c5.039-5.041,5.039-13.209,0-18.249l-63.993-63.995h558.095v146.236h-38.709
		c-7.128,0-12.903,5.775-12.903,12.903s5.775,12.903,12.903,12.903h38.709v146.236H44.055z"/>
</g>
</svg>
