<?xml version="1.0" encoding="utf-8"?>
<!-- Generator: Adobe Illustrator 16.0.0, SVG Export Plug-In . SVG Version: 6.00 Build 0)  -->
<!DOCTYPE svg PUBLIC "-//W3C//DTD SVG 1.1//EN" "http://www.w3.org/Graphics/SVG/1.1/DTD/svg11.dtd">
<svg version="1.1" id="Capa_1" xmlns="http://www.w3.org/2000/svg" xmlns:xlink="http://www.w3.org/1999/xlink" x="0px" y="0px"
	 width="800px" height="800px" viewBox="0 0 800 800" enable-background="new 0 0 800 800" xml:space="preserve">
<g>
	<path fill="#FFFFFF" d="M450.322,349.677h323.871V154.839H450.322V349.677z M518.02,208.984c3.724-6.078,11.666-7.986,17.743-4.27
		l20.569,12.588c9.18-21.254,30.34-36.167,54.921-36.167c23.667,0,44.164,13.82,53.852,33.813l1.688-0.16
		c7.101-0.659,13.392,4.537,14.063,11.63c0.549,5.808-2.843,11.076-7.981,13.165l9.676,14.09c4.034,5.874,2.543,13.906-3.334,17.941
		c-2.231,1.533-4.774,2.268-7.292,2.268c-0.292,0-0.581-0.033-0.872-0.052v23.353c0,14.445-11.752,26.197-26.198,26.197
		c-0.016,0-0.031,0-0.045,0l-20.79-0.074h-30.417c-23.243,0-42.15-18.907-42.15-42.15v-20.614l-15.69,9.604
		c-2.103,1.285-4.427,1.899-6.724,1.899c-4.342,0-8.583-2.192-11.018-6.17c-3.719-6.078-1.808-14.02,4.271-17.743l17.491-10.705
		l-17.491-10.704C516.212,223.004,514.3,215.063,518.02,208.984z"/>
	<path fill="#FFFFFF" d="M349.678,450.322H25.807v194.839h323.871V450.322z M254.699,567.101c-2.231,1.532-4.774,2.268-7.291,2.268
		c-0.292,0-0.582-0.033-0.872-0.052v23.352c0,14.444-11.752,26.198-26.199,26.198c-0.016,0-0.031,0-0.045,0l-20.79-0.074h-30.417
		c-23.243,0-42.15-18.907-42.15-42.15v-20.616l-15.69,9.604c-2.102,1.285-4.427,1.899-6.723,1.899
		c-4.343,0-8.583-2.191-11.018-6.169c-3.719-6.078-1.808-14.02,4.271-17.743l17.491-10.704l-17.491-10.705
		c-6.079-3.721-7.992-11.662-4.271-17.742c3.723-6.078,11.667-7.984,17.743-4.271l20.569,12.589
		c9.18-21.253,30.338-36.165,54.921-36.165c23.666,0,44.163,13.819,53.851,33.812l1.689-0.16c7.093-0.657,13.392,4.536,14.063,11.63
		c0.549,5.809-2.844,11.076-7.981,13.165l9.678,14.092C262.066,555.033,260.575,563.065,254.699,567.101z"/>
	<path fill="#FFFFFF" d="M450.322,450.322v194.839h323.871V450.322H450.322z M679.216,567.101c-2.231,1.532-4.774,2.268-7.292,2.268
		c-0.292,0-0.581-0.033-0.872-0.052v23.352c0,14.444-11.752,26.198-26.198,26.198c-0.016,0-0.031,0-0.045,0l-20.79-0.074h-30.417
		c-23.243,0-42.15-18.907-42.15-42.15v-20.616l-15.69,9.604c-2.103,1.285-4.427,1.899-6.724,1.899
		c-4.342,0-8.583-2.191-11.018-6.169c-3.719-6.078-1.808-14.02,4.271-17.743l17.491-10.704l-17.491-10.705
		c-6.078-3.721-7.991-11.662-4.271-17.742c3.724-6.078,11.667-7.984,17.743-4.271l20.569,12.589
		c9.181-21.253,30.338-36.165,54.921-36.165c23.667,0,44.164,13.819,53.852,33.812l1.689-0.16
		c7.101-0.657,13.392,4.536,14.063,11.63c0.549,5.809-2.844,11.076-7.98,13.165l9.677,14.092
		C686.582,555.033,685.091,563.065,679.216,567.101z"/>
	<path fill="#FFFFFF" d="M25.807,349.677h38.709c7.128,0,12.903,5.776,12.903,12.903h25.806c0-7.127,5.776-12.903,12.903-12.903
		h233.549V154.839H25.807V349.677z M97.774,226.725c-6.079-3.721-7.992-11.663-4.27-17.743c3.723-6.078,11.666-7.986,17.743-4.27
		l20.569,12.588c9.18-21.254,30.34-36.167,54.921-36.167c23.666,0,44.163,13.82,53.851,33.813l1.688-0.16
		c7.093-0.659,13.392,4.537,14.063,11.63c0.549,5.809-2.842,11.076-7.981,13.165l9.676,14.09c4.034,5.874,2.542,13.906-3.334,17.94
		c-2.231,1.533-4.774,2.268-7.291,2.268c-0.292,0-0.582-0.033-0.872-0.052v23.353c0,14.445-11.752,26.197-26.199,26.197
		c-0.015,0-0.031,0-0.044,0l-20.79-0.074h-30.417c-23.243,0-42.15-18.907-42.15-42.15v-20.612l-15.69,9.604
		c-2.102,1.285-4.427,1.899-6.723,1.899c-4.343,0-8.583-2.192-11.018-6.17c-3.719-6.078-1.808-14.02,4.271-17.743l17.491-10.705
		L97.774,226.725z"/>
	<path fill="#ED1F34" d="M374.484,646.161V437.419c0-6.563-5.34-11.902-11.903-11.902H24.807v-51.033h39.709
		c6.563,0,11.903-5.34,11.903-11.903v-1h27.806v1c0,6.563,5.34,11.903,11.903,11.903h246.452c6.563,0,11.903-5.34,11.903-11.903
		V153.839h51.031v208.742c0,6.563,5.34,11.903,11.903,11.903h337.774v51.033H437.419c-6.563,0-11.903,5.339-11.903,11.902v208.742
		H374.484z"/>
	<path fill="#ED1F34" d="M77.419,362.581c0,7.128-5.775,12.903-12.903,12.903H25.807v49.033h336.774
		c7.127,0,12.903,5.775,12.903,12.902v207.742h49.031V437.419c0-7.127,5.776-12.902,12.903-12.902h336.774v-49.033H437.419
		c-7.127,0-12.903-5.775-12.903-12.903V154.839h-49.031v207.742c0,7.128-5.776,12.903-12.903,12.903H116.129
		c-7.127,0-12.903-5.775-12.903-12.903l0,0H77.419L77.419,362.581z"/>
	<path fill="#333333" d="M157.216,222.219c6.484-10.193,17.519-16.279,29.52-16.279c9.72,0,18.768,3.934,25.478,11.077l1.397,1.488
		l-57.492,5.439L157.216,222.219z"/>
	<path fill="#333333" d="M186.735,206.94c-12.057,0-22.641,6.328-28.676,15.815l53.424-5.054
		C205.278,211.095,196.494,206.94,186.735,206.94z"/>
	<path fill="#333333" d="M169.084,298.5c-9.562,0-17.342-7.781-17.342-17.346v-32.882l69.988-6.623v55.534
		c0,0.754-0.614,1.378-1.369,1.391h-0.009L169.084,298.5z"/>
	<path fill="#333333" d="M169.085,297.5l51.259,0.074c0.211-0.003,0.385-0.177,0.385-0.391v-54.435l-67.988,6.433v31.972
		C152.742,290.168,160.074,297.5,169.085,297.5z"/>
	<path d="M244.707,240.48l-23.979,2.269v54.435c0,0.213-0.174,0.387-0.385,0.391l-51.258-0.074c-9.012,0-16.344-7.332-16.344-16.344
		v-31.973l-8.568,0.812l-17.237,10.548v20.613c0,23.243,18.908,42.15,42.15,42.15h30.417l20.79,0.074c0.016,0,0.031,0,0.045,0
		c14.444,0,26.199-11.752,26.199-26.197v-23.353c0.291,0.021,0.58,0.052,0.872,0.052c2.517,0,5.06-0.737,7.291-2.268
		c5.875-4.035,7.367-12.067,3.334-17.941l-9.676-14.09C247.217,240.046,245.994,240.358,244.707,240.48z"/>
	<path d="M143.05,224.179l15.009-1.421c6.037-9.49,16.619-15.816,28.676-15.816c9.758,0,18.543,4.155,24.749,10.761l29.103-2.754
		c-9.688-19.993-30.185-33.813-53.852-33.813c-24.583,0-45.741,14.914-54.921,36.167L143.05,224.179z"/>
	<path fill="#CCCCCC" d="M104.521,273.045c-4.886,0-9.323-2.485-11.871-6.648c-1.938-3.167-2.527-6.9-1.659-10.51
		c0.869-3.61,3.092-6.665,6.26-8.603l16.098-9.852l-16.098-9.852c-6.538-4.004-8.602-12.58-4.601-19.118
		c2.55-4.161,6.989-6.645,11.875-6.645c2.552,0,5.056,0.707,7.243,2.044l31.522,19.291l98.892-9.359
		c0.44-0.041,0.875-0.061,1.306-0.061c7.215,0,13.167,5.414,13.846,12.592c0.573,6.06-2.964,11.893-8.6,14.185
		c-1.262,0.513-2.584,0.837-3.932,0.965l-100.307,9.492l-32.73,20.029C109.581,272.337,107.076,273.045,104.521,273.045z"/>
	<path fill="#CCCCCC" d="M93.504,265.875c2.434,3.978,6.675,6.17,11.018,6.17c2.296,0,4.623-0.613,6.723-1.899l15.69-9.604
		l17.237-10.546l8.57-0.812l67.988-6.433l23.979-2.27c1.287-0.122,2.51-0.433,3.649-0.896c5.139-2.09,8.53-7.356,7.981-13.165
		c-0.671-7.094-6.969-12.289-14.063-11.63l-1.688,0.16l-29.103,2.754l-53.424,5.055l-15.009,1.421l-11.236-6.876l-20.569-12.588
		c-6.075-3.714-14.018-1.808-17.743,4.27c-3.72,6.078-1.809,14.02,4.27,17.743l17.492,10.705l-17.492,10.705
		C91.695,251.855,89.784,259.797,93.504,265.875z"/>
	<path fill="#333333" d="M581.731,222.219c6.483-10.193,17.52-16.279,29.521-16.279c9.72,0,18.768,3.934,25.477,11.077l1.397,1.488
		l-57.491,5.439L581.731,222.219z"/>
	<path fill="#333333" d="M611.252,206.94c-12.057,0-22.642,6.328-28.677,15.815L636,217.702
		C629.795,211.095,621.01,206.94,611.252,206.94z"/>
	<path fill="#333333" d="M593.601,298.5c-9.563,0-17.343-7.781-17.343-17.346v-32.882l69.988-6.623v55.534
		c0,0.754-0.614,1.378-1.369,1.391h-0.009L593.601,298.5z"/>
	<path fill="#333333" d="M593.602,297.5l51.259,0.074c0.212-0.003,0.386-0.177,0.386-0.391v-54.435l-67.988,6.433v31.972
		C577.258,290.168,584.59,297.5,593.602,297.5z"/>
	<path d="M669.224,240.48l-23.979,2.269v54.435c0,0.213-0.174,0.387-0.386,0.391L593.6,297.5c-9.012,0-16.344-7.332-16.344-16.344
		v-31.973l-8.569,0.812l-17.237,10.548v20.612c0,23.243,18.908,42.15,42.15,42.15h30.418l20.789,0.074c0.016,0,0.031,0,0.045,0
		c14.445,0,26.199-11.752,26.199-26.197v-23.353c0.29,0.021,0.579,0.052,0.872,0.052c2.517,0,5.06-0.736,7.291-2.268
		c5.875-4.035,7.367-12.067,3.334-17.941l-9.676-14.09C671.733,240.046,670.51,240.358,669.224,240.48z"/>
	<path d="M567.566,224.179l15.009-1.421c6.037-9.49,16.62-15.816,28.677-15.816c9.758,0,18.543,4.155,24.748,10.761l29.103-2.754
		c-9.688-19.993-30.185-33.813-53.851-33.813c-24.584,0-45.741,14.914-54.922,36.167L567.566,224.179z"/>
	<path fill="#CCCCCC" d="M529.037,273.046c-4.885,0-9.323-2.485-11.87-6.647c-4.002-6.539-1.938-15.115,4.601-19.118l16.098-9.852
		l-16.098-9.852c-6.538-4.003-8.603-12.578-4.601-19.114c2.55-4.161,6.988-6.645,11.874-6.645c2.552,0,5.057,0.707,7.243,2.044
		l31.521,19.291l98.892-9.359c0.44-0.041,0.876-0.061,1.308-0.061c7.214,0,13.166,5.414,13.846,12.592
		c0.573,6.059-2.964,11.893-8.6,14.185c-1.262,0.513-2.584,0.837-3.932,0.965l-100.307,9.492L536.283,271
		C534.098,272.338,531.592,273.046,529.037,273.046z"/>
	<path fill="#CCCCCC" d="M522.29,226.725l17.491,10.705l-17.491,10.705c-6.078,3.721-7.991,11.663-4.271,17.743
		c2.435,3.978,6.676,6.169,11.018,6.169c2.297,0,4.623-0.612,6.724-1.899l15.69-9.604l17.237-10.548l8.569-0.812l67.987-6.433
		l23.979-2.27c1.287-0.122,2.511-0.433,3.649-0.896c5.139-2.09,8.53-7.356,7.981-13.165c-0.672-7.094-6.963-12.289-14.063-11.63
		l-1.688,0.16l-29.103,2.754l-53.425,5.055l-15.009,1.421l-11.236-6.876l-20.569-12.588c-6.075-3.714-14.019-1.808-17.743,4.27
		C514.3,215.063,516.212,223.004,522.29,226.725z"/>
	<path d="M258.032,549.159l-9.677-14.092c-1.139,0.465-2.36,0.774-3.647,0.896l-23.979,2.27v54.434c0,0.214-0.173,0.39-0.385,0.393
		l-51.258-0.074c-9.012,0-16.344-7.332-16.344-16.344v-31.975l-8.568,0.813l-17.237,10.548v20.614
		c0,23.243,18.908,42.15,42.15,42.15h30.417l20.79,0.074c0.016,0,0.031,0,0.045,0c14.444,0,26.199-11.752,26.199-26.198v-23.352
		c0.291,0.021,0.58,0.052,0.872,0.052c2.517,0,5.06-0.736,7.291-2.268C260.575,563.065,262.066,555.033,258.032,549.159z"/>
	<path fill="#333333" d="M157.216,517.703c6.486-10.192,17.521-16.277,29.52-16.277c9.717,0,18.765,3.934,25.476,11.075l1.398,1.487
		l-57.491,5.44L157.216,517.703z"/>
	<path fill="#333333" d="M186.735,502.426c-12.057,0-22.639,6.328-28.676,15.814l53.423-5.055
		C205.276,506.581,196.492,502.426,186.735,502.426z"/>
	<path fill="#333333" d="M169.084,593.985c-9.562,0-17.342-7.78-17.342-17.344v-32.886l69.988-6.621v55.533
		c0,0.757-0.615,1.381-1.372,1.392h-0.007L169.084,593.985z"/>
	<path fill="#333333" d="M152.742,576.642c0,9.012,7.333,16.344,16.344,16.344l51.259,0.074c0.211-0.003,0.385-0.179,0.385-0.392
		v-54.435l-67.988,6.433V576.642L152.742,576.642z"/>
	<path d="M143.05,519.663l15.009-1.422c6.037-9.487,16.619-15.813,28.676-15.813c9.757,0,18.541,4.154,24.747,10.76l29.104-2.755
		c-9.688-19.991-30.185-33.812-53.852-33.812c-24.583,0-45.741,14.914-54.921,36.165L143.05,519.663z"/>
	<path fill="#CCCCCC" d="M104.518,568.533c-4.886,0-9.323-2.484-11.871-6.646c-4.001-6.539-1.938-15.115,4.602-19.118l16.098-9.852
		l-16.098-9.853c-6.538-4.003-8.602-12.579-4.602-19.116c2.55-4.161,6.989-6.645,11.875-6.645c2.551,0,5.056,0.706,7.243,2.042
		l31.522,19.291l98.894-9.357c0.439-0.041,0.873-0.061,1.304-0.061c7.215,0,13.169,5.413,13.849,12.591
		c0.572,6.06-2.964,11.893-8.6,14.187c-1.263,0.513-2.584,0.838-3.93,0.965l-100.307,9.492l-32.733,20.033
		C109.579,567.825,107.073,568.533,104.518,568.533z"/>
	<path fill="#CCCCCC" d="M144.172,545.479l8.57-0.812l67.988-6.433l23.979-2.27c1.287-0.122,2.508-0.434,3.647-0.896
		c5.139-2.091,8.53-7.356,7.981-13.165c-0.671-7.093-6.97-12.287-14.063-11.63l-1.689,0.16l-29.104,2.754l-53.423,5.055
		l-15.009,1.421l-11.236-6.876l-20.569-12.589c-6.075-3.712-14.018-1.808-17.743,4.271c-3.719,6.078-1.808,14.02,4.271,17.742
		l17.491,10.705l-17.491,10.704c-6.079,3.722-7.992,11.663-4.271,17.743c2.435,3.978,6.675,6.169,11.018,6.169
		c2.296,0,4.623-0.612,6.723-1.899l15.69-9.603L144.172,545.479z"/>
	<path d="M672.872,535.067c-1.139,0.465-2.36,0.774-3.647,0.896l-23.979,2.27v54.434c0,0.214-0.174,0.39-0.386,0.393l-51.259-0.074
		c-9.012,0-16.344-7.332-16.344-16.344v-31.975l-8.569,0.813l-17.237,10.548v20.614c0,23.243,18.907,42.15,42.15,42.15h30.417
		l20.79,0.074c0.016,0,0.031,0,0.045,0c14.444,0,26.198-11.752,26.198-26.199v-23.351c0.291,0.021,0.58,0.052,0.872,0.052
		c2.518,0,5.061-0.736,7.292-2.268c5.875-4.035,7.366-12.067,3.334-17.941L672.872,535.067z"/>
	<path fill="#333333" d="M593.601,593.985c-9.563,0-17.343-7.78-17.343-17.344v-32.886l69.988-6.621v55.533
		c0,0.757-0.615,1.381-1.372,1.392h-0.008L593.601,593.985z"/>
	<path fill="#333333" d="M577.258,576.642c0,9.012,7.332,16.344,16.344,16.344l51.259,0.074c0.212-0.003,0.386-0.179,0.386-0.392
		v-54.435l-67.988,6.433V576.642z"/>
	<path fill="#333333" d="M581.731,517.703c6.486-10.192,17.522-16.277,29.521-16.277c9.718,0,18.765,3.934,25.475,11.075
		l1.398,1.488l-57.491,5.439L581.731,517.703z"/>
	<path fill="#333333" d="M611.252,502.426c-12.057,0-22.64,6.328-28.677,15.814l53.423-5.055
		C629.793,506.581,621.008,502.426,611.252,502.426z"/>
	<path d="M567.566,519.663l15.009-1.422c6.037-9.487,16.62-15.813,28.677-15.813c9.756,0,18.541,4.154,24.746,10.76l29.104-2.755
		c-9.688-19.991-30.185-33.812-53.851-33.812c-24.584,0-45.741,14.914-54.922,36.165L567.566,519.663z"/>
	<path fill="#CCCCCC" d="M529.034,568.533c-4.886,0-9.323-2.484-11.87-6.646c-4.002-6.538-1.938-15.115,4.6-19.118l16.099-9.852
		l-16.099-9.853c-6.537-4.004-8.601-12.579-4.6-19.117c2.549-4.16,6.988-6.644,11.874-6.644c2.552,0,5.056,0.706,7.242,2.042
		l31.521,19.291l98.894-9.357c0.44-0.041,0.875-0.061,1.306-0.061c7.216,0,13.169,5.413,13.848,12.592
		c0.573,6.059-2.964,11.892-8.6,14.185c-1.263,0.514-2.585,0.839-3.93,0.966l-100.307,9.492l-32.732,20.033
		C534.094,567.825,531.588,568.533,529.034,568.533z"/>
	<path fill="#CCCCCC" d="M568.688,545.479l8.569-0.812l67.987-6.433l23.979-2.27c1.287-0.122,2.509-0.434,3.647-0.896
		c5.139-2.091,8.53-7.356,7.981-13.165c-0.671-7.093-6.963-12.287-14.063-11.63l-1.689,0.16l-29.104,2.754l-53.422,5.055
		l-15.01,1.421l-11.236-6.876l-20.569-12.589c-6.074-3.712-14.018-1.808-17.742,4.271c-3.72,6.078-1.809,14.02,4.27,17.742
		l17.492,10.705l-17.492,10.704c-6.078,3.722-7.991,11.663-4.27,17.743c2.435,3.978,6.675,6.169,11.018,6.169
		c2.297,0,4.622-0.612,6.724-1.899l15.689-9.603L568.688,545.479z"/>
	<path d="M787.097,129.032H12.903C5.775,129.032,0,134.808,0,141.936v516.129c0,7.128,5.775,12.903,12.903,12.903h774.193
		c7.128,0,12.903-5.775,12.903-12.903V141.936C800,134.808,794.225,129.032,787.097,129.032z M349.678,349.677H116.129
		c-7.127,0-12.903,5.776-12.903,12.903l0,0c0,7.128,5.776,12.903,12.903,12.903h246.452c7.127,0,12.903-5.775,12.903-12.903V154.839
		h49.031v207.742c0,7.128,5.776,12.903,12.903,12.903h336.774v49.033H437.419c-7.127,0-12.903,5.775-12.903,12.902v207.742h-49.031
		V437.419c0-7.127-5.776-12.902-12.903-12.902H25.807v-49.033h38.709c7.128,0,12.903-5.775,12.903-12.903l0,0
		c0-7.127-5.775-12.903-12.903-12.903H25.807V154.839h323.871V349.677z M774.193,349.677H450.322V154.839h323.871V349.677z
		 M25.807,450.322h323.871v194.839H25.807V450.322z M450.322,645.161V450.322h323.871v194.839H450.322z"/>
</g>
</svg>
