<?xml version="1.0" encoding="utf-8"?>
<!-- Generator: Adobe Illustrator 16.0.0, SVG Export Plug-In . SVG Version: 6.00 Build 0)  -->
<!DOCTYPE svg PUBLIC "-//W3C//DTD SVG 1.1//EN" "http://www.w3.org/Graphics/SVG/1.1/DTD/svg11.dtd">
<svg version="1.1" id="Capa_1" xmlns="http://www.w3.org/2000/svg" xmlns:xlink="http://www.w3.org/1999/xlink" x="0px" y="0px"
	 width="800px" height="800px" viewBox="0 0 800 800" enable-background="new 0 0 800 800" xml:space="preserve">
<g>
	<polygon fill="#164FCE" points="145.408,153.839 654.592,153.839 400,324.212 	"/>
	<polygon fill="#164FCE" points="400,323.009 651.3,154.839 148.7,154.839 	"/>
	<polygon fill="#164FCE" points="145.408,646.161 400,475.788 654.592,646.161 	"/>
	<polygon fill="#164FCE" points="400,476.991 148.7,645.161 651.3,645.161 	"/>
	<path fill="#164FCE" d="M513.254,400l175.448-117.409c2.642-1.768,4.438-4.459,5.056-7.578s-0.016-6.292-1.784-8.934l-0.557-0.831
		l23.107-15.462l0.557,0.831c2.216,3.31,5.918,5.285,9.904,5.285c2.354,0,4.64-0.696,6.61-2.013l43.598-29.177v350.575L513.254,400z
		"/>
	<path fill="#164FCE" d="M692.805,265.522c3.964,5.922,2.376,13.938-3.547,17.899L515.052,400l259.142,173.414v-346.83
		l-42.042,28.136c-2.204,1.473-4.698,2.182-7.166,2.182c-4.161,0-8.245-2.009-10.735-5.729l0,0L692.805,265.522L692.805,265.522z"/>
	<polygon fill="#164FCE" points="24.807,224.711 286.746,400 24.807,575.286 	"/>
	<polygon fill="#164FCE" points="284.948,400 25.807,226.584 25.807,573.414 	"/>
	<path fill="#FFFFFF" d="M774.193,604.468L484.675,410.724c-3.579-2.397-5.728-6.417-5.728-10.724c0-4.306,2.148-8.329,5.728-10.724
		l190.229-127.3c5.922-3.962,13.938-2.376,17.899,3.549l21.446-14.354c-3.964-5.921-2.376-13.937,3.548-17.899l56.396-37.743
		v-40.691h-76.49L407.176,349.258c-2.171,1.454-4.674,2.18-7.176,2.18s-5.005-0.726-7.176-2.18L102.297,154.839h-76.49v40.691
		l289.519,193.745c3.579,2.396,5.728,6.417,5.728,10.723c0,4.307-2.148,8.328-5.728,10.724L25.807,604.468v40.693h76.49
		L392.824,450.74c4.342-2.905,10.01-2.905,14.354,0l290.525,194.421h76.49V604.468z"/>
	<path d="M800,597.509v-395.02c0-0.015,0-0.032,0-0.048v-60.506c0-7.128-5.777-12.903-12.903-12.903h-93.231
		c-0.026,0-0.054,0-0.079,0H12.903C5.777,129.032,0,134.808,0,141.936v60.506c0,0.017,0,0.034,0,0.048v395.02
		c0,0.016,0,0.033,0,0.048v60.508c0,7.128,5.777,12.903,12.903,12.903h93.196c0.053,0,0.105,0,0.158,0h587.491
		c0.009,0,0.016,0.002,0.024,0.002c0.008,0,0.019-0.002,0.027-0.002h93.297c7.126,0,12.903-5.775,12.903-12.903v-60.506
		C800,597.542,800,597.524,800,597.509z M697.703,645.161L407.176,450.74c-4.342-2.905-10.01-2.905-14.354,0L102.297,645.161h-76.49
		V604.47l289.519-193.745c3.579-2.396,5.728-6.416,5.728-10.723s-2.148-8.329-5.728-10.724L25.807,195.53v-40.691h76.49
		l290.527,194.42c2.171,1.454,4.674,2.18,7.176,2.18s5.005-0.726,7.176-2.18l290.527-194.42h76.49v40.691L717.8,233.271
		c-5.922,3.964-7.51,11.978-3.548,17.899l0,0c2.488,3.72,6.574,5.729,10.735,5.729c2.468,0,4.96-0.707,7.166-2.182l42.04-28.134
		v346.832L515.052,400l174.206-116.576c5.923-3.964,7.511-11.978,3.547-17.899l0,0c-3.962-5.924-11.978-7.51-17.898-3.549
		l-190.23,127.3c-3.58,2.396-5.727,6.417-5.727,10.723c0,4.307,2.148,8.328,5.727,10.724l289.518,193.746v40.693H697.703z
		 M400,476.991l251.3,168.17H148.7L400,476.991z M284.948,400L25.807,573.414v-346.83L284.948,400z M400,323.009l-251.3-168.17
		h502.6L400,323.009z"/>
</g>
</svg>
