<?xml version="1.0" encoding="utf-8"?>
<!-- Generator: Adobe Illustrator 16.0.0, SVG Export Plug-In . SVG Version: 6.00 Build 0)  -->
<!DOCTYPE svg PUBLIC "-//W3C//DTD SVG 1.1//EN" "http://www.w3.org/Graphics/SVG/1.1/DTD/svg11.dtd">
<svg version="1.1" id="Capa_1" xmlns="http://www.w3.org/2000/svg" xmlns:xlink="http://www.w3.org/1999/xlink" x="0px" y="0px"
	 width="800px" height="800px" viewBox="0 0 800 800" enable-background="new 0 0 800 800" xml:space="preserve">
<g>
	<rect x="24.807" y="325.882" fill="#103B9B" width="121.568" height="148.236"/>
	<rect x="25.807" y="326.882" fill="#103B9B" width="119.568" height="146.236"/>
	<path fill="#103B9B" d="M412.766,474.118V325.882h219.492c6.563,0,11.903-5.34,11.903-11.903v-1h27.807v1
		c0,6.563,5.34,11.903,11.903,11.903h91.322v148.236H412.766z"/>
	<path fill="#103B9B" d="M632.258,326.882H413.766v146.236h360.428V326.882h-90.322c-7.128,0-12.903-5.777-12.903-12.903h-25.807
		C645.161,321.104,639.386,326.882,632.258,326.882z"/>
	<path fill="#ED1F34" d="M291.468,245.371l0.002-19.292l1.17,0.203c18.787,3.25,35.605,13.326,47.357,28.37l0.694,0.889
		l-16.192,9.78L291.468,245.371z"/>
	<path fill="#ED1F34" d="M292.47,227.267l-0.002,17.54l32.031,19.345l14.71-8.884C327.63,240.444,310.966,230.467,292.47,227.267z"
		/>
	<path fill="#ED1F34" d="M218.448,255.542l0.694-0.889c11.747-15.041,28.563-25.117,47.351-28.371l1.171-0.203l-0.001,19.292
		l-33.026,19.949L218.448,255.542z"/>
	<path fill="#ED1F34" d="M219.93,255.269l14.706,8.883l32.026-19.345l0.001-17.54C248.168,230.471,231.506,240.446,219.93,255.269z"
		/>
	<path fill="#ED1F34" d="M644.161,314.979v-1c0-6.563-5.34-11.903-11.903-11.903H367.893l13.011-46.799
		c1.313-4.729-0.363-9.701-4.271-12.668c-2.085-1.584-4.574-2.421-7.195-2.421c-2.169,0-4.298,0.592-6.156,1.714l-2.097,1.265
		l-0.541-0.737c-16.214-22.126-41.108-36.813-68.297-40.292l-0.873-0.112v-6.594c0-3.18-1.237-6.169-3.485-8.418
		c-2.248-2.249-5.237-3.487-8.416-3.487c-6.564,0-11.905,5.339-11.905,11.902v6.597l-0.873,0.112
		c-27.19,3.481-52.084,18.167-68.297,40.292l-0.541,0.737l-2.097-1.265c-1.856-1.122-3.984-1.715-6.152-1.715
		c-2.584,0-5.141,0.86-7.199,2.422c-3.909,2.966-5.585,7.939-4.271,12.668l13.01,46.799H24.807V153.839h750.387v148.236h-91.322
		c-6.563,0-11.903,5.34-11.903,11.903v1H644.161z"/>
	<path fill="#ED1F34" d="M158.278,301.075h31.652l-12.657-45.531c-1.416-5.094,0.42-10.538,4.63-13.732
		c4.211-3.196,9.948-3.501,14.472-0.767l1.314,0.793c16.446-22.441,41.394-37.161,68.977-40.693v-5.717
		c0-7.126,5.777-12.902,12.903-12.902c0,0,0,0,0.002,0c7.126,0,12.903,5.779,12.901,12.905v5.713
		c27.582,3.53,52.532,18.252,68.977,40.693l1.314-0.793c4.528-2.732,10.265-2.429,14.473,0.767c4.211,3.197,6.045,8.638,4.63,13.732
		l-12.658,45.531h31.653h231.396c7.128,0,12.903,5.777,12.903,12.903h25.807c0-7.126,5.775-12.903,12.903-12.903h90.322V154.839
		H25.807v146.236H158.278z"/>
	<path fill="#FFFFFF" d="M412.822,498.925c-7.778,66.647-64.552,118.55-133.252,118.55c-68.7,0-125.474-51.902-133.254-118.55
		H25.807v146.236h748.387V498.925H412.822z"/>
	<path d="M787.097,129.032H12.903C5.777,129.032,0,134.81,0,141.936v516.129c0,7.126,5.777,12.903,12.903,12.903h774.193
		c7.128,0,12.903-5.777,12.903-12.903V141.936C800,134.81,794.225,129.032,787.097,129.032z M774.193,154.839v146.236h-90.322
		c-7.128,0-12.903,5.777-12.903,12.903s5.775,12.903,12.903,12.903h90.322v146.236H413.766V326.882h218.492
		c7.128,0,12.903-5.777,12.903-12.903s-5.775-12.903-12.903-12.903H400.862H369.21l12.657-45.531
		c1.415-5.094-0.42-10.538-4.63-13.732c-4.208-3.196-9.944-3.501-14.473-0.767l-1.314,0.793l-22.24,13.432l-14.709,8.884
		l-32.031-19.345l-6.233-3.764c-4.103-2.478-9.24-2.476-13.342,0l-6.231,3.764l-32.026,19.345l-14.706-8.883l-22.24-13.433
		l-1.314-0.793c-4.525-2.734-10.261-2.429-14.473,0.767c-4.211,3.197-6.047,8.639-4.629,13.732l12.655,45.531h-31.652H25.807
		V154.839H774.193z M279.57,591.668c-59.766,0-108.389-48.623-108.389-108.389V326.882h35.73h145.321h35.729v156.396
		C387.959,543.045,339.336,591.668,279.57,591.668z M210.835,279.926l17.128,10.347c4.102,2.478,9.24,2.478,13.342,0l38.257-23.108
		l38.264,23.108c4.104,2.478,9.238,2.478,13.342,0l17.134-10.348l-5.879,21.151H216.716L210.835,279.926z M145.375,473.118H25.807
		V326.882h119.568V473.118z M25.807,645.161V498.925h120.509c7.778,66.647,64.552,118.55,133.254,118.55
		s125.474-51.902,133.252-118.55h361.371v146.236H25.807z"/>
	<path fill="#FFE000" d="M292.473,201.144v-5.713c0-7.126-5.775-12.903-12.901-12.905l0,0c-7.126,0-12.903,5.776-12.903,12.902
		v5.717c-27.582,3.53-52.532,18.252-68.977,40.693l22.24,13.433c11.577-14.823,28.239-24.8,46.734-28.002l-0.002,17.54l6.231-3.764
		c4.102-2.476,9.239-2.478,13.342,0l6.233,3.764l0.001-17.54c18.497,3.2,35.161,13.177,46.739,28.002l22.24-13.432
		C345.005,219.396,320.055,204.674,292.473,201.144z"/>
	<path fill="#ED1F34" d="M279.57,592.666c-60.317,0-109.389-49.071-109.389-109.389V325.882h218.778v157.396
		C388.959,543.595,339.887,592.666,279.57,592.666z M253.047,485.703c4.224,3.492,8.911,6.103,13.933,7.76l0.687,0.227v59.271
		c0,6.563,5.34,11.903,11.903,11.903s11.903-5.34,11.903-11.903v-59.271l0.687-0.227c5.021-1.657,9.709-4.268,13.934-7.76
		l0.521-0.432l36.938,20.125c1.741,0.948,3.71,1.45,5.694,1.45c2.137,0,4.24-0.577,6.08-1.67c3.592-2.133,5.824-6.054,5.824-10.233
		v-73.638c0-18.996-15.455-34.451-34.451-34.451c-8.931,0-17.414,3.438-23.886,9.681l-1.639-1.049l6.271-17.989h5.724
		c6.563,0,11.903-5.34,11.903-11.903s-5.34-11.903-11.903-11.903h-14.18c-5.059,0-9.576,3.209-11.24,7.985l-8.181,23.468
		l-8.18-23.468c-1.665-4.776-6.182-7.985-11.24-7.985h-14.18c-6.563,0-11.903,5.34-11.903,11.903s5.34,11.903,11.903,11.903h5.724
		l6.271,17.989l-1.639,1.049c-6.472-6.243-14.955-9.681-23.885-9.681c-18.997,0-34.451,15.455-34.451,34.451v73.638
		c0,4.178,2.232,8.099,5.825,10.234c1.839,1.092,3.941,1.669,6.079,1.669c1.984,0,3.953-0.502,5.694-1.45l36.938-20.125
		L253.047,485.703z"/>
	<path fill="#ED1F34" d="M387.959,326.882h-35.73H206.908h-35.727v156.396c0,59.766,48.623,108.389,108.389,108.389
		s108.389-48.622,108.389-108.389V326.882z M362.15,494.943c0,4.553-2.399,8.77-6.313,11.094c-2.028,1.204-4.309,1.81-6.59,1.81
		c-2.123,0-4.246-0.522-6.173-1.572l-36.344-19.801c-3.792,3.135-8.583,6.066-14.257,7.938v58.548
		c0,7.126-5.777,12.903-12.903,12.903s-12.903-5.777-12.903-12.903v-58.548c-5.674-1.872-10.465-4.804-14.257-7.938l-36.344,19.801
		c-1.927,1.05-4.052,1.572-6.173,1.572c-2.281,0-4.561-0.605-6.589-1.81c-3.914-2.326-6.314-6.541-6.314-11.094v-73.638
		c0-19.548,15.904-35.451,35.451-35.451c9.543,0,18.2,3.808,24.58,9.961l-6.037-17.318h-5.014c-7.126,0-12.903-5.777-12.903-12.903
		s5.777-12.903,12.903-12.903h14.18c5.488,0,10.377,3.474,12.184,8.656l7.236,20.759l7.236-20.759
		c1.806-5.184,6.696-8.656,12.184-8.656h14.18c7.126,0,12.903,5.777,12.903,12.903s-5.777,12.903-12.903,12.903h-5.014
		l-6.037,17.318c6.38-6.154,15.037-9.961,24.58-9.961c19.548,0,35.451,15.903,35.451,35.451V494.943z"/>
	<path fill="#FFFFFF" d="M242.085,462.71v-41.406c0-5.317-4.327-9.645-9.645-9.645s-9.645,4.327-9.645,9.645v51.914L242.085,462.71z
		"/>
	<path fill="#FFFFFF" d="M336.344,421.304c0-5.317-4.326-9.645-9.645-9.645c-5.317,0-9.645,4.327-9.645,9.645v41.406l19.289,10.508
		V421.304z"/>
	<path d="M362.15,421.304c0-19.548-15.903-35.451-35.451-35.451c-9.543,0-18.2,3.807-24.58,9.961l6.037-17.318h5.014
		c7.126,0,12.903-5.777,12.903-12.903s-5.777-12.903-12.903-12.903h-14.18c-5.488,0-10.378,3.474-12.184,8.655l-7.236,20.759
		l-7.236-20.759c-1.807-5.184-6.696-8.655-12.184-8.655h-14.18c-7.126,0-12.903,5.777-12.903,12.903s5.777,12.903,12.903,12.903
		h5.014l6.037,17.318c-6.379-6.154-15.037-9.961-24.58-9.961c-19.547,0-35.451,15.903-35.451,35.451v73.639
		c0,4.552,2.4,8.769,6.314,11.093c2.028,1.204,4.308,1.81,6.589,1.81c2.121,0,4.248-0.522,6.173-1.572l36.344-19.8
		c3.792,3.134,8.583,6.065,14.257,7.938v58.548c0,7.126,5.777,12.903,12.903,12.903s12.903-5.777,12.903-12.903V494.41
		c5.674-1.872,10.465-4.804,14.257-7.938l36.344,19.8c1.927,1.05,4.05,1.572,6.173,1.572c2.281,0,4.562-0.605,6.59-1.81
		c3.914-2.326,6.313-6.541,6.313-11.093V421.304z M222.796,421.304c0-5.317,4.327-9.645,9.645-9.645s9.645,4.327,9.645,9.645v41.406
		l-19.289,10.508V421.304z M291.248,465.729c-2.231,2.146-6.195,4.949-11.678,4.949s-9.447-2.805-11.678-4.949v-31.521h23.356
		V465.729L291.248,465.729z M317.055,462.71v-41.406c0-5.317,4.327-9.645,9.645-9.645c5.318,0,9.645,4.327,9.645,9.645v51.914
		L317.055,462.71z"/>
	<path fill="#ED1F34" d="M279.57,471.677c-5.733,0-9.892-2.844-12.372-5.229l-0.307-0.295v-32.946h25.356v32.946l-0.307,0.295
		C289.46,468.834,285.3,471.677,279.57,471.677z"/>
	<path fill="#ED1F34" d="M267.892,434.207v31.521c2.231,2.146,6.195,4.949,11.678,4.949s9.447-2.804,11.678-4.949v-31.521H267.892
		L267.892,434.207z"/>
	<path fill="#FFE000" d="M215.956,302.075l-6.757-24.308l19.284,11.648c1.855,1.122,3.983,1.714,6.152,1.714
		s4.298-0.593,6.155-1.714l38.774-23.419l38.781,23.421c1.857,1.122,3.985,1.714,6.153,1.714c2.169,0,4.297-0.592,6.154-1.714
		l19.289-11.649l-6.759,24.308H215.956z"/>
	<path fill="#FFE000" d="M348.305,279.924l-17.134,10.348c-4.104,2.478-9.239,2.478-13.342,0l-38.264-23.108l-38.257,23.107
		c-4.104,2.478-9.242,2.478-13.342,0l-17.129-10.347l5.879,21.151h125.708L348.305,279.924z"/>
</g>
</svg>
