<?xml version="1.0" encoding="utf-8"?>
<!-- Generator: Adobe Illustrator 16.0.0, SVG Export Plug-In . SVG Version: 6.00 Build 0)  -->
<!DOCTYPE svg PUBLIC "-//W3C//DTD SVG 1.1//EN" "http://www.w3.org/Graphics/SVG/1.1/DTD/svg11.dtd">
<svg version="1.1" id="Capa_1" xmlns="http://www.w3.org/2000/svg" xmlns:xlink="http://www.w3.org/1999/xlink" x="0px" y="0px"
	 width="800px" height="800px" viewBox="0 0 800 800" enable-background="new 0 0 800 800" xml:space="preserve">
<g>
	<path fill="#259245" d="M700.362,659.064v-1c0-6.563-5.34-11.903-11.903-11.903H130.448l-0.217-1.977l644.962-143.323v145.3
		h-39.709c-6.563,0-11.903,5.34-11.903,11.903v1H700.362z"/>
	<path fill="#259245" d="M735.484,645.161h38.709V502.107L130.448,645.161h558.011c7.128,0,12.903,5.775,12.903,12.903h21.219
		C722.581,650.937,728.356,645.161,735.484,645.161z"/>
	<polygon fill="#FFFFFF" points="774.193,333.834 135.922,617.509 774.193,475.67 	"/>
	<polygon fill="#ED1F34" points="70.263,617.431 532.823,153.839 775.193,153.839 775.193,306.243 71.377,619.051 	"/>
	<polygon fill="#ED1F34" points="774.193,305.593 774.193,154.839 533.238,154.839 70.971,618.137 	"/>
	<path fill="#FFE000" d="M59.557,591.693L229.195,253.92c2.944-5.864,0.57-13.033-5.292-15.979l-0.893-0.449l12.479-24.847
		l0.894,0.449c1.676,0.841,3.469,1.268,5.329,1.268c4.534,0,8.614-2.515,10.647-6.564l27.099-53.958h219.734L61.159,592.849
		L59.557,591.693z"/>
	<path fill="#FFE000" d="M230.089,254.369L60.451,592.143l436.331-437.304H280.074l-26.822,53.407
		c-2.264,4.509-6.816,7.116-11.541,7.116c-1.946,0-3.921-0.442-5.777-1.375l-11.582,23.061
		C230.718,240.248,233.287,247.998,230.089,254.369z"/>
	<path fill="#103B9B" d="M24.807,603.621V153.839h228.011l-21.732,43.274c-1.428,2.842-1.663,6.069-0.663,9.087
		c1,3.018,3.116,5.465,5.958,6.892l0.138,0.069l0.636,0.619l-11.909,23.717l-0.894-0.212l-0.001,0.761h-0.237l-0.212-0.106
		c-1.675-0.842-3.468-1.269-5.329-1.269c-4.535,0-8.616,2.515-10.649,6.563L26.7,604.07L24.807,603.621z"/>
	<path fill="#103B9B" d="M207.028,242.785c3.198-6.367,10.958-8.938,17.321-5.739c0,0,0.002,0,0.002,0.002l11.582-23.061
		c-0.002-0.002-0.002-0.002-0.002-0.002c-6.369-3.196-8.939-10.952-5.739-17.321l21.004-41.825H25.807v448.782L207.028,242.785z"/>
	<path d="M800,485.807V313.781c0-0.021,0-0.038,0-0.059V141.936c0-7.128-5.775-12.903-12.903-12.903H527.903
		c-0.023,0-0.046,0-0.07,0H12.903C5.775,129.032,0,134.808,0,141.936v516.129c0,7.128,5.775,12.903,12.903,12.903h675.556
		c7.128,0,12.903-5.775,12.903-12.903s-5.775-12.903-12.903-12.903H130.448l643.745-143.054v143.054h-38.709
		c-7.128,0-12.903,5.775-12.903,12.903s5.775,12.903,12.903,12.903h51.612c7.128,0,12.903-5.775,12.903-12.903V485.841V485.807z
		 M774.193,154.839v150.754L70.971,618.137l462.267-463.298H774.193z M251.196,154.839l-21.004,41.825
		c-3.198,6.369-0.628,14.125,5.739,17.321c0,0,0.002,0,0.003,0.002c1.858,0.932,3.832,1.375,5.777,1.375
		c4.724,0,9.276-2.606,11.541-7.116l26.822-53.407h216.707L60.451,592.143l169.638-337.773c3.198-6.369,0.628-14.121-5.738-17.32
		c0-0.001-0.002-0.001-0.002-0.001c-6.364-3.198-14.123-0.628-17.321,5.739L25.807,603.623V154.839H251.196z M774.193,333.834
		V475.67L135.922,617.509L774.193,333.834z"/>
</g>
</svg>
