<?xml version="1.0" encoding="utf-8"?>
<!-- Generator: Adobe Illustrator 16.0.0, SVG Export Plug-In . SVG Version: 6.00 Build 0)  -->
<!DOCTYPE svg PUBLIC "-//W3C//DTD SVG 1.1//EN" "http://www.w3.org/Graphics/SVG/1.1/DTD/svg11.dtd">
<svg version="1.1" id="Capa_1" xmlns="http://www.w3.org/2000/svg" xmlns:xlink="http://www.w3.org/1999/xlink" x="0px" y="0px"
	 width="800px" height="800px" viewBox="0 0 800 800" enable-background="new 0 0 800 800" xml:space="preserve">
<g>
	<path fill="#FFE000" d="M24.807,646.161V153.839h7.754l321.636,214.423l-0.557,0.833c-4.245,6.345-7.091,13.375-8.461,20.893
		l-0.077,0.424l-84.198,54.75c-7.246,4.734-11.641,11.97-12.056,19.851c-0.415,7.879,3.197,15.536,9.91,21.01l94.971,77.406
		l-10.482,20.688c-1.437,2.836-1.684,6.062-0.694,9.083c0.99,3.022,3.097,5.478,5.934,6.914c1.688,0.855,3.494,1.289,5.369,1.289
		c4.516,0,8.588-2.501,10.628-6.526l20.066-39.607c1.437-2.836,1.684-6.063,0.694-9.084s-3.096-5.477-5.933-6.913
		c-0.607-0.309-1.256-0.564-1.984-0.781l-0.505-0.15l-0.161-0.502c-6.837-21.323-22.288-47.174-39.363-65.855l-0.892-0.977
		l40.508-20.289l0.432,0.193c7.175,3.205,14.797,4.83,22.655,4.83c6.417,0,12.726-1.095,18.75-3.253l0.406-0.146l89.505,45.539
		c3.969,2.01,8.266,3.072,12.425,3.072c3.829,0,7.462-0.861,10.796-2.56c2.729-1.391,5.168-3.336,7.246-5.782l0.576-0.679
		l231.341,154.228H24.807z"/>
	<path fill="#FFE000" d="M532.336,499.286c-3.496,1.78-7.328,2.668-11.25,2.668c-4.291,0-8.692-1.062-12.878-3.181l-89.121-45.344
		c-5.969,2.139-12.391,3.312-19.087,3.312c-8.21,0-16.01-1.767-23.063-4.917l-38.902,19.484
		c16.463,18.013,32.395,43.824,39.577,66.225c0.728,0.217,1.448,0.49,2.15,0.847c6.356,3.22,8.899,10.984,5.679,17.342
		l-20.066,39.607c-2.273,4.486-6.812,7.074-11.521,7.074c-1.961,0-3.951-0.449-5.821-1.396c-6.357-3.221-8.9-10.985-5.68-17.342
		l10.118-19.97l-94.347-76.897c-6.963-5.678-10.708-13.637-10.276-21.838s4.991-15.725,12.509-20.637l83.836-54.515
		c1.412-7.749,4.391-14.956,8.614-21.27l-320.551-213.7h-6.451v490.322h741.936L539.89,493.26
		C537.784,495.738,535.253,497.8,532.336,499.286z"/>
	<path fill="#ED1F34" d="M767.439,646.161l-229.04-152.692l0.727-0.856c3.104-3.656,5.175-8.257,5.991-13.303l19.552-120.952
		l23.157-1.268c3.176-0.173,6.093-1.573,8.215-3.94s3.195-5.42,3.021-8.596c-0.345-6.309-5.583-11.25-11.925-11.25
		c-0.204,0-0.409,0.005-0.614,0.015l-44.332,2.426c-3.175,0.174-6.092,1.573-8.214,3.941s-3.195,5.42-3.021,8.596
		c0.038,0.691,0.141,1.382,0.313,2.112l0.122,0.513l-0.354,0.39c-15.048,16.583-29.708,42.887-37.35,67.014l-0.399,1.261
		l-37.805-24.923l-0.05-0.471c-1.485-14.247-8.358-27.25-19.353-36.612l-0.327-0.279l-5.317-100.328
		c-0.477-8.642-4.547-16.067-11.165-20.369c-3.841-2.495-8.383-3.814-13.135-3.814c-3.34,0-6.709,0.637-10.014,1.893L281.602,278.21
		l-12.674-19.418c-2.207-3.381-5.937-5.4-9.98-5.4c-2.308,0-4.553,0.67-6.494,1.938c-2.663,1.738-4.49,4.409-5.144,7.521
		c-0.654,3.112-0.057,6.292,1.681,8.955l24.268,37.182c2.207,3.38,5.938,5.398,9.981,5.398c2.306,0,4.551-0.67,6.493-1.938
		c0.569-0.371,1.115-0.806,1.668-1.328l0.383-0.361l0.515,0.111c9.883,2.141,21.652,3.271,34.037,3.271
		c14.553,0,29.709-1.575,42.679-4.433l1.292-0.285l-2.686,45.245l-0.381,0.278c-5.356,3.906-9.932,8.667-13.601,14.151l-0.555,0.83
		L28.955,153.839h603.303c6.563,0,11.903-5.34,11.903-11.903v-1h27.807v1c0,6.563,5.34,11.903,11.903,11.903h91.322v492.322H767.439
		z"/>
	<path fill="#ED1F34" d="M632.258,154.839h-600l320.551,213.7c3.731-5.578,8.427-10.454,13.843-14.403l2.579-43.453
		c-23.83,5.252-54.151,6.142-77.143,1.163c-0.552,0.521-1.149,1.008-1.808,1.438c-2.177,1.421-4.623,2.101-7.04,2.101
		c-4.213,0-8.342-2.06-10.818-5.852l-24.268-37.182c-3.896-5.968-2.214-13.963,3.754-17.858c5.965-3.898,13.963-2.217,17.858,3.752
		l12.234,18.744l113.769-43.257c8.395-3.189,17.16-2.457,24.049,2.018c6.888,4.477,11.124,12.186,11.619,21.154l5.294,99.898
		c10.814,9.209,18.147,22.39,19.699,37.27l36.306,23.935c7.367-23.262,21.755-49.965,37.563-67.384
		c-0.176-0.741-0.296-1.502-0.339-2.288c-0.391-7.117,5.063-13.201,12.179-13.59l44.336-2.426
		c7.113-0.358,13.199,5.065,13.588,12.179c0.391,7.117-5.063,13.201-12.18,13.589l-22.354,1.224l-19.423,120.157
		c-0.862,5.331-3.04,10.049-6.216,13.791l227.854,151.901h6.451V154.839h-90.322c-7.126,0-12.903-5.775-12.903-12.903h-25.807
		C645.161,149.063,639.384,154.839,632.258,154.839z"/>
	<path d="M787.097,129.032H683.871c-7.126,0-12.903,5.775-12.903,12.903s5.777,12.903,12.903,12.903h90.322v490.322h-6.451H25.807
		V154.839h6.451h600c7.126,0,12.903-5.775,12.903-12.903s-5.777-12.903-12.903-12.903H12.903C5.777,129.032,0,134.808,0,141.936
		v516.129c0,7.128,5.777,12.903,12.903,12.903h774.193c7.126,0,12.903-5.775,12.903-12.903V141.936
		C800,134.808,794.223,129.032,787.097,129.032z"/>
	<path fill="#E7D3CD" d="M405.592,257.653c-0.181,0.042-0.399,0.108-0.652,0.203l-82.769,31.468
		c19.706,0.44,41.685-2.333,56.176-8.211c4.1-1.667,8.774-1.111,12.373,1.469c3.6,2.583,5.623,6.83,5.359,11.25l-2.959,49.858
		c2.257-0.273,4.549-0.432,6.878-0.432c3.491,0,6.902,0.334,10.222,0.941l-4.553-85.901
		C405.655,258.045,405.626,257.829,405.592,257.653z"/>
	<path d="M393.122,343.692l2.959-49.858c0.262-4.42-1.76-8.667-5.359-11.25c-3.599-2.581-8.273-3.136-12.373-1.469
		c-14.489,5.879-36.47,8.652-56.176,8.211l82.769-31.468c0.251-0.096,0.47-0.162,0.651-0.203c0.035,0.177,0.063,0.394,0.076,0.646
		l4.552,85.901c9.991,1.825,19.073,6.271,26.511,12.604l-5.294-99.898c-0.497-8.968-4.731-16.678-11.62-21.154
		c-6.889-4.475-15.654-5.208-24.048-2.018l-113.771,43.253l-12.235-18.746c-3.896-5.97-11.894-7.649-17.858-3.752
		c-5.968,3.895-7.647,11.89-3.754,17.858l24.269,37.182c2.474,3.792,6.604,5.851,10.818,5.851c2.419,0,4.865-0.68,7.04-2.101
		c0.659-0.43,1.256-0.917,1.808-1.438c22.99,4.981,53.313,4.09,77.143-1.163l-2.579,43.453
		C374.268,348.582,383.312,344.883,393.122,343.692z"/>
	<path fill="#E7D3CD" d="M273.927,466.331c0.127,0.136,0.292,0.294,0.502,0.467l68.636,55.942
		c-9.479-17.272-22.862-34.937-35.199-44.542c-3.494-2.722-5.35-7.045-4.912-11.451c0.436-4.407,3.102-8.281,7.061-10.267
		l44.669-22.375c-3.423-4.538-6.178-9.604-8.125-15.052l-72.11,46.891C274.236,466.082,274.064,466.214,273.927,466.331z"/>
	<path d="M354.686,434.104l-44.669,22.374c-3.961,1.983-6.626,5.859-7.061,10.268c-0.438,4.407,1.417,8.729,4.911,11.451
		c12.338,9.604,25.721,27.269,35.2,44.542l-68.636-55.943c-0.21-0.172-0.375-0.329-0.502-0.467c0.138-0.115,0.31-0.249,0.523-0.389
		l72.11-46.89c-2.132-5.959-3.302-12.371-3.302-19.053c0-3.48,0.332-6.883,0.935-10.191l-83.836,54.515
		c-7.519,4.912-12.078,12.436-12.509,20.637s3.313,16.162,10.276,21.838l94.347,76.897l-10.118,19.97
		c-3.221,6.356-0.678,14.121,5.679,17.342c1.87,0.947,3.861,1.396,5.822,1.396c4.709,0,9.247-2.587,11.521-7.074l20.066-39.607
		c3.221-6.357,0.678-14.121-5.679-17.342c-0.702-0.356-1.423-0.63-2.15-0.847c-7.183-22.401-23.114-48.212-39.577-66.225
		l38.902-19.484C368.102,447.874,360.449,441.744,354.686,434.104z"/>
	<path fill="#E7D3CD" d="M519.881,475.759c0.228,0.114,0.429,0.198,0.6,0.257c0.053-0.179,0.106-0.399,0.149-0.666l14.13-87.413
		c-10.22,16.845-18.821,37.266-20.974,52.753c-0.609,4.388-3.426,8.153-7.46,9.98c-4.034,1.825-8.725,1.454-12.422-0.982
		L452.212,422.2c-2.268,5.312-5.328,10.2-9.022,14.536L519.881,475.759z"/>
	<path d="M452.212,422.202l41.692,27.487c3.697,2.437,8.388,2.808,12.422,0.982c4.034-1.827,6.851-5.593,7.46-9.98
		c2.15-15.487,10.754-35.908,20.974-52.753l-14.13,87.414c-0.043,0.265-0.097,0.486-0.149,0.666c-0.171-0.059-0.372-0.144-0.6-0.257
		l-76.691-39.021c-6.381,7.49-14.665,13.307-24.104,16.689l89.121,45.344c4.188,2.118,8.587,3.181,12.878,3.181
		c3.923,0,7.754-0.888,11.25-2.668c2.918-1.486,5.448-3.548,7.554-6.026c3.177-3.742,5.356-8.46,6.217-13.791l19.423-120.157
		l22.354-1.223c7.116-0.391,12.57-6.474,12.18-13.59c-0.389-7.114-6.476-12.537-13.588-12.179l-44.336,2.426
		c-7.115,0.39-12.569,6.474-12.179,13.589c0.043,0.786,0.163,1.547,0.339,2.288c-15.808,17.419-30.195,44.123-37.563,67.384
		l-36.305-23.933c0.203,1.949,0.311,3.924,0.311,5.925C456.74,407.876,455.124,415.379,452.212,422.202z"/>
	<path fill="#E7D3CD" d="M400,430.934c17.059,0,30.934-13.877,30.934-30.934c0-17.056-13.877-30.933-30.934-30.933
		S369.066,382.944,369.066,400C369.066,417.057,382.942,430.934,400,430.934z"/>
	<path fill="#F2A643" d="M400.002,457.74c-8.139,0-16.036-1.684-23.47-5.004c-8.922-3.987-16.751-10.222-22.643-18.029
		c-3.522-4.67-6.305-9.823-8.269-15.317c-2.23-6.232-3.36-12.756-3.36-19.39c0-3.427,0.321-6.917,0.953-10.372
		c1.419-7.788,4.369-15.071,8.767-21.646c3.799-5.679,8.538-10.61,14.084-14.655c7.925-5.775,17.241-9.45,26.94-10.628
		c2.439-0.295,4.729-0.439,7-0.439c3.429,0,6.928,0.322,10.4,0.957c9.925,1.812,19.253,6.247,26.979,12.827
		c11.387,9.695,18.506,23.165,20.045,37.927c0.209,2.004,0.315,4.032,0.315,6.029c0,7.83-1.551,15.432-4.608,22.595
		c-2.276,5.335-5.365,10.313-9.18,14.792c-6.575,7.717-15.058,13.589-24.53,16.982C413.184,456.606,406.648,457.74,400.002,457.74z
		 M400,370.067c-16.505,0-29.934,13.428-29.934,29.933c0,16.506,13.428,29.934,29.934,29.934c16.506,0,29.934-13.428,29.934-29.934
		C429.934,383.495,416.506,370.067,400,370.067z"/>
	<path fill="#F2A643" d="M343.26,400c0,6.682,1.17,13.094,3.302,19.053c1.948,5.448,4.702,10.513,8.126,15.052
		c5.764,7.639,13.416,13.77,22.252,17.719c7.052,3.149,14.853,4.917,23.063,4.917c6.694,0,13.118-1.174,19.086-3.313
		c9.44-3.382,17.725-9.2,24.105-16.689c3.693-4.337,6.756-9.226,9.021-14.536c2.913-6.823,4.528-14.326,4.528-22.202
		c0-2.001-0.106-3.978-0.31-5.925c-1.552-14.88-8.885-28.062-19.699-37.27c-7.438-6.334-16.52-10.78-26.51-12.604
		c-3.318-0.607-6.73-0.941-10.221-0.941c-2.33,0-4.621,0.158-6.879,0.432c-9.81,1.191-18.854,4.892-26.472,10.443
		c-5.416,3.95-10.111,8.826-13.843,14.403c-4.224,6.314-7.202,13.521-8.614,21.27C343.591,393.117,343.26,396.52,343.26,400z
		 M400,369.067c17.059,0,30.934,13.877,30.934,30.933c0,17.057-13.877,30.934-30.934,30.934S369.066,417.057,369.066,400
		C369.066,382.944,382.942,369.067,400,369.067z"/>
</g>
</svg>
