<?xml version="1.0" encoding="utf-8"?>
<!-- Generator: Adobe Illustrator 16.0.0, SVG Export Plug-In . SVG Version: 6.00 Build 0)  -->
<!DOCTYPE svg PUBLIC "-//W3C//DTD SVG 1.1//EN" "http://www.w3.org/Graphics/SVG/1.1/DTD/svg11.dtd">
<svg version="1.1" id="Capa_1" xmlns="http://www.w3.org/2000/svg" xmlns:xlink="http://www.w3.org/1999/xlink" x="0px" y="0px"
	 width="800px" height="800px" viewBox="0 0 800 800" enable-background="new 0 0 800 800" xml:space="preserve">
<g>
	<path fill="#ED1F34" d="M24.807,646.161V153.839h39.709c6.563,0,11.903-5.34,11.903-11.903v-1h27.806v1
		c0,6.563,5.34,11.903,11.903,11.903h659.064v492.322H24.807z M748.247,619.215V413.903h-85.973L413.903,579.484v39.73H748.247z
		 M386.097,619.215v-39.73L137.726,413.903H51.753v205.312H386.097z M400,555.333L633,400L400,244.667L167,400L400,555.333z
		 M748.247,386.097V180.785H413.903v39.731l248.371,165.581H748.247z M137.726,386.097l248.371-165.581v-39.731H51.753v205.312
		H137.726z"/>
	<path fill="#ED1F34" d="M64.516,154.839H25.807v490.322h748.387V154.839H116.129c-7.126,0-12.903-5.777-12.903-12.903H77.419
		C77.419,149.062,71.642,154.839,64.516,154.839z M50.753,620.215V412.903h87.275l249.068,166.046v41.266H50.753z M400,243.465
		L634.803,400l-37.296,24.863l-103.35,68.9L400,556.535l-94.157-62.771l-101.101-67.401L165.197,400L400,243.465z M749.247,620.215
		H412.903v-41.266l249.068-166.046h87.275V620.215z M749.247,179.785v207.312h-87.275L412.903,221.051v-41.266H749.247z
		 M387.097,179.785v41.266L138.028,387.097H50.753V179.785H387.097z"/>
	<polygon fill="#103B9B" points="661.972,387.097 749.247,387.097 749.247,179.785 412.903,179.785 412.903,221.051 	"/>
	<polygon fill="#103B9B" points="138.028,412.903 50.753,412.903 50.753,620.215 387.097,620.215 387.097,578.949 	"/>
	<polygon fill="#103B9B" points="50.753,387.097 138.028,387.097 387.097,221.051 387.097,179.785 50.753,179.785 	"/>
	<polygon fill="#103B9B" points="412.903,578.949 412.903,620.215 749.247,620.215 749.247,412.903 661.972,412.903 	"/>
	<polygon fill="#FFFFFF" points="400,556.535 494.157,493.764 305.843,493.764 	"/>
	<path fill="#FFFFFF" d="M204.742,426.362c9.411-21.588,30.917-36.685,55.972-36.685c19.092,0,36.133,8.764,47.333,22.485
		c0.839-0.041,1.684-0.064,2.534-0.064c19.827,0,36.951,11.574,44.987,28.332h49.719c2.252-51.687,44.854-92.903,97.096-92.903
		c46.871,0,85.96,33.186,95.128,77.336L634.806,400L400,243.465L165.197,400L204.742,426.362z M400.072,282.223
		c21.359,0,38.674,17.314,38.674,38.674c0,21.359-17.314,38.673-38.674,38.673s-38.674-17.314-38.674-38.673
		C361.398,299.537,378.715,282.223,400.072,282.223z"/>
	<path fill="#259245" d="M305.54,494.764L203.487,426.73l0.334-0.768c9.874-22.65,32.204-37.286,56.889-37.286
		c18.55,0,35.938,8.181,47.787,22.463c0.69-0.027,1.383-0.043,2.08-0.043c19.248,0,37.081,11.1,45.612,28.332h48.141
		c2.769-52.175,45.654-92.903,98.049-92.903c46.286,0,86.706,32.86,96.109,78.133l0.137,0.661l-104.163,69.442H305.54z"/>
	<path fill="#259245" d="M502.379,347.527c-52.242,0-94.844,41.216-97.096,92.903h-49.719
		c-8.036-16.758-25.159-28.332-44.987-28.332c-0.85,0-1.694,0.023-2.534,0.064c-11.2-13.721-28.239-22.485-47.333-22.485
		c-25.055,0-46.562,15.097-55.972,36.685l101.104,67.401h188.316l103.35-68.9C588.339,380.712,549.251,347.527,502.379,347.527z"/>
	<path d="M787.097,129.032H116.129c-7.126,0-12.903,5.777-12.903,12.903s5.777,12.903,12.903,12.903h658.064v490.322H25.807V154.839
		h38.709c7.126,0,12.903-5.777,12.903-12.903s-5.777-12.903-12.903-12.903H12.903C5.777,129.032,0,134.81,0,141.936v516.129
		c0,7.128,5.777,12.903,12.903,12.903h774.193c7.126,0,12.903-5.775,12.903-12.903V141.936
		C800,134.81,794.223,129.032,787.097,129.032z"/>
	<circle fill="#FFE000" cx="400.072" cy="320.896" r="38.674"/>
</g>
</svg>
