<?xml version="1.0" encoding="utf-8"?>
<!-- Generator: Adobe Illustrator 16.0.0, SVG Export Plug-In . SVG Version: 6.00 Build 0)  -->
<!DOCTYPE svg PUBLIC "-//W3C//DTD SVG 1.1//EN" "http://www.w3.org/Graphics/SVG/1.1/DTD/svg11.dtd">
<svg version="1.1" id="Capa_1" xmlns="http://www.w3.org/2000/svg" xmlns:xlink="http://www.w3.org/1999/xlink" x="0px" y="0px"
	 width="800px" height="800px" viewBox="0 0 800 800" enable-background="new 0 0 800 800" xml:space="preserve">
<g>
	<path fill="#ED1F34" d="M644.161,401v-1c0-6.563-5.34-11.903-11.903-11.903H403.604L52.217,153.839h722.976v234.258h-91.322
		c-6.563,0-11.903,5.34-11.903,11.903v1H644.161z"/>
	<path fill="#ED1F34" d="M683.871,387.097h90.322V154.839H55.52l348.387,232.258h228.351c7.128,0,12.903,5.777,12.903,12.903h25.807
		C670.968,392.872,676.743,387.097,683.871,387.097z"/>
	<path fill="#103B9B" d="M52.217,646.161l351.387-234.258h228.653c6.563,0,11.903-5.34,11.903-11.903v-1h27.807v1
		c0,6.563,5.34,11.903,11.903,11.903h91.322v234.258H52.217z"/>
	<path fill="#103B9B" d="M683.871,412.903c-7.128,0-12.903-5.775-12.903-12.903h-25.807c0,7.128-5.775,12.903-12.903,12.903H403.907
		L55.52,645.161h718.673V412.903H683.871z"/>
	<path fill="#FFFFFF" d="M25.807,166.044v467.91L376.738,400L25.807,166.044z M124.005,314.593h52.335
		c7.126,0,12.903,5.777,12.903,12.903v85.371c0,4.393-2.235,8.483-5.931,10.857l-26.167,16.811
		c-2.123,1.364-4.549,2.046-6.973,2.046c-2.426,0-4.85-0.682-6.975-2.046l-26.167-16.811c-3.696-2.374-5.929-6.465-5.929-10.857
		v-85.371C111.102,320.37,116.879,314.593,124.005,314.593z M150.173,486.021c-47.432,0-86.021-38.589-86.021-86.021
		c0-7.126,5.777-12.903,12.903-12.903S89.958,392.874,89.958,400c0,33.202,27.012,60.215,60.215,60.215s60.215-27.013,60.215-60.215
		c0-7.126,5.777-12.903,12.903-12.903s12.903,5.777,12.903,12.903C236.194,447.433,197.605,486.021,150.173,486.021z"/>
	<polygon fill="#3DB4EA" points="135.908,406.364 135.908,339.399 164.439,339.399 164.439,406.364 150.173,415.528 	"/>
	<polygon fill="#3DB4EA" points="136.908,405.818 150.173,414.34 163.439,405.818 163.439,340.399 136.908,340.399 	"/>
	<path fill="#ED1F34" d="M111.102,412.867c0,4.393,2.233,8.483,5.929,10.857l26.167,16.811c2.125,1.364,4.549,2.046,6.975,2.046
		c2.424,0,4.85-0.682,6.973-2.046l26.167-16.811c3.695-2.374,5.931-6.465,5.931-10.857v-85.371c0-7.126-5.777-12.903-12.903-12.903
		h-52.335c-7.126,0-12.903,5.777-12.903,12.903V412.867z M163.439,340.399v65.419l-13.264,8.521l-13.265-8.521v-65.419H163.439z"/>
	<path fill="#FFE000" d="M223.291,387.097c-7.126,0-12.903,5.777-12.903,12.903c0,33.202-27.012,60.215-60.215,60.215
		S89.958,433.202,89.958,400c0-7.126-5.777-12.903-12.903-12.903S64.151,392.874,64.151,400c0,47.433,38.589,86.021,86.021,86.021
		s86.021-38.589,86.021-86.021C236.194,392.872,230.417,387.097,223.291,387.097z"/>
	<path d="M787.097,129.032H12.903c-0.007,0-0.014,0-0.019,0c-0.43,0-0.86,0.021-1.289,0.065c-0.213,0.022-0.421,0.063-0.631,0.096
		c-0.201,0.031-0.404,0.052-0.604,0.093c-0.291,0.058-0.573,0.136-0.855,0.213c-0.119,0.033-0.239,0.057-0.358,0.093
		c-0.258,0.079-0.509,0.175-0.76,0.27c-0.143,0.053-0.288,0.098-0.429,0.156c-0.206,0.086-0.404,0.186-0.605,0.282
		c-0.181,0.086-0.365,0.167-0.542,0.262c-0.149,0.081-0.291,0.174-0.437,0.258c-0.218,0.129-0.438,0.253-0.652,0.396
		c-0.098,0.067-0.189,0.141-0.286,0.21c-0.246,0.175-0.492,0.351-0.726,0.542c-0.065,0.053-0.124,0.113-0.188,0.168
		c-0.251,0.215-0.502,0.434-0.738,0.671c-0.091,0.091-0.174,0.194-0.264,0.289c-0.194,0.207-0.392,0.41-0.574,0.631
		c-0.274,0.332-0.53,0.68-0.771,1.038c-0.003,0.003-0.007,0.008-0.008,0.012c-0.033,0.048-0.057,0.1-0.09,0.15
		c-0.198,0.306-0.389,0.618-0.563,0.943c-0.065,0.122-0.117,0.248-0.179,0.37c-0.126,0.255-0.251,0.509-0.361,0.774
		c-0.072,0.174-0.129,0.353-0.193,0.528c-0.079,0.217-0.162,0.432-0.229,0.656c-0.067,0.22-0.117,0.446-0.172,0.669
		c-0.044,0.182-0.096,0.363-0.132,0.55c-0.055,0.275-0.089,0.552-0.127,0.828c-0.019,0.143-0.044,0.282-0.06,0.425
		c-0.035,0.354-0.048,0.709-0.053,1.063c0,0.065-0.009,0.132-0.009,0.201v0.04c0,0.016,0,0.033,0,0.048v515.95
		c0,0.017,0,0.032,0,0.048v0.04c0,0.068,0.009,0.134,0.01,0.203c0.005,0.354,0.019,0.71,0.053,1.064
		c0.014,0.143,0.042,0.284,0.061,0.425c0.036,0.277,0.072,0.553,0.125,0.827c0.038,0.188,0.089,0.369,0.134,0.555
		c0.055,0.222,0.105,0.445,0.17,0.666c0.067,0.224,0.151,0.441,0.232,0.662c0.064,0.174,0.119,0.349,0.191,0.521
		c0.11,0.268,0.239,0.526,0.367,0.784c0.059,0.118,0.11,0.241,0.172,0.357c0.177,0.332,0.372,0.652,0.576,0.966
		c0.028,0.041,0.048,0.086,0.076,0.127c0.001,0.004,0.005,0.005,0.007,0.009c0.278,0.416,0.585,0.811,0.908,1.19
		c0.1,0.119,0.207,0.228,0.312,0.343c0.224,0.246,0.456,0.481,0.698,0.71c0.134,0.126,0.267,0.25,0.406,0.368
		c0.256,0.221,0.523,0.427,0.796,0.626c0.115,0.085,0.224,0.176,0.342,0.257c0.387,0.265,0.792,0.508,1.209,0.729
		c0.102,0.054,0.205,0.098,0.308,0.147c0.334,0.167,0.674,0.322,1.023,0.46c0.133,0.052,0.267,0.1,0.401,0.146
		c0.331,0.116,0.666,0.222,1.008,0.313c0.138,0.036,0.273,0.074,0.413,0.106c0.351,0.081,0.707,0.144,1.068,0.194
		c0.129,0.02,0.258,0.045,0.387,0.061c0.444,0.05,0.895,0.078,1.352,0.081c0.036,0,0.072,0.007,0.11,0.007
		c0.008,0,0.015-0.002,0.024-0.002h774.154c7.128,0,12.903-5.775,12.903-12.903V141.934
		C800,134.808,794.225,129.032,787.097,129.032z M25.807,166.044L376.738,400L25.807,633.954V166.044z M55.52,645.161
		l348.387-232.258h228.351c7.128,0,12.903-5.775,12.903-12.903c0-7.126-5.775-12.903-12.903-12.903H403.907L55.52,154.839h718.673
		v232.258h-90.322c-7.128,0-12.903,5.777-12.903,12.903c0,7.128,5.775,12.903,12.903,12.903h90.322v232.258H55.52z"/>
</g>
</svg>
