<?xml version="1.0" encoding="utf-8"?>
<!-- Generator: Adobe Illustrator 16.0.0, SVG Export Plug-In . SVG Version: 6.00 Build 0)  -->
<!DOCTYPE svg PUBLIC "-//W3C//DTD SVG 1.1//EN" "http://www.w3.org/Graphics/SVG/1.1/DTD/svg11.dtd">
<svg version="1.1" id="Capa_1" xmlns="http://www.w3.org/2000/svg" xmlns:xlink="http://www.w3.org/1999/xlink" x="0px" y="0px"
	 width="800px" height="800px" viewBox="0 0 800 800" enable-background="new 0 0 800 800" xml:space="preserve">
<g>
	<path fill="#164FCE" d="M644.161,487.021v-1c0-6.563-5.34-11.903-11.903-11.903H24.807V325.882h144.962l0.01,0.99
		c0.396,38.863,32.182,62.468,61.796,71.6c1.137,0.351,2.317,0.528,3.507,0.528s2.37-0.178,3.508-0.528
		c29.614-9.132,61.4-32.737,61.796-71.6l0.01-0.99h474.796v148.236h-91.322c-6.563,0-11.903,5.34-11.903,11.903v1H644.161z"/>
	<path fill="#164FCE" d="M683.871,473.118h90.322V326.882H301.387c-0.401,39.375-32.468,63.284-62.501,72.545
		c-1.239,0.382-2.521,0.573-3.802,0.573s-2.563-0.191-3.802-0.573c-30.034-9.261-62.101-33.17-62.501-72.545H25.807v146.236h606.451
		c7.128,0,12.903,5.777,12.903,12.903h25.807C670.968,478.896,676.743,473.118,683.871,473.118z"/>
	<path fill="#ED1F34" d="M24.807,646.161V497.925h607.451c6.563,0,11.903-5.34,11.903-11.903v-1h27.807v1
		c0,6.563,5.34,11.903,11.903,11.903h91.322v148.236H24.807z"/>
	<path fill="#ED1F34" d="M683.871,498.925c-7.128,0-12.903-5.777-12.903-12.903h-25.807c0,7.126-5.775,12.903-12.903,12.903H25.807
		v146.236h748.387V498.925H683.871z"/>
	<path fill="#FFFFFF" d="M168.762,301.075V240.86c0-7.126,5.775-12.903,12.903-12.903h106.838c7.128,0,12.903,5.777,12.903,12.903
		v60.215h472.786V154.839H25.807v146.236H168.762z"/>
	<path d="M787.097,129.032H12.903C5.775,129.032,0,134.81,0,141.936v516.129c0,7.126,5.775,12.903,12.903,12.903h774.193
		c7.128,0,12.903-5.777,12.903-12.903V141.936C800,134.81,794.225,129.032,787.097,129.032z M774.193,154.839v146.236H301.405
		V240.86c0-7.126-5.775-12.903-12.903-12.903H181.664c-7.127,0-12.903,5.777-12.903,12.903v60.215H25.807V154.839H774.193z
		 M275.599,313.979v12.164c0,29.171-27.427,42.606-40.516,47.348c-13.087-4.741-40.516-18.176-40.516-47.348v-12.164v-60.215h81.032
		V313.979L275.599,313.979z M25.807,645.161V498.925h606.451c7.128,0,12.903-5.777,12.903-12.903s-5.775-12.903-12.903-12.903
		H25.807V326.882h142.975c0.401,39.375,32.468,63.284,62.501,72.545c1.239,0.382,2.521,0.573,3.802,0.573s2.563-0.191,3.802-0.573
		c30.034-9.261,62.101-33.17,62.502-72.545h472.805v146.236h-90.322c-7.128,0-12.903,5.777-12.903,12.903
		s5.775,12.903,12.903,12.903h90.322v146.236H25.807z"/>
	<rect x="193.568" y="252.764" fill="#164FCE" width="83.033" height="62.215"/>
	<rect x="194.568" y="253.764" fill="#164FCE" width="81.033" height="60.215"/>
	<path fill="#FFFFFF" d="M194.568,326.142c0,29.171,27.427,42.606,40.517,47.348c13.087-4.741,40.516-18.176,40.516-47.348v-12.164
		h-81.033V326.142z"/>
</g>
</svg>
