<?xml version="1.0" encoding="utf-8"?>
<!-- Generator: Adobe Illustrator 16.0.0, SVG Export Plug-In . SVG Version: 6.00 Build 0)  -->
<!DOCTYPE svg PUBLIC "-//W3C//DTD SVG 1.1//EN" "http://www.w3.org/Graphics/SVG/1.1/DTD/svg11.dtd">
<svg version="1.1" id="Capa_1" xmlns="http://www.w3.org/2000/svg" xmlns:xlink="http://www.w3.org/1999/xlink" x="0px" y="0px"
	 width="800px" height="800px" viewBox="0 0 800 800" enable-background="new 0 0 800 800" xml:space="preserve">
<g>
	<path fill="#164FCE" d="M24.806,153.835h676.458L24.806,604.809V153.835z M231.392,327.03c-13.678,0-24.806,11.128-24.806,24.806
		c0,13.678,11.128,24.806,24.806,24.806c13.678,0,24.806-11.128,24.806-24.806C256.198,338.158,245.07,327.03,231.392,327.03z
		 M110.965,327.03c-13.678,0-24.806,11.128-24.806,24.806c0,13.678,11.128,24.806,24.806,24.806s24.806-11.128,24.806-24.806
		C135.771,338.158,124.643,327.03,110.965,327.03z M171.178,270.258c-13.678,0-24.806,11.128-24.806,24.806
		s11.128,24.806,24.806,24.806c13.678,0,24.806-11.128,24.806-24.806S184.856,270.258,171.178,270.258z M231.392,213.485
		c-13.678,0-24.806,11.128-24.806,24.806c0,13.678,11.128,24.806,24.806,24.806c13.678,0,24.806-11.128,24.806-24.806
		C256.198,224.613,245.07,213.485,231.392,213.485z M110.965,213.485c-13.678,0-24.806,11.128-24.806,24.806
		c0,13.678,11.128,24.806,24.806,24.806s24.806-11.128,24.806-24.806C135.771,224.613,124.643,213.485,110.965,213.485z"/>
	<path fill="#164FCE" d="M697.961,154.835H25.806V602.94L697.961,154.835z M231.392,212.485c14.251,0,25.806,11.554,25.806,25.806
		c0,14.252-11.554,25.806-25.806,25.806c-14.252,0-25.806-11.554-25.806-25.806C205.586,224.039,217.14,212.485,231.392,212.485z
		 M231.392,326.03c14.251,0,25.806,11.554,25.806,25.806c0,14.252-11.554,25.806-25.806,25.806
		c-14.252,0-25.806-11.554-25.806-25.806C205.586,337.584,217.14,326.03,231.392,326.03z M171.178,269.258
		c14.252,0,25.806,11.554,25.806,25.806c0,14.251-11.554,25.806-25.806,25.806c-14.251,0-25.806-11.554-25.806-25.806
		C145.373,280.812,156.927,269.258,171.178,269.258z M110.965,212.485c14.252,0,25.806,11.554,25.806,25.806
		c0,14.252-11.554,25.806-25.806,25.806c-14.251,0-25.806-11.554-25.806-25.806C85.159,224.039,96.713,212.485,110.965,212.485z
		 M110.965,326.03c14.252,0,25.806,11.554,25.806,25.806c0,14.252-11.554,25.806-25.806,25.806
		c-14.251,0-25.806-11.554-25.806-25.806C85.159,337.584,96.713,326.03,110.965,326.03z"/>
	<circle fill="#FFFFFF" cx="110.965" cy="238.291" r="25.806"/>
	<circle fill="#FFFFFF" cx="171.178" cy="295.063" r="25.806"/>
	<circle fill="#FFFFFF" cx="231.392" cy="238.291" r="25.806"/>
	<circle fill="#FFFFFF" cx="110.965" cy="351.836" r="25.806"/>
	<circle fill="#FFFFFF" cx="231.392" cy="351.836" r="25.806"/>
	<path fill="#259245" d="M98.737,646.162l580.417-386.947c2.646-1.764,4.445-4.451,5.069-7.568c0.624-3.118-0.005-6.292-1.769-8.937
		l-0.555-0.832l23.137-15.423l0.555,0.832c2.213,3.319,5.919,5.301,9.915,5.301c2.35,0,4.629-0.692,6.59-2l53.096-35.398v450.974
		H98.737z"/>
	<path fill="#259245" d="M722.651,231.418c-2.198,1.467-4.687,2.169-7.145,2.169c-4.17,0-8.262-2.018-10.747-5.746l-21.473,14.314
		c3.954,5.93,2.351,13.94-3.578,17.892L102.04,645.162h672.153V197.057L722.651,231.418z"/>
	<path fill="#FFE000" d="M24.806,646.162V633.42l719.371-479.585h31.016v12.743l-66.302,44.201
		c-2.645,1.763-4.445,4.451-5.068,7.569c-0.624,3.118,0.004,6.292,1.768,8.937l0.555,0.832l-23.137,15.425l-0.555-0.832
		c-2.212-3.319-5.919-5.301-9.915-5.301c-2.349,0-4.627,0.692-6.59,2L55.821,646.162H24.806z"/>
	<path fill="#FFE000" d="M704.758,227.839c-3.953-5.929-2.35-13.94,3.578-17.892l65.856-43.904v-11.208h-29.713L25.806,633.955
		v11.207h29.713l609.875-406.586c5.929-3.952,13.94-2.35,17.892,3.579l0,0L704.758,227.839L704.758,227.839z"/>
	<path d="M800,172.993v-31.062c0-7.125-5.775-12.903-12.903-12.903H12.903C5.775,129.029,0,134.806,0,141.932v485.034
		c0,0.014,0,0.025,0,0.039v31.06c0,7.126,5.775,12.903,12.903,12.903H59.41c0.008,0,0.019,0.002,0.027,0.002
		c0.009,0,0.016-0.002,0.024-0.002h727.635c7.128,0,12.903-5.777,12.903-12.903V173.033C800,173.021,800,173.007,800,172.993z
		 M102.04,645.162l577.669-385.115c5.929-3.952,7.532-11.964,3.578-17.892l0,0c-3.953-5.929-11.963-7.53-17.892-3.579
		L55.519,645.162H25.806v-11.207l718.676-479.12h29.713v11.208l-65.856,43.904c-5.929,3.952-7.532,11.963-3.578,17.892l0,0
		c2.485,3.728,6.577,5.746,10.747,5.746c2.46,0,4.946-0.702,7.145-2.169l51.543-34.361v448.107H102.04z M697.961,154.835
		L25.806,602.942V154.835H697.961z"/>
</g>
</svg>
