<?xml version="1.0" encoding="utf-8"?>
<!-- Generator: Adobe Illustrator 16.0.0, SVG Export Plug-In . SVG Version: 6.00 Build 0)  -->
<!DOCTYPE svg PUBLIC "-//W3C//DTD SVG 1.1//EN" "http://www.w3.org/Graphics/SVG/1.1/DTD/svg11.dtd">
<svg version="1.1" id="Capa_1" xmlns="http://www.w3.org/2000/svg" xmlns:xlink="http://www.w3.org/1999/xlink" x="0px" y="0px"
	 width="800px" height="800px" viewBox="0 0 800 800" enable-background="new 0 0 800 800" xml:space="preserve">
<g>
	<path fill="#FFFFFF" d="M64.516,326.882H25.807v146.236h748.387V326.882H116.129c-7.126,0-12.903-5.777-12.903-12.903H77.419
		C77.419,321.104,71.642,326.882,64.516,326.882z M339.563,385.197c1.651-5.083,6.267-8.623,11.605-8.898l27.081-1.399l9.7-25.325
		c1.911-4.991,6.704-8.287,12.05-8.287s10.139,3.296,12.05,8.287l9.7,25.325l27.081,1.399c5.339,0.277,9.954,3.814,11.606,8.898
		c1.651,5.084-0.002,10.66-4.159,14.021l-21.087,17.051l7.038,26.19c1.387,5.161-0.552,10.646-4.877,13.788
		c-2.256,1.64-4.919,2.465-7.586,2.465c-2.442,0-4.891-0.693-7.034-2.087L400,441.839l-22.732,14.787
		c-4.479,2.916-10.295,2.765-14.62-0.378c-4.325-3.142-6.264-8.625-4.877-13.788l7.038-26.19l-21.087-17.051
		C339.564,395.859,337.911,390.283,339.563,385.197z"/>
	<path fill="#333333" d="M406.49,416.468c-1.936-1.261-4.18-1.927-6.49-1.927s-4.555,0.666-6.489,1.926l-3.719,2.417l1.151-4.282
		c1.221-4.542-0.354-9.387-4.011-12.345l-3.449-2.786l4.428-0.23c4.698-0.245,8.82-3.24,10.501-7.631l1.586-4.138l1.586,4.137
		c1.683,4.393,5.805,7.389,10.502,7.631l4.428,0.23l-3.449,2.787c-3.656,2.956-5.23,7.802-4.01,12.344l1.151,4.282L406.49,416.468z"
		/>
	<path fill="#333333" d="M387.562,401.479c3.967,3.208,5.672,8.454,4.348,13.382l-0.474,1.762l1.529-0.994
		c2.139-1.393,4.589-2.088,7.035-2.088s4.896,0.695,7.035,2.088l1.529,0.994l-0.474-1.762c-1.324-4.928,0.381-10.175,4.348-13.382
		l1.418-1.146l-1.82-0.095c-5.096-0.263-9.559-3.506-11.384-8.272L400,390.266l-0.652,1.702c-1.825,4.766-6.288,8.007-11.384,8.272
		l-1.82,0.095L387.562,401.479z"/>
	<path d="M343.722,399.219l21.087,17.051l-7.038,26.19c-1.387,5.161,0.552,10.646,4.877,13.788
		c4.325,3.143,10.139,3.294,14.62,0.378L400,441.839l22.732,14.787c2.144,1.394,4.59,2.087,7.034,2.087
		c2.667,0,5.33-0.824,7.586-2.465c4.325-3.142,6.264-8.625,4.877-13.788l-7.038-26.19l21.087-17.051
		c4.157-3.361,5.811-8.938,4.158-14.021c-1.651-5.083-6.267-8.623-11.605-8.898l-27.081-1.398l-9.7-25.325
		c-1.911-4.991-6.704-8.288-12.05-8.288s-10.139,3.296-12.05,8.288l-9.7,25.325l-27.081,1.398
		c-5.339,0.277-9.954,3.814-11.606,8.898C337.911,390.283,339.564,395.859,343.722,399.219z M399.348,391.969l0.652-1.702
		l0.652,1.702c1.825,4.766,6.288,8.007,11.384,8.271l1.82,0.095l-1.418,1.146c-3.967,3.208-5.672,8.454-4.348,13.382l0.474,1.762
		l-1.529-0.995c-2.139-1.392-4.589-2.087-7.035-2.087s-4.896,0.695-7.035,2.087l-1.529,0.995l0.474-1.762
		c1.324-4.928-0.381-10.176-4.348-13.382l-1.418-1.146l1.82-0.095C393.06,399.976,397.522,396.735,399.348,391.969z"/>
	<path fill="#259245" d="M76.419,314.979v-1c0-6.563-5.34-11.903-11.903-11.903H24.807V153.839h750.387v148.236H116.129
		c-6.563,0-11.903,5.34-11.903,11.903v1H76.419z M496.752,261.862c-6.563,0-11.903,5.34-11.903,11.903s5.34,11.903,11.903,11.903
		h13.805c0.586,0,1.182-0.047,1.77-0.141l0.111-0.011c20.248-0.935,36.109-17.555,36.109-37.836v-65.531
		c0-6.563-5.34-11.903-11.903-11.903s-11.903,5.34-11.903,11.903v65.531c0,7.758-6.313,14.07-14.072,14.07
		c-0.498,0-1.005,0.035-1.508,0.103l-0.067,0.009H496.752z M456.86,174.318c-6.563,0-11.903,5.34-11.903,11.903v87.544
		c0,6.563,5.34,11.903,11.903,11.903s11.903-5.34,11.903-11.903v-87.544C468.764,179.658,463.424,174.318,456.86,174.318z
		 M263.367,257.298c-3.924,0-7.593,1.928-9.815,5.156c-1.803,2.619-2.478,5.784-1.901,8.91c0.578,3.127,2.338,5.842,4.958,7.645
		c6.234,4.292,13.541,6.594,21.129,6.659h0.095c0.588,0,1.183-0.047,1.769-0.141l0.056-0.009l0.056-0.002
		c16.281-0.748,30.211-11.813,34.666-27.537l0.206-0.728h19.208c6.563,0,11.903-5.34,11.903-11.903s-5.34-11.903-11.903-11.903
		h-17.964v-51.296c0-6.563-5.34-11.903-11.903-11.903s-11.903,5.34-11.903,11.903v65.531c0,7.758-6.312,14.07-14.07,14.07
		c-0.35,0-0.697,0.016-1.043,0.049l-0.095,0.009l-0.094-0.009c-2.374-0.224-4.662-1.054-6.616-2.4
		C268.109,258.024,265.779,257.298,263.367,257.298z M386.063,275.814c6.526,5.874,14.905,9.321,23.594,9.705
		c0.634,0.083,1.184,0.121,1.727,0.121c3.196,0,6.206-1.259,8.475-3.546c2.235-2.252,3.452-5.254,3.427-8.454
		c-0.025-3.195-1.285-6.191-3.546-8.436c-2.246-2.228-5.224-3.455-8.385-3.455c-7.688,0-13.997-6.256-14.065-13.946l-0.009-1.009
		h14.074c6.563,0,11.902-5.34,11.902-11.903s-5.34-11.903-11.902-11.903H385.38c-6.563,0-11.903,5.34-11.903,11.903v12.788
		c0,7.758-6.313,14.07-14.072,14.07c-3.161,0-6.139,1.227-8.384,3.456l-0.107,0.107c-4.632,4.597-4.635,12.123-0.011,16.782
		c2.233,2.25,5.225,3.489,8.423,3.489c0.307,0,0.619-0.011,0.926-0.035c9.069-0.214,17.741-3.67,24.474-9.735l0.669-0.603
		L386.063,275.814z M264.034,170.246c-6.563,0-11.903,5.34-11.903,11.903v35.539c0,6.563,5.339,11.903,11.903,11.903
		s11.903-5.34,11.903-11.903v-35.539C275.938,175.585,270.598,170.246,264.034,170.246z M496.752,174.318
		c-6.563,0-11.903,5.34-11.903,11.903v18.804c0,6.563,5.34,11.903,11.903,11.903s11.903-5.34,11.903-11.903v-18.804
		C508.655,179.658,503.315,174.318,496.752,174.318z M343.817,170.246c-6.563,0-11.903,5.34-11.903,11.903v17.689
		c0,6.563,5.34,11.903,11.903,11.903s11.903-5.34,11.903-11.903v-17.689C355.721,175.585,350.381,170.246,343.817,170.246z
		 M383.695,174.221c-2.267,0-4.479,0.649-6.398,1.876c-5.53,3.536-7.154,10.911-3.619,16.441
		c6.095,9.534,16.06,15.225,26.657,15.225c10.592,0,20.558-5.688,26.657-15.217c1.715-2.677,2.283-5.862,1.603-8.968
		c-0.682-3.106-2.531-5.761-5.209-7.475c-1.921-1.23-4.135-1.88-6.404-1.88c-4.086,0-7.838,2.051-10.038,5.486
		c-0.819,1.278-3.103,4.248-6.608,4.248c-3.513,0-5.784-2.967-6.598-4.242C391.539,176.275,387.784,174.221,383.695,174.221z"/>
	<path fill="#259245" d="M64.516,301.075c7.126,0,12.903,5.777,12.903,12.903h25.806c0-7.126,5.777-12.903,12.903-12.903h658.064
		V154.839H25.807v146.236H64.516z M483.849,186.221c0-7.126,5.777-12.903,12.903-12.903s12.903,5.777,12.903,12.903v18.804
		c0,7.126-5.777,12.903-12.903,12.903s-12.903-5.777-12.903-12.903V186.221z M496.752,260.862h12.273
		c0.544-0.074,1.094-0.112,1.643-0.112c7.207,0,13.072-5.863,13.072-13.07v-65.531c0-7.126,5.777-12.903,12.903-12.903
		s12.903,5.777,12.903,12.903v65.531c0,20.828-16.467,37.884-37.063,38.835c-0.639,0.102-1.282,0.153-1.927,0.153h-13.805
		c-7.126,0-12.903-5.777-12.903-12.903S489.626,260.862,496.752,260.862z M443.957,186.221c0-7.126,5.777-12.903,12.903-12.903
		s12.903,5.777,12.903,12.903v87.544c0,7.126-5.777,12.903-12.903,12.903s-12.903-5.777-12.903-12.903V186.221z M376.759,175.255
		c6.004-3.84,13.983-2.082,17.822,3.923c0.726,1.137,2.74,3.78,5.755,3.78c3.016,0,5.037-2.649,5.767-3.787
		c3.843-6.001,11.824-7.75,17.823-3.909c6.001,3.842,7.753,11.823,3.909,17.824c-6.285,9.819-16.566,15.678-27.499,15.678
		c-10.94,0-21.221-5.865-27.5-15.687C368.998,187.073,370.755,179.093,376.759,175.255z M372.477,247.68v-12.788
		c0-7.126,5.777-12.903,12.903-12.903h25.974c7.126,0,12.902,5.777,12.902,12.903s-5.776,12.903-12.902,12.903h-13.065
		c0.063,7.153,5.897,12.955,13.065,12.955c3.404,0,6.672,1.347,9.089,3.746c5.058,5.02,5.146,13.246,0.125,18.304
		c-2.535,2.555-5.863,3.841-9.185,3.841c-0.592,0-1.184-0.041-1.771-0.122c-9.294-0.411-17.731-4.122-24.219-9.961
		c-6.679,6.016-15.442,9.763-25.065,9.989c-0.333,0.026-0.671,0.038-1.004,0.038c-3.313,0-6.624-1.257-9.133-3.785
		c-5.02-5.058-5.046-13.172,0.013-18.192l0.111-0.112c2.417-2.398,5.685-3.746,9.089-3.746
		C366.613,260.75,372.477,254.887,372.477,247.68z M330.914,182.149c0-7.126,5.777-12.903,12.903-12.903s12.903,5.777,12.903,12.903
		v17.689c0,7.126-5.777,12.903-12.903,12.903s-12.903-5.777-12.903-12.903V182.149z M251.131,182.149
		c0-7.126,5.777-12.903,12.903-12.903c7.126,0,12.903,5.777,12.903,12.903v35.539c0,7.126-5.777,12.903-12.903,12.903
		c-7.126,0-12.903-5.777-12.903-12.903V182.149z M252.728,261.887c4.042-5.872,12.074-7.355,17.944-3.312
		c1.829,1.26,3.935,2.02,6.142,2.229c0.378-0.036,0.757-0.054,1.139-0.054c7.207,0,13.07-5.863,13.07-13.07v-65.531
		c0-7.126,5.777-12.903,12.903-12.903s12.903,5.777,12.903,12.903v50.296h16.964c7.126,0,12.903,5.777,12.903,12.903
		s-5.777,12.903-12.903,12.903h-18.452c-4.463,15.756-18.606,27.484-35.582,28.263c-0.637,0.102-1.282,0.153-1.927,0.153
		c-0.035,0-0.069,0-0.104,0c-7.788-0.067-15.29-2.431-21.688-6.835C250.169,275.792,248.687,267.757,252.728,261.887z"/>
	<rect x="24.807" y="497.925" fill="#ED1F34" width="750.387" height="148.236"/>
	<rect x="25.807" y="498.925" fill="#ED1F34" width="748.387" height="146.236"/>
	<path d="M787.097,129.032H12.903C5.777,129.032,0,134.81,0,141.936v516.129c0,7.126,5.777,12.903,12.903,12.903h774.193
		c7.126,0,12.903-5.777,12.903-12.903V141.936C800,134.81,794.223,129.032,787.097,129.032z M774.193,154.839v146.236H116.129
		c-7.126,0-12.903,5.777-12.903,12.903s5.777,12.903,12.903,12.903h658.064v146.236H25.807V326.882h38.709
		c7.126,0,12.903-5.777,12.903-12.903s-5.777-12.903-12.903-12.903H25.807V154.839H774.193z M25.807,645.161V498.925h748.387
		v146.236H25.807z"/>
	<path fill="#FFFFFF" d="M350.204,264.607c-5.059,5.02-5.032,13.134-0.013,18.192c2.509,2.527,5.817,3.785,9.133,3.785
		c0.335,0,0.671-0.012,1.004-0.038c9.623-0.226,18.385-3.973,25.065-9.989c6.487,5.839,14.925,9.548,24.219,9.961
		c0.587,0.081,1.18,0.122,1.771,0.122c3.321,0,6.649-1.287,9.185-3.842c5.021-5.058,4.933-13.283-0.125-18.303
		c-2.417-2.398-5.685-3.746-9.089-3.746c-7.168,0-13.002-5.801-13.065-12.955h13.065c7.126,0,12.902-5.777,12.902-12.903
		s-5.776-12.903-12.902-12.903H385.38c-7.126,0-12.903,5.777-12.903,12.903v12.788c0,7.207-5.863,13.07-13.07,13.07
		c-3.404,0-6.672,1.347-9.089,3.746L350.204,264.607z"/>
	<path fill="#FFFFFF" d="M256.04,279.832c6.4,4.406,13.899,6.77,21.688,6.835c0.034,0,0.068,0,0.103,0
		c0.645,0,1.291-0.051,1.927-0.153c16.977-0.779,31.121-12.508,35.582-28.263h18.452c7.126,0,12.903-5.777,12.903-12.903
		s-5.777-12.903-12.903-12.903h-16.964v-50.297c0-7.126-5.776-12.903-12.903-12.903c-7.125,0-12.903,5.777-12.903,12.903v65.531
		c0,7.207-5.863,13.07-13.07,13.07c-0.38,0-0.761,0.019-1.139,0.053c-2.209-0.208-4.313-0.969-6.142-2.228
		c-5.87-4.043-13.904-2.558-17.944,3.312C248.687,267.757,250.169,275.792,256.04,279.832z"/>
	<path fill="#FFFFFF" d="M496.752,286.668h13.805c0.645,0,1.29-0.052,1.927-0.153c20.597-0.951,37.063-18.006,37.063-38.835v-65.531
		c0-7.126-5.777-12.903-12.903-12.903s-12.903,5.777-12.903,12.903v65.531c0,7.207-5.863,13.07-13.072,13.07
		c-0.549,0-1.099,0.038-1.643,0.112h-12.273c-7.126,0-12.903,5.777-12.903,12.903S489.626,286.668,496.752,286.668z"/>
	<path fill="#FFFFFF" d="M400.336,208.764c10.933,0,21.214-5.861,27.499-15.678c3.842-6,2.092-13.982-3.909-17.824
		c-5.999-3.84-13.98-2.092-17.823,3.909c-0.729,1.139-2.751,3.787-5.767,3.787c-3.015,0-5.029-2.643-5.755-3.78
		c-3.837-6.004-11.818-7.763-17.822-3.923c-6.005,3.838-7.761,11.818-3.923,17.822C379.115,202.899,389.396,208.764,400.336,208.764
		z"/>
	<path fill="#FFFFFF" d="M456.86,286.668c7.126,0,12.903-5.777,12.903-12.903v-87.544c0-7.126-5.777-12.903-12.903-12.903
		s-12.903,5.777-12.903,12.903v87.544C443.957,280.891,449.734,286.668,456.86,286.668z"/>
	<path fill="#FFFFFF" d="M496.752,217.929c7.126,0,12.903-5.777,12.903-12.903v-18.804c0-7.126-5.777-12.903-12.903-12.903
		s-12.903,5.777-12.903,12.903v18.804C483.849,212.151,489.626,217.929,496.752,217.929z"/>
	<path fill="#FFFFFF" d="M264.034,230.591c7.126,0,12.903-5.777,12.903-12.903v-35.539c0-7.126-5.777-12.903-12.903-12.903
		c-7.126,0-12.903,5.777-12.903,12.903v35.539C251.131,224.814,256.908,230.591,264.034,230.591z"/>
	<path fill="#FFFFFF" d="M343.817,212.742c7.126,0,12.903-5.777,12.903-12.903v-17.689c0-7.126-5.777-12.903-12.903-12.903
		s-12.903,5.777-12.903,12.903v17.689C330.914,206.964,336.691,212.742,343.817,212.742z"/>
</g>
</svg>
