<?xml version="1.0" encoding="utf-8"?>
<!-- Generator: Adobe Illustrator 16.0.0, SVG Export Plug-In . SVG Version: 6.00 Build 0)  -->
<!DOCTYPE svg PUBLIC "-//W3C//DTD SVG 1.1//EN" "http://www.w3.org/Graphics/SVG/1.1/DTD/svg11.dtd">
<svg version="1.1" id="Capa_1" xmlns="http://www.w3.org/2000/svg" xmlns:xlink="http://www.w3.org/1999/xlink" x="0px" y="0px"
	 width="800px" height="800px" viewBox="0 0 800 800" enable-background="new 0 0 800 800" xml:space="preserve">
<g>
	<path fill="#ED1F34" d="M288.348,444.021l41.853-34.877c2.722-2.27,4.284-5.603,4.284-9.145c0-3.542-1.562-6.876-4.284-9.145
		l-41.853-34.876h486.845v88.042H288.348z"/>
	<path fill="#ED1F34" d="M330.841,390.087c2.941,2.452,4.644,6.083,4.644,9.913c0,3.83-1.702,7.461-4.644,9.913l-39.73,33.108
		h483.083v-86.042H291.11L330.841,390.087z"/>
	<polygon fill="#259245" points="45.78,646.161 223.664,497.925 775.193,497.925 775.193,646.161 	"/>
	<polygon fill="#259245" points="224.026,498.925 48.542,645.161 774.193,645.161 774.193,498.925 	"/>
	<path fill="#333333" d="M223.664,302.075L45.78,153.839H563.44c6.563,0,11.903-5.34,11.903-11.903v-1h27.807v1
		c0,6.563,5.34,11.903,11.903,11.903h160.14v148.236H223.664z"/>
	<path fill="#333333" d="M563.44,154.839H48.542l175.484,146.236h550.167V154.839h-159.14c-7.128,0-12.903-5.775-12.903-12.903
		h-25.807C576.344,149.063,570.568,154.839,563.44,154.839z"/>
	<polygon fill="#FFFFFF" points="291.11,356.979 774.193,356.979 774.193,326.882 254.994,326.882 	"/>
	<polygon fill="#FFFFFF" points="254.994,473.118 774.193,473.118 774.193,443.021 291.11,443.021 	"/>
	<path fill="#164FCE" d="M24.807,167.35L303.988,400L24.807,632.65V167.35z M112.369,333.045c-1.249,0-2.486,0.196-3.678,0.584
		c-4.656,1.513-7.955,5.816-8.208,10.707l-1.693,32.803l-30.674,11.748c-4.572,1.751-7.645,6.219-7.645,11.116
		s3.072,9.365,7.645,11.116l30.674,11.747l1.693,32.803c0.252,4.891,3.551,9.193,8.208,10.706c1.188,0.387,2.425,0.583,3.677,0.583
		c3.612,0,6.987-1.61,9.258-4.419l20.653-25.543l31.722,8.525c1.007,0.271,2.046,0.408,3.086,0.408
		c3.801-0.001,7.402-1.835,9.633-4.908c2.879-3.962,3.019-9.381,0.349-13.485L169.159,400l17.91-27.537
		c2.67-4.104,2.53-9.524-0.349-13.485c-2.232-3.07-5.832-4.903-9.628-4.903c-1.042,0-2.082,0.137-3.091,0.409l-31.721,8.525
		l-20.653-25.543C119.355,334.656,115.981,333.045,112.369,333.045z"/>
	<path fill="#164FCE" d="M25.807,630.516L302.426,400L25.807,169.485V630.516z M187.529,358.39
		c3.143,4.325,3.292,10.139,0.378,14.619L170.352,400l17.556,26.99c2.914,4.479,2.765,10.293-0.378,14.618
		c-3.142,4.327-8.63,6.263-13.788,4.878l-31.093-8.356l-20.245,25.037c-2.495,3.085-6.207,4.79-10.035,4.79
		c-1.33,0-2.675-0.205-3.986-0.632c-5.084-1.651-8.623-6.268-8.898-11.605l-1.66-32.153l-30.066-11.515
		c-4.991-1.911-8.287-6.703-8.287-12.05c0-5.347,3.296-10.139,8.287-12.05l30.066-11.515l1.66-32.153
		c0.277-5.34,3.816-9.954,8.898-11.606c5.086-1.653,10.662,0.002,14.021,4.158l20.245,25.038l31.093-8.356
		C178.902,352.131,184.385,354.066,187.529,358.39z"/>
	<path fill="#FFE000" d="M122.164,413.908c-0.243-4.697-3.237-8.819-7.629-10.502l-8.883-3.403l8.882-3.402
		c4.392-1.681,7.387-5.803,7.629-10.502l0.491-9.499l5.98,7.396c2.271,2.808,5.645,4.418,9.259,4.418
		c1.041,0,2.079-0.137,3.086-0.408l9.188-2.468l-5.188,7.974c-2.563,3.943-2.563,9.038,0,12.98l5.188,7.974l-9.188-2.469
		c-1.007-0.271-2.046-0.407-3.086-0.407c-3.613,0-6.988,1.61-9.259,4.418l-5.98,7.396L122.164,413.908z"/>
	<path fill="#FFE000" d="M123.518,420.745l4.339-5.366c3.208-3.967,8.454-5.669,13.381-4.348l6.667,1.791l-3.764-5.785
		c-2.782-4.277-2.782-9.792,0-14.07l3.764-5.786l-6.667,1.791c-4.926,1.323-10.175-0.382-13.381-4.348l-4.339-5.366l-0.356,6.892
		c-0.263,5.098-3.504,9.561-8.27,11.384l-6.445,2.469l6.445,2.469c4.766,1.825,8.007,6.286,8.27,11.384L123.518,420.745z"/>
	<path d="M173.741,353.512l-31.093,8.356l-20.245-25.037c-3.36-4.157-8.936-5.812-14.021-4.158
		c-5.084,1.651-8.623,6.268-8.898,11.606l-1.66,32.153l-30.066,11.515c-4.991,1.911-8.287,6.703-8.287,12.05
		s3.296,10.138,8.287,12.05l30.066,11.515l1.66,32.152c0.277,5.341,3.816,9.955,8.898,11.606c1.311,0.427,2.655,0.632,3.986,0.632
		c3.828,0,7.541-1.705,10.035-4.79l20.245-25.037l31.093,8.355c5.158,1.386,10.646-0.55,13.788-4.877
		c3.143-4.325,3.292-10.139,0.378-14.618L170.352,400l17.556-26.99c2.914-4.48,2.765-10.293-0.378-14.618
		C184.385,354.066,178.902,352.131,173.741,353.512z M114.892,402.469L108.447,400l6.445-2.469c4.766-1.825,8.007-6.287,8.27-11.384
		l0.356-6.892l4.339,5.366c3.207,3.967,8.458,5.67,13.381,4.348l6.667-1.791l-3.764,5.786c-2.782,4.277-2.782,9.791,0,14.07
		l3.764,5.785l-6.667-1.791c-4.927-1.32-10.173,0.383-13.381,4.348l-4.339,5.367l-0.356-6.893
		C122.899,408.756,119.658,404.293,114.892,402.469z"/>
	<path d="M787.097,129.032H615.054c-7.128,0-12.903,5.775-12.903,12.903s5.775,12.903,12.903,12.903h159.14v146.236H224.026
		L48.542,154.839H563.44c7.128,0,12.903-5.775,12.903-12.903s-5.775-12.903-12.903-12.903H12.986c-0.01,0-0.021,0-0.031,0h-0.052
		c-0.104,0-0.201,0.012-0.303,0.016c-0.313,0.007-0.626,0.017-0.936,0.046c-0.207,0.021-0.406,0.057-0.609,0.086
		c-0.21,0.031-0.422,0.055-0.63,0.096c-0.23,0.045-0.453,0.105-0.678,0.162c-0.181,0.044-0.361,0.086-0.541,0.139
		c-0.22,0.067-0.435,0.146-0.652,0.224c-0.181,0.064-0.363,0.124-0.54,0.198c-0.196,0.081-0.387,0.174-0.578,0.263
		s-0.384,0.177-0.571,0.275c-0.168,0.089-0.332,0.191-0.496,0.288c-0.199,0.117-0.399,0.232-0.592,0.359
		c-0.151,0.1-0.294,0.211-0.44,0.318c-0.192,0.139-0.385,0.277-0.571,0.428c-0.156,0.127-0.303,0.265-0.452,0.399
		c-0.167,0.143-0.331,0.282-0.487,0.436c-0.196,0.194-0.38,0.402-0.564,0.611c-0.089,0.102-0.188,0.192-0.275,0.297
		c-0.007,0.009-0.012,0.018-0.021,0.028c-0.273,0.329-0.532,0.671-0.771,1.025c-0.033,0.048-0.057,0.098-0.087,0.145
		c-0.2,0.306-0.393,0.616-0.568,0.939c-0.089,0.167-0.162,0.337-0.244,0.508c-0.102,0.21-0.21,0.416-0.301,0.633
		c-0.084,0.202-0.149,0.406-0.224,0.609c-0.069,0.192-0.146,0.384-0.207,0.58c-0.074,0.241-0.127,0.485-0.188,0.728
		c-0.041,0.165-0.091,0.327-0.124,0.495c-0.079,0.387-0.136,0.778-0.179,1.17c-0.003,0.029-0.01,0.057-0.012,0.084
		c-0.043,0.43-0.063,0.86-0.065,1.289C0.002,141.917,0,141.927,0,141.936v516.129c0,0.009,0.002,0.019,0.002,0.029
		c0,0.43,0.021,0.86,0.065,1.289c0.003,0.028,0.011,0.057,0.014,0.086c0.043,0.39,0.1,0.78,0.179,1.168
		c0.035,0.17,0.084,0.332,0.125,0.499c0.059,0.242,0.114,0.484,0.188,0.726c0.061,0.196,0.138,0.388,0.208,0.58
		c0.072,0.203,0.139,0.407,0.222,0.608c0.091,0.216,0.198,0.424,0.301,0.634c0.083,0.169,0.155,0.341,0.244,0.508
		c0.177,0.326,0.372,0.645,0.576,0.954c0.028,0.043,0.05,0.088,0.08,0.129c0.239,0.356,0.497,0.699,0.771,1.027
		c0.007,0.009,0.012,0.02,0.021,0.027c0.05,0.059,0.105,0.108,0.155,0.166c0.239,0.278,0.489,0.547,0.75,0.803
		c0.129,0.128,0.267,0.243,0.399,0.363c0.198,0.179,0.399,0.354,0.607,0.52c0.158,0.126,0.318,0.244,0.481,0.359
		c0.202,0.145,0.408,0.284,0.618,0.418c0.167,0.107,0.334,0.21,0.504,0.307c0.227,0.131,0.461,0.249,0.697,0.366
		c0.16,0.077,0.316,0.158,0.478,0.23c0.27,0.119,0.547,0.224,0.826,0.325c0.136,0.05,0.269,0.105,0.406,0.148
		c0.325,0.106,0.659,0.192,0.995,0.271c0.098,0.024,0.194,0.055,0.294,0.076c0.384,0.082,0.776,0.143,1.172,0.188
		c0.055,0.007,0.11,0.02,0.165,0.026c0.445,0.045,0.9,0.07,1.361,0.07h774.193c7.128,0,12.903-5.775,12.903-12.903V141.936
		C800,134.808,794.225,129.032,787.097,129.032z M774.193,356.979v86.042v30.097h-519.2l36.117-30.097l39.73-33.108
		c2.941-2.452,4.644-6.083,4.644-9.913c0-3.83-1.702-7.461-4.644-9.913l-39.73-33.108l-36.117-30.097h519.2V356.979z M302.426,400
		L25.807,630.516V169.485L302.426,400z M48.542,645.161l175.484-146.236h550.167v146.236H48.542z"/>
</g>
</svg>
