<?xml version="1.0" encoding="utf-8"?>
<!-- Generator: Adobe Illustrator 16.0.0, SVG Export Plug-In . SVG Version: 6.00 Build 0)  -->
<!DOCTYPE svg PUBLIC "-//W3C//DTD SVG 1.1//EN" "http://www.w3.org/Graphics/SVG/1.1/DTD/svg11.dtd">
<svg version="1.1" id="Capa_1" xmlns="http://www.w3.org/2000/svg" xmlns:xlink="http://www.w3.org/1999/xlink" x="0px" y="0px"
	 width="800px" height="800px" viewBox="0 0 800 800" enable-background="new 0 0 800 800" xml:space="preserve">
<g>
	<polygon fill="#164FCE" points="63.991,646.161 63.517,644.281 403.102,461.051 775.193,461.051 775.193,646.161 	"/>
	<polygon fill="#164FCE" points="63.991,645.161 774.193,645.161 774.193,462.051 403.354,462.051 	"/>
	<path fill="#ED1F34" d="M403.088,338.942L63.517,155.719l0.475-1.88h568.267c6.563,0,11.903-5.34,11.903-11.903v-1h27.807v1
		c0,6.563,5.34,11.903,11.903,11.903h91.322v185.104H403.088z"/>
	<path fill="#ED1F34" d="M632.258,154.839H63.991l339.35,183.104h370.853V154.839h-90.322c-7.126,0-12.903-5.775-12.903-12.903
		h-25.807C645.161,149.063,639.384,154.839,632.258,154.839z"/>
	<path fill="#048B7D" d="M24.807,547.031l253.082-136.555c3.855-2.081,6.25-6.096,6.25-10.477c0-4.38-2.395-8.395-6.25-10.477
		L24.807,252.968v-91.084L394.429,361.32c1.734,0.935,3.689,1.429,5.654,1.429h375.11v74.497H400.097
		c-1.968,0-3.923,0.493-5.654,1.427L24.807,638.116V547.031z"/>
	<path fill="#048B7D" d="M393.954,362.2L25.807,163.56v88.812l252.557,136.272c4.174,2.254,6.775,6.613,6.775,11.356
		s-2.601,9.104-6.775,11.356L25.807,547.628v88.813l368.161-198.647c1.883-1.016,3.988-1.547,6.129-1.547h374.097v-72.497h-374.11
		C397.944,363.749,395.838,363.215,393.954,362.2z"/>
	<polygon fill="#333333" points="24.807,280.021 247.169,400 24.807,519.979 	"/>
	<polygon fill="#333333" points="25.807,281.696 25.807,518.304 245.063,400 	"/>
	<path fill="#FFE000" d="M285.141,400c0-4.743-2.601-9.103-6.775-11.356L25.807,252.372v29.325L245.063,400L25.807,518.304v29.324
		l252.557-136.271C282.54,409.104,285.141,404.743,285.141,400z"/>
	<path fill="#FFFFFF" d="M63.991,154.839H25.807v8.721L393.954,362.2c1.883,1.015,3.988,1.547,6.129,1.547h374.11V337.94H403.341
		L63.991,154.839z"/>
	<path fill="#FFFFFF" d="M393.968,437.793L25.807,636.44v8.721h38.185l339.363-183.11h370.839v-25.807H400.095
		C397.956,436.244,395.851,436.777,393.968,437.793z"/>
	<path d="M787.097,129.032H683.871c-7.126,0-12.903,5.775-12.903,12.903s5.777,12.903,12.903,12.903h90.322v183.104v25.807v72.497
		v25.807v183.108H63.991H25.807v-8.721v-88.813v-29.324V281.696v-29.325V163.56v-8.721h38.185h568.267
		c7.126,0,12.903-5.775,12.903-12.903s-5.777-12.903-12.903-12.903H12.903C5.777,129.032,0,134.808,0,141.936v516.129
		c0,7.128,5.777,12.903,12.903,12.903h774.193c7.126,0,12.903-5.775,12.903-12.903V141.936
		C800,134.808,794.223,129.032,787.097,129.032z"/>
</g>
</svg>
