<?xml version="1.0" encoding="utf-8"?>
<!-- Generator: Adobe Illustrator 16.0.0, SVG Export Plug-In . SVG Version: 6.00 Build 0)  -->
<!DOCTYPE svg PUBLIC "-//W3C//DTD SVG 1.1//EN" "http://www.w3.org/Graphics/SVG/1.1/DTD/svg11.dtd">
<svg version="1.1" id="Capa_1" xmlns="http://www.w3.org/2000/svg" xmlns:xlink="http://www.w3.org/1999/xlink" x="0px" y="0px"
	 width="800px" height="800px" viewBox="0 0 800 800" enable-background="new 0 0 800 800" xml:space="preserve">
<g>
	<path fill="#BF2300" d="M424.807,607.451V192.548h311.678v414.903H424.807z M664.226,454.054v37.989
		c0,6.563,5.34,11.903,11.903,11.903s11.903-5.34,11.903-11.903v-94.624c0-24.588-20.004-44.591-44.592-44.591h-45.707v-15.182
		c0-22.935-18.658-41.593-41.593-41.593c-22.934,0-41.592,18.658-41.592,41.593v154.396c0,6.563,5.34,11.903,11.902,11.903
		c6.563,0,11.903-5.34,11.903-11.903v-37.989h77.699v37.989c0,6.563,5.34,11.903,11.903,11.903s11.903-5.34,11.903-11.903v-37.989
		H664.226z M485.161,335.624c-6.563,0-11.903,5.34-11.903,11.903v94.624c0,6.563,5.34,11.903,11.903,11.903
		s11.903-5.34,11.903-11.903v-94.624C497.064,340.963,491.725,335.624,485.161,335.624z"/>
	<path fill="#BF2300" d="M735.484,193.548H425.807v412.903h309.678V193.548z M498.064,442.15c0,7.126-5.775,12.903-12.903,12.903
		s-12.903-5.777-12.903-12.903v-94.624c0-7.126,5.775-12.903,12.903-12.903s12.903,5.777,12.903,12.903V442.15z M689.032,442.15
		v49.893c0,7.126-5.775,12.903-12.903,12.903s-12.903-5.777-12.903-12.903v-36.989H640.86v36.989
		c0,7.126-5.775,12.903-12.903,12.903s-12.903-5.777-12.903-12.903v-36.989h-75.699v36.989c0,7.126-5.775,12.903-12.903,12.903
		c-7.127,0-12.902-5.777-12.902-12.903V442.15V337.646c0-23.486,19.105-42.593,42.592-42.593c23.487,0,42.593,19.107,42.593,42.593
		v14.182h44.707c25.14,0,45.592,20.452,45.592,45.591V442.15z"/>
	<path fill="#FFE000" d="M24.807,646.161V153.839h39.709c6.563,0,11.903-5.34,11.903-11.903v-1h27.806v1
		c0,6.563,5.34,11.903,11.903,11.903h659.064v492.322H24.807z M734.484,605.451V194.548H426.807v410.903H734.484z M373.193,605.451
		V194.548H65.516v410.903H373.193z"/>
	<path fill="#FFE000" d="M64.516,154.839H25.807v490.322h748.387V154.839H116.129c-7.127,0-12.903-5.777-12.903-12.903H77.419
		C77.419,149.062,71.644,154.839,64.516,154.839z M425.807,193.548h309.678v412.903H425.807V193.548z M219.355,193.548h154.838
		v412.903H219.355H64.516V193.548H219.355z"/>
	<path d="M787.097,129.032H116.129c-7.127,0-12.903,5.777-12.903,12.903s5.776,12.903,12.903,12.903h658.064v490.322H25.807V154.839
		h38.709c7.128,0,12.903-5.777,12.903-12.903s-5.775-12.903-12.903-12.903H12.903C5.775,129.032,0,134.81,0,141.936v516.129
		c0,7.126,5.775,12.903,12.903,12.903h774.193c7.128,0,12.903-5.777,12.903-12.903V141.936
		C800,134.81,794.225,129.032,787.097,129.032z"/>
	<rect x="64.516" y="193.548" fill="#134923" width="154.839" height="412.903"/>
	<rect x="219.355" y="193.548" fill="#FF7900" width="154.838" height="412.903"/>
	<path d="M485.161,334.624c-7.128,0-12.903,5.777-12.903,12.903v94.624c0,7.126,5.775,12.903,12.903,12.903
		s12.903-5.777,12.903-12.903v-94.624C498.064,340.401,492.289,334.624,485.161,334.624z"/>
	<path fill="#FFE000" d="M538.354,430.247v-92.601c0-9.807,7.979-17.786,17.786-17.786s17.787,7.979,17.787,17.786v27.085
		c0,6.563,5.34,11.903,11.902,11.903h57.61c11.461,0,20.785,9.324,20.785,20.785v32.828H538.354z"/>
	<path fill="#FFE000" d="M663.226,397.419c0-10.909-8.876-19.785-19.785-19.785h-57.61c-7.127,0-12.902-5.777-12.902-12.903v-27.085
		c0-9.256-7.531-16.786-16.787-16.786s-16.786,7.53-16.786,16.786v91.601h123.871V397.419L663.226,397.419z"/>
	<path d="M643.44,351.828h-44.707v-14.182c0-23.486-19.104-42.593-42.593-42.593c-23.486,0-42.592,19.107-42.592,42.593V442.15
		v49.893c0,7.126,5.775,12.903,12.902,12.903c7.128,0,12.903-5.777,12.903-12.903v-36.989h75.699v36.989
		c0,7.126,5.775,12.903,12.903,12.903s12.903-5.777,12.903-12.903v-36.989h22.365v36.989c0,7.126,5.775,12.903,12.903,12.903
		s12.903-5.777,12.903-12.903V442.15v-44.731C689.032,372.28,668.58,351.828,643.44,351.828z M539.354,429.247v-91.601
		c0-9.256,7.53-16.786,16.786-16.786s16.787,7.53,16.787,16.786v27.085c0,7.126,5.775,12.903,12.902,12.903h57.61
		c10.909,0,19.785,8.876,19.785,19.785v31.828H539.354z"/>
</g>
</svg>
