<?xml version="1.0" encoding="utf-8"?>
<!-- Generator: Adobe Illustrator 16.0.0, SVG Export Plug-In . SVG Version: 6.00 Build 0)  -->
<!DOCTYPE svg PUBLIC "-//W3C//DTD SVG 1.1//EN" "http://www.w3.org/Graphics/SVG/1.1/DTD/svg11.dtd">
<svg version="1.1" id="Capa_1" xmlns="http://www.w3.org/2000/svg" xmlns:xlink="http://www.w3.org/1999/xlink" x="0px" y="0px"
	 width="800px" height="800px" viewBox="0 0 800 800" enable-background="new 0 0 800 800" xml:space="preserve">
<g>
	<path fill="#FFFFFF" d="M64.516,154.839H25.807v490.322h748.387V154.839H116.129c-7.127,0-12.903-5.777-12.903-12.903H77.419
		C77.419,149.062,71.644,154.839,64.516,154.839z M530.484,565.337c-6.351,3.232-14.119,0.7-17.351-5.653l-12.607-24.793
		c-25.459,28.312-61.721,44.712-100.526,44.712s-75.067-16.402-100.526-44.712l-12.607,24.793c-3.231,6.354-11,8.886-17.351,5.653
		c-6.352-3.229-8.882-10.999-5.653-17.351l21.875-43.016c2.092-4.112,6.217-6.794,10.825-7.037
		c4.628-0.242,8.994,1.994,11.503,5.865c20.306,31.309,54.674,49.999,91.937,49.999s71.63-18.69,91.937-49.999
		c2.51-3.871,6.892-6.101,11.502-5.865c4.607,0.243,8.733,2.925,10.825,7.037l21.875,43.016
		C539.367,554.338,536.836,562.105,530.484,565.337z M570.364,284.378c4.911-2.727,11.022-1.966,15.112,1.886
		c4.089,3.85,5.218,9.904,2.79,14.971l-30.487,63.625c0.308-0.014,0.612-0.038,0.922-0.046c0.113-0.002,0.229-0.003,0.342-0.003
		c21.305,0,38.636-17.339,38.636-38.648c0-7.126,5.776-12.903,12.903-12.903h68.105c0.005,0,0.01,0,0.017,0h29.294
		c7.128,0,12.903,5.777,12.903,12.903s-5.775,12.903-12.903,12.903h-17.046c-4.612,48.044-34.738,89.465-78.954,108.621
		l23.665,57.356c0.874,1.739,1.364,3.702,1.364,5.782c0,7.126-5.775,12.903-12.903,12.903c-0.009,0-0.021,0-0.034,0h-65.048
		c-7.128,0-12.903-5.777-12.903-12.903v-49.89c-20.483-5.93-35.171-24.671-35.171-47.084c0-8.926,2.34-17.265,6.435-24.449
		l30.09-62.796l-17.355,9.641c-6.227,3.46-14.087,1.218-17.547-5.013c-3.46-6.229-1.216-14.085,5.014-17.545L570.364,284.378z
		 M291.832,239.148c3.21-1.153,6.441-2.235,9.681-3.283c0.143-0.048,0.276-0.108,0.421-0.151c0.067-0.021,0.135-0.031,0.201-0.05
		c31.532-10.125,64.399-15.269,97.865-15.269s66.331,5.145,97.865,15.269c0.066,0.019,0.134,0.031,0.201,0.05
		c0.145,0.043,0.28,0.103,0.422,0.151c3.239,1.048,6.469,2.13,9.681,3.283c6.706,2.409,10.191,9.798,7.781,16.506
		c-1.893,5.266-6.853,8.545-12.145,8.545c-0.287,0-0.576-0.017-0.867-0.036l-11.639,38.47v97.409
		c0,15.212-2.317,28.511-6.114,40.098c-0.014,0.044-0.027,0.088-0.041,0.131c-8.434,25.637-24.112,42.858-37.963,53.769
		c-21.54,16.967-43.178,22.45-44.088,22.676c-1.018,0.251-2.057,0.377-3.097,0.377c-1.041,0-2.08-0.126-3.098-0.377
		c-0.91-0.226-22.548-5.707-44.087-22.676c-13.85-10.91-29.53-28.132-37.964-53.769c-0.014-0.043-0.027-0.087-0.041-0.131
		c-3.797-11.587-6.114-24.886-6.114-40.098v-97.409l-11.641-38.474c-5.606,0.38-11.014-2.951-13.01-8.504
		C281.64,248.948,285.125,241.557,291.832,239.148z M92.002,313.259h29.293c0.005,0,0.01,0,0.017,0h68.105
		c7.128,0,12.903,5.777,12.903,12.903c0,21.311,17.332,38.648,38.636,38.648c0.114,0,0.229,0.001,0.342,0.003
		c0.31,0.008,0.614,0.034,0.922,0.046l-30.488-63.625c-2.428-5.067-1.299-11.121,2.791-14.971
		c4.091-3.851,10.204-4.613,15.112-1.886l52.76,29.311c6.23,3.461,8.473,11.317,5.014,17.545
		c-3.463,6.229-11.317,8.473-17.547,5.013l-17.356-9.641l30.09,62.796c4.097,7.185,6.435,15.521,6.435,24.449
		c0,22.413-14.688,41.154-35.172,47.084v49.89c0,7.126-5.775,12.903-12.903,12.903h-65.048c-4.306,0-8.329-2.149-10.723-5.728
		c-2.395-3.578-2.846-8.117-1.203-12.097l24.019-58.218c-44.215-19.155-74.342-60.574-78.954-108.621H92.002
		c-7.128,0-12.903-5.777-12.903-12.903S84.874,313.259,92.002,313.259z"/>
	<path d="M787.097,129.032H116.129c-7.127,0-12.903,5.777-12.903,12.903s5.776,12.903,12.903,12.903h658.064v490.322H25.807V154.839
		h38.709c7.128,0,12.903-5.777,12.903-12.903s-5.775-12.903-12.903-12.903H12.903C5.775,129.032,0,134.81,0,141.936v516.129
		c0,7.126,5.775,12.903,12.903,12.903h774.193c7.128,0,12.903-5.777,12.903-12.903V141.936
		C800,134.81,794.225,129.032,787.097,129.032z"/>
	<path d="M92.002,339.066h17.046c4.612,48.044,34.739,89.465,78.954,108.621l-24.019,58.218c-1.643,3.979-1.19,8.519,1.203,12.097
		c2.396,3.58,6.417,5.728,10.723,5.728h65.048c7.128,0,12.903-5.777,12.903-12.903v-49.89c20.485-5.93,35.172-24.671,35.172-47.084
		c0-8.926-2.34-17.265-6.435-24.449l-30.09-62.796l17.356,9.642c6.229,3.459,14.085,1.216,17.546-5.014
		c3.46-6.229,1.216-14.085-5.013-17.545l-52.76-29.311c-4.91-2.727-11.021-1.964-15.112,1.886c-4.089,3.85-5.218,9.905-2.791,14.971
		l30.488,63.625c-0.308-0.014-0.613-0.038-0.922-0.046c-0.113-0.002-0.229-0.003-0.342-0.003c-21.304,0-38.636-17.339-38.636-38.648
		c0-7.126-5.775-12.903-12.903-12.903h-68.105c-0.005,0-0.01,0-0.017,0H92.002c-7.128,0-12.903,5.777-12.903,12.903
		S84.874,339.066,92.002,339.066z M263.226,413.852c0,12.688-9.932,22.89-22.613,23.228c-6.99,0.186-12.561,5.906-12.561,12.899
		v47.943h-32.862l21.753-52.727c1.38-3.343,1.293-7.11-0.239-10.386s-4.368-5.759-7.817-6.844
		c-40.509-12.741-68.964-47.581-73.906-88.902h42.83c5.98,29.314,31.921,51.457,62.945,51.551
		C253.37,391.026,263.226,401.204,263.226,413.852z"/>
	<path fill="#FFFFFF" d="M177.812,339.064h-42.83c4.943,41.321,33.397,76.161,73.906,88.902c3.45,1.084,6.285,3.568,7.818,6.844
		c1.533,3.275,1.617,7.043,0.239,10.386l-21.753,52.727h32.862v-47.943c0-6.992,5.569-12.712,12.561-12.899
		c12.68-0.338,22.613-10.54,22.613-23.228c0-12.647-9.856-22.825-22.471-23.235C209.731,390.521,183.79,368.378,177.812,339.064z"/>
	<path d="M512.59,331.236c3.462,6.231,11.32,8.473,17.547,5.013l17.355-9.641l-30.09,62.795c-4.097,7.185-6.435,15.522-6.435,24.45
		c0,22.413,14.688,41.153,35.173,47.084v49.89c0,7.126,5.775,12.902,12.903,12.902h65.047c0.015,0,0.026,0,0.035,0
		c7.127,0,12.903-5.776,12.903-12.902c0-2.079-0.491-4.044-1.365-5.783L612,447.688c44.215-19.155,74.342-60.575,78.954-108.621H708
		c7.128,0,12.903-5.777,12.903-12.903c0-7.126-5.775-12.903-12.903-12.903h-29.294c-0.005,0-0.01,0-0.017,0h-68.105
		c-7.128,0-12.903,5.777-12.903,12.903c0,21.311-17.331,38.648-38.636,38.648c-0.113,0-0.229,0.002-0.342,0.003
		c-0.311,0.009-0.614,0.035-0.923,0.046l30.488-63.625c2.428-5.066,1.299-11.121-2.791-14.971c-4.089-3.85-10.2-4.612-15.112-1.885
		l-52.76,29.311C511.374,317.151,509.132,325.006,512.59,331.236z M665.019,339.064c-4.942,41.321-33.397,76.161-73.906,88.902
		c-3.449,1.084-6.285,3.568-7.817,6.844c-1.533,3.275-1.617,7.043-0.239,10.386l21.753,52.727h-32.862v-47.943
		c0-6.992-5.568-12.712-12.561-12.899c-12.68-0.338-22.613-10.54-22.613-23.228c0-12.647,9.856-22.825,22.471-23.235
		c31.024-0.096,56.965-22.238,62.945-51.551h42.83V339.064z"/>
	<path fill="#FFFFFF" d="M559.245,390.615c-12.614,0.411-22.471,10.589-22.471,23.236c0,12.688,9.932,22.89,22.613,23.228
		c6.99,0.186,12.561,5.906,12.561,12.899v47.943h32.862l-21.753-52.727c-1.38-3.343-1.294-7.11,0.239-10.386
		c1.532-3.275,4.367-5.759,7.817-6.844c40.509-12.741,68.963-47.581,73.906-88.902h-42.83
		C616.21,368.378,590.27,390.521,559.245,390.615z"/>
	<path fill="#ED1F34" d="M336.207,424.465l-0.175-0.781c-1.677-7.497-2.527-15.451-2.527-23.642V380.44h132.992v19.602
		c0,8.195-0.851,16.149-2.528,23.642l-0.175,0.781H336.207z"/>
	<path fill="#ED1F34" d="M334.505,400.042c0,8.552,0.915,16.325,2.503,23.423h125.985c1.589-7.097,2.504-14.871,2.504-23.423V381.44
		H334.505V400.042L334.505,400.042z"/>
	<path fill="#164FCE" d="M399.69,491.691c-10.678-3.483-37.26-14.539-53.438-41.911l-0.892-1.509h109.281l-0.892,1.509
		c-16.182,27.376-42.762,38.43-53.439,41.911l-0.31,0.101L399.69,491.691z"/>
	<path fill="#164FCE" d="M347.112,449.271c16.262,27.513,43.564,38.428,52.888,41.469c9.323-3.04,36.626-13.956,52.888-41.469
		H347.112z"/>
	<polygon fill="#164FCE" points="333.503,356.634 333.503,312.621 373.469,312.621 373.564,312.625 373.679,312.621 
		426.298,312.621 426.391,312.625 426.505,312.621 466.495,312.621 466.495,356.634 	"/>
	<path fill="#164FCE" d="M426.505,313.621c-0.041,0-0.083,0.005-0.126,0.005c-0.037,0-0.077-0.005-0.115-0.005h-52.585
		c-0.037,0-0.079,0.005-0.116,0.005c-0.042,0-0.083-0.005-0.126-0.005h-38.934v42.013h130.992v-42.013H426.505z"/>
	<path fill="#FFE000" d="M330.436,288.814l-9.917-32.773l0.989-0.272c11.143-3.067,22.512-5.491,33.791-7.206l1.04-0.158
		l4.076,40.409H330.436z"/>
	<path fill="#FFE000" d="M321.773,256.733l9.404,31.082h28.131l-3.859-38.263C344.083,251.279,332.849,253.685,321.773,256.733z"/>
	<path fill="#FFE000" d="M384.34,288.814l-4.331-42.946l1.036-0.065c6.316-0.398,12.694-0.601,18.955-0.601
		c6.254,0,12.612,0.201,18.899,0.597l1.037,0.065l-4.333,42.95H384.34z"/>
	<path fill="#FFE000" d="M381.108,246.801l4.136,41.014h29.455l4.138-41.017c-6.252-0.394-12.531-0.595-18.837-0.595
		C393.678,246.202,387.377,246.405,381.108,246.801z"/>
	<path fill="#FFE000" d="M439.531,288.814l4.076-40.417l1.04,0.158c11.294,1.713,22.682,4.141,33.846,7.214l0.988,0.272
		l-9.915,32.773H439.531z"/>
	<path fill="#FFE000" d="M440.637,287.814h28.188l9.403-31.082c-11.093-3.054-22.347-5.462-33.73-7.189L440.637,287.814z"/>
	<path d="M297.058,264.158l11.64,38.474v97.409c0,15.212,2.317,28.511,6.114,40.098c0.014,0.043,0.028,0.088,0.042,0.131
		c8.434,25.636,24.111,42.857,37.963,53.769c21.54,16.967,43.178,22.449,44.088,22.675c1.017,0.251,2.056,0.377,3.097,0.377
		s2.08-0.126,3.097-0.377c0.91-0.226,22.548-5.706,44.088-22.675c13.849-10.911,29.529-28.133,37.963-53.769
		c0.014-0.043,0.027-0.088,0.041-0.131c3.797-11.587,6.114-24.886,6.114-40.098v-97.409l11.639-38.471
		c0.289,0.019,0.578,0.036,0.867,0.036c5.291,0,10.252-3.279,12.145-8.545c2.409-6.706-1.075-14.097-7.781-16.506
		c-3.211-1.152-6.441-2.234-9.681-3.282c-0.144-0.048-0.277-0.108-0.422-0.151c-0.067-0.021-0.134-0.031-0.201-0.05
		c-31.532-10.123-64.397-15.269-97.865-15.269s-66.333,5.144-97.864,15.269c-0.067,0.019-0.135,0.029-0.202,0.05
		c-0.145,0.043-0.28,0.103-0.421,0.151c-3.24,1.048-6.469,2.13-9.681,3.282c-6.706,2.409-10.192,9.798-7.781,16.506
		C286.044,261.208,291.451,264.539,297.058,264.158z M400,490.74c-9.323-3.04-36.626-13.956-52.888-41.469h105.775
		C436.626,476.784,409.323,487.7,400,490.74z M465.495,400.042c0,8.552-0.915,16.325-2.503,23.423H337.007
		c-1.588-7.097-2.504-14.871-2.504-23.423V381.44h130.992V400.042z M334.505,355.635v-42.013h38.934
		c0.041,0,0.082,0.005,0.125,0.005c0.038,0,0.079-0.005,0.117-0.005h52.585c0.038,0,0.078,0.005,0.115,0.005
		c0.041,0,0.083-0.005,0.126-0.005h38.99v42.013H334.505z M468.822,287.814h-28.186l3.86-38.271
		c11.384,1.726,22.638,4.134,33.73,7.189L468.822,287.814z M331.178,287.814l-9.404-31.082c11.074-3.048,22.31-5.454,33.676-7.181
		l3.859,38.263H331.178z M414.699,287.814h-29.455l-4.136-41.014c6.271-0.396,12.569-0.599,18.892-0.599
		c6.306,0,12.585,0.201,18.837,0.595L414.699,287.814z"/>
	<path fill="#FFE000" d="M514.263,504.971c-2.093-4.112-6.218-6.794-10.825-7.037c-4.61-0.237-8.992,1.994-11.503,5.865
		c-20.306,31.309-54.674,49.999-91.937,49.999s-71.63-18.69-91.937-49.999c-2.508-3.871-6.873-6.107-11.502-5.865
		c-4.607,0.243-8.733,2.925-10.825,7.037l-21.875,43.016c-3.229,6.352-0.698,14.121,5.653,17.351c6.35,3.232,14.12,0.7,17.351-5.653
		l12.607-24.793c25.459,28.312,61.721,44.712,100.526,44.712c38.807,0,75.068-16.402,100.527-44.712l12.607,24.793
		c3.23,6.352,11,8.886,17.35,5.653c6.353-3.229,8.883-10.999,5.653-17.351L514.263,504.971z"/>
</g>
</svg>
