<?xml version="1.0" encoding="utf-8"?>
<!-- Generator: Adobe Illustrator 16.0.0, SVG Export Plug-In . SVG Version: 6.00 Build 0)  -->
<!DOCTYPE svg PUBLIC "-//W3C//DTD SVG 1.1//EN" "http://www.w3.org/Graphics/SVG/1.1/DTD/svg11.dtd">
<svg version="1.1" id="Capa_1" xmlns="http://www.w3.org/2000/svg" xmlns:xlink="http://www.w3.org/1999/xlink" x="0px" y="0px"
	 width="800px" height="800px" viewBox="0 0 800 800" enable-background="new 0 0 800 800" xml:space="preserve">
<g>
	<path fill="#3DB4EA" d="M24.807,646.161V153.839h39.709c6.563,0,11.903-5.34,11.903-11.903v-1h27.806v1
		c0,6.563,5.34,11.903,11.903,11.903h659.064v492.322H24.807z M400,203.851c-4.783,0-9.083,2.844-10.954,7.245L232.392,579.587
		c-1.567,3.688-1.183,7.884,1.027,11.223c2.211,3.341,5.922,5.336,9.927,5.336h313.306c4.007,0,7.718-1.995,9.927-5.336
		c2.21-3.341,2.594-7.537,1.027-11.223L465.091,338.44c-1.871-4.404-6.173-7.249-10.959-7.249c-1.601,0-3.166,0.32-4.654,0.952
		l-0.92,0.391l-10.879-25.59l0.92-0.392c6.039-2.567,8.864-9.571,6.298-15.612l-33.942-79.843
		C409.084,206.694,404.784,203.851,400,203.851z"/>
	<path fill="#3DB4EA" d="M64.516,154.839H25.807v490.322h748.387V154.839H116.129c-7.127,0-12.903-5.775-12.903-12.903H77.419
		C77.419,149.063,71.644,154.839,64.516,154.839z M231.472,579.195l156.654-368.491c2.024-4.762,6.7-7.854,11.874-7.854
		c5.173,0,9.852,3.094,11.874,7.854l33.942,79.843c2.787,6.56-0.268,14.135-6.826,16.924l0,0l10.097,23.75l0,0
		c6.565-2.787,14.138,0.269,16.924,6.827l102.516,241.146c1.693,3.984,1.274,8.556-1.113,12.166
		c-2.388,3.611-6.429,5.784-10.761,5.784H243.346c-4.332,0-8.372-2.173-10.761-5.784
		C230.195,587.751,229.779,583.181,231.472,579.195z"/>
	<path d="M787.097,129.032H116.129c-7.127,0-12.903,5.775-12.903,12.903s5.776,12.903,12.903,12.903h658.064v490.322H25.807V154.839
		h38.709c7.128,0,12.903-5.775,12.903-12.903s-5.775-12.903-12.903-12.903H12.903C5.775,129.032,0,134.808,0,141.936v516.129
		c0,7.128,5.775,12.903,12.903,12.903h774.193c7.128,0,12.903-5.775,12.903-12.903V141.936
		C800,134.808,794.225,129.032,787.097,129.032z"/>
	<path fill="#FFFFFF" d="M422.068,300.647L400,248.734L267.475,560.466l44.83-44.177L400,310.008l87.695,206.281l44.829,44.177
		l-90.262-212.319c-2.787-6.56,0.269-14.134,6.824-16.924l-10.097-23.75C432.434,310.261,424.856,307.205,422.068,300.647z"/>
	<polygon fill="#333333" points="487.695,516.291 400,310.008 312.305,516.291 400,429.87 	"/>
	<polygon fill="#FFE000" points="261.341,572.341 266.632,559.893 400,428.466 533.367,559.893 538.659,572.341 	"/>
	<polygon fill="#FFE000" points="400,429.87 312.305,516.291 267.475,560.466 262.853,571.341 537.147,571.341 532.524,560.466 
		487.695,516.291 	"/>
	<path d="M243.346,597.147h313.306c4.332,0,8.371-2.173,10.761-5.784s2.808-8.183,1.113-12.167L466.013,338.049
		c-2.787-6.558-10.358-9.614-16.924-6.827l0,0c-6.557,2.791-9.612,10.364-6.825,16.924l90.261,212.319l4.623,10.873H262.853
		l4.623-10.873L400,248.734l22.068,51.913c2.788,6.56,10.365,9.614,16.924,6.827l0,0c6.558-2.789,9.613-10.364,6.826-16.924
		l-33.942-79.844c-2.024-4.762-6.701-7.854-11.874-7.854c-5.174,0-9.852,3.093-11.875,7.854l-156.653,368.49
		c-1.693,3.984-1.275,8.556,1.113,12.167C234.975,594.975,239.016,597.147,243.346,597.147z"/>
</g>
</svg>
