<?xml version="1.0" encoding="utf-8"?>
<!-- Generator: Adobe Illustrator 16.0.0, SVG Export Plug-In . SVG Version: 6.00 Build 0)  -->
<!DOCTYPE svg PUBLIC "-//W3C//DTD SVG 1.1//EN" "http://www.w3.org/Graphics/SVG/1.1/DTD/svg11.dtd">
<svg version="1.1" id="Capa_1" xmlns="http://www.w3.org/2000/svg" xmlns:xlink="http://www.w3.org/1999/xlink" x="0px" y="0px"
	 width="800px" height="800px" viewBox="0 0 800 800" enable-background="new 0 0 800 800" xml:space="preserve">
<g>
	<path fill="#FFE000" d="M224.376,646.161V153.839h351.248v39.709c0,6.563,5.34,11.903,11.903,11.903h1v27.806h-1
		c-6.563,0-11.903,5.34-11.903,11.903v401H224.376z M400,574.186l47.057-83.056L400,408.072l-47.057,83.058L400,574.186z
		 M342.527,472.425l47.057-83.055l-47.057-83.057L295.47,389.37L342.527,472.425z M457.473,472.425l47.057-83.055l-47.057-83.057
		l-47.057,83.057L457.473,472.425z"/>
	<path fill="#FFE000" d="M574.624,193.548v-38.709H225.376v490.322h349.248v-400c0-7.127,5.776-12.903,12.903-12.903v-25.806
		C580.4,206.452,574.624,200.676,574.624,193.548z M294.321,389.37l48.207-85.086l48.206,85.086l-48.206,85.083L294.321,389.37z
		 M400,576.214l-48.206-85.084L400,406.044l48.206,85.086L400,576.214z M457.473,474.453l-48.206-85.083l48.206-85.086
		l48.206,85.086L457.473,474.453z"/>
	<rect x="24.807" y="153.839" fill="#3DB4EA" width="175.763" height="492.322"/>
	<rect x="25.807" y="154.839" fill="#3DB4EA" width="173.763" height="490.322"/>
	<path fill="#259245" d="M599.43,646.161v-401c0-6.563-5.34-11.903-11.902-11.903h-1v-27.806h1c6.563,0,11.902-5.34,11.902-11.903
		v-39.709h175.764v492.322H599.43z"/>
	<path fill="#259245" d="M600.43,193.548c0,7.128-5.776,12.903-12.902,12.903v25.806c7.126,0,12.902,5.776,12.902,12.903v400
		h173.764V154.839H600.43V193.548z"/>
	<path d="M787.097,129.032H12.903C5.777,129.032,0,134.808,0,141.936v516.129c0,7.128,5.777,12.903,12.903,12.903h774.193
		c7.126,0,12.903-5.775,12.903-12.903V141.936C800,134.808,794.223,129.032,787.097,129.032z M774.193,645.161H600.43v-400
		c0-7.127-5.776-12.903-12.902-12.903c-7.127,0-12.903,5.776-12.903,12.903v400H225.376V154.839h349.248v38.709
		c0,7.128,5.776,12.903,12.903,12.903c7.126,0,12.902-5.775,12.902-12.903v-38.709h173.764V645.161z M25.807,154.839H199.57v490.322
		H25.807V154.839z"/>
	<polygon fill="#259245" points="351.794,491.13 400,576.214 448.206,491.13 400,406.044 	"/>
	<polygon fill="#259245" points="342.527,304.284 294.321,389.37 342.527,474.453 390.732,389.37 	"/>
	<polygon fill="#259245" points="409.268,389.37 457.473,474.453 505.679,389.37 457.473,304.284 	"/>
</g>
</svg>
