<?xml version="1.0" encoding="utf-8"?>
<!-- Generator: Adobe Illustrator 16.0.0, SVG Export Plug-In . SVG Version: 6.00 Build 0)  -->
<!DOCTYPE svg PUBLIC "-//W3C//DTD SVG 1.1//EN" "http://www.w3.org/Graphics/SVG/1.1/DTD/svg11.dtd">
<svg version="1.1" id="Capa_1" xmlns="http://www.w3.org/2000/svg" xmlns:xlink="http://www.w3.org/1999/xlink" x="0px" y="0px"
	 width="800px" height="800px" viewBox="0 0 800 800" enable-background="new 0 0 800 800" xml:space="preserve">
<g>
	<path fill="#FFFFFF" d="M774.193,326.882h-519.2l75.847,63.205c2.941,2.452,4.644,6.083,4.644,9.913
		c0,3.83-1.702,7.461-4.644,9.913l-75.847,63.205h519.2V326.882z"/>
	<polygon fill="#333333" points="45.78,646.161 223.664,497.925 775.193,497.925 775.193,646.161 	"/>
	<polygon fill="#333333" points="224.026,498.925 48.542,645.161 774.193,645.161 774.193,498.925 	"/>
	<path fill="#ED1F34" d="M223.664,302.075L45.78,153.839H563.44c6.563,0,11.903-5.34,11.903-11.903v-1h27.807v1
		c0,6.563,5.34,11.903,11.903,11.903h160.14v148.236H223.664z"/>
	<path fill="#ED1F34" d="M563.44,154.839H48.542l175.484,146.236h550.167V154.839h-159.14c-7.126,0-12.903-5.775-12.903-12.903
		h-25.807C576.344,149.063,570.566,154.839,563.44,154.839z"/>
	<polygon fill="#259245" points="24.807,167.35 303.988,400 24.807,632.65 	"/>
	<polygon fill="#259245" points="25.807,630.516 302.426,400 25.807,169.485 	"/>
	<path d="M787.097,129.032H615.054c-7.126,0-12.903,5.775-12.903,12.903s5.777,12.903,12.903,12.903h159.14v146.236H224.026
		L48.542,154.839H563.44c7.126,0,12.903-5.775,12.903-12.903s-5.777-12.903-12.903-12.903H12.986c-0.01,0-0.021,0-0.031,0h-0.052
		c-0.104,0-0.201,0.012-0.303,0.016c-0.313,0.007-0.625,0.017-0.936,0.046c-0.207,0.021-0.406,0.057-0.609,0.086
		c-0.21,0.031-0.422,0.055-0.63,0.096c-0.23,0.045-0.453,0.105-0.678,0.162c-0.181,0.044-0.361,0.086-0.541,0.139
		c-0.22,0.067-0.435,0.146-0.652,0.224c-0.181,0.064-0.363,0.124-0.54,0.198c-0.196,0.081-0.387,0.174-0.578,0.263
		s-0.384,0.177-0.571,0.275c-0.168,0.089-0.332,0.191-0.496,0.288c-0.199,0.117-0.399,0.232-0.592,0.359
		c-0.151,0.1-0.294,0.211-0.44,0.318c-0.192,0.139-0.385,0.277-0.571,0.428c-0.156,0.127-0.301,0.265-0.452,0.399
		c-0.167,0.143-0.331,0.282-0.487,0.436c-0.196,0.194-0.38,0.402-0.564,0.611c-0.089,0.102-0.188,0.192-0.275,0.297
		c-0.007,0.009-0.012,0.018-0.021,0.028c-0.273,0.329-0.532,0.671-0.771,1.025c-0.033,0.048-0.057,0.098-0.087,0.145
		c-0.2,0.306-0.393,0.616-0.568,0.939c-0.089,0.167-0.162,0.337-0.244,0.508c-0.102,0.21-0.21,0.416-0.301,0.633
		c-0.084,0.202-0.149,0.406-0.222,0.609c-0.069,0.192-0.146,0.384-0.208,0.58c-0.074,0.241-0.127,0.485-0.188,0.728
		c-0.041,0.165-0.091,0.327-0.124,0.495c-0.079,0.387-0.136,0.778-0.179,1.17c-0.003,0.029-0.01,0.057-0.012,0.084
		c-0.043,0.43-0.063,0.86-0.065,1.289C0.002,141.917,0,141.927,0,141.936v516.129c0,0.009,0.002,0.019,0.002,0.029
		c0,0.43,0.021,0.86,0.065,1.289c0.003,0.028,0.011,0.057,0.012,0.086c0.043,0.39,0.1,0.78,0.179,1.168
		c0.034,0.17,0.084,0.332,0.125,0.499c0.059,0.242,0.113,0.484,0.186,0.726c0.061,0.196,0.138,0.388,0.208,0.58
		c0.074,0.203,0.139,0.407,0.222,0.608c0.091,0.216,0.198,0.424,0.301,0.634c0.083,0.169,0.155,0.341,0.244,0.508
		c0.177,0.326,0.372,0.645,0.576,0.954c0.028,0.043,0.05,0.088,0.079,0.129c0.239,0.356,0.498,0.699,0.771,1.027
		c0.007,0.009,0.012,0.02,0.021,0.027c0.05,0.059,0.105,0.108,0.155,0.166c0.239,0.278,0.489,0.547,0.75,0.803
		c0.129,0.128,0.267,0.243,0.399,0.363c0.198,0.179,0.399,0.354,0.607,0.52c0.158,0.126,0.318,0.244,0.481,0.359
		c0.202,0.145,0.408,0.284,0.618,0.418c0.167,0.107,0.334,0.21,0.504,0.307c0.227,0.131,0.461,0.249,0.697,0.366
		c0.158,0.077,0.316,0.158,0.478,0.23c0.27,0.119,0.547,0.224,0.826,0.325c0.136,0.05,0.269,0.105,0.406,0.148
		c0.325,0.106,0.659,0.192,0.995,0.271c0.098,0.024,0.194,0.055,0.294,0.076c0.384,0.082,0.776,0.143,1.171,0.188
		c0.055,0.007,0.11,0.02,0.166,0.026c0.449,0.045,0.903,0.07,1.364,0.07h774.193c7.126,0,12.903-5.775,12.903-12.903V141.936
		C800,134.808,794.223,129.032,787.097,129.032z M330.841,409.913c2.941-2.452,4.644-6.083,4.644-9.913
		c0-3.83-1.702-7.461-4.644-9.913l-75.847-63.205h519.2v146.236h-519.2L330.841,409.913z M302.426,400L25.807,630.516V169.485
		L302.426,400z M48.542,645.161l175.484-146.236h550.167v146.236H48.542z"/>
</g>
</svg>
