<?xml version="1.0" encoding="utf-8"?>
<!-- Generator: Adobe Illustrator 16.0.0, SVG Export Plug-In . SVG Version: 6.00 Build 0)  -->
<!DOCTYPE svg PUBLIC "-//W3C//DTD SVG 1.1//EN" "http://www.w3.org/Graphics/SVG/1.1/DTD/svg11.dtd">
<svg version="1.1" id="Capa_1" xmlns="http://www.w3.org/2000/svg" xmlns:xlink="http://www.w3.org/1999/xlink" x="0px" y="0px"
	 width="800px" height="800px" viewBox="0 0 800 800" enable-background="new 0 0 800 800" xml:space="preserve">
<g>
	<rect x="24.807" y="153.839" fill="#164FCE" width="750.387" height="63.94"/>
	<rect x="25.807" y="154.839" fill="#164FCE" width="748.387" height="61.94"/>
	<rect x="24.807" y="582.221" fill="#164FCE" width="750.387" height="63.94"/>
	<rect x="25.807" y="583.221" fill="#164FCE" width="748.387" height="61.94"/>
	<path fill="#FFE000" d="M24.807,584.221v-31.242h39.709c6.563,0,11.903-5.34,11.903-11.903v-1h27.806v1
		c0,6.563,5.34,11.903,11.903,11.903h659.064v31.242H24.807z"/>
	<path fill="#FFE000" d="M774.193,553.979H116.129c-7.126,0-12.903-5.775-12.903-12.903H77.419c0,7.128-5.777,12.903-12.903,12.903
		H25.807v29.242h748.387V553.979z"/>
	<path fill="#B21727" d="M76.419,542.075v-1c0-6.563-5.34-11.903-11.903-11.903H24.807V270.828h750.387v258.344H116.129
		c-6.563,0-11.903,5.34-11.903,11.903v1H76.419z M127.262,388.097c-6.563,0-11.903,5.34-11.903,11.903s5.34,11.903,11.903,11.903
		h125.332l0.299,0.421c14.271,20.081,67.053,85.601,147.105,85.601c80.055,0,132.836-65.52,147.105-85.601l0.299-0.421h125.336
		c6.563,0,11.903-5.34,11.903-11.903s-5.34-11.903-11.903-11.903H547.402l-0.299-0.421c-4.253-5.984-11.405-15.3-21.32-25.695
		l-1.612-1.69h96.954c6.563,0,11.903-5.34,11.903-11.903s-5.34-11.903-11.903-11.903H497.137l-0.266-0.198
		c-30.528-22.701-63.12-34.211-96.871-34.211c-33.749,0-66.34,11.51-96.871,34.211l-0.266,0.198H178.875
		c-6.563,0-11.903,5.34-11.903,11.903s5.34,11.903,11.903,11.903h96.954l-1.612,1.69c-9.921,10.402-17.07,19.715-21.321,25.695
		l-0.299,0.421H127.262z"/>
	<path fill="#B21727" d="M116.129,528.172h658.064V271.828H25.807v256.344h38.709c7.126,0,12.903,5.775,12.903,12.903h25.806
		C103.226,533.947,109.003,528.172,116.129,528.172z M127.262,387.097h124.819c4.16-5.853,11.382-15.29,21.412-25.806h-94.618
		c-7.126,0-12.903-5.776-12.903-12.903c0-7.128,5.777-12.903,12.903-12.903h123.657c24.959-18.558,57.863-34.409,97.468-34.409
		s72.511,15.851,97.468,34.409h123.657c7.126,0,12.903,5.775,12.903,12.903c0,7.127-5.777,12.903-12.903,12.903h-94.618
		c10.031,10.517,17.252,19.953,21.412,25.806h124.819c7.126,0,12.903,5.775,12.903,12.903s-5.777,12.903-12.903,12.903H547.919
		c-14.695,20.68-67.503,86.021-147.921,86.021s-133.225-65.342-147.92-86.021H127.262c-7.126,0-12.903-5.775-12.903-12.903
		S120.136,387.097,127.262,387.097z"/>
	<path fill="#FFE000" d="M127.262,412.903h124.819c-2.392-3.363-3.775-5.548-4.104-6.073c-2.608-4.181-2.608-9.479,0-13.658
		c0.329-0.527,1.712-2.71,4.104-6.073H127.262c-7.126,0-12.903,5.775-12.903,12.903
		C114.359,407.129,120.136,412.903,127.262,412.903z"/>
	<path fill="#FFE000" d="M552.022,406.83c-0.329,0.526-1.712,2.71-4.104,6.073h124.819c7.126,0,12.903-5.775,12.903-12.903
		s-5.777-12.903-12.903-12.903H547.919c2.392,3.364,3.774,5.548,4.104,6.073C554.631,397.351,554.631,402.649,552.022,406.83z"/>
	<path fill="#FFE000" d="M302.532,335.484H178.875c-7.126,0-12.903,5.775-12.903,12.903c0,7.127,5.777,12.903,12.903,12.903h94.618
		C281.445,352.953,291.161,343.94,302.532,335.484z"/>
	<path fill="#FFE000" d="M526.507,361.291h94.618c7.126,0,12.903-5.776,12.903-12.903c0-7.128-5.777-12.903-12.903-12.903H497.468
		C508.84,343.94,518.555,352.953,526.507,361.291z"/>
	<rect x="24.807" y="215.779" fill="#FFE000" width="750.387" height="31.242"/>
	<rect x="25.807" y="216.779" fill="#FFE000" width="748.387" height="29.242"/>
	<path d="M787.097,129.032H12.903C5.777,129.032,0,134.808,0,141.936v516.129c0,7.128,5.777,12.903,12.903,12.903h774.193
		c7.126,0,12.903-5.775,12.903-12.903V141.936C800,134.808,794.223,129.032,787.097,129.032z M774.193,154.839v61.94v29.242H25.807
		v-29.242v-61.94H774.193z M25.807,645.161v-61.94v-29.242h38.709c7.126,0,12.903-5.775,12.903-12.903s-5.777-12.903-12.903-12.903
		H25.807V271.828h748.387v256.344H116.129c-7.126,0-12.903,5.775-12.903,12.903s5.777,12.903,12.903,12.903h658.064v29.242v61.94
		H25.807z"/>
	<path fill="#FFFFFF" d="M400,473.118c65.115,0,110.941-53.753,125.335-73.118C510.952,380.647,465.12,326.882,400,326.882V473.118
		L400,473.118z"/>
	<path fill="#333333" d="M400,474.118c-28.198,0-55.884-9.925-82.289-29.498c-21.563-15.984-36.728-34.443-43.849-44.023
		L273.419,400l0.443-0.597c7.122-9.582,22.289-28.043,43.854-44.028c26.403-19.57,54.087-29.494,82.284-29.494h1v148.236H400z"/>
	<path fill="#333333" d="M400,473.118V326.882c-65.115,0-110.942,53.753-125.335,73.118C289.049,419.354,334.88,473.118,400,473.118
		z"/>
	<path d="M247.978,406.83c0.329,0.526,1.712,2.71,4.104,6.073c14.696,20.68,67.503,86.021,147.921,86.021
		s133.225-65.342,147.921-86.021c2.392-3.363,3.774-5.548,4.103-6.073c2.608-4.181,2.608-9.479,0-13.658
		c-0.328-0.527-1.711-2.71-4.103-6.073c-4.16-5.853-11.383-15.29-21.413-25.807c-7.951-8.337-17.667-17.351-29.039-25.807
		c-24.958-18.558-57.863-34.408-97.468-34.408c-39.604,0-72.511,15.85-97.467,34.408c-11.372,8.456-21.087,17.47-29.04,25.807
		c-10.032,10.517-17.252,19.954-21.412,25.807c-2.392,3.363-3.775,5.548-4.104,6.073C245.37,397.351,245.37,402.649,247.978,406.83z
		 M274.665,400c14.393-19.365,60.22-73.118,125.335-73.118c65.12,0,110.95,53.765,125.335,73.118
		c-14.393,19.365-60.22,73.118-125.335,73.118C334.88,473.118,289.049,419.354,274.665,400z"/>
</g>
</svg>
