<?xml version="1.0" encoding="utf-8"?>
<!-- Generator: Adobe Illustrator 16.0.0, SVG Export Plug-In . SVG Version: 6.00 Build 0)  -->
<!DOCTYPE svg PUBLIC "-//W3C//DTD SVG 1.1//EN" "http://www.w3.org/Graphics/SVG/1.1/DTD/svg11.dtd">
<svg version="1.1" id="Capa_1" xmlns="http://www.w3.org/2000/svg" xmlns:xlink="http://www.w3.org/1999/xlink" x="0px" y="0px"
	 width="800px" height="800px" viewBox="0 0 800 800" enable-background="new 0 0 800 800" xml:space="preserve">
<g>
	<path fill="#FFFFFF" d="M683.871,326.882H25.807v146.236h748.387V326.882h-38.709c-7.128,0-12.903-5.777-12.903-12.903h-25.807
		C696.774,321.104,690.999,326.882,683.871,326.882z M325.498,397.038l-26.661,21.556l8.898,33.112
		c1.388,5.163-0.553,10.646-4.878,13.787c-2.257,1.64-4.917,2.464-7.583,2.464c-2.445,0-4.893-0.693-7.037-2.087l-28.74-18.694
		l-28.74,18.694c-4.483,2.914-10.295,2.765-14.62-0.377s-6.266-8.624-4.877-13.787l8.9-33.112l-26.662-21.556
		c-4.157-3.362-5.81-8.938-4.158-14.021c1.651-5.084,6.268-8.623,11.606-8.898l34.238-1.769l12.263-32.017
		c1.912-4.993,6.703-8.287,12.05-8.287s10.139,3.296,12.05,8.287l12.263,32.017l34.24,1.769c5.34,0.275,9.954,3.814,11.606,8.898
		C331.309,388.1,329.655,393.676,325.498,397.038z M606.502,397.038l-26.662,21.556l8.9,33.112
		c1.388,5.163-0.553,10.646-4.878,13.787c-4.327,3.142-10.141,3.293-14.62,0.377l-28.74-18.694l-28.739,18.694
		c-2.144,1.394-4.592,2.087-7.036,2.087c-2.667,0-5.328-0.824-7.584-2.464c-4.325-3.142-6.266-8.624-4.878-13.787l8.898-33.112
		l-26.661-21.556c-4.157-3.362-5.811-8.938-4.158-14.021c1.651-5.084,6.268-8.623,11.605-8.898l34.24-1.769l12.263-32.017
		c1.912-4.993,6.703-8.287,12.05-8.287c5.348,0,10.139,3.296,12.051,8.287l12.263,32.017l34.238,1.769
		c5.341,0.275,9.954,3.814,11.606,8.898C612.312,388.1,610.658,393.676,606.502,397.038z"/>
	<path fill="#259245" d="M274.071,425.87l-2.333-8.683c-1.325-4.93,0.38-10.174,4.348-13.382l6.99-5.652l-8.979-0.464
		c-5.098-0.263-9.559-3.504-11.384-8.27l-3.215-8.396l-3.215,8.396c-1.827,4.766-6.287,8.007-11.384,8.27l-8.977,0.464l6.99,5.653
		c3.969,3.209,5.672,8.455,4.347,13.384l-2.333,8.682l7.535-4.901c2.139-1.393,4.588-2.088,7.037-2.088s4.898,0.695,7.037,2.088
		L274.071,425.87z"/>
	<path d="M295.274,468.957c-2.697,0-5.319-0.777-7.582-2.248l-28.195-18.34l-28.194,18.339c-2.263,1.472-4.885,2.249-7.582,2.249
		c-2.955,0-5.78-0.918-8.171-2.654c-4.628-3.362-6.74-9.333-5.255-14.856l8.731-32.483l-26.156-21.147
		c-4.447-3.597-6.248-9.668-4.48-15.108c1.767-5.44,6.793-9.293,12.506-9.588l33.588-1.735l12.03-31.41
		c2.046-5.341,7.264-8.929,12.984-8.929c5.722,0,10.939,3.588,12.984,8.93l12.03,31.409l33.591,1.735
		c5.712,0.294,10.738,4.147,12.506,9.588c1.767,5.44-0.034,11.512-4.481,15.108l-26.155,21.147l8.729,32.484
		c1.484,5.524-0.627,11.494-5.256,14.856C301.057,468.039,298.231,468.957,295.274,468.957z M243.54,403.026
		c4.271,3.455,6.11,9.115,4.684,14.421l-1.655,6.159l5.347-3.478c2.264-1.474,4.886-2.252,7.582-2.252
		c2.699,0,5.321,0.777,7.582,2.249l5.349,3.479l-1.656-6.161c-1.426-5.306,0.413-10.965,4.685-14.418l4.96-4.011l-6.372-0.33
		c-5.484-0.283-10.299-3.781-12.266-8.911l-2.282-5.958l-2.281,5.957c-1.965,5.13-6.78,8.628-12.267,8.911l-6.371,0.33
		L243.54,403.026z"/>
	<path d="M318.051,374.118l-34.24-1.769l-12.263-32.017c-1.911-4.993-6.703-8.287-12.05-8.287s-10.138,3.296-12.05,8.287
		l-12.263,32.017l-34.238,1.769c-5.34,0.275-9.955,3.814-11.606,8.898c-1.652,5.083,0.001,10.66,4.158,14.021l26.662,21.556
		l-8.9,33.112c-1.388,5.163,0.552,10.646,4.877,13.787s10.137,3.291,14.62,0.377l28.74-18.694l28.74,18.694
		c2.144,1.394,4.592,2.087,7.037,2.087c2.667,0,5.329-0.824,7.583-2.464c4.325-3.142,6.266-8.624,4.878-13.787l-8.898-33.112
		l26.661-21.556c4.157-3.362,5.811-8.938,4.159-14.021C328.005,377.932,323.391,374.393,318.051,374.118z M252.461,420.967
		l-7.535,4.901l2.333-8.681c1.325-4.93-0.38-10.175-4.347-13.384l-6.99-5.653l8.977-0.464c5.098-0.263,9.559-3.504,11.384-8.27
		l3.215-8.396l3.215,8.396c1.827,4.766,6.287,8.007,11.384,8.27l8.979,0.464l-6.99,5.652c-3.969,3.208-5.672,8.453-4.348,13.381
		l2.333,8.683l-7.537-4.902c-2.139-1.392-4.588-2.087-7.037-2.087S254.6,419.575,252.461,420.967z"/>
	<path fill="#259245" d="M546.994,421.805c-1.937-1.259-4.182-1.924-6.493-1.924c-2.311,0-4.555,0.664-6.49,1.922l-9.726,6.325
		l3.011-11.204c1.221-4.542-0.354-9.388-4.011-12.344l-9.021-7.293l11.586-0.599c4.696-0.243,8.818-3.237,10.503-7.629l4.148-10.834
		l4.149,10.834c1.683,4.392,5.805,7.387,10.502,7.629l11.584,0.599l-9.02,7.294c-3.656,2.958-5.231,7.805-4.011,12.347l3.011,11.202
		L546.994,421.805z"/>
	<path fill="#259245" d="M547.539,420.967l7.535,4.901l-2.333-8.681c-1.324-4.93,0.381-10.175,4.348-13.384l6.99-5.653l-8.978-0.464
		c-5.098-0.263-9.559-3.504-11.384-8.27l-3.216-8.396l-3.215,8.396c-1.827,4.766-6.287,8.007-11.385,8.27l-8.979,0.464l6.99,5.652
		c3.969,3.208,5.672,8.453,4.348,13.381l-2.333,8.683l7.537-4.902C537.743,418.186,543.262,418.186,547.539,420.967z"/>
	<path d="M599.054,374.118l-34.238-1.769l-12.263-32.017c-1.912-4.993-6.703-8.287-12.051-8.287c-5.347,0-10.138,3.296-12.05,8.287
		l-12.263,32.017l-34.24,1.769c-5.34,0.275-9.954,3.814-11.605,8.898c-1.652,5.083,0.001,10.66,4.158,14.021l26.661,21.556
		l-8.898,33.112c-1.388,5.163,0.553,10.646,4.878,13.787c2.257,1.64,4.917,2.464,7.584,2.464c2.444,0,4.893-0.693,7.036-2.087
		l28.739-18.694l28.74,18.694c4.479,2.914,10.293,2.765,14.62-0.377c4.325-3.142,6.266-8.624,4.878-13.787l-8.9-33.112
		l26.662-21.556c4.156-3.362,5.81-8.938,4.158-14.021C609.008,377.932,604.394,374.393,599.054,374.118z M525.929,425.87
		l2.333-8.683c1.324-4.93-0.381-10.174-4.348-13.382l-6.99-5.652l8.979-0.464c5.098-0.263,9.56-3.504,11.385-8.27l3.215-8.396
		l3.216,8.396c1.827,4.766,6.286,8.007,11.384,8.27l8.978,0.464l-6.99,5.653c-3.969,3.209-5.672,8.455-4.348,13.384l2.333,8.682
		l-7.535-4.901c-4.277-2.782-9.795-2.782-14.073,0L525.929,425.87z"/>
	<path fill="#ED1F34" d="M695.774,314.979v-1c0-6.563-5.34-11.903-11.903-11.903H24.807V153.839h750.387v148.236h-39.709
		c-6.563,0-11.903,5.34-11.903,11.903v1H695.774z"/>
	<path fill="#ED1F34" d="M683.871,301.075c7.128,0,12.903,5.777,12.903,12.903h25.807c0-7.126,5.775-12.903,12.903-12.903h38.709
		V154.839H25.807v146.236H683.871z"/>
	<rect x="24.807" y="497.925" fill="#333333" width="750.387" height="148.236"/>
	<rect x="25.807" y="498.925" fill="#333333" width="748.387" height="146.236"/>
	<path d="M787.097,129.032H12.903C5.775,129.032,0,134.81,0,141.936v516.129c0,7.126,5.775,12.903,12.903,12.903h774.193
		c7.128,0,12.903-5.777,12.903-12.903V141.936C800,134.81,794.225,129.032,787.097,129.032z M774.193,154.839v146.236h-38.709
		c-7.128,0-12.903,5.777-12.903,12.903s5.775,12.903,12.903,12.903h38.709v146.236H25.807V326.882h658.064
		c7.128,0,12.903-5.777,12.903-12.903s-5.775-12.903-12.903-12.903H25.807V154.839H774.193z M25.807,645.161V498.925h748.387
		v146.236H25.807z"/>
</g>
</svg>
