<?xml version="1.0" encoding="utf-8"?>
<!-- Generator: Adobe Illustrator 16.0.0, SVG Export Plug-In . SVG Version: 6.00 Build 0)  -->
<!DOCTYPE svg PUBLIC "-//W3C//DTD SVG 1.1//EN" "http://www.w3.org/Graphics/SVG/1.1/DTD/svg11.dtd">
<svg version="1.1" id="Capa_1" xmlns="http://www.w3.org/2000/svg" xmlns:xlink="http://www.w3.org/1999/xlink" x="0px" y="0px"
	 width="800px" height="800px" viewBox="0 0 800 800" enable-background="new 0 0 800 800" xml:space="preserve">
<g>
	<path fill="#ED1F34" d="M24.807,646.17V411.903L400,411.912c3.18,0,6.169-1.238,8.416-3.487c2.249-2.247,3.487-5.236,3.487-8.416
		V153.847h363.29v401c0,6.563,5.34,11.903,11.903,11.903h1v27.806h-1c-6.563,0-11.903,5.34-11.903,11.903v39.71H24.807z"/>
	<path fill="#ED1F34" d="M774.193,554.848v-400h-361.29v245.162c0,3.422-1.359,6.704-3.78,9.123c-2.419,2.421-5.701,3.78-9.123,3.78
		l-374.193-0.009V645.17h748.387v-38.71c0-7.126,5.777-12.903,12.903-12.903v-25.806
		C779.971,567.751,774.193,561.974,774.193,554.848z"/>
	<path fill="#103B9B" d="M206.452,316.107c-24.885,0-45.131-20.246-45.131-45.13c0-24.885,20.246-45.131,45.131-45.131
		s45.131,20.246,45.131,45.131C251.583,295.861,231.337,316.107,206.452,316.107z M206.452,241.867
		c-16.05,0-29.107,13.058-29.107,29.107s13.058,29.107,29.107,29.107s29.107-13.058,29.107-29.107S222.501,241.867,206.452,241.867z
		"/>
	<path fill="#103B9B" d="M162.321,270.977c0,24.333,19.797,44.13,44.131,44.13c24.333,0,44.131-19.797,44.131-44.13
		c0-24.334-19.797-44.131-44.131-44.131C182.118,226.846,162.321,246.643,162.321,270.977z M206.452,240.867
		c16.601,0,30.107,13.507,30.107,30.107s-13.507,30.107-30.107,30.107s-30.107-13.507-30.107-30.107
		S189.851,240.867,206.452,240.867z"/>
	<path fill="#103B9B" d="M24.807,388.097v-234.25h363.29v234.258L24.807,388.097z M167.558,327.856
		c7.928,5.439,16.734,9.093,26.173,10.861l0.816,0.153v9.231c0,6.563,5.34,11.903,11.903,11.903c6.563,0,11.903-5.34,11.903-11.903
		v-9.231l0.816-0.153c9.438-1.769,18.245-5.423,26.174-10.861l0.685-0.47l6.542,6.54c2.247,2.249,5.236,3.487,8.417,3.487
		c3.179,0,6.168-1.238,8.417-3.487c4.641-4.641,4.641-12.192,0-16.833l-6.542-6.54l0.47-0.686
		c5.439-7.928,9.093-16.734,10.861-26.173l0.153-0.816h9.229c6.563,0,11.903-5.34,11.903-11.903c0-6.563-5.34-11.903-11.903-11.903
		h-9.229l-0.153-0.816c-1.768-9.439-5.422-18.245-10.861-26.173l-0.47-0.686l6.542-6.542c2.248-2.248,3.486-5.236,3.486-8.416
		s-1.238-6.168-3.486-8.417c-2.248-2.249-5.236-3.487-8.415-3.487c-3.18,0-6.169,1.238-8.418,3.487l-6.542,6.542l-0.686-0.47
		c-7.926-5.437-16.731-9.091-26.173-10.861l-0.816-0.153v-9.231c0-6.563-5.34-11.903-11.903-11.903
		c-6.563,0-11.903,5.339-11.903,11.903v9.231l-0.816,0.153c-9.442,1.77-18.248,5.424-26.173,10.861l-0.686,0.47l-6.542-6.542
		c-2.248-2.249-5.236-3.487-8.415-3.487c-3.18,0-6.169,1.238-8.418,3.487c-4.641,4.641-4.641,12.192,0,16.833l6.542,6.542
		l-0.47,0.686c-5.439,7.927-9.093,16.733-10.861,26.173l-0.153,0.816h-9.229c-6.563,0-11.903,5.34-11.903,11.903
		c0,6.563,5.34,11.903,11.903,11.903h9.229l0.153,0.816c1.77,9.441,5.424,18.248,10.861,26.173l0.47,0.686l-6.542,6.54
		c-2.248,2.248-3.486,5.236-3.486,8.416c0,3.18,1.238,6.169,3.486,8.417c2.247,2.249,5.236,3.487,8.417,3.487
		c3.179,0,6.168-1.238,8.417-3.487l6.542-6.54L167.558,327.856z"/>
	<path fill="#103B9B" d="M387.097,387.105V154.847H25.807v232.25L387.097,387.105z M129.327,258.073h8.399
		c1.817-9.7,5.633-18.703,11.02-26.555l-5.955-5.955c-5.039-5.039-5.039-13.208,0-18.247s13.209-5.041,18.247,0l5.954,5.955
		c7.852-5.387,16.854-9.201,26.555-11.02v-8.401c0-7.126,5.777-12.903,12.903-12.903s12.903,5.777,12.903,12.903v8.401
		c9.7,1.818,18.703,5.633,26.555,11.02l5.954-5.955c5.039-5.039,13.209-5.041,18.247,0c5.039,5.039,5.039,13.209,0,18.247
		l-5.955,5.955c5.387,7.852,9.203,16.853,11.02,26.555h8.399c7.126,0,12.903,5.777,12.903,12.903s-5.777,12.903-12.903,12.903
		h-8.399c-1.817,9.7-5.633,18.703-11.02,26.555l5.955,5.953c5.039,5.039,5.039,13.208,0,18.247c-2.519,2.519-5.822,3.78-9.124,3.78
		s-6.605-1.259-9.124-3.78l-5.954-5.953c-7.852,5.385-16.854,9.201-26.555,11.02v8.401c0,7.126-5.777,12.903-12.903,12.903
		c-7.126,0-12.903-5.777-12.903-12.903v-8.401c-9.7-1.817-18.703-5.633-26.555-11.02l-5.954,5.953
		c-2.519,2.519-5.822,3.78-9.124,3.78c-3.302,0-6.605-1.259-9.124-3.78c-5.039-5.039-5.039-13.209,0-18.247l5.955-5.953
		c-5.387-7.852-9.201-16.854-11.02-26.555h-8.399c-7.126,0-12.903-5.777-12.903-12.903S122.2,258.073,129.327,258.073z"/>
	<path d="M774.193,606.46v38.71H25.807V412.903L400,412.912c3.422,0,6.704-1.359,9.123-3.78c2.421-2.419,3.78-5.701,3.78-9.123
		V154.847h361.29v400c0,7.126,5.777,12.903,12.903,12.903S800,561.974,800,554.848V141.944c0-7.126-5.777-12.903-12.903-12.903
		H400.334c-0.112-0.003-0.221-0.018-0.334-0.018s-0.222,0.014-0.334,0.018H12.903C5.777,129.041,0,134.818,0,141.944v516.129
		c0,7.126,5.777,12.903,12.903,12.903h774.193c7.126,0,12.903-5.777,12.903-12.903V606.46c0-7.126-5.777-12.903-12.903-12.903
		S774.193,599.334,774.193,606.46z M387.097,154.847v232.258l-361.29-0.009v-232.25H387.097z"/>
	<path fill="#FFFFFF" d="M206.452,301.082c16.601,0,30.107-13.507,30.107-30.107s-13.507-30.107-30.107-30.107
		s-30.107,13.507-30.107,30.107S189.851,301.082,206.452,301.082z"/>
	<path fill="#FFFFFF" d="M129.327,283.879h8.399c1.817,9.7,5.633,18.703,11.02,26.555l-5.955,5.953
		c-5.039,5.039-5.039,13.208,0,18.247c2.519,2.521,5.822,3.78,9.124,3.78c3.301,0,6.604-1.259,9.124-3.78l5.954-5.953
		c7.852,5.385,16.854,9.201,26.555,11.02v8.401c0,7.126,5.777,12.903,12.903,12.903s12.903-5.777,12.903-12.903v-8.401
		c9.7-1.817,18.703-5.633,26.555-11.02l5.954,5.953c2.519,2.521,5.822,3.78,9.124,3.78c3.301,0,6.604-1.259,9.124-3.78
		c5.039-5.039,5.039-13.209,0-18.247l-5.955-5.953c5.387-7.852,9.201-16.854,11.02-26.555h8.399c7.126,0,12.903-5.777,12.903-12.903
		s-5.777-12.903-12.903-12.903h-8.399c-1.817-9.7-5.633-18.703-11.02-26.555l5.955-5.955c5.039-5.039,5.039-13.208,0-18.247
		c-5.038-5.041-13.208-5.039-18.247,0l-5.955,5.955c-7.852-5.387-16.853-9.201-26.555-11.02v-8.401
		c0-7.126-5.777-12.903-12.903-12.903s-12.903,5.777-12.903,12.903v8.401c-9.7,1.818-18.703,5.633-26.555,11.02l-5.954-5.955
		c-5.04-5.041-13.209-5.039-18.247,0c-5.039,5.039-5.039,13.209,0,18.247l5.955,5.955c-5.387,7.852-9.203,16.853-11.02,26.555
		h-8.399c-7.126,0-12.903,5.777-12.903,12.903S122.2,283.879,129.327,283.879z M206.452,226.846
		c24.333,0,44.131,19.797,44.131,44.131c0,24.333-19.797,44.13-44.131,44.13c-24.334,0-44.131-19.797-44.131-44.13
		C162.321,246.643,182.118,226.846,206.452,226.846z"/>
</g>
</svg>
