<?xml version="1.0" encoding="utf-8"?>
<!-- Generator: Adobe Illustrator 16.0.0, SVG Export Plug-In . SVG Version: 6.00 Build 0)  -->
<!DOCTYPE svg PUBLIC "-//W3C//DTD SVG 1.1//EN" "http://www.w3.org/Graphics/SVG/1.1/DTD/svg11.dtd">
<svg version="1.1" id="Capa_1" xmlns="http://www.w3.org/2000/svg" xmlns:xlink="http://www.w3.org/1999/xlink" x="0px" y="0px"
	 width="800px" height="800px" viewBox="0 0 800 800" enable-background="new 0 0 800 800" xml:space="preserve">
<g>
	<g>
		<path fill="#FFFFFF" d="M25.807,326.882v146.236h658.064c7.126,0,12.903,5.777,12.903,12.903h25.807
			c0-7.126,5.776-12.903,12.903-12.903h38.709V326.882H25.807z M425.626,352.003c2.283-4.743,7.15-7.802,12.406-7.802
			c2.051,0,4.111,0.47,5.961,1.357c3.32,1.599,5.813,4.387,7.028,7.857c1.216,3.474,1.004,7.212-0.594,10.527
			c-2.274,4.726-7.144,7.783-12.397,7.783l0,0c-2.049,0-4.11-0.47-5.96-1.357C425.229,367.078,422.34,358.84,425.626,352.003z
			 M400,335.914c7.589,0,13.764,6.175,13.764,13.763c0,7.589-6.175,13.764-13.764,13.764s-13.764-6.175-13.764-13.764
			C386.236,342.089,392.411,335.914,400,335.914z M348.979,353.416c1.215-3.47,3.708-6.259,7.021-7.852
			c1.856-0.893,3.917-1.363,5.968-1.363c5.256,0,10.123,3.059,12.401,7.793c3.289,6.844,0.4,15.082-6.431,18.371
			c-1.858,0.893-3.92,1.362-5.971,1.362c-5.254,0-10.123-3.059-12.4-7.793C347.975,360.63,347.763,356.89,348.979,353.416z
			 M327.487,419.9c-1.437,6.295-6.954,10.695-13.416,10.695c-1.03,0-2.063-0.116-3.069-0.346c-3.578-0.817-6.629-2.981-8.585-6.092
			c-1.959-3.115-2.586-6.807-1.765-10.393c1.438-6.297,6.955-10.696,13.416-10.696c1.03,0,2.063,0.116,3.068,0.346
			c3.579,0.817,6.629,2.979,8.586,6.093C327.68,412.623,328.307,416.313,327.487,419.9z M322.713,392.688
			c-2.864-2.281-4.676-5.557-5.089-9.213c-0.411-3.656,0.626-7.255,2.923-10.13c2.626-3.29,6.547-5.175,10.757-5.175
			c3.108,0,6.157,1.068,8.586,3.009c5.931,4.736,6.902,13.413,2.166,19.343c-2.615,3.285-6.539,5.175-10.754,5.175
			C328.191,395.697,325.143,394.627,322.713,392.688z M457.062,457.109c-3.401,6.261-11.236,8.584-17.497,5.179
			c-12.339-6.703-26.34-10.247-40.488-10.247c-14.293,0-28.42,3.613-40.856,10.448c-1.972,1.082-4.102,1.599-6.202,1.599
			c-4.556,0-8.971-2.417-11.32-6.69c-3.433-6.246-1.153-14.091,5.092-17.523c12.468-6.853,26.229-11.213,40.382-12.872V399.57
			c0-7.126,5.777-12.903,12.903-12.903s12.903,5.777,12.903,12.903v27.432c13.972,1.638,27.568,5.91,39.903,12.611
			C458.144,443.015,460.463,450.849,457.062,457.109z M457.934,390.507c-4.726-5.917-3.754-14.593,2.178-19.329
			c2.43-1.941,5.48-3.009,8.587-3.009c4.21,0,8.131,1.887,10.757,5.175c2.296,2.875,3.334,6.472,2.923,10.13
			c-0.413,3.656-2.225,6.932-5.103,9.225c-2.416,1.931-5.467,2.999-8.575,2.999C464.483,395.695,460.56,393.805,457.934,390.507z
			 M497.583,424.158c-1.956,3.11-5.007,5.275-8.589,6.094c-1.001,0.229-2.033,0.346-3.063,0.346l0,0
			c-6.462,0-11.978-4.4-13.416-10.701c-0.819-3.582-0.193-7.273,1.767-10.388c1.956-3.112,5.007-5.274,8.59-6.094
			c1.002-0.229,2.034-0.346,3.064-0.346c6.46,0,11.978,4.401,13.418,10.701C500.169,417.352,499.542,421.044,497.583,424.158z"/>
		<path fill="#FFE000" d="M400,363.441c7.589,0,13.764-6.175,13.764-13.764c0-7.588-6.175-13.763-13.764-13.763
			s-13.764,6.175-13.764,13.763C386.236,357.266,392.411,363.441,400,363.441z"/>
		<path fill="#FFE000" d="M361.97,371.728c2.051,0,4.112-0.468,5.97-1.362c6.834-3.29,9.721-11.527,6.432-18.371
			c-2.278-4.734-7.147-7.793-12.401-7.793c-2.051,0-4.111,0.47-5.968,1.363c-3.313,1.593-5.807,4.382-7.021,7.852
			c-1.216,3.474-1.005,7.212,0.589,10.519C351.847,368.669,356.716,371.728,361.97,371.728z"/>
		<path fill="#FFE000" d="M342.056,390.521c4.736-5.93,3.765-14.606-2.166-19.343c-2.429-1.941-5.479-3.009-8.586-3.009
			c-4.21,0-8.131,1.888-10.757,5.175c-2.297,2.875-3.334,6.472-2.923,10.13c0.413,3.656,2.225,6.932,5.089,9.213
			c2.43,1.94,5.479,3.009,8.589,3.009C335.517,395.697,339.44,393.805,342.056,390.521z"/>
		<path fill="#FFE000" d="M317.136,403.415c-1.005-0.229-2.039-0.346-3.069-0.346c-6.46,0-11.978,4.401-13.416,10.696
			c-0.82,3.586-0.192,7.277,1.765,10.393c1.957,3.11,5.007,5.274,8.585,6.092c1.005,0.229,2.039,0.346,3.069,0.346
			c6.462,0,11.979-4.4,13.416-10.695c0.821-3.588,0.193-7.277-1.765-10.393C323.765,406.396,320.714,404.232,317.136,403.415z"/>
		<path fill="#FFE000" d="M432.07,370.371c1.85,0.888,3.909,1.357,5.96,1.357l0,0c5.254,0,10.123-3.059,12.397-7.783
			c1.598-3.315,1.81-7.054,0.594-10.527c-1.215-3.47-3.708-6.259-7.028-7.857c-1.85-0.888-3.91-1.357-5.961-1.357
			c-5.256,0-10.123,3.059-12.406,7.802C422.34,358.84,425.229,367.078,432.07,370.371z"/>
		<path fill="#FFE000" d="M482.376,383.474c0.411-3.656-0.626-7.255-2.923-10.13c-2.626-3.29-6.547-5.175-10.756-5.175
			c-3.109,0-6.158,1.068-8.587,3.009c-5.931,4.736-6.902,13.413-2.179,19.329c2.626,3.298,6.55,5.188,10.767,5.188
			c3.109,0,6.159-1.068,8.575-2.999C480.151,390.405,481.965,387.129,482.376,383.474z"/>
		<path fill="#FFE000" d="M485.932,403.069c-1.03,0-2.063,0.116-3.063,0.346c-3.584,0.819-6.634,2.981-8.591,6.094
			c-1.959,3.116-2.585,6.806-1.767,10.388c1.438,6.301,6.954,10.701,13.416,10.701l0,0c1.03,0,2.063-0.117,3.064-0.346
			c3.583-0.818,6.632-2.981,8.588-6.094c1.96-3.115,2.586-6.807,1.767-10.39C497.911,407.471,492.395,403.069,485.932,403.069z"/>
		<path fill="#FFE000" d="M451.881,439.613c-12.335-6.701-25.932-10.974-39.903-12.611V399.57c0-7.126-5.777-12.903-12.903-12.903
			s-12.903,5.777-12.903,12.903v27.432c-14.152,1.659-27.914,6.02-40.382,12.872c-6.245,3.433-8.526,11.277-5.092,17.523
			c2.35,4.273,6.765,6.69,11.32,6.69c2.101,0,4.231-0.515,6.202-1.599c12.437-6.835,26.563-10.448,40.856-10.448
			c14.148,0,28.148,3.544,40.488,10.247c6.263,3.405,14.096,1.082,17.497-5.179S458.144,443.015,451.881,439.613z"/>
	</g>
	<rect x="24.807" y="153.839" fill="#ED1F34" width="750.387" height="148.236"/>
	<rect x="25.807" y="154.839" fill="#ED1F34" width="748.387" height="146.236"/>
	<path fill="#259245" d="M24.807,646.161V497.925h659.064c6.563,0,11.903-5.34,11.903-11.903v-1h27.807v1
		c0,6.563,5.34,11.903,11.903,11.903h39.709v148.236H24.807z"/>
	<path fill="#259245" d="M735.484,498.925c-7.127,0-12.903-5.777-12.903-12.903h-25.807c0,7.126-5.777,12.903-12.903,12.903H25.807
		v146.236h748.387V498.925H735.484z"/>
	<path d="M787.097,129.032H12.903C5.777,129.032,0,134.81,0,141.936v516.129c0,7.126,5.777,12.903,12.903,12.903h774.193
		c7.126,0,12.903-5.777,12.903-12.903V141.936C800,134.81,794.223,129.032,787.097,129.032z M774.193,154.839v146.236H25.807
		V154.839H774.193z M25.807,645.161V498.925h658.064c7.126,0,12.903-5.777,12.903-12.903s-5.777-12.903-12.903-12.903H25.807
		V326.882h748.387v146.236h-38.709c-7.127,0-12.903,5.777-12.903,12.903s5.776,12.903,12.903,12.903h38.709v146.236H25.807z"/>
</g>
</svg>
