<?xml version="1.0" encoding="utf-8"?>
<!-- Generator: Adobe Illustrator 16.0.0, SVG Export Plug-In . SVG Version: 6.00 Build 0)  -->
<!DOCTYPE svg PUBLIC "-//W3C//DTD SVG 1.1//EN" "http://www.w3.org/Graphics/SVG/1.1/DTD/svg11.dtd">
<svg version="1.1" id="Capa_1" xmlns="http://www.w3.org/2000/svg" xmlns:xlink="http://www.w3.org/1999/xlink" x="0px" y="0px"
	 width="800px" height="800px" viewBox="0 0 800 800" enable-background="new 0 0 800 800" xml:space="preserve">
<g>
	<polygon fill="#259245" points="24.806,153.836 538.417,153.836 24.806,496.259 	"/>
	<polygon fill="#259245" points="25.806,154.836 25.806,494.391 535.114,154.836 	"/>
	<path fill="#3DB4EA" d="M261.566,646.162l513.628-342.408v44.801c0,6.563,5.34,11.903,11.903,11.903h1v27.806h-1
		c-6.563,0-11.903,5.34-11.903,11.903v245.995H261.566z"/>
	<path fill="#3DB4EA" d="M774.194,348.555v-42.932L264.869,645.162h509.326V400.167c0-7.127,5.775-12.903,12.903-12.903v-25.806
		C779.97,361.458,774.194,355.683,774.194,348.555z"/>
	<polygon fill="#FFE000" points="207.29,646.162 775.194,267.573 775.194,306.158 265.171,646.162 	"/>
	<polygon fill="#FFE000" points="210.592,645.162 264.869,645.162 774.194,305.623 774.194,269.441 	"/>
	<polygon fill="#FFE000" points="24.806,493.855 534.812,153.836 592.693,153.836 24.806,532.442 	"/>
	<polygon fill="#FFE000" points="535.114,154.836 25.806,494.391 25.806,530.574 589.391,154.836 	"/>
	<polygon fill="#333333" points="24.806,646.162 24.806,561.052 635.606,153.836 775.194,153.836 775.194,238.962 164.373,646.162 	
		"/>
	<polygon fill="#333333" points="774.194,154.836 635.909,154.836 25.806,561.587 25.806,645.162 164.07,645.162 774.194,238.427 	
		"/>
	<path d="M774.194,400.167v244.995H264.869h-54.276L774.194,269.44v36.182v42.932c0,7.127,5.775,12.903,12.902,12.903l0,0
		c7.128,0,12.903-5.775,12.903-12.903V245.417c0-0.014,0-0.027,0-0.04V141.934c0-7.127-5.775-12.903-12.903-12.903H632.089
		c-0.014,0-0.026,0-0.04,0H12.903C5.777,129.031,0,134.806,0,141.934v412.66c0,0.018,0,0.033,0,0.048v103.423
		c0,7.128,5.777,12.903,12.903,12.903h155.057c0.009,0,0.019,0.002,0.028,0.002c0.008,0,0.015-0.002,0.024-0.002h619.085
		c7.128,0,12.903-5.775,12.903-12.903V400.167c0-7.127-5.775-12.903-12.903-12.903l0,0
		C779.97,387.264,774.194,393.04,774.194,400.167z M25.806,645.162v-83.575l610.104-406.75h138.285v83.592L164.07,645.162H25.806z
		 M25.806,530.574v-36.184V154.836h509.307h54.276L25.806,530.574z"/>
</g>
</svg>
