<?xml version="1.0" encoding="utf-8"?>
<!-- Generator: Adobe Illustrator 16.0.0, SVG Export Plug-In . SVG Version: 6.00 Build 0)  -->
<!DOCTYPE svg PUBLIC "-//W3C//DTD SVG 1.1//EN" "http://www.w3.org/Graphics/SVG/1.1/DTD/svg11.dtd">
<svg version="1.1" id="Capa_1" xmlns="http://www.w3.org/2000/svg" xmlns:xlink="http://www.w3.org/1999/xlink" x="0px" y="0px"
	 width="800px" height="800px" viewBox="0 0 800 800" enable-background="new 0 0 800 800" xml:space="preserve">
<g>
	<rect x="24.807" y="153.839" fill="#ED1F34" width="750.387" height="62.215"/>
	<rect x="25.807" y="154.839" fill="#ED1F34" width="748.387" height="60.215"/>
	<rect x="24.807" y="583.946" fill="#ED1F34" width="750.387" height="62.215"/>
	<rect x="25.807" y="584.946" fill="#ED1F34" width="748.387" height="60.215"/>
	<rect x="25.807" y="498.925" fill="#FFFFFF" width="748.387" height="60.215"/>
	<path fill="#103B9B" d="M24.807,474.118V325.882h39.709c6.563,0,11.903-5.34,11.903-11.903v-1h27.806v1
		c0,6.563,5.34,11.903,11.903,11.903h659.064v148.236H24.807z"/>
	<path fill="#103B9B" d="M64.516,326.882H25.807v146.236h748.387V326.882H116.129c-7.126,0-12.903-5.775-12.903-12.903H77.419
		C77.419,321.106,71.642,326.882,64.516,326.882z"/>
	<path fill="#FFFFFF" d="M25.807,301.075h38.709c7.126,0,12.903,5.775,12.903,12.903h25.806c0-7.128,5.777-12.903,12.903-12.903
		h658.064V240.86H25.807V301.075z"/>
	<path d="M787.097,129.032H12.903C5.777,129.032,0,134.808,0,141.936v516.129c0,7.128,5.777,12.903,12.903,12.903h774.193
		c7.128,0,12.903-5.775,12.903-12.903V141.936C800,134.808,794.225,129.032,787.097,129.032z M774.193,645.161H25.807v-60.215
		h748.387V645.161z M774.193,559.14H25.807v-60.215h748.387V559.14z M774.193,301.075H116.129c-7.126,0-12.903,5.775-12.903,12.903
		s5.777,12.903,12.903,12.903h658.064v146.236H25.807V326.882h38.709c7.126,0,12.903-5.775,12.903-12.903
		s-5.777-12.903-12.903-12.903H25.807V240.86h748.387V301.075z M774.193,215.054H25.807v-60.215h748.387V215.054z"/>
</g>
</svg>
