<?xml version="1.0" encoding="utf-8"?>
<!-- Generator: Adobe Illustrator 16.0.0, SVG Export Plug-In . SVG Version: 6.00 Build 0)  -->
<!DOCTYPE svg PUBLIC "-//W3C//DTD SVG 1.1//EN" "http://www.w3.org/Graphics/SVG/1.1/DTD/svg11.dtd">
<svg version="1.1" id="Capa_1" xmlns="http://www.w3.org/2000/svg" xmlns:xlink="http://www.w3.org/1999/xlink" x="0px" y="0px"
	 width="800px" height="800px" viewBox="0 0 800 800" enable-background="new 0 0 800 800" xml:space="preserve">
<g>
	<path fill="#FFE000" d="M24.807,646.161V153.839h750.387v401c0,6.563,5.34,11.903,11.903,11.903h1v27.807h-1
		c-6.563,0-11.903,5.34-11.903,11.902v39.71H24.807z M64.551,181.645c-6.563,0-11.903,5.34-11.903,11.903v412.914l0.014,0.265
		c0.004,0.243,0.018,0.483,0.037,0.723c0.013,0.163,0.03,0.322,0.049,0.48c0.027,0.223,0.062,0.444,0.102,0.668
		c0.031,0.171,0.066,0.344,0.105,0.517c0.045,0.193,0.097,0.393,0.153,0.591c0.054,0.192,0.113,0.382,0.176,0.571
		c0.056,0.166,0.117,0.335,0.183,0.501c0.083,0.211,0.17,0.416,0.262,0.617c0.066,0.141,0.137,0.291,0.212,0.439
		c0.108,0.21,0.224,0.422,0.346,0.63c0.028,0.047,0.057,0.103,0.086,0.159l0.138,0.21c0.235,0.371,0.483,0.72,0.738,1.038
		l0.082,0.111c0.287,0.354,0.585,0.674,0.934,1.011c0.117,0.112,0.239,0.22,0.359,0.326c0.232,0.208,0.465,0.4,0.704,0.583
		c0.145,0.112,0.265,0.207,0.391,0.295c0.323,0.225,0.659,0.44,1.008,0.637l0.115,0.068c0.388,0.215,0.796,0.404,1.255,0.588
		l0.286,0.104c0.345,0.128,0.689,0.239,1.042,0.337l0.302,0.077c0.4,0.097,0.742,0.159,1.091,0.211c0,0,0.285,0.047,0.364,0.056
		c0.452,0.053,0.881,0.08,1.307,0.083l671.054,0.001l0.177-0.01c0.245-0.002,0.469-0.016,0.693-0.033
		c0.243-0.02,0.389-0.03,0.533-0.048c0.191-0.023,0.38-0.055,0.571-0.088c0.209-0.034,0.41-0.069,0.608-0.113
		c0.129-0.027,0.252-0.062,0.375-0.096l0.104-0.028c0.223-0.058,0.437-0.116,0.647-0.185c0.086-0.029,0.454-0.167,0.454-0.167
		c0.237-0.089,0.422-0.158,0.604-0.239c0.13-0.057,0.252-0.117,0.375-0.179l0.261-0.13c0.126-0.062,0.251-0.123,0.373-0.191
		c0.153-0.086,0.298-0.178,0.442-0.269l0.201-0.126c0.105-0.065,0.21-0.13,0.312-0.2c0.19-0.131,0.367-0.269,0.545-0.407
		c0,0,0.281-0.219,0.371-0.292c0.165-0.142,0.336-0.301,0.506-0.463l0.091-0.086c0.084-0.079,0.168-0.157,0.248-0.239
		c0.146-0.151,0.288-0.311,0.429-0.474c0.129-0.146,0.247-0.279,0.358-0.421c0.117-0.148,0.228-0.298,0.337-0.45
		c0.127-0.178,0.255-0.357,0.375-0.544l0.092-0.135l0.082-0.136l0.081-0.149c0.121-0.206,0.233-0.41,0.34-0.62
		c0.076-0.151,0.149-0.302,0.219-0.453c0.089-0.194,0.174-0.394,0.253-0.598c0.067-0.174,0.131-0.348,0.189-0.521
		c0.065-0.188,0.121-0.374,0.175-0.563c0.056-0.197,0.106-0.395,0.152-0.596c0.04-0.172,0.075-0.345,0.106-0.517
		c0.038-0.22,0.074-0.441,0.101-0.665c0.019-0.157,0.037-0.318,0.05-0.48c0.021-0.245,0.032-0.481,0.036-0.719l0.009-0.179
		l0.004-413.003c0-6.563-5.34-11.903-11.903-11.903H64.551z"/>
	<path fill="#FFE000" d="M774.193,554.839v-400H25.807v490.322h748.387v-38.71c0-7.127,5.777-12.902,12.903-12.902v-25.807
		C779.971,567.742,774.193,561.967,774.193,554.839z M748.423,606.46c0,0.099-0.012,0.191-0.014,0.289
		c-0.005,0.26-0.017,0.52-0.039,0.778c-0.014,0.175-0.033,0.349-0.054,0.522c-0.029,0.242-0.067,0.481-0.11,0.725
		c-0.034,0.188-0.072,0.377-0.115,0.561c-0.05,0.217-0.104,0.43-0.165,0.646c-0.059,0.206-0.12,0.409-0.189,0.61
		c-0.063,0.188-0.132,0.375-0.204,0.561c-0.086,0.223-0.179,0.44-0.277,0.656c-0.075,0.163-0.153,0.325-0.235,0.486
		c-0.115,0.228-0.237,0.449-0.365,0.668c-0.051,0.088-0.091,0.179-0.145,0.263c-0.041,0.067-0.091,0.128-0.134,0.194
		c-0.129,0.202-0.267,0.396-0.406,0.592c-0.118,0.164-0.237,0.325-0.363,0.484c-0.123,0.156-0.254,0.306-0.387,0.455
		c-0.153,0.178-0.308,0.352-0.47,0.519c-0.117,0.12-0.241,0.233-0.363,0.349c-0.184,0.176-0.368,0.348-0.561,0.512
		c-0.124,0.103-0.251,0.199-0.379,0.299c-0.199,0.155-0.396,0.31-0.604,0.451c-0.147,0.103-0.301,0.194-0.454,0.29
		c-0.192,0.121-0.384,0.245-0.581,0.354c-0.188,0.105-0.381,0.196-0.573,0.293c-0.174,0.086-0.345,0.174-0.521,0.251
		c-0.219,0.097-0.44,0.179-0.666,0.264c-0.163,0.06-0.323,0.123-0.488,0.179c-0.229,0.074-0.461,0.138-0.695,0.199
		c-0.174,0.047-0.348,0.097-0.522,0.135c-0.216,0.048-0.436,0.086-0.654,0.122c-0.208,0.036-0.414,0.07-0.624,0.096
		c-0.189,0.022-0.381,0.036-0.573,0.052c-0.248,0.02-0.495,0.034-0.745,0.036c-0.075,0.002-0.149,0.012-0.226,0.012H64.588
		c-0.009,0-0.017,0.002-0.024,0.002c-0.028,0-0.057-0.005-0.084-0.005c-0.48-0.004-0.951-0.036-1.417-0.09
		c-0.131-0.016-0.26-0.039-0.391-0.06c-0.378-0.056-0.75-0.124-1.117-0.212c-0.132-0.033-0.265-0.065-0.396-0.102
		c-0.38-0.104-0.752-0.226-1.118-0.361c-0.105-0.038-0.21-0.074-0.315-0.115c-0.465-0.186-0.919-0.394-1.356-0.633
		c-0.046-0.026-0.087-0.056-0.134-0.081c-0.376-0.212-0.74-0.444-1.092-0.689c-0.145-0.102-0.284-0.21-0.423-0.318
		c-0.26-0.198-0.513-0.408-0.757-0.627c-0.132-0.116-0.265-0.233-0.394-0.357c-0.349-0.337-0.683-0.69-0.991-1.065
		c-0.04-0.048-0.074-0.103-0.112-0.151c-0.288-0.359-0.554-0.737-0.802-1.128c-0.033-0.052-0.072-0.097-0.105-0.148
		c-0.052-0.082-0.089-0.17-0.138-0.251c-0.131-0.224-0.255-0.451-0.374-0.682c-0.081-0.158-0.156-0.318-0.23-0.477
		c-0.1-0.218-0.194-0.44-0.282-0.665c-0.072-0.183-0.139-0.367-0.201-0.551c-0.069-0.205-0.132-0.41-0.191-0.618
		c-0.06-0.213-0.115-0.427-0.165-0.64c-0.043-0.188-0.081-0.375-0.115-0.564c-0.043-0.242-0.081-0.481-0.11-0.725
		c-0.021-0.172-0.04-0.344-0.053-0.52c-0.021-0.26-0.035-0.521-0.04-0.781c-0.002-0.096-0.014-0.188-0.014-0.285V193.548
		c0-7.127,5.777-12.903,12.903-12.903h670.968c7.126,0,12.903,5.776,12.903,12.903L748.423,606.46L748.423,606.46z"/>
	<path fill="#ED1F34" d="M498.713,278.295c-27.84-22.601-62.896-35.048-98.713-35.048h-1v-37.795h160.058l-59.568,73.475
		L498.713,278.295z"/>
	<path fill="#ED1F34" d="M499.343,277.519l57.617-71.067H400v35.795C437.615,242.247,472.192,255.477,499.343,277.519z"/>
	<path fill="#ED1F34" d="M500.333,431.969l0.294-0.956c3.075-9.998,4.634-20.392,4.634-30.894v-1l0.998-0.067h26.807v1
		c0.002,13.357-1.971,26.504-5.86,39.14l-0.295,0.956L500.333,431.969z"/>
	<path fill="#ED1F34" d="M532.067,400.119c0-0.022-0.002-0.044-0.002-0.067h-25.807c0,0.022,0.002,0.044,0.002,0.067
		c0,10.849-1.644,21.322-4.678,31.188l24.666,7.591C530.025,426.631,532.067,413.608,532.067,400.119z"/>
	<path fill="#ED1F34" d="M549.925,353.907c-3.897-12.616-9.414-24.74-16.397-36.036L533,317.019l181.271-111.567h9.346v96.051
		L550.22,354.862L549.925,353.907z"/>
	<path fill="#ED1F34" d="M550.88,353.612l171.737-52.849v-94.312h-8.063L534.378,317.345
		C541.324,328.582,546.906,340.749,550.88,353.612z"/>
	<path fill="#ED1F34" d="M500.59,369.09c-2.611-8.446-6.315-16.578-11.011-24.17l-0.527-0.852l23.672-14.569l0.524,0.849
		c5.933,9.596,10.615,19.878,13.918,30.562l0.296,0.957l-26.577,8.179L500.59,369.09z"/>
	<path fill="#ED1F34" d="M512.397,330.873l-21.968,13.521c4.676,7.561,8.438,15.742,11.115,24.401l24.666-7.591
		C522.884,350.443,518.209,340.273,512.397,330.873z"/>
	<path fill="#ED1F34" d="M549.67,447.15l0.294-0.955c4.585-14.894,6.91-30.396,6.91-46.077v-1l0.998-0.067h165.743v101.63
		L549.67,447.15z"/>
	<path fill="#ED1F34" d="M557.874,400.119c0,16.131-2.438,31.703-6.954,46.371l171.695,52.838v-99.275H557.872
		C557.874,400.074,557.874,400.098,557.874,400.119z"/>
	<path fill="#ED1F34" d="M466.218,318.376C447.531,303.211,424.015,294.86,400,294.86h-1v-27.807h1
		c30.366,0,60.099,10.561,83.72,29.736l0.776,0.63l-17.502,21.588L466.218,318.376z"/>
	<path fill="#ED1F34" d="M400,268.053v25.807c25.313,0,48.574,8.91,66.848,23.74l16.242-20.035
		C460.379,279.129,431.463,268.053,400,268.053z"/>
	<path fill="#103B9B" d="M533.527,317.871c-9.32-15.073-21.033-28.388-34.814-39.576l-0.776-0.63l58.547-72.214h161.604
		L534.052,318.72L533.527,317.871z"/>
	<path fill="#103B9B" d="M534.378,317.345l180.177-110.894H556.96l-57.617,71.067C513.132,288.712,525.001,302.18,534.378,317.345z"
		/>
	<path fill="#103B9B" d="M489.577,344.921c-6.254-10.108-14.113-19.04-23.359-26.545l-0.776-0.63l17.502-21.588l0.776,0.631
		c11.692,9.49,21.627,20.782,29.526,33.56l0.527,0.853l-23.671,14.568L489.577,344.921z"/>
	<path fill="#103B9B" d="M483.09,297.565L466.848,317.6c9.279,7.532,17.268,16.592,23.58,26.795l21.968-13.521
		C504.553,318.188,494.625,306.928,483.09,297.565z"/>
	<path fill="#103B9B" d="M315.504,297.419l0.776-0.63c23.622-19.175,53.354-29.736,83.72-29.736h1v27.807h-1
		c-24.015,0-47.531,8.352-66.217,23.517l-0.777,0.63L315.504,297.419z"/>
	<path fill="#103B9B" d="M316.91,297.565l16.242,20.035c18.273-14.83,41.535-23.74,66.848-23.74v-25.807
		C368.537,268.053,339.621,279.129,316.91,297.565z"/>
	<path fill="#103B9B" d="M76.456,399.052h166.671v1c0,15.755,2.325,31.26,6.911,46.152l0.294,0.955L76.456,500.68V399.052z"/>
	<path fill="#103B9B" d="M242.126,400.119c0-0.022,0-0.044,0-0.067H77.456v99.273l171.626-52.827
		C244.564,431.828,242.126,416.253,242.126,400.119z"/>
	<path fill="#103B9B" d="M272.542,361.857l0.295-0.957c3.3-10.678,7.983-20.961,13.922-30.563l0.525-0.849l23.672,14.571
		l-0.527,0.852c-4.697,7.592-8.402,15.725-11.014,24.172l-0.295,0.954L272.542,361.857z"/>
	<path fill="#103B9B" d="M273.792,361.196l24.667,7.592c2.677-8.657,6.44-16.84,11.119-24.403l-21.969-13.522
		C281.796,340.263,277.118,350.433,273.792,361.196z"/>
	<path fill="#103B9B" d="M272.799,439.198c-3.893-12.641-5.866-25.789-5.866-39.08l0.007-0.154l0.08-0.913h27.723v1
		c-0.001,10.576,1.558,20.972,4.634,30.966l0.294,0.955l-26.578,8.182L272.799,439.198z"/>
	<path fill="#103B9B" d="M267.933,400.119c0,13.494,2.043,26.515,5.822,38.786l24.666-7.593c-3.037-9.866-4.68-20.341-4.68-31.193
		c0-0.022,0.001-0.044,0.001-0.067h-25.806C267.935,400.074,267.933,400.098,267.933,400.119z"/>
	<path fill="#103B9B" d="M76.456,301.504v-96.052h9.34l181.213,111.556l-0.527,0.852c-6.984,11.292-12.502,23.418-16.402,36.04
		l-0.295,0.954L76.456,301.504z"/>
	<path fill="#103B9B" d="M249.124,353.604c3.976-12.867,9.559-25.034,16.507-36.27L85.512,206.452h-8.057v94.314L249.124,353.604z"
		/>
	<path fill="#103B9B" d="M240.942,205.452H401v37.795h-1c-35.816,0-70.873,12.447-98.712,35.048l-0.777,0.631L240.942,205.452z"/>
	<path fill="#103B9B" d="M400,242.247v-35.795H243.04l57.617,71.067C327.808,255.477,362.385,242.247,400,242.247z"/>
	<path fill="#ED1F34" d="M76.456,401.052v-101.64l173.919,53.531l-0.295,0.957c-4.607,14.912-6.946,30.44-6.951,46.153l0,1H76.456z"
		/>
	<path fill="#ED1F34" d="M249.124,353.604L77.456,300.766v99.286h164.672C242.133,383.894,244.585,368.294,249.124,353.604z"/>
	<path fill="#ED1F34" d="M266.934,401.052l0-1c0.007-13.322,1.993-26.495,5.902-39.15l0.295-0.955l26.578,8.181l-0.295,0.957
		c-3.094,10.006-4.667,20.425-4.673,30.969l0,1H266.934z"/>
	<path fill="#ED1F34" d="M267.935,400.052h25.807c0.007-10.877,1.66-21.376,4.718-31.264l-24.667-7.592
		C269.996,373.486,267.941,386.534,267.935,400.052z"/>
	<path fill="#ED1F34" d="M280.413,458.418c-3.036-6.201-5.598-12.667-7.616-19.22l-0.294-0.955l26.578-8.182l0.294,0.956
		c1.324,4.303,2.994,8.655,4.964,12.937l0.371,0.806l-23.813,14.647L280.413,458.418z"/>
	<path fill="#ED1F34" d="M281.311,457.979l22.12-13.606c-1.94-4.216-3.63-8.568-5.012-13.061l-24.666,7.593
		C275.783,445.497,278.319,451.867,281.311,457.979z"/>
	<path fill="#ED1F34" d="M76.456,498.587l173.288-53.337l0.294,0.955c2.634,8.548,6.029,16.925,10.091,24.896l0.419,0.822
		L76.456,585.163V498.587z"/>
	<path fill="#ED1F34" d="M77.456,499.325v84.049l181.782-111.818c-4.069-7.985-7.477-16.362-10.156-25.056L77.456,499.325z"/>
	<path fill="#ED1F34" d="M286.232,331.189l0.527-0.852c7.902-12.775,17.834-24.063,29.521-33.549l0.777-0.631l17.502,21.588
		l-0.776,0.63c-9.247,7.505-17.104,16.433-23.354,26.537l-0.525,0.849L286.232,331.189z"/>
	<path fill="#ED1F34" d="M287.609,330.863l21.969,13.522c6.311-10.202,14.296-19.257,23.574-26.787l-16.242-20.034
		C305.378,306.925,295.453,318.182,287.609,330.863z"/>
	<path fill="#ED1F34" d="M81.98,205.452h161.536l58.547,72.214l-0.776,0.63c-13.779,11.186-25.49,24.498-34.806,39.564l-0.525,0.849
		L81.98,205.452z"/>
	<path fill="#ED1F34" d="M300.657,277.519l-57.617-71.067H85.512l180.119,110.882C275.005,302.173,286.872,288.71,300.657,277.519z"
		/>
	<path fill="#103B9B" d="M505.26,401.052l-0.001-1c-0.007-10.539-1.578-20.956-4.671-30.962l-0.296-0.957l26.577-8.179l0.295,0.954
		c3.909,12.65,5.895,25.82,5.901,39.143l0.001,1H505.26z"/>
	<path fill="#103B9B" d="M526.209,361.204l-24.666,7.591c3.056,9.886,4.709,20.382,4.716,31.257h25.807
		C532.059,386.536,530.006,373.492,526.209,361.204z"/>
	<path fill="#103B9B" d="M556.874,401.052v-1c-0.007-15.713-2.345-31.239-6.949-46.145l-0.296-0.956l173.988-53.542v101.642H556.874
		z"/>
	<path fill="#103B9B" d="M557.874,400.052h164.743v-99.288L550.88,353.612C555.417,368.299,557.867,383.897,557.874,400.052z"/>
	<path fill="#103B9B" d="M495.359,444.615l0.368-0.804c1.945-4.249,3.594-8.556,4.899-12.799l0.294-0.956l26.578,8.179l-0.294,0.956
		c-2.007,6.521-4.546,12.945-7.549,19.093l-0.483,0.991L495.359,444.615z"/>
	<path fill="#103B9B" d="M501.583,431.307c-1.366,4.44-3.035,8.747-4.946,12.921l22.121,13.618c2.965-6.071,5.477-12.4,7.491-18.948
		L501.583,431.307z"/>
	<path fill="#103B9B" d="M539.516,471.802l0.417-0.821c4.039-7.945,7.414-16.283,10.032-24.783l0.295-0.956l173.357,53.35v86.563
		L539.516,471.802z"/>
	<path fill="#103B9B" d="M540.824,471.434l181.793,111.93v-84.034l-171.696-52.838C548.256,455.144,544.867,463.48,540.824,471.434z
		"/>
	<path d="M774.193,606.451v38.71H25.807V154.839h748.387v400c0,7.128,5.777,12.903,12.903,12.903S800,561.967,800,554.839V141.936
		c0-7.128-5.777-12.903-12.903-12.903H12.903C5.777,129.032,0,134.808,0,141.936v516.129c0,7.128,5.777,12.903,12.903,12.903
		h774.193c7.126,0,12.903-5.775,12.903-12.903v-51.613c0-7.127-5.777-12.902-12.903-12.902S774.193,599.324,774.193,606.451z"/>
	<path fill="#FFE000" d="M557.874,400.119c0-0.022,0-0.044,0-0.067c-0.007-16.157-2.457-31.752-6.994-46.439
		c-3.974-12.866-9.555-25.031-16.502-36.267c-9.377-15.166-21.246-28.633-35.035-39.826c-27.15-22.042-61.729-35.272-99.343-35.272
		s-72.192,13.23-99.343,35.272c-13.784,11.191-25.652,24.654-35.026,39.816c-6.949,11.236-12.531,23.403-16.507,36.27
		c-4.539,14.691-6.988,30.289-6.996,46.448c0,0.022,0,0.045,0,0.067c0,16.134,2.438,31.709,6.956,46.379
		c2.677,8.695,6.085,17.071,10.156,25.056l22.073-13.577c-2.99-6.111-5.527-12.481-7.558-19.074
		c-3.778-12.271-5.822-25.292-5.822-38.786c0-0.022,0.001-0.044,0.001-0.067c0.007-13.518,2.061-26.565,5.858-38.856
		c3.326-10.763,8.003-20.933,13.817-30.333c7.844-12.681,17.769-23.938,29.301-33.297c22.711-18.436,51.627-29.512,83.09-29.512
		s60.379,11.076,83.09,29.512c11.534,9.363,21.463,20.623,29.306,33.308c5.812,9.4,10.488,19.57,13.812,30.331
		c3.797,12.288,5.85,25.332,5.856,38.848c0,0.022,0.002,0.044,0.002,0.067c0,13.49-2.044,26.51-5.818,38.779
		c-2.015,6.548-4.528,12.875-7.491,18.948l22.068,13.587c4.043-7.952,7.433-16.291,10.097-24.943
		C555.438,431.821,557.874,416.25,557.874,400.119z"/>
	<path fill="#FFE000" d="M324.688,431.11c-4.074-9.867-6.14-20.295-6.14-30.992c0-44.914,36.54-81.454,81.454-81.454
		s81.454,36.54,81.454,81.454c0,10.634-2.045,21.006-6.078,30.829l-0.447,1.089l-68.496-42.173
		c-1.878-1.156-4.036-1.767-6.241-1.767c-2.203,0-4.36,0.61-6.236,1.765l-68.822,42.334L324.688,431.11z"/>
	<path fill="#FFE000" d="M393.434,389.01c4.147-2.553,9.378-2.551,13.525,0.002l67.494,41.556
		c3.859-9.399,6.003-19.677,6.003-30.449c0-44.361-36.093-80.454-80.454-80.454s-80.454,36.093-80.454,80.454
		c0,10.833,2.166,21.168,6.064,30.61L393.434,389.01z"/>
	<path fill="#FFFFFF" d="M689.951,593.557L400.189,415.152L110.157,593.557H689.951z M400.194,473.979
		c21.854,0,39.57,17.715,39.57,39.57c0,21.854-17.716,39.569-39.57,39.569s-39.569-17.715-39.569-39.569
		C360.625,491.693,378.34,473.979,400.194,473.979z"/>
	<path fill="#FF7900" d="M359.625,514.549v-1c0-22.37,18.199-40.57,40.569-40.57s40.57,18.2,40.57,40.57v1H359.625z"/>
	<path fill="#FF7900" d="M360.625,513.549h79.14c0-21.855-17.716-39.57-39.57-39.57S360.625,491.693,360.625,513.549z"/>
	<path fill="#103B9B" d="M400.194,554.118c-22.37,0-40.569-18.199-40.569-40.569v-1h81.14v1
		C440.765,535.919,422.564,554.118,400.194,554.118z"/>
	<path fill="#103B9B" d="M360.625,513.549c0,21.854,17.715,39.569,39.569,39.569s39.57-17.715,39.57-39.569H360.625z"/>
	<path d="M735.52,180.645H64.552c-7.126,0-12.903,5.776-12.903,12.903V606.46c0,0.097,0.012,0.189,0.014,0.286
		c0.005,0.26,0.018,0.521,0.04,0.781c0.014,0.175,0.033,0.347,0.054,0.52c0.029,0.242,0.067,0.481,0.11,0.724
		c0.035,0.189,0.072,0.377,0.115,0.564c0.048,0.214,0.105,0.427,0.165,0.641c0.059,0.208,0.123,0.412,0.191,0.617
		c0.062,0.184,0.13,0.368,0.201,0.551c0.088,0.225,0.182,0.447,0.282,0.666c0.074,0.159,0.149,0.319,0.23,0.477
		c0.117,0.231,0.243,0.459,0.373,0.681c0.048,0.083,0.088,0.171,0.138,0.251c0.033,0.052,0.072,0.097,0.105,0.148
		c0.25,0.393,0.515,0.769,0.802,1.129c0.04,0.048,0.072,0.103,0.112,0.151c0.308,0.375,0.644,0.728,0.991,1.064
		c0.127,0.124,0.261,0.241,0.394,0.358c0.244,0.218,0.495,0.428,0.757,0.626c0.141,0.108,0.279,0.217,0.423,0.318
		c0.353,0.247,0.715,0.478,1.092,0.689c0.046,0.026,0.088,0.056,0.134,0.081c0.437,0.239,0.891,0.447,1.355,0.633
		c0.104,0.042,0.21,0.078,0.315,0.115c0.365,0.137,0.738,0.257,1.118,0.361c0.131,0.036,0.263,0.069,0.396,0.102
		c0.366,0.088,0.738,0.156,1.116,0.212c0.131,0.021,0.26,0.045,0.391,0.06c0.466,0.054,0.938,0.087,1.418,0.09
		c0.027,0,0.057,0.005,0.084,0.005c0.009,0,0.017-0.001,0.024-0.001h670.93c0.076,0,0.15-0.011,0.226-0.013
		c0.25-0.003,0.497-0.019,0.745-0.036c0.192-0.016,0.384-0.03,0.573-0.051c0.21-0.026,0.416-0.061,0.624-0.097
		c0.221-0.036,0.439-0.074,0.654-0.122c0.175-0.038,0.349-0.088,0.522-0.135c0.234-0.062,0.467-0.125,0.695-0.199
		c0.165-0.055,0.327-0.119,0.488-0.179c0.224-0.085,0.447-0.169,0.666-0.264c0.176-0.077,0.348-0.165,0.521-0.251
		c0.192-0.097,0.386-0.188,0.573-0.293c0.197-0.109,0.389-0.233,0.581-0.354c0.153-0.097,0.307-0.188,0.454-0.291
		c0.207-0.142,0.404-0.296,0.604-0.451c0.127-0.1,0.256-0.196,0.378-0.299c0.193-0.164,0.377-0.336,0.561-0.512
		c0.123-0.115,0.246-0.229,0.363-0.349c0.162-0.167,0.316-0.341,0.47-0.518c0.131-0.15,0.262-0.3,0.388-0.456
		c0.125-0.158,0.244-0.322,0.362-0.483c0.14-0.194,0.277-0.391,0.406-0.592c0.043-0.067,0.093-0.128,0.134-0.194
		c0.054-0.087,0.094-0.178,0.145-0.264c0.128-0.219,0.25-0.44,0.365-0.668c0.083-0.161,0.16-0.323,0.235-0.486
		c0.099-0.215,0.191-0.434,0.277-0.655c0.072-0.187,0.141-0.374,0.205-0.562c0.068-0.201,0.13-0.404,0.188-0.61
		c0.061-0.215,0.117-0.429,0.166-0.646c0.043-0.184,0.08-0.373,0.115-0.561c0.044-0.242,0.08-0.481,0.109-0.725
		c0.021-0.174,0.04-0.348,0.054-0.522c0.021-0.259,0.034-0.519,0.039-0.778c0.002-0.098,0.015-0.19,0.015-0.289v-412.91
		C748.423,186.421,742.646,180.645,735.52,180.645z M85.512,206.452H243.04H400h156.96h157.595h8.063v94.312v99.288v99.275v84.034
		L540.824,471.433l-22.068-13.587l-22.121-13.618c1.913-4.174,3.58-8.48,4.946-12.921c3.035-9.866,4.678-20.339,4.678-31.188
		c0-0.022-0.002-0.044-0.002-0.067c-0.007-10.875-1.66-21.371-4.716-31.257c-2.675-8.657-6.439-16.84-11.115-24.401
		c-6.313-10.206-14.3-19.264-23.58-26.796c-18.272-14.83-41.535-23.74-66.848-23.74s-48.574,8.91-66.847,23.74
		c-9.278,7.531-17.265,16.587-23.575,26.787c-4.678,7.563-8.442,15.744-11.119,24.403c-3.058,9.887-4.711,20.387-4.718,31.264
		c0,0.022-0.001,0.045-0.001,0.067c0,10.852,1.643,21.327,4.679,31.193c1.382,4.49,3.071,8.845,5.012,13.061l-22.12,13.606
		l-22.073,13.578L77.456,583.374v-84.049v-99.273v-99.286v-94.314H85.512z M325.61,430.729c-3.9-9.441-6.064-19.776-6.064-30.61
		c0-44.361,36.093-80.454,80.454-80.454s80.454,36.093,80.454,80.454c0,10.774-2.144,21.049-6.003,30.449l-67.494-41.556
		c-4.147-2.553-9.378-2.555-13.525-0.002L325.61,430.729z M400.189,415.152l289.762,178.404H110.157L400.189,415.152z"/>
</g>
</svg>
