<?xml version="1.0" encoding="utf-8"?>
<!-- Generator: Adobe Illustrator 16.0.0, SVG Export Plug-In . SVG Version: 6.00 Build 0)  -->
<!DOCTYPE svg PUBLIC "-//W3C//DTD SVG 1.1//EN" "http://www.w3.org/Graphics/SVG/1.1/DTD/svg11.dtd">
<svg version="1.1" id="Capa_1" xmlns="http://www.w3.org/2000/svg" xmlns:xlink="http://www.w3.org/1999/xlink" x="0px" y="0px"
	 width="800px" height="800px" viewBox="0 0 800 800" enable-background="new 0 0 800 800" xml:space="preserve">
<g>
	<path fill="#FFE000" d="M76.419,555.839v-1c0-6.563-5.34-11.903-11.903-11.903H24.807v-79.419h750.387v79.419H116.129
		c-6.563,0-11.903,5.34-11.903,11.903v1H76.419z"/>
	<path fill="#FFE000" d="M116.129,541.936h658.064v-77.419H25.807v77.419h38.709c7.126,0,12.903,5.775,12.903,12.903h25.806
		C103.226,547.711,109.003,541.936,116.129,541.936z"/>
	<path fill="#FFE000" d="M334.484,336.484v-79.419h349.387c6.563,0,11.903-5.34,11.903-11.903v-1h27.807v1
		c0,6.563,5.34,11.903,11.903,11.903h39.709v79.419H334.484z"/>
	<path fill="#FFE000" d="M683.871,258.064H335.484v77.419h438.709v-77.419h-38.709c-7.127,0-12.903-5.775-12.903-12.903h-25.807
		C696.774,252.289,690.997,258.064,683.871,258.064z"/>
	<path fill="#259245" d="M24.807,646.161v-79.419h39.709c6.563,0,11.903-5.34,11.903-11.903v-1h27.806v1
		c0,6.563,5.34,11.903,11.903,11.903h659.064v79.419H24.807z"/>
	<path fill="#259245" d="M116.129,567.742c-7.126,0-12.903-5.775-12.903-12.903H77.419c0,7.128-5.777,12.903-12.903,12.903H25.807
		v77.419h748.387v-77.419H116.129z"/>
	<rect x="334.484" y="360.291" fill="#259245" width="440.709" height="79.419"/>
	<rect x="335.484" y="361.291" fill="#259245" width="438.709" height="77.419"/>
	<path fill="#259245" d="M695.774,246.161v-1c0-6.563-5.34-11.903-11.903-11.903H334.484v-79.419h440.709v79.419h-39.709
		c-6.563,0-11.903,5.34-11.903,11.903v1H695.774z"/>
	<path fill="#259245" d="M335.484,232.258h348.387c7.126,0,12.903,5.776,12.903,12.903h25.807c0-7.127,5.776-12.903,12.903-12.903
		h38.709v-77.419H335.484V232.258z"/>
	<path fill="#ED1F34" d="M24.807,439.71V153.839h285.871V439.71H24.807z M206.438,376.293c1.935,1.26,4.178,1.925,6.489,1.925
		c2.531,0,4.951-0.787,6.998-2.274c3.962-2.877,5.771-7.989,4.5-12.719l-11.981-44.584l35.898-29.027
		c3.808-3.078,5.35-8.275,3.836-12.933c-1.513-4.659-5.815-7.958-10.706-8.21l-46.104-2.38l-16.512-43.113
		c-1.751-4.572-6.218-7.645-11.116-7.645s-9.365,3.072-11.116,7.645l-16.512,43.113l-46.103,2.38
		c-4.891,0.252-9.193,3.552-10.707,8.21c-1.514,4.658,0.028,9.855,3.836,12.933l35.898,29.025l-11.981,44.585
		c-1.271,4.729,0.537,9.841,4.5,12.719c2.048,1.487,4.468,2.274,6.999,2.274c2.309,0,4.553-0.666,6.488-1.925l38.7-25.172
		L206.438,376.293z"/>
	<path fill="#ED1F34" d="M25.807,438.71h283.871V154.839H25.807V438.71z M82.352,276.372c1.651-5.084,6.267-8.625,11.606-8.9
		l45.454-2.347l16.279-42.505c1.911-4.991,6.705-8.287,12.05-8.287s10.139,3.296,12.05,8.287l16.279,42.505l45.454,2.347
		c5.339,0.275,9.955,3.816,11.606,8.9c1.652,5.084-0.001,10.66-4.158,14.02l-35.393,28.618l11.813,43.957
		c1.387,5.162-0.552,10.646-4.877,13.788c-2.255,1.64-4.919,2.465-7.585,2.465c-2.445,0-4.891-0.691-7.035-2.087l-38.15-24.819
		l-38.154,24.817c-4.481,2.915-10.295,2.763-14.62-0.378s-6.264-8.626-4.877-13.788l11.813-43.957L86.51,290.392
		C82.354,287.031,80.7,281.456,82.352,276.372z"/>
	<path fill="#FFFFFF" d="M144.657,304.219c3.967,3.208,5.672,8.454,4.348,13.381l-5.248,19.528l16.95-11.024
		c2.139-1.392,4.588-2.087,7.035-2.087c2.446,0,4.896,0.695,7.035,2.087l16.95,11.024l-5.248-19.528
		c-1.325-4.927,0.38-10.173,4.348-13.381l15.723-12.712l-20.191-1.042c-5.096-0.264-9.559-3.506-11.384-8.272l-7.232-18.882
		l-7.233,18.883c-1.825,4.766-6.288,8.007-11.384,8.272l-20.191,1.042L144.657,304.219z"/>
	<path d="M86.51,290.392l35.393,28.617l-11.813,43.957c-1.387,5.162,0.552,10.646,4.877,13.788
		c4.323,3.142,10.139,3.293,14.62,0.378l38.154-24.819l38.154,24.817c2.144,1.395,4.59,2.087,7.035,2.087
		c2.667,0,5.33-0.824,7.585-2.465c4.325-3.142,6.264-8.626,4.877-13.788l-11.813-43.957l35.393-28.618
		c4.157-3.36,5.81-8.936,4.158-14.02c-1.651-5.084-6.267-8.625-11.606-8.9l-45.454-2.347l-16.279-42.505
		c-1.911-4.991-6.705-8.288-12.05-8.288s-10.138,3.296-12.05,8.288l-16.279,42.505l-45.454,2.347
		c-5.338,0.275-9.955,3.816-11.606,8.9C80.7,281.456,82.354,287.031,86.51,290.392z M160.509,282.192l7.233-18.883l7.232,18.883
		c1.825,4.766,6.288,8.007,11.384,8.272l20.191,1.042l-15.723,12.712c-3.967,3.208-5.672,8.454-4.348,13.381l5.248,19.528
		l-16.95-11.024c-2.139-1.392-4.588-2.087-7.035-2.087c-2.447,0-4.896,0.695-7.035,2.087l-16.95,11.024l5.248-19.528
		c1.325-4.927-0.38-10.173-4.348-13.381l-15.723-12.712l20.191-1.042C154.223,290.2,158.684,286.958,160.509,282.192z"/>
	<path d="M787.097,129.032H12.903C5.777,129.032,0,134.808,0,141.936v516.129c0,7.128,5.777,12.903,12.903,12.903h774.193
		c7.126,0,12.903-5.775,12.903-12.903V141.936C800,134.808,794.223,129.032,787.097,129.032z M774.193,232.258h-38.709
		c-7.127,0-12.903,5.776-12.903,12.903c0,7.128,5.776,12.903,12.903,12.903h38.709v77.419H335.484v-77.419h348.387
		c7.126,0,12.903-5.775,12.903-12.903c0-7.127-5.777-12.903-12.903-12.903H335.484v-77.419h438.709V232.258z M335.484,438.71
		v-77.419h438.709v77.419H335.484z M309.678,438.71H25.807V154.839h283.871V438.71z M25.807,645.161v-77.419h38.709
		c7.126,0,12.903-5.775,12.903-12.903s-5.777-12.903-12.903-12.903H25.807v-77.419h748.387v77.419H116.129
		c-7.126,0-12.903,5.775-12.903,12.903s5.777,12.903,12.903,12.903h658.064v77.419H25.807z"/>
</g>
</svg>
