<?xml version="1.0" encoding="utf-8"?>
<!-- Generator: Adobe Illustrator 16.0.0, SVG Export Plug-In . SVG Version: 6.00 Build 0)  -->
<!DOCTYPE svg PUBLIC "-//W3C//DTD SVG 1.1//EN" "http://www.w3.org/Graphics/SVG/1.1/DTD/svg11.dtd">
<svg version="1.1" id="Capa_1" xmlns="http://www.w3.org/2000/svg" xmlns:xlink="http://www.w3.org/1999/xlink" x="0px" y="0px"
	 width="800px" height="800px" viewBox="0 0 800 800" enable-background="new 0 0 800 800" xml:space="preserve">
<g>
	<path fill="#103B9B" d="M24.807,646.161V153.839h750.387v91.322c0,6.563,5.34,11.903,11.903,11.903h1v27.807h-1
		c-6.563,0-11.903,5.34-11.903,11.903v349.387H24.807z M269.987,586.271c-6.563,0-11.903,5.34-11.903,11.903
		s5.34,11.903,11.903,11.903h431.325c6.563,0,11.903-5.34,11.903-11.903s-5.34-11.903-11.903-11.903H269.987z M700.477,189.921
		c-2.491,0-4.882,0.765-6.912,2.212l-419.749,299.29c-9.85,7.072-15.732,18.499-15.732,30.564c0,20.704,16.845,37.548,37.55,37.548
		h405.679c3.862,0,7.498-1.884,9.726-5.04c2.227-3.155,2.782-7.213,1.488-10.854c-19.408-54.554-29.249-111.783-29.249-170.1
		c0-57.473,9.565-113.923,28.432-167.782c1.723-4.917,0.08-10.324-4.086-13.454C705.545,190.746,703.073,189.921,700.477,189.921z
		 M175.161,459.062c-10.417,0-18.892,8.475-18.892,18.892s8.475,18.893,18.892,18.893s18.892-8.476,18.892-18.893
		S185.578,459.062,175.161,459.062z M115.484,319.814c-10.417,0-18.892,8.476-18.892,18.894c0,10.417,8.475,18.893,18.892,18.893
		s18.892-8.476,18.892-18.893C134.375,328.29,125.901,319.814,115.484,319.814z M234.837,270.084
		c-10.417,0-18.892,8.476-18.892,18.893c0,10.417,8.475,18.892,18.892,18.892s18.892-8.475,18.892-18.892
		C253.729,278.56,245.254,270.084,234.837,270.084z M175.161,220.355c-10.417,0-18.892,8.476-18.892,18.893
		c0,10.417,8.475,18.892,18.892,18.892s18.892-8.475,18.892-18.892C194.052,228.831,185.578,220.355,175.161,220.355z"/>
	<path fill="#103B9B" d="M774.193,245.161v-90.322H25.807v490.322h748.387V296.774c0-7.128,5.775-12.903,12.903-12.903v-25.807
		C779.969,258.064,774.193,252.289,774.193,245.161z M273.235,490.608l419.749-299.29c4.579-3.264,10.74-3.19,15.239,0.188
		c4.495,3.377,6.288,9.276,4.429,14.584c-18.829,53.755-28.375,110.094-28.375,167.451c0,58.202,9.821,115.319,29.191,169.765
		c1.404,3.95,0.804,8.339-1.613,11.765c-2.417,3.425-6.349,5.464-10.543,5.464H295.634c-21.256,0-38.55-17.294-38.55-38.548
		C257.084,509.6,263.123,497.87,273.235,490.608z M115.484,358.601c-10.987,0-19.892-8.906-19.892-19.893
		s8.907-19.894,19.892-19.894c10.987,0,19.892,8.907,19.892,19.894S126.469,358.601,115.484,358.601z M175.161,497.846
		c-10.987,0-19.892-8.906-19.892-19.893c0-10.987,8.907-19.892,19.892-19.892c10.985,0,19.892,8.904,19.892,19.892
		C195.052,488.939,186.147,497.846,175.161,497.846z M175.161,259.14c-10.987,0-19.892-8.905-19.892-19.892
		c0-10.986,8.907-19.893,19.892-19.893c10.985,0,19.892,8.907,19.892,19.893C195.052,250.235,186.147,259.14,175.161,259.14z
		 M234.837,308.869c-10.987,0-19.892-8.905-19.892-19.892c0-10.986,8.907-19.893,19.892-19.893s19.892,8.907,19.892,19.893
		C254.729,299.964,245.824,308.869,234.837,308.869z M701.313,611.078H269.987c-7.126,0-12.903-5.775-12.903-12.903
		s5.777-12.903,12.903-12.903h431.325c7.128,0,12.903,5.775,12.903,12.903S708.438,611.078,701.313,611.078z"/>
	<circle fill="#FFFFFF" cx="175.161" cy="239.247" r="19.892"/>
	<circle fill="#FFFFFF" cx="175.161" cy="477.953" r="19.892"/>
	<circle fill="#FFFFFF" cx="234.837" cy="288.977" r="19.892"/>
	<circle fill="#FFFFFF" cx="115.484" cy="338.708" r="19.893"/>
	<path fill="#FFE000" d="M295.634,535.729c-3.666,0-7.115-1.431-9.714-4.029s-4.03-6.048-4.029-9.712
		c0-4.482,2.105-8.565,5.777-11.202l390.872-278.699l-0.729,2.697c-12.17,45.029-18.34,91.715-18.34,138.761
		c0,54.876,8.356,109.005,24.837,160.882l0.414,1.303H295.634z"/>
	<path fill="#FFE000" d="M295.634,534.729h387.721c-16.521-52.003-24.884-106.133-24.884-161.185
		c0-47.259,6.169-93.86,18.374-139.021L288.251,511.598c-3.394,2.438-5.36,6.233-5.36,10.39
		C282.89,529.012,288.607,534.729,295.634,534.729z"/>
	<path d="M295.634,560.535h405.679c4.194,0,8.126-2.039,10.543-5.464c2.417-3.426,3.02-7.814,1.613-11.765
		c-19.37-54.444-29.191-111.563-29.191-169.765c0-57.357,9.546-113.696,28.375-167.451c1.859-5.308,0.066-11.207-4.429-14.584
		c-4.499-3.379-10.66-3.453-15.239-0.188l-419.749,299.29c-10.113,7.262-16.151,18.991-16.151,31.377
		C257.084,543.241,274.377,560.535,295.634,560.535z M288.251,511.596l388.594-277.075c-12.205,45.161-18.374,91.763-18.374,139.021
		c0,55.052,8.363,109.184,24.884,161.185H295.634c-7.026,0-12.744-5.715-12.744-12.741
		C282.89,517.829,284.857,514.033,288.251,511.596z"/>
	<path fill="#FFE000" d="M701.313,585.271H269.987c-7.126,0-12.903,5.775-12.903,12.903s5.777,12.903,12.903,12.903h431.325
		c7.128,0,12.903-5.775,12.903-12.903S708.438,585.271,701.313,585.271z"/>
	<path d="M774.193,296.774v348.387H25.807V154.839h748.387v90.322c0,7.128,5.775,12.903,12.903,12.903S800,252.289,800,245.161
		V141.936c0-7.128-5.775-12.903-12.903-12.903H12.903C5.777,129.032,0,134.808,0,141.936v516.129
		c0,7.128,5.777,12.903,12.903,12.903h774.193c7.128,0,12.903-5.775,12.903-12.903v-361.29c0-7.128-5.775-12.903-12.903-12.903
		S774.193,289.646,774.193,296.774z"/>
</g>
</svg>
