<?xml version="1.0" encoding="utf-8"?>
<!-- Generator: Adobe Illustrator 16.0.0, SVG Export Plug-In . SVG Version: 6.00 Build 0)  -->
<!DOCTYPE svg PUBLIC "-//W3C//DTD SVG 1.1//EN" "http://www.w3.org/Graphics/SVG/1.1/DTD/svg11.dtd">
<svg version="1.1" id="Capa_1" xmlns="http://www.w3.org/2000/svg" xmlns:xlink="http://www.w3.org/1999/xlink" x="0px" y="0px"
	 width="800px" height="800px" viewBox="0 0 800 800" enable-background="new 0 0 800 800" xml:space="preserve">
<g>
	<path fill="#ED1F34" d="M24.807,646.161V411.903h324.013c6.563,0,11.903-5.34,11.903-11.903V153.839h414.471v390.077
		c0,6.563,5.34,11.903,11.903,11.903h1v38.729h-1c-6.563,0-11.903,5.34-11.903,11.902v39.71H24.807z"/>
	<path fill="#ED1F34" d="M774.193,543.916V154.839H361.723V400c0,7.126-5.776,12.903-12.903,12.903H25.807v232.258h748.387v-38.71
		c0-7.126,5.775-12.902,12.903-12.902v-36.729C779.969,556.819,774.193,551.042,774.193,543.916z"/>
	<path fill="#FFFFFF" d="M335.916,387.097V154.839H25.807v232.258H335.916z M120.645,258.064h47.312v-47.312
		c0-7.126,5.775-12.903,12.903-12.903c7.127,0,12.903,5.777,12.903,12.903v47.312h47.312c7.128,0,12.903,5.777,12.903,12.903
		s-5.775,12.903-12.903,12.903h-47.312v47.312c0,7.126-5.776,12.903-12.903,12.903c-7.128,0-12.903-5.777-12.903-12.903v-47.312
		h-47.312c-7.127,0-12.903-5.777-12.903-12.903S113.518,258.064,120.645,258.064z"/>
	<path fill="#ED1F34" d="M120.645,283.871h47.312v47.312c0,7.126,5.775,12.903,12.903,12.903c7.127,0,12.903-5.777,12.903-12.903
		v-47.312h47.312c7.128,0,12.903-5.777,12.903-12.903s-5.775-12.903-12.903-12.903h-47.312v-47.312
		c0-7.126-5.776-12.903-12.903-12.903c-7.128,0-12.903,5.777-12.903,12.903v47.312h-47.312c-7.127,0-12.903,5.777-12.903,12.903
		S113.518,283.871,120.645,283.871z"/>
	<path d="M774.193,606.451v38.71H25.807V412.903h323.013c7.127,0,12.903-5.777,12.903-12.903V154.839h412.471v389.077
		c0,7.126,5.775,12.903,12.903,12.903S800,551.042,800,543.916v-401.98c0-7.126-5.775-12.903-12.903-12.903H12.903
		C5.775,129.032,0,134.81,0,141.936v516.129c0,7.126,5.775,12.903,12.903,12.903h774.193c7.128,0,12.903-5.777,12.903-12.903
		v-51.613c0-7.126-5.775-12.902-12.903-12.902S774.193,599.325,774.193,606.451z M335.916,154.839v232.258H25.807V154.839H335.916z"
		/>
</g>
</svg>
