<?xml version="1.0" encoding="utf-8"?>
<!-- Generator: Adobe Illustrator 16.0.0, SVG Export Plug-In . SVG Version: 6.00 Build 0)  -->
<!DOCTYPE svg PUBLIC "-//W3C//DTD SVG 1.1//EN" "http://www.w3.org/Graphics/SVG/1.1/DTD/svg11.dtd">
<svg version="1.1" id="Capa_1" xmlns="http://www.w3.org/2000/svg" xmlns:xlink="http://www.w3.org/1999/xlink" x="0px" y="0px"
	 width="800px" height="800px" viewBox="0 0 800 800" enable-background="new 0 0 800 800" xml:space="preserve">
<g>
	<rect x="24.807" y="153.839" fill="#ED1F34" width="750.387" height="169.742"/>
	<rect x="25.807" y="154.839" fill="#ED1F34" width="748.387" height="167.742"/>
	<path fill="#ED1F34" d="M76.419,659.064v-1c0-6.563-5.34-11.903-11.903-11.903H24.807V476.419h750.387v169.742H116.129
		c-6.563,0-11.903,5.34-11.903,11.903v1H76.419z"/>
	<path fill="#ED1F34" d="M116.129,645.161h658.064V477.419H25.807v167.742h38.709c7.128,0,12.903,5.777,12.903,12.903h25.806
		C103.226,650.938,109.001,645.161,116.129,645.161z"/>
	<rect x="24.807" y="347.387" fill="#259245" width="750.387" height="105.226"/>
	<rect x="25.807" y="348.387" fill="#259245" width="748.387" height="103.226"/>
	<path d="M787.097,129.032H12.903C5.775,129.032,0,134.81,0,141.936v516.129c0,7.126,5.775,12.903,12.903,12.903h51.613
		c7.128,0,12.903-5.777,12.903-12.903s-5.775-12.903-12.903-12.903H25.807V477.419h748.387v167.742H116.129
		c-7.127,0-12.903,5.777-12.903,12.903s5.776,12.903,12.903,12.903h670.968c7.128,0,12.903-5.777,12.903-12.903V141.936
		C800,134.81,794.225,129.032,787.097,129.032z M774.193,154.839v167.742H25.807V154.839H774.193z M25.807,348.387h748.387v103.226
		H25.807V348.387z"/>
</g>
</svg>
