<?xml version="1.0" encoding="utf-8"?>
<!-- Generator: Adobe Illustrator 16.0.0, SVG Export Plug-In . SVG Version: 6.00 Build 0)  -->
<!DOCTYPE svg PUBLIC "-//W3C//DTD SVG 1.1//EN" "http://www.w3.org/Graphics/SVG/1.1/DTD/svg11.dtd">
<svg version="1.1" id="Capa_1" xmlns="http://www.w3.org/2000/svg" xmlns:xlink="http://www.w3.org/1999/xlink" x="0px" y="0px"
	 width="800px" height="800px" viewBox="0 0 800 800" enable-background="new 0 0 800 800" xml:space="preserve">
<g>
	<path fill="#ED1F34" d="M24.807,646.161v-39.71c0-6.563-5.34-11.902-11.903-11.902h-1v-27.807h1c6.563,0,11.903-5.34,11.903-11.903
		v-401h750.387v492.322H24.807z M400,221.215c-98.583,0-178.785,80.203-178.785,178.785c0,98.582,80.203,178.785,178.785,178.785
		c98.582,0,178.785-80.203,178.785-178.785C578.785,301.417,498.582,221.215,400,221.215z"/>
	<path fill="#ED1F34" d="M25.807,606.451v38.71h748.387V154.839H25.807v400c0,7.126-5.776,12.903-12.903,12.903v25.807
		C20.031,593.549,25.807,599.325,25.807,606.451z M400,220.215c99.293,0,179.785,80.492,179.785,179.785
		S499.293,579.785,400,579.785S220.215,499.293,220.215,400S300.707,220.215,400,220.215z"/>
	<path d="M787.097,129.032H12.903C5.775,129.032,0,134.81,0,141.936v412.903c0,7.126,5.775,12.903,12.903,12.903
		c7.127,0,12.903-5.777,12.903-12.903v-400h748.387v490.322H25.807v-38.71c0-7.126-5.776-12.902-12.903-12.902
		C5.775,593.549,0,599.325,0,606.451v51.613c0,7.126,5.775,12.903,12.903,12.903h774.193c7.128,0,12.903-5.777,12.903-12.903
		V141.936C800,134.81,794.225,129.032,787.097,129.032z"/>
	<path fill="#FFFFFF" d="M400,579.785c99.293,0,179.785-80.492,179.785-179.785S499.293,220.215,400,220.215
		S220.215,300.707,220.215,400S300.707,579.785,400,579.785z M529.983,354.577c5.167-1.385,10.646,0.552,13.79,4.876
		c3.141,4.323,3.292,10.138,0.378,14.62L527.289,400l16.396,25.211c1.624,2.157,2.586,4.842,2.586,7.751
		c0,7.049-5.65,12.775-12.668,12.901c-1.222,0.024-2.419-0.117-3.62-0.44l-29.861-8.027l-19.442,24.05
		c-2.493,3.085-6.207,4.791-10.035,4.791c-1.33,0-2.674-0.206-3.984-0.633c-5.084-1.651-8.625-6.268-8.9-11.606l-1.595-30.887
		l-28.877-11.062c-4.991-1.914-8.288-6.705-8.288-12.051c0-5.345,3.297-10.137,8.288-12.05l28.877-11.062l1.595-30.887
		c0.275-5.338,3.816-9.954,8.9-11.606c5.082-1.648,10.659,0.003,14.02,4.158l19.442,24.05L529.983,354.577z M400,253.764
		c40.305,0,79.155,16.865,106.733,46.304c2.481,2.352,4.029,5.679,4.029,9.368c0,7.038-5.632,12.76-12.636,12.901
		c-2.118,0.065-4.312-0.43-6.318-1.485c-12.936-6.816-26.935-10.274-41.611-10.274c-49.308,0-89.425,40.115-89.425,89.423
		s40.115,89.423,89.425,89.423c14.675,0,28.676-3.456,41.611-10.274c5.563-2.93,12.427-1.428,16.255,3.563
		c3.826,4.987,3.499,12.008-0.772,16.621C479.68,529.141,440.574,546.236,400,546.236c-80.635,0-146.236-65.602-146.236-146.236
		S319.365,253.764,400,253.764z"/>
	<path fill="#ED1F34" d="M400,521.43c-66.957,0-121.43-54.473-121.43-121.43S333.043,278.57,400,278.57
		c12.721,0,25.34,2.011,37.507,5.978l-0.197,1.944C379.535,293.007,335.968,341.805,335.968,400
		c0,58.195,43.567,106.993,101.342,113.507l0.197,1.945C425.341,519.418,412.722,521.43,400,521.43z"/>
	<path fill="#ED1F34" d="M400,520.43c12.727,0,25.276-2.042,37.197-5.929C379.756,508.024,334.968,459.145,334.968,400
		c0-59.145,44.788-108.024,102.229-114.501c-11.921-3.886-24.471-5.929-37.197-5.929c-66.405,0-120.43,54.025-120.43,120.43
		S333.595,520.43,400,520.43z"/>
	<path d="M400,546.236c40.574,0,79.68-17.096,107.291-46.904c4.271-4.612,4.599-11.633,0.772-16.621
		c-3.829-4.989-10.692-6.492-16.255-3.563c-12.936,6.816-26.935,10.274-41.611,10.274c-49.308,0-89.425-40.115-89.425-89.423
		s40.115-89.423,89.425-89.423c14.675,0,28.676,3.457,41.611,10.274c2.007,1.056,4.198,1.55,6.318,1.485
		c7.002-0.141,12.636-5.863,12.636-12.901c0-3.69-1.546-7.018-4.029-9.368c-27.578-29.438-66.429-46.303-106.733-46.303
		c-80.635,0-146.236,65.602-146.236,146.236S319.365,546.236,400,546.236z M400,279.57c12.727,0,25.276,2.042,37.197,5.929
		C379.756,291.976,334.968,340.855,334.968,400c0,59.145,44.788,108.024,102.229,114.502c-11.921,3.886-24.471,5.929-37.197,5.929
		c-66.405,0-120.43-54.025-120.43-120.431S333.595,279.57,400,279.57z"/>
	<path fill="#ED1F34" d="M480.505,413.448c-0.244-4.698-3.24-8.82-7.631-10.501l-7.696-2.949l7.696-2.948
		c4.393-1.683,7.388-5.805,7.631-10.502l0.427-8.228l5.178,6.405c2.27,2.808,5.644,4.418,9.258,4.418
		c1.041,0,2.08-0.137,3.089-0.407l7.957-2.138l-4.495,6.911c-2.563,3.943-2.563,9.037,0,12.979l4.495,6.911l-7.958-2.139
		c-1.009-0.271-2.049-0.409-3.091-0.409c-3.612,0-6.985,1.61-9.254,4.419l-5.179,6.406L480.505,413.448z"/>
	<path fill="#ED1F34" d="M504.151,411.756l-3.071-4.723c-2.781-4.277-2.781-9.791,0-14.07l3.071-4.723l-5.437,1.461
		c-4.929,1.321-10.175-0.378-13.383-4.348l-3.537-4.375l-0.291,5.621c-0.264,5.096-3.505,9.559-8.272,11.384l-5.259,2.015
		l5.259,2.015c4.768,1.824,8.007,6.287,8.272,11.383l0.291,5.621l3.537-4.375c3.206-3.969,8.454-5.674,13.383-4.348L504.151,411.756
		z"/>
	<path d="M480.68,338.555c-3.36-4.156-8.938-5.806-14.02-4.158c-5.084,1.652-8.625,6.268-8.9,11.606l-1.595,30.887l-28.877,11.062
		c-4.991,1.913-8.288,6.705-8.288,12.05s3.297,10.137,8.288,12.05l28.877,11.063l1.595,30.887c0.275,5.338,3.816,9.954,8.9,11.605
		c1.313,0.427,2.654,0.634,3.984,0.634c3.828,0,7.542-1.707,10.035-4.792l19.442-24.05l29.861,8.027
		c1.199,0.324,2.398,0.465,3.62,0.44c7.018-0.125,12.668-5.853,12.668-12.901c0-2.909-0.962-5.593-2.586-7.75l-16.396-25.211
		l16.862-25.927c2.914-4.48,2.763-10.295-0.378-14.621c-3.142-4.325-8.623-6.26-13.79-4.875l-29.861,8.027L480.68,338.555z
		 M485.332,414.645l-3.537,4.375l-0.291-5.621c-0.264-5.096-3.505-9.559-8.272-11.384L467.973,400l5.259-2.015
		c4.768-1.825,8.007-6.288,8.272-11.384l0.291-5.621l3.537,4.375c3.208,3.969,8.454,5.669,13.383,4.348l5.437-1.46l-3.071,4.723
		c-2.781,4.277-2.781,9.791,0,14.07l3.071,4.723l-5.437-1.461C493.786,408.971,488.538,410.676,485.332,414.645z"/>
</g>
</svg>
