<?xml version="1.0" encoding="utf-8"?>
<!-- Generator: Adobe Illustrator 16.0.0, SVG Export Plug-In . SVG Version: 6.00 Build 0)  -->
<!DOCTYPE svg PUBLIC "-//W3C//DTD SVG 1.1//EN" "http://www.w3.org/Graphics/SVG/1.1/DTD/svg11.dtd">
<svg version="1.1" id="Capa_1" xmlns="http://www.w3.org/2000/svg" xmlns:xlink="http://www.w3.org/1999/xlink" x="0px" y="0px"
	 width="800px" height="800px" viewBox="0 0 800 800" enable-background="new 0 0 800 800" xml:space="preserve">
<g>
	<path fill="#259245" d="M265.667,646.161V153.839h418.205c6.563,0,11.903-5.34,11.903-11.903v-1h27.807v1
		c0,6.563,5.34,11.903,11.903,11.903h39.709v492.322H265.667z M355.626,324.328c-2.004,0-3.993,0.514-5.752,1.485
		c-4.855,2.683-7.201,8.288-5.706,13.63c4.116,14.693,12.008,28.177,22.824,38.995c16.871,16.871,39.302,26.162,63.16,26.162
		c23.86,0,46.291-9.291,63.162-26.162c34.826-34.826,34.826-91.493,0-126.321c-10.814-10.814-24.299-18.708-38.995-22.826
		c-1.049-0.294-2.13-0.443-3.213-0.443c-4.326,0-8.315,2.353-10.412,6.139c-2.684,4.85-1.694,10.842,2.406,14.571
		c0.684,0.625,1.36,1.263,2.018,1.92c10.503,10.502,16.287,24.489,16.288,39.382c0,14.893-5.784,28.879-16.286,39.381
		c-10.518,10.52-24.504,16.313-39.383,16.313c-14.876,0-28.863-5.794-39.384-16.315c-0.655-0.654-1.287-1.325-1.903-2.002
		C362.197,325.753,358.981,324.328,355.626,324.328z M354.489,275.593c-3.18,0-6.169,1.238-8.417,3.486
		c-4.641,4.64-4.641,12.191,0,16.834c2.249,2.248,5.238,3.486,8.417,3.486s6.169-1.238,8.417-3.486
		c2.248-2.249,3.486-5.238,3.486-8.417c0-3.18-1.238-6.169-3.486-8.417C360.658,276.832,357.668,275.593,354.489,275.593z
		 M317.991,239.096c-3.18,0-6.168,1.238-8.417,3.487c-4.641,4.641-4.641,12.193,0,16.834c2.249,2.248,5.237,3.486,8.417,3.486
		s6.168-1.238,8.417-3.486c2.249-2.249,3.487-5.238,3.487-8.417c0-3.18-1.238-6.169-3.487-8.417S321.171,239.096,317.991,239.096z
		 M363.199,235.703c-3.18,0-6.168,1.238-8.417,3.486c-4.641,4.641-4.64,12.193,0,16.835c2.249,2.248,5.237,3.486,8.417,3.486
		s6.168-1.238,8.417-3.486c4.641-4.642,4.641-12.194,0-16.835C369.368,236.941,366.379,235.703,363.199,235.703z M405.747,229.651
		c-3.18,0-6.168,1.238-8.417,3.486c-4.641,4.641-4.641,12.193,0,16.834c2.248,2.248,5.236,3.486,8.415,3.486
		c3.18,0,6.169-1.238,8.418-3.486c4.642-4.641,4.642-12.193,0-16.834C411.915,230.889,408.927,229.651,405.747,229.651z
		 M369.25,193.155c-3.18,0-6.168,1.238-8.417,3.486c-4.641,4.641-4.641,12.193,0,16.834c2.249,2.249,5.238,3.487,8.417,3.487
		s6.168-1.238,8.417-3.487c2.248-2.249,3.486-5.238,3.486-8.417c0-3.18-1.238-6.169-3.486-8.417
		C375.418,194.394,372.43,193.155,369.25,193.155z"/>
	<path fill="#259245" d="M683.871,154.839H266.667v490.322h507.527V154.839h-38.709c-7.128,0-12.903-5.777-12.903-12.903h-25.807
		C696.774,149.062,690.999,154.839,683.871,154.839z M396.623,232.43c5.039-5.039,13.209-5.039,18.247,0
		c5.039,5.039,5.039,13.209,0,18.249c-5.04,5.039-13.21,5.039-18.247,0C391.584,245.64,391.584,237.469,396.623,232.43z
		 M360.126,195.935c5.039-5.039,13.209-5.039,18.248,0s5.039,13.209,0,18.249c-5.039,5.04-13.209,5.04-18.248,0
		C355.087,209.144,355.087,200.974,360.126,195.935z M354.075,238.482c5.039-5.039,13.209-5.039,18.248,0s5.039,13.209,0,18.249
		c-5.039,5.039-13.209,5.039-18.248,0C349.036,251.69,349.036,243.521,354.075,238.482z M327.115,260.124
		c-5.039,5.039-13.209,5.039-18.248,0s-5.039-13.209,0-18.249c5.039-5.04,13.209-5.04,18.248,0
		C332.155,246.915,332.155,255.085,327.115,260.124z M345.364,278.373c5.039-5.039,13.21-5.039,18.249,0s5.039,13.209,0,18.249
		s-13.21,5.039-18.249,0C340.325,291.58,340.325,283.41,345.364,278.373z M494.021,379.145
		c-17.06,17.06-39.744,26.455-63.869,26.455c-24.126,0-46.808-9.395-63.867-26.455c-10.936-10.937-18.918-24.573-23.08-39.432
		c-1.613-5.764,0.946-11.88,6.186-14.775c5.24-2.894,11.779-1.806,15.8,2.627c0.605,0.666,1.227,1.325,1.87,1.968
		c10.333,10.333,24.067,16.022,38.677,16.022c14.608,0,28.347-5.689,38.676-16.021c21.324-21.325,21.324-56.024-0.002-77.349
		c-0.646-0.646-1.313-1.274-1.983-1.887c-4.425-4.024-5.504-10.562-2.608-15.795c2.897-5.234,9.012-7.789,14.77-6.175
		c14.859,4.164,28.496,12.145,39.433,23.082C529.238,286.629,529.237,343.93,494.021,379.145z"/>
	<rect x="24.807" y="153.839" fill="#259245" width="62.215" height="492.322"/>
	<rect x="25.807" y="154.839" fill="#259245" width="60.215" height="490.322"/>
	<path fill="#ED1F34" d="M110.828,646.161V153.839H241.86v492.322H110.828z M150.538,572.429c-6.563,0-11.903,5.34-11.903,11.903
		s5.34,11.903,11.903,11.903h51.613c6.563,0,11.903-5.34,11.903-11.903s-5.34-11.903-11.903-11.903H150.538z M150.538,498.696
		c-6.563,0-11.903,5.34-11.903,11.903s5.34,11.903,11.903,11.903h51.613c6.563,0,11.903-5.34,11.903-11.903
		s-5.34-11.903-11.903-11.903H150.538z M150.538,424.962c-6.563,0-11.903,5.34-11.903,11.903s5.34,11.903,11.903,11.903h51.613
		c6.563,0,11.903-5.34,11.903-11.903s-5.34-11.903-11.903-11.903H150.538z M150.538,351.231c-6.563,0-11.903,5.34-11.903,11.903
		s5.34,11.903,11.903,11.903h51.613c6.563,0,11.903-5.34,11.903-11.903s-5.34-11.903-11.903-11.903H150.538z M150.538,277.497
		c-6.563,0-11.903,5.34-11.903,11.903s5.34,11.903,11.903,11.903h51.613c6.563,0,11.903-5.34,11.903-11.903
		s-5.34-11.903-11.903-11.903H150.538z M150.538,203.765c-6.563,0-11.903,5.34-11.903,11.903s5.34,11.903,11.903,11.903h51.613
		c6.563,0,11.903-5.34,11.903-11.903s-5.34-11.903-11.903-11.903H150.538z"/>
	<path fill="#ED1F34" d="M240.86,154.839H111.828v490.322H240.86V154.839z M150.538,202.765h51.613
		c7.128,0,12.903,5.777,12.903,12.903s-5.775,12.903-12.903,12.903h-51.613c-7.128,0-12.903-5.777-12.903-12.903
		S143.41,202.765,150.538,202.765z M202.15,597.235h-51.613c-7.128,0-12.903-5.777-12.903-12.903s5.775-12.903,12.903-12.903h51.613
		c7.128,0,12.903,5.777,12.903,12.903S209.278,597.235,202.15,597.235z M202.15,523.503h-51.613
		c-7.128,0-12.903-5.777-12.903-12.903s5.775-12.903,12.903-12.903h51.613c7.128,0,12.903,5.777,12.903,12.903
		S209.278,523.503,202.15,523.503z M202.15,449.769h-51.613c-7.128,0-12.903-5.777-12.903-12.903s5.775-12.903,12.903-12.903h51.613
		c7.128,0,12.903,5.777,12.903,12.903S209.278,449.769,202.15,449.769z M202.15,376.038h-51.613
		c-7.128,0-12.903-5.777-12.903-12.903s5.775-12.903,12.903-12.903h51.613c7.128,0,12.903,5.777,12.903,12.903
		S209.278,376.038,202.15,376.038z M202.15,302.304h-51.613c-7.128,0-12.903-5.777-12.903-12.903s5.775-12.903,12.903-12.903h51.613
		c7.128,0,12.903,5.777,12.903,12.903S209.278,302.304,202.15,302.304z"/>
	<path fill="#FFFFFF" d="M485.775,282.577c2.39,23.279-5.317,47.408-23.115,65.208c-15.207,15.205-35.422,23.578-56.924,23.578
		c-2.772,0-5.523-0.139-8.243-0.413c9.795,5.769,20.991,8.845,32.657,8.845c17.233,0,33.437-6.711,45.621-18.897
		C496.972,339.699,500.308,307.3,485.775,282.577z"/>
	<path d="M454.589,228.329c-5.758-1.614-11.872,0.943-14.77,6.175c-2.897,5.233-1.818,11.771,2.608,15.795
		c0.673,0.611,1.337,1.239,1.983,1.887c21.326,21.327,21.326,56.024,0.002,77.349c-10.331,10.331-24.067,16.021-38.676,16.021
		c-14.609,0-28.346-5.689-38.677-16.022c-0.644-0.643-1.265-1.3-1.87-1.968c-4.021-4.434-10.56-5.521-15.8-2.627
		c-5.239,2.896-7.799,9.012-6.186,14.775c4.162,14.859,12.145,28.495,23.08,39.432c17.06,17.06,39.741,26.455,63.867,26.455
		c24.125,0,46.81-9.395,63.869-26.455c35.216-35.215,35.217-92.518,0-127.735C483.085,240.475,469.448,232.492,454.589,228.329z
		 M397.495,370.949c2.72,0.275,5.471,0.413,8.242,0.413c21.502,0,41.718-8.374,56.924-23.579
		c17.798-17.799,25.504-41.927,23.116-65.208c14.53,24.722,11.196,57.122-10.003,78.319c-12.184,12.186-28.387,18.897-45.62,18.897
		C418.486,379.793,407.289,376.717,397.495,370.949z"/>
	<path d="M787.097,129.032h-51.612c-7.128,0-12.903,5.777-12.903,12.903s5.775,12.903,12.903,12.903h38.709v490.322H266.667V154.839
		h417.205c7.128,0,12.903-5.777,12.903-12.903s-5.775-12.903-12.903-12.903H12.903C5.775,129.032,0,134.81,0,141.936v516.129
		c0,7.126,5.775,12.903,12.903,12.903h774.193c7.128,0,12.903-5.777,12.903-12.903V141.936
		C800,134.81,794.225,129.032,787.097,129.032z M25.807,154.839h60.215v490.322H25.807V154.839z M111.828,154.839H240.86v490.322
		H111.828V154.839z"/>
	<path fill="#F2A643" d="M202.15,571.429h-51.613c-7.128,0-12.903,5.777-12.903,12.903s5.775,12.903,12.903,12.903h51.613
		c7.128,0,12.903-5.777,12.903-12.903S209.278,571.429,202.15,571.429z"/>
	<path fill="#259245" d="M202.15,497.696h-51.613c-7.128,0-12.903,5.777-12.903,12.903s5.775,12.903,12.903,12.903h51.613
		c7.128,0,12.903-5.777,12.903-12.903S209.278,497.696,202.15,497.696z"/>
	<path fill="#259245" d="M202.15,423.962h-51.613c-7.128,0-12.903,5.777-12.903,12.903s5.775,12.903,12.903,12.903h51.613
		c7.128,0,12.903-5.777,12.903-12.903S209.278,423.962,202.15,423.962z"/>
	<path fill="#259245" d="M202.15,350.231h-51.613c-7.128,0-12.903,5.777-12.903,12.903s5.775,12.903,12.903,12.903h51.613
		c7.128,0,12.903-5.777,12.903-12.903S209.278,350.231,202.15,350.231z"/>
	<path fill="#259245" d="M202.15,276.497h-51.613c-7.128,0-12.903,5.777-12.903,12.903s5.775,12.903,12.903,12.903h51.613
		c7.128,0,12.903-5.777,12.903-12.903S209.278,276.497,202.15,276.497z"/>
	<path fill="#259245" d="M150.538,228.571h51.613c7.128,0,12.903-5.777,12.903-12.903s-5.775-12.903-12.903-12.903h-51.613
		c-7.128,0-12.903,5.777-12.903,12.903S143.41,228.571,150.538,228.571z"/>
	<circle fill="#FFFFFF" cx="405.746" cy="241.554" r="12.903"/>
	<circle fill="#FFFFFF" cx="354.487" cy="287.496" r="12.903"/>
	<circle fill="#FFFFFF" cx="369.251" cy="205.058" r="12.903"/>
	<circle fill="#FFFFFF" cx="317.992" cy="251" r="12.903"/>
	<circle fill="#FFFFFF" cx="363.198" cy="247.606" r="12.903"/>
</g>
</svg>
