<?xml version="1.0" encoding="utf-8"?>
<!-- Generator: Adobe Illustrator 16.0.0, SVG Export Plug-In . SVG Version: 6.00 Build 0)  -->
<!DOCTYPE svg PUBLIC "-//W3C//DTD SVG 1.1//EN" "http://www.w3.org/Graphics/SVG/1.1/DTD/svg11.dtd">
<svg version="1.1" id="Capa_1" xmlns="http://www.w3.org/2000/svg" xmlns:xlink="http://www.w3.org/1999/xlink" x="0px" y="0px"
	 width="800px" height="800px" viewBox="0 0 800 800" enable-background="new 0 0 800 800" xml:space="preserve">
<g>
	<polygon fill="#103B9B" points="91.761,153.839 172.613,153.839 172.613,207.741 	"/>
	<polygon fill="#103B9B" points="171.613,154.839 95.064,154.839 171.613,205.872 	"/>
	<polygon fill="#103B9B" points="24.807,237.129 24.807,190.539 94.69,237.129 	"/>
	<polygon fill="#103B9B" points="25.807,192.408 25.807,236.129 91.388,236.129 	"/>
	<polygon fill="#103B9B" points="24.807,304.807 94.69,304.807 24.807,351.396 	"/>
	<polygon fill="#103B9B" points="25.807,305.807 25.807,349.528 91.388,305.807 	"/>
	<polygon fill="#103B9B" points="240.291,153.839 321.142,153.839 240.291,207.741 	"/>
	<polygon fill="#103B9B" points="317.839,154.839 241.291,154.839 241.291,205.872 	"/>
	<path fill="#103B9B" d="M24.807,646.161V399h50.6l97.206-64.805V399h67.678v-64.805L337.497,399H399v-40.335l-80.787-53.858H399
		v-67.678h-80.787L399,183.271v-29.432h376.193v401c0,6.563,5.34,11.903,11.903,11.903h1v27.807h-1
		c-6.563,0-11.903,5.34-11.903,11.902v39.71H24.807z M507.527,283.35c-6.563,0-11.903,5.34-11.903,11.903v95.219
		c0,52.819,25.856,84.276,47.548,101.366c23.165,18.249,46.537,24.218,47.521,24.463c0.934,0.23,1.896,0.348,2.855,0.348
		s1.922-0.117,2.857-0.348c0.979-0.242,24.272-6.148,47.519-24.463c21.691-17.09,47.548-48.547,47.548-101.366v-95.219
		c0-6.563-5.34-11.903-11.902-11.903H507.527z"/>
	<path fill="#103B9B" d="M774.193,554.839v-400H400v28.967l-78.484,52.323H400v16.129v37.419v16.129h-78.484L400,358.13v14.551V400
		h-62.806l-95.904-63.937V400h-16.129h-37.419h-16.129v-63.937L75.709,400H54.773H25.807v245.161h748.387v-38.71
		c0-7.127,5.777-12.902,12.903-12.902v-25.807C779.971,567.742,774.193,561.967,774.193,554.839z M692.473,390.472
		c0,53.221-26.064,84.925-47.929,102.151c-23.422,18.453-46.911,24.404-47.898,24.648c-1.018,0.251-2.057,0.377-3.097,0.377
		c-1.041,0-2.079-0.126-3.098-0.377c-0.987-0.246-24.477-6.197-47.898-24.648c-21.864-17.226-47.929-48.928-47.929-102.151v-95.219
		c0-7.126,5.776-12.903,12.903-12.903H679.57c7.126,0,12.902,5.777,12.902,12.903V390.472z"/>
	<polygon fill="#FFFFFF" points="258.709,236.129 241.291,236.129 241.291,219.836 338.776,154.839 317.839,154.839 
		241.291,205.872 241.291,154.839 225.161,154.839 225.161,252.258 400,252.258 400,236.129 321.516,236.129 400,183.806 
		400,154.839 380.646,154.839 	"/>
	<polygon fill="#ED1F34" points="171.613,305.807 154.193,305.807 25.807,391.398 25.807,400 54.773,400 171.613,322.107 	"/>
	<polygon fill="#ED1F34" points="241.291,236.129 258.709,236.129 380.646,154.839 338.776,154.839 241.291,219.836 	"/>
	<polygon fill="#ED1F34" points="258.709,305.807 400,400 400,372.681 299.924,305.807 	"/>
	<polygon fill="#ED1F34" points="154.193,236.129 32.258,154.839 25.807,154.839 25.807,178.493 112.055,236.129 	"/>
	<polygon fill="#FFFFFF" points="225.161,289.677 225.161,400 241.291,400 241.291,336.063 337.194,400 400,400 258.709,305.807 
		299.924,305.807 400,372.681 400,358.13 321.516,305.807 400,305.807 400,289.677 	"/>
	<polygon fill="#FFFFFF" points="187.742,289.677 25.807,289.677 25.807,305.807 91.388,305.807 25.807,349.528 25.807,391.398 
		154.193,305.807 171.613,305.807 171.613,322.107 54.773,400 75.709,400 171.613,336.063 171.613,400 187.742,400 	"/>
	<polygon fill="#FFFFFF" points="187.742,252.258 187.742,154.839 171.613,154.839 171.613,205.872 95.064,154.839 32.258,154.839 
		154.193,236.129 112.055,236.129 25.807,178.493 25.807,192.408 91.388,236.129 25.807,236.129 25.807,252.258 	"/>
	<polygon fill="#ED1F34" points="225.161,252.258 225.161,154.839 187.742,154.839 187.742,252.258 25.807,252.258 25.807,289.677 
		187.742,289.677 187.742,400 225.161,400 225.161,289.677 400,289.677 400,252.258 	"/>
	<path fill="#FFE000" d="M593.271,492.246c-7.166-2.352-25.63-9.516-42.289-25.227c-20.937-19.744-31.553-45.499-31.553-76.547
		v-83.315h148.237v83.315c0,31.24-10.558,57.042-31.379,76.689c-16.644,15.704-35.195,22.775-42.399,25.087l-0.31,0.1
		L593.271,492.246z M593.549,392.183c-13.441,0-24.377,10.935-24.377,24.376s10.936,24.377,24.377,24.377
		s24.376-10.936,24.376-24.377S606.99,392.183,593.549,392.183z M625.376,338.419c-13.441,0-24.376,10.935-24.376,24.376
		c0,13.441,10.935,24.376,24.376,24.376s24.377-10.935,24.377-24.376C649.753,349.354,638.817,338.419,625.376,338.419z
		 M561.721,338.419c-13.441,0-24.377,10.935-24.377,24.376c0,13.441,10.936,24.376,24.377,24.376s24.376-10.935,24.376-24.376
		C586.097,349.354,575.162,338.419,561.721,338.419z"/>
	<path fill="#FFE000" d="M520.43,390.472c0,72.425,58.918,96.153,73.153,100.824c14.604-4.686,73.084-28.005,73.084-100.824v-82.315
		H520.43V390.472z M625.376,337.419c14.015,0,25.377,11.362,25.377,25.376s-11.362,25.376-25.377,25.376S600,376.811,600,362.796
		S611.361,337.419,625.376,337.419z M618.925,416.559c0,14.016-11.362,25.377-25.376,25.377c-14.015,0-25.377-11.361-25.377-25.377
		c0-14.014,11.362-25.376,25.377-25.376C607.563,391.183,618.925,402.545,618.925,416.559z M561.721,337.419
		c14.015,0,25.376,11.362,25.376,25.376s-11.361,25.376-25.376,25.376s-25.377-11.361-25.377-25.376
		S547.706,337.419,561.721,337.419z"/>
	<path d="M679.57,282.352H507.527c-7.127,0-12.903,5.777-12.903,12.903v95.219c0,53.221,26.064,84.925,47.929,102.151
		c23.422,18.453,46.911,24.404,47.898,24.648c1.018,0.251,2.057,0.376,3.098,0.376c1.04,0,2.078-0.125,3.097-0.376
		c0.987-0.246,24.477-6.197,47.898-24.648c21.864-17.226,47.929-48.928,47.929-102.151v-95.219
		C692.473,288.129,686.696,282.352,679.57,282.352z M666.667,390.472c0,72.819-58.481,96.138-73.084,100.824
		c-14.233-4.671-73.153-28.398-73.153-100.824v-82.315h146.237V390.472z"/>
	<circle fill="#F2A643" cx="561.721" cy="362.796" r="25.376"/>
	<circle fill="#FF7900" cx="625.376" cy="362.796" r="25.376"/>
	<circle fill="#259245" cx="593.549" cy="416.559" r="25.376"/>
	<path d="M774.193,606.451v38.71H25.807V400v-8.602v-41.87v-43.721v-16.129v-37.419v-16.129v-43.721v-13.917v-23.652h6.451h62.806
		h76.549h16.129h37.419h16.129h76.548h20.938h41.869H400h374.193v400c0,7.128,5.777,12.903,12.903,12.903S800,561.967,800,554.839
		V141.936c0-7.126-5.777-12.903-12.903-12.903H12.903C5.777,129.032,0,134.81,0,141.936v516.129c0,7.128,5.777,12.903,12.903,12.903
		h774.193c7.126,0,12.903-5.775,12.903-12.903v-51.613c0-7.127-5.777-12.902-12.903-12.902S774.193,599.324,774.193,606.451z"/>
</g>
</svg>
