<?xml version="1.0" encoding="utf-8"?>
<!-- Generator: Adobe Illustrator 16.0.0, SVG Export Plug-In . SVG Version: 6.00 Build 0)  -->
<!DOCTYPE svg PUBLIC "-//W3C//DTD SVG 1.1//EN" "http://www.w3.org/Graphics/SVG/1.1/DTD/svg11.dtd">
<svg version="1.1" id="Capa_1" xmlns="http://www.w3.org/2000/svg" xmlns:xlink="http://www.w3.org/1999/xlink" x="0px" y="0px"
	 width="800px" height="800px" viewBox="0 0 800 800" enable-background="new 0 0 800 800" xml:space="preserve">
<g>
	<path fill="#3DB4EA" d="M24.807,646.17V411.903L400,411.912c3.18,0,6.169-1.238,8.416-3.487c2.249-2.247,3.487-5.236,3.487-8.416
		V153.847h363.29v349.387c0,6.563,5.34,11.903,11.903,11.903h1v27.807h-1c-6.563,0-11.903,5.34-11.903,11.903v91.322H24.807z
		 M386.422,552.866c-11.307,0-20.505,9.198-20.505,20.505s9.198,20.506,20.505,20.506c11.307,0,20.506-9.199,20.506-20.506
		S397.729,552.866,386.422,552.866z M485.324,531.821c-11.307,0-20.505,9.199-20.505,20.506s9.198,20.505,20.505,20.505
		s20.506-9.198,20.506-20.505S496.631,531.821,485.324,531.821z M575.811,510.777c-11.307,0-20.505,9.198-20.505,20.505
		s9.198,20.506,20.505,20.506s20.506-9.199,20.506-20.506S587.117,510.777,575.811,510.777z M485.324,445.545
		c-11.307,0-20.505,9.199-20.505,20.506s9.198,20.505,20.505,20.505s20.506-9.198,20.506-20.505S496.631,445.545,485.324,445.545z
		 M639.289,446.008c-11.053,0-20.044,8.992-20.044,20.045s8.991,20.044,20.044,20.044s20.045-8.991,20.045-20.044
		S650.342,446.008,639.289,446.008z M702.769,407.451c-11.307,0-20.506,9.199-20.506,20.506s9.199,20.505,20.506,20.505
		s20.505-9.198,20.505-20.505S714.075,407.451,702.769,407.451z M575.811,323.276c-11.307,0-20.505,9.199-20.505,20.505
		c0,11.307,9.198,20.506,20.505,20.506s20.506-9.199,20.506-20.506C596.316,332.475,587.117,323.276,575.811,323.276z
		 M639.289,302.232c-11.307,0-20.505,9.199-20.505,20.505s9.198,20.505,20.505,20.505s20.506-9.199,20.506-20.505
		S650.596,302.232,639.289,302.232z M702.769,225.062c-11.307,0-20.506,9.199-20.506,20.505s9.199,20.505,20.506,20.505
		s20.505-9.199,20.505-20.505S714.075,225.062,702.769,225.062z"/>
	<path fill="#3DB4EA" d="M774.193,503.234V154.847h-361.29v245.162c0,3.422-1.359,6.704-3.78,9.123
		c-2.419,2.421-5.701,3.78-9.123,3.78l-374.193-0.009V645.17h748.387v-90.322c0-7.126,5.777-12.903,12.903-12.903v-25.807
		C779.969,516.138,774.193,510.36,774.193,503.234z M386.422,594.877c-11.877,0-21.505-9.628-21.505-21.506
		c0-11.876,9.628-21.505,21.505-21.505c11.878,0,21.506,9.629,21.506,21.505C407.928,585.249,398.3,594.877,386.422,594.877z
		 M485.324,573.832c-11.877,0-21.505-9.627-21.505-21.505c0-11.876,9.628-21.506,21.505-21.506c11.878,0,21.506,9.63,21.506,21.506
		C506.83,564.205,497.202,573.832,485.324,573.832z M485.324,487.556c-11.877,0-21.505-9.627-21.505-21.505
		c0-11.876,9.628-21.506,21.505-21.506c11.878,0,21.506,9.63,21.506,21.506C506.83,477.929,497.202,487.556,485.324,487.556z
		 M575.811,552.788c-11.878,0-21.505-9.628-21.505-21.506c0-11.876,9.627-21.505,21.505-21.505s21.506,9.629,21.506,21.505
		C597.316,543.16,587.688,552.788,575.811,552.788z M575.811,365.287c-11.878,0-21.505-9.628-21.505-21.506
		c0-11.876,9.627-21.505,21.505-21.505s21.506,9.629,21.506,21.505C597.316,355.658,587.688,365.287,575.811,365.287z
		 M639.289,487.097c-11.623,0-21.044-9.423-21.044-21.044c0-11.622,9.421-21.045,21.044-21.045c11.622,0,21.045,9.423,21.045,21.045
		C660.334,477.674,650.913,487.097,639.289,487.097z M639.289,344.243c-11.877,0-21.505-9.627-21.505-21.505
		c0-11.876,9.628-21.505,21.505-21.505c11.878,0,21.506,9.629,21.506,21.505S651.167,344.243,639.289,344.243z M702.769,449.462
		c-11.878,0-21.506-9.627-21.506-21.505c0-11.876,9.628-21.506,21.506-21.506s21.505,9.63,21.505,21.506
		C724.273,439.835,714.646,449.462,702.769,449.462z M702.769,267.073c-11.878,0-21.506-9.627-21.506-21.505
		c0-11.876,9.628-21.505,21.506-21.505s21.505,9.629,21.505,21.505C724.273,257.445,714.646,267.073,702.769,267.073z"/>
	<polygon fill="#103B9B" points="240.291,388.102 240.291,334.204 321.139,388.104 	"/>
	<polygon fill="#103B9B" points="241.291,387.102 317.836,387.104 241.291,336.072 	"/>
	<polygon fill="#103B9B" points="318.213,237.138 388.097,190.548 388.097,237.138 	"/>
	<polygon fill="#103B9B" points="387.097,236.138 387.097,192.417 321.516,236.138 	"/>
	<polygon fill="#103B9B" points="91.77,388.099 172.613,334.204 172.613,388.1 	"/>
	<polygon fill="#103B9B" points="95.073,387.099 171.613,387.1 171.613,336.072 	"/>
	<polygon fill="#103B9B" points="318.213,304.815 388.097,304.815 388.097,351.403 	"/>
	<polygon fill="#103B9B" points="387.097,349.535 387.097,305.815 321.516,305.815 	"/>
	<polygon fill="#103B9B" points="24.807,304.815 94.69,304.815 24.807,351.403 	"/>
	<polygon fill="#103B9B" points="25.807,305.815 25.807,349.535 91.388,305.815 	"/>
	<polygon fill="#103B9B" points="91.761,153.847 172.613,153.847 172.613,207.748 	"/>
	<polygon fill="#103B9B" points="171.613,154.847 95.064,154.847 171.613,205.879 	"/>
	<polygon fill="#103B9B" points="240.291,153.847 321.141,153.847 240.291,207.748 	"/>
	<polygon fill="#103B9B" points="317.838,154.847 241.291,154.847 241.291,205.879 	"/>
	<polygon fill="#103B9B" points="24.807,237.138 24.807,190.548 94.69,237.138 	"/>
	<polygon fill="#103B9B" points="25.807,192.417 25.807,236.138 91.388,236.138 	"/>
	<polygon fill="#ED1F34" points="240.291,237.138 240.291,219.308 338.473,153.847 383.946,153.847 259.012,237.138 	"/>
	<polygon fill="#ED1F34" points="241.291,236.138 258.709,236.138 380.644,154.847 338.775,154.847 241.291,219.843 	"/>
	<polygon fill="#ED1F34" points="28.966,388.097 153.891,304.815 172.613,304.815 172.613,322.649 74.441,388.099 	"/>
	<polygon fill="#ED1F34" points="171.613,305.815 154.193,305.815 32.269,387.097 74.139,387.099 171.613,322.114 	"/>
	<polygon fill="#ED1F34" points="111.75,237.138 24.807,179.035 24.807,153.847 32.561,153.847 157.496,237.138 	"/>
	<polygon fill="#ED1F34" points="112.053,236.138 154.193,236.138 32.258,154.847 25.807,154.847 25.807,178.5 	"/>
	<polygon fill="#ED1F34" points="380.343,388.105 255.407,304.815 300.227,304.815 388.097,363.532 388.097,388.105 	"/>
	<polygon fill="#ED1F34" points="258.709,305.815 380.646,387.105 387.097,387.105 387.097,364.067 299.924,305.815 	"/>
	<polygon fill="#FFFFFF" points="225.161,289.686 225.161,387.102 241.291,387.102 241.291,336.072 317.836,387.104 
		380.646,387.105 258.709,305.815 299.924,305.815 387.097,364.067 387.097,349.535 321.516,305.815 387.097,305.815 
		387.097,289.686 	"/>
	<polygon fill="#FFFFFF" points="187.742,289.686 25.807,289.686 25.807,305.815 91.388,305.815 25.807,349.535 25.807,387.097 
		32.269,387.097 154.193,305.815 171.613,305.815 171.613,322.114 74.139,387.099 95.073,387.099 171.613,336.072 171.613,387.1 
		187.742,387.1 	"/>
	<polygon fill="#FFFFFF" points="225.161,252.267 387.097,252.267 387.097,236.138 321.516,236.138 387.097,192.417 
		387.097,154.847 380.644,154.847 258.709,236.138 241.291,236.138 241.291,219.843 338.775,154.847 317.838,154.847 
		241.291,205.879 241.291,154.847 225.161,154.847 	"/>
	<polygon fill="#FFFFFF" points="112.053,236.138 25.807,178.5 25.807,192.417 91.388,236.138 25.807,236.138 25.807,252.267 
		187.742,252.267 187.742,154.847 171.613,154.847 171.613,205.879 95.064,154.847 32.258,154.847 154.193,236.138 	"/>
	<polygon fill="#ED1F34" points="186.742,388.1 186.742,290.686 24.807,290.686 24.807,251.267 186.742,251.267 186.742,153.847 
		226.161,153.847 226.161,251.267 388.097,251.267 388.097,290.686 226.161,290.686 226.161,388.102 	"/>
	<polygon fill="#ED1F34" points="187.742,252.267 25.807,252.267 25.807,289.686 187.742,289.686 187.742,387.1 225.161,387.102 
		225.161,289.686 387.097,289.686 387.097,252.267 225.161,252.267 225.161,154.847 187.742,154.847 	"/>
	<path d="M774.193,554.848v90.322H25.807V412.903L400,412.912c3.422,0,6.704-1.359,9.123-3.78c2.421-2.419,3.78-5.701,3.78-9.123
		V154.847h361.29v348.387c0,7.126,5.777,12.903,12.903,12.903S800,510.36,800,503.234v-361.29c0-7.126-5.777-12.903-12.903-12.903
		H400.332c-0.111-0.002-0.221-0.018-0.334-0.018s-0.222,0.014-0.334,0.018H12.903C5.777,129.041,0,134.818,0,141.944v516.129
		c0,7.126,5.777,12.903,12.903,12.903h774.193c7.126,0,12.903-5.777,12.903-12.903V554.848c0-7.126-5.777-12.903-12.903-12.903
		S774.193,547.722,774.193,554.848z M32.258,154.847h62.806h76.549h16.129h37.419h16.129h76.547h20.938h41.868h6.453v37.569v43.721
		v16.129v37.419v16.129v43.72v14.532v23.039h-6.451l-62.808-0.002l-76.547-0.001h-16.129h-37.419h-16.129l-76.54-0.002H74.139
		l-41.87-0.003h-6.462v-37.562v-43.72v-16.129v-37.419v-16.129v-43.721V178.5v-23.653H32.258z"/>
	<circle fill="#FFE000" cx="386.422" cy="573.372" r="21.505"/>
	<circle fill="#FFE000" cx="485.324" cy="466.05" r="21.505"/>
	<circle fill="#FFE000" cx="485.324" cy="552.327" r="21.505"/>
	<circle fill="#FFE000" cx="575.811" cy="343.782" r="21.505"/>
	<circle fill="#FFE000" cx="639.289" cy="322.737" r="21.505"/>
	<circle fill="#FFE000" cx="702.769" cy="245.567" r="21.505"/>
	<circle fill="#FFE000" cx="575.811" cy="531.283" r="21.505"/>
	<circle fill="#FFE000" cx="639.289" cy="466.052" r="21.044"/>
	<circle fill="#FFE000" cx="702.769" cy="427.957" r="21.505"/>
</g>
</svg>
