<?xml version="1.0" encoding="utf-8"?>
<!-- Generator: Adobe Illustrator 16.0.0, SVG Export Plug-In . SVG Version: 6.00 Build 0)  -->
<!DOCTYPE svg PUBLIC "-//W3C//DTD SVG 1.1//EN" "http://www.w3.org/Graphics/SVG/1.1/DTD/svg11.dtd">
<svg version="1.1" id="Capa_1" xmlns="http://www.w3.org/2000/svg" xmlns:xlink="http://www.w3.org/1999/xlink" x="0px" y="0px"
	 width="800px" height="800px" viewBox="0 0 800 800" enable-background="new 0 0 800 800" xml:space="preserve">
<g>
	<path fill="#FFFFFF" d="M323.975,326.882h-40.104v146.236h490.322V326.882H375.587c-7.126,0-12.903-5.777-12.903-12.903h-25.807
		C336.877,321.104,331.101,326.882,323.975,326.882z"/>
	<path fill="#259245" d="M335.877,314.979v-1c0-6.563-5.339-11.903-11.902-11.903h-41.104V153.839h492.322v148.236H375.587
		c-6.563,0-11.903,5.34-11.903,11.903v1H335.877z"/>
	<path fill="#259245" d="M283.871,301.075h40.104c7.126,0,12.902,5.777,12.902,12.903h25.807c0-7.126,5.777-12.903,12.903-12.903
		h398.606V154.839H283.871V301.075z"/>
	<rect x="282.871" y="497.925" fill="#333333" width="492.322" height="148.236"/>
	<rect x="283.871" y="498.925" fill="#333333" width="490.322" height="146.236"/>
	<rect x="24.807" y="153.839" fill="#ED1F34" width="234.258" height="492.322"/>
	<rect x="25.807" y="154.839" fill="#ED1F34" width="232.258" height="490.322"/>
	<path d="M787.097,129.032H12.903C5.777,129.032,0,134.81,0,141.936v516.129c0,7.126,5.777,12.903,12.903,12.903h774.193
		c7.126,0,12.903-5.777,12.903-12.903V141.936C800,134.81,794.223,129.032,787.097,129.032z M25.807,154.839h232.258v490.322H25.807
		V154.839z M774.193,301.075H375.587c-7.126,0-12.903,5.777-12.903,12.903s5.777,12.903,12.903,12.903h398.606v146.236H283.871
		V326.882h40.104c7.126,0,12.902-5.777,12.902-12.903s-5.776-12.903-12.902-12.903h-40.104V154.839h490.322V301.075z
		 M283.871,498.925h490.322v146.236H283.871V498.925z"/>
</g>
</svg>
