<?xml version="1.0" encoding="iso-8859-1"?>
<!-- Generator: Adobe Illustrator 19.0.0, SVG Export Plug-In . SVG Version: 6.00 Build 0)  -->
<svg version="1.1" id="Capa_1" xmlns="http://www.w3.org/2000/svg" xmlns:xlink="http://www.w3.org/1999/xlink" x="0px" y="0px"
	 viewBox="0 0 465 465" style="enable-background:new 0 0 465 465;" xml:space="preserve">
<g>
	<path style="fill:#3DB4EA;" d="M225,232.531v-18.209l-17.301,5.622C211.645,226.061,217.784,230.633,225,232.531z"/>
	<path style="fill:#3DB4EA;" d="M257.301,219.944L240,214.322v18.209C247.216,230.633,253.355,226.061,257.301,219.944z"/>
	<path style="fill:#3DB4EA;" d="M209.672,185.339C205.505,190.427,203,196.926,203,204c0,0.565,0.02,1.125,0.051,1.683l17.314-5.626
		L209.672,185.339z"/>
	<path style="fill:#3DB4EA;" d="M221.802,176.517l10.698,14.725l10.698-14.725c-3.319-1.297-6.925-2.017-10.698-2.017
		S225.121,175.22,221.802,176.517z"/>
	<path style="fill:#3DB4EA;" d="M261.949,205.683C261.98,205.125,262,204.565,262,204c0-7.074-2.505-13.573-6.672-18.661
		l-10.694,14.718L261.949,205.683z"/>
	<path style="fill:#3DB4EA;" d="M188.469,210.421c-0.305-2.098-0.469-4.24-0.469-6.421c0-12.071,4.838-23.028,12.669-31.053
		l-13.053-17.966C174.34,167.147,166,184.616,166,204c0,4.549,0.461,8.992,1.336,13.287L188.469,210.421z"/>
	<path style="fill:#3DB4EA;" d="M277.384,154.981l-13.053,17.966C272.162,180.972,277,191.929,277,204
		c0,2.181-0.165,4.323-0.469,6.421l21.134,6.866C298.539,212.992,299,208.549,299,204C299,184.616,290.66,167.147,277.384,154.981z"
		/>
	<path style="fill:#3DB4EA;" d="M37.5,90H15v285h435V90H67.5c-4.143,0-7.5-3.357-7.5-7.5H45C45,86.643,41.643,90,37.5,90z
		 M184.596,138.065c0.241-0.176,0.491-0.33,0.745-0.473c13.322-9.488,29.594-15.093,47.159-15.093
		c17.566,0,33.838,5.604,47.16,15.094c0.254,0.143,0.503,0.297,0.744,0.472c0.211,0.153,0.412,0.315,0.602,0.486
		C301.011,153.417,314,177.218,314,204c0,8.725-1.393,17.127-3.943,25.015c-0.017,0.057-0.028,0.113-0.046,0.17
		c-0.017,0.053-0.045,0.099-0.063,0.15c-10.682,32.57-41.353,56.165-77.448,56.165s-66.766-23.595-77.448-56.165
		c-0.018-0.052-0.046-0.098-0.063-0.15c-0.018-0.057-0.029-0.113-0.046-0.17C152.393,221.127,151,212.725,151,204
		c0-26.782,12.989-50.583,32.994-65.448C184.184,138.381,184.385,138.219,184.596,138.065z M138.361,135.898
		c2.432-3.355,7.123-4.101,10.475-1.668c3.354,2.432,4.1,7.122,1.668,10.475c-12.586,17.353-19.238,37.856-19.238,59.295
		c0,55.819,45.41,101.232,101.229,101.235c55.83-0.003,101.24-45.416,101.24-101.235c0-21.438-6.652-41.942-19.238-59.295
		c-2.432-3.353-1.686-8.043,1.668-10.475c3.354-2.433,8.042-1.687,10.475,1.668c14.455,19.93,22.096,43.479,22.096,68.102
		c0,57.121-41.416,104.749-95.795,114.435l14.331,10.52c3.34,2.451,4.06,7.145,1.608,10.483c-1.47,2.002-3.745,3.063-6.052,3.063
		c-1.541,0-3.095-0.474-4.432-1.455L232.5,322.039l-25.896,19.007c-3.337,2.452-8.031,1.734-10.483-1.608
		c-2.451-3.339-1.731-8.032,1.608-10.483l14.331-10.52c-54.379-9.686-95.795-57.313-95.795-114.435
		C116.266,179.377,123.906,155.828,138.361,135.898z"/>
	<path style="fill:#3DB4EA;" d="M225,247.855c-13.854-2.363-25.541-11.145-31.884-23.173l-21.12,6.862
		c9.502,20.786,29.394,35.857,53.003,38.521V247.855z"/>
	<path style="fill:#3DB4EA;" d="M212.793,164.116c5.945-2.949,12.633-4.616,19.707-4.616s13.762,1.667,19.707,4.616l13.046-17.956
		c-9.676-5.501-20.849-8.66-32.753-8.66s-23.077,3.159-32.753,8.66L212.793,164.116z"/>
	<path style="fill:#3DB4EA;" d="M271.884,224.683c-6.343,12.028-18.03,20.81-31.884,23.173v22.21
		c23.609-2.663,43.501-17.734,53.003-38.521L271.884,224.683z"/>
	<path d="M457.5,75h-390c-4.143,0-7.5,3.357-7.5,7.5s3.357,7.5,7.5,7.5H450v285H15V90h22.5c4.143,0,7.5-3.357,7.5-7.5
		S41.643,75,37.5,75h-30C3.357,75,0,78.357,0,82.5v300c0,4.143,3.357,7.5,7.5,7.5h450c4.143,0,7.5-3.357,7.5-7.5v-300
		C465,78.357,461.643,75,457.5,75z"/>
	<path style="fill:#FFFFFF;" d="M151,204c0,8.725,1.393,17.127,3.943,25.015c0.017,0.057,0.028,0.113,0.046,0.17
		c0.017,0.053,0.045,0.099,0.063,0.15c10.682,32.57,41.353,56.165,77.448,56.165s66.766-23.595,77.448-56.165
		c0.018-0.052,0.046-0.098,0.063-0.15c0.018-0.057,0.029-0.113,0.046-0.17c2.55-7.888,3.943-16.29,3.943-25.015
		c0-26.782-12.989-50.583-32.994-65.448c-0.19-0.171-0.391-0.333-0.602-0.486c-0.241-0.175-0.491-0.329-0.744-0.472
		c-13.323-9.489-29.594-15.094-47.16-15.094c-17.565,0-33.837,5.604-47.159,15.093c-0.254,0.143-0.504,0.297-0.745,0.473
		c-0.211,0.153-0.412,0.315-0.602,0.486C163.989,153.417,151,177.218,151,204z M187.616,154.981l13.053,17.966
		C192.838,180.972,188,191.929,188,204c0,2.181,0.165,4.323,0.469,6.421l-21.134,6.866C166.461,212.992,166,208.549,166,204
		C166,184.616,174.34,167.147,187.616,154.981z M262,204c0,0.565-0.02,1.125-0.051,1.683l-17.314-5.626l10.694-14.718
		C259.495,190.427,262,196.926,262,204z M203,204c0-7.074,2.505-13.573,6.672-18.661l10.694,14.718l-17.314,5.626
		C203.02,205.125,203,204.565,203,204z M225,214.322v18.209c-7.216-1.898-13.355-6.471-17.301-12.587L225,214.322z M240,214.322
		l17.301,5.622c-3.946,6.116-10.084,10.688-17.301,12.587V214.322z M232.5,191.241l-10.698-14.725
		c3.319-1.297,6.925-2.017,10.698-2.017s7.379,0.72,10.698,2.017L232.5,191.241z M171.997,231.545l21.12-6.862
		c6.343,12.028,18.03,20.81,31.884,23.173v22.21C201.391,267.402,181.499,252.331,171.997,231.545z M240,270.065v-22.21
		c13.854-2.363,25.541-11.145,31.884-23.173l21.12,6.862C283.501,252.331,263.609,267.402,240,270.065z M299,204
		c0,4.549-0.461,8.992-1.336,13.287l-21.134-6.866c0.305-2.098,0.469-4.24,0.469-6.421c0-12.071-4.838-23.028-12.669-31.053
		l13.053-17.966C290.66,167.147,299,184.616,299,204z M265.253,146.16l-13.046,17.956c-5.945-2.949-12.633-4.616-19.707-4.616
		s-13.762,1.667-19.707,4.616l-13.046-17.956c9.676-5.501,20.849-8.66,32.753-8.66S255.577,140.659,265.253,146.16z"/>
	<path style="fill:#FFFFFF;" d="M212.061,318.435l-14.331,10.52c-3.34,2.451-4.06,7.145-1.608,10.483
		c2.452,3.343,7.146,4.061,10.483,1.608l25.896-19.007l25.896,19.007c1.337,0.981,2.891,1.455,4.432,1.455
		c2.307,0,4.582-1.062,6.052-3.063c2.451-3.339,1.731-8.032-1.608-10.483l-14.331-10.52c54.379-9.686,95.795-57.313,95.795-114.435
		c0-24.623-7.641-48.172-22.096-68.102c-2.433-3.354-7.121-4.101-10.475-1.668c-3.354,2.432-4.1,7.122-1.668,10.475
		c12.586,17.353,19.238,37.856,19.238,59.295c0,55.819-45.41,101.232-101.229,101.235c-55.83-0.003-101.24-45.416-101.24-101.235
		c0-21.438,6.652-41.942,19.238-59.295c2.432-3.353,1.686-8.043-1.668-10.475c-3.352-2.433-8.043-1.688-10.475,1.668
		c-14.455,19.93-22.096,43.479-22.096,68.102C116.266,261.121,157.682,308.749,212.061,318.435z"/>
</g>
<g>
</g>
<g>
</g>
<g>
</g>
<g>
</g>
<g>
</g>
<g>
</g>
<g>
</g>
<g>
</g>
<g>
</g>
<g>
</g>
<g>
</g>
<g>
</g>
<g>
</g>
<g>
</g>
<g>
</g>
</svg>
