<?xml version="1.0" encoding="iso-8859-1"?>
<!-- Generator: Adobe Illustrator 19.0.0, SVG Export Plug-In . SVG Version: 6.00 Build 0)  -->
<svg version="1.1" id="Capa_1" xmlns="http://www.w3.org/2000/svg" xmlns:xlink="http://www.w3.org/1999/xlink" x="0px" y="0px"
	 viewBox="0 0 465 465" style="enable-background:new 0 0 465 465;" xml:space="preserve">
<g>
	<rect x="15" y="193" style="fill:#FFFFFF;" width="435" height="79"/>
	<path style="fill:#3DB4EA;" d="M450,90H15v88h435V90z M232.5,102.25c4.411,0,8,3.589,8,8s-3.589,8-8,8s-8-3.589-8-8
		S228.089,102.25,232.5,102.25z M87.419,150.5c4.143,0,7.5,3.358,7.5,7.5s-3.357,7.5-7.5,7.5c-17.369,0-31.5-14.131-31.5-31.5
		s14.131-31.5,31.5-31.5c4.143,0,7.5,3.358,7.5,7.5s-3.357,7.5-7.5,7.5c-9.098,0-16.5,7.402-16.5,16.5S78.321,150.5,87.419,150.5z
		 M116.035,165.75c-4.411,0-8-3.589-8-8s3.589-8,8-8s8,3.589,8,8S120.446,165.75,116.035,165.75z M145.151,165.75
		c-4.411,0-8-3.589-8-8s3.589-8,8-8s8,3.589,8,8S149.563,165.75,145.151,165.75z M145.151,141.75c-4.411,0-8-3.589-8-8s3.589-8,8-8
		s8,3.589,8,8S149.563,141.75,145.151,141.75z M174.268,165.75c-4.411,0-8-3.589-8-8s3.589-8,8-8s8,3.589,8,8
		S178.679,165.75,174.268,165.75z M174.268,141.75c-4.411,0-8-3.589-8-8s3.589-8,8-8s8,3.589,8,8S178.679,141.75,174.268,141.75z
		 M174.268,118.25c-4.411,0-8-3.589-8-8s3.589-8,8-8s8,3.589,8,8S178.679,118.25,174.268,118.25z M203.384,165.75
		c-4.411,0-8-3.589-8-8s3.589-8,8-8s8,3.589,8,8S207.795,165.75,203.384,165.75z M203.384,141.75c-4.411,0-8-3.589-8-8s3.589-8,8-8
		s8,3.589,8,8S207.795,141.75,203.384,141.75z M203.384,118.25c-4.411,0-8-3.589-8-8s3.589-8,8-8s8,3.589,8,8
		S207.795,118.25,203.384,118.25z M232.5,165.75c-4.411,0-8-3.589-8-8s3.589-8,8-8s8,3.589,8,8S236.911,165.75,232.5,165.75z
		 M232.5,141.75c-4.411,0-8-3.589-8-8s3.589-8,8-8s8,3.589,8,8S236.911,141.75,232.5,141.75z"/>
	<path style="fill:#259245;" d="M427.5,375H450v-88H15v88h382.5c4.143,0,7.5,3.358,7.5,7.5h15C420,378.358,423.357,375,427.5,375z"
		/>
	<rect x="15" y="272" style="fill:#B21727;" width="435" height="15"/>
	<rect x="15" y="178" style="fill:#B21727;" width="435" height="15"/>
	<path d="M457.5,75H7.5C3.357,75,0,78.358,0,82.5v300c0,4.142,3.357,7.5,7.5,7.5h390c4.143,0,7.5-3.358,7.5-7.5s-3.357-7.5-7.5-7.5
		H15v-88v-15v-79v-15V90h435v88v15v79v15v88h-22.5c-4.143,0-7.5,3.358-7.5,7.5s3.357,7.5,7.5,7.5h30c4.143,0,7.5-3.358,7.5-7.5v-300
		C465,78.358,461.643,75,457.5,75z"/>
	<path style="fill:#FFFFFF;" d="M174.268,149.75c-4.411,0-8,3.589-8,8s3.589,8,8,8s8-3.589,8-8S178.679,149.75,174.268,149.75z"/>
	<path style="fill:#FFFFFF;" d="M232.5,149.75c-4.411,0-8,3.589-8,8s3.589,8,8,8s8-3.589,8-8S236.911,149.75,232.5,149.75z"/>
	<path style="fill:#FFFFFF;" d="M203.384,149.75c-4.411,0-8,3.589-8,8s3.589,8,8,8s8-3.589,8-8S207.795,149.75,203.384,149.75z"/>
	<path style="fill:#FFFFFF;" d="M232.5,118.25c4.411,0,8-3.589,8-8s-3.589-8-8-8s-8,3.589-8,8S228.089,118.25,232.5,118.25z"/>
	<path style="fill:#FFFFFF;" d="M145.151,149.75c-4.411,0-8,3.589-8,8s3.589,8,8,8s8-3.589,8-8S149.563,149.75,145.151,149.75z"/>
	<path style="fill:#FFFFFF;" d="M174.268,125.75c-4.411,0-8,3.589-8,8s3.589,8,8,8s8-3.589,8-8S178.679,125.75,174.268,125.75z"/>
	<path style="fill:#FFFFFF;" d="M203.384,125.75c-4.411,0-8,3.589-8,8s3.589,8,8,8s8-3.589,8-8S207.795,125.75,203.384,125.75z"/>
	<path style="fill:#FFFFFF;" d="M174.268,102.25c-4.411,0-8,3.589-8,8s3.589,8,8,8s8-3.589,8-8S178.679,102.25,174.268,102.25z"/>
	<path style="fill:#FFFFFF;" d="M203.384,102.25c-4.411,0-8,3.589-8,8s3.589,8,8,8s8-3.589,8-8S207.795,102.25,203.384,102.25z"/>
	<path style="fill:#FFFFFF;" d="M145.151,125.75c-4.411,0-8,3.589-8,8s3.589,8,8,8s8-3.589,8-8S149.563,125.75,145.151,125.75z"/>
	<path style="fill:#FFFFFF;" d="M116.035,149.75c-4.411,0-8,3.589-8,8s3.589,8,8,8s8-3.589,8-8S120.446,149.75,116.035,149.75z"/>
	<path style="fill:#FFFFFF;" d="M232.5,125.75c-4.411,0-8,3.589-8,8s3.589,8,8,8s8-3.589,8-8S236.911,125.75,232.5,125.75z"/>
	<path style="fill:#FFFFFF;" d="M87.419,117.5c4.143,0,7.5-3.358,7.5-7.5s-3.357-7.5-7.5-7.5c-17.369,0-31.5,14.131-31.5,31.5
		s14.131,31.5,31.5,31.5c4.143,0,7.5-3.358,7.5-7.5s-3.357-7.5-7.5-7.5c-9.098,0-16.5-7.402-16.5-16.5S78.321,117.5,87.419,117.5z"
		/>
</g>
<g>
</g>
<g>
</g>
<g>
</g>
<g>
</g>
<g>
</g>
<g>
</g>
<g>
</g>
<g>
</g>
<g>
</g>
<g>
</g>
<g>
</g>
<g>
</g>
<g>
</g>
<g>
</g>
<g>
</g>
</svg>
