<?xml version="1.0" encoding="utf-8"?>
<!-- Generator: Adobe Illustrator 16.0.0, SVG Export Plug-In . SVG Version: 6.00 Build 0)  -->
<!DOCTYPE svg PUBLIC "-//W3C//DTD SVG 1.1//EN" "http://www.w3.org/Graphics/SVG/1.1/DTD/svg11.dtd">
<svg version="1.1" id="Capa_1" xmlns="http://www.w3.org/2000/svg" xmlns:xlink="http://www.w3.org/1999/xlink" x="0px" y="0px"
	 width="800px" height="800px" viewBox="0 0 800 800" enable-background="new 0 0 800 800" xml:space="preserve">
<g>
	<path fill="#259245" d="M64.516,646.159l-0.471-1.882l338.93-180.763h280.896c6.563,0,11.903-5.34,11.903-11.903v-1h27.807v1
		c0,6.563,5.34,11.903,11.903,11.903h39.709v182.645H64.516z"/>
	<polygon fill="#ED1F34" points="402.976,336.482 64.045,155.719 64.516,153.837 775.193,153.837 775.193,336.482 	"/>
	<path fill="#333333" d="M24.807,603.346l378.036-191.444h372.351v27.807h-39.709c-6.563,0-11.903,5.34-11.903,11.903v1h-27.807v-1
		c0-6.563-5.34-11.903-11.903-11.903H400c-1.946,0-3.883,0.484-5.601,1.4L24.807,638.225V603.346z"/>
	<path fill="#333333" d="M402.843,388.095L24.807,196.65v-34.878l369.593,197.116c1.718,0.916,3.654,1.4,5.601,1.4h375.193v27.807
		H402.843z"/>
	<path fill="#333333" d="M24.807,223.336L373.653,400L24.807,576.662V223.336z M136.41,368.03c17.627,0,31.967,14.341,31.967,31.968
		s-14.34,31.968-31.967,31.968c-6.563,0-11.903,5.34-11.903,11.903s5.34,11.903,11.903,11.903c30.754,0,55.774-25.021,55.774-55.774
		s-25.02-55.774-55.774-55.774s-55.774,25.02-55.774,55.774c0,6.563,5.34,11.903,11.903,11.903s11.903-5.34,11.903-11.903
		C104.442,382.371,118.783,368.03,136.41,368.03z"/>
	<path fill="#259245" d="M735.484,464.515c-7.127,0-12.903-5.777-12.903-12.903h-25.807c0,7.126-5.777,12.903-12.903,12.903H403.226
		L64.516,645.159h709.677V464.515H735.484z"/>
	<polygon fill="#ED1F34" points="403.226,335.482 774.193,335.482 774.193,154.837 64.516,154.837 	"/>
	<path fill="#333333" d="M735.484,438.708h38.709v-25.807H403.081L25.807,603.96v32.598l368.122-196.332
		c1.868-0.996,3.953-1.518,6.071-1.518h283.871c7.126,0,12.903,5.777,12.903,12.903h25.807
		C722.581,444.485,728.357,438.708,735.484,438.708z"/>
	<path fill="#333333" d="M774.193,387.095v-25.807H400c-2.118,0-4.203-0.521-6.071-1.518L25.807,163.439v32.597l377.274,191.059
		H774.193z"/>
	<path fill="#333333" d="M25.807,224.963v350.072L371.439,400L25.807,224.963z M136.41,456.772c-7.126,0-12.903-5.777-12.903-12.903
		s5.777-12.903,12.903-12.903c17.075,0,30.967-13.892,30.967-30.968c0-17.075-13.892-30.968-30.967-30.968
		c-17.076,0-30.968,13.893-30.968,30.968c0,7.127-5.777,12.903-12.903,12.903s-12.903-5.776-12.903-12.903
		c0-31.305,25.469-56.774,56.774-56.774c31.305,0,56.774,25.469,56.774,56.774C193.184,431.304,167.714,456.772,136.41,456.772z"/>
	<path fill="#FFE000" d="M136.41,343.224c-31.305,0-56.774,25.469-56.774,56.774c0,7.127,5.777,12.903,12.903,12.903
		s12.903-5.776,12.903-12.903c0-17.075,13.892-30.968,30.968-30.968c17.075,0,30.967,13.893,30.967,30.968
		c0,17.076-13.892,30.968-30.967,30.968c-7.126,0-12.903,5.777-12.903,12.903s5.777,12.903,12.903,12.903
		c31.305,0,56.774-25.469,56.774-56.774C193.184,368.693,167.714,343.224,136.41,343.224z"/>
	<polygon fill="#FFE000" points="774.193,412.901 774.193,387.095 403.081,387.095 25.807,196.038 25.807,224.963 371.439,399.998 
		25.807,575.035 25.807,603.96 403.081,412.901 	"/>
	<path d="M787.097,129.03H12.903h-0.002c-0.865,0-1.726,0.086-2.568,0.257c-0.263,0.053-0.518,0.127-0.776,0.196
		c-0.143,0.038-0.288,0.067-0.429,0.11c-0.271,0.083-0.533,0.184-0.796,0.286c-0.127,0.048-0.256,0.087-0.382,0.141
		c-0.224,0.093-0.44,0.203-0.657,0.308c-0.162,0.078-0.327,0.148-0.485,0.234c-0.162,0.088-0.316,0.188-0.475,0.282
		c-0.207,0.122-0.413,0.239-0.613,0.372c-0.098,0.067-0.191,0.141-0.287,0.21c-0.246,0.176-0.492,0.351-0.728,0.544
		c-0.043,0.036-0.081,0.076-0.124,0.11c-0.666,0.563-1.276,1.199-1.827,1.903c-0.191,0.244-0.382,0.487-0.554,0.745
		c-0.014,0.019-0.024,0.041-0.038,0.062c-0.229,0.342-0.44,0.696-0.637,1.062c-0.001,0.005-0.005,0.008-0.008,0.014
		c-0.024,0.043-0.04,0.089-0.064,0.134c-0.172,0.331-0.333,0.669-0.478,1.017c-0.052,0.125-0.091,0.253-0.14,0.378
		c-0.1,0.267-0.201,0.533-0.284,0.809c-0.062,0.203-0.106,0.408-0.157,0.612c-0.05,0.202-0.106,0.399-0.146,0.604
		c-0.057,0.282-0.093,0.563-0.129,0.845c-0.018,0.136-0.043,0.269-0.057,0.404c-0.036,0.37-0.051,0.74-0.057,1.11
		c0,0.052-0.007,0.103-0.007,0.156v0.036c0,0.029,0,0.059,0,0.088v515.878c0,0.029,0,0.059,0,0.088v0.036
		c0,0.053,0.007,0.106,0.009,0.16c0.003,0.369,0.019,0.739,0.057,1.109c0.014,0.138,0.04,0.27,0.057,0.404
		c0.036,0.282,0.072,0.564,0.129,0.845c0.04,0.204,0.097,0.402,0.146,0.604c0.052,0.205,0.096,0.41,0.157,0.612
		c0.083,0.275,0.184,0.541,0.284,0.809c0.048,0.126,0.088,0.253,0.139,0.379c0.143,0.348,0.306,0.685,0.479,1.017
		c0.022,0.045,0.04,0.092,0.063,0.135c0.002,0.003,0.005,0.007,0.007,0.01c0.258,0.48,0.551,0.938,0.864,1.38
		c0.086,0.12,0.175,0.235,0.265,0.354c0.246,0.323,0.506,0.632,0.781,0.929c0.095,0.104,0.186,0.214,0.284,0.312
		c0.346,0.353,0.714,0.682,1.099,0.991c0.121,0.098,0.248,0.186,0.372,0.278c0.306,0.229,0.623,0.446,0.95,0.647
		c0.124,0.075,0.246,0.154,0.374,0.227c0.895,0.512,1.854,0.917,2.866,1.205c0.119,0.034,0.239,0.062,0.359,0.093
		c0.391,0.1,0.786,0.179,1.19,0.24c0.143,0.022,0.284,0.049,0.427,0.065c0.473,0.057,0.955,0.093,1.442,0.097
		c0.04,0,0.079,0.007,0.121,0.007c0.014,0,0.027-0.002,0.041-0.002h774.137c7.126,0,12.903-5.777,12.903-12.903V141.934
		C800,134.808,794.223,129.03,787.097,129.03z M774.193,335.482H403.226L64.516,154.837h709.677V335.482z M64.516,645.159
		l338.709-180.645h280.646c7.126,0,12.903-5.777,12.903-12.903s-5.777-12.903-12.903-12.903H400c-2.118,0-4.203,0.521-6.071,1.518
		L25.807,636.558V603.96v-28.925V224.963v-28.925v-32.599l368.122,196.332c1.868,0.996,3.953,1.518,6.071,1.518h374.193v25.807
		v25.806v25.807h-38.709c-7.127,0-12.903,5.777-12.903,12.903s5.776,12.903,12.903,12.903h38.709v180.645H64.516L64.516,645.159z"/>
</g>
</svg>
