<?xml version="1.0" encoding="iso-8859-1"?>
<!-- Generator: Adobe Illustrator 19.0.0, SVG Export Plug-In . SVG Version: 6.00 Build 0)  -->
<svg version="1.1" id="Capa_1" xmlns="http://www.w3.org/2000/svg" xmlns:xlink="http://www.w3.org/1999/xlink" x="0px" y="0px"
	 viewBox="0 0 465 465" style="enable-background:new 0 0 465 465;" xml:space="preserve">
<g>
	<path style="fill:#FFE000;" d="M225,112.5V90H15v285h210V142.5c0-4.142,3.357-7.5,7.5-7.5v-15C228.357,120,225,116.642,225,112.5z"
		/>
	<path style="fill:#FFFFFF;" d="M372.956,265.79c0,2.06,0.802,3.996,2.258,5.452c1.457,1.457,3.393,2.259,5.452,2.259
		s3.995-0.802,5.451-2.258c1.457-1.457,2.259-3.393,2.259-5.452c0-2.059-0.802-3.995-2.258-5.451
		c-1.457-1.457-3.393-2.259-5.452-2.259s-3.995,0.802-5.451,2.258C373.758,261.794,372.956,263.73,372.956,265.79z"/>
	<path style="fill:#FFFFFF;" d="M314.785,260.338c-0.001-0.001-0.001-0.001-0.002-0.002c-1.457-1.455-3.391-2.256-5.449-2.256
		c-2.06,0-3.995,0.802-5.451,2.258c-1.457,1.457-2.259,3.393-2.259,5.452c0,2.06,0.802,3.996,2.258,5.452
		c1.457,1.457,3.393,2.259,5.452,2.259s3.995-0.802,5.451-2.258c1.457-1.457,2.259-3.393,2.259-5.452
		c0-2.058-0.801-3.993-2.256-5.449C314.787,260.34,314.786,260.339,314.785,260.338z"/>
	<path style="fill:#FFFFFF;" d="M240,112.5c0,4.142-3.357,7.5-7.5,7.5v15c4.143,0,7.5,3.358,7.5,7.5V375h210V90H240V112.5z
		 M293.572,189.303c-2.929-2.929-2.929-7.678,0-10.606c2.93-2.929,7.678-2.929,10.607,0l40.82,40.82l40.82-40.82
		c2.93-2.93,7.678-2.929,10.607,0c2.929,2.929,2.929,7.678,0,10.606l-0.7,0.7l5.452,5.452c2.929,2.929,2.929,7.678-0.001,10.606
		c-1.464,1.464-3.384,2.197-5.303,2.197c-1.92,0-3.839-0.732-5.304-2.197l-5.451-5.452l-3.2,3.2l5.452,5.452
		c2.929,2.929,2.929,7.678-0.001,10.606c-1.464,1.464-3.384,2.197-5.303,2.197c-1.92,0-3.839-0.732-5.304-2.197l-5.451-5.452
		l-15.707,15.707l15.216,15.216c3.035-1.463,6.374-2.26,9.843-2.26c6.066,0,11.77,2.362,16.059,6.652
		c4.289,4.289,6.651,9.992,6.651,16.058c0,6.066-2.362,11.77-6.652,16.059c-4.288,4.289-9.991,6.651-16.058,6.651
		s-11.77-2.362-16.059-6.652c-4.289-4.289-6.651-9.992-6.651-16.059c0-3.469,0.797-6.808,2.26-9.843L345,240.73l-15.216,15.216
		c1.463,3.035,2.26,6.374,2.26,9.843c0,6.066-2.362,11.77-6.652,16.059c-4.288,4.289-9.991,6.651-16.058,6.651
		s-11.77-2.362-16.059-6.652c-4.289-4.289-6.651-9.992-6.651-16.059c0-6.066,2.362-11.769,6.652-16.059
		c4.288-4.289,9.991-6.651,16.058-6.651c3.469,0,6.808,0.797,9.843,2.26l15.216-15.216l-15.707-15.707l-5.451,5.452
		c-1.465,1.464-3.385,2.197-5.304,2.197s-3.839-0.732-5.303-2.197c-2.93-2.929-2.93-7.677-0.001-10.606l5.452-5.452l-3.2-3.2
		l-5.451,5.452c-1.465,1.464-3.385,2.197-5.304,2.197s-3.839-0.732-5.303-2.197c-2.93-2.929-2.93-7.677-0.001-10.606l5.452-5.452
		L293.572,189.303z"/>
	<path d="M457.5,75H7.5C3.357,75,0,78.358,0,82.5v300c0,4.142,3.357,7.5,7.5,7.5h450c4.143,0,7.5-3.358,7.5-7.5v-300
		C465,78.358,461.643,75,457.5,75z M450,375H240V142.5c0-4.142-3.357-7.5-7.5-7.5s-7.5,3.358-7.5,7.5V375H15V90h210v22.5
		c0,4.142,3.357,7.5,7.5,7.5s7.5-3.358,7.5-7.5V90h210V375z"/>
	<path style="fill:#999999;" d="M288.821,206.062c1.464,1.465,3.384,2.197,5.303,2.197s3.839-0.732,5.304-2.197l5.451-5.452l3.2,3.2
		l-5.452,5.452c-2.929,2.929-2.929,7.678,0.001,10.606c1.464,1.465,3.384,2.197,5.303,2.197s3.839-0.732,5.304-2.197l5.451-5.452
		l15.707,15.707l-15.216,15.216c-3.035-1.463-6.374-2.26-9.843-2.26c-6.066,0-11.77,2.362-16.058,6.651
		c-4.29,4.29-6.652,9.993-6.652,16.059c0,6.066,2.362,11.77,6.651,16.059c4.289,4.29,9.992,6.652,16.059,6.652
		s11.77-2.362,16.058-6.651c4.29-4.29,6.652-9.993,6.652-16.059c0-3.469-0.797-6.808-2.26-9.843L345,240.73l15.216,15.216
		c-1.464,3.035-2.26,6.374-2.26,9.843c0,6.066,2.362,11.77,6.651,16.059c4.289,4.29,9.992,6.652,16.059,6.652
		s11.77-2.362,16.058-6.651c4.29-4.29,6.652-9.993,6.652-16.059c0-6.066-2.362-11.769-6.651-16.058
		c-4.289-4.29-9.992-6.652-16.059-6.652c-3.469,0-6.808,0.797-9.843,2.26l-15.216-15.216l15.707-15.707l5.451,5.452
		c1.465,1.465,3.384,2.197,5.304,2.197c1.919,0,3.839-0.732,5.303-2.197c2.93-2.929,2.93-7.677,0.001-10.606l-5.452-5.452l3.2-3.2
		l5.451,5.452c1.465,1.465,3.384,2.197,5.304,2.197c1.919,0,3.839-0.732,5.303-2.197c2.93-2.929,2.93-7.677,0.001-10.606
		l-5.452-5.452l0.7-0.7c2.929-2.929,2.929-7.678,0-10.606c-2.93-2.929-7.678-2.93-10.607,0L345,219.517l-40.82-40.82
		c-2.93-2.929-7.678-2.929-10.607,0c-2.929,2.929-2.929,7.678,0,10.606l0.7,0.7l-5.452,5.452
		C285.892,198.384,285.892,203.133,288.821,206.062z M314.785,271.242c-1.456,1.456-3.392,2.258-5.451,2.258
		s-3.995-0.802-5.452-2.259c-1.456-1.456-2.258-3.392-2.258-5.452c0-2.059,0.802-3.995,2.259-5.452
		c1.456-1.456,3.392-2.258,5.451-2.258c2.058,0,3.992,0.801,5.449,2.256c0.001,0,0.001,0.001,0.002,0.002
		c0.001,0.001,0.002,0.002,0.003,0.003c1.455,1.456,2.256,3.391,2.256,5.449C317.044,267.849,316.242,269.785,314.785,271.242z
		 M386.118,260.338c1.456,1.456,2.258,3.392,2.258,5.451c0,2.06-0.802,3.996-2.259,5.452c-1.456,1.456-3.392,2.258-5.451,2.258
		s-3.995-0.802-5.452-2.259c-1.456-1.456-2.258-3.392-2.258-5.452c0-2.059,0.802-3.995,2.259-5.452
		c1.456-1.456,3.392-2.258,5.451-2.258S384.661,258.882,386.118,260.338z"/>
</g>
<g>
</g>
<g>
</g>
<g>
</g>
<g>
</g>
<g>
</g>
<g>
</g>
<g>
</g>
<g>
</g>
<g>
</g>
<g>
</g>
<g>
</g>
<g>
</g>
<g>
</g>
<g>
</g>
<g>
</g>
</svg>
