<?xml version="1.0" encoding="utf-8"?>
<!-- Generator: Adobe Illustrator 16.0.0, SVG Export Plug-In . SVG Version: 6.00 Build 0)  -->
<!DOCTYPE svg PUBLIC "-//W3C//DTD SVG 1.1//EN" "http://www.w3.org/Graphics/SVG/1.1/DTD/svg11.dtd">
<svg version="1.1" id="Capa_1" xmlns="http://www.w3.org/2000/svg" xmlns:xlink="http://www.w3.org/1999/xlink" x="0px" y="0px"
	 width="800px" height="800px" viewBox="0 0 800 800" enable-background="new 0 0 800 800" xml:space="preserve">
<g>
	<path fill="#103B9B" d="M695.774,487.021v-1c0-6.563-5.34-11.903-11.903-11.903H24.807V325.882h750.387v148.236h-39.709
		c-6.563,0-11.903,5.34-11.903,11.903v1H695.774z M502.234,417.933c-6.563,0-11.902,5.34-11.902,11.903s5.34,11.903,11.902,11.903
		c6.563,0,11.903-5.34,11.903-11.903S508.798,417.933,502.234,417.933z M297.766,417.933c-6.564,0-11.904,5.34-11.904,11.903
		s5.34,11.903,11.904,11.903c6.563,0,11.902-5.34,11.902-11.903S304.329,417.933,297.766,417.933z M482.35,388.097
		c-6.563,0-11.902,5.34-11.902,11.903s5.339,11.903,11.902,11.903s11.903-5.34,11.903-11.903S488.913,388.097,482.35,388.097z
		 M317.65,388.097c-6.563,0-11.903,5.34-11.903,11.903s5.34,11.903,11.903,11.903c6.563,0,11.902-5.34,11.902-11.903
		S324.213,388.097,317.65,388.097z M452.669,367.832c-6.563,0-11.903,5.34-11.903,11.903c0,6.563,5.34,11.903,11.903,11.903
		s11.903-5.34,11.903-11.903C464.572,373.172,459.232,367.832,452.669,367.832z M347.331,367.832
		c-6.563,0-11.903,5.34-11.903,11.903c0,6.563,5.34,11.903,11.903,11.903s11.903-5.34,11.903-11.903
		C359.234,373.172,353.895,367.832,347.331,367.832z M417.987,358.261c-6.563,0-11.903,5.34-11.903,11.903
		c0,6.563,5.34,11.903,11.903,11.903s11.903-5.34,11.903-11.903C429.891,363.601,424.551,358.261,417.987,358.261z M382.013,358.261
		c-6.563,0-11.903,5.34-11.903,11.903c0,6.563,5.34,11.903,11.903,11.903s11.903-5.34,11.903-11.903
		C393.916,363.601,388.576,358.261,382.013,358.261z"/>
	<path fill="#103B9B" d="M735.484,473.118h38.709V326.882H25.807v146.236h658.064c7.126,0,12.903,5.775,12.903,12.903h25.807
		C722.581,478.894,728.357,473.118,735.484,473.118z M297.766,442.739c-7.126,0-12.904-5.777-12.904-12.903
		s5.777-12.903,12.904-12.903c7.126,0,12.902,5.777,12.902,12.903S304.893,442.739,297.766,442.739z M317.65,412.903
		c-7.127,0-12.903-5.777-12.903-12.903s5.776-12.903,12.903-12.903c7.126,0,12.902,5.777,12.902,12.903
		S324.776,412.903,317.65,412.903z M347.331,392.638c-7.126,0-12.903-5.777-12.903-12.903s5.777-12.903,12.903-12.903
		s12.903,5.777,12.903,12.903S354.457,392.638,347.331,392.638z M382.013,383.067c-7.126,0-12.903-5.777-12.903-12.903
		c0-7.126,5.777-12.903,12.903-12.903s12.903,5.777,12.903,12.903C394.916,377.291,389.139,383.067,382.013,383.067z
		 M417.987,383.067c-7.126,0-12.903-5.777-12.903-12.903c0-7.126,5.777-12.903,12.903-12.903s12.903,5.777,12.903,12.903
		C430.891,377.291,425.113,383.067,417.987,383.067z M452.669,392.638c-7.126,0-12.903-5.777-12.903-12.903
		s5.777-12.903,12.903-12.903s12.903,5.777,12.903,12.903S459.795,392.638,452.669,392.638z M469.447,400
		c0-7.126,5.777-12.903,12.902-12.903c7.127,0,12.903,5.777,12.903,12.903s-5.776,12.903-12.903,12.903
		C475.225,412.903,469.447,407.128,469.447,400z M502.234,442.739c-7.125,0-12.902-5.777-12.902-12.903s5.777-12.903,12.902-12.903
		c7.127,0,12.903,5.777,12.903,12.903S509.361,442.739,502.234,442.739z"/>
	<path fill="#ED1F34" d="M24.807,646.161V497.925h659.064c6.563,0,11.903-5.34,11.903-11.903v-1h27.807v1
		c0,6.563,5.34,11.903,11.903,11.903h39.709v148.236H24.807z"/>
	<path fill="#ED1F34" d="M735.484,498.925c-7.127,0-12.903-5.775-12.903-12.903h-25.807c0,7.128-5.777,12.903-12.903,12.903H25.807
		v146.236h748.387V498.925H735.484z"/>
	<rect x="24.807" y="153.839" fill="#FFE000" width="750.387" height="148.236"/>
	<rect x="25.807" y="154.839" fill="#FFE000" width="748.387" height="146.236"/>
	<path d="M787.097,129.032H12.903C5.777,129.032,0,134.808,0,141.936v516.129c0,7.128,5.777,12.903,12.903,12.903h774.193
		c7.126,0,12.903-5.775,12.903-12.903V141.936C800,134.808,794.223,129.032,787.097,129.032z M774.193,154.839v146.236H25.807
		V154.839H774.193z M25.807,645.161V498.925h658.064c7.126,0,12.903-5.775,12.903-12.903s-5.777-12.903-12.903-12.903H25.807
		V326.882h748.387v146.236h-38.709c-7.127,0-12.903,5.775-12.903,12.903s5.776,12.903,12.903,12.903h38.709v146.236H25.807z"/>
	<circle fill="#FFFFFF" cx="297.766" cy="429.836" r="12.903"/>
	<circle fill="#FFFFFF" cx="347.331" cy="379.735" r="12.903"/>
	<circle fill="#FFFFFF" cx="382.013" cy="370.164" r="12.903"/>
	<circle fill="#FFFFFF" cx="317.65" cy="400" r="12.903"/>
	<circle fill="#FFFFFF" cx="502.234" cy="429.836" r="12.903"/>
	<circle fill="#FFFFFF" cx="452.669" cy="379.735" r="12.903"/>
	<circle fill="#FFFFFF" cx="417.987" cy="370.164" r="12.903"/>
	<circle fill="#FFFFFF" cx="482.35" cy="400" r="12.903"/>
</g>
</svg>
