<?xml version="1.0" encoding="utf-8"?>
<!-- Generator: Adobe Illustrator 16.0.0, SVG Export Plug-In . SVG Version: 6.00 Build 0)  -->
<!DOCTYPE svg PUBLIC "-//W3C//DTD SVG 1.1//EN" "http://www.w3.org/Graphics/SVG/1.1/DTD/svg11.dtd">
<svg version="1.1" id="Capa_1" xmlns="http://www.w3.org/2000/svg" xmlns:xlink="http://www.w3.org/1999/xlink" x="0px" y="0px"
	 width="800px" height="800px" viewBox="0 0 800 800" enable-background="new 0 0 800 800" xml:space="preserve">
<g>
	<path fill="#FFE000" d="M377.62,520.57l6.549-45.119l1.318,0.881c5.014,3.35,8.368,5.146,8.989,5.472
		c1.696,0.89,3.606,1.359,5.524,1.359c1.919,0,3.829-0.471,5.524-1.361c0.624-0.327,3.989-2.13,8.989-5.472l1.317-0.881
		l6.549,45.121H377.62z"/>
	<path fill="#FFE000" d="M333.544,421.235c-24.998-4.798-47.424-17.277-64.854-36.091c-17.521-18.912-28.251-42.375-31.033-67.853
		l-0.121-1.108h50.792l0.154,0.815c3.662,19.426,15.601,36.246,32.756,46.146l0.5,0.289v0.578c0,0.127-0.018,0.59-0.018,0.693
		c0,19.372,4.342,37.911,12.907,55.103l0.901,1.81L333.544,421.235z"/>
	<path fill="#FFE000" d="M465.37,419.807c8.566-17.194,12.909-35.734,12.909-55.103c0-0.111-0.018-0.685-0.018-0.685l-0.005-0.583
		l0.505-0.292c17.155-9.902,29.095-26.721,32.757-46.146l0.153-0.815h50.79l-0.121,1.108c-2.553,23.387-11.946,45.329-27.167,63.453
		l-0.046,0.055l-0.054,0.048c-0.78,0.697-1.453,1.468-2,2.291l-0.039,0.058l-0.046,0.052
		c-17.406,19.602-41.036,33.093-66.535,37.987l-1.984,0.381L465.37,419.807z"/>
	<path fill="#ED1F34" d="M390.156,450.231c-10.248-8.148-18.998-17.394-26.005-27.479l-0.179-0.257v-48.247h27.807v77.272
		L390.156,450.231z"/>
	<path fill="#ED1F34" d="M408.222,374.25h27.807v48.501l-0.179,0.258c-7.005,10.068-15.756,19.27-26.009,27.346l-1.619,1.275V374.25
		z"/>
	<path fill="#164FCE" d="M346.204,376.248l-0.095-0.894c-0.392-3.678-0.582-7.162-0.582-10.65c0-8.612,0.961-17.113,2.858-25.268
		l0.309-1.327l1.173,0.692c6.737,3.973,14.313,6.072,21.907,6.072c9.943,0,19.474-3.461,27.563-10.01l0.629-0.509l0.629,0.509
		c7.977,6.455,17.766,10.01,27.564,10.01c7.605,0,15.196-2.112,21.953-6.108l1.172-0.693l0.311,1.325
		c1.91,8.147,2.879,16.662,2.879,25.306c0,3.488-0.188,6.972-0.574,10.649l-0.094,0.896H346.204z"/>
	<path fill="#FFFFFF" d="M683.871,645.161h90.322V154.839H25.807v490.322h606.451c7.128,0,12.903,5.775,12.903,12.903h25.807
		C670.968,650.937,676.743,645.161,683.871,645.161z M682.178,389.722c0-7.126,5.775-12.903,12.903-12.903
		s12.903,5.777,12.903,12.903v76.021c0,7.127-5.775,12.903-12.903,12.903s-12.903-5.776-12.903-12.903V389.722z M162.132,393.371
		l-22.417,76.021c-1.617,5.486-6.655,9.255-12.375,9.255s-10.758-3.767-12.375-9.255l-22.419-76.021
		c-2.017-6.835,1.891-14.011,8.726-16.026c6.83-2.015,14.011,1.893,16.024,8.726l10.044,34.053l10.042-34.053
		c2.015-6.835,9.187-10.742,16.024-8.726C160.243,379.362,164.148,386.536,162.132,393.371z M654.739,317.184h-67.493
		c-0.513,5.739-1.349,11.388-2.519,16.916h33.31c7.128,0,12.903,5.777,12.903,12.903s-5.775,12.903-12.903,12.903h-41.378
		c-2.46,5.85-5.323,11.487-8.504,16.916h13.18c7.128,0,12.903,5.777,12.903,12.903c0,7.126-5.775,12.903-12.903,12.903h-32.473
		c-25.459,27.14-61.284,44.411-101.098,45.452c-3.107,3.65-6.263,7.008-9.378,10.071l10.519,72.472
		c0.538,3.706-0.562,7.465-3.011,10.295c-2.452,2.832-6.014,4.461-9.759,4.461h-72.271c-3.745,0-7.307-1.627-9.759-4.461
		c-2.449-2.832-3.549-6.589-3.011-10.295l10.519-72.472c-3.115-3.063-6.271-6.421-9.378-10.071
		c-39.813-1.041-75.638-18.313-101.097-45.452h-32.473c-7.128,0-12.903-5.775-12.903-12.903c0-7.127,5.775-12.903,12.903-12.903
		h13.18c-3.183-5.428-6.044-11.066-8.504-16.916h-41.378c-7.127,0-12.903-5.777-12.903-12.903s5.776-12.903,12.903-12.903h33.31
		c-1.17-5.528-2.006-11.174-2.519-16.916h-67.492c-7.128,0-12.903-5.777-12.903-12.903s5.775-12.903,12.903-12.903h79.788h74.154
		c7.128,0,12.903,5.777,12.903,12.903c0,11.444,4.475,22.07,12.07,29.953c1.842-8.029,4.37-15.784,7.631-23.045
		c1.942-4.325,6.099-7.238,10.828-7.583c0.032-0.002,0.063,0.001,0.095,0c0.002,0,0.005,0,0.007,0c0.093-0.007,0.184,0.003,0.277,0
		c0.475-0.022,0.949-0.036,1.419-0.005c4.1,0.243,7.852,2.422,10.09,5.927c4.279,6.691,10.578,10.531,17.284,10.543
		c5.735-0.01,11.16-2.837,15.289-7.835V280.43h-22.202c-7.128,0-12.903-5.777-12.903-12.903s5.775-12.903,12.903-12.903H400
		c7.128,0,12.903,5.777,12.903,12.903v44.702c4.129,4.998,9.554,7.824,15.289,7.834c6.706-0.012,13.005-3.852,17.284-10.542
		c2.239-3.506,6.022-5.679,10.102-5.925c0.391-0.026,0.788-0.007,1.184,0.003c0.167,0.005,0.334-0.01,0.503,0.001
		c0.003,0,0.005,0,0.009,0c0.03,0.002,0.062-0.001,0.094,0c4.73,0.346,8.887,3.259,10.829,7.584
		c3.26,7.262,5.789,15.016,7.63,23.045c7.596-7.883,12.07-18.508,12.07-29.953c0-7.126,5.775-12.903,12.903-12.903h74.154h79.788
		c7.128,0,12.903,5.777,12.903,12.903S661.866,317.184,654.739,317.184z"/>
	<path d="M787.097,129.032H12.903C5.775,129.032,0,134.81,0,141.936v516.129c0,7.128,5.775,12.903,12.903,12.903h619.354
		c7.128,0,12.903-5.775,12.903-12.903s-5.775-12.903-12.903-12.903H25.807V154.839h748.387v490.322h-90.322
		c-7.128,0-12.903,5.775-12.903,12.903s5.775,12.903,12.903,12.903h103.226c7.128,0,12.903-5.775,12.903-12.903V141.936
		C800,134.81,794.225,129.032,787.097,129.032z"/>
	<path fill="#FFE000" d="M400,484.163c-2.056,0-4.115-0.491-5.989-1.474c-0.61-0.32-4.028-2.151-9.08-5.526l-6.155,42.407h42.449
		l-6.155-42.409c-5.052,3.377-8.47,5.206-9.08,5.526C404.115,483.672,402.056,484.163,400,484.163z"/>
	<path fill="#FFE000" d="M320.721,364.704c0-0.232,0.018-0.463,0.018-0.693c-17.452-10.071-29.531-27.159-33.239-46.827h-48.848
		c5.64,51.654,44.728,93.406,95.081,103.069C326.006,404.742,320.721,386.264,320.721,364.704z"/>
	<path d="M654.739,291.377H574.95h-74.153c-7.128,0-12.903,5.777-12.903,12.903c0,11.444-4.476,22.07-12.07,29.953
		c-1.841-8.029-4.37-15.784-7.631-23.045c-1.942-4.325-6.099-7.238-10.828-7.583c-0.031-0.002-0.062,0.001-0.095,0
		c-0.003,0-0.005,0-0.009,0c-0.168-0.012-0.333,0.003-0.502-0.002c-0.396-0.01-0.793-0.029-1.184-0.003
		c-4.081,0.246-7.862,2.419-10.103,5.925c-4.278,6.69-10.577,10.531-17.283,10.542c-5.736-0.01-11.16-2.837-15.29-7.834v-44.706
		c0-7.126-5.775-12.903-12.902-12.903h-35.105c-7.128,0-12.903,5.777-12.903,12.903s5.775,12.903,12.903,12.903h22.205v31.799
		c-4.129,4.998-9.554,7.824-15.289,7.834c-6.706-0.012-13.005-3.852-17.284-10.542c-2.239-3.504-5.99-5.685-10.09-5.927
		c-0.468-0.031-0.942-0.015-1.419,0.005c-0.094,0.003-0.185-0.005-0.277,0c-0.002,0-0.005,0-0.007,0
		c-0.033,0.001-0.063-0.001-0.095,0c-4.729,0.346-8.886,3.258-10.828,7.583c-3.261,7.262-5.79,15.016-7.631,23.045
		c-7.595-7.883-12.07-18.508-12.07-29.953c0-7.126-5.775-12.903-12.903-12.903h-74.154h-79.788c-7.128,0-12.903,5.777-12.903,12.903
		s5.775,12.903,12.903,12.903h67.492c0.513,5.739,1.349,11.387,2.519,16.915h-33.31c-7.127,0-12.903,5.777-12.903,12.903
		s5.776,12.903,12.903,12.903h41.378c2.46,5.849,5.323,11.487,8.504,16.915h-13.18c-7.128,0-12.903,5.777-12.903,12.903
		s5.775,12.903,12.903,12.903h32.473c25.459,27.14,61.284,44.411,101.097,45.452c3.107,3.65,6.263,7.007,9.378,10.071
		l-10.519,72.472c-0.538,3.705,0.562,7.465,3.011,10.295c2.452,2.831,6.014,4.461,9.759,4.461h72.271
		c3.745,0,7.307-1.628,9.759-4.461c2.449-2.832,3.549-6.59,3.011-10.295l-10.519-72.472c3.115-3.064,6.271-6.421,9.378-10.071
		c39.813-1.041,75.639-18.313,101.098-45.452h32.473c7.128,0,12.903-5.775,12.903-12.903s-5.775-12.903-12.903-12.903h-13.181
		c3.184-5.428,6.044-11.066,8.505-16.915h41.378c7.128,0,12.903-5.777,12.903-12.903s-5.775-12.903-12.903-12.903h-33.31
		c1.17-5.528,2.006-11.174,2.519-16.915h67.493c7.127,0,12.903-5.777,12.903-12.903S661.866,291.377,654.739,291.377z
		 M534.408,380.102c-0.822,0.733-1.555,1.562-2.167,2.482c-16.945,19.082-39.943,32.671-65.976,37.669
		c7.729-15.511,13.014-33.989,13.014-55.549c0-0.232-0.018-0.463-0.018-0.693c17.452-10.071,29.531-27.159,33.239-46.827h48.848
		C558.749,340.984,549.041,362.677,534.408,380.102z M421.225,519.57h-42.449l6.155-42.409c5.052,3.377,8.47,5.206,9.08,5.526
		c1.876,0.982,3.934,1.475,5.989,1.475s4.115-0.492,5.989-1.475c0.61-0.32,4.028-2.15,9.08-5.526L421.225,519.57z M238.653,317.184
		h48.848c3.708,19.668,15.787,36.753,33.239,46.827c-0.002,0.232-0.018,0.463-0.018,0.693c0,21.561,5.287,40.039,13.014,55.549
		C283.381,410.588,244.292,368.838,238.653,317.184z M409.222,449.569c-3.507,2.761-6.667,4.977-9.188,6.625
		c-2.523-1.669-5.712-3.926-9.258-6.744c-7.867-6.255-17.517-15.339-25.806-27.267c-8.695-12.514-15.862-28.153-17.867-46.934
		c-0.364-3.415-0.576-6.921-0.576-10.544c0-8.566,0.964-17.006,2.832-25.041c6.819,4.019,14.503,6.211,22.415,6.211
		c10.235,0,20.092-3.675,28.193-10.233c8.103,6.559,17.959,10.233,28.192,10.233c7.928,0,15.628-2.206,22.462-6.247
		c1.882,8.026,2.853,16.479,2.853,25.077c0,3.625-0.208,7.133-0.568,10.544c-1.99,18.961-9.166,34.668-17.877,47.188
		C426.746,434.343,417.098,443.365,409.222,449.569z"/>
	<path fill="#FFE000" d="M512.501,317.184c-3.708,19.668-15.787,36.753-33.239,46.827c0.002,0.232,0.018,0.463,0.018,0.693
		c0,21.561-5.287,40.039-13.014,55.549c26.03-4.996,49.03-18.586,65.976-37.669c0.612-0.92,1.347-1.75,2.167-2.482
		c14.633-17.425,24.341-39.118,26.938-62.918H512.501z"/>
	<path fill="#FFFFFF" d="M347.104,375.248c2.005,18.78,9.172,34.421,17.867,46.934v-46.934H347.104z"/>
	<path fill="#FFFFFF" d="M435.028,422.438c8.71-12.52,15.886-28.229,17.877-47.188h-17.877V422.438z"/>
	<path fill="#FFFFFF" d="M390.778,375.248v74.2c3.544,2.818,6.734,5.075,9.258,6.744c2.521-1.647,5.681-3.862,9.188-6.625v-74.319
		H390.778z"/>
	<path fill="#ED1F34" d="M364.972,375.248v46.934c8.289,11.93,17.939,21.012,25.807,27.267v-74.2H364.972z"/>
	<path fill="#ED1F34" d="M435.028,422.438V375.25h-25.807v74.319C417.098,443.365,426.746,434.343,435.028,422.438z"/>
	<path fill="#164FCE" d="M390.778,375.248h18.445h25.806h17.877c0.358-3.413,0.568-6.919,0.568-10.544
		c0-8.599-0.971-17.051-2.853-25.077c-6.834,4.042-14.532,6.247-22.462,6.247c-10.231,0-20.09-3.675-28.193-10.233
		c-8.101,6.558-17.957,10.233-28.192,10.233c-7.914,0-15.596-2.19-22.415-6.211c-1.868,8.033-2.832,16.475-2.832,25.041
		c0,3.624,0.213,7.131,0.576,10.544h17.867H390.778z"/>
	<path fill="#3DB4EA" d="M153.406,377.345c-6.839-2.015-14.011,1.893-16.024,8.726l-10.042,34.053l-10.044-34.053
		c-2.015-6.835-9.196-10.741-16.024-8.726c-6.837,2.017-10.743,9.191-8.726,16.026l22.419,76.021
		c1.617,5.486,6.655,9.255,12.375,9.255s10.758-3.767,12.375-9.255l22.417-76.021C164.148,386.536,160.243,379.362,153.406,377.345z
		"/>
	<path fill="#3DB4EA" d="M695.081,478.646c7.128,0,12.903-5.776,12.903-12.903v-76.021c0-7.126-5.775-12.903-12.903-12.903
		s-12.903,5.777-12.903,12.903v76.021C682.178,472.869,687.953,478.646,695.081,478.646z"/>
</g>
</svg>
