<?xml version="1.0" encoding="utf-8"?>
<!-- Generator: Adobe Illustrator 16.0.0, SVG Export Plug-In . SVG Version: 6.00 Build 0)  -->
<!DOCTYPE svg PUBLIC "-//W3C//DTD SVG 1.1//EN" "http://www.w3.org/Graphics/SVG/1.1/DTD/svg11.dtd">
<svg version="1.1" id="Capa_1" xmlns="http://www.w3.org/2000/svg" xmlns:xlink="http://www.w3.org/1999/xlink" x="0px" y="0px"
	 width="800px" height="800px" viewBox="0 0 800 800" enable-background="new 0 0 800 800" xml:space="preserve">
<g>
	<path fill="#259245" d="M24.807,646.161V411.903h39.709c6.563,0,11.903-5.34,11.903-11.903v-1h27.806v1
		c0,6.563,5.34,11.903,11.903,11.903h114.824v125.275h-29.557c-6.563,0-11.903,5.34-11.903,11.903s5.34,11.903,11.903,11.903h58.665
		c6.563,0,11.903-5.34,11.903-11.903s-5.34-11.903-11.903-11.903h-5.301v-54.984h183.589v54.984H408.79
		c-6.563,0-11.903,5.34-11.903,11.903s5.34,11.903,11.903,11.903h58.666c6.563,0,11.903-5.34,11.903-11.903
		s-5.34-11.903-11.903-11.903h-5.301v-54.984h86.675v54.984h-29.558c-6.563,0-11.903,5.34-11.903,11.903s5.34,11.903,11.903,11.903
		h58.665c6.563,0,11.903-5.34,11.903-11.903s-5.34-11.903-11.903-11.903h-5.302V416.855c0-1.171-0.043-2.443-0.13-3.892
		l-0.064-1.061h202.752v234.258H24.807z"/>
	<path fill="#ED1F34" d="M254.759,458.389V262.824h37.212l15.679,104.184c0.885,5.871,5.836,10.132,11.772,10.132h44.583
		c6.563,0,11.903-5.34,11.903-11.903V311.8c0-21.901,17.818-39.718,39.719-39.718h130.692l0.417,1.909l-101.671,46.705
		c-4.212,1.935-6.934,6.18-6.934,10.816v70.849c0,6.563,5.34,11.903,11.903,11.903s11.903-5.34,11.903-11.903v-25.222h47.175
		c21.9,0,39.717,17.817,39.717,39.717v41.533H254.759z"/>
	<path fill="#259245" d="M573.504,412.903c0.079,1.31,0.132,2.624,0.132,3.952v53.437v65.887h4.302
		c7.127,0,12.903,5.775,12.903,12.903s-5.776,12.903-12.903,12.903h-58.665c-7.128,0-12.903-5.775-12.903-12.903
		s5.775-12.903,12.903-12.903h28.558v-52.984h-84.675v52.984h4.301c7.128,0,12.903,5.775,12.903,12.903s-5.775,12.903-12.903,12.903
		H408.79c-7.126,0-12.903-5.775-12.903-12.903s5.777-12.903,12.903-12.903h28.559v-52.984H255.759v52.984h4.301
		c7.126,0,12.903,5.775,12.903,12.903s-5.777,12.903-12.903,12.903h-58.665c-7.126,0-12.903-5.775-12.903-12.903
		s5.777-12.903,12.903-12.903h28.557v-65.887v-57.389H116.129c-7.126,0-12.903-5.775-12.903-12.903H77.419
		c0,7.128-5.777,12.903-12.903,12.903H25.807v232.258h748.387V412.903H573.504z"/>
	<path fill="#FFFFFF" d="M116.129,387.097h113.824v-71.661h-35.269c-7.126,0-12.903-5.775-12.903-12.903
		c0-7.127,5.777-12.903,12.903-12.903h35.269v-25.807h-35.269c-7.126,0-12.903-5.775-12.903-12.903
		c0-7.127,5.777-12.903,12.903-12.903h48.172c0.012,0,0.022,0.001,0.033,0.001h59.329c6.385,0,11.809,4.669,12.761,10.983
		l15.551,103.333h20.572V311.8c0-35.58,28.946-64.524,64.525-64.524h189.689c6.063,0,11.31,4.222,12.605,10.145
		c1.295,5.924-1.709,11.95-7.219,14.483l-147.765,67.881v12.547h46.175c24.848,0,46.446,14.128,57.222,34.765h207.858V154.839
		H25.807v232.258h38.709c7.126,0,12.903,5.775,12.903,12.903h25.806C103.226,392.872,109.003,387.097,116.129,387.097z"/>
	<path d="M787.097,129.032H12.903C5.777,129.032,0,134.808,0,141.936v516.129c0,7.128,5.777,12.903,12.903,12.903h774.193
		c7.128,0,12.903-5.775,12.903-12.903V141.936C800,134.808,794.225,129.032,787.097,129.032z M25.807,645.161V412.903h38.709
		c7.126,0,12.903-5.775,12.903-12.903s-5.777-12.903-12.903-12.903H25.807V154.839h748.387v232.258H566.335
		c-10.777-20.636-32.374-34.765-57.222-34.765h-46.175v-12.547l147.765-67.881c5.51-2.533,8.514-8.559,7.219-14.483
		c-1.296-5.923-6.543-10.145-12.605-10.145H415.627c-35.58,0-64.525,28.944-64.525,64.524v40.534h-20.572l-15.551-103.333
		c-0.95-6.314-6.376-10.983-12.761-10.983h-59.329c-0.01,0-0.022-0.001-0.033-0.001h-48.172c-7.126,0-12.903,5.775-12.903,12.903
		c0,7.128,5.777,12.903,12.903,12.903h35.269v25.807h-35.269c-7.126,0-12.903,5.775-12.903,12.903
		c0,7.128,5.777,12.903,12.903,12.903h35.269v71.661H116.129c-7.126,0-12.903,5.775-12.903,12.903s5.777,12.903,12.903,12.903
		h113.824v57.387v65.887h-28.557c-7.126,0-12.903,5.775-12.903,12.903s5.777,12.903,12.903,12.903h58.665
		c7.126,0,12.903-5.775,12.903-12.903s-5.777-12.903-12.903-12.903h-4.301v-52.983h181.589v52.983H408.79
		c-7.126,0-12.903,5.775-12.903,12.903s5.777,12.903,12.903,12.903h58.666c7.128,0,12.903-5.775,12.903-12.903
		s-5.775-12.903-12.903-12.903h-4.301v-52.983h84.675v52.983h-28.558c-7.128,0-12.903,5.775-12.903,12.903
		s5.775,12.903,12.903,12.903h58.665c7.128,0,12.903-5.775,12.903-12.903s-5.775-12.903-12.903-12.903h-4.302V470.29v-53.437
		c0-1.326-0.053-2.643-0.132-3.952h200.689v232.258H25.807V645.161z M547.83,416.855v40.533H255.759V263.825h35.351l15.551,103.333
		c0.95,6.314,6.376,10.983,12.761,10.983h44.583c7.126,0,12.903-5.775,12.903-12.903V311.8c0-21.349,17.37-38.718,38.719-38.718
		h130.692l-101.671,46.705c-4.581,2.106-7.517,6.686-7.517,11.725v33.724v37.125c0,7.128,5.775,12.903,12.903,12.903
		s12.903-5.775,12.903-12.903v-24.222h46.175C530.46,378.139,547.83,395.508,547.83,416.855z"/>
	<path fill="#ED1F34" d="M462.938,378.139v24.222c0,7.128-5.775,12.903-12.903,12.903s-12.903-5.775-12.903-12.903v-37.125v-33.724
		c0-5.041,2.936-9.621,7.517-11.725l101.671-46.705H415.627c-21.351,0-38.719,17.37-38.719,38.718v53.437
		c0,7.128-5.777,12.903-12.903,12.903h-44.583c-6.385,0-11.809-4.669-12.761-10.983L291.11,263.824h-35.351v193.564H547.83v-40.533
		c0-21.348-17.37-38.717-38.717-38.717H462.938z"/>
</g>
</svg>
