<?xml version="1.0" encoding="utf-8"?>
<!-- Generator: Adobe Illustrator 16.0.0, SVG Export Plug-In . SVG Version: 6.00 Build 0)  -->
<!DOCTYPE svg PUBLIC "-//W3C//DTD SVG 1.1//EN" "http://www.w3.org/Graphics/SVG/1.1/DTD/svg11.dtd">
<svg version="1.1" id="Capa_1" xmlns="http://www.w3.org/2000/svg" xmlns:xlink="http://www.w3.org/1999/xlink" x="0px" y="0px"
	 width="800px" height="800px" viewBox="0 0 800 800" enable-background="new 0 0 800 800" xml:space="preserve">
<g>
	<rect x="615.054" y="326.882" fill="#333333" width="86.021" height="318.279"/>
	<path fill="#259245" d="M24.807,646.161V153.839h750.387v148.236H529.032c-6.563,0-11.903,5.34-11.903,11.903v240.86
		c0,6.563,5.34,11.903,11.903,11.903h1v27.807h-1c-6.563,0-11.903,5.34-11.903,11.902v39.71H24.807z M574.957,204.871
		c-6.563,0-11.902,5.34-11.902,11.903c0,6.563,5.339,11.903,11.902,11.903h50.265l25.02,21.813c2.167,1.891,4.945,2.932,7.823,2.932
		c2.876,0,5.654-1.041,7.823-2.932l25.02-21.813h50.265c6.563,0,11.903-5.34,11.903-11.903c0-6.563-5.34-11.903-11.903-11.903
		h-54.726c-2.875,0-5.653,1.041-7.822,2.932l-20.56,17.925l-20.56-17.925c-2.167-1.891-4.945-2.932-7.822-2.932H574.957z"/>
	<rect x="700.075" y="325.882" fill="#FF7900" width="75.118" height="320.279"/>
	<path fill="#ED1F34" d="M540.936,646.161v-39.71c0-6.563-5.34-11.902-11.903-11.902h-1v-27.807h1
		c6.563,0,11.903-5.34,11.903-11.903V325.882h75.118v320.279H540.936z"/>
	<rect x="614.054" y="325.882" fill="#333333" width="88.021" height="320.279"/>
	<path fill="#259245" d="M516.129,606.451c0-7.127,5.775-12.902,12.903-12.902l0,0v-25.807l0,0c-7.128,0-12.903-5.775-12.903-12.903
		v-240.86c0-7.128,5.775-12.903,12.903-12.903h245.161V154.839H25.807v490.322h490.322V606.451z M574.957,203.871h54.726
		c3.119,0,6.13,1.128,8.479,3.178l19.902,17.352l19.902-17.352c2.35-2.047,5.36-3.178,8.479-3.178h54.726
		c7.127,0,12.903,5.775,12.903,12.903c0,7.127-5.776,12.903-12.903,12.903h-49.89l-24.737,21.567
		c-2.43,2.118-5.456,3.178-8.48,3.178s-6.051-1.058-8.48-3.178l-24.737-21.567h-49.89c-7.127,0-12.902-5.775-12.902-12.903
		C562.055,209.646,567.831,203.871,574.957,203.871z"/>
	<path d="M574.957,229.677h49.89l24.737,21.567c2.43,2.118,5.456,3.178,8.48,3.178s6.051-1.058,8.48-3.178l24.737-21.567h49.89
		c7.127,0,12.903-5.775,12.903-12.903c0-7.128-5.776-12.903-12.903-12.903h-54.726c-3.119,0-6.13,1.128-8.479,3.178l-19.902,17.352
		l-19.902-17.352c-2.35-2.047-5.36-3.178-8.479-3.178h-54.726c-7.127,0-12.902,5.775-12.902,12.903
		C562.055,223.902,567.831,229.677,574.957,229.677z"/>
	<rect x="701.075" y="326.882" fill="#FF7900" width="73.118" height="318.279"/>
	<path fill="#ED1F34" d="M541.936,606.451v38.71h73.118V326.882h-73.118v227.957c0,7.128-5.775,12.903-12.903,12.903v25.807
		C536.16,593.549,541.936,599.324,541.936,606.451z"/>
	<path d="M787.097,129.032H12.903C5.775,129.032,0,134.808,0,141.936v516.129c0,7.128,5.775,12.903,12.903,12.903h774.193
		c7.128,0,12.903-5.775,12.903-12.903V141.936C800,134.808,794.225,129.032,787.097,129.032z M25.807,154.839h748.387v146.236
		H529.032c-7.128,0-12.903,5.775-12.903,12.903v240.86c0,7.128,5.775,12.903,12.903,12.903l0,0c7.128,0,12.903-5.775,12.903-12.903
		V326.882h73.118h86.021h73.118v318.279h-73.118h-86.021h-73.118v-38.71c0-7.127-5.775-12.902-12.903-12.902l0,0
		c-7.128,0-12.903,5.775-12.903,12.902v38.71H25.807V154.839z"/>
</g>
</svg>
