<?xml version="1.0" encoding="utf-8"?>
<!-- Generator: Adobe Illustrator 16.0.0, SVG Export Plug-In . SVG Version: 6.00 Build 0)  -->
<!DOCTYPE svg PUBLIC "-//W3C//DTD SVG 1.1//EN" "http://www.w3.org/Graphics/SVG/1.1/DTD/svg11.dtd">
<svg version="1.1" id="Capa_1" xmlns="http://www.w3.org/2000/svg" xmlns:xlink="http://www.w3.org/1999/xlink" x="0px" y="0px"
	 width="800px" height="800px" viewBox="0 0 800 800" enable-background="new 0 0 800 800" xml:space="preserve">
<g>
	<path fill="#333333" d="M384.01,424.962l22.592-15.06c3.319-2.212,5.301-5.914,5.301-9.904c0-3.989-1.981-7.691-5.301-9.903
		l-22.592-15.061h391.183v49.928H384.01z"/>
	<path fill="#ED1F34" d="M644.161,511.604v-1c0-6.563-5.34-11.903-11.903-11.903H273.403l74.898-49.931h426.893v49.931h-91.322
		c-6.563,0-11.903,5.34-11.903,11.903v1H644.161z"/>
	<polygon fill="#ED1F34" points="348.301,351.228 273.404,301.297 775.193,301.297 775.193,351.228 	"/>
	<path fill="#FFE000" d="M162.825,572.424l74.87-49.914h394.563c6.563,0,11.903-5.34,11.903-11.903v-1h27.807v1
		c0,6.563,5.34,11.903,11.903,11.903h91.322v49.914H162.825z"/>
	<path fill="#FFE000" d="M237.693,277.49l-74.869-49.914h521.047c6.563,0,11.903-5.34,11.903-11.903v-1h27.807v1
		c0,6.563,5.34,11.903,11.903,11.903h39.709v49.914H237.693z"/>
	<polygon fill="#259245" points="52.217,646.161 127.114,596.229 775.193,596.229 775.193,646.161 	"/>
	<path fill="#259245" d="M695.774,216.673v-1c0-6.563-5.34-11.903-11.903-11.903H127.114l-74.897-49.931h722.976v49.931h-39.709
		c-6.563,0-11.903,5.339-11.903,11.903v1H695.774z"/>
	<path fill="#ED1F34" d="M177.035,466.693h7.063c5.24,0,9.935-3.51,11.417-8.535l2.852-9.672l10.449,38.88L177.035,466.693z"/>
	<path fill="#ED1F34" d="M96.421,446.273l3.505,11.885c1.481,5.025,6.176,8.535,11.416,8.535h5.816l-31.781,20.673L96.421,446.273z"
		/>
	<path fill="#ED1F34" d="M204.219,403.414l-52.454-44.285v-11.159c0-10.22-4.957-19.968-13.258-26.076l-0.614-0.452l9.203-24.027
		l26.334,68.755l73.53,3.799l-42.092,34.031L204.219,403.414z"/>
	<polygon fill="#ED1F34" points="47.234,369.97 86.973,367.916 86.973,402.102 	"/>
	<path fill="#FFE000" d="M110.78,400.626l-0.003-1v-51.654c0-4.736,3.854-8.589,8.59-8.589s8.591,3.853,8.591,8.589v16.687
		c0,3.513,1.54,6.827,4.225,9.094l31.831,26.873H110.78z"/>
	<polygon fill="#FFE000" points="120.242,442.888 114.798,424.434 180.645,424.434 175.199,442.888 	"/>
	<path fill="#333333" d="M388.313,391.135l19.844,13.229c3.591,2.393,5.746,6.421,5.746,10.735s-2.155,8.344-5.746,10.736
		l-19.844,13.228l402.758,2.825l-10.5-73.972L388.313,391.135z"/>
	<path fill="#ED1F34" d="M348.604,449.771l-71.898,47.931h355.552c7.128,0,12.903,5.775,12.903,12.903h25.807
		c0-7.128,5.775-12.903,12.903-12.903h90.322v-47.931H348.604L348.604,449.771z"/>
	<polygon fill="#ED1F34" points="276.707,302.297 348.604,350.228 774.193,350.228 774.193,302.297 	"/>
	<path fill="#FFE000" d="M645.161,510.606c0,7.128-5.775,12.903-12.903,12.903h-394.26l-71.87,47.914h608.065V523.51h-90.322
		c-7.128,0-12.903-5.775-12.903-12.903l0,0H645.161L645.161,510.606z"/>
	<path fill="#FFE000" d="M696.774,215.673c0,7.128-5.775,12.903-12.903,12.903H166.126l71.869,47.914h536.198v-47.914h-38.709
		c-7.128,0-12.903-5.775-12.903-12.903l0,0H696.774L696.774,215.673z"/>
	<polygon fill="#259245" points="127.417,597.229 55.52,645.161 774.193,645.161 774.193,597.229 	"/>
	<path fill="#259245" d="M127.417,202.77h556.454c7.126,0,12.903,5.775,12.903,12.903h25.807c0-7.127,5.776-12.903,12.903-12.903
		h38.709v-47.931H55.52L127.417,202.77z"/>
	<path fill="#FFFFFF" d="M376.738,400L25.807,166.044v467.91L376.738,400z M86.565,416.4c-0.01-0.032-0.019-0.063-0.027-0.096
		l-0.036-0.124c-0.012-0.04-0.016-0.083-0.027-0.122c-0.136-0.477-0.241-0.969-0.322-1.468c-0.021-0.132-0.043-0.261-0.061-0.394
		c-0.07-0.546-0.12-1.102-0.12-1.668v-12.521l-36.079-29.175l36.081-1.865v-8.095h-1.839c-7.126,0-12.903-5.775-12.903-12.903
		s5.777-12.903,12.903-12.903h4.437c5.058-12.024,16.957-20.492,30.797-20.492c7.384,0,14.195,2.439,19.73,6.512l7.997-20.877
		l25.632,66.925l71.574,3.699l-39.393,31.852l16.631,14.041c5.445,4.597,6.132,12.735,1.537,18.181
		c-2.553,3.024-6.197,4.58-9.867,4.58c-2.938,0-5.894-1-8.316-3.045l-1.543-1.303l-5.025,17.032l8.85,32.931l-26.767-17.41h-66.62
		l-26.767,17.41l9.445-35.145L86.565,416.4z"/>
	<path fill="#ED1F34" d="M184.098,467.693h-3.692l26.766,17.411l-8.85-32.931l-1.848,6.268
		C194.856,463.928,189.818,467.693,184.098,467.693z"/>
	<path fill="#ED1F34" d="M98.968,458.441l-2.501-8.481l-9.445,35.145l26.767-17.411h-2.445
		C105.624,467.693,100.585,463.928,98.968,458.441z"/>
	<path fill="#ED1F34" d="M152.766,347.971v10.694l52.122,44.005l0,0c0.002,0.002,0.002,0.002,0.002,0.002l0.015,0.014l39.396-31.852
		l-71.572-3.697l-25.633-66.925l-7.997,20.877C147.369,327.172,152.766,336.941,152.766,347.971z"/>
	<polygon fill="#ED1F34" points="85.973,368.969 49.893,370.833 85.973,400.007 	"/>
	<path d="M787.097,129.032H12.903c-0.005,0-0.01,0-0.016,0c-0.434,0.002-0.865,0.022-1.295,0.065
		c-0.164,0.017-0.323,0.05-0.485,0.074c-0.251,0.036-0.502,0.063-0.75,0.113c-0.279,0.055-0.55,0.132-0.824,0.207
		c-0.129,0.034-0.261,0.06-0.389,0.1c-0.256,0.079-0.502,0.174-0.752,0.267c-0.145,0.053-0.292,0.1-0.435,0.16
		c-0.208,0.086-0.408,0.186-0.609,0.284c-0.179,0.086-0.361,0.166-0.537,0.258c-0.153,0.083-0.296,0.177-0.445,0.265
		c-0.217,0.125-0.436,0.251-0.646,0.392c-0.101,0.067-0.198,0.146-0.297,0.217c-0.241,0.174-0.482,0.344-0.712,0.535
		c-0.074,0.061-0.143,0.129-0.215,0.193c-0.241,0.207-0.482,0.415-0.71,0.644c-0.126,0.124-0.238,0.261-0.358,0.392
		c-0.162,0.176-0.329,0.343-0.482,0.53c-0.275,0.332-0.532,0.681-0.772,1.041c-0.001,0.003-0.005,0.007-0.009,0.01
		c-0.027,0.042-0.048,0.086-0.076,0.127c-0.205,0.315-0.399,0.633-0.576,0.967c-0.062,0.117-0.113,0.239-0.172,0.356
		c-0.127,0.26-0.256,0.52-0.367,0.786c-0.07,0.172-0.127,0.346-0.189,0.52c-0.081,0.22-0.164,0.438-0.232,0.664
		c-0.067,0.22-0.117,0.444-0.17,0.666c-0.044,0.185-0.096,0.367-0.134,0.553c-0.055,0.275-0.089,0.552-0.125,0.827
		c-0.019,0.143-0.044,0.282-0.06,0.425c-0.035,0.354-0.048,0.708-0.053,1.065c0,0.065-0.009,0.132-0.009,0.201v0.04
		c0,0.017,0,0.033,0,0.048v515.95c0,0.017,0,0.032,0,0.048v0.04c0,0.068,0.009,0.134,0.01,0.201c0.005,0.355,0.019,0.71,0.053,1.064
		c0.014,0.143,0.042,0.282,0.061,0.425c0.036,0.275,0.072,0.553,0.125,0.826c0.038,0.188,0.089,0.37,0.134,0.554
		c0.055,0.223,0.105,0.446,0.17,0.666c0.067,0.226,0.151,0.442,0.232,0.662c0.064,0.174,0.119,0.35,0.191,0.521
		c0.11,0.267,0.239,0.526,0.367,0.784c0.059,0.119,0.11,0.241,0.172,0.358c0.177,0.332,0.372,0.652,0.576,0.967
		c0.028,0.041,0.048,0.086,0.076,0.127c0.001,0.004,0.005,0.007,0.007,0.011c0.278,0.415,0.585,0.811,0.908,1.188
		c0.1,0.119,0.207,0.229,0.312,0.343c0.224,0.246,0.456,0.481,0.698,0.709c0.134,0.125,0.267,0.251,0.406,0.37
		c0.256,0.22,0.523,0.426,0.796,0.626c0.115,0.084,0.224,0.175,0.342,0.255c0.387,0.265,0.792,0.507,1.209,0.729
		c0.102,0.053,0.205,0.098,0.308,0.149c0.334,0.167,0.674,0.321,1.023,0.459c0.133,0.052,0.267,0.1,0.401,0.146
		c0.331,0.117,0.666,0.222,1.008,0.313c0.138,0.036,0.273,0.073,0.413,0.106c0.351,0.081,0.707,0.145,1.068,0.194
		c0.129,0.019,0.258,0.045,0.387,0.059c0.444,0.05,0.895,0.079,1.352,0.082c0.036,0,0.072,0.007,0.11,0.007
		c0.008,0,0.015-0.001,0.024-0.001h774.154c7.128,0,12.903-5.775,12.903-12.903V141.932
		C800,134.808,794.225,129.032,787.097,129.032z M774.193,202.77h-38.709c-7.127,0-12.903,5.775-12.903,12.903l0,0
		c0,7.128,5.775,12.903,12.903,12.903h38.709v47.914H237.998l-71.87-47.914h517.743c7.128,0,12.903-5.775,12.903-12.903l0,0
		c0-7.127-5.777-12.903-12.903-12.903H127.417L55.52,154.839h718.673V202.77z M683.871,497.703c-7.128,0-12.903,5.775-12.903,12.903
		l0,0c0,7.128,5.775,12.903,12.903,12.903h90.322v47.914H166.126l71.869-47.914h394.262c7.128,0,12.903-5.775,12.903-12.903l0,0
		c0-7.128-5.775-12.903-12.903-12.903H276.707l71.898-47.931h425.588v47.931H683.871L683.871,497.703z M25.807,166.044L376.738,400
		L25.807,633.954V166.044z M387.313,423.964l19.844-13.229c3.591-2.394,5.746-6.421,5.746-10.735c0-4.315-2.155-8.344-5.746-10.735
		l-19.844-13.229h386.88v47.93h-386.88V423.964z M348.604,350.228l-71.898-47.931h497.488v47.931H348.604z M55.52,645.161
		l71.898-47.931h646.775v47.931H55.52z"/>
	<path fill="#FFE000" d="M111.78,399.626h49.499l-29.741-25.109c-2.904-2.452-4.58-6.058-4.58-9.858v-16.687
		c0-4.186-3.405-7.589-7.591-7.589c-4.186,0-7.59,3.405-7.59,7.589v51.654H111.78z"/>
	<polygon fill="#FFE000" points="120.989,441.888 174.452,441.888 179.307,425.434 116.136,425.434 	"/>
	<path d="M98.968,458.441c1.617,5.484,6.656,9.252,12.375,9.252h2.445h66.619h3.692c5.72,0,10.758-3.766,12.375-9.252l1.848-6.268
		l5.025-17.032l1.543,1.303c2.422,2.043,5.378,3.045,8.316,3.045c3.67,0,7.313-1.556,9.867-4.58
		c4.597-5.445,3.909-13.584-1.537-18.182l-16.631-14.04l-0.014-0.012c0,0-0.001-0.002-0.003-0.004l0,0l-52.122-44.005v-10.694
		c0-11.03-5.399-20.798-13.666-26.884c-5.536-4.072-12.346-6.512-19.73-6.512c-13.842,0-25.741,8.468-30.797,20.492h-4.437
		c-7.126,0-12.903,5.775-12.903,12.903c0,7.127,5.777,12.903,12.903,12.903h1.839v8.095v31.039v12.521
		c0,0.566,0.048,1.121,0.121,1.668c0.017,0.133,0.038,0.262,0.06,0.394c0.081,0.499,0.186,0.989,0.322,1.468
		c0.012,0.039,0.015,0.082,0.027,0.122l0.036,0.124c0.01,0.033,0.019,0.063,0.027,0.096l9.899,33.561L98.968,458.441z
		 M111.78,347.971c0-4.186,3.405-7.589,7.59-7.589c4.186,0,7.591,3.405,7.591,7.589v16.687c0,3.8,1.676,7.408,4.58,9.858
		l29.741,25.11H111.78V347.971z M179.307,425.434l-4.854,16.454h-53.464l-4.854-16.454H179.307L179.307,425.434z"/>
</g>
</svg>
