<?xml version="1.0" encoding="utf-8"?>
<!-- Generator: Adobe Illustrator 22.0.1, SVG Export Plug-In . SVG Version: 6.00 Build 0)  -->
<svg version="1.1" id="Layer_1" xmlns="http://www.w3.org/2000/svg" xmlns:xlink="http://www.w3.org/1999/xlink" x="0px" y="0px"
	 viewBox="0 0 600 600" style="enable-background:new 0 0 600 600;" xml:space="preserve">
<style type="text/css">
	.st0{fill:none;}
</style>
<g>
	<g>
		<path d="M164.2,205.6v110.1c0,10.4,0.4,21.5,0.8,28.7h-25.3l-1.3-13.1h-0.4c-5.3,9.6-15.8,15.1-27.1,15.1
			c-22.1,0-37.8-20.5-37.8-49.5c-0.1-32.7,18.5-50.9,39.5-50.9c10.9,0,18.8,4.2,22.6,10.5h0.4v-50.9H164.2z M135.5,287.7
			c0-1.7,0-3.7-0.4-5.5c-1.5-7.4-7-13.6-14.9-13.6c-12.3,0-18.2,12.5-18.2,27.8c0,16.8,7.1,26.9,18,26.9c7,0,12.9-4.6,14.8-12.6
			c0.5-1.9,0.7-4.1,0.7-6.6V287.7z"/>
		<path d="M209,305.7c0.7,13.2,11.9,19,25.1,19c9.3,0,17-1.4,24.1-3.8l3.8,19.7c-8.9,3.7-20.4,5.6-32.4,5.6
			c-30.7,0-48.2-18.5-48.2-48.6c0-26.9,15.8-51.6,45.6-51.6c28.1,0,40,21.9,40,47.3c0,5.7-0.5,10-1,12.3H209z M240.5,285.9
			c0.1-8.8-3.2-20.3-15-20.3c-11.4,0-16,11.8-16.6,20.3H240.5z"/>
		<path d="M305.4,248l11.3,44.3c2.1,8.3,3.6,16.2,5.1,24.5h0.6c1.4-8.5,2.9-16,4.9-24.5L338,248h29.7l-32.9,96.4h-28L274.4,248
			H305.4z"/>
		<path d="M384.1,344.4v-75.4h-12.8v-21h12.8v-3.7c0-11.4,3.2-23.3,11.5-31.2c7-6.7,16.7-9.4,25.6-9.4c6.6,0,11.7,0.9,15.7,2.1
			l-1.7,22.1c-2.5-0.8-5.4-1.4-9.2-1.4c-9.5,0-13.3,7.7-13.3,16.7v4.8h18.5v21h-18.3v75.4H384.1z"/>
		<path d="M531.9,295.4c0,36.7-24.1,50.9-46.6,50.9c-26.5,0-45.9-18.4-45.9-49.6c0-32.1,19.8-50.8,47.2-50.8
			C514.1,246,531.9,265.9,531.9,295.4z M468.7,296.1c0,16.4,5.7,29.3,17.4,29.3c10.7,0,16.5-13.1,16.5-29.5c0-14-4.5-29.2-16.6-29.2
			C473.2,266.9,468.7,282.1,468.7,296.1z"/>
	</g>
</g>
<polygon class="st0" points="183.7,238.3 193,238.3 193,238.3 183.7,238.3 "/>
</svg>
